{
  "header": {
    "keySignatures": [],
    "meta": [],
    "name": "Sitar",
    "ppq": 384,
    "tempos": [
      {
        "bpm": 82.00003553334874,
        "ticks": 0
      }
    ],
    "timeSignatures": [
      {
        "ticks": 0,
        "timeSignature": [4, 4],
        "measures": 0
      }
    ]
  },
  "tracks": [
    {
      "channel": 0,
      "controlChanges": {},
      "pitchBends": [],
      "instrument": {
        "family": "world",
        "number": 104,
        "name": "sitar"
      },
      "name": "Sitar",
      "notes": [
        {
          "duration": 0.18292675,
          "durationTicks": 96,
          "midi": 67,
          "name": "G4",
          "ticks": 0,
          "time": 0,
          "velocity": 0.3937007874015748
        },
        {
          "duration": 0.18292674999999997,
          "durationTicks": 96,
          "midi": 64,
          "name": "E4",
          "ticks": 192,
          "time": 0.3658535,
          "velocity": 0.3937007874015748
        },
        {
          "duration": 0.18292675000000003,
          "durationTicks": 96,
          "midi": 65,
          "name": "F4",
          "ticks": 384,
          "time": 0.731707,
          "velocity": 0.3937007874015748
        },
        {
          "duration": 0.18292675000000003,
          "durationTicks": 96,
          "midi": 61,
          "name": "C#4",
          "ticks": 576,
          "time": 1.0975605,
          "velocity": 0.3937007874015748
        },
        {
          "duration": 0.18292675000000003,
          "durationTicks": 96,
          "midi": 60,
          "name": "C4",
          "ticks": 768,
          "time": 1.463414,
          "velocity": 0.3937007874015748
        },
        {
          "duration": 0.18292675000000003,
          "durationTicks": 96,
          "midi": 60,
          "name": "C4",
          "ticks": 768,
          "time": 1.463414,
          "velocity": 0.3937007874015748
        },
        {
          "duration": 0.18292675000000003,
          "durationTicks": 96,
          "midi": 48,
          "name": "C3",
          "ticks": 768,
          "time": 1.463414,
          "velocity": 0.3937007874015748
        },
        {
          "duration": 0.1829267499999998,
          "durationTicks": 96,
          "midi": 58,
          "name": "A#3",
          "ticks": 960,
          "time": 1.8292675,
          "velocity": 0.3937007874015748
        },
        {
          "duration": 0.1829267499999998,
          "durationTicks": 96,
          "midi": 58,
          "name": "A#3",
          "ticks": 960,
          "time": 1.8292675,
          "velocity": 0.3937007874015748
        },
        {
          "duration": 0.1829267499999998,
          "durationTicks": 96,
          "midi": 46,
          "name": "A#2",
          "ticks": 960,
          "time": 1.8292675,
          "velocity": 0.3937007874015748
        },
        {
          "duration": 0.18292675000000003,
          "durationTicks": 96,
          "midi": 60,
          "name": "C4",
          "ticks": 1152,
          "time": 2.195121,
          "velocity": 0.3937007874015748
        },
        {
          "duration": 0.18292675000000003,
          "durationTicks": 96,
          "midi": 60,
          "name": "C4",
          "ticks": 1152,
          "time": 2.195121,
          "velocity": 0.3937007874015748
        },
        {
          "duration": 0.18292675000000003,
          "durationTicks": 96,
          "midi": 48,
          "name": "C3",
          "ticks": 1152,
          "time": 2.195121,
          "velocity": 0.3937007874015748
        },
        {
          "duration": 0.18292675000000003,
          "durationTicks": 96,
          "midi": 36,
          "name": "C2",
          "ticks": 1152,
          "time": 2.195121,
          "velocity": 0.3937007874015748
        },
        {
          "duration": 0.18292675000000003,
          "durationTicks": 96,
          "midi": 58,
          "name": "A#3",
          "ticks": 1344,
          "time": 2.5609745,
          "velocity": 0.3937007874015748
        },
        {
          "duration": 0.18292675000000003,
          "durationTicks": 96,
          "midi": 60,
          "name": "C4",
          "ticks": 1440,
          "time": 2.74390125,
          "velocity": 0.3937007874015748
        },
        {
          "duration": 0.18292675000000003,
          "durationTicks": 96,
          "midi": 48,
          "name": "C3",
          "ticks": 1440,
          "time": 2.74390125,
          "velocity": 0.3937007874015748
        },
        {
          "duration": 0.18292675000000003,
          "durationTicks": 96,
          "midi": 61,
          "name": "C#4",
          "ticks": 1536,
          "time": 2.926828,
          "velocity": 0.3937007874015748
        },
        {
          "duration": 0.18292675000000003,
          "durationTicks": 96,
          "midi": 49,
          "name": "C#3",
          "ticks": 1536,
          "time": 2.926828,
          "velocity": 0.3937007874015748
        },
        {
          "duration": 0.18292675000000003,
          "durationTicks": 96,
          "midi": 37,
          "name": "C#2",
          "ticks": 1536,
          "time": 2.926828,
          "velocity": 0.3937007874015748
        },
        {
          "duration": 0.18292675000000003,
          "durationTicks": 96,
          "midi": 63,
          "name": "D#4",
          "ticks": 1728,
          "time": 3.2926815,
          "velocity": 0.3937007874015748
        },
        {
          "duration": 0.18292675000000003,
          "durationTicks": 96,
          "midi": 51,
          "name": "D#3",
          "ticks": 1728,
          "time": 3.2926815,
          "velocity": 0.3937007874015748
        },
        {
          "duration": 0.18292675000000003,
          "durationTicks": 96,
          "midi": 65,
          "name": "F4",
          "ticks": 1824,
          "time": 3.47560825,
          "velocity": 0.3937007874015748
        },
        {
          "duration": 0.18292675000000003,
          "durationTicks": 96,
          "midi": 61,
          "name": "C#4",
          "ticks": 1920,
          "time": 3.658535,
          "velocity": 0.3937007874015748
        },
        {
          "duration": 0.18292675000000003,
          "durationTicks": 96,
          "midi": 49,
          "name": "C#3",
          "ticks": 1920,
          "time": 3.658535,
          "velocity": 0.3937007874015748
        },
        {
          "duration": 0.18292675000000003,
          "durationTicks": 96,
          "midi": 41,
          "name": "F2",
          "ticks": 1920,
          "time": 3.658535,
          "velocity": 0.3937007874015748
        },
        {
          "duration": 0.18292674999999958,
          "durationTicks": 96,
          "midi": 65,
          "name": "F4",
          "ticks": 2016,
          "time": 3.84146175,
          "velocity": 0.3937007874015748
        },
        {
          "duration": 0.18292675000000003,
          "durationTicks": 96,
          "midi": 64,
          "name": "E4",
          "ticks": 2112,
          "time": 4.0243885,
          "velocity": 0.3937007874015748
        },
        {
          "duration": 0.18292675000000003,
          "durationTicks": 96,
          "midi": 52,
          "name": "E3",
          "ticks": 2112,
          "time": 4.0243885,
          "velocity": 0.3937007874015748
        },
        {
          "duration": 0.18292675000000003,
          "durationTicks": 96,
          "midi": 58,
          "name": "A#3",
          "ticks": 2208,
          "time": 4.20731525,
          "velocity": 0.3937007874015748
        },
        {
          "duration": 0.18292675000000003,
          "durationTicks": 96,
          "midi": 44,
          "name": "G#2",
          "ticks": 2208,
          "time": 4.20731525,
          "velocity": 0.3937007874015748
        },
        {
          "duration": 0.09146337500000001,
          "durationTicks": 48,
          "midi": 61,
          "name": "C#4",
          "ticks": 2304,
          "time": 4.390242,
          "velocity": 0.3937007874015748
        },
        {
          "duration": 0.18292675000000003,
          "durationTicks": 96,
          "midi": 61,
          "name": "C#4",
          "ticks": 2304,
          "time": 4.390242,
          "velocity": 0.3937007874015748
        },
        {
          "duration": 0.18292675000000003,
          "durationTicks": 96,
          "midi": 43,
          "name": "G2",
          "ticks": 2304,
          "time": 4.390242,
          "velocity": 0.3937007874015748
        },
        {
          "duration": 0.09146337500000001,
          "durationTicks": 48,
          "midi": 64,
          "name": "E4",
          "ticks": 2352,
          "time": 4.481705375,
          "velocity": 0.3937007874015748
        },
        {
          "duration": 0.09146337500000001,
          "durationTicks": 48,
          "midi": 61,
          "name": "C#4",
          "ticks": 2400,
          "time": 4.57316875,
          "velocity": 0.3937007874015748
        },
        {
          "duration": 0.09146337500000001,
          "durationTicks": 48,
          "midi": 60,
          "name": "C4",
          "ticks": 2496,
          "time": 4.7560955,
          "velocity": 0.3937007874015748
        },
        {
          "duration": 0.18292675000000003,
          "durationTicks": 96,
          "midi": 64,
          "name": "E4",
          "ticks": 2496,
          "time": 4.7560955,
          "velocity": 0.3937007874015748
        },
        {
          "duration": 0.18292675000000003,
          "durationTicks": 96,
          "midi": 48,
          "name": "C3",
          "ticks": 2496,
          "time": 4.7560955,
          "velocity": 0.3937007874015748
        },
        {
          "duration": 0.18292675000000003,
          "durationTicks": 96,
          "midi": 65,
          "name": "F4",
          "ticks": 2592,
          "time": 4.93902225,
          "velocity": 0.3937007874015748
        },
        {
          "duration": 0.18292675000000003,
          "durationTicks": 96,
          "midi": 52,
          "name": "E3",
          "ticks": 2592,
          "time": 4.93902225,
          "velocity": 0.3937007874015748
        },
        {
          "duration": 0.18292675000000003,
          "durationTicks": 96,
          "midi": 60,
          "name": "C4",
          "ticks": 2688,
          "time": 5.121949,
          "velocity": 0.3937007874015748
        },
        {
          "duration": 0.18292675000000003,
          "durationTicks": 96,
          "midi": 67,
          "name": "G4",
          "ticks": 2688,
          "time": 5.121949,
          "velocity": 0.3937007874015748
        },
        {
          "duration": 0.18292675000000003,
          "durationTicks": 96,
          "midi": 48,
          "name": "C3",
          "ticks": 2688,
          "time": 5.121949,
          "velocity": 0.3937007874015748
        },
        {
          "duration": 0.18292675000000003,
          "durationTicks": 96,
          "midi": 55,
          "name": "G3",
          "ticks": 2688,
          "time": 5.121949,
          "velocity": 0.3937007874015748
        },
        {
          "duration": 0.18292675000000003,
          "durationTicks": 96,
          "midi": 67,
          "name": "G4",
          "ticks": 3072,
          "time": 5.853656,
          "velocity": 0.3937007874015748
        },
        {
          "duration": 0.18292675000000003,
          "durationTicks": 96,
          "midi": 64,
          "name": "E4",
          "ticks": 3264,
          "time": 6.2195095,
          "velocity": 0.3937007874015748
        },
        {
          "duration": 0.18292675000000003,
          "durationTicks": 96,
          "midi": 65,
          "name": "F4",
          "ticks": 3456,
          "time": 6.585363,
          "velocity": 0.3937007874015748
        },
        {
          "duration": 0.18292675000000003,
          "durationTicks": 96,
          "midi": 61,
          "name": "C#4",
          "ticks": 3648,
          "time": 6.9512165,
          "velocity": 0.3937007874015748
        },
        {
          "duration": 0.18292675000000003,
          "durationTicks": 96,
          "midi": 60,
          "name": "C4",
          "ticks": 3840,
          "time": 7.31707,
          "velocity": 0.3937007874015748
        },
        {
          "duration": 0.18292675000000003,
          "durationTicks": 96,
          "midi": 60,
          "name": "C4",
          "ticks": 4224,
          "time": 8.048777,
          "velocity": 0.3937007874015748
        },
        {
          "duration": 0.18292675000000003,
          "durationTicks": 96,
          "midi": 67,
          "name": "G4",
          "ticks": 4608,
          "time": 8.780484,
          "velocity": 0.3937007874015748
        },
        {
          "duration": 0.18292675000000003,
          "durationTicks": 96,
          "midi": 64,
          "name": "E4",
          "ticks": 4800,
          "time": 9.1463375,
          "velocity": 0.3937007874015748
        },
        {
          "duration": 0.18292675000000003,
          "durationTicks": 96,
          "midi": 65,
          "name": "F4",
          "ticks": 4992,
          "time": 9.512191,
          "velocity": 0.3937007874015748
        },
        {
          "duration": 0.18292675000000003,
          "durationTicks": 96,
          "midi": 67,
          "name": "G4",
          "ticks": 5184,
          "time": 9.8780445,
          "velocity": 0.3937007874015748
        },
        {
          "duration": 0.18292675000000003,
          "durationTicks": 96,
          "midi": 68,
          "name": "G#4",
          "ticks": 5376,
          "time": 10.243898,
          "velocity": 0.3937007874015748
        },
        {
          "duration": 0.18292675000000003,
          "durationTicks": 96,
          "midi": 60,
          "name": "C4",
          "ticks": 5760,
          "time": 10.975605,
          "velocity": 0.3937007874015748
        },
        {
          "duration": 0.18292675000000003,
          "durationTicks": 96,
          "midi": 67,
          "name": "G4",
          "ticks": 6144,
          "time": 11.707312,
          "velocity": 0.3937007874015748
        },
        {
          "duration": 0.18292675000000003,
          "durationTicks": 96,
          "midi": 64,
          "name": "E4",
          "ticks": 6336,
          "time": 12.0731655,
          "velocity": 0.3937007874015748
        },
        {
          "duration": 0.18292675000000003,
          "durationTicks": 96,
          "midi": 65,
          "name": "F4",
          "ticks": 6528,
          "time": 12.439019,
          "velocity": 0.3937007874015748
        },
        {
          "duration": 0.18292675000000003,
          "durationTicks": 96,
          "midi": 61,
          "name": "C#4",
          "ticks": 6720,
          "time": 12.8048725,
          "velocity": 0.3937007874015748
        },
        {
          "duration": 0.18292675000000003,
          "durationTicks": 96,
          "midi": 60,
          "name": "C4",
          "ticks": 6912,
          "time": 13.170726,
          "velocity": 0.3937007874015748
        },
        {
          "duration": 0.18292675000000003,
          "durationTicks": 96,
          "midi": 58,
          "name": "A#3",
          "ticks": 7104,
          "time": 13.5365795,
          "velocity": 0.3937007874015748
        },
        {
          "duration": 0.18292675000000003,
          "durationTicks": 96,
          "midi": 60,
          "name": "C4",
          "ticks": 7296,
          "time": 13.902433,
          "velocity": 0.3937007874015748
        },
        {
          "duration": 0.18292675000000003,
          "durationTicks": 96,
          "midi": 58,
          "name": "A#3",
          "ticks": 7488,
          "time": 14.2682865,
          "velocity": 0.3937007874015748
        },
        {
          "duration": 0.18292675000000003,
          "durationTicks": 96,
          "midi": 60,
          "name": "C4",
          "ticks": 7584,
          "time": 14.45121325,
          "velocity": 0.3937007874015748
        },
        {
          "duration": 0.18292675000000003,
          "durationTicks": 96,
          "midi": 61,
          "name": "C#4",
          "ticks": 7680,
          "time": 14.63414,
          "velocity": 0.3937007874015748
        },
        {
          "duration": 0.18292675000000003,
          "durationTicks": 96,
          "midi": 63,
          "name": "D#4",
          "ticks": 7872,
          "time": 14.9999935,
          "velocity": 0.3937007874015748
        },
        {
          "duration": 0.18292675000000003,
          "durationTicks": 96,
          "midi": 65,
          "name": "F4",
          "ticks": 7968,
          "time": 15.18292025,
          "velocity": 0.3937007874015748
        },
        {
          "duration": 0.18292675000000003,
          "durationTicks": 96,
          "midi": 61,
          "name": "C#4",
          "ticks": 8064,
          "time": 15.365847,
          "velocity": 0.3937007874015748
        },
        {
          "duration": 0.18292675000000003,
          "durationTicks": 96,
          "midi": 64,
          "name": "E4",
          "ticks": 8256,
          "time": 15.7317005,
          "velocity": 0.3937007874015748
        },
        {
          "duration": 0.09146337500000001,
          "durationTicks": 48,
          "midi": 61,
          "name": "C#4",
          "ticks": 8448,
          "time": 16.097554,
          "velocity": 0.3937007874015748
        },
        {
          "duration": 0.09146337500000001,
          "durationTicks": 48,
          "midi": 64,
          "name": "E4",
          "ticks": 8496,
          "time": 16.189017375,
          "velocity": 0.3937007874015748
        },
        {
          "duration": 0.09146337500000001,
          "durationTicks": 48,
          "midi": 61,
          "name": "C#4",
          "ticks": 8544,
          "time": 16.28048075,
          "velocity": 0.3937007874015748
        },
        {
          "duration": 0.09146337500000001,
          "durationTicks": 48,
          "midi": 60,
          "name": "C4",
          "ticks": 8640,
          "time": 16.4634075,
          "velocity": 0.3937007874015748
        },
        {
          "duration": 0.18292675000000003,
          "durationTicks": 96,
          "midi": 60,
          "name": "C4",
          "ticks": 8832,
          "time": 16.829261,
          "velocity": 0.3937007874015748
        },
        {
          "duration": 0.36585350000000005,
          "durationTicks": 192,
          "midi": 36,
          "name": "C2",
          "ticks": 8832,
          "time": 16.829261,
          "velocity": 0.3937007874015748
        },
        {
          "duration": 0.36585350000000005,
          "durationTicks": 192,
          "midi": 48,
          "name": "C3",
          "ticks": 8832,
          "time": 16.829261,
          "velocity": 0.3937007874015748
        },
        {
          "duration": 0.36585350000000005,
          "durationTicks": 192,
          "midi": 60,
          "name": "C4",
          "ticks": 8832,
          "time": 16.829261,
          "velocity": 0.3937007874015748
        },
        {
          "duration": 0.18292675000000003,
          "durationTicks": 96,
          "midi": 67,
          "name": "G4",
          "ticks": 9216,
          "time": 17.560968,
          "velocity": 0.3937007874015748
        },
        {
          "duration": 0.18292675000000003,
          "durationTicks": 96,
          "midi": 64,
          "name": "E4",
          "ticks": 9408,
          "time": 17.9268215,
          "velocity": 0.3937007874015748
        },
        {
          "duration": 0.18292675000000003,
          "durationTicks": 96,
          "midi": 65,
          "name": "F4",
          "ticks": 9600,
          "time": 18.292675,
          "velocity": 0.3937007874015748
        },
        {
          "duration": 0.18292675000000003,
          "durationTicks": 96,
          "midi": 61,
          "name": "C#4",
          "ticks": 9792,
          "time": 18.6585285,
          "velocity": 0.3937007874015748
        },
        {
          "duration": 0.18292675000000003,
          "durationTicks": 96,
          "midi": 60,
          "name": "C4",
          "ticks": 9984,
          "time": 19.024382,
          "velocity": 0.3937007874015748
        },
        {
          "duration": 0.36585350000000005,
          "durationTicks": 192,
          "midi": 46,
          "name": "A#2",
          "ticks": 10176,
          "time": 19.3902355,
          "velocity": 0.3937007874015748
        },
        {
          "duration": 0.18292675000000003,
          "durationTicks": 96,
          "midi": 60,
          "name": "C4",
          "ticks": 10368,
          "time": 19.756089,
          "velocity": 0.3937007874015748
        },
        {
          "duration": 0.36585350000000005,
          "durationTicks": 192,
          "midi": 48,
          "name": "C3",
          "ticks": 10368,
          "time": 19.756089,
          "velocity": 0.3937007874015748
        },
        {
          "duration": 0.36585350000000005,
          "durationTicks": 192,
          "midi": 60,
          "name": "C4",
          "ticks": 10368,
          "time": 19.756089,
          "velocity": 0.3937007874015748
        },
        {
          "duration": 0.36585350000000005,
          "durationTicks": 192,
          "midi": 36,
          "name": "C2",
          "ticks": 10368,
          "time": 19.756089,
          "velocity": 0.3937007874015748
        },
        {
          "duration": 0.18292675000000003,
          "durationTicks": 96,
          "midi": 67,
          "name": "G4",
          "ticks": 10752,
          "time": 20.487796,
          "velocity": 0.3937007874015748
        },
        {
          "duration": 0.18292675000000003,
          "durationTicks": 96,
          "midi": 64,
          "name": "E4",
          "ticks": 10944,
          "time": 20.8536495,
          "velocity": 0.3937007874015748
        },
        {
          "duration": 0.18292675000000003,
          "durationTicks": 96,
          "midi": 65,
          "name": "F4",
          "ticks": 11136,
          "time": 21.219503,
          "velocity": 0.3937007874015748
        },
        {
          "duration": 0.18292675000000003,
          "durationTicks": 96,
          "midi": 67,
          "name": "G4",
          "ticks": 11328,
          "time": 21.5853565,
          "velocity": 0.3937007874015748
        },
        {
          "duration": 0.18292675000000003,
          "durationTicks": 96,
          "midi": 55,
          "name": "G3",
          "ticks": 11328,
          "time": 21.5853565,
          "velocity": 0.3937007874015748
        },
        {
          "duration": 0.18292675000000003,
          "durationTicks": 96,
          "midi": 67,
          "name": "G4",
          "ticks": 11328,
          "time": 21.5853565,
          "velocity": 0.3937007874015748
        },
        {
          "duration": 0.18292675000000003,
          "durationTicks": 96,
          "midi": 53,
          "name": "F3",
          "ticks": 11424,
          "time": 21.76828325,
          "velocity": 0.3937007874015748
        },
        {
          "duration": 0.18292675000000003,
          "durationTicks": 96,
          "midi": 65,
          "name": "F4",
          "ticks": 11424,
          "time": 21.76828325,
          "velocity": 0.3937007874015748
        },
        {
          "duration": 0.18292675000000003,
          "durationTicks": 96,
          "midi": 68,
          "name": "G#4",
          "ticks": 11520,
          "time": 21.95121,
          "velocity": 0.3937007874015748
        },
        {
          "duration": 0.18292675000000003,
          "durationTicks": 96,
          "midi": 63,
          "name": "D#4",
          "ticks": 11520,
          "time": 21.95121,
          "velocity": 0.3937007874015748
        },
        {
          "duration": 0.18292675000000003,
          "durationTicks": 96,
          "midi": 51,
          "name": "D#3",
          "ticks": 11520,
          "time": 21.95121,
          "velocity": 0.3937007874015748
        },
        {
          "duration": 0.18292675000000003,
          "durationTicks": 96,
          "midi": 61,
          "name": "C#4",
          "ticks": 11616,
          "time": 22.13413675,
          "velocity": 0.3937007874015748
        },
        {
          "duration": 0.18292675000000003,
          "durationTicks": 96,
          "midi": 49,
          "name": "C#3",
          "ticks": 11616,
          "time": 22.13413675,
          "velocity": 0.3937007874015748
        },
        {
          "duration": 0.18292675000000003,
          "durationTicks": 96,
          "midi": 46,
          "name": "A#2",
          "ticks": 11712,
          "time": 22.3170635,
          "velocity": 0.3937007874015748
        },
        {
          "duration": 0.18292675000000003,
          "durationTicks": 96,
          "midi": 58,
          "name": "A#3",
          "ticks": 11712,
          "time": 22.3170635,
          "velocity": 0.3937007874015748
        },
        {
          "duration": 0.18292675000000003,
          "durationTicks": 96,
          "midi": 60,
          "name": "C4",
          "ticks": 11904,
          "time": 22.682917,
          "velocity": 0.3937007874015748
        },
        {
          "duration": 0.36585350000000005,
          "durationTicks": 192,
          "midi": 60,
          "name": "C4",
          "ticks": 11904,
          "time": 22.682917,
          "velocity": 0.3937007874015748
        },
        {
          "duration": 0.36585350000000005,
          "durationTicks": 192,
          "midi": 48,
          "name": "C3",
          "ticks": 11904,
          "time": 22.682917,
          "velocity": 0.3937007874015748
        },
        {
          "duration": 0.36585350000000005,
          "durationTicks": 192,
          "midi": 36,
          "name": "C2",
          "ticks": 11904,
          "time": 22.682917,
          "velocity": 0.3937007874015748
        },
        {
          "duration": 0.18292675000000003,
          "durationTicks": 96,
          "midi": 67,
          "name": "G4",
          "ticks": 12288,
          "time": 23.414624,
          "velocity": 0.3937007874015748
        },
        {
          "duration": 0.18292675000000003,
          "durationTicks": 96,
          "midi": 64,
          "name": "E4",
          "ticks": 12480,
          "time": 23.7804775,
          "velocity": 0.3937007874015748
        },
        {
          "duration": 0.18292675000000003,
          "durationTicks": 96,
          "midi": 65,
          "name": "F4",
          "ticks": 12672,
          "time": 24.146331,
          "velocity": 0.3937007874015748
        },
        {
          "duration": 0.18292675000000003,
          "durationTicks": 96,
          "midi": 61,
          "name": "C#4",
          "ticks": 12864,
          "time": 24.5121845,
          "velocity": 0.3937007874015748
        },
        {
          "duration": 0.18292675000000003,
          "durationTicks": 96,
          "midi": 60,
          "name": "C4",
          "ticks": 13056,
          "time": 24.878038,
          "velocity": 0.3937007874015748
        },
        {
          "duration": 0.18292675000000003,
          "durationTicks": 96,
          "midi": 60,
          "name": "C4",
          "ticks": 13056,
          "time": 24.878038,
          "velocity": 0.3937007874015748
        },
        {
          "duration": 0.18292675000000003,
          "durationTicks": 96,
          "midi": 48,
          "name": "C3",
          "ticks": 13056,
          "time": 24.878038,
          "velocity": 0.3937007874015748
        },
        {
          "duration": 0.18292675000000003,
          "durationTicks": 96,
          "midi": 58,
          "name": "A#3",
          "ticks": 13248,
          "time": 25.2438915,
          "velocity": 0.3937007874015748
        },
        {
          "duration": 0.18292675000000003,
          "durationTicks": 96,
          "midi": 58,
          "name": "A#3",
          "ticks": 13248,
          "time": 25.2438915,
          "velocity": 0.3937007874015748
        },
        {
          "duration": 0.18292675000000003,
          "durationTicks": 96,
          "midi": 46,
          "name": "A#2",
          "ticks": 13248,
          "time": 25.2438915,
          "velocity": 0.3937007874015748
        },
        {
          "duration": 0.18292675000000003,
          "durationTicks": 96,
          "midi": 60,
          "name": "C4",
          "ticks": 13440,
          "time": 25.609745,
          "velocity": 0.3937007874015748
        },
        {
          "duration": 0.18292675000000003,
          "durationTicks": 96,
          "midi": 60,
          "name": "C4",
          "ticks": 13440,
          "time": 25.609745,
          "velocity": 0.3937007874015748
        },
        {
          "duration": 0.18292675000000003,
          "durationTicks": 96,
          "midi": 48,
          "name": "C3",
          "ticks": 13440,
          "time": 25.609745,
          "velocity": 0.3937007874015748
        },
        {
          "duration": 0.18292675000000003,
          "durationTicks": 96,
          "midi": 36,
          "name": "C2",
          "ticks": 13440,
          "time": 25.609745,
          "velocity": 0.3937007874015748
        },
        {
          "duration": 0.18292675000000003,
          "durationTicks": 96,
          "midi": 58,
          "name": "A#3",
          "ticks": 13632,
          "time": 25.9755985,
          "velocity": 0.3937007874015748
        },
        {
          "duration": 0.18292675000000003,
          "durationTicks": 96,
          "midi": 60,
          "name": "C4",
          "ticks": 13728,
          "time": 26.15852525,
          "velocity": 0.3937007874015748
        },
        {
          "duration": 0.18292675000000003,
          "durationTicks": 96,
          "midi": 48,
          "name": "C3",
          "ticks": 13728,
          "time": 26.15852525,
          "velocity": 0.3937007874015748
        },
        {
          "duration": 0.18292675000000003,
          "durationTicks": 96,
          "midi": 61,
          "name": "C#4",
          "ticks": 13824,
          "time": 26.341452,
          "velocity": 0.3937007874015748
        },
        {
          "duration": 0.18292675000000003,
          "durationTicks": 96,
          "midi": 49,
          "name": "C#3",
          "ticks": 13824,
          "time": 26.341452,
          "velocity": 0.3937007874015748
        },
        {
          "duration": 0.18292675000000003,
          "durationTicks": 96,
          "midi": 37,
          "name": "C#2",
          "ticks": 13824,
          "time": 26.341452,
          "velocity": 0.3937007874015748
        },
        {
          "duration": 0.18292675000000003,
          "durationTicks": 96,
          "midi": 63,
          "name": "D#4",
          "ticks": 14016,
          "time": 26.7073055,
          "velocity": 0.3937007874015748
        },
        {
          "duration": 0.18292675000000003,
          "durationTicks": 96,
          "midi": 51,
          "name": "D#3",
          "ticks": 14016,
          "time": 26.7073055,
          "velocity": 0.3937007874015748
        },
        {
          "duration": 0.18292675000000003,
          "durationTicks": 96,
          "midi": 65,
          "name": "F4",
          "ticks": 14112,
          "time": 26.89023225,
          "velocity": 0.3937007874015748
        },
        {
          "duration": 0.18292675000000003,
          "durationTicks": 96,
          "midi": 61,
          "name": "C#4",
          "ticks": 14208,
          "time": 27.073159,
          "velocity": 0.3937007874015748
        },
        {
          "duration": 0.18292675000000003,
          "durationTicks": 96,
          "midi": 49,
          "name": "C#3",
          "ticks": 14208,
          "time": 27.073159,
          "velocity": 0.3937007874015748
        },
        {
          "duration": 0.18292675000000003,
          "durationTicks": 96,
          "midi": 41,
          "name": "F2",
          "ticks": 14208,
          "time": 27.073159,
          "velocity": 0.3937007874015748
        },
        {
          "duration": 0.18292675000000003,
          "durationTicks": 96,
          "midi": 65,
          "name": "F4",
          "ticks": 14304,
          "time": 27.25608575,
          "velocity": 0.3937007874015748
        },
        {
          "duration": 0.18292675000000003,
          "durationTicks": 96,
          "midi": 64,
          "name": "E4",
          "ticks": 14400,
          "time": 27.4390125,
          "velocity": 0.3937007874015748
        },
        {
          "duration": 0.18292675000000003,
          "durationTicks": 96,
          "midi": 52,
          "name": "E3",
          "ticks": 14400,
          "time": 27.4390125,
          "velocity": 0.3937007874015748
        },
        {
          "duration": 0.18292675000000003,
          "durationTicks": 96,
          "midi": 58,
          "name": "A#3",
          "ticks": 14496,
          "time": 27.62193925,
          "velocity": 0.3937007874015748
        },
        {
          "duration": 0.18292675000000003,
          "durationTicks": 96,
          "midi": 44,
          "name": "G#2",
          "ticks": 14496,
          "time": 27.62193925,
          "velocity": 0.3937007874015748
        },
        {
          "duration": 0.09146337500000001,
          "durationTicks": 48,
          "midi": 61,
          "name": "C#4",
          "ticks": 14592,
          "time": 27.804866,
          "velocity": 0.3937007874015748
        },
        {
          "duration": 0.18292675000000003,
          "durationTicks": 96,
          "midi": 61,
          "name": "C#4",
          "ticks": 14592,
          "time": 27.804866,
          "velocity": 0.3937007874015748
        },
        {
          "duration": 0.18292675000000003,
          "durationTicks": 96,
          "midi": 43,
          "name": "G2",
          "ticks": 14592,
          "time": 27.804866,
          "velocity": 0.3937007874015748
        },
        {
          "duration": 0.09146337500000001,
          "durationTicks": 48,
          "midi": 64,
          "name": "E4",
          "ticks": 14640,
          "time": 27.896329375,
          "velocity": 0.3937007874015748
        },
        {
          "duration": 0.09146337500000001,
          "durationTicks": 48,
          "midi": 61,
          "name": "C#4",
          "ticks": 14688,
          "time": 27.98779275,
          "velocity": 0.3937007874015748
        },
        {
          "duration": 0.09146337500000001,
          "durationTicks": 48,
          "midi": 60,
          "name": "C4",
          "ticks": 14784,
          "time": 28.1707195,
          "velocity": 0.3937007874015748
        },
        {
          "duration": 0.18292675000000003,
          "durationTicks": 96,
          "midi": 64,
          "name": "E4",
          "ticks": 14784,
          "time": 28.1707195,
          "velocity": 0.3937007874015748
        },
        {
          "duration": 0.18292675000000003,
          "durationTicks": 96,
          "midi": 48,
          "name": "C3",
          "ticks": 14784,
          "time": 28.1707195,
          "velocity": 0.3937007874015748
        },
        {
          "duration": 0.18292675000000003,
          "durationTicks": 96,
          "midi": 65,
          "name": "F4",
          "ticks": 14880,
          "time": 28.35364625,
          "velocity": 0.3937007874015748
        },
        {
          "duration": 0.18292675000000003,
          "durationTicks": 96,
          "midi": 52,
          "name": "E3",
          "ticks": 14880,
          "time": 28.35364625,
          "velocity": 0.3937007874015748
        }
      ],
      "endOfTrackTicks": 14976
    },
    {
      "channel": 1,
      "controlChanges": {},
      "pitchBends": [],
      "instrument": {
        "family": "world",
        "number": 107,
        "name": "koto"
      },
      "name": "Koto",
      "notes": [
        {
          "duration": 0.09146337500000001,
          "durationTicks": 48,
          "midi": 60,
          "name": "C4",
          "ticks": 2688,
          "time": 5.121949,
          "velocity": 0.31496062992125984
        },
        {
          "duration": 0.04573168750000001,
          "durationTicks": 24,
          "midi": 60,
          "name": "C4",
          "ticks": 2880,
          "time": 5.4878025,
          "velocity": 0.31496062992125984
        },
        {
          "duration": 0.04573168750000001,
          "durationTicks": 24,
          "midi": 60,
          "name": "C4",
          "ticks": 2904,
          "time": 5.5335341875,
          "velocity": 0.31496062992125984
        },
        {
          "duration": 0.04573168750000001,
          "durationTicks": 24,
          "midi": 60,
          "name": "C4",
          "ticks": 2928,
          "time": 5.579265875,
          "velocity": 0.31496062992125984
        },
        {
          "duration": 0.09146337500000001,
          "durationTicks": 48,
          "midi": 67,
          "name": "G4",
          "ticks": 2976,
          "time": 5.67072925,
          "velocity": 0.31496062992125984
        },
        {
          "duration": 0.09146337500000001,
          "durationTicks": 48,
          "midi": 64,
          "name": "E4",
          "ticks": 3072,
          "time": 5.853656,
          "velocity": 0.31496062992125984
        },
        {
          "duration": 0.09146337500000001,
          "durationTicks": 48,
          "midi": 61,
          "name": "C#4",
          "ticks": 3264,
          "time": 6.2195095,
          "velocity": 0.31496062992125984
        },
        {
          "duration": 0.04573168750000001,
          "durationTicks": 24,
          "midi": 65,
          "name": "F4",
          "ticks": 3456,
          "time": 6.585363,
          "velocity": 0.31496062992125984
        },
        {
          "duration": 0.04573168750000001,
          "durationTicks": 24,
          "midi": 64,
          "name": "E4",
          "ticks": 3480,
          "time": 6.6310946875,
          "velocity": 0.31496062992125984
        },
        {
          "duration": 0.04573168750000001,
          "durationTicks": 24,
          "midi": 61,
          "name": "C#4",
          "ticks": 3504,
          "time": 6.676826375,
          "velocity": 0.31496062992125984
        },
        {
          "duration": 0.04573168750000001,
          "durationTicks": 24,
          "midi": 63,
          "name": "D#4",
          "ticks": 3552,
          "time": 6.76828975,
          "velocity": 0.31496062992125984
        },
        {
          "duration": 0.09146337500000001,
          "durationTicks": 48,
          "midi": 61,
          "name": "C#4",
          "ticks": 3648,
          "time": 6.9512165,
          "velocity": 0.31496062992125984
        },
        {
          "duration": 0.09146337500000001,
          "durationTicks": 48,
          "midi": 60,
          "name": "C4",
          "ticks": 3840,
          "time": 7.31707,
          "velocity": 0.31496062992125984
        },
        {
          "duration": 0.09146337500000001,
          "durationTicks": 48,
          "midi": 58,
          "name": "A#3",
          "ticks": 4032,
          "time": 7.6829235,
          "velocity": 0.31496062992125984
        },
        {
          "duration": 0.09146337500000001,
          "durationTicks": 48,
          "midi": 60,
          "name": "C4",
          "ticks": 4224,
          "time": 8.048777,
          "velocity": 0.31496062992125984
        },
        {
          "duration": 0.09146337500000001,
          "durationTicks": 48,
          "midi": 58,
          "name": "A#3",
          "ticks": 4272,
          "time": 8.140240375,
          "velocity": 0.31496062992125984
        },
        {
          "duration": 0.09146337500000001,
          "durationTicks": 48,
          "midi": 64,
          "name": "E4",
          "ticks": 4320,
          "time": 8.23170375,
          "velocity": 0.31496062992125984
        },
        {
          "duration": 0.09146337500000001,
          "durationTicks": 48,
          "midi": 65,
          "name": "F4",
          "ticks": 4368,
          "time": 8.323167125,
          "velocity": 0.31496062992125984
        },
        {
          "duration": 0.09146337500000001,
          "durationTicks": 48,
          "midi": 67,
          "name": "G4",
          "ticks": 4416,
          "time": 8.4146305,
          "velocity": 0.31496062992125984
        },
        {
          "duration": 0.09146337500000001,
          "durationTicks": 48,
          "midi": 64,
          "name": "E4",
          "ticks": 4512,
          "time": 8.59755725,
          "velocity": 0.31496062992125984
        },
        {
          "duration": 0.04573168750000001,
          "durationTicks": 24,
          "midi": 65,
          "name": "F4",
          "ticks": 4608,
          "time": 8.780484,
          "velocity": 0.31496062992125984
        },
        {
          "duration": 0.04573168750000001,
          "durationTicks": 24,
          "midi": 67,
          "name": "G4",
          "ticks": 4632,
          "time": 8.8262156875,
          "velocity": 0.31496062992125984
        },
        {
          "duration": 0.04573168750000001,
          "durationTicks": 24,
          "midi": 65,
          "name": "F4",
          "ticks": 4656,
          "time": 8.871947375,
          "velocity": 0.31496062992125984
        },
        {
          "duration": 0.04573168750000001,
          "durationTicks": 24,
          "midi": 65,
          "name": "F4",
          "ticks": 4704,
          "time": 8.96341075,
          "velocity": 0.31496062992125984
        },
        {
          "duration": 0.04573168750000001,
          "durationTicks": 24,
          "midi": 64,
          "name": "E4",
          "ticks": 4800,
          "time": 9.1463375,
          "velocity": 0.31496062992125984
        },
        {
          "duration": 0.04573168750000001,
          "durationTicks": 24,
          "midi": 65,
          "name": "F4",
          "ticks": 4824,
          "time": 9.1920691875,
          "velocity": 0.31496062992125984
        },
        {
          "duration": 0.04573168750000001,
          "durationTicks": 24,
          "midi": 64,
          "name": "E4",
          "ticks": 4848,
          "time": 9.237800875,
          "velocity": 0.31496062992125984
        },
        {
          "duration": 0.04573168750000001,
          "durationTicks": 24,
          "midi": 64,
          "name": "E4",
          "ticks": 4896,
          "time": 9.32926425,
          "velocity": 0.31496062992125984
        },
        {
          "duration": 0.04573168750000001,
          "durationTicks": 24,
          "midi": 60,
          "name": "C4",
          "ticks": 4992,
          "time": 9.512191,
          "velocity": 0.31496062992125984
        },
        {
          "duration": 0.04573168750000001,
          "durationTicks": 24,
          "midi": 61,
          "name": "C#4",
          "ticks": 5088,
          "time": 9.69511775,
          "velocity": 0.31496062992125984
        },
        {
          "duration": 0.09146337500000001,
          "durationTicks": 48,
          "midi": 67,
          "name": "G4",
          "ticks": 5184,
          "time": 9.8780445,
          "velocity": 0.31496062992125984
        },
        {
          "duration": 0.04573168750000001,
          "durationTicks": 24,
          "midi": 64,
          "name": "E4",
          "ticks": 5184,
          "time": 9.8780445,
          "velocity": 0.31496062992125984
        },
        {
          "duration": 0.04573168750000001,
          "durationTicks": 24,
          "midi": 61,
          "name": "C#4",
          "ticks": 5280,
          "time": 10.06097125,
          "velocity": 0.31496062992125984
        },
        {
          "duration": 0.09146337500000001,
          "durationTicks": 48,
          "midi": 68,
          "name": "G#4",
          "ticks": 5328,
          "time": 10.152434625,
          "velocity": 0.31496062992125984
        },
        {
          "duration": 0.04573168750000001,
          "durationTicks": 24,
          "midi": 61,
          "name": "C#4",
          "ticks": 5376,
          "time": 10.243898,
          "velocity": 0.31496062992125984
        },
        {
          "duration": 0.04573168750000001,
          "durationTicks": 24,
          "midi": 65,
          "name": "F4",
          "ticks": 5472,
          "time": 10.42682475,
          "velocity": 0.31496062992125984
        },
        {
          "duration": 0.04573168750000001,
          "durationTicks": 24,
          "midi": 64,
          "name": "E4",
          "ticks": 5496,
          "time": 10.4725564375,
          "velocity": 0.31496062992125984
        },
        {
          "duration": 0.04573168750000001,
          "durationTicks": 24,
          "midi": 65,
          "name": "F4",
          "ticks": 5520,
          "time": 10.518288125,
          "velocity": 0.31496062992125984
        },
        {
          "duration": 0.04573168750000001,
          "durationTicks": 24,
          "midi": 67,
          "name": "G4",
          "ticks": 5568,
          "time": 10.6097515,
          "velocity": 0.31496062992125984
        },
        {
          "duration": 0.04573168750000001,
          "durationTicks": 24,
          "midi": 68,
          "name": "G#4",
          "ticks": 5592,
          "time": 10.6554831875,
          "velocity": 0.31496062992125984
        },
        {
          "duration": 0.04573168750000001,
          "durationTicks": 24,
          "midi": 67,
          "name": "G4",
          "ticks": 5616,
          "time": 10.701214875,
          "velocity": 0.31496062992125984
        },
        {
          "duration": 0.04573168750000001,
          "durationTicks": 24,
          "midi": 67,
          "name": "G4",
          "ticks": 5664,
          "time": 10.79267825,
          "velocity": 0.31496062992125984
        },
        {
          "duration": 0.04573168750000001,
          "durationTicks": 24,
          "midi": 64,
          "name": "E4",
          "ticks": 5664,
          "time": 10.79267825,
          "velocity": 0.31496062992125984
        },
        {
          "duration": 0.04573168750000001,
          "durationTicks": 24,
          "midi": 67,
          "name": "G4",
          "ticks": 5760,
          "time": 10.975605,
          "velocity": 0.31496062992125984
        },
        {
          "duration": 0.04573168750000001,
          "durationTicks": 24,
          "midi": 68,
          "name": "G#4",
          "ticks": 5784,
          "time": 11.0213366875,
          "velocity": 0.31496062992125984
        },
        {
          "duration": 0.04573168750000001,
          "durationTicks": 24,
          "midi": 67,
          "name": "G4",
          "ticks": 5808,
          "time": 11.067068375,
          "velocity": 0.31496062992125984
        },
        {
          "duration": 0.04573168750000001,
          "durationTicks": 24,
          "midi": 68,
          "name": "G#4",
          "ticks": 5856,
          "time": 11.15853175,
          "velocity": 0.31496062992125984
        },
        {
          "duration": 0.04573168750000001,
          "durationTicks": 24,
          "midi": 65,
          "name": "F4",
          "ticks": 5952,
          "time": 11.3414585,
          "velocity": 0.31496062992125984
        },
        {
          "duration": 0.04573168750000001,
          "durationTicks": 24,
          "midi": 67,
          "name": "G4",
          "ticks": 5976,
          "time": 11.3871901875,
          "velocity": 0.31496062992125984
        },
        {
          "duration": 0.04573168750000001,
          "durationTicks": 24,
          "midi": 65,
          "name": "F4",
          "ticks": 6000,
          "time": 11.432921875,
          "velocity": 0.31496062992125984
        },
        {
          "duration": 0.04573168750000001,
          "durationTicks": 24,
          "midi": 67,
          "name": "G4",
          "ticks": 6048,
          "time": 11.52438525,
          "velocity": 0.31496062992125984
        },
        {
          "duration": 0.04573168750000001,
          "durationTicks": 24,
          "midi": 64,
          "name": "E4",
          "ticks": 6144,
          "time": 11.707312,
          "velocity": 0.31496062992125984
        },
        {
          "duration": 0.04573168750000001,
          "durationTicks": 24,
          "midi": 65,
          "name": "F4",
          "ticks": 6168,
          "time": 11.7530436875,
          "velocity": 0.31496062992125984
        },
        {
          "duration": 0.04573168750000001,
          "durationTicks": 24,
          "midi": 64,
          "name": "E4",
          "ticks": 6192,
          "time": 11.798775375,
          "velocity": 0.31496062992125984
        },
        {
          "duration": 0.04573168750000001,
          "durationTicks": 24,
          "midi": 65,
          "name": "F4",
          "ticks": 6240,
          "time": 11.89023875,
          "velocity": 0.31496062992125984
        },
        {
          "duration": 0.04573168750000001,
          "durationTicks": 24,
          "midi": 61,
          "name": "C#4",
          "ticks": 6336,
          "time": 12.0731655,
          "velocity": 0.31496062992125984
        },
        {
          "duration": 0.04573168750000001,
          "durationTicks": 24,
          "midi": 64,
          "name": "E4",
          "ticks": 6360,
          "time": 12.1188971875,
          "velocity": 0.31496062992125984
        },
        {
          "duration": 0.04573168750000001,
          "durationTicks": 24,
          "midi": 61,
          "name": "C#4",
          "ticks": 6384,
          "time": 12.164628875,
          "velocity": 0.31496062992125984
        },
        {
          "duration": 0.04573168750000001,
          "durationTicks": 24,
          "midi": 63,
          "name": "D#4",
          "ticks": 6432,
          "time": 12.25609225,
          "velocity": 0.31496062992125984
        },
        {
          "duration": 0.04573168750000001,
          "durationTicks": 24,
          "midi": 61,
          "name": "C#4",
          "ticks": 6528,
          "time": 12.439019,
          "velocity": 0.31496062992125984
        },
        {
          "duration": 0.04573168750000001,
          "durationTicks": 24,
          "midi": 65,
          "name": "F4",
          "ticks": 6576,
          "time": 12.530482375,
          "velocity": 0.31496062992125984
        },
        {
          "duration": 0.04573168750000001,
          "durationTicks": 24,
          "midi": 61,
          "name": "C#4",
          "ticks": 6624,
          "time": 12.62194575,
          "velocity": 0.31496062992125984
        },
        {
          "duration": 0.04573168750000001,
          "durationTicks": 24,
          "midi": 61,
          "name": "C#4",
          "ticks": 6648,
          "time": 12.6676774375,
          "velocity": 0.31496062992125984
        },
        {
          "duration": 0.04573168750000001,
          "durationTicks": 24,
          "midi": 61,
          "name": "C#4",
          "ticks": 6672,
          "time": 12.713409125,
          "velocity": 0.31496062992125984
        },
        {
          "duration": 0.04573168750000001,
          "durationTicks": 24,
          "midi": 61,
          "name": "C#4",
          "ticks": 6720,
          "time": 12.8048725,
          "velocity": 0.31496062992125984
        },
        {
          "duration": 0.04573168750000001,
          "durationTicks": 24,
          "midi": 63,
          "name": "D#4",
          "ticks": 6816,
          "time": 12.98779925,
          "velocity": 0.31496062992125984
        },
        {
          "duration": 0.04573168750000001,
          "durationTicks": 24,
          "midi": 60,
          "name": "C4",
          "ticks": 6912,
          "time": 13.170726,
          "velocity": 0.31496062992125984
        },
        {
          "duration": 0.04573168750000001,
          "durationTicks": 24,
          "midi": 60,
          "name": "C4",
          "ticks": 6936,
          "time": 13.2164576875,
          "velocity": 0.31496062992125984
        },
        {
          "duration": 0.04573168750000001,
          "durationTicks": 24,
          "midi": 60,
          "name": "C4",
          "ticks": 6960,
          "time": 13.262189375,
          "velocity": 0.31496062992125984
        },
        {
          "duration": 0.04573168750000001,
          "durationTicks": 24,
          "midi": 60,
          "name": "C4",
          "ticks": 7008,
          "time": 13.35365275,
          "velocity": 0.31496062992125984
        },
        {
          "duration": 0.04573168750000001,
          "durationTicks": 24,
          "midi": 60,
          "name": "C4",
          "ticks": 7056,
          "time": 13.445116125,
          "velocity": 0.31496062992125984
        },
        {
          "duration": 0.04573168750000001,
          "durationTicks": 24,
          "midi": 58,
          "name": "A#3",
          "ticks": 7104,
          "time": 13.5365795,
          "velocity": 0.31496062992125984
        },
        {
          "duration": 0.04573168750000001,
          "durationTicks": 24,
          "midi": 58,
          "name": "A#3",
          "ticks": 7152,
          "time": 13.628042875,
          "velocity": 0.31496062992125984
        },
        {
          "duration": 0.04573168750000001,
          "durationTicks": 24,
          "midi": 58,
          "name": "A#3",
          "ticks": 7200,
          "time": 13.71950625,
          "velocity": 0.31496062992125984
        },
        {
          "duration": 0.04573168750000001,
          "durationTicks": 24,
          "midi": 58,
          "name": "A#3",
          "ticks": 7248,
          "time": 13.810969625,
          "velocity": 0.31496062992125984
        },
        {
          "duration": 0.04573168750000001,
          "durationTicks": 24,
          "midi": 60,
          "name": "C4",
          "ticks": 7296,
          "time": 13.902433,
          "velocity": 0.31496062992125984
        },
        {
          "duration": 0.04573168750000001,
          "durationTicks": 24,
          "midi": 58,
          "name": "A#3",
          "ticks": 7320,
          "time": 13.9481646875,
          "velocity": 0.31496062992125984
        },
        {
          "duration": 0.04573168750000001,
          "durationTicks": 24,
          "midi": 60,
          "name": "C4",
          "ticks": 7344,
          "time": 13.993896375,
          "velocity": 0.31496062992125984
        },
        {
          "duration": 0.04573168750000001,
          "durationTicks": 24,
          "midi": 60,
          "name": "C4",
          "ticks": 7392,
          "time": 14.08535975,
          "velocity": 0.31496062992125984
        },
        {
          "duration": 0.04573168750000001,
          "durationTicks": 24,
          "midi": 58,
          "name": "A#3",
          "ticks": 7488,
          "time": 14.2682865,
          "velocity": 0.31496062992125984
        },
        {
          "duration": 0.04573168750000001,
          "durationTicks": 24,
          "midi": 60,
          "name": "C4",
          "ticks": 7536,
          "time": 14.359749875,
          "velocity": 0.31496062992125984
        },
        {
          "duration": 0.04573168750000001,
          "durationTicks": 24,
          "midi": 58,
          "name": "A#3",
          "ticks": 7584,
          "time": 14.45121325,
          "velocity": 0.31496062992125984
        },
        {
          "duration": 0.04573168750000001,
          "durationTicks": 24,
          "midi": 60,
          "name": "C4",
          "ticks": 7632,
          "time": 14.542676625,
          "velocity": 0.31496062992125984
        },
        {
          "duration": 0.04573168750000001,
          "durationTicks": 24,
          "midi": 61,
          "name": "C#4",
          "ticks": 7680,
          "time": 14.63414,
          "velocity": 0.31496062992125984
        },
        {
          "duration": 0.04573168750000001,
          "durationTicks": 24,
          "midi": 60,
          "name": "C4",
          "ticks": 7704,
          "time": 14.6798716875,
          "velocity": 0.31496062992125984
        },
        {
          "duration": 0.04573168750000001,
          "durationTicks": 24,
          "midi": 61,
          "name": "C#4",
          "ticks": 7728,
          "time": 14.725603375,
          "velocity": 0.31496062992125984
        },
        {
          "duration": 0.04573168750000001,
          "durationTicks": 24,
          "midi": 61,
          "name": "C#4",
          "ticks": 7776,
          "time": 14.81706675,
          "velocity": 0.31496062992125984
        },
        {
          "duration": 0.04573168750000001,
          "durationTicks": 24,
          "midi": 63,
          "name": "D#4",
          "ticks": 7872,
          "time": 14.9999935,
          "velocity": 0.31496062992125984
        },
        {
          "duration": 0.04573168750000001,
          "durationTicks": 24,
          "midi": 65,
          "name": "F4",
          "ticks": 7968,
          "time": 15.18292025,
          "velocity": 0.31496062992125984
        },
        {
          "duration": 0.04573168750000001,
          "durationTicks": 24,
          "midi": 61,
          "name": "C#4",
          "ticks": 8064,
          "time": 15.365847,
          "velocity": 0.31496062992125984
        },
        {
          "duration": 0.04573168750000001,
          "durationTicks": 24,
          "midi": 61,
          "name": "C#4",
          "ticks": 8160,
          "time": 15.54877375,
          "velocity": 0.31496062992125984
        },
        {
          "duration": 0.04573168750000001,
          "durationTicks": 24,
          "midi": 61,
          "name": "C#4",
          "ticks": 8184,
          "time": 15.5945054375,
          "velocity": 0.31496062992125984
        },
        {
          "duration": 0.04573168750000001,
          "durationTicks": 24,
          "midi": 61,
          "name": "C#4",
          "ticks": 8208,
          "time": 15.640237125,
          "velocity": 0.31496062992125984
        },
        {
          "duration": 0.04573168750000001,
          "durationTicks": 24,
          "midi": 64,
          "name": "E4",
          "ticks": 8256,
          "time": 15.7317005,
          "velocity": 0.31496062992125984
        },
        {
          "duration": 0.04573168750000001,
          "durationTicks": 24,
          "midi": 65,
          "name": "F4",
          "ticks": 8280,
          "time": 15.7774321875,
          "velocity": 0.31496062992125984
        },
        {
          "duration": 0.04573168750000001,
          "durationTicks": 24,
          "midi": 64,
          "name": "E4",
          "ticks": 8304,
          "time": 15.823163875,
          "velocity": 0.31496062992125984
        },
        {
          "duration": 0.04573168750000001,
          "durationTicks": 24,
          "midi": 64,
          "name": "E4",
          "ticks": 8352,
          "time": 15.91462725,
          "velocity": 0.31496062992125984
        },
        {
          "duration": 0.04573168750000178,
          "durationTicks": 24,
          "midi": 61,
          "name": "C#4",
          "ticks": 8448,
          "time": 16.097554,
          "velocity": 0.31496062992125984
        },
        {
          "duration": 0.04573168749999823,
          "durationTicks": 24,
          "midi": 64,
          "name": "E4",
          "ticks": 8472,
          "time": 16.1432856875,
          "velocity": 0.31496062992125984
        },
        {
          "duration": 0.04573168750000178,
          "durationTicks": 24,
          "midi": 61,
          "name": "C#4",
          "ticks": 8496,
          "time": 16.189017375,
          "velocity": 0.31496062992125984
        },
        {
          "duration": 0.04573168750000178,
          "durationTicks": 24,
          "midi": 64,
          "name": "E4",
          "ticks": 8544,
          "time": 16.28048075,
          "velocity": 0.31496062992125984
        },
        {
          "duration": 0.04573168750000178,
          "durationTicks": 24,
          "midi": 61,
          "name": "C#4",
          "ticks": 8592,
          "time": 16.371944125,
          "velocity": 0.31496062992125984
        },
        {
          "duration": 0.04573168750000178,
          "durationTicks": 24,
          "midi": 60,
          "name": "C4",
          "ticks": 8640,
          "time": 16.4634075,
          "velocity": 0.31496062992125984
        },
        {
          "duration": 0.04573168749999823,
          "durationTicks": 24,
          "midi": 58,
          "name": "A#3",
          "ticks": 8664,
          "time": 16.5091391875,
          "velocity": 0.31496062992125984
        },
        {
          "duration": 0.04573168750000178,
          "durationTicks": 24,
          "midi": 60,
          "name": "C4",
          "ticks": 8688,
          "time": 16.554870875,
          "velocity": 0.31496062992125984
        },
        {
          "duration": 0.04573168750000178,
          "durationTicks": 24,
          "midi": 60,
          "name": "C4",
          "ticks": 8736,
          "time": 16.64633425,
          "velocity": 0.31496062992125984
        }
      ],
      "endOfTrackTicks": 8760
    },
    {
      "channel": 2,
      "controlChanges": {},
      "pitchBends": [],
      "instrument": {
        "family": "guitar",
        "number": 24,
        "name": "acoustic guitar (nylon)"
      },
      "name": "Acoustic Guitar",
      "notes": [
        {
          "duration": 0.18292675,
          "durationTicks": 96,
          "midi": 67,
          "name": "G4",
          "ticks": 0,
          "time": 0,
          "velocity": 0.44881889763779526
        },
        {
          "duration": 0.18292674999999997,
          "durationTicks": 96,
          "midi": 64,
          "name": "E4",
          "ticks": 192,
          "time": 0.3658535,
          "velocity": 0.44881889763779526
        },
        {
          "duration": 0.18292675000000003,
          "durationTicks": 96,
          "midi": 65,
          "name": "F4",
          "ticks": 384,
          "time": 0.731707,
          "velocity": 0.44881889763779526
        },
        {
          "duration": 0.18292675000000003,
          "durationTicks": 96,
          "midi": 61,
          "name": "C#4",
          "ticks": 576,
          "time": 1.0975605,
          "velocity": 0.44881889763779526
        },
        {
          "duration": 0.18292675000000003,
          "durationTicks": 96,
          "midi": 60,
          "name": "C4",
          "ticks": 768,
          "time": 1.463414,
          "velocity": 0.44881889763779526
        },
        {
          "duration": 0.1829267499999998,
          "durationTicks": 96,
          "midi": 58,
          "name": "A#3",
          "ticks": 960,
          "time": 1.8292675,
          "velocity": 0.44881889763779526
        },
        {
          "duration": 0.18292675000000003,
          "durationTicks": 96,
          "midi": 60,
          "name": "C4",
          "ticks": 1152,
          "time": 2.195121,
          "velocity": 0.44881889763779526
        },
        {
          "duration": 0.18292675000000003,
          "durationTicks": 96,
          "midi": 58,
          "name": "A#3",
          "ticks": 1344,
          "time": 2.5609745,
          "velocity": 0.44881889763779526
        },
        {
          "duration": 0.18292675000000003,
          "durationTicks": 96,
          "midi": 60,
          "name": "C4",
          "ticks": 1440,
          "time": 2.74390125,
          "velocity": 0.44881889763779526
        },
        {
          "duration": 0.18292675000000003,
          "durationTicks": 96,
          "midi": 61,
          "name": "C#4",
          "ticks": 1536,
          "time": 2.926828,
          "velocity": 0.44881889763779526
        },
        {
          "duration": 0.18292675000000003,
          "durationTicks": 96,
          "midi": 63,
          "name": "D#4",
          "ticks": 1728,
          "time": 3.2926815,
          "velocity": 0.44881889763779526
        },
        {
          "duration": 0.18292675000000003,
          "durationTicks": 96,
          "midi": 65,
          "name": "F4",
          "ticks": 1824,
          "time": 3.47560825,
          "velocity": 0.44881889763779526
        },
        {
          "duration": 0.18292675000000003,
          "durationTicks": 96,
          "midi": 61,
          "name": "C#4",
          "ticks": 1920,
          "time": 3.658535,
          "velocity": 0.44881889763779526
        },
        {
          "duration": 0.18292675000000003,
          "durationTicks": 96,
          "midi": 64,
          "name": "E4",
          "ticks": 2112,
          "time": 4.0243885,
          "velocity": 0.44881889763779526
        },
        {
          "duration": 0.09146337500000001,
          "durationTicks": 48,
          "midi": 61,
          "name": "C#4",
          "ticks": 2304,
          "time": 4.390242,
          "velocity": 0.44881889763779526
        },
        {
          "duration": 0.09146337500000001,
          "durationTicks": 48,
          "midi": 64,
          "name": "E4",
          "ticks": 2352,
          "time": 4.481705375,
          "velocity": 0.44881889763779526
        },
        {
          "duration": 0.09146337500000001,
          "durationTicks": 48,
          "midi": 61,
          "name": "C#4",
          "ticks": 2400,
          "time": 4.57316875,
          "velocity": 0.44881889763779526
        },
        {
          "duration": 0.09146337500000001,
          "durationTicks": 48,
          "midi": 60,
          "name": "C4",
          "ticks": 2496,
          "time": 4.7560955,
          "velocity": 0.44881889763779526
        },
        {
          "duration": 0.18292675000000003,
          "durationTicks": 96,
          "midi": 48,
          "name": "C3",
          "ticks": 2688,
          "time": 5.121949,
          "velocity": 0.44881889763779526
        },
        {
          "duration": 0.18292675000000003,
          "durationTicks": 96,
          "midi": 55,
          "name": "G3",
          "ticks": 3072,
          "time": 5.853656,
          "velocity": 0.44881889763779526
        },
        {
          "duration": 0.18292675000000003,
          "durationTicks": 96,
          "midi": 52,
          "name": "E3",
          "ticks": 3264,
          "time": 6.2195095,
          "velocity": 0.44881889763779526
        },
        {
          "duration": 0.18292675000000003,
          "durationTicks": 96,
          "midi": 53,
          "name": "F3",
          "ticks": 3456,
          "time": 6.585363,
          "velocity": 0.44881889763779526
        },
        {
          "duration": 0.18292675000000003,
          "durationTicks": 96,
          "midi": 49,
          "name": "C#3",
          "ticks": 3648,
          "time": 6.9512165,
          "velocity": 0.44881889763779526
        },
        {
          "duration": 0.18292675000000003,
          "durationTicks": 96,
          "midi": 48,
          "name": "C3",
          "ticks": 3840,
          "time": 7.31707,
          "velocity": 0.44881889763779526
        },
        {
          "duration": 0.18292675000000003,
          "durationTicks": 96,
          "midi": 48,
          "name": "C3",
          "ticks": 4224,
          "time": 8.048777,
          "velocity": 0.44881889763779526
        },
        {
          "duration": 0.18292675000000003,
          "durationTicks": 96,
          "midi": 55,
          "name": "G3",
          "ticks": 4608,
          "time": 8.780484,
          "velocity": 0.44881889763779526
        },
        {
          "duration": 0.18292675000000003,
          "durationTicks": 96,
          "midi": 52,
          "name": "E3",
          "ticks": 4800,
          "time": 9.1463375,
          "velocity": 0.44881889763779526
        },
        {
          "duration": 0.18292675000000003,
          "durationTicks": 96,
          "midi": 53,
          "name": "F3",
          "ticks": 4992,
          "time": 9.512191,
          "velocity": 0.44881889763779526
        },
        {
          "duration": 0.18292675000000003,
          "durationTicks": 96,
          "midi": 55,
          "name": "G3",
          "ticks": 5184,
          "time": 9.8780445,
          "velocity": 0.44881889763779526
        },
        {
          "duration": 0.18292675000000003,
          "durationTicks": 96,
          "midi": 56,
          "name": "G#3",
          "ticks": 5376,
          "time": 10.243898,
          "velocity": 0.44881889763779526
        },
        {
          "duration": 0.18292675000000003,
          "durationTicks": 96,
          "midi": 48,
          "name": "C3",
          "ticks": 5760,
          "time": 10.975605,
          "velocity": 0.44881889763779526
        },
        {
          "duration": 0.18292675000000003,
          "durationTicks": 96,
          "midi": 55,
          "name": "G3",
          "ticks": 6144,
          "time": 11.707312,
          "velocity": 0.44881889763779526
        },
        {
          "duration": 0.18292675000000003,
          "durationTicks": 96,
          "midi": 52,
          "name": "E3",
          "ticks": 6336,
          "time": 12.0731655,
          "velocity": 0.44881889763779526
        },
        {
          "duration": 0.18292675000000003,
          "durationTicks": 96,
          "midi": 53,
          "name": "F3",
          "ticks": 6528,
          "time": 12.439019,
          "velocity": 0.44881889763779526
        },
        {
          "duration": 0.18292675000000003,
          "durationTicks": 96,
          "midi": 49,
          "name": "C#3",
          "ticks": 6720,
          "time": 12.8048725,
          "velocity": 0.44881889763779526
        },
        {
          "duration": 0.18292675000000003,
          "durationTicks": 96,
          "midi": 48,
          "name": "C3",
          "ticks": 6912,
          "time": 13.170726,
          "velocity": 0.44881889763779526
        },
        {
          "duration": 0.18292675000000003,
          "durationTicks": 96,
          "midi": 46,
          "name": "A#2",
          "ticks": 7104,
          "time": 13.5365795,
          "velocity": 0.44881889763779526
        },
        {
          "duration": 0.18292675000000003,
          "durationTicks": 96,
          "midi": 48,
          "name": "C3",
          "ticks": 7296,
          "time": 13.902433,
          "velocity": 0.44881889763779526
        },
        {
          "duration": 0.18292675000000003,
          "durationTicks": 96,
          "midi": 46,
          "name": "A#2",
          "ticks": 7488,
          "time": 14.2682865,
          "velocity": 0.44881889763779526
        },
        {
          "duration": 0.18292675000000003,
          "durationTicks": 96,
          "midi": 48,
          "name": "C3",
          "ticks": 7584,
          "time": 14.45121325,
          "velocity": 0.44881889763779526
        },
        {
          "duration": 0.18292675000000003,
          "durationTicks": 96,
          "midi": 49,
          "name": "C#3",
          "ticks": 7680,
          "time": 14.63414,
          "velocity": 0.44881889763779526
        },
        {
          "duration": 0.18292675000000003,
          "durationTicks": 96,
          "midi": 51,
          "name": "D#3",
          "ticks": 7872,
          "time": 14.9999935,
          "velocity": 0.44881889763779526
        },
        {
          "duration": 0.18292675000000003,
          "durationTicks": 96,
          "midi": 53,
          "name": "F3",
          "ticks": 7968,
          "time": 15.18292025,
          "velocity": 0.44881889763779526
        },
        {
          "duration": 0.18292675000000003,
          "durationTicks": 96,
          "midi": 49,
          "name": "C#3",
          "ticks": 8064,
          "time": 15.365847,
          "velocity": 0.44881889763779526
        },
        {
          "duration": 0.18292675000000003,
          "durationTicks": 96,
          "midi": 52,
          "name": "E3",
          "ticks": 8256,
          "time": 15.7317005,
          "velocity": 0.44881889763779526
        },
        {
          "duration": 0.09146337500000001,
          "durationTicks": 48,
          "midi": 49,
          "name": "C#3",
          "ticks": 8448,
          "time": 16.097554,
          "velocity": 0.44881889763779526
        },
        {
          "duration": 0.09146337500000001,
          "durationTicks": 48,
          "midi": 52,
          "name": "E3",
          "ticks": 8496,
          "time": 16.189017375,
          "velocity": 0.44881889763779526
        },
        {
          "duration": 0.09146337500000001,
          "durationTicks": 48,
          "midi": 49,
          "name": "C#3",
          "ticks": 8544,
          "time": 16.28048075,
          "velocity": 0.44881889763779526
        },
        {
          "duration": 0.09146337500000001,
          "durationTicks": 48,
          "midi": 48,
          "name": "C3",
          "ticks": 8640,
          "time": 16.4634075,
          "velocity": 0.44881889763779526
        },
        {
          "duration": 0.18292675000000003,
          "durationTicks": 96,
          "midi": 60,
          "name": "C4",
          "ticks": 8832,
          "time": 16.829261,
          "velocity": 0.44881889763779526
        },
        {
          "duration": 0.18292675000000003,
          "durationTicks": 96,
          "midi": 67,
          "name": "G4",
          "ticks": 9216,
          "time": 17.560968,
          "velocity": 0.44881889763779526
        },
        {
          "duration": 0.18292675000000003,
          "durationTicks": 96,
          "midi": 64,
          "name": "E4",
          "ticks": 9408,
          "time": 17.9268215,
          "velocity": 0.44881889763779526
        },
        {
          "duration": 0.18292675000000003,
          "durationTicks": 96,
          "midi": 65,
          "name": "F4",
          "ticks": 9600,
          "time": 18.292675,
          "velocity": 0.44881889763779526
        },
        {
          "duration": 0.18292675000000003,
          "durationTicks": 96,
          "midi": 61,
          "name": "C#4",
          "ticks": 9792,
          "time": 18.6585285,
          "velocity": 0.44881889763779526
        },
        {
          "duration": 0.18292675000000003,
          "durationTicks": 96,
          "midi": 60,
          "name": "C4",
          "ticks": 9984,
          "time": 19.024382,
          "velocity": 0.44881889763779526
        },
        {
          "duration": 0.18292675000000003,
          "durationTicks": 96,
          "midi": 60,
          "name": "C4",
          "ticks": 10368,
          "time": 19.756089,
          "velocity": 0.44881889763779526
        },
        {
          "duration": 0.18292675000000003,
          "durationTicks": 96,
          "midi": 67,
          "name": "G4",
          "ticks": 10752,
          "time": 20.487796,
          "velocity": 0.44881889763779526
        },
        {
          "duration": 0.18292675000000003,
          "durationTicks": 96,
          "midi": 64,
          "name": "E4",
          "ticks": 10944,
          "time": 20.8536495,
          "velocity": 0.44881889763779526
        },
        {
          "duration": 0.18292675000000003,
          "durationTicks": 96,
          "midi": 65,
          "name": "F4",
          "ticks": 11136,
          "time": 21.219503,
          "velocity": 0.44881889763779526
        },
        {
          "duration": 0.18292675000000003,
          "durationTicks": 96,
          "midi": 67,
          "name": "G4",
          "ticks": 11328,
          "time": 21.5853565,
          "velocity": 0.44881889763779526
        },
        {
          "duration": 0.18292675000000003,
          "durationTicks": 96,
          "midi": 68,
          "name": "G#4",
          "ticks": 11520,
          "time": 21.95121,
          "velocity": 0.44881889763779526
        },
        {
          "duration": 0.18292675000000003,
          "durationTicks": 96,
          "midi": 60,
          "name": "C4",
          "ticks": 11904,
          "time": 22.682917,
          "velocity": 0.44881889763779526
        },
        {
          "duration": 0.18292675000000003,
          "durationTicks": 96,
          "midi": 67,
          "name": "G4",
          "ticks": 12288,
          "time": 23.414624,
          "velocity": 0.44881889763779526
        },
        {
          "duration": 0.18292675000000003,
          "durationTicks": 96,
          "midi": 64,
          "name": "E4",
          "ticks": 12480,
          "time": 23.7804775,
          "velocity": 0.44881889763779526
        },
        {
          "duration": 0.18292675000000003,
          "durationTicks": 96,
          "midi": 65,
          "name": "F4",
          "ticks": 12672,
          "time": 24.146331,
          "velocity": 0.44881889763779526
        },
        {
          "duration": 0.18292675000000003,
          "durationTicks": 96,
          "midi": 61,
          "name": "C#4",
          "ticks": 12864,
          "time": 24.5121845,
          "velocity": 0.44881889763779526
        },
        {
          "duration": 0.18292675000000003,
          "durationTicks": 96,
          "midi": 60,
          "name": "C4",
          "ticks": 13056,
          "time": 24.878038,
          "velocity": 0.44881889763779526
        },
        {
          "duration": 0.18292675000000003,
          "durationTicks": 96,
          "midi": 58,
          "name": "A#3",
          "ticks": 13248,
          "time": 25.2438915,
          "velocity": 0.44881889763779526
        },
        {
          "duration": 0.18292675000000003,
          "durationTicks": 96,
          "midi": 60,
          "name": "C4",
          "ticks": 13440,
          "time": 25.609745,
          "velocity": 0.44881889763779526
        },
        {
          "duration": 0.18292675000000003,
          "durationTicks": 96,
          "midi": 58,
          "name": "A#3",
          "ticks": 13632,
          "time": 25.9755985,
          "velocity": 0.44881889763779526
        },
        {
          "duration": 0.18292675000000003,
          "durationTicks": 96,
          "midi": 60,
          "name": "C4",
          "ticks": 13728,
          "time": 26.15852525,
          "velocity": 0.44881889763779526
        },
        {
          "duration": 0.18292675000000003,
          "durationTicks": 96,
          "midi": 61,
          "name": "C#4",
          "ticks": 13824,
          "time": 26.341452,
          "velocity": 0.44881889763779526
        },
        {
          "duration": 0.18292675000000003,
          "durationTicks": 96,
          "midi": 63,
          "name": "D#4",
          "ticks": 14016,
          "time": 26.7073055,
          "velocity": 0.44881889763779526
        },
        {
          "duration": 0.18292675000000003,
          "durationTicks": 96,
          "midi": 65,
          "name": "F4",
          "ticks": 14112,
          "time": 26.89023225,
          "velocity": 0.44881889763779526
        },
        {
          "duration": 0.18292675000000003,
          "durationTicks": 96,
          "midi": 61,
          "name": "C#4",
          "ticks": 14208,
          "time": 27.073159,
          "velocity": 0.44881889763779526
        },
        {
          "duration": 0.18292675000000003,
          "durationTicks": 96,
          "midi": 64,
          "name": "E4",
          "ticks": 14400,
          "time": 27.4390125,
          "velocity": 0.44881889763779526
        },
        {
          "duration": 0.09146337500000001,
          "durationTicks": 48,
          "midi": 61,
          "name": "C#4",
          "ticks": 14592,
          "time": 27.804866,
          "velocity": 0.44881889763779526
        },
        {
          "duration": 0.09146337500000001,
          "durationTicks": 48,
          "midi": 64,
          "name": "E4",
          "ticks": 14640,
          "time": 27.896329375,
          "velocity": 0.44881889763779526
        },
        {
          "duration": 0.09146337500000001,
          "durationTicks": 48,
          "midi": 61,
          "name": "C#4",
          "ticks": 14688,
          "time": 27.98779275,
          "velocity": 0.44881889763779526
        },
        {
          "duration": 0.09146337500000001,
          "durationTicks": 48,
          "midi": 60,
          "name": "C4",
          "ticks": 14784,
          "time": 28.1707195,
          "velocity": 0.44881889763779526
        },
        {
          "duration": 0.18292675000000003,
          "durationTicks": 96,
          "midi": 60,
          "name": "C4",
          "ticks": 14976,
          "time": 28.536573,
          "velocity": 0.44881889763779526
        }
      ],
      "endOfTrackTicks": 15072
    },
    {
      "channel": 9,
      "controlChanges": {},
      "pitchBends": [],
      "instrument": {
        "family": "drums",
        "number": 0,
        "name": "standard kit"
      },
      "name": "Electric Drum Kit",
      "notes": [
        {
          "duration": 0.04573168750000001,
          "durationTicks": 24,
          "midi": 87,
          "name": "D#6",
          "ticks": 2688,
          "time": 5.121949,
          "velocity": 0.7874015748031497
        },
        {
          "duration": 0.04573168750000001,
          "durationTicks": 24,
          "midi": 87,
          "name": "D#6",
          "ticks": 2688,
          "time": 5.121949,
          "velocity": 0.7874015748031497
        },
        {
          "duration": 0.04573168750000001,
          "durationTicks": 24,
          "midi": 87,
          "name": "D#6",
          "ticks": 2976,
          "time": 5.67072925,
          "velocity": 0.7874015748031497
        },
        {
          "duration": 0.04573168750000001,
          "durationTicks": 24,
          "midi": 87,
          "name": "D#6",
          "ticks": 2976,
          "time": 5.67072925,
          "velocity": 0.7874015748031497
        },
        {
          "duration": 0.04573168750000001,
          "durationTicks": 24,
          "midi": 85,
          "name": "C#6",
          "ticks": 3072,
          "time": 5.853656,
          "velocity": 0.7874015748031497
        },
        {
          "duration": 0.04573168750000001,
          "durationTicks": 24,
          "midi": 75,
          "name": "D#5",
          "ticks": 3072,
          "time": 5.853656,
          "velocity": 0.7874015748031497
        },
        {
          "duration": 0.04573168750000001,
          "durationTicks": 24,
          "midi": 85,
          "name": "C#6",
          "ticks": 3072,
          "time": 5.853656,
          "velocity": 0.7874015748031497
        },
        {
          "duration": 0.04573168750000001,
          "durationTicks": 24,
          "midi": 85,
          "name": "C#6",
          "ticks": 3072,
          "time": 5.853656,
          "velocity": 0.7874015748031497
        },
        {
          "duration": 0.04573168750000001,
          "durationTicks": 24,
          "midi": 87,
          "name": "D#6",
          "ticks": 3264,
          "time": 6.2195095,
          "velocity": 0.7874015748031497
        },
        {
          "duration": 0.04573168750000001,
          "durationTicks": 24,
          "midi": 87,
          "name": "D#6",
          "ticks": 3264,
          "time": 6.2195095,
          "velocity": 0.7874015748031497
        },
        {
          "duration": 0.04573168750000001,
          "durationTicks": 24,
          "midi": 86,
          "name": "D6",
          "ticks": 3288,
          "time": 6.2652411875,
          "velocity": 0.7874015748031497
        },
        {
          "duration": 0.04573168750000001,
          "durationTicks": 24,
          "midi": 87,
          "name": "D#6",
          "ticks": 3312,
          "time": 6.310972875,
          "velocity": 0.7874015748031497
        },
        {
          "duration": 0.04573168750000001,
          "durationTicks": 24,
          "midi": 87,
          "name": "D#6",
          "ticks": 3360,
          "time": 6.40243625,
          "velocity": 0.7874015748031497
        },
        {
          "duration": 0.04573168750000001,
          "durationTicks": 24,
          "midi": 87,
          "name": "D#6",
          "ticks": 3456,
          "time": 6.585363,
          "velocity": 0.7874015748031497
        },
        {
          "duration": 0.04573168750000001,
          "durationTicks": 24,
          "midi": 87,
          "name": "D#6",
          "ticks": 3456,
          "time": 6.585363,
          "velocity": 0.7874015748031497
        },
        {
          "duration": 0.04573168750000001,
          "durationTicks": 24,
          "midi": 86,
          "name": "D6",
          "ticks": 3504,
          "time": 6.676826375,
          "velocity": 0.7874015748031497
        },
        {
          "duration": 0.04573168750000001,
          "durationTicks": 24,
          "midi": 87,
          "name": "D#6",
          "ticks": 3552,
          "time": 6.76828975,
          "velocity": 0.7874015748031497
        },
        {
          "duration": 0.04573168750000001,
          "durationTicks": 24,
          "midi": 87,
          "name": "D#6",
          "ticks": 3744,
          "time": 7.13414325,
          "velocity": 0.7874015748031497
        },
        {
          "duration": 0.04573168750000001,
          "durationTicks": 24,
          "midi": 87,
          "name": "D#6",
          "ticks": 3744,
          "time": 7.13414325,
          "velocity": 0.7874015748031497
        },
        {
          "duration": 0.04573168750000001,
          "durationTicks": 24,
          "midi": 85,
          "name": "C#6",
          "ticks": 3840,
          "time": 7.31707,
          "velocity": 0.7874015748031497
        },
        {
          "duration": 0.04573168750000001,
          "durationTicks": 24,
          "midi": 85,
          "name": "C#6",
          "ticks": 3840,
          "time": 7.31707,
          "velocity": 0.7874015748031497
        },
        {
          "duration": 0.04573168750000001,
          "durationTicks": 24,
          "midi": 85,
          "name": "C#6",
          "ticks": 3840,
          "time": 7.31707,
          "velocity": 0.7874015748031497
        },
        {
          "duration": 0.04573168750000001,
          "durationTicks": 24,
          "midi": 75,
          "name": "D#5",
          "ticks": 3840,
          "time": 7.31707,
          "velocity": 0.7874015748031497
        },
        {
          "duration": 0.04573168750000001,
          "durationTicks": 24,
          "midi": 87,
          "name": "D#6",
          "ticks": 3936,
          "time": 7.49999675,
          "velocity": 0.7874015748031497
        },
        {
          "duration": 0.04573168750000001,
          "durationTicks": 24,
          "midi": 86,
          "name": "D6",
          "ticks": 3984,
          "time": 7.591460125,
          "velocity": 0.7874015748031497
        },
        {
          "duration": 0.04573168750000001,
          "durationTicks": 24,
          "midi": 87,
          "name": "D#6",
          "ticks": 4032,
          "time": 7.6829235,
          "velocity": 0.7874015748031497
        },
        {
          "duration": 0.04573168750000001,
          "durationTicks": 24,
          "midi": 86,
          "name": "D6",
          "ticks": 4056,
          "time": 7.7286551875,
          "velocity": 0.7874015748031497
        },
        {
          "duration": 0.04573168750000001,
          "durationTicks": 24,
          "midi": 87,
          "name": "D#6",
          "ticks": 4080,
          "time": 7.774386875,
          "velocity": 0.7874015748031497
        },
        {
          "duration": 0.04573168750000001,
          "durationTicks": 24,
          "midi": 86,
          "name": "D6",
          "ticks": 4128,
          "time": 7.86585025,
          "velocity": 0.7874015748031497
        },
        {
          "duration": 0.04573168749999912,
          "durationTicks": 24,
          "midi": 87,
          "name": "D#6",
          "ticks": 4176,
          "time": 7.957313625,
          "velocity": 0.7874015748031497
        },
        {
          "duration": 0.04573168750000001,
          "durationTicks": 24,
          "midi": 87,
          "name": "D#6",
          "ticks": 4224,
          "time": 8.048777,
          "velocity": 0.7874015748031497
        },
        {
          "duration": 0.04573168750000001,
          "durationTicks": 24,
          "midi": 87,
          "name": "D#6",
          "ticks": 4224,
          "time": 8.048777,
          "velocity": 0.7874015748031497
        },
        {
          "duration": 0.04573168750000001,
          "durationTicks": 24,
          "midi": 87,
          "name": "D#6",
          "ticks": 4512,
          "time": 8.59755725,
          "velocity": 0.7874015748031497
        },
        {
          "duration": 0.04573168750000001,
          "durationTicks": 24,
          "midi": 87,
          "name": "D#6",
          "ticks": 4512,
          "time": 8.59755725,
          "velocity": 0.7874015748031497
        },
        {
          "duration": 0.04573168750000001,
          "durationTicks": 24,
          "midi": 85,
          "name": "C#6",
          "ticks": 4608,
          "time": 8.780484,
          "velocity": 0.7874015748031497
        },
        {
          "duration": 0.04573168750000001,
          "durationTicks": 24,
          "midi": 75,
          "name": "D#5",
          "ticks": 4608,
          "time": 8.780484,
          "velocity": 0.7874015748031497
        },
        {
          "duration": 0.04573168750000001,
          "durationTicks": 24,
          "midi": 85,
          "name": "C#6",
          "ticks": 4608,
          "time": 8.780484,
          "velocity": 0.7874015748031497
        },
        {
          "duration": 0.04573168750000001,
          "durationTicks": 24,
          "midi": 85,
          "name": "C#6",
          "ticks": 4608,
          "time": 8.780484,
          "velocity": 0.7874015748031497
        },
        {
          "duration": 0.04573168750000001,
          "durationTicks": 24,
          "midi": 87,
          "name": "D#6",
          "ticks": 4800,
          "time": 9.1463375,
          "velocity": 0.7874015748031497
        },
        {
          "duration": 0.04573168750000001,
          "durationTicks": 24,
          "midi": 87,
          "name": "D#6",
          "ticks": 4800,
          "time": 9.1463375,
          "velocity": 0.7874015748031497
        },
        {
          "duration": 0.04573168750000001,
          "durationTicks": 24,
          "midi": 86,
          "name": "D6",
          "ticks": 4824,
          "time": 9.1920691875,
          "velocity": 0.7874015748031497
        },
        {
          "duration": 0.04573168750000001,
          "durationTicks": 24,
          "midi": 87,
          "name": "D#6",
          "ticks": 4848,
          "time": 9.237800875,
          "velocity": 0.7874015748031497
        },
        {
          "duration": 0.04573168750000001,
          "durationTicks": 24,
          "midi": 87,
          "name": "D#6",
          "ticks": 4896,
          "time": 9.32926425,
          "velocity": 0.7874015748031497
        },
        {
          "duration": 0.04573168750000001,
          "durationTicks": 24,
          "midi": 87,
          "name": "D#6",
          "ticks": 4992,
          "time": 9.512191,
          "velocity": 0.7874015748031497
        },
        {
          "duration": 0.04573168750000001,
          "durationTicks": 24,
          "midi": 87,
          "name": "D#6",
          "ticks": 4992,
          "time": 9.512191,
          "velocity": 0.7874015748031497
        },
        {
          "duration": 0.04573168750000001,
          "durationTicks": 24,
          "midi": 86,
          "name": "D6",
          "ticks": 5040,
          "time": 9.603654375,
          "velocity": 0.7874015748031497
        },
        {
          "duration": 0.04573168750000001,
          "durationTicks": 24,
          "midi": 87,
          "name": "D#6",
          "ticks": 5088,
          "time": 9.69511775,
          "velocity": 0.7874015748031497
        },
        {
          "duration": 0.04573168750000001,
          "durationTicks": 24,
          "midi": 87,
          "name": "D#6",
          "ticks": 5280,
          "time": 10.06097125,
          "velocity": 0.7874015748031497
        },
        {
          "duration": 0.04573168750000001,
          "durationTicks": 24,
          "midi": 87,
          "name": "D#6",
          "ticks": 5280,
          "time": 10.06097125,
          "velocity": 0.7874015748031497
        },
        {
          "duration": 0.04573168750000001,
          "durationTicks": 24,
          "midi": 85,
          "name": "C#6",
          "ticks": 5376,
          "time": 10.243898,
          "velocity": 0.7874015748031497
        },
        {
          "duration": 0.04573168750000001,
          "durationTicks": 24,
          "midi": 85,
          "name": "C#6",
          "ticks": 5376,
          "time": 10.243898,
          "velocity": 0.7874015748031497
        },
        {
          "duration": 0.04573168750000001,
          "durationTicks": 24,
          "midi": 85,
          "name": "C#6",
          "ticks": 5376,
          "time": 10.243898,
          "velocity": 0.7874015748031497
        },
        {
          "duration": 0.04573168750000001,
          "durationTicks": 24,
          "midi": 75,
          "name": "D#5",
          "ticks": 5376,
          "time": 10.243898,
          "velocity": 0.7874015748031497
        },
        {
          "duration": 0.04573168750000001,
          "durationTicks": 24,
          "midi": 87,
          "name": "D#6",
          "ticks": 5472,
          "time": 10.42682475,
          "velocity": 0.7874015748031497
        },
        {
          "duration": 0.04573168750000001,
          "durationTicks": 24,
          "midi": 86,
          "name": "D6",
          "ticks": 5520,
          "time": 10.518288125,
          "velocity": 0.7874015748031497
        },
        {
          "duration": 0.04573168750000001,
          "durationTicks": 24,
          "midi": 87,
          "name": "D#6",
          "ticks": 5568,
          "time": 10.6097515,
          "velocity": 0.7874015748031497
        },
        {
          "duration": 0.04573168750000001,
          "durationTicks": 24,
          "midi": 86,
          "name": "D6",
          "ticks": 5592,
          "time": 10.6554831875,
          "velocity": 0.7874015748031497
        },
        {
          "duration": 0.04573168750000001,
          "durationTicks": 24,
          "midi": 87,
          "name": "D#6",
          "ticks": 5616,
          "time": 10.701214875,
          "velocity": 0.7874015748031497
        },
        {
          "duration": 0.04573168750000001,
          "durationTicks": 24,
          "midi": 86,
          "name": "D6",
          "ticks": 5664,
          "time": 10.79267825,
          "velocity": 0.7874015748031497
        },
        {
          "duration": 0.04573168750000001,
          "durationTicks": 24,
          "midi": 87,
          "name": "D#6",
          "ticks": 5712,
          "time": 10.884141625,
          "velocity": 0.7874015748031497
        },
        {
          "duration": 0.04573168750000001,
          "durationTicks": 24,
          "midi": 87,
          "name": "D#6",
          "ticks": 5760,
          "time": 10.975605,
          "velocity": 0.7874015748031497
        },
        {
          "duration": 0.04573168750000001,
          "durationTicks": 24,
          "midi": 87,
          "name": "D#6",
          "ticks": 5760,
          "time": 10.975605,
          "velocity": 0.7874015748031497
        },
        {
          "duration": 0.04573168750000001,
          "durationTicks": 24,
          "midi": 87,
          "name": "D#6",
          "ticks": 6048,
          "time": 11.52438525,
          "velocity": 0.7874015748031497
        },
        {
          "duration": 0.04573168750000001,
          "durationTicks": 24,
          "midi": 87,
          "name": "D#6",
          "ticks": 6048,
          "time": 11.52438525,
          "velocity": 0.7874015748031497
        },
        {
          "duration": 0.04573168750000001,
          "durationTicks": 24,
          "midi": 85,
          "name": "C#6",
          "ticks": 6144,
          "time": 11.707312,
          "velocity": 0.7874015748031497
        },
        {
          "duration": 0.04573168750000001,
          "durationTicks": 24,
          "midi": 75,
          "name": "D#5",
          "ticks": 6144,
          "time": 11.707312,
          "velocity": 0.7874015748031497
        },
        {
          "duration": 0.04573168750000001,
          "durationTicks": 24,
          "midi": 85,
          "name": "C#6",
          "ticks": 6144,
          "time": 11.707312,
          "velocity": 0.7874015748031497
        },
        {
          "duration": 0.04573168750000001,
          "durationTicks": 24,
          "midi": 85,
          "name": "C#6",
          "ticks": 6144,
          "time": 11.707312,
          "velocity": 0.7874015748031497
        },
        {
          "duration": 0.04573168750000001,
          "durationTicks": 24,
          "midi": 87,
          "name": "D#6",
          "ticks": 6336,
          "time": 12.0731655,
          "velocity": 0.7874015748031497
        },
        {
          "duration": 0.04573168750000001,
          "durationTicks": 24,
          "midi": 87,
          "name": "D#6",
          "ticks": 6336,
          "time": 12.0731655,
          "velocity": 0.7874015748031497
        },
        {
          "duration": 0.04573168750000001,
          "durationTicks": 24,
          "midi": 86,
          "name": "D6",
          "ticks": 6360,
          "time": 12.1188971875,
          "velocity": 0.7874015748031497
        },
        {
          "duration": 0.04573168750000001,
          "durationTicks": 24,
          "midi": 87,
          "name": "D#6",
          "ticks": 6384,
          "time": 12.164628875,
          "velocity": 0.7874015748031497
        },
        {
          "duration": 0.04573168750000001,
          "durationTicks": 24,
          "midi": 87,
          "name": "D#6",
          "ticks": 6432,
          "time": 12.25609225,
          "velocity": 0.7874015748031497
        },
        {
          "duration": 0.04573168750000001,
          "durationTicks": 24,
          "midi": 87,
          "name": "D#6",
          "ticks": 6528,
          "time": 12.439019,
          "velocity": 0.7874015748031497
        },
        {
          "duration": 0.04573168750000001,
          "durationTicks": 24,
          "midi": 87,
          "name": "D#6",
          "ticks": 6528,
          "time": 12.439019,
          "velocity": 0.7874015748031497
        },
        {
          "duration": 0.04573168750000001,
          "durationTicks": 24,
          "midi": 86,
          "name": "D6",
          "ticks": 6576,
          "time": 12.530482375,
          "velocity": 0.7874015748031497
        },
        {
          "duration": 0.04573168750000001,
          "durationTicks": 24,
          "midi": 87,
          "name": "D#6",
          "ticks": 6624,
          "time": 12.62194575,
          "velocity": 0.7874015748031497
        },
        {
          "duration": 0.04573168750000001,
          "durationTicks": 24,
          "midi": 87,
          "name": "D#6",
          "ticks": 6816,
          "time": 12.98779925,
          "velocity": 0.7874015748031497
        },
        {
          "duration": 0.04573168750000001,
          "durationTicks": 24,
          "midi": 87,
          "name": "D#6",
          "ticks": 6816,
          "time": 12.98779925,
          "velocity": 0.7874015748031497
        },
        {
          "duration": 0.04573168750000001,
          "durationTicks": 24,
          "midi": 85,
          "name": "C#6",
          "ticks": 6912,
          "time": 13.170726,
          "velocity": 0.7874015748031497
        },
        {
          "duration": 0.04573168750000001,
          "durationTicks": 24,
          "midi": 85,
          "name": "C#6",
          "ticks": 6912,
          "time": 13.170726,
          "velocity": 0.7874015748031497
        },
        {
          "duration": 0.04573168750000001,
          "durationTicks": 24,
          "midi": 85,
          "name": "C#6",
          "ticks": 6912,
          "time": 13.170726,
          "velocity": 0.7874015748031497
        },
        {
          "duration": 0.04573168750000001,
          "durationTicks": 24,
          "midi": 75,
          "name": "D#5",
          "ticks": 6912,
          "time": 13.170726,
          "velocity": 0.7874015748031497
        },
        {
          "duration": 0.04573168750000001,
          "durationTicks": 24,
          "midi": 87,
          "name": "D#6",
          "ticks": 7008,
          "time": 13.35365275,
          "velocity": 0.7874015748031497
        },
        {
          "duration": 0.04573168750000001,
          "durationTicks": 24,
          "midi": 86,
          "name": "D6",
          "ticks": 7056,
          "time": 13.445116125,
          "velocity": 0.7874015748031497
        },
        {
          "duration": 0.04573168750000001,
          "durationTicks": 24,
          "midi": 87,
          "name": "D#6",
          "ticks": 7104,
          "time": 13.5365795,
          "velocity": 0.7874015748031497
        },
        {
          "duration": 0.04573168750000001,
          "durationTicks": 24,
          "midi": 86,
          "name": "D6",
          "ticks": 7128,
          "time": 13.5823111875,
          "velocity": 0.7874015748031497
        },
        {
          "duration": 0.04573168750000001,
          "durationTicks": 24,
          "midi": 87,
          "name": "D#6",
          "ticks": 7152,
          "time": 13.628042875,
          "velocity": 0.7874015748031497
        },
        {
          "duration": 0.04573168750000001,
          "durationTicks": 24,
          "midi": 86,
          "name": "D6",
          "ticks": 7200,
          "time": 13.71950625,
          "velocity": 0.7874015748031497
        },
        {
          "duration": 0.04573168750000001,
          "durationTicks": 24,
          "midi": 87,
          "name": "D#6",
          "ticks": 7248,
          "time": 13.810969625,
          "velocity": 0.7874015748031497
        },
        {
          "duration": 0.04573168750000001,
          "durationTicks": 24,
          "midi": 87,
          "name": "D#6",
          "ticks": 7296,
          "time": 13.902433,
          "velocity": 0.7874015748031497
        },
        {
          "duration": 0.04573168750000001,
          "durationTicks": 24,
          "midi": 87,
          "name": "D#6",
          "ticks": 7296,
          "time": 13.902433,
          "velocity": 0.7874015748031497
        },
        {
          "duration": 0.04573168750000001,
          "durationTicks": 24,
          "midi": 87,
          "name": "D#6",
          "ticks": 7584,
          "time": 14.45121325,
          "velocity": 0.7874015748031497
        },
        {
          "duration": 0.04573168750000001,
          "durationTicks": 24,
          "midi": 87,
          "name": "D#6",
          "ticks": 7584,
          "time": 14.45121325,
          "velocity": 0.7874015748031497
        },
        {
          "duration": 0.04573168750000001,
          "durationTicks": 24,
          "midi": 85,
          "name": "C#6",
          "ticks": 7680,
          "time": 14.63414,
          "velocity": 0.7874015748031497
        },
        {
          "duration": 0.04573168750000001,
          "durationTicks": 24,
          "midi": 75,
          "name": "D#5",
          "ticks": 7680,
          "time": 14.63414,
          "velocity": 0.7874015748031497
        },
        {
          "duration": 0.04573168750000001,
          "durationTicks": 24,
          "midi": 85,
          "name": "C#6",
          "ticks": 7680,
          "time": 14.63414,
          "velocity": 0.7874015748031497
        },
        {
          "duration": 0.04573168750000001,
          "durationTicks": 24,
          "midi": 85,
          "name": "C#6",
          "ticks": 7680,
          "time": 14.63414,
          "velocity": 0.7874015748031497
        },
        {
          "duration": 0.04573168750000001,
          "durationTicks": 24,
          "midi": 87,
          "name": "D#6",
          "ticks": 7872,
          "time": 14.9999935,
          "velocity": 0.7874015748031497
        },
        {
          "duration": 0.04573168750000001,
          "durationTicks": 24,
          "midi": 87,
          "name": "D#6",
          "ticks": 7872,
          "time": 14.9999935,
          "velocity": 0.7874015748031497
        },
        {
          "duration": 0.04573168750000001,
          "durationTicks": 24,
          "midi": 86,
          "name": "D6",
          "ticks": 7896,
          "time": 15.0457251875,
          "velocity": 0.7874015748031497
        },
        {
          "duration": 0.04573168750000001,
          "durationTicks": 24,
          "midi": 87,
          "name": "D#6",
          "ticks": 7920,
          "time": 15.091456875,
          "velocity": 0.7874015748031497
        },
        {
          "duration": 0.04573168750000001,
          "durationTicks": 24,
          "midi": 87,
          "name": "D#6",
          "ticks": 7968,
          "time": 15.18292025,
          "velocity": 0.7874015748031497
        },
        {
          "duration": 0.04573168750000001,
          "durationTicks": 24,
          "midi": 87,
          "name": "D#6",
          "ticks": 8064,
          "time": 15.365847,
          "velocity": 0.7874015748031497
        },
        {
          "duration": 0.04573168750000001,
          "durationTicks": 24,
          "midi": 87,
          "name": "D#6",
          "ticks": 8064,
          "time": 15.365847,
          "velocity": 0.7874015748031497
        },
        {
          "duration": 0.04573168750000001,
          "durationTicks": 24,
          "midi": 86,
          "name": "D6",
          "ticks": 8112,
          "time": 15.457310375,
          "velocity": 0.7874015748031497
        },
        {
          "duration": 0.04573168750000001,
          "durationTicks": 24,
          "midi": 87,
          "name": "D#6",
          "ticks": 8160,
          "time": 15.54877375,
          "velocity": 0.7874015748031497
        },
        {
          "duration": 0.04573168750000001,
          "durationTicks": 24,
          "midi": 87,
          "name": "D#6",
          "ticks": 8352,
          "time": 15.91462725,
          "velocity": 0.7874015748031497
        },
        {
          "duration": 0.04573168750000001,
          "durationTicks": 24,
          "midi": 87,
          "name": "D#6",
          "ticks": 8352,
          "time": 15.91462725,
          "velocity": 0.7874015748031497
        },
        {
          "duration": 0.04573168750000178,
          "durationTicks": 24,
          "midi": 75,
          "name": "D#5",
          "ticks": 8448,
          "time": 16.097554,
          "velocity": 0.7874015748031497
        },
        {
          "duration": 0.04573168750000178,
          "durationTicks": 24,
          "midi": 87,
          "name": "D#6",
          "ticks": 8640,
          "time": 16.4634075,
          "velocity": 0.7874015748031497
        },
        {
          "duration": 0.04573168750000178,
          "durationTicks": 24,
          "midi": 87,
          "name": "D#6",
          "ticks": 8688,
          "time": 16.554870875,
          "velocity": 0.7874015748031497
        },
        {
          "duration": 0.04573168750000178,
          "durationTicks": 24,
          "midi": 86,
          "name": "D6",
          "ticks": 8736,
          "time": 16.64633425,
          "velocity": 0.7874015748031497
        },
        {
          "duration": 0.04573168750000178,
          "durationTicks": 24,
          "midi": 87,
          "name": "D#6",
          "ticks": 8784,
          "time": 16.737797625,
          "velocity": 0.7874015748031497
        },
        {
          "duration": 0.04573168750000178,
          "durationTicks": 24,
          "midi": 61,
          "name": "C#4",
          "ticks": 8832,
          "time": 16.829261,
          "velocity": 0.7874015748031497
        },
        {
          "duration": 0.04573168750000178,
          "durationTicks": 24,
          "midi": 87,
          "name": "D#6",
          "ticks": 8832,
          "time": 16.829261,
          "velocity": 0.7874015748031497
        },
        {
          "duration": 0.04573168750000178,
          "durationTicks": 24,
          "midi": 87,
          "name": "D#6",
          "ticks": 8832,
          "time": 16.829261,
          "velocity": 0.7874015748031497
        },
        {
          "duration": 0.04573168750000178,
          "durationTicks": 24,
          "midi": 54,
          "name": "F#3",
          "ticks": 8928,
          "time": 17.01218775,
          "velocity": 0.7874015748031497
        },
        {
          "duration": 0.04573168750000178,
          "durationTicks": 24,
          "midi": 61,
          "name": "C#4",
          "ticks": 9024,
          "time": 17.1951145,
          "velocity": 0.7874015748031497
        },
        {
          "duration": 0.04573168750000178,
          "durationTicks": 24,
          "midi": 84,
          "name": "C6",
          "ticks": 9024,
          "time": 17.1951145,
          "velocity": 0.7874015748031497
        },
        {
          "duration": 0.04573168750000178,
          "durationTicks": 24,
          "midi": 54,
          "name": "F#3",
          "ticks": 9024,
          "time": 17.1951145,
          "velocity": 0.7874015748031497
        },
        {
          "duration": 0.04573168750000178,
          "durationTicks": 24,
          "midi": 60,
          "name": "C4",
          "ticks": 9072,
          "time": 17.286577875,
          "velocity": 0.7874015748031497
        },
        {
          "duration": 0.04573168749999823,
          "durationTicks": 24,
          "midi": 60,
          "name": "C4",
          "ticks": 9096,
          "time": 17.3323095625,
          "velocity": 0.7874015748031497
        },
        {
          "duration": 0.04573168750000178,
          "durationTicks": 24,
          "midi": 60,
          "name": "C4",
          "ticks": 9120,
          "time": 17.37804125,
          "velocity": 0.7874015748031497
        },
        {
          "duration": 0.04573168750000178,
          "durationTicks": 24,
          "midi": 54,
          "name": "F#3",
          "ticks": 9120,
          "time": 17.37804125,
          "velocity": 0.7874015748031497
        },
        {
          "duration": 0.04573168750000178,
          "durationTicks": 24,
          "midi": 87,
          "name": "D#6",
          "ticks": 9120,
          "time": 17.37804125,
          "velocity": 0.7874015748031497
        },
        {
          "duration": 0.04573168750000178,
          "durationTicks": 24,
          "midi": 87,
          "name": "D#6",
          "ticks": 9120,
          "time": 17.37804125,
          "velocity": 0.7874015748031497
        },
        {
          "duration": 0.04573168750000178,
          "durationTicks": 24,
          "midi": 60,
          "name": "C4",
          "ticks": 9216,
          "time": 17.560968,
          "velocity": 0.7874015748031497
        },
        {
          "duration": 0.04573168750000178,
          "durationTicks": 24,
          "midi": 85,
          "name": "C#6",
          "ticks": 9216,
          "time": 17.560968,
          "velocity": 0.7874015748031497
        },
        {
          "duration": 0.04573168750000178,
          "durationTicks": 24,
          "midi": 75,
          "name": "D#5",
          "ticks": 9216,
          "time": 17.560968,
          "velocity": 0.7874015748031497
        },
        {
          "duration": 0.04573168750000178,
          "durationTicks": 24,
          "midi": 85,
          "name": "C#6",
          "ticks": 9216,
          "time": 17.560968,
          "velocity": 0.7874015748031497
        },
        {
          "duration": 0.04573168750000178,
          "durationTicks": 24,
          "midi": 85,
          "name": "C#6",
          "ticks": 9216,
          "time": 17.560968,
          "velocity": 0.7874015748031497
        },
        {
          "duration": 0.04573168750000178,
          "durationTicks": 24,
          "midi": 54,
          "name": "F#3",
          "ticks": 9312,
          "time": 17.74389475,
          "velocity": 0.7874015748031497
        },
        {
          "duration": 0.04573168750000178,
          "durationTicks": 24,
          "midi": 61,
          "name": "C#4",
          "ticks": 9408,
          "time": 17.9268215,
          "velocity": 0.7874015748031497
        },
        {
          "duration": 0.04573168750000178,
          "durationTicks": 24,
          "midi": 87,
          "name": "D#6",
          "ticks": 9408,
          "time": 17.9268215,
          "velocity": 0.7874015748031497
        },
        {
          "duration": 0.04573168750000178,
          "durationTicks": 24,
          "midi": 87,
          "name": "D#6",
          "ticks": 9408,
          "time": 17.9268215,
          "velocity": 0.7874015748031497
        },
        {
          "duration": 0.04573168749999823,
          "durationTicks": 24,
          "midi": 86,
          "name": "D6",
          "ticks": 9432,
          "time": 17.9725531875,
          "velocity": 0.7874015748031497
        },
        {
          "duration": 0.04573168750000178,
          "durationTicks": 24,
          "midi": 60,
          "name": "C4",
          "ticks": 9456,
          "time": 18.018284875,
          "velocity": 0.7874015748031497
        },
        {
          "duration": 0.04573168750000178,
          "durationTicks": 24,
          "midi": 87,
          "name": "D#6",
          "ticks": 9456,
          "time": 18.018284875,
          "velocity": 0.7874015748031497
        },
        {
          "duration": 0.04573168750000178,
          "durationTicks": 24,
          "midi": 61,
          "name": "C#4",
          "ticks": 9504,
          "time": 18.10974825,
          "velocity": 0.7874015748031497
        },
        {
          "duration": 0.04573168750000178,
          "durationTicks": 24,
          "midi": 54,
          "name": "F#3",
          "ticks": 9504,
          "time": 18.10974825,
          "velocity": 0.7874015748031497
        },
        {
          "duration": 0.04573168750000178,
          "durationTicks": 24,
          "midi": 87,
          "name": "D#6",
          "ticks": 9504,
          "time": 18.10974825,
          "velocity": 0.7874015748031497
        },
        {
          "duration": 0.04573168750000178,
          "durationTicks": 24,
          "midi": 61,
          "name": "C#4",
          "ticks": 9600,
          "time": 18.292675,
          "velocity": 0.7874015748031497
        },
        {
          "duration": 0.04573168750000178,
          "durationTicks": 24,
          "midi": 54,
          "name": "F#3",
          "ticks": 9600,
          "time": 18.292675,
          "velocity": 0.7874015748031497
        },
        {
          "duration": 0.04573168750000178,
          "durationTicks": 24,
          "midi": 87,
          "name": "D#6",
          "ticks": 9600,
          "time": 18.292675,
          "velocity": 0.7874015748031497
        },
        {
          "duration": 0.04573168750000178,
          "durationTicks": 24,
          "midi": 87,
          "name": "D#6",
          "ticks": 9600,
          "time": 18.292675,
          "velocity": 0.7874015748031497
        },
        {
          "duration": 0.04573168750000178,
          "durationTicks": 24,
          "midi": 86,
          "name": "D6",
          "ticks": 9648,
          "time": 18.384138375,
          "velocity": 0.7874015748031497
        },
        {
          "duration": 0.04573168750000178,
          "durationTicks": 24,
          "midi": 60,
          "name": "C4",
          "ticks": 9696,
          "time": 18.47560175,
          "velocity": 0.7874015748031497
        },
        {
          "duration": 0.04573168750000178,
          "durationTicks": 24,
          "midi": 87,
          "name": "D#6",
          "ticks": 9696,
          "time": 18.47560175,
          "velocity": 0.7874015748031497
        },
        {
          "duration": 0.04573168749999823,
          "durationTicks": 24,
          "midi": 60,
          "name": "C4",
          "ticks": 9720,
          "time": 18.5213334375,
          "velocity": 0.7874015748031497
        },
        {
          "duration": 0.04573168750000178,
          "durationTicks": 24,
          "midi": 60,
          "name": "C4",
          "ticks": 9744,
          "time": 18.567065125,
          "velocity": 0.7874015748031497
        },
        {
          "duration": 0.04573168750000178,
          "durationTicks": 24,
          "midi": 61,
          "name": "C#4",
          "ticks": 9792,
          "time": 18.6585285,
          "velocity": 0.7874015748031497
        },
        {
          "duration": 0.04573168750000178,
          "durationTicks": 24,
          "midi": 84,
          "name": "C6",
          "ticks": 9792,
          "time": 18.6585285,
          "velocity": 0.7874015748031497
        },
        {
          "duration": 0.04573168750000178,
          "durationTicks": 24,
          "midi": 54,
          "name": "F#3",
          "ticks": 9792,
          "time": 18.6585285,
          "velocity": 0.7874015748031497
        },
        {
          "duration": 0.04573168750000178,
          "durationTicks": 24,
          "midi": 60,
          "name": "C4",
          "ticks": 9888,
          "time": 18.84145525,
          "velocity": 0.7874015748031497
        },
        {
          "duration": 0.04573168750000178,
          "durationTicks": 24,
          "midi": 87,
          "name": "D#6",
          "ticks": 9888,
          "time": 18.84145525,
          "velocity": 0.7874015748031497
        },
        {
          "duration": 0.04573168750000178,
          "durationTicks": 24,
          "midi": 87,
          "name": "D#6",
          "ticks": 9888,
          "time": 18.84145525,
          "velocity": 0.7874015748031497
        },
        {
          "duration": 0.04573168749999823,
          "durationTicks": 24,
          "midi": 60,
          "name": "C4",
          "ticks": 9912,
          "time": 18.8871869375,
          "velocity": 0.7874015748031497
        },
        {
          "duration": 0.04573168750000178,
          "durationTicks": 24,
          "midi": 60,
          "name": "C4",
          "ticks": 9936,
          "time": 18.932918625,
          "velocity": 0.7874015748031497
        },
        {
          "duration": 0.04573168750000178,
          "durationTicks": 24,
          "midi": 60,
          "name": "C4",
          "ticks": 9984,
          "time": 19.024382,
          "velocity": 0.7874015748031497
        },
        {
          "duration": 0.04573168750000178,
          "durationTicks": 24,
          "midi": 85,
          "name": "C#6",
          "ticks": 9984,
          "time": 19.024382,
          "velocity": 0.7874015748031497
        },
        {
          "duration": 0.04573168750000178,
          "durationTicks": 24,
          "midi": 85,
          "name": "C#6",
          "ticks": 9984,
          "time": 19.024382,
          "velocity": 0.7874015748031497
        },
        {
          "duration": 0.04573168750000178,
          "durationTicks": 24,
          "midi": 85,
          "name": "C#6",
          "ticks": 9984,
          "time": 19.024382,
          "velocity": 0.7874015748031497
        },
        {
          "duration": 0.04573168750000178,
          "durationTicks": 24,
          "midi": 75,
          "name": "D#5",
          "ticks": 9984,
          "time": 19.024382,
          "velocity": 0.7874015748031497
        },
        {
          "duration": 0.04573168750000178,
          "durationTicks": 24,
          "midi": 54,
          "name": "F#3",
          "ticks": 9984,
          "time": 19.024382,
          "velocity": 0.7874015748031497
        },
        {
          "duration": 0.04573168749999823,
          "durationTicks": 24,
          "midi": 61,
          "name": "C#4",
          "ticks": 10008,
          "time": 19.0701136875,
          "velocity": 0.7874015748031497
        },
        {
          "duration": 0.04573168750000178,
          "durationTicks": 24,
          "midi": 60,
          "name": "C4",
          "ticks": 10032,
          "time": 19.115845375,
          "velocity": 0.7874015748031497
        },
        {
          "duration": 0.04573168750000178,
          "durationTicks": 24,
          "midi": 60,
          "name": "C4",
          "ticks": 10080,
          "time": 19.20730875,
          "velocity": 0.7874015748031497
        },
        {
          "duration": 0.04573168750000178,
          "durationTicks": 24,
          "midi": 87,
          "name": "D#6",
          "ticks": 10080,
          "time": 19.20730875,
          "velocity": 0.7874015748031497
        },
        {
          "duration": 0.04573168750000178,
          "durationTicks": 24,
          "midi": 86,
          "name": "D6",
          "ticks": 10128,
          "time": 19.298772125,
          "velocity": 0.7874015748031497
        },
        {
          "duration": 0.04573168750000178,
          "durationTicks": 24,
          "midi": 61,
          "name": "C#4",
          "ticks": 10176,
          "time": 19.3902355,
          "velocity": 0.7874015748031497
        },
        {
          "duration": 0.04573168750000178,
          "durationTicks": 24,
          "midi": 84,
          "name": "C6",
          "ticks": 10176,
          "time": 19.3902355,
          "velocity": 0.7874015748031497
        },
        {
          "duration": 0.04573168750000178,
          "durationTicks": 24,
          "midi": 54,
          "name": "F#3",
          "ticks": 10176,
          "time": 19.3902355,
          "velocity": 0.7874015748031497
        },
        {
          "duration": 0.04573168750000178,
          "durationTicks": 24,
          "midi": 87,
          "name": "D#6",
          "ticks": 10176,
          "time": 19.3902355,
          "velocity": 0.7874015748031497
        },
        {
          "duration": 0.04573168749999823,
          "durationTicks": 24,
          "midi": 86,
          "name": "D6",
          "ticks": 10200,
          "time": 19.4359671875,
          "velocity": 0.7874015748031497
        },
        {
          "duration": 0.04573168750000178,
          "durationTicks": 24,
          "midi": 60,
          "name": "C4",
          "ticks": 10224,
          "time": 19.481698875,
          "velocity": 0.7874015748031497
        },
        {
          "duration": 0.04573168750000178,
          "durationTicks": 24,
          "midi": 87,
          "name": "D#6",
          "ticks": 10224,
          "time": 19.481698875,
          "velocity": 0.7874015748031497
        },
        {
          "duration": 0.04573168749999823,
          "durationTicks": 24,
          "midi": 60,
          "name": "C4",
          "ticks": 10248,
          "time": 19.5274305625,
          "velocity": 0.7874015748031497
        },
        {
          "duration": 0.04573168750000178,
          "durationTicks": 24,
          "midi": 61,
          "name": "C#4",
          "ticks": 10272,
          "time": 19.57316225,
          "velocity": 0.7874015748031497
        },
        {
          "duration": 0.04573168750000178,
          "durationTicks": 24,
          "midi": 54,
          "name": "F#3",
          "ticks": 10272,
          "time": 19.57316225,
          "velocity": 0.7874015748031497
        },
        {
          "duration": 0.04573168750000178,
          "durationTicks": 24,
          "midi": 86,
          "name": "D6",
          "ticks": 10272,
          "time": 19.57316225,
          "velocity": 0.7874015748031497
        },
        {
          "duration": 0.04573168750000178,
          "durationTicks": 24,
          "midi": 87,
          "name": "D#6",
          "ticks": 10320,
          "time": 19.664625625,
          "velocity": 0.7874015748031497
        },
        {
          "duration": 0.04573168750000178,
          "durationTicks": 24,
          "midi": 61,
          "name": "C#4",
          "ticks": 10368,
          "time": 19.756089,
          "velocity": 0.7874015748031497
        },
        {
          "duration": 0.04573168750000178,
          "durationTicks": 24,
          "midi": 87,
          "name": "D#6",
          "ticks": 10368,
          "time": 19.756089,
          "velocity": 0.7874015748031497
        },
        {
          "duration": 0.04573168750000178,
          "durationTicks": 24,
          "midi": 87,
          "name": "D#6",
          "ticks": 10368,
          "time": 19.756089,
          "velocity": 0.7874015748031497
        },
        {
          "duration": 0.04573168750000178,
          "durationTicks": 24,
          "midi": 60,
          "name": "C4",
          "ticks": 10464,
          "time": 19.93901575,
          "velocity": 0.7874015748031497
        },
        {
          "duration": 0.04573168750000178,
          "durationTicks": 24,
          "midi": 54,
          "name": "F#3",
          "ticks": 10464,
          "time": 19.93901575,
          "velocity": 0.7874015748031497
        },
        {
          "duration": 0.04573168749999823,
          "durationTicks": 24,
          "midi": 60,
          "name": "C4",
          "ticks": 10488,
          "time": 19.9847474375,
          "velocity": 0.7874015748031497
        },
        {
          "duration": 0.04573168750000178,
          "durationTicks": 24,
          "midi": 60,
          "name": "C4",
          "ticks": 10512,
          "time": 20.030479125,
          "velocity": 0.7874015748031497
        },
        {
          "duration": 0.04573168750000178,
          "durationTicks": 24,
          "midi": 60,
          "name": "C4",
          "ticks": 10560,
          "time": 20.1219425,
          "velocity": 0.7874015748031497
        },
        {
          "duration": 0.04573168750000178,
          "durationTicks": 24,
          "midi": 84,
          "name": "C6",
          "ticks": 10560,
          "time": 20.1219425,
          "velocity": 0.7874015748031497
        },
        {
          "duration": 0.04573168750000178,
          "durationTicks": 24,
          "midi": 54,
          "name": "F#3",
          "ticks": 10560,
          "time": 20.1219425,
          "velocity": 0.7874015748031497
        },
        {
          "duration": 0.04573168750000178,
          "durationTicks": 24,
          "midi": 61,
          "name": "C#4",
          "ticks": 10656,
          "time": 20.30486925,
          "velocity": 0.7874015748031497
        },
        {
          "duration": 0.04573168750000178,
          "durationTicks": 24,
          "midi": 87,
          "name": "D#6",
          "ticks": 10656,
          "time": 20.30486925,
          "velocity": 0.7874015748031497
        },
        {
          "duration": 0.04573168750000178,
          "durationTicks": 24,
          "midi": 87,
          "name": "D#6",
          "ticks": 10656,
          "time": 20.30486925,
          "velocity": 0.7874015748031497
        },
        {
          "duration": 0.04573168750000178,
          "durationTicks": 24,
          "midi": 54,
          "name": "F#3",
          "ticks": 10656,
          "time": 20.30486925,
          "velocity": 0.7874015748031497
        },
        {
          "duration": 0.04573168750000178,
          "durationTicks": 24,
          "midi": 60,
          "name": "C4",
          "ticks": 10752,
          "time": 20.487796,
          "velocity": 0.7874015748031497
        },
        {
          "duration": 0.04573168750000178,
          "durationTicks": 24,
          "midi": 85,
          "name": "C#6",
          "ticks": 10752,
          "time": 20.487796,
          "velocity": 0.7874015748031497
        },
        {
          "duration": 0.04573168750000178,
          "durationTicks": 24,
          "midi": 75,
          "name": "D#5",
          "ticks": 10752,
          "time": 20.487796,
          "velocity": 0.7874015748031497
        },
        {
          "duration": 0.04573168750000178,
          "durationTicks": 24,
          "midi": 85,
          "name": "C#6",
          "ticks": 10752,
          "time": 20.487796,
          "velocity": 0.7874015748031497
        },
        {
          "duration": 0.04573168750000178,
          "durationTicks": 24,
          "midi": 85,
          "name": "C#6",
          "ticks": 10752,
          "time": 20.487796,
          "velocity": 0.7874015748031497
        },
        {
          "duration": 0.04573168749999823,
          "durationTicks": 24,
          "midi": 60,
          "name": "C4",
          "ticks": 10776,
          "time": 20.5335276875,
          "velocity": 0.7874015748031497
        },
        {
          "duration": 0.04573168750000178,
          "durationTicks": 24,
          "midi": 60,
          "name": "C4",
          "ticks": 10800,
          "time": 20.579259375,
          "velocity": 0.7874015748031497
        },
        {
          "duration": 0.04573168750000178,
          "durationTicks": 24,
          "midi": 60,
          "name": "C4",
          "ticks": 10848,
          "time": 20.67072275,
          "velocity": 0.7874015748031497
        },
        {
          "duration": 0.04573168750000178,
          "durationTicks": 24,
          "midi": 54,
          "name": "F#3",
          "ticks": 10848,
          "time": 20.67072275,
          "velocity": 0.7874015748031497
        },
        {
          "duration": 0.04573168750000178,
          "durationTicks": 24,
          "midi": 61,
          "name": "C#4",
          "ticks": 10944,
          "time": 20.8536495,
          "velocity": 0.7874015748031497
        },
        {
          "duration": 0.04573168750000178,
          "durationTicks": 24,
          "midi": 87,
          "name": "D#6",
          "ticks": 10944,
          "time": 20.8536495,
          "velocity": 0.7874015748031497
        },
        {
          "duration": 0.04573168750000178,
          "durationTicks": 24,
          "midi": 87,
          "name": "D#6",
          "ticks": 10944,
          "time": 20.8536495,
          "velocity": 0.7874015748031497
        },
        {
          "duration": 0.04573168749999823,
          "durationTicks": 24,
          "midi": 86,
          "name": "D6",
          "ticks": 10968,
          "time": 20.8993811875,
          "velocity": 0.7874015748031497
        },
        {
          "duration": 0.04573168750000178,
          "durationTicks": 24,
          "midi": 87,
          "name": "D#6",
          "ticks": 10992,
          "time": 20.945112875,
          "velocity": 0.7874015748031497
        },
        {
          "duration": 0.04573168750000178,
          "durationTicks": 24,
          "midi": 60,
          "name": "C4",
          "ticks": 11040,
          "time": 21.03657625,
          "velocity": 0.7874015748031497
        },
        {
          "duration": 0.04573168750000178,
          "durationTicks": 24,
          "midi": 87,
          "name": "D#6",
          "ticks": 11040,
          "time": 21.03657625,
          "velocity": 0.7874015748031497
        },
        {
          "duration": 0.04573168750000178,
          "durationTicks": 24,
          "midi": 54,
          "name": "F#3",
          "ticks": 11040,
          "time": 21.03657625,
          "velocity": 0.7874015748031497
        },
        {
          "duration": 0.04573168749999823,
          "durationTicks": 24,
          "midi": 60,
          "name": "C4",
          "ticks": 11064,
          "time": 21.0823079375,
          "velocity": 0.7874015748031497
        },
        {
          "duration": 0.04573168750000178,
          "durationTicks": 24,
          "midi": 60,
          "name": "C4",
          "ticks": 11088,
          "time": 21.128039625,
          "velocity": 0.7874015748031497
        },
        {
          "duration": 0.04573168750000178,
          "durationTicks": 24,
          "midi": 60,
          "name": "C4",
          "ticks": 11136,
          "time": 21.219503,
          "velocity": 0.7874015748031497
        },
        {
          "duration": 0.04573168750000178,
          "durationTicks": 24,
          "midi": 87,
          "name": "D#6",
          "ticks": 11136,
          "time": 21.219503,
          "velocity": 0.7874015748031497
        },
        {
          "duration": 0.04573168750000178,
          "durationTicks": 24,
          "midi": 87,
          "name": "D#6",
          "ticks": 11136,
          "time": 21.219503,
          "velocity": 0.7874015748031497
        },
        {
          "duration": 0.04573168750000178,
          "durationTicks": 24,
          "midi": 54,
          "name": "F#3",
          "ticks": 11136,
          "time": 21.219503,
          "velocity": 0.7874015748031497
        },
        {
          "duration": 0.04573168750000178,
          "durationTicks": 24,
          "midi": 61,
          "name": "C#4",
          "ticks": 11184,
          "time": 21.310966375,
          "velocity": 0.7874015748031497
        },
        {
          "duration": 0.04573168750000178,
          "durationTicks": 24,
          "midi": 86,
          "name": "D6",
          "ticks": 11184,
          "time": 21.310966375,
          "velocity": 0.7874015748031497
        },
        {
          "duration": 0.04573168750000178,
          "durationTicks": 24,
          "midi": 60,
          "name": "C4",
          "ticks": 11232,
          "time": 21.40242975,
          "velocity": 0.7874015748031497
        },
        {
          "duration": 0.04573168750000178,
          "durationTicks": 24,
          "midi": 87,
          "name": "D#6",
          "ticks": 11232,
          "time": 21.40242975,
          "velocity": 0.7874015748031497
        },
        {
          "duration": 0.04573168749999823,
          "durationTicks": 24,
          "midi": 61,
          "name": "C#4",
          "ticks": 11256,
          "time": 21.4481614375,
          "velocity": 0.7874015748031497
        },
        {
          "duration": 0.04573168750000178,
          "durationTicks": 24,
          "midi": 60,
          "name": "C4",
          "ticks": 11280,
          "time": 21.493893125,
          "velocity": 0.7874015748031497
        },
        {
          "duration": 0.04573168750000178,
          "durationTicks": 24,
          "midi": 61,
          "name": "C#4",
          "ticks": 11328,
          "time": 21.5853565,
          "velocity": 0.7874015748031497
        },
        {
          "duration": 0.04573168750000178,
          "durationTicks": 24,
          "midi": 84,
          "name": "C6",
          "ticks": 11328,
          "time": 21.5853565,
          "velocity": 0.7874015748031497
        },
        {
          "duration": 0.04573168750000178,
          "durationTicks": 24,
          "midi": 54,
          "name": "F#3",
          "ticks": 11328,
          "time": 21.5853565,
          "velocity": 0.7874015748031497
        },
        {
          "duration": 0.04573168750000178,
          "durationTicks": 24,
          "midi": 60,
          "name": "C4",
          "ticks": 11424,
          "time": 21.76828325,
          "velocity": 0.7874015748031497
        },
        {
          "duration": 0.04573168750000178,
          "durationTicks": 24,
          "midi": 87,
          "name": "D#6",
          "ticks": 11424,
          "time": 21.76828325,
          "velocity": 0.7874015748031497
        },
        {
          "duration": 0.04573168750000178,
          "durationTicks": 24,
          "midi": 87,
          "name": "D#6",
          "ticks": 11424,
          "time": 21.76828325,
          "velocity": 0.7874015748031497
        },
        {
          "duration": 0.04573168750000178,
          "durationTicks": 24,
          "midi": 60,
          "name": "C4",
          "ticks": 11472,
          "time": 21.859746625,
          "velocity": 0.7874015748031497
        },
        {
          "duration": 0.04573168750000178,
          "durationTicks": 24,
          "midi": 61,
          "name": "C#4",
          "ticks": 11520,
          "time": 21.95121,
          "velocity": 0.7874015748031497
        },
        {
          "duration": 0.04573168750000178,
          "durationTicks": 24,
          "midi": 85,
          "name": "C#6",
          "ticks": 11520,
          "time": 21.95121,
          "velocity": 0.7874015748031497
        },
        {
          "duration": 0.04573168750000178,
          "durationTicks": 24,
          "midi": 85,
          "name": "C#6",
          "ticks": 11520,
          "time": 21.95121,
          "velocity": 0.7874015748031497
        },
        {
          "duration": 0.04573168750000178,
          "durationTicks": 24,
          "midi": 85,
          "name": "C#6",
          "ticks": 11520,
          "time": 21.95121,
          "velocity": 0.7874015748031497
        },
        {
          "duration": 0.04573168750000178,
          "durationTicks": 24,
          "midi": 75,
          "name": "D#5",
          "ticks": 11520,
          "time": 21.95121,
          "velocity": 0.7874015748031497
        },
        {
          "duration": 0.04573168750000178,
          "durationTicks": 24,
          "midi": 54,
          "name": "F#3",
          "ticks": 11520,
          "time": 21.95121,
          "velocity": 0.7874015748031497
        },
        {
          "duration": 0.04573168750000178,
          "durationTicks": 24,
          "midi": 60,
          "name": "C4",
          "ticks": 11616,
          "time": 22.13413675,
          "velocity": 0.7874015748031497
        },
        {
          "duration": 0.04573168750000178,
          "durationTicks": 24,
          "midi": 87,
          "name": "D#6",
          "ticks": 11616,
          "time": 22.13413675,
          "velocity": 0.7874015748031497
        },
        {
          "duration": 0.04573168749999823,
          "durationTicks": 24,
          "midi": 61,
          "name": "C#4",
          "ticks": 11640,
          "time": 22.1798684375,
          "velocity": 0.7874015748031497
        },
        {
          "duration": 0.04573168750000178,
          "durationTicks": 24,
          "midi": 60,
          "name": "C4",
          "ticks": 11664,
          "time": 22.225600125,
          "velocity": 0.7874015748031497
        },
        {
          "duration": 0.04573168750000178,
          "durationTicks": 24,
          "midi": 86,
          "name": "D6",
          "ticks": 11664,
          "time": 22.225600125,
          "velocity": 0.7874015748031497
        },
        {
          "duration": 0.04573168750000178,
          "durationTicks": 24,
          "midi": 61,
          "name": "C#4",
          "ticks": 11712,
          "time": 22.3170635,
          "velocity": 0.7874015748031497
        },
        {
          "duration": 0.04573168750000178,
          "durationTicks": 24,
          "midi": 84,
          "name": "C6",
          "ticks": 11712,
          "time": 22.3170635,
          "velocity": 0.7874015748031497
        },
        {
          "duration": 0.04573168750000178,
          "durationTicks": 24,
          "midi": 87,
          "name": "D#6",
          "ticks": 11712,
          "time": 22.3170635,
          "velocity": 0.7874015748031497
        },
        {
          "duration": 0.04573168750000178,
          "durationTicks": 24,
          "midi": 54,
          "name": "F#3",
          "ticks": 11712,
          "time": 22.3170635,
          "velocity": 0.7874015748031497
        },
        {
          "duration": 0.04573168749999823,
          "durationTicks": 24,
          "midi": 86,
          "name": "D6",
          "ticks": 11736,
          "time": 22.3627951875,
          "velocity": 0.7874015748031497
        },
        {
          "duration": 0.04573168750000178,
          "durationTicks": 24,
          "midi": 87,
          "name": "D#6",
          "ticks": 11760,
          "time": 22.408526875,
          "velocity": 0.7874015748031497
        },
        {
          "duration": 0.04573168750000178,
          "durationTicks": 24,
          "midi": 60,
          "name": "C4",
          "ticks": 11808,
          "time": 22.49999025,
          "velocity": 0.7874015748031497
        },
        {
          "duration": 0.04573168750000178,
          "durationTicks": 24,
          "midi": 86,
          "name": "D6",
          "ticks": 11808,
          "time": 22.49999025,
          "velocity": 0.7874015748031497
        },
        {
          "duration": 0.04573168750000178,
          "durationTicks": 24,
          "midi": 54,
          "name": "F#3",
          "ticks": 11808,
          "time": 22.49999025,
          "velocity": 0.7874015748031497
        },
        {
          "duration": 0.04573168750000178,
          "durationTicks": 24,
          "midi": 87,
          "name": "D#6",
          "ticks": 11856,
          "time": 22.591453625,
          "velocity": 0.7874015748031497
        },
        {
          "duration": 0.04573168750000178,
          "durationTicks": 24,
          "midi": 60,
          "name": "C4",
          "ticks": 11904,
          "time": 22.682917,
          "velocity": 0.7874015748031497
        },
        {
          "duration": 0.04573168750000178,
          "durationTicks": 24,
          "midi": 87,
          "name": "D#6",
          "ticks": 11904,
          "time": 22.682917,
          "velocity": 0.7874015748031497
        },
        {
          "duration": 0.04573168750000178,
          "durationTicks": 24,
          "midi": 87,
          "name": "D#6",
          "ticks": 11904,
          "time": 22.682917,
          "velocity": 0.7874015748031497
        },
        {
          "duration": 0.04573168750000178,
          "durationTicks": 24,
          "midi": 60,
          "name": "C4",
          "ticks": 12000,
          "time": 22.86584375,
          "velocity": 0.7874015748031497
        },
        {
          "duration": 0.04573168749999823,
          "durationTicks": 24,
          "midi": 54,
          "name": "F#3",
          "ticks": 12024,
          "time": 22.9115754375,
          "velocity": 0.7874015748031497
        },
        {
          "duration": 0.04573168750000178,
          "durationTicks": 24,
          "midi": 61,
          "name": "C#4",
          "ticks": 12048,
          "time": 22.957307125,
          "velocity": 0.7874015748031497
        },
        {
          "duration": 0.04573168750000178,
          "durationTicks": 24,
          "midi": 60,
          "name": "C4",
          "ticks": 12096,
          "time": 23.0487705,
          "velocity": 0.7874015748031497
        },
        {
          "duration": 0.04573168750000178,
          "durationTicks": 24,
          "midi": 84,
          "name": "C6",
          "ticks": 12096,
          "time": 23.0487705,
          "velocity": 0.7874015748031497
        },
        {
          "duration": 0.04573168749999823,
          "durationTicks": 24,
          "midi": 54,
          "name": "F#3",
          "ticks": 12120,
          "time": 23.0945021875,
          "velocity": 0.7874015748031497
        },
        {
          "duration": 0.04573168750000178,
          "durationTicks": 24,
          "midi": 61,
          "name": "C#4",
          "ticks": 12192,
          "time": 23.23169725,
          "velocity": 0.7874015748031497
        },
        {
          "duration": 0.04573168750000178,
          "durationTicks": 24,
          "midi": 87,
          "name": "D#6",
          "ticks": 12192,
          "time": 23.23169725,
          "velocity": 0.7874015748031497
        },
        {
          "duration": 0.04573168750000178,
          "durationTicks": 24,
          "midi": 87,
          "name": "D#6",
          "ticks": 12192,
          "time": 23.23169725,
          "velocity": 0.7874015748031497
        },
        {
          "duration": 0.04573168749999823,
          "durationTicks": 24,
          "midi": 54,
          "name": "F#3",
          "ticks": 12216,
          "time": 23.2774289375,
          "velocity": 0.7874015748031497
        },
        {
          "duration": 0.04573168749999823,
          "durationTicks": 24,
          "midi": 60,
          "name": "C4",
          "ticks": 12288,
          "time": 23.414624,
          "velocity": 0.7874015748031497
        },
        {
          "duration": 0.04573168749999823,
          "durationTicks": 24,
          "midi": 85,
          "name": "C#6",
          "ticks": 12288,
          "time": 23.414624,
          "velocity": 0.7874015748031497
        },
        {
          "duration": 0.04573168749999823,
          "durationTicks": 24,
          "midi": 75,
          "name": "D#5",
          "ticks": 12288,
          "time": 23.414624,
          "velocity": 0.7874015748031497
        },
        {
          "duration": 0.04573168749999823,
          "durationTicks": 24,
          "midi": 85,
          "name": "C#6",
          "ticks": 12288,
          "time": 23.414624,
          "velocity": 0.7874015748031497
        },
        {
          "duration": 0.04573168749999823,
          "durationTicks": 24,
          "midi": 85,
          "name": "C#6",
          "ticks": 12288,
          "time": 23.414624,
          "velocity": 0.7874015748031497
        },
        {
          "duration": 0.04573168750000178,
          "durationTicks": 24,
          "midi": 61,
          "name": "C#4",
          "ticks": 12312,
          "time": 23.460355687499998,
          "velocity": 0.7874015748031497
        },
        {
          "duration": 0.04573168749999823,
          "durationTicks": 24,
          "midi": 60,
          "name": "C4",
          "ticks": 12336,
          "time": 23.506087375,
          "velocity": 0.7874015748031497
        },
        {
          "duration": 0.04573168749999823,
          "durationTicks": 24,
          "midi": 60,
          "name": "C4",
          "ticks": 12384,
          "time": 23.59755075,
          "velocity": 0.7874015748031497
        },
        {
          "duration": 0.04573168750000178,
          "durationTicks": 24,
          "midi": 54,
          "name": "F#3",
          "ticks": 12408,
          "time": 23.643282437499998,
          "velocity": 0.7874015748031497
        },
        {
          "duration": 0.04573168749999823,
          "durationTicks": 24,
          "midi": 61,
          "name": "C#4",
          "ticks": 12432,
          "time": 23.689014125,
          "velocity": 0.7874015748031497
        },
        {
          "duration": 0.04573168749999823,
          "durationTicks": 24,
          "midi": 60,
          "name": "C4",
          "ticks": 12480,
          "time": 23.7804775,
          "velocity": 0.7874015748031497
        },
        {
          "duration": 0.04573168749999823,
          "durationTicks": 24,
          "midi": 87,
          "name": "D#6",
          "ticks": 12480,
          "time": 23.7804775,
          "velocity": 0.7874015748031497
        },
        {
          "duration": 0.04573168749999823,
          "durationTicks": 24,
          "midi": 87,
          "name": "D#6",
          "ticks": 12480,
          "time": 23.7804775,
          "velocity": 0.7874015748031497
        },
        {
          "duration": 0.04573168750000178,
          "durationTicks": 24,
          "midi": 86,
          "name": "D6",
          "ticks": 12504,
          "time": 23.826209187499998,
          "velocity": 0.7874015748031497
        },
        {
          "duration": 0.04573168749999823,
          "durationTicks": 24,
          "midi": 87,
          "name": "D#6",
          "ticks": 12528,
          "time": 23.871940875,
          "velocity": 0.7874015748031497
        },
        {
          "duration": 0.04573168749999823,
          "durationTicks": 24,
          "midi": 61,
          "name": "C#4",
          "ticks": 12576,
          "time": 23.96340425,
          "velocity": 0.7874015748031497
        },
        {
          "duration": 0.04573168749999823,
          "durationTicks": 24,
          "midi": 87,
          "name": "D#6",
          "ticks": 12576,
          "time": 23.96340425,
          "velocity": 0.7874015748031497
        },
        {
          "duration": 0.04573168750000178,
          "durationTicks": 24,
          "midi": 54,
          "name": "F#3",
          "ticks": 12600,
          "time": 24.009135937499998,
          "velocity": 0.7874015748031497
        },
        {
          "duration": 0.04573168749999823,
          "durationTicks": 24,
          "midi": 61,
          "name": "C#4",
          "ticks": 12624,
          "time": 24.054867625,
          "velocity": 0.7874015748031497
        },
        {
          "duration": 0.04573168749999823,
          "durationTicks": 24,
          "midi": 61,
          "name": "C#4",
          "ticks": 12672,
          "time": 24.146331,
          "velocity": 0.7874015748031497
        },
        {
          "duration": 0.04573168749999823,
          "durationTicks": 24,
          "midi": 87,
          "name": "D#6",
          "ticks": 12672,
          "time": 24.146331,
          "velocity": 0.7874015748031497
        },
        {
          "duration": 0.04573168749999823,
          "durationTicks": 24,
          "midi": 87,
          "name": "D#6",
          "ticks": 12672,
          "time": 24.146331,
          "velocity": 0.7874015748031497
        },
        {
          "duration": 0.04573168750000178,
          "durationTicks": 24,
          "midi": 54,
          "name": "F#3",
          "ticks": 12696,
          "time": 24.192062687499998,
          "velocity": 0.7874015748031497
        },
        {
          "duration": 0.04573168749999823,
          "durationTicks": 24,
          "midi": 86,
          "name": "D6",
          "ticks": 12720,
          "time": 24.237794375,
          "velocity": 0.7874015748031497
        },
        {
          "duration": 0.04573168749999823,
          "durationTicks": 24,
          "midi": 60,
          "name": "C4",
          "ticks": 12768,
          "time": 24.32925775,
          "velocity": 0.7874015748031497
        },
        {
          "duration": 0.04573168749999823,
          "durationTicks": 24,
          "midi": 87,
          "name": "D#6",
          "ticks": 12768,
          "time": 24.32925775,
          "velocity": 0.7874015748031497
        },
        {
          "duration": 0.04573168750000178,
          "durationTicks": 24,
          "midi": 60,
          "name": "C4",
          "ticks": 12792,
          "time": 24.3749894375,
          "velocity": 0.7874015748031497
        },
        {
          "duration": 0.04573168749999823,
          "durationTicks": 24,
          "midi": 60,
          "name": "C4",
          "ticks": 12816,
          "time": 24.420721125,
          "velocity": 0.7874015748031497
        },
        {
          "duration": 0.04573168749999823,
          "durationTicks": 24,
          "midi": 61,
          "name": "C#4",
          "ticks": 12864,
          "time": 24.5121845,
          "velocity": 0.7874015748031497
        },
        {
          "duration": 0.04573168749999823,
          "durationTicks": 24,
          "midi": 84,
          "name": "C6",
          "ticks": 12864,
          "time": 24.5121845,
          "velocity": 0.7874015748031497
        },
        {
          "duration": 0.04573168750000178,
          "durationTicks": 24,
          "midi": 54,
          "name": "F#3",
          "ticks": 12888,
          "time": 24.5579161875,
          "velocity": 0.7874015748031497
        },
        {
          "duration": 0.04573168749999823,
          "durationTicks": 24,
          "midi": 60,
          "name": "C4",
          "ticks": 12960,
          "time": 24.69511125,
          "velocity": 0.7874015748031497
        },
        {
          "duration": 0.04573168749999823,
          "durationTicks": 24,
          "midi": 87,
          "name": "D#6",
          "ticks": 12960,
          "time": 24.69511125,
          "velocity": 0.7874015748031497
        },
        {
          "duration": 0.04573168749999823,
          "durationTicks": 24,
          "midi": 87,
          "name": "D#6",
          "ticks": 12960,
          "time": 24.69511125,
          "velocity": 0.7874015748031497
        },
        {
          "duration": 0.04573168749999823,
          "durationTicks": 24,
          "midi": 61,
          "name": "C#4",
          "ticks": 13008,
          "time": 24.786574625,
          "velocity": 0.7874015748031497
        },
        {
          "duration": 0.04573168749999823,
          "durationTicks": 24,
          "midi": 60,
          "name": "C4",
          "ticks": 13056,
          "time": 24.878038,
          "velocity": 0.7874015748031497
        },
        {
          "duration": 0.04573168749999823,
          "durationTicks": 24,
          "midi": 85,
          "name": "C#6",
          "ticks": 13056,
          "time": 24.878038,
          "velocity": 0.7874015748031497
        },
        {
          "duration": 0.04573168749999823,
          "durationTicks": 24,
          "midi": 85,
          "name": "C#6",
          "ticks": 13056,
          "time": 24.878038,
          "velocity": 0.7874015748031497
        },
        {
          "duration": 0.04573168749999823,
          "durationTicks": 24,
          "midi": 85,
          "name": "C#6",
          "ticks": 13056,
          "time": 24.878038,
          "velocity": 0.7874015748031497
        },
        {
          "duration": 0.04573168749999823,
          "durationTicks": 24,
          "midi": 75,
          "name": "D#5",
          "ticks": 13056,
          "time": 24.878038,
          "velocity": 0.7874015748031497
        },
        {
          "duration": 0.04573168750000178,
          "durationTicks": 24,
          "midi": 61,
          "name": "C#4",
          "ticks": 13080,
          "time": 24.9237696875,
          "velocity": 0.7874015748031497
        },
        {
          "duration": 0.04573168750000178,
          "durationTicks": 24,
          "midi": 54,
          "name": "F#3",
          "ticks": 13080,
          "time": 24.9237696875,
          "velocity": 0.7874015748031497
        },
        {
          "duration": 0.04573168749999823,
          "durationTicks": 24,
          "midi": 60,
          "name": "C4",
          "ticks": 13104,
          "time": 24.969501375,
          "velocity": 0.7874015748031497
        },
        {
          "duration": 0.04573168749999823,
          "durationTicks": 24,
          "midi": 61,
          "name": "C#4",
          "ticks": 13152,
          "time": 25.06096475,
          "velocity": 0.7874015748031497
        },
        {
          "duration": 0.04573168749999823,
          "durationTicks": 24,
          "midi": 87,
          "name": "D#6",
          "ticks": 13152,
          "time": 25.06096475,
          "velocity": 0.7874015748031497
        },
        {
          "duration": 0.04573168749999823,
          "durationTicks": 24,
          "midi": 86,
          "name": "D6",
          "ticks": 13200,
          "time": 25.152428125,
          "velocity": 0.7874015748031497
        },
        {
          "duration": 0.04573168749999823,
          "durationTicks": 24,
          "midi": 60,
          "name": "C4",
          "ticks": 13248,
          "time": 25.2438915,
          "velocity": 0.7874015748031497
        },
        {
          "duration": 0.04573168749999823,
          "durationTicks": 24,
          "midi": 84,
          "name": "C6",
          "ticks": 13248,
          "time": 25.2438915,
          "velocity": 0.7874015748031497
        },
        {
          "duration": 0.04573168749999823,
          "durationTicks": 24,
          "midi": 87,
          "name": "D#6",
          "ticks": 13248,
          "time": 25.2438915,
          "velocity": 0.7874015748031497
        },
        {
          "duration": 0.04573168750000178,
          "durationTicks": 24,
          "midi": 86,
          "name": "D6",
          "ticks": 13272,
          "time": 25.2896231875,
          "velocity": 0.7874015748031497
        },
        {
          "duration": 0.04573168750000178,
          "durationTicks": 24,
          "midi": 54,
          "name": "F#3",
          "ticks": 13272,
          "time": 25.2896231875,
          "velocity": 0.7874015748031497
        },
        {
          "duration": 0.04573168749999823,
          "durationTicks": 24,
          "midi": 87,
          "name": "D#6",
          "ticks": 13296,
          "time": 25.335354875,
          "velocity": 0.7874015748031497
        },
        {
          "duration": 0.04573168749999823,
          "durationTicks": 24,
          "midi": 61,
          "name": "C#4",
          "ticks": 13344,
          "time": 25.42681825,
          "velocity": 0.7874015748031497
        },
        {
          "duration": 0.04573168749999823,
          "durationTicks": 24,
          "midi": 86,
          "name": "D6",
          "ticks": 13344,
          "time": 25.42681825,
          "velocity": 0.7874015748031497
        },
        {
          "duration": 0.04573168750000178,
          "durationTicks": 24,
          "midi": 54,
          "name": "F#3",
          "ticks": 13368,
          "time": 25.4725499375,
          "velocity": 0.7874015748031497
        },
        {
          "duration": 0.04573168749999823,
          "durationTicks": 24,
          "midi": 61,
          "name": "C#4",
          "ticks": 13392,
          "time": 25.518281625,
          "velocity": 0.7874015748031497
        },
        {
          "duration": 0.04573168749999823,
          "durationTicks": 24,
          "midi": 87,
          "name": "D#6",
          "ticks": 13392,
          "time": 25.518281625,
          "velocity": 0.7874015748031497
        },
        {
          "duration": 0.04573168749999823,
          "durationTicks": 24,
          "midi": 61,
          "name": "C#4",
          "ticks": 13440,
          "time": 25.609745,
          "velocity": 0.7874015748031497
        },
        {
          "duration": 0.04573168749999823,
          "durationTicks": 24,
          "midi": 87,
          "name": "D#6",
          "ticks": 13440,
          "time": 25.609745,
          "velocity": 0.7874015748031497
        },
        {
          "duration": 0.04573168749999823,
          "durationTicks": 24,
          "midi": 87,
          "name": "D#6",
          "ticks": 13440,
          "time": 25.609745,
          "velocity": 0.7874015748031497
        },
        {
          "duration": 0.04573168749999823,
          "durationTicks": 24,
          "midi": 60,
          "name": "C4",
          "ticks": 13536,
          "time": 25.79267175,
          "velocity": 0.7874015748031497
        },
        {
          "duration": 0.04573168750000178,
          "durationTicks": 24,
          "midi": 60,
          "name": "C4",
          "ticks": 13560,
          "time": 25.8384034375,
          "velocity": 0.7874015748031497
        },
        {
          "duration": 0.04573168750000178,
          "durationTicks": 24,
          "midi": 54,
          "name": "F#3",
          "ticks": 13560,
          "time": 25.8384034375,
          "velocity": 0.7874015748031497
        },
        {
          "duration": 0.04573168749999823,
          "durationTicks": 24,
          "midi": 60,
          "name": "C4",
          "ticks": 13584,
          "time": 25.884135125,
          "velocity": 0.7874015748031497
        },
        {
          "duration": 0.04573168749999823,
          "durationTicks": 24,
          "midi": 60,
          "name": "C4",
          "ticks": 13632,
          "time": 25.9755985,
          "velocity": 0.7874015748031497
        },
        {
          "duration": 0.04573168749999823,
          "durationTicks": 24,
          "midi": 84,
          "name": "C6",
          "ticks": 13632,
          "time": 25.9755985,
          "velocity": 0.7874015748031497
        },
        {
          "duration": 0.04573168750000178,
          "durationTicks": 24,
          "midi": 54,
          "name": "F#3",
          "ticks": 13656,
          "time": 26.0213301875,
          "velocity": 0.7874015748031497
        },
        {
          "duration": 0.04573168749999823,
          "durationTicks": 24,
          "midi": 60,
          "name": "C4",
          "ticks": 13728,
          "time": 26.15852525,
          "velocity": 0.7874015748031497
        },
        {
          "duration": 0.04573168749999823,
          "durationTicks": 24,
          "midi": 87,
          "name": "D#6",
          "ticks": 13728,
          "time": 26.15852525,
          "velocity": 0.7874015748031497
        },
        {
          "duration": 0.04573168749999823,
          "durationTicks": 24,
          "midi": 87,
          "name": "D#6",
          "ticks": 13728,
          "time": 26.15852525,
          "velocity": 0.7874015748031497
        },
        {
          "duration": 0.04573168750000178,
          "durationTicks": 24,
          "midi": 54,
          "name": "F#3",
          "ticks": 13752,
          "time": 26.2042569375,
          "velocity": 0.7874015748031497
        },
        {
          "duration": 0.04573168749999823,
          "durationTicks": 24,
          "midi": 60,
          "name": "C4",
          "ticks": 13824,
          "time": 26.341452,
          "velocity": 0.7874015748031497
        },
        {
          "duration": 0.04573168749999823,
          "durationTicks": 24,
          "midi": 85,
          "name": "C#6",
          "ticks": 13824,
          "time": 26.341452,
          "velocity": 0.7874015748031497
        },
        {
          "duration": 0.04573168749999823,
          "durationTicks": 24,
          "midi": 75,
          "name": "D#5",
          "ticks": 13824,
          "time": 26.341452,
          "velocity": 0.7874015748031497
        },
        {
          "duration": 0.04573168749999823,
          "durationTicks": 24,
          "midi": 85,
          "name": "C#6",
          "ticks": 13824,
          "time": 26.341452,
          "velocity": 0.7874015748031497
        },
        {
          "duration": 0.04573168749999823,
          "durationTicks": 24,
          "midi": 85,
          "name": "C#6",
          "ticks": 13824,
          "time": 26.341452,
          "velocity": 0.7874015748031497
        },
        {
          "duration": 0.04573168750000178,
          "durationTicks": 24,
          "midi": 61,
          "name": "C#4",
          "ticks": 13848,
          "time": 26.3871836875,
          "velocity": 0.7874015748031497
        },
        {
          "duration": 0.04573168749999823,
          "durationTicks": 24,
          "midi": 60,
          "name": "C4",
          "ticks": 13872,
          "time": 26.432915375,
          "velocity": 0.7874015748031497
        },
        {
          "duration": 0.04573168749999823,
          "durationTicks": 24,
          "midi": 60,
          "name": "C4",
          "ticks": 13920,
          "time": 26.52437875,
          "velocity": 0.7874015748031497
        },
        {
          "duration": 0.04573168750000178,
          "durationTicks": 24,
          "midi": 54,
          "name": "F#3",
          "ticks": 13944,
          "time": 26.5701104375,
          "velocity": 0.7874015748031497
        },
        {
          "duration": 0.04573168749999823,
          "durationTicks": 24,
          "midi": 61,
          "name": "C#4",
          "ticks": 14016,
          "time": 26.7073055,
          "velocity": 0.7874015748031497
        },
        {
          "duration": 0.04573168749999823,
          "durationTicks": 24,
          "midi": 87,
          "name": "D#6",
          "ticks": 14016,
          "time": 26.7073055,
          "velocity": 0.7874015748031497
        },
        {
          "duration": 0.04573168749999823,
          "durationTicks": 24,
          "midi": 87,
          "name": "D#6",
          "ticks": 14016,
          "time": 26.7073055,
          "velocity": 0.7874015748031497
        },
        {
          "duration": 0.04573168750000178,
          "durationTicks": 24,
          "midi": 86,
          "name": "D6",
          "ticks": 14040,
          "time": 26.7530371875,
          "velocity": 0.7874015748031497
        },
        {
          "duration": 0.04573168749999823,
          "durationTicks": 24,
          "midi": 87,
          "name": "D#6",
          "ticks": 14064,
          "time": 26.798768875,
          "velocity": 0.7874015748031497
        },
        {
          "duration": 0.04573168749999823,
          "durationTicks": 24,
          "midi": 60,
          "name": "C4",
          "ticks": 14112,
          "time": 26.89023225,
          "velocity": 0.7874015748031497
        },
        {
          "duration": 0.04573168749999823,
          "durationTicks": 24,
          "midi": 87,
          "name": "D#6",
          "ticks": 14112,
          "time": 26.89023225,
          "velocity": 0.7874015748031497
        },
        {
          "duration": 0.04573168750000178,
          "durationTicks": 24,
          "midi": 60,
          "name": "C4",
          "ticks": 14136,
          "time": 26.9359639375,
          "velocity": 0.7874015748031497
        },
        {
          "duration": 0.04573168750000178,
          "durationTicks": 24,
          "midi": 54,
          "name": "F#3",
          "ticks": 14136,
          "time": 26.9359639375,
          "velocity": 0.7874015748031497
        },
        {
          "duration": 0.04573168749999823,
          "durationTicks": 24,
          "midi": 60,
          "name": "C4",
          "ticks": 14160,
          "time": 26.981695625,
          "velocity": 0.7874015748031497
        },
        {
          "duration": 0.04573168749999823,
          "durationTicks": 24,
          "midi": 60,
          "name": "C4",
          "ticks": 14208,
          "time": 27.073159,
          "velocity": 0.7874015748031497
        },
        {
          "duration": 0.04573168749999823,
          "durationTicks": 24,
          "midi": 87,
          "name": "D#6",
          "ticks": 14208,
          "time": 27.073159,
          "velocity": 0.7874015748031497
        },
        {
          "duration": 0.04573168749999823,
          "durationTicks": 24,
          "midi": 87,
          "name": "D#6",
          "ticks": 14208,
          "time": 27.073159,
          "velocity": 0.7874015748031497
        },
        {
          "duration": 0.04573168750000178,
          "durationTicks": 24,
          "midi": 54,
          "name": "F#3",
          "ticks": 14232,
          "time": 27.1188906875,
          "velocity": 0.7874015748031497
        },
        {
          "duration": 0.04573168749999823,
          "durationTicks": 24,
          "midi": 86,
          "name": "D6",
          "ticks": 14256,
          "time": 27.164622375,
          "velocity": 0.7874015748031497
        },
        {
          "duration": 0.04573168749999823,
          "durationTicks": 24,
          "midi": 60,
          "name": "C4",
          "ticks": 14304,
          "time": 27.25608575,
          "velocity": 0.7874015748031497
        },
        {
          "duration": 0.04573168749999823,
          "durationTicks": 24,
          "midi": 87,
          "name": "D#6",
          "ticks": 14304,
          "time": 27.25608575,
          "velocity": 0.7874015748031497
        },
        {
          "duration": 0.04573168749999823,
          "durationTicks": 24,
          "midi": 60,
          "name": "C4",
          "ticks": 14400,
          "time": 27.4390125,
          "velocity": 0.7874015748031497
        },
        {
          "duration": 0.04573168749999823,
          "durationTicks": 24,
          "midi": 84,
          "name": "C6",
          "ticks": 14400,
          "time": 27.4390125,
          "velocity": 0.7874015748031497
        },
        {
          "duration": 0.04573168750000178,
          "durationTicks": 24,
          "midi": 61,
          "name": "C#4",
          "ticks": 14424,
          "time": 27.4847441875,
          "velocity": 0.7874015748031497
        },
        {
          "duration": 0.04573168750000178,
          "durationTicks": 24,
          "midi": 54,
          "name": "F#3",
          "ticks": 14424,
          "time": 27.4847441875,
          "velocity": 0.7874015748031497
        },
        {
          "duration": 0.04573168749999823,
          "durationTicks": 24,
          "midi": 60,
          "name": "C4",
          "ticks": 14448,
          "time": 27.530475875,
          "velocity": 0.7874015748031497
        },
        {
          "duration": 0.04573168749999823,
          "durationTicks": 24,
          "midi": 60,
          "name": "C4",
          "ticks": 14496,
          "time": 27.62193925,
          "velocity": 0.7874015748031497
        },
        {
          "duration": 0.04573168749999823,
          "durationTicks": 24,
          "midi": 87,
          "name": "D#6",
          "ticks": 14496,
          "time": 27.62193925,
          "velocity": 0.7874015748031497
        },
        {
          "duration": 0.04573168749999823,
          "durationTicks": 24,
          "midi": 87,
          "name": "D#6",
          "ticks": 14496,
          "time": 27.62193925,
          "velocity": 0.7874015748031497
        },
        {
          "duration": 0.04573168749999823,
          "durationTicks": 24,
          "midi": 61,
          "name": "C#4",
          "ticks": 14592,
          "time": 27.804866,
          "velocity": 0.7874015748031497
        },
        {
          "duration": 0.04573168749999823,
          "durationTicks": 24,
          "midi": 85,
          "name": "C#6",
          "ticks": 14592,
          "time": 27.804866,
          "velocity": 0.7874015748031497
        },
        {
          "duration": 0.04573168749999823,
          "durationTicks": 24,
          "midi": 85,
          "name": "C#6",
          "ticks": 14592,
          "time": 27.804866,
          "velocity": 0.7874015748031497
        },
        {
          "duration": 0.04573168749999823,
          "durationTicks": 24,
          "midi": 85,
          "name": "C#6",
          "ticks": 14592,
          "time": 27.804866,
          "velocity": 0.7874015748031497
        },
        {
          "duration": 0.04573168749999823,
          "durationTicks": 24,
          "midi": 75,
          "name": "D#5",
          "ticks": 14592,
          "time": 27.804866,
          "velocity": 0.7874015748031497
        },
        {
          "duration": 0.04573168750000178,
          "durationTicks": 24,
          "midi": 54,
          "name": "F#3",
          "ticks": 14616,
          "time": 27.8505976875,
          "velocity": 0.7874015748031497
        },
        {
          "duration": 0.04573168749999823,
          "durationTicks": 24,
          "midi": 60,
          "name": "C4",
          "ticks": 14688,
          "time": 27.98779275,
          "velocity": 0.7874015748031497
        },
        {
          "duration": 0.04573168749999823,
          "durationTicks": 24,
          "midi": 87,
          "name": "D#6",
          "ticks": 14688,
          "time": 27.98779275,
          "velocity": 0.7874015748031497
        },
        {
          "duration": 0.04573168750000178,
          "durationTicks": 24,
          "midi": 60,
          "name": "C4",
          "ticks": 14712,
          "time": 28.0335244375,
          "velocity": 0.7874015748031497
        },
        {
          "duration": 0.04573168749999823,
          "durationTicks": 24,
          "midi": 60,
          "name": "C4",
          "ticks": 14736,
          "time": 28.079256125,
          "velocity": 0.7874015748031497
        },
        {
          "duration": 0.04573168749999823,
          "durationTicks": 24,
          "midi": 86,
          "name": "D6",
          "ticks": 14736,
          "time": 28.079256125,
          "velocity": 0.7874015748031497
        },
        {
          "duration": 0.04573168749999823,
          "durationTicks": 24,
          "midi": 60,
          "name": "C4",
          "ticks": 14784,
          "time": 28.1707195,
          "velocity": 0.7874015748031497
        },
        {
          "duration": 0.04573168749999823,
          "durationTicks": 24,
          "midi": 84,
          "name": "C6",
          "ticks": 14784,
          "time": 28.1707195,
          "velocity": 0.7874015748031497
        },
        {
          "duration": 0.04573168749999823,
          "durationTicks": 24,
          "midi": 87,
          "name": "D#6",
          "ticks": 14784,
          "time": 28.1707195,
          "velocity": 0.7874015748031497
        },
        {
          "duration": 0.04573168750000178,
          "durationTicks": 24,
          "midi": 86,
          "name": "D6",
          "ticks": 14808,
          "time": 28.2164511875,
          "velocity": 0.7874015748031497
        },
        {
          "duration": 0.04573168750000178,
          "durationTicks": 24,
          "midi": 54,
          "name": "F#3",
          "ticks": 14808,
          "time": 28.2164511875,
          "velocity": 0.7874015748031497
        },
        {
          "duration": 0.04573168749999823,
          "durationTicks": 24,
          "midi": 87,
          "name": "D#6",
          "ticks": 14832,
          "time": 28.262182875,
          "velocity": 0.7874015748031497
        },
        {
          "duration": 0.04573168749999823,
          "durationTicks": 24,
          "midi": 60,
          "name": "C4",
          "ticks": 14880,
          "time": 28.35364625,
          "velocity": 0.7874015748031497
        },
        {
          "duration": 0.04573168749999823,
          "durationTicks": 24,
          "midi": 86,
          "name": "D6",
          "ticks": 14880,
          "time": 28.35364625,
          "velocity": 0.7874015748031497
        },
        {
          "duration": 0.04573168750000178,
          "durationTicks": 24,
          "midi": 61,
          "name": "C#4",
          "ticks": 14904,
          "time": 28.3993779375,
          "velocity": 0.7874015748031497
        },
        {
          "duration": 0.04573168750000178,
          "durationTicks": 24,
          "midi": 54,
          "name": "F#3",
          "ticks": 14904,
          "time": 28.3993779375,
          "velocity": 0.7874015748031497
        },
        {
          "duration": 0.04573168749999823,
          "durationTicks": 24,
          "midi": 60,
          "name": "C4",
          "ticks": 14928,
          "time": 28.445109625,
          "velocity": 0.7874015748031497
        },
        {
          "duration": 0.04573168749999823,
          "durationTicks": 24,
          "midi": 87,
          "name": "D#6",
          "ticks": 14928,
          "time": 28.445109625,
          "velocity": 0.7874015748031497
        },
        {
          "duration": 0.04573168749999823,
          "durationTicks": 24,
          "midi": 61,
          "name": "C#4",
          "ticks": 14976,
          "time": 28.536573,
          "velocity": 0.7874015748031497
        },
        {
          "duration": 0.04573168749999823,
          "durationTicks": 24,
          "midi": 87,
          "name": "D#6",
          "ticks": 14976,
          "time": 28.536573,
          "velocity": 0.7874015748031497
        },
        {
          "duration": 0.04573168749999823,
          "durationTicks": 24,
          "midi": 87,
          "name": "D#6",
          "ticks": 14976,
          "time": 28.536573,
          "velocity": 0.7874015748031497
        },
        {
          "duration": 0.04573168749999823,
          "durationTicks": 24,
          "midi": 54,
          "name": "F#3",
          "ticks": 15072,
          "time": 28.71949975,
          "velocity": 0.7874015748031497
        }
      ],
      "endOfTrackTicks": 15096
    },
    {
      "channel": 9,
      "controlChanges": {},
      "pitchBends": [],
      "instrument": {
        "family": "drums",
        "number": 0,
        "name": "standard kit"
      },
      "name": "Drum Kit",
      "notes": [
        {
          "duration": 0.04573168750000001,
          "durationTicks": 24,
          "midi": 75,
          "name": "D#5",
          "ticks": 3072,
          "time": 5.853656,
          "velocity": 0.4330708661417323
        },
        {
          "duration": 0.04573168750000001,
          "durationTicks": 24,
          "midi": 75,
          "name": "D#5",
          "ticks": 3840,
          "time": 7.31707,
          "velocity": 0.4330708661417323
        },
        {
          "duration": 0.04573168750000001,
          "durationTicks": 24,
          "midi": 75,
          "name": "D#5",
          "ticks": 4608,
          "time": 8.780484,
          "velocity": 0.4330708661417323
        },
        {
          "duration": 0.04573168750000001,
          "durationTicks": 24,
          "midi": 75,
          "name": "D#5",
          "ticks": 5376,
          "time": 10.243898,
          "velocity": 0.4330708661417323
        },
        {
          "duration": 0.04573168750000001,
          "durationTicks": 24,
          "midi": 75,
          "name": "D#5",
          "ticks": 6144,
          "time": 11.707312,
          "velocity": 0.4330708661417323
        },
        {
          "duration": 0.04573168750000001,
          "durationTicks": 24,
          "midi": 75,
          "name": "D#5",
          "ticks": 6912,
          "time": 13.170726,
          "velocity": 0.4330708661417323
        },
        {
          "duration": 0.04573168750000001,
          "durationTicks": 24,
          "midi": 75,
          "name": "D#5",
          "ticks": 7680,
          "time": 14.63414,
          "velocity": 0.4330708661417323
        },
        {
          "duration": 0.04573168750000178,
          "durationTicks": 24,
          "midi": 75,
          "name": "D#5",
          "ticks": 8448,
          "time": 16.097554,
          "velocity": 0.4330708661417323
        },
        {
          "duration": 0.04573168750000178,
          "durationTicks": 24,
          "midi": 87,
          "name": "D#6",
          "ticks": 8640,
          "time": 16.4634075,
          "velocity": 0.4330708661417323
        },
        {
          "duration": 0.04573168750000178,
          "durationTicks": 24,
          "midi": 87,
          "name": "D#6",
          "ticks": 8688,
          "time": 16.554870875,
          "velocity": 0.4330708661417323
        },
        {
          "duration": 0.04573168750000178,
          "durationTicks": 24,
          "midi": 86,
          "name": "D6",
          "ticks": 8736,
          "time": 16.64633425,
          "velocity": 0.4330708661417323
        },
        {
          "duration": 0.04573168750000178,
          "durationTicks": 24,
          "midi": 87,
          "name": "D#6",
          "ticks": 8784,
          "time": 16.737797625,
          "velocity": 0.4330708661417323
        },
        {
          "duration": 0.04573168749999823,
          "durationTicks": 24,
          "midi": 87,
          "name": "D#6",
          "ticks": 8808,
          "time": 16.7835293125,
          "velocity": 0.4330708661417323
        },
        {
          "duration": 0.04573168749999823,
          "durationTicks": 24,
          "midi": 87,
          "name": "D#6",
          "ticks": 8808,
          "time": 16.7835293125,
          "velocity": 0.4330708661417323
        },
        {
          "duration": 0.04573168750000178,
          "durationTicks": 24,
          "midi": 61,
          "name": "C#4",
          "ticks": 8832,
          "time": 16.829261,
          "velocity": 0.4330708661417323
        },
        {
          "duration": 0.04573168750000178,
          "durationTicks": 24,
          "midi": 87,
          "name": "D#6",
          "ticks": 8832,
          "time": 16.829261,
          "velocity": 0.4330708661417323
        },
        {
          "duration": 0.04573168750000178,
          "durationTicks": 24,
          "midi": 87,
          "name": "D#6",
          "ticks": 8832,
          "time": 16.829261,
          "velocity": 0.4330708661417323
        },
        {
          "duration": 0.04573168750000178,
          "durationTicks": 24,
          "midi": 61,
          "name": "C#4",
          "ticks": 9024,
          "time": 17.1951145,
          "velocity": 0.4330708661417323
        },
        {
          "duration": 0.04573168750000178,
          "durationTicks": 24,
          "midi": 60,
          "name": "C4",
          "ticks": 9072,
          "time": 17.286577875,
          "velocity": 0.4330708661417323
        },
        {
          "duration": 0.04573168749999823,
          "durationTicks": 24,
          "midi": 60,
          "name": "C4",
          "ticks": 9096,
          "time": 17.3323095625,
          "velocity": 0.4330708661417323
        },
        {
          "duration": 0.04573168750000178,
          "durationTicks": 24,
          "midi": 60,
          "name": "C4",
          "ticks": 9120,
          "time": 17.37804125,
          "velocity": 0.4330708661417323
        },
        {
          "duration": 0.04573168750000178,
          "durationTicks": 24,
          "midi": 87,
          "name": "D#6",
          "ticks": 9120,
          "time": 17.37804125,
          "velocity": 0.4330708661417323
        },
        {
          "duration": 0.04573168750000178,
          "durationTicks": 24,
          "midi": 87,
          "name": "D#6",
          "ticks": 9120,
          "time": 17.37804125,
          "velocity": 0.4330708661417323
        },
        {
          "duration": 0.04573168750000178,
          "durationTicks": 24,
          "midi": 75,
          "name": "D#5",
          "ticks": 9216,
          "time": 17.560968,
          "velocity": 0.4330708661417323
        },
        {
          "duration": 0.04573168750000178,
          "durationTicks": 24,
          "midi": 60,
          "name": "C4",
          "ticks": 9216,
          "time": 17.560968,
          "velocity": 0.4330708661417323
        },
        {
          "duration": 0.04573168750000178,
          "durationTicks": 24,
          "midi": 61,
          "name": "C#4",
          "ticks": 9408,
          "time": 17.9268215,
          "velocity": 0.4330708661417323
        },
        {
          "duration": 0.04573168750000178,
          "durationTicks": 24,
          "midi": 87,
          "name": "D#6",
          "ticks": 9408,
          "time": 17.9268215,
          "velocity": 0.4330708661417323
        },
        {
          "duration": 0.04573168750000178,
          "durationTicks": 24,
          "midi": 87,
          "name": "D#6",
          "ticks": 9408,
          "time": 17.9268215,
          "velocity": 0.4330708661417323
        },
        {
          "duration": 0.04573168749999823,
          "durationTicks": 24,
          "midi": 86,
          "name": "D6",
          "ticks": 9432,
          "time": 17.9725531875,
          "velocity": 0.4330708661417323
        },
        {
          "duration": 0.04573168750000178,
          "durationTicks": 24,
          "midi": 60,
          "name": "C4",
          "ticks": 9456,
          "time": 18.018284875,
          "velocity": 0.4330708661417323
        },
        {
          "duration": 0.04573168750000178,
          "durationTicks": 24,
          "midi": 87,
          "name": "D#6",
          "ticks": 9456,
          "time": 18.018284875,
          "velocity": 0.4330708661417323
        },
        {
          "duration": 0.04573168750000178,
          "durationTicks": 24,
          "midi": 61,
          "name": "C#4",
          "ticks": 9504,
          "time": 18.10974825,
          "velocity": 0.4330708661417323
        },
        {
          "duration": 0.04573168750000178,
          "durationTicks": 24,
          "midi": 87,
          "name": "D#6",
          "ticks": 9504,
          "time": 18.10974825,
          "velocity": 0.4330708661417323
        },
        {
          "duration": 0.04573168750000178,
          "durationTicks": 24,
          "midi": 61,
          "name": "C#4",
          "ticks": 9600,
          "time": 18.292675,
          "velocity": 0.4330708661417323
        },
        {
          "duration": 0.04573168750000178,
          "durationTicks": 24,
          "midi": 87,
          "name": "D#6",
          "ticks": 9600,
          "time": 18.292675,
          "velocity": 0.4330708661417323
        },
        {
          "duration": 0.04573168750000178,
          "durationTicks": 24,
          "midi": 87,
          "name": "D#6",
          "ticks": 9600,
          "time": 18.292675,
          "velocity": 0.4330708661417323
        },
        {
          "duration": 0.04573168750000178,
          "durationTicks": 24,
          "midi": 86,
          "name": "D6",
          "ticks": 9648,
          "time": 18.384138375,
          "velocity": 0.4330708661417323
        },
        {
          "duration": 0.04573168750000178,
          "durationTicks": 24,
          "midi": 60,
          "name": "C4",
          "ticks": 9696,
          "time": 18.47560175,
          "velocity": 0.4330708661417323
        },
        {
          "duration": 0.04573168750000178,
          "durationTicks": 24,
          "midi": 87,
          "name": "D#6",
          "ticks": 9696,
          "time": 18.47560175,
          "velocity": 0.4330708661417323
        },
        {
          "duration": 0.04573168749999823,
          "durationTicks": 24,
          "midi": 60,
          "name": "C4",
          "ticks": 9720,
          "time": 18.5213334375,
          "velocity": 0.4330708661417323
        },
        {
          "duration": 0.04573168750000178,
          "durationTicks": 24,
          "midi": 60,
          "name": "C4",
          "ticks": 9744,
          "time": 18.567065125,
          "velocity": 0.4330708661417323
        },
        {
          "duration": 0.04573168750000178,
          "durationTicks": 24,
          "midi": 61,
          "name": "C#4",
          "ticks": 9792,
          "time": 18.6585285,
          "velocity": 0.4330708661417323
        },
        {
          "duration": 0.04573168750000178,
          "durationTicks": 24,
          "midi": 60,
          "name": "C4",
          "ticks": 9888,
          "time": 18.84145525,
          "velocity": 0.4330708661417323
        },
        {
          "duration": 0.04573168750000178,
          "durationTicks": 24,
          "midi": 87,
          "name": "D#6",
          "ticks": 9888,
          "time": 18.84145525,
          "velocity": 0.4330708661417323
        },
        {
          "duration": 0.04573168750000178,
          "durationTicks": 24,
          "midi": 87,
          "name": "D#6",
          "ticks": 9888,
          "time": 18.84145525,
          "velocity": 0.4330708661417323
        },
        {
          "duration": 0.04573168749999823,
          "durationTicks": 24,
          "midi": 60,
          "name": "C4",
          "ticks": 9912,
          "time": 18.8871869375,
          "velocity": 0.4330708661417323
        },
        {
          "duration": 0.04573168750000178,
          "durationTicks": 24,
          "midi": 60,
          "name": "C4",
          "ticks": 9936,
          "time": 18.932918625,
          "velocity": 0.4330708661417323
        },
        {
          "duration": 0.04573168750000178,
          "durationTicks": 24,
          "midi": 75,
          "name": "D#5",
          "ticks": 9984,
          "time": 19.024382,
          "velocity": 0.4330708661417323
        },
        {
          "duration": 0.04573168750000178,
          "durationTicks": 24,
          "midi": 60,
          "name": "C4",
          "ticks": 9984,
          "time": 19.024382,
          "velocity": 0.4330708661417323
        },
        {
          "duration": 0.04573168749999823,
          "durationTicks": 24,
          "midi": 61,
          "name": "C#4",
          "ticks": 10008,
          "time": 19.0701136875,
          "velocity": 0.4330708661417323
        },
        {
          "duration": 0.04573168750000178,
          "durationTicks": 24,
          "midi": 60,
          "name": "C4",
          "ticks": 10032,
          "time": 19.115845375,
          "velocity": 0.4330708661417323
        },
        {
          "duration": 0.04573168750000178,
          "durationTicks": 24,
          "midi": 60,
          "name": "C4",
          "ticks": 10080,
          "time": 19.20730875,
          "velocity": 0.4330708661417323
        },
        {
          "duration": 0.04573168750000178,
          "durationTicks": 24,
          "midi": 87,
          "name": "D#6",
          "ticks": 10080,
          "time": 19.20730875,
          "velocity": 0.4330708661417323
        },
        {
          "duration": 0.04573168750000178,
          "durationTicks": 24,
          "midi": 86,
          "name": "D6",
          "ticks": 10128,
          "time": 19.298772125,
          "velocity": 0.4330708661417323
        },
        {
          "duration": 0.04573168750000178,
          "durationTicks": 24,
          "midi": 61,
          "name": "C#4",
          "ticks": 10176,
          "time": 19.3902355,
          "velocity": 0.4330708661417323
        },
        {
          "duration": 0.04573168750000178,
          "durationTicks": 24,
          "midi": 87,
          "name": "D#6",
          "ticks": 10176,
          "time": 19.3902355,
          "velocity": 0.4330708661417323
        },
        {
          "duration": 0.04573168749999823,
          "durationTicks": 24,
          "midi": 86,
          "name": "D6",
          "ticks": 10200,
          "time": 19.4359671875,
          "velocity": 0.4330708661417323
        },
        {
          "duration": 0.04573168750000178,
          "durationTicks": 24,
          "midi": 60,
          "name": "C4",
          "ticks": 10224,
          "time": 19.481698875,
          "velocity": 0.4330708661417323
        },
        {
          "duration": 0.04573168750000178,
          "durationTicks": 24,
          "midi": 87,
          "name": "D#6",
          "ticks": 10224,
          "time": 19.481698875,
          "velocity": 0.4330708661417323
        },
        {
          "duration": 0.04573168749999823,
          "durationTicks": 24,
          "midi": 60,
          "name": "C4",
          "ticks": 10248,
          "time": 19.5274305625,
          "velocity": 0.4330708661417323
        },
        {
          "duration": 0.04573168750000178,
          "durationTicks": 24,
          "midi": 61,
          "name": "C#4",
          "ticks": 10272,
          "time": 19.57316225,
          "velocity": 0.4330708661417323
        },
        {
          "duration": 0.04573168750000178,
          "durationTicks": 24,
          "midi": 86,
          "name": "D6",
          "ticks": 10272,
          "time": 19.57316225,
          "velocity": 0.4330708661417323
        },
        {
          "duration": 0.04573168750000178,
          "durationTicks": 24,
          "midi": 87,
          "name": "D#6",
          "ticks": 10320,
          "time": 19.664625625,
          "velocity": 0.4330708661417323
        },
        {
          "duration": 0.04573168750000178,
          "durationTicks": 24,
          "midi": 61,
          "name": "C#4",
          "ticks": 10368,
          "time": 19.756089,
          "velocity": 0.4330708661417323
        },
        {
          "duration": 0.04573168750000178,
          "durationTicks": 24,
          "midi": 87,
          "name": "D#6",
          "ticks": 10368,
          "time": 19.756089,
          "velocity": 0.4330708661417323
        },
        {
          "duration": 0.04573168750000178,
          "durationTicks": 24,
          "midi": 87,
          "name": "D#6",
          "ticks": 10368,
          "time": 19.756089,
          "velocity": 0.4330708661417323
        },
        {
          "duration": 0.04573168750000178,
          "durationTicks": 24,
          "midi": 60,
          "name": "C4",
          "ticks": 10464,
          "time": 19.93901575,
          "velocity": 0.4330708661417323
        },
        {
          "duration": 0.04573168749999823,
          "durationTicks": 24,
          "midi": 60,
          "name": "C4",
          "ticks": 10488,
          "time": 19.9847474375,
          "velocity": 0.4330708661417323
        },
        {
          "duration": 0.04573168750000178,
          "durationTicks": 24,
          "midi": 60,
          "name": "C4",
          "ticks": 10512,
          "time": 20.030479125,
          "velocity": 0.4330708661417323
        },
        {
          "duration": 0.04573168750000178,
          "durationTicks": 24,
          "midi": 60,
          "name": "C4",
          "ticks": 10560,
          "time": 20.1219425,
          "velocity": 0.4330708661417323
        },
        {
          "duration": 0.04573168750000178,
          "durationTicks": 24,
          "midi": 61,
          "name": "C#4",
          "ticks": 10656,
          "time": 20.30486925,
          "velocity": 0.4330708661417323
        },
        {
          "duration": 0.04573168750000178,
          "durationTicks": 24,
          "midi": 87,
          "name": "D#6",
          "ticks": 10656,
          "time": 20.30486925,
          "velocity": 0.4330708661417323
        },
        {
          "duration": 0.04573168750000178,
          "durationTicks": 24,
          "midi": 87,
          "name": "D#6",
          "ticks": 10656,
          "time": 20.30486925,
          "velocity": 0.4330708661417323
        },
        {
          "duration": 0.04573168750000178,
          "durationTicks": 24,
          "midi": 75,
          "name": "D#5",
          "ticks": 10752,
          "time": 20.487796,
          "velocity": 0.4330708661417323
        },
        {
          "duration": 0.04573168750000178,
          "durationTicks": 24,
          "midi": 60,
          "name": "C4",
          "ticks": 10752,
          "time": 20.487796,
          "velocity": 0.4330708661417323
        },
        {
          "duration": 0.04573168749999823,
          "durationTicks": 24,
          "midi": 60,
          "name": "C4",
          "ticks": 10776,
          "time": 20.5335276875,
          "velocity": 0.4330708661417323
        },
        {
          "duration": 0.04573168750000178,
          "durationTicks": 24,
          "midi": 60,
          "name": "C4",
          "ticks": 10800,
          "time": 20.579259375,
          "velocity": 0.4330708661417323
        },
        {
          "duration": 0.04573168750000178,
          "durationTicks": 24,
          "midi": 60,
          "name": "C4",
          "ticks": 10848,
          "time": 20.67072275,
          "velocity": 0.4330708661417323
        },
        {
          "duration": 0.04573168750000178,
          "durationTicks": 24,
          "midi": 61,
          "name": "C#4",
          "ticks": 10944,
          "time": 20.8536495,
          "velocity": 0.4330708661417323
        },
        {
          "duration": 0.04573168750000178,
          "durationTicks": 24,
          "midi": 87,
          "name": "D#6",
          "ticks": 10944,
          "time": 20.8536495,
          "velocity": 0.4330708661417323
        },
        {
          "duration": 0.04573168750000178,
          "durationTicks": 24,
          "midi": 87,
          "name": "D#6",
          "ticks": 10944,
          "time": 20.8536495,
          "velocity": 0.4330708661417323
        },
        {
          "duration": 0.04573168749999823,
          "durationTicks": 24,
          "midi": 86,
          "name": "D6",
          "ticks": 10968,
          "time": 20.8993811875,
          "velocity": 0.4330708661417323
        },
        {
          "duration": 0.04573168750000178,
          "durationTicks": 24,
          "midi": 87,
          "name": "D#6",
          "ticks": 10992,
          "time": 20.945112875,
          "velocity": 0.4330708661417323
        },
        {
          "duration": 0.04573168750000178,
          "durationTicks": 24,
          "midi": 60,
          "name": "C4",
          "ticks": 11040,
          "time": 21.03657625,
          "velocity": 0.4330708661417323
        },
        {
          "duration": 0.04573168750000178,
          "durationTicks": 24,
          "midi": 87,
          "name": "D#6",
          "ticks": 11040,
          "time": 21.03657625,
          "velocity": 0.4330708661417323
        },
        {
          "duration": 0.04573168749999823,
          "durationTicks": 24,
          "midi": 60,
          "name": "C4",
          "ticks": 11064,
          "time": 21.0823079375,
          "velocity": 0.4330708661417323
        },
        {
          "duration": 0.04573168750000178,
          "durationTicks": 24,
          "midi": 60,
          "name": "C4",
          "ticks": 11088,
          "time": 21.128039625,
          "velocity": 0.4330708661417323
        },
        {
          "duration": 0.04573168750000178,
          "durationTicks": 24,
          "midi": 60,
          "name": "C4",
          "ticks": 11136,
          "time": 21.219503,
          "velocity": 0.4330708661417323
        },
        {
          "duration": 0.04573168750000178,
          "durationTicks": 24,
          "midi": 87,
          "name": "D#6",
          "ticks": 11136,
          "time": 21.219503,
          "velocity": 0.4330708661417323
        },
        {
          "duration": 0.04573168750000178,
          "durationTicks": 24,
          "midi": 87,
          "name": "D#6",
          "ticks": 11136,
          "time": 21.219503,
          "velocity": 0.4330708661417323
        },
        {
          "duration": 0.04573168750000178,
          "durationTicks": 24,
          "midi": 61,
          "name": "C#4",
          "ticks": 11184,
          "time": 21.310966375,
          "velocity": 0.4330708661417323
        },
        {
          "duration": 0.04573168750000178,
          "durationTicks": 24,
          "midi": 86,
          "name": "D6",
          "ticks": 11184,
          "time": 21.310966375,
          "velocity": 0.4330708661417323
        },
        {
          "duration": 0.04573168750000178,
          "durationTicks": 24,
          "midi": 60,
          "name": "C4",
          "ticks": 11232,
          "time": 21.40242975,
          "velocity": 0.4330708661417323
        },
        {
          "duration": 0.04573168750000178,
          "durationTicks": 24,
          "midi": 87,
          "name": "D#6",
          "ticks": 11232,
          "time": 21.40242975,
          "velocity": 0.4330708661417323
        },
        {
          "duration": 0.04573168749999823,
          "durationTicks": 24,
          "midi": 61,
          "name": "C#4",
          "ticks": 11256,
          "time": 21.4481614375,
          "velocity": 0.4330708661417323
        },
        {
          "duration": 0.04573168750000178,
          "durationTicks": 24,
          "midi": 60,
          "name": "C4",
          "ticks": 11280,
          "time": 21.493893125,
          "velocity": 0.4330708661417323
        },
        {
          "duration": 0.04573168750000178,
          "durationTicks": 24,
          "midi": 61,
          "name": "C#4",
          "ticks": 11328,
          "time": 21.5853565,
          "velocity": 0.4330708661417323
        },
        {
          "duration": 0.04573168750000178,
          "durationTicks": 24,
          "midi": 60,
          "name": "C4",
          "ticks": 11424,
          "time": 21.76828325,
          "velocity": 0.4330708661417323
        },
        {
          "duration": 0.04573168750000178,
          "durationTicks": 24,
          "midi": 87,
          "name": "D#6",
          "ticks": 11424,
          "time": 21.76828325,
          "velocity": 0.4330708661417323
        },
        {
          "duration": 0.04573168750000178,
          "durationTicks": 24,
          "midi": 87,
          "name": "D#6",
          "ticks": 11424,
          "time": 21.76828325,
          "velocity": 0.4330708661417323
        },
        {
          "duration": 0.04573168750000178,
          "durationTicks": 24,
          "midi": 60,
          "name": "C4",
          "ticks": 11472,
          "time": 21.859746625,
          "velocity": 0.4330708661417323
        },
        {
          "duration": 0.04573168750000178,
          "durationTicks": 24,
          "midi": 75,
          "name": "D#5",
          "ticks": 11520,
          "time": 21.95121,
          "velocity": 0.4330708661417323
        },
        {
          "duration": 0.04573168750000178,
          "durationTicks": 24,
          "midi": 61,
          "name": "C#4",
          "ticks": 11520,
          "time": 21.95121,
          "velocity": 0.4330708661417323
        },
        {
          "duration": 0.04573168750000178,
          "durationTicks": 24,
          "midi": 60,
          "name": "C4",
          "ticks": 11616,
          "time": 22.13413675,
          "velocity": 0.4330708661417323
        },
        {
          "duration": 0.04573168750000178,
          "durationTicks": 24,
          "midi": 87,
          "name": "D#6",
          "ticks": 11616,
          "time": 22.13413675,
          "velocity": 0.4330708661417323
        },
        {
          "duration": 0.04573168749999823,
          "durationTicks": 24,
          "midi": 61,
          "name": "C#4",
          "ticks": 11640,
          "time": 22.1798684375,
          "velocity": 0.4330708661417323
        },
        {
          "duration": 0.04573168750000178,
          "durationTicks": 24,
          "midi": 60,
          "name": "C4",
          "ticks": 11664,
          "time": 22.225600125,
          "velocity": 0.4330708661417323
        },
        {
          "duration": 0.04573168750000178,
          "durationTicks": 24,
          "midi": 86,
          "name": "D6",
          "ticks": 11664,
          "time": 22.225600125,
          "velocity": 0.4330708661417323
        },
        {
          "duration": 0.04573168750000178,
          "durationTicks": 24,
          "midi": 61,
          "name": "C#4",
          "ticks": 11712,
          "time": 22.3170635,
          "velocity": 0.4330708661417323
        },
        {
          "duration": 0.04573168750000178,
          "durationTicks": 24,
          "midi": 87,
          "name": "D#6",
          "ticks": 11712,
          "time": 22.3170635,
          "velocity": 0.4330708661417323
        },
        {
          "duration": 0.04573168749999823,
          "durationTicks": 24,
          "midi": 86,
          "name": "D6",
          "ticks": 11736,
          "time": 22.3627951875,
          "velocity": 0.4330708661417323
        },
        {
          "duration": 0.04573168750000178,
          "durationTicks": 24,
          "midi": 87,
          "name": "D#6",
          "ticks": 11760,
          "time": 22.408526875,
          "velocity": 0.4330708661417323
        },
        {
          "duration": 0.04573168750000178,
          "durationTicks": 24,
          "midi": 60,
          "name": "C4",
          "ticks": 11808,
          "time": 22.49999025,
          "velocity": 0.4330708661417323
        },
        {
          "duration": 0.04573168750000178,
          "durationTicks": 24,
          "midi": 86,
          "name": "D6",
          "ticks": 11808,
          "time": 22.49999025,
          "velocity": 0.4330708661417323
        },
        {
          "duration": 0.04573168750000178,
          "durationTicks": 24,
          "midi": 87,
          "name": "D#6",
          "ticks": 11856,
          "time": 22.591453625,
          "velocity": 0.4330708661417323
        },
        {
          "duration": 0.04573168750000178,
          "durationTicks": 24,
          "midi": 60,
          "name": "C4",
          "ticks": 11904,
          "time": 22.682917,
          "velocity": 0.4330708661417323
        },
        {
          "duration": 0.04573168750000178,
          "durationTicks": 24,
          "midi": 87,
          "name": "D#6",
          "ticks": 11904,
          "time": 22.682917,
          "velocity": 0.4330708661417323
        },
        {
          "duration": 0.04573168750000178,
          "durationTicks": 24,
          "midi": 87,
          "name": "D#6",
          "ticks": 11904,
          "time": 22.682917,
          "velocity": 0.4330708661417323
        },
        {
          "duration": 0.04573168750000178,
          "durationTicks": 24,
          "midi": 60,
          "name": "C4",
          "ticks": 12000,
          "time": 22.86584375,
          "velocity": 0.4330708661417323
        },
        {
          "duration": 0.04573168750000178,
          "durationTicks": 24,
          "midi": 61,
          "name": "C#4",
          "ticks": 12048,
          "time": 22.957307125,
          "velocity": 0.4330708661417323
        },
        {
          "duration": 0.04573168750000178,
          "durationTicks": 24,
          "midi": 60,
          "name": "C4",
          "ticks": 12096,
          "time": 23.0487705,
          "velocity": 0.4330708661417323
        },
        {
          "duration": 0.04573168750000178,
          "durationTicks": 24,
          "midi": 61,
          "name": "C#4",
          "ticks": 12192,
          "time": 23.23169725,
          "velocity": 0.4330708661417323
        },
        {
          "duration": 0.04573168750000178,
          "durationTicks": 24,
          "midi": 87,
          "name": "D#6",
          "ticks": 12192,
          "time": 23.23169725,
          "velocity": 0.4330708661417323
        },
        {
          "duration": 0.04573168750000178,
          "durationTicks": 24,
          "midi": 87,
          "name": "D#6",
          "ticks": 12192,
          "time": 23.23169725,
          "velocity": 0.4330708661417323
        },
        {
          "duration": 0.04573168749999823,
          "durationTicks": 24,
          "midi": 75,
          "name": "D#5",
          "ticks": 12288,
          "time": 23.414624,
          "velocity": 0.4330708661417323
        },
        {
          "duration": 0.04573168749999823,
          "durationTicks": 24,
          "midi": 60,
          "name": "C4",
          "ticks": 12288,
          "time": 23.414624,
          "velocity": 0.4330708661417323
        },
        {
          "duration": 0.04573168750000178,
          "durationTicks": 24,
          "midi": 61,
          "name": "C#4",
          "ticks": 12312,
          "time": 23.460355687499998,
          "velocity": 0.4330708661417323
        },
        {
          "duration": 0.04573168749999823,
          "durationTicks": 24,
          "midi": 60,
          "name": "C4",
          "ticks": 12336,
          "time": 23.506087375,
          "velocity": 0.4330708661417323
        },
        {
          "duration": 0.04573168749999823,
          "durationTicks": 24,
          "midi": 60,
          "name": "C4",
          "ticks": 12384,
          "time": 23.59755075,
          "velocity": 0.4330708661417323
        },
        {
          "duration": 0.04573168749999823,
          "durationTicks": 24,
          "midi": 61,
          "name": "C#4",
          "ticks": 12432,
          "time": 23.689014125,
          "velocity": 0.4330708661417323
        },
        {
          "duration": 0.04573168749999823,
          "durationTicks": 24,
          "midi": 60,
          "name": "C4",
          "ticks": 12480,
          "time": 23.7804775,
          "velocity": 0.4330708661417323
        },
        {
          "duration": 0.04573168749999823,
          "durationTicks": 24,
          "midi": 87,
          "name": "D#6",
          "ticks": 12480,
          "time": 23.7804775,
          "velocity": 0.4330708661417323
        },
        {
          "duration": 0.04573168749999823,
          "durationTicks": 24,
          "midi": 87,
          "name": "D#6",
          "ticks": 12480,
          "time": 23.7804775,
          "velocity": 0.4330708661417323
        },
        {
          "duration": 0.04573168750000178,
          "durationTicks": 24,
          "midi": 86,
          "name": "D6",
          "ticks": 12504,
          "time": 23.826209187499998,
          "velocity": 0.4330708661417323
        },
        {
          "duration": 0.04573168749999823,
          "durationTicks": 24,
          "midi": 87,
          "name": "D#6",
          "ticks": 12528,
          "time": 23.871940875,
          "velocity": 0.4330708661417323
        },
        {
          "duration": 0.04573168749999823,
          "durationTicks": 24,
          "midi": 61,
          "name": "C#4",
          "ticks": 12576,
          "time": 23.96340425,
          "velocity": 0.4330708661417323
        },
        {
          "duration": 0.04573168749999823,
          "durationTicks": 24,
          "midi": 87,
          "name": "D#6",
          "ticks": 12576,
          "time": 23.96340425,
          "velocity": 0.4330708661417323
        },
        {
          "duration": 0.04573168749999823,
          "durationTicks": 24,
          "midi": 61,
          "name": "C#4",
          "ticks": 12624,
          "time": 24.054867625,
          "velocity": 0.4330708661417323
        },
        {
          "duration": 0.04573168749999823,
          "durationTicks": 24,
          "midi": 61,
          "name": "C#4",
          "ticks": 12672,
          "time": 24.146331,
          "velocity": 0.4330708661417323
        },
        {
          "duration": 0.04573168749999823,
          "durationTicks": 24,
          "midi": 87,
          "name": "D#6",
          "ticks": 12672,
          "time": 24.146331,
          "velocity": 0.4330708661417323
        },
        {
          "duration": 0.04573168749999823,
          "durationTicks": 24,
          "midi": 87,
          "name": "D#6",
          "ticks": 12672,
          "time": 24.146331,
          "velocity": 0.4330708661417323
        },
        {
          "duration": 0.04573168749999823,
          "durationTicks": 24,
          "midi": 86,
          "name": "D6",
          "ticks": 12720,
          "time": 24.237794375,
          "velocity": 0.4330708661417323
        },
        {
          "duration": 0.04573168749999823,
          "durationTicks": 24,
          "midi": 60,
          "name": "C4",
          "ticks": 12768,
          "time": 24.32925775,
          "velocity": 0.4330708661417323
        },
        {
          "duration": 0.04573168749999823,
          "durationTicks": 24,
          "midi": 87,
          "name": "D#6",
          "ticks": 12768,
          "time": 24.32925775,
          "velocity": 0.4330708661417323
        },
        {
          "duration": 0.04573168750000178,
          "durationTicks": 24,
          "midi": 60,
          "name": "C4",
          "ticks": 12792,
          "time": 24.3749894375,
          "velocity": 0.4330708661417323
        },
        {
          "duration": 0.04573168749999823,
          "durationTicks": 24,
          "midi": 60,
          "name": "C4",
          "ticks": 12816,
          "time": 24.420721125,
          "velocity": 0.4330708661417323
        },
        {
          "duration": 0.04573168749999823,
          "durationTicks": 24,
          "midi": 61,
          "name": "C#4",
          "ticks": 12864,
          "time": 24.5121845,
          "velocity": 0.4330708661417323
        },
        {
          "duration": 0.04573168749999823,
          "durationTicks": 24,
          "midi": 60,
          "name": "C4",
          "ticks": 12960,
          "time": 24.69511125,
          "velocity": 0.4330708661417323
        },
        {
          "duration": 0.04573168749999823,
          "durationTicks": 24,
          "midi": 87,
          "name": "D#6",
          "ticks": 12960,
          "time": 24.69511125,
          "velocity": 0.4330708661417323
        },
        {
          "duration": 0.04573168749999823,
          "durationTicks": 24,
          "midi": 87,
          "name": "D#6",
          "ticks": 12960,
          "time": 24.69511125,
          "velocity": 0.4330708661417323
        },
        {
          "duration": 0.04573168749999823,
          "durationTicks": 24,
          "midi": 61,
          "name": "C#4",
          "ticks": 13008,
          "time": 24.786574625,
          "velocity": 0.4330708661417323
        },
        {
          "duration": 0.04573168749999823,
          "durationTicks": 24,
          "midi": 75,
          "name": "D#5",
          "ticks": 13056,
          "time": 24.878038,
          "velocity": 0.4330708661417323
        },
        {
          "duration": 0.04573168749999823,
          "durationTicks": 24,
          "midi": 60,
          "name": "C4",
          "ticks": 13056,
          "time": 24.878038,
          "velocity": 0.4330708661417323
        },
        {
          "duration": 0.04573168750000178,
          "durationTicks": 24,
          "midi": 61,
          "name": "C#4",
          "ticks": 13080,
          "time": 24.9237696875,
          "velocity": 0.4330708661417323
        },
        {
          "duration": 0.04573168749999823,
          "durationTicks": 24,
          "midi": 60,
          "name": "C4",
          "ticks": 13104,
          "time": 24.969501375,
          "velocity": 0.4330708661417323
        },
        {
          "duration": 0.04573168749999823,
          "durationTicks": 24,
          "midi": 61,
          "name": "C#4",
          "ticks": 13152,
          "time": 25.06096475,
          "velocity": 0.4330708661417323
        },
        {
          "duration": 0.04573168749999823,
          "durationTicks": 24,
          "midi": 87,
          "name": "D#6",
          "ticks": 13152,
          "time": 25.06096475,
          "velocity": 0.4330708661417323
        },
        {
          "duration": 0.04573168749999823,
          "durationTicks": 24,
          "midi": 86,
          "name": "D6",
          "ticks": 13200,
          "time": 25.152428125,
          "velocity": 0.4330708661417323
        },
        {
          "duration": 0.04573168749999823,
          "durationTicks": 24,
          "midi": 60,
          "name": "C4",
          "ticks": 13248,
          "time": 25.2438915,
          "velocity": 0.4330708661417323
        },
        {
          "duration": 0.04573168749999823,
          "durationTicks": 24,
          "midi": 87,
          "name": "D#6",
          "ticks": 13248,
          "time": 25.2438915,
          "velocity": 0.4330708661417323
        },
        {
          "duration": 0.04573168750000178,
          "durationTicks": 24,
          "midi": 86,
          "name": "D6",
          "ticks": 13272,
          "time": 25.2896231875,
          "velocity": 0.4330708661417323
        },
        {
          "duration": 0.04573168749999823,
          "durationTicks": 24,
          "midi": 87,
          "name": "D#6",
          "ticks": 13296,
          "time": 25.335354875,
          "velocity": 0.4330708661417323
        },
        {
          "duration": 0.04573168749999823,
          "durationTicks": 24,
          "midi": 61,
          "name": "C#4",
          "ticks": 13344,
          "time": 25.42681825,
          "velocity": 0.4330708661417323
        },
        {
          "duration": 0.04573168749999823,
          "durationTicks": 24,
          "midi": 86,
          "name": "D6",
          "ticks": 13344,
          "time": 25.42681825,
          "velocity": 0.4330708661417323
        },
        {
          "duration": 0.04573168749999823,
          "durationTicks": 24,
          "midi": 61,
          "name": "C#4",
          "ticks": 13392,
          "time": 25.518281625,
          "velocity": 0.4330708661417323
        },
        {
          "duration": 0.04573168749999823,
          "durationTicks": 24,
          "midi": 87,
          "name": "D#6",
          "ticks": 13392,
          "time": 25.518281625,
          "velocity": 0.4330708661417323
        },
        {
          "duration": 0.04573168749999823,
          "durationTicks": 24,
          "midi": 61,
          "name": "C#4",
          "ticks": 13440,
          "time": 25.609745,
          "velocity": 0.4330708661417323
        },
        {
          "duration": 0.04573168749999823,
          "durationTicks": 24,
          "midi": 87,
          "name": "D#6",
          "ticks": 13440,
          "time": 25.609745,
          "velocity": 0.4330708661417323
        },
        {
          "duration": 0.04573168749999823,
          "durationTicks": 24,
          "midi": 87,
          "name": "D#6",
          "ticks": 13440,
          "time": 25.609745,
          "velocity": 0.4330708661417323
        },
        {
          "duration": 0.04573168749999823,
          "durationTicks": 24,
          "midi": 60,
          "name": "C4",
          "ticks": 13536,
          "time": 25.79267175,
          "velocity": 0.4330708661417323
        },
        {
          "duration": 0.04573168750000178,
          "durationTicks": 24,
          "midi": 60,
          "name": "C4",
          "ticks": 13560,
          "time": 25.8384034375,
          "velocity": 0.4330708661417323
        },
        {
          "duration": 0.04573168749999823,
          "durationTicks": 24,
          "midi": 60,
          "name": "C4",
          "ticks": 13584,
          "time": 25.884135125,
          "velocity": 0.4330708661417323
        },
        {
          "duration": 0.04573168749999823,
          "durationTicks": 24,
          "midi": 60,
          "name": "C4",
          "ticks": 13632,
          "time": 25.9755985,
          "velocity": 0.4330708661417323
        },
        {
          "duration": 0.04573168749999823,
          "durationTicks": 24,
          "midi": 60,
          "name": "C4",
          "ticks": 13728,
          "time": 26.15852525,
          "velocity": 0.4330708661417323
        },
        {
          "duration": 0.04573168749999823,
          "durationTicks": 24,
          "midi": 87,
          "name": "D#6",
          "ticks": 13728,
          "time": 26.15852525,
          "velocity": 0.4330708661417323
        },
        {
          "duration": 0.04573168749999823,
          "durationTicks": 24,
          "midi": 87,
          "name": "D#6",
          "ticks": 13728,
          "time": 26.15852525,
          "velocity": 0.4330708661417323
        },
        {
          "duration": 0.04573168749999823,
          "durationTicks": 24,
          "midi": 75,
          "name": "D#5",
          "ticks": 13824,
          "time": 26.341452,
          "velocity": 0.4330708661417323
        },
        {
          "duration": 0.04573168749999823,
          "durationTicks": 24,
          "midi": 60,
          "name": "C4",
          "ticks": 13824,
          "time": 26.341452,
          "velocity": 0.4330708661417323
        },
        {
          "duration": 0.04573168750000178,
          "durationTicks": 24,
          "midi": 61,
          "name": "C#4",
          "ticks": 13848,
          "time": 26.3871836875,
          "velocity": 0.4330708661417323
        },
        {
          "duration": 0.04573168749999823,
          "durationTicks": 24,
          "midi": 60,
          "name": "C4",
          "ticks": 13872,
          "time": 26.432915375,
          "velocity": 0.4330708661417323
        },
        {
          "duration": 0.04573168749999823,
          "durationTicks": 24,
          "midi": 60,
          "name": "C4",
          "ticks": 13920,
          "time": 26.52437875,
          "velocity": 0.4330708661417323
        },
        {
          "duration": 0.04573168749999823,
          "durationTicks": 24,
          "midi": 61,
          "name": "C#4",
          "ticks": 14016,
          "time": 26.7073055,
          "velocity": 0.4330708661417323
        },
        {
          "duration": 0.04573168749999823,
          "durationTicks": 24,
          "midi": 87,
          "name": "D#6",
          "ticks": 14016,
          "time": 26.7073055,
          "velocity": 0.4330708661417323
        },
        {
          "duration": 0.04573168749999823,
          "durationTicks": 24,
          "midi": 87,
          "name": "D#6",
          "ticks": 14016,
          "time": 26.7073055,
          "velocity": 0.4330708661417323
        },
        {
          "duration": 0.04573168750000178,
          "durationTicks": 24,
          "midi": 86,
          "name": "D6",
          "ticks": 14040,
          "time": 26.7530371875,
          "velocity": 0.4330708661417323
        },
        {
          "duration": 0.04573168749999823,
          "durationTicks": 24,
          "midi": 87,
          "name": "D#6",
          "ticks": 14064,
          "time": 26.798768875,
          "velocity": 0.4330708661417323
        },
        {
          "duration": 0.04573168749999823,
          "durationTicks": 24,
          "midi": 60,
          "name": "C4",
          "ticks": 14112,
          "time": 26.89023225,
          "velocity": 0.4330708661417323
        },
        {
          "duration": 0.04573168749999823,
          "durationTicks": 24,
          "midi": 87,
          "name": "D#6",
          "ticks": 14112,
          "time": 26.89023225,
          "velocity": 0.4330708661417323
        },
        {
          "duration": 0.04573168750000178,
          "durationTicks": 24,
          "midi": 60,
          "name": "C4",
          "ticks": 14136,
          "time": 26.9359639375,
          "velocity": 0.4330708661417323
        },
        {
          "duration": 0.04573168749999823,
          "durationTicks": 24,
          "midi": 60,
          "name": "C4",
          "ticks": 14160,
          "time": 26.981695625,
          "velocity": 0.4330708661417323
        },
        {
          "duration": 0.04573168749999823,
          "durationTicks": 24,
          "midi": 60,
          "name": "C4",
          "ticks": 14208,
          "time": 27.073159,
          "velocity": 0.4330708661417323
        },
        {
          "duration": 0.04573168749999823,
          "durationTicks": 24,
          "midi": 87,
          "name": "D#6",
          "ticks": 14208,
          "time": 27.073159,
          "velocity": 0.4330708661417323
        },
        {
          "duration": 0.04573168749999823,
          "durationTicks": 24,
          "midi": 87,
          "name": "D#6",
          "ticks": 14208,
          "time": 27.073159,
          "velocity": 0.4330708661417323
        },
        {
          "duration": 0.04573168749999823,
          "durationTicks": 24,
          "midi": 86,
          "name": "D6",
          "ticks": 14256,
          "time": 27.164622375,
          "velocity": 0.4330708661417323
        },
        {
          "duration": 0.04573168749999823,
          "durationTicks": 24,
          "midi": 60,
          "name": "C4",
          "ticks": 14304,
          "time": 27.25608575,
          "velocity": 0.4330708661417323
        },
        {
          "duration": 0.04573168749999823,
          "durationTicks": 24,
          "midi": 87,
          "name": "D#6",
          "ticks": 14304,
          "time": 27.25608575,
          "velocity": 0.4330708661417323
        },
        {
          "duration": 0.04573168749999823,
          "durationTicks": 24,
          "midi": 60,
          "name": "C4",
          "ticks": 14400,
          "time": 27.4390125,
          "velocity": 0.4330708661417323
        },
        {
          "duration": 0.04573168750000178,
          "durationTicks": 24,
          "midi": 61,
          "name": "C#4",
          "ticks": 14424,
          "time": 27.4847441875,
          "velocity": 0.4330708661417323
        },
        {
          "duration": 0.04573168749999823,
          "durationTicks": 24,
          "midi": 60,
          "name": "C4",
          "ticks": 14448,
          "time": 27.530475875,
          "velocity": 0.4330708661417323
        },
        {
          "duration": 0.04573168749999823,
          "durationTicks": 24,
          "midi": 60,
          "name": "C4",
          "ticks": 14496,
          "time": 27.62193925,
          "velocity": 0.4330708661417323
        },
        {
          "duration": 0.04573168749999823,
          "durationTicks": 24,
          "midi": 87,
          "name": "D#6",
          "ticks": 14496,
          "time": 27.62193925,
          "velocity": 0.4330708661417323
        },
        {
          "duration": 0.04573168749999823,
          "durationTicks": 24,
          "midi": 87,
          "name": "D#6",
          "ticks": 14496,
          "time": 27.62193925,
          "velocity": 0.4330708661417323
        },
        {
          "duration": 0.04573168749999823,
          "durationTicks": 24,
          "midi": 75,
          "name": "D#5",
          "ticks": 14592,
          "time": 27.804866,
          "velocity": 0.4330708661417323
        },
        {
          "duration": 0.04573168749999823,
          "durationTicks": 24,
          "midi": 61,
          "name": "C#4",
          "ticks": 14592,
          "time": 27.804866,
          "velocity": 0.4330708661417323
        },
        {
          "duration": 0.04573168749999823,
          "durationTicks": 24,
          "midi": 60,
          "name": "C4",
          "ticks": 14688,
          "time": 27.98779275,
          "velocity": 0.4330708661417323
        },
        {
          "duration": 0.04573168749999823,
          "durationTicks": 24,
          "midi": 87,
          "name": "D#6",
          "ticks": 14688,
          "time": 27.98779275,
          "velocity": 0.4330708661417323
        },
        {
          "duration": 0.04573168750000178,
          "durationTicks": 24,
          "midi": 60,
          "name": "C4",
          "ticks": 14712,
          "time": 28.0335244375,
          "velocity": 0.4330708661417323
        },
        {
          "duration": 0.04573168749999823,
          "durationTicks": 24,
          "midi": 60,
          "name": "C4",
          "ticks": 14736,
          "time": 28.079256125,
          "velocity": 0.4330708661417323
        },
        {
          "duration": 0.04573168749999823,
          "durationTicks": 24,
          "midi": 86,
          "name": "D6",
          "ticks": 14736,
          "time": 28.079256125,
          "velocity": 0.4330708661417323
        },
        {
          "duration": 0.04573168749999823,
          "durationTicks": 24,
          "midi": 60,
          "name": "C4",
          "ticks": 14784,
          "time": 28.1707195,
          "velocity": 0.4330708661417323
        },
        {
          "duration": 0.04573168749999823,
          "durationTicks": 24,
          "midi": 87,
          "name": "D#6",
          "ticks": 14784,
          "time": 28.1707195,
          "velocity": 0.4330708661417323
        },
        {
          "duration": 0.04573168750000178,
          "durationTicks": 24,
          "midi": 86,
          "name": "D6",
          "ticks": 14808,
          "time": 28.2164511875,
          "velocity": 0.4330708661417323
        },
        {
          "duration": 0.04573168749999823,
          "durationTicks": 24,
          "midi": 87,
          "name": "D#6",
          "ticks": 14832,
          "time": 28.262182875,
          "velocity": 0.4330708661417323
        },
        {
          "duration": 0.04573168749999823,
          "durationTicks": 24,
          "midi": 60,
          "name": "C4",
          "ticks": 14880,
          "time": 28.35364625,
          "velocity": 0.4330708661417323
        },
        {
          "duration": 0.04573168749999823,
          "durationTicks": 24,
          "midi": 86,
          "name": "D6",
          "ticks": 14880,
          "time": 28.35364625,
          "velocity": 0.4330708661417323
        },
        {
          "duration": 0.04573168750000178,
          "durationTicks": 24,
          "midi": 61,
          "name": "C#4",
          "ticks": 14904,
          "time": 28.3993779375,
          "velocity": 0.4330708661417323
        },
        {
          "duration": 0.04573168749999823,
          "durationTicks": 24,
          "midi": 60,
          "name": "C4",
          "ticks": 14928,
          "time": 28.445109625,
          "velocity": 0.4330708661417323
        },
        {
          "duration": 0.04573168749999823,
          "durationTicks": 24,
          "midi": 87,
          "name": "D#6",
          "ticks": 14928,
          "time": 28.445109625,
          "velocity": 0.4330708661417323
        },
        {
          "duration": 0.04573168750000178,
          "durationTicks": 24,
          "midi": 87,
          "name": "D#6",
          "ticks": 14952,
          "time": 28.4908413125,
          "velocity": 0.4330708661417323
        },
        {
          "duration": 0.04573168750000178,
          "durationTicks": 24,
          "midi": 87,
          "name": "D#6",
          "ticks": 14952,
          "time": 28.4908413125,
          "velocity": 0.4330708661417323
        },
        {
          "duration": 0.04573168749999823,
          "durationTicks": 24,
          "midi": 87,
          "name": "D#6",
          "ticks": 14976,
          "time": 28.536573,
          "velocity": 0.4330708661417323
        },
        {
          "duration": 0.04573168749999823,
          "durationTicks": 24,
          "midi": 87,
          "name": "D#6",
          "ticks": 14976,
          "time": 28.536573,
          "velocity": 0.4330708661417323
        },
        {
          "duration": 0.04573168749999823,
          "durationTicks": 24,
          "midi": 61,
          "name": "C#4",
          "ticks": 14976,
          "time": 28.536573,
          "velocity": 0.4330708661417323
        }
      ],
      "endOfTrackTicks": 15000
    },
    {
      "channel": 3,
      "controlChanges": {},
      "pitchBends": [],
      "instrument": {
        "family": "strings",
        "number": 40,
        "name": "violin"
      },
      "name": "Violin",
      "notes": [
        {
          "duration": 0.09146337500000001,
          "durationTicks": 48,
          "midi": 72,
          "name": "C5",
          "ticks": 2688,
          "time": 5.121949,
          "velocity": 0.4015748031496063
        },
        {
          "duration": 0.04573168750000001,
          "durationTicks": 24,
          "midi": 72,
          "name": "C5",
          "ticks": 2880,
          "time": 5.4878025,
          "velocity": 0.4015748031496063
        },
        {
          "duration": 0.04573168750000001,
          "durationTicks": 24,
          "midi": 72,
          "name": "C5",
          "ticks": 2904,
          "time": 5.5335341875,
          "velocity": 0.4015748031496063
        },
        {
          "duration": 0.04573168750000001,
          "durationTicks": 24,
          "midi": 72,
          "name": "C5",
          "ticks": 2928,
          "time": 5.579265875,
          "velocity": 0.4015748031496063
        },
        {
          "duration": 0.09146337500000001,
          "durationTicks": 48,
          "midi": 79,
          "name": "G5",
          "ticks": 2976,
          "time": 5.67072925,
          "velocity": 0.4015748031496063
        },
        {
          "duration": 0.09146337500000001,
          "durationTicks": 48,
          "midi": 76,
          "name": "E5",
          "ticks": 3072,
          "time": 5.853656,
          "velocity": 0.4015748031496063
        },
        {
          "duration": 0.09146337500000001,
          "durationTicks": 48,
          "midi": 73,
          "name": "C#5",
          "ticks": 3264,
          "time": 6.2195095,
          "velocity": 0.4015748031496063
        },
        {
          "duration": 0.04573168750000001,
          "durationTicks": 24,
          "midi": 77,
          "name": "F5",
          "ticks": 3456,
          "time": 6.585363,
          "velocity": 0.4015748031496063
        },
        {
          "duration": 0.04573168750000001,
          "durationTicks": 24,
          "midi": 76,
          "name": "E5",
          "ticks": 3480,
          "time": 6.6310946875,
          "velocity": 0.4015748031496063
        },
        {
          "duration": 0.04573168750000001,
          "durationTicks": 24,
          "midi": 73,
          "name": "C#5",
          "ticks": 3504,
          "time": 6.676826375,
          "velocity": 0.4015748031496063
        },
        {
          "duration": 0.04573168750000001,
          "durationTicks": 24,
          "midi": 75,
          "name": "D#5",
          "ticks": 3552,
          "time": 6.76828975,
          "velocity": 0.4015748031496063
        },
        {
          "duration": 0.09146337500000001,
          "durationTicks": 48,
          "midi": 73,
          "name": "C#5",
          "ticks": 3648,
          "time": 6.9512165,
          "velocity": 0.4015748031496063
        },
        {
          "duration": 0.09146337500000001,
          "durationTicks": 48,
          "midi": 72,
          "name": "C5",
          "ticks": 3840,
          "time": 7.31707,
          "velocity": 0.4015748031496063
        },
        {
          "duration": 0.09146337500000001,
          "durationTicks": 48,
          "midi": 70,
          "name": "A#4",
          "ticks": 4032,
          "time": 7.6829235,
          "velocity": 0.4015748031496063
        },
        {
          "duration": 0.09146337500000001,
          "durationTicks": 48,
          "midi": 72,
          "name": "C5",
          "ticks": 4224,
          "time": 8.048777,
          "velocity": 0.4015748031496063
        },
        {
          "duration": 0.09146337500000001,
          "durationTicks": 48,
          "midi": 70,
          "name": "A#4",
          "ticks": 4272,
          "time": 8.140240375,
          "velocity": 0.4015748031496063
        },
        {
          "duration": 0.09146337500000001,
          "durationTicks": 48,
          "midi": 76,
          "name": "E5",
          "ticks": 4320,
          "time": 8.23170375,
          "velocity": 0.4015748031496063
        },
        {
          "duration": 0.09146337500000001,
          "durationTicks": 48,
          "midi": 77,
          "name": "F5",
          "ticks": 4368,
          "time": 8.323167125,
          "velocity": 0.4015748031496063
        },
        {
          "duration": 0.09146337500000001,
          "durationTicks": 48,
          "midi": 79,
          "name": "G5",
          "ticks": 4416,
          "time": 8.4146305,
          "velocity": 0.4015748031496063
        },
        {
          "duration": 0.09146337500000001,
          "durationTicks": 48,
          "midi": 76,
          "name": "E5",
          "ticks": 4512,
          "time": 8.59755725,
          "velocity": 0.4015748031496063
        },
        {
          "duration": 0.04573168750000001,
          "durationTicks": 24,
          "midi": 77,
          "name": "F5",
          "ticks": 4608,
          "time": 8.780484,
          "velocity": 0.4015748031496063
        },
        {
          "duration": 0.04573168750000001,
          "durationTicks": 24,
          "midi": 79,
          "name": "G5",
          "ticks": 4632,
          "time": 8.8262156875,
          "velocity": 0.4015748031496063
        },
        {
          "duration": 0.04573168750000001,
          "durationTicks": 24,
          "midi": 77,
          "name": "F5",
          "ticks": 4656,
          "time": 8.871947375,
          "velocity": 0.4015748031496063
        },
        {
          "duration": 0.04573168750000001,
          "durationTicks": 24,
          "midi": 77,
          "name": "F5",
          "ticks": 4704,
          "time": 8.96341075,
          "velocity": 0.4015748031496063
        },
        {
          "duration": 0.04573168750000001,
          "durationTicks": 24,
          "midi": 76,
          "name": "E5",
          "ticks": 4800,
          "time": 9.1463375,
          "velocity": 0.4015748031496063
        },
        {
          "duration": 0.04573168750000001,
          "durationTicks": 24,
          "midi": 77,
          "name": "F5",
          "ticks": 4824,
          "time": 9.1920691875,
          "velocity": 0.4015748031496063
        },
        {
          "duration": 0.04573168750000001,
          "durationTicks": 24,
          "midi": 76,
          "name": "E5",
          "ticks": 4848,
          "time": 9.237800875,
          "velocity": 0.4015748031496063
        },
        {
          "duration": 0.04573168750000001,
          "durationTicks": 24,
          "midi": 76,
          "name": "E5",
          "ticks": 4896,
          "time": 9.32926425,
          "velocity": 0.4015748031496063
        },
        {
          "duration": 0.04573168750000001,
          "durationTicks": 24,
          "midi": 72,
          "name": "C5",
          "ticks": 4992,
          "time": 9.512191,
          "velocity": 0.4015748031496063
        },
        {
          "duration": 0.04573168750000001,
          "durationTicks": 24,
          "midi": 73,
          "name": "C#5",
          "ticks": 5088,
          "time": 9.69511775,
          "velocity": 0.4015748031496063
        },
        {
          "duration": 0.09146337500000001,
          "durationTicks": 48,
          "midi": 79,
          "name": "G5",
          "ticks": 5184,
          "time": 9.8780445,
          "velocity": 0.4015748031496063
        },
        {
          "duration": 0.04573168750000001,
          "durationTicks": 24,
          "midi": 76,
          "name": "E5",
          "ticks": 5184,
          "time": 9.8780445,
          "velocity": 0.4015748031496063
        },
        {
          "duration": 0.04573168750000001,
          "durationTicks": 24,
          "midi": 73,
          "name": "C#5",
          "ticks": 5280,
          "time": 10.06097125,
          "velocity": 0.4015748031496063
        },
        {
          "duration": 0.09146337500000001,
          "durationTicks": 48,
          "midi": 80,
          "name": "G#5",
          "ticks": 5328,
          "time": 10.152434625,
          "velocity": 0.4015748031496063
        },
        {
          "duration": 0.04573168750000001,
          "durationTicks": 24,
          "midi": 73,
          "name": "C#5",
          "ticks": 5376,
          "time": 10.243898,
          "velocity": 0.4015748031496063
        },
        {
          "duration": 0.04573168750000001,
          "durationTicks": 24,
          "midi": 77,
          "name": "F5",
          "ticks": 5472,
          "time": 10.42682475,
          "velocity": 0.4015748031496063
        },
        {
          "duration": 0.04573168750000001,
          "durationTicks": 24,
          "midi": 76,
          "name": "E5",
          "ticks": 5496,
          "time": 10.4725564375,
          "velocity": 0.4015748031496063
        },
        {
          "duration": 0.04573168750000001,
          "durationTicks": 24,
          "midi": 77,
          "name": "F5",
          "ticks": 5520,
          "time": 10.518288125,
          "velocity": 0.4015748031496063
        },
        {
          "duration": 0.04573168750000001,
          "durationTicks": 24,
          "midi": 79,
          "name": "G5",
          "ticks": 5568,
          "time": 10.6097515,
          "velocity": 0.4015748031496063
        },
        {
          "duration": 0.04573168750000001,
          "durationTicks": 24,
          "midi": 80,
          "name": "G#5",
          "ticks": 5592,
          "time": 10.6554831875,
          "velocity": 0.4015748031496063
        },
        {
          "duration": 0.04573168750000001,
          "durationTicks": 24,
          "midi": 79,
          "name": "G5",
          "ticks": 5616,
          "time": 10.701214875,
          "velocity": 0.4015748031496063
        },
        {
          "duration": 0.04573168750000001,
          "durationTicks": 24,
          "midi": 79,
          "name": "G5",
          "ticks": 5664,
          "time": 10.79267825,
          "velocity": 0.4015748031496063
        },
        {
          "duration": 0.04573168750000001,
          "durationTicks": 24,
          "midi": 76,
          "name": "E5",
          "ticks": 5664,
          "time": 10.79267825,
          "velocity": 0.4015748031496063
        },
        {
          "duration": 0.04573168750000001,
          "durationTicks": 24,
          "midi": 79,
          "name": "G5",
          "ticks": 5760,
          "time": 10.975605,
          "velocity": 0.4015748031496063
        },
        {
          "duration": 0.04573168750000001,
          "durationTicks": 24,
          "midi": 80,
          "name": "G#5",
          "ticks": 5784,
          "time": 11.0213366875,
          "velocity": 0.4015748031496063
        },
        {
          "duration": 0.04573168750000001,
          "durationTicks": 24,
          "midi": 79,
          "name": "G5",
          "ticks": 5808,
          "time": 11.067068375,
          "velocity": 0.4015748031496063
        },
        {
          "duration": 0.04573168750000001,
          "durationTicks": 24,
          "midi": 80,
          "name": "G#5",
          "ticks": 5856,
          "time": 11.15853175,
          "velocity": 0.4015748031496063
        },
        {
          "duration": 0.04573168750000001,
          "durationTicks": 24,
          "midi": 77,
          "name": "F5",
          "ticks": 5952,
          "time": 11.3414585,
          "velocity": 0.4015748031496063
        },
        {
          "duration": 0.04573168750000001,
          "durationTicks": 24,
          "midi": 79,
          "name": "G5",
          "ticks": 5976,
          "time": 11.3871901875,
          "velocity": 0.4015748031496063
        },
        {
          "duration": 0.04573168750000001,
          "durationTicks": 24,
          "midi": 77,
          "name": "F5",
          "ticks": 6000,
          "time": 11.432921875,
          "velocity": 0.4015748031496063
        },
        {
          "duration": 0.04573168750000001,
          "durationTicks": 24,
          "midi": 79,
          "name": "G5",
          "ticks": 6048,
          "time": 11.52438525,
          "velocity": 0.4015748031496063
        },
        {
          "duration": 0.04573168750000001,
          "durationTicks": 24,
          "midi": 76,
          "name": "E5",
          "ticks": 6144,
          "time": 11.707312,
          "velocity": 0.4015748031496063
        },
        {
          "duration": 0.04573168750000001,
          "durationTicks": 24,
          "midi": 77,
          "name": "F5",
          "ticks": 6168,
          "time": 11.7530436875,
          "velocity": 0.4015748031496063
        },
        {
          "duration": 0.04573168750000001,
          "durationTicks": 24,
          "midi": 76,
          "name": "E5",
          "ticks": 6192,
          "time": 11.798775375,
          "velocity": 0.4015748031496063
        },
        {
          "duration": 0.04573168750000001,
          "durationTicks": 24,
          "midi": 77,
          "name": "F5",
          "ticks": 6240,
          "time": 11.89023875,
          "velocity": 0.4015748031496063
        },
        {
          "duration": 0.04573168750000001,
          "durationTicks": 24,
          "midi": 73,
          "name": "C#5",
          "ticks": 6336,
          "time": 12.0731655,
          "velocity": 0.4015748031496063
        },
        {
          "duration": 0.04573168750000001,
          "durationTicks": 24,
          "midi": 76,
          "name": "E5",
          "ticks": 6360,
          "time": 12.1188971875,
          "velocity": 0.4015748031496063
        },
        {
          "duration": 0.04573168750000001,
          "durationTicks": 24,
          "midi": 73,
          "name": "C#5",
          "ticks": 6384,
          "time": 12.164628875,
          "velocity": 0.4015748031496063
        },
        {
          "duration": 0.04573168750000001,
          "durationTicks": 24,
          "midi": 75,
          "name": "D#5",
          "ticks": 6432,
          "time": 12.25609225,
          "velocity": 0.4015748031496063
        },
        {
          "duration": 0.04573168750000001,
          "durationTicks": 24,
          "midi": 73,
          "name": "C#5",
          "ticks": 6528,
          "time": 12.439019,
          "velocity": 0.4015748031496063
        },
        {
          "duration": 0.04573168750000001,
          "durationTicks": 24,
          "midi": 77,
          "name": "F5",
          "ticks": 6576,
          "time": 12.530482375,
          "velocity": 0.4015748031496063
        },
        {
          "duration": 0.04573168750000001,
          "durationTicks": 24,
          "midi": 73,
          "name": "C#5",
          "ticks": 6624,
          "time": 12.62194575,
          "velocity": 0.4015748031496063
        },
        {
          "duration": 0.04573168750000001,
          "durationTicks": 24,
          "midi": 73,
          "name": "C#5",
          "ticks": 6648,
          "time": 12.6676774375,
          "velocity": 0.4015748031496063
        },
        {
          "duration": 0.04573168750000001,
          "durationTicks": 24,
          "midi": 73,
          "name": "C#5",
          "ticks": 6672,
          "time": 12.713409125,
          "velocity": 0.4015748031496063
        },
        {
          "duration": 0.04573168750000001,
          "durationTicks": 24,
          "midi": 73,
          "name": "C#5",
          "ticks": 6720,
          "time": 12.8048725,
          "velocity": 0.4015748031496063
        },
        {
          "duration": 0.04573168750000001,
          "durationTicks": 24,
          "midi": 75,
          "name": "D#5",
          "ticks": 6816,
          "time": 12.98779925,
          "velocity": 0.4015748031496063
        },
        {
          "duration": 0.04573168750000001,
          "durationTicks": 24,
          "midi": 72,
          "name": "C5",
          "ticks": 6912,
          "time": 13.170726,
          "velocity": 0.4015748031496063
        },
        {
          "duration": 0.04573168750000001,
          "durationTicks": 24,
          "midi": 72,
          "name": "C5",
          "ticks": 6936,
          "time": 13.2164576875,
          "velocity": 0.4015748031496063
        },
        {
          "duration": 0.04573168750000001,
          "durationTicks": 24,
          "midi": 72,
          "name": "C5",
          "ticks": 6960,
          "time": 13.262189375,
          "velocity": 0.4015748031496063
        },
        {
          "duration": 0.04573168750000001,
          "durationTicks": 24,
          "midi": 72,
          "name": "C5",
          "ticks": 7008,
          "time": 13.35365275,
          "velocity": 0.4015748031496063
        },
        {
          "duration": 0.04573168750000001,
          "durationTicks": 24,
          "midi": 72,
          "name": "C5",
          "ticks": 7056,
          "time": 13.445116125,
          "velocity": 0.4015748031496063
        },
        {
          "duration": 0.04573168750000001,
          "durationTicks": 24,
          "midi": 70,
          "name": "A#4",
          "ticks": 7104,
          "time": 13.5365795,
          "velocity": 0.4015748031496063
        },
        {
          "duration": 0.04573168750000001,
          "durationTicks": 24,
          "midi": 70,
          "name": "A#4",
          "ticks": 7152,
          "time": 13.628042875,
          "velocity": 0.4015748031496063
        },
        {
          "duration": 0.04573168750000001,
          "durationTicks": 24,
          "midi": 70,
          "name": "A#4",
          "ticks": 7200,
          "time": 13.71950625,
          "velocity": 0.4015748031496063
        },
        {
          "duration": 0.04573168750000001,
          "durationTicks": 24,
          "midi": 70,
          "name": "A#4",
          "ticks": 7248,
          "time": 13.810969625,
          "velocity": 0.4015748031496063
        },
        {
          "duration": 0.04573168750000001,
          "durationTicks": 24,
          "midi": 72,
          "name": "C5",
          "ticks": 7296,
          "time": 13.902433,
          "velocity": 0.4015748031496063
        },
        {
          "duration": 0.04573168750000001,
          "durationTicks": 24,
          "midi": 70,
          "name": "A#4",
          "ticks": 7320,
          "time": 13.9481646875,
          "velocity": 0.4015748031496063
        },
        {
          "duration": 0.04573168750000001,
          "durationTicks": 24,
          "midi": 72,
          "name": "C5",
          "ticks": 7344,
          "time": 13.993896375,
          "velocity": 0.4015748031496063
        },
        {
          "duration": 0.04573168750000001,
          "durationTicks": 24,
          "midi": 72,
          "name": "C5",
          "ticks": 7392,
          "time": 14.08535975,
          "velocity": 0.4015748031496063
        },
        {
          "duration": 0.04573168750000001,
          "durationTicks": 24,
          "midi": 70,
          "name": "A#4",
          "ticks": 7488,
          "time": 14.2682865,
          "velocity": 0.4015748031496063
        },
        {
          "duration": 0.04573168750000001,
          "durationTicks": 24,
          "midi": 72,
          "name": "C5",
          "ticks": 7536,
          "time": 14.359749875,
          "velocity": 0.4015748031496063
        },
        {
          "duration": 0.04573168750000001,
          "durationTicks": 24,
          "midi": 70,
          "name": "A#4",
          "ticks": 7584,
          "time": 14.45121325,
          "velocity": 0.4015748031496063
        },
        {
          "duration": 0.04573168750000001,
          "durationTicks": 24,
          "midi": 72,
          "name": "C5",
          "ticks": 7632,
          "time": 14.542676625,
          "velocity": 0.4015748031496063
        },
        {
          "duration": 0.04573168750000001,
          "durationTicks": 24,
          "midi": 73,
          "name": "C#5",
          "ticks": 7680,
          "time": 14.63414,
          "velocity": 0.4015748031496063
        },
        {
          "duration": 0.04573168750000001,
          "durationTicks": 24,
          "midi": 72,
          "name": "C5",
          "ticks": 7704,
          "time": 14.6798716875,
          "velocity": 0.4015748031496063
        },
        {
          "duration": 0.04573168750000001,
          "durationTicks": 24,
          "midi": 73,
          "name": "C#5",
          "ticks": 7728,
          "time": 14.725603375,
          "velocity": 0.4015748031496063
        },
        {
          "duration": 0.04573168750000001,
          "durationTicks": 24,
          "midi": 73,
          "name": "C#5",
          "ticks": 7776,
          "time": 14.81706675,
          "velocity": 0.4015748031496063
        },
        {
          "duration": 0.04573168750000001,
          "durationTicks": 24,
          "midi": 75,
          "name": "D#5",
          "ticks": 7872,
          "time": 14.9999935,
          "velocity": 0.4015748031496063
        },
        {
          "duration": 0.04573168750000001,
          "durationTicks": 24,
          "midi": 77,
          "name": "F5",
          "ticks": 7968,
          "time": 15.18292025,
          "velocity": 0.4015748031496063
        },
        {
          "duration": 0.04573168750000001,
          "durationTicks": 24,
          "midi": 73,
          "name": "C#5",
          "ticks": 8064,
          "time": 15.365847,
          "velocity": 0.4015748031496063
        },
        {
          "duration": 0.04573168750000001,
          "durationTicks": 24,
          "midi": 73,
          "name": "C#5",
          "ticks": 8160,
          "time": 15.54877375,
          "velocity": 0.4015748031496063
        },
        {
          "duration": 0.04573168750000001,
          "durationTicks": 24,
          "midi": 73,
          "name": "C#5",
          "ticks": 8184,
          "time": 15.5945054375,
          "velocity": 0.4015748031496063
        },
        {
          "duration": 0.04573168750000001,
          "durationTicks": 24,
          "midi": 73,
          "name": "C#5",
          "ticks": 8208,
          "time": 15.640237125,
          "velocity": 0.4015748031496063
        },
        {
          "duration": 0.04573168750000001,
          "durationTicks": 24,
          "midi": 76,
          "name": "E5",
          "ticks": 8256,
          "time": 15.7317005,
          "velocity": 0.4015748031496063
        },
        {
          "duration": 0.04573168750000001,
          "durationTicks": 24,
          "midi": 77,
          "name": "F5",
          "ticks": 8280,
          "time": 15.7774321875,
          "velocity": 0.4015748031496063
        },
        {
          "duration": 0.04573168750000001,
          "durationTicks": 24,
          "midi": 76,
          "name": "E5",
          "ticks": 8304,
          "time": 15.823163875,
          "velocity": 0.4015748031496063
        },
        {
          "duration": 0.04573168750000001,
          "durationTicks": 24,
          "midi": 76,
          "name": "E5",
          "ticks": 8352,
          "time": 15.91462725,
          "velocity": 0.4015748031496063
        },
        {
          "duration": 0.04573168750000178,
          "durationTicks": 24,
          "midi": 73,
          "name": "C#5",
          "ticks": 8448,
          "time": 16.097554,
          "velocity": 0.4015748031496063
        },
        {
          "duration": 0.04573168749999823,
          "durationTicks": 24,
          "midi": 76,
          "name": "E5",
          "ticks": 8472,
          "time": 16.1432856875,
          "velocity": 0.4015748031496063
        },
        {
          "duration": 0.04573168750000178,
          "durationTicks": 24,
          "midi": 73,
          "name": "C#5",
          "ticks": 8496,
          "time": 16.189017375,
          "velocity": 0.4015748031496063
        },
        {
          "duration": 0.04573168750000178,
          "durationTicks": 24,
          "midi": 76,
          "name": "E5",
          "ticks": 8544,
          "time": 16.28048075,
          "velocity": 0.4015748031496063
        },
        {
          "duration": 0.04573168750000178,
          "durationTicks": 24,
          "midi": 73,
          "name": "C#5",
          "ticks": 8592,
          "time": 16.371944125,
          "velocity": 0.4015748031496063
        },
        {
          "duration": 0.04573168750000178,
          "durationTicks": 24,
          "midi": 72,
          "name": "C5",
          "ticks": 8640,
          "time": 16.4634075,
          "velocity": 0.4015748031496063
        },
        {
          "duration": 0.04573168749999823,
          "durationTicks": 24,
          "midi": 70,
          "name": "A#4",
          "ticks": 8664,
          "time": 16.5091391875,
          "velocity": 0.4015748031496063
        },
        {
          "duration": 0.04573168750000178,
          "durationTicks": 24,
          "midi": 72,
          "name": "C5",
          "ticks": 8688,
          "time": 16.554870875,
          "velocity": 0.4015748031496063
        },
        {
          "duration": 0.04573168750000178,
          "durationTicks": 24,
          "midi": 72,
          "name": "C5",
          "ticks": 8736,
          "time": 16.64633425,
          "velocity": 0.4015748031496063
        }
      ],
      "endOfTrackTicks": 8760
    },
    {
      "channel": 4,
      "controlChanges": {},
      "pitchBends": [],
      "instrument": {
        "family": "chromatic percussion",
        "number": 11,
        "name": "vibraphone"
      },
      "name": "Vibraphone",
      "notes": [
        {
          "duration": 0.18292675000000003,
          "durationTicks": 96,
          "midi": 60,
          "name": "C4",
          "ticks": 768,
          "time": 1.463414,
          "velocity": 0.1968503937007874
        },
        {
          "duration": 0.18292675000000003,
          "durationTicks": 96,
          "midi": 48,
          "name": "C3",
          "ticks": 768,
          "time": 1.463414,
          "velocity": 0.1968503937007874
        },
        {
          "duration": 0.1829267499999998,
          "durationTicks": 96,
          "midi": 58,
          "name": "A#3",
          "ticks": 960,
          "time": 1.8292675,
          "velocity": 0.1968503937007874
        },
        {
          "duration": 0.1829267499999998,
          "durationTicks": 96,
          "midi": 46,
          "name": "A#2",
          "ticks": 960,
          "time": 1.8292675,
          "velocity": 0.1968503937007874
        },
        {
          "duration": 0.18292675000000003,
          "durationTicks": 96,
          "midi": 60,
          "name": "C4",
          "ticks": 1152,
          "time": 2.195121,
          "velocity": 0.1968503937007874
        },
        {
          "duration": 0.18292675000000003,
          "durationTicks": 96,
          "midi": 48,
          "name": "C3",
          "ticks": 1152,
          "time": 2.195121,
          "velocity": 0.1968503937007874
        },
        {
          "duration": 0.18292675000000003,
          "durationTicks": 96,
          "midi": 48,
          "name": "C3",
          "ticks": 1152,
          "time": 2.195121,
          "velocity": 0.1968503937007874
        },
        {
          "duration": 0.18292675000000003,
          "durationTicks": 96,
          "midi": 36,
          "name": "C2",
          "ticks": 1152,
          "time": 2.195121,
          "velocity": 0.1968503937007874
        },
        {
          "duration": 0.18292675000000003,
          "durationTicks": 96,
          "midi": 60,
          "name": "C4",
          "ticks": 1440,
          "time": 2.74390125,
          "velocity": 0.1968503937007874
        },
        {
          "duration": 0.18292675000000003,
          "durationTicks": 96,
          "midi": 48,
          "name": "C3",
          "ticks": 1440,
          "time": 2.74390125,
          "velocity": 0.1968503937007874
        },
        {
          "duration": 0.18292675000000003,
          "durationTicks": 96,
          "midi": 61,
          "name": "C#4",
          "ticks": 1536,
          "time": 2.926828,
          "velocity": 0.1968503937007874
        },
        {
          "duration": 0.18292675000000003,
          "durationTicks": 96,
          "midi": 49,
          "name": "C#3",
          "ticks": 1536,
          "time": 2.926828,
          "velocity": 0.1968503937007874
        },
        {
          "duration": 0.18292675000000003,
          "durationTicks": 96,
          "midi": 49,
          "name": "C#3",
          "ticks": 1536,
          "time": 2.926828,
          "velocity": 0.1968503937007874
        },
        {
          "duration": 0.18292675000000003,
          "durationTicks": 96,
          "midi": 37,
          "name": "C#2",
          "ticks": 1536,
          "time": 2.926828,
          "velocity": 0.1968503937007874
        },
        {
          "duration": 0.18292675000000003,
          "durationTicks": 96,
          "midi": 63,
          "name": "D#4",
          "ticks": 1728,
          "time": 3.2926815,
          "velocity": 0.1968503937007874
        },
        {
          "duration": 0.18292675000000003,
          "durationTicks": 96,
          "midi": 51,
          "name": "D#3",
          "ticks": 1728,
          "time": 3.2926815,
          "velocity": 0.1968503937007874
        },
        {
          "duration": 0.18292675000000003,
          "durationTicks": 96,
          "midi": 61,
          "name": "C#4",
          "ticks": 1920,
          "time": 3.658535,
          "velocity": 0.1968503937007874
        },
        {
          "duration": 0.18292675000000003,
          "durationTicks": 96,
          "midi": 53,
          "name": "F3",
          "ticks": 1920,
          "time": 3.658535,
          "velocity": 0.1968503937007874
        },
        {
          "duration": 0.18292675000000003,
          "durationTicks": 96,
          "midi": 49,
          "name": "C#3",
          "ticks": 1920,
          "time": 3.658535,
          "velocity": 0.1968503937007874
        },
        {
          "duration": 0.18292675000000003,
          "durationTicks": 96,
          "midi": 41,
          "name": "F2",
          "ticks": 1920,
          "time": 3.658535,
          "velocity": 0.1968503937007874
        },
        {
          "duration": 0.18292675000000003,
          "durationTicks": 96,
          "midi": 64,
          "name": "E4",
          "ticks": 2112,
          "time": 4.0243885,
          "velocity": 0.1968503937007874
        },
        {
          "duration": 0.18292675000000003,
          "durationTicks": 96,
          "midi": 52,
          "name": "E3",
          "ticks": 2112,
          "time": 4.0243885,
          "velocity": 0.1968503937007874
        },
        {
          "duration": 0.18292675000000003,
          "durationTicks": 96,
          "midi": 56,
          "name": "G#3",
          "ticks": 2208,
          "time": 4.20731525,
          "velocity": 0.1968503937007874
        },
        {
          "duration": 0.18292675000000003,
          "durationTicks": 96,
          "midi": 44,
          "name": "G#2",
          "ticks": 2208,
          "time": 4.20731525,
          "velocity": 0.1968503937007874
        },
        {
          "duration": 0.18292675000000003,
          "durationTicks": 96,
          "midi": 55,
          "name": "G3",
          "ticks": 2304,
          "time": 4.390242,
          "velocity": 0.1968503937007874
        },
        {
          "duration": 0.18292675000000003,
          "durationTicks": 96,
          "midi": 43,
          "name": "G2",
          "ticks": 2304,
          "time": 4.390242,
          "velocity": 0.1968503937007874
        },
        {
          "duration": 0.18292675000000003,
          "durationTicks": 96,
          "midi": 60,
          "name": "C4",
          "ticks": 2496,
          "time": 4.7560955,
          "velocity": 0.1968503937007874
        },
        {
          "duration": 0.18292675000000003,
          "durationTicks": 96,
          "midi": 48,
          "name": "C3",
          "ticks": 2496,
          "time": 4.7560955,
          "velocity": 0.1968503937007874
        },
        {
          "duration": 0.18292675000000003,
          "durationTicks": 96,
          "midi": 65,
          "name": "F4",
          "ticks": 2592,
          "time": 4.93902225,
          "velocity": 0.1968503937007874
        },
        {
          "duration": 0.18292675000000003,
          "durationTicks": 96,
          "midi": 52,
          "name": "E3",
          "ticks": 2592,
          "time": 4.93902225,
          "velocity": 0.1968503937007874
        },
        {
          "duration": 0.18292675000000003,
          "durationTicks": 96,
          "midi": 60,
          "name": "C4",
          "ticks": 2688,
          "time": 5.121949,
          "velocity": 0.1968503937007874
        },
        {
          "duration": 0.18292675000000003,
          "durationTicks": 96,
          "midi": 67,
          "name": "G4",
          "ticks": 2688,
          "time": 5.121949,
          "velocity": 0.1968503937007874
        },
        {
          "duration": 0.18292675000000003,
          "durationTicks": 96,
          "midi": 48,
          "name": "C3",
          "ticks": 2688,
          "time": 5.121949,
          "velocity": 0.1968503937007874
        },
        {
          "duration": 0.18292675000000003,
          "durationTicks": 96,
          "midi": 55,
          "name": "G3",
          "ticks": 2688,
          "time": 5.121949,
          "velocity": 0.1968503937007874
        },
        {
          "duration": 0.36585350000000005,
          "durationTicks": 192,
          "midi": 48,
          "name": "C3",
          "ticks": 2688,
          "time": 5.121949,
          "velocity": 0.1968503937007874
        },
        {
          "duration": 0.36585350000000005,
          "durationTicks": 192,
          "midi": 60,
          "name": "C4",
          "ticks": 2688,
          "time": 5.121949,
          "velocity": 0.1968503937007874
        },
        {
          "duration": 0.36585350000000005,
          "durationTicks": 192,
          "midi": 36,
          "name": "C2",
          "ticks": 2688,
          "time": 5.121949,
          "velocity": 0.1968503937007874
        },
        {
          "duration": 0.36585350000000005,
          "durationTicks": 192,
          "midi": 48,
          "name": "C3",
          "ticks": 2688,
          "time": 5.121949,
          "velocity": 0.1968503937007874
        },
        {
          "duration": 0.36585349999999917,
          "durationTicks": 192,
          "midi": 58,
          "name": "A#3",
          "ticks": 4032,
          "time": 7.6829235,
          "velocity": 0.1968503937007874
        },
        {
          "duration": 0.36585349999999917,
          "durationTicks": 192,
          "midi": 46,
          "name": "A#2",
          "ticks": 4032,
          "time": 7.6829235,
          "velocity": 0.1968503937007874
        },
        {
          "duration": 0.36585350000000005,
          "durationTicks": 192,
          "midi": 60,
          "name": "C4",
          "ticks": 4224,
          "time": 8.048777,
          "velocity": 0.1968503937007874
        },
        {
          "duration": 0.36585350000000005,
          "durationTicks": 192,
          "midi": 48,
          "name": "C3",
          "ticks": 4224,
          "time": 8.048777,
          "velocity": 0.1968503937007874
        },
        {
          "duration": 0.36585350000000005,
          "durationTicks": 192,
          "midi": 48,
          "name": "C3",
          "ticks": 4224,
          "time": 8.048777,
          "velocity": 0.1968503937007874
        },
        {
          "duration": 0.36585350000000005,
          "durationTicks": 192,
          "midi": 36,
          "name": "C2",
          "ticks": 4224,
          "time": 8.048777,
          "velocity": 0.1968503937007874
        },
        {
          "duration": 0.18292675000000003,
          "durationTicks": 96,
          "midi": 67,
          "name": "G4",
          "ticks": 5184,
          "time": 9.8780445,
          "velocity": 0.1968503937007874
        },
        {
          "duration": 0.18292675000000003,
          "durationTicks": 96,
          "midi": 55,
          "name": "G3",
          "ticks": 5184,
          "time": 9.8780445,
          "velocity": 0.1968503937007874
        },
        {
          "duration": 0.18292675000000003,
          "durationTicks": 96,
          "midi": 65,
          "name": "F4",
          "ticks": 5280,
          "time": 10.06097125,
          "velocity": 0.1968503937007874
        },
        {
          "duration": 0.18292675000000003,
          "durationTicks": 96,
          "midi": 53,
          "name": "F3",
          "ticks": 5280,
          "time": 10.06097125,
          "velocity": 0.1968503937007874
        },
        {
          "duration": 0.18292675000000003,
          "durationTicks": 96,
          "midi": 63,
          "name": "D#4",
          "ticks": 5376,
          "time": 10.243898,
          "velocity": 0.1968503937007874
        },
        {
          "duration": 0.18292675000000003,
          "durationTicks": 96,
          "midi": 51,
          "name": "D#3",
          "ticks": 5376,
          "time": 10.243898,
          "velocity": 0.1968503937007874
        },
        {
          "duration": 0.18292675000000003,
          "durationTicks": 96,
          "midi": 61,
          "name": "C#4",
          "ticks": 5472,
          "time": 10.42682475,
          "velocity": 0.1968503937007874
        },
        {
          "duration": 0.18292675000000003,
          "durationTicks": 96,
          "midi": 49,
          "name": "C#3",
          "ticks": 5472,
          "time": 10.42682475,
          "velocity": 0.1968503937007874
        },
        {
          "duration": 0.18292675000000003,
          "durationTicks": 96,
          "midi": 58,
          "name": "A#3",
          "ticks": 5568,
          "time": 10.6097515,
          "velocity": 0.1968503937007874
        },
        {
          "duration": 0.18292675000000003,
          "durationTicks": 96,
          "midi": 46,
          "name": "A#2",
          "ticks": 5568,
          "time": 10.6097515,
          "velocity": 0.1968503937007874
        },
        {
          "duration": 0.36585350000000005,
          "durationTicks": 192,
          "midi": 60,
          "name": "C4",
          "ticks": 5760,
          "time": 10.975605,
          "velocity": 0.1968503937007874
        },
        {
          "duration": 0.36585350000000005,
          "durationTicks": 192,
          "midi": 48,
          "name": "C3",
          "ticks": 5760,
          "time": 10.975605,
          "velocity": 0.1968503937007874
        },
        {
          "duration": 0.36585350000000005,
          "durationTicks": 192,
          "midi": 48,
          "name": "C3",
          "ticks": 5760,
          "time": 10.975605,
          "velocity": 0.1968503937007874
        },
        {
          "duration": 0.36585350000000005,
          "durationTicks": 192,
          "midi": 36,
          "name": "C2",
          "ticks": 5760,
          "time": 10.975605,
          "velocity": 0.1968503937007874
        },
        {
          "duration": 0.18292675000000003,
          "durationTicks": 96,
          "midi": 60,
          "name": "C4",
          "ticks": 6912,
          "time": 13.170726,
          "velocity": 0.1968503937007874
        },
        {
          "duration": 0.18292675000000003,
          "durationTicks": 96,
          "midi": 48,
          "name": "C3",
          "ticks": 6912,
          "time": 13.170726,
          "velocity": 0.1968503937007874
        },
        {
          "duration": 0.18292675000000003,
          "durationTicks": 96,
          "midi": 58,
          "name": "A#3",
          "ticks": 7104,
          "time": 13.5365795,
          "velocity": 0.1968503937007874
        },
        {
          "duration": 0.18292675000000003,
          "durationTicks": 96,
          "midi": 46,
          "name": "A#2",
          "ticks": 7104,
          "time": 13.5365795,
          "velocity": 0.1968503937007874
        },
        {
          "duration": 0.18292675000000003,
          "durationTicks": 96,
          "midi": 60,
          "name": "C4",
          "ticks": 7296,
          "time": 13.902433,
          "velocity": 0.1968503937007874
        },
        {
          "duration": 0.18292675000000003,
          "durationTicks": 96,
          "midi": 48,
          "name": "C3",
          "ticks": 7296,
          "time": 13.902433,
          "velocity": 0.1968503937007874
        },
        {
          "duration": 0.18292675000000003,
          "durationTicks": 96,
          "midi": 48,
          "name": "C3",
          "ticks": 7296,
          "time": 13.902433,
          "velocity": 0.1968503937007874
        },
        {
          "duration": 0.18292675000000003,
          "durationTicks": 96,
          "midi": 36,
          "name": "C2",
          "ticks": 7296,
          "time": 13.902433,
          "velocity": 0.1968503937007874
        },
        {
          "duration": 0.18292675000000003,
          "durationTicks": 96,
          "midi": 60,
          "name": "C4",
          "ticks": 7584,
          "time": 14.45121325,
          "velocity": 0.1968503937007874
        },
        {
          "duration": 0.18292675000000003,
          "durationTicks": 96,
          "midi": 48,
          "name": "C3",
          "ticks": 7584,
          "time": 14.45121325,
          "velocity": 0.1968503937007874
        },
        {
          "duration": 0.18292675000000003,
          "durationTicks": 96,
          "midi": 61,
          "name": "C#4",
          "ticks": 7680,
          "time": 14.63414,
          "velocity": 0.1968503937007874
        },
        {
          "duration": 0.18292675000000003,
          "durationTicks": 96,
          "midi": 49,
          "name": "C#3",
          "ticks": 7680,
          "time": 14.63414,
          "velocity": 0.1968503937007874
        },
        {
          "duration": 0.18292675000000003,
          "durationTicks": 96,
          "midi": 49,
          "name": "C#3",
          "ticks": 7680,
          "time": 14.63414,
          "velocity": 0.1968503937007874
        },
        {
          "duration": 0.18292675000000003,
          "durationTicks": 96,
          "midi": 37,
          "name": "C#2",
          "ticks": 7680,
          "time": 14.63414,
          "velocity": 0.1968503937007874
        },
        {
          "duration": 0.18292675000000003,
          "durationTicks": 96,
          "midi": 63,
          "name": "D#4",
          "ticks": 7872,
          "time": 14.9999935,
          "velocity": 0.1968503937007874
        },
        {
          "duration": 0.18292675000000003,
          "durationTicks": 96,
          "midi": 51,
          "name": "D#3",
          "ticks": 7872,
          "time": 14.9999935,
          "velocity": 0.1968503937007874
        },
        {
          "duration": 0.18292675000000003,
          "durationTicks": 96,
          "midi": 61,
          "name": "C#4",
          "ticks": 8064,
          "time": 15.365847,
          "velocity": 0.1968503937007874
        },
        {
          "duration": 0.18292675000000003,
          "durationTicks": 96,
          "midi": 53,
          "name": "F3",
          "ticks": 8064,
          "time": 15.365847,
          "velocity": 0.1968503937007874
        },
        {
          "duration": 0.18292675000000003,
          "durationTicks": 96,
          "midi": 49,
          "name": "C#3",
          "ticks": 8064,
          "time": 15.365847,
          "velocity": 0.1968503937007874
        },
        {
          "duration": 0.18292675000000003,
          "durationTicks": 96,
          "midi": 41,
          "name": "F2",
          "ticks": 8064,
          "time": 15.365847,
          "velocity": 0.1968503937007874
        },
        {
          "duration": 0.18292675000000003,
          "durationTicks": 96,
          "midi": 64,
          "name": "E4",
          "ticks": 8256,
          "time": 15.7317005,
          "velocity": 0.1968503937007874
        },
        {
          "duration": 0.18292675000000003,
          "durationTicks": 96,
          "midi": 52,
          "name": "E3",
          "ticks": 8256,
          "time": 15.7317005,
          "velocity": 0.1968503937007874
        },
        {
          "duration": 0.18292674999999825,
          "durationTicks": 96,
          "midi": 56,
          "name": "G#3",
          "ticks": 8352,
          "time": 15.91462725,
          "velocity": 0.1968503937007874
        },
        {
          "duration": 0.18292674999999825,
          "durationTicks": 96,
          "midi": 44,
          "name": "G#2",
          "ticks": 8352,
          "time": 15.91462725,
          "velocity": 0.1968503937007874
        },
        {
          "duration": 0.18292675000000003,
          "durationTicks": 96,
          "midi": 55,
          "name": "G3",
          "ticks": 8448,
          "time": 16.097554,
          "velocity": 0.1968503937007874
        },
        {
          "duration": 0.18292675000000003,
          "durationTicks": 96,
          "midi": 43,
          "name": "G2",
          "ticks": 8448,
          "time": 16.097554,
          "velocity": 0.1968503937007874
        },
        {
          "duration": 0.18292675000000003,
          "durationTicks": 96,
          "midi": 48,
          "name": "C3",
          "ticks": 8640,
          "time": 16.4634075,
          "velocity": 0.1968503937007874
        },
        {
          "duration": 0.18292675000000003,
          "durationTicks": 96,
          "midi": 60,
          "name": "C4",
          "ticks": 8640,
          "time": 16.4634075,
          "velocity": 0.1968503937007874
        },
        {
          "duration": 0.18292675000000003,
          "durationTicks": 96,
          "midi": 65,
          "name": "F4",
          "ticks": 8736,
          "time": 16.64633425,
          "velocity": 0.1968503937007874
        },
        {
          "duration": 0.18292675000000003,
          "durationTicks": 96,
          "midi": 52,
          "name": "E3",
          "ticks": 8736,
          "time": 16.64633425,
          "velocity": 0.1968503937007874
        },
        {
          "duration": 0.18292675000000003,
          "durationTicks": 96,
          "midi": 60,
          "name": "C4",
          "ticks": 8832,
          "time": 16.829261,
          "velocity": 0.1968503937007874
        },
        {
          "duration": 0.18292675000000003,
          "durationTicks": 96,
          "midi": 67,
          "name": "G4",
          "ticks": 8832,
          "time": 16.829261,
          "velocity": 0.1968503937007874
        },
        {
          "duration": 0.18292675000000003,
          "durationTicks": 96,
          "midi": 48,
          "name": "C3",
          "ticks": 8832,
          "time": 16.829261,
          "velocity": 0.1968503937007874
        },
        {
          "duration": 0.18292675000000003,
          "durationTicks": 96,
          "midi": 55,
          "name": "G3",
          "ticks": 8832,
          "time": 16.829261,
          "velocity": 0.1968503937007874
        }
      ],
      "endOfTrackTicks": 8928
    },
    {
      "channel": 5,
      "controlChanges": {},
      "pitchBends": [],
      "instrument": {
        "family": "piano",
        "number": 0,
        "name": "acoustic grand piano"
      },
      "name": "Elec. Piano (Classic)",
      "notes": [
        {
          "duration": 0.18292675000000003,
          "durationTicks": 96,
          "midi": 60,
          "name": "C4",
          "ticks": 2688,
          "time": 5.121949,
          "velocity": 0.3937007874015748
        },
        {
          "duration": 0.18292675000000003,
          "durationTicks": 96,
          "midi": 60,
          "name": "C4",
          "ticks": 5760,
          "time": 10.975605,
          "velocity": 0.3937007874015748
        },
        {
          "duration": 0.18292675000000003,
          "durationTicks": 96,
          "midi": 60,
          "name": "C4",
          "ticks": 8832,
          "time": 16.829261,
          "velocity": 0.3937007874015748
        },
        {
          "duration": 0.18292675000000003,
          "durationTicks": 96,
          "midi": 67,
          "name": "G4",
          "ticks": 9216,
          "time": 17.560968,
          "velocity": 0.3937007874015748
        },
        {
          "duration": 0.18292675000000003,
          "durationTicks": 96,
          "midi": 64,
          "name": "E4",
          "ticks": 9408,
          "time": 17.9268215,
          "velocity": 0.3937007874015748
        },
        {
          "duration": 0.18292675000000003,
          "durationTicks": 96,
          "midi": 65,
          "name": "F4",
          "ticks": 9600,
          "time": 18.292675,
          "velocity": 0.3937007874015748
        },
        {
          "duration": 0.18292675000000003,
          "durationTicks": 96,
          "midi": 61,
          "name": "C#4",
          "ticks": 9792,
          "time": 18.6585285,
          "velocity": 0.3937007874015748
        },
        {
          "duration": 0.18292675000000003,
          "durationTicks": 96,
          "midi": 60,
          "name": "C4",
          "ticks": 9984,
          "time": 19.024382,
          "velocity": 0.3937007874015748
        },
        {
          "duration": 0.18292675000000003,
          "durationTicks": 96,
          "midi": 58,
          "name": "A#3",
          "ticks": 10176,
          "time": 19.3902355,
          "velocity": 0.3937007874015748
        },
        {
          "duration": 0.18292675000000003,
          "durationTicks": 96,
          "midi": 60,
          "name": "C4",
          "ticks": 10368,
          "time": 19.756089,
          "velocity": 0.3937007874015748
        },
        {
          "duration": 0.18292675000000003,
          "durationTicks": 96,
          "midi": 67,
          "name": "G4",
          "ticks": 10752,
          "time": 20.487796,
          "velocity": 0.3937007874015748
        },
        {
          "duration": 0.18292675000000003,
          "durationTicks": 96,
          "midi": 64,
          "name": "E4",
          "ticks": 10944,
          "time": 20.8536495,
          "velocity": 0.3937007874015748
        },
        {
          "duration": 0.18292675000000003,
          "durationTicks": 96,
          "midi": 65,
          "name": "F4",
          "ticks": 11136,
          "time": 21.219503,
          "velocity": 0.3937007874015748
        },
        {
          "duration": 0.18292675000000003,
          "durationTicks": 96,
          "midi": 67,
          "name": "G4",
          "ticks": 11328,
          "time": 21.5853565,
          "velocity": 0.3937007874015748
        },
        {
          "duration": 0.18292675000000003,
          "durationTicks": 96,
          "midi": 68,
          "name": "G#4",
          "ticks": 11520,
          "time": 21.95121,
          "velocity": 0.3937007874015748
        },
        {
          "duration": 0.18292675000000003,
          "durationTicks": 96,
          "midi": 67,
          "name": "G4",
          "ticks": 11712,
          "time": 22.3170635,
          "velocity": 0.3937007874015748
        },
        {
          "duration": 0.18292675000000003,
          "durationTicks": 96,
          "midi": 60,
          "name": "C4",
          "ticks": 11904,
          "time": 22.682917,
          "velocity": 0.3937007874015748
        },
        {
          "duration": 0.18292675000000003,
          "durationTicks": 96,
          "midi": 60,
          "name": "C4",
          "ticks": 11904,
          "time": 22.682917,
          "velocity": 0.3937007874015748
        },
        {
          "duration": 0.18292675000000003,
          "durationTicks": 96,
          "midi": 60,
          "name": "C4",
          "ticks": 11904,
          "time": 22.682917,
          "velocity": 0.3937007874015748
        },
        {
          "duration": 0.18292675000000003,
          "durationTicks": 96,
          "midi": 67,
          "name": "G4",
          "ticks": 12288,
          "time": 23.414624,
          "velocity": 0.3937007874015748
        },
        {
          "duration": 0.18292675000000003,
          "durationTicks": 96,
          "midi": 64,
          "name": "E4",
          "ticks": 12480,
          "time": 23.7804775,
          "velocity": 0.3937007874015748
        },
        {
          "duration": 0.18292675000000003,
          "durationTicks": 96,
          "midi": 65,
          "name": "F4",
          "ticks": 12672,
          "time": 24.146331,
          "velocity": 0.3937007874015748
        },
        {
          "duration": 0.18292675000000003,
          "durationTicks": 96,
          "midi": 61,
          "name": "C#4",
          "ticks": 12864,
          "time": 24.5121845,
          "velocity": 0.3937007874015748
        },
        {
          "duration": 0.18292675000000003,
          "durationTicks": 96,
          "midi": 60,
          "name": "C4",
          "ticks": 13056,
          "time": 24.878038,
          "velocity": 0.3937007874015748
        },
        {
          "duration": 0.18292675000000003,
          "durationTicks": 96,
          "midi": 58,
          "name": "A#3",
          "ticks": 13248,
          "time": 25.2438915,
          "velocity": 0.3937007874015748
        },
        {
          "duration": 0.18292675000000003,
          "durationTicks": 96,
          "midi": 60,
          "name": "C4",
          "ticks": 13440,
          "time": 25.609745,
          "velocity": 0.3937007874015748
        },
        {
          "duration": 0.18292675000000003,
          "durationTicks": 96,
          "midi": 58,
          "name": "A#3",
          "ticks": 13632,
          "time": 25.9755985,
          "velocity": 0.3937007874015748
        },
        {
          "duration": 0.18292675000000003,
          "durationTicks": 96,
          "midi": 60,
          "name": "C4",
          "ticks": 13728,
          "time": 26.15852525,
          "velocity": 0.3937007874015748
        },
        {
          "duration": 0.18292675000000003,
          "durationTicks": 96,
          "midi": 61,
          "name": "C#4",
          "ticks": 13824,
          "time": 26.341452,
          "velocity": 0.3937007874015748
        },
        {
          "duration": 0.18292675000000003,
          "durationTicks": 96,
          "midi": 63,
          "name": "D#4",
          "ticks": 14016,
          "time": 26.7073055,
          "velocity": 0.3937007874015748
        },
        {
          "duration": 0.18292675000000003,
          "durationTicks": 96,
          "midi": 65,
          "name": "F4",
          "ticks": 14112,
          "time": 26.89023225,
          "velocity": 0.3937007874015748
        },
        {
          "duration": 0.18292675000000003,
          "durationTicks": 96,
          "midi": 61,
          "name": "C#4",
          "ticks": 14208,
          "time": 27.073159,
          "velocity": 0.3937007874015748
        },
        {
          "duration": 0.18292675000000003,
          "durationTicks": 96,
          "midi": 65,
          "name": "F4",
          "ticks": 14304,
          "time": 27.25608575,
          "velocity": 0.3937007874015748
        },
        {
          "duration": 0.18292675000000003,
          "durationTicks": 96,
          "midi": 64,
          "name": "E4",
          "ticks": 14400,
          "time": 27.4390125,
          "velocity": 0.3937007874015748
        },
        {
          "duration": 0.18292675000000003,
          "durationTicks": 96,
          "midi": 58,
          "name": "A#3",
          "ticks": 14496,
          "time": 27.62193925,
          "velocity": 0.3937007874015748
        },
        {
          "duration": 0.18292675000000003,
          "durationTicks": 96,
          "midi": 61,
          "name": "C#4",
          "ticks": 14592,
          "time": 27.804866,
          "velocity": 0.3937007874015748
        },
        {
          "duration": 0.18292675000000003,
          "durationTicks": 96,
          "midi": 60,
          "name": "C4",
          "ticks": 14784,
          "time": 28.1707195,
          "velocity": 0.3937007874015748
        },
        {
          "duration": 0.18292675000000003,
          "durationTicks": 96,
          "midi": 65,
          "name": "F4",
          "ticks": 14880,
          "time": 28.35364625,
          "velocity": 0.3937007874015748
        },
        {
          "duration": 0.18292675000000003,
          "durationTicks": 96,
          "midi": 61,
          "name": "C#4",
          "ticks": 14880,
          "time": 28.35364625,
          "velocity": 0.3937007874015748
        },
        {
          "duration": 0.18292675000000003,
          "durationTicks": 96,
          "midi": 60,
          "name": "C4",
          "ticks": 14976,
          "time": 28.536573,
          "velocity": 0.3937007874015748
        },
        {
          "duration": 0.18292675000000003,
          "durationTicks": 96,
          "midi": 60,
          "name": "C4",
          "ticks": 14976,
          "time": 28.536573,
          "velocity": 0.3937007874015748
        },
        {
          "duration": 0.18292675000000003,
          "durationTicks": 96,
          "midi": 67,
          "name": "G4",
          "ticks": 14976,
          "time": 28.536573,
          "velocity": 0.3937007874015748
        },
        {
          "duration": 0.18292675000000003,
          "durationTicks": 96,
          "midi": 72,
          "name": "C5",
          "ticks": 14976,
          "time": 28.536573,
          "velocity": 0.3937007874015748
        }
      ],
      "endOfTrackTicks": 15072
    },
    {
      "channel": 6,
      "controlChanges": {},
      "pitchBends": [],
      "instrument": {
        "family": "strings",
        "number": 45,
        "name": "pizzicato strings"
      },
      "name": "Concert Harp",
      "notes": [
        {
          "duration": 0.18292675000000003,
          "durationTicks": 96,
          "midi": 60,
          "name": "C4",
          "ticks": 2688,
          "time": 5.121949,
          "velocity": 0.36220472440944884
        },
        {
          "duration": 0.18292675000000003,
          "durationTicks": 96,
          "midi": 60,
          "name": "C4",
          "ticks": 5760,
          "time": 10.975605,
          "velocity": 0.36220472440944884
        },
        {
          "duration": 0.18292675000000003,
          "durationTicks": 96,
          "midi": 67,
          "name": "G4",
          "ticks": 9216,
          "time": 17.560968,
          "velocity": 0.36220472440944884
        },
        {
          "duration": 0.18292675000000003,
          "durationTicks": 96,
          "midi": 64,
          "name": "E4",
          "ticks": 9408,
          "time": 17.9268215,
          "velocity": 0.36220472440944884
        },
        {
          "duration": 0.18292675000000003,
          "durationTicks": 96,
          "midi": 65,
          "name": "F4",
          "ticks": 9600,
          "time": 18.292675,
          "velocity": 0.36220472440944884
        },
        {
          "duration": 0.18292675000000003,
          "durationTicks": 96,
          "midi": 61,
          "name": "C#4",
          "ticks": 9792,
          "time": 18.6585285,
          "velocity": 0.36220472440944884
        },
        {
          "duration": 0.18292675000000003,
          "durationTicks": 96,
          "midi": 60,
          "name": "C4",
          "ticks": 9984,
          "time": 19.024382,
          "velocity": 0.36220472440944884
        },
        {
          "duration": 0.18292675000000003,
          "durationTicks": 96,
          "midi": 58,
          "name": "A#3",
          "ticks": 10176,
          "time": 19.3902355,
          "velocity": 0.36220472440944884
        },
        {
          "duration": 0.18292675000000003,
          "durationTicks": 96,
          "midi": 60,
          "name": "C4",
          "ticks": 10368,
          "time": 19.756089,
          "velocity": 0.36220472440944884
        },
        {
          "duration": 0.18292675000000003,
          "durationTicks": 96,
          "midi": 67,
          "name": "G4",
          "ticks": 10752,
          "time": 20.487796,
          "velocity": 0.36220472440944884
        },
        {
          "duration": 0.18292675000000003,
          "durationTicks": 96,
          "midi": 64,
          "name": "E4",
          "ticks": 10944,
          "time": 20.8536495,
          "velocity": 0.36220472440944884
        },
        {
          "duration": 0.18292675000000003,
          "durationTicks": 96,
          "midi": 65,
          "name": "F4",
          "ticks": 11136,
          "time": 21.219503,
          "velocity": 0.36220472440944884
        },
        {
          "duration": 0.18292675000000003,
          "durationTicks": 96,
          "midi": 67,
          "name": "G4",
          "ticks": 11328,
          "time": 21.5853565,
          "velocity": 0.36220472440944884
        },
        {
          "duration": 0.18292675000000003,
          "durationTicks": 96,
          "midi": 68,
          "name": "G#4",
          "ticks": 11520,
          "time": 21.95121,
          "velocity": 0.36220472440944884
        },
        {
          "duration": 0.18292675000000003,
          "durationTicks": 96,
          "midi": 67,
          "name": "G4",
          "ticks": 11712,
          "time": 22.3170635,
          "velocity": 0.36220472440944884
        },
        {
          "duration": 0.18292675000000003,
          "durationTicks": 96,
          "midi": 67,
          "name": "G4",
          "ticks": 12288,
          "time": 23.414624,
          "velocity": 0.36220472440944884
        },
        {
          "duration": 0.18292675000000003,
          "durationTicks": 96,
          "midi": 64,
          "name": "E4",
          "ticks": 12480,
          "time": 23.7804775,
          "velocity": 0.36220472440944884
        },
        {
          "duration": 0.18292675000000003,
          "durationTicks": 96,
          "midi": 65,
          "name": "F4",
          "ticks": 12672,
          "time": 24.146331,
          "velocity": 0.36220472440944884
        },
        {
          "duration": 0.18292675000000003,
          "durationTicks": 96,
          "midi": 61,
          "name": "C#4",
          "ticks": 12864,
          "time": 24.5121845,
          "velocity": 0.36220472440944884
        },
        {
          "duration": 0.18292675000000003,
          "durationTicks": 96,
          "midi": 60,
          "name": "C4",
          "ticks": 13056,
          "time": 24.878038,
          "velocity": 0.36220472440944884
        },
        {
          "duration": 0.18292675000000003,
          "durationTicks": 96,
          "midi": 58,
          "name": "A#3",
          "ticks": 13248,
          "time": 25.2438915,
          "velocity": 0.36220472440944884
        },
        {
          "duration": 0.18292675000000003,
          "durationTicks": 96,
          "midi": 60,
          "name": "C4",
          "ticks": 14976,
          "time": 28.536573,
          "velocity": 0.36220472440944884
        },
        {
          "duration": 0.18292675000000003,
          "durationTicks": 96,
          "midi": 60,
          "name": "C4",
          "ticks": 14976,
          "time": 28.536573,
          "velocity": 0.36220472440944884
        }
      ],
      "endOfTrackTicks": 15072
    }
  ]
}
