{
  "header": {
    "keySignatures": [],
    "meta": [],
    "name": "",
    "ppq": 96,
    "tempos": [
      {
        "bpm": 120,
        "ticks": 0
      },
      {
        "bpm": 120,
        "ticks": 1728
      }
    ],
    "timeSignatures": [
      {
        "ticks": 0,
        "timeSignature": [4, 4],
        "measures": 0
      }
    ]
  },
  "tracks": [
    {
      "channel": 0,
      "controlChanges": {},
      "pitchBends": [],
      "instrument": {
        "family": "piano",
        "number": 0,
        "name": "acoustic grand piano"
      },
      "name": "",
      "notes": [],
      "endOfTrackTicks": 1728
    },
    {
      "channel": 0,
      "controlChanges": {
        "6": [
          {
            "number": 6,
            "ticks": 0,
            "time": 0,
            "value": 0.09448818897637795
          },
          {
            "number": 6,
            "ticks": 0,
            "time": 0,
            "value": 0.09448818897637795
          },
          {
            "number": 6,
            "ticks": 0,
            "time": 0,
            "value": 0.09448818897637795
          },
          {
            "number": 6,
            "ticks": 39264,
            "time": 204.5,
            "value": 0.09448818897637795
          },
          {
            "number": 6,
            "ticks": 39265,
            "time": 204.50520833333334,
            "value": 0.09448818897637795
          }
        ],
        "7": [
          {
            "number": 7,
            "ticks": 0,
            "time": 0,
            "value": 0.7874015748031497
          },
          {
            "number": 7,
            "ticks": 0,
            "time": 0,
            "value": 0.7874015748031497
          },
          {
            "number": 7,
            "ticks": 0,
            "time": 0,
            "value": 0.7874015748031497
          },
          {
            "number": 7,
            "ticks": 0,
            "time": 0,
            "value": 0.7874015748031497
          },
          {
            "number": 7,
            "ticks": 39264,
            "time": 204.5,
            "value": 0.7874015748031497
          },
          {
            "number": 7,
            "ticks": 39265,
            "time": 204.50520833333334,
            "value": 0.7874015748031497
          }
        ],
        "10": [
          {
            "number": 10,
            "ticks": 0,
            "time": 0,
            "value": 0.5039370078740157
          },
          {
            "number": 10,
            "ticks": 0,
            "time": 0,
            "value": 0.5039370078740157
          },
          {
            "number": 10,
            "ticks": 0,
            "time": 0,
            "value": 0.5039370078740157
          },
          {
            "number": 10,
            "ticks": 0,
            "time": 0,
            "value": 0.5039370078740157
          },
          {
            "number": 10,
            "ticks": 39264,
            "time": 204.5,
            "value": 0.5039370078740157
          },
          {
            "number": 10,
            "ticks": 39265,
            "time": 204.50520833333334,
            "value": 0.5039370078740157
          }
        ],
        "100": [
          {
            "number": 100,
            "ticks": 0,
            "time": 0,
            "value": 0
          },
          {
            "number": 100,
            "ticks": 0,
            "time": 0,
            "value": 0
          },
          {
            "number": 100,
            "ticks": 0,
            "time": 0,
            "value": 0
          },
          {
            "number": 100,
            "ticks": 39264,
            "time": 204.5,
            "value": 0
          },
          {
            "number": 100,
            "ticks": 39265,
            "time": 204.50520833333334,
            "value": 0
          }
        ],
        "101": [
          {
            "number": 101,
            "ticks": 0,
            "time": 0,
            "value": 0
          },
          {
            "number": 101,
            "ticks": 0,
            "time": 0,
            "value": 0
          },
          {
            "number": 101,
            "ticks": 0,
            "time": 0,
            "value": 0
          },
          {
            "number": 101,
            "ticks": 39264,
            "time": 204.5,
            "value": 0
          },
          {
            "number": 101,
            "ticks": 39265,
            "time": 204.50520833333334,
            "value": 0
          }
        ]
      },
      "pitchBends": [
        {
          "ticks": 0,
          "time": 0,
          "value": 0
        },
        {
          "ticks": 0,
          "time": 0,
          "value": 0
        },
        {
          "ticks": 0,
          "time": 0,
          "value": 0
        },
        {
          "ticks": 0,
          "time": 0,
          "value": 0
        },
        {
          "ticks": 39264,
          "time": 204.5,
          "value": 0
        },
        {
          "ticks": 39265,
          "time": 204.50520833333334,
          "value": 0
        }
      ],
      "instrument": {
        "family": "piano",
        "number": 0,
        "name": "acoustic grand piano"
      },
      "name": "Kontakt 5",
      "notes": [
        {
          "duration": 0.3125,
          "durationTicks": 60,
          "midi": 69,
          "name": "A4",
          "ticks": 0,
          "time": 0,
          "velocity": 0.4409448818897638
        },
        {
          "duration": 0.3020833333333339,
          "durationTicks": 58,
          "midi": 72,
          "name": "C5",
          "ticks": 1728,
          "time": 9,
          "velocity": 0.5039370078740157
        },
        {
          "duration": 0.3020833333333339,
          "durationTicks": 58,
          "midi": 77,
          "name": "F5",
          "ticks": 1728,
          "time": 9,
          "velocity": 0.5039370078740157
        },
        {
          "duration": 0.22916666666666607,
          "durationTicks": 44,
          "midi": 41,
          "name": "F2",
          "ticks": 1728,
          "time": 9,
          "velocity": 0.4566929133858268
        },
        {
          "duration": 0.3020833333333339,
          "durationTicks": 58,
          "midi": 68,
          "name": "G#4",
          "ticks": 1728,
          "time": 9,
          "velocity": 0.3937007874015748
        },
        {
          "duration": 0.22916666666666607,
          "durationTicks": 44,
          "midi": 53,
          "name": "F3",
          "ticks": 1728,
          "time": 9,
          "velocity": 0.4251968503937008
        },
        {
          "duration": 0.21354166666666607,
          "durationTicks": 41,
          "midi": 53,
          "name": "F3",
          "ticks": 1797,
          "time": 9.359375,
          "velocity": 0.5196850393700787
        },
        {
          "duration": 0.13541666666666607,
          "durationTicks": 26,
          "midi": 60,
          "name": "C4",
          "ticks": 1827,
          "time": 9.515625,
          "velocity": 0.3858267716535433
        },
        {
          "duration": 0.13541666666666607,
          "durationTicks": 26,
          "midi": 56,
          "name": "G#3",
          "ticks": 1827,
          "time": 9.515625,
          "velocity": 0.4251968503937008
        },
        {
          "duration": 0.21354166666666785,
          "durationTicks": 41,
          "midi": 68,
          "name": "G#4",
          "ticks": 1865,
          "time": 9.713541666666666,
          "velocity": 0.3700787401574803
        },
        {
          "duration": 0.21354166666666785,
          "durationTicks": 41,
          "midi": 77,
          "name": "F5",
          "ticks": 1865,
          "time": 9.713541666666666,
          "velocity": 0.4566929133858268
        },
        {
          "duration": 0.21354166666666785,
          "durationTicks": 41,
          "midi": 72,
          "name": "C5",
          "ticks": 1865,
          "time": 9.713541666666666,
          "velocity": 0.4645669291338583
        },
        {
          "duration": 0.22395833333333215,
          "durationTicks": 43,
          "midi": 53,
          "name": "F3",
          "ticks": 1897,
          "time": 9.880208333333334,
          "velocity": 0.44881889763779526
        },
        {
          "duration": 0.109375,
          "durationTicks": 21,
          "midi": 60,
          "name": "C4",
          "ticks": 1935,
          "time": 10.078125,
          "velocity": 0.5039370078740157
        },
        {
          "duration": 0.109375,
          "durationTicks": 21,
          "midi": 56,
          "name": "G#3",
          "ticks": 1935,
          "time": 10.078125,
          "velocity": 0.3700787401574803
        },
        {
          "duration": 0.078125,
          "durationTicks": 15,
          "midi": 72,
          "name": "C5",
          "ticks": 1965,
          "time": 10.234375,
          "velocity": 0.4409448818897638
        },
        {
          "duration": 0.078125,
          "durationTicks": 15,
          "midi": 75,
          "name": "D#5",
          "ticks": 1965,
          "time": 10.234375,
          "velocity": 0.5511811023622047
        },
        {
          "duration": 0.078125,
          "durationTicks": 15,
          "midi": 68,
          "name": "G#4",
          "ticks": 1965,
          "time": 10.234375,
          "velocity": 0.31496062992125984
        },
        {
          "duration": 0.13541666666666785,
          "durationTicks": 26,
          "midi": 53,
          "name": "F3",
          "ticks": 1997,
          "time": 10.401041666666666,
          "velocity": 0.41732283464566927
        },
        {
          "duration": 0.07291666666666785,
          "durationTicks": 14,
          "midi": 72,
          "name": "C5",
          "ticks": 1997,
          "time": 10.401041666666666,
          "velocity": 0.3700787401574803
        },
        {
          "duration": 0.13541666666666785,
          "durationTicks": 26,
          "midi": 41,
          "name": "F2",
          "ticks": 1997,
          "time": 10.401041666666666,
          "velocity": 0.47244094488188976
        },
        {
          "duration": 0.109375,
          "durationTicks": 21,
          "midi": 68,
          "name": "G#4",
          "ticks": 1997,
          "time": 10.401041666666666,
          "velocity": 0.36220472440944884
        },
        {
          "duration": 0.13541666666666785,
          "durationTicks": 26,
          "midi": 77,
          "name": "F5",
          "ticks": 1997,
          "time": 10.401041666666666,
          "velocity": 0.5196850393700787
        },
        {
          "duration": 0.109375,
          "durationTicks": 21,
          "midi": 68,
          "name": "G#4",
          "ticks": 2035,
          "time": 10.598958333333334,
          "velocity": 0.3543307086614173
        },
        {
          "duration": 0.109375,
          "durationTicks": 21,
          "midi": 79,
          "name": "G5",
          "ticks": 2035,
          "time": 10.598958333333334,
          "velocity": 0.5196850393700787
        },
        {
          "duration": 0.109375,
          "durationTicks": 21,
          "midi": 72,
          "name": "C5",
          "ticks": 2035,
          "time": 10.598958333333334,
          "velocity": 0.3779527559055118
        },
        {
          "duration": 0.21875,
          "durationTicks": 42,
          "midi": 53,
          "name": "F3",
          "ticks": 2065,
          "time": 10.755208333333334,
          "velocity": 0.5275590551181102
        },
        {
          "duration": 0.15104166666666785,
          "durationTicks": 29,
          "midi": 72,
          "name": "C5",
          "ticks": 2096,
          "time": 10.916666666666666,
          "velocity": 0.5118110236220472
        },
        {
          "duration": 0.27083333333333215,
          "durationTicks": 52,
          "midi": 60,
          "name": "C4",
          "ticks": 2104,
          "time": 10.958333333333334,
          "velocity": 0.5354330708661418
        },
        {
          "duration": 0.27083333333333215,
          "durationTicks": 52,
          "midi": 56,
          "name": "G#3",
          "ticks": 2104,
          "time": 10.958333333333334,
          "velocity": 0.4566929133858268
        },
        {
          "duration": 0.13541666666666785,
          "durationTicks": 26,
          "midi": 72,
          "name": "C5",
          "ticks": 2165,
          "time": 11.276041666666666,
          "velocity": 0.4015748031496063
        },
        {
          "duration": 0.13541666666666785,
          "durationTicks": 26,
          "midi": 75,
          "name": "D#5",
          "ticks": 2165,
          "time": 11.276041666666666,
          "velocity": 0.5118110236220472
        },
        {
          "duration": 0.13541666666666785,
          "durationTicks": 26,
          "midi": 68,
          "name": "G#4",
          "ticks": 2165,
          "time": 11.276041666666666,
          "velocity": 0.3543307086614173
        },
        {
          "duration": 0.22916666666666785,
          "durationTicks": 44,
          "midi": 53,
          "name": "F3",
          "ticks": 2165,
          "time": 11.276041666666666,
          "velocity": 0.5196850393700787
        },
        {
          "duration": 0.28125,
          "durationTicks": 54,
          "midi": 60,
          "name": "C4",
          "ticks": 2204,
          "time": 11.479166666666666,
          "velocity": 0.4409448818897638
        },
        {
          "duration": 0.28125,
          "durationTicks": 54,
          "midi": 56,
          "name": "G#3",
          "ticks": 2204,
          "time": 11.479166666666666,
          "velocity": 0.4330708661417323
        },
        {
          "duration": 0.3125,
          "durationTicks": 60,
          "midi": 36,
          "name": "C2",
          "ticks": 2265,
          "time": 11.796875,
          "velocity": 0.2992125984251969
        },
        {
          "duration": 0.3125,
          "durationTicks": 60,
          "midi": 48,
          "name": "C3",
          "ticks": 2265,
          "time": 11.796875,
          "velocity": 0.47244094488188976
        },
        {
          "duration": 0.171875,
          "durationTicks": 33,
          "midi": 72,
          "name": "C5",
          "ticks": 2265,
          "time": 11.796875,
          "velocity": 0.4566929133858268
        },
        {
          "duration": 0.3125,
          "durationTicks": 60,
          "midi": 67,
          "name": "G4",
          "ticks": 2265,
          "time": 11.796875,
          "velocity": 0.33858267716535434
        },
        {
          "duration": 0.3125,
          "durationTicks": 60,
          "midi": 77,
          "name": "F5",
          "ticks": 2265,
          "time": 11.796875,
          "velocity": 0.5275590551181102
        },
        {
          "duration": 0.16666666666666607,
          "durationTicks": 32,
          "midi": 55,
          "name": "G3",
          "ticks": 2334,
          "time": 12.15625,
          "velocity": 0.41732283464566927
        },
        {
          "duration": 0.09895833333333393,
          "durationTicks": 19,
          "midi": 60,
          "name": "C4",
          "ticks": 2373,
          "time": 12.359375,
          "velocity": 0.47244094488188976
        },
        {
          "duration": 0.09895833333333393,
          "durationTicks": 19,
          "midi": 63,
          "name": "D#4",
          "ticks": 2373,
          "time": 12.359375,
          "velocity": 0.5196850393700787
        },
        {
          "duration": 0.234375,
          "durationTicks": 45,
          "midi": 77,
          "name": "F5",
          "ticks": 2403,
          "time": 12.515625,
          "velocity": 0.5275590551181102
        },
        {
          "duration": 0.234375,
          "durationTicks": 45,
          "midi": 67,
          "name": "G4",
          "ticks": 2403,
          "time": 12.515625,
          "velocity": 0.4094488188976378
        },
        {
          "duration": 0.234375,
          "durationTicks": 45,
          "midi": 72,
          "name": "C5",
          "ticks": 2403,
          "time": 12.515625,
          "velocity": 0.5196850393700787
        },
        {
          "duration": 0.171875,
          "durationTicks": 33,
          "midi": 55,
          "name": "G3",
          "ticks": 2434,
          "time": 12.677083333333334,
          "velocity": 0.36220472440944884
        },
        {
          "duration": 0.10416666666666607,
          "durationTicks": 20,
          "midi": 63,
          "name": "D#4",
          "ticks": 2473,
          "time": 12.880208333333334,
          "velocity": 0.5826771653543307
        },
        {
          "duration": 0.10416666666666607,
          "durationTicks": 20,
          "midi": 60,
          "name": "C4",
          "ticks": 2473,
          "time": 12.880208333333334,
          "velocity": 0.4566929133858268
        },
        {
          "duration": 0.125,
          "durationTicks": 24,
          "midi": 72,
          "name": "C5",
          "ticks": 2503,
          "time": 13.036458333333332,
          "velocity": 0.3858267716535433
        },
        {
          "duration": 0.125,
          "durationTicks": 24,
          "midi": 75,
          "name": "D#5",
          "ticks": 2503,
          "time": 13.036458333333332,
          "velocity": 0.5039370078740157
        },
        {
          "duration": 0.10416666666666785,
          "durationTicks": 20,
          "midi": 77,
          "name": "F5",
          "ticks": 2541,
          "time": 13.234375,
          "velocity": 0.5433070866141733
        },
        {
          "duration": 0.10416666666666785,
          "durationTicks": 20,
          "midi": 36,
          "name": "C2",
          "ticks": 2541,
          "time": 13.234375,
          "velocity": 0.3700787401574803
        },
        {
          "duration": 0.10416666666666785,
          "durationTicks": 20,
          "midi": 48,
          "name": "C3",
          "ticks": 2541,
          "time": 13.234375,
          "velocity": 0.4645669291338583
        },
        {
          "duration": 0.1197916666666643,
          "durationTicks": 23,
          "midi": 79,
          "name": "G5",
          "ticks": 2573,
          "time": 13.401041666666668,
          "velocity": 0.5511811023622047
        },
        {
          "duration": 0.1197916666666643,
          "durationTicks": 23,
          "midi": 67,
          "name": "G4",
          "ticks": 2573,
          "time": 13.401041666666668,
          "velocity": 0.5511811023622047
        },
        {
          "duration": 0.1197916666666643,
          "durationTicks": 23,
          "midi": 72,
          "name": "C5",
          "ticks": 2573,
          "time": 13.401041666666668,
          "velocity": 0.5669291338582677
        },
        {
          "duration": 0.13020833333333215,
          "durationTicks": 25,
          "midi": 55,
          "name": "G3",
          "ticks": 2603,
          "time": 13.557291666666668,
          "velocity": 0.41732283464566927
        },
        {
          "duration": 0.16666666666666785,
          "durationTicks": 32,
          "midi": 72,
          "name": "C5",
          "ticks": 2641,
          "time": 13.755208333333332,
          "velocity": 0.49606299212598426
        },
        {
          "duration": 0.2864583333333357,
          "durationTicks": 55,
          "midi": 63,
          "name": "D#4",
          "ticks": 2641,
          "time": 13.755208333333332,
          "velocity": 0.49606299212598426
        },
        {
          "duration": 0.2864583333333357,
          "durationTicks": 55,
          "midi": 60,
          "name": "C4",
          "ticks": 2641,
          "time": 13.755208333333332,
          "velocity": 0.5039370078740157
        },
        {
          "duration": 0.140625,
          "durationTicks": 27,
          "midi": 55,
          "name": "G3",
          "ticks": 2703,
          "time": 14.078125,
          "velocity": 0.3779527559055118
        },
        {
          "duration": 0.140625,
          "durationTicks": 27,
          "midi": 75,
          "name": "D#5",
          "ticks": 2703,
          "time": 14.078125,
          "velocity": 0.48031496062992124
        },
        {
          "duration": 0.11979166666666785,
          "durationTicks": 23,
          "midi": 72,
          "name": "C5",
          "ticks": 2703,
          "time": 14.078125,
          "velocity": 0.4645669291338583
        },
        {
          "duration": 0.140625,
          "durationTicks": 27,
          "midi": 67,
          "name": "G4",
          "ticks": 2703,
          "time": 14.078125,
          "velocity": 0.3779527559055118
        },
        {
          "duration": 0.2916666666666643,
          "durationTicks": 56,
          "midi": 63,
          "name": "D#4",
          "ticks": 2741,
          "time": 14.276041666666668,
          "velocity": 0.5354330708661418
        },
        {
          "duration": 0.2135416666666643,
          "durationTicks": 41,
          "midi": 72,
          "name": "C5",
          "ticks": 2741,
          "time": 14.276041666666668,
          "velocity": 0.4251968503937008
        },
        {
          "duration": 0.2916666666666643,
          "durationTicks": 56,
          "midi": 60,
          "name": "C4",
          "ticks": 2741,
          "time": 14.276041666666668,
          "velocity": 0.4881889763779528
        },
        {
          "duration": 0.109375,
          "durationTicks": 21,
          "midi": 51,
          "name": "D#3",
          "ticks": 2810,
          "time": 14.635416666666668,
          "velocity": 0.5433070866141733
        },
        {
          "duration": 0.08333333333333215,
          "durationTicks": 16,
          "midi": 70,
          "name": "A#4",
          "ticks": 2810,
          "time": 14.635416666666668,
          "velocity": 0.3858267716535433
        },
        {
          "duration": 0.109375,
          "durationTicks": 21,
          "midi": 39,
          "name": "D#2",
          "ticks": 2810,
          "time": 14.635416666666668,
          "velocity": 0.4094488188976378
        },
        {
          "duration": 0.08333333333333215,
          "durationTicks": 16,
          "midi": 75,
          "name": "D#5",
          "ticks": 2810,
          "time": 14.635416666666668,
          "velocity": 0.4330708661417323
        },
        {
          "duration": 0.11979166666666785,
          "durationTicks": 23,
          "midi": 70,
          "name": "A#4",
          "ticks": 2841,
          "time": 14.796875,
          "velocity": 0.3858267716535433
        },
        {
          "duration": 0.11979166666666785,
          "durationTicks": 23,
          "midi": 79,
          "name": "G5",
          "ticks": 2841,
          "time": 14.796875,
          "velocity": 0.5354330708661418
        },
        {
          "duration": 0.11979166666666785,
          "durationTicks": 23,
          "midi": 75,
          "name": "D#5",
          "ticks": 2841,
          "time": 14.796875,
          "velocity": 0.4094488188976378
        },
        {
          "duration": 0.08854166666666785,
          "durationTicks": 17,
          "midi": 51,
          "name": "D#3",
          "ticks": 2880,
          "time": 15,
          "velocity": 0.5196850393700787
        },
        {
          "duration": 0.28125,
          "durationTicks": 54,
          "midi": 77,
          "name": "F5",
          "ticks": 2910,
          "time": 15.15625,
          "velocity": 0.5354330708661418
        },
        {
          "duration": 0.28125,
          "durationTicks": 54,
          "midi": 58,
          "name": "A#3",
          "ticks": 2910,
          "time": 15.15625,
          "velocity": 0.5748031496062992
        },
        {
          "duration": 0.28125,
          "durationTicks": 54,
          "midi": 55,
          "name": "G3",
          "ticks": 2910,
          "time": 15.15625,
          "velocity": 0.33070866141732286
        },
        {
          "duration": 0.140625,
          "durationTicks": 27,
          "midi": 70,
          "name": "A#4",
          "ticks": 2972,
          "time": 15.479166666666668,
          "velocity": 0.41732283464566927
        },
        {
          "duration": 0.140625,
          "durationTicks": 27,
          "midi": 75,
          "name": "D#5",
          "ticks": 2972,
          "time": 15.479166666666668,
          "velocity": 0.4645669291338583
        },
        {
          "duration": 0.10416666666666785,
          "durationTicks": 20,
          "midi": 51,
          "name": "D#3",
          "ticks": 2979,
          "time": 15.515625,
          "velocity": 0.3700787401574803
        },
        {
          "duration": 0.29166666666666785,
          "durationTicks": 56,
          "midi": 58,
          "name": "A#3",
          "ticks": 3010,
          "time": 15.677083333333332,
          "velocity": 0.49606299212598426
        },
        {
          "duration": 0.29166666666666785,
          "durationTicks": 56,
          "midi": 55,
          "name": "G3",
          "ticks": 3010,
          "time": 15.677083333333332,
          "velocity": 0.3779527559055118
        },
        {
          "duration": 0.109375,
          "durationTicks": 21,
          "midi": 51,
          "name": "D#3",
          "ticks": 3079,
          "time": 16.036458333333332,
          "velocity": 0.4566929133858268
        },
        {
          "duration": 0.109375,
          "durationTicks": 21,
          "midi": 70,
          "name": "A#4",
          "ticks": 3079,
          "time": 16.036458333333332,
          "velocity": 0.48031496062992124
        },
        {
          "duration": 0.109375,
          "durationTicks": 21,
          "midi": 39,
          "name": "D#2",
          "ticks": 3079,
          "time": 16.036458333333332,
          "velocity": 0.4251968503937008
        },
        {
          "duration": 0.109375,
          "durationTicks": 21,
          "midi": 75,
          "name": "D#5",
          "ticks": 3079,
          "time": 16.036458333333332,
          "velocity": 0.49606299212598426
        },
        {
          "duration": 0.1197916666666643,
          "durationTicks": 23,
          "midi": 75,
          "name": "D#5",
          "ticks": 3110,
          "time": 16.197916666666668,
          "velocity": 0.44881889763779526
        },
        {
          "duration": 0.1197916666666643,
          "durationTicks": 23,
          "midi": 79,
          "name": "G5",
          "ticks": 3110,
          "time": 16.197916666666668,
          "velocity": 0.5826771653543307
        },
        {
          "duration": 0.09375,
          "durationTicks": 18,
          "midi": 51,
          "name": "D#3",
          "ticks": 3149,
          "time": 16.401041666666668,
          "velocity": 0.49606299212598426
        },
        {
          "duration": 0.28645833333333215,
          "durationTicks": 55,
          "midi": 70,
          "name": "A#4",
          "ticks": 3179,
          "time": 16.557291666666668,
          "velocity": 0.4881889763779528
        },
        {
          "duration": 0.28645833333333215,
          "durationTicks": 55,
          "midi": 77,
          "name": "F5",
          "ticks": 3179,
          "time": 16.557291666666668,
          "velocity": 0.5748031496062992
        },
        {
          "duration": 0.28645833333333215,
          "durationTicks": 55,
          "midi": 58,
          "name": "A#3",
          "ticks": 3179,
          "time": 16.557291666666668,
          "velocity": 0.5196850393700787
        },
        {
          "duration": 0.28645833333333215,
          "durationTicks": 55,
          "midi": 55,
          "name": "G3",
          "ticks": 3179,
          "time": 16.557291666666668,
          "velocity": 0.31496062992125984
        },
        {
          "duration": 0.14583333333333215,
          "durationTicks": 28,
          "midi": 75,
          "name": "D#5",
          "ticks": 3248,
          "time": 16.916666666666668,
          "velocity": 0.47244094488188976
        },
        {
          "duration": 0.14583333333333215,
          "durationTicks": 28,
          "midi": 51,
          "name": "D#3",
          "ticks": 3248,
          "time": 16.916666666666668,
          "velocity": 0.36220472440944884
        },
        {
          "duration": 0.14583333333333215,
          "durationTicks": 28,
          "midi": 70,
          "name": "A#4",
          "ticks": 3248,
          "time": 16.916666666666668,
          "velocity": 0.3858267716535433
        },
        {
          "duration": 0.1666666666666643,
          "durationTicks": 32,
          "midi": 58,
          "name": "A#3",
          "ticks": 3279,
          "time": 17.078125,
          "velocity": 0.5275590551181102
        },
        {
          "duration": 0.1666666666666643,
          "durationTicks": 32,
          "midi": 55,
          "name": "G3",
          "ticks": 3279,
          "time": 17.078125,
          "velocity": 0.3858267716535433
        },
        {
          "duration": 0.1875,
          "durationTicks": 36,
          "midi": 77,
          "name": "F5",
          "ticks": 3309,
          "time": 17.234375,
          "velocity": 0.5511811023622047
        },
        {
          "duration": 0.1875,
          "durationTicks": 36,
          "midi": 70,
          "name": "A#4",
          "ticks": 3309,
          "time": 17.234375,
          "velocity": 0.3464566929133858
        },
        {
          "duration": 0.1875,
          "durationTicks": 36,
          "midi": 74,
          "name": "D5",
          "ticks": 3309,
          "time": 17.234375,
          "velocity": 0.5511811023622047
        },
        {
          "duration": 0.25,
          "durationTicks": 48,
          "midi": 46,
          "name": "A#2",
          "ticks": 3348,
          "time": 17.4375,
          "velocity": 0.5196850393700787
        },
        {
          "duration": 0.28125,
          "durationTicks": 54,
          "midi": 34,
          "name": "A#1",
          "ticks": 3348,
          "time": 17.4375,
          "velocity": 0.4330708661417323
        },
        {
          "duration": 0.09375,
          "durationTicks": 18,
          "midi": 53,
          "name": "F3",
          "ticks": 3417,
          "time": 17.796875,
          "velocity": 0.4566929133858268
        },
        {
          "duration": 0.28125,
          "durationTicks": 54,
          "midi": 58,
          "name": "A#3",
          "ticks": 3448,
          "time": 17.958333333333336,
          "velocity": 0.44881889763779526
        },
        {
          "duration": 0.28125,
          "durationTicks": 54,
          "midi": 62,
          "name": "D4",
          "ticks": 3448,
          "time": 17.958333333333336,
          "velocity": 0.4645669291338583
        },
        {
          "duration": 0.1041666666666643,
          "durationTicks": 20,
          "midi": 53,
          "name": "F3",
          "ticks": 3517,
          "time": 18.317708333333336,
          "velocity": 0.5039370078740157
        },
        {
          "duration": 0.2916666666666714,
          "durationTicks": 56,
          "midi": 58,
          "name": "A#3",
          "ticks": 3548,
          "time": 18.479166666666664,
          "velocity": 0.5039370078740157
        },
        {
          "duration": 0.2916666666666714,
          "durationTicks": 56,
          "midi": 62,
          "name": "D4",
          "ticks": 3548,
          "time": 18.479166666666664,
          "velocity": 0.5039370078740157
        },
        {
          "duration": 0.28125,
          "durationTicks": 54,
          "midi": 46,
          "name": "A#2",
          "ticks": 3617,
          "time": 18.838541666666664,
          "velocity": 0.5354330708661418
        },
        {
          "duration": 0.28125,
          "durationTicks": 54,
          "midi": 34,
          "name": "A#1",
          "ticks": 3617,
          "time": 18.838541666666664,
          "velocity": 0.4566929133858268
        },
        {
          "duration": 0.0989583333333357,
          "durationTicks": 19,
          "midi": 53,
          "name": "F3",
          "ticks": 3686,
          "time": 19.197916666666664,
          "velocity": 0.4566929133858268
        },
        {
          "duration": 0.109375,
          "durationTicks": 21,
          "midi": 58,
          "name": "A#3",
          "ticks": 3717,
          "time": 19.359375,
          "velocity": 0.41732283464566927
        },
        {
          "duration": 0.109375,
          "durationTicks": 21,
          "midi": 62,
          "name": "D4",
          "ticks": 3717,
          "time": 19.359375,
          "velocity": 0.4409448818897638
        },
        {
          "duration": 0.1302083333333357,
          "durationTicks": 25,
          "midi": 72,
          "name": "C5",
          "ticks": 3747,
          "time": 19.515625,
          "velocity": 0.5354330708661418
        },
        {
          "duration": 0.109375,
          "durationTicks": 21,
          "midi": 70,
          "name": "A#4",
          "ticks": 3785,
          "time": 19.713541666666664,
          "velocity": 0.36220472440944884
        },
        {
          "duration": 0.109375,
          "durationTicks": 21,
          "midi": 53,
          "name": "F3",
          "ticks": 3785,
          "time": 19.713541666666664,
          "velocity": 0.4881889763779528
        },
        {
          "duration": 0.1145833333333286,
          "durationTicks": 22,
          "midi": 62,
          "name": "D4",
          "ticks": 3817,
          "time": 19.880208333333336,
          "velocity": 0.47244094488188976
        },
        {
          "duration": 0.1145833333333286,
          "durationTicks": 22,
          "midi": 58,
          "name": "A#3",
          "ticks": 3817,
          "time": 19.880208333333336,
          "velocity": 0.49606299212598426
        },
        {
          "duration": 0.1145833333333286,
          "durationTicks": 22,
          "midi": 72,
          "name": "C5",
          "ticks": 3817,
          "time": 19.880208333333336,
          "velocity": 0.5669291338582677
        },
        {
          "duration": 0.1354166666666643,
          "durationTicks": 26,
          "midi": 70,
          "name": "A#4",
          "ticks": 3847,
          "time": 20.036458333333336,
          "velocity": 0.3700787401574803
        },
        {
          "duration": 1.5572916666666643,
          "durationTicks": 299,
          "midi": 72,
          "name": "C5",
          "ticks": 3885,
          "time": 20.234375,
          "velocity": 0.5118110236220472
        },
        {
          "duration": 0.1145833333333357,
          "durationTicks": 22,
          "midi": 41,
          "name": "F2",
          "ticks": 3885,
          "time": 20.234375,
          "velocity": 0.3937007874015748
        },
        {
          "duration": 1.5572916666666643,
          "durationTicks": 299,
          "midi": 68,
          "name": "G#4",
          "ticks": 3885,
          "time": 20.234375,
          "velocity": 0.3543307086614173
        },
        {
          "duration": 1.5572916666666643,
          "durationTicks": 299,
          "midi": 65,
          "name": "F4",
          "ticks": 3885,
          "time": 20.234375,
          "velocity": 0.4566929133858268
        },
        {
          "duration": 0.1302083333333357,
          "durationTicks": 25,
          "midi": 48,
          "name": "C3",
          "ticks": 3917,
          "time": 20.401041666666664,
          "velocity": 0.31496062992125984
        },
        {
          "duration": 0.1041666666666643,
          "durationTicks": 20,
          "midi": 53,
          "name": "F3",
          "ticks": 3955,
          "time": 20.598958333333336,
          "velocity": 0.41732283464566927
        },
        {
          "duration": 0.6770833333333286,
          "durationTicks": 130,
          "midi": 56,
          "name": "G#3",
          "ticks": 3985,
          "time": 20.755208333333336,
          "velocity": 0.4330708661417323
        },
        {
          "duration": 0.1197916666666714,
          "durationTicks": 23,
          "midi": 41,
          "name": "F2",
          "ticks": 4154,
          "time": 21.635416666666664,
          "velocity": 0.3858267716535433
        },
        {
          "duration": 0.1302083333333357,
          "durationTicks": 25,
          "midi": 48,
          "name": "C3",
          "ticks": 4185,
          "time": 21.796875,
          "velocity": 0.33070866141732286
        },
        {
          "duration": 0.0989583333333357,
          "durationTicks": 19,
          "midi": 53,
          "name": "F3",
          "ticks": 4224,
          "time": 22,
          "velocity": 0.33070866141732286
        },
        {
          "duration": 0.53125,
          "durationTicks": 102,
          "midi": 56,
          "name": "G#3",
          "ticks": 4254,
          "time": 22.15625,
          "velocity": 0.41732283464566927
        },
        {
          "duration": 0.0885416666666643,
          "durationTicks": 17,
          "midi": 72,
          "name": "C5",
          "ticks": 4293,
          "time": 22.359375,
          "velocity": 0.5433070866141733
        },
        {
          "duration": 0.1145833333333357,
          "durationTicks": 22,
          "midi": 70,
          "name": "A#4",
          "ticks": 4323,
          "time": 22.515625,
          "velocity": 0.4015748031496063
        },
        {
          "duration": 0.125,
          "durationTicks": 24,
          "midi": 72,
          "name": "C5",
          "ticks": 4354,
          "time": 22.677083333333336,
          "velocity": 0.5118110236220472
        },
        {
          "duration": 0.0885416666666643,
          "durationTicks": 17,
          "midi": 70,
          "name": "A#4",
          "ticks": 4393,
          "time": 22.880208333333336,
          "velocity": 0.33070866141732286
        },
        {
          "duration": 0.109375,
          "durationTicks": 21,
          "midi": 74,
          "name": "D5",
          "ticks": 4423,
          "time": 23.036458333333336,
          "velocity": 0.4409448818897638
        },
        {
          "duration": 0.109375,
          "durationTicks": 21,
          "midi": 36,
          "name": "C2",
          "ticks": 4423,
          "time": 23.036458333333336,
          "velocity": 0.36220472440944884
        },
        {
          "duration": 0.0885416666666643,
          "durationTicks": 17,
          "midi": 43,
          "name": "G2",
          "ticks": 4461,
          "time": 23.234375,
          "velocity": 0.3937007874015748
        },
        {
          "duration": 0.09375,
          "durationTicks": 18,
          "midi": 48,
          "name": "C3",
          "ticks": 4493,
          "time": 23.401041666666664,
          "velocity": 0.44881889763779526
        },
        {
          "duration": 0.09375,
          "durationTicks": 18,
          "midi": 70,
          "name": "A#4",
          "ticks": 4493,
          "time": 23.401041666666664,
          "velocity": 0.3700787401574803
        },
        {
          "duration": 0.026041666666671404,
          "durationTicks": 5,
          "midi": 70,
          "name": "A#4",
          "ticks": 4523,
          "time": 23.557291666666664,
          "velocity": 0.3937007874015748
        },
        {
          "duration": 0.578125,
          "durationTicks": 111,
          "midi": 51,
          "name": "D#3",
          "ticks": 4523,
          "time": 23.557291666666664,
          "velocity": 0.3937007874015748
        },
        {
          "duration": 0.1145833333333357,
          "durationTicks": 22,
          "midi": 72,
          "name": "C5",
          "ticks": 4592,
          "time": 23.916666666666664,
          "velocity": 0.5433070866141733
        },
        {
          "duration": 0.7708333333333357,
          "durationTicks": 148,
          "midi": 67,
          "name": "G4",
          "ticks": 4623,
          "time": 24.078125,
          "velocity": 0.3700787401574803
        },
        {
          "duration": 0.1197916666666643,
          "durationTicks": 23,
          "midi": 36,
          "name": "C2",
          "ticks": 4692,
          "time": 24.4375,
          "velocity": 0.3858267716535433
        },
        {
          "duration": 0.09375,
          "durationTicks": 18,
          "midi": 43,
          "name": "G2",
          "ticks": 4730,
          "time": 24.635416666666664,
          "velocity": 0.3779527559055118
        },
        {
          "duration": 0.109375,
          "durationTicks": 21,
          "midi": 48,
          "name": "C3",
          "ticks": 4761,
          "time": 24.796875,
          "velocity": 0.4251968503937008
        },
        {
          "duration": 0.49999999999999645,
          "durationTicks": 96,
          "midi": 51,
          "name": "D#3",
          "ticks": 4792,
          "time": 24.958333333333336,
          "velocity": 0.41732283464566927
        },
        {
          "duration": 0.09895833333333215,
          "durationTicks": 19,
          "midi": 72,
          "name": "C5",
          "ticks": 4830,
          "time": 25.15625,
          "velocity": 0.5590551181102362
        },
        {
          "duration": 0.109375,
          "durationTicks": 21,
          "midi": 70,
          "name": "A#4",
          "ticks": 4861,
          "time": 25.317708333333332,
          "velocity": 0.4251968503937008
        },
        {
          "duration": 0.08854166666666785,
          "durationTicks": 17,
          "midi": 72,
          "name": "C5",
          "ticks": 4899,
          "time": 25.515625,
          "velocity": 0.5433070866141733
        },
        {
          "duration": 0.10416666666666785,
          "durationTicks": 20,
          "midi": 70,
          "name": "A#4",
          "ticks": 4930,
          "time": 25.677083333333332,
          "velocity": 0.3700787401574803
        },
        {
          "duration": 0.11458333333333215,
          "durationTicks": 22,
          "midi": 74,
          "name": "D5",
          "ticks": 4961,
          "time": 25.838541666666668,
          "velocity": 0.4330708661417323
        },
        {
          "duration": 0.11458333333333215,
          "durationTicks": 22,
          "midi": 39,
          "name": "D#2",
          "ticks": 4961,
          "time": 25.838541666666668,
          "velocity": 0.3779527559055118
        },
        {
          "duration": 0.09375,
          "durationTicks": 18,
          "midi": 46,
          "name": "A#2",
          "ticks": 4999,
          "time": 26.036458333333332,
          "velocity": 0.3858267716535433
        },
        {
          "duration": 0.046875,
          "durationTicks": 9,
          "midi": 70,
          "name": "A#4",
          "ticks": 5030,
          "time": 26.197916666666668,
          "velocity": 0.36220472440944884
        },
        {
          "duration": 0.1041666666666643,
          "durationTicks": 20,
          "midi": 51,
          "name": "D#3",
          "ticks": 5030,
          "time": 26.197916666666668,
          "velocity": 0.3779527559055118
        },
        {
          "duration": 0.16145833333333215,
          "durationTicks": 31,
          "midi": 70,
          "name": "A#4",
          "ticks": 5061,
          "time": 26.359375,
          "velocity": 0.41732283464566927
        },
        {
          "duration": 0.4791666666666643,
          "durationTicks": 92,
          "midi": 55,
          "name": "G3",
          "ticks": 5069,
          "time": 26.401041666666668,
          "velocity": 0.3464566929133858
        },
        {
          "duration": 0.11458333333333215,
          "durationTicks": 22,
          "midi": 72,
          "name": "C5",
          "ticks": 5129,
          "time": 26.713541666666668,
          "velocity": 0.5275590551181102
        },
        {
          "duration": 0.2760416666666643,
          "durationTicks": 53,
          "midi": 67,
          "name": "G4",
          "ticks": 5168,
          "time": 26.916666666666668,
          "velocity": 0.4251968503937008
        },
        {
          "duration": 0.0885416666666643,
          "durationTicks": 17,
          "midi": 39,
          "name": "D#2",
          "ticks": 5237,
          "time": 27.276041666666668,
          "velocity": 0.36220472440944884
        },
        {
          "duration": 0.10416666666666785,
          "durationTicks": 20,
          "midi": 46,
          "name": "A#2",
          "ticks": 5268,
          "time": 27.4375,
          "velocity": 0.3779527559055118
        },
        {
          "duration": 0.11979166666666785,
          "durationTicks": 23,
          "midi": 51,
          "name": "D#3",
          "ticks": 5299,
          "time": 27.598958333333332,
          "velocity": 0.3700787401574803
        },
        {
          "duration": 0.46875,
          "durationTicks": 90,
          "midi": 55,
          "name": "G3",
          "ticks": 5337,
          "time": 27.796875,
          "velocity": 0.33858267716535434
        },
        {
          "duration": 0.28125,
          "durationTicks": 54,
          "midi": 70,
          "name": "A#4",
          "ticks": 5368,
          "time": 27.958333333333332,
          "velocity": 0.41732283464566927
        },
        {
          "duration": 0.27604166666666785,
          "durationTicks": 53,
          "midi": 72,
          "name": "C5",
          "ticks": 5437,
          "time": 28.317708333333332,
          "velocity": 0.5275590551181102
        },
        {
          "duration": 0.13020833333333215,
          "durationTicks": 25,
          "midi": 67,
          "name": "G4",
          "ticks": 5498,
          "time": 28.635416666666668,
          "velocity": 0.3858267716535433
        },
        {
          "duration": 0.08854166666666785,
          "durationTicks": 17,
          "midi": 34,
          "name": "A#1",
          "ticks": 5506,
          "time": 28.677083333333332,
          "velocity": 0.41732283464566927
        },
        {
          "duration": 0.265625,
          "durationTicks": 51,
          "midi": 65,
          "name": "F4",
          "ticks": 5537,
          "time": 28.838541666666668,
          "velocity": 0.44881889763779526
        },
        {
          "duration": 0.1041666666666643,
          "durationTicks": 20,
          "midi": 41,
          "name": "F2",
          "ticks": 5537,
          "time": 28.838541666666668,
          "velocity": 0.3464566929133858
        },
        {
          "duration": 0.11458333333333215,
          "durationTicks": 22,
          "midi": 46,
          "name": "A#2",
          "ticks": 5568,
          "time": 29,
          "velocity": 0.4251968503937008
        },
        {
          "duration": 0.8020833333333321,
          "durationTicks": 154,
          "midi": 50,
          "name": "D3",
          "ticks": 5606,
          "time": 29.197916666666668,
          "velocity": 0.41732283464566927
        },
        {
          "duration": 0.15625,
          "durationTicks": 30,
          "midi": 34,
          "name": "A#1",
          "ticks": 5775,
          "time": 30.078125,
          "velocity": 0.4015748031496063
        },
        {
          "duration": 0.11458333333333215,
          "durationTicks": 22,
          "midi": 41,
          "name": "F2",
          "ticks": 5805,
          "time": 30.234375,
          "velocity": 0.33858267716535434
        },
        {
          "duration": 0.1197916666666643,
          "durationTicks": 23,
          "midi": 46,
          "name": "A#2",
          "ticks": 5837,
          "time": 30.401041666666668,
          "velocity": 0.4251968503937008
        },
        {
          "duration": 0.09375,
          "durationTicks": 18,
          "midi": 70,
          "name": "A#4",
          "ticks": 5875,
          "time": 30.598958333333332,
          "velocity": 0.4094488188976378
        },
        {
          "duration": 0.40104166666666785,
          "durationTicks": 77,
          "midi": 50,
          "name": "D3",
          "ticks": 5875,
          "time": 30.598958333333332,
          "velocity": 0.3228346456692913
        },
        {
          "duration": 0.109375,
          "durationTicks": 21,
          "midi": 72,
          "name": "C5",
          "ticks": 5905,
          "time": 30.755208333333332,
          "velocity": 0.5511811023622047
        },
        {
          "duration": 0.125,
          "durationTicks": 24,
          "midi": 70,
          "name": "A#4",
          "ticks": 5936,
          "time": 30.916666666666668,
          "velocity": 0.41732283464566927
        },
        {
          "duration": 0.10416666666666785,
          "durationTicks": 20,
          "midi": 72,
          "name": "C5",
          "ticks": 5974,
          "time": 31.114583333333332,
          "velocity": 0.6062992125984252
        },
        {
          "duration": 0.125,
          "durationTicks": 24,
          "midi": 70,
          "name": "A#4",
          "ticks": 6005,
          "time": 31.276041666666668,
          "velocity": 0.33070866141732286
        },
        {
          "duration": 0.09375,
          "durationTicks": 18,
          "midi": 41,
          "name": "F2",
          "ticks": 6044,
          "time": 31.479166666666668,
          "velocity": 0.3700787401574803
        },
        {
          "duration": 1.1822916666666607,
          "durationTicks": 227,
          "midi": 65,
          "name": "F4",
          "ticks": 6044,
          "time": 31.479166666666668,
          "velocity": 0.44881889763779526
        },
        {
          "duration": 1.1822916666666607,
          "durationTicks": 227,
          "midi": 68,
          "name": "G#4",
          "ticks": 6044,
          "time": 31.479166666666668,
          "velocity": 0.3543307086614173
        },
        {
          "duration": 1.1822916666666607,
          "durationTicks": 227,
          "midi": 72,
          "name": "C5",
          "ticks": 6044,
          "time": 31.479166666666668,
          "velocity": 0.5590551181102362
        },
        {
          "duration": 0.11458333333333215,
          "durationTicks": 22,
          "midi": 48,
          "name": "C3",
          "ticks": 6074,
          "time": 31.635416666666668,
          "velocity": 0.30708661417322836
        },
        {
          "duration": 0.0885416666666643,
          "durationTicks": 17,
          "midi": 53,
          "name": "F3",
          "ticks": 6113,
          "time": 31.838541666666668,
          "velocity": 0.41732283464566927
        },
        {
          "duration": 0.8072916666666714,
          "durationTicks": 155,
          "midi": 56,
          "name": "G#3",
          "ticks": 6144,
          "time": 32,
          "velocity": 0.41732283464566927
        },
        {
          "duration": 0.1041666666666714,
          "durationTicks": 20,
          "midi": 41,
          "name": "F2",
          "ticks": 6313,
          "time": 32.88020833333333,
          "velocity": 0.4015748031496063
        },
        {
          "duration": 0.1197916666666714,
          "durationTicks": 23,
          "midi": 48,
          "name": "C3",
          "ticks": 6343,
          "time": 33.03645833333333,
          "velocity": 0.3228346456692913
        },
        {
          "duration": 0.09375,
          "durationTicks": 18,
          "midi": 53,
          "name": "F3",
          "ticks": 6381,
          "time": 33.234375,
          "velocity": 0.31496062992125984
        },
        {
          "duration": 0.375,
          "durationTicks": 72,
          "midi": 56,
          "name": "G#3",
          "ticks": 6413,
          "time": 33.40104166666667,
          "velocity": 0.41732283464566927
        },
        {
          "duration": 0.11979166666665719,
          "durationTicks": 23,
          "midi": 72,
          "name": "C5",
          "ticks": 6443,
          "time": 33.55729166666667,
          "velocity": 0.5590551181102362
        },
        {
          "duration": 0.09375,
          "durationTicks": 18,
          "midi": 70,
          "name": "A#4",
          "ticks": 6481,
          "time": 33.75520833333333,
          "velocity": 0.3779527559055118
        },
        {
          "duration": 0.1145833333333286,
          "durationTicks": 22,
          "midi": 72,
          "name": "C5",
          "ticks": 6512,
          "time": 33.91666666666667,
          "velocity": 0.5669291338582677
        },
        {
          "duration": 0.1302083333333286,
          "durationTicks": 25,
          "midi": 70,
          "name": "A#4",
          "ticks": 6543,
          "time": 34.078125,
          "velocity": 0.3779527559055118
        },
        {
          "duration": 0.10416666666665719,
          "durationTicks": 20,
          "midi": 74,
          "name": "D5",
          "ticks": 6581,
          "time": 34.27604166666667,
          "velocity": 0.4094488188976378
        },
        {
          "duration": 0.10416666666665719,
          "durationTicks": 20,
          "midi": 36,
          "name": "C2",
          "ticks": 6581,
          "time": 34.27604166666667,
          "velocity": 0.3464566929133858
        },
        {
          "duration": 0.10416666666665719,
          "durationTicks": 20,
          "midi": 67,
          "name": "G4",
          "ticks": 6581,
          "time": 34.27604166666667,
          "velocity": 0.36220472440944884
        },
        {
          "duration": 0.1145833333333286,
          "durationTicks": 22,
          "midi": 43,
          "name": "G2",
          "ticks": 6612,
          "time": 34.4375,
          "velocity": 0.33070866141732286
        },
        {
          "duration": 0.0833333333333286,
          "durationTicks": 16,
          "midi": 48,
          "name": "C3",
          "ticks": 6650,
          "time": 34.63541666666667,
          "velocity": 0.4251968503937008
        },
        {
          "duration": 0.0833333333333286,
          "durationTicks": 16,
          "midi": 70,
          "name": "A#4",
          "ticks": 6650,
          "time": 34.63541666666667,
          "velocity": 0.3937007874015748
        },
        {
          "duration": 0.4010416666666714,
          "durationTicks": 77,
          "midi": 51,
          "name": "D#3",
          "ticks": 6681,
          "time": 34.796875,
          "velocity": 0.47244094488188976
        },
        {
          "duration": 0.2760416666666714,
          "durationTicks": 53,
          "midi": 70,
          "name": "A#4",
          "ticks": 6681,
          "time": 34.796875,
          "velocity": 0.4094488188976378
        },
        {
          "duration": 0.09375,
          "durationTicks": 18,
          "midi": 72,
          "name": "C5",
          "ticks": 6750,
          "time": 35.15625,
          "velocity": 0.5118110236220472
        },
        {
          "duration": 0.5052083333333428,
          "durationTicks": 97,
          "midi": 67,
          "name": "G4",
          "ticks": 6781,
          "time": 35.31770833333333,
          "velocity": 0.4094488188976378
        },
        {
          "duration": 0.1041666666666714,
          "durationTicks": 20,
          "midi": 36,
          "name": "C2",
          "ticks": 6850,
          "time": 35.67708333333333,
          "velocity": 0.4251968503937008
        },
        {
          "duration": 0.11979166666665719,
          "durationTicks": 23,
          "midi": 43,
          "name": "G2",
          "ticks": 6881,
          "time": 35.83854166666667,
          "velocity": 0.33858267716535434
        },
        {
          "duration": 0.09375,
          "durationTicks": 18,
          "midi": 48,
          "name": "C3",
          "ticks": 6919,
          "time": 36.03645833333333,
          "velocity": 0.4251968503937008
        },
        {
          "duration": 0.4270833333333286,
          "durationTicks": 82,
          "midi": 51,
          "name": "D#3",
          "ticks": 6950,
          "time": 36.19791666666667,
          "velocity": 0.44881889763779526
        },
        {
          "duration": 0.1145833333333286,
          "durationTicks": 22,
          "midi": 72,
          "name": "C5",
          "ticks": 6981,
          "time": 36.359375,
          "velocity": 0.5748031496062992
        },
        {
          "duration": 0.09375,
          "durationTicks": 18,
          "midi": 70,
          "name": "A#4",
          "ticks": 7019,
          "time": 36.55729166666667,
          "velocity": 0.41732283464566927
        },
        {
          "duration": 0.1145833333333286,
          "durationTicks": 22,
          "midi": 72,
          "name": "C5",
          "ticks": 7049,
          "time": 36.71354166666667,
          "velocity": 0.5905511811023622
        },
        {
          "duration": 0.09375,
          "durationTicks": 18,
          "midi": 70,
          "name": "A#4",
          "ticks": 7088,
          "time": 36.91666666666667,
          "velocity": 0.3779527559055118
        },
        {
          "duration": 0.1041666666666714,
          "durationTicks": 20,
          "midi": 74,
          "name": "D5",
          "ticks": 7119,
          "time": 37.078125,
          "velocity": 0.4566929133858268
        },
        {
          "duration": 0.1041666666666714,
          "durationTicks": 20,
          "midi": 39,
          "name": "D#2",
          "ticks": 7119,
          "time": 37.078125,
          "velocity": 0.3700787401574803
        },
        {
          "duration": 0.0833333333333286,
          "durationTicks": 16,
          "midi": 46,
          "name": "A#2",
          "ticks": 7157,
          "time": 37.27604166666667,
          "velocity": 0.3779527559055118
        },
        {
          "duration": 0.09375,
          "durationTicks": 18,
          "midi": 70,
          "name": "A#4",
          "ticks": 7188,
          "time": 37.4375,
          "velocity": 0.3779527559055118
        },
        {
          "duration": 0.09375,
          "durationTicks": 18,
          "midi": 51,
          "name": "D#3",
          "ticks": 7188,
          "time": 37.4375,
          "velocity": 0.3779527559055118
        },
        {
          "duration": 0.421875,
          "durationTicks": 81,
          "midi": 55,
          "name": "G3",
          "ticks": 7219,
          "time": 37.59895833333333,
          "velocity": 0.3228346456692913
        },
        {
          "duration": 0.2864583333333428,
          "durationTicks": 55,
          "midi": 70,
          "name": "A#4",
          "ticks": 7219,
          "time": 37.59895833333333,
          "velocity": 0.4409448818897638
        },
        {
          "duration": 0.09895833333334281,
          "durationTicks": 19,
          "midi": 72,
          "name": "C5",
          "ticks": 7288,
          "time": 37.95833333333333,
          "velocity": 0.49606299212598426
        },
        {
          "duration": 0.3333333333333428,
          "durationTicks": 64,
          "midi": 67,
          "name": "G4",
          "ticks": 7318,
          "time": 38.11458333333333,
          "velocity": 0.4251968503937008
        },
        {
          "duration": 0.1145833333333286,
          "durationTicks": 22,
          "midi": 39,
          "name": "D#2",
          "ticks": 7388,
          "time": 38.47916666666667,
          "velocity": 0.3700787401574803
        },
        {
          "duration": 0.09375,
          "durationTicks": 18,
          "midi": 46,
          "name": "A#2",
          "ticks": 7426,
          "time": 38.67708333333333,
          "velocity": 0.4015748031496063
        },
        {
          "duration": 0.10416666666665719,
          "durationTicks": 20,
          "midi": 51,
          "name": "D#3",
          "ticks": 7457,
          "time": 38.83854166666667,
          "velocity": 0.3779527559055118
        },
        {
          "duration": 0.4791666666666714,
          "durationTicks": 92,
          "midi": 55,
          "name": "G3",
          "ticks": 7488,
          "time": 39,
          "velocity": 0.33070866141732286
        },
        {
          "duration": 0.2604166666666572,
          "durationTicks": 50,
          "midi": 70,
          "name": "A#4",
          "ticks": 7526,
          "time": 39.19791666666667,
          "velocity": 0.4251968503937008
        },
        {
          "duration": 0.3072916666666714,
          "durationTicks": 59,
          "midi": 72,
          "name": "C5",
          "ticks": 7587,
          "time": 39.515625,
          "velocity": 0.5196850393700787
        },
        {
          "duration": 0.11458333333334281,
          "durationTicks": 22,
          "midi": 34,
          "name": "A#1",
          "ticks": 7657,
          "time": 39.88020833333333,
          "velocity": 0.4015748031496063
        },
        {
          "duration": 0.11458333333334281,
          "durationTicks": 22,
          "midi": 67,
          "name": "G4",
          "ticks": 7657,
          "time": 39.88020833333333,
          "velocity": 0.4094488188976378
        },
        {
          "duration": 0.859375,
          "durationTicks": 165,
          "midi": 65,
          "name": "F4",
          "ticks": 7695,
          "time": 40.078125,
          "velocity": 0.4409448818897638
        },
        {
          "duration": 0.09375,
          "durationTicks": 18,
          "midi": 41,
          "name": "F2",
          "ticks": 7695,
          "time": 40.078125,
          "velocity": 0.3543307086614173
        },
        {
          "duration": 0.109375,
          "durationTicks": 21,
          "midi": 46,
          "name": "A#2",
          "ticks": 7725,
          "time": 40.234375,
          "velocity": 0.41732283464566927
        },
        {
          "duration": 0.7916666666666643,
          "durationTicks": 152,
          "midi": 50,
          "name": "D3",
          "ticks": 7764,
          "time": 40.4375,
          "velocity": 0.41732283464566927
        },
        {
          "duration": 0.125,
          "durationTicks": 24,
          "midi": 34,
          "name": "A#1",
          "ticks": 7925,
          "time": 41.276041666666664,
          "velocity": 0.3937007874015748
        },
        {
          "duration": 0.09375,
          "durationTicks": 18,
          "midi": 41,
          "name": "F2",
          "ticks": 7964,
          "time": 41.479166666666664,
          "velocity": 0.3464566929133858
        },
        {
          "duration": 0.109375,
          "durationTicks": 21,
          "midi": 46,
          "name": "A#2",
          "ticks": 7994,
          "time": 41.635416666666664,
          "velocity": 0.4409448818897638
        },
        {
          "duration": 0.125,
          "durationTicks": 24,
          "midi": 50,
          "name": "D3",
          "ticks": 8025,
          "time": 41.796875,
          "velocity": 0.31496062992125984
        },
        {
          "duration": 0.125,
          "durationTicks": 24,
          "midi": 70,
          "name": "A#4",
          "ticks": 8025,
          "time": 41.796875,
          "velocity": 0.4094488188976378
        },
        {
          "duration": 0.09375,
          "durationTicks": 18,
          "midi": 72,
          "name": "C5",
          "ticks": 8064,
          "time": 42,
          "velocity": 0.5196850393700787
        },
        {
          "duration": 0.1145833333333357,
          "durationTicks": 22,
          "midi": 70,
          "name": "A#4",
          "ticks": 8094,
          "time": 42.15625,
          "velocity": 0.4251968503937008
        },
        {
          "duration": 0.0885416666666643,
          "durationTicks": 17,
          "midi": 72,
          "name": "C5",
          "ticks": 8133,
          "time": 42.359375,
          "velocity": 0.5905511811023622
        },
        {
          "duration": 0.1145833333333357,
          "durationTicks": 22,
          "midi": 70,
          "name": "A#4",
          "ticks": 8163,
          "time": 42.515625,
          "velocity": 0.4015748031496063
        },
        {
          "duration": 0.0885416666666714,
          "durationTicks": 17,
          "midi": 41,
          "name": "F2",
          "ticks": 8201,
          "time": 42.713541666666664,
          "velocity": 0.4094488188976378
        },
        {
          "duration": 0.0989583333333286,
          "durationTicks": 19,
          "midi": 48,
          "name": "C3",
          "ticks": 8233,
          "time": 42.880208333333336,
          "velocity": 0.3543307086614173
        },
        {
          "duration": 0.1145833333333286,
          "durationTicks": 22,
          "midi": 72,
          "name": "C5",
          "ticks": 8263,
          "time": 43.036458333333336,
          "velocity": 0.4881889763779528
        },
        {
          "duration": 0.1145833333333286,
          "durationTicks": 22,
          "midi": 53,
          "name": "F3",
          "ticks": 8263,
          "time": 43.036458333333336,
          "velocity": 0.36220472440944884
        },
        {
          "duration": 0.0885416666666643,
          "durationTicks": 17,
          "midi": 56,
          "name": "G#3",
          "ticks": 8301,
          "time": 43.234375,
          "velocity": 0.5039370078740157
        },
        {
          "duration": 0.0885416666666643,
          "durationTicks": 17,
          "midi": 53,
          "name": "F3",
          "ticks": 8301,
          "time": 43.234375,
          "velocity": 0.41732283464566927
        },
        {
          "duration": 0.0885416666666643,
          "durationTicks": 17,
          "midi": 60,
          "name": "C4",
          "ticks": 8301,
          "time": 43.234375,
          "velocity": 0.41732283464566927
        },
        {
          "duration": 0.0885416666666643,
          "durationTicks": 17,
          "midi": 72,
          "name": "C5",
          "ticks": 8301,
          "time": 43.234375,
          "velocity": 0.41732283464566927
        },
        {
          "duration": 0.0520833333333357,
          "durationTicks": 10,
          "midi": 72,
          "name": "C5",
          "ticks": 8333,
          "time": 43.401041666666664,
          "velocity": 0.4330708661417323
        },
        {
          "duration": 0.0885416666666714,
          "durationTicks": 17,
          "midi": 75,
          "name": "D#5",
          "ticks": 8333,
          "time": 43.401041666666664,
          "velocity": 0.4881889763779528
        },
        {
          "duration": 0.109375,
          "durationTicks": 21,
          "midi": 77,
          "name": "F5",
          "ticks": 8363,
          "time": 43.557291666666664,
          "velocity": 0.6062992125984252
        },
        {
          "duration": 0.109375,
          "durationTicks": 21,
          "midi": 72,
          "name": "C5",
          "ticks": 8363,
          "time": 43.557291666666664,
          "velocity": 0.49606299212598426
        },
        {
          "duration": 0.0885416666666643,
          "durationTicks": 17,
          "midi": 60,
          "name": "C4",
          "ticks": 8401,
          "time": 43.755208333333336,
          "velocity": 0.4094488188976378
        },
        {
          "duration": 0.0885416666666643,
          "durationTicks": 17,
          "midi": 53,
          "name": "F3",
          "ticks": 8401,
          "time": 43.755208333333336,
          "velocity": 0.4566929133858268
        },
        {
          "duration": 0.0885416666666643,
          "durationTicks": 17,
          "midi": 56,
          "name": "G#3",
          "ticks": 8401,
          "time": 43.755208333333336,
          "velocity": 0.47244094488188976
        },
        {
          "duration": 0.1041666666666714,
          "durationTicks": 20,
          "midi": 72,
          "name": "C5",
          "ticks": 8432,
          "time": 43.916666666666664,
          "velocity": 0.3937007874015748
        },
        {
          "duration": 0.1041666666666714,
          "durationTicks": 20,
          "midi": 79,
          "name": "G5",
          "ticks": 8432,
          "time": 43.916666666666664,
          "velocity": 0.5590551181102362
        },
        {
          "duration": 0.078125,
          "durationTicks": 15,
          "midi": 41,
          "name": "F2",
          "ticks": 8470,
          "time": 44.114583333333336,
          "velocity": 0.4409448818897638
        },
        {
          "duration": 0.09375,
          "durationTicks": 18,
          "midi": 48,
          "name": "C3",
          "ticks": 8501,
          "time": 44.276041666666664,
          "velocity": 0.33858267716535434
        },
        {
          "duration": 0.09375,
          "durationTicks": 18,
          "midi": 72,
          "name": "C5",
          "ticks": 8501,
          "time": 44.276041666666664,
          "velocity": 0.5118110236220472
        },
        {
          "duration": 0.1041666666666643,
          "durationTicks": 20,
          "midi": 53,
          "name": "F3",
          "ticks": 8532,
          "time": 44.4375,
          "velocity": 0.3464566929133858
        },
        {
          "duration": 0.171875,
          "durationTicks": 33,
          "midi": 60,
          "name": "C4",
          "ticks": 8570,
          "time": 44.635416666666664,
          "velocity": 0.5118110236220472
        },
        {
          "duration": 0.2604166666666714,
          "durationTicks": 50,
          "midi": 75,
          "name": "D#5",
          "ticks": 8570,
          "time": 44.635416666666664,
          "velocity": 0.4645669291338583
        },
        {
          "duration": 0.171875,
          "durationTicks": 33,
          "midi": 53,
          "name": "F3",
          "ticks": 8570,
          "time": 44.635416666666664,
          "velocity": 0.4094488188976378
        },
        {
          "duration": 0.1979166666666714,
          "durationTicks": 38,
          "midi": 72,
          "name": "C5",
          "ticks": 8570,
          "time": 44.635416666666664,
          "velocity": 0.4566929133858268
        },
        {
          "duration": 0.171875,
          "durationTicks": 33,
          "midi": 56,
          "name": "G#3",
          "ticks": 8570,
          "time": 44.635416666666664,
          "velocity": 0.49606299212598426
        },
        {
          "duration": 0.0885416666666643,
          "durationTicks": 17,
          "midi": 72,
          "name": "C5",
          "ticks": 8632,
          "time": 44.958333333333336,
          "velocity": 0.5748031496062992
        },
        {
          "duration": 0.125,
          "durationTicks": 24,
          "midi": 77,
          "name": "F5",
          "ticks": 8632,
          "time": 44.958333333333336,
          "velocity": 0.49606299212598426
        },
        {
          "duration": 0.1875,
          "durationTicks": 36,
          "midi": 56,
          "name": "G#3",
          "ticks": 8670,
          "time": 45.15625,
          "velocity": 0.4566929133858268
        },
        {
          "duration": 0.1875,
          "durationTicks": 36,
          "midi": 60,
          "name": "C4",
          "ticks": 8670,
          "time": 45.15625,
          "velocity": 0.48031496062992124
        },
        {
          "duration": 0.1875,
          "durationTicks": 36,
          "midi": 53,
          "name": "F3",
          "ticks": 8670,
          "time": 45.15625,
          "velocity": 0.44881889763779526
        },
        {
          "duration": 0.1197916666666714,
          "durationTicks": 23,
          "midi": 72,
          "name": "C5",
          "ticks": 8732,
          "time": 45.479166666666664,
          "velocity": 0.5669291338582677
        },
        {
          "duration": 0.0833333333333357,
          "durationTicks": 16,
          "midi": 36,
          "name": "C2",
          "ticks": 8739,
          "time": 45.515625,
          "velocity": 0.3937007874015748
        },
        {
          "duration": 0.09375,
          "durationTicks": 18,
          "midi": 43,
          "name": "G2",
          "ticks": 8770,
          "time": 45.677083333333336,
          "velocity": 0.3543307086614173
        },
        {
          "duration": 0.1041666666666714,
          "durationTicks": 20,
          "midi": 48,
          "name": "C3",
          "ticks": 8801,
          "time": 45.838541666666664,
          "velocity": 0.47244094488188976
        },
        {
          "duration": 0.1041666666666714,
          "durationTicks": 20,
          "midi": 72,
          "name": "C5",
          "ticks": 8801,
          "time": 45.838541666666664,
          "velocity": 0.5039370078740157
        },
        {
          "duration": 0.0833333333333286,
          "durationTicks": 16,
          "midi": 55,
          "name": "G3",
          "ticks": 8839,
          "time": 46.036458333333336,
          "velocity": 0.36220472440944884
        },
        {
          "duration": 0.0833333333333286,
          "durationTicks": 16,
          "midi": 60,
          "name": "C4",
          "ticks": 8839,
          "time": 46.036458333333336,
          "velocity": 0.5118110236220472
        },
        {
          "duration": 0.0833333333333286,
          "durationTicks": 16,
          "midi": 51,
          "name": "D#3",
          "ticks": 8839,
          "time": 46.036458333333336,
          "velocity": 0.4015748031496063
        },
        {
          "duration": 0.0729166666666714,
          "durationTicks": 14,
          "midi": 72,
          "name": "C5",
          "ticks": 8870,
          "time": 46.197916666666664,
          "velocity": 0.47244094488188976
        },
        {
          "duration": 0.0989583333333357,
          "durationTicks": 19,
          "midi": 75,
          "name": "D#5",
          "ticks": 8870,
          "time": 46.197916666666664,
          "velocity": 0.41732283464566927
        },
        {
          "duration": 0.0833333333333357,
          "durationTicks": 16,
          "midi": 72,
          "name": "C5",
          "ticks": 8901,
          "time": 46.359375,
          "velocity": 0.5590551181102362
        },
        {
          "duration": 0.1197916666666643,
          "durationTicks": 23,
          "midi": 77,
          "name": "F5",
          "ticks": 8901,
          "time": 46.359375,
          "velocity": 0.5826771653543307
        },
        {
          "duration": 0.0989583333333357,
          "durationTicks": 19,
          "midi": 55,
          "name": "G3",
          "ticks": 8939,
          "time": 46.557291666666664,
          "velocity": 0.36220472440944884
        },
        {
          "duration": 0.0989583333333357,
          "durationTicks": 19,
          "midi": 60,
          "name": "C4",
          "ticks": 8939,
          "time": 46.557291666666664,
          "velocity": 0.5511811023622047
        },
        {
          "duration": 0.0989583333333357,
          "durationTicks": 19,
          "midi": 51,
          "name": "D#3",
          "ticks": 8939,
          "time": 46.557291666666664,
          "velocity": 0.3543307086614173
        },
        {
          "duration": 0.1197916666666714,
          "durationTicks": 23,
          "midi": 72,
          "name": "C5",
          "ticks": 8969,
          "time": 46.713541666666664,
          "velocity": 0.3858267716535433
        },
        {
          "duration": 0.1197916666666714,
          "durationTicks": 23,
          "midi": 79,
          "name": "G5",
          "ticks": 8969,
          "time": 46.713541666666664,
          "velocity": 0.48031496062992124
        },
        {
          "duration": 0.0833333333333357,
          "durationTicks": 16,
          "midi": 36,
          "name": "C2",
          "ticks": 9008,
          "time": 46.916666666666664,
          "velocity": 0.4645669291338583
        },
        {
          "duration": 0.0885416666666643,
          "durationTicks": 17,
          "midi": 43,
          "name": "G2",
          "ticks": 9039,
          "time": 47.078125,
          "velocity": 0.3543307086614173
        },
        {
          "duration": 0.0885416666666643,
          "durationTicks": 17,
          "midi": 72,
          "name": "C5",
          "ticks": 9039,
          "time": 47.078125,
          "velocity": 0.5354330708661418
        },
        {
          "duration": 0.109375,
          "durationTicks": 21,
          "midi": 48,
          "name": "C3",
          "ticks": 9069,
          "time": 47.234375,
          "velocity": 0.49606299212598426
        },
        {
          "duration": 0.171875,
          "durationTicks": 33,
          "midi": 55,
          "name": "G3",
          "ticks": 9108,
          "time": 47.4375,
          "velocity": 0.3700787401574803
        },
        {
          "duration": 0.2604166666666643,
          "durationTicks": 50,
          "midi": 75,
          "name": "D#5",
          "ticks": 9108,
          "time": 47.4375,
          "velocity": 0.4409448818897638
        },
        {
          "duration": 0.171875,
          "durationTicks": 33,
          "midi": 51,
          "name": "D#3",
          "ticks": 9108,
          "time": 47.4375,
          "velocity": 0.4251968503937008
        },
        {
          "duration": 0.2604166666666643,
          "durationTicks": 50,
          "midi": 72,
          "name": "C5",
          "ticks": 9108,
          "time": 47.4375,
          "velocity": 0.5196850393700787
        },
        {
          "duration": 0.171875,
          "durationTicks": 33,
          "midi": 60,
          "name": "C4",
          "ticks": 9108,
          "time": 47.4375,
          "velocity": 0.5275590551181102
        },
        {
          "duration": 0.0833333333333357,
          "durationTicks": 16,
          "midi": 77,
          "name": "F5",
          "ticks": 9177,
          "time": 47.796875,
          "velocity": 0.4645669291338583
        },
        {
          "duration": 0.0833333333333357,
          "durationTicks": 16,
          "midi": 72,
          "name": "C5",
          "ticks": 9177,
          "time": 47.796875,
          "velocity": 0.5433070866141733
        },
        {
          "duration": 0.1822916666666643,
          "durationTicks": 35,
          "midi": 51,
          "name": "D#3",
          "ticks": 9208,
          "time": 47.958333333333336,
          "velocity": 0.3543307086614173
        },
        {
          "duration": 0.1822916666666643,
          "durationTicks": 35,
          "midi": 60,
          "name": "C4",
          "ticks": 9208,
          "time": 47.958333333333336,
          "velocity": 0.5118110236220472
        },
        {
          "duration": 0.1822916666666643,
          "durationTicks": 35,
          "midi": 55,
          "name": "G3",
          "ticks": 9208,
          "time": 47.958333333333336,
          "velocity": 0.3700787401574803
        },
        {
          "duration": 0.0885416666666643,
          "durationTicks": 17,
          "midi": 70,
          "name": "A#4",
          "ticks": 9277,
          "time": 48.317708333333336,
          "velocity": 0.4330708661417323
        },
        {
          "duration": 0.0885416666666643,
          "durationTicks": 17,
          "midi": 39,
          "name": "D#2",
          "ticks": 9277,
          "time": 48.317708333333336,
          "velocity": 0.3779527559055118
        },
        {
          "duration": 0.1041666666666714,
          "durationTicks": 20,
          "midi": 46,
          "name": "A#2",
          "ticks": 9308,
          "time": 48.479166666666664,
          "velocity": 0.4015748031496063
        },
        {
          "duration": 0.1197916666666714,
          "durationTicks": 23,
          "midi": 72,
          "name": "C5",
          "ticks": 9338,
          "time": 48.635416666666664,
          "velocity": 0.5118110236220472
        },
        {
          "duration": 0.078125,
          "durationTicks": 15,
          "midi": 51,
          "name": "D#3",
          "ticks": 9346,
          "time": 48.677083333333336,
          "velocity": 0.4094488188976378
        },
        {
          "duration": 0.09375,
          "durationTicks": 18,
          "midi": 58,
          "name": "A#3",
          "ticks": 9377,
          "time": 48.838541666666664,
          "velocity": 0.5039370078740157
        },
        {
          "duration": 0.09375,
          "durationTicks": 18,
          "midi": 51,
          "name": "D#3",
          "ticks": 9377,
          "time": 48.838541666666664,
          "velocity": 0.4094488188976378
        },
        {
          "duration": 0.09375,
          "durationTicks": 18,
          "midi": 55,
          "name": "G3",
          "ticks": 9377,
          "time": 48.838541666666664,
          "velocity": 0.3228346456692913
        },
        {
          "duration": 0.109375,
          "durationTicks": 21,
          "midi": 75,
          "name": "D#5",
          "ticks": 9408,
          "time": 49,
          "velocity": 0.4409448818897638
        },
        {
          "duration": 0.09375,
          "durationTicks": 18,
          "midi": 77,
          "name": "F5",
          "ticks": 9446,
          "time": 49.197916666666664,
          "velocity": 0.5826771653543307
        },
        {
          "duration": 0.1041666666666643,
          "durationTicks": 20,
          "midi": 58,
          "name": "A#3",
          "ticks": 9477,
          "time": 49.359375,
          "velocity": 0.5196850393700787
        },
        {
          "duration": 0.1041666666666643,
          "durationTicks": 20,
          "midi": 55,
          "name": "G3",
          "ticks": 9477,
          "time": 49.359375,
          "velocity": 0.33858267716535434
        },
        {
          "duration": 0.1041666666666643,
          "durationTicks": 20,
          "midi": 51,
          "name": "D#3",
          "ticks": 9477,
          "time": 49.359375,
          "velocity": 0.33858267716535434
        },
        {
          "duration": 0.125,
          "durationTicks": 24,
          "midi": 79,
          "name": "G5",
          "ticks": 9507,
          "time": 49.515625,
          "velocity": 0.49606299212598426
        },
        {
          "duration": 0.0989583333333357,
          "durationTicks": 19,
          "midi": 39,
          "name": "D#2",
          "ticks": 9545,
          "time": 49.713541666666664,
          "velocity": 0.3858267716535433
        },
        {
          "duration": 0.109375,
          "durationTicks": 21,
          "midi": 46,
          "name": "A#2",
          "ticks": 9577,
          "time": 49.880208333333336,
          "velocity": 0.41732283464566927
        },
        {
          "duration": 0.109375,
          "durationTicks": 21,
          "midi": 72,
          "name": "C5",
          "ticks": 9577,
          "time": 49.880208333333336,
          "velocity": 0.5826771653543307
        },
        {
          "duration": 0.046875,
          "durationTicks": 9,
          "midi": 51,
          "name": "D#3",
          "ticks": 9615,
          "time": 50.078125,
          "velocity": 0.4094488188976378
        },
        {
          "duration": 0.2760416666666643,
          "durationTicks": 53,
          "midi": 58,
          "name": "A#3",
          "ticks": 9645,
          "time": 50.234375,
          "velocity": 0.5354330708661418
        },
        {
          "duration": 0.2760416666666643,
          "durationTicks": 53,
          "midi": 75,
          "name": "D#5",
          "ticks": 9645,
          "time": 50.234375,
          "velocity": 0.44881889763779526
        },
        {
          "duration": 0.2760416666666643,
          "durationTicks": 53,
          "midi": 55,
          "name": "G3",
          "ticks": 9645,
          "time": 50.234375,
          "velocity": 0.33070866141732286
        },
        {
          "duration": 0.2760416666666643,
          "durationTicks": 53,
          "midi": 51,
          "name": "D#3",
          "ticks": 9646,
          "time": 50.239583333333336,
          "velocity": 0.33070866141732286
        },
        {
          "duration": 0.0885416666666643,
          "durationTicks": 17,
          "midi": 77,
          "name": "F5",
          "ticks": 9715,
          "time": 50.598958333333336,
          "velocity": 0.5826771653543307
        },
        {
          "duration": 0.109375,
          "durationTicks": 21,
          "midi": 51,
          "name": "D#3",
          "ticks": 9745,
          "time": 50.755208333333336,
          "velocity": 0.36220472440944884
        },
        {
          "duration": 0.109375,
          "durationTicks": 21,
          "midi": 55,
          "name": "G3",
          "ticks": 9745,
          "time": 50.755208333333336,
          "velocity": 0.3464566929133858
        },
        {
          "duration": 0.109375,
          "durationTicks": 21,
          "midi": 58,
          "name": "A#3",
          "ticks": 9745,
          "time": 50.755208333333336,
          "velocity": 0.49606299212598426
        },
        {
          "duration": 0.0729166666666714,
          "durationTicks": 14,
          "midi": 74,
          "name": "D5",
          "ticks": 9776,
          "time": 50.916666666666664,
          "velocity": 0.48031496062992124
        },
        {
          "duration": 0.5885416666666643,
          "durationTicks": 113,
          "midi": 34,
          "name": "A#1",
          "ticks": 9814,
          "time": 51.114583333333336,
          "velocity": 0.4409448818897638
        },
        {
          "duration": 0.6041666666666643,
          "durationTicks": 116,
          "midi": 70,
          "name": "A#4",
          "ticks": 9814,
          "time": 51.114583333333336,
          "velocity": 0.41732283464566927
        },
        {
          "duration": 0.6041666666666643,
          "durationTicks": 116,
          "midi": 74,
          "name": "D5",
          "ticks": 9814,
          "time": 51.114583333333336,
          "velocity": 0.5748031496062992
        },
        {
          "duration": 0.5885416666666643,
          "durationTicks": 113,
          "midi": 46,
          "name": "A#2",
          "ticks": 9814,
          "time": 51.114583333333336,
          "velocity": 0.48031496062992124
        },
        {
          "duration": 0.6197916666666643,
          "durationTicks": 119,
          "midi": 72,
          "name": "C5",
          "ticks": 9945,
          "time": 51.796875,
          "velocity": 0.6141732283464567
        },
        {
          "duration": 0.390625,
          "durationTicks": 75,
          "midi": 34,
          "name": "A#1",
          "ticks": 10083,
          "time": 52.515625,
          "velocity": 0.33070866141732286
        },
        {
          "duration": 0.390625,
          "durationTicks": 75,
          "midi": 22,
          "name": "A#0",
          "ticks": 10083,
          "time": 52.515625,
          "velocity": 0.29133858267716534
        },
        {
          "duration": 0.390625,
          "durationTicks": 75,
          "midi": 70,
          "name": "A#4",
          "ticks": 10083,
          "time": 52.515625,
          "velocity": 0.47244094488188976
        },
        {
          "duration": 0.390625,
          "durationTicks": 75,
          "midi": 82,
          "name": "A#5",
          "ticks": 10083,
          "time": 52.515625,
          "velocity": 0.3543307086614173
        },
        {
          "duration": 0.1145833333333286,
          "durationTicks": 22,
          "midi": 70,
          "name": "A#4",
          "ticks": 10183,
          "time": 53.036458333333336,
          "velocity": 0.49606299212598426
        },
        {
          "duration": 0.1145833333333286,
          "durationTicks": 22,
          "midi": 82,
          "name": "A#5",
          "ticks": 10183,
          "time": 53.036458333333336,
          "velocity": 0.48031496062992124
        },
        {
          "duration": 0.28125,
          "durationTicks": 54,
          "midi": 75,
          "name": "D#5",
          "ticks": 10253,
          "time": 53.401041666666664,
          "velocity": 0.5354330708661418
        },
        {
          "duration": 0.28125,
          "durationTicks": 54,
          "midi": 70,
          "name": "A#4",
          "ticks": 10253,
          "time": 53.401041666666664,
          "velocity": 0.41732283464566927
        },
        {
          "duration": 0.21875,
          "durationTicks": 42,
          "midi": 53,
          "name": "F3",
          "ticks": 10352,
          "time": 53.916666666666664,
          "velocity": 0.4409448818897638
        },
        {
          "duration": 0.125,
          "durationTicks": 24,
          "midi": 68,
          "name": "G#4",
          "ticks": 10352,
          "time": 53.916666666666664,
          "velocity": 0.4015748031496063
        },
        {
          "duration": 0.125,
          "durationTicks": 24,
          "midi": 77,
          "name": "F5",
          "ticks": 10352,
          "time": 53.916666666666664,
          "velocity": 0.5354330708661418
        },
        {
          "duration": 0.21875,
          "durationTicks": 42,
          "midi": 41,
          "name": "F2",
          "ticks": 10352,
          "time": 53.916666666666664,
          "velocity": 0.4645669291338583
        },
        {
          "duration": 0.125,
          "durationTicks": 24,
          "midi": 72,
          "name": "C5",
          "ticks": 10352,
          "time": 53.916666666666664,
          "velocity": 0.3858267716535433
        },
        {
          "duration": 0.0729166666666714,
          "durationTicks": 14,
          "midi": 53,
          "name": "F3",
          "ticks": 10421,
          "time": 54.276041666666664,
          "velocity": 0.5748031496062992
        },
        {
          "duration": 0.1666666666666643,
          "durationTicks": 32,
          "midi": 60,
          "name": "C4",
          "ticks": 10452,
          "time": 54.4375,
          "velocity": 0.4015748031496063
        },
        {
          "duration": 0.1666666666666643,
          "durationTicks": 32,
          "midi": 56,
          "name": "G#3",
          "ticks": 10452,
          "time": 54.4375,
          "velocity": 0.3858267716535433
        },
        {
          "duration": 0.078125,
          "durationTicks": 15,
          "midi": 53,
          "name": "F3",
          "ticks": 10521,
          "time": 54.796875,
          "velocity": 0.5669291338582677
        },
        {
          "duration": 0.1770833333333286,
          "durationTicks": 34,
          "midi": 60,
          "name": "C4",
          "ticks": 10552,
          "time": 54.958333333333336,
          "velocity": 0.4881889763779528
        },
        {
          "duration": 0.1770833333333286,
          "durationTicks": 34,
          "midi": 56,
          "name": "G#3",
          "ticks": 10552,
          "time": 54.958333333333336,
          "velocity": 0.4409448818897638
        },
        {
          "duration": 0.21875,
          "durationTicks": 42,
          "midi": 53,
          "name": "F3",
          "ticks": 10621,
          "time": 55.317708333333336,
          "velocity": 0.5118110236220472
        },
        {
          "duration": 0.21875,
          "durationTicks": 42,
          "midi": 41,
          "name": "F2",
          "ticks": 10621,
          "time": 55.317708333333336,
          "velocity": 0.5433070866141733
        },
        {
          "duration": 0.0729166666666643,
          "durationTicks": 14,
          "midi": 53,
          "name": "F3",
          "ticks": 10690,
          "time": 55.677083333333336,
          "velocity": 0.5669291338582677
        },
        {
          "duration": 0.125,
          "durationTicks": 24,
          "midi": 56,
          "name": "G#3",
          "ticks": 10721,
          "time": 55.838541666666664,
          "velocity": 0.4094488188976378
        },
        {
          "duration": 0.125,
          "durationTicks": 24,
          "midi": 60,
          "name": "C4",
          "ticks": 10721,
          "time": 55.838541666666664,
          "velocity": 0.5039370078740157
        },
        {
          "duration": 0.078125,
          "durationTicks": 15,
          "midi": 68,
          "name": "G#4",
          "ticks": 10790,
          "time": 56.197916666666664,
          "velocity": 0.3858267716535433
        },
        {
          "duration": 0.078125,
          "durationTicks": 15,
          "midi": 53,
          "name": "F3",
          "ticks": 10790,
          "time": 56.197916666666664,
          "velocity": 0.5433070866141733
        },
        {
          "duration": 0.078125,
          "durationTicks": 15,
          "midi": 77,
          "name": "F5",
          "ticks": 10790,
          "time": 56.197916666666664,
          "velocity": 0.6220472440944882
        },
        {
          "duration": 0.0364583333333357,
          "durationTicks": 7,
          "midi": 72,
          "name": "C5",
          "ticks": 10791,
          "time": 56.203125,
          "velocity": 0.3858267716535433
        },
        {
          "duration": 0.234375,
          "durationTicks": 45,
          "midi": 72,
          "name": "C5",
          "ticks": 10821,
          "time": 56.359375,
          "velocity": 0.47244094488188976
        },
        {
          "duration": 0.1302083333333357,
          "durationTicks": 25,
          "midi": 60,
          "name": "C4",
          "ticks": 10821,
          "time": 56.359375,
          "velocity": 0.47244094488188976
        },
        {
          "duration": 0.1302083333333357,
          "durationTicks": 25,
          "midi": 56,
          "name": "G#3",
          "ticks": 10821,
          "time": 56.359375,
          "velocity": 0.4094488188976378
        },
        {
          "duration": 0.234375,
          "durationTicks": 45,
          "midi": 79,
          "name": "G5",
          "ticks": 10821,
          "time": 56.359375,
          "velocity": 0.5275590551181102
        },
        {
          "duration": 0.234375,
          "durationTicks": 45,
          "midi": 72,
          "name": "C5",
          "ticks": 10889,
          "time": 56.713541666666664,
          "velocity": 0.44881889763779526
        },
        {
          "duration": 0.234375,
          "durationTicks": 45,
          "midi": 48,
          "name": "C3",
          "ticks": 10889,
          "time": 56.713541666666664,
          "velocity": 0.4566929133858268
        },
        {
          "duration": 0.265625,
          "durationTicks": 51,
          "midi": 36,
          "name": "C2",
          "ticks": 10889,
          "time": 56.713541666666664,
          "velocity": 0.33070866141732286
        },
        {
          "duration": 0.234375,
          "durationTicks": 45,
          "midi": 77,
          "name": "F5",
          "ticks": 10889,
          "time": 56.713541666666664,
          "velocity": 0.5511811023622047
        },
        {
          "duration": 0.078125,
          "durationTicks": 15,
          "midi": 55,
          "name": "G3",
          "ticks": 10959,
          "time": 57.078125,
          "velocity": 0.49606299212598426
        },
        {
          "duration": 0.0520833333333357,
          "durationTicks": 10,
          "midi": 72,
          "name": "C5",
          "ticks": 10959,
          "time": 57.078125,
          "velocity": 0.4566929133858268
        },
        {
          "duration": 0.0520833333333357,
          "durationTicks": 10,
          "midi": 75,
          "name": "D#5",
          "ticks": 10959,
          "time": 57.078125,
          "velocity": 0.5039370078740157
        },
        {
          "duration": 0.2083333333333357,
          "durationTicks": 40,
          "midi": 60,
          "name": "C4",
          "ticks": 10989,
          "time": 57.234375,
          "velocity": 0.4566929133858268
        },
        {
          "duration": 0.2083333333333357,
          "durationTicks": 40,
          "midi": 63,
          "name": "D#4",
          "ticks": 10989,
          "time": 57.234375,
          "velocity": 0.5275590551181102
        },
        {
          "duration": 0.140625,
          "durationTicks": 27,
          "midi": 75,
          "name": "D#5",
          "ticks": 10989,
          "time": 57.234375,
          "velocity": 0.5196850393700787
        },
        {
          "duration": 0.140625,
          "durationTicks": 27,
          "midi": 72,
          "name": "C5",
          "ticks": 10989,
          "time": 57.234375,
          "velocity": 0.4015748031496063
        },
        {
          "duration": 0.109375,
          "durationTicks": 21,
          "midi": 67,
          "name": "G4",
          "ticks": 11059,
          "time": 57.598958333333336,
          "velocity": 0.3543307086614173
        },
        {
          "duration": 0.109375,
          "durationTicks": 21,
          "midi": 72,
          "name": "C5",
          "ticks": 11059,
          "time": 57.598958333333336,
          "velocity": 0.44881889763779526
        },
        {
          "duration": 0.1614583333333357,
          "durationTicks": 31,
          "midi": 63,
          "name": "D#4",
          "ticks": 11097,
          "time": 57.796875,
          "velocity": 0.5039370078740157
        },
        {
          "duration": 0.1614583333333357,
          "durationTicks": 31,
          "midi": 60,
          "name": "C4",
          "ticks": 11097,
          "time": 57.796875,
          "velocity": 0.4645669291338583
        },
        {
          "duration": 0.1041666666666643,
          "durationTicks": 20,
          "midi": 67,
          "name": "G4",
          "ticks": 11128,
          "time": 57.958333333333336,
          "velocity": 0.29133858267716534
        },
        {
          "duration": 0.1041666666666643,
          "durationTicks": 20,
          "midi": 75,
          "name": "D#5",
          "ticks": 11128,
          "time": 57.958333333333336,
          "velocity": 0.5275590551181102
        },
        {
          "duration": 0.1041666666666643,
          "durationTicks": 20,
          "midi": 72,
          "name": "C5",
          "ticks": 11128,
          "time": 57.958333333333336,
          "velocity": 0.4409448818897638
        },
        {
          "duration": 0.1197916666666643,
          "durationTicks": 23,
          "midi": 48,
          "name": "C3",
          "ticks": 11158,
          "time": 58.114583333333336,
          "velocity": 0.47244094488188976
        },
        {
          "duration": 0.1197916666666643,
          "durationTicks": 23,
          "midi": 36,
          "name": "C2",
          "ticks": 11158,
          "time": 58.114583333333336,
          "velocity": 0.3700787401574803
        },
        {
          "duration": 0.09375,
          "durationTicks": 18,
          "midi": 72,
          "name": "C5",
          "ticks": 11197,
          "time": 58.317708333333336,
          "velocity": 0.4330708661417323
        },
        {
          "duration": 0.09375,
          "durationTicks": 18,
          "midi": 67,
          "name": "G4",
          "ticks": 11197,
          "time": 58.317708333333336,
          "velocity": 0.36220472440944884
        },
        {
          "duration": 0.1041666666666714,
          "durationTicks": 20,
          "midi": 55,
          "name": "G3",
          "ticks": 11228,
          "time": 58.479166666666664,
          "velocity": 0.3858267716535433
        },
        {
          "duration": 0.2447916666666643,
          "durationTicks": 47,
          "midi": 60,
          "name": "C4",
          "ticks": 11266,
          "time": 58.677083333333336,
          "velocity": 0.5275590551181102
        },
        {
          "duration": 0.2447916666666643,
          "durationTicks": 47,
          "midi": 63,
          "name": "D#4",
          "ticks": 11266,
          "time": 58.677083333333336,
          "velocity": 0.5354330708661418
        },
        {
          "duration": 0.109375,
          "durationTicks": 21,
          "midi": 75,
          "name": "D#5",
          "ticks": 11328,
          "time": 59,
          "velocity": 0.4409448818897638
        },
        {
          "duration": 0.109375,
          "durationTicks": 21,
          "midi": 72,
          "name": "C5",
          "ticks": 11328,
          "time": 59,
          "velocity": 0.41732283464566927
        },
        {
          "duration": 0.109375,
          "durationTicks": 21,
          "midi": 55,
          "name": "G3",
          "ticks": 11328,
          "time": 59,
          "velocity": 0.4409448818897638
        },
        {
          "duration": 0.109375,
          "durationTicks": 21,
          "midi": 67,
          "name": "G4",
          "ticks": 11328,
          "time": 59,
          "velocity": 0.4409448818897638
        },
        {
          "duration": 0.25,
          "durationTicks": 48,
          "midi": 60,
          "name": "C4",
          "ticks": 11366,
          "time": 59.197916666666664,
          "velocity": 0.4566929133858268
        },
        {
          "duration": 0.2604166666666714,
          "durationTicks": 50,
          "midi": 72,
          "name": "C5",
          "ticks": 11366,
          "time": 59.197916666666664,
          "velocity": 0.3858267716535433
        },
        {
          "duration": 0.171875,
          "durationTicks": 33,
          "midi": 63,
          "name": "D#4",
          "ticks": 11366,
          "time": 59.197916666666664,
          "velocity": 0.5826771653543307
        },
        {
          "duration": 0.1197916666666643,
          "durationTicks": 23,
          "midi": 39,
          "name": "D#2",
          "ticks": 11427,
          "time": 59.515625,
          "velocity": 0.4094488188976378
        },
        {
          "duration": 0.1197916666666643,
          "durationTicks": 23,
          "midi": 75,
          "name": "D#5",
          "ticks": 11427,
          "time": 59.515625,
          "velocity": 0.3779527559055118
        },
        {
          "duration": 0.1197916666666643,
          "durationTicks": 23,
          "midi": 70,
          "name": "A#4",
          "ticks": 11427,
          "time": 59.515625,
          "velocity": 0.4015748031496063
        },
        {
          "duration": 0.1197916666666643,
          "durationTicks": 23,
          "midi": 51,
          "name": "D#3",
          "ticks": 11427,
          "time": 59.515625,
          "velocity": 0.5118110236220472
        },
        {
          "duration": 0.1197916666666643,
          "durationTicks": 23,
          "midi": 82,
          "name": "A#5",
          "ticks": 11427,
          "time": 59.515625,
          "velocity": 0.4015748031496063
        },
        {
          "duration": 0.0989583333333357,
          "durationTicks": 19,
          "midi": 75,
          "name": "D#5",
          "ticks": 11465,
          "time": 59.713541666666664,
          "velocity": 0.3779527559055118
        },
        {
          "duration": 0.0989583333333357,
          "durationTicks": 19,
          "midi": 79,
          "name": "G5",
          "ticks": 11465,
          "time": 59.713541666666664,
          "velocity": 0.5196850393700787
        },
        {
          "duration": 0.0989583333333357,
          "durationTicks": 19,
          "midi": 70,
          "name": "A#4",
          "ticks": 11465,
          "time": 59.713541666666664,
          "velocity": 0.4015748031496063
        },
        {
          "duration": 0.1041666666666643,
          "durationTicks": 20,
          "midi": 51,
          "name": "D#3",
          "ticks": 11497,
          "time": 59.880208333333336,
          "velocity": 0.4881889763779528
        },
        {
          "duration": 0.2604166666666643,
          "durationTicks": 50,
          "midi": 55,
          "name": "G3",
          "ticks": 11535,
          "time": 60.078125,
          "velocity": 0.31496062992125984
        },
        {
          "duration": 0.2239583333333357,
          "durationTicks": 43,
          "midi": 70,
          "name": "A#4",
          "ticks": 11535,
          "time": 60.078125,
          "velocity": 0.5118110236220472
        },
        {
          "duration": 0.2604166666666643,
          "durationTicks": 50,
          "midi": 58,
          "name": "A#3",
          "ticks": 11535,
          "time": 60.078125,
          "velocity": 0.5826771653543307
        },
        {
          "duration": 0.2604166666666643,
          "durationTicks": 50,
          "midi": 77,
          "name": "F5",
          "ticks": 11535,
          "time": 60.078125,
          "velocity": 0.5984251968503937
        },
        {
          "duration": 0.1197916666666714,
          "durationTicks": 23,
          "midi": 75,
          "name": "D#5",
          "ticks": 11597,
          "time": 60.401041666666664,
          "velocity": 0.5039370078740157
        },
        {
          "duration": 0.0989583333333357,
          "durationTicks": 19,
          "midi": 70,
          "name": "A#4",
          "ticks": 11597,
          "time": 60.401041666666664,
          "velocity": 0.41732283464566927
        },
        {
          "duration": 0.1197916666666714,
          "durationTicks": 23,
          "midi": 51,
          "name": "D#3",
          "ticks": 11597,
          "time": 60.401041666666664,
          "velocity": 0.3700787401574803
        },
        {
          "duration": 0.2604166666666643,
          "durationTicks": 50,
          "midi": 55,
          "name": "G3",
          "ticks": 11635,
          "time": 60.598958333333336,
          "velocity": 0.3779527559055118
        },
        {
          "duration": 0.2604166666666643,
          "durationTicks": 50,
          "midi": 58,
          "name": "A#3",
          "ticks": 11635,
          "time": 60.598958333333336,
          "velocity": 0.5275590551181102
        },
        {
          "duration": 0.125,
          "durationTicks": 24,
          "midi": 82,
          "name": "A#5",
          "ticks": 11696,
          "time": 60.916666666666664,
          "velocity": 0.5118110236220472
        },
        {
          "duration": 0.125,
          "durationTicks": 24,
          "midi": 70,
          "name": "A#4",
          "ticks": 11696,
          "time": 60.916666666666664,
          "velocity": 0.5118110236220472
        },
        {
          "duration": 0.125,
          "durationTicks": 24,
          "midi": 75,
          "name": "D#5",
          "ticks": 11696,
          "time": 60.916666666666664,
          "velocity": 0.44881889763779526
        },
        {
          "duration": 0.0833333333333286,
          "durationTicks": 16,
          "midi": 51,
          "name": "D#3",
          "ticks": 11704,
          "time": 60.958333333333336,
          "velocity": 0.41732283464566927
        },
        {
          "duration": 0.0833333333333286,
          "durationTicks": 16,
          "midi": 39,
          "name": "D#2",
          "ticks": 11704,
          "time": 60.958333333333336,
          "velocity": 0.41732283464566927
        },
        {
          "duration": 0.1041666666666643,
          "durationTicks": 20,
          "midi": 75,
          "name": "D#5",
          "ticks": 11734,
          "time": 61.114583333333336,
          "velocity": 0.41732283464566927
        },
        {
          "duration": 0.1041666666666643,
          "durationTicks": 20,
          "midi": 70,
          "name": "A#4",
          "ticks": 11734,
          "time": 61.114583333333336,
          "velocity": 0.33858267716535434
        },
        {
          "duration": 0.1041666666666643,
          "durationTicks": 20,
          "midi": 79,
          "name": "G5",
          "ticks": 11734,
          "time": 61.114583333333336,
          "velocity": 0.5905511811023622
        },
        {
          "duration": 0.1145833333333357,
          "durationTicks": 22,
          "midi": 51,
          "name": "D#3",
          "ticks": 11765,
          "time": 61.276041666666664,
          "velocity": 0.5196850393700787
        },
        {
          "duration": 0.2604166666666714,
          "durationTicks": 50,
          "midi": 77,
          "name": "F5",
          "ticks": 11804,
          "time": 61.479166666666664,
          "velocity": 0.6456692913385826
        },
        {
          "duration": 0.2604166666666714,
          "durationTicks": 50,
          "midi": 58,
          "name": "A#3",
          "ticks": 11804,
          "time": 61.479166666666664,
          "velocity": 0.5275590551181102
        },
        {
          "duration": 0.234375,
          "durationTicks": 45,
          "midi": 70,
          "name": "A#4",
          "ticks": 11804,
          "time": 61.479166666666664,
          "velocity": 0.44881889763779526
        },
        {
          "duration": 0.2604166666666714,
          "durationTicks": 50,
          "midi": 55,
          "name": "G3",
          "ticks": 11804,
          "time": 61.479166666666664,
          "velocity": 0.33070866141732286
        },
        {
          "duration": 0.1197916666666643,
          "durationTicks": 23,
          "midi": 51,
          "name": "D#3",
          "ticks": 11865,
          "time": 61.796875,
          "velocity": 0.3858267716535433
        },
        {
          "duration": 0.1197916666666643,
          "durationTicks": 23,
          "midi": 75,
          "name": "D#5",
          "ticks": 11865,
          "time": 61.796875,
          "velocity": 0.48031496062992124
        },
        {
          "duration": 0.1041666666666643,
          "durationTicks": 20,
          "midi": 70,
          "name": "A#4",
          "ticks": 11865,
          "time": 61.796875,
          "velocity": 0.4330708661417323
        },
        {
          "duration": 0.09375,
          "durationTicks": 18,
          "midi": 55,
          "name": "G3",
          "ticks": 11904,
          "time": 62,
          "velocity": 0.3700787401574803
        },
        {
          "duration": 0.09375,
          "durationTicks": 18,
          "midi": 58,
          "name": "A#3",
          "ticks": 11904,
          "time": 62,
          "velocity": 0.5433070866141733
        },
        {
          "duration": 0.1145833333333357,
          "durationTicks": 22,
          "midi": 70,
          "name": "A#4",
          "ticks": 11934,
          "time": 62.15625,
          "velocity": 0.3700787401574803
        },
        {
          "duration": 0.1145833333333357,
          "durationTicks": 22,
          "midi": 74,
          "name": "D5",
          "ticks": 11934,
          "time": 62.15625,
          "velocity": 0.4015748031496063
        },
        {
          "duration": 0.1145833333333357,
          "durationTicks": 22,
          "midi": 77,
          "name": "F5",
          "ticks": 11934,
          "time": 62.15625,
          "velocity": 0.6220472440944882
        },
        {
          "duration": 0.2083333333333357,
          "durationTicks": 40,
          "midi": 46,
          "name": "A#2",
          "ticks": 11973,
          "time": 62.359375,
          "velocity": 0.4881889763779528
        },
        {
          "duration": 0.2083333333333357,
          "durationTicks": 40,
          "midi": 34,
          "name": "A#1",
          "ticks": 11973,
          "time": 62.359375,
          "velocity": 0.4330708661417323
        },
        {
          "duration": 0.9947916666666643,
          "durationTicks": 191,
          "midi": 77,
          "name": "F5",
          "ticks": 12034,
          "time": 62.677083333333336,
          "velocity": 0.5196850393700787
        },
        {
          "duration": 0.9947916666666643,
          "durationTicks": 191,
          "midi": 70,
          "name": "A#4",
          "ticks": 12034,
          "time": 62.677083333333336,
          "velocity": 0.4566929133858268
        },
        {
          "duration": 0.9947916666666643,
          "durationTicks": 191,
          "midi": 74,
          "name": "D5",
          "ticks": 12034,
          "time": 62.677083333333336,
          "velocity": 0.41732283464566927
        },
        {
          "duration": 0.0625,
          "durationTicks": 12,
          "midi": 53,
          "name": "F3",
          "ticks": 12034,
          "time": 62.677083333333336,
          "velocity": 0.4330708661417323
        },
        {
          "duration": 0.2760416666666643,
          "durationTicks": 53,
          "midi": 58,
          "name": "A#3",
          "ticks": 12073,
          "time": 62.880208333333336,
          "velocity": 0.4409448818897638
        },
        {
          "duration": 0.2760416666666643,
          "durationTicks": 53,
          "midi": 62,
          "name": "D4",
          "ticks": 12073,
          "time": 62.880208333333336,
          "velocity": 0.5354330708661418
        },
        {
          "duration": 0.0989583333333357,
          "durationTicks": 19,
          "midi": 53,
          "name": "F3",
          "ticks": 12141,
          "time": 63.234375,
          "velocity": 0.49606299212598426
        },
        {
          "duration": 0.296875,
          "durationTicks": 57,
          "midi": 62,
          "name": "D4",
          "ticks": 12173,
          "time": 63.401041666666664,
          "velocity": 0.49606299212598426
        },
        {
          "duration": 0.296875,
          "durationTicks": 57,
          "midi": 58,
          "name": "A#3",
          "ticks": 12173,
          "time": 63.401041666666664,
          "velocity": 0.5196850393700787
        },
        {
          "duration": 0.2916666666666643,
          "durationTicks": 56,
          "midi": 34,
          "name": "A#1",
          "ticks": 12241,
          "time": 63.755208333333336,
          "velocity": 0.4409448818897638
        },
        {
          "duration": 0.1614583333333286,
          "durationTicks": 31,
          "midi": 46,
          "name": "A#2",
          "ticks": 12241,
          "time": 63.755208333333336,
          "velocity": 0.5433070866141733
        },
        {
          "duration": 0.09895833333331439,
          "durationTicks": 19,
          "midi": 53,
          "name": "F3",
          "ticks": 12310,
          "time": 64.11458333333334,
          "velocity": 0.5196850393700787
        },
        {
          "duration": 0.2864583333333428,
          "durationTicks": 55,
          "midi": 79,
          "name": "G5",
          "ticks": 12341,
          "time": 64.27604166666666,
          "velocity": 0.5590551181102362
        },
        {
          "duration": 0.2864583333333428,
          "durationTicks": 55,
          "midi": 70,
          "name": "A#4",
          "ticks": 12341,
          "time": 64.27604166666666,
          "velocity": 0.5039370078740157
        },
        {
          "duration": 0.2864583333333428,
          "durationTicks": 55,
          "midi": 62,
          "name": "D4",
          "ticks": 12341,
          "time": 64.27604166666666,
          "velocity": 0.4251968503937008
        },
        {
          "duration": 0.2864583333333428,
          "durationTicks": 55,
          "midi": 58,
          "name": "A#3",
          "ticks": 12341,
          "time": 64.27604166666666,
          "velocity": 0.5039370078740157
        },
        {
          "duration": 0.109375,
          "durationTicks": 21,
          "midi": 70,
          "name": "A#4",
          "ticks": 12410,
          "time": 64.63541666666666,
          "velocity": 0.3858267716535433
        },
        {
          "duration": 0.109375,
          "durationTicks": 21,
          "midi": 75,
          "name": "D#5",
          "ticks": 12410,
          "time": 64.63541666666666,
          "velocity": 0.5039370078740157
        },
        {
          "duration": 0.109375,
          "durationTicks": 21,
          "midi": 53,
          "name": "F3",
          "ticks": 12410,
          "time": 64.63541666666666,
          "velocity": 0.4881889763779528
        },
        {
          "duration": 0.2864583333333428,
          "durationTicks": 55,
          "midi": 58,
          "name": "A#3",
          "ticks": 12441,
          "time": 64.796875,
          "velocity": 0.5118110236220472
        },
        {
          "duration": 0.2864583333333428,
          "durationTicks": 55,
          "midi": 62,
          "name": "D4",
          "ticks": 12441,
          "time": 64.796875,
          "velocity": 0.48031496062992124
        },
        {
          "duration": 0.2760416666666572,
          "durationTicks": 53,
          "midi": 77,
          "name": "F5",
          "ticks": 12510,
          "time": 65.15625,
          "velocity": 0.5354330708661418
        },
        {
          "duration": 0.2760416666666572,
          "durationTicks": 53,
          "midi": 72,
          "name": "C5",
          "ticks": 12510,
          "time": 65.15625,
          "velocity": 0.4566929133858268
        },
        {
          "duration": 0.2760416666666572,
          "durationTicks": 53,
          "midi": 53,
          "name": "F3",
          "ticks": 12510,
          "time": 65.15625,
          "velocity": 0.3937007874015748
        },
        {
          "duration": 0.2760416666666572,
          "durationTicks": 53,
          "midi": 68,
          "name": "G#4",
          "ticks": 12510,
          "time": 65.15625,
          "velocity": 0.4330708661417323
        },
        {
          "duration": 0.2760416666666572,
          "durationTicks": 53,
          "midi": 41,
          "name": "F2",
          "ticks": 12510,
          "time": 65.15625,
          "velocity": 0.44881889763779526
        },
        {
          "duration": 0.09375,
          "durationTicks": 18,
          "midi": 53,
          "name": "F3",
          "ticks": 12579,
          "time": 65.515625,
          "velocity": 0.5275590551181102
        },
        {
          "duration": 0.2864583333333144,
          "durationTicks": 55,
          "midi": 56,
          "name": "G#3",
          "ticks": 12610,
          "time": 65.67708333333334,
          "velocity": 0.41732283464566927
        },
        {
          "duration": 0.2864583333333144,
          "durationTicks": 55,
          "midi": 60,
          "name": "C4",
          "ticks": 12610,
          "time": 65.67708333333334,
          "velocity": 0.4015748031496063
        },
        {
          "duration": 0.109375,
          "durationTicks": 21,
          "midi": 53,
          "name": "F3",
          "ticks": 12679,
          "time": 66.03645833333334,
          "velocity": 0.5826771653543307
        },
        {
          "duration": 0.296875,
          "durationTicks": 57,
          "midi": 56,
          "name": "G#3",
          "ticks": 12710,
          "time": 66.19791666666666,
          "velocity": 0.41732283464566927
        },
        {
          "duration": 0.296875,
          "durationTicks": 57,
          "midi": 60,
          "name": "C4",
          "ticks": 12710,
          "time": 66.19791666666666,
          "velocity": 0.5039370078740157
        },
        {
          "duration": 0.2916666666666856,
          "durationTicks": 56,
          "midi": 53,
          "name": "F3",
          "ticks": 12779,
          "time": 66.55729166666666,
          "velocity": 0.47244094488188976
        },
        {
          "duration": 0.2916666666666856,
          "durationTicks": 56,
          "midi": 41,
          "name": "F2",
          "ticks": 12779,
          "time": 66.55729166666666,
          "velocity": 0.5196850393700787
        },
        {
          "duration": 0.09895833333334281,
          "durationTicks": 19,
          "midi": 53,
          "name": "F3",
          "ticks": 12848,
          "time": 66.91666666666666,
          "velocity": 0.5669291338582677
        },
        {
          "duration": 0.2864583333333428,
          "durationTicks": 55,
          "midi": 56,
          "name": "G#3",
          "ticks": 12879,
          "time": 67.078125,
          "velocity": 0.3937007874015748
        },
        {
          "duration": 0.2864583333333428,
          "durationTicks": 55,
          "midi": 60,
          "name": "C4",
          "ticks": 12879,
          "time": 67.078125,
          "velocity": 0.44881889763779526
        },
        {
          "duration": 0.109375,
          "durationTicks": 21,
          "midi": 77,
          "name": "F5",
          "ticks": 12948,
          "time": 67.4375,
          "velocity": 0.6062992125984252
        },
        {
          "duration": 0.109375,
          "durationTicks": 21,
          "midi": 53,
          "name": "F3",
          "ticks": 12948,
          "time": 67.4375,
          "velocity": 0.5590551181102362
        },
        {
          "duration": 0.09375,
          "durationTicks": 18,
          "midi": 72,
          "name": "C5",
          "ticks": 12948,
          "time": 67.4375,
          "velocity": 0.3543307086614173
        },
        {
          "duration": 0.109375,
          "durationTicks": 21,
          "midi": 68,
          "name": "G#4",
          "ticks": 12948,
          "time": 67.4375,
          "velocity": 0.3543307086614173
        },
        {
          "duration": 0.296875,
          "durationTicks": 57,
          "midi": 79,
          "name": "G5",
          "ticks": 12979,
          "time": 67.59895833333334,
          "velocity": 0.4645669291338583
        },
        {
          "duration": 0.296875,
          "durationTicks": 57,
          "midi": 56,
          "name": "G#3",
          "ticks": 12979,
          "time": 67.59895833333334,
          "velocity": 0.41732283464566927
        },
        {
          "duration": 0.296875,
          "durationTicks": 57,
          "midi": 72,
          "name": "C5",
          "ticks": 12979,
          "time": 67.59895833333334,
          "velocity": 0.48031496062992124
        },
        {
          "duration": 0.296875,
          "durationTicks": 57,
          "midi": 60,
          "name": "C4",
          "ticks": 12979,
          "time": 67.59895833333334,
          "velocity": 0.5433070866141733
        },
        {
          "duration": 0.2864583333333144,
          "durationTicks": 55,
          "midi": 36,
          "name": "C2",
          "ticks": 13048,
          "time": 67.95833333333334,
          "velocity": 0.3228346456692913
        },
        {
          "duration": 0.2864583333333144,
          "durationTicks": 55,
          "midi": 77,
          "name": "F5",
          "ticks": 13048,
          "time": 67.95833333333334,
          "velocity": 0.5669291338582677
        },
        {
          "duration": 0.2864583333333144,
          "durationTicks": 55,
          "midi": 48,
          "name": "C3",
          "ticks": 13048,
          "time": 67.95833333333334,
          "velocity": 0.4251968503937008
        },
        {
          "duration": 0.2864583333333144,
          "durationTicks": 55,
          "midi": 72,
          "name": "C5",
          "ticks": 13048,
          "time": 67.95833333333334,
          "velocity": 0.41732283464566927
        },
        {
          "duration": 0.2864583333333144,
          "durationTicks": 55,
          "midi": 67,
          "name": "G4",
          "ticks": 13048,
          "time": 67.95833333333334,
          "velocity": 0.33858267716535434
        },
        {
          "duration": 0.09375,
          "durationTicks": 18,
          "midi": 67,
          "name": "G4",
          "ticks": 13117,
          "time": 68.31770833333334,
          "velocity": 0.4330708661417323
        },
        {
          "duration": 0.09375,
          "durationTicks": 18,
          "midi": 55,
          "name": "G3",
          "ticks": 13117,
          "time": 68.31770833333334,
          "velocity": 0.49606299212598426
        },
        {
          "duration": 0.09375,
          "durationTicks": 18,
          "midi": 75,
          "name": "D#5",
          "ticks": 13117,
          "time": 68.31770833333334,
          "velocity": 0.44881889763779526
        },
        {
          "duration": 0.09375,
          "durationTicks": 18,
          "midi": 72,
          "name": "C5",
          "ticks": 13117,
          "time": 68.31770833333334,
          "velocity": 0.4881889763779528
        },
        {
          "duration": 0.2864583333333428,
          "durationTicks": 55,
          "midi": 67,
          "name": "G4",
          "ticks": 13148,
          "time": 68.47916666666666,
          "velocity": 0.4094488188976378
        },
        {
          "duration": 0.2864583333333428,
          "durationTicks": 55,
          "midi": 75,
          "name": "D#5",
          "ticks": 13148,
          "time": 68.47916666666666,
          "velocity": 0.5433070866141733
        },
        {
          "duration": 0.2864583333333428,
          "durationTicks": 55,
          "midi": 60,
          "name": "C4",
          "ticks": 13148,
          "time": 68.47916666666666,
          "velocity": 0.44881889763779526
        },
        {
          "duration": 0.2864583333333428,
          "durationTicks": 55,
          "midi": 63,
          "name": "D#4",
          "ticks": 13148,
          "time": 68.47916666666666,
          "velocity": 0.44881889763779526
        },
        {
          "duration": 0.2864583333333428,
          "durationTicks": 55,
          "midi": 72,
          "name": "C5",
          "ticks": 13148,
          "time": 68.47916666666666,
          "velocity": 0.4645669291338583
        },
        {
          "duration": 0.109375,
          "durationTicks": 21,
          "midi": 72,
          "name": "C5",
          "ticks": 13217,
          "time": 68.83854166666666,
          "velocity": 0.5433070866141733
        },
        {
          "duration": 0.1614583333333428,
          "durationTicks": 31,
          "midi": 55,
          "name": "G3",
          "ticks": 13217,
          "time": 68.83854166666666,
          "velocity": 0.3937007874015748
        },
        {
          "duration": 0.109375,
          "durationTicks": 21,
          "midi": 67,
          "name": "G4",
          "ticks": 13217,
          "time": 68.83854166666666,
          "velocity": 0.3937007874015748
        },
        {
          "duration": 0.109375,
          "durationTicks": 21,
          "midi": 63,
          "name": "D#4",
          "ticks": 13248,
          "time": 69,
          "velocity": 0.5433070866141733
        },
        {
          "duration": 0.109375,
          "durationTicks": 21,
          "midi": 60,
          "name": "C4",
          "ticks": 13248,
          "time": 69,
          "velocity": 0.44881889763779526
        },
        {
          "duration": 0.09375,
          "durationTicks": 18,
          "midi": 75,
          "name": "D#5",
          "ticks": 13286,
          "time": 69.19791666666666,
          "velocity": 0.4881889763779528
        },
        {
          "duration": 0.09375,
          "durationTicks": 18,
          "midi": 67,
          "name": "G4",
          "ticks": 13286,
          "time": 69.19791666666666,
          "velocity": 0.33858267716535434
        },
        {
          "duration": 0.09375,
          "durationTicks": 18,
          "midi": 72,
          "name": "C5",
          "ticks": 13286,
          "time": 69.19791666666666,
          "velocity": 0.49606299212598426
        },
        {
          "duration": 0.09895833333334281,
          "durationTicks": 19,
          "midi": 36,
          "name": "C2",
          "ticks": 13317,
          "time": 69.359375,
          "velocity": 0.33858267716535434
        },
        {
          "duration": 0.09895833333334281,
          "durationTicks": 19,
          "midi": 48,
          "name": "C3",
          "ticks": 13317,
          "time": 69.359375,
          "velocity": 0.44881889763779526
        },
        {
          "duration": 0.11458333333334281,
          "durationTicks": 22,
          "midi": 72,
          "name": "C5",
          "ticks": 13347,
          "time": 69.515625,
          "velocity": 0.4409448818897638
        },
        {
          "duration": 0.11458333333334281,
          "durationTicks": 22,
          "midi": 67,
          "name": "G4",
          "ticks": 13347,
          "time": 69.515625,
          "velocity": 0.3464566929133858
        },
        {
          "duration": 0.09375,
          "durationTicks": 18,
          "midi": 55,
          "name": "G3",
          "ticks": 13385,
          "time": 69.71354166666666,
          "velocity": 0.4015748031496063
        },
        {
          "duration": 0.2135416666666572,
          "durationTicks": 41,
          "midi": 63,
          "name": "D#4",
          "ticks": 13417,
          "time": 69.88020833333334,
          "velocity": 0.41732283464566927
        },
        {
          "duration": 0.2135416666666572,
          "durationTicks": 41,
          "midi": 60,
          "name": "C4",
          "ticks": 13417,
          "time": 69.88020833333334,
          "velocity": 0.5433070866141733
        },
        {
          "duration": 0.10416666666665719,
          "durationTicks": 20,
          "midi": 55,
          "name": "G3",
          "ticks": 13485,
          "time": 70.234375,
          "velocity": 0.4409448818897638
        },
        {
          "duration": 0.10416666666665719,
          "durationTicks": 20,
          "midi": 75,
          "name": "D#5",
          "ticks": 13485,
          "time": 70.234375,
          "velocity": 0.4330708661417323
        },
        {
          "duration": 0.10416666666665719,
          "durationTicks": 20,
          "midi": 72,
          "name": "C5",
          "ticks": 13485,
          "time": 70.234375,
          "velocity": 0.4094488188976378
        },
        {
          "duration": 0.10416666666665719,
          "durationTicks": 20,
          "midi": 67,
          "name": "G4",
          "ticks": 13485,
          "time": 70.234375,
          "velocity": 0.4409448818897638
        },
        {
          "duration": 0.21875,
          "durationTicks": 42,
          "midi": 60,
          "name": "C4",
          "ticks": 13517,
          "time": 70.40104166666666,
          "velocity": 0.4566929133858268
        },
        {
          "duration": 0.21875,
          "durationTicks": 42,
          "midi": 63,
          "name": "D#4",
          "ticks": 13517,
          "time": 70.40104166666666,
          "velocity": 0.5039370078740157
        },
        {
          "duration": 0.109375,
          "durationTicks": 21,
          "midi": 70,
          "name": "A#4",
          "ticks": 13585,
          "time": 70.75520833333334,
          "velocity": 0.4251968503937008
        },
        {
          "duration": 0.109375,
          "durationTicks": 21,
          "midi": 51,
          "name": "D#3",
          "ticks": 13585,
          "time": 70.75520833333334,
          "velocity": 0.5118110236220472
        },
        {
          "duration": 0.052083333333314386,
          "durationTicks": 10,
          "midi": 75,
          "name": "D#5",
          "ticks": 13585,
          "time": 70.75520833333334,
          "velocity": 0.33858267716535434
        },
        {
          "duration": 0.109375,
          "durationTicks": 21,
          "midi": 39,
          "name": "D#2",
          "ticks": 13585,
          "time": 70.75520833333334,
          "velocity": 0.4330708661417323
        },
        {
          "duration": 0.109375,
          "durationTicks": 21,
          "midi": 75,
          "name": "D#5",
          "ticks": 13616,
          "time": 70.91666666666666,
          "velocity": 0.4015748031496063
        },
        {
          "duration": 0.125,
          "durationTicks": 24,
          "midi": 79,
          "name": "G5",
          "ticks": 13616,
          "time": 70.91666666666666,
          "velocity": 0.5354330708661418
        },
        {
          "duration": 0.09375,
          "durationTicks": 18,
          "midi": 51,
          "name": "D#3",
          "ticks": 13654,
          "time": 71.11458333333334,
          "velocity": 0.5118110236220472
        },
        {
          "duration": 0.2864583333333428,
          "durationTicks": 55,
          "midi": 77,
          "name": "F5",
          "ticks": 13685,
          "time": 71.27604166666666,
          "velocity": 0.5826771653543307
        },
        {
          "duration": 0.2864583333333428,
          "durationTicks": 55,
          "midi": 58,
          "name": "A#3",
          "ticks": 13685,
          "time": 71.27604166666666,
          "velocity": 0.5118110236220472
        },
        {
          "duration": 0.2864583333333428,
          "durationTicks": 55,
          "midi": 55,
          "name": "G3",
          "ticks": 13685,
          "time": 71.27604166666666,
          "velocity": 0.31496062992125984
        },
        {
          "duration": 0.10416666666668561,
          "durationTicks": 20,
          "midi": 70,
          "name": "A#4",
          "ticks": 13754,
          "time": 71.63541666666666,
          "velocity": 0.41732283464566927
        },
        {
          "duration": 0.10416666666668561,
          "durationTicks": 20,
          "midi": 75,
          "name": "D#5",
          "ticks": 13754,
          "time": 71.63541666666666,
          "velocity": 0.48031496062992124
        },
        {
          "duration": 0.10416666666668561,
          "durationTicks": 20,
          "midi": 51,
          "name": "D#3",
          "ticks": 13754,
          "time": 71.63541666666666,
          "velocity": 0.3779527559055118
        },
        {
          "duration": 0.25,
          "durationTicks": 48,
          "midi": 58,
          "name": "A#3",
          "ticks": 13793,
          "time": 71.83854166666666,
          "velocity": 0.5669291338582677
        },
        {
          "duration": 0.25,
          "durationTicks": 48,
          "midi": 55,
          "name": "G3",
          "ticks": 13793,
          "time": 71.83854166666666,
          "velocity": 0.3858267716535433
        },
        {
          "duration": 0.109375,
          "durationTicks": 21,
          "midi": 75,
          "name": "D#5",
          "ticks": 13854,
          "time": 72.15625,
          "velocity": 0.47244094488188976
        },
        {
          "duration": 0.109375,
          "durationTicks": 21,
          "midi": 70,
          "name": "A#4",
          "ticks": 13854,
          "time": 72.15625,
          "velocity": 0.4881889763779528
        },
        {
          "duration": 0.109375,
          "durationTicks": 21,
          "midi": 82,
          "name": "A#5",
          "ticks": 13854,
          "time": 72.15625,
          "velocity": 0.4881889763779528
        },
        {
          "duration": 0.109375,
          "durationTicks": 21,
          "midi": 51,
          "name": "D#3",
          "ticks": 13854,
          "time": 72.15625,
          "velocity": 0.41732283464566927
        },
        {
          "duration": 0.109375,
          "durationTicks": 21,
          "midi": 39,
          "name": "D#2",
          "ticks": 13854,
          "time": 72.15625,
          "velocity": 0.4251968503937008
        },
        {
          "duration": 0.109375,
          "durationTicks": 21,
          "midi": 63,
          "name": "D#4",
          "ticks": 13854,
          "time": 72.15625,
          "velocity": 0.5196850393700787
        },
        {
          "duration": 0.078125,
          "durationTicks": 15,
          "midi": 75,
          "name": "D#5",
          "ticks": 13893,
          "time": 72.359375,
          "velocity": 0.4015748031496063
        },
        {
          "duration": 0.078125,
          "durationTicks": 15,
          "midi": 70,
          "name": "A#4",
          "ticks": 13893,
          "time": 72.359375,
          "velocity": 0.3937007874015748
        },
        {
          "duration": 0.078125,
          "durationTicks": 15,
          "midi": 79,
          "name": "G5",
          "ticks": 13893,
          "time": 72.359375,
          "velocity": 0.5826771653543307
        },
        {
          "duration": 0.09895833333334281,
          "durationTicks": 19,
          "midi": 51,
          "name": "D#3",
          "ticks": 13923,
          "time": 72.515625,
          "velocity": 0.49606299212598426
        },
        {
          "duration": 0.2864583333333144,
          "durationTicks": 55,
          "midi": 70,
          "name": "A#4",
          "ticks": 13954,
          "time": 72.67708333333334,
          "velocity": 0.5039370078740157
        },
        {
          "duration": 0.2864583333333144,
          "durationTicks": 55,
          "midi": 58,
          "name": "A#3",
          "ticks": 13954,
          "time": 72.67708333333334,
          "velocity": 0.5039370078740157
        },
        {
          "duration": 0.2864583333333144,
          "durationTicks": 55,
          "midi": 55,
          "name": "G3",
          "ticks": 13954,
          "time": 72.67708333333334,
          "velocity": 0.33070866141732286
        },
        {
          "duration": 0.2864583333333144,
          "durationTicks": 55,
          "midi": 77,
          "name": "F5",
          "ticks": 13954,
          "time": 72.67708333333334,
          "velocity": 0.5748031496062992
        },
        {
          "duration": 0.1041666666666714,
          "durationTicks": 20,
          "midi": 51,
          "name": "D#3",
          "ticks": 14023,
          "time": 73.03645833333333,
          "velocity": 0.3700787401574803
        },
        {
          "duration": 0.1041666666666714,
          "durationTicks": 20,
          "midi": 75,
          "name": "D#5",
          "ticks": 14023,
          "time": 73.03645833333333,
          "velocity": 0.4409448818897638
        },
        {
          "duration": 0.1041666666666714,
          "durationTicks": 20,
          "midi": 70,
          "name": "A#4",
          "ticks": 14023,
          "time": 73.03645833333333,
          "velocity": 0.41732283464566927
        },
        {
          "duration": 0.0833333333333286,
          "durationTicks": 16,
          "midi": 55,
          "name": "G3",
          "ticks": 14061,
          "time": 73.234375,
          "velocity": 0.3700787401574803
        },
        {
          "duration": 0.0833333333333286,
          "durationTicks": 16,
          "midi": 58,
          "name": "A#3",
          "ticks": 14061,
          "time": 73.234375,
          "velocity": 0.5196850393700787
        },
        {
          "duration": 0.0989583333333286,
          "durationTicks": 19,
          "midi": 70,
          "name": "A#4",
          "ticks": 14093,
          "time": 73.40104166666667,
          "velocity": 0.33858267716535434
        },
        {
          "duration": 0.0989583333333286,
          "durationTicks": 19,
          "midi": 74,
          "name": "D5",
          "ticks": 14093,
          "time": 73.40104166666667,
          "velocity": 0.5748031496062992
        },
        {
          "duration": 0.0989583333333286,
          "durationTicks": 19,
          "midi": 77,
          "name": "F5",
          "ticks": 14093,
          "time": 73.40104166666667,
          "velocity": 0.5275590551181102
        },
        {
          "duration": 0.2916666666666572,
          "durationTicks": 56,
          "midi": 34,
          "name": "A#1",
          "ticks": 14123,
          "time": 73.55729166666667,
          "velocity": 0.4015748031496063
        },
        {
          "duration": 0.2916666666666572,
          "durationTicks": 56,
          "midi": 46,
          "name": "A#2",
          "ticks": 14123,
          "time": 73.55729166666667,
          "velocity": 0.49606299212598426
        },
        {
          "duration": 0.10416666666665719,
          "durationTicks": 20,
          "midi": 53,
          "name": "F3",
          "ticks": 14192,
          "time": 73.91666666666667,
          "velocity": 0.44881889763779526
        },
        {
          "duration": 1.4010416666666714,
          "durationTicks": 269,
          "midi": 77,
          "name": "F5",
          "ticks": 14223,
          "time": 74.078125,
          "velocity": 0.5748031496062992
        },
        {
          "duration": 0.2916666666666714,
          "durationTicks": 56,
          "midi": 58,
          "name": "A#3",
          "ticks": 14223,
          "time": 74.078125,
          "velocity": 0.4015748031496063
        },
        {
          "duration": 0.2916666666666714,
          "durationTicks": 56,
          "midi": 62,
          "name": "D4",
          "ticks": 14223,
          "time": 74.078125,
          "velocity": 0.4566929133858268
        },
        {
          "duration": 1.4010416666666714,
          "durationTicks": 269,
          "midi": 74,
          "name": "D5",
          "ticks": 14223,
          "time": 74.078125,
          "velocity": 0.5039370078740157
        },
        {
          "duration": 1.4010416666666714,
          "durationTicks": 269,
          "midi": 70,
          "name": "A#4",
          "ticks": 14223,
          "time": 74.078125,
          "velocity": 0.4409448818897638
        },
        {
          "duration": 0.109375,
          "durationTicks": 21,
          "midi": 53,
          "name": "F3",
          "ticks": 14292,
          "time": 74.4375,
          "velocity": 0.49606299212598426
        },
        {
          "duration": 0.2760416666666572,
          "durationTicks": 53,
          "midi": 62,
          "name": "D4",
          "ticks": 14330,
          "time": 74.63541666666667,
          "velocity": 0.5039370078740157
        },
        {
          "duration": 0.2760416666666572,
          "durationTicks": 53,
          "midi": 58,
          "name": "A#3",
          "ticks": 14330,
          "time": 74.63541666666667,
          "velocity": 0.5354330708661418
        },
        {
          "duration": 0.3020833333333428,
          "durationTicks": 58,
          "midi": 34,
          "name": "A#1",
          "ticks": 14392,
          "time": 74.95833333333333,
          "velocity": 0.4330708661417323
        },
        {
          "duration": 0.3020833333333428,
          "durationTicks": 58,
          "midi": 46,
          "name": "A#2",
          "ticks": 14392,
          "time": 74.95833333333333,
          "velocity": 0.5590551181102362
        },
        {
          "duration": 0.1822916666666714,
          "durationTicks": 35,
          "midi": 53,
          "name": "F3",
          "ticks": 14461,
          "time": 75.31770833333333,
          "velocity": 0.4566929133858268
        },
        {
          "duration": 0.2552083333333286,
          "durationTicks": 49,
          "midi": 58,
          "name": "A#3",
          "ticks": 14499,
          "time": 75.515625,
          "velocity": 0.4409448818897638
        },
        {
          "duration": 0.2552083333333286,
          "durationTicks": 49,
          "midi": 62,
          "name": "D4",
          "ticks": 14499,
          "time": 75.515625,
          "velocity": 0.4566929133858268
        },
        {
          "duration": 0.109375,
          "durationTicks": 21,
          "midi": 53,
          "name": "F3",
          "ticks": 14561,
          "time": 75.83854166666667,
          "velocity": 0.5354330708661418
        },
        {
          "duration": 0.2604166666666714,
          "durationTicks": 50,
          "midi": 58,
          "name": "A#3",
          "ticks": 14599,
          "time": 76.03645833333333,
          "velocity": 0.5669291338582677
        },
        {
          "duration": 0.2604166666666714,
          "durationTicks": 50,
          "midi": 62,
          "name": "D4",
          "ticks": 14599,
          "time": 76.03645833333333,
          "velocity": 0.5196850393700787
        },
        {
          "duration": 0.2864583333333286,
          "durationTicks": 55,
          "midi": 41,
          "name": "F2",
          "ticks": 14661,
          "time": 76.359375,
          "velocity": 0.44881889763779526
        },
        {
          "duration": 0.2864583333333286,
          "durationTicks": 55,
          "midi": 68,
          "name": "G#4",
          "ticks": 14661,
          "time": 76.359375,
          "velocity": 0.4094488188976378
        },
        {
          "duration": 0.2395833333333286,
          "durationTicks": 46,
          "midi": 53,
          "name": "F3",
          "ticks": 14661,
          "time": 76.359375,
          "velocity": 0.4251968503937008
        },
        {
          "duration": 0.2864583333333286,
          "durationTicks": 55,
          "midi": 72,
          "name": "C5",
          "ticks": 14661,
          "time": 76.359375,
          "velocity": 0.4251968503937008
        },
        {
          "duration": 0.2864583333333286,
          "durationTicks": 55,
          "midi": 77,
          "name": "F5",
          "ticks": 14661,
          "time": 76.359375,
          "velocity": 0.5433070866141733
        },
        {
          "duration": 0.109375,
          "durationTicks": 21,
          "midi": 53,
          "name": "F3",
          "ticks": 14729,
          "time": 76.71354166666667,
          "velocity": 0.4881889763779528
        },
        {
          "duration": 0.0833333333333286,
          "durationTicks": 16,
          "midi": 60,
          "name": "C4",
          "ticks": 14768,
          "time": 76.91666666666667,
          "velocity": 0.3937007874015748
        },
        {
          "duration": 0.0833333333333286,
          "durationTicks": 16,
          "midi": 56,
          "name": "G#3",
          "ticks": 14768,
          "time": 76.91666666666667,
          "velocity": 0.4330708661417323
        },
        {
          "duration": 0.2135416666666714,
          "durationTicks": 41,
          "midi": 68,
          "name": "G#4",
          "ticks": 14799,
          "time": 77.078125,
          "velocity": 0.3937007874015748
        },
        {
          "duration": 0.2135416666666714,
          "durationTicks": 41,
          "midi": 77,
          "name": "F5",
          "ticks": 14799,
          "time": 77.078125,
          "velocity": 0.5905511811023622
        },
        {
          "duration": 0.2135416666666714,
          "durationTicks": 41,
          "midi": 72,
          "name": "C5",
          "ticks": 14799,
          "time": 77.078125,
          "velocity": 0.4094488188976378
        },
        {
          "duration": 0.0833333333333286,
          "durationTicks": 16,
          "midi": 53,
          "name": "F3",
          "ticks": 14837,
          "time": 77.27604166666667,
          "velocity": 0.5354330708661418
        },
        {
          "duration": 0.09375,
          "durationTicks": 18,
          "midi": 56,
          "name": "G#3",
          "ticks": 14868,
          "time": 77.4375,
          "velocity": 0.4094488188976378
        },
        {
          "duration": 0.09375,
          "durationTicks": 18,
          "midi": 60,
          "name": "C4",
          "ticks": 14868,
          "time": 77.4375,
          "velocity": 0.4251968503937008
        },
        {
          "duration": 0.09895833333334281,
          "durationTicks": 19,
          "midi": 68,
          "name": "G#4",
          "ticks": 14899,
          "time": 77.59895833333333,
          "velocity": 0.33858267716535434
        },
        {
          "duration": 0.09895833333334281,
          "durationTicks": 19,
          "midi": 75,
          "name": "D#5",
          "ticks": 14899,
          "time": 77.59895833333333,
          "velocity": 0.47244094488188976
        },
        {
          "duration": 0.09895833333334281,
          "durationTicks": 19,
          "midi": 72,
          "name": "C5",
          "ticks": 14899,
          "time": 77.59895833333333,
          "velocity": 0.41732283464566927
        },
        {
          "duration": 0.078125,
          "durationTicks": 15,
          "midi": 41,
          "name": "F2",
          "ticks": 14937,
          "time": 77.796875,
          "velocity": 0.4645669291338583
        },
        {
          "duration": 0.078125,
          "durationTicks": 15,
          "midi": 53,
          "name": "F3",
          "ticks": 14937,
          "time": 77.796875,
          "velocity": 0.4330708661417323
        },
        {
          "duration": 0.078125,
          "durationTicks": 15,
          "midi": 72,
          "name": "C5",
          "ticks": 14937,
          "time": 77.796875,
          "velocity": 0.3464566929133858
        },
        {
          "duration": 0.078125,
          "durationTicks": 15,
          "midi": 77,
          "name": "F5",
          "ticks": 14937,
          "time": 77.796875,
          "velocity": 0.5826771653543307
        },
        {
          "duration": 0.078125,
          "durationTicks": 15,
          "midi": 68,
          "name": "G#4",
          "ticks": 14937,
          "time": 77.796875,
          "velocity": 0.5669291338582677
        },
        {
          "duration": 0.0885416666666714,
          "durationTicks": 17,
          "midi": 68,
          "name": "G#4",
          "ticks": 14968,
          "time": 77.95833333333333,
          "velocity": 0.3543307086614173
        },
        {
          "duration": 0.0885416666666714,
          "durationTicks": 17,
          "midi": 79,
          "name": "G5",
          "ticks": 14968,
          "time": 77.95833333333333,
          "velocity": 0.48031496062992124
        },
        {
          "duration": 0.0885416666666714,
          "durationTicks": 17,
          "midi": 72,
          "name": "C5",
          "ticks": 14968,
          "time": 77.95833333333333,
          "velocity": 0.4251968503937008
        },
        {
          "duration": 0.109375,
          "durationTicks": 21,
          "midi": 53,
          "name": "F3",
          "ticks": 14998,
          "time": 78.11458333333333,
          "velocity": 0.4409448818897638
        },
        {
          "duration": 0.2552083333333428,
          "durationTicks": 49,
          "midi": 56,
          "name": "G#3",
          "ticks": 15037,
          "time": 78.31770833333333,
          "velocity": 0.4566929133858268
        },
        {
          "duration": 0.21875,
          "durationTicks": 42,
          "midi": 68,
          "name": "G#4",
          "ticks": 15037,
          "time": 78.31770833333333,
          "velocity": 0.4094488188976378
        },
        {
          "duration": 0.2552083333333428,
          "durationTicks": 49,
          "midi": 60,
          "name": "C4",
          "ticks": 15037,
          "time": 78.31770833333333,
          "velocity": 0.5590551181102362
        },
        {
          "duration": 0.21875,
          "durationTicks": 42,
          "midi": 72,
          "name": "C5",
          "ticks": 15037,
          "time": 78.31770833333333,
          "velocity": 0.5118110236220472
        },
        {
          "duration": 0.1145833333333286,
          "durationTicks": 22,
          "midi": 53,
          "name": "F3",
          "ticks": 15098,
          "time": 78.63541666666667,
          "velocity": 0.5511811023622047
        },
        {
          "duration": 0.1145833333333286,
          "durationTicks": 22,
          "midi": 75,
          "name": "D#5",
          "ticks": 15098,
          "time": 78.63541666666667,
          "velocity": 0.4566929133858268
        },
        {
          "duration": 0.0989583333333286,
          "durationTicks": 19,
          "midi": 68,
          "name": "G#4",
          "ticks": 15098,
          "time": 78.63541666666667,
          "velocity": 0.3779527559055118
        },
        {
          "duration": 0.0989583333333286,
          "durationTicks": 19,
          "midi": 72,
          "name": "C5",
          "ticks": 15098,
          "time": 78.63541666666667,
          "velocity": 0.48031496062992124
        },
        {
          "duration": 0.2708333333333286,
          "durationTicks": 52,
          "midi": 56,
          "name": "G#3",
          "ticks": 15137,
          "time": 78.83854166666667,
          "velocity": 0.4330708661417323
        },
        {
          "duration": 0.2708333333333286,
          "durationTicks": 52,
          "midi": 72,
          "name": "C5",
          "ticks": 15137,
          "time": 78.83854166666667,
          "velocity": 0.4409448818897638
        },
        {
          "duration": 0.2708333333333286,
          "durationTicks": 52,
          "midi": 60,
          "name": "C4",
          "ticks": 15137,
          "time": 78.83854166666667,
          "velocity": 0.4409448818897638
        },
        {
          "duration": 0.2604166666666572,
          "durationTicks": 50,
          "midi": 67,
          "name": "G4",
          "ticks": 15206,
          "time": 79.19791666666667,
          "velocity": 0.3464566929133858
        },
        {
          "duration": 0.2604166666666572,
          "durationTicks": 50,
          "midi": 48,
          "name": "C3",
          "ticks": 15206,
          "time": 79.19791666666667,
          "velocity": 0.4566929133858268
        },
        {
          "duration": 0.2604166666666572,
          "durationTicks": 50,
          "midi": 72,
          "name": "C5",
          "ticks": 15206,
          "time": 79.19791666666667,
          "velocity": 0.4330708661417323
        },
        {
          "duration": 0.2604166666666572,
          "durationTicks": 50,
          "midi": 36,
          "name": "C2",
          "ticks": 15206,
          "time": 79.19791666666667,
          "velocity": 0.33858267716535434
        },
        {
          "duration": 0.2604166666666572,
          "durationTicks": 50,
          "midi": 77,
          "name": "F5",
          "ticks": 15206,
          "time": 79.19791666666667,
          "velocity": 0.5905511811023622
        },
        {
          "duration": 0.1197916666666714,
          "durationTicks": 23,
          "midi": 55,
          "name": "G3",
          "ticks": 15267,
          "time": 79.515625,
          "velocity": 0.41732283464566927
        },
        {
          "duration": 0.0989583333333286,
          "durationTicks": 19,
          "midi": 63,
          "name": "D#4",
          "ticks": 15305,
          "time": 79.71354166666667,
          "velocity": 0.5275590551181102
        },
        {
          "duration": 0.0989583333333286,
          "durationTicks": 19,
          "midi": 60,
          "name": "C4",
          "ticks": 15305,
          "time": 79.71354166666667,
          "velocity": 0.4645669291338583
        },
        {
          "duration": 0.1041666666666714,
          "durationTicks": 20,
          "midi": 77,
          "name": "F5",
          "ticks": 15337,
          "time": 79.88020833333333,
          "velocity": 0.5433070866141733
        },
        {
          "duration": 0.1041666666666714,
          "durationTicks": 20,
          "midi": 72,
          "name": "C5",
          "ticks": 15337,
          "time": 79.88020833333333,
          "velocity": 0.5196850393700787
        },
        {
          "duration": 0.1041666666666714,
          "durationTicks": 20,
          "midi": 67,
          "name": "G4",
          "ticks": 15337,
          "time": 79.88020833333333,
          "velocity": 0.41732283464566927
        },
        {
          "duration": 0.0833333333333286,
          "durationTicks": 16,
          "midi": 55,
          "name": "G3",
          "ticks": 15375,
          "time": 80.078125,
          "velocity": 0.3700787401574803
        },
        {
          "duration": 0.0989583333333286,
          "durationTicks": 19,
          "midi": 63,
          "name": "D#4",
          "ticks": 15405,
          "time": 80.234375,
          "velocity": 0.5433070866141733
        },
        {
          "duration": 0.0989583333333286,
          "durationTicks": 19,
          "midi": 60,
          "name": "C4",
          "ticks": 15405,
          "time": 80.234375,
          "velocity": 0.4645669291338583
        },
        {
          "duration": 0.109375,
          "durationTicks": 21,
          "midi": 75,
          "name": "D#5",
          "ticks": 15437,
          "time": 80.40104166666667,
          "velocity": 0.44881889763779526
        },
        {
          "duration": 0.109375,
          "durationTicks": 21,
          "midi": 72,
          "name": "C5",
          "ticks": 15437,
          "time": 80.40104166666667,
          "velocity": 0.4251968503937008
        },
        {
          "duration": 0.109375,
          "durationTicks": 21,
          "midi": 67,
          "name": "G4",
          "ticks": 15437,
          "time": 80.40104166666667,
          "velocity": 0.3543307086614173
        },
        {
          "duration": 0.0885416666666714,
          "durationTicks": 17,
          "midi": 48,
          "name": "C3",
          "ticks": 15475,
          "time": 80.59895833333333,
          "velocity": 0.4645669291338583
        },
        {
          "duration": 0.0885416666666714,
          "durationTicks": 17,
          "midi": 77,
          "name": "F5",
          "ticks": 15475,
          "time": 80.59895833333333,
          "velocity": 0.5511811023622047
        },
        {
          "duration": 0.0885416666666714,
          "durationTicks": 17,
          "midi": 36,
          "name": "C2",
          "ticks": 15475,
          "time": 80.59895833333333,
          "velocity": 0.3543307086614173
        },
        {
          "duration": 0.06770833333334281,
          "durationTicks": 13,
          "midi": 72,
          "name": "C5",
          "ticks": 15475,
          "time": 80.59895833333333,
          "velocity": 0.41732283464566927
        },
        {
          "duration": 0.1041666666666714,
          "durationTicks": 20,
          "midi": 79,
          "name": "G5",
          "ticks": 15505,
          "time": 80.75520833333333,
          "velocity": 0.49606299212598426
        },
        {
          "duration": 0.1041666666666714,
          "durationTicks": 20,
          "midi": 67,
          "name": "G4",
          "ticks": 15505,
          "time": 80.75520833333333,
          "velocity": 0.5118110236220472
        },
        {
          "duration": 0.1041666666666714,
          "durationTicks": 20,
          "midi": 72,
          "name": "C5",
          "ticks": 15505,
          "time": 80.75520833333333,
          "velocity": 0.5826771653543307
        },
        {
          "duration": 0.1145833333333286,
          "durationTicks": 22,
          "midi": 55,
          "name": "G3",
          "ticks": 15536,
          "time": 80.91666666666667,
          "velocity": 0.4015748031496063
        },
        {
          "duration": 0.265625,
          "durationTicks": 51,
          "midi": 67,
          "name": "G4",
          "ticks": 15574,
          "time": 81.11458333333333,
          "velocity": 0.41732283464566927
        },
        {
          "duration": 0.265625,
          "durationTicks": 51,
          "midi": 63,
          "name": "D#4",
          "ticks": 15574,
          "time": 81.11458333333333,
          "velocity": 0.49606299212598426
        },
        {
          "duration": 0.265625,
          "durationTicks": 51,
          "midi": 72,
          "name": "C5",
          "ticks": 15574,
          "time": 81.11458333333333,
          "velocity": 0.5826771653543307
        },
        {
          "duration": 0.265625,
          "durationTicks": 51,
          "midi": 60,
          "name": "C4",
          "ticks": 15574,
          "time": 81.11458333333333,
          "velocity": 0.5590551181102362
        },
        {
          "duration": 0.0833333333333286,
          "durationTicks": 16,
          "midi": 55,
          "name": "G3",
          "ticks": 15644,
          "time": 81.47916666666667,
          "velocity": 0.3779527559055118
        },
        {
          "duration": 0.0833333333333286,
          "durationTicks": 16,
          "midi": 72,
          "name": "C5",
          "ticks": 15644,
          "time": 81.47916666666667,
          "velocity": 0.5118110236220472
        },
        {
          "duration": 0.0833333333333286,
          "durationTicks": 16,
          "midi": 75,
          "name": "D#5",
          "ticks": 15644,
          "time": 81.47916666666667,
          "velocity": 0.4566929133858268
        },
        {
          "duration": 0.0833333333333286,
          "durationTicks": 16,
          "midi": 67,
          "name": "G4",
          "ticks": 15644,
          "time": 81.47916666666667,
          "velocity": 0.33070866141732286
        },
        {
          "duration": 0.2708333333333286,
          "durationTicks": 52,
          "midi": 63,
          "name": "D#4",
          "ticks": 15674,
          "time": 81.63541666666667,
          "velocity": 0.5039370078740157
        },
        {
          "duration": 0.2708333333333286,
          "durationTicks": 52,
          "midi": 60,
          "name": "C4",
          "ticks": 15674,
          "time": 81.63541666666667,
          "velocity": 0.4566929133858268
        },
        {
          "duration": 0.078125,
          "durationTicks": 15,
          "midi": 51,
          "name": "D#3",
          "ticks": 15744,
          "time": 82,
          "velocity": 0.5118110236220472
        },
        {
          "duration": 0.078125,
          "durationTicks": 15,
          "midi": 39,
          "name": "D#2",
          "ticks": 15744,
          "time": 82,
          "velocity": 0.4015748031496063
        },
        {
          "duration": 0.078125,
          "durationTicks": 15,
          "midi": 70,
          "name": "A#4",
          "ticks": 15744,
          "time": 82,
          "velocity": 0.4094488188976378
        },
        {
          "duration": 0.078125,
          "durationTicks": 15,
          "midi": 58,
          "name": "A#3",
          "ticks": 15744,
          "time": 82,
          "velocity": 0.36220472440944884
        },
        {
          "duration": 0.0989583333333286,
          "durationTicks": 19,
          "midi": 79,
          "name": "G5",
          "ticks": 15774,
          "time": 82.15625,
          "velocity": 0.5118110236220472
        },
        {
          "duration": 0.0989583333333286,
          "durationTicks": 19,
          "midi": 70,
          "name": "A#4",
          "ticks": 15774,
          "time": 82.15625,
          "velocity": 0.36220472440944884
        },
        {
          "duration": 0.0729166666666714,
          "durationTicks": 14,
          "midi": 51,
          "name": "D#3",
          "ticks": 15813,
          "time": 82.359375,
          "velocity": 0.49606299212598426
        },
        {
          "duration": 0.2708333333333286,
          "durationTicks": 52,
          "midi": 55,
          "name": "G3",
          "ticks": 15843,
          "time": 82.515625,
          "velocity": 0.3228346456692913
        },
        {
          "duration": 0.2708333333333286,
          "durationTicks": 52,
          "midi": 77,
          "name": "F5",
          "ticks": 15843,
          "time": 82.515625,
          "velocity": 0.5118110236220472
        },
        {
          "duration": 0.2708333333333286,
          "durationTicks": 52,
          "midi": 58,
          "name": "A#3",
          "ticks": 15843,
          "time": 82.515625,
          "velocity": 0.4645669291338583
        },
        {
          "duration": 0.2708333333333286,
          "durationTicks": 52,
          "midi": 70,
          "name": "A#4",
          "ticks": 15843,
          "time": 82.515625,
          "velocity": 0.44881889763779526
        },
        {
          "duration": 0.08333333333334281,
          "durationTicks": 16,
          "midi": 75,
          "name": "D#5",
          "ticks": 15913,
          "time": 82.88020833333333,
          "velocity": 0.4409448818897638
        },
        {
          "duration": 0.08333333333334281,
          "durationTicks": 16,
          "midi": 70,
          "name": "A#4",
          "ticks": 15913,
          "time": 82.88020833333333,
          "velocity": 0.3858267716535433
        },
        {
          "duration": 0.2760416666666714,
          "durationTicks": 53,
          "midi": 58,
          "name": "A#3",
          "ticks": 15943,
          "time": 83.03645833333333,
          "velocity": 0.4645669291338583
        },
        {
          "duration": 0.2760416666666714,
          "durationTicks": 53,
          "midi": 55,
          "name": "G3",
          "ticks": 15943,
          "time": 83.03645833333333,
          "velocity": 0.3700787401574803
        },
        {
          "duration": 0.08854166666665719,
          "durationTicks": 17,
          "midi": 82,
          "name": "A#5",
          "ticks": 16013,
          "time": 83.40104166666667,
          "velocity": 0.5433070866141733
        },
        {
          "duration": 0.08854166666665719,
          "durationTicks": 17,
          "midi": 39,
          "name": "D#2",
          "ticks": 16013,
          "time": 83.40104166666667,
          "velocity": 0.41732283464566927
        },
        {
          "duration": 0.08854166666665719,
          "durationTicks": 17,
          "midi": 51,
          "name": "D#3",
          "ticks": 16013,
          "time": 83.40104166666667,
          "velocity": 0.4251968503937008
        },
        {
          "duration": 0.05729166666665719,
          "durationTicks": 11,
          "midi": 75,
          "name": "D#5",
          "ticks": 16013,
          "time": 83.40104166666667,
          "velocity": 0.49606299212598426
        },
        {
          "duration": 0.05729166666665719,
          "durationTicks": 11,
          "midi": 70,
          "name": "A#4",
          "ticks": 16013,
          "time": 83.40104166666667,
          "velocity": 0.4881889763779528
        },
        {
          "duration": 0.10416666666665719,
          "durationTicks": 20,
          "midi": 79,
          "name": "G5",
          "ticks": 16043,
          "time": 83.55729166666667,
          "velocity": 0.5354330708661418
        },
        {
          "duration": 0.08854166666665719,
          "durationTicks": 17,
          "midi": 70,
          "name": "A#4",
          "ticks": 16043,
          "time": 83.55729166666667,
          "velocity": 0.33070866141732286
        },
        {
          "duration": 0.08854166666665719,
          "durationTicks": 17,
          "midi": 75,
          "name": "D#5",
          "ticks": 16043,
          "time": 83.55729166666667,
          "velocity": 0.4330708661417323
        },
        {
          "duration": 0.078125,
          "durationTicks": 15,
          "midi": 51,
          "name": "D#3",
          "ticks": 16081,
          "time": 83.75520833333333,
          "velocity": 0.5354330708661418
        },
        {
          "duration": 0.265625,
          "durationTicks": 51,
          "midi": 58,
          "name": "A#3",
          "ticks": 16112,
          "time": 83.91666666666667,
          "velocity": 0.4566929133858268
        },
        {
          "duration": 0.265625,
          "durationTicks": 51,
          "midi": 55,
          "name": "G3",
          "ticks": 16112,
          "time": 83.91666666666667,
          "velocity": 0.31496062992125984
        },
        {
          "duration": 0.265625,
          "durationTicks": 51,
          "midi": 70,
          "name": "A#4",
          "ticks": 16112,
          "time": 83.91666666666667,
          "velocity": 0.4330708661417323
        },
        {
          "duration": 0.265625,
          "durationTicks": 51,
          "midi": 77,
          "name": "F5",
          "ticks": 16112,
          "time": 83.91666666666667,
          "velocity": 0.5748031496062992
        },
        {
          "duration": 0.08854166666665719,
          "durationTicks": 17,
          "midi": 70,
          "name": "A#4",
          "ticks": 16181,
          "time": 84.27604166666667,
          "velocity": 0.36220472440944884
        },
        {
          "duration": 0.08854166666665719,
          "durationTicks": 17,
          "midi": 75,
          "name": "D#5",
          "ticks": 16181,
          "time": 84.27604166666667,
          "velocity": 0.4330708661417323
        },
        {
          "duration": 0.1041666666666714,
          "durationTicks": 20,
          "midi": 58,
          "name": "A#3",
          "ticks": 16212,
          "time": 84.4375,
          "velocity": 0.4330708661417323
        },
        {
          "duration": 0.1041666666666714,
          "durationTicks": 20,
          "midi": 55,
          "name": "G3",
          "ticks": 16212,
          "time": 84.4375,
          "velocity": 0.3779527559055118
        },
        {
          "duration": 0.08854166666665719,
          "durationTicks": 17,
          "midi": 70,
          "name": "A#4",
          "ticks": 16250,
          "time": 84.63541666666667,
          "velocity": 0.36220472440944884
        },
        {
          "duration": 0.08854166666665719,
          "durationTicks": 17,
          "midi": 74,
          "name": "D5",
          "ticks": 16250,
          "time": 84.63541666666667,
          "velocity": 0.5433070866141733
        },
        {
          "duration": 0.08854166666665719,
          "durationTicks": 17,
          "midi": 77,
          "name": "F5",
          "ticks": 16250,
          "time": 84.63541666666667,
          "velocity": 0.5433070866141733
        },
        {
          "duration": 0.28125,
          "durationTicks": 54,
          "midi": 46,
          "name": "A#2",
          "ticks": 16281,
          "time": 84.796875,
          "velocity": 0.49606299212598426
        },
        {
          "duration": 0.28125,
          "durationTicks": 54,
          "midi": 34,
          "name": "A#1",
          "ticks": 16281,
          "time": 84.796875,
          "velocity": 0.4251968503937008
        },
        {
          "duration": 0.0885416666666714,
          "durationTicks": 17,
          "midi": 53,
          "name": "F3",
          "ticks": 16350,
          "time": 85.15625,
          "velocity": 0.4645669291338583
        },
        {
          "duration": 0.2760416666666714,
          "durationTicks": 53,
          "midi": 62,
          "name": "D4",
          "ticks": 16381,
          "time": 85.31770833333333,
          "velocity": 0.4566929133858268
        },
        {
          "duration": 0.2760416666666714,
          "durationTicks": 53,
          "midi": 58,
          "name": "A#3",
          "ticks": 16381,
          "time": 85.31770833333333,
          "velocity": 0.41732283464566927
        },
        {
          "duration": 0.09895833333334281,
          "durationTicks": 19,
          "midi": 53,
          "name": "F3",
          "ticks": 16450,
          "time": 85.67708333333333,
          "velocity": 0.4566929133858268
        },
        {
          "duration": 0.2864583333333286,
          "durationTicks": 55,
          "midi": 58,
          "name": "A#3",
          "ticks": 16481,
          "time": 85.83854166666667,
          "velocity": 0.44881889763779526
        },
        {
          "duration": 0.2864583333333286,
          "durationTicks": 55,
          "midi": 62,
          "name": "D4",
          "ticks": 16481,
          "time": 85.83854166666667,
          "velocity": 0.5196850393700787
        },
        {
          "duration": 0.2760416666666572,
          "durationTicks": 53,
          "midi": 46,
          "name": "A#2",
          "ticks": 16550,
          "time": 86.19791666666667,
          "velocity": 0.5118110236220472
        },
        {
          "duration": 0.09375,
          "durationTicks": 18,
          "midi": 53,
          "name": "F3",
          "ticks": 16619,
          "time": 86.55729166666667,
          "velocity": 0.44881889763779526
        },
        {
          "duration": 0.1145833333333286,
          "durationTicks": 22,
          "midi": 62,
          "name": "D4",
          "ticks": 16649,
          "time": 86.71354166666667,
          "velocity": 0.44881889763779526
        },
        {
          "duration": 0.1145833333333286,
          "durationTicks": 22,
          "midi": 58,
          "name": "A#3",
          "ticks": 16649,
          "time": 86.71354166666667,
          "velocity": 0.4094488188976378
        },
        {
          "duration": 0.0833333333333286,
          "durationTicks": 16,
          "midi": 72,
          "name": "C5",
          "ticks": 16688,
          "time": 86.91666666666667,
          "velocity": 0.47244094488188976
        },
        {
          "duration": 0.0989583333333286,
          "durationTicks": 19,
          "midi": 70,
          "name": "A#4",
          "ticks": 16719,
          "time": 87.078125,
          "velocity": 0.3700787401574803
        },
        {
          "duration": 0.0989583333333286,
          "durationTicks": 19,
          "midi": 53,
          "name": "F3",
          "ticks": 16719,
          "time": 87.078125,
          "velocity": 0.49606299212598426
        },
        {
          "duration": 0.1145833333333286,
          "durationTicks": 22,
          "midi": 58,
          "name": "A#3",
          "ticks": 16749,
          "time": 87.234375,
          "velocity": 0.49606299212598426
        },
        {
          "duration": 0.1145833333333286,
          "durationTicks": 22,
          "midi": 72,
          "name": "C5",
          "ticks": 16749,
          "time": 87.234375,
          "velocity": 0.5275590551181102
        },
        {
          "duration": 0.1145833333333286,
          "durationTicks": 22,
          "midi": 62,
          "name": "D4",
          "ticks": 16749,
          "time": 87.234375,
          "velocity": 0.49606299212598426
        },
        {
          "duration": 0.0885416666666714,
          "durationTicks": 17,
          "midi": 70,
          "name": "A#4",
          "ticks": 16788,
          "time": 87.4375,
          "velocity": 0.33070866141732286
        },
        {
          "duration": 0.1041666666666714,
          "durationTicks": 20,
          "midi": 41,
          "name": "F2",
          "ticks": 16819,
          "time": 87.59895833333333,
          "velocity": 0.3937007874015748
        },
        {
          "duration": 1.2135416666666714,
          "durationTicks": 233,
          "midi": 72,
          "name": "C5",
          "ticks": 16819,
          "time": 87.59895833333333,
          "velocity": 0.5275590551181102
        },
        {
          "duration": 1.2135416666666714,
          "durationTicks": 233,
          "midi": 68,
          "name": "G#4",
          "ticks": 16819,
          "time": 87.59895833333333,
          "velocity": 0.3543307086614173
        },
        {
          "duration": 1.2135416666666714,
          "durationTicks": 233,
          "midi": 65,
          "name": "F4",
          "ticks": 16819,
          "time": 87.59895833333333,
          "velocity": 0.4566929133858268
        },
        {
          "duration": 0.078125,
          "durationTicks": 15,
          "midi": 48,
          "name": "C3",
          "ticks": 16857,
          "time": 87.796875,
          "velocity": 0.31496062992125984
        },
        {
          "duration": 0.08333333333334281,
          "durationTicks": 16,
          "midi": 53,
          "name": "F3",
          "ticks": 16888,
          "time": 87.95833333333333,
          "velocity": 0.41732283464566927
        },
        {
          "duration": 0.8177083333333428,
          "durationTicks": 157,
          "midi": 56,
          "name": "G#3",
          "ticks": 16918,
          "time": 88.11458333333333,
          "velocity": 0.41732283464566927
        },
        {
          "duration": 0.109375,
          "durationTicks": 21,
          "midi": 41,
          "name": "F2",
          "ticks": 17088,
          "time": 89,
          "velocity": 0.3858267716535433
        },
        {
          "duration": 0.08854166666665719,
          "durationTicks": 17,
          "midi": 48,
          "name": "C3",
          "ticks": 17126,
          "time": 89.19791666666667,
          "velocity": 0.33070866141732286
        },
        {
          "duration": 0.09375,
          "durationTicks": 18,
          "midi": 53,
          "name": "F3",
          "ticks": 17157,
          "time": 89.359375,
          "velocity": 0.3228346456692913
        },
        {
          "duration": 0.4583333333333286,
          "durationTicks": 88,
          "midi": 56,
          "name": "G#3",
          "ticks": 17195,
          "time": 89.55729166666667,
          "velocity": 0.4330708661417323
        },
        {
          "duration": 0.09375,
          "durationTicks": 18,
          "midi": 72,
          "name": "C5",
          "ticks": 17225,
          "time": 89.71354166666667,
          "velocity": 0.5275590551181102
        },
        {
          "duration": 0.1041666666666714,
          "durationTicks": 20,
          "midi": 70,
          "name": "A#4",
          "ticks": 17257,
          "time": 89.88020833333333,
          "velocity": 0.41732283464566927
        },
        {
          "duration": 0.078125,
          "durationTicks": 15,
          "midi": 72,
          "name": "C5",
          "ticks": 17295,
          "time": 90.078125,
          "velocity": 0.48031496062992124
        },
        {
          "duration": 0.09375,
          "durationTicks": 18,
          "midi": 70,
          "name": "A#4",
          "ticks": 17325,
          "time": 90.234375,
          "velocity": 0.3700787401574803
        },
        {
          "duration": 0.0989583333333286,
          "durationTicks": 19,
          "midi": 74,
          "name": "D5",
          "ticks": 17357,
          "time": 90.40104166666667,
          "velocity": 0.41732283464566927
        },
        {
          "duration": 0.0989583333333286,
          "durationTicks": 19,
          "midi": 36,
          "name": "C2",
          "ticks": 17357,
          "time": 90.40104166666667,
          "velocity": 0.33858267716535434
        },
        {
          "duration": 0.078125,
          "durationTicks": 15,
          "midi": 43,
          "name": "G2",
          "ticks": 17395,
          "time": 90.59895833333333,
          "velocity": 0.36220472440944884
        },
        {
          "duration": 0.0625,
          "durationTicks": 12,
          "midi": 70,
          "name": "A#4",
          "ticks": 17425,
          "time": 90.75520833333333,
          "velocity": 0.3700787401574803
        },
        {
          "duration": 0.0885416666666714,
          "durationTicks": 17,
          "midi": 48,
          "name": "C3",
          "ticks": 17425,
          "time": 90.75520833333333,
          "velocity": 0.4015748031496063
        },
        {
          "duration": 0.0885416666666714,
          "durationTicks": 17,
          "midi": 70,
          "name": "A#4",
          "ticks": 17460,
          "time": 90.9375,
          "velocity": 0.3700787401574803
        },
        {
          "duration": 0.40625,
          "durationTicks": 78,
          "midi": 51,
          "name": "D#3",
          "ticks": 17464,
          "time": 90.95833333333333,
          "velocity": 0.3700787401574803
        },
        {
          "duration": 0.0989583333333286,
          "durationTicks": 19,
          "midi": 72,
          "name": "C5",
          "ticks": 17525,
          "time": 91.27604166666667,
          "velocity": 0.49606299212598426
        },
        {
          "duration": 0.265625,
          "durationTicks": 51,
          "midi": 63,
          "name": "D#4",
          "ticks": 17564,
          "time": 91.47916666666667,
          "velocity": 0.49606299212598426
        },
        {
          "duration": 0.265625,
          "durationTicks": 51,
          "midi": 67,
          "name": "G4",
          "ticks": 17564,
          "time": 91.47916666666667,
          "velocity": 0.3543307086614173
        },
        {
          "duration": 0.1145833333333286,
          "durationTicks": 22,
          "midi": 36,
          "name": "C2",
          "ticks": 17625,
          "time": 91.796875,
          "velocity": 0.3858267716535433
        },
        {
          "duration": 0.0833333333333286,
          "durationTicks": 16,
          "midi": 43,
          "name": "G2",
          "ticks": 17664,
          "time": 92,
          "velocity": 0.33858267716535434
        },
        {
          "duration": 0.0989583333333286,
          "durationTicks": 19,
          "midi": 48,
          "name": "C3",
          "ticks": 17694,
          "time": 92.15625,
          "velocity": 0.4015748031496063
        },
        {
          "duration": 0.4114583333333286,
          "durationTicks": 79,
          "midi": 51,
          "name": "D#3",
          "ticks": 17733,
          "time": 92.359375,
          "velocity": 0.4015748031496063
        },
        {
          "duration": 0.0833333333333286,
          "durationTicks": 16,
          "midi": 72,
          "name": "C5",
          "ticks": 17763,
          "time": 92.515625,
          "velocity": 0.5039370078740157
        },
        {
          "duration": 0.09895833333334281,
          "durationTicks": 19,
          "midi": 70,
          "name": "A#4",
          "ticks": 17794,
          "time": 92.67708333333333,
          "velocity": 0.4330708661417323
        },
        {
          "duration": 0.0729166666666714,
          "durationTicks": 14,
          "midi": 72,
          "name": "C5",
          "ticks": 17833,
          "time": 92.88020833333333,
          "velocity": 0.5196850393700787
        },
        {
          "duration": 0.09895833333334281,
          "durationTicks": 19,
          "midi": 70,
          "name": "A#4",
          "ticks": 17863,
          "time": 93.03645833333333,
          "velocity": 0.3700787401574803
        },
        {
          "duration": 0.109375,
          "durationTicks": 21,
          "midi": 39,
          "name": "D#2",
          "ticks": 17894,
          "time": 93.19791666666667,
          "velocity": 0.36220472440944884
        },
        {
          "duration": 0.109375,
          "durationTicks": 21,
          "midi": 74,
          "name": "D5",
          "ticks": 17894,
          "time": 93.19791666666667,
          "velocity": 0.4645669291338583
        },
        {
          "duration": 0.0833333333333286,
          "durationTicks": 16,
          "midi": 46,
          "name": "A#2",
          "ticks": 17933,
          "time": 93.40104166666667,
          "velocity": 0.3779527559055118
        },
        {
          "duration": 0.10416666666665719,
          "durationTicks": 20,
          "midi": 70,
          "name": "A#4",
          "ticks": 17963,
          "time": 93.55729166666667,
          "velocity": 0.3858267716535433
        },
        {
          "duration": 0.10416666666665719,
          "durationTicks": 20,
          "midi": 51,
          "name": "D#3",
          "ticks": 17963,
          "time": 93.55729166666667,
          "velocity": 0.3700787401574803
        },
        {
          "duration": 0.0625,
          "durationTicks": 12,
          "midi": 63,
          "name": "D#4",
          "ticks": 17971,
          "time": 93.59895833333333,
          "velocity": 0.3700787401574803
        },
        {
          "duration": 0.2291666666666714,
          "durationTicks": 44,
          "midi": 70,
          "name": "A#4",
          "ticks": 18001,
          "time": 93.75520833333333,
          "velocity": 0.44881889763779526
        },
        {
          "duration": 0.390625,
          "durationTicks": 75,
          "midi": 55,
          "name": "G3",
          "ticks": 18001,
          "time": 93.75520833333333,
          "velocity": 0.33858267716535434
        },
        {
          "duration": 0.1041666666666714,
          "durationTicks": 20,
          "midi": 72,
          "name": "C5",
          "ticks": 18063,
          "time": 94.078125,
          "velocity": 0.5039370078740157
        },
        {
          "duration": 0.4375,
          "durationTicks": 84,
          "midi": 63,
          "name": "D#4",
          "ticks": 18101,
          "time": 94.27604166666667,
          "velocity": 0.4645669291338583
        },
        {
          "duration": 0.4375,
          "durationTicks": 84,
          "midi": 67,
          "name": "G4",
          "ticks": 18101,
          "time": 94.27604166666667,
          "velocity": 0.3937007874015748
        },
        {
          "duration": 0.0833333333333286,
          "durationTicks": 16,
          "midi": 39,
          "name": "D#2",
          "ticks": 18170,
          "time": 94.63541666666667,
          "velocity": 0.36220472440944884
        },
        {
          "duration": 0.09375,
          "durationTicks": 18,
          "midi": 46,
          "name": "A#2",
          "ticks": 18201,
          "time": 94.796875,
          "velocity": 0.3937007874015748
        },
        {
          "duration": 0.1041666666666714,
          "durationTicks": 20,
          "midi": 51,
          "name": "D#3",
          "ticks": 18232,
          "time": 94.95833333333333,
          "velocity": 0.36220472440944884
        },
        {
          "duration": 0.4166666666666714,
          "durationTicks": 80,
          "midi": 55,
          "name": "G3",
          "ticks": 18270,
          "time": 95.15625,
          "velocity": 0.33070866141732286
        },
        {
          "duration": 0.265625,
          "durationTicks": 51,
          "midi": 70,
          "name": "A#4",
          "ticks": 18301,
          "time": 95.31770833333333,
          "velocity": 0.4330708661417323
        },
        {
          "duration": 0.265625,
          "durationTicks": 51,
          "midi": 72,
          "name": "C5",
          "ticks": 18370,
          "time": 95.67708333333333,
          "velocity": 0.5118110236220472
        },
        {
          "duration": 0.08333333333334281,
          "durationTicks": 16,
          "midi": 62,
          "name": "D4",
          "ticks": 18439,
          "time": 96.03645833333333,
          "velocity": 0.5275590551181102
        },
        {
          "duration": 0.08333333333334281,
          "durationTicks": 16,
          "midi": 67,
          "name": "G4",
          "ticks": 18439,
          "time": 96.03645833333333,
          "velocity": 0.4094488188976378
        },
        {
          "duration": 0.08333333333334281,
          "durationTicks": 16,
          "midi": 34,
          "name": "A#1",
          "ticks": 18439,
          "time": 96.03645833333333,
          "velocity": 0.3779527559055118
        },
        {
          "duration": 0.09375,
          "durationTicks": 18,
          "midi": 41,
          "name": "F2",
          "ticks": 18470,
          "time": 96.19791666666667,
          "velocity": 0.33858267716535434
        },
        {
          "duration": 0.71875,
          "durationTicks": 138,
          "midi": 65,
          "name": "F4",
          "ticks": 18470,
          "time": 96.19791666666667,
          "velocity": 0.4566929133858268
        },
        {
          "duration": 0.0625,
          "durationTicks": 12,
          "midi": 46,
          "name": "A#2",
          "ticks": 18509,
          "time": 96.40104166666667,
          "velocity": 0.3937007874015748
        },
        {
          "duration": 0.5572916666666572,
          "durationTicks": 107,
          "midi": 50,
          "name": "D3",
          "ticks": 18539,
          "time": 96.55729166666667,
          "velocity": 0.41732283464566927
        },
        {
          "duration": 0.0833333333333286,
          "durationTicks": 16,
          "midi": 75,
          "name": "D#5",
          "ticks": 18708,
          "time": 97.4375,
          "velocity": 0.5511811023622047
        },
        {
          "duration": 0.0833333333333286,
          "durationTicks": 16,
          "midi": 34,
          "name": "A#1",
          "ticks": 18708,
          "time": 97.4375,
          "velocity": 0.4094488188976378
        },
        {
          "duration": 0.09895833333334281,
          "durationTicks": 19,
          "midi": 41,
          "name": "F2",
          "ticks": 18739,
          "time": 97.59895833333333,
          "velocity": 0.36220472440944884
        },
        {
          "duration": 0.078125,
          "durationTicks": 15,
          "midi": 46,
          "name": "A#2",
          "ticks": 18777,
          "time": 97.796875,
          "velocity": 0.5196850393700787
        },
        {
          "duration": 0.078125,
          "durationTicks": 15,
          "midi": 74,
          "name": "D5",
          "ticks": 18777,
          "time": 97.796875,
          "velocity": 0.4881889763779528
        },
        {
          "duration": 0.0885416666666714,
          "durationTicks": 17,
          "midi": 50,
          "name": "D3",
          "ticks": 18808,
          "time": 97.95833333333333,
          "velocity": 0.3543307086614173
        },
        {
          "duration": 0.28125,
          "durationTicks": 54,
          "midi": 72,
          "name": "C5",
          "ticks": 18838,
          "time": 98.11458333333333,
          "velocity": 0.48031496062992124
        },
        {
          "duration": 0.28125,
          "durationTicks": 54,
          "midi": 70,
          "name": "A#4",
          "ticks": 18908,
          "time": 98.47916666666667,
          "velocity": 0.3700787401574803
        },
        {
          "duration": 0.0989583333333286,
          "durationTicks": 19,
          "midi": 41,
          "name": "F2",
          "ticks": 18977,
          "time": 98.83854166666667,
          "velocity": 0.4094488188976378
        },
        {
          "duration": 0.0989583333333286,
          "durationTicks": 19,
          "midi": 72,
          "name": "C5",
          "ticks": 18977,
          "time": 98.83854166666667,
          "velocity": 0.5275590551181102
        },
        {
          "duration": 0.0989583333333286,
          "durationTicks": 19,
          "midi": 68,
          "name": "G#4",
          "ticks": 18977,
          "time": 98.83854166666667,
          "velocity": 0.4094488188976378
        },
        {
          "duration": 0.0989583333333286,
          "durationTicks": 19,
          "midi": 65,
          "name": "F4",
          "ticks": 18977,
          "time": 98.83854166666667,
          "velocity": 0.44881889763779526
        },
        {
          "duration": 0.109375,
          "durationTicks": 21,
          "midi": 48,
          "name": "C3",
          "ticks": 19008,
          "time": 99,
          "velocity": 0.33070866141732286
        },
        {
          "duration": 0.08854166666665719,
          "durationTicks": 17,
          "midi": 72,
          "name": "C5",
          "ticks": 19046,
          "time": 99.19791666666667,
          "velocity": 0.5511811023622047
        },
        {
          "duration": 0.0625,
          "durationTicks": 12,
          "midi": 53,
          "name": "F3",
          "ticks": 19046,
          "time": 99.19791666666667,
          "velocity": 0.3858267716535433
        },
        {
          "duration": 0.0989583333333286,
          "durationTicks": 19,
          "midi": 60,
          "name": "C4",
          "ticks": 19077,
          "time": 99.359375,
          "velocity": 0.41732283464566927
        },
        {
          "duration": 0.0989583333333286,
          "durationTicks": 19,
          "midi": 56,
          "name": "G#3",
          "ticks": 19077,
          "time": 99.359375,
          "velocity": 0.47244094488188976
        },
        {
          "duration": 0.0989583333333286,
          "durationTicks": 19,
          "midi": 53,
          "name": "F3",
          "ticks": 19077,
          "time": 99.359375,
          "velocity": 0.49606299212598426
        },
        {
          "duration": 0.0729166666666714,
          "durationTicks": 14,
          "midi": 72,
          "name": "C5",
          "ticks": 19077,
          "time": 99.359375,
          "velocity": 0.4015748031496063
        },
        {
          "duration": 0.1197916666666714,
          "durationTicks": 23,
          "midi": 75,
          "name": "D#5",
          "ticks": 19107,
          "time": 99.515625,
          "velocity": 0.48031496062992124
        },
        {
          "duration": 0.078125,
          "durationTicks": 15,
          "midi": 72,
          "name": "C5",
          "ticks": 19107,
          "time": 99.515625,
          "velocity": 0.4566929133858268
        },
        {
          "duration": 0.0989583333333286,
          "durationTicks": 19,
          "midi": 72,
          "name": "C5",
          "ticks": 19145,
          "time": 99.71354166666667,
          "velocity": 0.47244094488188976
        },
        {
          "duration": 0.0989583333333286,
          "durationTicks": 19,
          "midi": 77,
          "name": "F5",
          "ticks": 19145,
          "time": 99.71354166666667,
          "velocity": 0.5433070866141733
        },
        {
          "duration": 0.1041666666666714,
          "durationTicks": 20,
          "midi": 53,
          "name": "F3",
          "ticks": 19177,
          "time": 99.88020833333333,
          "velocity": 0.4251968503937008
        },
        {
          "duration": 0.1041666666666714,
          "durationTicks": 20,
          "midi": 56,
          "name": "G#3",
          "ticks": 19177,
          "time": 99.88020833333333,
          "velocity": 0.3937007874015748
        },
        {
          "duration": 0.1041666666666714,
          "durationTicks": 20,
          "midi": 60,
          "name": "C4",
          "ticks": 19177,
          "time": 99.88020833333333,
          "velocity": 0.33070866141732286
        },
        {
          "duration": 0.0833333333333286,
          "durationTicks": 16,
          "midi": 79,
          "name": "G5",
          "ticks": 19215,
          "time": 100.078125,
          "velocity": 0.47244094488188976
        },
        {
          "duration": 0.0989583333333286,
          "durationTicks": 19,
          "midi": 41,
          "name": "F2",
          "ticks": 19245,
          "time": 100.234375,
          "velocity": 0.4094488188976378
        },
        {
          "duration": 0.109375,
          "durationTicks": 21,
          "midi": 72,
          "name": "C5",
          "ticks": 19277,
          "time": 100.40104166666667,
          "velocity": 0.5196850393700787
        },
        {
          "duration": 0.109375,
          "durationTicks": 21,
          "midi": 48,
          "name": "C3",
          "ticks": 19277,
          "time": 100.40104166666667,
          "velocity": 0.36220472440944884
        },
        {
          "duration": 0.03645833333334281,
          "durationTicks": 7,
          "midi": 53,
          "name": "F3",
          "ticks": 19315,
          "time": 100.59895833333333,
          "velocity": 0.3543307086614173
        },
        {
          "duration": 0.28125,
          "durationTicks": 54,
          "midi": 75,
          "name": "D#5",
          "ticks": 19345,
          "time": 100.75520833333333,
          "velocity": 0.41732283464566927
        },
        {
          "duration": 0.21875,
          "durationTicks": 42,
          "midi": 60,
          "name": "C4",
          "ticks": 19345,
          "time": 100.75520833333333,
          "velocity": 0.49606299212598426
        },
        {
          "duration": 0.28125,
          "durationTicks": 54,
          "midi": 72,
          "name": "C5",
          "ticks": 19345,
          "time": 100.75520833333333,
          "velocity": 0.4881889763779528
        },
        {
          "duration": 0.21875,
          "durationTicks": 42,
          "midi": 53,
          "name": "F3",
          "ticks": 19345,
          "time": 100.75520833333333,
          "velocity": 0.41732283464566927
        },
        {
          "duration": 0.21875,
          "durationTicks": 42,
          "midi": 56,
          "name": "G#3",
          "ticks": 19345,
          "time": 100.75520833333333,
          "velocity": 0.36220472440944884
        },
        {
          "duration": 0.1041666666666714,
          "durationTicks": 20,
          "midi": 72,
          "name": "C5",
          "ticks": 19414,
          "time": 101.11458333333333,
          "velocity": 0.5354330708661418
        },
        {
          "duration": 0.1041666666666714,
          "durationTicks": 20,
          "midi": 77,
          "name": "F5",
          "ticks": 19414,
          "time": 101.11458333333333,
          "velocity": 0.5826771653543307
        },
        {
          "duration": 0.2239583333333286,
          "durationTicks": 43,
          "midi": 56,
          "name": "G#3",
          "ticks": 19445,
          "time": 101.27604166666667,
          "velocity": 0.4094488188976378
        },
        {
          "duration": 0.2239583333333286,
          "durationTicks": 43,
          "midi": 60,
          "name": "C4",
          "ticks": 19445,
          "time": 101.27604166666667,
          "velocity": 0.44881889763779526
        },
        {
          "duration": 0.2239583333333286,
          "durationTicks": 43,
          "midi": 53,
          "name": "F3",
          "ticks": 19445,
          "time": 101.27604166666667,
          "velocity": 0.4251968503937008
        },
        {
          "duration": 0.0989583333333286,
          "durationTicks": 19,
          "midi": 36,
          "name": "C2",
          "ticks": 19514,
          "time": 101.63541666666667,
          "velocity": 0.3700787401574803
        },
        {
          "duration": 0.0989583333333286,
          "durationTicks": 19,
          "midi": 72,
          "name": "C5",
          "ticks": 19514,
          "time": 101.63541666666667,
          "velocity": 0.4881889763779528
        },
        {
          "duration": 0.07291666666665719,
          "durationTicks": 14,
          "midi": 43,
          "name": "G2",
          "ticks": 19553,
          "time": 101.83854166666667,
          "velocity": 0.3937007874015748
        },
        {
          "duration": 0.0833333333333286,
          "durationTicks": 16,
          "midi": 72,
          "name": "C5",
          "ticks": 19584,
          "time": 102,
          "velocity": 0.5669291338582677
        },
        {
          "duration": 0.0833333333333286,
          "durationTicks": 16,
          "midi": 48,
          "name": "C3",
          "ticks": 19584,
          "time": 102,
          "velocity": 0.4566929133858268
        },
        {
          "duration": 0.1041666666666714,
          "durationTicks": 20,
          "midi": 60,
          "name": "C4",
          "ticks": 19614,
          "time": 102.15625,
          "velocity": 0.4645669291338583
        },
        {
          "duration": 0.1041666666666714,
          "durationTicks": 20,
          "midi": 55,
          "name": "G3",
          "ticks": 19614,
          "time": 102.15625,
          "velocity": 0.36220472440944884
        },
        {
          "duration": 0.1041666666666714,
          "durationTicks": 20,
          "midi": 51,
          "name": "D#3",
          "ticks": 19614,
          "time": 102.15625,
          "velocity": 0.3858267716535433
        },
        {
          "duration": 0.078125,
          "durationTicks": 15,
          "midi": 72,
          "name": "C5",
          "ticks": 19653,
          "time": 102.359375,
          "velocity": 0.5118110236220472
        },
        {
          "duration": 0.078125,
          "durationTicks": 15,
          "midi": 75,
          "name": "D#5",
          "ticks": 19653,
          "time": 102.359375,
          "velocity": 0.4409448818897638
        },
        {
          "duration": 0.09375,
          "durationTicks": 18,
          "midi": 72,
          "name": "C5",
          "ticks": 19683,
          "time": 102.515625,
          "velocity": 0.5984251968503937
        },
        {
          "duration": 0.09375,
          "durationTicks": 18,
          "midi": 77,
          "name": "F5",
          "ticks": 19683,
          "time": 102.515625,
          "velocity": 0.5433070866141733
        },
        {
          "duration": 0.11458333333334281,
          "durationTicks": 22,
          "midi": 60,
          "name": "C4",
          "ticks": 19714,
          "time": 102.67708333333333,
          "velocity": 0.4881889763779528
        },
        {
          "duration": 0.11458333333334281,
          "durationTicks": 22,
          "midi": 55,
          "name": "G3",
          "ticks": 19714,
          "time": 102.67708333333333,
          "velocity": 0.33858267716535434
        },
        {
          "duration": 0.11458333333334281,
          "durationTicks": 22,
          "midi": 51,
          "name": "D#3",
          "ticks": 19714,
          "time": 102.67708333333333,
          "velocity": 0.3228346456692913
        },
        {
          "duration": 0.0885416666666714,
          "durationTicks": 17,
          "midi": 72,
          "name": "C5",
          "ticks": 19753,
          "time": 102.88020833333333,
          "velocity": 0.5196850393700787
        },
        {
          "duration": 0.0885416666666714,
          "durationTicks": 17,
          "midi": 79,
          "name": "G5",
          "ticks": 19753,
          "time": 102.88020833333333,
          "velocity": 0.5118110236220472
        },
        {
          "duration": 0.109375,
          "durationTicks": 21,
          "midi": 36,
          "name": "C2",
          "ticks": 19783,
          "time": 103.03645833333333,
          "velocity": 0.4566929133858268
        },
        {
          "duration": 0.11979166666665719,
          "durationTicks": 23,
          "midi": 72,
          "name": "C5",
          "ticks": 19814,
          "time": 103.19791666666667,
          "velocity": 0.5590551181102362
        },
        {
          "duration": 0.0833333333333286,
          "durationTicks": 16,
          "midi": 43,
          "name": "G2",
          "ticks": 19821,
          "time": 103.234375,
          "velocity": 0.3779527559055118
        },
        {
          "duration": 0.08854166666665719,
          "durationTicks": 17,
          "midi": 48,
          "name": "C3",
          "ticks": 19853,
          "time": 103.40104166666667,
          "velocity": 0.4881889763779528
        },
        {
          "duration": 0.234375,
          "durationTicks": 45,
          "midi": 55,
          "name": "G3",
          "ticks": 19883,
          "time": 103.55729166666667,
          "velocity": 0.36220472440944884
        },
        {
          "duration": 0.28125,
          "durationTicks": 54,
          "midi": 75,
          "name": "D#5",
          "ticks": 19883,
          "time": 103.55729166666667,
          "velocity": 0.44881889763779526
        },
        {
          "duration": 0.28125,
          "durationTicks": 54,
          "midi": 72,
          "name": "C5",
          "ticks": 19883,
          "time": 103.55729166666667,
          "velocity": 0.5433070866141733
        },
        {
          "duration": 0.234375,
          "durationTicks": 45,
          "midi": 60,
          "name": "C4",
          "ticks": 19883,
          "time": 103.55729166666667,
          "velocity": 0.5590551181102362
        },
        {
          "duration": 0.234375,
          "durationTicks": 45,
          "midi": 51,
          "name": "D#3",
          "ticks": 19883,
          "time": 103.55729166666667,
          "velocity": 0.3937007874015748
        },
        {
          "duration": 0.10416666666665719,
          "durationTicks": 20,
          "midi": 72,
          "name": "C5",
          "ticks": 19952,
          "time": 103.91666666666667,
          "velocity": 0.5433070866141733
        },
        {
          "duration": 0.10416666666665719,
          "durationTicks": 20,
          "midi": 77,
          "name": "F5",
          "ticks": 19952,
          "time": 103.91666666666667,
          "velocity": 0.4330708661417323
        },
        {
          "duration": 0.2447916666666714,
          "durationTicks": 47,
          "midi": 55,
          "name": "G3",
          "ticks": 19983,
          "time": 104.078125,
          "velocity": 0.3543307086614173
        },
        {
          "duration": 0.2083333333333428,
          "durationTicks": 40,
          "midi": 51,
          "name": "D#3",
          "ticks": 19990,
          "time": 104.11458333333333,
          "velocity": 0.33070866141732286
        },
        {
          "duration": 0.2083333333333428,
          "durationTicks": 40,
          "midi": 60,
          "name": "C4",
          "ticks": 19990,
          "time": 104.11458333333333,
          "velocity": 0.4566929133858268
        },
        {
          "duration": 0.1041666666666714,
          "durationTicks": 20,
          "midi": 70,
          "name": "A#4",
          "ticks": 20052,
          "time": 104.4375,
          "velocity": 0.4566929133858268
        },
        {
          "duration": 0.1041666666666714,
          "durationTicks": 20,
          "midi": 39,
          "name": "D#2",
          "ticks": 20052,
          "time": 104.4375,
          "velocity": 0.3700787401574803
        },
        {
          "duration": 0.0833333333333286,
          "durationTicks": 16,
          "midi": 46,
          "name": "A#2",
          "ticks": 20090,
          "time": 104.63541666666667,
          "velocity": 0.3937007874015748
        },
        {
          "duration": 0.0989583333333286,
          "durationTicks": 19,
          "midi": 72,
          "name": "C5",
          "ticks": 20121,
          "time": 104.796875,
          "velocity": 0.5433070866141733
        },
        {
          "duration": 0.0625,
          "durationTicks": 12,
          "midi": 51,
          "name": "D#3",
          "ticks": 20121,
          "time": 104.796875,
          "velocity": 0.3858267716535433
        },
        {
          "duration": 0.06770833333334281,
          "durationTicks": 13,
          "midi": 51,
          "name": "D#3",
          "ticks": 20152,
          "time": 104.95833333333333,
          "velocity": 0.3858267716535433
        },
        {
          "duration": 0.109375,
          "durationTicks": 21,
          "midi": 55,
          "name": "G3",
          "ticks": 20152,
          "time": 104.95833333333333,
          "velocity": 0.33858267716535434
        },
        {
          "duration": 0.109375,
          "durationTicks": 21,
          "midi": 58,
          "name": "A#3",
          "ticks": 20152,
          "time": 104.95833333333333,
          "velocity": 0.4881889763779528
        },
        {
          "duration": 0.09375,
          "durationTicks": 18,
          "midi": 75,
          "name": "D#5",
          "ticks": 20190,
          "time": 105.15625,
          "velocity": 0.4015748031496063
        },
        {
          "duration": 0.11458333333334281,
          "durationTicks": 22,
          "midi": 77,
          "name": "F5",
          "ticks": 20221,
          "time": 105.31770833333333,
          "velocity": 0.5669291338582677
        },
        {
          "duration": 0.0885416666666714,
          "durationTicks": 17,
          "midi": 58,
          "name": "A#3",
          "ticks": 20259,
          "time": 105.515625,
          "velocity": 0.5118110236220472
        },
        {
          "duration": 0.0885416666666714,
          "durationTicks": 17,
          "midi": 51,
          "name": "D#3",
          "ticks": 20259,
          "time": 105.515625,
          "velocity": 0.3543307086614173
        },
        {
          "duration": 0.0885416666666714,
          "durationTicks": 17,
          "midi": 55,
          "name": "G3",
          "ticks": 20259,
          "time": 105.515625,
          "velocity": 0.3464566929133858
        },
        {
          "duration": 0.1041666666666714,
          "durationTicks": 20,
          "midi": 79,
          "name": "G5",
          "ticks": 20290,
          "time": 105.67708333333333,
          "velocity": 0.5039370078740157
        },
        {
          "duration": 0.11979166666665719,
          "durationTicks": 23,
          "midi": 39,
          "name": "D#2",
          "ticks": 20321,
          "time": 105.83854166666667,
          "velocity": 0.3937007874015748
        },
        {
          "duration": 0.09375,
          "durationTicks": 18,
          "midi": 46,
          "name": "A#2",
          "ticks": 20359,
          "time": 106.03645833333333,
          "velocity": 0.3700787401574803
        },
        {
          "duration": 0.09375,
          "durationTicks": 18,
          "midi": 72,
          "name": "C5",
          "ticks": 20359,
          "time": 106.03645833333333,
          "velocity": 0.5511811023622047
        },
        {
          "duration": 0.109375,
          "durationTicks": 21,
          "midi": 51,
          "name": "D#3",
          "ticks": 20390,
          "time": 106.19791666666667,
          "velocity": 0.41732283464566927
        },
        {
          "duration": 0.296875,
          "durationTicks": 57,
          "midi": 58,
          "name": "A#3",
          "ticks": 20421,
          "time": 106.359375,
          "velocity": 0.5196850393700787
        },
        {
          "duration": 0.296875,
          "durationTicks": 57,
          "midi": 55,
          "name": "G3",
          "ticks": 20421,
          "time": 106.359375,
          "velocity": 0.2992125984251969
        },
        {
          "duration": 0.296875,
          "durationTicks": 57,
          "midi": 75,
          "name": "D#5",
          "ticks": 20421,
          "time": 106.359375,
          "velocity": 0.41732283464566927
        },
        {
          "duration": 0.11979166666665719,
          "durationTicks": 23,
          "midi": 77,
          "name": "F5",
          "ticks": 20489,
          "time": 106.71354166666667,
          "velocity": 0.5118110236220472
        },
        {
          "duration": 0.08854166666665719,
          "durationTicks": 17,
          "midi": 58,
          "name": "A#3",
          "ticks": 20528,
          "time": 106.91666666666667,
          "velocity": 0.5275590551181102
        },
        {
          "duration": 0.08854166666665719,
          "durationTicks": 17,
          "midi": 51,
          "name": "D#3",
          "ticks": 20528,
          "time": 106.91666666666667,
          "velocity": 0.3779527559055118
        },
        {
          "duration": 0.08854166666665719,
          "durationTicks": 17,
          "midi": 55,
          "name": "G3",
          "ticks": 20528,
          "time": 106.91666666666667,
          "velocity": 0.3543307086614173
        },
        {
          "duration": 0.1145833333333286,
          "durationTicks": 22,
          "midi": 74,
          "name": "D5",
          "ticks": 20559,
          "time": 107.078125,
          "velocity": 0.48031496062992124
        },
        {
          "duration": 0.59375,
          "durationTicks": 114,
          "midi": 70,
          "name": "A#4",
          "ticks": 20589,
          "time": 107.234375,
          "velocity": 0.3543307086614173
        },
        {
          "duration": 0.5572916666666714,
          "durationTicks": 107,
          "midi": 74,
          "name": "D5",
          "ticks": 20589,
          "time": 107.234375,
          "velocity": 0.5196850393700787
        },
        {
          "duration": 0.6666666666666714,
          "durationTicks": 128,
          "midi": 34,
          "name": "A#1",
          "ticks": 20589,
          "time": 107.234375,
          "velocity": 0.4566929133858268
        },
        {
          "duration": 0.6666666666666714,
          "durationTicks": 128,
          "midi": 46,
          "name": "A#2",
          "ticks": 20589,
          "time": 107.234375,
          "velocity": 0.5118110236220472
        },
        {
          "duration": 0.6458333333333428,
          "durationTicks": 124,
          "midi": 72,
          "name": "C5",
          "ticks": 20728,
          "time": 107.95833333333333,
          "velocity": 0.5118110236220472
        },
        {
          "duration": 0.484375,
          "durationTicks": 93,
          "midi": 70,
          "name": "A#4",
          "ticks": 20858,
          "time": 108.63541666666667,
          "velocity": 0.3700787401574803
        },
        {
          "duration": 0.4427083333333428,
          "durationTicks": 85,
          "midi": 22,
          "name": "A#0",
          "ticks": 20866,
          "time": 108.67708333333333,
          "velocity": 0.30708661417322836
        },
        {
          "duration": 0.4427083333333428,
          "durationTicks": 85,
          "midi": 34,
          "name": "A#1",
          "ticks": 20866,
          "time": 108.67708333333333,
          "velocity": 0.30708661417322836
        },
        {
          "duration": 0.265625,
          "durationTicks": 51,
          "midi": 82,
          "name": "A#5",
          "ticks": 20966,
          "time": 109.19791666666667,
          "velocity": 0.4015748031496063
        },
        {
          "duration": 0.265625,
          "durationTicks": 51,
          "midi": 70,
          "name": "A#4",
          "ticks": 20966,
          "time": 109.19791666666667,
          "velocity": 0.4566929133858268
        },
        {
          "duration": 0.484375,
          "durationTicks": 93,
          "midi": 75,
          "name": "D#5",
          "ticks": 21027,
          "time": 109.515625,
          "velocity": 0.5118110236220472
        },
        {
          "duration": 0.484375,
          "durationTicks": 93,
          "midi": 70,
          "name": "A#4",
          "ticks": 21027,
          "time": 109.515625,
          "velocity": 0.47244094488188976
        },
        {
          "duration": 0.28125,
          "durationTicks": 54,
          "midi": 72,
          "name": "C5",
          "ticks": 21135,
          "time": 110.078125,
          "velocity": 0.4645669291338583
        },
        {
          "duration": 0.28125,
          "durationTicks": 54,
          "midi": 77,
          "name": "F5",
          "ticks": 21135,
          "time": 110.078125,
          "velocity": 0.5984251968503937
        },
        {
          "duration": 0.28125,
          "durationTicks": 54,
          "midi": 68,
          "name": "G#4",
          "ticks": 21135,
          "time": 110.078125,
          "velocity": 0.48031496062992124
        },
        {
          "duration": 0.1458333333333286,
          "durationTicks": 28,
          "midi": 53,
          "name": "F3",
          "ticks": 21135,
          "time": 110.078125,
          "velocity": 0.36220472440944884
        },
        {
          "duration": 0.28125,
          "durationTicks": 54,
          "midi": 41,
          "name": "F2",
          "ticks": 21135,
          "time": 110.078125,
          "velocity": 0.4330708661417323
        },
        {
          "duration": 0.109375,
          "durationTicks": 21,
          "midi": 53,
          "name": "F3",
          "ticks": 21197,
          "time": 110.40104166666667,
          "velocity": 0.5275590551181102
        },
        {
          "duration": 0.28125,
          "durationTicks": 54,
          "midi": 56,
          "name": "G#3",
          "ticks": 21235,
          "time": 110.59895833333333,
          "velocity": 0.4330708661417323
        },
        {
          "duration": 0.28125,
          "durationTicks": 54,
          "midi": 72,
          "name": "C5",
          "ticks": 21235,
          "time": 110.59895833333333,
          "velocity": 0.3937007874015748
        },
        {
          "duration": 0.28125,
          "durationTicks": 54,
          "midi": 60,
          "name": "C4",
          "ticks": 21235,
          "time": 110.59895833333333,
          "velocity": 0.3700787401574803
        },
        {
          "duration": 0.1041666666666714,
          "durationTicks": 20,
          "midi": 53,
          "name": "F3",
          "ticks": 21304,
          "time": 110.95833333333333,
          "velocity": 0.5196850393700787
        },
        {
          "duration": 0.3020833333333428,
          "durationTicks": 58,
          "midi": 60,
          "name": "C4",
          "ticks": 21334,
          "time": 111.11458333333333,
          "velocity": 0.4645669291338583
        },
        {
          "duration": 0.3020833333333428,
          "durationTicks": 58,
          "midi": 56,
          "name": "G#3",
          "ticks": 21334,
          "time": 111.11458333333333,
          "velocity": 0.41732283464566927
        },
        {
          "duration": 0.28125,
          "durationTicks": 54,
          "midi": 41,
          "name": "F2",
          "ticks": 21404,
          "time": 111.47916666666667,
          "velocity": 0.5118110236220472
        },
        {
          "duration": 0.28125,
          "durationTicks": 54,
          "midi": 53,
          "name": "F3",
          "ticks": 21404,
          "time": 111.47916666666667,
          "velocity": 0.47244094488188976
        },
        {
          "duration": 0.0989583333333286,
          "durationTicks": 19,
          "midi": 53,
          "name": "F3",
          "ticks": 21473,
          "time": 111.83854166666667,
          "velocity": 0.4881889763779528
        },
        {
          "duration": 0.2864583333333286,
          "durationTicks": 55,
          "midi": 56,
          "name": "G#3",
          "ticks": 21504,
          "time": 112,
          "velocity": 0.4251968503937008
        },
        {
          "duration": 0.2864583333333286,
          "durationTicks": 55,
          "midi": 60,
          "name": "C4",
          "ticks": 21504,
          "time": 112,
          "velocity": 0.48031496062992124
        },
        {
          "duration": 0.0989583333333286,
          "durationTicks": 19,
          "midi": 53,
          "name": "F3",
          "ticks": 21573,
          "time": 112.359375,
          "velocity": 0.5275590551181102
        },
        {
          "duration": 0.0989583333333286,
          "durationTicks": 19,
          "midi": 77,
          "name": "F5",
          "ticks": 21573,
          "time": 112.359375,
          "velocity": 0.5511811023622047
        },
        {
          "duration": 0.0989583333333286,
          "durationTicks": 19,
          "midi": 65,
          "name": "F4",
          "ticks": 21573,
          "time": 112.359375,
          "velocity": 0.5669291338582677
        },
        {
          "duration": 0.0989583333333286,
          "durationTicks": 19,
          "midi": 68,
          "name": "G#4",
          "ticks": 21573,
          "time": 112.359375,
          "velocity": 0.3937007874015748
        },
        {
          "duration": 0.296875,
          "durationTicks": 57,
          "midi": 60,
          "name": "C4",
          "ticks": 21603,
          "time": 112.515625,
          "velocity": 0.48031496062992124
        },
        {
          "duration": 0.296875,
          "durationTicks": 57,
          "midi": 53,
          "name": "F3",
          "ticks": 21603,
          "time": 112.515625,
          "velocity": 0.5275590551181102
        },
        {
          "duration": 0.296875,
          "durationTicks": 57,
          "midi": 79,
          "name": "G5",
          "ticks": 21603,
          "time": 112.515625,
          "velocity": 0.5118110236220472
        },
        {
          "duration": 0.296875,
          "durationTicks": 57,
          "midi": 56,
          "name": "G#3",
          "ticks": 21603,
          "time": 112.515625,
          "velocity": 0.41732283464566927
        },
        {
          "duration": 0.2604166666666714,
          "durationTicks": 50,
          "midi": 48,
          "name": "C3",
          "ticks": 21673,
          "time": 112.88020833333333,
          "velocity": 0.3937007874015748
        },
        {
          "duration": 0.15625,
          "durationTicks": 30,
          "midi": 72,
          "name": "C5",
          "ticks": 21673,
          "time": 112.88020833333333,
          "velocity": 0.3543307086614173
        },
        {
          "duration": 0.2604166666666714,
          "durationTicks": 50,
          "midi": 67,
          "name": "G4",
          "ticks": 21673,
          "time": 112.88020833333333,
          "velocity": 0.29133858267716534
        },
        {
          "duration": 0.2604166666666714,
          "durationTicks": 50,
          "midi": 77,
          "name": "F5",
          "ticks": 21673,
          "time": 112.88020833333333,
          "velocity": 0.5118110236220472
        },
        {
          "duration": 0.2604166666666714,
          "durationTicks": 50,
          "midi": 36,
          "name": "C2",
          "ticks": 21673,
          "time": 112.88020833333333,
          "velocity": 0.33858267716535434
        },
        {
          "duration": 0.1145833333333286,
          "durationTicks": 22,
          "midi": 75,
          "name": "D#5",
          "ticks": 21734,
          "time": 113.19791666666667,
          "velocity": 0.4566929133858268
        },
        {
          "duration": 0.07291666666665719,
          "durationTicks": 14,
          "midi": 72,
          "name": "C5",
          "ticks": 21734,
          "time": 113.19791666666667,
          "velocity": 0.5196850393700787
        },
        {
          "duration": 0.1145833333333286,
          "durationTicks": 22,
          "midi": 55,
          "name": "G3",
          "ticks": 21734,
          "time": 113.19791666666667,
          "velocity": 0.4330708661417323
        },
        {
          "duration": 0.265625,
          "durationTicks": 51,
          "midi": 67,
          "name": "G4",
          "ticks": 21773,
          "time": 113.40104166666667,
          "velocity": 0.3464566929133858
        },
        {
          "duration": 0.265625,
          "durationTicks": 51,
          "midi": 63,
          "name": "D#4",
          "ticks": 21773,
          "time": 113.40104166666667,
          "velocity": 0.4015748031496063
        },
        {
          "duration": 0.265625,
          "durationTicks": 51,
          "midi": 55,
          "name": "G3",
          "ticks": 21773,
          "time": 113.40104166666667,
          "velocity": 0.4566929133858268
        },
        {
          "duration": 0.265625,
          "durationTicks": 51,
          "midi": 60,
          "name": "C4",
          "ticks": 21773,
          "time": 113.40104166666667,
          "velocity": 0.4645669291338583
        },
        {
          "duration": 0.265625,
          "durationTicks": 51,
          "midi": 72,
          "name": "C5",
          "ticks": 21773,
          "time": 113.40104166666667,
          "velocity": 0.49606299212598426
        },
        {
          "duration": 0.265625,
          "durationTicks": 51,
          "midi": 75,
          "name": "D#5",
          "ticks": 21773,
          "time": 113.40104166666667,
          "velocity": 0.4881889763779528
        },
        {
          "duration": 0.09375,
          "durationTicks": 18,
          "midi": 55,
          "name": "G3",
          "ticks": 21841,
          "time": 113.75520833333333,
          "velocity": 0.3543307086614173
        },
        {
          "duration": 0.09375,
          "durationTicks": 18,
          "midi": 72,
          "name": "C5",
          "ticks": 21841,
          "time": 113.75520833333333,
          "velocity": 0.4566929133858268
        },
        {
          "duration": 0.09375,
          "durationTicks": 18,
          "midi": 67,
          "name": "G4",
          "ticks": 21841,
          "time": 113.75520833333333,
          "velocity": 0.3464566929133858
        },
        {
          "duration": 0.10416666666665719,
          "durationTicks": 20,
          "midi": 60,
          "name": "C4",
          "ticks": 21872,
          "time": 113.91666666666667,
          "velocity": 0.3779527559055118
        },
        {
          "duration": 0.10416666666665719,
          "durationTicks": 20,
          "midi": 63,
          "name": "D#4",
          "ticks": 21872,
          "time": 113.91666666666667,
          "velocity": 0.44881889763779526
        },
        {
          "duration": 0.1197916666666714,
          "durationTicks": 23,
          "midi": 67,
          "name": "G4",
          "ticks": 21903,
          "time": 114.078125,
          "velocity": 0.33070866141732286
        },
        {
          "duration": 0.1197916666666714,
          "durationTicks": 23,
          "midi": 75,
          "name": "D#5",
          "ticks": 21903,
          "time": 114.078125,
          "velocity": 0.4330708661417323
        },
        {
          "duration": 0.1197916666666714,
          "durationTicks": 23,
          "midi": 72,
          "name": "C5",
          "ticks": 21903,
          "time": 114.078125,
          "velocity": 0.48031496062992124
        },
        {
          "duration": 0.0989583333333286,
          "durationTicks": 19,
          "midi": 48,
          "name": "C3",
          "ticks": 21941,
          "time": 114.27604166666667,
          "velocity": 0.3937007874015748
        },
        {
          "duration": 0.0989583333333286,
          "durationTicks": 19,
          "midi": 36,
          "name": "C2",
          "ticks": 21941,
          "time": 114.27604166666667,
          "velocity": 0.36220472440944884
        },
        {
          "duration": 0.109375,
          "durationTicks": 21,
          "midi": 72,
          "name": "C5",
          "ticks": 21972,
          "time": 114.4375,
          "velocity": 0.5196850393700787
        },
        {
          "duration": 0.109375,
          "durationTicks": 21,
          "midi": 67,
          "name": "G4",
          "ticks": 21972,
          "time": 114.4375,
          "velocity": 0.3464566929133858
        },
        {
          "duration": 0.0833333333333286,
          "durationTicks": 16,
          "midi": 55,
          "name": "G3",
          "ticks": 22010,
          "time": 114.63541666666667,
          "velocity": 0.4015748031496063
        },
        {
          "duration": 0.2708333333333286,
          "durationTicks": 52,
          "midi": 63,
          "name": "D#4",
          "ticks": 22041,
          "time": 114.796875,
          "velocity": 0.4566929133858268
        },
        {
          "duration": 0.2708333333333286,
          "durationTicks": 52,
          "midi": 60,
          "name": "C4",
          "ticks": 22041,
          "time": 114.796875,
          "velocity": 0.4645669291338583
        },
        {
          "duration": 0.09375,
          "durationTicks": 18,
          "midi": 75,
          "name": "D#5",
          "ticks": 22110,
          "time": 115.15625,
          "velocity": 0.4566929133858268
        },
        {
          "duration": 0.09375,
          "durationTicks": 18,
          "midi": 67,
          "name": "G4",
          "ticks": 22110,
          "time": 115.15625,
          "velocity": 0.4094488188976378
        },
        {
          "duration": 0.09375,
          "durationTicks": 18,
          "midi": 55,
          "name": "G3",
          "ticks": 22110,
          "time": 115.15625,
          "velocity": 0.48031496062992124
        },
        {
          "duration": 0.09375,
          "durationTicks": 18,
          "midi": 72,
          "name": "C5",
          "ticks": 22110,
          "time": 115.15625,
          "velocity": 0.3937007874015748
        },
        {
          "duration": 0.28125,
          "durationTicks": 54,
          "midi": 60,
          "name": "C4",
          "ticks": 22141,
          "time": 115.31770833333333,
          "velocity": 0.3700787401574803
        },
        {
          "duration": 0.28125,
          "durationTicks": 54,
          "midi": 63,
          "name": "D#4",
          "ticks": 22141,
          "time": 115.31770833333333,
          "velocity": 0.4015748031496063
        },
        {
          "duration": 0.09375,
          "durationTicks": 18,
          "midi": 39,
          "name": "D#2",
          "ticks": 22210,
          "time": 115.67708333333333,
          "velocity": 0.4330708661417323
        },
        {
          "duration": 0.09375,
          "durationTicks": 18,
          "midi": 70,
          "name": "A#4",
          "ticks": 22210,
          "time": 115.67708333333333,
          "velocity": 0.41732283464566927
        },
        {
          "duration": 0.09375,
          "durationTicks": 18,
          "midi": 51,
          "name": "D#3",
          "ticks": 22210,
          "time": 115.67708333333333,
          "velocity": 0.5196850393700787
        },
        {
          "duration": 0.09375,
          "durationTicks": 18,
          "midi": 63,
          "name": "D#4",
          "ticks": 22210,
          "time": 115.67708333333333,
          "velocity": 0.44881889763779526
        },
        {
          "duration": 0.09375,
          "durationTicks": 18,
          "midi": 75,
          "name": "D#5",
          "ticks": 22210,
          "time": 115.67708333333333,
          "velocity": 0.3858267716535433
        },
        {
          "duration": 0.109375,
          "durationTicks": 21,
          "midi": 79,
          "name": "G5",
          "ticks": 22241,
          "time": 115.83854166666667,
          "velocity": 0.48031496062992124
        },
        {
          "duration": 0.0885416666666714,
          "durationTicks": 17,
          "midi": 51,
          "name": "D#3",
          "ticks": 22279,
          "time": 116.03645833333333,
          "velocity": 0.5433070866141733
        },
        {
          "duration": 0.28125,
          "durationTicks": 54,
          "midi": 55,
          "name": "G3",
          "ticks": 22310,
          "time": 116.19791666666667,
          "velocity": 0.3228346456692913
        },
        {
          "duration": 0.28125,
          "durationTicks": 54,
          "midi": 58,
          "name": "A#3",
          "ticks": 22310,
          "time": 116.19791666666667,
          "velocity": 0.4409448818897638
        },
        {
          "duration": 0.28125,
          "durationTicks": 54,
          "midi": 77,
          "name": "F5",
          "ticks": 22310,
          "time": 116.19791666666667,
          "velocity": 0.5433070866141733
        },
        {
          "duration": 0.10416666666665719,
          "durationTicks": 20,
          "midi": 70,
          "name": "A#4",
          "ticks": 22379,
          "time": 116.55729166666667,
          "velocity": 0.4015748031496063
        },
        {
          "duration": 0.10416666666665719,
          "durationTicks": 20,
          "midi": 51,
          "name": "D#3",
          "ticks": 22379,
          "time": 116.55729166666667,
          "velocity": 0.3858267716535433
        },
        {
          "duration": 0.10416666666665719,
          "durationTicks": 20,
          "midi": 75,
          "name": "D#5",
          "ticks": 22379,
          "time": 116.55729166666667,
          "velocity": 0.5118110236220472
        },
        {
          "duration": 0.2864583333333286,
          "durationTicks": 55,
          "midi": 55,
          "name": "G3",
          "ticks": 22409,
          "time": 116.71354166666667,
          "velocity": 0.3779527559055118
        },
        {
          "duration": 0.2864583333333286,
          "durationTicks": 55,
          "midi": 58,
          "name": "A#3",
          "ticks": 22409,
          "time": 116.71354166666667,
          "velocity": 0.49606299212598426
        },
        {
          "duration": 0.0833333333333286,
          "durationTicks": 16,
          "midi": 70,
          "name": "A#4",
          "ticks": 22479,
          "time": 117.078125,
          "velocity": 0.5039370078740157
        },
        {
          "duration": 0.0833333333333286,
          "durationTicks": 16,
          "midi": 75,
          "name": "D#5",
          "ticks": 22479,
          "time": 117.078125,
          "velocity": 0.49606299212598426
        },
        {
          "duration": 0.1041666666666714,
          "durationTicks": 20,
          "midi": 39,
          "name": "D#2",
          "ticks": 22479,
          "time": 117.078125,
          "velocity": 0.41732283464566927
        },
        {
          "duration": 0.1041666666666714,
          "durationTicks": 20,
          "midi": 51,
          "name": "D#3",
          "ticks": 22479,
          "time": 117.078125,
          "velocity": 0.4330708661417323
        },
        {
          "duration": 0.1041666666666714,
          "durationTicks": 20,
          "midi": 82,
          "name": "A#5",
          "ticks": 22479,
          "time": 117.078125,
          "velocity": 0.5039370078740157
        },
        {
          "duration": 0.0833333333333286,
          "durationTicks": 16,
          "midi": 75,
          "name": "D#5",
          "ticks": 22509,
          "time": 117.234375,
          "velocity": 0.3858267716535433
        },
        {
          "duration": 0.0833333333333286,
          "durationTicks": 16,
          "midi": 70,
          "name": "A#4",
          "ticks": 22509,
          "time": 117.234375,
          "velocity": 0.3937007874015748
        },
        {
          "duration": 0.125,
          "durationTicks": 24,
          "midi": 79,
          "name": "G5",
          "ticks": 22509,
          "time": 117.234375,
          "velocity": 0.5433070866141733
        },
        {
          "duration": 0.09375,
          "durationTicks": 18,
          "midi": 51,
          "name": "D#3",
          "ticks": 22548,
          "time": 117.4375,
          "velocity": 0.4881889763779528
        },
        {
          "duration": 0.2916666666666714,
          "durationTicks": 56,
          "midi": 55,
          "name": "G3",
          "ticks": 22579,
          "time": 117.59895833333333,
          "velocity": 0.3543307086614173
        },
        {
          "duration": 0.2916666666666714,
          "durationTicks": 56,
          "midi": 58,
          "name": "A#3",
          "ticks": 22579,
          "time": 117.59895833333333,
          "velocity": 0.5039370078740157
        },
        {
          "duration": 0.2916666666666714,
          "durationTicks": 56,
          "midi": 70,
          "name": "A#4",
          "ticks": 22579,
          "time": 117.59895833333333,
          "velocity": 0.5039370078740157
        },
        {
          "duration": 0.2916666666666714,
          "durationTicks": 56,
          "midi": 77,
          "name": "F5",
          "ticks": 22579,
          "time": 117.59895833333333,
          "velocity": 0.5354330708661418
        },
        {
          "duration": 0.11458333333334281,
          "durationTicks": 22,
          "midi": 75,
          "name": "D#5",
          "ticks": 22648,
          "time": 117.95833333333333,
          "velocity": 0.4881889763779528
        },
        {
          "duration": 0.11458333333334281,
          "durationTicks": 22,
          "midi": 70,
          "name": "A#4",
          "ticks": 22648,
          "time": 117.95833333333333,
          "velocity": 0.41732283464566927
        },
        {
          "duration": 0.1302083333333428,
          "durationTicks": 25,
          "midi": 58,
          "name": "A#3",
          "ticks": 22678,
          "time": 118.11458333333333,
          "velocity": 0.4881889763779528
        },
        {
          "duration": 0.1302083333333428,
          "durationTicks": 25,
          "midi": 55,
          "name": "G3",
          "ticks": 22678,
          "time": 118.11458333333333,
          "velocity": 0.36220472440944884
        },
        {
          "duration": 0.1041666666666714,
          "durationTicks": 20,
          "midi": 70,
          "name": "A#4",
          "ticks": 22717,
          "time": 118.31770833333333,
          "velocity": 0.3543307086614173
        },
        {
          "duration": 0.1041666666666714,
          "durationTicks": 20,
          "midi": 74,
          "name": "D5",
          "ticks": 22717,
          "time": 118.31770833333333,
          "velocity": 0.4015748031496063
        },
        {
          "duration": 0.1041666666666714,
          "durationTicks": 20,
          "midi": 77,
          "name": "F5",
          "ticks": 22717,
          "time": 118.31770833333333,
          "velocity": 0.5354330708661418
        },
        {
          "duration": 0.2916666666666572,
          "durationTicks": 56,
          "midi": 46,
          "name": "A#2",
          "ticks": 22748,
          "time": 118.47916666666667,
          "velocity": 0.4881889763779528
        },
        {
          "duration": 0.2916666666666572,
          "durationTicks": 56,
          "midi": 34,
          "name": "A#1",
          "ticks": 22748,
          "time": 118.47916666666667,
          "velocity": 0.47244094488188976
        },
        {
          "duration": 0.109375,
          "durationTicks": 21,
          "midi": 53,
          "name": "F3",
          "ticks": 22817,
          "time": 118.83854166666667,
          "velocity": 0.3779527559055118
        },
        {
          "duration": 0.8177083333333286,
          "durationTicks": 157,
          "midi": 77,
          "name": "F5",
          "ticks": 22817,
          "time": 118.83854166666667,
          "velocity": 0.5118110236220472
        },
        {
          "duration": 0.8177083333333286,
          "durationTicks": 157,
          "midi": 70,
          "name": "A#4",
          "ticks": 22817,
          "time": 118.83854166666667,
          "velocity": 0.49606299212598426
        },
        {
          "duration": 0.8177083333333286,
          "durationTicks": 157,
          "midi": 74,
          "name": "D5",
          "ticks": 22817,
          "time": 118.83854166666667,
          "velocity": 0.4251968503937008
        },
        {
          "duration": 0.296875,
          "durationTicks": 57,
          "midi": 62,
          "name": "D4",
          "ticks": 22848,
          "time": 119,
          "velocity": 0.5039370078740157
        },
        {
          "duration": 0.296875,
          "durationTicks": 57,
          "midi": 58,
          "name": "A#3",
          "ticks": 22848,
          "time": 119,
          "velocity": 0.4251968503937008
        },
        {
          "duration": 0.109375,
          "durationTicks": 21,
          "midi": 53,
          "name": "F3",
          "ticks": 22917,
          "time": 119.359375,
          "velocity": 0.4409448818897638
        },
        {
          "duration": 0.3125,
          "durationTicks": 60,
          "midi": 62,
          "name": "D4",
          "ticks": 22947,
          "time": 119.515625,
          "velocity": 0.4251968503937008
        },
        {
          "duration": 0.2708333333333286,
          "durationTicks": 52,
          "midi": 58,
          "name": "A#3",
          "ticks": 22955,
          "time": 119.55729166666667,
          "velocity": 0.4645669291338583
        },
        {
          "duration": 0.296875,
          "durationTicks": 57,
          "midi": 46,
          "name": "A#2",
          "ticks": 23017,
          "time": 119.88020833333333,
          "velocity": 0.48031496062992124
        },
        {
          "duration": 0.1145833333333286,
          "durationTicks": 22,
          "midi": 53,
          "name": "F3",
          "ticks": 23085,
          "time": 120.234375,
          "velocity": 0.4566929133858268
        },
        {
          "duration": 0.296875,
          "durationTicks": 57,
          "midi": 74,
          "name": "D5",
          "ticks": 23117,
          "time": 120.40104166666667,
          "velocity": 0.3937007874015748
        },
        {
          "duration": 0.2447916666666572,
          "durationTicks": 47,
          "midi": 70,
          "name": "A#4",
          "ticks": 23117,
          "time": 120.40104166666667,
          "velocity": 0.44881889763779526
        },
        {
          "duration": 0.296875,
          "durationTicks": 57,
          "midi": 58,
          "name": "A#3",
          "ticks": 23117,
          "time": 120.40104166666667,
          "velocity": 0.4881889763779528
        },
        {
          "duration": 0.296875,
          "durationTicks": 57,
          "midi": 62,
          "name": "D4",
          "ticks": 23117,
          "time": 120.40104166666667,
          "velocity": 0.3464566929133858
        },
        {
          "duration": 0.296875,
          "durationTicks": 57,
          "midi": 79,
          "name": "G5",
          "ticks": 23117,
          "time": 120.40104166666667,
          "velocity": 0.5118110236220472
        },
        {
          "duration": 0.11458333333334281,
          "durationTicks": 22,
          "midi": 53,
          "name": "F3",
          "ticks": 23185,
          "time": 120.75520833333333,
          "velocity": 0.4015748031496063
        },
        {
          "duration": 0.11458333333334281,
          "durationTicks": 22,
          "midi": 75,
          "name": "D#5",
          "ticks": 23185,
          "time": 120.75520833333333,
          "velocity": 0.3858267716535433
        },
        {
          "duration": 0.11458333333334281,
          "durationTicks": 22,
          "midi": 70,
          "name": "A#4",
          "ticks": 23185,
          "time": 120.75520833333333,
          "velocity": 0.3700787401574803
        },
        {
          "duration": 0.2604166666666714,
          "durationTicks": 50,
          "midi": 58,
          "name": "A#3",
          "ticks": 23224,
          "time": 120.95833333333333,
          "velocity": 0.4330708661417323
        },
        {
          "duration": 0.2604166666666714,
          "durationTicks": 50,
          "midi": 62,
          "name": "D4",
          "ticks": 23224,
          "time": 120.95833333333333,
          "velocity": 0.4094488188976378
        },
        {
          "duration": 0.3020833333333286,
          "durationTicks": 58,
          "midi": 72,
          "name": "C5",
          "ticks": 23285,
          "time": 121.27604166666667,
          "velocity": 0.3858267716535433
        },
        {
          "duration": 0.265625,
          "durationTicks": 51,
          "midi": 53,
          "name": "F3",
          "ticks": 23285,
          "time": 121.27604166666667,
          "velocity": 0.30708661417322836
        },
        {
          "duration": 0.3020833333333286,
          "durationTicks": 58,
          "midi": 68,
          "name": "G#4",
          "ticks": 23285,
          "time": 121.27604166666667,
          "velocity": 0.4015748031496063
        },
        {
          "duration": 0.3020833333333286,
          "durationTicks": 58,
          "midi": 77,
          "name": "F5",
          "ticks": 23285,
          "time": 121.27604166666667,
          "velocity": 0.5590551181102362
        },
        {
          "duration": 0.3020833333333286,
          "durationTicks": 58,
          "midi": 41,
          "name": "F2",
          "ticks": 23285,
          "time": 121.27604166666667,
          "velocity": 0.44881889763779526
        },
        {
          "duration": 0.1145833333333286,
          "durationTicks": 22,
          "midi": 53,
          "name": "F3",
          "ticks": 23354,
          "time": 121.63541666666667,
          "velocity": 0.4566929133858268
        },
        {
          "duration": 0.3020833333333286,
          "durationTicks": 58,
          "midi": 56,
          "name": "G#3",
          "ticks": 23385,
          "time": 121.796875,
          "velocity": 0.3858267716535433
        },
        {
          "duration": 0.2604166666666572,
          "durationTicks": 50,
          "midi": 60,
          "name": "C4",
          "ticks": 23393,
          "time": 121.83854166666667,
          "velocity": 0.3858267716535433
        },
        {
          "duration": 0.125,
          "durationTicks": 24,
          "midi": 53,
          "name": "F3",
          "ticks": 23454,
          "time": 122.15625,
          "velocity": 0.4330708661417323
        },
        {
          "duration": 0.2708333333333286,
          "durationTicks": 52,
          "midi": 56,
          "name": "G#3",
          "ticks": 23493,
          "time": 122.359375,
          "velocity": 0.4251968503937008
        },
        {
          "duration": 0.2708333333333286,
          "durationTicks": 52,
          "midi": 60,
          "name": "C4",
          "ticks": 23493,
          "time": 122.359375,
          "velocity": 0.41732283464566927
        },
        {
          "duration": 0.3020833333333428,
          "durationTicks": 58,
          "midi": 41,
          "name": "F2",
          "ticks": 23554,
          "time": 122.67708333333333,
          "velocity": 0.48031496062992124
        },
        {
          "duration": 0.2708333333333428,
          "durationTicks": 52,
          "midi": 53,
          "name": "F3",
          "ticks": 23554,
          "time": 122.67708333333333,
          "velocity": 0.3700787401574803
        },
        {
          "duration": 0.11458333333334281,
          "durationTicks": 22,
          "midi": 53,
          "name": "F3",
          "ticks": 23623,
          "time": 123.03645833333333,
          "velocity": 0.5118110236220472
        },
        {
          "duration": 0.265625,
          "durationTicks": 51,
          "midi": 56,
          "name": "G#3",
          "ticks": 23661,
          "time": 123.234375,
          "velocity": 0.47244094488188976
        },
        {
          "duration": 0.265625,
          "durationTicks": 51,
          "midi": 60,
          "name": "C4",
          "ticks": 23661,
          "time": 123.234375,
          "velocity": 0.4330708661417323
        },
        {
          "duration": 0.11979166666665719,
          "durationTicks": 23,
          "midi": 53,
          "name": "F3",
          "ticks": 23723,
          "time": 123.55729166666667,
          "velocity": 0.4251968503937008
        },
        {
          "duration": 0.11979166666665719,
          "durationTicks": 23,
          "midi": 65,
          "name": "F4",
          "ticks": 23723,
          "time": 123.55729166666667,
          "velocity": 0.5748031496062992
        },
        {
          "duration": 0.11979166666665719,
          "durationTicks": 23,
          "midi": 68,
          "name": "G#4",
          "ticks": 23723,
          "time": 123.55729166666667,
          "velocity": 0.3858267716535433
        },
        {
          "duration": 0.11979166666665719,
          "durationTicks": 23,
          "midi": 72,
          "name": "C5",
          "ticks": 23723,
          "time": 123.55729166666667,
          "velocity": 0.33858267716535434
        },
        {
          "duration": 0.11979166666665719,
          "durationTicks": 23,
          "midi": 77,
          "name": "F5",
          "ticks": 23723,
          "time": 123.55729166666667,
          "velocity": 0.5669291338582677
        },
        {
          "duration": 0.2760416666666714,
          "durationTicks": 53,
          "midi": 60,
          "name": "C4",
          "ticks": 23761,
          "time": 123.75520833333333,
          "velocity": 0.4881889763779528
        },
        {
          "duration": 0.2760416666666714,
          "durationTicks": 53,
          "midi": 56,
          "name": "G#3",
          "ticks": 23761,
          "time": 123.75520833333333,
          "velocity": 0.41732283464566927
        },
        {
          "duration": 0.2760416666666714,
          "durationTicks": 53,
          "midi": 79,
          "name": "G5",
          "ticks": 23761,
          "time": 123.75520833333333,
          "velocity": 0.5039370078740157
        },
        {
          "duration": 0.2135416666666714,
          "durationTicks": 41,
          "midi": 72,
          "name": "C5",
          "ticks": 23761,
          "time": 123.75520833333333,
          "velocity": 0.4566929133858268
        },
        {
          "duration": 0.234375,
          "durationTicks": 45,
          "midi": 72,
          "name": "C5",
          "ticks": 23823,
          "time": 124.078125,
          "velocity": 0.4330708661417323
        },
        {
          "duration": 0.2708333333333286,
          "durationTicks": 52,
          "midi": 55,
          "name": "G3",
          "ticks": 23823,
          "time": 124.078125,
          "velocity": 0.2992125984251969
        },
        {
          "duration": 0.3020833333333286,
          "durationTicks": 58,
          "midi": 48,
          "name": "C3",
          "ticks": 23823,
          "time": 124.078125,
          "velocity": 0.47244094488188976
        },
        {
          "duration": 0.3020833333333286,
          "durationTicks": 58,
          "midi": 36,
          "name": "C2",
          "ticks": 23823,
          "time": 124.078125,
          "velocity": 0.30708661417322836
        },
        {
          "duration": 0.3020833333333286,
          "durationTicks": 58,
          "midi": 77,
          "name": "F5",
          "ticks": 23823,
          "time": 124.078125,
          "velocity": 0.5118110236220472
        },
        {
          "duration": 0.1145833333333286,
          "durationTicks": 22,
          "midi": 55,
          "name": "G3",
          "ticks": 23892,
          "time": 124.4375,
          "velocity": 0.4409448818897638
        },
        {
          "duration": 0.1145833333333286,
          "durationTicks": 22,
          "midi": 72,
          "name": "C5",
          "ticks": 23892,
          "time": 124.4375,
          "velocity": 0.5511811023622047
        },
        {
          "duration": 0.1145833333333286,
          "durationTicks": 22,
          "midi": 75,
          "name": "D#5",
          "ticks": 23892,
          "time": 124.4375,
          "velocity": 0.48031496062992124
        },
        {
          "duration": 0.265625,
          "durationTicks": 51,
          "midi": 60,
          "name": "C4",
          "ticks": 23930,
          "time": 124.63541666666667,
          "velocity": 0.4251968503937008
        },
        {
          "duration": 0.265625,
          "durationTicks": 51,
          "midi": 75,
          "name": "D#5",
          "ticks": 23930,
          "time": 124.63541666666667,
          "velocity": 0.5748031496062992
        },
        {
          "duration": 0.203125,
          "durationTicks": 39,
          "midi": 67,
          "name": "G4",
          "ticks": 23930,
          "time": 124.63541666666667,
          "velocity": 0.3937007874015748
        },
        {
          "duration": 0.1979166666666572,
          "durationTicks": 38,
          "midi": 72,
          "name": "C5",
          "ticks": 23930,
          "time": 124.63541666666667,
          "velocity": 0.4409448818897638
        },
        {
          "duration": 0.265625,
          "durationTicks": 51,
          "midi": 63,
          "name": "D#4",
          "ticks": 23930,
          "time": 124.63541666666667,
          "velocity": 0.4251968503937008
        },
        {
          "duration": 0.1197916666666714,
          "durationTicks": 23,
          "midi": 55,
          "name": "G3",
          "ticks": 23992,
          "time": 124.95833333333333,
          "velocity": 0.4094488188976378
        },
        {
          "duration": 0.1197916666666714,
          "durationTicks": 23,
          "midi": 67,
          "name": "G4",
          "ticks": 23992,
          "time": 124.95833333333333,
          "velocity": 0.3700787401574803
        },
        {
          "duration": 0.1197916666666714,
          "durationTicks": 23,
          "midi": 72,
          "name": "C5",
          "ticks": 23992,
          "time": 124.95833333333333,
          "velocity": 0.5118110236220472
        },
        {
          "duration": 0.0885416666666714,
          "durationTicks": 17,
          "midi": 60,
          "name": "C4",
          "ticks": 24030,
          "time": 125.15625,
          "velocity": 0.4251968503937008
        },
        {
          "duration": 0.0885416666666714,
          "durationTicks": 17,
          "midi": 63,
          "name": "D#4",
          "ticks": 24030,
          "time": 125.15625,
          "velocity": 0.3464566929133858
        },
        {
          "duration": 0.109375,
          "durationTicks": 21,
          "midi": 67,
          "name": "G4",
          "ticks": 24061,
          "time": 125.31770833333333,
          "velocity": 0.3543307086614173
        },
        {
          "duration": 0.109375,
          "durationTicks": 21,
          "midi": 75,
          "name": "D#5",
          "ticks": 24061,
          "time": 125.31770833333333,
          "velocity": 0.5039370078740157
        },
        {
          "duration": 0.0833333333333286,
          "durationTicks": 16,
          "midi": 48,
          "name": "C3",
          "ticks": 24099,
          "time": 125.515625,
          "velocity": 0.49606299212598426
        },
        {
          "duration": 0.0833333333333286,
          "durationTicks": 16,
          "midi": 36,
          "name": "C2",
          "ticks": 24099,
          "time": 125.515625,
          "velocity": 0.36220472440944884
        },
        {
          "duration": 0.09895833333334281,
          "durationTicks": 19,
          "midi": 72,
          "name": "C5",
          "ticks": 24130,
          "time": 125.67708333333333,
          "velocity": 0.5433070866141733
        },
        {
          "duration": 0.09895833333334281,
          "durationTicks": 19,
          "midi": 67,
          "name": "G4",
          "ticks": 24130,
          "time": 125.67708333333333,
          "velocity": 0.3700787401574803
        },
        {
          "duration": 0.10416666666665719,
          "durationTicks": 20,
          "midi": 55,
          "name": "G3",
          "ticks": 24161,
          "time": 125.83854166666667,
          "velocity": 0.4015748031496063
        },
        {
          "duration": 0.2552083333333428,
          "durationTicks": 49,
          "midi": 60,
          "name": "C4",
          "ticks": 24199,
          "time": 126.03645833333333,
          "velocity": 0.3700787401574803
        },
        {
          "duration": 0.2552083333333428,
          "durationTicks": 49,
          "midi": 63,
          "name": "D#4",
          "ticks": 24199,
          "time": 126.03645833333333,
          "velocity": 0.4251968503937008
        },
        {
          "duration": 0.1145833333333286,
          "durationTicks": 22,
          "midi": 72,
          "name": "C5",
          "ticks": 24261,
          "time": 126.359375,
          "velocity": 0.49606299212598426
        },
        {
          "duration": 0.1145833333333286,
          "durationTicks": 22,
          "midi": 75,
          "name": "D#5",
          "ticks": 24261,
          "time": 126.359375,
          "velocity": 0.4566929133858268
        },
        {
          "duration": 0.1145833333333286,
          "durationTicks": 22,
          "midi": 55,
          "name": "G3",
          "ticks": 24261,
          "time": 126.359375,
          "velocity": 0.4566929133858268
        },
        {
          "duration": 0.1145833333333286,
          "durationTicks": 22,
          "midi": 67,
          "name": "G4",
          "ticks": 24261,
          "time": 126.359375,
          "velocity": 0.4566929133858268
        },
        {
          "duration": 0.2708333333333286,
          "durationTicks": 52,
          "midi": 63,
          "name": "D#4",
          "ticks": 24299,
          "time": 126.55729166666667,
          "velocity": 0.44881889763779526
        },
        {
          "duration": 0.2708333333333286,
          "durationTicks": 52,
          "midi": 60,
          "name": "C4",
          "ticks": 24299,
          "time": 126.55729166666667,
          "velocity": 0.44881889763779526
        },
        {
          "duration": 0.2708333333333286,
          "durationTicks": 52,
          "midi": 72,
          "name": "C5",
          "ticks": 24299,
          "time": 126.55729166666667,
          "velocity": 0.3858267716535433
        },
        {
          "duration": 0.0833333333333286,
          "durationTicks": 16,
          "midi": 51,
          "name": "D#3",
          "ticks": 24368,
          "time": 126.91666666666667,
          "velocity": 0.4881889763779528
        },
        {
          "duration": 0.0833333333333286,
          "durationTicks": 16,
          "midi": 39,
          "name": "D#2",
          "ticks": 24368,
          "time": 126.91666666666667,
          "velocity": 0.4330708661417323
        },
        {
          "duration": 0.0833333333333286,
          "durationTicks": 16,
          "midi": 75,
          "name": "D#5",
          "ticks": 24368,
          "time": 126.91666666666667,
          "velocity": 0.3858267716535433
        },
        {
          "duration": 0.0833333333333286,
          "durationTicks": 16,
          "midi": 70,
          "name": "A#4",
          "ticks": 24368,
          "time": 126.91666666666667,
          "velocity": 0.4094488188976378
        },
        {
          "duration": 0.0989583333333286,
          "durationTicks": 19,
          "midi": 70,
          "name": "A#4",
          "ticks": 24399,
          "time": 127.078125,
          "velocity": 0.3779527559055118
        },
        {
          "duration": 0.0989583333333286,
          "durationTicks": 19,
          "midi": 79,
          "name": "G5",
          "ticks": 24399,
          "time": 127.078125,
          "velocity": 0.5196850393700787
        },
        {
          "duration": 0.07291666666665719,
          "durationTicks": 14,
          "midi": 51,
          "name": "D#3",
          "ticks": 24437,
          "time": 127.27604166666667,
          "velocity": 0.4251968503937008
        },
        {
          "duration": 0.265625,
          "durationTicks": 51,
          "midi": 58,
          "name": "A#3",
          "ticks": 24468,
          "time": 127.4375,
          "velocity": 0.5118110236220472
        },
        {
          "duration": 0.265625,
          "durationTicks": 51,
          "midi": 77,
          "name": "F5",
          "ticks": 24468,
          "time": 127.4375,
          "velocity": 0.4645669291338583
        },
        {
          "duration": 0.265625,
          "durationTicks": 51,
          "midi": 55,
          "name": "G3",
          "ticks": 24468,
          "time": 127.4375,
          "velocity": 0.23622047244094488
        },
        {
          "duration": 0.078125,
          "durationTicks": 15,
          "midi": 51,
          "name": "D#3",
          "ticks": 24537,
          "time": 127.796875,
          "velocity": 0.33070866141732286
        },
        {
          "duration": 0.078125,
          "durationTicks": 15,
          "midi": 75,
          "name": "D#5",
          "ticks": 24537,
          "time": 127.796875,
          "velocity": 0.3937007874015748
        },
        {
          "duration": 0.078125,
          "durationTicks": 15,
          "midi": 70,
          "name": "A#4",
          "ticks": 24537,
          "time": 127.796875,
          "velocity": 0.4330708661417323
        },
        {
          "duration": 0.2656249999999858,
          "durationTicks": 51,
          "midi": 58,
          "name": "A#3",
          "ticks": 24568,
          "time": 127.95833333333333,
          "velocity": 0.4566929133858268
        },
        {
          "duration": 0.2656249999999858,
          "durationTicks": 51,
          "midi": 55,
          "name": "G3",
          "ticks": 24568,
          "time": 127.95833333333333,
          "velocity": 0.3937007874015748
        },
        {
          "duration": 0.08854166666668561,
          "durationTicks": 17,
          "midi": 82,
          "name": "A#5",
          "ticks": 24637,
          "time": 128.31770833333331,
          "velocity": 0.4251968503937008
        },
        {
          "duration": 0.08854166666668561,
          "durationTicks": 17,
          "midi": 39,
          "name": "D#2",
          "ticks": 24637,
          "time": 128.31770833333331,
          "velocity": 0.4251968503937008
        },
        {
          "duration": 0.08854166666668561,
          "durationTicks": 17,
          "midi": 70,
          "name": "A#4",
          "ticks": 24637,
          "time": 128.31770833333331,
          "velocity": 0.4645669291338583
        },
        {
          "duration": 0.08854166666668561,
          "durationTicks": 17,
          "midi": 63,
          "name": "D#4",
          "ticks": 24637,
          "time": 128.31770833333331,
          "velocity": 0.4094488188976378
        },
        {
          "duration": 0.08854166666668561,
          "durationTicks": 17,
          "midi": 51,
          "name": "D#3",
          "ticks": 24637,
          "time": 128.31770833333331,
          "velocity": 0.3464566929133858
        },
        {
          "duration": 0.08854166666668561,
          "durationTicks": 17,
          "midi": 75,
          "name": "D#5",
          "ticks": 24637,
          "time": 128.31770833333331,
          "velocity": 0.3858267716535433
        },
        {
          "duration": 0.10416666666662877,
          "durationTicks": 20,
          "midi": 79,
          "name": "G5",
          "ticks": 24668,
          "time": 128.47916666666669,
          "velocity": 0.48031496062992124
        },
        {
          "duration": 0.10416666666662877,
          "durationTicks": 20,
          "midi": 75,
          "name": "D#5",
          "ticks": 24668,
          "time": 128.47916666666669,
          "velocity": 0.33858267716535434
        },
        {
          "duration": 0.10416666666662877,
          "durationTicks": 20,
          "midi": 70,
          "name": "A#4",
          "ticks": 24668,
          "time": 128.47916666666669,
          "velocity": 0.3700787401574803
        },
        {
          "duration": 0.078125,
          "durationTicks": 15,
          "midi": 51,
          "name": "D#3",
          "ticks": 24706,
          "time": 128.67708333333331,
          "velocity": 0.4409448818897638
        },
        {
          "duration": 0.265625,
          "durationTicks": 51,
          "midi": 70,
          "name": "A#4",
          "ticks": 24737,
          "time": 128.83854166666669,
          "velocity": 0.41732283464566927
        },
        {
          "duration": 0.265625,
          "durationTicks": 51,
          "midi": 77,
          "name": "F5",
          "ticks": 24737,
          "time": 128.83854166666669,
          "velocity": 0.5039370078740157
        },
        {
          "duration": 0.265625,
          "durationTicks": 51,
          "midi": 55,
          "name": "G3",
          "ticks": 24737,
          "time": 128.83854166666669,
          "velocity": 0.2755905511811024
        },
        {
          "duration": 0.265625,
          "durationTicks": 51,
          "midi": 58,
          "name": "A#3",
          "ticks": 24737,
          "time": 128.83854166666669,
          "velocity": 0.4566929133858268
        },
        {
          "duration": 0.08854166666662877,
          "durationTicks": 17,
          "midi": 70,
          "name": "A#4",
          "ticks": 24806,
          "time": 129.19791666666669,
          "velocity": 0.3700787401574803
        },
        {
          "duration": 0.08854166666662877,
          "durationTicks": 17,
          "midi": 75,
          "name": "D#5",
          "ticks": 24806,
          "time": 129.19791666666669,
          "velocity": 0.4566929133858268
        },
        {
          "duration": 0.09895833333331439,
          "durationTicks": 19,
          "midi": 55,
          "name": "G3",
          "ticks": 24837,
          "time": 129.359375,
          "velocity": 0.3700787401574803
        },
        {
          "duration": 0.09895833333331439,
          "durationTicks": 19,
          "midi": 58,
          "name": "A#3",
          "ticks": 24837,
          "time": 129.359375,
          "velocity": 0.44881889763779526
        },
        {
          "duration": 0.11979166666668561,
          "durationTicks": 23,
          "midi": 77,
          "name": "F5",
          "ticks": 24867,
          "time": 129.515625,
          "velocity": 0.5118110236220472
        },
        {
          "duration": 0.11979166666668561,
          "durationTicks": 23,
          "midi": 70,
          "name": "A#4",
          "ticks": 24867,
          "time": 129.515625,
          "velocity": 0.33070866141732286
        },
        {
          "duration": 0.11979166666668561,
          "durationTicks": 23,
          "midi": 74,
          "name": "D5",
          "ticks": 24867,
          "time": 129.515625,
          "velocity": 0.3700787401574803
        },
        {
          "duration": 0.2708333333333144,
          "durationTicks": 52,
          "midi": 34,
          "name": "A#1",
          "ticks": 24905,
          "time": 129.71354166666669,
          "velocity": 0.4330708661417323
        },
        {
          "duration": 0.2708333333333144,
          "durationTicks": 52,
          "midi": 46,
          "name": "A#2",
          "ticks": 24905,
          "time": 129.71354166666669,
          "velocity": 0.47244094488188976
        },
        {
          "duration": 0.078125,
          "durationTicks": 15,
          "midi": 74,
          "name": "D5",
          "ticks": 24975,
          "time": 130.078125,
          "velocity": 0.4015748031496063
        },
        {
          "duration": 0.078125,
          "durationTicks": 15,
          "midi": 53,
          "name": "F3",
          "ticks": 24975,
          "time": 130.078125,
          "velocity": 0.4251968503937008
        },
        {
          "duration": 0.078125,
          "durationTicks": 15,
          "midi": 70,
          "name": "A#4",
          "ticks": 24975,
          "time": 130.078125,
          "velocity": 0.41732283464566927
        },
        {
          "duration": 0.078125,
          "durationTicks": 15,
          "midi": 77,
          "name": "F5",
          "ticks": 24975,
          "time": 130.078125,
          "velocity": 0.5354330708661418
        },
        {
          "duration": 0.2708333333333144,
          "durationTicks": 52,
          "midi": 62,
          "name": "D4",
          "ticks": 25005,
          "time": 130.234375,
          "velocity": 0.3937007874015748
        },
        {
          "duration": 0.2708333333333144,
          "durationTicks": 52,
          "midi": 58,
          "name": "A#3",
          "ticks": 25005,
          "time": 130.234375,
          "velocity": 0.4251968503937008
        },
        {
          "duration": 0.08333333333337123,
          "durationTicks": 16,
          "midi": 53,
          "name": "F3",
          "ticks": 25075,
          "time": 130.59895833333331,
          "velocity": 0.49606299212598426
        },
        {
          "duration": 0.28645833333337123,
          "durationTicks": 55,
          "midi": 62,
          "name": "D4",
          "ticks": 25105,
          "time": 130.75520833333331,
          "velocity": 0.3937007874015748
        },
        {
          "duration": 0.28645833333337123,
          "durationTicks": 55,
          "midi": 58,
          "name": "A#3",
          "ticks": 25105,
          "time": 130.75520833333331,
          "velocity": 0.44881889763779526
        },
        {
          "duration": 0.2604166666666856,
          "durationTicks": 50,
          "midi": 34,
          "name": "A#1",
          "ticks": 25174,
          "time": 131.11458333333331,
          "velocity": 0.44881889763779526
        },
        {
          "duration": 0.2604166666666856,
          "durationTicks": 50,
          "midi": 46,
          "name": "A#2",
          "ticks": 25174,
          "time": 131.11458333333331,
          "velocity": 0.5590551181102362
        },
        {
          "duration": 0.06770833333331439,
          "durationTicks": 13,
          "midi": 53,
          "name": "F3",
          "ticks": 25244,
          "time": 131.47916666666669,
          "velocity": 0.4566929133858268
        },
        {
          "duration": 0.08854166666662877,
          "durationTicks": 17,
          "midi": 58,
          "name": "A#3",
          "ticks": 25274,
          "time": 131.63541666666669,
          "velocity": 0.4251968503937008
        },
        {
          "duration": 0.08854166666662877,
          "durationTicks": 17,
          "midi": 62,
          "name": "D4",
          "ticks": 25274,
          "time": 131.63541666666669,
          "velocity": 0.4566929133858268
        },
        {
          "duration": 0.10416666666668561,
          "durationTicks": 20,
          "midi": 82,
          "name": "A#5",
          "ticks": 25305,
          "time": 131.796875,
          "velocity": 0.4409448818897638
        },
        {
          "duration": 0.07291666666668561,
          "durationTicks": 14,
          "midi": 53,
          "name": "F3",
          "ticks": 25344,
          "time": 132,
          "velocity": 0.48031496062992124
        },
        {
          "duration": 0.07291666666668561,
          "durationTicks": 14,
          "midi": 79,
          "name": "G5",
          "ticks": 25344,
          "time": 132,
          "velocity": 0.5590551181102362
        },
        {
          "duration": 0.09895833333331439,
          "durationTicks": 19,
          "midi": 62,
          "name": "D4",
          "ticks": 25374,
          "time": 132.15625,
          "velocity": 0.48031496062992124
        },
        {
          "duration": 0.09895833333331439,
          "durationTicks": 19,
          "midi": 58,
          "name": "A#3",
          "ticks": 25374,
          "time": 132.15625,
          "velocity": 0.49606299212598426
        },
        {
          "duration": 0.09895833333331439,
          "durationTicks": 19,
          "midi": 82,
          "name": "A#5",
          "ticks": 25374,
          "time": 132.15625,
          "velocity": 0.4094488188976378
        },
        {
          "duration": 0.07291666666668561,
          "durationTicks": 14,
          "midi": 58,
          "name": "A#3",
          "ticks": 25413,
          "time": 132.359375,
          "velocity": 0.5826771653543307
        },
        {
          "duration": 0.07291666666668561,
          "durationTicks": 14,
          "midi": 79,
          "name": "G5",
          "ticks": 25413,
          "time": 132.359375,
          "velocity": 0.5039370078740157
        },
        {
          "duration": 0.2604166666666856,
          "durationTicks": 50,
          "midi": 53,
          "name": "F3",
          "ticks": 25443,
          "time": 132.515625,
          "velocity": 0.41732283464566927
        },
        {
          "duration": 0.2604166666666856,
          "durationTicks": 50,
          "midi": 41,
          "name": "F2",
          "ticks": 25443,
          "time": 132.515625,
          "velocity": 0.44881889763779526
        },
        {
          "duration": 0.0625,
          "durationTicks": 12,
          "midi": 79,
          "name": "G5",
          "ticks": 25513,
          "time": 132.88020833333331,
          "velocity": 0.48031496062992124
        },
        {
          "duration": 0.2604166666666856,
          "durationTicks": 50,
          "midi": 60,
          "name": "C4",
          "ticks": 25543,
          "time": 133.03645833333331,
          "velocity": 0.4094488188976378
        },
        {
          "duration": 0.2604166666666856,
          "durationTicks": 50,
          "midi": 79,
          "name": "G5",
          "ticks": 25543,
          "time": 133.03645833333331,
          "velocity": 0.5433070866141733
        },
        {
          "duration": 0.2604166666666856,
          "durationTicks": 50,
          "midi": 56,
          "name": "G#3",
          "ticks": 25543,
          "time": 133.03645833333331,
          "velocity": 0.3700787401574803
        },
        {
          "duration": 0.07291666666662877,
          "durationTicks": 14,
          "midi": 77,
          "name": "F5",
          "ticks": 25613,
          "time": 133.40104166666669,
          "velocity": 0.48031496062992124
        },
        {
          "duration": 0.07291666666662877,
          "durationTicks": 14,
          "midi": 53,
          "name": "F3",
          "ticks": 25613,
          "time": 133.40104166666669,
          "velocity": 0.5433070866141733
        },
        {
          "duration": 0.27604166666662877,
          "durationTicks": 53,
          "midi": 77,
          "name": "F5",
          "ticks": 25643,
          "time": 133.55729166666669,
          "velocity": 0.5669291338582677
        },
        {
          "duration": 0.27604166666662877,
          "durationTicks": 53,
          "midi": 56,
          "name": "G#3",
          "ticks": 25643,
          "time": 133.55729166666669,
          "velocity": 0.41732283464566927
        },
        {
          "duration": 0.27604166666662877,
          "durationTicks": 53,
          "midi": 60,
          "name": "C4",
          "ticks": 25643,
          "time": 133.55729166666669,
          "velocity": 0.4330708661417323
        },
        {
          "duration": 0.265625,
          "durationTicks": 51,
          "midi": 41,
          "name": "F2",
          "ticks": 25712,
          "time": 133.91666666666669,
          "velocity": 0.5354330708661418
        },
        {
          "duration": 0.265625,
          "durationTicks": 51,
          "midi": 53,
          "name": "F3",
          "ticks": 25712,
          "time": 133.91666666666669,
          "velocity": 0.48031496062992124
        },
        {
          "duration": 0.078125,
          "durationTicks": 15,
          "midi": 53,
          "name": "F3",
          "ticks": 25781,
          "time": 134.27604166666669,
          "velocity": 0.5669291338582677
        },
        {
          "duration": 0.08854166666668561,
          "durationTicks": 17,
          "midi": 56,
          "name": "G#3",
          "ticks": 25812,
          "time": 134.4375,
          "velocity": 0.41732283464566927
        },
        {
          "duration": 0.08854166666668561,
          "durationTicks": 17,
          "midi": 60,
          "name": "C4",
          "ticks": 25812,
          "time": 134.4375,
          "velocity": 0.4409448818897638
        },
        {
          "duration": 0.06770833333331439,
          "durationTicks": 13,
          "midi": 82,
          "name": "A#5",
          "ticks": 25850,
          "time": 134.63541666666669,
          "velocity": 0.4251968503937008
        },
        {
          "duration": 0.08333333333331439,
          "durationTicks": 16,
          "midi": 79,
          "name": "G5",
          "ticks": 25881,
          "time": 134.796875,
          "velocity": 0.5354330708661418
        },
        {
          "duration": 0.08333333333331439,
          "durationTicks": 16,
          "midi": 53,
          "name": "F3",
          "ticks": 25881,
          "time": 134.796875,
          "velocity": 0.5433070866141733
        },
        {
          "duration": 0.109375,
          "durationTicks": 21,
          "midi": 60,
          "name": "C4",
          "ticks": 25912,
          "time": 134.95833333333331,
          "velocity": 0.3937007874015748
        },
        {
          "duration": 0.109375,
          "durationTicks": 21,
          "midi": 56,
          "name": "G#3",
          "ticks": 25912,
          "time": 134.95833333333331,
          "velocity": 0.4330708661417323
        },
        {
          "duration": 0.109375,
          "durationTicks": 21,
          "midi": 82,
          "name": "A#5",
          "ticks": 25912,
          "time": 134.95833333333331,
          "velocity": 0.49606299212598426
        },
        {
          "duration": 0.08854166666668561,
          "durationTicks": 17,
          "midi": 79,
          "name": "G5",
          "ticks": 25950,
          "time": 135.15625,
          "velocity": 0.5275590551181102
        },
        {
          "duration": 0.265625,
          "durationTicks": 51,
          "midi": 60,
          "name": "C4",
          "ticks": 25981,
          "time": 135.31770833333331,
          "velocity": 0.3858267716535433
        },
        {
          "duration": 0.265625,
          "durationTicks": 51,
          "midi": 48,
          "name": "C3",
          "ticks": 25981,
          "time": 135.31770833333331,
          "velocity": 0.4566929133858268
        },
        {
          "duration": 0.265625,
          "durationTicks": 51,
          "midi": 84,
          "name": "C6",
          "ticks": 25981,
          "time": 135.31770833333331,
          "velocity": 0.4251968503937008
        },
        {
          "duration": 0.265625,
          "durationTicks": 51,
          "midi": 36,
          "name": "C2",
          "ticks": 25981,
          "time": 135.31770833333331,
          "velocity": 0.33070866141732286
        },
        {
          "duration": 0.078125,
          "durationTicks": 15,
          "midi": 51,
          "name": "D#3",
          "ticks": 26050,
          "time": 135.67708333333331,
          "velocity": 0.3779527559055118
        },
        {
          "duration": 0.05208333333337123,
          "durationTicks": 10,
          "midi": 79,
          "name": "G5",
          "ticks": 26050,
          "time": 135.67708333333331,
          "velocity": 0.49606299212598426
        },
        {
          "duration": 0.265625,
          "durationTicks": 51,
          "midi": 79,
          "name": "G5",
          "ticks": 26081,
          "time": 135.83854166666669,
          "velocity": 0.5669291338582677
        },
        {
          "duration": 0.265625,
          "durationTicks": 51,
          "midi": 55,
          "name": "G3",
          "ticks": 26081,
          "time": 135.83854166666669,
          "velocity": 0.33858267716535434
        },
        {
          "duration": 0.265625,
          "durationTicks": 51,
          "midi": 60,
          "name": "C4",
          "ticks": 26081,
          "time": 135.83854166666669,
          "velocity": 0.41732283464566927
        },
        {
          "duration": 0.08333333333331439,
          "durationTicks": 16,
          "midi": 51,
          "name": "D#3",
          "ticks": 26150,
          "time": 136.19791666666669,
          "velocity": 0.3228346456692913
        },
        {
          "duration": 0.020833333333314386,
          "durationTicks": 4,
          "midi": 77,
          "name": "F5",
          "ticks": 26150,
          "time": 136.19791666666669,
          "velocity": 0.5511811023622047
        },
        {
          "duration": 0.10416666666668561,
          "durationTicks": 20,
          "midi": 60,
          "name": "C4",
          "ticks": 26181,
          "time": 136.359375,
          "velocity": 0.4330708661417323
        },
        {
          "duration": 0.078125,
          "durationTicks": 15,
          "midi": 77,
          "name": "F5",
          "ticks": 26181,
          "time": 136.359375,
          "velocity": 0.5433070866141733
        },
        {
          "duration": 0.10416666666668561,
          "durationTicks": 20,
          "midi": 55,
          "name": "G3",
          "ticks": 26181,
          "time": 136.359375,
          "velocity": 0.3858267716535433
        },
        {
          "duration": 0.08854166666662877,
          "durationTicks": 17,
          "midi": 75,
          "name": "D#5",
          "ticks": 26219,
          "time": 136.55729166666669,
          "velocity": 0.44881889763779526
        },
        {
          "duration": 0.17708333333331439,
          "durationTicks": 34,
          "midi": 36,
          "name": "C2",
          "ticks": 26249,
          "time": 136.71354166666669,
          "velocity": 0.3779527559055118
        },
        {
          "duration": 0.17708333333331439,
          "durationTicks": 34,
          "midi": 48,
          "name": "C3",
          "ticks": 26249,
          "time": 136.71354166666669,
          "velocity": 0.5039370078740157
        },
        {
          "duration": 0.078125,
          "durationTicks": 15,
          "midi": 72,
          "name": "C5",
          "ticks": 26288,
          "time": 136.91666666666669,
          "velocity": 0.5433070866141733
        },
        {
          "duration": 0.109375,
          "durationTicks": 21,
          "midi": 51,
          "name": "D#3",
          "ticks": 26319,
          "time": 137.078125,
          "velocity": 0.3700787401574803
        },
        {
          "duration": 0.2916666666666572,
          "durationTicks": 56,
          "midi": 60,
          "name": "C4",
          "ticks": 26349,
          "time": 137.234375,
          "velocity": 0.4881889763779528
        },
        {
          "duration": 0.2916666666666572,
          "durationTicks": 56,
          "midi": 55,
          "name": "G3",
          "ticks": 26349,
          "time": 137.234375,
          "velocity": 0.3779527559055118
        },
        {
          "duration": 0.10416666666665719,
          "durationTicks": 20,
          "midi": 51,
          "name": "D#3",
          "ticks": 26419,
          "time": 137.59895833333334,
          "velocity": 0.33070866141732286
        },
        {
          "duration": 0.2708333333333428,
          "durationTicks": 52,
          "midi": 60,
          "name": "C4",
          "ticks": 26457,
          "time": 137.796875,
          "velocity": 0.4645669291338583
        },
        {
          "duration": 0.2708333333333428,
          "durationTicks": 52,
          "midi": 55,
          "name": "G3",
          "ticks": 26457,
          "time": 137.796875,
          "velocity": 0.4094488188976378
        },
        {
          "duration": 0.2708333333333428,
          "durationTicks": 52,
          "midi": 82,
          "name": "A#5",
          "ticks": 26457,
          "time": 137.796875,
          "velocity": 0.4566929133858268
        },
        {
          "duration": 0.2760416666666572,
          "durationTicks": 53,
          "midi": 39,
          "name": "D#2",
          "ticks": 26518,
          "time": 138.11458333333334,
          "velocity": 0.4330708661417323
        },
        {
          "duration": 0.2760416666666572,
          "durationTicks": 53,
          "midi": 51,
          "name": "D#3",
          "ticks": 26518,
          "time": 138.11458333333334,
          "velocity": 0.41732283464566927
        },
        {
          "duration": 0.3020833333333144,
          "durationTicks": 58,
          "midi": 63,
          "name": "D#4",
          "ticks": 26518,
          "time": 138.11458333333334,
          "velocity": 0.41732283464566927
        },
        {
          "duration": 0.08333333333334281,
          "durationTicks": 16,
          "midi": 51,
          "name": "D#3",
          "ticks": 26588,
          "time": 138.47916666666666,
          "velocity": 0.48031496062992124
        },
        {
          "duration": 0.109375,
          "durationTicks": 21,
          "midi": 79,
          "name": "G5",
          "ticks": 26588,
          "time": 138.47916666666666,
          "velocity": 0.5118110236220472
        },
        {
          "duration": 0.2604166666666572,
          "durationTicks": 50,
          "midi": 58,
          "name": "A#3",
          "ticks": 26626,
          "time": 138.67708333333334,
          "velocity": 0.5354330708661418
        },
        {
          "duration": 0.2604166666666572,
          "durationTicks": 50,
          "midi": 55,
          "name": "G3",
          "ticks": 26626,
          "time": 138.67708333333334,
          "velocity": 0.30708661417322836
        },
        {
          "duration": 0.2604166666666572,
          "durationTicks": 50,
          "midi": 79,
          "name": "G5",
          "ticks": 26626,
          "time": 138.67708333333334,
          "velocity": 0.5748031496062992
        },
        {
          "duration": 0.11458333333334281,
          "durationTicks": 22,
          "midi": 51,
          "name": "D#3",
          "ticks": 26688,
          "time": 139,
          "velocity": 0.36220472440944884
        },
        {
          "duration": 0.11458333333334281,
          "durationTicks": 22,
          "midi": 63,
          "name": "D#4",
          "ticks": 26688,
          "time": 139,
          "velocity": 0.36220472440944884
        },
        {
          "duration": 0.11458333333334281,
          "durationTicks": 22,
          "midi": 77,
          "name": "F5",
          "ticks": 26688,
          "time": 139,
          "velocity": 0.5984251968503937
        },
        {
          "duration": 0.2760416666666856,
          "durationTicks": 53,
          "midi": 79,
          "name": "G5",
          "ticks": 26726,
          "time": 139.19791666666666,
          "velocity": 0.5118110236220472
        },
        {
          "duration": 0.2760416666666856,
          "durationTicks": 53,
          "midi": 55,
          "name": "G3",
          "ticks": 26726,
          "time": 139.19791666666666,
          "velocity": 0.3700787401574803
        },
        {
          "duration": 0.2760416666666856,
          "durationTicks": 53,
          "midi": 58,
          "name": "A#3",
          "ticks": 26726,
          "time": 139.19791666666666,
          "velocity": 0.5354330708661418
        },
        {
          "duration": 0.265625,
          "durationTicks": 51,
          "midi": 63,
          "name": "D#4",
          "ticks": 26795,
          "time": 139.55729166666666,
          "velocity": 0.49606299212598426
        },
        {
          "duration": 0.265625,
          "durationTicks": 51,
          "midi": 39,
          "name": "D#2",
          "ticks": 26795,
          "time": 139.55729166666666,
          "velocity": 0.44881889763779526
        },
        {
          "duration": 0.21354166666668561,
          "durationTicks": 41,
          "midi": 51,
          "name": "D#3",
          "ticks": 26795,
          "time": 139.55729166666666,
          "velocity": 0.49606299212598426
        },
        {
          "duration": 0.06770833333331439,
          "durationTicks": 13,
          "midi": 51,
          "name": "D#3",
          "ticks": 26857,
          "time": 139.88020833333334,
          "velocity": 0.5354330708661418
        },
        {
          "duration": 0.08854166666665719,
          "durationTicks": 17,
          "midi": 55,
          "name": "G3",
          "ticks": 26895,
          "time": 140.078125,
          "velocity": 0.3228346456692913
        },
        {
          "duration": 0.08854166666665719,
          "durationTicks": 17,
          "midi": 58,
          "name": "A#3",
          "ticks": 26895,
          "time": 140.078125,
          "velocity": 0.5669291338582677
        },
        {
          "duration": 0.10416666666665719,
          "durationTicks": 20,
          "midi": 82,
          "name": "A#5",
          "ticks": 26925,
          "time": 140.234375,
          "velocity": 0.5354330708661418
        },
        {
          "duration": 0.11458333333334281,
          "durationTicks": 22,
          "midi": 51,
          "name": "D#3",
          "ticks": 26957,
          "time": 140.40104166666666,
          "velocity": 0.3858267716535433
        },
        {
          "duration": 0.2760416666666572,
          "durationTicks": 53,
          "midi": 58,
          "name": "A#3",
          "ticks": 26995,
          "time": 140.59895833333334,
          "velocity": 0.5511811023622047
        },
        {
          "duration": 0.2760416666666572,
          "durationTicks": 53,
          "midi": 55,
          "name": "G3",
          "ticks": 26995,
          "time": 140.59895833333334,
          "velocity": 0.3858267716535433
        },
        {
          "duration": 0.08854166666665719,
          "durationTicks": 17,
          "midi": 34,
          "name": "A#1",
          "ticks": 27064,
          "time": 140.95833333333334,
          "velocity": 0.44881889763779526
        },
        {
          "duration": 0.08854166666665719,
          "durationTicks": 17,
          "midi": 46,
          "name": "A#2",
          "ticks": 27064,
          "time": 140.95833333333334,
          "velocity": 0.5275590551181102
        },
        {
          "duration": 0.10416666666665719,
          "durationTicks": 20,
          "midi": 80,
          "name": "G#5",
          "ticks": 27094,
          "time": 141.11458333333334,
          "velocity": 0.4330708661417323
        },
        {
          "duration": 0.11979166666668561,
          "durationTicks": 23,
          "midi": 53,
          "name": "F3",
          "ticks": 27125,
          "time": 141.27604166666666,
          "velocity": 0.4330708661417323
        },
        {
          "duration": 0.11979166666668561,
          "durationTicks": 23,
          "midi": 79,
          "name": "G5",
          "ticks": 27125,
          "time": 141.27604166666666,
          "velocity": 0.5354330708661418
        },
        {
          "duration": 0.2708333333333428,
          "durationTicks": 52,
          "midi": 77,
          "name": "F5",
          "ticks": 27164,
          "time": 141.47916666666666,
          "velocity": 0.5826771653543307
        },
        {
          "duration": 0.2708333333333428,
          "durationTicks": 52,
          "midi": 62,
          "name": "D4",
          "ticks": 27164,
          "time": 141.47916666666666,
          "velocity": 0.3779527559055118
        },
        {
          "duration": 0.2708333333333428,
          "durationTicks": 52,
          "midi": 58,
          "name": "A#3",
          "ticks": 27164,
          "time": 141.47916666666666,
          "velocity": 0.4015748031496063
        },
        {
          "duration": 0.08854166666668561,
          "durationTicks": 17,
          "midi": 53,
          "name": "F3",
          "ticks": 27233,
          "time": 141.83854166666666,
          "velocity": 0.49606299212598426
        },
        {
          "duration": 0.2916666666666572,
          "durationTicks": 56,
          "midi": 58,
          "name": "A#3",
          "ticks": 27264,
          "time": 142,
          "velocity": 0.48031496062992124
        },
        {
          "duration": 0.2916666666666572,
          "durationTicks": 56,
          "midi": 79,
          "name": "G5",
          "ticks": 27264,
          "time": 142,
          "velocity": 0.5275590551181102
        },
        {
          "duration": 0.2916666666666572,
          "durationTicks": 56,
          "midi": 62,
          "name": "D4",
          "ticks": 27264,
          "time": 142,
          "velocity": 0.4094488188976378
        },
        {
          "duration": 0.2708333333333428,
          "durationTicks": 52,
          "midi": 34,
          "name": "A#1",
          "ticks": 27333,
          "time": 142.359375,
          "velocity": 0.4566929133858268
        },
        {
          "duration": 0.2708333333333428,
          "durationTicks": 52,
          "midi": 46,
          "name": "A#2",
          "ticks": 27333,
          "time": 142.359375,
          "velocity": 0.49606299212598426
        },
        {
          "duration": 0.125,
          "durationTicks": 24,
          "midi": 53,
          "name": "F3",
          "ticks": 27394,
          "time": 142.67708333333334,
          "velocity": 0.4566929133858268
        },
        {
          "duration": 0.2708333333333144,
          "durationTicks": 52,
          "midi": 79,
          "name": "G5",
          "ticks": 27433,
          "time": 142.88020833333334,
          "velocity": 0.5118110236220472
        },
        {
          "duration": 0.2708333333333144,
          "durationTicks": 52,
          "midi": 58,
          "name": "A#3",
          "ticks": 27433,
          "time": 142.88020833333334,
          "velocity": 0.4330708661417323
        },
        {
          "duration": 0.2708333333333144,
          "durationTicks": 52,
          "midi": 62,
          "name": "D4",
          "ticks": 27433,
          "time": 142.88020833333334,
          "velocity": 0.4409448818897638
        },
        {
          "duration": 0.09375,
          "durationTicks": 18,
          "midi": 75,
          "name": "D#5",
          "ticks": 27501,
          "time": 143.234375,
          "velocity": 0.4330708661417323
        },
        {
          "duration": 0.09375,
          "durationTicks": 18,
          "midi": 53,
          "name": "F3",
          "ticks": 27501,
          "time": 143.234375,
          "velocity": 0.5039370078740157
        },
        {
          "duration": 0.2760416666666856,
          "durationTicks": 53,
          "midi": 58,
          "name": "A#3",
          "ticks": 27533,
          "time": 143.40104166666666,
          "velocity": 0.5354330708661418
        },
        {
          "duration": 0.2760416666666856,
          "durationTicks": 53,
          "midi": 62,
          "name": "D4",
          "ticks": 27533,
          "time": 143.40104166666666,
          "velocity": 0.5039370078740157
        },
        {
          "duration": 0.2760416666666572,
          "durationTicks": 53,
          "midi": 41,
          "name": "F2",
          "ticks": 27601,
          "time": 143.75520833333334,
          "velocity": 0.47244094488188976
        },
        {
          "duration": 0.2760416666666572,
          "durationTicks": 53,
          "midi": 77,
          "name": "F5",
          "ticks": 27601,
          "time": 143.75520833333334,
          "velocity": 0.5748031496062992
        },
        {
          "duration": 0.2760416666666572,
          "durationTicks": 53,
          "midi": 72,
          "name": "C5",
          "ticks": 27601,
          "time": 143.75520833333334,
          "velocity": 0.4330708661417323
        },
        {
          "duration": 0.2760416666666572,
          "durationTicks": 53,
          "midi": 68,
          "name": "G#4",
          "ticks": 27601,
          "time": 143.75520833333334,
          "velocity": 0.41732283464566927
        },
        {
          "duration": 0.2760416666666572,
          "durationTicks": 53,
          "midi": 53,
          "name": "F3",
          "ticks": 27601,
          "time": 143.75520833333334,
          "velocity": 0.4330708661417323
        },
        {
          "duration": 0.08854166666665719,
          "durationTicks": 17,
          "midi": 53,
          "name": "F3",
          "ticks": 27670,
          "time": 144.11458333333334,
          "velocity": 0.5590551181102362
        },
        {
          "duration": 0.28125,
          "durationTicks": 54,
          "midi": 60,
          "name": "C4",
          "ticks": 27701,
          "time": 144.27604166666666,
          "velocity": 0.4330708661417323
        },
        {
          "duration": 0.28125,
          "durationTicks": 54,
          "midi": 56,
          "name": "G#3",
          "ticks": 27701,
          "time": 144.27604166666666,
          "velocity": 0.41732283464566927
        },
        {
          "duration": 0.10416666666668561,
          "durationTicks": 20,
          "midi": 53,
          "name": "F3",
          "ticks": 27770,
          "time": 144.63541666666666,
          "velocity": 0.5826771653543307
        },
        {
          "duration": 0.296875,
          "durationTicks": 57,
          "midi": 56,
          "name": "G#3",
          "ticks": 27801,
          "time": 144.796875,
          "velocity": 0.41732283464566927
        },
        {
          "duration": 0.296875,
          "durationTicks": 57,
          "midi": 60,
          "name": "C4",
          "ticks": 27801,
          "time": 144.796875,
          "velocity": 0.5039370078740157
        },
        {
          "duration": 0.2864583333333428,
          "durationTicks": 55,
          "midi": 41,
          "name": "F2",
          "ticks": 27870,
          "time": 145.15625,
          "velocity": 0.5354330708661418
        },
        {
          "duration": 0.2864583333333428,
          "durationTicks": 55,
          "midi": 53,
          "name": "F3",
          "ticks": 27870,
          "time": 145.15625,
          "velocity": 0.4881889763779528
        },
        {
          "duration": 0.08333333333334281,
          "durationTicks": 16,
          "midi": 53,
          "name": "F3",
          "ticks": 27939,
          "time": 145.515625,
          "velocity": 0.5590551181102362
        },
        {
          "duration": 0.2708333333333144,
          "durationTicks": 52,
          "midi": 56,
          "name": "G#3",
          "ticks": 27970,
          "time": 145.67708333333334,
          "velocity": 0.4094488188976378
        },
        {
          "duration": 0.2708333333333144,
          "durationTicks": 52,
          "midi": 60,
          "name": "C4",
          "ticks": 27970,
          "time": 145.67708333333334,
          "velocity": 0.5039370078740157
        },
        {
          "duration": 0.09375,
          "durationTicks": 18,
          "midi": 65,
          "name": "F4",
          "ticks": 28039,
          "time": 146.03645833333334,
          "velocity": 0.6220472440944882
        },
        {
          "duration": 0.09375,
          "durationTicks": 18,
          "midi": 77,
          "name": "F5",
          "ticks": 28039,
          "time": 146.03645833333334,
          "velocity": 0.6220472440944882
        },
        {
          "duration": 0.09375,
          "durationTicks": 18,
          "midi": 53,
          "name": "F3",
          "ticks": 28039,
          "time": 146.03645833333334,
          "velocity": 0.5118110236220472
        },
        {
          "duration": 0.28125,
          "durationTicks": 54,
          "midi": 56,
          "name": "G#3",
          "ticks": 28070,
          "time": 146.19791666666666,
          "velocity": 0.4330708661417323
        },
        {
          "duration": 0.28125,
          "durationTicks": 54,
          "midi": 79,
          "name": "G5",
          "ticks": 28070,
          "time": 146.19791666666666,
          "velocity": 0.5196850393700787
        },
        {
          "duration": 0.28125,
          "durationTicks": 54,
          "midi": 60,
          "name": "C4",
          "ticks": 28070,
          "time": 146.19791666666666,
          "velocity": 0.4566929133858268
        },
        {
          "duration": 0.28125,
          "durationTicks": 54,
          "midi": 72,
          "name": "C5",
          "ticks": 28070,
          "time": 146.19791666666666,
          "velocity": 0.41732283464566927
        },
        {
          "duration": 0.2760416666666856,
          "durationTicks": 53,
          "midi": 48,
          "name": "C3",
          "ticks": 28139,
          "time": 146.55729166666666,
          "velocity": 0.4881889763779528
        },
        {
          "duration": 0.2760416666666856,
          "durationTicks": 53,
          "midi": 72,
          "name": "C5",
          "ticks": 28139,
          "time": 146.55729166666666,
          "velocity": 0.3779527559055118
        },
        {
          "duration": 0.2760416666666856,
          "durationTicks": 53,
          "midi": 77,
          "name": "F5",
          "ticks": 28139,
          "time": 146.55729166666666,
          "velocity": 0.5984251968503937
        },
        {
          "duration": 0.2760416666666856,
          "durationTicks": 53,
          "midi": 36,
          "name": "C2",
          "ticks": 28139,
          "time": 146.55729166666666,
          "velocity": 0.3700787401574803
        },
        {
          "duration": 0.08333333333334281,
          "durationTicks": 16,
          "midi": 55,
          "name": "G3",
          "ticks": 28208,
          "time": 146.91666666666666,
          "velocity": 0.5039370078740157
        },
        {
          "duration": 0.08333333333334281,
          "durationTicks": 16,
          "midi": 72,
          "name": "C5",
          "ticks": 28208,
          "time": 146.91666666666666,
          "velocity": 0.5511811023622047
        },
        {
          "duration": 0.08333333333334281,
          "durationTicks": 16,
          "midi": 67,
          "name": "G4",
          "ticks": 28208,
          "time": 146.91666666666666,
          "velocity": 0.44881889763779526
        },
        {
          "duration": 0.08333333333334281,
          "durationTicks": 16,
          "midi": 75,
          "name": "D#5",
          "ticks": 28208,
          "time": 146.91666666666666,
          "velocity": 0.48031496062992124
        },
        {
          "duration": 0.2708333333333428,
          "durationTicks": 52,
          "midi": 75,
          "name": "D#5",
          "ticks": 28239,
          "time": 147.078125,
          "velocity": 0.5275590551181102
        },
        {
          "duration": 0.2708333333333428,
          "durationTicks": 52,
          "midi": 72,
          "name": "C5",
          "ticks": 28239,
          "time": 147.078125,
          "velocity": 0.5039370078740157
        },
        {
          "duration": 0.2708333333333428,
          "durationTicks": 52,
          "midi": 55,
          "name": "G3",
          "ticks": 28239,
          "time": 147.078125,
          "velocity": 0.44881889763779526
        },
        {
          "duration": 0.2708333333333428,
          "durationTicks": 52,
          "midi": 60,
          "name": "C4",
          "ticks": 28239,
          "time": 147.078125,
          "velocity": 0.5118110236220472
        },
        {
          "duration": 0.2708333333333428,
          "durationTicks": 52,
          "midi": 67,
          "name": "G4",
          "ticks": 28239,
          "time": 147.078125,
          "velocity": 0.3858267716535433
        },
        {
          "duration": 0.2708333333333428,
          "durationTicks": 52,
          "midi": 63,
          "name": "D#4",
          "ticks": 28239,
          "time": 147.078125,
          "velocity": 0.5039370078740157
        },
        {
          "duration": 0.09375,
          "durationTicks": 18,
          "midi": 72,
          "name": "C5",
          "ticks": 28308,
          "time": 147.4375,
          "velocity": 0.5511811023622047
        },
        {
          "duration": 0.09375,
          "durationTicks": 18,
          "midi": 67,
          "name": "G4",
          "ticks": 28308,
          "time": 147.4375,
          "velocity": 0.4094488188976378
        },
        {
          "duration": 0.09375,
          "durationTicks": 18,
          "midi": 55,
          "name": "G3",
          "ticks": 28308,
          "time": 147.4375,
          "velocity": 0.4094488188976378
        },
        {
          "duration": 0.109375,
          "durationTicks": 21,
          "midi": 60,
          "name": "C4",
          "ticks": 28339,
          "time": 147.59895833333334,
          "velocity": 0.4251968503937008
        },
        {
          "duration": 0.109375,
          "durationTicks": 21,
          "midi": 63,
          "name": "D#4",
          "ticks": 28339,
          "time": 147.59895833333334,
          "velocity": 0.5039370078740157
        },
        {
          "duration": 0.09375,
          "durationTicks": 18,
          "midi": 75,
          "name": "D#5",
          "ticks": 28377,
          "time": 147.796875,
          "velocity": 0.5118110236220472
        },
        {
          "duration": 0.09375,
          "durationTicks": 18,
          "midi": 67,
          "name": "G4",
          "ticks": 28377,
          "time": 147.796875,
          "velocity": 0.3543307086614173
        },
        {
          "duration": 0.09375,
          "durationTicks": 18,
          "midi": 72,
          "name": "C5",
          "ticks": 28377,
          "time": 147.796875,
          "velocity": 0.47244094488188976
        },
        {
          "duration": 0.10416666666665719,
          "durationTicks": 20,
          "midi": 48,
          "name": "C3",
          "ticks": 28408,
          "time": 147.95833333333334,
          "velocity": 0.5039370078740157
        },
        {
          "duration": 0.10416666666665719,
          "durationTicks": 20,
          "midi": 36,
          "name": "C2",
          "ticks": 28408,
          "time": 147.95833333333334,
          "velocity": 0.3937007874015748
        },
        {
          "duration": 0.11458333333331439,
          "durationTicks": 22,
          "midi": 67,
          "name": "G4",
          "ticks": 28438,
          "time": 148.11458333333334,
          "velocity": 0.36220472440944884
        },
        {
          "duration": 0.11458333333331439,
          "durationTicks": 22,
          "midi": 72,
          "name": "C5",
          "ticks": 28438,
          "time": 148.11458333333334,
          "velocity": 0.47244094488188976
        },
        {
          "duration": 0.078125,
          "durationTicks": 15,
          "midi": 55,
          "name": "G3",
          "ticks": 28477,
          "time": 148.31770833333334,
          "velocity": 0.4330708661417323
        },
        {
          "duration": 0.2760416666666856,
          "durationTicks": 53,
          "midi": 60,
          "name": "C4",
          "ticks": 28508,
          "time": 148.47916666666666,
          "velocity": 0.41732283464566927
        },
        {
          "duration": 0.2760416666666856,
          "durationTicks": 53,
          "midi": 63,
          "name": "D#4",
          "ticks": 28508,
          "time": 148.47916666666666,
          "velocity": 0.4094488188976378
        },
        {
          "duration": 0.09895833333334281,
          "durationTicks": 19,
          "midi": 72,
          "name": "C5",
          "ticks": 28577,
          "time": 148.83854166666666,
          "velocity": 0.5118110236220472
        },
        {
          "duration": 0.09895833333334281,
          "durationTicks": 19,
          "midi": 75,
          "name": "D#5",
          "ticks": 28577,
          "time": 148.83854166666666,
          "velocity": 0.41732283464566927
        },
        {
          "duration": 0.09895833333334281,
          "durationTicks": 19,
          "midi": 67,
          "name": "G4",
          "ticks": 28577,
          "time": 148.83854166666666,
          "velocity": 0.4566929133858268
        },
        {
          "duration": 0.28125,
          "durationTicks": 54,
          "midi": 63,
          "name": "D#4",
          "ticks": 28608,
          "time": 149,
          "velocity": 0.4251968503937008
        },
        {
          "duration": 0.28125,
          "durationTicks": 54,
          "midi": 60,
          "name": "C4",
          "ticks": 28608,
          "time": 149,
          "velocity": 0.3858267716535433
        },
        {
          "duration": 0.09895833333334281,
          "durationTicks": 19,
          "midi": 75,
          "name": "D#5",
          "ticks": 28677,
          "time": 149.359375,
          "velocity": 0.3858267716535433
        },
        {
          "duration": 0.09895833333334281,
          "durationTicks": 19,
          "midi": 39,
          "name": "D#2",
          "ticks": 28677,
          "time": 149.359375,
          "velocity": 0.4330708661417323
        },
        {
          "duration": 0.0625,
          "durationTicks": 12,
          "midi": 70,
          "name": "A#4",
          "ticks": 28677,
          "time": 149.359375,
          "velocity": 0.4251968503937008
        },
        {
          "duration": 0.09895833333334281,
          "durationTicks": 19,
          "midi": 51,
          "name": "D#3",
          "ticks": 28677,
          "time": 149.359375,
          "velocity": 0.47244094488188976
        },
        {
          "duration": 0.09895833333334281,
          "durationTicks": 19,
          "midi": 63,
          "name": "D#4",
          "ticks": 28677,
          "time": 149.359375,
          "velocity": 0.36220472440944884
        },
        {
          "duration": 0.10416666666665719,
          "durationTicks": 20,
          "midi": 70,
          "name": "A#4",
          "ticks": 28707,
          "time": 149.515625,
          "velocity": 0.3464566929133858
        },
        {
          "duration": 0.11458333333334281,
          "durationTicks": 22,
          "midi": 79,
          "name": "G5",
          "ticks": 28707,
          "time": 149.515625,
          "velocity": 0.44881889763779526
        },
        {
          "duration": 0.09375,
          "durationTicks": 18,
          "midi": 51,
          "name": "D#3",
          "ticks": 28745,
          "time": 149.71354166666666,
          "velocity": 0.3858267716535433
        },
        {
          "duration": 0.28125,
          "durationTicks": 54,
          "midi": 77,
          "name": "F5",
          "ticks": 28777,
          "time": 149.88020833333334,
          "velocity": 0.5275590551181102
        },
        {
          "duration": 0.28125,
          "durationTicks": 54,
          "midi": 58,
          "name": "A#3",
          "ticks": 28777,
          "time": 149.88020833333334,
          "velocity": 0.44881889763779526
        },
        {
          "duration": 0.28125,
          "durationTicks": 54,
          "midi": 55,
          "name": "G3",
          "ticks": 28777,
          "time": 149.88020833333334,
          "velocity": 0.31496062992125984
        },
        {
          "duration": 0.10416666666665719,
          "durationTicks": 20,
          "midi": 75,
          "name": "D#5",
          "ticks": 28845,
          "time": 150.234375,
          "velocity": 0.4409448818897638
        },
        {
          "duration": 0.10416666666665719,
          "durationTicks": 20,
          "midi": 70,
          "name": "A#4",
          "ticks": 28845,
          "time": 150.234375,
          "velocity": 0.3700787401574803
        },
        {
          "duration": 0.2864583333333428,
          "durationTicks": 55,
          "midi": 55,
          "name": "G3",
          "ticks": 28877,
          "time": 150.40104166666666,
          "velocity": 0.3779527559055118
        },
        {
          "duration": 0.2864583333333428,
          "durationTicks": 55,
          "midi": 58,
          "name": "A#3",
          "ticks": 28877,
          "time": 150.40104166666666,
          "velocity": 0.3937007874015748
        },
        {
          "duration": 0.109375,
          "durationTicks": 21,
          "midi": 39,
          "name": "D#2",
          "ticks": 28945,
          "time": 150.75520833333334,
          "velocity": 0.4330708661417323
        },
        {
          "duration": 0.109375,
          "durationTicks": 21,
          "midi": 51,
          "name": "D#3",
          "ticks": 28945,
          "time": 150.75520833333334,
          "velocity": 0.4094488188976378
        },
        {
          "duration": 0.06770833333331439,
          "durationTicks": 13,
          "midi": 75,
          "name": "D#5",
          "ticks": 28945,
          "time": 150.75520833333334,
          "velocity": 0.4409448818897638
        },
        {
          "duration": 0.109375,
          "durationTicks": 21,
          "midi": 63,
          "name": "D#4",
          "ticks": 28945,
          "time": 150.75520833333334,
          "velocity": 0.3700787401574803
        },
        {
          "duration": 0.109375,
          "durationTicks": 21,
          "midi": 82,
          "name": "A#5",
          "ticks": 28945,
          "time": 150.75520833333334,
          "velocity": 0.4645669291338583
        },
        {
          "duration": 0.05729166666665719,
          "durationTicks": 11,
          "midi": 70,
          "name": "A#4",
          "ticks": 28945,
          "time": 150.75520833333334,
          "velocity": 0.4251968503937008
        },
        {
          "duration": 0.078125,
          "durationTicks": 15,
          "midi": 70,
          "name": "A#4",
          "ticks": 28976,
          "time": 150.91666666666666,
          "velocity": 0.31496062992125984
        },
        {
          "duration": 0.125,
          "durationTicks": 24,
          "midi": 79,
          "name": "G5",
          "ticks": 28976,
          "time": 150.91666666666666,
          "velocity": 0.5039370078740157
        },
        {
          "duration": 0.078125,
          "durationTicks": 15,
          "midi": 75,
          "name": "D#5",
          "ticks": 28976,
          "time": 150.91666666666666,
          "velocity": 0.3858267716535433
        },
        {
          "duration": 0.09375,
          "durationTicks": 18,
          "midi": 51,
          "name": "D#3",
          "ticks": 29014,
          "time": 151.11458333333334,
          "velocity": 0.4094488188976378
        },
        {
          "duration": 0.2864583333333428,
          "durationTicks": 55,
          "midi": 77,
          "name": "F5",
          "ticks": 29045,
          "time": 151.27604166666666,
          "velocity": 0.5590551181102362
        },
        {
          "duration": 0.2864583333333428,
          "durationTicks": 55,
          "midi": 58,
          "name": "A#3",
          "ticks": 29045,
          "time": 151.27604166666666,
          "velocity": 0.4645669291338583
        },
        {
          "duration": 0.2864583333333428,
          "durationTicks": 55,
          "midi": 55,
          "name": "G3",
          "ticks": 29045,
          "time": 151.27604166666666,
          "velocity": 0.3228346456692913
        },
        {
          "duration": 0.10416666666668561,
          "durationTicks": 20,
          "midi": 70,
          "name": "A#4",
          "ticks": 29114,
          "time": 151.63541666666666,
          "velocity": 0.3700787401574803
        },
        {
          "duration": 0.10416666666668561,
          "durationTicks": 20,
          "midi": 75,
          "name": "D#5",
          "ticks": 29114,
          "time": 151.63541666666666,
          "velocity": 0.4881889763779528
        },
        {
          "duration": 0.11979166666665719,
          "durationTicks": 23,
          "midi": 55,
          "name": "G3",
          "ticks": 29145,
          "time": 151.796875,
          "velocity": 0.3779527559055118
        },
        {
          "duration": 0.078125,
          "durationTicks": 15,
          "midi": 58,
          "name": "A#3",
          "ticks": 29153,
          "time": 151.83854166666666,
          "velocity": 0.4330708661417323
        },
        {
          "duration": 0.09895833333334281,
          "durationTicks": 19,
          "midi": 74,
          "name": "D5",
          "ticks": 29184,
          "time": 152,
          "velocity": 0.3228346456692913
        },
        {
          "duration": 0.09895833333334281,
          "durationTicks": 19,
          "midi": 70,
          "name": "A#4",
          "ticks": 29184,
          "time": 152,
          "velocity": 0.30708661417322836
        },
        {
          "duration": 0.09895833333334281,
          "durationTicks": 19,
          "midi": 77,
          "name": "F5",
          "ticks": 29184,
          "time": 152,
          "velocity": 0.5039370078740157
        },
        {
          "duration": 0.28125,
          "durationTicks": 54,
          "midi": 46,
          "name": "A#2",
          "ticks": 29214,
          "time": 152.15625,
          "velocity": 0.5196850393700787
        },
        {
          "duration": 0.28125,
          "durationTicks": 54,
          "midi": 34,
          "name": "A#1",
          "ticks": 29214,
          "time": 152.15625,
          "velocity": 0.41732283464566927
        },
        {
          "duration": 0.09895833333334281,
          "durationTicks": 19,
          "midi": 77,
          "name": "F5",
          "ticks": 29283,
          "time": 152.515625,
          "velocity": 0.4330708661417323
        },
        {
          "duration": 0.09895833333334281,
          "durationTicks": 19,
          "midi": 70,
          "name": "A#4",
          "ticks": 29283,
          "time": 152.515625,
          "velocity": 0.41732283464566927
        },
        {
          "duration": 0.09895833333334281,
          "durationTicks": 19,
          "midi": 74,
          "name": "D5",
          "ticks": 29283,
          "time": 152.515625,
          "velocity": 0.4566929133858268
        },
        {
          "duration": 0.09895833333334281,
          "durationTicks": 19,
          "midi": 53,
          "name": "F3",
          "ticks": 29283,
          "time": 152.515625,
          "velocity": 0.4409448818897638
        },
        {
          "duration": 0.2916666666666572,
          "durationTicks": 56,
          "midi": 62,
          "name": "D4",
          "ticks": 29314,
          "time": 152.67708333333334,
          "velocity": 0.48031496062992124
        },
        {
          "duration": 0.2916666666666572,
          "durationTicks": 56,
          "midi": 58,
          "name": "A#3",
          "ticks": 29314,
          "time": 152.67708333333334,
          "velocity": 0.36220472440944884
        },
        {
          "duration": 0.11458333333331439,
          "durationTicks": 22,
          "midi": 53,
          "name": "F3",
          "ticks": 29383,
          "time": 153.03645833333334,
          "velocity": 0.4645669291338583
        },
        {
          "duration": 0.2708333333333428,
          "durationTicks": 52,
          "midi": 58,
          "name": "A#3",
          "ticks": 29421,
          "time": 153.234375,
          "velocity": 0.47244094488188976
        },
        {
          "duration": 0.2708333333333428,
          "durationTicks": 52,
          "midi": 62,
          "name": "D4",
          "ticks": 29421,
          "time": 153.234375,
          "velocity": 0.4015748031496063
        },
        {
          "duration": 0.296875,
          "durationTicks": 57,
          "midi": 46,
          "name": "A#2",
          "ticks": 29483,
          "time": 153.55729166666666,
          "velocity": 0.5433070866141733
        },
        {
          "duration": 0.109375,
          "durationTicks": 21,
          "midi": 53,
          "name": "F3",
          "ticks": 29552,
          "time": 153.91666666666666,
          "velocity": 0.4015748031496063
        },
        {
          "duration": 0.265625,
          "durationTicks": 51,
          "midi": 58,
          "name": "A#3",
          "ticks": 29590,
          "time": 154.11458333333334,
          "velocity": 0.4015748031496063
        },
        {
          "duration": 0.265625,
          "durationTicks": 51,
          "midi": 62,
          "name": "D4",
          "ticks": 29590,
          "time": 154.11458333333334,
          "velocity": 0.4251968503937008
        },
        {
          "duration": 0.11458333333334281,
          "durationTicks": 22,
          "midi": 53,
          "name": "F3",
          "ticks": 29652,
          "time": 154.4375,
          "velocity": 0.4881889763779528
        },
        {
          "duration": 0.265625,
          "durationTicks": 51,
          "midi": 58,
          "name": "A#3",
          "ticks": 29690,
          "time": 154.63541666666666,
          "velocity": 0.49606299212598426
        },
        {
          "duration": 0.265625,
          "durationTicks": 51,
          "midi": 62,
          "name": "D4",
          "ticks": 29690,
          "time": 154.63541666666666,
          "velocity": 0.47244094488188976
        },
        {
          "duration": 0.609375,
          "durationTicks": 117,
          "midi": 72,
          "name": "C5",
          "ticks": 29752,
          "time": 154.95833333333334,
          "velocity": 0.4015748031496063
        },
        {
          "duration": 1.8697916666666572,
          "durationTicks": 359,
          "midi": 53,
          "name": "F3",
          "ticks": 29752,
          "time": 154.95833333333334,
          "velocity": 0.41732283464566927
        },
        {
          "duration": 1.8697916666666572,
          "durationTicks": 359,
          "midi": 41,
          "name": "F2",
          "ticks": 29752,
          "time": 154.95833333333334,
          "velocity": 0.41732283464566927
        },
        {
          "duration": 0.609375,
          "durationTicks": 117,
          "midi": 77,
          "name": "F5",
          "ticks": 29752,
          "time": 154.95833333333334,
          "velocity": 0.5196850393700787
        },
        {
          "duration": 0.609375,
          "durationTicks": 117,
          "midi": 68,
          "name": "G#4",
          "ticks": 29752,
          "time": 154.95833333333334,
          "velocity": 0.41732283464566927
        },
        {
          "duration": 0.4270833333333144,
          "durationTicks": 82,
          "midi": 68,
          "name": "G#4",
          "ticks": 29890,
          "time": 155.67708333333334,
          "velocity": 0.36220472440944884
        },
        {
          "duration": 0.4270833333333144,
          "durationTicks": 82,
          "midi": 77,
          "name": "F5",
          "ticks": 29890,
          "time": 155.67708333333334,
          "velocity": 0.5196850393700787
        },
        {
          "duration": 0.4270833333333144,
          "durationTicks": 82,
          "midi": 72,
          "name": "C5",
          "ticks": 29890,
          "time": 155.67708333333334,
          "velocity": 0.4409448818897638
        },
        {
          "duration": 0.057291666666685614,
          "durationTicks": 11,
          "midi": 72,
          "name": "C5",
          "ticks": 29990,
          "time": 156.19791666666666,
          "velocity": 0.3700787401574803
        },
        {
          "duration": 0.10416666666668561,
          "durationTicks": 20,
          "midi": 75,
          "name": "D#5",
          "ticks": 29990,
          "time": 156.19791666666666,
          "velocity": 0.3937007874015748
        },
        {
          "duration": 0.057291666666685614,
          "durationTicks": 11,
          "midi": 68,
          "name": "G#4",
          "ticks": 29990,
          "time": 156.19791666666666,
          "velocity": 0.3858267716535433
        },
        {
          "duration": 0.08333333333334281,
          "durationTicks": 16,
          "midi": 68,
          "name": "G#4",
          "ticks": 30021,
          "time": 156.359375,
          "velocity": 0.3779527559055118
        },
        {
          "duration": 0.10416666666665719,
          "durationTicks": 20,
          "midi": 77,
          "name": "F5",
          "ticks": 30021,
          "time": 156.359375,
          "velocity": 0.5118110236220472
        },
        {
          "duration": 0.08333333333334281,
          "durationTicks": 16,
          "midi": 72,
          "name": "C5",
          "ticks": 30021,
          "time": 156.359375,
          "velocity": 0.4330708661417323
        },
        {
          "duration": 0.234375,
          "durationTicks": 45,
          "midi": 72,
          "name": "C5",
          "ticks": 30059,
          "time": 156.55729166666666,
          "velocity": 0.5275590551181102
        },
        {
          "duration": 0.3229166666666856,
          "durationTicks": 62,
          "midi": 79,
          "name": "G5",
          "ticks": 30059,
          "time": 156.55729166666666,
          "velocity": 0.48031496062992124
        },
        {
          "duration": 0.234375,
          "durationTicks": 45,
          "midi": 68,
          "name": "G#4",
          "ticks": 30059,
          "time": 156.55729166666666,
          "velocity": 0.33858267716535434
        },
        {
          "duration": 0.1458333333333428,
          "durationTicks": 28,
          "midi": 72,
          "name": "C5",
          "ticks": 30128,
          "time": 156.91666666666666,
          "velocity": 0.47244094488188976
        },
        {
          "duration": 0.1458333333333428,
          "durationTicks": 28,
          "midi": 68,
          "name": "G#4",
          "ticks": 30128,
          "time": 156.91666666666666,
          "velocity": 0.33858267716535434
        },
        {
          "duration": 0.46875,
          "durationTicks": 90,
          "midi": 75,
          "name": "D#5",
          "ticks": 30189,
          "time": 157.234375,
          "velocity": 0.4409448818897638
        },
        {
          "duration": 0.46875,
          "durationTicks": 90,
          "midi": 72,
          "name": "C5",
          "ticks": 30189,
          "time": 157.234375,
          "velocity": 0.4645669291338583
        },
        {
          "duration": 0.46875,
          "durationTicks": 90,
          "midi": 68,
          "name": "G#4",
          "ticks": 30189,
          "time": 157.234375,
          "velocity": 0.3858267716535433
        },
        {
          "duration": 0.5052083333333428,
          "durationTicks": 97,
          "midi": 72,
          "name": "C5",
          "ticks": 30297,
          "time": 157.796875,
          "velocity": 0.41732283464566927
        },
        {
          "duration": 0.5052083333333428,
          "durationTicks": 97,
          "midi": 77,
          "name": "F5",
          "ticks": 30297,
          "time": 157.796875,
          "velocity": 0.5669291338582677
        },
        {
          "duration": 2.026041666666657,
          "durationTicks": 389,
          "midi": 60,
          "name": "C4",
          "ticks": 30297,
          "time": 157.796875,
          "velocity": 0.4881889763779528
        },
        {
          "duration": 0.5052083333333428,
          "durationTicks": 97,
          "midi": 67,
          "name": "G4",
          "ticks": 30297,
          "time": 157.796875,
          "velocity": 0.28346456692913385
        },
        {
          "duration": 2.026041666666657,
          "durationTicks": 389,
          "midi": 36,
          "name": "C2",
          "ticks": 30297,
          "time": 157.796875,
          "velocity": 0.36220472440944884
        },
        {
          "duration": 2.026041666666657,
          "durationTicks": 389,
          "midi": 48,
          "name": "C3",
          "ticks": 30297,
          "time": 157.796875,
          "velocity": 0.41732283464566927
        },
        {
          "duration": 0.3020833333333428,
          "durationTicks": 58,
          "midi": 72,
          "name": "C5",
          "ticks": 30428,
          "time": 158.47916666666666,
          "velocity": 0.4409448818897638
        },
        {
          "duration": 0.3020833333333428,
          "durationTicks": 58,
          "midi": 67,
          "name": "G4",
          "ticks": 30428,
          "time": 158.47916666666666,
          "velocity": 0.3464566929133858
        },
        {
          "duration": 0.3020833333333428,
          "durationTicks": 58,
          "midi": 77,
          "name": "F5",
          "ticks": 30428,
          "time": 158.47916666666666,
          "velocity": 0.48031496062992124
        },
        {
          "duration": 0.109375,
          "durationTicks": 21,
          "midi": 75,
          "name": "D#5",
          "ticks": 30528,
          "time": 159,
          "velocity": 0.4566929133858268
        },
        {
          "duration": 0.109375,
          "durationTicks": 21,
          "midi": 67,
          "name": "G4",
          "ticks": 30528,
          "time": 159,
          "velocity": 0.30708661417322836
        },
        {
          "duration": 0.109375,
          "durationTicks": 21,
          "midi": 72,
          "name": "C5",
          "ticks": 30528,
          "time": 159,
          "velocity": 0.3937007874015748
        },
        {
          "duration": 0.08854166666668561,
          "durationTicks": 17,
          "midi": 72,
          "name": "C5",
          "ticks": 30566,
          "time": 159.19791666666666,
          "velocity": 0.4015748031496063
        },
        {
          "duration": 0.08854166666668561,
          "durationTicks": 17,
          "midi": 67,
          "name": "G4",
          "ticks": 30566,
          "time": 159.19791666666666,
          "velocity": 0.3228346456692913
        },
        {
          "duration": 0.08854166666668561,
          "durationTicks": 17,
          "midi": 77,
          "name": "F5",
          "ticks": 30566,
          "time": 159.19791666666666,
          "velocity": 0.5275590551181102
        },
        {
          "duration": 0.2760416666666572,
          "durationTicks": 53,
          "midi": 79,
          "name": "G5",
          "ticks": 30597,
          "time": 159.359375,
          "velocity": 0.44881889763779526
        },
        {
          "duration": 0.2552083333333428,
          "durationTicks": 49,
          "midi": 72,
          "name": "C5",
          "ticks": 30597,
          "time": 159.359375,
          "velocity": 0.49606299212598426
        },
        {
          "duration": 0.2552083333333428,
          "durationTicks": 49,
          "midi": 67,
          "name": "G4",
          "ticks": 30597,
          "time": 159.359375,
          "velocity": 0.5748031496062992
        },
        {
          "duration": 0.25,
          "durationTicks": 48,
          "midi": 67,
          "name": "G4",
          "ticks": 30665,
          "time": 159.71354166666666,
          "velocity": 0.33858267716535434
        },
        {
          "duration": 0.25,
          "durationTicks": 48,
          "midi": 72,
          "name": "C5",
          "ticks": 30665,
          "time": 159.71354166666666,
          "velocity": 0.5511811023622047
        },
        {
          "duration": 0.4635416666666572,
          "durationTicks": 89,
          "midi": 75,
          "name": "D#5",
          "ticks": 30735,
          "time": 160.078125,
          "velocity": 0.44881889763779526
        },
        {
          "duration": 0.4427083333333428,
          "durationTicks": 85,
          "midi": 72,
          "name": "C5",
          "ticks": 30735,
          "time": 160.078125,
          "velocity": 0.5275590551181102
        },
        {
          "duration": 0.4427083333333428,
          "durationTicks": 85,
          "midi": 67,
          "name": "G4",
          "ticks": 30735,
          "time": 160.078125,
          "velocity": 0.3228346456692913
        },
        {
          "duration": 2.229166666666657,
          "durationTicks": 428,
          "midi": 63,
          "name": "D#4",
          "ticks": 30835,
          "time": 160.59895833333334,
          "velocity": 0.5039370078740157
        },
        {
          "duration": 0.11979166666665719,
          "durationTicks": 23,
          "midi": 70,
          "name": "A#4",
          "ticks": 30835,
          "time": 160.59895833333334,
          "velocity": 0.4409448818897638
        },
        {
          "duration": 2.229166666666657,
          "durationTicks": 428,
          "midi": 51,
          "name": "D#3",
          "ticks": 30835,
          "time": 160.59895833333334,
          "velocity": 0.4881889763779528
        },
        {
          "duration": 2.229166666666657,
          "durationTicks": 428,
          "midi": 39,
          "name": "D#2",
          "ticks": 30835,
          "time": 160.59895833333334,
          "velocity": 0.41732283464566927
        },
        {
          "duration": 0.11979166666665719,
          "durationTicks": 23,
          "midi": 75,
          "name": "D#5",
          "ticks": 30835,
          "time": 160.59895833333334,
          "velocity": 0.4330708661417323
        },
        {
          "duration": 0.3177083333333144,
          "durationTicks": 61,
          "midi": 79,
          "name": "G5",
          "ticks": 30865,
          "time": 160.75520833333334,
          "velocity": 0.48031496062992124
        },
        {
          "duration": 0.3072916666666572,
          "durationTicks": 59,
          "midi": 70,
          "name": "A#4",
          "ticks": 30934,
          "time": 161.11458333333334,
          "velocity": 0.4566929133858268
        },
        {
          "duration": 0.3072916666666572,
          "durationTicks": 59,
          "midi": 77,
          "name": "F5",
          "ticks": 30934,
          "time": 161.11458333333334,
          "velocity": 0.5039370078740157
        },
        {
          "duration": 0.4635416666666856,
          "durationTicks": 89,
          "midi": 70,
          "name": "A#4",
          "ticks": 31004,
          "time": 161.47916666666666,
          "velocity": 0.41732283464566927
        },
        {
          "duration": 0.4635416666666856,
          "durationTicks": 89,
          "midi": 75,
          "name": "D#5",
          "ticks": 31004,
          "time": 161.47916666666666,
          "velocity": 0.44881889763779526
        },
        {
          "duration": 0.10416666666665719,
          "durationTicks": 20,
          "midi": 75,
          "name": "D#5",
          "ticks": 31104,
          "time": 162,
          "velocity": 0.41732283464566927
        },
        {
          "duration": 0.11979166666665719,
          "durationTicks": 23,
          "midi": 82,
          "name": "A#5",
          "ticks": 31104,
          "time": 162,
          "velocity": 0.49606299212598426
        },
        {
          "duration": 0.10416666666665719,
          "durationTicks": 20,
          "midi": 70,
          "name": "A#4",
          "ticks": 31104,
          "time": 162,
          "velocity": 0.4330708661417323
        },
        {
          "duration": 0.3125,
          "durationTicks": 60,
          "midi": 75,
          "name": "D#5",
          "ticks": 31134,
          "time": 162.15625,
          "velocity": 0.5039370078740157
        },
        {
          "duration": 0.3125,
          "durationTicks": 60,
          "midi": 70,
          "name": "A#4",
          "ticks": 31134,
          "time": 162.15625,
          "velocity": 0.3228346456692913
        },
        {
          "duration": 0.3125,
          "durationTicks": 60,
          "midi": 79,
          "name": "G5",
          "ticks": 31134,
          "time": 162.15625,
          "velocity": 0.5039370078740157
        },
        {
          "duration": 0.3072916666666572,
          "durationTicks": 59,
          "midi": 70,
          "name": "A#4",
          "ticks": 31203,
          "time": 162.515625,
          "velocity": 0.3464566929133858
        },
        {
          "duration": 0.3072916666666572,
          "durationTicks": 59,
          "midi": 77,
          "name": "F5",
          "ticks": 31203,
          "time": 162.515625,
          "velocity": 0.5354330708661418
        },
        {
          "duration": 0.2916666666666572,
          "durationTicks": 56,
          "midi": 75,
          "name": "D#5",
          "ticks": 31273,
          "time": 162.88020833333334,
          "velocity": 0.48031496062992124
        },
        {
          "duration": 0.2916666666666572,
          "durationTicks": 56,
          "midi": 70,
          "name": "A#4",
          "ticks": 31273,
          "time": 162.88020833333334,
          "velocity": 0.3464566929133858
        },
        {
          "duration": 0.09375,
          "durationTicks": 18,
          "midi": 77,
          "name": "F5",
          "ticks": 31341,
          "time": 163.234375,
          "velocity": 0.5748031496062992
        },
        {
          "duration": 0.09375,
          "durationTicks": 18,
          "midi": 74,
          "name": "D5",
          "ticks": 31341,
          "time": 163.234375,
          "velocity": 0.5275590551181102
        },
        {
          "duration": 0.09375,
          "durationTicks": 18,
          "midi": 70,
          "name": "A#4",
          "ticks": 31341,
          "time": 163.234375,
          "velocity": 0.3543307086614173
        },
        {
          "duration": 1.296875,
          "durationTicks": 249,
          "midi": 34,
          "name": "A#1",
          "ticks": 31373,
          "time": 163.40104166666666,
          "velocity": 0.4409448818897638
        },
        {
          "duration": 1.2916666666666856,
          "durationTicks": 248,
          "midi": 46,
          "name": "A#2",
          "ticks": 31373,
          "time": 163.40104166666666,
          "velocity": 0.4409448818897638
        },
        {
          "duration": 0.140625,
          "durationTicks": 27,
          "midi": 34,
          "name": "A#1",
          "ticks": 31641,
          "time": 164.796875,
          "velocity": 0.4881889763779528
        },
        {
          "duration": 0.1354166666666572,
          "durationTicks": 26,
          "midi": 46,
          "name": "A#2",
          "ticks": 31641,
          "time": 164.796875,
          "velocity": 0.4881889763779528
        },
        {
          "duration": 0.109375,
          "durationTicks": 21,
          "midi": 46,
          "name": "A#2",
          "ticks": 31680,
          "time": 165,
          "velocity": 0.4251968503937008
        },
        {
          "duration": 0.109375,
          "durationTicks": 21,
          "midi": 53,
          "name": "F3",
          "ticks": 31680,
          "time": 165,
          "velocity": 0.3937007874015748
        },
        {
          "duration": 0.11458333333334281,
          "durationTicks": 22,
          "midi": 34,
          "name": "A#1",
          "ticks": 31680,
          "time": 165,
          "velocity": 0.4251968503937008
        },
        {
          "duration": 0.09895833333334281,
          "durationTicks": 19,
          "midi": 46,
          "name": "A#2",
          "ticks": 31710,
          "time": 165.15625,
          "velocity": 0.41732283464566927
        },
        {
          "duration": 0.09375,
          "durationTicks": 18,
          "midi": 34,
          "name": "A#1",
          "ticks": 31710,
          "time": 165.15625,
          "velocity": 0.4094488188976378
        },
        {
          "duration": 0.140625,
          "durationTicks": 27,
          "midi": 53,
          "name": "F3",
          "ticks": 31741,
          "time": 165.31770833333334,
          "velocity": 0.3228346456692913
        },
        {
          "duration": 0.08333333333331439,
          "durationTicks": 16,
          "midi": 34,
          "name": "A#1",
          "ticks": 31741,
          "time": 165.31770833333334,
          "velocity": 0.36220472440944884
        },
        {
          "duration": 0.10416666666665719,
          "durationTicks": 20,
          "midi": 46,
          "name": "A#2",
          "ticks": 31741,
          "time": 165.31770833333334,
          "velocity": 0.41732283464566927
        },
        {
          "duration": 0.11458333333334281,
          "durationTicks": 22,
          "midi": 46,
          "name": "A#2",
          "ticks": 31779,
          "time": 165.515625,
          "velocity": 0.41732283464566927
        },
        {
          "duration": 0.11458333333334281,
          "durationTicks": 22,
          "midi": 53,
          "name": "F3",
          "ticks": 31779,
          "time": 165.515625,
          "velocity": 0.3700787401574803
        },
        {
          "duration": 0.11979166666665719,
          "durationTicks": 23,
          "midi": 34,
          "name": "A#1",
          "ticks": 31779,
          "time": 165.515625,
          "velocity": 0.4015748031496063
        },
        {
          "duration": 0.08333333333331439,
          "durationTicks": 16,
          "midi": 53,
          "name": "F3",
          "ticks": 31810,
          "time": 165.67708333333334,
          "velocity": 0.3779527559055118
        },
        {
          "duration": 0.09895833333331439,
          "durationTicks": 19,
          "midi": 34,
          "name": "A#1",
          "ticks": 31810,
          "time": 165.67708333333334,
          "velocity": 0.4645669291338583
        },
        {
          "duration": 0.08333333333331439,
          "durationTicks": 16,
          "midi": 46,
          "name": "A#2",
          "ticks": 31810,
          "time": 165.67708333333334,
          "velocity": 0.4645669291338583
        },
        {
          "duration": 0.08854166666668561,
          "durationTicks": 17,
          "midi": 34,
          "name": "A#1",
          "ticks": 31841,
          "time": 165.83854166666666,
          "velocity": 0.5275590551181102
        },
        {
          "duration": 0.09375,
          "durationTicks": 18,
          "midi": 46,
          "name": "A#2",
          "ticks": 31841,
          "time": 165.83854166666666,
          "velocity": 0.5275590551181102
        },
        {
          "duration": 0.09375,
          "durationTicks": 18,
          "midi": 53,
          "name": "F3",
          "ticks": 31841,
          "time": 165.83854166666666,
          "velocity": 0.3779527559055118
        },
        {
          "duration": 0.11979166666665719,
          "durationTicks": 23,
          "midi": 46,
          "name": "A#2",
          "ticks": 31879,
          "time": 166.03645833333334,
          "velocity": 0.5511811023622047
        },
        {
          "duration": 0.125,
          "durationTicks": 24,
          "midi": 34,
          "name": "A#1",
          "ticks": 31879,
          "time": 166.03645833333334,
          "velocity": 0.5511811023622047
        },
        {
          "duration": 0.09895833333331439,
          "durationTicks": 19,
          "midi": 53,
          "name": "F3",
          "ticks": 31879,
          "time": 166.03645833333334,
          "velocity": 0.3779527559055118
        },
        {
          "duration": 0.234375,
          "durationTicks": 45,
          "midi": 53,
          "name": "F3",
          "ticks": 31910,
          "time": 166.19791666666666,
          "velocity": 0.4330708661417323
        },
        {
          "duration": 0.296875,
          "durationTicks": 57,
          "midi": 41,
          "name": "F2",
          "ticks": 31910,
          "time": 166.19791666666666,
          "velocity": 0.5196850393700787
        },
        {
          "duration": 0.296875,
          "durationTicks": 57,
          "midi": 77,
          "name": "F5",
          "ticks": 31910,
          "time": 166.19791666666666,
          "velocity": 0.5826771653543307
        },
        {
          "duration": 0.296875,
          "durationTicks": 57,
          "midi": 72,
          "name": "C5",
          "ticks": 31910,
          "time": 166.19791666666666,
          "velocity": 0.4330708661417323
        },
        {
          "duration": 0.296875,
          "durationTicks": 57,
          "midi": 68,
          "name": "G#4",
          "ticks": 31910,
          "time": 166.19791666666666,
          "velocity": 0.31496062992125984
        },
        {
          "duration": 0.11458333333334281,
          "durationTicks": 22,
          "midi": 53,
          "name": "F3",
          "ticks": 31979,
          "time": 166.55729166666666,
          "velocity": 0.47244094488188976
        },
        {
          "duration": 0.13541666666668561,
          "durationTicks": 26,
          "midi": 60,
          "name": "C4",
          "ticks": 32009,
          "time": 166.71354166666666,
          "velocity": 0.4409448818897638
        },
        {
          "duration": 0.13541666666668561,
          "durationTicks": 26,
          "midi": 56,
          "name": "G#3",
          "ticks": 32009,
          "time": 166.71354166666666,
          "velocity": 0.3543307086614173
        },
        {
          "duration": 0.1927083333333428,
          "durationTicks": 37,
          "midi": 77,
          "name": "F5",
          "ticks": 32048,
          "time": 166.91666666666666,
          "velocity": 0.5511811023622047
        },
        {
          "duration": 0.1927083333333428,
          "durationTicks": 37,
          "midi": 72,
          "name": "C5",
          "ticks": 32048,
          "time": 166.91666666666666,
          "velocity": 0.4094488188976378
        },
        {
          "duration": 0.1927083333333428,
          "durationTicks": 37,
          "midi": 68,
          "name": "G#4",
          "ticks": 32048,
          "time": 166.91666666666666,
          "velocity": 0.36220472440944884
        },
        {
          "duration": 0.11979166666665719,
          "durationTicks": 23,
          "midi": 65,
          "name": "F4",
          "ticks": 32079,
          "time": 167.078125,
          "velocity": 0.5275590551181102
        },
        {
          "duration": 0.07291666666665719,
          "durationTicks": 14,
          "midi": 53,
          "name": "F3",
          "ticks": 32079,
          "time": 167.078125,
          "velocity": 0.49606299212598426
        },
        {
          "duration": 0.1354166666666572,
          "durationTicks": 26,
          "midi": 56,
          "name": "G#3",
          "ticks": 32109,
          "time": 167.234375,
          "velocity": 0.3858267716535433
        },
        {
          "duration": 0.1354166666666572,
          "durationTicks": 26,
          "midi": 60,
          "name": "C4",
          "ticks": 32109,
          "time": 167.234375,
          "velocity": 0.4251968503937008
        },
        {
          "duration": 0.109375,
          "durationTicks": 21,
          "midi": 53,
          "name": "F3",
          "ticks": 32109,
          "time": 167.234375,
          "velocity": 0.47244094488188976
        },
        {
          "duration": 0.1354166666666572,
          "durationTicks": 26,
          "midi": 72,
          "name": "C5",
          "ticks": 32109,
          "time": 167.234375,
          "velocity": 0.4251968503937008
        },
        {
          "duration": 0.08854166666665719,
          "durationTicks": 17,
          "midi": 68,
          "name": "G#4",
          "ticks": 32148,
          "time": 167.4375,
          "velocity": 0.2992125984251969
        },
        {
          "duration": 0.08854166666665719,
          "durationTicks": 17,
          "midi": 72,
          "name": "C5",
          "ticks": 32148,
          "time": 167.4375,
          "velocity": 0.3543307086614173
        },
        {
          "duration": 0.109375,
          "durationTicks": 21,
          "midi": 75,
          "name": "D#5",
          "ticks": 32148,
          "time": 167.4375,
          "velocity": 0.47244094488188976
        },
        {
          "duration": 0.125,
          "durationTicks": 24,
          "midi": 65,
          "name": "F4",
          "ticks": 32179,
          "time": 167.59895833333334,
          "velocity": 0.5039370078740157
        },
        {
          "duration": 0.125,
          "durationTicks": 24,
          "midi": 41,
          "name": "F2",
          "ticks": 32179,
          "time": 167.59895833333334,
          "velocity": 0.5275590551181102
        },
        {
          "duration": 0.125,
          "durationTicks": 24,
          "midi": 77,
          "name": "F5",
          "ticks": 32179,
          "time": 167.59895833333334,
          "velocity": 0.5590551181102362
        },
        {
          "duration": 0.125,
          "durationTicks": 24,
          "midi": 53,
          "name": "F3",
          "ticks": 32179,
          "time": 167.59895833333334,
          "velocity": 0.4094488188976378
        },
        {
          "duration": 0.10416666666665719,
          "durationTicks": 20,
          "midi": 72,
          "name": "C5",
          "ticks": 32179,
          "time": 167.59895833333334,
          "velocity": 0.33858267716535434
        },
        {
          "duration": 0.10416666666665719,
          "durationTicks": 20,
          "midi": 68,
          "name": "G#4",
          "ticks": 32179,
          "time": 167.59895833333334,
          "velocity": 0.3858267716535433
        },
        {
          "duration": 0.078125,
          "durationTicks": 15,
          "midi": 68,
          "name": "G#4",
          "ticks": 32217,
          "time": 167.796875,
          "velocity": 0.2992125984251969
        },
        {
          "duration": 0.09895833333334281,
          "durationTicks": 19,
          "midi": 79,
          "name": "G5",
          "ticks": 32217,
          "time": 167.796875,
          "velocity": 0.4409448818897638
        },
        {
          "duration": 0.078125,
          "durationTicks": 15,
          "midi": 72,
          "name": "C5",
          "ticks": 32217,
          "time": 167.796875,
          "velocity": 0.3700787401574803
        },
        {
          "duration": 0.10416666666665719,
          "durationTicks": 20,
          "midi": 53,
          "name": "F3",
          "ticks": 32248,
          "time": 167.95833333333334,
          "velocity": 0.5039370078740157
        },
        {
          "duration": 0.3072916666666572,
          "durationTicks": 59,
          "midi": 56,
          "name": "G#3",
          "ticks": 32278,
          "time": 168.11458333333334,
          "velocity": 0.3464566929133858
        },
        {
          "duration": 0.2864583333333144,
          "durationTicks": 55,
          "midi": 72,
          "name": "C5",
          "ticks": 32278,
          "time": 168.11458333333334,
          "velocity": 0.44881889763779526
        },
        {
          "duration": 0.3072916666666572,
          "durationTicks": 59,
          "midi": 60,
          "name": "C4",
          "ticks": 32278,
          "time": 168.11458333333334,
          "velocity": 0.4566929133858268
        },
        {
          "duration": 0.2864583333333144,
          "durationTicks": 55,
          "midi": 68,
          "name": "G#4",
          "ticks": 32278,
          "time": 168.11458333333334,
          "velocity": 0.3700787401574803
        },
        {
          "duration": 0.125,
          "durationTicks": 24,
          "midi": 53,
          "name": "F3",
          "ticks": 32348,
          "time": 168.47916666666666,
          "velocity": 0.4094488188976378
        },
        {
          "duration": 0.125,
          "durationTicks": 24,
          "midi": 68,
          "name": "G#4",
          "ticks": 32348,
          "time": 168.47916666666666,
          "velocity": 0.3543307086614173
        },
        {
          "duration": 0.125,
          "durationTicks": 24,
          "midi": 75,
          "name": "D#5",
          "ticks": 32348,
          "time": 168.47916666666666,
          "velocity": 0.4566929133858268
        },
        {
          "duration": 0.2708333333333144,
          "durationTicks": 52,
          "midi": 56,
          "name": "G#3",
          "ticks": 32386,
          "time": 168.67708333333334,
          "velocity": 0.3700787401574803
        },
        {
          "duration": 0.2708333333333144,
          "durationTicks": 52,
          "midi": 60,
          "name": "C4",
          "ticks": 32386,
          "time": 168.67708333333334,
          "velocity": 0.3937007874015748
        },
        {
          "duration": 0.23958333333331439,
          "durationTicks": 46,
          "midi": 72,
          "name": "C5",
          "ticks": 32386,
          "time": 168.67708333333334,
          "velocity": 0.3700787401574803
        },
        {
          "duration": 0.3072916666666572,
          "durationTicks": 59,
          "midi": 48,
          "name": "C3",
          "ticks": 32448,
          "time": 169,
          "velocity": 0.4094488188976378
        },
        {
          "duration": 0.3072916666666572,
          "durationTicks": 59,
          "midi": 77,
          "name": "F5",
          "ticks": 32448,
          "time": 169,
          "velocity": 0.48031496062992124
        },
        {
          "duration": 0.2760416666666572,
          "durationTicks": 53,
          "midi": 72,
          "name": "C5",
          "ticks": 32448,
          "time": 169,
          "velocity": 0.3228346456692913
        },
        {
          "duration": 0.3072916666666572,
          "durationTicks": 59,
          "midi": 67,
          "name": "G4",
          "ticks": 32448,
          "time": 169,
          "velocity": 0.25196850393700787
        },
        {
          "duration": 0.3072916666666572,
          "durationTicks": 59,
          "midi": 36,
          "name": "C2",
          "ticks": 32448,
          "time": 169,
          "velocity": 0.3543307086614173
        },
        {
          "duration": 0.11458333333334281,
          "durationTicks": 22,
          "midi": 55,
          "name": "G3",
          "ticks": 32517,
          "time": 169.359375,
          "velocity": 0.41732283464566927
        },
        {
          "duration": 0.1302083333333428,
          "durationTicks": 25,
          "midi": 63,
          "name": "D#4",
          "ticks": 32547,
          "time": 169.515625,
          "velocity": 0.4330708661417323
        },
        {
          "duration": 0.08854166666668561,
          "durationTicks": 17,
          "midi": 60,
          "name": "C4",
          "ticks": 32555,
          "time": 169.55729166666666,
          "velocity": 0.4251968503937008
        },
        {
          "duration": 0.11458333333334281,
          "durationTicks": 22,
          "midi": 72,
          "name": "C5",
          "ticks": 32585,
          "time": 169.71354166666666,
          "velocity": 0.4251968503937008
        },
        {
          "duration": 0.11458333333334281,
          "durationTicks": 22,
          "midi": 67,
          "name": "G4",
          "ticks": 32585,
          "time": 169.71354166666666,
          "velocity": 0.3779527559055118
        },
        {
          "duration": 0.11458333333334281,
          "durationTicks": 22,
          "midi": 77,
          "name": "F5",
          "ticks": 32585,
          "time": 169.71354166666666,
          "velocity": 0.5039370078740157
        },
        {
          "duration": 0.125,
          "durationTicks": 24,
          "midi": 55,
          "name": "G3",
          "ticks": 32617,
          "time": 169.88020833333334,
          "velocity": 0.2992125984251969
        },
        {
          "duration": 0.10416666666665719,
          "durationTicks": 20,
          "midi": 63,
          "name": "D#4",
          "ticks": 32655,
          "time": 170.078125,
          "velocity": 0.47244094488188976
        },
        {
          "duration": 0.10416666666665719,
          "durationTicks": 20,
          "midi": 60,
          "name": "C4",
          "ticks": 32655,
          "time": 170.078125,
          "velocity": 0.4094488188976378
        },
        {
          "duration": 0.11979166666665719,
          "durationTicks": 23,
          "midi": 67,
          "name": "G4",
          "ticks": 32685,
          "time": 170.234375,
          "velocity": 0.31496062992125984
        },
        {
          "duration": 0.11979166666665719,
          "durationTicks": 23,
          "midi": 72,
          "name": "C5",
          "ticks": 32685,
          "time": 170.234375,
          "velocity": 0.3937007874015748
        },
        {
          "duration": 0.11979166666665719,
          "durationTicks": 23,
          "midi": 75,
          "name": "D#5",
          "ticks": 32685,
          "time": 170.234375,
          "velocity": 0.4330708661417323
        },
        {
          "duration": 0.125,
          "durationTicks": 24,
          "midi": 77,
          "name": "F5",
          "ticks": 32717,
          "time": 170.40104166666666,
          "velocity": 0.48031496062992124
        },
        {
          "duration": 0.125,
          "durationTicks": 24,
          "midi": 48,
          "name": "C3",
          "ticks": 32717,
          "time": 170.40104166666666,
          "velocity": 0.4094488188976378
        },
        {
          "duration": 0.125,
          "durationTicks": 24,
          "midi": 36,
          "name": "C2",
          "ticks": 32717,
          "time": 170.40104166666666,
          "velocity": 0.3858267716535433
        },
        {
          "duration": 0.09895833333331439,
          "durationTicks": 19,
          "midi": 67,
          "name": "G4",
          "ticks": 32755,
          "time": 170.59895833333334,
          "velocity": 0.4330708661417323
        },
        {
          "duration": 0.09895833333331439,
          "durationTicks": 19,
          "midi": 79,
          "name": "G5",
          "ticks": 32755,
          "time": 170.59895833333334,
          "velocity": 0.5118110236220472
        },
        {
          "duration": 0.09895833333331439,
          "durationTicks": 19,
          "midi": 72,
          "name": "C5",
          "ticks": 32755,
          "time": 170.59895833333334,
          "velocity": 0.4566929133858268
        },
        {
          "duration": 0.109375,
          "durationTicks": 21,
          "midi": 55,
          "name": "G3",
          "ticks": 32785,
          "time": 170.75520833333334,
          "velocity": 0.4330708661417323
        },
        {
          "duration": 0.20833333333331439,
          "durationTicks": 40,
          "midi": 72,
          "name": "C5",
          "ticks": 32824,
          "time": 170.95833333333334,
          "velocity": 0.5433070866141733
        },
        {
          "duration": 0.265625,
          "durationTicks": 51,
          "midi": 60,
          "name": "C4",
          "ticks": 32824,
          "time": 170.95833333333334,
          "velocity": 0.4409448818897638
        },
        {
          "duration": 0.25,
          "durationTicks": 48,
          "midi": 67,
          "name": "G4",
          "ticks": 32824,
          "time": 170.95833333333334,
          "velocity": 0.3858267716535433
        },
        {
          "duration": 0.265625,
          "durationTicks": 51,
          "midi": 63,
          "name": "D#4",
          "ticks": 32824,
          "time": 170.95833333333334,
          "velocity": 0.4015748031496063
        },
        {
          "duration": 0.1302083333333428,
          "durationTicks": 25,
          "midi": 75,
          "name": "D#5",
          "ticks": 32885,
          "time": 171.27604166666666,
          "velocity": 0.4645669291338583
        },
        {
          "duration": 0.11458333333334281,
          "durationTicks": 22,
          "midi": 67,
          "name": "G4",
          "ticks": 32885,
          "time": 171.27604166666666,
          "velocity": 0.33858267716535434
        },
        {
          "duration": 0.1302083333333428,
          "durationTicks": 25,
          "midi": 55,
          "name": "G3",
          "ticks": 32885,
          "time": 171.27604166666666,
          "velocity": 0.41732283464566927
        },
        {
          "duration": 0.11458333333334281,
          "durationTicks": 22,
          "midi": 72,
          "name": "C5",
          "ticks": 32885,
          "time": 171.27604166666666,
          "velocity": 0.4566929133858268
        },
        {
          "duration": 0.2760416666666856,
          "durationTicks": 53,
          "midi": 60,
          "name": "C4",
          "ticks": 32924,
          "time": 171.47916666666666,
          "velocity": 0.33070866141732286
        },
        {
          "duration": 0.22916666666668561,
          "durationTicks": 44,
          "midi": 63,
          "name": "D#4",
          "ticks": 32924,
          "time": 171.47916666666666,
          "velocity": 0.4330708661417323
        },
        {
          "duration": 0.2760416666666856,
          "durationTicks": 53,
          "midi": 72,
          "name": "C5",
          "ticks": 32924,
          "time": 171.47916666666666,
          "velocity": 0.3700787401574803
        },
        {
          "duration": 0.1354166666666572,
          "durationTicks": 26,
          "midi": 82,
          "name": "A#5",
          "ticks": 32985,
          "time": 171.796875,
          "velocity": 0.41732283464566927
        },
        {
          "duration": 0.1354166666666572,
          "durationTicks": 26,
          "midi": 70,
          "name": "A#4",
          "ticks": 32985,
          "time": 171.796875,
          "velocity": 0.41732283464566927
        },
        {
          "duration": 0.1354166666666572,
          "durationTicks": 26,
          "midi": 75,
          "name": "D#5",
          "ticks": 32985,
          "time": 171.796875,
          "velocity": 0.41732283464566927
        },
        {
          "duration": 0.1354166666666572,
          "durationTicks": 26,
          "midi": 51,
          "name": "D#3",
          "ticks": 32985,
          "time": 171.796875,
          "velocity": 0.4645669291338583
        },
        {
          "duration": 0.1354166666666572,
          "durationTicks": 26,
          "midi": 39,
          "name": "D#2",
          "ticks": 32985,
          "time": 171.796875,
          "velocity": 0.41732283464566927
        },
        {
          "duration": 0.10416666666665719,
          "durationTicks": 20,
          "midi": 75,
          "name": "D#5",
          "ticks": 33024,
          "time": 172,
          "velocity": 0.33070866141732286
        },
        {
          "duration": 0.10416666666665719,
          "durationTicks": 20,
          "midi": 79,
          "name": "G5",
          "ticks": 33024,
          "time": 172,
          "velocity": 0.4409448818897638
        },
        {
          "duration": 0.10416666666665719,
          "durationTicks": 20,
          "midi": 70,
          "name": "A#4",
          "ticks": 33024,
          "time": 172,
          "velocity": 0.3543307086614173
        },
        {
          "duration": 0.125,
          "durationTicks": 24,
          "midi": 51,
          "name": "D#3",
          "ticks": 33054,
          "time": 172.15625,
          "velocity": 0.4094488188976378
        },
        {
          "duration": 0.2760416666666572,
          "durationTicks": 53,
          "midi": 77,
          "name": "F5",
          "ticks": 33093,
          "time": 172.359375,
          "velocity": 0.5039370078740157
        },
        {
          "duration": 0.21875,
          "durationTicks": 42,
          "midi": 70,
          "name": "A#4",
          "ticks": 33093,
          "time": 172.359375,
          "velocity": 0.3858267716535433
        },
        {
          "duration": 0.2760416666666572,
          "durationTicks": 53,
          "midi": 58,
          "name": "A#3",
          "ticks": 33093,
          "time": 172.359375,
          "velocity": 0.41732283464566927
        },
        {
          "duration": 0.2760416666666572,
          "durationTicks": 53,
          "midi": 55,
          "name": "G3",
          "ticks": 33093,
          "time": 172.359375,
          "velocity": 0.2992125984251969
        },
        {
          "duration": 0.08333333333331439,
          "durationTicks": 16,
          "midi": 70,
          "name": "A#4",
          "ticks": 33154,
          "time": 172.67708333333334,
          "velocity": 0.3700787401574803
        },
        {
          "duration": 0.1354166666666572,
          "durationTicks": 26,
          "midi": 75,
          "name": "D#5",
          "ticks": 33154,
          "time": 172.67708333333334,
          "velocity": 0.4330708661417323
        },
        {
          "duration": 0.09895833333334281,
          "durationTicks": 19,
          "midi": 51,
          "name": "D#3",
          "ticks": 33161,
          "time": 172.71354166666666,
          "velocity": 0.29133858267716534
        },
        {
          "duration": 0.2760416666666572,
          "durationTicks": 53,
          "midi": 55,
          "name": "G3",
          "ticks": 33193,
          "time": 172.88020833333334,
          "velocity": 0.3858267716535433
        },
        {
          "duration": 0.2760416666666572,
          "durationTicks": 53,
          "midi": 58,
          "name": "A#3",
          "ticks": 33193,
          "time": 172.88020833333334,
          "velocity": 0.47244094488188976
        },
        {
          "duration": 0.1302083333333428,
          "durationTicks": 25,
          "midi": 82,
          "name": "A#5",
          "ticks": 33254,
          "time": 173.19791666666666,
          "velocity": 0.4015748031496063
        },
        {
          "duration": 0.1302083333333428,
          "durationTicks": 25,
          "midi": 70,
          "name": "A#4",
          "ticks": 33254,
          "time": 173.19791666666666,
          "velocity": 0.5118110236220472
        },
        {
          "duration": 0.1302083333333428,
          "durationTicks": 25,
          "midi": 51,
          "name": "D#3",
          "ticks": 33254,
          "time": 173.19791666666666,
          "velocity": 0.3543307086614173
        },
        {
          "duration": 0.09375,
          "durationTicks": 18,
          "midi": 39,
          "name": "D#2",
          "ticks": 33261,
          "time": 173.234375,
          "velocity": 0.3543307086614173
        },
        {
          "duration": 0.09375,
          "durationTicks": 18,
          "midi": 75,
          "name": "D#5",
          "ticks": 33261,
          "time": 173.234375,
          "velocity": 0.3937007874015748
        },
        {
          "duration": 0.10416666666668561,
          "durationTicks": 20,
          "midi": 75,
          "name": "D#5",
          "ticks": 33293,
          "time": 173.40104166666666,
          "velocity": 0.4251968503937008
        },
        {
          "duration": 0.10416666666668561,
          "durationTicks": 20,
          "midi": 79,
          "name": "G5",
          "ticks": 33293,
          "time": 173.40104166666666,
          "velocity": 0.4566929133858268
        },
        {
          "duration": 0.10416666666668561,
          "durationTicks": 20,
          "midi": 70,
          "name": "A#4",
          "ticks": 33293,
          "time": 173.40104166666666,
          "velocity": 0.4015748031496063
        },
        {
          "duration": 0.125,
          "durationTicks": 24,
          "midi": 51,
          "name": "D#3",
          "ticks": 33323,
          "time": 173.55729166666666,
          "velocity": 0.4094488188976378
        },
        {
          "duration": 0.28125,
          "durationTicks": 54,
          "midi": 55,
          "name": "G3",
          "ticks": 33361,
          "time": 173.75520833333334,
          "velocity": 0.33070866141732286
        },
        {
          "duration": 0.22395833333331439,
          "durationTicks": 43,
          "midi": 70,
          "name": "A#4",
          "ticks": 33361,
          "time": 173.75520833333334,
          "velocity": 0.41732283464566927
        },
        {
          "duration": 0.28125,
          "durationTicks": 54,
          "midi": 58,
          "name": "A#3",
          "ticks": 33361,
          "time": 173.75520833333334,
          "velocity": 0.4330708661417323
        },
        {
          "duration": 0.28125,
          "durationTicks": 54,
          "midi": 77,
          "name": "F5",
          "ticks": 33361,
          "time": 173.75520833333334,
          "velocity": 0.5196850393700787
        },
        {
          "duration": 0.1354166666666572,
          "durationTicks": 26,
          "midi": 51,
          "name": "D#3",
          "ticks": 33423,
          "time": 174.078125,
          "velocity": 0.3464566929133858
        },
        {
          "duration": 0.08333333333334281,
          "durationTicks": 16,
          "midi": 70,
          "name": "A#4",
          "ticks": 33423,
          "time": 174.078125,
          "velocity": 0.4094488188976378
        },
        {
          "duration": 0.1354166666666572,
          "durationTicks": 26,
          "midi": 75,
          "name": "D#5",
          "ticks": 33423,
          "time": 174.078125,
          "velocity": 0.41732283464566927
        },
        {
          "duration": 0.11458333333334281,
          "durationTicks": 22,
          "midi": 58,
          "name": "A#3",
          "ticks": 33461,
          "time": 174.27604166666666,
          "velocity": 0.44881889763779526
        },
        {
          "duration": 0.11458333333334281,
          "durationTicks": 22,
          "midi": 55,
          "name": "G3",
          "ticks": 33461,
          "time": 174.27604166666666,
          "velocity": 0.4015748031496063
        },
        {
          "duration": 0.125,
          "durationTicks": 24,
          "midi": 77,
          "name": "F5",
          "ticks": 33492,
          "time": 174.4375,
          "velocity": 0.5118110236220472
        },
        {
          "duration": 0.125,
          "durationTicks": 24,
          "midi": 74,
          "name": "D5",
          "ticks": 33492,
          "time": 174.4375,
          "velocity": 0.4015748031496063
        },
        {
          "duration": 0.125,
          "durationTicks": 24,
          "midi": 70,
          "name": "A#4",
          "ticks": 33492,
          "time": 174.4375,
          "velocity": 0.3464566929133858
        },
        {
          "duration": 0.2760416666666856,
          "durationTicks": 53,
          "midi": 34,
          "name": "A#1",
          "ticks": 33530,
          "time": 174.63541666666666,
          "velocity": 0.44881889763779526
        },
        {
          "duration": 0.2760416666666856,
          "durationTicks": 53,
          "midi": 46,
          "name": "A#2",
          "ticks": 33530,
          "time": 174.63541666666666,
          "velocity": 0.4881889763779528
        },
        {
          "duration": 0.078125,
          "durationTicks": 15,
          "midi": 53,
          "name": "F3",
          "ticks": 33592,
          "time": 174.95833333333334,
          "velocity": 0.3937007874015748
        },
        {
          "duration": 0.2291666666666572,
          "durationTicks": 44,
          "midi": 62,
          "name": "D4",
          "ticks": 33630,
          "time": 175.15625,
          "velocity": 0.4566929133858268
        },
        {
          "duration": 0.2291666666666572,
          "durationTicks": 44,
          "midi": 58,
          "name": "A#3",
          "ticks": 33630,
          "time": 175.15625,
          "velocity": 0.44881889763779526
        },
        {
          "duration": 0.046875,
          "durationTicks": 9,
          "midi": 53,
          "name": "F3",
          "ticks": 33699,
          "time": 175.515625,
          "velocity": 0.4566929133858268
        },
        {
          "duration": 0.2447916666666572,
          "durationTicks": 47,
          "midi": 58,
          "name": "A#3",
          "ticks": 33730,
          "time": 175.67708333333334,
          "velocity": 0.47244094488188976
        },
        {
          "duration": 0.2447916666666572,
          "durationTicks": 47,
          "midi": 62,
          "name": "D4",
          "ticks": 33730,
          "time": 175.67708333333334,
          "velocity": 0.48031496062992124
        },
        {
          "duration": 0.23958333333331439,
          "durationTicks": 46,
          "midi": 46,
          "name": "A#2",
          "ticks": 33799,
          "time": 176.03645833333334,
          "velocity": 0.5039370078740157
        },
        {
          "duration": 0.03645833333334281,
          "durationTicks": 7,
          "midi": 53,
          "name": "F3",
          "ticks": 33869,
          "time": 176.40104166666666,
          "velocity": 0.3937007874015748
        },
        {
          "duration": 0.22916666666668561,
          "durationTicks": 44,
          "midi": 79,
          "name": "G5",
          "ticks": 33899,
          "time": 176.55729166666666,
          "velocity": 0.5433070866141733
        },
        {
          "duration": 0.22916666666668561,
          "durationTicks": 44,
          "midi": 58,
          "name": "A#3",
          "ticks": 33899,
          "time": 176.55729166666666,
          "velocity": 0.4015748031496063
        },
        {
          "duration": 0.22916666666668561,
          "durationTicks": 44,
          "midi": 62,
          "name": "D4",
          "ticks": 33899,
          "time": 176.55729166666666,
          "velocity": 0.4409448818897638
        },
        {
          "duration": 0.057291666666685614,
          "durationTicks": 11,
          "midi": 75,
          "name": "D#5",
          "ticks": 33968,
          "time": 176.91666666666666,
          "velocity": 0.44881889763779526
        },
        {
          "duration": 0.057291666666685614,
          "durationTicks": 11,
          "midi": 53,
          "name": "F3",
          "ticks": 33968,
          "time": 176.91666666666666,
          "velocity": 0.47244094488188976
        },
        {
          "duration": 0.057291666666685614,
          "durationTicks": 11,
          "midi": 70,
          "name": "A#4",
          "ticks": 33968,
          "time": 176.91666666666666,
          "velocity": 0.28346456692913385
        },
        {
          "duration": 0.234375,
          "durationTicks": 45,
          "midi": 62,
          "name": "D4",
          "ticks": 33999,
          "time": 177.078125,
          "velocity": 0.49606299212598426
        },
        {
          "duration": 0.234375,
          "durationTicks": 45,
          "midi": 58,
          "name": "A#3",
          "ticks": 33999,
          "time": 177.078125,
          "velocity": 0.4566929133858268
        },
        {
          "duration": 0.234375,
          "durationTicks": 45,
          "midi": 74,
          "name": "D5",
          "ticks": 33999,
          "time": 177.078125,
          "velocity": 0.4015748031496063
        },
        {
          "duration": 1.5364583333333428,
          "durationTicks": 295,
          "midi": 72,
          "name": "C5",
          "ticks": 34068,
          "time": 177.4375,
          "velocity": 0.3700787401574803
        },
        {
          "duration": 1.5364583333333428,
          "durationTicks": 295,
          "midi": 68,
          "name": "G#4",
          "ticks": 34068,
          "time": 177.4375,
          "velocity": 0.3779527559055118
        },
        {
          "duration": 0.05729166666665719,
          "durationTicks": 11,
          "midi": 41,
          "name": "F2",
          "ticks": 34068,
          "time": 177.4375,
          "velocity": 0.41732283464566927
        },
        {
          "duration": 1.5364583333333428,
          "durationTicks": 295,
          "midi": 77,
          "name": "F5",
          "ticks": 34068,
          "time": 177.4375,
          "velocity": 0.5275590551181102
        },
        {
          "duration": 0.07291666666665719,
          "durationTicks": 14,
          "midi": 48,
          "name": "C3",
          "ticks": 34099,
          "time": 177.59895833333334,
          "velocity": 0.36220472440944884
        },
        {
          "duration": 0.078125,
          "durationTicks": 15,
          "midi": 53,
          "name": "F3",
          "ticks": 34137,
          "time": 177.796875,
          "velocity": 0.3543307086614173
        },
        {
          "duration": 0.734375,
          "durationTicks": 141,
          "midi": 56,
          "name": "G#3",
          "ticks": 34168,
          "time": 177.95833333333334,
          "velocity": 0.48031496062992124
        },
        {
          "duration": 0.057291666666685614,
          "durationTicks": 11,
          "midi": 41,
          "name": "F2",
          "ticks": 34337,
          "time": 178.83854166666666,
          "velocity": 0.4330708661417323
        },
        {
          "duration": 0.07291666666665719,
          "durationTicks": 14,
          "midi": 48,
          "name": "C3",
          "ticks": 34368,
          "time": 179,
          "velocity": 0.3543307086614173
        },
        {
          "duration": 0.057291666666685614,
          "durationTicks": 11,
          "midi": 53,
          "name": "F3",
          "ticks": 34406,
          "time": 179.19791666666666,
          "velocity": 0.41732283464566927
        },
        {
          "duration": 0.46875,
          "durationTicks": 90,
          "midi": 56,
          "name": "G#3",
          "ticks": 34437,
          "time": 179.359375,
          "velocity": 0.47244094488188976
        },
        {
          "duration": 0.057291666666685614,
          "durationTicks": 11,
          "midi": 77,
          "name": "F5",
          "ticks": 34505,
          "time": 179.71354166666666,
          "velocity": 0.5196850393700787
        },
        {
          "duration": 0.25,
          "durationTicks": 48,
          "midi": 79,
          "name": "G5",
          "ticks": 34537,
          "time": 179.88020833333334,
          "velocity": 0.4330708661417323
        },
        {
          "duration": 0.078125,
          "durationTicks": 15,
          "midi": 77,
          "name": "F5",
          "ticks": 34605,
          "time": 180.234375,
          "velocity": 0.5275590551181102
        },
        {
          "duration": 0.078125,
          "durationTicks": 15,
          "midi": 36,
          "name": "C2",
          "ticks": 34605,
          "time": 180.234375,
          "velocity": 0.4015748031496063
        },
        {
          "duration": 0.08333333333334281,
          "durationTicks": 16,
          "midi": 43,
          "name": "G2",
          "ticks": 34637,
          "time": 180.40104166666666,
          "velocity": 0.3937007874015748
        },
        {
          "duration": 0.052083333333314386,
          "durationTicks": 10,
          "midi": 48,
          "name": "C3",
          "ticks": 34675,
          "time": 180.59895833333334,
          "velocity": 0.48031496062992124
        },
        {
          "duration": 0.026041666666657193,
          "durationTicks": 5,
          "midi": 75,
          "name": "D#5",
          "ticks": 34675,
          "time": 180.59895833333334,
          "velocity": 0.4094488188976378
        },
        {
          "duration": 0.23958333333331439,
          "durationTicks": 46,
          "midi": 75,
          "name": "D#5",
          "ticks": 34705,
          "time": 180.75520833333334,
          "velocity": 0.3937007874015748
        },
        {
          "duration": 0.4322916666666572,
          "durationTicks": 83,
          "midi": 51,
          "name": "D#3",
          "ticks": 34705,
          "time": 180.75520833333334,
          "velocity": 0.3700787401574803
        },
        {
          "duration": 0.2291666666666572,
          "durationTicks": 44,
          "midi": 72,
          "name": "C5",
          "ticks": 34774,
          "time": 181.11458333333334,
          "velocity": 0.4330708661417323
        },
        {
          "duration": 0.046875,
          "durationTicks": 9,
          "midi": 75,
          "name": "D#5",
          "ticks": 34844,
          "time": 181.47916666666666,
          "velocity": 0.4015748031496063
        },
        {
          "duration": 0.06770833333334281,
          "durationTicks": 13,
          "midi": 36,
          "name": "C2",
          "ticks": 34874,
          "time": 181.63541666666666,
          "velocity": 0.47244094488188976
        },
        {
          "duration": 0.08333333333334281,
          "durationTicks": 16,
          "midi": 43,
          "name": "G2",
          "ticks": 34905,
          "time": 181.796875,
          "velocity": 0.3779527559055118
        },
        {
          "duration": 0.08333333333334281,
          "durationTicks": 16,
          "midi": 72,
          "name": "C5",
          "ticks": 34905,
          "time": 181.796875,
          "velocity": 0.4645669291338583
        },
        {
          "duration": 0.0625,
          "durationTicks": 12,
          "midi": 48,
          "name": "C3",
          "ticks": 34944,
          "time": 182,
          "velocity": 0.4881889763779528
        },
        {
          "duration": 0.4375,
          "durationTicks": 84,
          "midi": 51,
          "name": "D#3",
          "ticks": 34974,
          "time": 182.15625,
          "velocity": 0.41732283464566927
        },
        {
          "duration": 0.40625,
          "durationTicks": 78,
          "midi": 75,
          "name": "D#5",
          "ticks": 35043,
          "time": 182.515625,
          "velocity": 0.4015748031496063
        },
        {
          "duration": 0.09895833333331439,
          "durationTicks": 19,
          "midi": 82,
          "name": "A#5",
          "ticks": 35143,
          "time": 183.03645833333334,
          "velocity": 0.4881889763779528
        },
        {
          "duration": 0.09895833333331439,
          "durationTicks": 19,
          "midi": 39,
          "name": "D#2",
          "ticks": 35143,
          "time": 183.03645833333334,
          "velocity": 0.3779527559055118
        },
        {
          "duration": 0.109375,
          "durationTicks": 21,
          "midi": 46,
          "name": "A#2",
          "ticks": 35174,
          "time": 183.19791666666666,
          "velocity": 0.4330708661417323
        },
        {
          "duration": 0.07291666666665719,
          "durationTicks": 14,
          "midi": 79,
          "name": "G5",
          "ticks": 35181,
          "time": 183.234375,
          "velocity": 0.47244094488188976
        },
        {
          "duration": 0.08333333333334281,
          "durationTicks": 16,
          "midi": 51,
          "name": "D#3",
          "ticks": 35213,
          "time": 183.40104166666666,
          "velocity": 0.3858267716535433
        },
        {
          "duration": 0.46875,
          "durationTicks": 90,
          "midi": 55,
          "name": "G3",
          "ticks": 35243,
          "time": 183.55729166666666,
          "velocity": 0.36220472440944884
        },
        {
          "duration": 0.2760416666666856,
          "durationTicks": 53,
          "midi": 77,
          "name": "F5",
          "ticks": 35243,
          "time": 183.55729166666666,
          "velocity": 0.4645669291338583
        },
        {
          "duration": 0.4427083333333428,
          "durationTicks": 85,
          "midi": 75,
          "name": "D#5",
          "ticks": 35312,
          "time": 183.91666666666666,
          "velocity": 0.36220472440944884
        },
        {
          "duration": 0.09895833333334281,
          "durationTicks": 19,
          "midi": 39,
          "name": "D#2",
          "ticks": 35412,
          "time": 184.4375,
          "velocity": 0.3858267716535433
        },
        {
          "duration": 0.09895833333334281,
          "durationTicks": 19,
          "midi": 82,
          "name": "A#5",
          "ticks": 35412,
          "time": 184.4375,
          "velocity": 0.41732283464566927
        },
        {
          "duration": 0.078125,
          "durationTicks": 15,
          "midi": 79,
          "name": "G5",
          "ticks": 35450,
          "time": 184.63541666666666,
          "velocity": 0.48031496062992124
        },
        {
          "duration": 0.078125,
          "durationTicks": 15,
          "midi": 46,
          "name": "A#2",
          "ticks": 35450,
          "time": 184.63541666666666,
          "velocity": 0.44881889763779526
        },
        {
          "duration": 0.09375,
          "durationTicks": 18,
          "midi": 51,
          "name": "D#3",
          "ticks": 35481,
          "time": 184.796875,
          "velocity": 0.41732283464566927
        },
        {
          "duration": 0.2864583333333144,
          "durationTicks": 55,
          "midi": 77,
          "name": "F5",
          "ticks": 35512,
          "time": 184.95833333333334,
          "velocity": 0.5275590551181102
        },
        {
          "duration": 0.4791666666666572,
          "durationTicks": 92,
          "midi": 55,
          "name": "G3",
          "ticks": 35512,
          "time": 184.95833333333334,
          "velocity": 0.3543307086614173
        },
        {
          "duration": 0.2760416666666572,
          "durationTicks": 53,
          "midi": 75,
          "name": "D#5",
          "ticks": 35581,
          "time": 185.31770833333334,
          "velocity": 0.3937007874015748
        },
        {
          "duration": 0.08854166666665719,
          "durationTicks": 17,
          "midi": 77,
          "name": "F5",
          "ticks": 35650,
          "time": 185.67708333333334,
          "velocity": 0.4881889763779528
        },
        {
          "duration": 0.08854166666665719,
          "durationTicks": 17,
          "midi": 70,
          "name": "A#4",
          "ticks": 35650,
          "time": 185.67708333333334,
          "velocity": 0.36220472440944884
        },
        {
          "duration": 0.0625,
          "durationTicks": 12,
          "midi": 34,
          "name": "A#1",
          "ticks": 35689,
          "time": 185.88020833333334,
          "velocity": 0.4645669291338583
        },
        {
          "duration": 0.171875,
          "durationTicks": 33,
          "midi": 70,
          "name": "A#4",
          "ticks": 35719,
          "time": 186.03645833333334,
          "velocity": 0.29133858267716534
        },
        {
          "duration": 0.08854166666665719,
          "durationTicks": 17,
          "midi": 41,
          "name": "F2",
          "ticks": 35719,
          "time": 186.03645833333334,
          "velocity": 0.3937007874015748
        },
        {
          "duration": 0.171875,
          "durationTicks": 33,
          "midi": 77,
          "name": "F5",
          "ticks": 35719,
          "time": 186.03645833333334,
          "velocity": 0.4330708661417323
        },
        {
          "duration": 0.109375,
          "durationTicks": 21,
          "midi": 46,
          "name": "A#2",
          "ticks": 35750,
          "time": 186.19791666666666,
          "velocity": 0.5118110236220472
        },
        {
          "duration": 0.078125,
          "durationTicks": 15,
          "midi": 50,
          "name": "D3",
          "ticks": 35789,
          "time": 186.40104166666666,
          "velocity": 0.33070866141732286
        },
        {
          "duration": 0.09895833333334281,
          "durationTicks": 19,
          "midi": 53,
          "name": "F3",
          "ticks": 35819,
          "time": 186.55729166666666,
          "velocity": 0.33070866141732286
        },
        {
          "duration": 0.11458333333334281,
          "durationTicks": 22,
          "midi": 58,
          "name": "A#3",
          "ticks": 35849,
          "time": 186.71354166666666,
          "velocity": 0.4015748031496063
        },
        {
          "duration": 0.08854166666668561,
          "durationTicks": 17,
          "midi": 62,
          "name": "D4",
          "ticks": 35888,
          "time": 186.91666666666666,
          "velocity": 0.4015748031496063
        },
        {
          "duration": 0.10416666666665719,
          "durationTicks": 20,
          "midi": 65,
          "name": "F4",
          "ticks": 35919,
          "time": 187.078125,
          "velocity": 0.3937007874015748
        },
        {
          "duration": 0.6510416666666572,
          "durationTicks": 125,
          "midi": 74,
          "name": "D5",
          "ticks": 35949,
          "time": 187.234375,
          "velocity": 0.36220472440944884
        },
        {
          "duration": 0.6510416666666572,
          "durationTicks": 125,
          "midi": 70,
          "name": "A#4",
          "ticks": 35949,
          "time": 187.234375,
          "velocity": 0.3228346456692913
        },
        {
          "duration": 0.3125,
          "durationTicks": 60,
          "midi": 69,
          "name": "A4",
          "ticks": 38880,
          "time": 202.5,
          "velocity": 0.4409448818897638
        }
      ],
      "endOfTrackTicks": 39265
    }
  ]
}
