{
  "header": {
    "keySignatures": [],
    "meta": [],
    "name": "909 Drum Kit",
    "ppq": 384,
    "tempos": [
      {
        "bpm": 250,
        "ticks": 0
      }
    ],
    "timeSignatures": [
      {
        "ticks": 0,
        "timeSignature": [4, 4],
        "measures": 0
      }
    ]
  },
  "tracks": [
    {
      "channel": 9,
      "controlChanges": {},
      "pitchBends": [],
      "instrument": {
        "family": "drums",
        "number": 0,
        "name": "standard kit"
      },
      "name": "909 Drum Kit",
      "notes": [
        {
          "duration": 0.06,
          "durationTicks": 96,
          "midi": 35,
          "name": "B1",
          "ticks": 0,
          "time": 0,
          "velocity": 0.3937007874015748
        },
        {
          "duration": 0.06,
          "durationTicks": 96,
          "midi": 42,
          "name": "F#2",
          "ticks": 192,
          "time": 0.12,
          "velocity": 0.3937007874015748
        },
        {
          "duration": 0.06,
          "durationTicks": 96,
          "midi": 42,
          "name": "F#2",
          "ticks": 384,
          "time": 0.24,
          "velocity": 0.3937007874015748
        },
        {
          "duration": 0.06,
          "durationTicks": 96,
          "midi": 35,
          "name": "B1",
          "ticks": 576,
          "time": 0.36,
          "velocity": 0.3937007874015748
        },
        {
          "duration": 0.06000000000000005,
          "durationTicks": 96,
          "midi": 38,
          "name": "D2",
          "ticks": 768,
          "time": 0.48,
          "velocity": 0.3937007874015748
        },
        {
          "duration": 0.06000000000000005,
          "durationTicks": 96,
          "midi": 35,
          "name": "B1",
          "ticks": 1152,
          "time": 0.72,
          "velocity": 0.3937007874015748
        },
        {
          "duration": 0.06000000000000005,
          "durationTicks": 96,
          "midi": 42,
          "name": "F#2",
          "ticks": 1536,
          "time": 0.96,
          "velocity": 0.3937007874015748
        },
        {
          "duration": 0.05999999999999983,
          "durationTicks": 96,
          "midi": 42,
          "name": "F#2",
          "ticks": 1728,
          "time": 1.08,
          "velocity": 0.3937007874015748
        },
        {
          "duration": 0.06000000000000005,
          "durationTicks": 96,
          "midi": 35,
          "name": "B1",
          "ticks": 1920,
          "time": 1.2,
          "velocity": 0.3937007874015748
        },
        {
          "duration": 0.06000000000000005,
          "durationTicks": 96,
          "midi": 38,
          "name": "D2",
          "ticks": 2304,
          "time": 1.44,
          "velocity": 0.3937007874015748
        },
        {
          "duration": 0.05999999999999983,
          "durationTicks": 96,
          "midi": 35,
          "name": "B1",
          "ticks": 2496,
          "time": 1.56,
          "velocity": 0.3937007874015748
        },
        {
          "duration": 0.06000000000000005,
          "durationTicks": 96,
          "midi": 35,
          "name": "B1",
          "ticks": 3072,
          "time": 1.92,
          "velocity": 0.3937007874015748
        },
        {
          "duration": 0.06000000000000005,
          "durationTicks": 96,
          "midi": 42,
          "name": "F#2",
          "ticks": 3264,
          "time": 2.04,
          "velocity": 0.3937007874015748
        },
        {
          "duration": 0.05999999999999961,
          "durationTicks": 96,
          "midi": 42,
          "name": "F#2",
          "ticks": 3456,
          "time": 2.16,
          "velocity": 0.3937007874015748
        },
        {
          "duration": 0.06000000000000005,
          "durationTicks": 96,
          "midi": 35,
          "name": "B1",
          "ticks": 3648,
          "time": 2.28,
          "velocity": 0.3937007874015748
        },
        {
          "duration": 0.06000000000000005,
          "durationTicks": 96,
          "midi": 38,
          "name": "D2",
          "ticks": 3840,
          "time": 2.4,
          "velocity": 0.3937007874015748
        },
        {
          "duration": 0.06000000000000005,
          "durationTicks": 96,
          "midi": 35,
          "name": "B1",
          "ticks": 4224,
          "time": 2.6399999999999997,
          "velocity": 0.3937007874015748
        },
        {
          "duration": 0.06000000000000005,
          "durationTicks": 96,
          "midi": 42,
          "name": "F#2",
          "ticks": 4608,
          "time": 2.88,
          "velocity": 0.3937007874015748
        },
        {
          "duration": 0.06000000000000005,
          "durationTicks": 96,
          "midi": 42,
          "name": "F#2",
          "ticks": 4800,
          "time": 3,
          "velocity": 0.3937007874015748
        },
        {
          "duration": 0.05999999999999961,
          "durationTicks": 96,
          "midi": 35,
          "name": "B1",
          "ticks": 4992,
          "time": 3.12,
          "velocity": 0.3937007874015748
        },
        {
          "duration": 0.06000000000000005,
          "durationTicks": 96,
          "midi": 38,
          "name": "D2",
          "ticks": 5376,
          "time": 3.36,
          "velocity": 0.3937007874015748
        },
        {
          "duration": 0.06000000000000005,
          "durationTicks": 96,
          "midi": 35,
          "name": "B1",
          "ticks": 5568,
          "time": 3.48,
          "velocity": 0.3937007874015748
        },
        {
          "duration": 0.06000000000000005,
          "durationTicks": 96,
          "midi": 35,
          "name": "B1",
          "ticks": 6144,
          "time": 3.84,
          "velocity": 0.3937007874015748
        },
        {
          "duration": 0.05999999999999961,
          "durationTicks": 96,
          "midi": 42,
          "name": "F#2",
          "ticks": 6336,
          "time": 3.96,
          "velocity": 0.3937007874015748
        },
        {
          "duration": 0.05999999999999961,
          "durationTicks": 96,
          "midi": 42,
          "name": "F#2",
          "ticks": 6528,
          "time": 4.08,
          "velocity": 0.3937007874015748
        },
        {
          "duration": 0.05999999999999961,
          "durationTicks": 96,
          "midi": 35,
          "name": "B1",
          "ticks": 6720,
          "time": 4.2,
          "velocity": 0.3937007874015748
        },
        {
          "duration": 0.05999999999999961,
          "durationTicks": 96,
          "midi": 38,
          "name": "D2",
          "ticks": 6912,
          "time": 4.32,
          "velocity": 0.3937007874015748
        },
        {
          "duration": 0.0600000000000005,
          "durationTicks": 96,
          "midi": 35,
          "name": "B1",
          "ticks": 7296,
          "time": 4.56,
          "velocity": 0.3937007874015748
        },
        {
          "duration": 0.05999999999999961,
          "durationTicks": 96,
          "midi": 42,
          "name": "F#2",
          "ticks": 7680,
          "time": 4.8,
          "velocity": 0.3937007874015748
        },
        {
          "duration": 0.05999999999999961,
          "durationTicks": 96,
          "midi": 42,
          "name": "F#2",
          "ticks": 7872,
          "time": 4.92,
          "velocity": 0.3937007874015748
        },
        {
          "duration": 0.05999999999999961,
          "durationTicks": 96,
          "midi": 35,
          "name": "B1",
          "ticks": 8064,
          "time": 5.04,
          "velocity": 0.3937007874015748
        },
        {
          "duration": 0.0600000000000005,
          "durationTicks": 96,
          "midi": 38,
          "name": "D2",
          "ticks": 8448,
          "time": 5.279999999999999,
          "velocity": 0.3937007874015748
        },
        {
          "duration": 0.0600000000000005,
          "durationTicks": 96,
          "midi": 35,
          "name": "B1",
          "ticks": 8640,
          "time": 5.3999999999999995,
          "velocity": 0.3937007874015748
        },
        {
          "duration": 0.05999999999999961,
          "durationTicks": 96,
          "midi": 35,
          "name": "B1",
          "ticks": 9216,
          "time": 5.76,
          "velocity": 0.3937007874015748
        },
        {
          "duration": 0.05999999999999961,
          "durationTicks": 96,
          "midi": 42,
          "name": "F#2",
          "ticks": 9408,
          "time": 5.88,
          "velocity": 0.3937007874015748
        },
        {
          "duration": 0.05999999999999961,
          "durationTicks": 96,
          "midi": 42,
          "name": "F#2",
          "ticks": 9600,
          "time": 6,
          "velocity": 0.3937007874015748
        },
        {
          "duration": 0.05999999999999961,
          "durationTicks": 96,
          "midi": 35,
          "name": "B1",
          "ticks": 9792,
          "time": 6.12,
          "velocity": 0.3937007874015748
        },
        {
          "duration": 0.05999999999999961,
          "durationTicks": 96,
          "midi": 38,
          "name": "D2",
          "ticks": 9984,
          "time": 6.24,
          "velocity": 0.3937007874015748
        },
        {
          "duration": 0.0600000000000005,
          "durationTicks": 96,
          "midi": 35,
          "name": "B1",
          "ticks": 10368,
          "time": 6.4799999999999995,
          "velocity": 0.3937007874015748
        },
        {
          "duration": 0.05999999999999961,
          "durationTicks": 96,
          "midi": 42,
          "name": "F#2",
          "ticks": 10752,
          "time": 6.72,
          "velocity": 0.3937007874015748
        },
        {
          "duration": 0.05999999999999961,
          "durationTicks": 96,
          "midi": 42,
          "name": "F#2",
          "ticks": 10944,
          "time": 6.84,
          "velocity": 0.3937007874015748
        },
        {
          "duration": 0.05999999999999961,
          "durationTicks": 96,
          "midi": 35,
          "name": "B1",
          "ticks": 11136,
          "time": 6.96,
          "velocity": 0.3937007874015748
        },
        {
          "duration": 0.0600000000000005,
          "durationTicks": 96,
          "midi": 38,
          "name": "D2",
          "ticks": 11520,
          "time": 7.199999999999999,
          "velocity": 0.3937007874015748
        },
        {
          "duration": 0.0600000000000005,
          "durationTicks": 96,
          "midi": 35,
          "name": "B1",
          "ticks": 11712,
          "time": 7.319999999999999,
          "velocity": 0.3937007874015748
        },
        {
          "duration": 0.05999999999999961,
          "durationTicks": 96,
          "midi": 35,
          "name": "B1",
          "ticks": 12288,
          "time": 7.68,
          "velocity": 0.3937007874015748
        },
        {
          "duration": 0.05999999999999961,
          "durationTicks": 96,
          "midi": 42,
          "name": "F#2",
          "ticks": 12480,
          "time": 7.8,
          "velocity": 0.3937007874015748
        },
        {
          "duration": 0.05999999999999961,
          "durationTicks": 96,
          "midi": 42,
          "name": "F#2",
          "ticks": 12672,
          "time": 7.92,
          "velocity": 0.3937007874015748
        },
        {
          "duration": 0.0600000000000005,
          "durationTicks": 96,
          "midi": 35,
          "name": "B1",
          "ticks": 12864,
          "time": 8.04,
          "velocity": 0.3937007874015748
        },
        {
          "duration": 0.05999999999999872,
          "durationTicks": 96,
          "midi": 38,
          "name": "D2",
          "ticks": 13056,
          "time": 8.16,
          "velocity": 0.3937007874015748
        },
        {
          "duration": 0.05999999999999872,
          "durationTicks": 96,
          "midi": 35,
          "name": "B1",
          "ticks": 13440,
          "time": 8.4,
          "velocity": 0.3937007874015748
        },
        {
          "duration": 0.05999999999999872,
          "durationTicks": 96,
          "midi": 42,
          "name": "F#2",
          "ticks": 13824,
          "time": 8.64,
          "velocity": 0.3937007874015748
        },
        {
          "duration": 0.0600000000000005,
          "durationTicks": 96,
          "midi": 42,
          "name": "F#2",
          "ticks": 14016,
          "time": 8.76,
          "velocity": 0.3937007874015748
        },
        {
          "duration": 0.0600000000000005,
          "durationTicks": 96,
          "midi": 35,
          "name": "B1",
          "ticks": 14208,
          "time": 8.879999999999999,
          "velocity": 0.3937007874015748
        },
        {
          "duration": 0.0600000000000005,
          "durationTicks": 96,
          "midi": 38,
          "name": "D2",
          "ticks": 14592,
          "time": 9.12,
          "velocity": 0.3937007874015748
        },
        {
          "duration": 0.05999999999999872,
          "durationTicks": 96,
          "midi": 35,
          "name": "B1",
          "ticks": 14784,
          "time": 9.24,
          "velocity": 0.3937007874015748
        },
        {
          "duration": 0.0600000000000005,
          "durationTicks": 96,
          "midi": 35,
          "name": "B1",
          "ticks": 15360,
          "time": 9.6,
          "velocity": 0.3937007874015748
        },
        {
          "duration": 0.0600000000000005,
          "durationTicks": 96,
          "midi": 42,
          "name": "F#2",
          "ticks": 15552,
          "time": 9.719999999999999,
          "velocity": 0.3937007874015748
        },
        {
          "duration": 0.0600000000000005,
          "durationTicks": 96,
          "midi": 42,
          "name": "F#2",
          "ticks": 15744,
          "time": 9.84,
          "velocity": 0.3937007874015748
        },
        {
          "duration": 0.0600000000000005,
          "durationTicks": 96,
          "midi": 35,
          "name": "B1",
          "ticks": 15936,
          "time": 9.959999999999999,
          "velocity": 0.3937007874015748
        },
        {
          "duration": 0.05999999999999872,
          "durationTicks": 96,
          "midi": 38,
          "name": "D2",
          "ticks": 16128,
          "time": 10.08,
          "velocity": 0.3937007874015748
        },
        {
          "duration": 0.05999999999999872,
          "durationTicks": 96,
          "midi": 35,
          "name": "B1",
          "ticks": 16512,
          "time": 10.32,
          "velocity": 0.3937007874015748
        },
        {
          "duration": 0.0600000000000005,
          "durationTicks": 96,
          "midi": 42,
          "name": "F#2",
          "ticks": 16896,
          "time": 10.559999999999999,
          "velocity": 0.3937007874015748
        },
        {
          "duration": 0.0600000000000005,
          "durationTicks": 96,
          "midi": 42,
          "name": "F#2",
          "ticks": 17088,
          "time": 10.68,
          "velocity": 0.3937007874015748
        },
        {
          "duration": 0.0600000000000005,
          "durationTicks": 96,
          "midi": 35,
          "name": "B1",
          "ticks": 17280,
          "time": 10.799999999999999,
          "velocity": 0.3937007874015748
        },
        {
          "duration": 0.0600000000000005,
          "durationTicks": 96,
          "midi": 38,
          "name": "D2",
          "ticks": 17664,
          "time": 11.04,
          "velocity": 0.3937007874015748
        },
        {
          "duration": 0.05999999999999872,
          "durationTicks": 96,
          "midi": 35,
          "name": "B1",
          "ticks": 17856,
          "time": 11.16,
          "velocity": 0.3937007874015748
        },
        {
          "duration": 0.0600000000000005,
          "durationTicks": 96,
          "midi": 35,
          "name": "B1",
          "ticks": 18432,
          "time": 11.52,
          "velocity": 0.3937007874015748
        },
        {
          "duration": 0.0600000000000005,
          "durationTicks": 96,
          "midi": 42,
          "name": "F#2",
          "ticks": 18624,
          "time": 11.639999999999999,
          "velocity": 0.3937007874015748
        },
        {
          "duration": 0.0600000000000005,
          "durationTicks": 96,
          "midi": 42,
          "name": "F#2",
          "ticks": 18816,
          "time": 11.76,
          "velocity": 0.3937007874015748
        },
        {
          "duration": 0.0600000000000005,
          "durationTicks": 96,
          "midi": 35,
          "name": "B1",
          "ticks": 19008,
          "time": 11.879999999999999,
          "velocity": 0.3937007874015748
        },
        {
          "duration": 0.05999999999999872,
          "durationTicks": 96,
          "midi": 38,
          "name": "D2",
          "ticks": 19200,
          "time": 12,
          "velocity": 0.3937007874015748
        },
        {
          "duration": 0.05999999999999872,
          "durationTicks": 96,
          "midi": 35,
          "name": "B1",
          "ticks": 19584,
          "time": 12.24,
          "velocity": 0.3937007874015748
        },
        {
          "duration": 0.05999999999999872,
          "durationTicks": 96,
          "midi": 42,
          "name": "F#2",
          "ticks": 19968,
          "time": 12.48,
          "velocity": 0.3937007874015748
        },
        {
          "duration": 0.0600000000000005,
          "durationTicks": 96,
          "midi": 42,
          "name": "F#2",
          "ticks": 20160,
          "time": 12.6,
          "velocity": 0.3937007874015748
        },
        {
          "duration": 0.0600000000000005,
          "durationTicks": 96,
          "midi": 35,
          "name": "B1",
          "ticks": 20352,
          "time": 12.719999999999999,
          "velocity": 0.3937007874015748
        },
        {
          "duration": 0.0600000000000005,
          "durationTicks": 96,
          "midi": 38,
          "name": "D2",
          "ticks": 20736,
          "time": 12.959999999999999,
          "velocity": 0.3937007874015748
        },
        {
          "duration": 0.05999999999999872,
          "durationTicks": 96,
          "midi": 35,
          "name": "B1",
          "ticks": 20928,
          "time": 13.08,
          "velocity": 0.3937007874015748
        },
        {
          "duration": 0.0600000000000005,
          "durationTicks": 96,
          "midi": 35,
          "name": "B1",
          "ticks": 21504,
          "time": 13.44,
          "velocity": 0.3937007874015748
        },
        {
          "duration": 0.0600000000000005,
          "durationTicks": 96,
          "midi": 42,
          "name": "F#2",
          "ticks": 21696,
          "time": 13.559999999999999,
          "velocity": 0.3937007874015748
        },
        {
          "duration": 0.0600000000000005,
          "durationTicks": 96,
          "midi": 42,
          "name": "F#2",
          "ticks": 21888,
          "time": 13.68,
          "velocity": 0.3937007874015748
        },
        {
          "duration": 0.0600000000000005,
          "durationTicks": 96,
          "midi": 35,
          "name": "B1",
          "ticks": 22080,
          "time": 13.799999999999999,
          "velocity": 0.3937007874015748
        },
        {
          "duration": 0.05999999999999872,
          "durationTicks": 96,
          "midi": 38,
          "name": "D2",
          "ticks": 22272,
          "time": 13.92,
          "velocity": 0.3937007874015748
        },
        {
          "duration": 0.05999999999999872,
          "durationTicks": 96,
          "midi": 35,
          "name": "B1",
          "ticks": 22656,
          "time": 14.16,
          "velocity": 0.3937007874015748
        },
        {
          "duration": 0.0600000000000005,
          "durationTicks": 96,
          "midi": 42,
          "name": "F#2",
          "ticks": 23040,
          "time": 14.399999999999999,
          "velocity": 0.3937007874015748
        },
        {
          "duration": 0.0600000000000005,
          "durationTicks": 96,
          "midi": 42,
          "name": "F#2",
          "ticks": 23232,
          "time": 14.52,
          "velocity": 0.3937007874015748
        },
        {
          "duration": 0.0600000000000005,
          "durationTicks": 96,
          "midi": 35,
          "name": "B1",
          "ticks": 23424,
          "time": 14.639999999999999,
          "velocity": 0.3937007874015748
        },
        {
          "duration": 0.0600000000000005,
          "durationTicks": 96,
          "midi": 38,
          "name": "D2",
          "ticks": 23808,
          "time": 14.879999999999999,
          "velocity": 0.3937007874015748
        },
        {
          "duration": 0.05999999999999872,
          "durationTicks": 96,
          "midi": 35,
          "name": "B1",
          "ticks": 24000,
          "time": 15,
          "velocity": 0.3937007874015748
        },
        {
          "duration": 0.0600000000000005,
          "durationTicks": 96,
          "midi": 35,
          "name": "B1",
          "ticks": 24576,
          "time": 15.36,
          "velocity": 0.3937007874015748
        },
        {
          "duration": 0.0600000000000005,
          "durationTicks": 96,
          "midi": 42,
          "name": "F#2",
          "ticks": 24768,
          "time": 15.479999999999999,
          "velocity": 0.3937007874015748
        },
        {
          "duration": 0.0600000000000005,
          "durationTicks": 96,
          "midi": 42,
          "name": "F#2",
          "ticks": 24960,
          "time": 15.6,
          "velocity": 0.3937007874015748
        },
        {
          "duration": 0.0600000000000005,
          "durationTicks": 96,
          "midi": 35,
          "name": "B1",
          "ticks": 25152,
          "time": 15.719999999999999,
          "velocity": 0.3937007874015748
        },
        {
          "duration": 0.05999999999999872,
          "durationTicks": 96,
          "midi": 38,
          "name": "D2",
          "ticks": 25344,
          "time": 15.84,
          "velocity": 0.3937007874015748
        },
        {
          "duration": 0.060000000000002274,
          "durationTicks": 96,
          "midi": 35,
          "name": "B1",
          "ticks": 25728,
          "time": 16.08,
          "velocity": 0.3937007874015748
        },
        {
          "duration": 0.05999999999999872,
          "durationTicks": 96,
          "midi": 42,
          "name": "F#2",
          "ticks": 26112,
          "time": 16.32,
          "velocity": 0.3937007874015748
        },
        {
          "duration": 0.060000000000002274,
          "durationTicks": 96,
          "midi": 42,
          "name": "F#2",
          "ticks": 26304,
          "time": 16.439999999999998,
          "velocity": 0.3937007874015748
        },
        {
          "duration": 0.060000000000002274,
          "durationTicks": 96,
          "midi": 35,
          "name": "B1",
          "ticks": 26496,
          "time": 16.56,
          "velocity": 0.3937007874015748
        },
        {
          "duration": 0.05999999999999872,
          "durationTicks": 96,
          "midi": 38,
          "name": "D2",
          "ticks": 26880,
          "time": 16.8,
          "velocity": 0.3937007874015748
        },
        {
          "duration": 0.060000000000002274,
          "durationTicks": 96,
          "midi": 35,
          "name": "B1",
          "ticks": 27072,
          "time": 16.919999999999998,
          "velocity": 0.3937007874015748
        },
        {
          "duration": 0.05999999999999872,
          "durationTicks": 96,
          "midi": 35,
          "name": "B1",
          "ticks": 27648,
          "time": 17.28,
          "velocity": 0.3937007874015748
        },
        {
          "duration": 0.060000000000002274,
          "durationTicks": 96,
          "midi": 42,
          "name": "F#2",
          "ticks": 27840,
          "time": 17.4,
          "velocity": 0.3937007874015748
        },
        {
          "duration": 0.05999999999999872,
          "durationTicks": 96,
          "midi": 42,
          "name": "F#2",
          "ticks": 28032,
          "time": 17.52,
          "velocity": 0.3937007874015748
        },
        {
          "duration": 0.05999999999999872,
          "durationTicks": 96,
          "midi": 35,
          "name": "B1",
          "ticks": 28224,
          "time": 17.64,
          "velocity": 0.3937007874015748
        },
        {
          "duration": 0.060000000000002274,
          "durationTicks": 96,
          "midi": 38,
          "name": "D2",
          "ticks": 28416,
          "time": 17.759999999999998,
          "velocity": 0.3937007874015748
        },
        {
          "duration": 0.05999999999999872,
          "durationTicks": 96,
          "midi": 35,
          "name": "B1",
          "ticks": 28800,
          "time": 18,
          "velocity": 0.3937007874015748
        },
        {
          "duration": 0.060000000000002274,
          "durationTicks": 96,
          "midi": 42,
          "name": "F#2",
          "ticks": 29184,
          "time": 18.24,
          "velocity": 0.3937007874015748
        },
        {
          "duration": 0.05999999999999872,
          "durationTicks": 96,
          "midi": 42,
          "name": "F#2",
          "ticks": 29376,
          "time": 18.36,
          "velocity": 0.3937007874015748
        },
        {
          "duration": 0.05999999999999872,
          "durationTicks": 96,
          "midi": 35,
          "name": "B1",
          "ticks": 29568,
          "time": 18.48,
          "velocity": 0.3937007874015748
        },
        {
          "duration": 0.05999999999999872,
          "durationTicks": 96,
          "midi": 38,
          "name": "D2",
          "ticks": 29952,
          "time": 18.72,
          "velocity": 0.3937007874015748
        },
        {
          "duration": 0.05999999999999872,
          "durationTicks": 96,
          "midi": 35,
          "name": "B1",
          "ticks": 30144,
          "time": 18.84,
          "velocity": 0.3937007874015748
        },
        {
          "duration": 0.05999999999999872,
          "durationTicks": 96,
          "midi": 35,
          "name": "B1",
          "ticks": 30720,
          "time": 19.2,
          "velocity": 0.3937007874015748
        },
        {
          "duration": 0.05999999999999872,
          "durationTicks": 96,
          "midi": 42,
          "name": "F#2",
          "ticks": 30912,
          "time": 19.32,
          "velocity": 0.3937007874015748
        },
        {
          "duration": 0.060000000000002274,
          "durationTicks": 96,
          "midi": 42,
          "name": "F#2",
          "ticks": 31104,
          "time": 19.439999999999998,
          "velocity": 0.3937007874015748
        },
        {
          "duration": 0.060000000000002274,
          "durationTicks": 96,
          "midi": 35,
          "name": "B1",
          "ticks": 31296,
          "time": 19.56,
          "velocity": 0.3937007874015748
        },
        {
          "duration": 0.05999999999999872,
          "durationTicks": 96,
          "midi": 38,
          "name": "D2",
          "ticks": 31488,
          "time": 19.68,
          "velocity": 0.3937007874015748
        },
        {
          "duration": 0.060000000000002274,
          "durationTicks": 96,
          "midi": 35,
          "name": "B1",
          "ticks": 31872,
          "time": 19.919999999999998,
          "velocity": 0.3937007874015748
        },
        {
          "duration": 0.05999999999999872,
          "durationTicks": 96,
          "midi": 42,
          "name": "F#2",
          "ticks": 32256,
          "time": 20.16,
          "velocity": 0.3937007874015748
        },
        {
          "duration": 0.060000000000002274,
          "durationTicks": 96,
          "midi": 42,
          "name": "F#2",
          "ticks": 32448,
          "time": 20.279999999999998,
          "velocity": 0.3937007874015748
        },
        {
          "duration": 0.060000000000002274,
          "durationTicks": 96,
          "midi": 35,
          "name": "B1",
          "ticks": 32640,
          "time": 20.4,
          "velocity": 0.3937007874015748
        },
        {
          "duration": 0.05999999999999872,
          "durationTicks": 96,
          "midi": 38,
          "name": "D2",
          "ticks": 33024,
          "time": 20.64,
          "velocity": 0.3937007874015748
        },
        {
          "duration": 0.060000000000002274,
          "durationTicks": 96,
          "midi": 35,
          "name": "B1",
          "ticks": 33216,
          "time": 20.759999999999998,
          "velocity": 0.3937007874015748
        },
        {
          "duration": 0.060000000000002274,
          "durationTicks": 96,
          "midi": 35,
          "name": "B1",
          "ticks": 33792,
          "time": 21.119999999999997,
          "velocity": 0.3937007874015748
        },
        {
          "duration": 0.060000000000002274,
          "durationTicks": 96,
          "midi": 42,
          "name": "F#2",
          "ticks": 33984,
          "time": 21.24,
          "velocity": 0.3937007874015748
        },
        {
          "duration": 0.05999999999999872,
          "durationTicks": 96,
          "midi": 42,
          "name": "F#2",
          "ticks": 34176,
          "time": 21.36,
          "velocity": 0.3937007874015748
        },
        {
          "duration": 0.05999999999999872,
          "durationTicks": 96,
          "midi": 35,
          "name": "B1",
          "ticks": 34368,
          "time": 21.48,
          "velocity": 0.3937007874015748
        },
        {
          "duration": 0.060000000000002274,
          "durationTicks": 96,
          "midi": 38,
          "name": "D2",
          "ticks": 34560,
          "time": 21.599999999999998,
          "velocity": 0.3937007874015748
        },
        {
          "duration": 0.05999999999999872,
          "durationTicks": 96,
          "midi": 35,
          "name": "B1",
          "ticks": 34944,
          "time": 21.84,
          "velocity": 0.3937007874015748
        },
        {
          "duration": 0.060000000000002274,
          "durationTicks": 96,
          "midi": 42,
          "name": "F#2",
          "ticks": 35328,
          "time": 22.08,
          "velocity": 0.3937007874015748
        },
        {
          "duration": 0.05999999999999872,
          "durationTicks": 96,
          "midi": 42,
          "name": "F#2",
          "ticks": 35520,
          "time": 22.2,
          "velocity": 0.3937007874015748
        },
        {
          "duration": 0.05999999999999872,
          "durationTicks": 96,
          "midi": 35,
          "name": "B1",
          "ticks": 35712,
          "time": 22.32,
          "velocity": 0.3937007874015748
        },
        {
          "duration": 0.05999999999999872,
          "durationTicks": 96,
          "midi": 38,
          "name": "D2",
          "ticks": 36096,
          "time": 22.56,
          "velocity": 0.3937007874015748
        },
        {
          "duration": 0.05999999999999872,
          "durationTicks": 96,
          "midi": 35,
          "name": "B1",
          "ticks": 36288,
          "time": 22.68,
          "velocity": 0.3937007874015748
        },
        {
          "duration": 0.05999999999999872,
          "durationTicks": 96,
          "midi": 35,
          "name": "B1",
          "ticks": 36864,
          "time": 23.04,
          "velocity": 0.3937007874015748
        },
        {
          "duration": 0.05999999999999872,
          "durationTicks": 96,
          "midi": 42,
          "name": "F#2",
          "ticks": 37056,
          "time": 23.16,
          "velocity": 0.3937007874015748
        },
        {
          "duration": 0.060000000000002274,
          "durationTicks": 96,
          "midi": 42,
          "name": "F#2",
          "ticks": 37248,
          "time": 23.279999999999998,
          "velocity": 0.3937007874015748
        },
        {
          "duration": 0.060000000000002274,
          "durationTicks": 96,
          "midi": 35,
          "name": "B1",
          "ticks": 37440,
          "time": 23.4,
          "velocity": 0.3937007874015748
        },
        {
          "duration": 0.05999999999999872,
          "durationTicks": 96,
          "midi": 38,
          "name": "D2",
          "ticks": 37632,
          "time": 23.52,
          "velocity": 0.3937007874015748
        },
        {
          "duration": 0.060000000000002274,
          "durationTicks": 96,
          "midi": 35,
          "name": "B1",
          "ticks": 38016,
          "time": 23.759999999999998,
          "velocity": 0.3937007874015748
        },
        {
          "duration": 0.05999999999999872,
          "durationTicks": 96,
          "midi": 42,
          "name": "F#2",
          "ticks": 38400,
          "time": 24,
          "velocity": 0.3937007874015748
        },
        {
          "duration": 0.060000000000002274,
          "durationTicks": 96,
          "midi": 42,
          "name": "F#2",
          "ticks": 38592,
          "time": 24.119999999999997,
          "velocity": 0.3937007874015748
        },
        {
          "duration": 0.060000000000002274,
          "durationTicks": 96,
          "midi": 35,
          "name": "B1",
          "ticks": 38784,
          "time": 24.24,
          "velocity": 0.3937007874015748
        },
        {
          "duration": 0.05999999999999872,
          "durationTicks": 96,
          "midi": 38,
          "name": "D2",
          "ticks": 39168,
          "time": 24.48,
          "velocity": 0.3937007874015748
        },
        {
          "duration": 0.060000000000002274,
          "durationTicks": 96,
          "midi": 35,
          "name": "B1",
          "ticks": 39360,
          "time": 24.599999999999998,
          "velocity": 0.3937007874015748
        },
        {
          "duration": 0.05999999999999872,
          "durationTicks": 96,
          "midi": 35,
          "name": "B1",
          "ticks": 39936,
          "time": 24.96,
          "velocity": 0.3937007874015748
        },
        {
          "duration": 0.060000000000002274,
          "durationTicks": 96,
          "midi": 42,
          "name": "F#2",
          "ticks": 40128,
          "time": 25.08,
          "velocity": 0.3937007874015748
        },
        {
          "duration": 0.05999999999999872,
          "durationTicks": 96,
          "midi": 42,
          "name": "F#2",
          "ticks": 40320,
          "time": 25.2,
          "velocity": 0.3937007874015748
        },
        {
          "duration": 0.05999999999999872,
          "durationTicks": 96,
          "midi": 35,
          "name": "B1",
          "ticks": 40512,
          "time": 25.32,
          "velocity": 0.3937007874015748
        },
        {
          "duration": 0.060000000000002274,
          "durationTicks": 96,
          "midi": 38,
          "name": "D2",
          "ticks": 40704,
          "time": 25.439999999999998,
          "velocity": 0.3937007874015748
        },
        {
          "duration": 0.05999999999999872,
          "durationTicks": 96,
          "midi": 35,
          "name": "B1",
          "ticks": 41088,
          "time": 25.68,
          "velocity": 0.3937007874015748
        },
        {
          "duration": 0.060000000000002274,
          "durationTicks": 96,
          "midi": 42,
          "name": "F#2",
          "ticks": 41472,
          "time": 25.919999999999998,
          "velocity": 0.3937007874015748
        },
        {
          "duration": 0.05999999999999872,
          "durationTicks": 96,
          "midi": 42,
          "name": "F#2",
          "ticks": 41664,
          "time": 26.04,
          "velocity": 0.3937007874015748
        },
        {
          "duration": 0.05999999999999872,
          "durationTicks": 96,
          "midi": 35,
          "name": "B1",
          "ticks": 41856,
          "time": 26.16,
          "velocity": 0.3937007874015748
        },
        {
          "duration": 0.05999999999999872,
          "durationTicks": 96,
          "midi": 38,
          "name": "D2",
          "ticks": 42240,
          "time": 26.4,
          "velocity": 0.3937007874015748
        },
        {
          "duration": 0.05999999999999872,
          "durationTicks": 96,
          "midi": 35,
          "name": "B1",
          "ticks": 42432,
          "time": 26.52,
          "velocity": 0.3937007874015748
        },
        {
          "duration": 0.05999999999999872,
          "durationTicks": 96,
          "midi": 35,
          "name": "B1",
          "ticks": 43008,
          "time": 26.88,
          "velocity": 0.3937007874015748
        },
        {
          "duration": 0.05999999999999872,
          "durationTicks": 96,
          "midi": 42,
          "name": "F#2",
          "ticks": 43200,
          "time": 27,
          "velocity": 0.3937007874015748
        },
        {
          "duration": 0.060000000000002274,
          "durationTicks": 96,
          "midi": 42,
          "name": "F#2",
          "ticks": 43392,
          "time": 27.119999999999997,
          "velocity": 0.3937007874015748
        },
        {
          "duration": 0.060000000000002274,
          "durationTicks": 96,
          "midi": 35,
          "name": "B1",
          "ticks": 43584,
          "time": 27.24,
          "velocity": 0.3937007874015748
        },
        {
          "duration": 0.05999999999999872,
          "durationTicks": 96,
          "midi": 38,
          "name": "D2",
          "ticks": 43776,
          "time": 27.36,
          "velocity": 0.3937007874015748
        },
        {
          "duration": 0.060000000000002274,
          "durationTicks": 96,
          "midi": 35,
          "name": "B1",
          "ticks": 44160,
          "time": 27.599999999999998,
          "velocity": 0.3937007874015748
        },
        {
          "duration": 0.05999999999999872,
          "durationTicks": 96,
          "midi": 42,
          "name": "F#2",
          "ticks": 44544,
          "time": 27.84,
          "velocity": 0.3937007874015748
        },
        {
          "duration": 0.060000000000002274,
          "durationTicks": 96,
          "midi": 42,
          "name": "F#2",
          "ticks": 44736,
          "time": 27.959999999999997,
          "velocity": 0.3937007874015748
        },
        {
          "duration": 0.060000000000002274,
          "durationTicks": 96,
          "midi": 35,
          "name": "B1",
          "ticks": 44928,
          "time": 28.08,
          "velocity": 0.3937007874015748
        },
        {
          "duration": 0.05999999999999872,
          "durationTicks": 96,
          "midi": 38,
          "name": "D2",
          "ticks": 45312,
          "time": 28.32,
          "velocity": 0.3937007874015748
        },
        {
          "duration": 0.060000000000002274,
          "durationTicks": 96,
          "midi": 35,
          "name": "B1",
          "ticks": 45504,
          "time": 28.439999999999998,
          "velocity": 0.3937007874015748
        },
        {
          "duration": 0.060000000000002274,
          "durationTicks": 96,
          "midi": 35,
          "name": "B1",
          "ticks": 46080,
          "time": 28.799999999999997,
          "velocity": 0.3937007874015748
        },
        {
          "duration": 0.060000000000002274,
          "durationTicks": 96,
          "midi": 42,
          "name": "F#2",
          "ticks": 46272,
          "time": 28.919999999999998,
          "velocity": 0.3937007874015748
        },
        {
          "duration": 0.05999999999999872,
          "durationTicks": 96,
          "midi": 42,
          "name": "F#2",
          "ticks": 46464,
          "time": 29.04,
          "velocity": 0.3937007874015748
        },
        {
          "duration": 0.05999999999999872,
          "durationTicks": 96,
          "midi": 35,
          "name": "B1",
          "ticks": 46656,
          "time": 29.16,
          "velocity": 0.3937007874015748
        },
        {
          "duration": 0.060000000000002274,
          "durationTicks": 96,
          "midi": 38,
          "name": "D2",
          "ticks": 46848,
          "time": 29.279999999999998,
          "velocity": 0.3937007874015748
        },
        {
          "duration": 0.05999999999999872,
          "durationTicks": 96,
          "midi": 35,
          "name": "B1",
          "ticks": 47232,
          "time": 29.52,
          "velocity": 0.3937007874015748
        },
        {
          "duration": 0.060000000000002274,
          "durationTicks": 96,
          "midi": 42,
          "name": "F#2",
          "ticks": 47616,
          "time": 29.759999999999998,
          "velocity": 0.3937007874015748
        },
        {
          "duration": 0.05999999999999872,
          "durationTicks": 96,
          "midi": 42,
          "name": "F#2",
          "ticks": 47808,
          "time": 29.88,
          "velocity": 0.3937007874015748
        },
        {
          "duration": 0.05999999999999872,
          "durationTicks": 96,
          "midi": 35,
          "name": "B1",
          "ticks": 48000,
          "time": 30,
          "velocity": 0.3937007874015748
        },
        {
          "duration": 0.05999999999999872,
          "durationTicks": 96,
          "midi": 38,
          "name": "D2",
          "ticks": 48384,
          "time": 30.24,
          "velocity": 0.3937007874015748
        },
        {
          "duration": 0.05999999999999872,
          "durationTicks": 96,
          "midi": 35,
          "name": "B1",
          "ticks": 48576,
          "time": 30.36,
          "velocity": 0.3937007874015748
        },
        {
          "duration": 0.05999999999999872,
          "durationTicks": 96,
          "midi": 35,
          "name": "B1",
          "ticks": 49152,
          "time": 30.72,
          "velocity": 0.3937007874015748
        },
        {
          "duration": 0.05999999999999872,
          "durationTicks": 96,
          "midi": 42,
          "name": "F#2",
          "ticks": 49344,
          "time": 30.84,
          "velocity": 0.3937007874015748
        },
        {
          "duration": 0.060000000000002274,
          "durationTicks": 96,
          "midi": 42,
          "name": "F#2",
          "ticks": 49536,
          "time": 30.959999999999997,
          "velocity": 0.3937007874015748
        },
        {
          "duration": 0.060000000000002274,
          "durationTicks": 96,
          "midi": 35,
          "name": "B1",
          "ticks": 49728,
          "time": 31.08,
          "velocity": 0.3937007874015748
        },
        {
          "duration": 0.05999999999999872,
          "durationTicks": 96,
          "midi": 38,
          "name": "D2",
          "ticks": 49920,
          "time": 31.2,
          "velocity": 0.3937007874015748
        },
        {
          "duration": 0.060000000000002274,
          "durationTicks": 96,
          "midi": 35,
          "name": "B1",
          "ticks": 50304,
          "time": 31.439999999999998,
          "velocity": 0.3937007874015748
        },
        {
          "duration": 0.05999999999999872,
          "durationTicks": 96,
          "midi": 42,
          "name": "F#2",
          "ticks": 50688,
          "time": 31.68,
          "velocity": 0.3937007874015748
        },
        {
          "duration": 0.060000000000002274,
          "durationTicks": 96,
          "midi": 42,
          "name": "F#2",
          "ticks": 50880,
          "time": 31.799999999999997,
          "velocity": 0.3937007874015748
        },
        {
          "duration": 0.060000000000002274,
          "durationTicks": 96,
          "midi": 35,
          "name": "B1",
          "ticks": 51072,
          "time": 31.919999999999998,
          "velocity": 0.3937007874015748
        },
        {
          "duration": 0.060000000000002274,
          "durationTicks": 96,
          "midi": 38,
          "name": "D2",
          "ticks": 51456,
          "time": 32.16,
          "velocity": 0.3937007874015748
        },
        {
          "duration": 0.05999999999999517,
          "durationTicks": 96,
          "midi": 35,
          "name": "B1",
          "ticks": 51648,
          "time": 32.28,
          "velocity": 0.3937007874015748
        },
        {
          "duration": 0.05999999999999517,
          "durationTicks": 96,
          "midi": 35,
          "name": "B1",
          "ticks": 52224,
          "time": 32.64,
          "velocity": 0.3937007874015748
        },
        {
          "duration": 0.060000000000002274,
          "durationTicks": 96,
          "midi": 42,
          "name": "F#2",
          "ticks": 52416,
          "time": 32.76,
          "velocity": 0.3937007874015748
        },
        {
          "duration": 0.060000000000002274,
          "durationTicks": 96,
          "midi": 42,
          "name": "F#2",
          "ticks": 52608,
          "time": 32.879999999999995,
          "velocity": 0.3937007874015748
        },
        {
          "duration": 0.060000000000002274,
          "durationTicks": 96,
          "midi": 35,
          "name": "B1",
          "ticks": 52800,
          "time": 33,
          "velocity": 0.3937007874015748
        },
        {
          "duration": 0.060000000000002274,
          "durationTicks": 96,
          "midi": 38,
          "name": "D2",
          "ticks": 52992,
          "time": 33.12,
          "velocity": 0.3937007874015748
        },
        {
          "duration": 0.060000000000002274,
          "durationTicks": 96,
          "midi": 35,
          "name": "B1",
          "ticks": 53376,
          "time": 33.36,
          "velocity": 0.3937007874015748
        },
        {
          "duration": 0.05999999999999517,
          "durationTicks": 96,
          "midi": 42,
          "name": "F#2",
          "ticks": 53760,
          "time": 33.6,
          "velocity": 0.3937007874015748
        },
        {
          "duration": 0.060000000000002274,
          "durationTicks": 96,
          "midi": 42,
          "name": "F#2",
          "ticks": 53952,
          "time": 33.72,
          "velocity": 0.3937007874015748
        },
        {
          "duration": 0.060000000000002274,
          "durationTicks": 96,
          "midi": 35,
          "name": "B1",
          "ticks": 54144,
          "time": 33.839999999999996,
          "velocity": 0.3937007874015748
        },
        {
          "duration": 0.060000000000002274,
          "durationTicks": 96,
          "midi": 38,
          "name": "D2",
          "ticks": 54528,
          "time": 34.08,
          "velocity": 0.3937007874015748
        },
        {
          "duration": 0.060000000000002274,
          "durationTicks": 96,
          "midi": 35,
          "name": "B1",
          "ticks": 54720,
          "time": 34.199999999999996,
          "velocity": 0.3937007874015748
        },
        {
          "duration": 0.05999999999999517,
          "durationTicks": 96,
          "midi": 35,
          "name": "B1",
          "ticks": 55296,
          "time": 34.56,
          "velocity": 0.3937007874015748
        },
        {
          "duration": 0.060000000000002274,
          "durationTicks": 96,
          "midi": 42,
          "name": "F#2",
          "ticks": 55488,
          "time": 34.68,
          "velocity": 0.3937007874015748
        },
        {
          "duration": 0.060000000000002274,
          "durationTicks": 96,
          "midi": 42,
          "name": "F#2",
          "ticks": 55680,
          "time": 34.8,
          "velocity": 0.3937007874015748
        },
        {
          "duration": 0.05999999999999517,
          "durationTicks": 96,
          "midi": 35,
          "name": "B1",
          "ticks": 55872,
          "time": 34.92,
          "velocity": 0.3937007874015748
        },
        {
          "duration": 0.060000000000002274,
          "durationTicks": 96,
          "midi": 38,
          "name": "D2",
          "ticks": 56064,
          "time": 35.04,
          "velocity": 0.3937007874015748
        },
        {
          "duration": 0.05999999999999517,
          "durationTicks": 96,
          "midi": 35,
          "name": "B1",
          "ticks": 56448,
          "time": 35.28,
          "velocity": 0.3937007874015748
        },
        {
          "duration": 0.060000000000002274,
          "durationTicks": 96,
          "midi": 42,
          "name": "F#2",
          "ticks": 56832,
          "time": 35.519999999999996,
          "velocity": 0.3937007874015748
        },
        {
          "duration": 0.05999999999999517,
          "durationTicks": 96,
          "midi": 42,
          "name": "F#2",
          "ticks": 57024,
          "time": 35.64,
          "velocity": 0.3937007874015748
        },
        {
          "duration": 0.060000000000002274,
          "durationTicks": 96,
          "midi": 35,
          "name": "B1",
          "ticks": 57216,
          "time": 35.76,
          "velocity": 0.3937007874015748
        },
        {
          "duration": 0.05999999999999517,
          "durationTicks": 96,
          "midi": 38,
          "name": "D2",
          "ticks": 57600,
          "time": 36,
          "velocity": 0.3937007874015748
        },
        {
          "duration": 0.060000000000002274,
          "durationTicks": 96,
          "midi": 35,
          "name": "B1",
          "ticks": 57792,
          "time": 36.12,
          "velocity": 0.3937007874015748
        },
        {
          "duration": 0.060000000000002274,
          "durationTicks": 96,
          "midi": 35,
          "name": "B1",
          "ticks": 58368,
          "time": 36.48,
          "velocity": 0.3937007874015748
        },
        {
          "duration": 0.05999999999999517,
          "durationTicks": 96,
          "midi": 42,
          "name": "F#2",
          "ticks": 58560,
          "time": 36.6,
          "velocity": 0.3937007874015748
        },
        {
          "duration": 0.060000000000002274,
          "durationTicks": 96,
          "midi": 42,
          "name": "F#2",
          "ticks": 58752,
          "time": 36.72,
          "velocity": 0.3937007874015748
        },
        {
          "duration": 0.060000000000002274,
          "durationTicks": 96,
          "midi": 35,
          "name": "B1",
          "ticks": 58944,
          "time": 36.839999999999996,
          "velocity": 0.3937007874015748
        },
        {
          "duration": 0.05999999999999517,
          "durationTicks": 96,
          "midi": 38,
          "name": "D2",
          "ticks": 59136,
          "time": 36.96,
          "velocity": 0.3937007874015748
        },
        {
          "duration": 0.060000000000002274,
          "durationTicks": 96,
          "midi": 35,
          "name": "B1",
          "ticks": 59520,
          "time": 37.199999999999996,
          "velocity": 0.3937007874015748
        },
        {
          "duration": 0.060000000000002274,
          "durationTicks": 96,
          "midi": 42,
          "name": "F#2",
          "ticks": 59904,
          "time": 37.44,
          "velocity": 0.3937007874015748
        },
        {
          "duration": 0.060000000000002274,
          "durationTicks": 96,
          "midi": 42,
          "name": "F#2",
          "ticks": 60096,
          "time": 37.559999999999995,
          "velocity": 0.3937007874015748
        },
        {
          "duration": 0.060000000000002274,
          "durationTicks": 96,
          "midi": 35,
          "name": "B1",
          "ticks": 60288,
          "time": 37.68,
          "velocity": 0.3937007874015748
        },
        {
          "duration": 0.05999999999999517,
          "durationTicks": 96,
          "midi": 38,
          "name": "D2",
          "ticks": 60672,
          "time": 37.92,
          "velocity": 0.3937007874015748
        },
        {
          "duration": 0.060000000000002274,
          "durationTicks": 96,
          "midi": 35,
          "name": "B1",
          "ticks": 60864,
          "time": 38.04,
          "velocity": 0.3937007874015748
        },
        {
          "duration": 0.060000000000002274,
          "durationTicks": 96,
          "midi": 35,
          "name": "B1",
          "ticks": 61440,
          "time": 38.4,
          "velocity": 0.3937007874015748
        },
        {
          "duration": 0.060000000000002274,
          "durationTicks": 96,
          "midi": 42,
          "name": "F#2",
          "ticks": 61632,
          "time": 38.519999999999996,
          "velocity": 0.3937007874015748
        },
        {
          "duration": 0.05999999999999517,
          "durationTicks": 96,
          "midi": 42,
          "name": "F#2",
          "ticks": 61824,
          "time": 38.64,
          "velocity": 0.3937007874015748
        },
        {
          "duration": 0.060000000000002274,
          "durationTicks": 96,
          "midi": 35,
          "name": "B1",
          "ticks": 62016,
          "time": 38.76,
          "velocity": 0.3937007874015748
        },
        {
          "duration": 0.060000000000002274,
          "durationTicks": 96,
          "midi": 38,
          "name": "D2",
          "ticks": 62208,
          "time": 38.879999999999995,
          "velocity": 0.3937007874015748
        },
        {
          "duration": 0.060000000000002274,
          "durationTicks": 96,
          "midi": 35,
          "name": "B1",
          "ticks": 62592,
          "time": 39.12,
          "velocity": 0.3937007874015748
        },
        {
          "duration": 0.060000000000002274,
          "durationTicks": 96,
          "midi": 42,
          "name": "F#2",
          "ticks": 62976,
          "time": 39.36,
          "velocity": 0.3937007874015748
        },
        {
          "duration": 0.060000000000002274,
          "durationTicks": 96,
          "midi": 42,
          "name": "F#2",
          "ticks": 63168,
          "time": 39.48,
          "velocity": 0.3937007874015748
        },
        {
          "duration": 0.05999999999999517,
          "durationTicks": 96,
          "midi": 35,
          "name": "B1",
          "ticks": 63360,
          "time": 39.6,
          "velocity": 0.3937007874015748
        },
        {
          "duration": 0.060000000000002274,
          "durationTicks": 96,
          "midi": 38,
          "name": "D2",
          "ticks": 63744,
          "time": 39.839999999999996,
          "velocity": 0.3937007874015748
        },
        {
          "duration": 0.05999999999999517,
          "durationTicks": 96,
          "midi": 35,
          "name": "B1",
          "ticks": 63936,
          "time": 39.96,
          "velocity": 0.3937007874015748
        },
        {
          "duration": 0.05999999999999517,
          "durationTicks": 96,
          "midi": 35,
          "name": "B1",
          "ticks": 64512,
          "time": 40.32,
          "velocity": 0.3937007874015748
        },
        {
          "duration": 0.060000000000002274,
          "durationTicks": 96,
          "midi": 42,
          "name": "F#2",
          "ticks": 64704,
          "time": 40.44,
          "velocity": 0.3937007874015748
        },
        {
          "duration": 0.060000000000002274,
          "durationTicks": 96,
          "midi": 42,
          "name": "F#2",
          "ticks": 64896,
          "time": 40.559999999999995,
          "velocity": 0.3937007874015748
        },
        {
          "duration": 0.060000000000002274,
          "durationTicks": 96,
          "midi": 35,
          "name": "B1",
          "ticks": 65088,
          "time": 40.68,
          "velocity": 0.3937007874015748
        },
        {
          "duration": 0.060000000000002274,
          "durationTicks": 96,
          "midi": 38,
          "name": "D2",
          "ticks": 65280,
          "time": 40.8,
          "velocity": 0.3937007874015748
        },
        {
          "duration": 0.060000000000002274,
          "durationTicks": 96,
          "midi": 35,
          "name": "B1",
          "ticks": 65664,
          "time": 41.04,
          "velocity": 0.3937007874015748
        },
        {
          "duration": 0.05999999999999517,
          "durationTicks": 96,
          "midi": 42,
          "name": "F#2",
          "ticks": 66048,
          "time": 41.28,
          "velocity": 0.3937007874015748
        },
        {
          "duration": 0.060000000000002274,
          "durationTicks": 96,
          "midi": 42,
          "name": "F#2",
          "ticks": 66240,
          "time": 41.4,
          "velocity": 0.3937007874015748
        },
        {
          "duration": 0.060000000000002274,
          "durationTicks": 96,
          "midi": 35,
          "name": "B1",
          "ticks": 66432,
          "time": 41.519999999999996,
          "velocity": 0.3937007874015748
        },
        {
          "duration": 0.060000000000002274,
          "durationTicks": 96,
          "midi": 38,
          "name": "D2",
          "ticks": 66816,
          "time": 41.76,
          "velocity": 0.3937007874015748
        },
        {
          "duration": 0.060000000000002274,
          "durationTicks": 96,
          "midi": 35,
          "name": "B1",
          "ticks": 67008,
          "time": 41.879999999999995,
          "velocity": 0.3937007874015748
        },
        {
          "duration": 0.060000000000002274,
          "durationTicks": 96,
          "midi": 35,
          "name": "B1",
          "ticks": 67584,
          "time": 42.239999999999995,
          "velocity": 0.3937007874015748
        },
        {
          "duration": 0.060000000000002274,
          "durationTicks": 96,
          "midi": 42,
          "name": "F#2",
          "ticks": 67776,
          "time": 42.36,
          "velocity": 0.3937007874015748
        },
        {
          "duration": 0.060000000000002274,
          "durationTicks": 96,
          "midi": 42,
          "name": "F#2",
          "ticks": 67968,
          "time": 42.48,
          "velocity": 0.3937007874015748
        },
        {
          "duration": 0.05999999999999517,
          "durationTicks": 96,
          "midi": 35,
          "name": "B1",
          "ticks": 68160,
          "time": 42.6,
          "velocity": 0.3937007874015748
        },
        {
          "duration": 0.060000000000002274,
          "durationTicks": 96,
          "midi": 38,
          "name": "D2",
          "ticks": 68352,
          "time": 42.72,
          "velocity": 0.3937007874015748
        },
        {
          "duration": 0.05999999999999517,
          "durationTicks": 96,
          "midi": 35,
          "name": "B1",
          "ticks": 68736,
          "time": 42.96,
          "velocity": 0.3937007874015748
        },
        {
          "duration": 0.060000000000002274,
          "durationTicks": 96,
          "midi": 42,
          "name": "F#2",
          "ticks": 69120,
          "time": 43.199999999999996,
          "velocity": 0.3937007874015748
        },
        {
          "duration": 0.05999999999999517,
          "durationTicks": 96,
          "midi": 42,
          "name": "F#2",
          "ticks": 69312,
          "time": 43.32,
          "velocity": 0.3937007874015748
        },
        {
          "duration": 0.060000000000002274,
          "durationTicks": 96,
          "midi": 35,
          "name": "B1",
          "ticks": 69504,
          "time": 43.44,
          "velocity": 0.3937007874015748
        },
        {
          "duration": 0.05999999999999517,
          "durationTicks": 96,
          "midi": 38,
          "name": "D2",
          "ticks": 69888,
          "time": 43.68,
          "velocity": 0.3937007874015748
        },
        {
          "duration": 0.060000000000002274,
          "durationTicks": 96,
          "midi": 35,
          "name": "B1",
          "ticks": 70080,
          "time": 43.8,
          "velocity": 0.3937007874015748
        },
        {
          "duration": 0.060000000000002274,
          "durationTicks": 96,
          "midi": 35,
          "name": "B1",
          "ticks": 70656,
          "time": 44.16,
          "velocity": 0.3937007874015748
        },
        {
          "duration": 0.05999999999999517,
          "durationTicks": 96,
          "midi": 42,
          "name": "F#2",
          "ticks": 70848,
          "time": 44.28,
          "velocity": 0.3937007874015748
        },
        {
          "duration": 0.060000000000002274,
          "durationTicks": 96,
          "midi": 42,
          "name": "F#2",
          "ticks": 71040,
          "time": 44.4,
          "velocity": 0.3937007874015748
        },
        {
          "duration": 0.060000000000002274,
          "durationTicks": 96,
          "midi": 35,
          "name": "B1",
          "ticks": 71232,
          "time": 44.519999999999996,
          "velocity": 0.3937007874015748
        },
        {
          "duration": 0.05999999999999517,
          "durationTicks": 96,
          "midi": 38,
          "name": "D2",
          "ticks": 71424,
          "time": 44.64,
          "velocity": 0.3937007874015748
        },
        {
          "duration": 0.060000000000002274,
          "durationTicks": 96,
          "midi": 35,
          "name": "B1",
          "ticks": 71808,
          "time": 44.879999999999995,
          "velocity": 0.3937007874015748
        },
        {
          "duration": 0.060000000000002274,
          "durationTicks": 96,
          "midi": 42,
          "name": "F#2",
          "ticks": 72192,
          "time": 45.12,
          "velocity": 0.3937007874015748
        },
        {
          "duration": 0.060000000000002274,
          "durationTicks": 96,
          "midi": 42,
          "name": "F#2",
          "ticks": 72384,
          "time": 45.239999999999995,
          "velocity": 0.3937007874015748
        },
        {
          "duration": 0.060000000000002274,
          "durationTicks": 96,
          "midi": 35,
          "name": "B1",
          "ticks": 72576,
          "time": 45.36,
          "velocity": 0.3937007874015748
        },
        {
          "duration": 0.05999999999999517,
          "durationTicks": 96,
          "midi": 38,
          "name": "D2",
          "ticks": 72960,
          "time": 45.6,
          "velocity": 0.3937007874015748
        },
        {
          "duration": 0.060000000000002274,
          "durationTicks": 96,
          "midi": 35,
          "name": "B1",
          "ticks": 73152,
          "time": 45.72,
          "velocity": 0.3937007874015748
        },
        {
          "duration": 0.060000000000002274,
          "durationTicks": 96,
          "midi": 35,
          "name": "B1",
          "ticks": 73728,
          "time": 46.08,
          "velocity": 0.3937007874015748
        },
        {
          "duration": 0.060000000000002274,
          "durationTicks": 96,
          "midi": 42,
          "name": "F#2",
          "ticks": 73920,
          "time": 46.199999999999996,
          "velocity": 0.3937007874015748
        },
        {
          "duration": 0.05999999999999517,
          "durationTicks": 96,
          "midi": 42,
          "name": "F#2",
          "ticks": 74112,
          "time": 46.32,
          "velocity": 0.3937007874015748
        },
        {
          "duration": 0.060000000000002274,
          "durationTicks": 96,
          "midi": 35,
          "name": "B1",
          "ticks": 74304,
          "time": 46.44,
          "velocity": 0.3937007874015748
        },
        {
          "duration": 0.060000000000002274,
          "durationTicks": 96,
          "midi": 38,
          "name": "D2",
          "ticks": 74496,
          "time": 46.559999999999995,
          "velocity": 0.3937007874015748
        },
        {
          "duration": 0.060000000000002274,
          "durationTicks": 96,
          "midi": 35,
          "name": "B1",
          "ticks": 74880,
          "time": 46.8,
          "velocity": 0.3937007874015748
        },
        {
          "duration": 0.060000000000002274,
          "durationTicks": 96,
          "midi": 42,
          "name": "F#2",
          "ticks": 75264,
          "time": 47.04,
          "velocity": 0.3937007874015748
        },
        {
          "duration": 0.060000000000002274,
          "durationTicks": 96,
          "midi": 42,
          "name": "F#2",
          "ticks": 75456,
          "time": 47.16,
          "velocity": 0.3937007874015748
        },
        {
          "duration": 0.05999999999999517,
          "durationTicks": 96,
          "midi": 35,
          "name": "B1",
          "ticks": 75648,
          "time": 47.28,
          "velocity": 0.3937007874015748
        },
        {
          "duration": 0.060000000000002274,
          "durationTicks": 96,
          "midi": 38,
          "name": "D2",
          "ticks": 76032,
          "time": 47.519999999999996,
          "velocity": 0.3937007874015748
        },
        {
          "duration": 0.05999999999999517,
          "durationTicks": 96,
          "midi": 35,
          "name": "B1",
          "ticks": 76224,
          "time": 47.64,
          "velocity": 0.3937007874015748
        },
        {
          "duration": 0.05999999999999517,
          "durationTicks": 96,
          "midi": 35,
          "name": "B1",
          "ticks": 76800,
          "time": 48,
          "velocity": 0.3937007874015748
        },
        {
          "duration": 0.05999999999999517,
          "durationTicks": 96,
          "midi": 42,
          "name": "F#2",
          "ticks": 76800,
          "time": 48,
          "velocity": 0.3937007874015748
        },
        {
          "duration": 0.060000000000002274,
          "durationTicks": 96,
          "midi": 42,
          "name": "F#2",
          "ticks": 76992,
          "time": 48.12,
          "velocity": 0.3937007874015748
        },
        {
          "duration": 0.060000000000002274,
          "durationTicks": 96,
          "midi": 42,
          "name": "F#2",
          "ticks": 77184,
          "time": 48.239999999999995,
          "velocity": 0.3937007874015748
        },
        {
          "duration": 0.060000000000002274,
          "durationTicks": 96,
          "midi": 42,
          "name": "F#2",
          "ticks": 77376,
          "time": 48.36,
          "velocity": 0.3937007874015748
        },
        {
          "duration": 0.060000000000002274,
          "durationTicks": 96,
          "midi": 38,
          "name": "D2",
          "ticks": 77568,
          "time": 48.48,
          "velocity": 0.3937007874015748
        },
        {
          "duration": 0.060000000000002274,
          "durationTicks": 96,
          "midi": 38,
          "name": "D2",
          "ticks": 77568,
          "time": 48.48,
          "velocity": 0.3937007874015748
        },
        {
          "duration": 0.060000000000002274,
          "durationTicks": 96,
          "midi": 42,
          "name": "F#2",
          "ticks": 77568,
          "time": 48.48,
          "velocity": 0.3937007874015748
        },
        {
          "duration": 0.05999999999999517,
          "durationTicks": 96,
          "midi": 42,
          "name": "F#2",
          "ticks": 77760,
          "time": 48.6,
          "velocity": 0.3937007874015748
        },
        {
          "duration": 0.060000000000002274,
          "durationTicks": 96,
          "midi": 42,
          "name": "F#2",
          "ticks": 77952,
          "time": 48.72,
          "velocity": 0.3937007874015748
        },
        {
          "duration": 0.060000000000002274,
          "durationTicks": 96,
          "midi": 42,
          "name": "F#2",
          "ticks": 78144,
          "time": 48.839999999999996,
          "velocity": 0.3937007874015748
        },
        {
          "duration": 0.05999999999999517,
          "durationTicks": 96,
          "midi": 35,
          "name": "B1",
          "ticks": 78336,
          "time": 48.96,
          "velocity": 0.3937007874015748
        },
        {
          "duration": 0.05999999999999517,
          "durationTicks": 96,
          "midi": 42,
          "name": "F#2",
          "ticks": 78336,
          "time": 48.96,
          "velocity": 0.3937007874015748
        },
        {
          "duration": 0.060000000000002274,
          "durationTicks": 96,
          "midi": 42,
          "name": "F#2",
          "ticks": 78528,
          "time": 49.08,
          "velocity": 0.3937007874015748
        },
        {
          "duration": 0.060000000000002274,
          "durationTicks": 96,
          "midi": 42,
          "name": "F#2",
          "ticks": 78720,
          "time": 49.199999999999996,
          "velocity": 0.3937007874015748
        },
        {
          "duration": 0.05999999999999517,
          "durationTicks": 96,
          "midi": 42,
          "name": "F#2",
          "ticks": 78912,
          "time": 49.32,
          "velocity": 0.3937007874015748
        },
        {
          "duration": 0.060000000000002274,
          "durationTicks": 96,
          "midi": 38,
          "name": "D2",
          "ticks": 79104,
          "time": 49.44,
          "velocity": 0.3937007874015748
        },
        {
          "duration": 0.060000000000002274,
          "durationTicks": 96,
          "midi": 38,
          "name": "D2",
          "ticks": 79104,
          "time": 49.44,
          "velocity": 0.3937007874015748
        },
        {
          "duration": 0.060000000000002274,
          "durationTicks": 96,
          "midi": 42,
          "name": "F#2",
          "ticks": 79104,
          "time": 49.44,
          "velocity": 0.3937007874015748
        },
        {
          "duration": 0.060000000000002274,
          "durationTicks": 96,
          "midi": 42,
          "name": "F#2",
          "ticks": 79296,
          "time": 49.559999999999995,
          "velocity": 0.3937007874015748
        },
        {
          "duration": 0.05999999999999517,
          "durationTicks": 96,
          "midi": 42,
          "name": "F#2",
          "ticks": 79488,
          "time": 49.68,
          "velocity": 0.3937007874015748
        },
        {
          "duration": 0.060000000000002274,
          "durationTicks": 96,
          "midi": 42,
          "name": "F#2",
          "ticks": 79680,
          "time": 49.8,
          "velocity": 0.3937007874015748
        },
        {
          "duration": 0.05999999999999517,
          "durationTicks": 96,
          "midi": 35,
          "name": "B1",
          "ticks": 79872,
          "time": 49.92,
          "velocity": 0.3937007874015748
        },
        {
          "duration": 0.05999999999999517,
          "durationTicks": 96,
          "midi": 42,
          "name": "F#2",
          "ticks": 79872,
          "time": 49.92,
          "velocity": 0.3937007874015748
        },
        {
          "duration": 0.060000000000002274,
          "durationTicks": 96,
          "midi": 42,
          "name": "F#2",
          "ticks": 80064,
          "time": 50.04,
          "velocity": 0.3937007874015748
        },
        {
          "duration": 0.060000000000002274,
          "durationTicks": 96,
          "midi": 42,
          "name": "F#2",
          "ticks": 80256,
          "time": 50.16,
          "velocity": 0.3937007874015748
        },
        {
          "duration": 0.05999999999999517,
          "durationTicks": 96,
          "midi": 42,
          "name": "F#2",
          "ticks": 80448,
          "time": 50.28,
          "velocity": 0.3937007874015748
        },
        {
          "duration": 0.060000000000002274,
          "durationTicks": 96,
          "midi": 38,
          "name": "D2",
          "ticks": 80640,
          "time": 50.4,
          "velocity": 0.3937007874015748
        },
        {
          "duration": 0.060000000000002274,
          "durationTicks": 96,
          "midi": 38,
          "name": "D2",
          "ticks": 80640,
          "time": 50.4,
          "velocity": 0.3937007874015748
        },
        {
          "duration": 0.060000000000002274,
          "durationTicks": 96,
          "midi": 42,
          "name": "F#2",
          "ticks": 80640,
          "time": 50.4,
          "velocity": 0.3937007874015748
        },
        {
          "duration": 0.060000000000002274,
          "durationTicks": 96,
          "midi": 42,
          "name": "F#2",
          "ticks": 80832,
          "time": 50.519999999999996,
          "velocity": 0.3937007874015748
        },
        {
          "duration": 0.05999999999999517,
          "durationTicks": 96,
          "midi": 42,
          "name": "F#2",
          "ticks": 81024,
          "time": 50.64,
          "velocity": 0.3937007874015748
        },
        {
          "duration": 0.060000000000002274,
          "durationTicks": 96,
          "midi": 42,
          "name": "F#2",
          "ticks": 81216,
          "time": 50.76,
          "velocity": 0.3937007874015748
        },
        {
          "duration": 0.060000000000002274,
          "durationTicks": 96,
          "midi": 35,
          "name": "B1",
          "ticks": 81408,
          "time": 50.879999999999995,
          "velocity": 0.3937007874015748
        },
        {
          "duration": 0.060000000000002274,
          "durationTicks": 96,
          "midi": 42,
          "name": "F#2",
          "ticks": 81408,
          "time": 50.879999999999995,
          "velocity": 0.3937007874015748
        },
        {
          "duration": 0.05999999999999517,
          "durationTicks": 96,
          "midi": 42,
          "name": "F#2",
          "ticks": 81600,
          "time": 51,
          "velocity": 0.3937007874015748
        },
        {
          "duration": 0.060000000000002274,
          "durationTicks": 96,
          "midi": 42,
          "name": "F#2",
          "ticks": 81792,
          "time": 51.12,
          "velocity": 0.3937007874015748
        },
        {
          "duration": 0.060000000000002274,
          "durationTicks": 96,
          "midi": 42,
          "name": "F#2",
          "ticks": 81984,
          "time": 51.239999999999995,
          "velocity": 0.3937007874015748
        },
        {
          "duration": 0.05999999999999517,
          "durationTicks": 96,
          "midi": 38,
          "name": "D2",
          "ticks": 82176,
          "time": 51.36,
          "velocity": 0.3937007874015748
        },
        {
          "duration": 0.05999999999999517,
          "durationTicks": 96,
          "midi": 38,
          "name": "D2",
          "ticks": 82176,
          "time": 51.36,
          "velocity": 0.3937007874015748
        },
        {
          "duration": 0.05999999999999517,
          "durationTicks": 96,
          "midi": 42,
          "name": "F#2",
          "ticks": 82176,
          "time": 51.36,
          "velocity": 0.3937007874015748
        },
        {
          "duration": 0.060000000000002274,
          "durationTicks": 96,
          "midi": 42,
          "name": "F#2",
          "ticks": 82368,
          "time": 51.48,
          "velocity": 0.3937007874015748
        },
        {
          "duration": 0.05999999999999517,
          "durationTicks": 96,
          "midi": 42,
          "name": "F#2",
          "ticks": 82560,
          "time": 51.6,
          "velocity": 0.3937007874015748
        },
        {
          "duration": 0.060000000000002274,
          "durationTicks": 96,
          "midi": 42,
          "name": "F#2",
          "ticks": 82752,
          "time": 51.72,
          "velocity": 0.3937007874015748
        },
        {
          "duration": 0.060000000000002274,
          "durationTicks": 96,
          "midi": 42,
          "name": "F#2",
          "ticks": 82944,
          "time": 51.839999999999996,
          "velocity": 0.3937007874015748
        },
        {
          "duration": 0.060000000000002274,
          "durationTicks": 96,
          "midi": 35,
          "name": "B1",
          "ticks": 82944,
          "time": 51.839999999999996,
          "velocity": 0.3937007874015748
        },
        {
          "duration": 0.05999999999999517,
          "durationTicks": 96,
          "midi": 42,
          "name": "F#2",
          "ticks": 83136,
          "time": 51.96,
          "velocity": 0.3937007874015748
        },
        {
          "duration": 0.060000000000002274,
          "durationTicks": 96,
          "midi": 42,
          "name": "F#2",
          "ticks": 83328,
          "time": 52.08,
          "velocity": 0.3937007874015748
        },
        {
          "duration": 0.060000000000002274,
          "durationTicks": 96,
          "midi": 42,
          "name": "F#2",
          "ticks": 83520,
          "time": 52.199999999999996,
          "velocity": 0.3937007874015748
        },
        {
          "duration": 0.05999999999999517,
          "durationTicks": 96,
          "midi": 42,
          "name": "F#2",
          "ticks": 83712,
          "time": 52.32,
          "velocity": 0.3937007874015748
        },
        {
          "duration": 0.05999999999999517,
          "durationTicks": 96,
          "midi": 38,
          "name": "D2",
          "ticks": 83712,
          "time": 52.32,
          "velocity": 0.3937007874015748
        },
        {
          "duration": 0.05999999999999517,
          "durationTicks": 96,
          "midi": 38,
          "name": "D2",
          "ticks": 83712,
          "time": 52.32,
          "velocity": 0.3937007874015748
        },
        {
          "duration": 0.060000000000002274,
          "durationTicks": 96,
          "midi": 42,
          "name": "F#2",
          "ticks": 83904,
          "time": 52.44,
          "velocity": 0.3937007874015748
        },
        {
          "duration": 0.060000000000002274,
          "durationTicks": 96,
          "midi": 42,
          "name": "F#2",
          "ticks": 84096,
          "time": 52.559999999999995,
          "velocity": 0.3937007874015748
        },
        {
          "duration": 0.05999999999999517,
          "durationTicks": 96,
          "midi": 42,
          "name": "F#2",
          "ticks": 84288,
          "time": 52.68,
          "velocity": 0.3937007874015748
        },
        {
          "duration": 0.060000000000002274,
          "durationTicks": 96,
          "midi": 42,
          "name": "F#2",
          "ticks": 84480,
          "time": 52.8,
          "velocity": 0.3937007874015748
        },
        {
          "duration": 0.060000000000002274,
          "durationTicks": 96,
          "midi": 35,
          "name": "B1",
          "ticks": 84480,
          "time": 52.8,
          "velocity": 0.3937007874015748
        },
        {
          "duration": 0.060000000000002274,
          "durationTicks": 96,
          "midi": 42,
          "name": "F#2",
          "ticks": 84672,
          "time": 52.919999999999995,
          "velocity": 0.3937007874015748
        },
        {
          "duration": 0.060000000000002274,
          "durationTicks": 96,
          "midi": 42,
          "name": "F#2",
          "ticks": 84864,
          "time": 53.04,
          "velocity": 0.3937007874015748
        },
        {
          "duration": 0.060000000000002274,
          "durationTicks": 96,
          "midi": 42,
          "name": "F#2",
          "ticks": 85056,
          "time": 53.16,
          "velocity": 0.3937007874015748
        },
        {
          "duration": 0.05999999999999517,
          "durationTicks": 96,
          "midi": 42,
          "name": "F#2",
          "ticks": 85248,
          "time": 53.28,
          "velocity": 0.3937007874015748
        },
        {
          "duration": 0.05999999999999517,
          "durationTicks": 96,
          "midi": 38,
          "name": "D2",
          "ticks": 85248,
          "time": 53.28,
          "velocity": 0.3937007874015748
        },
        {
          "duration": 0.05999999999999517,
          "durationTicks": 96,
          "midi": 38,
          "name": "D2",
          "ticks": 85248,
          "time": 53.28,
          "velocity": 0.3937007874015748
        },
        {
          "duration": 0.060000000000002274,
          "durationTicks": 96,
          "midi": 42,
          "name": "F#2",
          "ticks": 85440,
          "time": 53.4,
          "velocity": 0.3937007874015748
        },
        {
          "duration": 0.060000000000002274,
          "durationTicks": 96,
          "midi": 42,
          "name": "F#2",
          "ticks": 85632,
          "time": 53.519999999999996,
          "velocity": 0.3937007874015748
        },
        {
          "duration": 0.05999999999999517,
          "durationTicks": 96,
          "midi": 42,
          "name": "F#2",
          "ticks": 85824,
          "time": 53.64,
          "velocity": 0.3937007874015748
        },
        {
          "duration": 0.060000000000002274,
          "durationTicks": 96,
          "midi": 42,
          "name": "F#2",
          "ticks": 86016,
          "time": 53.76,
          "velocity": 0.3937007874015748
        },
        {
          "duration": 0.060000000000002274,
          "durationTicks": 96,
          "midi": 35,
          "name": "B1",
          "ticks": 86016,
          "time": 53.76,
          "velocity": 0.3937007874015748
        },
        {
          "duration": 0.060000000000002274,
          "durationTicks": 96,
          "midi": 42,
          "name": "F#2",
          "ticks": 86208,
          "time": 53.879999999999995,
          "velocity": 0.3937007874015748
        },
        {
          "duration": 0.05999999999999517,
          "durationTicks": 96,
          "midi": 42,
          "name": "F#2",
          "ticks": 86400,
          "time": 54,
          "velocity": 0.3937007874015748
        },
        {
          "duration": 0.060000000000002274,
          "durationTicks": 96,
          "midi": 42,
          "name": "F#2",
          "ticks": 86592,
          "time": 54.12,
          "velocity": 0.3937007874015748
        },
        {
          "duration": 0.060000000000002274,
          "durationTicks": 96,
          "midi": 42,
          "name": "F#2",
          "ticks": 86784,
          "time": 54.239999999999995,
          "velocity": 0.3937007874015748
        },
        {
          "duration": 0.060000000000002274,
          "durationTicks": 96,
          "midi": 38,
          "name": "D2",
          "ticks": 86784,
          "time": 54.239999999999995,
          "velocity": 0.3937007874015748
        },
        {
          "duration": 0.060000000000002274,
          "durationTicks": 96,
          "midi": 38,
          "name": "D2",
          "ticks": 86784,
          "time": 54.239999999999995,
          "velocity": 0.3937007874015748
        },
        {
          "duration": 0.05999999999999517,
          "durationTicks": 96,
          "midi": 42,
          "name": "F#2",
          "ticks": 86976,
          "time": 54.36,
          "velocity": 0.3937007874015748
        },
        {
          "duration": 0.060000000000002274,
          "durationTicks": 96,
          "midi": 42,
          "name": "F#2",
          "ticks": 87168,
          "time": 54.48,
          "velocity": 0.3937007874015748
        },
        {
          "duration": 0.05999999999999517,
          "durationTicks": 96,
          "midi": 42,
          "name": "F#2",
          "ticks": 87360,
          "time": 54.6,
          "velocity": 0.3937007874015748
        },
        {
          "duration": 0.060000000000002274,
          "durationTicks": 96,
          "midi": 42,
          "name": "F#2",
          "ticks": 87552,
          "time": 54.72,
          "velocity": 0.3937007874015748
        },
        {
          "duration": 0.060000000000002274,
          "durationTicks": 96,
          "midi": 35,
          "name": "B1",
          "ticks": 87552,
          "time": 54.72,
          "velocity": 0.3937007874015748
        },
        {
          "duration": 0.060000000000002274,
          "durationTicks": 96,
          "midi": 42,
          "name": "F#2",
          "ticks": 87744,
          "time": 54.839999999999996,
          "velocity": 0.3937007874015748
        },
        {
          "duration": 0.05999999999999517,
          "durationTicks": 96,
          "midi": 42,
          "name": "F#2",
          "ticks": 87936,
          "time": 54.96,
          "velocity": 0.3937007874015748
        },
        {
          "duration": 0.060000000000002274,
          "durationTicks": 96,
          "midi": 42,
          "name": "F#2",
          "ticks": 88128,
          "time": 55.08,
          "velocity": 0.3937007874015748
        },
        {
          "duration": 0.060000000000002274,
          "durationTicks": 96,
          "midi": 42,
          "name": "F#2",
          "ticks": 88320,
          "time": 55.199999999999996,
          "velocity": 0.3937007874015748
        },
        {
          "duration": 0.060000000000002274,
          "durationTicks": 96,
          "midi": 38,
          "name": "D2",
          "ticks": 88320,
          "time": 55.199999999999996,
          "velocity": 0.3937007874015748
        },
        {
          "duration": 0.060000000000002274,
          "durationTicks": 96,
          "midi": 38,
          "name": "D2",
          "ticks": 88320,
          "time": 55.199999999999996,
          "velocity": 0.3937007874015748
        },
        {
          "duration": 0.05999999999999517,
          "durationTicks": 96,
          "midi": 42,
          "name": "F#2",
          "ticks": 88512,
          "time": 55.32,
          "velocity": 0.3937007874015748
        },
        {
          "duration": 0.060000000000002274,
          "durationTicks": 96,
          "midi": 42,
          "name": "F#2",
          "ticks": 88704,
          "time": 55.44,
          "velocity": 0.3937007874015748
        },
        {
          "duration": 0.060000000000002274,
          "durationTicks": 96,
          "midi": 42,
          "name": "F#2",
          "ticks": 88896,
          "time": 55.559999999999995,
          "velocity": 0.3937007874015748
        },
        {
          "duration": 0.05999999999999517,
          "durationTicks": 96,
          "midi": 35,
          "name": "B1",
          "ticks": 89088,
          "time": 55.68,
          "velocity": 0.3937007874015748
        },
        {
          "duration": 0.05999999999999517,
          "durationTicks": 96,
          "midi": 42,
          "name": "F#2",
          "ticks": 89088,
          "time": 55.68,
          "velocity": 0.3937007874015748
        },
        {
          "duration": 0.060000000000002274,
          "durationTicks": 96,
          "midi": 42,
          "name": "F#2",
          "ticks": 89280,
          "time": 55.8,
          "velocity": 0.3937007874015748
        },
        {
          "duration": 0.060000000000002274,
          "durationTicks": 96,
          "midi": 42,
          "name": "F#2",
          "ticks": 89472,
          "time": 55.919999999999995,
          "velocity": 0.3937007874015748
        },
        {
          "duration": 0.060000000000002274,
          "durationTicks": 96,
          "midi": 42,
          "name": "F#2",
          "ticks": 89664,
          "time": 56.04,
          "velocity": 0.3937007874015748
        },
        {
          "duration": 0.060000000000002274,
          "durationTicks": 96,
          "midi": 38,
          "name": "D2",
          "ticks": 89856,
          "time": 56.16,
          "velocity": 0.3937007874015748
        },
        {
          "duration": 0.060000000000002274,
          "durationTicks": 96,
          "midi": 38,
          "name": "D2",
          "ticks": 89856,
          "time": 56.16,
          "velocity": 0.3937007874015748
        },
        {
          "duration": 0.060000000000002274,
          "durationTicks": 96,
          "midi": 42,
          "name": "F#2",
          "ticks": 89856,
          "time": 56.16,
          "velocity": 0.3937007874015748
        },
        {
          "duration": 0.05999999999999517,
          "durationTicks": 96,
          "midi": 42,
          "name": "F#2",
          "ticks": 90048,
          "time": 56.28,
          "velocity": 0.3937007874015748
        },
        {
          "duration": 0.060000000000002274,
          "durationTicks": 96,
          "midi": 42,
          "name": "F#2",
          "ticks": 90240,
          "time": 56.4,
          "velocity": 0.3937007874015748
        },
        {
          "duration": 0.060000000000002274,
          "durationTicks": 96,
          "midi": 42,
          "name": "F#2",
          "ticks": 90432,
          "time": 56.519999999999996,
          "velocity": 0.3937007874015748
        },
        {
          "duration": 0.05999999999999517,
          "durationTicks": 96,
          "midi": 35,
          "name": "B1",
          "ticks": 90624,
          "time": 56.64,
          "velocity": 0.3937007874015748
        },
        {
          "duration": 0.05999999999999517,
          "durationTicks": 96,
          "midi": 42,
          "name": "F#2",
          "ticks": 90624,
          "time": 56.64,
          "velocity": 0.3937007874015748
        },
        {
          "duration": 0.060000000000002274,
          "durationTicks": 96,
          "midi": 42,
          "name": "F#2",
          "ticks": 90816,
          "time": 56.76,
          "velocity": 0.3937007874015748
        },
        {
          "duration": 0.060000000000002274,
          "durationTicks": 96,
          "midi": 42,
          "name": "F#2",
          "ticks": 91008,
          "time": 56.879999999999995,
          "velocity": 0.3937007874015748
        },
        {
          "duration": 0.05999999999999517,
          "durationTicks": 96,
          "midi": 42,
          "name": "F#2",
          "ticks": 91200,
          "time": 57,
          "velocity": 0.3937007874015748
        },
        {
          "duration": 0.060000000000002274,
          "durationTicks": 96,
          "midi": 38,
          "name": "D2",
          "ticks": 91392,
          "time": 57.12,
          "velocity": 0.3937007874015748
        },
        {
          "duration": 0.060000000000002274,
          "durationTicks": 96,
          "midi": 38,
          "name": "D2",
          "ticks": 91392,
          "time": 57.12,
          "velocity": 0.3937007874015748
        },
        {
          "duration": 0.060000000000002274,
          "durationTicks": 96,
          "midi": 42,
          "name": "F#2",
          "ticks": 91392,
          "time": 57.12,
          "velocity": 0.3937007874015748
        },
        {
          "duration": 0.060000000000002274,
          "durationTicks": 96,
          "midi": 42,
          "name": "F#2",
          "ticks": 91584,
          "time": 57.239999999999995,
          "velocity": 0.3937007874015748
        },
        {
          "duration": 0.05999999999999517,
          "durationTicks": 96,
          "midi": 42,
          "name": "F#2",
          "ticks": 91776,
          "time": 57.36,
          "velocity": 0.3937007874015748
        },
        {
          "duration": 0.060000000000002274,
          "durationTicks": 96,
          "midi": 42,
          "name": "F#2",
          "ticks": 91968,
          "time": 57.48,
          "velocity": 0.3937007874015748
        },
        {
          "duration": 0.060000000000002274,
          "durationTicks": 96,
          "midi": 35,
          "name": "B1",
          "ticks": 92160,
          "time": 57.599999999999994,
          "velocity": 0.3937007874015748
        },
        {
          "duration": 0.060000000000002274,
          "durationTicks": 96,
          "midi": 42,
          "name": "F#2",
          "ticks": 92160,
          "time": 57.599999999999994,
          "velocity": 0.3937007874015748
        },
        {
          "duration": 0.060000000000002274,
          "durationTicks": 96,
          "midi": 42,
          "name": "F#2",
          "ticks": 92352,
          "time": 57.72,
          "velocity": 0.3937007874015748
        },
        {
          "duration": 0.060000000000002274,
          "durationTicks": 96,
          "midi": 42,
          "name": "F#2",
          "ticks": 92544,
          "time": 57.839999999999996,
          "velocity": 0.3937007874015748
        },
        {
          "duration": 0.05999999999999517,
          "durationTicks": 96,
          "midi": 42,
          "name": "F#2",
          "ticks": 92736,
          "time": 57.96,
          "velocity": 0.3937007874015748
        },
        {
          "duration": 0.060000000000002274,
          "durationTicks": 96,
          "midi": 38,
          "name": "D2",
          "ticks": 92928,
          "time": 58.08,
          "velocity": 0.3937007874015748
        },
        {
          "duration": 0.060000000000002274,
          "durationTicks": 96,
          "midi": 38,
          "name": "D2",
          "ticks": 92928,
          "time": 58.08,
          "velocity": 0.3937007874015748
        },
        {
          "duration": 0.060000000000002274,
          "durationTicks": 96,
          "midi": 42,
          "name": "F#2",
          "ticks": 92928,
          "time": 58.08,
          "velocity": 0.3937007874015748
        },
        {
          "duration": 0.060000000000002274,
          "durationTicks": 96,
          "midi": 42,
          "name": "F#2",
          "ticks": 93120,
          "time": 58.199999999999996,
          "velocity": 0.3937007874015748
        },
        {
          "duration": 0.05999999999999517,
          "durationTicks": 96,
          "midi": 42,
          "name": "F#2",
          "ticks": 93312,
          "time": 58.32,
          "velocity": 0.3937007874015748
        },
        {
          "duration": 0.060000000000002274,
          "durationTicks": 96,
          "midi": 42,
          "name": "F#2",
          "ticks": 93504,
          "time": 58.44,
          "velocity": 0.3937007874015748
        },
        {
          "duration": 0.060000000000002274,
          "durationTicks": 96,
          "midi": 35,
          "name": "B1",
          "ticks": 93696,
          "time": 58.559999999999995,
          "velocity": 0.3937007874015748
        },
        {
          "duration": 0.060000000000002274,
          "durationTicks": 96,
          "midi": 42,
          "name": "F#2",
          "ticks": 93696,
          "time": 58.559999999999995,
          "velocity": 0.3937007874015748
        },
        {
          "duration": 0.05999999999999517,
          "durationTicks": 96,
          "midi": 42,
          "name": "F#2",
          "ticks": 93888,
          "time": 58.68,
          "velocity": 0.3937007874015748
        },
        {
          "duration": 0.060000000000002274,
          "durationTicks": 96,
          "midi": 42,
          "name": "F#2",
          "ticks": 94080,
          "time": 58.8,
          "velocity": 0.3937007874015748
        },
        {
          "duration": 0.060000000000002274,
          "durationTicks": 96,
          "midi": 42,
          "name": "F#2",
          "ticks": 94272,
          "time": 58.919999999999995,
          "velocity": 0.3937007874015748
        },
        {
          "duration": 0.05999999999999517,
          "durationTicks": 96,
          "midi": 38,
          "name": "D2",
          "ticks": 94464,
          "time": 59.04,
          "velocity": 0.3937007874015748
        },
        {
          "duration": 0.05999999999999517,
          "durationTicks": 96,
          "midi": 38,
          "name": "D2",
          "ticks": 94464,
          "time": 59.04,
          "velocity": 0.3937007874015748
        },
        {
          "duration": 0.05999999999999517,
          "durationTicks": 96,
          "midi": 42,
          "name": "F#2",
          "ticks": 94464,
          "time": 59.04,
          "velocity": 0.3937007874015748
        },
        {
          "duration": 0.060000000000002274,
          "durationTicks": 96,
          "midi": 42,
          "name": "F#2",
          "ticks": 94656,
          "time": 59.16,
          "velocity": 0.3937007874015748
        },
        {
          "duration": 0.05999999999999517,
          "durationTicks": 96,
          "midi": 42,
          "name": "F#2",
          "ticks": 94848,
          "time": 59.28,
          "velocity": 0.3937007874015748
        },
        {
          "duration": 0.060000000000002274,
          "durationTicks": 96,
          "midi": 42,
          "name": "F#2",
          "ticks": 95040,
          "time": 59.4,
          "velocity": 0.3937007874015748
        },
        {
          "duration": 0.060000000000002274,
          "durationTicks": 96,
          "midi": 42,
          "name": "F#2",
          "ticks": 95232,
          "time": 59.519999999999996,
          "velocity": 0.3937007874015748
        },
        {
          "duration": 0.060000000000002274,
          "durationTicks": 96,
          "midi": 35,
          "name": "B1",
          "ticks": 95232,
          "time": 59.519999999999996,
          "velocity": 0.3937007874015748
        },
        {
          "duration": 0.05999999999999517,
          "durationTicks": 96,
          "midi": 42,
          "name": "F#2",
          "ticks": 95424,
          "time": 59.64,
          "velocity": 0.3937007874015748
        },
        {
          "duration": 0.060000000000002274,
          "durationTicks": 96,
          "midi": 42,
          "name": "F#2",
          "ticks": 95616,
          "time": 59.76,
          "velocity": 0.3937007874015748
        },
        {
          "duration": 0.060000000000002274,
          "durationTicks": 96,
          "midi": 42,
          "name": "F#2",
          "ticks": 95808,
          "time": 59.879999999999995,
          "velocity": 0.3937007874015748
        },
        {
          "duration": 0.05999999999999517,
          "durationTicks": 96,
          "midi": 42,
          "name": "F#2",
          "ticks": 96000,
          "time": 60,
          "velocity": 0.3937007874015748
        },
        {
          "duration": 0.05999999999999517,
          "durationTicks": 96,
          "midi": 38,
          "name": "D2",
          "ticks": 96000,
          "time": 60,
          "velocity": 0.3937007874015748
        },
        {
          "duration": 0.05999999999999517,
          "durationTicks": 96,
          "midi": 38,
          "name": "D2",
          "ticks": 96000,
          "time": 60,
          "velocity": 0.3937007874015748
        },
        {
          "duration": 0.060000000000002274,
          "durationTicks": 96,
          "midi": 42,
          "name": "F#2",
          "ticks": 96192,
          "time": 60.12,
          "velocity": 0.3937007874015748
        },
        {
          "duration": 0.060000000000002274,
          "durationTicks": 96,
          "midi": 42,
          "name": "F#2",
          "ticks": 96384,
          "time": 60.239999999999995,
          "velocity": 0.3937007874015748
        },
        {
          "duration": 0.05999999999999517,
          "durationTicks": 96,
          "midi": 42,
          "name": "F#2",
          "ticks": 96576,
          "time": 60.36,
          "velocity": 0.3937007874015748
        },
        {
          "duration": 0.060000000000002274,
          "durationTicks": 96,
          "midi": 42,
          "name": "F#2",
          "ticks": 96768,
          "time": 60.48,
          "velocity": 0.3937007874015748
        },
        {
          "duration": 0.060000000000002274,
          "durationTicks": 96,
          "midi": 35,
          "name": "B1",
          "ticks": 96768,
          "time": 60.48,
          "velocity": 0.3937007874015748
        },
        {
          "duration": 0.060000000000002274,
          "durationTicks": 96,
          "midi": 42,
          "name": "F#2",
          "ticks": 96960,
          "time": 60.599999999999994,
          "velocity": 0.3937007874015748
        },
        {
          "duration": 0.060000000000002274,
          "durationTicks": 96,
          "midi": 42,
          "name": "F#2",
          "ticks": 97152,
          "time": 60.72,
          "velocity": 0.3937007874015748
        },
        {
          "duration": 0.060000000000002274,
          "durationTicks": 96,
          "midi": 42,
          "name": "F#2",
          "ticks": 97344,
          "time": 60.839999999999996,
          "velocity": 0.3937007874015748
        },
        {
          "duration": 0.05999999999999517,
          "durationTicks": 96,
          "midi": 42,
          "name": "F#2",
          "ticks": 97536,
          "time": 60.96,
          "velocity": 0.3937007874015748
        },
        {
          "duration": 0.05999999999999517,
          "durationTicks": 96,
          "midi": 38,
          "name": "D2",
          "ticks": 97536,
          "time": 60.96,
          "velocity": 0.3937007874015748
        },
        {
          "duration": 0.05999999999999517,
          "durationTicks": 96,
          "midi": 38,
          "name": "D2",
          "ticks": 97536,
          "time": 60.96,
          "velocity": 0.3937007874015748
        },
        {
          "duration": 0.060000000000002274,
          "durationTicks": 96,
          "midi": 42,
          "name": "F#2",
          "ticks": 97728,
          "time": 61.08,
          "velocity": 0.3937007874015748
        },
        {
          "duration": 0.060000000000002274,
          "durationTicks": 96,
          "midi": 42,
          "name": "F#2",
          "ticks": 97920,
          "time": 61.199999999999996,
          "velocity": 0.3937007874015748
        },
        {
          "duration": 0.05999999999999517,
          "durationTicks": 96,
          "midi": 42,
          "name": "F#2",
          "ticks": 98112,
          "time": 61.32,
          "velocity": 0.3937007874015748
        },
        {
          "duration": 0.060000000000002274,
          "durationTicks": 96,
          "midi": 42,
          "name": "F#2",
          "ticks": 98304,
          "time": 61.44,
          "velocity": 0.3937007874015748
        },
        {
          "duration": 0.060000000000002274,
          "durationTicks": 96,
          "midi": 35,
          "name": "B1",
          "ticks": 98304,
          "time": 61.44,
          "velocity": 0.3937007874015748
        },
        {
          "duration": 0.060000000000002274,
          "durationTicks": 96,
          "midi": 42,
          "name": "F#2",
          "ticks": 98496,
          "time": 61.559999999999995,
          "velocity": 0.3937007874015748
        },
        {
          "duration": 0.05999999999999517,
          "durationTicks": 96,
          "midi": 42,
          "name": "F#2",
          "ticks": 98688,
          "time": 61.68,
          "velocity": 0.3937007874015748
        },
        {
          "duration": 0.060000000000002274,
          "durationTicks": 96,
          "midi": 42,
          "name": "F#2",
          "ticks": 98880,
          "time": 61.8,
          "velocity": 0.3937007874015748
        },
        {
          "duration": 0.060000000000002274,
          "durationTicks": 96,
          "midi": 42,
          "name": "F#2",
          "ticks": 99072,
          "time": 61.919999999999995,
          "velocity": 0.3937007874015748
        },
        {
          "duration": 0.060000000000002274,
          "durationTicks": 96,
          "midi": 38,
          "name": "D2",
          "ticks": 99072,
          "time": 61.919999999999995,
          "velocity": 0.3937007874015748
        },
        {
          "duration": 0.060000000000002274,
          "durationTicks": 96,
          "midi": 38,
          "name": "D2",
          "ticks": 99072,
          "time": 61.919999999999995,
          "velocity": 0.3937007874015748
        },
        {
          "duration": 0.05999999999999517,
          "durationTicks": 96,
          "midi": 42,
          "name": "F#2",
          "ticks": 99264,
          "time": 62.04,
          "velocity": 0.3937007874015748
        },
        {
          "duration": 0.060000000000002274,
          "durationTicks": 96,
          "midi": 42,
          "name": "F#2",
          "ticks": 99456,
          "time": 62.16,
          "velocity": 0.3937007874015748
        },
        {
          "duration": 0.05999999999999517,
          "durationTicks": 96,
          "midi": 42,
          "name": "F#2",
          "ticks": 99648,
          "time": 62.28,
          "velocity": 0.3937007874015748
        },
        {
          "duration": 0.060000000000002274,
          "durationTicks": 96,
          "midi": 42,
          "name": "F#2",
          "ticks": 99840,
          "time": 62.4,
          "velocity": 0.3937007874015748
        },
        {
          "duration": 0.060000000000002274,
          "durationTicks": 96,
          "midi": 35,
          "name": "B1",
          "ticks": 99840,
          "time": 62.4,
          "velocity": 0.3937007874015748
        },
        {
          "duration": 0.060000000000002274,
          "durationTicks": 96,
          "midi": 42,
          "name": "F#2",
          "ticks": 100032,
          "time": 62.519999999999996,
          "velocity": 0.3937007874015748
        },
        {
          "duration": 0.05999999999999517,
          "durationTicks": 96,
          "midi": 42,
          "name": "F#2",
          "ticks": 100224,
          "time": 62.64,
          "velocity": 0.3937007874015748
        },
        {
          "duration": 0.060000000000002274,
          "durationTicks": 96,
          "midi": 42,
          "name": "F#2",
          "ticks": 100416,
          "time": 62.76,
          "velocity": 0.3937007874015748
        },
        {
          "duration": 0.060000000000002274,
          "durationTicks": 96,
          "midi": 42,
          "name": "F#2",
          "ticks": 100608,
          "time": 62.879999999999995,
          "velocity": 0.3937007874015748
        },
        {
          "duration": 0.060000000000002274,
          "durationTicks": 96,
          "midi": 38,
          "name": "D2",
          "ticks": 100608,
          "time": 62.879999999999995,
          "velocity": 0.3937007874015748
        },
        {
          "duration": 0.060000000000002274,
          "durationTicks": 96,
          "midi": 38,
          "name": "D2",
          "ticks": 100608,
          "time": 62.879999999999995,
          "velocity": 0.3937007874015748
        },
        {
          "duration": 0.05999999999999517,
          "durationTicks": 96,
          "midi": 42,
          "name": "F#2",
          "ticks": 100800,
          "time": 63,
          "velocity": 0.3937007874015748
        },
        {
          "duration": 0.060000000000002274,
          "durationTicks": 96,
          "midi": 42,
          "name": "F#2",
          "ticks": 100992,
          "time": 63.12,
          "velocity": 0.3937007874015748
        },
        {
          "duration": 0.060000000000002274,
          "durationTicks": 96,
          "midi": 42,
          "name": "F#2",
          "ticks": 101184,
          "time": 63.239999999999995,
          "velocity": 0.3937007874015748
        },
        {
          "duration": 0.05999999999999517,
          "durationTicks": 96,
          "midi": 36,
          "name": "C2",
          "ticks": 101376,
          "time": 63.36,
          "velocity": 0.3937007874015748
        },
        {
          "duration": 0.05999999999999517,
          "durationTicks": 96,
          "midi": 35,
          "name": "B1",
          "ticks": 101376,
          "time": 63.36,
          "velocity": 0.3937007874015748
        },
        {
          "duration": 0.05999999999999517,
          "durationTicks": 96,
          "midi": 35,
          "name": "B1",
          "ticks": 101376,
          "time": 63.36,
          "velocity": 0.3937007874015748
        },
        {
          "duration": 0.05999999999999517,
          "durationTicks": 96,
          "midi": 42,
          "name": "F#2",
          "ticks": 101376,
          "time": 63.36,
          "velocity": 0.3937007874015748
        },
        {
          "duration": 0.060000000000002274,
          "durationTicks": 96,
          "midi": 42,
          "name": "F#2",
          "ticks": 101568,
          "time": 63.48,
          "velocity": 0.3937007874015748
        },
        {
          "duration": 0.060000000000002274,
          "durationTicks": 96,
          "midi": 42,
          "name": "F#2",
          "ticks": 101760,
          "time": 63.599999999999994,
          "velocity": 0.3937007874015748
        },
        {
          "duration": 0.060000000000002274,
          "durationTicks": 96,
          "midi": 35,
          "name": "B1",
          "ticks": 101952,
          "time": 63.72,
          "velocity": 0.3937007874015748
        },
        {
          "duration": 0.060000000000002274,
          "durationTicks": 96,
          "midi": 36,
          "name": "C2",
          "ticks": 101952,
          "time": 63.72,
          "velocity": 0.3937007874015748
        },
        {
          "duration": 0.060000000000002274,
          "durationTicks": 96,
          "midi": 42,
          "name": "F#2",
          "ticks": 101952,
          "time": 63.72,
          "velocity": 0.3937007874015748
        },
        {
          "duration": 0.060000000000002274,
          "durationTicks": 96,
          "midi": 38,
          "name": "D2",
          "ticks": 102144,
          "time": 63.839999999999996,
          "velocity": 0.3937007874015748
        },
        {
          "duration": 0.060000000000002274,
          "durationTicks": 96,
          "midi": 38,
          "name": "D2",
          "ticks": 102144,
          "time": 63.839999999999996,
          "velocity": 0.3937007874015748
        },
        {
          "duration": 0.060000000000002274,
          "durationTicks": 96,
          "midi": 38,
          "name": "D2",
          "ticks": 102144,
          "time": 63.839999999999996,
          "velocity": 0.3937007874015748
        },
        {
          "duration": 0.060000000000002274,
          "durationTicks": 96,
          "midi": 38,
          "name": "D2",
          "ticks": 102144,
          "time": 63.839999999999996,
          "velocity": 0.3937007874015748
        },
        {
          "duration": 0.060000000000002274,
          "durationTicks": 96,
          "midi": 42,
          "name": "F#2",
          "ticks": 102144,
          "time": 63.839999999999996,
          "velocity": 0.3937007874015748
        },
        {
          "duration": 0.05999999999999517,
          "durationTicks": 96,
          "midi": 42,
          "name": "F#2",
          "ticks": 102336,
          "time": 63.96,
          "velocity": 0.3937007874015748
        },
        {
          "duration": 0.060000000000002274,
          "durationTicks": 96,
          "midi": 35,
          "name": "B1",
          "ticks": 102528,
          "time": 64.08,
          "velocity": 0.3937007874015748
        },
        {
          "duration": 0.060000000000002274,
          "durationTicks": 96,
          "midi": 36,
          "name": "C2",
          "ticks": 102528,
          "time": 64.08,
          "velocity": 0.3937007874015748
        },
        {
          "duration": 0.060000000000002274,
          "durationTicks": 96,
          "midi": 42,
          "name": "F#2",
          "ticks": 102528,
          "time": 64.08,
          "velocity": 0.3937007874015748
        },
        {
          "duration": 0.05999999999998806,
          "durationTicks": 96,
          "midi": 42,
          "name": "F#2",
          "ticks": 102720,
          "time": 64.2,
          "velocity": 0.3937007874015748
        },
        {
          "duration": 0.060000000000002274,
          "durationTicks": 96,
          "midi": 35,
          "name": "B1",
          "ticks": 102912,
          "time": 64.32,
          "velocity": 0.3937007874015748
        },
        {
          "duration": 0.060000000000002274,
          "durationTicks": 96,
          "midi": 42,
          "name": "F#2",
          "ticks": 102912,
          "time": 64.32,
          "velocity": 0.3937007874015748
        },
        {
          "duration": 0.060000000000002274,
          "durationTicks": 96,
          "midi": 42,
          "name": "F#2",
          "ticks": 103104,
          "time": 64.44,
          "velocity": 0.3937007874015748
        },
        {
          "duration": 0.060000000000002274,
          "durationTicks": 96,
          "midi": 35,
          "name": "B1",
          "ticks": 103296,
          "time": 64.56,
          "velocity": 0.3937007874015748
        },
        {
          "duration": 0.060000000000002274,
          "durationTicks": 96,
          "midi": 36,
          "name": "C2",
          "ticks": 103296,
          "time": 64.56,
          "velocity": 0.3937007874015748
        },
        {
          "duration": 0.060000000000002274,
          "durationTicks": 96,
          "midi": 42,
          "name": "F#2",
          "ticks": 103296,
          "time": 64.56,
          "velocity": 0.3937007874015748
        },
        {
          "duration": 0.060000000000002274,
          "durationTicks": 96,
          "midi": 42,
          "name": "F#2",
          "ticks": 103488,
          "time": 64.67999999999999,
          "velocity": 0.3937007874015748
        },
        {
          "duration": 0.060000000000002274,
          "durationTicks": 96,
          "midi": 38,
          "name": "D2",
          "ticks": 103680,
          "time": 64.8,
          "velocity": 0.3937007874015748
        },
        {
          "duration": 0.060000000000002274,
          "durationTicks": 96,
          "midi": 38,
          "name": "D2",
          "ticks": 103680,
          "time": 64.8,
          "velocity": 0.3937007874015748
        },
        {
          "duration": 0.060000000000002274,
          "durationTicks": 96,
          "midi": 38,
          "name": "D2",
          "ticks": 103680,
          "time": 64.8,
          "velocity": 0.3937007874015748
        },
        {
          "duration": 0.060000000000002274,
          "durationTicks": 96,
          "midi": 38,
          "name": "D2",
          "ticks": 103680,
          "time": 64.8,
          "velocity": 0.3937007874015748
        },
        {
          "duration": 0.060000000000002274,
          "durationTicks": 96,
          "midi": 42,
          "name": "F#2",
          "ticks": 103680,
          "time": 64.8,
          "velocity": 0.3937007874015748
        },
        {
          "duration": 0.060000000000002274,
          "durationTicks": 96,
          "midi": 35,
          "name": "B1",
          "ticks": 103872,
          "time": 64.92,
          "velocity": 0.3937007874015748
        },
        {
          "duration": 0.060000000000002274,
          "durationTicks": 96,
          "midi": 36,
          "name": "C2",
          "ticks": 103872,
          "time": 64.92,
          "velocity": 0.3937007874015748
        },
        {
          "duration": 0.060000000000002274,
          "durationTicks": 96,
          "midi": 42,
          "name": "F#2",
          "ticks": 103872,
          "time": 64.92,
          "velocity": 0.3937007874015748
        },
        {
          "duration": 0.060000000000002274,
          "durationTicks": 96,
          "midi": 42,
          "name": "F#2",
          "ticks": 104064,
          "time": 65.03999999999999,
          "velocity": 0.3937007874015748
        },
        {
          "duration": 0.060000000000002274,
          "durationTicks": 96,
          "midi": 42,
          "name": "F#2",
          "ticks": 104256,
          "time": 65.16,
          "velocity": 0.3937007874015748
        },
        {
          "duration": 0.060000000000002274,
          "durationTicks": 96,
          "midi": 36,
          "name": "C2",
          "ticks": 104448,
          "time": 65.28,
          "velocity": 0.3937007874015748
        },
        {
          "duration": 0.060000000000002274,
          "durationTicks": 96,
          "midi": 35,
          "name": "B1",
          "ticks": 104448,
          "time": 65.28,
          "velocity": 0.3937007874015748
        },
        {
          "duration": 0.060000000000002274,
          "durationTicks": 96,
          "midi": 35,
          "name": "B1",
          "ticks": 104448,
          "time": 65.28,
          "velocity": 0.3937007874015748
        },
        {
          "duration": 0.060000000000002274,
          "durationTicks": 96,
          "midi": 42,
          "name": "F#2",
          "ticks": 104448,
          "time": 65.28,
          "velocity": 0.3937007874015748
        },
        {
          "duration": 0.060000000000002274,
          "durationTicks": 96,
          "midi": 42,
          "name": "F#2",
          "ticks": 104640,
          "time": 65.39999999999999,
          "velocity": 0.3937007874015748
        },
        {
          "duration": 0.060000000000002274,
          "durationTicks": 96,
          "midi": 42,
          "name": "F#2",
          "ticks": 104832,
          "time": 65.52,
          "velocity": 0.3937007874015748
        },
        {
          "duration": 0.060000000000002274,
          "durationTicks": 96,
          "midi": 35,
          "name": "B1",
          "ticks": 105024,
          "time": 65.64,
          "velocity": 0.3937007874015748
        },
        {
          "duration": 0.060000000000002274,
          "durationTicks": 96,
          "midi": 36,
          "name": "C2",
          "ticks": 105024,
          "time": 65.64,
          "velocity": 0.3937007874015748
        },
        {
          "duration": 0.060000000000002274,
          "durationTicks": 96,
          "midi": 42,
          "name": "F#2",
          "ticks": 105024,
          "time": 65.64,
          "velocity": 0.3937007874015748
        },
        {
          "duration": 0.060000000000002274,
          "durationTicks": 96,
          "midi": 38,
          "name": "D2",
          "ticks": 105216,
          "time": 65.75999999999999,
          "velocity": 0.3937007874015748
        },
        {
          "duration": 0.060000000000002274,
          "durationTicks": 96,
          "midi": 38,
          "name": "D2",
          "ticks": 105216,
          "time": 65.75999999999999,
          "velocity": 0.3937007874015748
        },
        {
          "duration": 0.060000000000002274,
          "durationTicks": 96,
          "midi": 38,
          "name": "D2",
          "ticks": 105216,
          "time": 65.75999999999999,
          "velocity": 0.3937007874015748
        },
        {
          "duration": 0.060000000000002274,
          "durationTicks": 96,
          "midi": 38,
          "name": "D2",
          "ticks": 105216,
          "time": 65.75999999999999,
          "velocity": 0.3937007874015748
        },
        {
          "duration": 0.060000000000002274,
          "durationTicks": 96,
          "midi": 42,
          "name": "F#2",
          "ticks": 105216,
          "time": 65.75999999999999,
          "velocity": 0.3937007874015748
        },
        {
          "duration": 0.060000000000002274,
          "durationTicks": 96,
          "midi": 42,
          "name": "F#2",
          "ticks": 105408,
          "time": 65.88,
          "velocity": 0.3937007874015748
        },
        {
          "duration": 0.060000000000002274,
          "durationTicks": 96,
          "midi": 35,
          "name": "B1",
          "ticks": 105600,
          "time": 66,
          "velocity": 0.3937007874015748
        },
        {
          "duration": 0.060000000000002274,
          "durationTicks": 96,
          "midi": 36,
          "name": "C2",
          "ticks": 105600,
          "time": 66,
          "velocity": 0.3937007874015748
        },
        {
          "duration": 0.060000000000002274,
          "durationTicks": 96,
          "midi": 42,
          "name": "F#2",
          "ticks": 105600,
          "time": 66,
          "velocity": 0.3937007874015748
        },
        {
          "duration": 0.05999999999998806,
          "durationTicks": 96,
          "midi": 42,
          "name": "F#2",
          "ticks": 105792,
          "time": 66.12,
          "velocity": 0.3937007874015748
        },
        {
          "duration": 0.060000000000002274,
          "durationTicks": 96,
          "midi": 35,
          "name": "B1",
          "ticks": 105984,
          "time": 66.24,
          "velocity": 0.3937007874015748
        },
        {
          "duration": 0.060000000000002274,
          "durationTicks": 96,
          "midi": 42,
          "name": "F#2",
          "ticks": 105984,
          "time": 66.24,
          "velocity": 0.3937007874015748
        },
        {
          "duration": 0.060000000000002274,
          "durationTicks": 96,
          "midi": 42,
          "name": "F#2",
          "ticks": 106176,
          "time": 66.36,
          "velocity": 0.3937007874015748
        },
        {
          "duration": 0.05999999999998806,
          "durationTicks": 96,
          "midi": 35,
          "name": "B1",
          "ticks": 106368,
          "time": 66.48,
          "velocity": 0.3937007874015748
        },
        {
          "duration": 0.05999999999998806,
          "durationTicks": 96,
          "midi": 36,
          "name": "C2",
          "ticks": 106368,
          "time": 66.48,
          "velocity": 0.3937007874015748
        },
        {
          "duration": 0.05999999999998806,
          "durationTicks": 96,
          "midi": 42,
          "name": "F#2",
          "ticks": 106368,
          "time": 66.48,
          "velocity": 0.3937007874015748
        },
        {
          "duration": 0.060000000000002274,
          "durationTicks": 96,
          "midi": 42,
          "name": "F#2",
          "ticks": 106560,
          "time": 66.6,
          "velocity": 0.3937007874015748
        },
        {
          "duration": 0.060000000000002274,
          "durationTicks": 96,
          "midi": 38,
          "name": "D2",
          "ticks": 106752,
          "time": 66.72,
          "velocity": 0.3937007874015748
        },
        {
          "duration": 0.060000000000002274,
          "durationTicks": 96,
          "midi": 38,
          "name": "D2",
          "ticks": 106752,
          "time": 66.72,
          "velocity": 0.3937007874015748
        },
        {
          "duration": 0.060000000000002274,
          "durationTicks": 96,
          "midi": 38,
          "name": "D2",
          "ticks": 106752,
          "time": 66.72,
          "velocity": 0.3937007874015748
        },
        {
          "duration": 0.060000000000002274,
          "durationTicks": 96,
          "midi": 38,
          "name": "D2",
          "ticks": 106752,
          "time": 66.72,
          "velocity": 0.3937007874015748
        },
        {
          "duration": 0.060000000000002274,
          "durationTicks": 96,
          "midi": 42,
          "name": "F#2",
          "ticks": 106752,
          "time": 66.72,
          "velocity": 0.3937007874015748
        },
        {
          "duration": 0.05999999999998806,
          "durationTicks": 96,
          "midi": 35,
          "name": "B1",
          "ticks": 106944,
          "time": 66.84,
          "velocity": 0.3937007874015748
        },
        {
          "duration": 0.05999999999998806,
          "durationTicks": 96,
          "midi": 36,
          "name": "C2",
          "ticks": 106944,
          "time": 66.84,
          "velocity": 0.3937007874015748
        },
        {
          "duration": 0.05999999999998806,
          "durationTicks": 96,
          "midi": 42,
          "name": "F#2",
          "ticks": 106944,
          "time": 66.84,
          "velocity": 0.3937007874015748
        },
        {
          "duration": 0.060000000000002274,
          "durationTicks": 96,
          "midi": 42,
          "name": "F#2",
          "ticks": 107136,
          "time": 66.96,
          "velocity": 0.3937007874015748
        },
        {
          "duration": 0.060000000000002274,
          "durationTicks": 96,
          "midi": 42,
          "name": "F#2",
          "ticks": 107328,
          "time": 67.08,
          "velocity": 0.3937007874015748
        },
        {
          "duration": 0.05999999999998806,
          "durationTicks": 96,
          "midi": 36,
          "name": "C2",
          "ticks": 107520,
          "time": 67.2,
          "velocity": 0.3937007874015748
        },
        {
          "duration": 0.05999999999998806,
          "durationTicks": 96,
          "midi": 35,
          "name": "B1",
          "ticks": 107520,
          "time": 67.2,
          "velocity": 0.3937007874015748
        },
        {
          "duration": 0.05999999999998806,
          "durationTicks": 96,
          "midi": 42,
          "name": "F#2",
          "ticks": 107520,
          "time": 67.2,
          "velocity": 0.3937007874015748
        },
        {
          "duration": 0.05999999999998806,
          "durationTicks": 96,
          "midi": 35,
          "name": "B1",
          "ticks": 107520,
          "time": 67.2,
          "velocity": 0.3937007874015748
        },
        {
          "duration": 0.060000000000002274,
          "durationTicks": 96,
          "midi": 42,
          "name": "F#2",
          "ticks": 107712,
          "time": 67.32,
          "velocity": 0.3937007874015748
        },
        {
          "duration": 0.060000000000002274,
          "durationTicks": 96,
          "midi": 42,
          "name": "F#2",
          "ticks": 107904,
          "time": 67.44,
          "velocity": 0.3937007874015748
        },
        {
          "duration": 0.060000000000002274,
          "durationTicks": 96,
          "midi": 35,
          "name": "B1",
          "ticks": 108096,
          "time": 67.56,
          "velocity": 0.3937007874015748
        },
        {
          "duration": 0.060000000000002274,
          "durationTicks": 96,
          "midi": 36,
          "name": "C2",
          "ticks": 108096,
          "time": 67.56,
          "velocity": 0.3937007874015748
        },
        {
          "duration": 0.060000000000002274,
          "durationTicks": 96,
          "midi": 42,
          "name": "F#2",
          "ticks": 108096,
          "time": 67.56,
          "velocity": 0.3937007874015748
        },
        {
          "duration": 0.060000000000002274,
          "durationTicks": 96,
          "midi": 38,
          "name": "D2",
          "ticks": 108288,
          "time": 67.67999999999999,
          "velocity": 0.3937007874015748
        },
        {
          "duration": 0.060000000000002274,
          "durationTicks": 96,
          "midi": 38,
          "name": "D2",
          "ticks": 108288,
          "time": 67.67999999999999,
          "velocity": 0.3937007874015748
        },
        {
          "duration": 0.060000000000002274,
          "durationTicks": 96,
          "midi": 42,
          "name": "F#2",
          "ticks": 108288,
          "time": 67.67999999999999,
          "velocity": 0.3937007874015748
        },
        {
          "duration": 0.060000000000002274,
          "durationTicks": 96,
          "midi": 38,
          "name": "D2",
          "ticks": 108288,
          "time": 67.67999999999999,
          "velocity": 0.3937007874015748
        },
        {
          "duration": 0.060000000000002274,
          "durationTicks": 96,
          "midi": 38,
          "name": "D2",
          "ticks": 108288,
          "time": 67.67999999999999,
          "velocity": 0.3937007874015748
        },
        {
          "duration": 0.060000000000002274,
          "durationTicks": 96,
          "midi": 42,
          "name": "F#2",
          "ticks": 108480,
          "time": 67.8,
          "velocity": 0.3937007874015748
        },
        {
          "duration": 0.060000000000002274,
          "durationTicks": 96,
          "midi": 35,
          "name": "B1",
          "ticks": 108672,
          "time": 67.92,
          "velocity": 0.3937007874015748
        },
        {
          "duration": 0.060000000000002274,
          "durationTicks": 96,
          "midi": 36,
          "name": "C2",
          "ticks": 108672,
          "time": 67.92,
          "velocity": 0.3937007874015748
        },
        {
          "duration": 0.060000000000002274,
          "durationTicks": 96,
          "midi": 42,
          "name": "F#2",
          "ticks": 108672,
          "time": 67.92,
          "velocity": 0.3937007874015748
        },
        {
          "duration": 0.060000000000002274,
          "durationTicks": 96,
          "midi": 42,
          "name": "F#2",
          "ticks": 108864,
          "time": 68.03999999999999,
          "velocity": 0.3937007874015748
        },
        {
          "duration": 0.060000000000002274,
          "durationTicks": 96,
          "midi": 42,
          "name": "F#2",
          "ticks": 109056,
          "time": 68.16,
          "velocity": 0.3937007874015748
        },
        {
          "duration": 0.060000000000002274,
          "durationTicks": 96,
          "midi": 35,
          "name": "B1",
          "ticks": 109056,
          "time": 68.16,
          "velocity": 0.3937007874015748
        },
        {
          "duration": 0.060000000000002274,
          "durationTicks": 96,
          "midi": 42,
          "name": "F#2",
          "ticks": 109248,
          "time": 68.28,
          "velocity": 0.3937007874015748
        },
        {
          "duration": 0.060000000000002274,
          "durationTicks": 96,
          "midi": 35,
          "name": "B1",
          "ticks": 109440,
          "time": 68.39999999999999,
          "velocity": 0.3937007874015748
        },
        {
          "duration": 0.060000000000002274,
          "durationTicks": 96,
          "midi": 36,
          "name": "C2",
          "ticks": 109440,
          "time": 68.39999999999999,
          "velocity": 0.3937007874015748
        },
        {
          "duration": 0.060000000000002274,
          "durationTicks": 96,
          "midi": 42,
          "name": "F#2",
          "ticks": 109440,
          "time": 68.39999999999999,
          "velocity": 0.3937007874015748
        },
        {
          "duration": 0.060000000000002274,
          "durationTicks": 96,
          "midi": 42,
          "name": "F#2",
          "ticks": 109632,
          "time": 68.52,
          "velocity": 0.3937007874015748
        },
        {
          "duration": 0.060000000000002274,
          "durationTicks": 96,
          "midi": 38,
          "name": "D2",
          "ticks": 109824,
          "time": 68.64,
          "velocity": 0.3937007874015748
        },
        {
          "duration": 0.060000000000002274,
          "durationTicks": 96,
          "midi": 38,
          "name": "D2",
          "ticks": 109824,
          "time": 68.64,
          "velocity": 0.3937007874015748
        },
        {
          "duration": 0.060000000000002274,
          "durationTicks": 96,
          "midi": 42,
          "name": "F#2",
          "ticks": 109824,
          "time": 68.64,
          "velocity": 0.3937007874015748
        },
        {
          "duration": 0.060000000000002274,
          "durationTicks": 96,
          "midi": 38,
          "name": "D2",
          "ticks": 109824,
          "time": 68.64,
          "velocity": 0.3937007874015748
        },
        {
          "duration": 0.060000000000002274,
          "durationTicks": 96,
          "midi": 38,
          "name": "D2",
          "ticks": 109824,
          "time": 68.64,
          "velocity": 0.3937007874015748
        },
        {
          "duration": 0.060000000000002274,
          "durationTicks": 96,
          "midi": 35,
          "name": "B1",
          "ticks": 110016,
          "time": 68.75999999999999,
          "velocity": 0.3937007874015748
        },
        {
          "duration": 0.060000000000002274,
          "durationTicks": 96,
          "midi": 36,
          "name": "C2",
          "ticks": 110016,
          "time": 68.75999999999999,
          "velocity": 0.3937007874015748
        },
        {
          "duration": 0.060000000000002274,
          "durationTicks": 96,
          "midi": 42,
          "name": "F#2",
          "ticks": 110016,
          "time": 68.75999999999999,
          "velocity": 0.3937007874015748
        },
        {
          "duration": 0.060000000000002274,
          "durationTicks": 96,
          "midi": 42,
          "name": "F#2",
          "ticks": 110208,
          "time": 68.88,
          "velocity": 0.3937007874015748
        },
        {
          "duration": 0.060000000000002274,
          "durationTicks": 96,
          "midi": 42,
          "name": "F#2",
          "ticks": 110400,
          "time": 69,
          "velocity": 0.3937007874015748
        },
        {
          "duration": 0.05999999999998806,
          "durationTicks": 96,
          "midi": 36,
          "name": "C2",
          "ticks": 110592,
          "time": 69.12,
          "velocity": 0.3937007874015748
        },
        {
          "duration": 0.05999999999998806,
          "durationTicks": 96,
          "midi": 35,
          "name": "B1",
          "ticks": 110592,
          "time": 69.12,
          "velocity": 0.3937007874015748
        },
        {
          "duration": 0.05999999999998806,
          "durationTicks": 96,
          "midi": 42,
          "name": "F#2",
          "ticks": 110592,
          "time": 69.12,
          "velocity": 0.3937007874015748
        },
        {
          "duration": 0.05999999999998806,
          "durationTicks": 96,
          "midi": 35,
          "name": "B1",
          "ticks": 110592,
          "time": 69.12,
          "velocity": 0.3937007874015748
        },
        {
          "duration": 0.060000000000002274,
          "durationTicks": 96,
          "midi": 42,
          "name": "F#2",
          "ticks": 110784,
          "time": 69.24,
          "velocity": 0.3937007874015748
        },
        {
          "duration": 0.060000000000002274,
          "durationTicks": 96,
          "midi": 42,
          "name": "F#2",
          "ticks": 110976,
          "time": 69.36,
          "velocity": 0.3937007874015748
        },
        {
          "duration": 0.05999999999998806,
          "durationTicks": 96,
          "midi": 35,
          "name": "B1",
          "ticks": 111168,
          "time": 69.48,
          "velocity": 0.3937007874015748
        },
        {
          "duration": 0.05999999999998806,
          "durationTicks": 96,
          "midi": 36,
          "name": "C2",
          "ticks": 111168,
          "time": 69.48,
          "velocity": 0.3937007874015748
        },
        {
          "duration": 0.05999999999998806,
          "durationTicks": 96,
          "midi": 42,
          "name": "F#2",
          "ticks": 111168,
          "time": 69.48,
          "velocity": 0.3937007874015748
        },
        {
          "duration": 0.060000000000002274,
          "durationTicks": 96,
          "midi": 38,
          "name": "D2",
          "ticks": 111360,
          "time": 69.6,
          "velocity": 0.3937007874015748
        },
        {
          "duration": 0.060000000000002274,
          "durationTicks": 96,
          "midi": 38,
          "name": "D2",
          "ticks": 111360,
          "time": 69.6,
          "velocity": 0.3937007874015748
        },
        {
          "duration": 0.060000000000002274,
          "durationTicks": 96,
          "midi": 42,
          "name": "F#2",
          "ticks": 111360,
          "time": 69.6,
          "velocity": 0.3937007874015748
        },
        {
          "duration": 0.060000000000002274,
          "durationTicks": 96,
          "midi": 38,
          "name": "D2",
          "ticks": 111360,
          "time": 69.6,
          "velocity": 0.3937007874015748
        },
        {
          "duration": 0.060000000000002274,
          "durationTicks": 96,
          "midi": 38,
          "name": "D2",
          "ticks": 111360,
          "time": 69.6,
          "velocity": 0.3937007874015748
        },
        {
          "duration": 0.060000000000002274,
          "durationTicks": 96,
          "midi": 42,
          "name": "F#2",
          "ticks": 111552,
          "time": 69.72,
          "velocity": 0.3937007874015748
        },
        {
          "duration": 0.05999999999998806,
          "durationTicks": 96,
          "midi": 35,
          "name": "B1",
          "ticks": 111744,
          "time": 69.84,
          "velocity": 0.3937007874015748
        },
        {
          "duration": 0.05999999999998806,
          "durationTicks": 96,
          "midi": 36,
          "name": "C2",
          "ticks": 111744,
          "time": 69.84,
          "velocity": 0.3937007874015748
        },
        {
          "duration": 0.05999999999998806,
          "durationTicks": 96,
          "midi": 42,
          "name": "F#2",
          "ticks": 111744,
          "time": 69.84,
          "velocity": 0.3937007874015748
        },
        {
          "duration": 0.060000000000002274,
          "durationTicks": 96,
          "midi": 42,
          "name": "F#2",
          "ticks": 111936,
          "time": 69.96,
          "velocity": 0.3937007874015748
        },
        {
          "duration": 0.060000000000002274,
          "durationTicks": 96,
          "midi": 42,
          "name": "F#2",
          "ticks": 112128,
          "time": 70.08,
          "velocity": 0.3937007874015748
        },
        {
          "duration": 0.060000000000002274,
          "durationTicks": 96,
          "midi": 35,
          "name": "B1",
          "ticks": 112128,
          "time": 70.08,
          "velocity": 0.3937007874015748
        },
        {
          "duration": 0.05999999999998806,
          "durationTicks": 96,
          "midi": 42,
          "name": "F#2",
          "ticks": 112320,
          "time": 70.2,
          "velocity": 0.3937007874015748
        },
        {
          "duration": 0.060000000000002274,
          "durationTicks": 96,
          "midi": 35,
          "name": "B1",
          "ticks": 112512,
          "time": 70.32,
          "velocity": 0.3937007874015748
        },
        {
          "duration": 0.060000000000002274,
          "durationTicks": 96,
          "midi": 36,
          "name": "C2",
          "ticks": 112512,
          "time": 70.32,
          "velocity": 0.3937007874015748
        },
        {
          "duration": 0.060000000000002274,
          "durationTicks": 96,
          "midi": 42,
          "name": "F#2",
          "ticks": 112512,
          "time": 70.32,
          "velocity": 0.3937007874015748
        },
        {
          "duration": 0.060000000000002274,
          "durationTicks": 96,
          "midi": 42,
          "name": "F#2",
          "ticks": 112704,
          "time": 70.44,
          "velocity": 0.3937007874015748
        },
        {
          "duration": 0.05999999999998806,
          "durationTicks": 96,
          "midi": 38,
          "name": "D2",
          "ticks": 112896,
          "time": 70.56,
          "velocity": 0.3937007874015748
        },
        {
          "duration": 0.05999999999998806,
          "durationTicks": 96,
          "midi": 38,
          "name": "D2",
          "ticks": 112896,
          "time": 70.56,
          "velocity": 0.3937007874015748
        },
        {
          "duration": 0.05999999999998806,
          "durationTicks": 96,
          "midi": 42,
          "name": "F#2",
          "ticks": 112896,
          "time": 70.56,
          "velocity": 0.3937007874015748
        },
        {
          "duration": 0.05999999999998806,
          "durationTicks": 96,
          "midi": 38,
          "name": "D2",
          "ticks": 112896,
          "time": 70.56,
          "velocity": 0.3937007874015748
        },
        {
          "duration": 0.05999999999998806,
          "durationTicks": 96,
          "midi": 38,
          "name": "D2",
          "ticks": 112896,
          "time": 70.56,
          "velocity": 0.3937007874015748
        },
        {
          "duration": 0.060000000000002274,
          "durationTicks": 96,
          "midi": 35,
          "name": "B1",
          "ticks": 113088,
          "time": 70.67999999999999,
          "velocity": 0.3937007874015748
        },
        {
          "duration": 0.060000000000002274,
          "durationTicks": 96,
          "midi": 36,
          "name": "C2",
          "ticks": 113088,
          "time": 70.67999999999999,
          "velocity": 0.3937007874015748
        },
        {
          "duration": 0.060000000000002274,
          "durationTicks": 96,
          "midi": 42,
          "name": "F#2",
          "ticks": 113088,
          "time": 70.67999999999999,
          "velocity": 0.3937007874015748
        },
        {
          "duration": 0.060000000000002274,
          "durationTicks": 96,
          "midi": 42,
          "name": "F#2",
          "ticks": 113280,
          "time": 70.8,
          "velocity": 0.3937007874015748
        },
        {
          "duration": 0.060000000000002274,
          "durationTicks": 96,
          "midi": 42,
          "name": "F#2",
          "ticks": 113472,
          "time": 70.92,
          "velocity": 0.3937007874015748
        },
        {
          "duration": 0.060000000000002274,
          "durationTicks": 96,
          "midi": 36,
          "name": "C2",
          "ticks": 113664,
          "time": 71.03999999999999,
          "velocity": 0.3937007874015748
        },
        {
          "duration": 0.060000000000002274,
          "durationTicks": 96,
          "midi": 35,
          "name": "B1",
          "ticks": 113664,
          "time": 71.03999999999999,
          "velocity": 0.3937007874015748
        },
        {
          "duration": 0.060000000000002274,
          "durationTicks": 96,
          "midi": 35,
          "name": "B1",
          "ticks": 113664,
          "time": 71.03999999999999,
          "velocity": 0.3937007874015748
        },
        {
          "duration": 0.060000000000002274,
          "durationTicks": 96,
          "midi": 42,
          "name": "F#2",
          "ticks": 113664,
          "time": 71.03999999999999,
          "velocity": 0.3937007874015748
        },
        {
          "duration": 0.060000000000002274,
          "durationTicks": 96,
          "midi": 42,
          "name": "F#2",
          "ticks": 113856,
          "time": 71.16,
          "velocity": 0.3937007874015748
        },
        {
          "duration": 0.060000000000002274,
          "durationTicks": 96,
          "midi": 42,
          "name": "F#2",
          "ticks": 114048,
          "time": 71.28,
          "velocity": 0.3937007874015748
        },
        {
          "duration": 0.060000000000002274,
          "durationTicks": 96,
          "midi": 35,
          "name": "B1",
          "ticks": 114240,
          "time": 71.39999999999999,
          "velocity": 0.3937007874015748
        },
        {
          "duration": 0.060000000000002274,
          "durationTicks": 96,
          "midi": 36,
          "name": "C2",
          "ticks": 114240,
          "time": 71.39999999999999,
          "velocity": 0.3937007874015748
        },
        {
          "duration": 0.060000000000002274,
          "durationTicks": 96,
          "midi": 42,
          "name": "F#2",
          "ticks": 114240,
          "time": 71.39999999999999,
          "velocity": 0.3937007874015748
        },
        {
          "duration": 0.060000000000002274,
          "durationTicks": 96,
          "midi": 38,
          "name": "D2",
          "ticks": 114432,
          "time": 71.52,
          "velocity": 0.3937007874015748
        },
        {
          "duration": 0.060000000000002274,
          "durationTicks": 96,
          "midi": 38,
          "name": "D2",
          "ticks": 114432,
          "time": 71.52,
          "velocity": 0.3937007874015748
        },
        {
          "duration": 0.060000000000002274,
          "durationTicks": 96,
          "midi": 38,
          "name": "D2",
          "ticks": 114432,
          "time": 71.52,
          "velocity": 0.3937007874015748
        },
        {
          "duration": 0.060000000000002274,
          "durationTicks": 96,
          "midi": 38,
          "name": "D2",
          "ticks": 114432,
          "time": 71.52,
          "velocity": 0.3937007874015748
        },
        {
          "duration": 0.060000000000002274,
          "durationTicks": 96,
          "midi": 42,
          "name": "F#2",
          "ticks": 114432,
          "time": 71.52,
          "velocity": 0.3937007874015748
        },
        {
          "duration": 0.060000000000002274,
          "durationTicks": 96,
          "midi": 42,
          "name": "F#2",
          "ticks": 114624,
          "time": 71.64,
          "velocity": 0.3937007874015748
        },
        {
          "duration": 0.060000000000002274,
          "durationTicks": 96,
          "midi": 35,
          "name": "B1",
          "ticks": 114816,
          "time": 71.75999999999999,
          "velocity": 0.3937007874015748
        },
        {
          "duration": 0.060000000000002274,
          "durationTicks": 96,
          "midi": 36,
          "name": "C2",
          "ticks": 114816,
          "time": 71.75999999999999,
          "velocity": 0.3937007874015748
        },
        {
          "duration": 0.060000000000002274,
          "durationTicks": 96,
          "midi": 42,
          "name": "F#2",
          "ticks": 114816,
          "time": 71.75999999999999,
          "velocity": 0.3937007874015748
        },
        {
          "duration": 0.060000000000002274,
          "durationTicks": 96,
          "midi": 42,
          "name": "F#2",
          "ticks": 115008,
          "time": 71.88,
          "velocity": 0.3937007874015748
        },
        {
          "duration": 0.060000000000002274,
          "durationTicks": 96,
          "midi": 35,
          "name": "B1",
          "ticks": 115200,
          "time": 72,
          "velocity": 0.3937007874015748
        },
        {
          "duration": 0.060000000000002274,
          "durationTicks": 96,
          "midi": 42,
          "name": "F#2",
          "ticks": 115200,
          "time": 72,
          "velocity": 0.3937007874015748
        },
        {
          "duration": 0.060000000000002274,
          "durationTicks": 96,
          "midi": 42,
          "name": "F#2",
          "ticks": 115392,
          "time": 72.11999999999999,
          "velocity": 0.3937007874015748
        },
        {
          "duration": 0.060000000000002274,
          "durationTicks": 96,
          "midi": 35,
          "name": "B1",
          "ticks": 115584,
          "time": 72.24,
          "velocity": 0.3937007874015748
        },
        {
          "duration": 0.060000000000002274,
          "durationTicks": 96,
          "midi": 36,
          "name": "C2",
          "ticks": 115584,
          "time": 72.24,
          "velocity": 0.3937007874015748
        },
        {
          "duration": 0.060000000000002274,
          "durationTicks": 96,
          "midi": 42,
          "name": "F#2",
          "ticks": 115584,
          "time": 72.24,
          "velocity": 0.3937007874015748
        },
        {
          "duration": 0.060000000000002274,
          "durationTicks": 96,
          "midi": 42,
          "name": "F#2",
          "ticks": 115776,
          "time": 72.36,
          "velocity": 0.3937007874015748
        },
        {
          "duration": 0.05999999999998806,
          "durationTicks": 96,
          "midi": 38,
          "name": "D2",
          "ticks": 115968,
          "time": 72.48,
          "velocity": 0.3937007874015748
        },
        {
          "duration": 0.05999999999998806,
          "durationTicks": 96,
          "midi": 38,
          "name": "D2",
          "ticks": 115968,
          "time": 72.48,
          "velocity": 0.3937007874015748
        },
        {
          "duration": 0.05999999999998806,
          "durationTicks": 96,
          "midi": 38,
          "name": "D2",
          "ticks": 115968,
          "time": 72.48,
          "velocity": 0.3937007874015748
        },
        {
          "duration": 0.05999999999998806,
          "durationTicks": 96,
          "midi": 38,
          "name": "D2",
          "ticks": 115968,
          "time": 72.48,
          "velocity": 0.3937007874015748
        },
        {
          "duration": 0.05999999999998806,
          "durationTicks": 96,
          "midi": 42,
          "name": "F#2",
          "ticks": 115968,
          "time": 72.48,
          "velocity": 0.3937007874015748
        },
        {
          "duration": 0.060000000000002274,
          "durationTicks": 96,
          "midi": 35,
          "name": "B1",
          "ticks": 116160,
          "time": 72.6,
          "velocity": 0.3937007874015748
        },
        {
          "duration": 0.060000000000002274,
          "durationTicks": 96,
          "midi": 36,
          "name": "C2",
          "ticks": 116160,
          "time": 72.6,
          "velocity": 0.3937007874015748
        },
        {
          "duration": 0.060000000000002274,
          "durationTicks": 96,
          "midi": 42,
          "name": "F#2",
          "ticks": 116160,
          "time": 72.6,
          "velocity": 0.3937007874015748
        },
        {
          "duration": 0.060000000000002274,
          "durationTicks": 96,
          "midi": 42,
          "name": "F#2",
          "ticks": 116352,
          "time": 72.72,
          "velocity": 0.3937007874015748
        },
        {
          "duration": 0.05999999999998806,
          "durationTicks": 96,
          "midi": 42,
          "name": "F#2",
          "ticks": 116544,
          "time": 72.84,
          "velocity": 0.3937007874015748
        },
        {
          "duration": 0.060000000000002274,
          "durationTicks": 96,
          "midi": 36,
          "name": "C2",
          "ticks": 116736,
          "time": 72.96,
          "velocity": 0.3937007874015748
        },
        {
          "duration": 0.060000000000002274,
          "durationTicks": 96,
          "midi": 35,
          "name": "B1",
          "ticks": 116736,
          "time": 72.96,
          "velocity": 0.3937007874015748
        },
        {
          "duration": 0.060000000000002274,
          "durationTicks": 96,
          "midi": 35,
          "name": "B1",
          "ticks": 116736,
          "time": 72.96,
          "velocity": 0.3937007874015748
        },
        {
          "duration": 0.060000000000002274,
          "durationTicks": 96,
          "midi": 42,
          "name": "F#2",
          "ticks": 116736,
          "time": 72.96,
          "velocity": 0.3937007874015748
        },
        {
          "duration": 0.060000000000002274,
          "durationTicks": 96,
          "midi": 42,
          "name": "F#2",
          "ticks": 116928,
          "time": 73.08,
          "velocity": 0.3937007874015748
        },
        {
          "duration": 0.05999999999998806,
          "durationTicks": 96,
          "midi": 42,
          "name": "F#2",
          "ticks": 117120,
          "time": 73.2,
          "velocity": 0.3937007874015748
        },
        {
          "duration": 0.060000000000002274,
          "durationTicks": 96,
          "midi": 35,
          "name": "B1",
          "ticks": 117312,
          "time": 73.32,
          "velocity": 0.3937007874015748
        },
        {
          "duration": 0.060000000000002274,
          "durationTicks": 96,
          "midi": 36,
          "name": "C2",
          "ticks": 117312,
          "time": 73.32,
          "velocity": 0.3937007874015748
        },
        {
          "duration": 0.060000000000002274,
          "durationTicks": 96,
          "midi": 42,
          "name": "F#2",
          "ticks": 117312,
          "time": 73.32,
          "velocity": 0.3937007874015748
        },
        {
          "duration": 0.060000000000002274,
          "durationTicks": 96,
          "midi": 38,
          "name": "D2",
          "ticks": 117504,
          "time": 73.44,
          "velocity": 0.3937007874015748
        },
        {
          "duration": 0.060000000000002274,
          "durationTicks": 96,
          "midi": 38,
          "name": "D2",
          "ticks": 117504,
          "time": 73.44,
          "velocity": 0.3937007874015748
        },
        {
          "duration": 0.060000000000002274,
          "durationTicks": 96,
          "midi": 38,
          "name": "D2",
          "ticks": 117504,
          "time": 73.44,
          "velocity": 0.3937007874015748
        },
        {
          "duration": 0.060000000000002274,
          "durationTicks": 96,
          "midi": 38,
          "name": "D2",
          "ticks": 117504,
          "time": 73.44,
          "velocity": 0.3937007874015748
        },
        {
          "duration": 0.060000000000002274,
          "durationTicks": 96,
          "midi": 42,
          "name": "F#2",
          "ticks": 117504,
          "time": 73.44,
          "velocity": 0.3937007874015748
        },
        {
          "duration": 0.05999999999998806,
          "durationTicks": 96,
          "midi": 42,
          "name": "F#2",
          "ticks": 117696,
          "time": 73.56,
          "velocity": 0.3937007874015748
        },
        {
          "duration": 0.060000000000002274,
          "durationTicks": 96,
          "midi": 35,
          "name": "B1",
          "ticks": 117888,
          "time": 73.67999999999999,
          "velocity": 0.3937007874015748
        },
        {
          "duration": 0.060000000000002274,
          "durationTicks": 96,
          "midi": 36,
          "name": "C2",
          "ticks": 117888,
          "time": 73.67999999999999,
          "velocity": 0.3937007874015748
        },
        {
          "duration": 0.060000000000002274,
          "durationTicks": 96,
          "midi": 42,
          "name": "F#2",
          "ticks": 117888,
          "time": 73.67999999999999,
          "velocity": 0.3937007874015748
        },
        {
          "duration": 0.060000000000002274,
          "durationTicks": 96,
          "midi": 42,
          "name": "F#2",
          "ticks": 118080,
          "time": 73.8,
          "velocity": 0.3937007874015748
        },
        {
          "duration": 0.060000000000002274,
          "durationTicks": 96,
          "midi": 35,
          "name": "B1",
          "ticks": 118272,
          "time": 73.92,
          "velocity": 0.3937007874015748
        },
        {
          "duration": 0.060000000000002274,
          "durationTicks": 96,
          "midi": 42,
          "name": "F#2",
          "ticks": 118272,
          "time": 73.92,
          "velocity": 0.3937007874015748
        },
        {
          "duration": 0.060000000000002274,
          "durationTicks": 96,
          "midi": 42,
          "name": "F#2",
          "ticks": 118464,
          "time": 74.03999999999999,
          "velocity": 0.3937007874015748
        },
        {
          "duration": 0.060000000000002274,
          "durationTicks": 96,
          "midi": 35,
          "name": "B1",
          "ticks": 118656,
          "time": 74.16,
          "velocity": 0.3937007874015748
        },
        {
          "duration": 0.060000000000002274,
          "durationTicks": 96,
          "midi": 36,
          "name": "C2",
          "ticks": 118656,
          "time": 74.16,
          "velocity": 0.3937007874015748
        },
        {
          "duration": 0.060000000000002274,
          "durationTicks": 96,
          "midi": 42,
          "name": "F#2",
          "ticks": 118656,
          "time": 74.16,
          "velocity": 0.3937007874015748
        },
        {
          "duration": 0.060000000000002274,
          "durationTicks": 96,
          "midi": 42,
          "name": "F#2",
          "ticks": 118848,
          "time": 74.28,
          "velocity": 0.3937007874015748
        },
        {
          "duration": 0.060000000000002274,
          "durationTicks": 96,
          "midi": 38,
          "name": "D2",
          "ticks": 119040,
          "time": 74.39999999999999,
          "velocity": 0.3937007874015748
        },
        {
          "duration": 0.060000000000002274,
          "durationTicks": 96,
          "midi": 38,
          "name": "D2",
          "ticks": 119040,
          "time": 74.39999999999999,
          "velocity": 0.3937007874015748
        },
        {
          "duration": 0.060000000000002274,
          "durationTicks": 96,
          "midi": 38,
          "name": "D2",
          "ticks": 119040,
          "time": 74.39999999999999,
          "velocity": 0.3937007874015748
        },
        {
          "duration": 0.060000000000002274,
          "durationTicks": 96,
          "midi": 38,
          "name": "D2",
          "ticks": 119040,
          "time": 74.39999999999999,
          "velocity": 0.3937007874015748
        },
        {
          "duration": 0.060000000000002274,
          "durationTicks": 96,
          "midi": 42,
          "name": "F#2",
          "ticks": 119040,
          "time": 74.39999999999999,
          "velocity": 0.3937007874015748
        },
        {
          "duration": 0.060000000000002274,
          "durationTicks": 96,
          "midi": 35,
          "name": "B1",
          "ticks": 119232,
          "time": 74.52,
          "velocity": 0.3937007874015748
        },
        {
          "duration": 0.060000000000002274,
          "durationTicks": 96,
          "midi": 36,
          "name": "C2",
          "ticks": 119232,
          "time": 74.52,
          "velocity": 0.3937007874015748
        },
        {
          "duration": 0.060000000000002274,
          "durationTicks": 96,
          "midi": 42,
          "name": "F#2",
          "ticks": 119232,
          "time": 74.52,
          "velocity": 0.3937007874015748
        },
        {
          "duration": 0.060000000000002274,
          "durationTicks": 96,
          "midi": 42,
          "name": "F#2",
          "ticks": 119424,
          "time": 74.64,
          "velocity": 0.3937007874015748
        },
        {
          "duration": 0.060000000000002274,
          "durationTicks": 96,
          "midi": 42,
          "name": "F#2",
          "ticks": 119616,
          "time": 74.75999999999999,
          "velocity": 0.3937007874015748
        },
        {
          "duration": 0.060000000000002274,
          "durationTicks": 96,
          "midi": 36,
          "name": "C2",
          "ticks": 119808,
          "time": 74.88,
          "velocity": 0.3937007874015748
        },
        {
          "duration": 0.060000000000002274,
          "durationTicks": 96,
          "midi": 35,
          "name": "B1",
          "ticks": 119808,
          "time": 74.88,
          "velocity": 0.3937007874015748
        },
        {
          "duration": 0.060000000000002274,
          "durationTicks": 96,
          "midi": 42,
          "name": "F#2",
          "ticks": 119808,
          "time": 74.88,
          "velocity": 0.3937007874015748
        },
        {
          "duration": 0.060000000000002274,
          "durationTicks": 96,
          "midi": 35,
          "name": "B1",
          "ticks": 119808,
          "time": 74.88,
          "velocity": 0.3937007874015748
        },
        {
          "duration": 0.060000000000002274,
          "durationTicks": 96,
          "midi": 42,
          "name": "F#2",
          "ticks": 120000,
          "time": 75,
          "velocity": 0.3937007874015748
        },
        {
          "duration": 0.060000000000002274,
          "durationTicks": 96,
          "midi": 42,
          "name": "F#2",
          "ticks": 120192,
          "time": 75.11999999999999,
          "velocity": 0.3937007874015748
        },
        {
          "duration": 0.060000000000002274,
          "durationTicks": 96,
          "midi": 35,
          "name": "B1",
          "ticks": 120384,
          "time": 75.24,
          "velocity": 0.3937007874015748
        },
        {
          "duration": 0.060000000000002274,
          "durationTicks": 96,
          "midi": 36,
          "name": "C2",
          "ticks": 120384,
          "time": 75.24,
          "velocity": 0.3937007874015748
        },
        {
          "duration": 0.060000000000002274,
          "durationTicks": 96,
          "midi": 42,
          "name": "F#2",
          "ticks": 120384,
          "time": 75.24,
          "velocity": 0.3937007874015748
        },
        {
          "duration": 0.060000000000002274,
          "durationTicks": 96,
          "midi": 38,
          "name": "D2",
          "ticks": 120576,
          "time": 75.36,
          "velocity": 0.3937007874015748
        },
        {
          "duration": 0.060000000000002274,
          "durationTicks": 96,
          "midi": 38,
          "name": "D2",
          "ticks": 120576,
          "time": 75.36,
          "velocity": 0.3937007874015748
        },
        {
          "duration": 0.060000000000002274,
          "durationTicks": 96,
          "midi": 42,
          "name": "F#2",
          "ticks": 120576,
          "time": 75.36,
          "velocity": 0.3937007874015748
        },
        {
          "duration": 0.060000000000002274,
          "durationTicks": 96,
          "midi": 38,
          "name": "D2",
          "ticks": 120576,
          "time": 75.36,
          "velocity": 0.3937007874015748
        },
        {
          "duration": 0.060000000000002274,
          "durationTicks": 96,
          "midi": 38,
          "name": "D2",
          "ticks": 120576,
          "time": 75.36,
          "velocity": 0.3937007874015748
        },
        {
          "duration": 0.05999999999998806,
          "durationTicks": 96,
          "midi": 42,
          "name": "F#2",
          "ticks": 120768,
          "time": 75.48,
          "velocity": 0.3937007874015748
        },
        {
          "duration": 0.060000000000002274,
          "durationTicks": 96,
          "midi": 35,
          "name": "B1",
          "ticks": 120960,
          "time": 75.6,
          "velocity": 0.3937007874015748
        },
        {
          "duration": 0.060000000000002274,
          "durationTicks": 96,
          "midi": 36,
          "name": "C2",
          "ticks": 120960,
          "time": 75.6,
          "velocity": 0.3937007874015748
        },
        {
          "duration": 0.060000000000002274,
          "durationTicks": 96,
          "midi": 42,
          "name": "F#2",
          "ticks": 120960,
          "time": 75.6,
          "velocity": 0.3937007874015748
        },
        {
          "duration": 0.060000000000002274,
          "durationTicks": 96,
          "midi": 42,
          "name": "F#2",
          "ticks": 121152,
          "time": 75.72,
          "velocity": 0.3937007874015748
        },
        {
          "duration": 0.05999999999998806,
          "durationTicks": 96,
          "midi": 42,
          "name": "F#2",
          "ticks": 121344,
          "time": 75.84,
          "velocity": 0.3937007874015748
        },
        {
          "duration": 0.05999999999998806,
          "durationTicks": 96,
          "midi": 35,
          "name": "B1",
          "ticks": 121344,
          "time": 75.84,
          "velocity": 0.3937007874015748
        },
        {
          "duration": 0.060000000000002274,
          "durationTicks": 96,
          "midi": 42,
          "name": "F#2",
          "ticks": 121536,
          "time": 75.96,
          "velocity": 0.3937007874015748
        },
        {
          "duration": 0.060000000000002274,
          "durationTicks": 96,
          "midi": 35,
          "name": "B1",
          "ticks": 121728,
          "time": 76.08,
          "velocity": 0.3937007874015748
        },
        {
          "duration": 0.060000000000002274,
          "durationTicks": 96,
          "midi": 36,
          "name": "C2",
          "ticks": 121728,
          "time": 76.08,
          "velocity": 0.3937007874015748
        },
        {
          "duration": 0.060000000000002274,
          "durationTicks": 96,
          "midi": 42,
          "name": "F#2",
          "ticks": 121728,
          "time": 76.08,
          "velocity": 0.3937007874015748
        },
        {
          "duration": 0.05999999999998806,
          "durationTicks": 96,
          "midi": 42,
          "name": "F#2",
          "ticks": 121920,
          "time": 76.2,
          "velocity": 0.3937007874015748
        },
        {
          "duration": 0.060000000000002274,
          "durationTicks": 96,
          "midi": 38,
          "name": "D2",
          "ticks": 122112,
          "time": 76.32,
          "velocity": 0.3937007874015748
        },
        {
          "duration": 0.060000000000002274,
          "durationTicks": 96,
          "midi": 38,
          "name": "D2",
          "ticks": 122112,
          "time": 76.32,
          "velocity": 0.3937007874015748
        },
        {
          "duration": 0.060000000000002274,
          "durationTicks": 96,
          "midi": 42,
          "name": "F#2",
          "ticks": 122112,
          "time": 76.32,
          "velocity": 0.3937007874015748
        },
        {
          "duration": 0.060000000000002274,
          "durationTicks": 96,
          "midi": 38,
          "name": "D2",
          "ticks": 122112,
          "time": 76.32,
          "velocity": 0.3937007874015748
        },
        {
          "duration": 0.060000000000002274,
          "durationTicks": 96,
          "midi": 38,
          "name": "D2",
          "ticks": 122112,
          "time": 76.32,
          "velocity": 0.3937007874015748
        },
        {
          "duration": 0.060000000000002274,
          "durationTicks": 96,
          "midi": 35,
          "name": "B1",
          "ticks": 122304,
          "time": 76.44,
          "velocity": 0.3937007874015748
        },
        {
          "duration": 0.060000000000002274,
          "durationTicks": 96,
          "midi": 36,
          "name": "C2",
          "ticks": 122304,
          "time": 76.44,
          "velocity": 0.3937007874015748
        },
        {
          "duration": 0.060000000000002274,
          "durationTicks": 96,
          "midi": 42,
          "name": "F#2",
          "ticks": 122304,
          "time": 76.44,
          "velocity": 0.3937007874015748
        },
        {
          "duration": 0.05999999999998806,
          "durationTicks": 96,
          "midi": 42,
          "name": "F#2",
          "ticks": 122496,
          "time": 76.56,
          "velocity": 0.3937007874015748
        },
        {
          "duration": 0.060000000000002274,
          "durationTicks": 96,
          "midi": 42,
          "name": "F#2",
          "ticks": 122688,
          "time": 76.67999999999999,
          "velocity": 0.3937007874015748
        },
        {
          "duration": 0.060000000000002274,
          "durationTicks": 96,
          "midi": 36,
          "name": "C2",
          "ticks": 122880,
          "time": 76.8,
          "velocity": 0.3937007874015748
        },
        {
          "duration": 0.060000000000002274,
          "durationTicks": 96,
          "midi": 35,
          "name": "B1",
          "ticks": 122880,
          "time": 76.8,
          "velocity": 0.3937007874015748
        },
        {
          "duration": 0.060000000000002274,
          "durationTicks": 96,
          "midi": 42,
          "name": "F#2",
          "ticks": 122880,
          "time": 76.8,
          "velocity": 0.3937007874015748
        },
        {
          "duration": 0.060000000000002274,
          "durationTicks": 96,
          "midi": 35,
          "name": "B1",
          "ticks": 122880,
          "time": 76.8,
          "velocity": 0.3937007874015748
        },
        {
          "duration": 0.060000000000002274,
          "durationTicks": 96,
          "midi": 42,
          "name": "F#2",
          "ticks": 123072,
          "time": 76.92,
          "velocity": 0.3937007874015748
        },
        {
          "duration": 0.060000000000002274,
          "durationTicks": 96,
          "midi": 42,
          "name": "F#2",
          "ticks": 123264,
          "time": 77.03999999999999,
          "velocity": 0.3937007874015748
        },
        {
          "duration": 0.060000000000002274,
          "durationTicks": 96,
          "midi": 35,
          "name": "B1",
          "ticks": 123456,
          "time": 77.16,
          "velocity": 0.3937007874015748
        },
        {
          "duration": 0.060000000000002274,
          "durationTicks": 96,
          "midi": 36,
          "name": "C2",
          "ticks": 123456,
          "time": 77.16,
          "velocity": 0.3937007874015748
        },
        {
          "duration": 0.060000000000002274,
          "durationTicks": 96,
          "midi": 42,
          "name": "F#2",
          "ticks": 123456,
          "time": 77.16,
          "velocity": 0.3937007874015748
        },
        {
          "duration": 0.060000000000002274,
          "durationTicks": 96,
          "midi": 38,
          "name": "D2",
          "ticks": 123648,
          "time": 77.28,
          "velocity": 0.3937007874015748
        },
        {
          "duration": 0.060000000000002274,
          "durationTicks": 96,
          "midi": 38,
          "name": "D2",
          "ticks": 123648,
          "time": 77.28,
          "velocity": 0.3937007874015748
        },
        {
          "duration": 0.060000000000002274,
          "durationTicks": 96,
          "midi": 42,
          "name": "F#2",
          "ticks": 123648,
          "time": 77.28,
          "velocity": 0.3937007874015748
        },
        {
          "duration": 0.060000000000002274,
          "durationTicks": 96,
          "midi": 38,
          "name": "D2",
          "ticks": 123648,
          "time": 77.28,
          "velocity": 0.3937007874015748
        },
        {
          "duration": 0.060000000000002274,
          "durationTicks": 96,
          "midi": 38,
          "name": "D2",
          "ticks": 123648,
          "time": 77.28,
          "velocity": 0.3937007874015748
        },
        {
          "duration": 0.060000000000002274,
          "durationTicks": 96,
          "midi": 42,
          "name": "F#2",
          "ticks": 123840,
          "time": 77.39999999999999,
          "velocity": 0.3937007874015748
        },
        {
          "duration": 0.060000000000002274,
          "durationTicks": 96,
          "midi": 35,
          "name": "B1",
          "ticks": 124032,
          "time": 77.52,
          "velocity": 0.3937007874015748
        },
        {
          "duration": 0.060000000000002274,
          "durationTicks": 96,
          "midi": 36,
          "name": "C2",
          "ticks": 124032,
          "time": 77.52,
          "velocity": 0.3937007874015748
        },
        {
          "duration": 0.060000000000002274,
          "durationTicks": 96,
          "midi": 42,
          "name": "F#2",
          "ticks": 124032,
          "time": 77.52,
          "velocity": 0.3937007874015748
        },
        {
          "duration": 0.060000000000002274,
          "durationTicks": 96,
          "midi": 42,
          "name": "F#2",
          "ticks": 124224,
          "time": 77.64,
          "velocity": 0.3937007874015748
        },
        {
          "duration": 0.060000000000002274,
          "durationTicks": 96,
          "midi": 42,
          "name": "F#2",
          "ticks": 124416,
          "time": 77.75999999999999,
          "velocity": 0.3937007874015748
        },
        {
          "duration": 0.060000000000002274,
          "durationTicks": 96,
          "midi": 35,
          "name": "B1",
          "ticks": 124416,
          "time": 77.75999999999999,
          "velocity": 0.3937007874015748
        },
        {
          "duration": 0.060000000000002274,
          "durationTicks": 96,
          "midi": 42,
          "name": "F#2",
          "ticks": 124608,
          "time": 77.88,
          "velocity": 0.3937007874015748
        },
        {
          "duration": 0.060000000000002274,
          "durationTicks": 96,
          "midi": 35,
          "name": "B1",
          "ticks": 124800,
          "time": 78,
          "velocity": 0.3937007874015748
        },
        {
          "duration": 0.060000000000002274,
          "durationTicks": 96,
          "midi": 36,
          "name": "C2",
          "ticks": 124800,
          "time": 78,
          "velocity": 0.3937007874015748
        },
        {
          "duration": 0.060000000000002274,
          "durationTicks": 96,
          "midi": 42,
          "name": "F#2",
          "ticks": 124800,
          "time": 78,
          "velocity": 0.3937007874015748
        },
        {
          "duration": 0.060000000000002274,
          "durationTicks": 96,
          "midi": 42,
          "name": "F#2",
          "ticks": 124992,
          "time": 78.11999999999999,
          "velocity": 0.3937007874015748
        },
        {
          "duration": 0.060000000000002274,
          "durationTicks": 96,
          "midi": 38,
          "name": "D2",
          "ticks": 125184,
          "time": 78.24,
          "velocity": 0.3937007874015748
        },
        {
          "duration": 0.060000000000002274,
          "durationTicks": 96,
          "midi": 38,
          "name": "D2",
          "ticks": 125184,
          "time": 78.24,
          "velocity": 0.3937007874015748
        },
        {
          "duration": 0.060000000000002274,
          "durationTicks": 96,
          "midi": 42,
          "name": "F#2",
          "ticks": 125184,
          "time": 78.24,
          "velocity": 0.3937007874015748
        },
        {
          "duration": 0.060000000000002274,
          "durationTicks": 96,
          "midi": 38,
          "name": "D2",
          "ticks": 125184,
          "time": 78.24,
          "velocity": 0.3937007874015748
        },
        {
          "duration": 0.060000000000002274,
          "durationTicks": 96,
          "midi": 38,
          "name": "D2",
          "ticks": 125184,
          "time": 78.24,
          "velocity": 0.3937007874015748
        },
        {
          "duration": 0.060000000000002274,
          "durationTicks": 96,
          "midi": 35,
          "name": "B1",
          "ticks": 125376,
          "time": 78.36,
          "velocity": 0.3937007874015748
        },
        {
          "duration": 0.060000000000002274,
          "durationTicks": 96,
          "midi": 36,
          "name": "C2",
          "ticks": 125376,
          "time": 78.36,
          "velocity": 0.3937007874015748
        },
        {
          "duration": 0.060000000000002274,
          "durationTicks": 96,
          "midi": 42,
          "name": "F#2",
          "ticks": 125376,
          "time": 78.36,
          "velocity": 0.3937007874015748
        },
        {
          "duration": 0.05999999999998806,
          "durationTicks": 96,
          "midi": 42,
          "name": "F#2",
          "ticks": 125568,
          "time": 78.48,
          "velocity": 0.3937007874015748
        },
        {
          "duration": 0.060000000000002274,
          "durationTicks": 96,
          "midi": 42,
          "name": "F#2",
          "ticks": 125760,
          "time": 78.6,
          "velocity": 0.3937007874015748
        }
      ],
      "endOfTrackTicks": 125856
    },
    {
      "channel": 0,
      "controlChanges": {},
      "pitchBends": [],
      "instrument": {
        "family": "synth lead",
        "number": 80,
        "name": "lead 1 (square)"
      },
      "name": "Smooth Synth",
      "notes": [
        {
          "duration": 1.92,
          "durationTicks": 3072,
          "midi": 26,
          "name": "D1",
          "ticks": 3072,
          "time": 1.92,
          "velocity": 0.3937007874015748
        },
        {
          "duration": 1.92,
          "durationTicks": 3072,
          "midi": 27,
          "name": "D#1",
          "ticks": 6144,
          "time": 3.84,
          "velocity": 0.3937007874015748
        },
        {
          "duration": 1.92,
          "durationTicks": 3072,
          "midi": 24,
          "name": "C1",
          "ticks": 9216,
          "time": 5.76,
          "velocity": 0.3937007874015748
        },
        {
          "duration": 1.92,
          "durationTicks": 3072,
          "midi": 31,
          "name": "G1",
          "ticks": 12288,
          "time": 7.68,
          "velocity": 0.3937007874015748
        },
        {
          "duration": 1.92,
          "durationTicks": 3072,
          "midi": 26,
          "name": "D1",
          "ticks": 15360,
          "time": 9.6,
          "velocity": 0.3937007874015748
        },
        {
          "duration": 1.92,
          "durationTicks": 3072,
          "midi": 27,
          "name": "D#1",
          "ticks": 18432,
          "time": 11.52,
          "velocity": 0.3937007874015748
        },
        {
          "duration": 1.92,
          "durationTicks": 3072,
          "midi": 24,
          "name": "C1",
          "ticks": 21504,
          "time": 13.44,
          "velocity": 0.3937007874015748
        },
        {
          "duration": 1.9200000000000017,
          "durationTicks": 3072,
          "midi": 31,
          "name": "G1",
          "ticks": 24576,
          "time": 15.36,
          "velocity": 0.3937007874015748
        },
        {
          "duration": 1.9199999999999982,
          "durationTicks": 3072,
          "midi": 26,
          "name": "D1",
          "ticks": 27648,
          "time": 17.28,
          "velocity": 0.3937007874015748
        },
        {
          "duration": 1.9199999999999982,
          "durationTicks": 3072,
          "midi": 27,
          "name": "D#1",
          "ticks": 30720,
          "time": 19.2,
          "velocity": 0.3937007874015748
        },
        {
          "duration": 1.9200000000000017,
          "durationTicks": 3072,
          "midi": 24,
          "name": "C1",
          "ticks": 33792,
          "time": 21.119999999999997,
          "velocity": 0.3937007874015748
        },
        {
          "duration": 1.9200000000000017,
          "durationTicks": 3072,
          "midi": 31,
          "name": "G1",
          "ticks": 36864,
          "time": 23.04,
          "velocity": 0.3937007874015748
        },
        {
          "duration": 1.9199999999999982,
          "durationTicks": 3072,
          "midi": 26,
          "name": "D1",
          "ticks": 39936,
          "time": 24.96,
          "velocity": 0.3937007874015748
        },
        {
          "duration": 1.9199999999999982,
          "durationTicks": 3072,
          "midi": 27,
          "name": "D#1",
          "ticks": 43008,
          "time": 26.88,
          "velocity": 0.3937007874015748
        },
        {
          "duration": 1.9200000000000017,
          "durationTicks": 3072,
          "midi": 24,
          "name": "C1",
          "ticks": 46080,
          "time": 28.799999999999997,
          "velocity": 0.3937007874015748
        },
        {
          "duration": 1.9200000000000017,
          "durationTicks": 3072,
          "midi": 31,
          "name": "G1",
          "ticks": 49152,
          "time": 30.72,
          "velocity": 0.3937007874015748
        },
        {
          "duration": 1.9200000000000017,
          "durationTicks": 3072,
          "midi": 26,
          "name": "D1",
          "ticks": 52224,
          "time": 32.64,
          "velocity": 0.3937007874015748
        },
        {
          "duration": 1.9199999999999946,
          "durationTicks": 3072,
          "midi": 27,
          "name": "D#1",
          "ticks": 55296,
          "time": 34.56,
          "velocity": 0.3937007874015748
        },
        {
          "duration": 1.9200000000000017,
          "durationTicks": 3072,
          "midi": 24,
          "name": "C1",
          "ticks": 58368,
          "time": 36.48,
          "velocity": 0.3937007874015748
        },
        {
          "duration": 1.9200000000000017,
          "durationTicks": 3072,
          "midi": 31,
          "name": "G1",
          "ticks": 61440,
          "time": 38.4,
          "velocity": 0.3937007874015748
        },
        {
          "duration": 1.9199999999999946,
          "durationTicks": 3072,
          "midi": 26,
          "name": "D1",
          "ticks": 64512,
          "time": 40.32,
          "velocity": 0.3937007874015748
        },
        {
          "duration": 1.9200000000000017,
          "durationTicks": 3072,
          "midi": 27,
          "name": "D#1",
          "ticks": 67584,
          "time": 42.239999999999995,
          "velocity": 0.3937007874015748
        },
        {
          "duration": 1.9200000000000017,
          "durationTicks": 3072,
          "midi": 24,
          "name": "C1",
          "ticks": 70656,
          "time": 44.16,
          "velocity": 0.3937007874015748
        },
        {
          "duration": 1.9200000000000017,
          "durationTicks": 3072,
          "midi": 31,
          "name": "G1",
          "ticks": 73728,
          "time": 46.08,
          "velocity": 0.3937007874015748
        },
        {
          "duration": 1.9200000000000017,
          "durationTicks": 3072,
          "midi": 26,
          "name": "D1",
          "ticks": 76800,
          "time": 48,
          "velocity": 0.3937007874015748
        },
        {
          "duration": 1.9200000000000017,
          "durationTicks": 3072,
          "midi": 38,
          "name": "D2",
          "ticks": 76800,
          "time": 48,
          "velocity": 0.3937007874015748
        },
        {
          "duration": 1.9199999999999946,
          "durationTicks": 3072,
          "midi": 27,
          "name": "D#1",
          "ticks": 79872,
          "time": 49.92,
          "velocity": 0.3937007874015748
        },
        {
          "duration": 1.9199999999999946,
          "durationTicks": 3072,
          "midi": 39,
          "name": "D#2",
          "ticks": 79872,
          "time": 49.92,
          "velocity": 0.3937007874015748
        },
        {
          "duration": 1.9200000000000017,
          "durationTicks": 3072,
          "midi": 24,
          "name": "C1",
          "ticks": 82944,
          "time": 51.839999999999996,
          "velocity": 0.3937007874015748
        },
        {
          "duration": 1.9200000000000017,
          "durationTicks": 3072,
          "midi": 36,
          "name": "C2",
          "ticks": 82944,
          "time": 51.839999999999996,
          "velocity": 0.3937007874015748
        },
        {
          "duration": 1.9200000000000017,
          "durationTicks": 3072,
          "midi": 31,
          "name": "G1",
          "ticks": 86016,
          "time": 53.76,
          "velocity": 0.3937007874015748
        },
        {
          "duration": 1.9200000000000017,
          "durationTicks": 3072,
          "midi": 43,
          "name": "G2",
          "ticks": 86016,
          "time": 53.76,
          "velocity": 0.3937007874015748
        },
        {
          "duration": 1.9199999999999946,
          "durationTicks": 3072,
          "midi": 26,
          "name": "D1",
          "ticks": 89088,
          "time": 55.68,
          "velocity": 0.3937007874015748
        },
        {
          "duration": 1.9199999999999946,
          "durationTicks": 3072,
          "midi": 38,
          "name": "D2",
          "ticks": 89088,
          "time": 55.68,
          "velocity": 0.3937007874015748
        },
        {
          "duration": 1.9200000000000017,
          "durationTicks": 3072,
          "midi": 27,
          "name": "D#1",
          "ticks": 92160,
          "time": 57.599999999999994,
          "velocity": 0.3937007874015748
        },
        {
          "duration": 1.9200000000000017,
          "durationTicks": 3072,
          "midi": 39,
          "name": "D#2",
          "ticks": 92160,
          "time": 57.599999999999994,
          "velocity": 0.3937007874015748
        },
        {
          "duration": 1.9200000000000017,
          "durationTicks": 3072,
          "midi": 24,
          "name": "C1",
          "ticks": 95232,
          "time": 59.519999999999996,
          "velocity": 0.3937007874015748
        },
        {
          "duration": 1.9200000000000017,
          "durationTicks": 3072,
          "midi": 36,
          "name": "C2",
          "ticks": 95232,
          "time": 59.519999999999996,
          "velocity": 0.3937007874015748
        },
        {
          "duration": 1.9200000000000017,
          "durationTicks": 3072,
          "midi": 31,
          "name": "G1",
          "ticks": 98304,
          "time": 61.44,
          "velocity": 0.3937007874015748
        },
        {
          "duration": 1.9200000000000017,
          "durationTicks": 3072,
          "midi": 43,
          "name": "G2",
          "ticks": 98304,
          "time": 61.44,
          "velocity": 0.3937007874015748
        },
        {
          "duration": 1.9200000000000017,
          "durationTicks": 3072,
          "midi": 26,
          "name": "D1",
          "ticks": 101376,
          "time": 63.36,
          "velocity": 0.3937007874015748
        },
        {
          "duration": 1.9200000000000017,
          "durationTicks": 3072,
          "midi": 38,
          "name": "D2",
          "ticks": 101376,
          "time": 63.36,
          "velocity": 0.3937007874015748
        },
        {
          "duration": 1.4400000000000048,
          "durationTicks": 2304,
          "midi": 69,
          "name": "A4",
          "ticks": 102144,
          "time": 63.839999999999996,
          "velocity": 0.3937007874015748
        },
        {
          "duration": 1.9200000000000017,
          "durationTicks": 3072,
          "midi": 27,
          "name": "D#1",
          "ticks": 104448,
          "time": 65.28,
          "velocity": 0.3937007874015748
        },
        {
          "duration": 1.9200000000000017,
          "durationTicks": 3072,
          "midi": 39,
          "name": "D#2",
          "ticks": 104448,
          "time": 65.28,
          "velocity": 0.3937007874015748
        },
        {
          "duration": 1.9200000000000017,
          "durationTicks": 3072,
          "midi": 70,
          "name": "A#4",
          "ticks": 104448,
          "time": 65.28,
          "velocity": 0.3937007874015748
        },
        {
          "duration": 1.9200000000000017,
          "durationTicks": 3072,
          "midi": 24,
          "name": "C1",
          "ticks": 107520,
          "time": 67.2,
          "velocity": 0.3937007874015748
        },
        {
          "duration": 1.9200000000000017,
          "durationTicks": 3072,
          "midi": 36,
          "name": "C2",
          "ticks": 107520,
          "time": 67.2,
          "velocity": 0.3937007874015748
        },
        {
          "duration": 1.4399999999999977,
          "durationTicks": 2304,
          "midi": 60,
          "name": "C4",
          "ticks": 107520,
          "time": 67.2,
          "velocity": 0.3937007874015748
        },
        {
          "duration": 0.480000000000004,
          "durationTicks": 768,
          "midi": 67,
          "name": "G4",
          "ticks": 109824,
          "time": 68.64,
          "velocity": 0.3937007874015748
        },
        {
          "duration": 1.9199999999999875,
          "durationTicks": 3072,
          "midi": 31,
          "name": "G1",
          "ticks": 110592,
          "time": 69.12,
          "velocity": 0.3937007874015748
        },
        {
          "duration": 1.9199999999999875,
          "durationTicks": 3072,
          "midi": 43,
          "name": "G2",
          "ticks": 110592,
          "time": 69.12,
          "velocity": 0.3937007874015748
        },
        {
          "duration": 1.4399999999999977,
          "durationTicks": 2304,
          "midi": 62,
          "name": "D4",
          "ticks": 110592,
          "time": 69.12,
          "velocity": 0.3937007874015748
        },
        {
          "duration": 1.9200000000000017,
          "durationTicks": 3072,
          "midi": 26,
          "name": "D1",
          "ticks": 113664,
          "time": 71.03999999999999,
          "velocity": 0.3937007874015748
        },
        {
          "duration": 1.9200000000000017,
          "durationTicks": 3072,
          "midi": 38,
          "name": "D2",
          "ticks": 113664,
          "time": 71.03999999999999,
          "velocity": 0.3937007874015748
        },
        {
          "duration": 1.440000000000012,
          "durationTicks": 2304,
          "midi": 65,
          "name": "F4",
          "ticks": 113664,
          "time": 71.03999999999999,
          "velocity": 0.3937007874015748
        },
        {
          "duration": 0.47999999999998977,
          "durationTicks": 768,
          "midi": 67,
          "name": "G4",
          "ticks": 115968,
          "time": 72.48,
          "velocity": 0.3937007874015748
        },
        {
          "duration": 1.9200000000000017,
          "durationTicks": 3072,
          "midi": 27,
          "name": "D#1",
          "ticks": 116736,
          "time": 72.96,
          "velocity": 0.3937007874015748
        },
        {
          "duration": 1.9200000000000017,
          "durationTicks": 3072,
          "midi": 39,
          "name": "D#2",
          "ticks": 116736,
          "time": 72.96,
          "velocity": 0.3937007874015748
        },
        {
          "duration": 1.9200000000000017,
          "durationTicks": 3072,
          "midi": 58,
          "name": "A#3",
          "ticks": 116736,
          "time": 72.96,
          "velocity": 0.3937007874015748
        },
        {
          "duration": 1.9200000000000017,
          "durationTicks": 3072,
          "midi": 24,
          "name": "C1",
          "ticks": 119808,
          "time": 74.88,
          "velocity": 0.3937007874015748
        },
        {
          "duration": 1.9200000000000017,
          "durationTicks": 3072,
          "midi": 36,
          "name": "C2",
          "ticks": 119808,
          "time": 74.88,
          "velocity": 0.3937007874015748
        },
        {
          "duration": 1.4399999999999977,
          "durationTicks": 2304,
          "midi": 57,
          "name": "A3",
          "ticks": 119808,
          "time": 74.88,
          "velocity": 0.3937007874015748
        },
        {
          "duration": 0.480000000000004,
          "durationTicks": 768,
          "midi": 63,
          "name": "D#4",
          "ticks": 122112,
          "time": 76.32,
          "velocity": 0.3937007874015748
        },
        {
          "duration": 1.9200000000000017,
          "durationTicks": 3072,
          "midi": 31,
          "name": "G1",
          "ticks": 122880,
          "time": 76.8,
          "velocity": 0.3937007874015748
        },
        {
          "duration": 1.9200000000000017,
          "durationTicks": 3072,
          "midi": 43,
          "name": "G2",
          "ticks": 122880,
          "time": 76.8,
          "velocity": 0.3937007874015748
        },
        {
          "duration": 1.9200000000000017,
          "durationTicks": 3072,
          "midi": 62,
          "name": "D4",
          "ticks": 122880,
          "time": 76.8,
          "velocity": 0.3937007874015748
        }
      ],
      "endOfTrackTicks": 125952
    },
    {
      "channel": 1,
      "controlChanges": {},
      "pitchBends": [],
      "instrument": {
        "family": "piano",
        "number": 0,
        "name": "acoustic grand piano"
      },
      "name": "Electric Piano",
      "notes": [
        {
          "duration": 0.2400000000000002,
          "durationTicks": 384,
          "midi": 65,
          "name": "F4",
          "ticks": 9216,
          "time": 5.76,
          "velocity": 0.3937007874015748
        },
        {
          "duration": 0.2400000000000002,
          "durationTicks": 384,
          "midi": 70,
          "name": "A#4",
          "ticks": 9600,
          "time": 6,
          "velocity": 0.3937007874015748
        },
        {
          "duration": 0.23999999999999932,
          "durationTicks": 384,
          "midi": 70,
          "name": "A#4",
          "ticks": 9984,
          "time": 6.24,
          "velocity": 0.3937007874015748
        },
        {
          "duration": 0.2400000000000002,
          "durationTicks": 384,
          "midi": 75,
          "name": "D#5",
          "ticks": 10368,
          "time": 6.4799999999999995,
          "velocity": 0.3937007874015748
        },
        {
          "duration": 0.2400000000000002,
          "durationTicks": 384,
          "midi": 74,
          "name": "D5",
          "ticks": 10752,
          "time": 6.72,
          "velocity": 0.3937007874015748
        },
        {
          "duration": 0.2400000000000002,
          "durationTicks": 384,
          "midi": 70,
          "name": "A#4",
          "ticks": 10752,
          "time": 6.72,
          "velocity": 0.3937007874015748
        },
        {
          "duration": 0.23999999999999932,
          "durationTicks": 384,
          "midi": 75,
          "name": "D#5",
          "ticks": 11136,
          "time": 6.96,
          "velocity": 0.3937007874015748
        },
        {
          "duration": 0.2400000000000002,
          "durationTicks": 384,
          "midi": 74,
          "name": "D5",
          "ticks": 11520,
          "time": 7.199999999999999,
          "velocity": 0.3937007874015748
        },
        {
          "duration": 0.2400000000000002,
          "durationTicks": 384,
          "midi": 70,
          "name": "A#4",
          "ticks": 11520,
          "time": 7.199999999999999,
          "velocity": 0.3937007874015748
        },
        {
          "duration": 0.2400000000000002,
          "durationTicks": 384,
          "midi": 72,
          "name": "C5",
          "ticks": 11904,
          "time": 7.4399999999999995,
          "velocity": 0.3937007874015748
        },
        {
          "duration": 0.2400000000000002,
          "durationTicks": 384,
          "midi": 74,
          "name": "D5",
          "ticks": 12288,
          "time": 7.68,
          "velocity": 0.3937007874015748
        },
        {
          "duration": 0.2400000000000002,
          "durationTicks": 384,
          "midi": 70,
          "name": "A#4",
          "ticks": 12288,
          "time": 7.68,
          "velocity": 0.3937007874015748
        },
        {
          "duration": 0.2400000000000002,
          "durationTicks": 384,
          "midi": 67,
          "name": "G4",
          "ticks": 12672,
          "time": 7.92,
          "velocity": 0.3937007874015748
        },
        {
          "duration": 0.2400000000000002,
          "durationTicks": 384,
          "midi": 67,
          "name": "G4",
          "ticks": 13056,
          "time": 8.16,
          "velocity": 0.3937007874015748
        },
        {
          "duration": 0.2400000000000002,
          "durationTicks": 384,
          "midi": 75,
          "name": "D#5",
          "ticks": 13440,
          "time": 8.4,
          "velocity": 0.3937007874015748
        },
        {
          "duration": 0.11999999999999922,
          "durationTicks": 192,
          "midi": 75,
          "name": "D#5",
          "ticks": 13824,
          "time": 8.64,
          "velocity": 0.3937007874015748
        },
        {
          "duration": 0.11999999999999922,
          "durationTicks": 192,
          "midi": 75,
          "name": "D#5",
          "ticks": 14016,
          "time": 8.76,
          "velocity": 0.3937007874015748
        },
        {
          "duration": 0.2400000000000002,
          "durationTicks": 384,
          "midi": 67,
          "name": "G4",
          "ticks": 14208,
          "time": 8.879999999999999,
          "velocity": 0.3937007874015748
        },
        {
          "duration": 0.2400000000000002,
          "durationTicks": 384,
          "midi": 70,
          "name": "A#4",
          "ticks": 21504,
          "time": 13.44,
          "velocity": 0.3937007874015748
        },
        {
          "duration": 0.2400000000000002,
          "durationTicks": 384,
          "midi": 70,
          "name": "A#4",
          "ticks": 21888,
          "time": 13.68,
          "velocity": 0.3937007874015748
        },
        {
          "duration": 0.2400000000000002,
          "durationTicks": 384,
          "midi": 75,
          "name": "D#5",
          "ticks": 22272,
          "time": 13.92,
          "velocity": 0.3937007874015748
        },
        {
          "duration": 0.23999999999999844,
          "durationTicks": 384,
          "midi": 74,
          "name": "D5",
          "ticks": 22656,
          "time": 14.16,
          "velocity": 0.3937007874015748
        },
        {
          "duration": 0.2400000000000002,
          "durationTicks": 384,
          "midi": 74,
          "name": "D5",
          "ticks": 23040,
          "time": 14.399999999999999,
          "velocity": 0.3937007874015748
        },
        {
          "duration": 0.2400000000000002,
          "durationTicks": 384,
          "midi": 70,
          "name": "A#4",
          "ticks": 23040,
          "time": 14.399999999999999,
          "velocity": 0.3937007874015748
        },
        {
          "duration": 0.2400000000000002,
          "durationTicks": 384,
          "midi": 75,
          "name": "D#5",
          "ticks": 23424,
          "time": 14.639999999999999,
          "velocity": 0.3937007874015748
        },
        {
          "duration": 0.2400000000000002,
          "durationTicks": 384,
          "midi": 74,
          "name": "D5",
          "ticks": 23808,
          "time": 14.879999999999999,
          "velocity": 0.3937007874015748
        },
        {
          "duration": 0.2400000000000002,
          "durationTicks": 384,
          "midi": 70,
          "name": "A#4",
          "ticks": 23808,
          "time": 14.879999999999999,
          "velocity": 0.3937007874015748
        },
        {
          "duration": 0.2400000000000002,
          "durationTicks": 384,
          "midi": 72,
          "name": "C5",
          "ticks": 24192,
          "time": 15.12,
          "velocity": 0.3937007874015748
        },
        {
          "duration": 0.2400000000000002,
          "durationTicks": 384,
          "midi": 74,
          "name": "D5",
          "ticks": 24576,
          "time": 15.36,
          "velocity": 0.3937007874015748
        },
        {
          "duration": 0.2400000000000002,
          "durationTicks": 384,
          "midi": 70,
          "name": "A#4",
          "ticks": 24576,
          "time": 15.36,
          "velocity": 0.3937007874015748
        },
        {
          "duration": 0.2400000000000002,
          "durationTicks": 384,
          "midi": 67,
          "name": "G4",
          "ticks": 24960,
          "time": 15.6,
          "velocity": 0.3937007874015748
        },
        {
          "duration": 0.23999999999999844,
          "durationTicks": 384,
          "midi": 67,
          "name": "G4",
          "ticks": 25344,
          "time": 15.84,
          "velocity": 0.3937007874015748
        },
        {
          "duration": 0.240000000000002,
          "durationTicks": 384,
          "midi": 75,
          "name": "D#5",
          "ticks": 25728,
          "time": 16.08,
          "velocity": 0.3937007874015748
        },
        {
          "duration": 0.11999999999999744,
          "durationTicks": 192,
          "midi": 75,
          "name": "D#5",
          "ticks": 26112,
          "time": 16.32,
          "velocity": 0.3937007874015748
        },
        {
          "duration": 0.120000000000001,
          "durationTicks": 192,
          "midi": 75,
          "name": "D#5",
          "ticks": 26304,
          "time": 16.439999999999998,
          "velocity": 0.3937007874015748
        },
        {
          "duration": 0.240000000000002,
          "durationTicks": 384,
          "midi": 67,
          "name": "G4",
          "ticks": 26496,
          "time": 16.56,
          "velocity": 0.3937007874015748
        },
        {
          "duration": 0.240000000000002,
          "durationTicks": 384,
          "midi": 65,
          "name": "F4",
          "ticks": 33792,
          "time": 21.119999999999997,
          "velocity": 0.3937007874015748
        },
        {
          "duration": 0.23999999999999844,
          "durationTicks": 384,
          "midi": 70,
          "name": "A#4",
          "ticks": 34176,
          "time": 21.36,
          "velocity": 0.3937007874015748
        },
        {
          "duration": 0.240000000000002,
          "durationTicks": 384,
          "midi": 70,
          "name": "A#4",
          "ticks": 34560,
          "time": 21.599999999999998,
          "velocity": 0.3937007874015748
        },
        {
          "duration": 0.23999999999999844,
          "durationTicks": 384,
          "midi": 75,
          "name": "D#5",
          "ticks": 34944,
          "time": 21.84,
          "velocity": 0.3937007874015748
        },
        {
          "duration": 0.240000000000002,
          "durationTicks": 384,
          "midi": 74,
          "name": "D5",
          "ticks": 35328,
          "time": 22.08,
          "velocity": 0.3937007874015748
        },
        {
          "duration": 0.240000000000002,
          "durationTicks": 384,
          "midi": 70,
          "name": "A#4",
          "ticks": 35328,
          "time": 22.08,
          "velocity": 0.3937007874015748
        },
        {
          "duration": 0.23999999999999844,
          "durationTicks": 384,
          "midi": 75,
          "name": "D#5",
          "ticks": 35712,
          "time": 22.32,
          "velocity": 0.3937007874015748
        },
        {
          "duration": 0.240000000000002,
          "durationTicks": 384,
          "midi": 74,
          "name": "D5",
          "ticks": 36096,
          "time": 22.56,
          "velocity": 0.3937007874015748
        },
        {
          "duration": 0.240000000000002,
          "durationTicks": 384,
          "midi": 70,
          "name": "A#4",
          "ticks": 36096,
          "time": 22.56,
          "velocity": 0.3937007874015748
        },
        {
          "duration": 0.23999999999999844,
          "durationTicks": 384,
          "midi": 72,
          "name": "C5",
          "ticks": 36480,
          "time": 22.8,
          "velocity": 0.3937007874015748
        },
        {
          "duration": 0.23999999999999844,
          "durationTicks": 384,
          "midi": 74,
          "name": "D5",
          "ticks": 36864,
          "time": 23.04,
          "velocity": 0.3937007874015748
        },
        {
          "duration": 0.23999999999999844,
          "durationTicks": 384,
          "midi": 70,
          "name": "A#4",
          "ticks": 36864,
          "time": 23.04,
          "velocity": 0.3937007874015748
        },
        {
          "duration": 0.240000000000002,
          "durationTicks": 384,
          "midi": 67,
          "name": "G4",
          "ticks": 37248,
          "time": 23.279999999999998,
          "velocity": 0.3937007874015748
        },
        {
          "duration": 0.23999999999999844,
          "durationTicks": 384,
          "midi": 67,
          "name": "G4",
          "ticks": 37632,
          "time": 23.52,
          "velocity": 0.3937007874015748
        },
        {
          "duration": 0.11999999999999744,
          "durationTicks": 192,
          "midi": 75,
          "name": "D#5",
          "ticks": 38400,
          "time": 24,
          "velocity": 0.3937007874015748
        },
        {
          "duration": 0.120000000000001,
          "durationTicks": 192,
          "midi": 75,
          "name": "D#5",
          "ticks": 38592,
          "time": 24.119999999999997,
          "velocity": 0.3937007874015748
        },
        {
          "duration": 0.240000000000002,
          "durationTicks": 384,
          "midi": 67,
          "name": "G4",
          "ticks": 38784,
          "time": 24.24,
          "velocity": 0.3937007874015748
        },
        {
          "duration": 0.240000000000002,
          "durationTicks": 384,
          "midi": 70,
          "name": "A#4",
          "ticks": 46080,
          "time": 28.799999999999997,
          "velocity": 0.3937007874015748
        },
        {
          "duration": 0.23999999999999844,
          "durationTicks": 384,
          "midi": 70,
          "name": "A#4",
          "ticks": 46464,
          "time": 29.04,
          "velocity": 0.3937007874015748
        },
        {
          "duration": 0.240000000000002,
          "durationTicks": 384,
          "midi": 75,
          "name": "D#5",
          "ticks": 46848,
          "time": 29.279999999999998,
          "velocity": 0.3937007874015748
        },
        {
          "duration": 0.23999999999999844,
          "durationTicks": 384,
          "midi": 74,
          "name": "D5",
          "ticks": 47232,
          "time": 29.52,
          "velocity": 0.3937007874015748
        },
        {
          "duration": 0.240000000000002,
          "durationTicks": 384,
          "midi": 74,
          "name": "D5",
          "ticks": 47616,
          "time": 29.759999999999998,
          "velocity": 0.3937007874015748
        },
        {
          "duration": 0.240000000000002,
          "durationTicks": 384,
          "midi": 70,
          "name": "A#4",
          "ticks": 47616,
          "time": 29.759999999999998,
          "velocity": 0.3937007874015748
        },
        {
          "duration": 0.23999999999999844,
          "durationTicks": 384,
          "midi": 75,
          "name": "D#5",
          "ticks": 48000,
          "time": 30,
          "velocity": 0.3937007874015748
        },
        {
          "duration": 0.240000000000002,
          "durationTicks": 384,
          "midi": 74,
          "name": "D5",
          "ticks": 48384,
          "time": 30.24,
          "velocity": 0.3937007874015748
        },
        {
          "duration": 0.240000000000002,
          "durationTicks": 384,
          "midi": 70,
          "name": "A#4",
          "ticks": 48384,
          "time": 30.24,
          "velocity": 0.3937007874015748
        },
        {
          "duration": 0.23999999999999844,
          "durationTicks": 384,
          "midi": 72,
          "name": "C5",
          "ticks": 48768,
          "time": 30.48,
          "velocity": 0.3937007874015748
        },
        {
          "duration": 0.23999999999999844,
          "durationTicks": 384,
          "midi": 74,
          "name": "D5",
          "ticks": 49152,
          "time": 30.72,
          "velocity": 0.3937007874015748
        },
        {
          "duration": 0.23999999999999844,
          "durationTicks": 384,
          "midi": 70,
          "name": "A#4",
          "ticks": 49152,
          "time": 30.72,
          "velocity": 0.3937007874015748
        },
        {
          "duration": 0.240000000000002,
          "durationTicks": 384,
          "midi": 67,
          "name": "G4",
          "ticks": 49536,
          "time": 30.959999999999997,
          "velocity": 0.3937007874015748
        },
        {
          "duration": 0.23999999999999844,
          "durationTicks": 384,
          "midi": 67,
          "name": "G4",
          "ticks": 49920,
          "time": 31.2,
          "velocity": 0.3937007874015748
        },
        {
          "duration": 0.240000000000002,
          "durationTicks": 384,
          "midi": 75,
          "name": "D#5",
          "ticks": 50304,
          "time": 31.439999999999998,
          "velocity": 0.3937007874015748
        },
        {
          "duration": 0.11999999999999744,
          "durationTicks": 192,
          "midi": 75,
          "name": "D#5",
          "ticks": 50688,
          "time": 31.68,
          "velocity": 0.3937007874015748
        },
        {
          "duration": 0.120000000000001,
          "durationTicks": 192,
          "midi": 75,
          "name": "D#5",
          "ticks": 50880,
          "time": 31.799999999999997,
          "velocity": 0.3937007874015748
        },
        {
          "duration": 0.23999999999999844,
          "durationTicks": 384,
          "midi": 67,
          "name": "G4",
          "ticks": 51072,
          "time": 31.919999999999998,
          "velocity": 0.3937007874015748
        },
        {
          "duration": 0.240000000000002,
          "durationTicks": 384,
          "midi": 65,
          "name": "F4",
          "ticks": 58368,
          "time": 36.48,
          "velocity": 0.3937007874015748
        },
        {
          "duration": 0.240000000000002,
          "durationTicks": 384,
          "midi": 70,
          "name": "A#4",
          "ticks": 58752,
          "time": 36.72,
          "velocity": 0.3937007874015748
        },
        {
          "duration": 0.23999999999999488,
          "durationTicks": 384,
          "midi": 70,
          "name": "A#4",
          "ticks": 59136,
          "time": 36.96,
          "velocity": 0.3937007874015748
        },
        {
          "duration": 0.240000000000002,
          "durationTicks": 384,
          "midi": 75,
          "name": "D#5",
          "ticks": 59520,
          "time": 37.199999999999996,
          "velocity": 0.3937007874015748
        },
        {
          "duration": 0.240000000000002,
          "durationTicks": 384,
          "midi": 74,
          "name": "D5",
          "ticks": 59904,
          "time": 37.44,
          "velocity": 0.3937007874015748
        },
        {
          "duration": 0.240000000000002,
          "durationTicks": 384,
          "midi": 70,
          "name": "A#4",
          "ticks": 59904,
          "time": 37.44,
          "velocity": 0.3937007874015748
        },
        {
          "duration": 0.240000000000002,
          "durationTicks": 384,
          "midi": 75,
          "name": "D#5",
          "ticks": 60288,
          "time": 37.68,
          "velocity": 0.3937007874015748
        },
        {
          "duration": 0.23999999999999488,
          "durationTicks": 384,
          "midi": 74,
          "name": "D5",
          "ticks": 60672,
          "time": 37.92,
          "velocity": 0.3937007874015748
        },
        {
          "duration": 0.23999999999999488,
          "durationTicks": 384,
          "midi": 70,
          "name": "A#4",
          "ticks": 60672,
          "time": 37.92,
          "velocity": 0.3937007874015748
        },
        {
          "duration": 0.240000000000002,
          "durationTicks": 384,
          "midi": 72,
          "name": "C5",
          "ticks": 61056,
          "time": 38.16,
          "velocity": 0.3937007874015748
        },
        {
          "duration": 0.240000000000002,
          "durationTicks": 384,
          "midi": 74,
          "name": "D5",
          "ticks": 61440,
          "time": 38.4,
          "velocity": 0.3937007874015748
        },
        {
          "duration": 0.240000000000002,
          "durationTicks": 384,
          "midi": 70,
          "name": "A#4",
          "ticks": 61440,
          "time": 38.4,
          "velocity": 0.3937007874015748
        },
        {
          "duration": 0.23999999999999488,
          "durationTicks": 384,
          "midi": 67,
          "name": "G4",
          "ticks": 61824,
          "time": 38.64,
          "velocity": 0.3937007874015748
        },
        {
          "duration": 0.240000000000002,
          "durationTicks": 384,
          "midi": 67,
          "name": "G4",
          "ticks": 62208,
          "time": 38.879999999999995,
          "velocity": 0.3937007874015748
        },
        {
          "duration": 0.240000000000002,
          "durationTicks": 384,
          "midi": 75,
          "name": "D#5",
          "ticks": 62592,
          "time": 39.12,
          "velocity": 0.3937007874015748
        },
        {
          "duration": 0.11999999999999744,
          "durationTicks": 192,
          "midi": 75,
          "name": "D#5",
          "ticks": 62976,
          "time": 39.36,
          "velocity": 0.3937007874015748
        },
        {
          "duration": 0.12000000000000455,
          "durationTicks": 192,
          "midi": 75,
          "name": "D#5",
          "ticks": 63168,
          "time": 39.48,
          "velocity": 0.3937007874015748
        },
        {
          "duration": 0.23999999999999488,
          "durationTicks": 384,
          "midi": 67,
          "name": "G4",
          "ticks": 63360,
          "time": 39.6,
          "velocity": 0.3937007874015748
        },
        {
          "duration": 0.240000000000002,
          "durationTicks": 384,
          "midi": 70,
          "name": "A#4",
          "ticks": 70656,
          "time": 44.16,
          "velocity": 0.3937007874015748
        },
        {
          "duration": 0.240000000000002,
          "durationTicks": 384,
          "midi": 70,
          "name": "A#4",
          "ticks": 71040,
          "time": 44.4,
          "velocity": 0.3937007874015748
        },
        {
          "duration": 0.23999999999999488,
          "durationTicks": 384,
          "midi": 75,
          "name": "D#5",
          "ticks": 71424,
          "time": 44.64,
          "velocity": 0.3937007874015748
        },
        {
          "duration": 0.240000000000002,
          "durationTicks": 384,
          "midi": 74,
          "name": "D5",
          "ticks": 71808,
          "time": 44.879999999999995,
          "velocity": 0.3937007874015748
        },
        {
          "duration": 0.240000000000002,
          "durationTicks": 384,
          "midi": 74,
          "name": "D5",
          "ticks": 72192,
          "time": 45.12,
          "velocity": 0.3937007874015748
        },
        {
          "duration": 0.240000000000002,
          "durationTicks": 384,
          "midi": 70,
          "name": "A#4",
          "ticks": 72192,
          "time": 45.12,
          "velocity": 0.3937007874015748
        },
        {
          "duration": 0.240000000000002,
          "durationTicks": 384,
          "midi": 75,
          "name": "D#5",
          "ticks": 72576,
          "time": 45.36,
          "velocity": 0.3937007874015748
        },
        {
          "duration": 0.23999999999999488,
          "durationTicks": 384,
          "midi": 74,
          "name": "D5",
          "ticks": 72960,
          "time": 45.6,
          "velocity": 0.3937007874015748
        },
        {
          "duration": 0.23999999999999488,
          "durationTicks": 384,
          "midi": 70,
          "name": "A#4",
          "ticks": 72960,
          "time": 45.6,
          "velocity": 0.3937007874015748
        },
        {
          "duration": 0.240000000000002,
          "durationTicks": 384,
          "midi": 72,
          "name": "C5",
          "ticks": 73344,
          "time": 45.839999999999996,
          "velocity": 0.3937007874015748
        },
        {
          "duration": 0.240000000000002,
          "durationTicks": 384,
          "midi": 74,
          "name": "D5",
          "ticks": 73728,
          "time": 46.08,
          "velocity": 0.3937007874015748
        },
        {
          "duration": 0.240000000000002,
          "durationTicks": 384,
          "midi": 70,
          "name": "A#4",
          "ticks": 73728,
          "time": 46.08,
          "velocity": 0.3937007874015748
        },
        {
          "duration": 0.23999999999999488,
          "durationTicks": 384,
          "midi": 67,
          "name": "G4",
          "ticks": 74112,
          "time": 46.32,
          "velocity": 0.3937007874015748
        },
        {
          "duration": 0.240000000000002,
          "durationTicks": 384,
          "midi": 67,
          "name": "G4",
          "ticks": 74496,
          "time": 46.559999999999995,
          "velocity": 0.3937007874015748
        },
        {
          "duration": 0.240000000000002,
          "durationTicks": 384,
          "midi": 75,
          "name": "D#5",
          "ticks": 74880,
          "time": 46.8,
          "velocity": 0.3937007874015748
        },
        {
          "duration": 0.11999999999999744,
          "durationTicks": 192,
          "midi": 75,
          "name": "D#5",
          "ticks": 75264,
          "time": 47.04,
          "velocity": 0.3937007874015748
        },
        {
          "duration": 0.12000000000000455,
          "durationTicks": 192,
          "midi": 75,
          "name": "D#5",
          "ticks": 75456,
          "time": 47.16,
          "velocity": 0.3937007874015748
        },
        {
          "duration": 0.23999999999999488,
          "durationTicks": 384,
          "midi": 67,
          "name": "G4",
          "ticks": 75648,
          "time": 47.28,
          "velocity": 0.3937007874015748
        },
        {
          "duration": 0.23999999999999488,
          "durationTicks": 384,
          "midi": 65,
          "name": "F4",
          "ticks": 107520,
          "time": 67.2,
          "velocity": 0.3937007874015748
        },
        {
          "duration": 0.23999999999999488,
          "durationTicks": 384,
          "midi": 70,
          "name": "A#4",
          "ticks": 107904,
          "time": 67.44,
          "velocity": 0.3937007874015748
        },
        {
          "duration": 0.2400000000000091,
          "durationTicks": 384,
          "midi": 70,
          "name": "A#4",
          "ticks": 108288,
          "time": 67.67999999999999,
          "velocity": 0.3937007874015748
        },
        {
          "duration": 0.23999999999999488,
          "durationTicks": 384,
          "midi": 75,
          "name": "D#5",
          "ticks": 108672,
          "time": 67.92,
          "velocity": 0.3937007874015748
        },
        {
          "duration": 0.23999999999999488,
          "durationTicks": 384,
          "midi": 74,
          "name": "D5",
          "ticks": 109056,
          "time": 68.16,
          "velocity": 0.3937007874015748
        },
        {
          "duration": 0.23999999999999488,
          "durationTicks": 384,
          "midi": 70,
          "name": "A#4",
          "ticks": 109056,
          "time": 68.16,
          "velocity": 0.3937007874015748
        },
        {
          "duration": 0.2400000000000091,
          "durationTicks": 384,
          "midi": 75,
          "name": "D#5",
          "ticks": 109440,
          "time": 68.39999999999999,
          "velocity": 0.3937007874015748
        },
        {
          "duration": 0.23999999999999488,
          "durationTicks": 384,
          "midi": 74,
          "name": "D5",
          "ticks": 109824,
          "time": 68.64,
          "velocity": 0.3937007874015748
        },
        {
          "duration": 0.23999999999999488,
          "durationTicks": 384,
          "midi": 70,
          "name": "A#4",
          "ticks": 109824,
          "time": 68.64,
          "velocity": 0.3937007874015748
        },
        {
          "duration": 0.2400000000000091,
          "durationTicks": 384,
          "midi": 72,
          "name": "C5",
          "ticks": 110208,
          "time": 68.88,
          "velocity": 0.3937007874015748
        },
        {
          "duration": 0.23999999999999488,
          "durationTicks": 384,
          "midi": 74,
          "name": "D5",
          "ticks": 110592,
          "time": 69.12,
          "velocity": 0.3937007874015748
        },
        {
          "duration": 0.23999999999999488,
          "durationTicks": 384,
          "midi": 70,
          "name": "A#4",
          "ticks": 110592,
          "time": 69.12,
          "velocity": 0.3937007874015748
        },
        {
          "duration": 0.23999999999999488,
          "durationTicks": 384,
          "midi": 67,
          "name": "G4",
          "ticks": 110976,
          "time": 69.36,
          "velocity": 0.3937007874015748
        },
        {
          "duration": 0.2400000000000091,
          "durationTicks": 384,
          "midi": 67,
          "name": "G4",
          "ticks": 111360,
          "time": 69.6,
          "velocity": 0.3937007874015748
        },
        {
          "duration": 0.23999999999999488,
          "durationTicks": 384,
          "midi": 75,
          "name": "D#5",
          "ticks": 111744,
          "time": 69.84,
          "velocity": 0.3937007874015748
        },
        {
          "duration": 0.12000000000000455,
          "durationTicks": 192,
          "midi": 75,
          "name": "D#5",
          "ticks": 112128,
          "time": 70.08,
          "velocity": 0.3937007874015748
        },
        {
          "duration": 0.11999999999999034,
          "durationTicks": 192,
          "midi": 75,
          "name": "D#5",
          "ticks": 112320,
          "time": 70.2,
          "velocity": 0.3937007874015748
        },
        {
          "duration": 0.2400000000000091,
          "durationTicks": 384,
          "midi": 67,
          "name": "G4",
          "ticks": 112512,
          "time": 70.32,
          "velocity": 0.3937007874015748
        },
        {
          "duration": 0.23999999999999488,
          "durationTicks": 384,
          "midi": 70,
          "name": "A#4",
          "ticks": 119808,
          "time": 74.88,
          "velocity": 0.3937007874015748
        },
        {
          "duration": 0.2400000000000091,
          "durationTicks": 384,
          "midi": 70,
          "name": "A#4",
          "ticks": 120192,
          "time": 75.11999999999999,
          "velocity": 0.3937007874015748
        },
        {
          "duration": 0.23999999999999488,
          "durationTicks": 384,
          "midi": 75,
          "name": "D#5",
          "ticks": 120576,
          "time": 75.36,
          "velocity": 0.3937007874015748
        },
        {
          "duration": 0.2400000000000091,
          "durationTicks": 384,
          "midi": 74,
          "name": "D5",
          "ticks": 120960,
          "time": 75.6,
          "velocity": 0.3937007874015748
        },
        {
          "duration": 0.23999999999999488,
          "durationTicks": 384,
          "midi": 74,
          "name": "D5",
          "ticks": 121344,
          "time": 75.84,
          "velocity": 0.3937007874015748
        },
        {
          "duration": 0.23999999999999488,
          "durationTicks": 384,
          "midi": 70,
          "name": "A#4",
          "ticks": 121344,
          "time": 75.84,
          "velocity": 0.3937007874015748
        },
        {
          "duration": 0.23999999999999488,
          "durationTicks": 384,
          "midi": 75,
          "name": "D#5",
          "ticks": 121728,
          "time": 76.08,
          "velocity": 0.3937007874015748
        },
        {
          "duration": 0.2400000000000091,
          "durationTicks": 384,
          "midi": 74,
          "name": "D5",
          "ticks": 122112,
          "time": 76.32,
          "velocity": 0.3937007874015748
        },
        {
          "duration": 0.2400000000000091,
          "durationTicks": 384,
          "midi": 70,
          "name": "A#4",
          "ticks": 122112,
          "time": 76.32,
          "velocity": 0.3937007874015748
        },
        {
          "duration": 0.23999999999999488,
          "durationTicks": 384,
          "midi": 72,
          "name": "C5",
          "ticks": 122496,
          "time": 76.56,
          "velocity": 0.3937007874015748
        },
        {
          "duration": 0.23999999999999488,
          "durationTicks": 384,
          "midi": 74,
          "name": "D5",
          "ticks": 122880,
          "time": 76.8,
          "velocity": 0.3937007874015748
        },
        {
          "duration": 0.23999999999999488,
          "durationTicks": 384,
          "midi": 70,
          "name": "A#4",
          "ticks": 122880,
          "time": 76.8,
          "velocity": 0.3937007874015748
        },
        {
          "duration": 0.2400000000000091,
          "durationTicks": 384,
          "midi": 67,
          "name": "G4",
          "ticks": 123264,
          "time": 77.03999999999999,
          "velocity": 0.3937007874015748
        },
        {
          "duration": 0.23999999999999488,
          "durationTicks": 384,
          "midi": 67,
          "name": "G4",
          "ticks": 123648,
          "time": 77.28,
          "velocity": 0.3937007874015748
        },
        {
          "duration": 0.23999999999999488,
          "durationTicks": 384,
          "midi": 75,
          "name": "D#5",
          "ticks": 124032,
          "time": 77.52,
          "velocity": 0.3937007874015748
        },
        {
          "duration": 0.12000000000000455,
          "durationTicks": 192,
          "midi": 75,
          "name": "D#5",
          "ticks": 124416,
          "time": 77.75999999999999,
          "velocity": 0.3937007874015748
        },
        {
          "duration": 0.12000000000000455,
          "durationTicks": 192,
          "midi": 75,
          "name": "D#5",
          "ticks": 124608,
          "time": 77.88,
          "velocity": 0.3937007874015748
        },
        {
          "duration": 0.23999999999999488,
          "durationTicks": 384,
          "midi": 67,
          "name": "G4",
          "ticks": 124800,
          "time": 78,
          "velocity": 0.3937007874015748
        }
      ],
      "endOfTrackTicks": 125184
    },
    {
      "channel": 2,
      "controlChanges": {},
      "pitchBends": [],
      "instrument": {
        "family": "chromatic percussion",
        "number": 11,
        "name": "vibraphone"
      },
      "name": "Vibraphone",
      "notes": [
        {
          "duration": 0.240000000000002,
          "durationTicks": 384,
          "midi": 65,
          "name": "F4",
          "ticks": 29184,
          "time": 18.24,
          "velocity": 0.3937007874015748
        },
        {
          "duration": 0.240000000000002,
          "durationTicks": 384,
          "midi": 62,
          "name": "D4",
          "ticks": 29952,
          "time": 18.72,
          "velocity": 0.3937007874015748
        },
        {
          "duration": 0.23999999999999844,
          "durationTicks": 384,
          "midi": 62,
          "name": "D4",
          "ticks": 30336,
          "time": 18.96,
          "velocity": 0.3937007874015748
        },
        {
          "duration": 0.240000000000002,
          "durationTicks": 384,
          "midi": 55,
          "name": "G3",
          "ticks": 31872,
          "time": 19.919999999999998,
          "velocity": 0.3937007874015748
        },
        {
          "duration": 0.23999999999999844,
          "durationTicks": 384,
          "midi": 60,
          "name": "C4",
          "ticks": 32256,
          "time": 20.16,
          "velocity": 0.3937007874015748
        },
        {
          "duration": 0.23999999999999844,
          "durationTicks": 384,
          "midi": 55,
          "name": "G3",
          "ticks": 33024,
          "time": 20.64,
          "velocity": 0.3937007874015748
        },
        {
          "duration": 0.23999999999999844,
          "durationTicks": 384,
          "midi": 62,
          "name": "D4",
          "ticks": 33408,
          "time": 20.88,
          "velocity": 0.3937007874015748
        },
        {
          "duration": 0.240000000000002,
          "durationTicks": 384,
          "midi": 65,
          "name": "F4",
          "ticks": 35328,
          "time": 22.08,
          "velocity": 0.3937007874015748
        },
        {
          "duration": 0.240000000000002,
          "durationTicks": 384,
          "midi": 62,
          "name": "D4",
          "ticks": 36096,
          "time": 22.56,
          "velocity": 0.3937007874015748
        },
        {
          "duration": 0.23999999999999844,
          "durationTicks": 384,
          "midi": 62,
          "name": "D4",
          "ticks": 36480,
          "time": 22.8,
          "velocity": 0.3937007874015748
        },
        {
          "duration": 0.240000000000002,
          "durationTicks": 384,
          "midi": 55,
          "name": "G3",
          "ticks": 38016,
          "time": 23.759999999999998,
          "velocity": 0.3937007874015748
        },
        {
          "duration": 0.23999999999999844,
          "durationTicks": 384,
          "midi": 62,
          "name": "D4",
          "ticks": 38400,
          "time": 24,
          "velocity": 0.3937007874015748
        },
        {
          "duration": 0.23999999999999844,
          "durationTicks": 384,
          "midi": 63,
          "name": "D#4",
          "ticks": 39168,
          "time": 24.48,
          "velocity": 0.3937007874015748
        },
        {
          "duration": 0.240000000000002,
          "durationTicks": 384,
          "midi": 62,
          "name": "D4",
          "ticks": 39552,
          "time": 24.72,
          "velocity": 0.3937007874015748
        },
        {
          "duration": 0.240000000000002,
          "durationTicks": 384,
          "midi": 65,
          "name": "F4",
          "ticks": 41472,
          "time": 25.919999999999998,
          "velocity": 0.3937007874015748
        },
        {
          "duration": 0.240000000000002,
          "durationTicks": 384,
          "midi": 62,
          "name": "D4",
          "ticks": 42240,
          "time": 26.4,
          "velocity": 0.3937007874015748
        },
        {
          "duration": 0.23999999999999844,
          "durationTicks": 384,
          "midi": 62,
          "name": "D4",
          "ticks": 42624,
          "time": 26.64,
          "velocity": 0.3937007874015748
        },
        {
          "duration": 0.240000000000002,
          "durationTicks": 384,
          "midi": 62,
          "name": "D4",
          "ticks": 44160,
          "time": 27.599999999999998,
          "velocity": 0.3937007874015748
        },
        {
          "duration": 0.23999999999999844,
          "durationTicks": 384,
          "midi": 60,
          "name": "C4",
          "ticks": 44544,
          "time": 27.84,
          "velocity": 0.3937007874015748
        },
        {
          "duration": 0.23999999999999844,
          "durationTicks": 384,
          "midi": 58,
          "name": "A#3",
          "ticks": 45312,
          "time": 28.32,
          "velocity": 0.3937007874015748
        },
        {
          "duration": 0.23999999999999844,
          "durationTicks": 384,
          "midi": 62,
          "name": "D4",
          "ticks": 45696,
          "time": 28.56,
          "velocity": 0.3937007874015748
        },
        {
          "duration": 0.23999999999999844,
          "durationTicks": 384,
          "midi": 62,
          "name": "D4",
          "ticks": 48000,
          "time": 30,
          "velocity": 0.3937007874015748
        },
        {
          "duration": 0.240000000000002,
          "durationTicks": 384,
          "midi": 60,
          "name": "C4",
          "ticks": 48384,
          "time": 30.24,
          "velocity": 0.3937007874015748
        },
        {
          "duration": 0.23999999999999844,
          "durationTicks": 384,
          "midi": 62,
          "name": "D4",
          "ticks": 48768,
          "time": 30.48,
          "velocity": 0.3937007874015748
        },
        {
          "duration": 0.240000000000002,
          "durationTicks": 384,
          "midi": 55,
          "name": "G3",
          "ticks": 50304,
          "time": 31.439999999999998,
          "velocity": 0.3937007874015748
        },
        {
          "duration": 0.23999999999999844,
          "durationTicks": 384,
          "midi": 62,
          "name": "D4",
          "ticks": 50688,
          "time": 31.68,
          "velocity": 0.3937007874015748
        },
        {
          "duration": 0.240000000000002,
          "durationTicks": 384,
          "midi": 63,
          "name": "D#4",
          "ticks": 51456,
          "time": 32.16,
          "velocity": 0.3937007874015748
        },
        {
          "duration": 0.240000000000002,
          "durationTicks": 384,
          "midi": 62,
          "name": "D4",
          "ticks": 51840,
          "time": 32.4,
          "velocity": 0.3937007874015748
        },
        {
          "duration": 0.23999999999999488,
          "durationTicks": 384,
          "midi": 62,
          "name": "D4",
          "ticks": 53760,
          "time": 33.6,
          "velocity": 0.3937007874015748
        },
        {
          "duration": 0.240000000000002,
          "durationTicks": 384,
          "midi": 60,
          "name": "C4",
          "ticks": 54528,
          "time": 34.08,
          "velocity": 0.3937007874015748
        },
        {
          "duration": 0.240000000000002,
          "durationTicks": 384,
          "midi": 60,
          "name": "C4",
          "ticks": 54912,
          "time": 34.32,
          "velocity": 0.3937007874015748
        },
        {
          "duration": 0.240000000000002,
          "durationTicks": 384,
          "midi": 55,
          "name": "G3",
          "ticks": 55680,
          "time": 34.8,
          "velocity": 0.3937007874015748
        },
        {
          "duration": 0.240000000000002,
          "durationTicks": 384,
          "midi": 57,
          "name": "A3",
          "ticks": 56832,
          "time": 35.519999999999996,
          "velocity": 0.3937007874015748
        },
        {
          "duration": 0.240000000000002,
          "durationTicks": 384,
          "midi": 58,
          "name": "A#3",
          "ticks": 57600,
          "time": 36,
          "velocity": 0.3937007874015748
        },
        {
          "duration": 0.23999999999999488,
          "durationTicks": 384,
          "midi": 58,
          "name": "A#3",
          "ticks": 57984,
          "time": 36.24,
          "velocity": 0.3937007874015748
        },
        {
          "duration": 0.240000000000002,
          "durationTicks": 384,
          "midi": 58,
          "name": "A#3",
          "ticks": 59904,
          "time": 37.44,
          "velocity": 0.3937007874015748
        },
        {
          "duration": 0.23999999999999488,
          "durationTicks": 384,
          "midi": 60,
          "name": "C4",
          "ticks": 60672,
          "time": 37.92,
          "velocity": 0.3937007874015748
        },
        {
          "duration": 0.240000000000002,
          "durationTicks": 384,
          "midi": 62,
          "name": "D4",
          "ticks": 61056,
          "time": 38.16,
          "velocity": 0.3937007874015748
        },
        {
          "duration": 0.23999999999999488,
          "durationTicks": 384,
          "midi": 62,
          "name": "D4",
          "ticks": 61824,
          "time": 38.64,
          "velocity": 0.3937007874015748
        },
        {
          "duration": 0.240000000000002,
          "durationTicks": 384,
          "midi": 58,
          "name": "A#3",
          "ticks": 62976,
          "time": 39.36,
          "velocity": 0.3937007874015748
        },
        {
          "duration": 0.240000000000002,
          "durationTicks": 384,
          "midi": 55,
          "name": "G3",
          "ticks": 63744,
          "time": 39.839999999999996,
          "velocity": 0.3937007874015748
        },
        {
          "duration": 0.240000000000002,
          "durationTicks": 384,
          "midi": 62,
          "name": "D4",
          "ticks": 64128,
          "time": 40.08,
          "velocity": 0.3937007874015748
        },
        {
          "duration": 0.23999999999999488,
          "durationTicks": 384,
          "midi": 62,
          "name": "D4",
          "ticks": 66048,
          "time": 41.28,
          "velocity": 0.3937007874015748
        },
        {
          "duration": 0.240000000000002,
          "durationTicks": 384,
          "midi": 60,
          "name": "C4",
          "ticks": 66816,
          "time": 41.76,
          "velocity": 0.3937007874015748
        },
        {
          "duration": 0.23999999999999488,
          "durationTicks": 384,
          "midi": 60,
          "name": "C4",
          "ticks": 67200,
          "time": 42,
          "velocity": 0.3937007874015748
        },
        {
          "duration": 0.23999999999999488,
          "durationTicks": 384,
          "midi": 55,
          "name": "G3",
          "ticks": 68736,
          "time": 42.96,
          "velocity": 0.3937007874015748
        },
        {
          "duration": 0.240000000000002,
          "durationTicks": 384,
          "midi": 57,
          "name": "A3",
          "ticks": 69120,
          "time": 43.199999999999996,
          "velocity": 0.3937007874015748
        },
        {
          "duration": 0.240000000000002,
          "durationTicks": 384,
          "midi": 58,
          "name": "A#3",
          "ticks": 69888,
          "time": 43.68,
          "velocity": 0.3937007874015748
        },
        {
          "duration": 0.23999999999999488,
          "durationTicks": 384,
          "midi": 58,
          "name": "A#3",
          "ticks": 70272,
          "time": 43.92,
          "velocity": 0.3937007874015748
        },
        {
          "duration": 0.240000000000002,
          "durationTicks": 384,
          "midi": 58,
          "name": "A#3",
          "ticks": 72192,
          "time": 45.12,
          "velocity": 0.3937007874015748
        },
        {
          "duration": 0.23999999999999488,
          "durationTicks": 384,
          "midi": 60,
          "name": "C4",
          "ticks": 72960,
          "time": 45.6,
          "velocity": 0.3937007874015748
        },
        {
          "duration": 0.240000000000002,
          "durationTicks": 384,
          "midi": 62,
          "name": "D4",
          "ticks": 73344,
          "time": 45.839999999999996,
          "velocity": 0.3937007874015748
        },
        {
          "duration": 0.240000000000002,
          "durationTicks": 384,
          "midi": 55,
          "name": "G3",
          "ticks": 74880,
          "time": 46.8,
          "velocity": 0.3937007874015748
        },
        {
          "duration": 0.240000000000002,
          "durationTicks": 384,
          "midi": 62,
          "name": "D4",
          "ticks": 75264,
          "time": 47.04,
          "velocity": 0.3937007874015748
        },
        {
          "duration": 0.240000000000002,
          "durationTicks": 384,
          "midi": 63,
          "name": "D#4",
          "ticks": 76032,
          "time": 47.519999999999996,
          "velocity": 0.3937007874015748
        },
        {
          "duration": 0.240000000000002,
          "durationTicks": 384,
          "midi": 62,
          "name": "D4",
          "ticks": 76416,
          "time": 47.76,
          "velocity": 0.3937007874015748
        }
      ],
      "endOfTrackTicks": 76800
    },
    {
      "channel": 3,
      "controlChanges": {},
      "pitchBends": [],
      "instrument": {
        "family": "synth lead",
        "number": 81,
        "name": "lead 2 (sawtooth)"
      },
      "name": "8-Bit Sawtooth",
      "notes": [
        {
          "duration": 0.11999999999999744,
          "durationTicks": 192,
          "midi": 63,
          "name": "D#4",
          "ticks": 76800,
          "time": 48,
          "velocity": 0.3937007874015748
        },
        {
          "duration": 0.11999999999999744,
          "durationTicks": 192,
          "midi": 63,
          "name": "D#4",
          "ticks": 76824,
          "time": 48.015,
          "velocity": 0.3937007874015748
        },
        {
          "duration": 0.12000000000000455,
          "durationTicks": 192,
          "midi": 63,
          "name": "D#4",
          "ticks": 77208,
          "time": 48.254999999999995,
          "velocity": 0.3937007874015748
        },
        {
          "duration": 0.11999999999999744,
          "durationTicks": 192,
          "midi": 63,
          "name": "D#4",
          "ticks": 77400,
          "time": 48.375,
          "velocity": 0.3937007874015748
        },
        {
          "duration": 0.11999999999999744,
          "durationTicks": 192,
          "midi": 60,
          "name": "C4",
          "ticks": 77592,
          "time": 48.495,
          "velocity": 0.3937007874015748
        },
        {
          "duration": 0.12000000000000455,
          "durationTicks": 192,
          "midi": 63,
          "name": "D#4",
          "ticks": 77784,
          "time": 48.614999999999995,
          "velocity": 0.3937007874015748
        },
        {
          "duration": 0.11999999999999744,
          "durationTicks": 192,
          "midi": 60,
          "name": "C4",
          "ticks": 77976,
          "time": 48.735,
          "velocity": 0.3937007874015748
        },
        {
          "duration": 0.12000000000000455,
          "durationTicks": 192,
          "midi": 60,
          "name": "C4",
          "ticks": 78168,
          "time": 48.855,
          "velocity": 0.3937007874015748
        },
        {
          "duration": 0.11999999999999744,
          "durationTicks": 192,
          "midi": 62,
          "name": "D4",
          "ticks": 78360,
          "time": 48.975,
          "velocity": 0.3937007874015748
        },
        {
          "duration": 0.11999999999999744,
          "durationTicks": 192,
          "midi": 60,
          "name": "C4",
          "ticks": 78552,
          "time": 49.095,
          "velocity": 0.3937007874015748
        },
        {
          "duration": 0.12000000000000455,
          "durationTicks": 192,
          "midi": 62,
          "name": "D4",
          "ticks": 78744,
          "time": 49.214999999999996,
          "velocity": 0.3937007874015748
        },
        {
          "duration": 0.11999999999999744,
          "durationTicks": 192,
          "midi": 62,
          "name": "D4",
          "ticks": 78936,
          "time": 49.335,
          "velocity": 0.3937007874015748
        },
        {
          "duration": 0.11999999999999744,
          "durationTicks": 192,
          "midi": 58,
          "name": "A#3",
          "ticks": 79128,
          "time": 49.455,
          "velocity": 0.3937007874015748
        },
        {
          "duration": 0.12000000000000455,
          "durationTicks": 192,
          "midi": 62,
          "name": "D4",
          "ticks": 79320,
          "time": 49.574999999999996,
          "velocity": 0.3937007874015748
        },
        {
          "duration": 0.11999999999999744,
          "durationTicks": 192,
          "midi": 58,
          "name": "A#3",
          "ticks": 79512,
          "time": 49.695,
          "velocity": 0.3937007874015748
        },
        {
          "duration": 0.11999999999999744,
          "durationTicks": 192,
          "midi": 58,
          "name": "A#3",
          "ticks": 79704,
          "time": 49.815,
          "velocity": 0.3937007874015748
        },
        {
          "duration": 0.12000000000000455,
          "durationTicks": 192,
          "midi": 57,
          "name": "A3",
          "ticks": 79896,
          "time": 49.934999999999995,
          "velocity": 0.3937007874015748
        },
        {
          "duration": 0.11999999999999744,
          "durationTicks": 192,
          "midi": 58,
          "name": "A#3",
          "ticks": 80088,
          "time": 50.055,
          "velocity": 0.3937007874015748
        },
        {
          "duration": 0.11999999999999744,
          "durationTicks": 192,
          "midi": 57,
          "name": "A3",
          "ticks": 80280,
          "time": 50.175,
          "velocity": 0.3937007874015748
        },
        {
          "duration": 0.12000000000000455,
          "durationTicks": 192,
          "midi": 57,
          "name": "A3",
          "ticks": 80472,
          "time": 50.294999999999995,
          "velocity": 0.3937007874015748
        },
        {
          "duration": 0.11999999999999744,
          "durationTicks": 192,
          "midi": 58,
          "name": "A#3",
          "ticks": 80664,
          "time": 50.415,
          "velocity": 0.3937007874015748
        },
        {
          "duration": 0.12000000000000455,
          "durationTicks": 192,
          "midi": 57,
          "name": "A3",
          "ticks": 80856,
          "time": 50.535,
          "velocity": 0.3937007874015748
        },
        {
          "duration": 0.11999999999999744,
          "durationTicks": 192,
          "midi": 58,
          "name": "A#3",
          "ticks": 81048,
          "time": 50.655,
          "velocity": 0.3937007874015748
        },
        {
          "duration": 0.11999999999999744,
          "durationTicks": 192,
          "midi": 58,
          "name": "A#3",
          "ticks": 81240,
          "time": 50.775,
          "velocity": 0.3937007874015748
        },
        {
          "duration": 0.12000000000000455,
          "durationTicks": 192,
          "midi": 55,
          "name": "G3",
          "ticks": 81432,
          "time": 50.894999999999996,
          "velocity": 0.3937007874015748
        },
        {
          "duration": 0.11999999999999744,
          "durationTicks": 192,
          "midi": 58,
          "name": "A#3",
          "ticks": 81624,
          "time": 51.015,
          "velocity": 0.3937007874015748
        },
        {
          "duration": 0.11999999999999744,
          "durationTicks": 192,
          "midi": 55,
          "name": "G3",
          "ticks": 81816,
          "time": 51.135,
          "velocity": 0.3937007874015748
        },
        {
          "duration": 0.12000000000000455,
          "durationTicks": 192,
          "midi": 55,
          "name": "G3",
          "ticks": 82008,
          "time": 51.254999999999995,
          "velocity": 0.3937007874015748
        },
        {
          "duration": 0.11999999999999744,
          "durationTicks": 192,
          "midi": 53,
          "name": "F3",
          "ticks": 82200,
          "time": 51.375,
          "velocity": 0.3937007874015748
        },
        {
          "duration": 0.11999999999999744,
          "durationTicks": 192,
          "midi": 55,
          "name": "G3",
          "ticks": 82392,
          "time": 51.495,
          "velocity": 0.3937007874015748
        },
        {
          "duration": 0.12000000000000455,
          "durationTicks": 192,
          "midi": 53,
          "name": "F3",
          "ticks": 82584,
          "time": 51.614999999999995,
          "velocity": 0.3937007874015748
        },
        {
          "duration": 0.11999999999999744,
          "durationTicks": 192,
          "midi": 53,
          "name": "F3",
          "ticks": 82776,
          "time": 51.735,
          "velocity": 0.3937007874015748
        },
        {
          "duration": 0.12000000000000455,
          "durationTicks": 192,
          "midi": 60,
          "name": "C4",
          "ticks": 82968,
          "time": 51.855,
          "velocity": 0.3937007874015748
        },
        {
          "duration": 0.11999999999999744,
          "durationTicks": 192,
          "midi": 53,
          "name": "F3",
          "ticks": 83160,
          "time": 51.975,
          "velocity": 0.3937007874015748
        },
        {
          "duration": 0.11999999999999744,
          "durationTicks": 192,
          "midi": 60,
          "name": "C4",
          "ticks": 83352,
          "time": 52.095,
          "velocity": 0.3937007874015748
        },
        {
          "duration": 0.12000000000000455,
          "durationTicks": 192,
          "midi": 60,
          "name": "C4",
          "ticks": 83544,
          "time": 52.214999999999996,
          "velocity": 0.3937007874015748
        },
        {
          "duration": 0.11999999999999744,
          "durationTicks": 192,
          "midi": 60,
          "name": "C4",
          "ticks": 83736,
          "time": 52.335,
          "velocity": 0.3937007874015748
        },
        {
          "duration": 0.11999999999999744,
          "durationTicks": 192,
          "midi": 60,
          "name": "C4",
          "ticks": 83928,
          "time": 52.455,
          "velocity": 0.3937007874015748
        },
        {
          "duration": 0.12000000000000455,
          "durationTicks": 192,
          "midi": 60,
          "name": "C4",
          "ticks": 84120,
          "time": 52.574999999999996,
          "velocity": 0.3937007874015748
        },
        {
          "duration": 0.11999999999999744,
          "durationTicks": 192,
          "midi": 60,
          "name": "C4",
          "ticks": 84312,
          "time": 52.695,
          "velocity": 0.3937007874015748
        },
        {
          "duration": 0.11999999999999744,
          "durationTicks": 192,
          "midi": 62,
          "name": "D4",
          "ticks": 84504,
          "time": 52.815,
          "velocity": 0.3937007874015748
        },
        {
          "duration": 0.12000000000000455,
          "durationTicks": 192,
          "midi": 60,
          "name": "C4",
          "ticks": 84696,
          "time": 52.934999999999995,
          "velocity": 0.3937007874015748
        },
        {
          "duration": 0.11999999999999744,
          "durationTicks": 192,
          "midi": 62,
          "name": "D4",
          "ticks": 84888,
          "time": 53.055,
          "velocity": 0.3937007874015748
        },
        {
          "duration": 0.11999999999999744,
          "durationTicks": 192,
          "midi": 62,
          "name": "D4",
          "ticks": 85080,
          "time": 53.175,
          "velocity": 0.3937007874015748
        },
        {
          "duration": 0.12000000000000455,
          "durationTicks": 192,
          "midi": 65,
          "name": "F4",
          "ticks": 85272,
          "time": 53.294999999999995,
          "velocity": 0.3937007874015748
        },
        {
          "duration": 0.11999999999999744,
          "durationTicks": 192,
          "midi": 62,
          "name": "D4",
          "ticks": 85464,
          "time": 53.415,
          "velocity": 0.3937007874015748
        },
        {
          "duration": 0.12000000000000455,
          "durationTicks": 192,
          "midi": 65,
          "name": "F4",
          "ticks": 85656,
          "time": 53.535,
          "velocity": 0.3937007874015748
        },
        {
          "duration": 0.11999999999999744,
          "durationTicks": 192,
          "midi": 65,
          "name": "F4",
          "ticks": 85848,
          "time": 53.655,
          "velocity": 0.3937007874015748
        },
        {
          "duration": 0.11999999999999744,
          "durationTicks": 192,
          "midi": 62,
          "name": "D4",
          "ticks": 86040,
          "time": 53.775,
          "velocity": 0.3937007874015748
        },
        {
          "duration": 0.12000000000000455,
          "durationTicks": 192,
          "midi": 65,
          "name": "F4",
          "ticks": 86232,
          "time": 53.894999999999996,
          "velocity": 0.3937007874015748
        },
        {
          "duration": 0.11999999999999744,
          "durationTicks": 192,
          "midi": 62,
          "name": "D4",
          "ticks": 86424,
          "time": 54.015,
          "velocity": 0.3937007874015748
        },
        {
          "duration": 0.11999999999999744,
          "durationTicks": 192,
          "midi": 62,
          "name": "D4",
          "ticks": 86616,
          "time": 54.135,
          "velocity": 0.3937007874015748
        },
        {
          "duration": 0.12000000000000455,
          "durationTicks": 192,
          "midi": 60,
          "name": "C4",
          "ticks": 86808,
          "time": 54.254999999999995,
          "velocity": 0.3937007874015748
        },
        {
          "duration": 0.11999999999999744,
          "durationTicks": 192,
          "midi": 62,
          "name": "D4",
          "ticks": 87000,
          "time": 54.375,
          "velocity": 0.3937007874015748
        },
        {
          "duration": 0.11999999999999744,
          "durationTicks": 192,
          "midi": 60,
          "name": "C4",
          "ticks": 87192,
          "time": 54.495,
          "velocity": 0.3937007874015748
        },
        {
          "duration": 0.12000000000000455,
          "durationTicks": 192,
          "midi": 60,
          "name": "C4",
          "ticks": 87384,
          "time": 54.614999999999995,
          "velocity": 0.3937007874015748
        },
        {
          "duration": 0.11999999999999744,
          "durationTicks": 192,
          "midi": 58,
          "name": "A#3",
          "ticks": 87576,
          "time": 54.735,
          "velocity": 0.3937007874015748
        },
        {
          "duration": 0.12000000000000455,
          "durationTicks": 192,
          "midi": 60,
          "name": "C4",
          "ticks": 87768,
          "time": 54.855,
          "velocity": 0.3937007874015748
        },
        {
          "duration": 0.11999999999999744,
          "durationTicks": 192,
          "midi": 58,
          "name": "A#3",
          "ticks": 87960,
          "time": 54.975,
          "velocity": 0.3937007874015748
        },
        {
          "duration": 0.11999999999999744,
          "durationTicks": 192,
          "midi": 58,
          "name": "A#3",
          "ticks": 88152,
          "time": 55.095,
          "velocity": 0.3937007874015748
        },
        {
          "duration": 0.12000000000000455,
          "durationTicks": 192,
          "midi": 60,
          "name": "C4",
          "ticks": 88344,
          "time": 55.214999999999996,
          "velocity": 0.3937007874015748
        },
        {
          "duration": 0.11999999999999744,
          "durationTicks": 192,
          "midi": 58,
          "name": "A#3",
          "ticks": 88536,
          "time": 55.335,
          "velocity": 0.3937007874015748
        },
        {
          "duration": 0.11999999999999744,
          "durationTicks": 192,
          "midi": 60,
          "name": "C4",
          "ticks": 88728,
          "time": 55.455,
          "velocity": 0.3937007874015748
        },
        {
          "duration": 0.12000000000000455,
          "durationTicks": 192,
          "midi": 60,
          "name": "C4",
          "ticks": 88920,
          "time": 55.574999999999996,
          "velocity": 0.3937007874015748
        },
        {
          "duration": 0.11999999999999744,
          "durationTicks": 192,
          "midi": 63,
          "name": "D#4",
          "ticks": 89112,
          "time": 55.695,
          "velocity": 0.3937007874015748
        },
        {
          "duration": 0.12000000000000455,
          "durationTicks": 192,
          "midi": 63,
          "name": "D#4",
          "ticks": 89496,
          "time": 55.934999999999995,
          "velocity": 0.3937007874015748
        },
        {
          "duration": 0.11999999999999744,
          "durationTicks": 192,
          "midi": 63,
          "name": "D#4",
          "ticks": 89688,
          "time": 56.055,
          "velocity": 0.3937007874015748
        },
        {
          "duration": 0.11999999999999744,
          "durationTicks": 192,
          "midi": 60,
          "name": "C4",
          "ticks": 89880,
          "time": 56.175,
          "velocity": 0.3937007874015748
        },
        {
          "duration": 0.12000000000000455,
          "durationTicks": 192,
          "midi": 63,
          "name": "D#4",
          "ticks": 90072,
          "time": 56.294999999999995,
          "velocity": 0.3937007874015748
        },
        {
          "duration": 0.11999999999999744,
          "durationTicks": 192,
          "midi": 60,
          "name": "C4",
          "ticks": 90264,
          "time": 56.415,
          "velocity": 0.3937007874015748
        },
        {
          "duration": 0.12000000000000455,
          "durationTicks": 192,
          "midi": 60,
          "name": "C4",
          "ticks": 90456,
          "time": 56.535,
          "velocity": 0.3937007874015748
        },
        {
          "duration": 0.11999999999999744,
          "durationTicks": 192,
          "midi": 62,
          "name": "D4",
          "ticks": 90648,
          "time": 56.655,
          "velocity": 0.3937007874015748
        },
        {
          "duration": 0.11999999999999744,
          "durationTicks": 192,
          "midi": 60,
          "name": "C4",
          "ticks": 90840,
          "time": 56.775,
          "velocity": 0.3937007874015748
        },
        {
          "duration": 0.12000000000000455,
          "durationTicks": 192,
          "midi": 62,
          "name": "D4",
          "ticks": 91032,
          "time": 56.894999999999996,
          "velocity": 0.3937007874015748
        },
        {
          "duration": 0.11999999999999744,
          "durationTicks": 192,
          "midi": 62,
          "name": "D4",
          "ticks": 91224,
          "time": 57.015,
          "velocity": 0.3937007874015748
        },
        {
          "duration": 0.11999999999999744,
          "durationTicks": 192,
          "midi": 58,
          "name": "A#3",
          "ticks": 91416,
          "time": 57.135,
          "velocity": 0.3937007874015748
        },
        {
          "duration": 0.12000000000000455,
          "durationTicks": 192,
          "midi": 62,
          "name": "D4",
          "ticks": 91608,
          "time": 57.254999999999995,
          "velocity": 0.3937007874015748
        },
        {
          "duration": 0.11999999999999744,
          "durationTicks": 192,
          "midi": 58,
          "name": "A#3",
          "ticks": 91800,
          "time": 57.375,
          "velocity": 0.3937007874015748
        },
        {
          "duration": 0.11999999999999744,
          "durationTicks": 192,
          "midi": 58,
          "name": "A#3",
          "ticks": 91992,
          "time": 57.495,
          "velocity": 0.3937007874015748
        },
        {
          "duration": 0.12000000000000455,
          "durationTicks": 192,
          "midi": 57,
          "name": "A3",
          "ticks": 92184,
          "time": 57.614999999999995,
          "velocity": 0.3937007874015748
        },
        {
          "duration": 0.11999999999999744,
          "durationTicks": 192,
          "midi": 58,
          "name": "A#3",
          "ticks": 92376,
          "time": 57.735,
          "velocity": 0.3937007874015748
        },
        {
          "duration": 0.11999999999999744,
          "durationTicks": 192,
          "midi": 57,
          "name": "A3",
          "ticks": 92568,
          "time": 57.855,
          "velocity": 0.3937007874015748
        },
        {
          "duration": 0.12000000000000455,
          "durationTicks": 192,
          "midi": 57,
          "name": "A3",
          "ticks": 92760,
          "time": 57.974999999999994,
          "velocity": 0.3937007874015748
        },
        {
          "duration": 0.11999999999999744,
          "durationTicks": 192,
          "midi": 58,
          "name": "A#3",
          "ticks": 92952,
          "time": 58.095,
          "velocity": 0.3937007874015748
        },
        {
          "duration": 0.12000000000000455,
          "durationTicks": 192,
          "midi": 57,
          "name": "A3",
          "ticks": 93144,
          "time": 58.214999999999996,
          "velocity": 0.3937007874015748
        },
        {
          "duration": 0.11999999999999744,
          "durationTicks": 192,
          "midi": 58,
          "name": "A#3",
          "ticks": 93336,
          "time": 58.335,
          "velocity": 0.3937007874015748
        },
        {
          "duration": 0.11999999999999744,
          "durationTicks": 192,
          "midi": 58,
          "name": "A#3",
          "ticks": 93528,
          "time": 58.455,
          "velocity": 0.3937007874015748
        },
        {
          "duration": 0.12000000000000455,
          "durationTicks": 192,
          "midi": 55,
          "name": "G3",
          "ticks": 93720,
          "time": 58.574999999999996,
          "velocity": 0.3937007874015748
        },
        {
          "duration": 0.11999999999999744,
          "durationTicks": 192,
          "midi": 58,
          "name": "A#3",
          "ticks": 93912,
          "time": 58.695,
          "velocity": 0.3937007874015748
        },
        {
          "duration": 0.11999999999999744,
          "durationTicks": 192,
          "midi": 55,
          "name": "G3",
          "ticks": 94104,
          "time": 58.815,
          "velocity": 0.3937007874015748
        },
        {
          "duration": 0.12000000000000455,
          "durationTicks": 192,
          "midi": 55,
          "name": "G3",
          "ticks": 94296,
          "time": 58.934999999999995,
          "velocity": 0.3937007874015748
        },
        {
          "duration": 0.11999999999999744,
          "durationTicks": 192,
          "midi": 53,
          "name": "F3",
          "ticks": 94488,
          "time": 59.055,
          "velocity": 0.3937007874015748
        },
        {
          "duration": 0.11999999999999744,
          "durationTicks": 192,
          "midi": 55,
          "name": "G3",
          "ticks": 94680,
          "time": 59.175,
          "velocity": 0.3937007874015748
        },
        {
          "duration": 0.12000000000000455,
          "durationTicks": 192,
          "midi": 53,
          "name": "F3",
          "ticks": 94872,
          "time": 59.294999999999995,
          "velocity": 0.3937007874015748
        },
        {
          "duration": 0.11999999999999744,
          "durationTicks": 192,
          "midi": 53,
          "name": "F3",
          "ticks": 95064,
          "time": 59.415,
          "velocity": 0.3937007874015748
        },
        {
          "duration": 0.12000000000000455,
          "durationTicks": 192,
          "midi": 60,
          "name": "C4",
          "ticks": 95256,
          "time": 59.535,
          "velocity": 0.3937007874015748
        },
        {
          "duration": 0.11999999999999744,
          "durationTicks": 192,
          "midi": 53,
          "name": "F3",
          "ticks": 95448,
          "time": 59.655,
          "velocity": 0.3937007874015748
        },
        {
          "duration": 0.11999999999999744,
          "durationTicks": 192,
          "midi": 60,
          "name": "C4",
          "ticks": 95640,
          "time": 59.775,
          "velocity": 0.3937007874015748
        },
        {
          "duration": 0.12000000000000455,
          "durationTicks": 192,
          "midi": 60,
          "name": "C4",
          "ticks": 95832,
          "time": 59.894999999999996,
          "velocity": 0.3937007874015748
        },
        {
          "duration": 0.11999999999999744,
          "durationTicks": 192,
          "midi": 60,
          "name": "C4",
          "ticks": 96024,
          "time": 60.015,
          "velocity": 0.3937007874015748
        },
        {
          "duration": 0.11999999999999744,
          "durationTicks": 192,
          "midi": 60,
          "name": "C4",
          "ticks": 96216,
          "time": 60.135,
          "velocity": 0.3937007874015748
        },
        {
          "duration": 0.12000000000000455,
          "durationTicks": 192,
          "midi": 60,
          "name": "C4",
          "ticks": 96408,
          "time": 60.254999999999995,
          "velocity": 0.3937007874015748
        },
        {
          "duration": 0.11999999999999744,
          "durationTicks": 192,
          "midi": 60,
          "name": "C4",
          "ticks": 96600,
          "time": 60.375,
          "velocity": 0.3937007874015748
        },
        {
          "duration": 0.11999999999999744,
          "durationTicks": 192,
          "midi": 62,
          "name": "D4",
          "ticks": 96792,
          "time": 60.495,
          "velocity": 0.3937007874015748
        },
        {
          "duration": 0.12000000000000455,
          "durationTicks": 192,
          "midi": 60,
          "name": "C4",
          "ticks": 96984,
          "time": 60.614999999999995,
          "velocity": 0.3937007874015748
        },
        {
          "duration": 0.11999999999999744,
          "durationTicks": 192,
          "midi": 62,
          "name": "D4",
          "ticks": 97176,
          "time": 60.735,
          "velocity": 0.3937007874015748
        },
        {
          "duration": 0.11999999999999744,
          "durationTicks": 192,
          "midi": 62,
          "name": "D4",
          "ticks": 97368,
          "time": 60.855,
          "velocity": 0.3937007874015748
        },
        {
          "duration": 0.12000000000000455,
          "durationTicks": 192,
          "midi": 65,
          "name": "F4",
          "ticks": 97560,
          "time": 60.974999999999994,
          "velocity": 0.3937007874015748
        },
        {
          "duration": 0.11999999999999744,
          "durationTicks": 192,
          "midi": 62,
          "name": "D4",
          "ticks": 97752,
          "time": 61.095,
          "velocity": 0.3937007874015748
        },
        {
          "duration": 0.12000000000000455,
          "durationTicks": 192,
          "midi": 65,
          "name": "F4",
          "ticks": 97944,
          "time": 61.214999999999996,
          "velocity": 0.3937007874015748
        },
        {
          "duration": 0.11999999999999744,
          "durationTicks": 192,
          "midi": 65,
          "name": "F4",
          "ticks": 98136,
          "time": 61.335,
          "velocity": 0.3937007874015748
        },
        {
          "duration": 0.11999999999999744,
          "durationTicks": 192,
          "midi": 62,
          "name": "D4",
          "ticks": 98328,
          "time": 61.455,
          "velocity": 0.3937007874015748
        },
        {
          "duration": 0.12000000000000455,
          "durationTicks": 192,
          "midi": 65,
          "name": "F4",
          "ticks": 98520,
          "time": 61.574999999999996,
          "velocity": 0.3937007874015748
        },
        {
          "duration": 0.11999999999999744,
          "durationTicks": 192,
          "midi": 62,
          "name": "D4",
          "ticks": 98712,
          "time": 61.695,
          "velocity": 0.3937007874015748
        },
        {
          "duration": 0.11999999999999744,
          "durationTicks": 192,
          "midi": 62,
          "name": "D4",
          "ticks": 98904,
          "time": 61.815,
          "velocity": 0.3937007874015748
        },
        {
          "duration": 0.12000000000000455,
          "durationTicks": 192,
          "midi": 60,
          "name": "C4",
          "ticks": 99096,
          "time": 61.934999999999995,
          "velocity": 0.3937007874015748
        },
        {
          "duration": 0.11999999999999744,
          "durationTicks": 192,
          "midi": 62,
          "name": "D4",
          "ticks": 99288,
          "time": 62.055,
          "velocity": 0.3937007874015748
        },
        {
          "duration": 0.11999999999999744,
          "durationTicks": 192,
          "midi": 60,
          "name": "C4",
          "ticks": 99480,
          "time": 62.175,
          "velocity": 0.3937007874015748
        },
        {
          "duration": 0.12000000000000455,
          "durationTicks": 192,
          "midi": 60,
          "name": "C4",
          "ticks": 99672,
          "time": 62.294999999999995,
          "velocity": 0.3937007874015748
        },
        {
          "duration": 0.11999999999999744,
          "durationTicks": 192,
          "midi": 58,
          "name": "A#3",
          "ticks": 99864,
          "time": 62.415,
          "velocity": 0.3937007874015748
        },
        {
          "duration": 0.12000000000000455,
          "durationTicks": 192,
          "midi": 60,
          "name": "C4",
          "ticks": 100056,
          "time": 62.535,
          "velocity": 0.3937007874015748
        },
        {
          "duration": 0.11999999999999744,
          "durationTicks": 192,
          "midi": 58,
          "name": "A#3",
          "ticks": 100248,
          "time": 62.655,
          "velocity": 0.3937007874015748
        },
        {
          "duration": 0.11999999999999744,
          "durationTicks": 192,
          "midi": 58,
          "name": "A#3",
          "ticks": 100440,
          "time": 62.775,
          "velocity": 0.3937007874015748
        },
        {
          "duration": 0.12000000000000455,
          "durationTicks": 192,
          "midi": 60,
          "name": "C4",
          "ticks": 100632,
          "time": 62.894999999999996,
          "velocity": 0.3937007874015748
        },
        {
          "duration": 0.11999999999999744,
          "durationTicks": 192,
          "midi": 58,
          "name": "A#3",
          "ticks": 100824,
          "time": 63.015,
          "velocity": 0.3937007874015748
        },
        {
          "duration": 0.11999999999999744,
          "durationTicks": 192,
          "midi": 60,
          "name": "C4",
          "ticks": 101016,
          "time": 63.135,
          "velocity": 0.3937007874015748
        },
        {
          "duration": 0.12000000000000455,
          "durationTicks": 192,
          "midi": 60,
          "name": "C4",
          "ticks": 101208,
          "time": 63.254999999999995,
          "velocity": 0.3937007874015748
        },
        {
          "duration": 0.11999999999999744,
          "durationTicks": 192,
          "midi": 63,
          "name": "D#4",
          "ticks": 101400,
          "time": 63.375,
          "velocity": 0.3937007874015748
        },
        {
          "duration": 0.12000000000000455,
          "durationTicks": 192,
          "midi": 63,
          "name": "D#4",
          "ticks": 101784,
          "time": 63.614999999999995,
          "velocity": 0.3937007874015748
        },
        {
          "duration": 0.11999999999999744,
          "durationTicks": 192,
          "midi": 63,
          "name": "D#4",
          "ticks": 101976,
          "time": 63.735,
          "velocity": 0.3937007874015748
        },
        {
          "duration": 0.11999999999999744,
          "durationTicks": 192,
          "midi": 60,
          "name": "C4",
          "ticks": 102168,
          "time": 63.855,
          "velocity": 0.3937007874015748
        },
        {
          "duration": 0.12000000000000455,
          "durationTicks": 192,
          "midi": 63,
          "name": "D#4",
          "ticks": 102360,
          "time": 63.974999999999994,
          "velocity": 0.3937007874015748
        },
        {
          "duration": 0.12000000000000455,
          "durationTicks": 192,
          "midi": 60,
          "name": "C4",
          "ticks": 102552,
          "time": 64.095,
          "velocity": 0.3937007874015748
        },
        {
          "duration": 0.11999999999999034,
          "durationTicks": 192,
          "midi": 60,
          "name": "C4",
          "ticks": 102744,
          "time": 64.215,
          "velocity": 0.3937007874015748
        },
        {
          "duration": 0.12000000000000455,
          "durationTicks": 192,
          "midi": 62,
          "name": "D4",
          "ticks": 102936,
          "time": 64.335,
          "velocity": 0.3937007874015748
        },
        {
          "duration": 0.12000000000000455,
          "durationTicks": 192,
          "midi": 60,
          "name": "C4",
          "ticks": 103128,
          "time": 64.455,
          "velocity": 0.3937007874015748
        },
        {
          "duration": 0.11999999999999034,
          "durationTicks": 192,
          "midi": 62,
          "name": "D4",
          "ticks": 103320,
          "time": 64.575,
          "velocity": 0.3937007874015748
        },
        {
          "duration": 0.12000000000000455,
          "durationTicks": 192,
          "midi": 62,
          "name": "D4",
          "ticks": 103512,
          "time": 64.695,
          "velocity": 0.3937007874015748
        },
        {
          "duration": 0.12000000000000455,
          "durationTicks": 192,
          "midi": 58,
          "name": "A#3",
          "ticks": 103704,
          "time": 64.815,
          "velocity": 0.3937007874015748
        },
        {
          "duration": 0.11999999999999034,
          "durationTicks": 192,
          "midi": 62,
          "name": "D4",
          "ticks": 103896,
          "time": 64.935,
          "velocity": 0.3937007874015748
        },
        {
          "duration": 0.12000000000000455,
          "durationTicks": 192,
          "midi": 58,
          "name": "A#3",
          "ticks": 104088,
          "time": 65.05499999999999,
          "velocity": 0.3937007874015748
        },
        {
          "duration": 0.12000000000000455,
          "durationTicks": 192,
          "midi": 58,
          "name": "A#3",
          "ticks": 104280,
          "time": 65.175,
          "velocity": 0.3937007874015748
        },
        {
          "duration": 0.11999999999999034,
          "durationTicks": 192,
          "midi": 57,
          "name": "A3",
          "ticks": 104472,
          "time": 65.295,
          "velocity": 0.3937007874015748
        },
        {
          "duration": 0.12000000000000455,
          "durationTicks": 192,
          "midi": 58,
          "name": "A#3",
          "ticks": 104664,
          "time": 65.41499999999999,
          "velocity": 0.3937007874015748
        },
        {
          "duration": 0.12000000000000455,
          "durationTicks": 192,
          "midi": 57,
          "name": "A3",
          "ticks": 104856,
          "time": 65.535,
          "velocity": 0.3937007874015748
        },
        {
          "duration": 0.11999999999999034,
          "durationTicks": 192,
          "midi": 57,
          "name": "A3",
          "ticks": 105048,
          "time": 65.655,
          "velocity": 0.3937007874015748
        },
        {
          "duration": 0.12000000000000455,
          "durationTicks": 192,
          "midi": 58,
          "name": "A#3",
          "ticks": 105240,
          "time": 65.77499999999999,
          "velocity": 0.3937007874015748
        },
        {
          "duration": 0.12000000000000455,
          "durationTicks": 192,
          "midi": 57,
          "name": "A3",
          "ticks": 105432,
          "time": 65.895,
          "velocity": 0.3937007874015748
        },
        {
          "duration": 0.11999999999999034,
          "durationTicks": 192,
          "midi": 58,
          "name": "A#3",
          "ticks": 105624,
          "time": 66.015,
          "velocity": 0.3937007874015748
        },
        {
          "duration": 0.12000000000000455,
          "durationTicks": 192,
          "midi": 58,
          "name": "A#3",
          "ticks": 105816,
          "time": 66.13499999999999,
          "velocity": 0.3937007874015748
        },
        {
          "duration": 0.12000000000000455,
          "durationTicks": 192,
          "midi": 55,
          "name": "G3",
          "ticks": 106008,
          "time": 66.255,
          "velocity": 0.3937007874015748
        },
        {
          "duration": 0.12000000000000455,
          "durationTicks": 192,
          "midi": 58,
          "name": "A#3",
          "ticks": 106200,
          "time": 66.375,
          "velocity": 0.3937007874015748
        },
        {
          "duration": 0.11999999999999034,
          "durationTicks": 192,
          "midi": 55,
          "name": "G3",
          "ticks": 106392,
          "time": 66.495,
          "velocity": 0.3937007874015748
        },
        {
          "duration": 0.12000000000000455,
          "durationTicks": 192,
          "midi": 55,
          "name": "G3",
          "ticks": 106584,
          "time": 66.615,
          "velocity": 0.3937007874015748
        },
        {
          "duration": 0.12000000000000455,
          "durationTicks": 192,
          "midi": 53,
          "name": "F3",
          "ticks": 106776,
          "time": 66.735,
          "velocity": 0.3937007874015748
        },
        {
          "duration": 0.11999999999999034,
          "durationTicks": 192,
          "midi": 55,
          "name": "G3",
          "ticks": 106968,
          "time": 66.855,
          "velocity": 0.3937007874015748
        },
        {
          "duration": 0.12000000000000455,
          "durationTicks": 192,
          "midi": 53,
          "name": "F3",
          "ticks": 107160,
          "time": 66.975,
          "velocity": 0.3937007874015748
        },
        {
          "duration": 0.12000000000000455,
          "durationTicks": 192,
          "midi": 53,
          "name": "F3",
          "ticks": 107352,
          "time": 67.095,
          "velocity": 0.3937007874015748
        },
        {
          "duration": 0.11999999999999034,
          "durationTicks": 192,
          "midi": 60,
          "name": "C4",
          "ticks": 107544,
          "time": 67.215,
          "velocity": 0.3937007874015748
        },
        {
          "duration": 0.12000000000000455,
          "durationTicks": 192,
          "midi": 53,
          "name": "F3",
          "ticks": 107736,
          "time": 67.335,
          "velocity": 0.3937007874015748
        },
        {
          "duration": 0.12000000000000455,
          "durationTicks": 192,
          "midi": 60,
          "name": "C4",
          "ticks": 107928,
          "time": 67.455,
          "velocity": 0.3937007874015748
        },
        {
          "duration": 0.11999999999999034,
          "durationTicks": 192,
          "midi": 60,
          "name": "C4",
          "ticks": 108120,
          "time": 67.575,
          "velocity": 0.3937007874015748
        },
        {
          "duration": 0.12000000000000455,
          "durationTicks": 192,
          "midi": 60,
          "name": "C4",
          "ticks": 108312,
          "time": 67.695,
          "velocity": 0.3937007874015748
        },
        {
          "duration": 0.12000000000000455,
          "durationTicks": 192,
          "midi": 60,
          "name": "C4",
          "ticks": 108504,
          "time": 67.815,
          "velocity": 0.3937007874015748
        },
        {
          "duration": 0.11999999999999034,
          "durationTicks": 192,
          "midi": 60,
          "name": "C4",
          "ticks": 108696,
          "time": 67.935,
          "velocity": 0.3937007874015748
        },
        {
          "duration": 0.12000000000000455,
          "durationTicks": 192,
          "midi": 60,
          "name": "C4",
          "ticks": 108888,
          "time": 68.05499999999999,
          "velocity": 0.3937007874015748
        },
        {
          "duration": 0.12000000000000455,
          "durationTicks": 192,
          "midi": 62,
          "name": "D4",
          "ticks": 109080,
          "time": 68.175,
          "velocity": 0.3937007874015748
        },
        {
          "duration": 0.11999999999999034,
          "durationTicks": 192,
          "midi": 60,
          "name": "C4",
          "ticks": 109272,
          "time": 68.295,
          "velocity": 0.3937007874015748
        },
        {
          "duration": 0.12000000000000455,
          "durationTicks": 192,
          "midi": 62,
          "name": "D4",
          "ticks": 109464,
          "time": 68.41499999999999,
          "velocity": 0.3937007874015748
        },
        {
          "duration": 0.12000000000000455,
          "durationTicks": 192,
          "midi": 62,
          "name": "D4",
          "ticks": 109656,
          "time": 68.535,
          "velocity": 0.3937007874015748
        },
        {
          "duration": 0.11999999999999034,
          "durationTicks": 192,
          "midi": 65,
          "name": "F4",
          "ticks": 109848,
          "time": 68.655,
          "velocity": 0.3937007874015748
        },
        {
          "duration": 0.12000000000000455,
          "durationTicks": 192,
          "midi": 62,
          "name": "D4",
          "ticks": 110040,
          "time": 68.77499999999999,
          "velocity": 0.3937007874015748
        },
        {
          "duration": 0.12000000000000455,
          "durationTicks": 192,
          "midi": 65,
          "name": "F4",
          "ticks": 110232,
          "time": 68.895,
          "velocity": 0.3937007874015748
        },
        {
          "duration": 0.11999999999999034,
          "durationTicks": 192,
          "midi": 65,
          "name": "F4",
          "ticks": 110424,
          "time": 69.015,
          "velocity": 0.3937007874015748
        },
        {
          "duration": 0.12000000000000455,
          "durationTicks": 192,
          "midi": 62,
          "name": "D4",
          "ticks": 110616,
          "time": 69.13499999999999,
          "velocity": 0.3937007874015748
        },
        {
          "duration": 0.12000000000000455,
          "durationTicks": 192,
          "midi": 65,
          "name": "F4",
          "ticks": 110808,
          "time": 69.255,
          "velocity": 0.3937007874015748
        },
        {
          "duration": 0.11999999999999034,
          "durationTicks": 192,
          "midi": 62,
          "name": "D4",
          "ticks": 111000,
          "time": 69.375,
          "velocity": 0.3937007874015748
        },
        {
          "duration": 0.12000000000000455,
          "durationTicks": 192,
          "midi": 62,
          "name": "D4",
          "ticks": 111192,
          "time": 69.49499999999999,
          "velocity": 0.3937007874015748
        },
        {
          "duration": 0.12000000000000455,
          "durationTicks": 192,
          "midi": 60,
          "name": "C4",
          "ticks": 111384,
          "time": 69.615,
          "velocity": 0.3937007874015748
        },
        {
          "duration": 0.12000000000000455,
          "durationTicks": 192,
          "midi": 62,
          "name": "D4",
          "ticks": 111576,
          "time": 69.735,
          "velocity": 0.3937007874015748
        },
        {
          "duration": 0.11999999999999034,
          "durationTicks": 192,
          "midi": 60,
          "name": "C4",
          "ticks": 111768,
          "time": 69.855,
          "velocity": 0.3937007874015748
        },
        {
          "duration": 0.12000000000000455,
          "durationTicks": 192,
          "midi": 60,
          "name": "C4",
          "ticks": 111960,
          "time": 69.975,
          "velocity": 0.3937007874015748
        },
        {
          "duration": 0.12000000000000455,
          "durationTicks": 192,
          "midi": 58,
          "name": "A#3",
          "ticks": 112152,
          "time": 70.095,
          "velocity": 0.3937007874015748
        },
        {
          "duration": 0.11999999999999034,
          "durationTicks": 192,
          "midi": 60,
          "name": "C4",
          "ticks": 112344,
          "time": 70.215,
          "velocity": 0.3937007874015748
        },
        {
          "duration": 0.12000000000000455,
          "durationTicks": 192,
          "midi": 58,
          "name": "A#3",
          "ticks": 112536,
          "time": 70.335,
          "velocity": 0.3937007874015748
        },
        {
          "duration": 0.12000000000000455,
          "durationTicks": 192,
          "midi": 58,
          "name": "A#3",
          "ticks": 112728,
          "time": 70.455,
          "velocity": 0.3937007874015748
        },
        {
          "duration": 0.11999999999999034,
          "durationTicks": 192,
          "midi": 60,
          "name": "C4",
          "ticks": 112920,
          "time": 70.575,
          "velocity": 0.3937007874015748
        },
        {
          "duration": 0.12000000000000455,
          "durationTicks": 192,
          "midi": 58,
          "name": "A#3",
          "ticks": 113112,
          "time": 70.695,
          "velocity": 0.3937007874015748
        },
        {
          "duration": 0.12000000000000455,
          "durationTicks": 192,
          "midi": 60,
          "name": "C4",
          "ticks": 113304,
          "time": 70.815,
          "velocity": 0.3937007874015748
        },
        {
          "duration": 0.11999999999999034,
          "durationTicks": 192,
          "midi": 60,
          "name": "C4",
          "ticks": 113496,
          "time": 70.935,
          "velocity": 0.3937007874015748
        },
        {
          "duration": 0.12000000000000455,
          "durationTicks": 192,
          "midi": 63,
          "name": "D#4",
          "ticks": 113688,
          "time": 71.05499999999999,
          "velocity": 0.3937007874015748
        },
        {
          "duration": 0.11999999999999034,
          "durationTicks": 192,
          "midi": 63,
          "name": "D#4",
          "ticks": 114072,
          "time": 71.295,
          "velocity": 0.3937007874015748
        },
        {
          "duration": 0.12000000000000455,
          "durationTicks": 192,
          "midi": 63,
          "name": "D#4",
          "ticks": 114264,
          "time": 71.41499999999999,
          "velocity": 0.3937007874015748
        },
        {
          "duration": 0.12000000000000455,
          "durationTicks": 192,
          "midi": 60,
          "name": "C4",
          "ticks": 114456,
          "time": 71.535,
          "velocity": 0.3937007874015748
        },
        {
          "duration": 0.11999999999999034,
          "durationTicks": 192,
          "midi": 63,
          "name": "D#4",
          "ticks": 114648,
          "time": 71.655,
          "velocity": 0.3937007874015748
        },
        {
          "duration": 0.12000000000000455,
          "durationTicks": 192,
          "midi": 60,
          "name": "C4",
          "ticks": 114840,
          "time": 71.77499999999999,
          "velocity": 0.3937007874015748
        },
        {
          "duration": 0.12000000000000455,
          "durationTicks": 192,
          "midi": 60,
          "name": "C4",
          "ticks": 115032,
          "time": 71.895,
          "velocity": 0.3937007874015748
        },
        {
          "duration": 0.11999999999999034,
          "durationTicks": 192,
          "midi": 62,
          "name": "D4",
          "ticks": 115224,
          "time": 72.015,
          "velocity": 0.3937007874015748
        },
        {
          "duration": 0.12000000000000455,
          "durationTicks": 192,
          "midi": 60,
          "name": "C4",
          "ticks": 115416,
          "time": 72.13499999999999,
          "velocity": 0.3937007874015748
        },
        {
          "duration": 0.12000000000000455,
          "durationTicks": 192,
          "midi": 62,
          "name": "D4",
          "ticks": 115608,
          "time": 72.255,
          "velocity": 0.3937007874015748
        },
        {
          "duration": 0.11999999999999034,
          "durationTicks": 192,
          "midi": 62,
          "name": "D4",
          "ticks": 115800,
          "time": 72.375,
          "velocity": 0.3937007874015748
        },
        {
          "duration": 0.12000000000000455,
          "durationTicks": 192,
          "midi": 58,
          "name": "A#3",
          "ticks": 115992,
          "time": 72.49499999999999,
          "velocity": 0.3937007874015748
        },
        {
          "duration": 0.12000000000000455,
          "durationTicks": 192,
          "midi": 62,
          "name": "D4",
          "ticks": 116184,
          "time": 72.615,
          "velocity": 0.3937007874015748
        },
        {
          "duration": 0.12000000000000455,
          "durationTicks": 192,
          "midi": 58,
          "name": "A#3",
          "ticks": 116376,
          "time": 72.735,
          "velocity": 0.3937007874015748
        },
        {
          "duration": 0.11999999999999034,
          "durationTicks": 192,
          "midi": 58,
          "name": "A#3",
          "ticks": 116568,
          "time": 72.855,
          "velocity": 0.3937007874015748
        },
        {
          "duration": 0.12000000000000455,
          "durationTicks": 192,
          "midi": 57,
          "name": "A3",
          "ticks": 116760,
          "time": 72.975,
          "velocity": 0.3937007874015748
        },
        {
          "duration": 0.12000000000000455,
          "durationTicks": 192,
          "midi": 58,
          "name": "A#3",
          "ticks": 116952,
          "time": 73.095,
          "velocity": 0.3937007874015748
        },
        {
          "duration": 0.11999999999999034,
          "durationTicks": 192,
          "midi": 57,
          "name": "A3",
          "ticks": 117144,
          "time": 73.215,
          "velocity": 0.3937007874015748
        },
        {
          "duration": 0.12000000000000455,
          "durationTicks": 192,
          "midi": 57,
          "name": "A3",
          "ticks": 117336,
          "time": 73.335,
          "velocity": 0.3937007874015748
        },
        {
          "duration": 0.12000000000000455,
          "durationTicks": 192,
          "midi": 58,
          "name": "A#3",
          "ticks": 117528,
          "time": 73.455,
          "velocity": 0.3937007874015748
        },
        {
          "duration": 0.11999999999999034,
          "durationTicks": 192,
          "midi": 57,
          "name": "A3",
          "ticks": 117720,
          "time": 73.575,
          "velocity": 0.3937007874015748
        },
        {
          "duration": 0.12000000000000455,
          "durationTicks": 192,
          "midi": 58,
          "name": "A#3",
          "ticks": 117912,
          "time": 73.695,
          "velocity": 0.3937007874015748
        },
        {
          "duration": 0.12000000000000455,
          "durationTicks": 192,
          "midi": 58,
          "name": "A#3",
          "ticks": 118104,
          "time": 73.815,
          "velocity": 0.3937007874015748
        },
        {
          "duration": 0.11999999999999034,
          "durationTicks": 192,
          "midi": 55,
          "name": "G3",
          "ticks": 118296,
          "time": 73.935,
          "velocity": 0.3937007874015748
        },
        {
          "duration": 0.12000000000000455,
          "durationTicks": 192,
          "midi": 58,
          "name": "A#3",
          "ticks": 118488,
          "time": 74.05499999999999,
          "velocity": 0.3937007874015748
        },
        {
          "duration": 0.12000000000000455,
          "durationTicks": 192,
          "midi": 55,
          "name": "G3",
          "ticks": 118680,
          "time": 74.175,
          "velocity": 0.3937007874015748
        },
        {
          "duration": 0.11999999999999034,
          "durationTicks": 192,
          "midi": 55,
          "name": "G3",
          "ticks": 118872,
          "time": 74.295,
          "velocity": 0.3937007874015748
        },
        {
          "duration": 0.12000000000000455,
          "durationTicks": 192,
          "midi": 53,
          "name": "F3",
          "ticks": 119064,
          "time": 74.41499999999999,
          "velocity": 0.3937007874015748
        },
        {
          "duration": 0.12000000000000455,
          "durationTicks": 192,
          "midi": 55,
          "name": "G3",
          "ticks": 119256,
          "time": 74.535,
          "velocity": 0.3937007874015748
        },
        {
          "duration": 0.11999999999999034,
          "durationTicks": 192,
          "midi": 53,
          "name": "F3",
          "ticks": 119448,
          "time": 74.655,
          "velocity": 0.3937007874015748
        },
        {
          "duration": 0.12000000000000455,
          "durationTicks": 192,
          "midi": 53,
          "name": "F3",
          "ticks": 119640,
          "time": 74.77499999999999,
          "velocity": 0.3937007874015748
        },
        {
          "duration": 0.12000000000000455,
          "durationTicks": 192,
          "midi": 60,
          "name": "C4",
          "ticks": 119832,
          "time": 74.895,
          "velocity": 0.3937007874015748
        },
        {
          "duration": 0.11999999999999034,
          "durationTicks": 192,
          "midi": 53,
          "name": "F3",
          "ticks": 120024,
          "time": 75.015,
          "velocity": 0.3937007874015748
        },
        {
          "duration": 0.12000000000000455,
          "durationTicks": 192,
          "midi": 60,
          "name": "C4",
          "ticks": 120216,
          "time": 75.13499999999999,
          "velocity": 0.3937007874015748
        },
        {
          "duration": 0.12000000000000455,
          "durationTicks": 192,
          "midi": 60,
          "name": "C4",
          "ticks": 120408,
          "time": 75.255,
          "velocity": 0.3937007874015748
        },
        {
          "duration": 0.11999999999999034,
          "durationTicks": 192,
          "midi": 60,
          "name": "C4",
          "ticks": 120600,
          "time": 75.375,
          "velocity": 0.3937007874015748
        },
        {
          "duration": 0.12000000000000455,
          "durationTicks": 192,
          "midi": 60,
          "name": "C4",
          "ticks": 120792,
          "time": 75.49499999999999,
          "velocity": 0.3937007874015748
        },
        {
          "duration": 0.12000000000000455,
          "durationTicks": 192,
          "midi": 60,
          "name": "C4",
          "ticks": 120984,
          "time": 75.615,
          "velocity": 0.3937007874015748
        },
        {
          "duration": 0.12000000000000455,
          "durationTicks": 192,
          "midi": 60,
          "name": "C4",
          "ticks": 121176,
          "time": 75.735,
          "velocity": 0.3937007874015748
        },
        {
          "duration": 0.11999999999999034,
          "durationTicks": 192,
          "midi": 62,
          "name": "D4",
          "ticks": 121368,
          "time": 75.855,
          "velocity": 0.3937007874015748
        },
        {
          "duration": 0.12000000000000455,
          "durationTicks": 192,
          "midi": 60,
          "name": "C4",
          "ticks": 121560,
          "time": 75.975,
          "velocity": 0.3937007874015748
        },
        {
          "duration": 0.12000000000000455,
          "durationTicks": 192,
          "midi": 62,
          "name": "D4",
          "ticks": 121752,
          "time": 76.095,
          "velocity": 0.3937007874015748
        },
        {
          "duration": 0.11999999999999034,
          "durationTicks": 192,
          "midi": 62,
          "name": "D4",
          "ticks": 121944,
          "time": 76.215,
          "velocity": 0.3937007874015748
        },
        {
          "duration": 0.12000000000000455,
          "durationTicks": 192,
          "midi": 65,
          "name": "F4",
          "ticks": 122136,
          "time": 76.335,
          "velocity": 0.3937007874015748
        },
        {
          "duration": 0.12000000000000455,
          "durationTicks": 192,
          "midi": 62,
          "name": "D4",
          "ticks": 122328,
          "time": 76.455,
          "velocity": 0.3937007874015748
        },
        {
          "duration": 0.11999999999999034,
          "durationTicks": 192,
          "midi": 65,
          "name": "F4",
          "ticks": 122520,
          "time": 76.575,
          "velocity": 0.3937007874015748
        },
        {
          "duration": 0.12000000000000455,
          "durationTicks": 192,
          "midi": 65,
          "name": "F4",
          "ticks": 122712,
          "time": 76.695,
          "velocity": 0.3937007874015748
        },
        {
          "duration": 0.12000000000000455,
          "durationTicks": 192,
          "midi": 62,
          "name": "D4",
          "ticks": 122904,
          "time": 76.815,
          "velocity": 0.3937007874015748
        },
        {
          "duration": 0.11999999999999034,
          "durationTicks": 192,
          "midi": 65,
          "name": "F4",
          "ticks": 123096,
          "time": 76.935,
          "velocity": 0.3937007874015748
        },
        {
          "duration": 0.12000000000000455,
          "durationTicks": 192,
          "midi": 62,
          "name": "D4",
          "ticks": 123288,
          "time": 77.05499999999999,
          "velocity": 0.3937007874015748
        },
        {
          "duration": 0.12000000000000455,
          "durationTicks": 192,
          "midi": 62,
          "name": "D4",
          "ticks": 123480,
          "time": 77.175,
          "velocity": 0.3937007874015748
        },
        {
          "duration": 0.11999999999999034,
          "durationTicks": 192,
          "midi": 60,
          "name": "C4",
          "ticks": 123672,
          "time": 77.295,
          "velocity": 0.3937007874015748
        },
        {
          "duration": 0.12000000000000455,
          "durationTicks": 192,
          "midi": 62,
          "name": "D4",
          "ticks": 123864,
          "time": 77.41499999999999,
          "velocity": 0.3937007874015748
        },
        {
          "duration": 0.12000000000000455,
          "durationTicks": 192,
          "midi": 60,
          "name": "C4",
          "ticks": 124056,
          "time": 77.535,
          "velocity": 0.3937007874015748
        },
        {
          "duration": 0.11999999999999034,
          "durationTicks": 192,
          "midi": 60,
          "name": "C4",
          "ticks": 124248,
          "time": 77.655,
          "velocity": 0.3937007874015748
        },
        {
          "duration": 0.12000000000000455,
          "durationTicks": 192,
          "midi": 58,
          "name": "A#3",
          "ticks": 124440,
          "time": 77.77499999999999,
          "velocity": 0.3937007874015748
        },
        {
          "duration": 0.12000000000000455,
          "durationTicks": 192,
          "midi": 60,
          "name": "C4",
          "ticks": 124632,
          "time": 77.895,
          "velocity": 0.3937007874015748
        },
        {
          "duration": 0.11999999999999034,
          "durationTicks": 192,
          "midi": 58,
          "name": "A#3",
          "ticks": 124824,
          "time": 78.015,
          "velocity": 0.3937007874015748
        },
        {
          "duration": 0.12000000000000455,
          "durationTicks": 192,
          "midi": 58,
          "name": "A#3",
          "ticks": 125016,
          "time": 78.13499999999999,
          "velocity": 0.3937007874015748
        },
        {
          "duration": 0.12000000000000455,
          "durationTicks": 192,
          "midi": 60,
          "name": "C4",
          "ticks": 125208,
          "time": 78.255,
          "velocity": 0.3937007874015748
        },
        {
          "duration": 0.11999999999999034,
          "durationTicks": 192,
          "midi": 58,
          "name": "A#3",
          "ticks": 125400,
          "time": 78.375,
          "velocity": 0.3937007874015748
        },
        {
          "duration": 0.12000000000000455,
          "durationTicks": 192,
          "midi": 60,
          "name": "C4",
          "ticks": 125592,
          "time": 78.49499999999999,
          "velocity": 0.3937007874015748
        },
        {
          "duration": 0.12000000000000455,
          "durationTicks": 192,
          "midi": 60,
          "name": "C4",
          "ticks": 125784,
          "time": 78.615,
          "velocity": 0.3937007874015748
        }
      ],
      "endOfTrackTicks": 125976
    },
    {
      "channel": 4,
      "controlChanges": {},
      "pitchBends": [],
      "instrument": {
        "family": "synth lead",
        "number": 87,
        "name": "lead 8 (bass + lead)"
      },
      "name": "Synth Pluck",
      "notes": [
        {
          "duration": 0.12000000000000455,
          "durationTicks": 192,
          "midi": 63,
          "name": "D#4",
          "ticks": 77184,
          "time": 48.239999999999995,
          "velocity": 0.3937007874015748
        },
        {
          "duration": 0.11999999999999744,
          "durationTicks": 192,
          "midi": 63,
          "name": "D#4",
          "ticks": 77376,
          "time": 48.36,
          "velocity": 0.3937007874015748
        },
        {
          "duration": 0.12000000000000455,
          "durationTicks": 192,
          "midi": 60,
          "name": "C4",
          "ticks": 77568,
          "time": 48.48,
          "velocity": 0.3937007874015748
        },
        {
          "duration": 0.11999999999999744,
          "durationTicks": 192,
          "midi": 63,
          "name": "D#4",
          "ticks": 77760,
          "time": 48.6,
          "velocity": 0.3937007874015748
        },
        {
          "duration": 0.11999999999999744,
          "durationTicks": 192,
          "midi": 60,
          "name": "C4",
          "ticks": 77952,
          "time": 48.72,
          "velocity": 0.3937007874015748
        },
        {
          "duration": 0.12000000000000455,
          "durationTicks": 192,
          "midi": 60,
          "name": "C4",
          "ticks": 78144,
          "time": 48.839999999999996,
          "velocity": 0.3937007874015748
        },
        {
          "duration": 0.11999999999999744,
          "durationTicks": 192,
          "midi": 62,
          "name": "D4",
          "ticks": 78336,
          "time": 48.96,
          "velocity": 0.3937007874015748
        },
        {
          "duration": 0.11999999999999744,
          "durationTicks": 192,
          "midi": 60,
          "name": "C4",
          "ticks": 78528,
          "time": 49.08,
          "velocity": 0.3937007874015748
        },
        {
          "duration": 0.12000000000000455,
          "durationTicks": 192,
          "midi": 62,
          "name": "D4",
          "ticks": 78720,
          "time": 49.199999999999996,
          "velocity": 0.3937007874015748
        },
        {
          "duration": 0.11999999999999744,
          "durationTicks": 192,
          "midi": 62,
          "name": "D4",
          "ticks": 78912,
          "time": 49.32,
          "velocity": 0.3937007874015748
        },
        {
          "duration": 0.11999999999999744,
          "durationTicks": 192,
          "midi": 58,
          "name": "A#3",
          "ticks": 79104,
          "time": 49.44,
          "velocity": 0.3937007874015748
        },
        {
          "duration": 0.12000000000000455,
          "durationTicks": 192,
          "midi": 62,
          "name": "D4",
          "ticks": 79296,
          "time": 49.559999999999995,
          "velocity": 0.3937007874015748
        },
        {
          "duration": 0.11999999999999744,
          "durationTicks": 192,
          "midi": 58,
          "name": "A#3",
          "ticks": 79488,
          "time": 49.68,
          "velocity": 0.3937007874015748
        },
        {
          "duration": 0.12000000000000455,
          "durationTicks": 192,
          "midi": 58,
          "name": "A#3",
          "ticks": 79680,
          "time": 49.8,
          "velocity": 0.3937007874015748
        },
        {
          "duration": 0.11999999999999744,
          "durationTicks": 192,
          "midi": 57,
          "name": "A3",
          "ticks": 79872,
          "time": 49.92,
          "velocity": 0.3937007874015748
        },
        {
          "duration": 0.11999999999999744,
          "durationTicks": 192,
          "midi": 58,
          "name": "A#3",
          "ticks": 80064,
          "time": 50.04,
          "velocity": 0.3937007874015748
        },
        {
          "duration": 0.12000000000000455,
          "durationTicks": 192,
          "midi": 57,
          "name": "A3",
          "ticks": 80256,
          "time": 50.16,
          "velocity": 0.3937007874015748
        },
        {
          "duration": 0.11999999999999744,
          "durationTicks": 192,
          "midi": 57,
          "name": "A3",
          "ticks": 80448,
          "time": 50.28,
          "velocity": 0.3937007874015748
        },
        {
          "duration": 0.11999999999999744,
          "durationTicks": 192,
          "midi": 58,
          "name": "A#3",
          "ticks": 80640,
          "time": 50.4,
          "velocity": 0.3937007874015748
        },
        {
          "duration": 0.12000000000000455,
          "durationTicks": 192,
          "midi": 57,
          "name": "A3",
          "ticks": 80832,
          "time": 50.519999999999996,
          "velocity": 0.3937007874015748
        },
        {
          "duration": 0.11999999999999744,
          "durationTicks": 192,
          "midi": 58,
          "name": "A#3",
          "ticks": 81024,
          "time": 50.64,
          "velocity": 0.3937007874015748
        },
        {
          "duration": 0.11999999999999744,
          "durationTicks": 192,
          "midi": 58,
          "name": "A#3",
          "ticks": 81216,
          "time": 50.76,
          "velocity": 0.3937007874015748
        },
        {
          "duration": 0.12000000000000455,
          "durationTicks": 192,
          "midi": 55,
          "name": "G3",
          "ticks": 81408,
          "time": 50.879999999999995,
          "velocity": 0.3937007874015748
        },
        {
          "duration": 0.11999999999999744,
          "durationTicks": 192,
          "midi": 58,
          "name": "A#3",
          "ticks": 81600,
          "time": 51,
          "velocity": 0.3937007874015748
        },
        {
          "duration": 0.11999999999999744,
          "durationTicks": 192,
          "midi": 55,
          "name": "G3",
          "ticks": 81792,
          "time": 51.12,
          "velocity": 0.3937007874015748
        },
        {
          "duration": 0.12000000000000455,
          "durationTicks": 192,
          "midi": 55,
          "name": "G3",
          "ticks": 81984,
          "time": 51.239999999999995,
          "velocity": 0.3937007874015748
        },
        {
          "duration": 0.11999999999999744,
          "durationTicks": 192,
          "midi": 53,
          "name": "F3",
          "ticks": 82176,
          "time": 51.36,
          "velocity": 0.3937007874015748
        },
        {
          "duration": 0.12000000000000455,
          "durationTicks": 192,
          "midi": 55,
          "name": "G3",
          "ticks": 82368,
          "time": 51.48,
          "velocity": 0.3937007874015748
        },
        {
          "duration": 0.11999999999999744,
          "durationTicks": 192,
          "midi": 53,
          "name": "F3",
          "ticks": 82560,
          "time": 51.6,
          "velocity": 0.3937007874015748
        },
        {
          "duration": 0.11999999999999744,
          "durationTicks": 192,
          "midi": 53,
          "name": "F3",
          "ticks": 82752,
          "time": 51.72,
          "velocity": 0.3937007874015748
        },
        {
          "duration": 0.12000000000000455,
          "durationTicks": 192,
          "midi": 60,
          "name": "C4",
          "ticks": 82944,
          "time": 51.839999999999996,
          "velocity": 0.3937007874015748
        },
        {
          "duration": 0.11999999999999744,
          "durationTicks": 192,
          "midi": 53,
          "name": "F3",
          "ticks": 83136,
          "time": 51.96,
          "velocity": 0.3937007874015748
        },
        {
          "duration": 0.11999999999999744,
          "durationTicks": 192,
          "midi": 60,
          "name": "C4",
          "ticks": 83328,
          "time": 52.08,
          "velocity": 0.3937007874015748
        },
        {
          "duration": 0.12000000000000455,
          "durationTicks": 192,
          "midi": 60,
          "name": "C4",
          "ticks": 83520,
          "time": 52.199999999999996,
          "velocity": 0.3937007874015748
        },
        {
          "duration": 0.11999999999999744,
          "durationTicks": 192,
          "midi": 60,
          "name": "C4",
          "ticks": 83712,
          "time": 52.32,
          "velocity": 0.3937007874015748
        },
        {
          "duration": 0.11999999999999744,
          "durationTicks": 192,
          "midi": 60,
          "name": "C4",
          "ticks": 83904,
          "time": 52.44,
          "velocity": 0.3937007874015748
        },
        {
          "duration": 0.12000000000000455,
          "durationTicks": 192,
          "midi": 60,
          "name": "C4",
          "ticks": 84096,
          "time": 52.559999999999995,
          "velocity": 0.3937007874015748
        },
        {
          "duration": 0.11999999999999744,
          "durationTicks": 192,
          "midi": 60,
          "name": "C4",
          "ticks": 84288,
          "time": 52.68,
          "velocity": 0.3937007874015748
        },
        {
          "duration": 0.11999999999999744,
          "durationTicks": 192,
          "midi": 62,
          "name": "D4",
          "ticks": 84480,
          "time": 52.8,
          "velocity": 0.3937007874015748
        },
        {
          "duration": 0.12000000000000455,
          "durationTicks": 192,
          "midi": 60,
          "name": "C4",
          "ticks": 84672,
          "time": 52.919999999999995,
          "velocity": 0.3937007874015748
        },
        {
          "duration": 0.11999999999999744,
          "durationTicks": 192,
          "midi": 62,
          "name": "D4",
          "ticks": 84864,
          "time": 53.04,
          "velocity": 0.3937007874015748
        },
        {
          "duration": 0.12000000000000455,
          "durationTicks": 192,
          "midi": 62,
          "name": "D4",
          "ticks": 85056,
          "time": 53.16,
          "velocity": 0.3937007874015748
        },
        {
          "duration": 0.11999999999999744,
          "durationTicks": 192,
          "midi": 65,
          "name": "F4",
          "ticks": 85248,
          "time": 53.28,
          "velocity": 0.3937007874015748
        },
        {
          "duration": 0.11999999999999744,
          "durationTicks": 192,
          "midi": 62,
          "name": "D4",
          "ticks": 85440,
          "time": 53.4,
          "velocity": 0.3937007874015748
        },
        {
          "duration": 0.12000000000000455,
          "durationTicks": 192,
          "midi": 65,
          "name": "F4",
          "ticks": 85632,
          "time": 53.519999999999996,
          "velocity": 0.3937007874015748
        },
        {
          "duration": 0.11999999999999744,
          "durationTicks": 192,
          "midi": 65,
          "name": "F4",
          "ticks": 85824,
          "time": 53.64,
          "velocity": 0.3937007874015748
        },
        {
          "duration": 0.11999999999999744,
          "durationTicks": 192,
          "midi": 62,
          "name": "D4",
          "ticks": 86016,
          "time": 53.76,
          "velocity": 0.3937007874015748
        },
        {
          "duration": 0.12000000000000455,
          "durationTicks": 192,
          "midi": 65,
          "name": "F4",
          "ticks": 86208,
          "time": 53.879999999999995,
          "velocity": 0.3937007874015748
        },
        {
          "duration": 0.11999999999999744,
          "durationTicks": 192,
          "midi": 62,
          "name": "D4",
          "ticks": 86400,
          "time": 54,
          "velocity": 0.3937007874015748
        },
        {
          "duration": 0.11999999999999744,
          "durationTicks": 192,
          "midi": 62,
          "name": "D4",
          "ticks": 86592,
          "time": 54.12,
          "velocity": 0.3937007874015748
        },
        {
          "duration": 0.12000000000000455,
          "durationTicks": 192,
          "midi": 60,
          "name": "C4",
          "ticks": 86784,
          "time": 54.239999999999995,
          "velocity": 0.3937007874015748
        },
        {
          "duration": 0.11999999999999744,
          "durationTicks": 192,
          "midi": 62,
          "name": "D4",
          "ticks": 86976,
          "time": 54.36,
          "velocity": 0.3937007874015748
        },
        {
          "duration": 0.12000000000000455,
          "durationTicks": 192,
          "midi": 60,
          "name": "C4",
          "ticks": 87168,
          "time": 54.48,
          "velocity": 0.3937007874015748
        },
        {
          "duration": 0.11999999999999744,
          "durationTicks": 192,
          "midi": 60,
          "name": "C4",
          "ticks": 87360,
          "time": 54.6,
          "velocity": 0.3937007874015748
        },
        {
          "duration": 0.11999999999999744,
          "durationTicks": 192,
          "midi": 58,
          "name": "A#3",
          "ticks": 87552,
          "time": 54.72,
          "velocity": 0.3937007874015748
        },
        {
          "duration": 0.12000000000000455,
          "durationTicks": 192,
          "midi": 60,
          "name": "C4",
          "ticks": 87744,
          "time": 54.839999999999996,
          "velocity": 0.3937007874015748
        },
        {
          "duration": 0.11999999999999744,
          "durationTicks": 192,
          "midi": 58,
          "name": "A#3",
          "ticks": 87936,
          "time": 54.96,
          "velocity": 0.3937007874015748
        },
        {
          "duration": 0.11999999999999744,
          "durationTicks": 192,
          "midi": 58,
          "name": "A#3",
          "ticks": 88128,
          "time": 55.08,
          "velocity": 0.3937007874015748
        },
        {
          "duration": 0.12000000000000455,
          "durationTicks": 192,
          "midi": 60,
          "name": "C4",
          "ticks": 88320,
          "time": 55.199999999999996,
          "velocity": 0.3937007874015748
        },
        {
          "duration": 0.11999999999999744,
          "durationTicks": 192,
          "midi": 58,
          "name": "A#3",
          "ticks": 88512,
          "time": 55.32,
          "velocity": 0.3937007874015748
        },
        {
          "duration": 0.11999999999999744,
          "durationTicks": 192,
          "midi": 60,
          "name": "C4",
          "ticks": 88704,
          "time": 55.44,
          "velocity": 0.3937007874015748
        },
        {
          "duration": 0.12000000000000455,
          "durationTicks": 192,
          "midi": 60,
          "name": "C4",
          "ticks": 88896,
          "time": 55.559999999999995,
          "velocity": 0.3937007874015748
        },
        {
          "duration": 0.11999999999999744,
          "durationTicks": 192,
          "midi": 63,
          "name": "D#4",
          "ticks": 89088,
          "time": 55.68,
          "velocity": 0.3937007874015748
        },
        {
          "duration": 0.12000000000000455,
          "durationTicks": 192,
          "midi": 63,
          "name": "D#4",
          "ticks": 89472,
          "time": 55.919999999999995,
          "velocity": 0.3937007874015748
        },
        {
          "duration": 0.11999999999999744,
          "durationTicks": 192,
          "midi": 63,
          "name": "D#4",
          "ticks": 89664,
          "time": 56.04,
          "velocity": 0.3937007874015748
        },
        {
          "duration": 0.12000000000000455,
          "durationTicks": 192,
          "midi": 60,
          "name": "C4",
          "ticks": 89856,
          "time": 56.16,
          "velocity": 0.3937007874015748
        },
        {
          "duration": 0.11999999999999744,
          "durationTicks": 192,
          "midi": 63,
          "name": "D#4",
          "ticks": 90048,
          "time": 56.28,
          "velocity": 0.3937007874015748
        },
        {
          "duration": 0.11999999999999744,
          "durationTicks": 192,
          "midi": 60,
          "name": "C4",
          "ticks": 90240,
          "time": 56.4,
          "velocity": 0.3937007874015748
        },
        {
          "duration": 0.12000000000000455,
          "durationTicks": 192,
          "midi": 60,
          "name": "C4",
          "ticks": 90432,
          "time": 56.519999999999996,
          "velocity": 0.3937007874015748
        },
        {
          "duration": 0.11999999999999744,
          "durationTicks": 192,
          "midi": 62,
          "name": "D4",
          "ticks": 90624,
          "time": 56.64,
          "velocity": 0.3937007874015748
        },
        {
          "duration": 0.11999999999999744,
          "durationTicks": 192,
          "midi": 60,
          "name": "C4",
          "ticks": 90816,
          "time": 56.76,
          "velocity": 0.3937007874015748
        },
        {
          "duration": 0.12000000000000455,
          "durationTicks": 192,
          "midi": 62,
          "name": "D4",
          "ticks": 91008,
          "time": 56.879999999999995,
          "velocity": 0.3937007874015748
        },
        {
          "duration": 0.11999999999999744,
          "durationTicks": 192,
          "midi": 62,
          "name": "D4",
          "ticks": 91200,
          "time": 57,
          "velocity": 0.3937007874015748
        },
        {
          "duration": 0.11999999999999744,
          "durationTicks": 192,
          "midi": 58,
          "name": "A#3",
          "ticks": 91392,
          "time": 57.12,
          "velocity": 0.3937007874015748
        },
        {
          "duration": 0.12000000000000455,
          "durationTicks": 192,
          "midi": 62,
          "name": "D4",
          "ticks": 91584,
          "time": 57.239999999999995,
          "velocity": 0.3937007874015748
        },
        {
          "duration": 0.11999999999999744,
          "durationTicks": 192,
          "midi": 58,
          "name": "A#3",
          "ticks": 91776,
          "time": 57.36,
          "velocity": 0.3937007874015748
        },
        {
          "duration": 0.11999999999999744,
          "durationTicks": 192,
          "midi": 58,
          "name": "A#3",
          "ticks": 91968,
          "time": 57.48,
          "velocity": 0.3937007874015748
        },
        {
          "duration": 0.12000000000000455,
          "durationTicks": 192,
          "midi": 57,
          "name": "A3",
          "ticks": 92160,
          "time": 57.599999999999994,
          "velocity": 0.3937007874015748
        },
        {
          "duration": 0.11999999999999744,
          "durationTicks": 192,
          "midi": 58,
          "name": "A#3",
          "ticks": 92352,
          "time": 57.72,
          "velocity": 0.3937007874015748
        },
        {
          "duration": 0.12000000000000455,
          "durationTicks": 192,
          "midi": 57,
          "name": "A3",
          "ticks": 92544,
          "time": 57.839999999999996,
          "velocity": 0.3937007874015748
        },
        {
          "duration": 0.11999999999999744,
          "durationTicks": 192,
          "midi": 57,
          "name": "A3",
          "ticks": 92736,
          "time": 57.96,
          "velocity": 0.3937007874015748
        },
        {
          "duration": 0.11999999999999744,
          "durationTicks": 192,
          "midi": 58,
          "name": "A#3",
          "ticks": 92928,
          "time": 58.08,
          "velocity": 0.3937007874015748
        },
        {
          "duration": 0.12000000000000455,
          "durationTicks": 192,
          "midi": 57,
          "name": "A3",
          "ticks": 93120,
          "time": 58.199999999999996,
          "velocity": 0.3937007874015748
        },
        {
          "duration": 0.11999999999999744,
          "durationTicks": 192,
          "midi": 58,
          "name": "A#3",
          "ticks": 93312,
          "time": 58.32,
          "velocity": 0.3937007874015748
        },
        {
          "duration": 0.11999999999999744,
          "durationTicks": 192,
          "midi": 58,
          "name": "A#3",
          "ticks": 93504,
          "time": 58.44,
          "velocity": 0.3937007874015748
        },
        {
          "duration": 0.12000000000000455,
          "durationTicks": 192,
          "midi": 55,
          "name": "G3",
          "ticks": 93696,
          "time": 58.559999999999995,
          "velocity": 0.3937007874015748
        },
        {
          "duration": 0.11999999999999744,
          "durationTicks": 192,
          "midi": 58,
          "name": "A#3",
          "ticks": 93888,
          "time": 58.68,
          "velocity": 0.3937007874015748
        },
        {
          "duration": 0.11999999999999744,
          "durationTicks": 192,
          "midi": 55,
          "name": "G3",
          "ticks": 94080,
          "time": 58.8,
          "velocity": 0.3937007874015748
        },
        {
          "duration": 0.12000000000000455,
          "durationTicks": 192,
          "midi": 55,
          "name": "G3",
          "ticks": 94272,
          "time": 58.919999999999995,
          "velocity": 0.3937007874015748
        },
        {
          "duration": 0.11999999999999744,
          "durationTicks": 192,
          "midi": 53,
          "name": "F3",
          "ticks": 94464,
          "time": 59.04,
          "velocity": 0.3937007874015748
        },
        {
          "duration": 0.12000000000000455,
          "durationTicks": 192,
          "midi": 55,
          "name": "G3",
          "ticks": 94656,
          "time": 59.16,
          "velocity": 0.3937007874015748
        },
        {
          "duration": 0.11999999999999744,
          "durationTicks": 192,
          "midi": 53,
          "name": "F3",
          "ticks": 94848,
          "time": 59.28,
          "velocity": 0.3937007874015748
        },
        {
          "duration": 0.11999999999999744,
          "durationTicks": 192,
          "midi": 53,
          "name": "F3",
          "ticks": 95040,
          "time": 59.4,
          "velocity": 0.3937007874015748
        },
        {
          "duration": 0.12000000000000455,
          "durationTicks": 192,
          "midi": 60,
          "name": "C4",
          "ticks": 95232,
          "time": 59.519999999999996,
          "velocity": 0.3937007874015748
        },
        {
          "duration": 0.11999999999999744,
          "durationTicks": 192,
          "midi": 53,
          "name": "F3",
          "ticks": 95424,
          "time": 59.64,
          "velocity": 0.3937007874015748
        },
        {
          "duration": 0.11999999999999744,
          "durationTicks": 192,
          "midi": 60,
          "name": "C4",
          "ticks": 95616,
          "time": 59.76,
          "velocity": 0.3937007874015748
        },
        {
          "duration": 0.12000000000000455,
          "durationTicks": 192,
          "midi": 60,
          "name": "C4",
          "ticks": 95808,
          "time": 59.879999999999995,
          "velocity": 0.3937007874015748
        },
        {
          "duration": 0.11999999999999744,
          "durationTicks": 192,
          "midi": 60,
          "name": "C4",
          "ticks": 96000,
          "time": 60,
          "velocity": 0.3937007874015748
        },
        {
          "duration": 0.11999999999999744,
          "durationTicks": 192,
          "midi": 60,
          "name": "C4",
          "ticks": 96192,
          "time": 60.12,
          "velocity": 0.3937007874015748
        },
        {
          "duration": 0.12000000000000455,
          "durationTicks": 192,
          "midi": 60,
          "name": "C4",
          "ticks": 96384,
          "time": 60.239999999999995,
          "velocity": 0.3937007874015748
        },
        {
          "duration": 0.11999999999999744,
          "durationTicks": 192,
          "midi": 60,
          "name": "C4",
          "ticks": 96576,
          "time": 60.36,
          "velocity": 0.3937007874015748
        },
        {
          "duration": 0.11999999999999744,
          "durationTicks": 192,
          "midi": 62,
          "name": "D4",
          "ticks": 96768,
          "time": 60.48,
          "velocity": 0.3937007874015748
        },
        {
          "duration": 0.12000000000000455,
          "durationTicks": 192,
          "midi": 60,
          "name": "C4",
          "ticks": 96960,
          "time": 60.599999999999994,
          "velocity": 0.3937007874015748
        },
        {
          "duration": 0.11999999999999744,
          "durationTicks": 192,
          "midi": 62,
          "name": "D4",
          "ticks": 97152,
          "time": 60.72,
          "velocity": 0.3937007874015748
        },
        {
          "duration": 0.12000000000000455,
          "durationTicks": 192,
          "midi": 62,
          "name": "D4",
          "ticks": 97344,
          "time": 60.839999999999996,
          "velocity": 0.3937007874015748
        },
        {
          "duration": 0.11999999999999744,
          "durationTicks": 192,
          "midi": 65,
          "name": "F4",
          "ticks": 97536,
          "time": 60.96,
          "velocity": 0.3937007874015748
        },
        {
          "duration": 0.11999999999999744,
          "durationTicks": 192,
          "midi": 62,
          "name": "D4",
          "ticks": 97728,
          "time": 61.08,
          "velocity": 0.3937007874015748
        },
        {
          "duration": 0.12000000000000455,
          "durationTicks": 192,
          "midi": 65,
          "name": "F4",
          "ticks": 97920,
          "time": 61.199999999999996,
          "velocity": 0.3937007874015748
        },
        {
          "duration": 0.11999999999999744,
          "durationTicks": 192,
          "midi": 65,
          "name": "F4",
          "ticks": 98112,
          "time": 61.32,
          "velocity": 0.3937007874015748
        },
        {
          "duration": 0.11999999999999744,
          "durationTicks": 192,
          "midi": 62,
          "name": "D4",
          "ticks": 98304,
          "time": 61.44,
          "velocity": 0.3937007874015748
        },
        {
          "duration": 0.12000000000000455,
          "durationTicks": 192,
          "midi": 65,
          "name": "F4",
          "ticks": 98496,
          "time": 61.559999999999995,
          "velocity": 0.3937007874015748
        },
        {
          "duration": 0.11999999999999744,
          "durationTicks": 192,
          "midi": 62,
          "name": "D4",
          "ticks": 98688,
          "time": 61.68,
          "velocity": 0.3937007874015748
        },
        {
          "duration": 0.11999999999999744,
          "durationTicks": 192,
          "midi": 62,
          "name": "D4",
          "ticks": 98880,
          "time": 61.8,
          "velocity": 0.3937007874015748
        },
        {
          "duration": 0.12000000000000455,
          "durationTicks": 192,
          "midi": 60,
          "name": "C4",
          "ticks": 99072,
          "time": 61.919999999999995,
          "velocity": 0.3937007874015748
        },
        {
          "duration": 0.11999999999999744,
          "durationTicks": 192,
          "midi": 62,
          "name": "D4",
          "ticks": 99264,
          "time": 62.04,
          "velocity": 0.3937007874015748
        },
        {
          "duration": 0.12000000000000455,
          "durationTicks": 192,
          "midi": 60,
          "name": "C4",
          "ticks": 99456,
          "time": 62.16,
          "velocity": 0.3937007874015748
        },
        {
          "duration": 0.11999999999999744,
          "durationTicks": 192,
          "midi": 60,
          "name": "C4",
          "ticks": 99648,
          "time": 62.28,
          "velocity": 0.3937007874015748
        },
        {
          "duration": 0.11999999999999744,
          "durationTicks": 192,
          "midi": 58,
          "name": "A#3",
          "ticks": 99840,
          "time": 62.4,
          "velocity": 0.3937007874015748
        },
        {
          "duration": 0.12000000000000455,
          "durationTicks": 192,
          "midi": 60,
          "name": "C4",
          "ticks": 100032,
          "time": 62.519999999999996,
          "velocity": 0.3937007874015748
        },
        {
          "duration": 0.11999999999999744,
          "durationTicks": 192,
          "midi": 58,
          "name": "A#3",
          "ticks": 100224,
          "time": 62.64,
          "velocity": 0.3937007874015748
        },
        {
          "duration": 0.11999999999999744,
          "durationTicks": 192,
          "midi": 58,
          "name": "A#3",
          "ticks": 100416,
          "time": 62.76,
          "velocity": 0.3937007874015748
        },
        {
          "duration": 0.12000000000000455,
          "durationTicks": 192,
          "midi": 60,
          "name": "C4",
          "ticks": 100608,
          "time": 62.879999999999995,
          "velocity": 0.3937007874015748
        },
        {
          "duration": 0.11999999999999744,
          "durationTicks": 192,
          "midi": 58,
          "name": "A#3",
          "ticks": 100800,
          "time": 63,
          "velocity": 0.3937007874015748
        },
        {
          "duration": 0.11999999999999744,
          "durationTicks": 192,
          "midi": 60,
          "name": "C4",
          "ticks": 100992,
          "time": 63.12,
          "velocity": 0.3937007874015748
        },
        {
          "duration": 0.12000000000000455,
          "durationTicks": 192,
          "midi": 60,
          "name": "C4",
          "ticks": 101184,
          "time": 63.239999999999995,
          "velocity": 0.3937007874015748
        },
        {
          "duration": 0.11999999999999744,
          "durationTicks": 192,
          "midi": 63,
          "name": "D#4",
          "ticks": 101376,
          "time": 63.36,
          "velocity": 0.3937007874015748
        },
        {
          "duration": 0.12000000000000455,
          "durationTicks": 192,
          "midi": 63,
          "name": "D#4",
          "ticks": 101760,
          "time": 63.599999999999994,
          "velocity": 0.3937007874015748
        },
        {
          "duration": 0.11999999999999744,
          "durationTicks": 192,
          "midi": 63,
          "name": "D#4",
          "ticks": 101952,
          "time": 63.72,
          "velocity": 0.3937007874015748
        },
        {
          "duration": 0.12000000000000455,
          "durationTicks": 192,
          "midi": 60,
          "name": "C4",
          "ticks": 102144,
          "time": 63.839999999999996,
          "velocity": 0.3937007874015748
        },
        {
          "duration": 0.11999999999999744,
          "durationTicks": 192,
          "midi": 63,
          "name": "D#4",
          "ticks": 102336,
          "time": 63.96,
          "velocity": 0.3937007874015748
        },
        {
          "duration": 0.12000000000000455,
          "durationTicks": 192,
          "midi": 60,
          "name": "C4",
          "ticks": 102528,
          "time": 64.08,
          "velocity": 0.3937007874015748
        },
        {
          "duration": 0.11999999999999034,
          "durationTicks": 192,
          "midi": 60,
          "name": "C4",
          "ticks": 102720,
          "time": 64.2,
          "velocity": 0.3937007874015748
        },
        {
          "duration": 0.12000000000000455,
          "durationTicks": 192,
          "midi": 62,
          "name": "D4",
          "ticks": 102912,
          "time": 64.32,
          "velocity": 0.3937007874015748
        },
        {
          "duration": 0.12000000000000455,
          "durationTicks": 192,
          "midi": 60,
          "name": "C4",
          "ticks": 103104,
          "time": 64.44,
          "velocity": 0.3937007874015748
        },
        {
          "duration": 0.11999999999999034,
          "durationTicks": 192,
          "midi": 62,
          "name": "D4",
          "ticks": 103296,
          "time": 64.56,
          "velocity": 0.3937007874015748
        },
        {
          "duration": 0.12000000000000455,
          "durationTicks": 192,
          "midi": 62,
          "name": "D4",
          "ticks": 103488,
          "time": 64.67999999999999,
          "velocity": 0.3937007874015748
        },
        {
          "duration": 0.12000000000000455,
          "durationTicks": 192,
          "midi": 58,
          "name": "A#3",
          "ticks": 103680,
          "time": 64.8,
          "velocity": 0.3937007874015748
        },
        {
          "duration": 0.11999999999999034,
          "durationTicks": 192,
          "midi": 62,
          "name": "D4",
          "ticks": 103872,
          "time": 64.92,
          "velocity": 0.3937007874015748
        },
        {
          "duration": 0.12000000000000455,
          "durationTicks": 192,
          "midi": 58,
          "name": "A#3",
          "ticks": 104064,
          "time": 65.03999999999999,
          "velocity": 0.3937007874015748
        },
        {
          "duration": 0.12000000000000455,
          "durationTicks": 192,
          "midi": 58,
          "name": "A#3",
          "ticks": 104256,
          "time": 65.16,
          "velocity": 0.3937007874015748
        },
        {
          "duration": 0.11999999999999034,
          "durationTicks": 192,
          "midi": 57,
          "name": "A3",
          "ticks": 104448,
          "time": 65.28,
          "velocity": 0.3937007874015748
        },
        {
          "duration": 0.12000000000000455,
          "durationTicks": 192,
          "midi": 58,
          "name": "A#3",
          "ticks": 104640,
          "time": 65.39999999999999,
          "velocity": 0.3937007874015748
        },
        {
          "duration": 0.12000000000000455,
          "durationTicks": 192,
          "midi": 57,
          "name": "A3",
          "ticks": 104832,
          "time": 65.52,
          "velocity": 0.3937007874015748
        },
        {
          "duration": 0.11999999999999034,
          "durationTicks": 192,
          "midi": 57,
          "name": "A3",
          "ticks": 105024,
          "time": 65.64,
          "velocity": 0.3937007874015748
        },
        {
          "duration": 0.12000000000000455,
          "durationTicks": 192,
          "midi": 58,
          "name": "A#3",
          "ticks": 105216,
          "time": 65.75999999999999,
          "velocity": 0.3937007874015748
        },
        {
          "duration": 0.12000000000000455,
          "durationTicks": 192,
          "midi": 57,
          "name": "A3",
          "ticks": 105408,
          "time": 65.88,
          "velocity": 0.3937007874015748
        },
        {
          "duration": 0.12000000000000455,
          "durationTicks": 192,
          "midi": 58,
          "name": "A#3",
          "ticks": 105600,
          "time": 66,
          "velocity": 0.3937007874015748
        },
        {
          "duration": 0.11999999999999034,
          "durationTicks": 192,
          "midi": 58,
          "name": "A#3",
          "ticks": 105792,
          "time": 66.12,
          "velocity": 0.3937007874015748
        },
        {
          "duration": 0.12000000000000455,
          "durationTicks": 192,
          "midi": 55,
          "name": "G3",
          "ticks": 105984,
          "time": 66.24,
          "velocity": 0.3937007874015748
        },
        {
          "duration": 0.12000000000000455,
          "durationTicks": 192,
          "midi": 58,
          "name": "A#3",
          "ticks": 106176,
          "time": 66.36,
          "velocity": 0.3937007874015748
        },
        {
          "duration": 0.11999999999999034,
          "durationTicks": 192,
          "midi": 55,
          "name": "G3",
          "ticks": 106368,
          "time": 66.48,
          "velocity": 0.3937007874015748
        },
        {
          "duration": 0.12000000000000455,
          "durationTicks": 192,
          "midi": 55,
          "name": "G3",
          "ticks": 106560,
          "time": 66.6,
          "velocity": 0.3937007874015748
        },
        {
          "duration": 0.12000000000000455,
          "durationTicks": 192,
          "midi": 53,
          "name": "F3",
          "ticks": 106752,
          "time": 66.72,
          "velocity": 0.3937007874015748
        },
        {
          "duration": 0.11999999999999034,
          "durationTicks": 192,
          "midi": 55,
          "name": "G3",
          "ticks": 106944,
          "time": 66.84,
          "velocity": 0.3937007874015748
        },
        {
          "duration": 0.12000000000000455,
          "durationTicks": 192,
          "midi": 53,
          "name": "F3",
          "ticks": 107136,
          "time": 66.96,
          "velocity": 0.3937007874015748
        },
        {
          "duration": 0.12000000000000455,
          "durationTicks": 192,
          "midi": 53,
          "name": "F3",
          "ticks": 107328,
          "time": 67.08,
          "velocity": 0.3937007874015748
        },
        {
          "duration": 0.11999999999999034,
          "durationTicks": 192,
          "midi": 60,
          "name": "C4",
          "ticks": 107520,
          "time": 67.2,
          "velocity": 0.3937007874015748
        },
        {
          "duration": 0.12000000000000455,
          "durationTicks": 192,
          "midi": 53,
          "name": "F3",
          "ticks": 107712,
          "time": 67.32,
          "velocity": 0.3937007874015748
        },
        {
          "duration": 0.12000000000000455,
          "durationTicks": 192,
          "midi": 60,
          "name": "C4",
          "ticks": 107904,
          "time": 67.44,
          "velocity": 0.3937007874015748
        },
        {
          "duration": 0.11999999999999034,
          "durationTicks": 192,
          "midi": 60,
          "name": "C4",
          "ticks": 108096,
          "time": 67.56,
          "velocity": 0.3937007874015748
        },
        {
          "duration": 0.12000000000000455,
          "durationTicks": 192,
          "midi": 60,
          "name": "C4",
          "ticks": 108288,
          "time": 67.67999999999999,
          "velocity": 0.3937007874015748
        },
        {
          "duration": 0.12000000000000455,
          "durationTicks": 192,
          "midi": 60,
          "name": "C4",
          "ticks": 108480,
          "time": 67.8,
          "velocity": 0.3937007874015748
        },
        {
          "duration": 0.11999999999999034,
          "durationTicks": 192,
          "midi": 60,
          "name": "C4",
          "ticks": 108672,
          "time": 67.92,
          "velocity": 0.3937007874015748
        },
        {
          "duration": 0.12000000000000455,
          "durationTicks": 192,
          "midi": 60,
          "name": "C4",
          "ticks": 108864,
          "time": 68.03999999999999,
          "velocity": 0.3937007874015748
        },
        {
          "duration": 0.12000000000000455,
          "durationTicks": 192,
          "midi": 62,
          "name": "D4",
          "ticks": 109056,
          "time": 68.16,
          "velocity": 0.3937007874015748
        },
        {
          "duration": 0.11999999999999034,
          "durationTicks": 192,
          "midi": 60,
          "name": "C4",
          "ticks": 109248,
          "time": 68.28,
          "velocity": 0.3937007874015748
        },
        {
          "duration": 0.12000000000000455,
          "durationTicks": 192,
          "midi": 62,
          "name": "D4",
          "ticks": 109440,
          "time": 68.39999999999999,
          "velocity": 0.3937007874015748
        },
        {
          "duration": 0.12000000000000455,
          "durationTicks": 192,
          "midi": 62,
          "name": "D4",
          "ticks": 109632,
          "time": 68.52,
          "velocity": 0.3937007874015748
        },
        {
          "duration": 0.11999999999999034,
          "durationTicks": 192,
          "midi": 65,
          "name": "F4",
          "ticks": 109824,
          "time": 68.64,
          "velocity": 0.3937007874015748
        },
        {
          "duration": 0.12000000000000455,
          "durationTicks": 192,
          "midi": 62,
          "name": "D4",
          "ticks": 110016,
          "time": 68.75999999999999,
          "velocity": 0.3937007874015748
        },
        {
          "duration": 0.12000000000000455,
          "durationTicks": 192,
          "midi": 65,
          "name": "F4",
          "ticks": 110208,
          "time": 68.88,
          "velocity": 0.3937007874015748
        },
        {
          "duration": 0.12000000000000455,
          "durationTicks": 192,
          "midi": 65,
          "name": "F4",
          "ticks": 110400,
          "time": 69,
          "velocity": 0.3937007874015748
        },
        {
          "duration": 0.11999999999999034,
          "durationTicks": 192,
          "midi": 62,
          "name": "D4",
          "ticks": 110592,
          "time": 69.12,
          "velocity": 0.3937007874015748
        },
        {
          "duration": 0.12000000000000455,
          "durationTicks": 192,
          "midi": 65,
          "name": "F4",
          "ticks": 110784,
          "time": 69.24,
          "velocity": 0.3937007874015748
        },
        {
          "duration": 0.12000000000000455,
          "durationTicks": 192,
          "midi": 62,
          "name": "D4",
          "ticks": 110976,
          "time": 69.36,
          "velocity": 0.3937007874015748
        },
        {
          "duration": 0.11999999999999034,
          "durationTicks": 192,
          "midi": 62,
          "name": "D4",
          "ticks": 111168,
          "time": 69.48,
          "velocity": 0.3937007874015748
        },
        {
          "duration": 0.12000000000000455,
          "durationTicks": 192,
          "midi": 60,
          "name": "C4",
          "ticks": 111360,
          "time": 69.6,
          "velocity": 0.3937007874015748
        },
        {
          "duration": 0.12000000000000455,
          "durationTicks": 192,
          "midi": 62,
          "name": "D4",
          "ticks": 111552,
          "time": 69.72,
          "velocity": 0.3937007874015748
        },
        {
          "duration": 0.11999999999999034,
          "durationTicks": 192,
          "midi": 60,
          "name": "C4",
          "ticks": 111744,
          "time": 69.84,
          "velocity": 0.3937007874015748
        },
        {
          "duration": 0.12000000000000455,
          "durationTicks": 192,
          "midi": 60,
          "name": "C4",
          "ticks": 111936,
          "time": 69.96,
          "velocity": 0.3937007874015748
        },
        {
          "duration": 0.12000000000000455,
          "durationTicks": 192,
          "midi": 58,
          "name": "A#3",
          "ticks": 112128,
          "time": 70.08,
          "velocity": 0.3937007874015748
        },
        {
          "duration": 0.11999999999999034,
          "durationTicks": 192,
          "midi": 60,
          "name": "C4",
          "ticks": 112320,
          "time": 70.2,
          "velocity": 0.3937007874015748
        },
        {
          "duration": 0.12000000000000455,
          "durationTicks": 192,
          "midi": 58,
          "name": "A#3",
          "ticks": 112512,
          "time": 70.32,
          "velocity": 0.3937007874015748
        },
        {
          "duration": 0.12000000000000455,
          "durationTicks": 192,
          "midi": 58,
          "name": "A#3",
          "ticks": 112704,
          "time": 70.44,
          "velocity": 0.3937007874015748
        },
        {
          "duration": 0.11999999999999034,
          "durationTicks": 192,
          "midi": 60,
          "name": "C4",
          "ticks": 112896,
          "time": 70.56,
          "velocity": 0.3937007874015748
        },
        {
          "duration": 0.12000000000000455,
          "durationTicks": 192,
          "midi": 58,
          "name": "A#3",
          "ticks": 113088,
          "time": 70.67999999999999,
          "velocity": 0.3937007874015748
        },
        {
          "duration": 0.12000000000000455,
          "durationTicks": 192,
          "midi": 60,
          "name": "C4",
          "ticks": 113280,
          "time": 70.8,
          "velocity": 0.3937007874015748
        },
        {
          "duration": 0.11999999999999034,
          "durationTicks": 192,
          "midi": 60,
          "name": "C4",
          "ticks": 113472,
          "time": 70.92,
          "velocity": 0.3937007874015748
        },
        {
          "duration": 0.12000000000000455,
          "durationTicks": 192,
          "midi": 63,
          "name": "D#4",
          "ticks": 113664,
          "time": 71.03999999999999,
          "velocity": 0.3937007874015748
        },
        {
          "duration": 0.11999999999999034,
          "durationTicks": 192,
          "midi": 63,
          "name": "D#4",
          "ticks": 114048,
          "time": 71.28,
          "velocity": 0.3937007874015748
        },
        {
          "duration": 0.12000000000000455,
          "durationTicks": 192,
          "midi": 63,
          "name": "D#4",
          "ticks": 114240,
          "time": 71.39999999999999,
          "velocity": 0.3937007874015748
        },
        {
          "duration": 0.12000000000000455,
          "durationTicks": 192,
          "midi": 60,
          "name": "C4",
          "ticks": 114432,
          "time": 71.52,
          "velocity": 0.3937007874015748
        },
        {
          "duration": 0.11999999999999034,
          "durationTicks": 192,
          "midi": 63,
          "name": "D#4",
          "ticks": 114624,
          "time": 71.64,
          "velocity": 0.3937007874015748
        },
        {
          "duration": 0.12000000000000455,
          "durationTicks": 192,
          "midi": 60,
          "name": "C4",
          "ticks": 114816,
          "time": 71.75999999999999,
          "velocity": 0.3937007874015748
        },
        {
          "duration": 0.12000000000000455,
          "durationTicks": 192,
          "midi": 60,
          "name": "C4",
          "ticks": 115008,
          "time": 71.88,
          "velocity": 0.3937007874015748
        },
        {
          "duration": 0.11999999999999034,
          "durationTicks": 192,
          "midi": 62,
          "name": "D4",
          "ticks": 115200,
          "time": 72,
          "velocity": 0.3937007874015748
        },
        {
          "duration": 0.12000000000000455,
          "durationTicks": 192,
          "midi": 60,
          "name": "C4",
          "ticks": 115392,
          "time": 72.11999999999999,
          "velocity": 0.3937007874015748
        },
        {
          "duration": 0.12000000000000455,
          "durationTicks": 192,
          "midi": 62,
          "name": "D4",
          "ticks": 115584,
          "time": 72.24,
          "velocity": 0.3937007874015748
        },
        {
          "duration": 0.12000000000000455,
          "durationTicks": 192,
          "midi": 62,
          "name": "D4",
          "ticks": 115776,
          "time": 72.36,
          "velocity": 0.3937007874015748
        },
        {
          "duration": 0.11999999999999034,
          "durationTicks": 192,
          "midi": 58,
          "name": "A#3",
          "ticks": 115968,
          "time": 72.48,
          "velocity": 0.3937007874015748
        },
        {
          "duration": 0.12000000000000455,
          "durationTicks": 192,
          "midi": 62,
          "name": "D4",
          "ticks": 116160,
          "time": 72.6,
          "velocity": 0.3937007874015748
        },
        {
          "duration": 0.12000000000000455,
          "durationTicks": 192,
          "midi": 58,
          "name": "A#3",
          "ticks": 116352,
          "time": 72.72,
          "velocity": 0.3937007874015748
        },
        {
          "duration": 0.11999999999999034,
          "durationTicks": 192,
          "midi": 58,
          "name": "A#3",
          "ticks": 116544,
          "time": 72.84,
          "velocity": 0.3937007874015748
        },
        {
          "duration": 0.12000000000000455,
          "durationTicks": 192,
          "midi": 57,
          "name": "A3",
          "ticks": 116736,
          "time": 72.96,
          "velocity": 0.3937007874015748
        },
        {
          "duration": 0.12000000000000455,
          "durationTicks": 192,
          "midi": 58,
          "name": "A#3",
          "ticks": 116928,
          "time": 73.08,
          "velocity": 0.3937007874015748
        },
        {
          "duration": 0.11999999999999034,
          "durationTicks": 192,
          "midi": 57,
          "name": "A3",
          "ticks": 117120,
          "time": 73.2,
          "velocity": 0.3937007874015748
        },
        {
          "duration": 0.12000000000000455,
          "durationTicks": 192,
          "midi": 57,
          "name": "A3",
          "ticks": 117312,
          "time": 73.32,
          "velocity": 0.3937007874015748
        },
        {
          "duration": 0.12000000000000455,
          "durationTicks": 192,
          "midi": 58,
          "name": "A#3",
          "ticks": 117504,
          "time": 73.44,
          "velocity": 0.3937007874015748
        },
        {
          "duration": 0.11999999999999034,
          "durationTicks": 192,
          "midi": 57,
          "name": "A3",
          "ticks": 117696,
          "time": 73.56,
          "velocity": 0.3937007874015748
        },
        {
          "duration": 0.12000000000000455,
          "durationTicks": 192,
          "midi": 58,
          "name": "A#3",
          "ticks": 117888,
          "time": 73.67999999999999,
          "velocity": 0.3937007874015748
        },
        {
          "duration": 0.12000000000000455,
          "durationTicks": 192,
          "midi": 58,
          "name": "A#3",
          "ticks": 118080,
          "time": 73.8,
          "velocity": 0.3937007874015748
        },
        {
          "duration": 0.11999999999999034,
          "durationTicks": 192,
          "midi": 55,
          "name": "G3",
          "ticks": 118272,
          "time": 73.92,
          "velocity": 0.3937007874015748
        },
        {
          "duration": 0.12000000000000455,
          "durationTicks": 192,
          "midi": 58,
          "name": "A#3",
          "ticks": 118464,
          "time": 74.03999999999999,
          "velocity": 0.3937007874015748
        },
        {
          "duration": 0.12000000000000455,
          "durationTicks": 192,
          "midi": 55,
          "name": "G3",
          "ticks": 118656,
          "time": 74.16,
          "velocity": 0.3937007874015748
        },
        {
          "duration": 0.11999999999999034,
          "durationTicks": 192,
          "midi": 55,
          "name": "G3",
          "ticks": 118848,
          "time": 74.28,
          "velocity": 0.3937007874015748
        },
        {
          "duration": 0.12000000000000455,
          "durationTicks": 192,
          "midi": 53,
          "name": "F3",
          "ticks": 119040,
          "time": 74.39999999999999,
          "velocity": 0.3937007874015748
        },
        {
          "duration": 0.12000000000000455,
          "durationTicks": 192,
          "midi": 55,
          "name": "G3",
          "ticks": 119232,
          "time": 74.52,
          "velocity": 0.3937007874015748
        },
        {
          "duration": 0.11999999999999034,
          "durationTicks": 192,
          "midi": 53,
          "name": "F3",
          "ticks": 119424,
          "time": 74.64,
          "velocity": 0.3937007874015748
        },
        {
          "duration": 0.12000000000000455,
          "durationTicks": 192,
          "midi": 53,
          "name": "F3",
          "ticks": 119616,
          "time": 74.75999999999999,
          "velocity": 0.3937007874015748
        },
        {
          "duration": 0.12000000000000455,
          "durationTicks": 192,
          "midi": 60,
          "name": "C4",
          "ticks": 119808,
          "time": 74.88,
          "velocity": 0.3937007874015748
        },
        {
          "duration": 0.11999999999999034,
          "durationTicks": 192,
          "midi": 53,
          "name": "F3",
          "ticks": 120000,
          "time": 75,
          "velocity": 0.3937007874015748
        },
        {
          "duration": 0.12000000000000455,
          "durationTicks": 192,
          "midi": 60,
          "name": "C4",
          "ticks": 120192,
          "time": 75.11999999999999,
          "velocity": 0.3937007874015748
        },
        {
          "duration": 0.12000000000000455,
          "durationTicks": 192,
          "midi": 60,
          "name": "C4",
          "ticks": 120384,
          "time": 75.24,
          "velocity": 0.3937007874015748
        },
        {
          "duration": 0.12000000000000455,
          "durationTicks": 192,
          "midi": 60,
          "name": "C4",
          "ticks": 120576,
          "time": 75.36,
          "velocity": 0.3937007874015748
        },
        {
          "duration": 0.11999999999999034,
          "durationTicks": 192,
          "midi": 60,
          "name": "C4",
          "ticks": 120768,
          "time": 75.48,
          "velocity": 0.3937007874015748
        },
        {
          "duration": 0.12000000000000455,
          "durationTicks": 192,
          "midi": 60,
          "name": "C4",
          "ticks": 120960,
          "time": 75.6,
          "velocity": 0.3937007874015748
        },
        {
          "duration": 0.12000000000000455,
          "durationTicks": 192,
          "midi": 60,
          "name": "C4",
          "ticks": 121152,
          "time": 75.72,
          "velocity": 0.3937007874015748
        },
        {
          "duration": 0.11999999999999034,
          "durationTicks": 192,
          "midi": 62,
          "name": "D4",
          "ticks": 121344,
          "time": 75.84,
          "velocity": 0.3937007874015748
        },
        {
          "duration": 0.12000000000000455,
          "durationTicks": 192,
          "midi": 60,
          "name": "C4",
          "ticks": 121536,
          "time": 75.96,
          "velocity": 0.3937007874015748
        },
        {
          "duration": 0.12000000000000455,
          "durationTicks": 192,
          "midi": 62,
          "name": "D4",
          "ticks": 121728,
          "time": 76.08,
          "velocity": 0.3937007874015748
        },
        {
          "duration": 0.11999999999999034,
          "durationTicks": 192,
          "midi": 62,
          "name": "D4",
          "ticks": 121920,
          "time": 76.2,
          "velocity": 0.3937007874015748
        },
        {
          "duration": 0.12000000000000455,
          "durationTicks": 192,
          "midi": 65,
          "name": "F4",
          "ticks": 122112,
          "time": 76.32,
          "velocity": 0.3937007874015748
        },
        {
          "duration": 0.12000000000000455,
          "durationTicks": 192,
          "midi": 62,
          "name": "D4",
          "ticks": 122304,
          "time": 76.44,
          "velocity": 0.3937007874015748
        },
        {
          "duration": 0.11999999999999034,
          "durationTicks": 192,
          "midi": 65,
          "name": "F4",
          "ticks": 122496,
          "time": 76.56,
          "velocity": 0.3937007874015748
        },
        {
          "duration": 0.12000000000000455,
          "durationTicks": 192,
          "midi": 65,
          "name": "F4",
          "ticks": 122688,
          "time": 76.67999999999999,
          "velocity": 0.3937007874015748
        },
        {
          "duration": 0.12000000000000455,
          "durationTicks": 192,
          "midi": 62,
          "name": "D4",
          "ticks": 122880,
          "time": 76.8,
          "velocity": 0.3937007874015748
        },
        {
          "duration": 0.11999999999999034,
          "durationTicks": 192,
          "midi": 65,
          "name": "F4",
          "ticks": 123072,
          "time": 76.92,
          "velocity": 0.3937007874015748
        },
        {
          "duration": 0.12000000000000455,
          "durationTicks": 192,
          "midi": 62,
          "name": "D4",
          "ticks": 123264,
          "time": 77.03999999999999,
          "velocity": 0.3937007874015748
        },
        {
          "duration": 0.12000000000000455,
          "durationTicks": 192,
          "midi": 62,
          "name": "D4",
          "ticks": 123456,
          "time": 77.16,
          "velocity": 0.3937007874015748
        },
        {
          "duration": 0.11999999999999034,
          "durationTicks": 192,
          "midi": 60,
          "name": "C4",
          "ticks": 123648,
          "time": 77.28,
          "velocity": 0.3937007874015748
        },
        {
          "duration": 0.12000000000000455,
          "durationTicks": 192,
          "midi": 62,
          "name": "D4",
          "ticks": 123840,
          "time": 77.39999999999999,
          "velocity": 0.3937007874015748
        },
        {
          "duration": 0.12000000000000455,
          "durationTicks": 192,
          "midi": 60,
          "name": "C4",
          "ticks": 124032,
          "time": 77.52,
          "velocity": 0.3937007874015748
        },
        {
          "duration": 0.11999999999999034,
          "durationTicks": 192,
          "midi": 60,
          "name": "C4",
          "ticks": 124224,
          "time": 77.64,
          "velocity": 0.3937007874015748
        },
        {
          "duration": 0.12000000000000455,
          "durationTicks": 192,
          "midi": 58,
          "name": "A#3",
          "ticks": 124416,
          "time": 77.75999999999999,
          "velocity": 0.3937007874015748
        },
        {
          "duration": 0.12000000000000455,
          "durationTicks": 192,
          "midi": 60,
          "name": "C4",
          "ticks": 124608,
          "time": 77.88,
          "velocity": 0.3937007874015748
        },
        {
          "duration": 0.11999999999999034,
          "durationTicks": 192,
          "midi": 58,
          "name": "A#3",
          "ticks": 124800,
          "time": 78,
          "velocity": 0.3937007874015748
        },
        {
          "duration": 0.12000000000000455,
          "durationTicks": 192,
          "midi": 58,
          "name": "A#3",
          "ticks": 124992,
          "time": 78.11999999999999,
          "velocity": 0.3937007874015748
        },
        {
          "duration": 0.12000000000000455,
          "durationTicks": 192,
          "midi": 60,
          "name": "C4",
          "ticks": 125184,
          "time": 78.24,
          "velocity": 0.3937007874015748
        },
        {
          "duration": 0.12000000000000455,
          "durationTicks": 192,
          "midi": 58,
          "name": "A#3",
          "ticks": 125376,
          "time": 78.36,
          "velocity": 0.3937007874015748
        },
        {
          "duration": 0.11999999999999034,
          "durationTicks": 192,
          "midi": 60,
          "name": "C4",
          "ticks": 125568,
          "time": 78.48,
          "velocity": 0.3937007874015748
        },
        {
          "duration": 0.12000000000000455,
          "durationTicks": 192,
          "midi": 60,
          "name": "C4",
          "ticks": 125760,
          "time": 78.6,
          "velocity": 0.3937007874015748
        }
      ],
      "endOfTrackTicks": 125952
    },
    {
      "channel": 5,
      "controlChanges": {},
      "pitchBends": [],
      "instrument": {
        "family": "piano",
        "number": 0,
        "name": "acoustic grand piano"
      },
      "name": "Elec. Piano (Classic)",
      "notes": [
        {
          "duration": 0.0600000000000005,
          "durationTicks": 96,
          "midi": 70,
          "name": "A#4",
          "ticks": 10848,
          "time": 6.779999999999999,
          "velocity": 0.3937007874015748
        }
      ],
      "endOfTrackTicks": 10944
    }
  ]
}
