{
  "header": {
    "keySignatures": [],
    "meta": [],
    "name": "Violin (Sustain)",
    "ppq": 384,
    "tempos": [
      {
        "bpm": 230.00049833441307,
        "ticks": 0
      }
    ],
    "timeSignatures": [
      {
        "ticks": 0,
        "timeSignature": [4, 4],
        "measures": 0
      }
    ]
  },
  "tracks": [
    {
      "channel": 0,
      "controlChanges": {},
      "pitchBends": [],
      "instrument": {
        "family": "strings",
        "number": 40,
        "name": "violin"
      },
      "name": "Violin (Sustain)",
      "notes": [
        {
          "duration": 0.06521725,
          "durationTicks": 96,
          "midi": 62,
          "name": "D4",
          "ticks": 0,
          "time": 0,
          "velocity": 0.2440944881889764
        },
        {
          "duration": 0.06521725,
          "durationTicks": 96,
          "midi": 62,
          "name": "D4",
          "ticks": 192,
          "time": 0.1304345,
          "velocity": 0.2440944881889764
        },
        {
          "duration": 0.06521725,
          "durationTicks": 96,
          "midi": 74,
          "name": "D5",
          "ticks": 384,
          "time": 0.260869,
          "velocity": 0.2440944881889764
        },
        {
          "duration": 0.06521725,
          "durationTicks": 96,
          "midi": 69,
          "name": "A4",
          "ticks": 768,
          "time": 0.521738,
          "velocity": 0.2440944881889764
        },
        {
          "duration": 0.06521725,
          "durationTicks": 96,
          "midi": 68,
          "name": "G#4",
          "ticks": 1344,
          "time": 0.9130415000000001,
          "velocity": 0.2440944881889764
        },
        {
          "duration": 0.06521725000000012,
          "durationTicks": 96,
          "midi": 67,
          "name": "G4",
          "ticks": 1728,
          "time": 1.1739105,
          "velocity": 0.2440944881889764
        },
        {
          "duration": 0.06521725000000012,
          "durationTicks": 96,
          "midi": 65,
          "name": "F4",
          "ticks": 2112,
          "time": 1.4347795,
          "velocity": 0.2440944881889764
        },
        {
          "duration": 0.06521725000000012,
          "durationTicks": 96,
          "midi": 62,
          "name": "D4",
          "ticks": 2496,
          "time": 1.6956485000000001,
          "velocity": 0.2440944881889764
        },
        {
          "duration": 0.0652172499999999,
          "durationTicks": 96,
          "midi": 65,
          "name": "F4",
          "ticks": 2688,
          "time": 1.8260830000000001,
          "velocity": 0.2440944881889764
        },
        {
          "duration": 0.06521725000000012,
          "durationTicks": 96,
          "midi": 67,
          "name": "G4",
          "ticks": 2880,
          "time": 1.9565175000000001,
          "velocity": 0.2440944881889764
        },
        {
          "duration": 0.0652172499999999,
          "durationTicks": 96,
          "midi": 60,
          "name": "C4",
          "ticks": 3072,
          "time": 2.086952,
          "velocity": 0.2440944881889764
        },
        {
          "duration": 0.06521725000000034,
          "durationTicks": 96,
          "midi": 60,
          "name": "C4",
          "ticks": 3264,
          "time": 2.2173865,
          "velocity": 0.2440944881889764
        },
        {
          "duration": 0.0652172499999999,
          "durationTicks": 96,
          "midi": 74,
          "name": "D5",
          "ticks": 3456,
          "time": 2.347821,
          "velocity": 0.2440944881889764
        },
        {
          "duration": 0.0652172499999999,
          "durationTicks": 96,
          "midi": 69,
          "name": "A4",
          "ticks": 3840,
          "time": 2.60869,
          "velocity": 0.2440944881889764
        },
        {
          "duration": 0.0652172499999999,
          "durationTicks": 96,
          "midi": 68,
          "name": "G#4",
          "ticks": 4416,
          "time": 2.9999935000000004,
          "velocity": 0.2440944881889764
        },
        {
          "duration": 0.06521725000000034,
          "durationTicks": 96,
          "midi": 67,
          "name": "G4",
          "ticks": 4800,
          "time": 3.2608625,
          "velocity": 0.2440944881889764
        },
        {
          "duration": 0.0652172499999999,
          "durationTicks": 96,
          "midi": 65,
          "name": "F4",
          "ticks": 5184,
          "time": 3.5217315000000005,
          "velocity": 0.2440944881889764
        },
        {
          "duration": 0.06521725000000034,
          "durationTicks": 96,
          "midi": 62,
          "name": "D4",
          "ticks": 5568,
          "time": 3.7826005,
          "velocity": 0.2440944881889764
        },
        {
          "duration": 0.0652172499999999,
          "durationTicks": 96,
          "midi": 65,
          "name": "F4",
          "ticks": 5760,
          "time": 3.9130350000000003,
          "velocity": 0.2440944881889764
        },
        {
          "duration": 0.0652172499999999,
          "durationTicks": 96,
          "midi": 67,
          "name": "G4",
          "ticks": 5952,
          "time": 4.0434695000000005,
          "velocity": 0.2440944881889764
        },
        {
          "duration": 0.0652172499999999,
          "durationTicks": 96,
          "midi": 59,
          "name": "B3",
          "ticks": 6144,
          "time": 4.173904,
          "velocity": 0.2440944881889764
        },
        {
          "duration": 0.0652172499999999,
          "durationTicks": 96,
          "midi": 59,
          "name": "B3",
          "ticks": 6336,
          "time": 4.3043385,
          "velocity": 0.2440944881889764
        },
        {
          "duration": 0.06521725000000078,
          "durationTicks": 96,
          "midi": 74,
          "name": "D5",
          "ticks": 6528,
          "time": 4.434773,
          "velocity": 0.2440944881889764
        },
        {
          "duration": 0.0652172499999999,
          "durationTicks": 96,
          "midi": 69,
          "name": "A4",
          "ticks": 6912,
          "time": 4.695642,
          "velocity": 0.2440944881889764
        },
        {
          "duration": 0.0652172499999999,
          "durationTicks": 96,
          "midi": 68,
          "name": "G#4",
          "ticks": 7488,
          "time": 5.086945500000001,
          "velocity": 0.2440944881889764
        },
        {
          "duration": 0.0652172499999999,
          "durationTicks": 96,
          "midi": 67,
          "name": "G4",
          "ticks": 7872,
          "time": 5.3478145,
          "velocity": 0.2440944881889764
        },
        {
          "duration": 0.0652172499999999,
          "durationTicks": 96,
          "midi": 65,
          "name": "F4",
          "ticks": 8256,
          "time": 5.608683500000001,
          "velocity": 0.2440944881889764
        },
        {
          "duration": 0.0652172499999999,
          "durationTicks": 96,
          "midi": 62,
          "name": "D4",
          "ticks": 8640,
          "time": 5.8695525,
          "velocity": 0.2440944881889764
        },
        {
          "duration": 0.0652172499999999,
          "durationTicks": 96,
          "midi": 65,
          "name": "F4",
          "ticks": 8832,
          "time": 5.999987000000001,
          "velocity": 0.2440944881889764
        },
        {
          "duration": 0.0652172499999999,
          "durationTicks": 96,
          "midi": 67,
          "name": "G4",
          "ticks": 9024,
          "time": 6.130421500000001,
          "velocity": 0.2440944881889764
        },
        {
          "duration": 0.0652172499999999,
          "durationTicks": 96,
          "midi": 58,
          "name": "A#3",
          "ticks": 9216,
          "time": 6.260856,
          "velocity": 0.2440944881889764
        },
        {
          "duration": 0.0652172499999999,
          "durationTicks": 96,
          "midi": 58,
          "name": "A#3",
          "ticks": 9408,
          "time": 6.3912905,
          "velocity": 0.2440944881889764
        },
        {
          "duration": 0.06521725000000078,
          "durationTicks": 96,
          "midi": 74,
          "name": "D5",
          "ticks": 9600,
          "time": 6.521725,
          "velocity": 0.2440944881889764
        },
        {
          "duration": 0.0652172499999999,
          "durationTicks": 96,
          "midi": 69,
          "name": "A4",
          "ticks": 9984,
          "time": 6.7825940000000005,
          "velocity": 0.2440944881889764
        },
        {
          "duration": 0.0652172499999999,
          "durationTicks": 96,
          "midi": 68,
          "name": "G#4",
          "ticks": 10560,
          "time": 7.173897500000001,
          "velocity": 0.2440944881889764
        },
        {
          "duration": 0.0652172499999999,
          "durationTicks": 96,
          "midi": 67,
          "name": "G4",
          "ticks": 10944,
          "time": 7.4347665,
          "velocity": 0.2440944881889764
        },
        {
          "duration": 0.0652172499999999,
          "durationTicks": 96,
          "midi": 65,
          "name": "F4",
          "ticks": 11328,
          "time": 7.695635500000001,
          "velocity": 0.2440944881889764
        },
        {
          "duration": 0.06521725000000078,
          "durationTicks": 96,
          "midi": 62,
          "name": "D4",
          "ticks": 11712,
          "time": 7.9565045,
          "velocity": 0.2440944881889764
        },
        {
          "duration": 0.0652172499999999,
          "durationTicks": 96,
          "midi": 65,
          "name": "F4",
          "ticks": 11904,
          "time": 8.086939000000001,
          "velocity": 0.2440944881889764
        },
        {
          "duration": 0.0652172499999999,
          "durationTicks": 96,
          "midi": 67,
          "name": "G4",
          "ticks": 12096,
          "time": 8.2173735,
          "velocity": 0.2440944881889764
        },
        {
          "duration": 0.0652172499999999,
          "durationTicks": 96,
          "midi": 62,
          "name": "D4",
          "ticks": 12288,
          "time": 8.347808,
          "velocity": 0.2440944881889764
        },
        {
          "duration": 0.0652172499999999,
          "durationTicks": 96,
          "midi": 62,
          "name": "D4",
          "ticks": 12480,
          "time": 8.4782425,
          "velocity": 0.2440944881889764
        },
        {
          "duration": 0.0652172499999999,
          "durationTicks": 96,
          "midi": 74,
          "name": "D5",
          "ticks": 12672,
          "time": 8.608677,
          "velocity": 0.2440944881889764
        },
        {
          "duration": 0.06521725000000167,
          "durationTicks": 96,
          "midi": 69,
          "name": "A4",
          "ticks": 13056,
          "time": 8.869546,
          "velocity": 0.2440944881889764
        },
        {
          "duration": 0.0652172499999999,
          "durationTicks": 96,
          "midi": 68,
          "name": "G#4",
          "ticks": 13632,
          "time": 9.2608495,
          "velocity": 0.2440944881889764
        },
        {
          "duration": 0.0652172499999999,
          "durationTicks": 96,
          "midi": 67,
          "name": "G4",
          "ticks": 14016,
          "time": 9.5217185,
          "velocity": 0.2440944881889764
        },
        {
          "duration": 0.0652172499999999,
          "durationTicks": 96,
          "midi": 65,
          "name": "F4",
          "ticks": 14400,
          "time": 9.7825875,
          "velocity": 0.2440944881889764
        },
        {
          "duration": 0.0652172499999999,
          "durationTicks": 96,
          "midi": 62,
          "name": "D4",
          "ticks": 14784,
          "time": 10.043456500000001,
          "velocity": 0.2440944881889764
        },
        {
          "duration": 0.0652172499999999,
          "durationTicks": 96,
          "midi": 65,
          "name": "F4",
          "ticks": 14976,
          "time": 10.173891000000001,
          "velocity": 0.2440944881889764
        },
        {
          "duration": 0.0652172499999999,
          "durationTicks": 96,
          "midi": 67,
          "name": "G4",
          "ticks": 15168,
          "time": 10.304325500000001,
          "velocity": 0.2440944881889764
        },
        {
          "duration": 0.0652172499999999,
          "durationTicks": 96,
          "midi": 60,
          "name": "C4",
          "ticks": 15360,
          "time": 10.43476,
          "velocity": 0.2440944881889764
        },
        {
          "duration": 0.0652172499999999,
          "durationTicks": 96,
          "midi": 60,
          "name": "C4",
          "ticks": 15552,
          "time": 10.5651945,
          "velocity": 0.2440944881889764
        },
        {
          "duration": 0.0652172499999999,
          "durationTicks": 96,
          "midi": 74,
          "name": "D5",
          "ticks": 15744,
          "time": 10.695629,
          "velocity": 0.2440944881889764
        },
        {
          "duration": 0.06521725000000167,
          "durationTicks": 96,
          "midi": 69,
          "name": "A4",
          "ticks": 16128,
          "time": 10.956498,
          "velocity": 0.2440944881889764
        },
        {
          "duration": 0.0652172499999999,
          "durationTicks": 96,
          "midi": 68,
          "name": "G#4",
          "ticks": 16704,
          "time": 11.347801500000001,
          "velocity": 0.2440944881889764
        },
        {
          "duration": 0.0652172499999999,
          "durationTicks": 96,
          "midi": 67,
          "name": "G4",
          "ticks": 17088,
          "time": 11.6086705,
          "velocity": 0.2440944881889764
        },
        {
          "duration": 0.0652172499999999,
          "durationTicks": 96,
          "midi": 65,
          "name": "F4",
          "ticks": 17472,
          "time": 11.8695395,
          "velocity": 0.2440944881889764
        },
        {
          "duration": 0.0652172499999999,
          "durationTicks": 96,
          "midi": 62,
          "name": "D4",
          "ticks": 17856,
          "time": 12.130408500000001,
          "velocity": 0.2440944881889764
        },
        {
          "duration": 0.0652172499999999,
          "durationTicks": 96,
          "midi": 65,
          "name": "F4",
          "ticks": 18048,
          "time": 12.260843000000001,
          "velocity": 0.2440944881889764
        },
        {
          "duration": 0.0652172499999999,
          "durationTicks": 96,
          "midi": 67,
          "name": "G4",
          "ticks": 18240,
          "time": 12.391277500000001,
          "velocity": 0.2440944881889764
        },
        {
          "duration": 0.0652172499999999,
          "durationTicks": 96,
          "midi": 59,
          "name": "B3",
          "ticks": 18432,
          "time": 12.521712,
          "velocity": 0.2440944881889764
        },
        {
          "duration": 0.0652172499999999,
          "durationTicks": 96,
          "midi": 59,
          "name": "B3",
          "ticks": 18624,
          "time": 12.6521465,
          "velocity": 0.2440944881889764
        },
        {
          "duration": 0.0652172499999999,
          "durationTicks": 96,
          "midi": 74,
          "name": "D5",
          "ticks": 18816,
          "time": 12.782581,
          "velocity": 0.2440944881889764
        },
        {
          "duration": 0.06521725000000167,
          "durationTicks": 96,
          "midi": 69,
          "name": "A4",
          "ticks": 19200,
          "time": 13.04345,
          "velocity": 0.2440944881889764
        },
        {
          "duration": 0.0652172499999999,
          "durationTicks": 96,
          "midi": 68,
          "name": "G#4",
          "ticks": 19776,
          "time": 13.434753500000001,
          "velocity": 0.2440944881889764
        },
        {
          "duration": 0.0652172499999999,
          "durationTicks": 96,
          "midi": 67,
          "name": "G4",
          "ticks": 20160,
          "time": 13.6956225,
          "velocity": 0.2440944881889764
        },
        {
          "duration": 0.0652172499999999,
          "durationTicks": 96,
          "midi": 65,
          "name": "F4",
          "ticks": 20544,
          "time": 13.9564915,
          "velocity": 0.2440944881889764
        },
        {
          "duration": 0.0652172499999999,
          "durationTicks": 96,
          "midi": 62,
          "name": "D4",
          "ticks": 20928,
          "time": 14.217360500000002,
          "velocity": 0.2440944881889764
        },
        {
          "duration": 0.0652172499999999,
          "durationTicks": 96,
          "midi": 65,
          "name": "F4",
          "ticks": 21120,
          "time": 14.347795000000001,
          "velocity": 0.2440944881889764
        },
        {
          "duration": 0.0652172499999999,
          "durationTicks": 96,
          "midi": 67,
          "name": "G4",
          "ticks": 21312,
          "time": 14.478229500000001,
          "velocity": 0.2440944881889764
        },
        {
          "duration": 0.0652172499999999,
          "durationTicks": 96,
          "midi": 58,
          "name": "A#3",
          "ticks": 21504,
          "time": 14.608664000000001,
          "velocity": 0.2440944881889764
        },
        {
          "duration": 0.0652172499999999,
          "durationTicks": 96,
          "midi": 58,
          "name": "A#3",
          "ticks": 21696,
          "time": 14.7390985,
          "velocity": 0.2440944881889764
        },
        {
          "duration": 0.0652172499999999,
          "durationTicks": 96,
          "midi": 74,
          "name": "D5",
          "ticks": 21888,
          "time": 14.869533,
          "velocity": 0.2440944881889764
        },
        {
          "duration": 0.06521725000000167,
          "durationTicks": 96,
          "midi": 69,
          "name": "A4",
          "ticks": 22272,
          "time": 15.130402,
          "velocity": 0.2440944881889764
        },
        {
          "duration": 0.0652172499999999,
          "durationTicks": 96,
          "midi": 68,
          "name": "G#4",
          "ticks": 22848,
          "time": 15.521705500000001,
          "velocity": 0.2440944881889764
        },
        {
          "duration": 0.0652172499999999,
          "durationTicks": 96,
          "midi": 67,
          "name": "G4",
          "ticks": 23232,
          "time": 15.7825745,
          "velocity": 0.2440944881889764
        },
        {
          "duration": 0.0652172499999999,
          "durationTicks": 96,
          "midi": 65,
          "name": "F4",
          "ticks": 23616,
          "time": 16.043443500000002,
          "velocity": 0.2440944881889764
        },
        {
          "duration": 0.0652172499999999,
          "durationTicks": 96,
          "midi": 62,
          "name": "D4",
          "ticks": 24000,
          "time": 16.3043125,
          "velocity": 0.2440944881889764
        },
        {
          "duration": 0.0652172499999999,
          "durationTicks": 96,
          "midi": 65,
          "name": "F4",
          "ticks": 24192,
          "time": 16.434747,
          "velocity": 0.2440944881889764
        },
        {
          "duration": 0.0652172499999999,
          "durationTicks": 96,
          "midi": 67,
          "name": "G4",
          "ticks": 24384,
          "time": 16.5651815,
          "velocity": 0.2440944881889764
        },
        {
          "duration": 0.0652172499999999,
          "durationTicks": 96,
          "midi": 74,
          "name": "D5",
          "ticks": 24576,
          "time": 16.695616,
          "velocity": 0.2440944881889764
        },
        {
          "duration": 0.0652172499999999,
          "durationTicks": 96,
          "midi": 74,
          "name": "D5",
          "ticks": 24768,
          "time": 16.8260505,
          "velocity": 0.2440944881889764
        },
        {
          "duration": 0.0652172499999999,
          "durationTicks": 96,
          "midi": 86,
          "name": "D6",
          "ticks": 24960,
          "time": 16.956485,
          "velocity": 0.2440944881889764
        },
        {
          "duration": 0.0652172499999999,
          "durationTicks": 96,
          "midi": 81,
          "name": "A5",
          "ticks": 25344,
          "time": 17.217354,
          "velocity": 0.2440944881889764
        },
        {
          "duration": 0.0652172499999999,
          "durationTicks": 96,
          "midi": 80,
          "name": "G#5",
          "ticks": 25920,
          "time": 17.6086575,
          "velocity": 0.2440944881889764
        },
        {
          "duration": 0.0652172499999999,
          "durationTicks": 96,
          "midi": 79,
          "name": "G5",
          "ticks": 26304,
          "time": 17.869526500000003,
          "velocity": 0.2440944881889764
        },
        {
          "duration": 0.0652172499999999,
          "durationTicks": 96,
          "midi": 77,
          "name": "F5",
          "ticks": 26688,
          "time": 18.130395500000002,
          "velocity": 0.2440944881889764
        },
        {
          "duration": 0.0652172499999999,
          "durationTicks": 96,
          "midi": 74,
          "name": "D5",
          "ticks": 27072,
          "time": 18.391264500000002,
          "velocity": 0.2440944881889764
        },
        {
          "duration": 0.0652172499999999,
          "durationTicks": 96,
          "midi": 77,
          "name": "F5",
          "ticks": 27264,
          "time": 18.521699,
          "velocity": 0.2440944881889764
        },
        {
          "duration": 0.0652172499999999,
          "durationTicks": 96,
          "midi": 79,
          "name": "G5",
          "ticks": 27456,
          "time": 18.6521335,
          "velocity": 0.2440944881889764
        },
        {
          "duration": 0.0652172499999999,
          "durationTicks": 96,
          "midi": 72,
          "name": "C5",
          "ticks": 27648,
          "time": 18.782568,
          "velocity": 0.2440944881889764
        },
        {
          "duration": 0.0652172499999999,
          "durationTicks": 96,
          "midi": 72,
          "name": "C5",
          "ticks": 27840,
          "time": 18.9130025,
          "velocity": 0.2440944881889764
        },
        {
          "duration": 0.0652172499999999,
          "durationTicks": 96,
          "midi": 86,
          "name": "D6",
          "ticks": 28032,
          "time": 19.043437,
          "velocity": 0.2440944881889764
        },
        {
          "duration": 0.0652172499999999,
          "durationTicks": 96,
          "midi": 81,
          "name": "A5",
          "ticks": 28416,
          "time": 19.304306,
          "velocity": 0.2440944881889764
        },
        {
          "duration": 0.0652172499999999,
          "durationTicks": 96,
          "midi": 80,
          "name": "G#5",
          "ticks": 28992,
          "time": 19.6956095,
          "velocity": 0.2440944881889764
        },
        {
          "duration": 0.0652172499999999,
          "durationTicks": 96,
          "midi": 79,
          "name": "G5",
          "ticks": 29376,
          "time": 19.956478500000003,
          "velocity": 0.2440944881889764
        },
        {
          "duration": 0.0652172499999999,
          "durationTicks": 96,
          "midi": 77,
          "name": "F5",
          "ticks": 29760,
          "time": 20.217347500000002,
          "velocity": 0.2440944881889764
        },
        {
          "duration": 0.0652172499999999,
          "durationTicks": 96,
          "midi": 74,
          "name": "D5",
          "ticks": 30144,
          "time": 20.478216500000002,
          "velocity": 0.2440944881889764
        },
        {
          "duration": 0.0652172499999999,
          "durationTicks": 96,
          "midi": 77,
          "name": "F5",
          "ticks": 30336,
          "time": 20.608651000000002,
          "velocity": 0.2440944881889764
        },
        {
          "duration": 0.0652172499999999,
          "durationTicks": 96,
          "midi": 79,
          "name": "G5",
          "ticks": 30528,
          "time": 20.7390855,
          "velocity": 0.2440944881889764
        },
        {
          "duration": 0.0652172499999999,
          "durationTicks": 96,
          "midi": 71,
          "name": "B4",
          "ticks": 30720,
          "time": 20.86952,
          "velocity": 0.2440944881889764
        },
        {
          "duration": 0.0652172499999999,
          "durationTicks": 96,
          "midi": 71,
          "name": "B4",
          "ticks": 30912,
          "time": 20.9999545,
          "velocity": 0.2440944881889764
        },
        {
          "duration": 0.0652172499999999,
          "durationTicks": 96,
          "midi": 86,
          "name": "D6",
          "ticks": 31104,
          "time": 21.130389,
          "velocity": 0.2440944881889764
        },
        {
          "duration": 0.0652172499999999,
          "durationTicks": 96,
          "midi": 81,
          "name": "A5",
          "ticks": 31488,
          "time": 21.391258,
          "velocity": 0.2440944881889764
        },
        {
          "duration": 0.0652172499999999,
          "durationTicks": 96,
          "midi": 80,
          "name": "G#5",
          "ticks": 32064,
          "time": 21.7825615,
          "velocity": 0.2440944881889764
        },
        {
          "duration": 0.0652172499999999,
          "durationTicks": 96,
          "midi": 79,
          "name": "G5",
          "ticks": 32448,
          "time": 22.043430500000003,
          "velocity": 0.2440944881889764
        },
        {
          "duration": 0.0652172499999999,
          "durationTicks": 96,
          "midi": 77,
          "name": "F5",
          "ticks": 32832,
          "time": 22.304299500000003,
          "velocity": 0.2440944881889764
        },
        {
          "duration": 0.0652172499999999,
          "durationTicks": 96,
          "midi": 74,
          "name": "D5",
          "ticks": 33216,
          "time": 22.565168500000002,
          "velocity": 0.2440944881889764
        },
        {
          "duration": 0.0652172499999999,
          "durationTicks": 96,
          "midi": 77,
          "name": "F5",
          "ticks": 33408,
          "time": 22.695603000000002,
          "velocity": 0.2440944881889764
        },
        {
          "duration": 0.0652172499999999,
          "durationTicks": 96,
          "midi": 79,
          "name": "G5",
          "ticks": 33600,
          "time": 22.8260375,
          "velocity": 0.2440944881889764
        },
        {
          "duration": 0.0652172499999999,
          "durationTicks": 96,
          "midi": 70,
          "name": "A#4",
          "ticks": 33792,
          "time": 22.956472,
          "velocity": 0.2440944881889764
        },
        {
          "duration": 0.0652172499999999,
          "durationTicks": 96,
          "midi": 70,
          "name": "A#4",
          "ticks": 33984,
          "time": 23.0869065,
          "velocity": 0.2440944881889764
        },
        {
          "duration": 0.0652172499999999,
          "durationTicks": 96,
          "midi": 86,
          "name": "D6",
          "ticks": 34176,
          "time": 23.217341,
          "velocity": 0.2440944881889764
        },
        {
          "duration": 0.0652172499999999,
          "durationTicks": 96,
          "midi": 81,
          "name": "A5",
          "ticks": 34560,
          "time": 23.47821,
          "velocity": 0.2440944881889764
        },
        {
          "duration": 0.0652172499999999,
          "durationTicks": 96,
          "midi": 80,
          "name": "G#5",
          "ticks": 35136,
          "time": 23.8695135,
          "velocity": 0.2440944881889764
        },
        {
          "duration": 0.0652172499999999,
          "durationTicks": 96,
          "midi": 79,
          "name": "G5",
          "ticks": 35520,
          "time": 24.130382500000003,
          "velocity": 0.2440944881889764
        },
        {
          "duration": 0.0652172499999999,
          "durationTicks": 96,
          "midi": 77,
          "name": "F5",
          "ticks": 35904,
          "time": 24.391251500000003,
          "velocity": 0.2440944881889764
        },
        {
          "duration": 0.0652172499999999,
          "durationTicks": 96,
          "midi": 74,
          "name": "D5",
          "ticks": 36288,
          "time": 24.652120500000002,
          "velocity": 0.2440944881889764
        },
        {
          "duration": 0.0652172499999999,
          "durationTicks": 96,
          "midi": 77,
          "name": "F5",
          "ticks": 36480,
          "time": 24.782555000000002,
          "velocity": 0.2440944881889764
        },
        {
          "duration": 0.0652172499999999,
          "durationTicks": 96,
          "midi": 79,
          "name": "G5",
          "ticks": 36672,
          "time": 24.912989500000002,
          "velocity": 0.2440944881889764
        },
        {
          "duration": 0.0652172499999999,
          "durationTicks": 96,
          "midi": 74,
          "name": "D5",
          "ticks": 36864,
          "time": 25.043424,
          "velocity": 0.2440944881889764
        },
        {
          "duration": 0.0652172499999999,
          "durationTicks": 96,
          "midi": 74,
          "name": "D5",
          "ticks": 37056,
          "time": 25.1738585,
          "velocity": 0.2440944881889764
        },
        {
          "duration": 0.0652172499999999,
          "durationTicks": 96,
          "midi": 86,
          "name": "D6",
          "ticks": 37248,
          "time": 25.304293,
          "velocity": 0.2440944881889764
        },
        {
          "duration": 0.0652172499999999,
          "durationTicks": 96,
          "midi": 81,
          "name": "A5",
          "ticks": 37632,
          "time": 25.565162,
          "velocity": 0.2440944881889764
        },
        {
          "duration": 0.0652172499999999,
          "durationTicks": 96,
          "midi": 80,
          "name": "G#5",
          "ticks": 38208,
          "time": 25.9564655,
          "velocity": 0.2440944881889764
        },
        {
          "duration": 0.0652172499999999,
          "durationTicks": 96,
          "midi": 79,
          "name": "G5",
          "ticks": 38592,
          "time": 26.217334500000003,
          "velocity": 0.2440944881889764
        },
        {
          "duration": 0.0652172499999999,
          "durationTicks": 96,
          "midi": 77,
          "name": "F5",
          "ticks": 38976,
          "time": 26.478203500000003,
          "velocity": 0.2440944881889764
        },
        {
          "duration": 0.0652172499999999,
          "durationTicks": 96,
          "midi": 74,
          "name": "D5",
          "ticks": 39360,
          "time": 26.739072500000002,
          "velocity": 0.2440944881889764
        },
        {
          "duration": 0.0652172499999999,
          "durationTicks": 96,
          "midi": 77,
          "name": "F5",
          "ticks": 39552,
          "time": 26.869507000000002,
          "velocity": 0.2440944881889764
        },
        {
          "duration": 0.0652172499999999,
          "durationTicks": 96,
          "midi": 79,
          "name": "G5",
          "ticks": 39744,
          "time": 26.999941500000002,
          "velocity": 0.2440944881889764
        },
        {
          "duration": 0.0652172499999999,
          "durationTicks": 96,
          "midi": 72,
          "name": "C5",
          "ticks": 39936,
          "time": 27.130376000000002,
          "velocity": 0.2440944881889764
        },
        {
          "duration": 0.0652172499999999,
          "durationTicks": 96,
          "midi": 72,
          "name": "C5",
          "ticks": 40128,
          "time": 27.2608105,
          "velocity": 0.2440944881889764
        },
        {
          "duration": 0.0652172499999999,
          "durationTicks": 96,
          "midi": 86,
          "name": "D6",
          "ticks": 40320,
          "time": 27.391245,
          "velocity": 0.2440944881889764
        },
        {
          "duration": 0.0652172499999999,
          "durationTicks": 96,
          "midi": 81,
          "name": "A5",
          "ticks": 40704,
          "time": 27.652114,
          "velocity": 0.2440944881889764
        },
        {
          "duration": 0.0652172499999999,
          "durationTicks": 96,
          "midi": 80,
          "name": "G#5",
          "ticks": 41280,
          "time": 28.0434175,
          "velocity": 0.2440944881889764
        },
        {
          "duration": 0.0652172499999999,
          "durationTicks": 96,
          "midi": 79,
          "name": "G5",
          "ticks": 41664,
          "time": 28.304286500000003,
          "velocity": 0.2440944881889764
        },
        {
          "duration": 0.0652172499999999,
          "durationTicks": 96,
          "midi": 77,
          "name": "F5",
          "ticks": 42048,
          "time": 28.565155500000003,
          "velocity": 0.2440944881889764
        },
        {
          "duration": 0.0652172499999999,
          "durationTicks": 96,
          "midi": 74,
          "name": "D5",
          "ticks": 42432,
          "time": 28.826024500000003,
          "velocity": 0.2440944881889764
        },
        {
          "duration": 0.0652172499999999,
          "durationTicks": 96,
          "midi": 77,
          "name": "F5",
          "ticks": 42624,
          "time": 28.956459000000002,
          "velocity": 0.2440944881889764
        },
        {
          "duration": 0.0652172499999999,
          "durationTicks": 96,
          "midi": 79,
          "name": "G5",
          "ticks": 42816,
          "time": 29.086893500000002,
          "velocity": 0.2440944881889764
        },
        {
          "duration": 0.0652172499999999,
          "durationTicks": 96,
          "midi": 71,
          "name": "B4",
          "ticks": 43008,
          "time": 29.217328000000002,
          "velocity": 0.2440944881889764
        },
        {
          "duration": 0.0652172499999999,
          "durationTicks": 96,
          "midi": 71,
          "name": "B4",
          "ticks": 43200,
          "time": 29.3477625,
          "velocity": 0.2440944881889764
        },
        {
          "duration": 0.0652172499999999,
          "durationTicks": 96,
          "midi": 86,
          "name": "D6",
          "ticks": 43392,
          "time": 29.478197,
          "velocity": 0.2440944881889764
        },
        {
          "duration": 0.0652172499999999,
          "durationTicks": 96,
          "midi": 81,
          "name": "A5",
          "ticks": 43776,
          "time": 29.739066,
          "velocity": 0.2440944881889764
        },
        {
          "duration": 0.0652172499999999,
          "durationTicks": 96,
          "midi": 80,
          "name": "G#5",
          "ticks": 44352,
          "time": 30.1303695,
          "velocity": 0.2440944881889764
        },
        {
          "duration": 0.0652172499999999,
          "durationTicks": 96,
          "midi": 79,
          "name": "G5",
          "ticks": 44736,
          "time": 30.391238500000004,
          "velocity": 0.2440944881889764
        },
        {
          "duration": 0.0652172499999999,
          "durationTicks": 96,
          "midi": 77,
          "name": "F5",
          "ticks": 45120,
          "time": 30.652107500000003,
          "velocity": 0.2440944881889764
        },
        {
          "duration": 0.0652172499999999,
          "durationTicks": 96,
          "midi": 74,
          "name": "D5",
          "ticks": 45504,
          "time": 30.912976500000003,
          "velocity": 0.2440944881889764
        },
        {
          "duration": 0.0652172499999999,
          "durationTicks": 96,
          "midi": 77,
          "name": "F5",
          "ticks": 45696,
          "time": 31.043411000000003,
          "velocity": 0.2440944881889764
        },
        {
          "duration": 0.0652172499999999,
          "durationTicks": 96,
          "midi": 79,
          "name": "G5",
          "ticks": 45888,
          "time": 31.173845500000002,
          "velocity": 0.2440944881889764
        },
        {
          "duration": 0.0652172499999999,
          "durationTicks": 96,
          "midi": 70,
          "name": "A#4",
          "ticks": 46080,
          "time": 31.304280000000002,
          "velocity": 0.2440944881889764
        },
        {
          "duration": 0.0652172499999999,
          "durationTicks": 96,
          "midi": 70,
          "name": "A#4",
          "ticks": 46272,
          "time": 31.434714500000002,
          "velocity": 0.2440944881889764
        },
        {
          "duration": 0.0652172499999999,
          "durationTicks": 96,
          "midi": 86,
          "name": "D6",
          "ticks": 46464,
          "time": 31.565149,
          "velocity": 0.2440944881889764
        },
        {
          "duration": 0.0652172499999999,
          "durationTicks": 96,
          "midi": 81,
          "name": "A5",
          "ticks": 46848,
          "time": 31.826018,
          "velocity": 0.2440944881889764
        },
        {
          "duration": 0.06521724999999634,
          "durationTicks": 96,
          "midi": 80,
          "name": "G#5",
          "ticks": 47424,
          "time": 32.217321500000004,
          "velocity": 0.2440944881889764
        },
        {
          "duration": 0.06521724999999634,
          "durationTicks": 96,
          "midi": 79,
          "name": "G5",
          "ticks": 47808,
          "time": 32.478190500000004,
          "velocity": 0.2440944881889764
        },
        {
          "duration": 0.06521724999999634,
          "durationTicks": 96,
          "midi": 77,
          "name": "F5",
          "ticks": 48192,
          "time": 32.7390595,
          "velocity": 0.2440944881889764
        },
        {
          "duration": 0.06521724999999634,
          "durationTicks": 96,
          "midi": 74,
          "name": "D5",
          "ticks": 48576,
          "time": 32.9999285,
          "velocity": 0.2440944881889764
        },
        {
          "duration": 0.06521724999999634,
          "durationTicks": 96,
          "midi": 77,
          "name": "F5",
          "ticks": 48768,
          "time": 33.130363,
          "velocity": 0.2440944881889764
        },
        {
          "duration": 0.06521724999999634,
          "durationTicks": 96,
          "midi": 79,
          "name": "G5",
          "ticks": 48960,
          "time": 33.2607975,
          "velocity": 0.2440944881889764
        }
      ],
      "endOfTrackTicks": 49056
    },
    {
      "channel": 1,
      "controlChanges": {},
      "pitchBends": [],
      "instrument": {
        "family": "piano",
        "number": 0,
        "name": "acoustic grand piano"
      },
      "name": "Grand Piano",
      "notes": [
        {
          "duration": 0.0652172499999999,
          "durationTicks": 96,
          "midi": 50,
          "name": "D3",
          "ticks": 12288,
          "time": 8.347808,
          "velocity": 0.14960629921259844
        },
        {
          "duration": 0.0652172499999999,
          "durationTicks": 96,
          "midi": 50,
          "name": "D3",
          "ticks": 12672,
          "time": 8.608677,
          "velocity": 0.14960629921259844
        },
        {
          "duration": 0.06521725000000167,
          "durationTicks": 96,
          "midi": 50,
          "name": "D3",
          "ticks": 13056,
          "time": 8.869546,
          "velocity": 0.14960629921259844
        },
        {
          "duration": 0.0652172499999999,
          "durationTicks": 96,
          "midi": 50,
          "name": "D3",
          "ticks": 13248,
          "time": 8.999980500000001,
          "velocity": 0.14960629921259844
        },
        {
          "duration": 0.0652172499999999,
          "durationTicks": 96,
          "midi": 50,
          "name": "D3",
          "ticks": 13632,
          "time": 9.2608495,
          "velocity": 0.14960629921259844
        },
        {
          "duration": 0.0652172499999999,
          "durationTicks": 96,
          "midi": 50,
          "name": "D3",
          "ticks": 14016,
          "time": 9.5217185,
          "velocity": 0.14960629921259844
        },
        {
          "duration": 0.0652172499999999,
          "durationTicks": 96,
          "midi": 50,
          "name": "D3",
          "ticks": 14400,
          "time": 9.7825875,
          "velocity": 0.14960629921259844
        },
        {
          "duration": 0.0652172499999999,
          "durationTicks": 96,
          "midi": 50,
          "name": "D3",
          "ticks": 14784,
          "time": 10.043456500000001,
          "velocity": 0.14960629921259844
        },
        {
          "duration": 0.0652172499999999,
          "durationTicks": 96,
          "midi": 50,
          "name": "D3",
          "ticks": 14976,
          "time": 10.173891000000001,
          "velocity": 0.14960629921259844
        },
        {
          "duration": 0.0652172499999999,
          "durationTicks": 96,
          "midi": 50,
          "name": "D3",
          "ticks": 15168,
          "time": 10.304325500000001,
          "velocity": 0.14960629921259844
        },
        {
          "duration": 0.0652172499999999,
          "durationTicks": 96,
          "midi": 48,
          "name": "C3",
          "ticks": 15360,
          "time": 10.43476,
          "velocity": 0.14960629921259844
        },
        {
          "duration": 0.0652172499999999,
          "durationTicks": 96,
          "midi": 48,
          "name": "C3",
          "ticks": 15744,
          "time": 10.695629,
          "velocity": 0.14960629921259844
        },
        {
          "duration": 0.06521725000000167,
          "durationTicks": 96,
          "midi": 48,
          "name": "C3",
          "ticks": 16128,
          "time": 10.956498,
          "velocity": 0.14960629921259844
        },
        {
          "duration": 0.0652172499999999,
          "durationTicks": 96,
          "midi": 48,
          "name": "C3",
          "ticks": 16320,
          "time": 11.086932500000001,
          "velocity": 0.14960629921259844
        },
        {
          "duration": 0.0652172499999999,
          "durationTicks": 96,
          "midi": 48,
          "name": "C3",
          "ticks": 16704,
          "time": 11.347801500000001,
          "velocity": 0.14960629921259844
        },
        {
          "duration": 0.0652172499999999,
          "durationTicks": 96,
          "midi": 48,
          "name": "C3",
          "ticks": 17088,
          "time": 11.6086705,
          "velocity": 0.14960629921259844
        },
        {
          "duration": 0.0652172499999999,
          "durationTicks": 96,
          "midi": 48,
          "name": "C3",
          "ticks": 17472,
          "time": 11.8695395,
          "velocity": 0.14960629921259844
        },
        {
          "duration": 0.0652172499999999,
          "durationTicks": 96,
          "midi": 48,
          "name": "C3",
          "ticks": 17856,
          "time": 12.130408500000001,
          "velocity": 0.14960629921259844
        },
        {
          "duration": 0.0652172499999999,
          "durationTicks": 96,
          "midi": 48,
          "name": "C3",
          "ticks": 18048,
          "time": 12.260843000000001,
          "velocity": 0.14960629921259844
        },
        {
          "duration": 0.0652172499999999,
          "durationTicks": 96,
          "midi": 48,
          "name": "C3",
          "ticks": 18240,
          "time": 12.391277500000001,
          "velocity": 0.14960629921259844
        },
        {
          "duration": 0.0652172499999999,
          "durationTicks": 96,
          "midi": 47,
          "name": "B2",
          "ticks": 18432,
          "time": 12.521712,
          "velocity": 0.14960629921259844
        },
        {
          "duration": 0.0652172499999999,
          "durationTicks": 96,
          "midi": 47,
          "name": "B2",
          "ticks": 18816,
          "time": 12.782581,
          "velocity": 0.14960629921259844
        },
        {
          "duration": 0.06521725000000167,
          "durationTicks": 96,
          "midi": 47,
          "name": "B2",
          "ticks": 19200,
          "time": 13.04345,
          "velocity": 0.14960629921259844
        },
        {
          "duration": 0.0652172499999999,
          "durationTicks": 96,
          "midi": 47,
          "name": "B2",
          "ticks": 19392,
          "time": 13.173884500000002,
          "velocity": 0.14960629921259844
        },
        {
          "duration": 0.0652172499999999,
          "durationTicks": 96,
          "midi": 47,
          "name": "B2",
          "ticks": 19776,
          "time": 13.434753500000001,
          "velocity": 0.14960629921259844
        },
        {
          "duration": 0.0652172499999999,
          "durationTicks": 96,
          "midi": 47,
          "name": "B2",
          "ticks": 20160,
          "time": 13.6956225,
          "velocity": 0.14960629921259844
        },
        {
          "duration": 0.0652172499999999,
          "durationTicks": 96,
          "midi": 47,
          "name": "B2",
          "ticks": 20544,
          "time": 13.9564915,
          "velocity": 0.14960629921259844
        },
        {
          "duration": 0.0652172499999999,
          "durationTicks": 96,
          "midi": 47,
          "name": "B2",
          "ticks": 20928,
          "time": 14.217360500000002,
          "velocity": 0.14960629921259844
        },
        {
          "duration": 0.0652172499999999,
          "durationTicks": 96,
          "midi": 47,
          "name": "B2",
          "ticks": 21120,
          "time": 14.347795000000001,
          "velocity": 0.14960629921259844
        },
        {
          "duration": 0.0652172499999999,
          "durationTicks": 96,
          "midi": 47,
          "name": "B2",
          "ticks": 21312,
          "time": 14.478229500000001,
          "velocity": 0.14960629921259844
        },
        {
          "duration": 0.0652172499999999,
          "durationTicks": 96,
          "midi": 46,
          "name": "A#2",
          "ticks": 21504,
          "time": 14.608664000000001,
          "velocity": 0.14960629921259844
        },
        {
          "duration": 0.0652172499999999,
          "durationTicks": 96,
          "midi": 46,
          "name": "A#2",
          "ticks": 21888,
          "time": 14.869533,
          "velocity": 0.14960629921259844
        },
        {
          "duration": 0.06521725000000167,
          "durationTicks": 96,
          "midi": 46,
          "name": "A#2",
          "ticks": 22272,
          "time": 15.130402,
          "velocity": 0.14960629921259844
        },
        {
          "duration": 0.0652172499999999,
          "durationTicks": 96,
          "midi": 46,
          "name": "A#2",
          "ticks": 22464,
          "time": 15.260836500000002,
          "velocity": 0.14960629921259844
        },
        {
          "duration": 0.0652172499999999,
          "durationTicks": 96,
          "midi": 46,
          "name": "A#2",
          "ticks": 22848,
          "time": 15.521705500000001,
          "velocity": 0.14960629921259844
        },
        {
          "duration": 0.0652172499999999,
          "durationTicks": 96,
          "midi": 48,
          "name": "C3",
          "ticks": 23232,
          "time": 15.7825745,
          "velocity": 0.14960629921259844
        },
        {
          "duration": 0.0652172499999999,
          "durationTicks": 96,
          "midi": 48,
          "name": "C3",
          "ticks": 23616,
          "time": 16.043443500000002,
          "velocity": 0.14960629921259844
        },
        {
          "duration": 0.0652172499999999,
          "durationTicks": 96,
          "midi": 48,
          "name": "C3",
          "ticks": 24000,
          "time": 16.3043125,
          "velocity": 0.14960629921259844
        },
        {
          "duration": 0.0652172499999999,
          "durationTicks": 96,
          "midi": 48,
          "name": "C3",
          "ticks": 24192,
          "time": 16.434747,
          "velocity": 0.14960629921259844
        },
        {
          "duration": 0.0652172499999999,
          "durationTicks": 96,
          "midi": 48,
          "name": "C3",
          "ticks": 24384,
          "time": 16.5651815,
          "velocity": 0.14960629921259844
        },
        {
          "duration": 0.0652172499999999,
          "durationTicks": 96,
          "midi": 38,
          "name": "D2",
          "ticks": 24576,
          "time": 16.695616,
          "velocity": 0.14960629921259844
        },
        {
          "duration": 0.0652172499999999,
          "durationTicks": 96,
          "midi": 50,
          "name": "D3",
          "ticks": 24576,
          "time": 16.695616,
          "velocity": 0.14960629921259844
        },
        {
          "duration": 0.0652172499999999,
          "durationTicks": 96,
          "midi": 38,
          "name": "D2",
          "ticks": 24960,
          "time": 16.956485,
          "velocity": 0.14960629921259844
        },
        {
          "duration": 0.0652172499999999,
          "durationTicks": 96,
          "midi": 50,
          "name": "D3",
          "ticks": 24960,
          "time": 16.956485,
          "velocity": 0.14960629921259844
        },
        {
          "duration": 0.0652172499999999,
          "durationTicks": 96,
          "midi": 38,
          "name": "D2",
          "ticks": 25344,
          "time": 17.217354,
          "velocity": 0.14960629921259844
        },
        {
          "duration": 0.0652172499999999,
          "durationTicks": 96,
          "midi": 50,
          "name": "D3",
          "ticks": 25344,
          "time": 17.217354,
          "velocity": 0.14960629921259844
        },
        {
          "duration": 0.0652172499999999,
          "durationTicks": 96,
          "midi": 38,
          "name": "D2",
          "ticks": 25536,
          "time": 17.3477885,
          "velocity": 0.14960629921259844
        },
        {
          "duration": 0.0652172499999999,
          "durationTicks": 96,
          "midi": 50,
          "name": "D3",
          "ticks": 25536,
          "time": 17.3477885,
          "velocity": 0.14960629921259844
        },
        {
          "duration": 0.0652172499999999,
          "durationTicks": 96,
          "midi": 38,
          "name": "D2",
          "ticks": 25920,
          "time": 17.6086575,
          "velocity": 0.14960629921259844
        },
        {
          "duration": 0.0652172499999999,
          "durationTicks": 96,
          "midi": 50,
          "name": "D3",
          "ticks": 25920,
          "time": 17.6086575,
          "velocity": 0.14960629921259844
        },
        {
          "duration": 0.0652172499999999,
          "durationTicks": 96,
          "midi": 38,
          "name": "D2",
          "ticks": 26304,
          "time": 17.869526500000003,
          "velocity": 0.14960629921259844
        },
        {
          "duration": 0.0652172499999999,
          "durationTicks": 96,
          "midi": 50,
          "name": "D3",
          "ticks": 26304,
          "time": 17.869526500000003,
          "velocity": 0.14960629921259844
        },
        {
          "duration": 0.0652172499999999,
          "durationTicks": 96,
          "midi": 38,
          "name": "D2",
          "ticks": 26688,
          "time": 18.130395500000002,
          "velocity": 0.14960629921259844
        },
        {
          "duration": 0.0652172499999999,
          "durationTicks": 96,
          "midi": 50,
          "name": "D3",
          "ticks": 26688,
          "time": 18.130395500000002,
          "velocity": 0.14960629921259844
        },
        {
          "duration": 0.0652172499999999,
          "durationTicks": 96,
          "midi": 38,
          "name": "D2",
          "ticks": 27072,
          "time": 18.391264500000002,
          "velocity": 0.14960629921259844
        },
        {
          "duration": 0.0652172499999999,
          "durationTicks": 96,
          "midi": 50,
          "name": "D3",
          "ticks": 27072,
          "time": 18.391264500000002,
          "velocity": 0.14960629921259844
        },
        {
          "duration": 0.0652172499999999,
          "durationTicks": 96,
          "midi": 38,
          "name": "D2",
          "ticks": 27264,
          "time": 18.521699,
          "velocity": 0.14960629921259844
        },
        {
          "duration": 0.0652172499999999,
          "durationTicks": 96,
          "midi": 50,
          "name": "D3",
          "ticks": 27264,
          "time": 18.521699,
          "velocity": 0.14960629921259844
        },
        {
          "duration": 0.0652172499999999,
          "durationTicks": 96,
          "midi": 38,
          "name": "D2",
          "ticks": 27456,
          "time": 18.6521335,
          "velocity": 0.14960629921259844
        },
        {
          "duration": 0.0652172499999999,
          "durationTicks": 96,
          "midi": 50,
          "name": "D3",
          "ticks": 27456,
          "time": 18.6521335,
          "velocity": 0.14960629921259844
        },
        {
          "duration": 0.0652172499999999,
          "durationTicks": 96,
          "midi": 36,
          "name": "C2",
          "ticks": 27648,
          "time": 18.782568,
          "velocity": 0.14960629921259844
        },
        {
          "duration": 0.0652172499999999,
          "durationTicks": 96,
          "midi": 48,
          "name": "C3",
          "ticks": 27648,
          "time": 18.782568,
          "velocity": 0.14960629921259844
        },
        {
          "duration": 0.0652172499999999,
          "durationTicks": 96,
          "midi": 36,
          "name": "C2",
          "ticks": 28032,
          "time": 19.043437,
          "velocity": 0.14960629921259844
        },
        {
          "duration": 0.0652172499999999,
          "durationTicks": 96,
          "midi": 48,
          "name": "C3",
          "ticks": 28032,
          "time": 19.043437,
          "velocity": 0.14960629921259844
        },
        {
          "duration": 0.0652172499999999,
          "durationTicks": 96,
          "midi": 36,
          "name": "C2",
          "ticks": 28416,
          "time": 19.304306,
          "velocity": 0.14960629921259844
        },
        {
          "duration": 0.0652172499999999,
          "durationTicks": 96,
          "midi": 48,
          "name": "C3",
          "ticks": 28416,
          "time": 19.304306,
          "velocity": 0.14960629921259844
        },
        {
          "duration": 0.0652172499999999,
          "durationTicks": 96,
          "midi": 36,
          "name": "C2",
          "ticks": 28608,
          "time": 19.4347405,
          "velocity": 0.14960629921259844
        },
        {
          "duration": 0.0652172499999999,
          "durationTicks": 96,
          "midi": 48,
          "name": "C3",
          "ticks": 28608,
          "time": 19.4347405,
          "velocity": 0.14960629921259844
        },
        {
          "duration": 0.0652172499999999,
          "durationTicks": 96,
          "midi": 36,
          "name": "C2",
          "ticks": 28992,
          "time": 19.6956095,
          "velocity": 0.14960629921259844
        },
        {
          "duration": 0.0652172499999999,
          "durationTicks": 96,
          "midi": 48,
          "name": "C3",
          "ticks": 28992,
          "time": 19.6956095,
          "velocity": 0.14960629921259844
        },
        {
          "duration": 0.0652172499999999,
          "durationTicks": 96,
          "midi": 36,
          "name": "C2",
          "ticks": 29376,
          "time": 19.956478500000003,
          "velocity": 0.14960629921259844
        },
        {
          "duration": 0.0652172499999999,
          "durationTicks": 96,
          "midi": 48,
          "name": "C3",
          "ticks": 29376,
          "time": 19.956478500000003,
          "velocity": 0.14960629921259844
        },
        {
          "duration": 0.0652172499999999,
          "durationTicks": 96,
          "midi": 36,
          "name": "C2",
          "ticks": 29760,
          "time": 20.217347500000002,
          "velocity": 0.14960629921259844
        },
        {
          "duration": 0.0652172499999999,
          "durationTicks": 96,
          "midi": 48,
          "name": "C3",
          "ticks": 29760,
          "time": 20.217347500000002,
          "velocity": 0.14960629921259844
        },
        {
          "duration": 0.0652172499999999,
          "durationTicks": 96,
          "midi": 36,
          "name": "C2",
          "ticks": 30144,
          "time": 20.478216500000002,
          "velocity": 0.14960629921259844
        },
        {
          "duration": 0.0652172499999999,
          "durationTicks": 96,
          "midi": 48,
          "name": "C3",
          "ticks": 30144,
          "time": 20.478216500000002,
          "velocity": 0.14960629921259844
        },
        {
          "duration": 0.0652172499999999,
          "durationTicks": 96,
          "midi": 36,
          "name": "C2",
          "ticks": 30336,
          "time": 20.608651000000002,
          "velocity": 0.14960629921259844
        },
        {
          "duration": 0.0652172499999999,
          "durationTicks": 96,
          "midi": 48,
          "name": "C3",
          "ticks": 30336,
          "time": 20.608651000000002,
          "velocity": 0.14960629921259844
        },
        {
          "duration": 0.0652172499999999,
          "durationTicks": 96,
          "midi": 36,
          "name": "C2",
          "ticks": 30528,
          "time": 20.7390855,
          "velocity": 0.14960629921259844
        },
        {
          "duration": 0.0652172499999999,
          "durationTicks": 96,
          "midi": 48,
          "name": "C3",
          "ticks": 30528,
          "time": 20.7390855,
          "velocity": 0.14960629921259844
        },
        {
          "duration": 0.0652172499999999,
          "durationTicks": 96,
          "midi": 35,
          "name": "B1",
          "ticks": 30720,
          "time": 20.86952,
          "velocity": 0.14960629921259844
        },
        {
          "duration": 0.0652172499999999,
          "durationTicks": 96,
          "midi": 47,
          "name": "B2",
          "ticks": 30720,
          "time": 20.86952,
          "velocity": 0.14960629921259844
        },
        {
          "duration": 0.0652172499999999,
          "durationTicks": 96,
          "midi": 35,
          "name": "B1",
          "ticks": 31104,
          "time": 21.130389,
          "velocity": 0.14960629921259844
        },
        {
          "duration": 0.0652172499999999,
          "durationTicks": 96,
          "midi": 47,
          "name": "B2",
          "ticks": 31104,
          "time": 21.130389,
          "velocity": 0.14960629921259844
        },
        {
          "duration": 0.0652172499999999,
          "durationTicks": 96,
          "midi": 35,
          "name": "B1",
          "ticks": 31488,
          "time": 21.391258,
          "velocity": 0.14960629921259844
        },
        {
          "duration": 0.0652172499999999,
          "durationTicks": 96,
          "midi": 47,
          "name": "B2",
          "ticks": 31488,
          "time": 21.391258,
          "velocity": 0.14960629921259844
        },
        {
          "duration": 0.0652172499999999,
          "durationTicks": 96,
          "midi": 35,
          "name": "B1",
          "ticks": 31680,
          "time": 21.5216925,
          "velocity": 0.14960629921259844
        },
        {
          "duration": 0.0652172499999999,
          "durationTicks": 96,
          "midi": 47,
          "name": "B2",
          "ticks": 31680,
          "time": 21.5216925,
          "velocity": 0.14960629921259844
        },
        {
          "duration": 0.0652172499999999,
          "durationTicks": 96,
          "midi": 35,
          "name": "B1",
          "ticks": 32064,
          "time": 21.7825615,
          "velocity": 0.14960629921259844
        },
        {
          "duration": 0.0652172499999999,
          "durationTicks": 96,
          "midi": 47,
          "name": "B2",
          "ticks": 32064,
          "time": 21.7825615,
          "velocity": 0.14960629921259844
        },
        {
          "duration": 0.0652172499999999,
          "durationTicks": 96,
          "midi": 35,
          "name": "B1",
          "ticks": 32448,
          "time": 22.043430500000003,
          "velocity": 0.14960629921259844
        },
        {
          "duration": 0.0652172499999999,
          "durationTicks": 96,
          "midi": 47,
          "name": "B2",
          "ticks": 32448,
          "time": 22.043430500000003,
          "velocity": 0.14960629921259844
        },
        {
          "duration": 0.0652172499999999,
          "durationTicks": 96,
          "midi": 35,
          "name": "B1",
          "ticks": 32832,
          "time": 22.304299500000003,
          "velocity": 0.14960629921259844
        },
        {
          "duration": 0.0652172499999999,
          "durationTicks": 96,
          "midi": 47,
          "name": "B2",
          "ticks": 32832,
          "time": 22.304299500000003,
          "velocity": 0.14960629921259844
        },
        {
          "duration": 0.0652172499999999,
          "durationTicks": 96,
          "midi": 35,
          "name": "B1",
          "ticks": 33216,
          "time": 22.565168500000002,
          "velocity": 0.14960629921259844
        },
        {
          "duration": 0.0652172499999999,
          "durationTicks": 96,
          "midi": 47,
          "name": "B2",
          "ticks": 33216,
          "time": 22.565168500000002,
          "velocity": 0.14960629921259844
        },
        {
          "duration": 0.0652172499999999,
          "durationTicks": 96,
          "midi": 35,
          "name": "B1",
          "ticks": 33408,
          "time": 22.695603000000002,
          "velocity": 0.14960629921259844
        },
        {
          "duration": 0.0652172499999999,
          "durationTicks": 96,
          "midi": 47,
          "name": "B2",
          "ticks": 33408,
          "time": 22.695603000000002,
          "velocity": 0.14960629921259844
        },
        {
          "duration": 0.0652172499999999,
          "durationTicks": 96,
          "midi": 35,
          "name": "B1",
          "ticks": 33600,
          "time": 22.8260375,
          "velocity": 0.14960629921259844
        },
        {
          "duration": 0.0652172499999999,
          "durationTicks": 96,
          "midi": 47,
          "name": "B2",
          "ticks": 33600,
          "time": 22.8260375,
          "velocity": 0.14960629921259844
        },
        {
          "duration": 0.0652172499999999,
          "durationTicks": 96,
          "midi": 34,
          "name": "A#1",
          "ticks": 33792,
          "time": 22.956472,
          "velocity": 0.14960629921259844
        },
        {
          "duration": 0.0652172499999999,
          "durationTicks": 96,
          "midi": 46,
          "name": "A#2",
          "ticks": 33792,
          "time": 22.956472,
          "velocity": 0.14960629921259844
        },
        {
          "duration": 0.0652172499999999,
          "durationTicks": 96,
          "midi": 34,
          "name": "A#1",
          "ticks": 34176,
          "time": 23.217341,
          "velocity": 0.14960629921259844
        },
        {
          "duration": 0.0652172499999999,
          "durationTicks": 96,
          "midi": 46,
          "name": "A#2",
          "ticks": 34176,
          "time": 23.217341,
          "velocity": 0.14960629921259844
        },
        {
          "duration": 0.0652172499999999,
          "durationTicks": 96,
          "midi": 34,
          "name": "A#1",
          "ticks": 34560,
          "time": 23.47821,
          "velocity": 0.14960629921259844
        },
        {
          "duration": 0.0652172499999999,
          "durationTicks": 96,
          "midi": 46,
          "name": "A#2",
          "ticks": 34560,
          "time": 23.47821,
          "velocity": 0.14960629921259844
        },
        {
          "duration": 0.0652172499999999,
          "durationTicks": 96,
          "midi": 34,
          "name": "A#1",
          "ticks": 34752,
          "time": 23.6086445,
          "velocity": 0.14960629921259844
        },
        {
          "duration": 0.0652172499999999,
          "durationTicks": 96,
          "midi": 46,
          "name": "A#2",
          "ticks": 34752,
          "time": 23.6086445,
          "velocity": 0.14960629921259844
        },
        {
          "duration": 0.0652172499999999,
          "durationTicks": 96,
          "midi": 34,
          "name": "A#1",
          "ticks": 35136,
          "time": 23.8695135,
          "velocity": 0.14960629921259844
        },
        {
          "duration": 0.0652172499999999,
          "durationTicks": 96,
          "midi": 46,
          "name": "A#2",
          "ticks": 35136,
          "time": 23.8695135,
          "velocity": 0.14960629921259844
        },
        {
          "duration": 0.0652172499999999,
          "durationTicks": 96,
          "midi": 36,
          "name": "C2",
          "ticks": 35520,
          "time": 24.130382500000003,
          "velocity": 0.14960629921259844
        },
        {
          "duration": 0.0652172499999999,
          "durationTicks": 96,
          "midi": 48,
          "name": "C3",
          "ticks": 35520,
          "time": 24.130382500000003,
          "velocity": 0.14960629921259844
        },
        {
          "duration": 0.0652172499999999,
          "durationTicks": 96,
          "midi": 36,
          "name": "C2",
          "ticks": 35904,
          "time": 24.391251500000003,
          "velocity": 0.14960629921259844
        },
        {
          "duration": 0.0652172499999999,
          "durationTicks": 96,
          "midi": 48,
          "name": "C3",
          "ticks": 35904,
          "time": 24.391251500000003,
          "velocity": 0.14960629921259844
        },
        {
          "duration": 0.0652172499999999,
          "durationTicks": 96,
          "midi": 36,
          "name": "C2",
          "ticks": 36288,
          "time": 24.652120500000002,
          "velocity": 0.14960629921259844
        },
        {
          "duration": 0.0652172499999999,
          "durationTicks": 96,
          "midi": 48,
          "name": "C3",
          "ticks": 36288,
          "time": 24.652120500000002,
          "velocity": 0.14960629921259844
        },
        {
          "duration": 0.0652172499999999,
          "durationTicks": 96,
          "midi": 36,
          "name": "C2",
          "ticks": 36480,
          "time": 24.782555000000002,
          "velocity": 0.14960629921259844
        },
        {
          "duration": 0.0652172499999999,
          "durationTicks": 96,
          "midi": 48,
          "name": "C3",
          "ticks": 36480,
          "time": 24.782555000000002,
          "velocity": 0.14960629921259844
        },
        {
          "duration": 0.0652172499999999,
          "durationTicks": 96,
          "midi": 36,
          "name": "C2",
          "ticks": 36672,
          "time": 24.912989500000002,
          "velocity": 0.14960629921259844
        },
        {
          "duration": 0.0652172499999999,
          "durationTicks": 96,
          "midi": 48,
          "name": "C3",
          "ticks": 36672,
          "time": 24.912989500000002,
          "velocity": 0.14960629921259844
        },
        {
          "duration": 0.0652172499999999,
          "durationTicks": 96,
          "midi": 38,
          "name": "D2",
          "ticks": 36864,
          "time": 25.043424,
          "velocity": 0.14960629921259844
        },
        {
          "duration": 0.0652172499999999,
          "durationTicks": 96,
          "midi": 50,
          "name": "D3",
          "ticks": 36864,
          "time": 25.043424,
          "velocity": 0.14960629921259844
        },
        {
          "duration": 0.0652172499999999,
          "durationTicks": 96,
          "midi": 38,
          "name": "D2",
          "ticks": 37248,
          "time": 25.304293,
          "velocity": 0.14960629921259844
        },
        {
          "duration": 0.0652172499999999,
          "durationTicks": 96,
          "midi": 50,
          "name": "D3",
          "ticks": 37248,
          "time": 25.304293,
          "velocity": 0.14960629921259844
        },
        {
          "duration": 0.0652172499999999,
          "durationTicks": 96,
          "midi": 38,
          "name": "D2",
          "ticks": 37632,
          "time": 25.565162,
          "velocity": 0.14960629921259844
        },
        {
          "duration": 0.0652172499999999,
          "durationTicks": 96,
          "midi": 50,
          "name": "D3",
          "ticks": 37632,
          "time": 25.565162,
          "velocity": 0.14960629921259844
        },
        {
          "duration": 0.0652172499999999,
          "durationTicks": 96,
          "midi": 38,
          "name": "D2",
          "ticks": 37824,
          "time": 25.6955965,
          "velocity": 0.14960629921259844
        },
        {
          "duration": 0.0652172499999999,
          "durationTicks": 96,
          "midi": 50,
          "name": "D3",
          "ticks": 37824,
          "time": 25.6955965,
          "velocity": 0.14960629921259844
        },
        {
          "duration": 0.0652172499999999,
          "durationTicks": 96,
          "midi": 38,
          "name": "D2",
          "ticks": 38208,
          "time": 25.9564655,
          "velocity": 0.14960629921259844
        },
        {
          "duration": 0.0652172499999999,
          "durationTicks": 96,
          "midi": 50,
          "name": "D3",
          "ticks": 38208,
          "time": 25.9564655,
          "velocity": 0.14960629921259844
        },
        {
          "duration": 0.0652172499999999,
          "durationTicks": 96,
          "midi": 38,
          "name": "D2",
          "ticks": 38592,
          "time": 26.217334500000003,
          "velocity": 0.14960629921259844
        },
        {
          "duration": 0.0652172499999999,
          "durationTicks": 96,
          "midi": 50,
          "name": "D3",
          "ticks": 38592,
          "time": 26.217334500000003,
          "velocity": 0.14960629921259844
        },
        {
          "duration": 0.0652172499999999,
          "durationTicks": 96,
          "midi": 38,
          "name": "D2",
          "ticks": 38976,
          "time": 26.478203500000003,
          "velocity": 0.14960629921259844
        },
        {
          "duration": 0.0652172499999999,
          "durationTicks": 96,
          "midi": 50,
          "name": "D3",
          "ticks": 38976,
          "time": 26.478203500000003,
          "velocity": 0.14960629921259844
        },
        {
          "duration": 0.0652172499999999,
          "durationTicks": 96,
          "midi": 38,
          "name": "D2",
          "ticks": 39360,
          "time": 26.739072500000002,
          "velocity": 0.14960629921259844
        },
        {
          "duration": 0.0652172499999999,
          "durationTicks": 96,
          "midi": 50,
          "name": "D3",
          "ticks": 39360,
          "time": 26.739072500000002,
          "velocity": 0.14960629921259844
        },
        {
          "duration": 0.0652172499999999,
          "durationTicks": 96,
          "midi": 38,
          "name": "D2",
          "ticks": 39552,
          "time": 26.869507000000002,
          "velocity": 0.14960629921259844
        },
        {
          "duration": 0.0652172499999999,
          "durationTicks": 96,
          "midi": 50,
          "name": "D3",
          "ticks": 39552,
          "time": 26.869507000000002,
          "velocity": 0.14960629921259844
        },
        {
          "duration": 0.0652172499999999,
          "durationTicks": 96,
          "midi": 38,
          "name": "D2",
          "ticks": 39744,
          "time": 26.999941500000002,
          "velocity": 0.14960629921259844
        },
        {
          "duration": 0.0652172499999999,
          "durationTicks": 96,
          "midi": 50,
          "name": "D3",
          "ticks": 39744,
          "time": 26.999941500000002,
          "velocity": 0.14960629921259844
        },
        {
          "duration": 0.0652172499999999,
          "durationTicks": 96,
          "midi": 36,
          "name": "C2",
          "ticks": 39936,
          "time": 27.130376000000002,
          "velocity": 0.14960629921259844
        },
        {
          "duration": 0.0652172499999999,
          "durationTicks": 96,
          "midi": 48,
          "name": "C3",
          "ticks": 39936,
          "time": 27.130376000000002,
          "velocity": 0.14960629921259844
        },
        {
          "duration": 0.0652172499999999,
          "durationTicks": 96,
          "midi": 36,
          "name": "C2",
          "ticks": 40320,
          "time": 27.391245,
          "velocity": 0.14960629921259844
        },
        {
          "duration": 0.0652172499999999,
          "durationTicks": 96,
          "midi": 48,
          "name": "C3",
          "ticks": 40320,
          "time": 27.391245,
          "velocity": 0.14960629921259844
        },
        {
          "duration": 0.0652172499999999,
          "durationTicks": 96,
          "midi": 36,
          "name": "C2",
          "ticks": 40704,
          "time": 27.652114,
          "velocity": 0.14960629921259844
        },
        {
          "duration": 0.0652172499999999,
          "durationTicks": 96,
          "midi": 48,
          "name": "C3",
          "ticks": 40704,
          "time": 27.652114,
          "velocity": 0.14960629921259844
        },
        {
          "duration": 0.0652172499999999,
          "durationTicks": 96,
          "midi": 36,
          "name": "C2",
          "ticks": 40896,
          "time": 27.7825485,
          "velocity": 0.14960629921259844
        },
        {
          "duration": 0.0652172499999999,
          "durationTicks": 96,
          "midi": 48,
          "name": "C3",
          "ticks": 40896,
          "time": 27.7825485,
          "velocity": 0.14960629921259844
        },
        {
          "duration": 0.0652172499999999,
          "durationTicks": 96,
          "midi": 36,
          "name": "C2",
          "ticks": 41280,
          "time": 28.0434175,
          "velocity": 0.14960629921259844
        },
        {
          "duration": 0.0652172499999999,
          "durationTicks": 96,
          "midi": 48,
          "name": "C3",
          "ticks": 41280,
          "time": 28.0434175,
          "velocity": 0.14960629921259844
        },
        {
          "duration": 0.0652172499999999,
          "durationTicks": 96,
          "midi": 36,
          "name": "C2",
          "ticks": 41664,
          "time": 28.304286500000003,
          "velocity": 0.14960629921259844
        },
        {
          "duration": 0.0652172499999999,
          "durationTicks": 96,
          "midi": 48,
          "name": "C3",
          "ticks": 41664,
          "time": 28.304286500000003,
          "velocity": 0.14960629921259844
        },
        {
          "duration": 0.0652172499999999,
          "durationTicks": 96,
          "midi": 36,
          "name": "C2",
          "ticks": 42048,
          "time": 28.565155500000003,
          "velocity": 0.14960629921259844
        },
        {
          "duration": 0.0652172499999999,
          "durationTicks": 96,
          "midi": 48,
          "name": "C3",
          "ticks": 42048,
          "time": 28.565155500000003,
          "velocity": 0.14960629921259844
        },
        {
          "duration": 0.0652172499999999,
          "durationTicks": 96,
          "midi": 36,
          "name": "C2",
          "ticks": 42432,
          "time": 28.826024500000003,
          "velocity": 0.14960629921259844
        },
        {
          "duration": 0.0652172499999999,
          "durationTicks": 96,
          "midi": 48,
          "name": "C3",
          "ticks": 42432,
          "time": 28.826024500000003,
          "velocity": 0.14960629921259844
        },
        {
          "duration": 0.0652172499999999,
          "durationTicks": 96,
          "midi": 36,
          "name": "C2",
          "ticks": 42624,
          "time": 28.956459000000002,
          "velocity": 0.14960629921259844
        },
        {
          "duration": 0.0652172499999999,
          "durationTicks": 96,
          "midi": 48,
          "name": "C3",
          "ticks": 42624,
          "time": 28.956459000000002,
          "velocity": 0.14960629921259844
        },
        {
          "duration": 0.0652172499999999,
          "durationTicks": 96,
          "midi": 36,
          "name": "C2",
          "ticks": 42816,
          "time": 29.086893500000002,
          "velocity": 0.14960629921259844
        },
        {
          "duration": 0.0652172499999999,
          "durationTicks": 96,
          "midi": 48,
          "name": "C3",
          "ticks": 42816,
          "time": 29.086893500000002,
          "velocity": 0.14960629921259844
        },
        {
          "duration": 0.0652172499999999,
          "durationTicks": 96,
          "midi": 35,
          "name": "B1",
          "ticks": 43008,
          "time": 29.217328000000002,
          "velocity": 0.14960629921259844
        },
        {
          "duration": 0.0652172499999999,
          "durationTicks": 96,
          "midi": 47,
          "name": "B2",
          "ticks": 43008,
          "time": 29.217328000000002,
          "velocity": 0.14960629921259844
        },
        {
          "duration": 0.0652172499999999,
          "durationTicks": 96,
          "midi": 35,
          "name": "B1",
          "ticks": 43392,
          "time": 29.478197,
          "velocity": 0.14960629921259844
        },
        {
          "duration": 0.0652172499999999,
          "durationTicks": 96,
          "midi": 47,
          "name": "B2",
          "ticks": 43392,
          "time": 29.478197,
          "velocity": 0.14960629921259844
        },
        {
          "duration": 0.0652172499999999,
          "durationTicks": 96,
          "midi": 35,
          "name": "B1",
          "ticks": 43776,
          "time": 29.739066,
          "velocity": 0.14960629921259844
        },
        {
          "duration": 0.0652172499999999,
          "durationTicks": 96,
          "midi": 47,
          "name": "B2",
          "ticks": 43776,
          "time": 29.739066,
          "velocity": 0.14960629921259844
        },
        {
          "duration": 0.0652172499999999,
          "durationTicks": 96,
          "midi": 35,
          "name": "B1",
          "ticks": 43968,
          "time": 29.8695005,
          "velocity": 0.14960629921259844
        },
        {
          "duration": 0.0652172499999999,
          "durationTicks": 96,
          "midi": 47,
          "name": "B2",
          "ticks": 43968,
          "time": 29.8695005,
          "velocity": 0.14960629921259844
        },
        {
          "duration": 0.0652172499999999,
          "durationTicks": 96,
          "midi": 35,
          "name": "B1",
          "ticks": 44352,
          "time": 30.1303695,
          "velocity": 0.14960629921259844
        },
        {
          "duration": 0.0652172499999999,
          "durationTicks": 96,
          "midi": 47,
          "name": "B2",
          "ticks": 44352,
          "time": 30.1303695,
          "velocity": 0.14960629921259844
        },
        {
          "duration": 0.0652172499999999,
          "durationTicks": 96,
          "midi": 35,
          "name": "B1",
          "ticks": 44736,
          "time": 30.391238500000004,
          "velocity": 0.14960629921259844
        },
        {
          "duration": 0.0652172499999999,
          "durationTicks": 96,
          "midi": 47,
          "name": "B2",
          "ticks": 44736,
          "time": 30.391238500000004,
          "velocity": 0.14960629921259844
        },
        {
          "duration": 0.0652172499999999,
          "durationTicks": 96,
          "midi": 35,
          "name": "B1",
          "ticks": 45120,
          "time": 30.652107500000003,
          "velocity": 0.14960629921259844
        },
        {
          "duration": 0.0652172499999999,
          "durationTicks": 96,
          "midi": 47,
          "name": "B2",
          "ticks": 45120,
          "time": 30.652107500000003,
          "velocity": 0.14960629921259844
        },
        {
          "duration": 0.0652172499999999,
          "durationTicks": 96,
          "midi": 35,
          "name": "B1",
          "ticks": 45504,
          "time": 30.912976500000003,
          "velocity": 0.14960629921259844
        },
        {
          "duration": 0.0652172499999999,
          "durationTicks": 96,
          "midi": 47,
          "name": "B2",
          "ticks": 45504,
          "time": 30.912976500000003,
          "velocity": 0.14960629921259844
        },
        {
          "duration": 0.0652172499999999,
          "durationTicks": 96,
          "midi": 35,
          "name": "B1",
          "ticks": 45696,
          "time": 31.043411000000003,
          "velocity": 0.14960629921259844
        },
        {
          "duration": 0.0652172499999999,
          "durationTicks": 96,
          "midi": 47,
          "name": "B2",
          "ticks": 45696,
          "time": 31.043411000000003,
          "velocity": 0.14960629921259844
        },
        {
          "duration": 0.0652172499999999,
          "durationTicks": 96,
          "midi": 35,
          "name": "B1",
          "ticks": 45888,
          "time": 31.173845500000002,
          "velocity": 0.14960629921259844
        },
        {
          "duration": 0.0652172499999999,
          "durationTicks": 96,
          "midi": 47,
          "name": "B2",
          "ticks": 45888,
          "time": 31.173845500000002,
          "velocity": 0.14960629921259844
        },
        {
          "duration": 0.0652172499999999,
          "durationTicks": 96,
          "midi": 34,
          "name": "A#1",
          "ticks": 46080,
          "time": 31.304280000000002,
          "velocity": 0.14960629921259844
        },
        {
          "duration": 0.0652172499999999,
          "durationTicks": 96,
          "midi": 46,
          "name": "A#2",
          "ticks": 46080,
          "time": 31.304280000000002,
          "velocity": 0.14960629921259844
        },
        {
          "duration": 0.0652172499999999,
          "durationTicks": 96,
          "midi": 34,
          "name": "A#1",
          "ticks": 46464,
          "time": 31.565149,
          "velocity": 0.14960629921259844
        },
        {
          "duration": 0.0652172499999999,
          "durationTicks": 96,
          "midi": 46,
          "name": "A#2",
          "ticks": 46464,
          "time": 31.565149,
          "velocity": 0.14960629921259844
        },
        {
          "duration": 0.0652172499999999,
          "durationTicks": 96,
          "midi": 34,
          "name": "A#1",
          "ticks": 46848,
          "time": 31.826018,
          "velocity": 0.14960629921259844
        },
        {
          "duration": 0.0652172499999999,
          "durationTicks": 96,
          "midi": 46,
          "name": "A#2",
          "ticks": 46848,
          "time": 31.826018,
          "velocity": 0.14960629921259844
        },
        {
          "duration": 0.0652172499999999,
          "durationTicks": 96,
          "midi": 34,
          "name": "A#1",
          "ticks": 47040,
          "time": 31.9564525,
          "velocity": 0.14960629921259844
        },
        {
          "duration": 0.0652172499999999,
          "durationTicks": 96,
          "midi": 46,
          "name": "A#2",
          "ticks": 47040,
          "time": 31.9564525,
          "velocity": 0.14960629921259844
        },
        {
          "duration": 0.06521724999999634,
          "durationTicks": 96,
          "midi": 34,
          "name": "A#1",
          "ticks": 47424,
          "time": 32.217321500000004,
          "velocity": 0.14960629921259844
        },
        {
          "duration": 0.06521724999999634,
          "durationTicks": 96,
          "midi": 46,
          "name": "A#2",
          "ticks": 47424,
          "time": 32.217321500000004,
          "velocity": 0.14960629921259844
        },
        {
          "duration": 0.06521724999999634,
          "durationTicks": 96,
          "midi": 36,
          "name": "C2",
          "ticks": 47808,
          "time": 32.478190500000004,
          "velocity": 0.14960629921259844
        },
        {
          "duration": 0.06521724999999634,
          "durationTicks": 96,
          "midi": 48,
          "name": "C3",
          "ticks": 47808,
          "time": 32.478190500000004,
          "velocity": 0.14960629921259844
        },
        {
          "duration": 0.06521724999999634,
          "durationTicks": 96,
          "midi": 36,
          "name": "C2",
          "ticks": 48192,
          "time": 32.7390595,
          "velocity": 0.14960629921259844
        },
        {
          "duration": 0.06521724999999634,
          "durationTicks": 96,
          "midi": 48,
          "name": "C3",
          "ticks": 48192,
          "time": 32.7390595,
          "velocity": 0.14960629921259844
        },
        {
          "duration": 0.06521724999999634,
          "durationTicks": 96,
          "midi": 36,
          "name": "C2",
          "ticks": 48576,
          "time": 32.9999285,
          "velocity": 0.14960629921259844
        },
        {
          "duration": 0.06521724999999634,
          "durationTicks": 96,
          "midi": 48,
          "name": "C3",
          "ticks": 48576,
          "time": 32.9999285,
          "velocity": 0.14960629921259844
        },
        {
          "duration": 0.06521724999999634,
          "durationTicks": 96,
          "midi": 36,
          "name": "C2",
          "ticks": 48768,
          "time": 33.130363,
          "velocity": 0.14960629921259844
        },
        {
          "duration": 0.06521724999999634,
          "durationTicks": 96,
          "midi": 48,
          "name": "C3",
          "ticks": 48768,
          "time": 33.130363,
          "velocity": 0.14960629921259844
        },
        {
          "duration": 0.06521724999999634,
          "durationTicks": 96,
          "midi": 36,
          "name": "C2",
          "ticks": 48960,
          "time": 33.2607975,
          "velocity": 0.14960629921259844
        },
        {
          "duration": 0.06521724999999634,
          "durationTicks": 96,
          "midi": 48,
          "name": "C3",
          "ticks": 48960,
          "time": 33.2607975,
          "velocity": 0.14960629921259844
        }
      ],
      "endOfTrackTicks": 49056
    },
    {
      "channel": 9,
      "controlChanges": {},
      "pitchBends": [],
      "instrument": {
        "family": "drums",
        "number": 0,
        "name": "standard kit"
      },
      "name": "Electric Drum Kit",
      "notes": [
        {
          "duration": 0.0652172499999999,
          "durationTicks": 96,
          "midi": 49,
          "name": "C#3",
          "ticks": 21504,
          "time": 14.608664000000001,
          "velocity": 0.2047244094488189
        },
        {
          "duration": 0.06521725000000167,
          "durationTicks": 96,
          "midi": 49,
          "name": "C#3",
          "ticks": 22272,
          "time": 15.130402,
          "velocity": 0.2047244094488189
        },
        {
          "duration": 0.0652172499999999,
          "durationTicks": 96,
          "midi": 49,
          "name": "C#3",
          "ticks": 23040,
          "time": 15.652140000000001,
          "velocity": 0.2047244094488189
        },
        {
          "duration": 0.0652172499999999,
          "durationTicks": 96,
          "midi": 49,
          "name": "C#3",
          "ticks": 23424,
          "time": 15.913009,
          "velocity": 0.2047244094488189
        },
        {
          "duration": 0.0652172499999999,
          "durationTicks": 96,
          "midi": 49,
          "name": "C#3",
          "ticks": 23808,
          "time": 16.173878000000002,
          "velocity": 0.2047244094488189
        },
        {
          "duration": 0.0652172499999999,
          "durationTicks": 96,
          "midi": 49,
          "name": "C#3",
          "ticks": 24192,
          "time": 16.434747,
          "velocity": 0.2047244094488189
        },
        {
          "duration": 0.0652172499999999,
          "durationTicks": 96,
          "midi": 44,
          "name": "G#2",
          "ticks": 24576,
          "time": 16.695616,
          "velocity": 0.2047244094488189
        },
        {
          "duration": 0.0652172499999999,
          "durationTicks": 96,
          "midi": 36,
          "name": "C2",
          "ticks": 24576,
          "time": 16.695616,
          "velocity": 0.2047244094488189
        },
        {
          "duration": 0.0652172499999999,
          "durationTicks": 96,
          "midi": 35,
          "name": "B1",
          "ticks": 24576,
          "time": 16.695616,
          "velocity": 0.2047244094488189
        },
        {
          "duration": 0.0652172499999999,
          "durationTicks": 96,
          "midi": 46,
          "name": "A#2",
          "ticks": 24960,
          "time": 16.956485,
          "velocity": 0.2047244094488189
        },
        {
          "duration": 0.0652172499999999,
          "durationTicks": 96,
          "midi": 44,
          "name": "G#2",
          "ticks": 24960,
          "time": 16.956485,
          "velocity": 0.2047244094488189
        },
        {
          "duration": 0.0652172499999999,
          "durationTicks": 96,
          "midi": 51,
          "name": "D#3",
          "ticks": 24960,
          "time": 16.956485,
          "velocity": 0.2047244094488189
        },
        {
          "duration": 0.0652172499999999,
          "durationTicks": 96,
          "midi": 38,
          "name": "D2",
          "ticks": 24960,
          "time": 16.956485,
          "velocity": 0.2047244094488189
        },
        {
          "duration": 0.0652172499999999,
          "durationTicks": 96,
          "midi": 44,
          "name": "G#2",
          "ticks": 25344,
          "time": 17.217354,
          "velocity": 0.2047244094488189
        },
        {
          "duration": 0.0652172499999999,
          "durationTicks": 96,
          "midi": 36,
          "name": "C2",
          "ticks": 25344,
          "time": 17.217354,
          "velocity": 0.2047244094488189
        },
        {
          "duration": 0.0652172499999999,
          "durationTicks": 96,
          "midi": 35,
          "name": "B1",
          "ticks": 25344,
          "time": 17.217354,
          "velocity": 0.2047244094488189
        },
        {
          "duration": 0.0652172499999999,
          "durationTicks": 96,
          "midi": 35,
          "name": "B1",
          "ticks": 25536,
          "time": 17.3477885,
          "velocity": 0.2047244094488189
        },
        {
          "duration": 0.0652172499999999,
          "durationTicks": 96,
          "midi": 36,
          "name": "C2",
          "ticks": 25536,
          "time": 17.3477885,
          "velocity": 0.2047244094488189
        },
        {
          "duration": 0.0652172499999999,
          "durationTicks": 96,
          "midi": 46,
          "name": "A#2",
          "ticks": 25728,
          "time": 17.478223,
          "velocity": 0.2047244094488189
        },
        {
          "duration": 0.0652172499999999,
          "durationTicks": 96,
          "midi": 44,
          "name": "G#2",
          "ticks": 25728,
          "time": 17.478223,
          "velocity": 0.2047244094488189
        },
        {
          "duration": 0.0652172499999999,
          "durationTicks": 96,
          "midi": 51,
          "name": "D#3",
          "ticks": 25728,
          "time": 17.478223,
          "velocity": 0.2047244094488189
        },
        {
          "duration": 0.0652172499999999,
          "durationTicks": 96,
          "midi": 38,
          "name": "D2",
          "ticks": 25728,
          "time": 17.478223,
          "velocity": 0.2047244094488189
        },
        {
          "duration": 0.0652172499999999,
          "durationTicks": 96,
          "midi": 36,
          "name": "C2",
          "ticks": 25920,
          "time": 17.6086575,
          "velocity": 0.2047244094488189
        },
        {
          "duration": 0.0652172499999999,
          "durationTicks": 96,
          "midi": 35,
          "name": "B1",
          "ticks": 25920,
          "time": 17.6086575,
          "velocity": 0.2047244094488189
        },
        {
          "duration": 0.06521725000000345,
          "durationTicks": 96,
          "midi": 44,
          "name": "G#2",
          "ticks": 26112,
          "time": 17.739092,
          "velocity": 0.2047244094488189
        },
        {
          "duration": 0.0652172499999999,
          "durationTicks": 96,
          "midi": 36,
          "name": "C2",
          "ticks": 26304,
          "time": 17.869526500000003,
          "velocity": 0.2047244094488189
        },
        {
          "duration": 0.0652172499999999,
          "durationTicks": 96,
          "midi": 35,
          "name": "B1",
          "ticks": 26304,
          "time": 17.869526500000003,
          "velocity": 0.2047244094488189
        },
        {
          "duration": 0.0652172499999999,
          "durationTicks": 96,
          "midi": 46,
          "name": "A#2",
          "ticks": 26496,
          "time": 17.999961000000003,
          "velocity": 0.2047244094488189
        },
        {
          "duration": 0.0652172499999999,
          "durationTicks": 96,
          "midi": 44,
          "name": "G#2",
          "ticks": 26496,
          "time": 17.999961000000003,
          "velocity": 0.2047244094488189
        },
        {
          "duration": 0.0652172499999999,
          "durationTicks": 96,
          "midi": 51,
          "name": "D#3",
          "ticks": 26496,
          "time": 17.999961000000003,
          "velocity": 0.2047244094488189
        },
        {
          "duration": 0.0652172499999999,
          "durationTicks": 96,
          "midi": 38,
          "name": "D2",
          "ticks": 26496,
          "time": 17.999961000000003,
          "velocity": 0.2047244094488189
        },
        {
          "duration": 0.0652172499999999,
          "durationTicks": 96,
          "midi": 36,
          "name": "C2",
          "ticks": 26688,
          "time": 18.130395500000002,
          "velocity": 0.2047244094488189
        },
        {
          "duration": 0.0652172499999999,
          "durationTicks": 96,
          "midi": 35,
          "name": "B1",
          "ticks": 26688,
          "time": 18.130395500000002,
          "velocity": 0.2047244094488189
        },
        {
          "duration": 0.0652172499999999,
          "durationTicks": 96,
          "midi": 44,
          "name": "G#2",
          "ticks": 26880,
          "time": 18.260830000000002,
          "velocity": 0.2047244094488189
        },
        {
          "duration": 0.0652172499999999,
          "durationTicks": 96,
          "midi": 36,
          "name": "C2",
          "ticks": 26880,
          "time": 18.260830000000002,
          "velocity": 0.2047244094488189
        },
        {
          "duration": 0.0652172499999999,
          "durationTicks": 96,
          "midi": 35,
          "name": "B1",
          "ticks": 26880,
          "time": 18.260830000000002,
          "velocity": 0.2047244094488189
        },
        {
          "duration": 0.0652172499999999,
          "durationTicks": 96,
          "midi": 35,
          "name": "B1",
          "ticks": 27072,
          "time": 18.391264500000002,
          "velocity": 0.2047244094488189
        },
        {
          "duration": 0.0652172499999999,
          "durationTicks": 96,
          "midi": 36,
          "name": "C2",
          "ticks": 27072,
          "time": 18.391264500000002,
          "velocity": 0.2047244094488189
        },
        {
          "duration": 0.0652172499999999,
          "durationTicks": 96,
          "midi": 46,
          "name": "A#2",
          "ticks": 27264,
          "time": 18.521699,
          "velocity": 0.2047244094488189
        },
        {
          "duration": 0.0652172499999999,
          "durationTicks": 96,
          "midi": 44,
          "name": "G#2",
          "ticks": 27264,
          "time": 18.521699,
          "velocity": 0.2047244094488189
        },
        {
          "duration": 0.0652172499999999,
          "durationTicks": 96,
          "midi": 51,
          "name": "D#3",
          "ticks": 27264,
          "time": 18.521699,
          "velocity": 0.2047244094488189
        },
        {
          "duration": 0.0652172499999999,
          "durationTicks": 96,
          "midi": 38,
          "name": "D2",
          "ticks": 27264,
          "time": 18.521699,
          "velocity": 0.2047244094488189
        },
        {
          "duration": 0.0652172499999999,
          "durationTicks": 96,
          "midi": 44,
          "name": "G#2",
          "ticks": 27648,
          "time": 18.782568,
          "velocity": 0.2047244094488189
        },
        {
          "duration": 0.0652172499999999,
          "durationTicks": 96,
          "midi": 36,
          "name": "C2",
          "ticks": 27648,
          "time": 18.782568,
          "velocity": 0.2047244094488189
        },
        {
          "duration": 0.0652172499999999,
          "durationTicks": 96,
          "midi": 35,
          "name": "B1",
          "ticks": 27648,
          "time": 18.782568,
          "velocity": 0.2047244094488189
        },
        {
          "duration": 0.0652172499999999,
          "durationTicks": 96,
          "midi": 46,
          "name": "A#2",
          "ticks": 28032,
          "time": 19.043437,
          "velocity": 0.2047244094488189
        },
        {
          "duration": 0.0652172499999999,
          "durationTicks": 96,
          "midi": 44,
          "name": "G#2",
          "ticks": 28032,
          "time": 19.043437,
          "velocity": 0.2047244094488189
        },
        {
          "duration": 0.0652172499999999,
          "durationTicks": 96,
          "midi": 51,
          "name": "D#3",
          "ticks": 28032,
          "time": 19.043437,
          "velocity": 0.2047244094488189
        },
        {
          "duration": 0.0652172499999999,
          "durationTicks": 96,
          "midi": 38,
          "name": "D2",
          "ticks": 28032,
          "time": 19.043437,
          "velocity": 0.2047244094488189
        },
        {
          "duration": 0.0652172499999999,
          "durationTicks": 96,
          "midi": 44,
          "name": "G#2",
          "ticks": 28416,
          "time": 19.304306,
          "velocity": 0.2047244094488189
        },
        {
          "duration": 0.0652172499999999,
          "durationTicks": 96,
          "midi": 36,
          "name": "C2",
          "ticks": 28416,
          "time": 19.304306,
          "velocity": 0.2047244094488189
        },
        {
          "duration": 0.0652172499999999,
          "durationTicks": 96,
          "midi": 35,
          "name": "B1",
          "ticks": 28416,
          "time": 19.304306,
          "velocity": 0.2047244094488189
        },
        {
          "duration": 0.0652172499999999,
          "durationTicks": 96,
          "midi": 35,
          "name": "B1",
          "ticks": 28608,
          "time": 19.4347405,
          "velocity": 0.2047244094488189
        },
        {
          "duration": 0.0652172499999999,
          "durationTicks": 96,
          "midi": 36,
          "name": "C2",
          "ticks": 28608,
          "time": 19.4347405,
          "velocity": 0.2047244094488189
        },
        {
          "duration": 0.0652172499999999,
          "durationTicks": 96,
          "midi": 46,
          "name": "A#2",
          "ticks": 28800,
          "time": 19.565175,
          "velocity": 0.2047244094488189
        },
        {
          "duration": 0.0652172499999999,
          "durationTicks": 96,
          "midi": 44,
          "name": "G#2",
          "ticks": 28800,
          "time": 19.565175,
          "velocity": 0.2047244094488189
        },
        {
          "duration": 0.0652172499999999,
          "durationTicks": 96,
          "midi": 51,
          "name": "D#3",
          "ticks": 28800,
          "time": 19.565175,
          "velocity": 0.2047244094488189
        },
        {
          "duration": 0.0652172499999999,
          "durationTicks": 96,
          "midi": 38,
          "name": "D2",
          "ticks": 28800,
          "time": 19.565175,
          "velocity": 0.2047244094488189
        },
        {
          "duration": 0.0652172499999999,
          "durationTicks": 96,
          "midi": 36,
          "name": "C2",
          "ticks": 28992,
          "time": 19.6956095,
          "velocity": 0.2047244094488189
        },
        {
          "duration": 0.0652172499999999,
          "durationTicks": 96,
          "midi": 35,
          "name": "B1",
          "ticks": 28992,
          "time": 19.6956095,
          "velocity": 0.2047244094488189
        },
        {
          "duration": 0.0652172499999999,
          "durationTicks": 96,
          "midi": 44,
          "name": "G#2",
          "ticks": 29184,
          "time": 19.826044000000003,
          "velocity": 0.2047244094488189
        },
        {
          "duration": 0.0652172499999999,
          "durationTicks": 96,
          "midi": 36,
          "name": "C2",
          "ticks": 29376,
          "time": 19.956478500000003,
          "velocity": 0.2047244094488189
        },
        {
          "duration": 0.0652172499999999,
          "durationTicks": 96,
          "midi": 35,
          "name": "B1",
          "ticks": 29376,
          "time": 19.956478500000003,
          "velocity": 0.2047244094488189
        },
        {
          "duration": 0.0652172499999999,
          "durationTicks": 96,
          "midi": 46,
          "name": "A#2",
          "ticks": 29568,
          "time": 20.086913000000003,
          "velocity": 0.2047244094488189
        },
        {
          "duration": 0.0652172499999999,
          "durationTicks": 96,
          "midi": 44,
          "name": "G#2",
          "ticks": 29568,
          "time": 20.086913000000003,
          "velocity": 0.2047244094488189
        },
        {
          "duration": 0.0652172499999999,
          "durationTicks": 96,
          "midi": 51,
          "name": "D#3",
          "ticks": 29568,
          "time": 20.086913000000003,
          "velocity": 0.2047244094488189
        },
        {
          "duration": 0.0652172499999999,
          "durationTicks": 96,
          "midi": 38,
          "name": "D2",
          "ticks": 29568,
          "time": 20.086913000000003,
          "velocity": 0.2047244094488189
        },
        {
          "duration": 0.0652172499999999,
          "durationTicks": 96,
          "midi": 36,
          "name": "C2",
          "ticks": 29760,
          "time": 20.217347500000002,
          "velocity": 0.2047244094488189
        },
        {
          "duration": 0.0652172499999999,
          "durationTicks": 96,
          "midi": 35,
          "name": "B1",
          "ticks": 29760,
          "time": 20.217347500000002,
          "velocity": 0.2047244094488189
        },
        {
          "duration": 0.0652172499999999,
          "durationTicks": 96,
          "midi": 44,
          "name": "G#2",
          "ticks": 29952,
          "time": 20.347782000000002,
          "velocity": 0.2047244094488189
        },
        {
          "duration": 0.0652172499999999,
          "durationTicks": 96,
          "midi": 36,
          "name": "C2",
          "ticks": 29952,
          "time": 20.347782000000002,
          "velocity": 0.2047244094488189
        },
        {
          "duration": 0.0652172499999999,
          "durationTicks": 96,
          "midi": 35,
          "name": "B1",
          "ticks": 29952,
          "time": 20.347782000000002,
          "velocity": 0.2047244094488189
        },
        {
          "duration": 0.0652172499999999,
          "durationTicks": 96,
          "midi": 35,
          "name": "B1",
          "ticks": 30144,
          "time": 20.478216500000002,
          "velocity": 0.2047244094488189
        },
        {
          "duration": 0.0652172499999999,
          "durationTicks": 96,
          "midi": 36,
          "name": "C2",
          "ticks": 30144,
          "time": 20.478216500000002,
          "velocity": 0.2047244094488189
        },
        {
          "duration": 0.0652172499999999,
          "durationTicks": 96,
          "midi": 46,
          "name": "A#2",
          "ticks": 30336,
          "time": 20.608651000000002,
          "velocity": 0.2047244094488189
        },
        {
          "duration": 0.0652172499999999,
          "durationTicks": 96,
          "midi": 44,
          "name": "G#2",
          "ticks": 30336,
          "time": 20.608651000000002,
          "velocity": 0.2047244094488189
        },
        {
          "duration": 0.0652172499999999,
          "durationTicks": 96,
          "midi": 51,
          "name": "D#3",
          "ticks": 30336,
          "time": 20.608651000000002,
          "velocity": 0.2047244094488189
        },
        {
          "duration": 0.0652172499999999,
          "durationTicks": 96,
          "midi": 38,
          "name": "D2",
          "ticks": 30336,
          "time": 20.608651000000002,
          "velocity": 0.2047244094488189
        },
        {
          "duration": 0.0652172499999999,
          "durationTicks": 96,
          "midi": 44,
          "name": "G#2",
          "ticks": 30720,
          "time": 20.86952,
          "velocity": 0.2047244094488189
        },
        {
          "duration": 0.0652172499999999,
          "durationTicks": 96,
          "midi": 36,
          "name": "C2",
          "ticks": 30720,
          "time": 20.86952,
          "velocity": 0.2047244094488189
        },
        {
          "duration": 0.0652172499999999,
          "durationTicks": 96,
          "midi": 35,
          "name": "B1",
          "ticks": 30720,
          "time": 20.86952,
          "velocity": 0.2047244094488189
        },
        {
          "duration": 0.0652172499999999,
          "durationTicks": 96,
          "midi": 46,
          "name": "A#2",
          "ticks": 31104,
          "time": 21.130389,
          "velocity": 0.2047244094488189
        },
        {
          "duration": 0.0652172499999999,
          "durationTicks": 96,
          "midi": 44,
          "name": "G#2",
          "ticks": 31104,
          "time": 21.130389,
          "velocity": 0.2047244094488189
        },
        {
          "duration": 0.0652172499999999,
          "durationTicks": 96,
          "midi": 51,
          "name": "D#3",
          "ticks": 31104,
          "time": 21.130389,
          "velocity": 0.2047244094488189
        },
        {
          "duration": 0.0652172499999999,
          "durationTicks": 96,
          "midi": 38,
          "name": "D2",
          "ticks": 31104,
          "time": 21.130389,
          "velocity": 0.2047244094488189
        },
        {
          "duration": 0.0652172499999999,
          "durationTicks": 96,
          "midi": 44,
          "name": "G#2",
          "ticks": 31488,
          "time": 21.391258,
          "velocity": 0.2047244094488189
        },
        {
          "duration": 0.0652172499999999,
          "durationTicks": 96,
          "midi": 36,
          "name": "C2",
          "ticks": 31488,
          "time": 21.391258,
          "velocity": 0.2047244094488189
        },
        {
          "duration": 0.0652172499999999,
          "durationTicks": 96,
          "midi": 35,
          "name": "B1",
          "ticks": 31488,
          "time": 21.391258,
          "velocity": 0.2047244094488189
        },
        {
          "duration": 0.0652172499999999,
          "durationTicks": 96,
          "midi": 35,
          "name": "B1",
          "ticks": 31680,
          "time": 21.5216925,
          "velocity": 0.2047244094488189
        },
        {
          "duration": 0.0652172499999999,
          "durationTicks": 96,
          "midi": 36,
          "name": "C2",
          "ticks": 31680,
          "time": 21.5216925,
          "velocity": 0.2047244094488189
        },
        {
          "duration": 0.0652172499999999,
          "durationTicks": 96,
          "midi": 46,
          "name": "A#2",
          "ticks": 31872,
          "time": 21.652127,
          "velocity": 0.2047244094488189
        },
        {
          "duration": 0.0652172499999999,
          "durationTicks": 96,
          "midi": 44,
          "name": "G#2",
          "ticks": 31872,
          "time": 21.652127,
          "velocity": 0.2047244094488189
        },
        {
          "duration": 0.0652172499999999,
          "durationTicks": 96,
          "midi": 51,
          "name": "D#3",
          "ticks": 31872,
          "time": 21.652127,
          "velocity": 0.2047244094488189
        },
        {
          "duration": 0.0652172499999999,
          "durationTicks": 96,
          "midi": 38,
          "name": "D2",
          "ticks": 31872,
          "time": 21.652127,
          "velocity": 0.2047244094488189
        },
        {
          "duration": 0.0652172499999999,
          "durationTicks": 96,
          "midi": 36,
          "name": "C2",
          "ticks": 32064,
          "time": 21.7825615,
          "velocity": 0.2047244094488189
        },
        {
          "duration": 0.0652172499999999,
          "durationTicks": 96,
          "midi": 35,
          "name": "B1",
          "ticks": 32064,
          "time": 21.7825615,
          "velocity": 0.2047244094488189
        },
        {
          "duration": 0.06521725000000345,
          "durationTicks": 96,
          "midi": 44,
          "name": "G#2",
          "ticks": 32256,
          "time": 21.912996,
          "velocity": 0.2047244094488189
        },
        {
          "duration": 0.0652172499999999,
          "durationTicks": 96,
          "midi": 36,
          "name": "C2",
          "ticks": 32448,
          "time": 22.043430500000003,
          "velocity": 0.2047244094488189
        },
        {
          "duration": 0.0652172499999999,
          "durationTicks": 96,
          "midi": 35,
          "name": "B1",
          "ticks": 32448,
          "time": 22.043430500000003,
          "velocity": 0.2047244094488189
        },
        {
          "duration": 0.0652172499999999,
          "durationTicks": 96,
          "midi": 46,
          "name": "A#2",
          "ticks": 32640,
          "time": 22.173865000000003,
          "velocity": 0.2047244094488189
        },
        {
          "duration": 0.0652172499999999,
          "durationTicks": 96,
          "midi": 44,
          "name": "G#2",
          "ticks": 32640,
          "time": 22.173865000000003,
          "velocity": 0.2047244094488189
        },
        {
          "duration": 0.0652172499999999,
          "durationTicks": 96,
          "midi": 51,
          "name": "D#3",
          "ticks": 32640,
          "time": 22.173865000000003,
          "velocity": 0.2047244094488189
        },
        {
          "duration": 0.0652172499999999,
          "durationTicks": 96,
          "midi": 38,
          "name": "D2",
          "ticks": 32640,
          "time": 22.173865000000003,
          "velocity": 0.2047244094488189
        },
        {
          "duration": 0.0652172499999999,
          "durationTicks": 96,
          "midi": 36,
          "name": "C2",
          "ticks": 32832,
          "time": 22.304299500000003,
          "velocity": 0.2047244094488189
        },
        {
          "duration": 0.0652172499999999,
          "durationTicks": 96,
          "midi": 35,
          "name": "B1",
          "ticks": 32832,
          "time": 22.304299500000003,
          "velocity": 0.2047244094488189
        },
        {
          "duration": 0.0652172499999999,
          "durationTicks": 96,
          "midi": 44,
          "name": "G#2",
          "ticks": 33024,
          "time": 22.434734000000002,
          "velocity": 0.2047244094488189
        },
        {
          "duration": 0.0652172499999999,
          "durationTicks": 96,
          "midi": 36,
          "name": "C2",
          "ticks": 33024,
          "time": 22.434734000000002,
          "velocity": 0.2047244094488189
        },
        {
          "duration": 0.0652172499999999,
          "durationTicks": 96,
          "midi": 35,
          "name": "B1",
          "ticks": 33024,
          "time": 22.434734000000002,
          "velocity": 0.2047244094488189
        },
        {
          "duration": 0.0652172499999999,
          "durationTicks": 96,
          "midi": 35,
          "name": "B1",
          "ticks": 33216,
          "time": 22.565168500000002,
          "velocity": 0.2047244094488189
        },
        {
          "duration": 0.0652172499999999,
          "durationTicks": 96,
          "midi": 36,
          "name": "C2",
          "ticks": 33216,
          "time": 22.565168500000002,
          "velocity": 0.2047244094488189
        },
        {
          "duration": 0.0652172499999999,
          "durationTicks": 96,
          "midi": 46,
          "name": "A#2",
          "ticks": 33408,
          "time": 22.695603000000002,
          "velocity": 0.2047244094488189
        },
        {
          "duration": 0.0652172499999999,
          "durationTicks": 96,
          "midi": 44,
          "name": "G#2",
          "ticks": 33408,
          "time": 22.695603000000002,
          "velocity": 0.2047244094488189
        },
        {
          "duration": 0.0652172499999999,
          "durationTicks": 96,
          "midi": 51,
          "name": "D#3",
          "ticks": 33408,
          "time": 22.695603000000002,
          "velocity": 0.2047244094488189
        },
        {
          "duration": 0.0652172499999999,
          "durationTicks": 96,
          "midi": 38,
          "name": "D2",
          "ticks": 33408,
          "time": 22.695603000000002,
          "velocity": 0.2047244094488189
        },
        {
          "duration": 0.0652172499999999,
          "durationTicks": 96,
          "midi": 44,
          "name": "G#2",
          "ticks": 33792,
          "time": 22.956472,
          "velocity": 0.2047244094488189
        },
        {
          "duration": 0.0652172499999999,
          "durationTicks": 96,
          "midi": 36,
          "name": "C2",
          "ticks": 33792,
          "time": 22.956472,
          "velocity": 0.2047244094488189
        },
        {
          "duration": 0.0652172499999999,
          "durationTicks": 96,
          "midi": 35,
          "name": "B1",
          "ticks": 33792,
          "time": 22.956472,
          "velocity": 0.2047244094488189
        },
        {
          "duration": 0.0652172499999999,
          "durationTicks": 96,
          "midi": 46,
          "name": "A#2",
          "ticks": 34176,
          "time": 23.217341,
          "velocity": 0.2047244094488189
        },
        {
          "duration": 0.0652172499999999,
          "durationTicks": 96,
          "midi": 44,
          "name": "G#2",
          "ticks": 34176,
          "time": 23.217341,
          "velocity": 0.2047244094488189
        },
        {
          "duration": 0.0652172499999999,
          "durationTicks": 96,
          "midi": 51,
          "name": "D#3",
          "ticks": 34176,
          "time": 23.217341,
          "velocity": 0.2047244094488189
        },
        {
          "duration": 0.0652172499999999,
          "durationTicks": 96,
          "midi": 38,
          "name": "D2",
          "ticks": 34176,
          "time": 23.217341,
          "velocity": 0.2047244094488189
        },
        {
          "duration": 0.0652172499999999,
          "durationTicks": 96,
          "midi": 44,
          "name": "G#2",
          "ticks": 34560,
          "time": 23.47821,
          "velocity": 0.2047244094488189
        },
        {
          "duration": 0.0652172499999999,
          "durationTicks": 96,
          "midi": 36,
          "name": "C2",
          "ticks": 34560,
          "time": 23.47821,
          "velocity": 0.2047244094488189
        },
        {
          "duration": 0.0652172499999999,
          "durationTicks": 96,
          "midi": 35,
          "name": "B1",
          "ticks": 34560,
          "time": 23.47821,
          "velocity": 0.2047244094488189
        },
        {
          "duration": 0.0652172499999999,
          "durationTicks": 96,
          "midi": 35,
          "name": "B1",
          "ticks": 34752,
          "time": 23.6086445,
          "velocity": 0.2047244094488189
        },
        {
          "duration": 0.0652172499999999,
          "durationTicks": 96,
          "midi": 36,
          "name": "C2",
          "ticks": 34752,
          "time": 23.6086445,
          "velocity": 0.2047244094488189
        },
        {
          "duration": 0.0652172499999999,
          "durationTicks": 96,
          "midi": 46,
          "name": "A#2",
          "ticks": 34944,
          "time": 23.739079,
          "velocity": 0.2047244094488189
        },
        {
          "duration": 0.0652172499999999,
          "durationTicks": 96,
          "midi": 44,
          "name": "G#2",
          "ticks": 34944,
          "time": 23.739079,
          "velocity": 0.2047244094488189
        },
        {
          "duration": 0.0652172499999999,
          "durationTicks": 96,
          "midi": 51,
          "name": "D#3",
          "ticks": 34944,
          "time": 23.739079,
          "velocity": 0.2047244094488189
        },
        {
          "duration": 0.0652172499999999,
          "durationTicks": 96,
          "midi": 38,
          "name": "D2",
          "ticks": 34944,
          "time": 23.739079,
          "velocity": 0.2047244094488189
        },
        {
          "duration": 0.0652172499999999,
          "durationTicks": 96,
          "midi": 36,
          "name": "C2",
          "ticks": 35136,
          "time": 23.8695135,
          "velocity": 0.2047244094488189
        },
        {
          "duration": 0.0652172499999999,
          "durationTicks": 96,
          "midi": 35,
          "name": "B1",
          "ticks": 35136,
          "time": 23.8695135,
          "velocity": 0.2047244094488189
        },
        {
          "duration": 0.0652172499999999,
          "durationTicks": 96,
          "midi": 49,
          "name": "C#3",
          "ticks": 35328,
          "time": 23.999948000000003,
          "velocity": 0.2047244094488189
        },
        {
          "duration": 0.0652172499999999,
          "durationTicks": 96,
          "midi": 49,
          "name": "C#3",
          "ticks": 35328,
          "time": 23.999948000000003,
          "velocity": 0.2047244094488189
        },
        {
          "duration": 0.0652172499999999,
          "durationTicks": 96,
          "midi": 57,
          "name": "A3",
          "ticks": 35904,
          "time": 24.391251500000003,
          "velocity": 0.2047244094488189
        },
        {
          "duration": 0.0652172499999999,
          "durationTicks": 96,
          "midi": 57,
          "name": "A3",
          "ticks": 35904,
          "time": 24.391251500000003,
          "velocity": 0.2047244094488189
        },
        {
          "duration": 0.0652172499999999,
          "durationTicks": 96,
          "midi": 49,
          "name": "C#3",
          "ticks": 36480,
          "time": 24.782555000000002,
          "velocity": 0.2047244094488189
        },
        {
          "duration": 0.0652172499999999,
          "durationTicks": 96,
          "midi": 49,
          "name": "C#3",
          "ticks": 36480,
          "time": 24.782555000000002,
          "velocity": 0.2047244094488189
        },
        {
          "duration": 0.0652172499999999,
          "durationTicks": 96,
          "midi": 44,
          "name": "G#2",
          "ticks": 36864,
          "time": 25.043424,
          "velocity": 0.2047244094488189
        },
        {
          "duration": 0.0652172499999999,
          "durationTicks": 96,
          "midi": 36,
          "name": "C2",
          "ticks": 36864,
          "time": 25.043424,
          "velocity": 0.2047244094488189
        },
        {
          "duration": 0.0652172499999999,
          "durationTicks": 96,
          "midi": 35,
          "name": "B1",
          "ticks": 36864,
          "time": 25.043424,
          "velocity": 0.2047244094488189
        },
        {
          "duration": 0.0652172499999999,
          "durationTicks": 96,
          "midi": 46,
          "name": "A#2",
          "ticks": 37248,
          "time": 25.304293,
          "velocity": 0.2047244094488189
        },
        {
          "duration": 0.0652172499999999,
          "durationTicks": 96,
          "midi": 44,
          "name": "G#2",
          "ticks": 37248,
          "time": 25.304293,
          "velocity": 0.2047244094488189
        },
        {
          "duration": 0.0652172499999999,
          "durationTicks": 96,
          "midi": 51,
          "name": "D#3",
          "ticks": 37248,
          "time": 25.304293,
          "velocity": 0.2047244094488189
        },
        {
          "duration": 0.0652172499999999,
          "durationTicks": 96,
          "midi": 38,
          "name": "D2",
          "ticks": 37248,
          "time": 25.304293,
          "velocity": 0.2047244094488189
        },
        {
          "duration": 0.0652172499999999,
          "durationTicks": 96,
          "midi": 44,
          "name": "G#2",
          "ticks": 37632,
          "time": 25.565162,
          "velocity": 0.2047244094488189
        },
        {
          "duration": 0.0652172499999999,
          "durationTicks": 96,
          "midi": 36,
          "name": "C2",
          "ticks": 37632,
          "time": 25.565162,
          "velocity": 0.2047244094488189
        },
        {
          "duration": 0.0652172499999999,
          "durationTicks": 96,
          "midi": 35,
          "name": "B1",
          "ticks": 37632,
          "time": 25.565162,
          "velocity": 0.2047244094488189
        },
        {
          "duration": 0.0652172499999999,
          "durationTicks": 96,
          "midi": 35,
          "name": "B1",
          "ticks": 37824,
          "time": 25.6955965,
          "velocity": 0.2047244094488189
        },
        {
          "duration": 0.0652172499999999,
          "durationTicks": 96,
          "midi": 36,
          "name": "C2",
          "ticks": 37824,
          "time": 25.6955965,
          "velocity": 0.2047244094488189
        },
        {
          "duration": 0.0652172499999999,
          "durationTicks": 96,
          "midi": 46,
          "name": "A#2",
          "ticks": 38016,
          "time": 25.826031,
          "velocity": 0.2047244094488189
        },
        {
          "duration": 0.0652172499999999,
          "durationTicks": 96,
          "midi": 44,
          "name": "G#2",
          "ticks": 38016,
          "time": 25.826031,
          "velocity": 0.2047244094488189
        },
        {
          "duration": 0.0652172499999999,
          "durationTicks": 96,
          "midi": 51,
          "name": "D#3",
          "ticks": 38016,
          "time": 25.826031,
          "velocity": 0.2047244094488189
        },
        {
          "duration": 0.0652172499999999,
          "durationTicks": 96,
          "midi": 38,
          "name": "D2",
          "ticks": 38016,
          "time": 25.826031,
          "velocity": 0.2047244094488189
        },
        {
          "duration": 0.0652172499999999,
          "durationTicks": 96,
          "midi": 36,
          "name": "C2",
          "ticks": 38208,
          "time": 25.9564655,
          "velocity": 0.2047244094488189
        },
        {
          "duration": 0.0652172499999999,
          "durationTicks": 96,
          "midi": 35,
          "name": "B1",
          "ticks": 38208,
          "time": 25.9564655,
          "velocity": 0.2047244094488189
        },
        {
          "duration": 0.06521725000000345,
          "durationTicks": 96,
          "midi": 44,
          "name": "G#2",
          "ticks": 38400,
          "time": 26.0869,
          "velocity": 0.2047244094488189
        },
        {
          "duration": 0.0652172499999999,
          "durationTicks": 96,
          "midi": 36,
          "name": "C2",
          "ticks": 38592,
          "time": 26.217334500000003,
          "velocity": 0.2047244094488189
        },
        {
          "duration": 0.0652172499999999,
          "durationTicks": 96,
          "midi": 35,
          "name": "B1",
          "ticks": 38592,
          "time": 26.217334500000003,
          "velocity": 0.2047244094488189
        },
        {
          "duration": 0.0652172499999999,
          "durationTicks": 96,
          "midi": 46,
          "name": "A#2",
          "ticks": 38784,
          "time": 26.347769000000003,
          "velocity": 0.2047244094488189
        },
        {
          "duration": 0.0652172499999999,
          "durationTicks": 96,
          "midi": 44,
          "name": "G#2",
          "ticks": 38784,
          "time": 26.347769000000003,
          "velocity": 0.2047244094488189
        },
        {
          "duration": 0.0652172499999999,
          "durationTicks": 96,
          "midi": 51,
          "name": "D#3",
          "ticks": 38784,
          "time": 26.347769000000003,
          "velocity": 0.2047244094488189
        },
        {
          "duration": 0.0652172499999999,
          "durationTicks": 96,
          "midi": 38,
          "name": "D2",
          "ticks": 38784,
          "time": 26.347769000000003,
          "velocity": 0.2047244094488189
        },
        {
          "duration": 0.0652172499999999,
          "durationTicks": 96,
          "midi": 36,
          "name": "C2",
          "ticks": 38976,
          "time": 26.478203500000003,
          "velocity": 0.2047244094488189
        },
        {
          "duration": 0.0652172499999999,
          "durationTicks": 96,
          "midi": 35,
          "name": "B1",
          "ticks": 38976,
          "time": 26.478203500000003,
          "velocity": 0.2047244094488189
        },
        {
          "duration": 0.0652172499999999,
          "durationTicks": 96,
          "midi": 44,
          "name": "G#2",
          "ticks": 39168,
          "time": 26.608638000000003,
          "velocity": 0.2047244094488189
        },
        {
          "duration": 0.0652172499999999,
          "durationTicks": 96,
          "midi": 36,
          "name": "C2",
          "ticks": 39168,
          "time": 26.608638000000003,
          "velocity": 0.2047244094488189
        },
        {
          "duration": 0.0652172499999999,
          "durationTicks": 96,
          "midi": 35,
          "name": "B1",
          "ticks": 39168,
          "time": 26.608638000000003,
          "velocity": 0.2047244094488189
        },
        {
          "duration": 0.0652172499999999,
          "durationTicks": 96,
          "midi": 35,
          "name": "B1",
          "ticks": 39360,
          "time": 26.739072500000002,
          "velocity": 0.2047244094488189
        },
        {
          "duration": 0.0652172499999999,
          "durationTicks": 96,
          "midi": 36,
          "name": "C2",
          "ticks": 39360,
          "time": 26.739072500000002,
          "velocity": 0.2047244094488189
        },
        {
          "duration": 0.0652172499999999,
          "durationTicks": 96,
          "midi": 46,
          "name": "A#2",
          "ticks": 39552,
          "time": 26.869507000000002,
          "velocity": 0.2047244094488189
        },
        {
          "duration": 0.0652172499999999,
          "durationTicks": 96,
          "midi": 44,
          "name": "G#2",
          "ticks": 39552,
          "time": 26.869507000000002,
          "velocity": 0.2047244094488189
        },
        {
          "duration": 0.0652172499999999,
          "durationTicks": 96,
          "midi": 51,
          "name": "D#3",
          "ticks": 39552,
          "time": 26.869507000000002,
          "velocity": 0.2047244094488189
        },
        {
          "duration": 0.0652172499999999,
          "durationTicks": 96,
          "midi": 38,
          "name": "D2",
          "ticks": 39552,
          "time": 26.869507000000002,
          "velocity": 0.2047244094488189
        },
        {
          "duration": 0.0652172499999999,
          "durationTicks": 96,
          "midi": 44,
          "name": "G#2",
          "ticks": 39936,
          "time": 27.130376000000002,
          "velocity": 0.2047244094488189
        },
        {
          "duration": 0.0652172499999999,
          "durationTicks": 96,
          "midi": 36,
          "name": "C2",
          "ticks": 39936,
          "time": 27.130376000000002,
          "velocity": 0.2047244094488189
        },
        {
          "duration": 0.0652172499999999,
          "durationTicks": 96,
          "midi": 35,
          "name": "B1",
          "ticks": 39936,
          "time": 27.130376000000002,
          "velocity": 0.2047244094488189
        },
        {
          "duration": 0.0652172499999999,
          "durationTicks": 96,
          "midi": 46,
          "name": "A#2",
          "ticks": 40320,
          "time": 27.391245,
          "velocity": 0.2047244094488189
        },
        {
          "duration": 0.0652172499999999,
          "durationTicks": 96,
          "midi": 44,
          "name": "G#2",
          "ticks": 40320,
          "time": 27.391245,
          "velocity": 0.2047244094488189
        },
        {
          "duration": 0.0652172499999999,
          "durationTicks": 96,
          "midi": 51,
          "name": "D#3",
          "ticks": 40320,
          "time": 27.391245,
          "velocity": 0.2047244094488189
        },
        {
          "duration": 0.0652172499999999,
          "durationTicks": 96,
          "midi": 38,
          "name": "D2",
          "ticks": 40320,
          "time": 27.391245,
          "velocity": 0.2047244094488189
        },
        {
          "duration": 0.0652172499999999,
          "durationTicks": 96,
          "midi": 44,
          "name": "G#2",
          "ticks": 40704,
          "time": 27.652114,
          "velocity": 0.2047244094488189
        },
        {
          "duration": 0.0652172499999999,
          "durationTicks": 96,
          "midi": 36,
          "name": "C2",
          "ticks": 40704,
          "time": 27.652114,
          "velocity": 0.2047244094488189
        },
        {
          "duration": 0.0652172499999999,
          "durationTicks": 96,
          "midi": 35,
          "name": "B1",
          "ticks": 40704,
          "time": 27.652114,
          "velocity": 0.2047244094488189
        },
        {
          "duration": 0.0652172499999999,
          "durationTicks": 96,
          "midi": 35,
          "name": "B1",
          "ticks": 40896,
          "time": 27.7825485,
          "velocity": 0.2047244094488189
        },
        {
          "duration": 0.0652172499999999,
          "durationTicks": 96,
          "midi": 36,
          "name": "C2",
          "ticks": 40896,
          "time": 27.7825485,
          "velocity": 0.2047244094488189
        },
        {
          "duration": 0.0652172499999999,
          "durationTicks": 96,
          "midi": 46,
          "name": "A#2",
          "ticks": 41088,
          "time": 27.912983,
          "velocity": 0.2047244094488189
        },
        {
          "duration": 0.0652172499999999,
          "durationTicks": 96,
          "midi": 44,
          "name": "G#2",
          "ticks": 41088,
          "time": 27.912983,
          "velocity": 0.2047244094488189
        },
        {
          "duration": 0.0652172499999999,
          "durationTicks": 96,
          "midi": 51,
          "name": "D#3",
          "ticks": 41088,
          "time": 27.912983,
          "velocity": 0.2047244094488189
        },
        {
          "duration": 0.0652172499999999,
          "durationTicks": 96,
          "midi": 38,
          "name": "D2",
          "ticks": 41088,
          "time": 27.912983,
          "velocity": 0.2047244094488189
        },
        {
          "duration": 0.0652172499999999,
          "durationTicks": 96,
          "midi": 36,
          "name": "C2",
          "ticks": 41280,
          "time": 28.0434175,
          "velocity": 0.2047244094488189
        },
        {
          "duration": 0.0652172499999999,
          "durationTicks": 96,
          "midi": 35,
          "name": "B1",
          "ticks": 41280,
          "time": 28.0434175,
          "velocity": 0.2047244094488189
        },
        {
          "duration": 0.0652172499999999,
          "durationTicks": 96,
          "midi": 44,
          "name": "G#2",
          "ticks": 41472,
          "time": 28.173852000000004,
          "velocity": 0.2047244094488189
        },
        {
          "duration": 0.0652172499999999,
          "durationTicks": 96,
          "midi": 36,
          "name": "C2",
          "ticks": 41664,
          "time": 28.304286500000003,
          "velocity": 0.2047244094488189
        },
        {
          "duration": 0.0652172499999999,
          "durationTicks": 96,
          "midi": 35,
          "name": "B1",
          "ticks": 41664,
          "time": 28.304286500000003,
          "velocity": 0.2047244094488189
        },
        {
          "duration": 0.0652172499999999,
          "durationTicks": 96,
          "midi": 46,
          "name": "A#2",
          "ticks": 41856,
          "time": 28.434721000000003,
          "velocity": 0.2047244094488189
        },
        {
          "duration": 0.0652172499999999,
          "durationTicks": 96,
          "midi": 44,
          "name": "G#2",
          "ticks": 41856,
          "time": 28.434721000000003,
          "velocity": 0.2047244094488189
        },
        {
          "duration": 0.0652172499999999,
          "durationTicks": 96,
          "midi": 51,
          "name": "D#3",
          "ticks": 41856,
          "time": 28.434721000000003,
          "velocity": 0.2047244094488189
        },
        {
          "duration": 0.0652172499999999,
          "durationTicks": 96,
          "midi": 38,
          "name": "D2",
          "ticks": 41856,
          "time": 28.434721000000003,
          "velocity": 0.2047244094488189
        },
        {
          "duration": 0.0652172499999999,
          "durationTicks": 96,
          "midi": 36,
          "name": "C2",
          "ticks": 42048,
          "time": 28.565155500000003,
          "velocity": 0.2047244094488189
        },
        {
          "duration": 0.0652172499999999,
          "durationTicks": 96,
          "midi": 35,
          "name": "B1",
          "ticks": 42048,
          "time": 28.565155500000003,
          "velocity": 0.2047244094488189
        },
        {
          "duration": 0.0652172499999999,
          "durationTicks": 96,
          "midi": 44,
          "name": "G#2",
          "ticks": 42240,
          "time": 28.695590000000003,
          "velocity": 0.2047244094488189
        },
        {
          "duration": 0.0652172499999999,
          "durationTicks": 96,
          "midi": 36,
          "name": "C2",
          "ticks": 42240,
          "time": 28.695590000000003,
          "velocity": 0.2047244094488189
        },
        {
          "duration": 0.0652172499999999,
          "durationTicks": 96,
          "midi": 35,
          "name": "B1",
          "ticks": 42240,
          "time": 28.695590000000003,
          "velocity": 0.2047244094488189
        },
        {
          "duration": 0.0652172499999999,
          "durationTicks": 96,
          "midi": 35,
          "name": "B1",
          "ticks": 42432,
          "time": 28.826024500000003,
          "velocity": 0.2047244094488189
        },
        {
          "duration": 0.0652172499999999,
          "durationTicks": 96,
          "midi": 36,
          "name": "C2",
          "ticks": 42432,
          "time": 28.826024500000003,
          "velocity": 0.2047244094488189
        },
        {
          "duration": 0.0652172499999999,
          "durationTicks": 96,
          "midi": 46,
          "name": "A#2",
          "ticks": 42624,
          "time": 28.956459000000002,
          "velocity": 0.2047244094488189
        },
        {
          "duration": 0.0652172499999999,
          "durationTicks": 96,
          "midi": 44,
          "name": "G#2",
          "ticks": 42624,
          "time": 28.956459000000002,
          "velocity": 0.2047244094488189
        },
        {
          "duration": 0.0652172499999999,
          "durationTicks": 96,
          "midi": 51,
          "name": "D#3",
          "ticks": 42624,
          "time": 28.956459000000002,
          "velocity": 0.2047244094488189
        },
        {
          "duration": 0.0652172499999999,
          "durationTicks": 96,
          "midi": 38,
          "name": "D2",
          "ticks": 42624,
          "time": 28.956459000000002,
          "velocity": 0.2047244094488189
        },
        {
          "duration": 0.0652172499999999,
          "durationTicks": 96,
          "midi": 44,
          "name": "G#2",
          "ticks": 43008,
          "time": 29.217328000000002,
          "velocity": 0.2047244094488189
        },
        {
          "duration": 0.0652172499999999,
          "durationTicks": 96,
          "midi": 36,
          "name": "C2",
          "ticks": 43008,
          "time": 29.217328000000002,
          "velocity": 0.2047244094488189
        },
        {
          "duration": 0.0652172499999999,
          "durationTicks": 96,
          "midi": 35,
          "name": "B1",
          "ticks": 43008,
          "time": 29.217328000000002,
          "velocity": 0.2047244094488189
        },
        {
          "duration": 0.0652172499999999,
          "durationTicks": 96,
          "midi": 46,
          "name": "A#2",
          "ticks": 43392,
          "time": 29.478197,
          "velocity": 0.2047244094488189
        },
        {
          "duration": 0.0652172499999999,
          "durationTicks": 96,
          "midi": 44,
          "name": "G#2",
          "ticks": 43392,
          "time": 29.478197,
          "velocity": 0.2047244094488189
        },
        {
          "duration": 0.0652172499999999,
          "durationTicks": 96,
          "midi": 51,
          "name": "D#3",
          "ticks": 43392,
          "time": 29.478197,
          "velocity": 0.2047244094488189
        },
        {
          "duration": 0.0652172499999999,
          "durationTicks": 96,
          "midi": 38,
          "name": "D2",
          "ticks": 43392,
          "time": 29.478197,
          "velocity": 0.2047244094488189
        },
        {
          "duration": 0.0652172499999999,
          "durationTicks": 96,
          "midi": 44,
          "name": "G#2",
          "ticks": 43776,
          "time": 29.739066,
          "velocity": 0.2047244094488189
        },
        {
          "duration": 0.0652172499999999,
          "durationTicks": 96,
          "midi": 36,
          "name": "C2",
          "ticks": 43776,
          "time": 29.739066,
          "velocity": 0.2047244094488189
        },
        {
          "duration": 0.0652172499999999,
          "durationTicks": 96,
          "midi": 35,
          "name": "B1",
          "ticks": 43776,
          "time": 29.739066,
          "velocity": 0.2047244094488189
        },
        {
          "duration": 0.0652172499999999,
          "durationTicks": 96,
          "midi": 35,
          "name": "B1",
          "ticks": 43968,
          "time": 29.8695005,
          "velocity": 0.2047244094488189
        },
        {
          "duration": 0.0652172499999999,
          "durationTicks": 96,
          "midi": 36,
          "name": "C2",
          "ticks": 43968,
          "time": 29.8695005,
          "velocity": 0.2047244094488189
        },
        {
          "duration": 0.0652172499999999,
          "durationTicks": 96,
          "midi": 46,
          "name": "A#2",
          "ticks": 44160,
          "time": 29.999935,
          "velocity": 0.2047244094488189
        },
        {
          "duration": 0.0652172499999999,
          "durationTicks": 96,
          "midi": 44,
          "name": "G#2",
          "ticks": 44160,
          "time": 29.999935,
          "velocity": 0.2047244094488189
        },
        {
          "duration": 0.0652172499999999,
          "durationTicks": 96,
          "midi": 51,
          "name": "D#3",
          "ticks": 44160,
          "time": 29.999935,
          "velocity": 0.2047244094488189
        },
        {
          "duration": 0.0652172499999999,
          "durationTicks": 96,
          "midi": 38,
          "name": "D2",
          "ticks": 44160,
          "time": 29.999935,
          "velocity": 0.2047244094488189
        },
        {
          "duration": 0.0652172499999999,
          "durationTicks": 96,
          "midi": 36,
          "name": "C2",
          "ticks": 44352,
          "time": 30.1303695,
          "velocity": 0.2047244094488189
        },
        {
          "duration": 0.0652172499999999,
          "durationTicks": 96,
          "midi": 35,
          "name": "B1",
          "ticks": 44352,
          "time": 30.1303695,
          "velocity": 0.2047244094488189
        },
        {
          "duration": 0.06521725000000345,
          "durationTicks": 96,
          "midi": 44,
          "name": "G#2",
          "ticks": 44544,
          "time": 30.260804,
          "velocity": 0.2047244094488189
        },
        {
          "duration": 0.0652172499999999,
          "durationTicks": 96,
          "midi": 36,
          "name": "C2",
          "ticks": 44736,
          "time": 30.391238500000004,
          "velocity": 0.2047244094488189
        },
        {
          "duration": 0.0652172499999999,
          "durationTicks": 96,
          "midi": 35,
          "name": "B1",
          "ticks": 44736,
          "time": 30.391238500000004,
          "velocity": 0.2047244094488189
        },
        {
          "duration": 0.0652172499999999,
          "durationTicks": 96,
          "midi": 46,
          "name": "A#2",
          "ticks": 44928,
          "time": 30.521673000000003,
          "velocity": 0.2047244094488189
        },
        {
          "duration": 0.0652172499999999,
          "durationTicks": 96,
          "midi": 44,
          "name": "G#2",
          "ticks": 44928,
          "time": 30.521673000000003,
          "velocity": 0.2047244094488189
        },
        {
          "duration": 0.0652172499999999,
          "durationTicks": 96,
          "midi": 51,
          "name": "D#3",
          "ticks": 44928,
          "time": 30.521673000000003,
          "velocity": 0.2047244094488189
        },
        {
          "duration": 0.0652172499999999,
          "durationTicks": 96,
          "midi": 38,
          "name": "D2",
          "ticks": 44928,
          "time": 30.521673000000003,
          "velocity": 0.2047244094488189
        },
        {
          "duration": 0.0652172499999999,
          "durationTicks": 96,
          "midi": 36,
          "name": "C2",
          "ticks": 45120,
          "time": 30.652107500000003,
          "velocity": 0.2047244094488189
        },
        {
          "duration": 0.0652172499999999,
          "durationTicks": 96,
          "midi": 35,
          "name": "B1",
          "ticks": 45120,
          "time": 30.652107500000003,
          "velocity": 0.2047244094488189
        },
        {
          "duration": 0.0652172499999999,
          "durationTicks": 96,
          "midi": 44,
          "name": "G#2",
          "ticks": 45312,
          "time": 30.782542000000003,
          "velocity": 0.2047244094488189
        },
        {
          "duration": 0.0652172499999999,
          "durationTicks": 96,
          "midi": 36,
          "name": "C2",
          "ticks": 45312,
          "time": 30.782542000000003,
          "velocity": 0.2047244094488189
        },
        {
          "duration": 0.0652172499999999,
          "durationTicks": 96,
          "midi": 35,
          "name": "B1",
          "ticks": 45312,
          "time": 30.782542000000003,
          "velocity": 0.2047244094488189
        },
        {
          "duration": 0.0652172499999999,
          "durationTicks": 96,
          "midi": 35,
          "name": "B1",
          "ticks": 45504,
          "time": 30.912976500000003,
          "velocity": 0.2047244094488189
        },
        {
          "duration": 0.0652172499999999,
          "durationTicks": 96,
          "midi": 36,
          "name": "C2",
          "ticks": 45504,
          "time": 30.912976500000003,
          "velocity": 0.2047244094488189
        },
        {
          "duration": 0.0652172499999999,
          "durationTicks": 96,
          "midi": 46,
          "name": "A#2",
          "ticks": 45696,
          "time": 31.043411000000003,
          "velocity": 0.2047244094488189
        },
        {
          "duration": 0.0652172499999999,
          "durationTicks": 96,
          "midi": 44,
          "name": "G#2",
          "ticks": 45696,
          "time": 31.043411000000003,
          "velocity": 0.2047244094488189
        },
        {
          "duration": 0.0652172499999999,
          "durationTicks": 96,
          "midi": 51,
          "name": "D#3",
          "ticks": 45696,
          "time": 31.043411000000003,
          "velocity": 0.2047244094488189
        },
        {
          "duration": 0.0652172499999999,
          "durationTicks": 96,
          "midi": 38,
          "name": "D2",
          "ticks": 45696,
          "time": 31.043411000000003,
          "velocity": 0.2047244094488189
        },
        {
          "duration": 0.0652172499999999,
          "durationTicks": 96,
          "midi": 44,
          "name": "G#2",
          "ticks": 46080,
          "time": 31.304280000000002,
          "velocity": 0.2047244094488189
        },
        {
          "duration": 0.0652172499999999,
          "durationTicks": 96,
          "midi": 36,
          "name": "C2",
          "ticks": 46080,
          "time": 31.304280000000002,
          "velocity": 0.2047244094488189
        },
        {
          "duration": 0.0652172499999999,
          "durationTicks": 96,
          "midi": 35,
          "name": "B1",
          "ticks": 46080,
          "time": 31.304280000000002,
          "velocity": 0.2047244094488189
        },
        {
          "duration": 0.0652172499999999,
          "durationTicks": 96,
          "midi": 46,
          "name": "A#2",
          "ticks": 46464,
          "time": 31.565149,
          "velocity": 0.2047244094488189
        },
        {
          "duration": 0.0652172499999999,
          "durationTicks": 96,
          "midi": 44,
          "name": "G#2",
          "ticks": 46464,
          "time": 31.565149,
          "velocity": 0.2047244094488189
        },
        {
          "duration": 0.0652172499999999,
          "durationTicks": 96,
          "midi": 51,
          "name": "D#3",
          "ticks": 46464,
          "time": 31.565149,
          "velocity": 0.2047244094488189
        },
        {
          "duration": 0.0652172499999999,
          "durationTicks": 96,
          "midi": 38,
          "name": "D2",
          "ticks": 46464,
          "time": 31.565149,
          "velocity": 0.2047244094488189
        },
        {
          "duration": 0.0652172499999999,
          "durationTicks": 96,
          "midi": 44,
          "name": "G#2",
          "ticks": 46848,
          "time": 31.826018,
          "velocity": 0.2047244094488189
        },
        {
          "duration": 0.0652172499999999,
          "durationTicks": 96,
          "midi": 36,
          "name": "C2",
          "ticks": 46848,
          "time": 31.826018,
          "velocity": 0.2047244094488189
        },
        {
          "duration": 0.0652172499999999,
          "durationTicks": 96,
          "midi": 35,
          "name": "B1",
          "ticks": 46848,
          "time": 31.826018,
          "velocity": 0.2047244094488189
        },
        {
          "duration": 0.0652172499999999,
          "durationTicks": 96,
          "midi": 35,
          "name": "B1",
          "ticks": 47040,
          "time": 31.9564525,
          "velocity": 0.2047244094488189
        },
        {
          "duration": 0.0652172499999999,
          "durationTicks": 96,
          "midi": 36,
          "name": "C2",
          "ticks": 47040,
          "time": 31.9564525,
          "velocity": 0.2047244094488189
        },
        {
          "duration": 0.06521724999999634,
          "durationTicks": 96,
          "midi": 46,
          "name": "A#2",
          "ticks": 47232,
          "time": 32.086887000000004,
          "velocity": 0.2047244094488189
        },
        {
          "duration": 0.06521724999999634,
          "durationTicks": 96,
          "midi": 44,
          "name": "G#2",
          "ticks": 47232,
          "time": 32.086887000000004,
          "velocity": 0.2047244094488189
        },
        {
          "duration": 0.06521724999999634,
          "durationTicks": 96,
          "midi": 51,
          "name": "D#3",
          "ticks": 47232,
          "time": 32.086887000000004,
          "velocity": 0.2047244094488189
        },
        {
          "duration": 0.06521724999999634,
          "durationTicks": 96,
          "midi": 38,
          "name": "D2",
          "ticks": 47232,
          "time": 32.086887000000004,
          "velocity": 0.2047244094488189
        },
        {
          "duration": 0.06521724999999634,
          "durationTicks": 96,
          "midi": 36,
          "name": "C2",
          "ticks": 47424,
          "time": 32.217321500000004,
          "velocity": 0.2047244094488189
        },
        {
          "duration": 0.06521724999999634,
          "durationTicks": 96,
          "midi": 35,
          "name": "B1",
          "ticks": 47424,
          "time": 32.217321500000004,
          "velocity": 0.2047244094488189
        },
        {
          "duration": 0.06521724999999634,
          "durationTicks": 96,
          "midi": 49,
          "name": "C#3",
          "ticks": 47616,
          "time": 32.347756000000004,
          "velocity": 0.2047244094488189
        },
        {
          "duration": 0.06521724999999634,
          "durationTicks": 96,
          "midi": 49,
          "name": "C#3",
          "ticks": 47616,
          "time": 32.347756000000004,
          "velocity": 0.2047244094488189
        },
        {
          "duration": 0.06521724999999634,
          "durationTicks": 96,
          "midi": 57,
          "name": "A3",
          "ticks": 48192,
          "time": 32.7390595,
          "velocity": 0.2047244094488189
        },
        {
          "duration": 0.06521724999999634,
          "durationTicks": 96,
          "midi": 57,
          "name": "A3",
          "ticks": 48192,
          "time": 32.7390595,
          "velocity": 0.2047244094488189
        },
        {
          "duration": 0.06521724999999634,
          "durationTicks": 96,
          "midi": 49,
          "name": "C#3",
          "ticks": 48768,
          "time": 33.130363,
          "velocity": 0.2047244094488189
        },
        {
          "duration": 0.06521724999999634,
          "durationTicks": 96,
          "midi": 49,
          "name": "C#3",
          "ticks": 48768,
          "time": 33.130363,
          "velocity": 0.2047244094488189
        }
      ],
      "endOfTrackTicks": 48864
    },
    {
      "channel": 2,
      "controlChanges": {},
      "pitchBends": [],
      "instrument": {
        "family": "brass",
        "number": 57,
        "name": "trombone"
      },
      "name": "Trombone (Sustain)",
      "notes": [
        {
          "duration": 0.0652172499999999,
          "durationTicks": 96,
          "midi": 62,
          "name": "D4",
          "ticks": 24576,
          "time": 16.695616,
          "velocity": 0.14960629921259844
        },
        {
          "duration": 0.0652172499999999,
          "durationTicks": 96,
          "midi": 62,
          "name": "D4",
          "ticks": 24768,
          "time": 16.8260505,
          "velocity": 0.14960629921259844
        },
        {
          "duration": 0.0652172499999999,
          "durationTicks": 96,
          "midi": 74,
          "name": "D5",
          "ticks": 24960,
          "time": 16.956485,
          "velocity": 0.14960629921259844
        },
        {
          "duration": 0.0652172499999999,
          "durationTicks": 96,
          "midi": 69,
          "name": "A4",
          "ticks": 25344,
          "time": 17.217354,
          "velocity": 0.14960629921259844
        },
        {
          "duration": 0.0652172499999999,
          "durationTicks": 96,
          "midi": 68,
          "name": "G#4",
          "ticks": 25920,
          "time": 17.6086575,
          "velocity": 0.14960629921259844
        },
        {
          "duration": 0.0652172499999999,
          "durationTicks": 96,
          "midi": 67,
          "name": "G4",
          "ticks": 26304,
          "time": 17.869526500000003,
          "velocity": 0.14960629921259844
        },
        {
          "duration": 0.0652172499999999,
          "durationTicks": 96,
          "midi": 65,
          "name": "F4",
          "ticks": 26688,
          "time": 18.130395500000002,
          "velocity": 0.14960629921259844
        },
        {
          "duration": 0.0652172499999999,
          "durationTicks": 96,
          "midi": 62,
          "name": "D4",
          "ticks": 27072,
          "time": 18.391264500000002,
          "velocity": 0.14960629921259844
        },
        {
          "duration": 0.0652172499999999,
          "durationTicks": 96,
          "midi": 65,
          "name": "F4",
          "ticks": 27264,
          "time": 18.521699,
          "velocity": 0.14960629921259844
        },
        {
          "duration": 0.0652172499999999,
          "durationTicks": 96,
          "midi": 67,
          "name": "G4",
          "ticks": 27456,
          "time": 18.6521335,
          "velocity": 0.14960629921259844
        },
        {
          "duration": 0.0652172499999999,
          "durationTicks": 96,
          "midi": 60,
          "name": "C4",
          "ticks": 27648,
          "time": 18.782568,
          "velocity": 0.14960629921259844
        },
        {
          "duration": 0.0652172499999999,
          "durationTicks": 96,
          "midi": 60,
          "name": "C4",
          "ticks": 27840,
          "time": 18.9130025,
          "velocity": 0.14960629921259844
        },
        {
          "duration": 0.0652172499999999,
          "durationTicks": 96,
          "midi": 74,
          "name": "D5",
          "ticks": 28032,
          "time": 19.043437,
          "velocity": 0.14960629921259844
        },
        {
          "duration": 0.0652172499999999,
          "durationTicks": 96,
          "midi": 69,
          "name": "A4",
          "ticks": 28416,
          "time": 19.304306,
          "velocity": 0.14960629921259844
        },
        {
          "duration": 0.0652172499999999,
          "durationTicks": 96,
          "midi": 68,
          "name": "G#4",
          "ticks": 28992,
          "time": 19.6956095,
          "velocity": 0.14960629921259844
        },
        {
          "duration": 0.0652172499999999,
          "durationTicks": 96,
          "midi": 67,
          "name": "G4",
          "ticks": 29376,
          "time": 19.956478500000003,
          "velocity": 0.14960629921259844
        },
        {
          "duration": 0.0652172499999999,
          "durationTicks": 96,
          "midi": 65,
          "name": "F4",
          "ticks": 29760,
          "time": 20.217347500000002,
          "velocity": 0.14960629921259844
        },
        {
          "duration": 0.0652172499999999,
          "durationTicks": 96,
          "midi": 62,
          "name": "D4",
          "ticks": 30144,
          "time": 20.478216500000002,
          "velocity": 0.14960629921259844
        },
        {
          "duration": 0.0652172499999999,
          "durationTicks": 96,
          "midi": 65,
          "name": "F4",
          "ticks": 30336,
          "time": 20.608651000000002,
          "velocity": 0.14960629921259844
        },
        {
          "duration": 0.0652172499999999,
          "durationTicks": 96,
          "midi": 67,
          "name": "G4",
          "ticks": 30528,
          "time": 20.7390855,
          "velocity": 0.14960629921259844
        },
        {
          "duration": 0.0652172499999999,
          "durationTicks": 96,
          "midi": 59,
          "name": "B3",
          "ticks": 30720,
          "time": 20.86952,
          "velocity": 0.14960629921259844
        },
        {
          "duration": 0.0652172499999999,
          "durationTicks": 96,
          "midi": 59,
          "name": "B3",
          "ticks": 30912,
          "time": 20.9999545,
          "velocity": 0.14960629921259844
        },
        {
          "duration": 0.0652172499999999,
          "durationTicks": 96,
          "midi": 74,
          "name": "D5",
          "ticks": 31104,
          "time": 21.130389,
          "velocity": 0.14960629921259844
        },
        {
          "duration": 0.0652172499999999,
          "durationTicks": 96,
          "midi": 69,
          "name": "A4",
          "ticks": 31488,
          "time": 21.391258,
          "velocity": 0.14960629921259844
        },
        {
          "duration": 0.0652172499999999,
          "durationTicks": 96,
          "midi": 68,
          "name": "G#4",
          "ticks": 32064,
          "time": 21.7825615,
          "velocity": 0.14960629921259844
        },
        {
          "duration": 0.0652172499999999,
          "durationTicks": 96,
          "midi": 67,
          "name": "G4",
          "ticks": 32448,
          "time": 22.043430500000003,
          "velocity": 0.14960629921259844
        },
        {
          "duration": 0.0652172499999999,
          "durationTicks": 96,
          "midi": 65,
          "name": "F4",
          "ticks": 32832,
          "time": 22.304299500000003,
          "velocity": 0.14960629921259844
        },
        {
          "duration": 0.0652172499999999,
          "durationTicks": 96,
          "midi": 62,
          "name": "D4",
          "ticks": 33216,
          "time": 22.565168500000002,
          "velocity": 0.14960629921259844
        },
        {
          "duration": 0.0652172499999999,
          "durationTicks": 96,
          "midi": 65,
          "name": "F4",
          "ticks": 33408,
          "time": 22.695603000000002,
          "velocity": 0.14960629921259844
        },
        {
          "duration": 0.0652172499999999,
          "durationTicks": 96,
          "midi": 67,
          "name": "G4",
          "ticks": 33600,
          "time": 22.8260375,
          "velocity": 0.14960629921259844
        },
        {
          "duration": 0.0652172499999999,
          "durationTicks": 96,
          "midi": 58,
          "name": "A#3",
          "ticks": 33792,
          "time": 22.956472,
          "velocity": 0.14960629921259844
        },
        {
          "duration": 0.0652172499999999,
          "durationTicks": 96,
          "midi": 58,
          "name": "A#3",
          "ticks": 33984,
          "time": 23.0869065,
          "velocity": 0.14960629921259844
        },
        {
          "duration": 0.0652172499999999,
          "durationTicks": 96,
          "midi": 74,
          "name": "D5",
          "ticks": 34176,
          "time": 23.217341,
          "velocity": 0.14960629921259844
        },
        {
          "duration": 0.0652172499999999,
          "durationTicks": 96,
          "midi": 69,
          "name": "A4",
          "ticks": 34560,
          "time": 23.47821,
          "velocity": 0.14960629921259844
        },
        {
          "duration": 0.0652172499999999,
          "durationTicks": 96,
          "midi": 68,
          "name": "G#4",
          "ticks": 35136,
          "time": 23.8695135,
          "velocity": 0.14960629921259844
        },
        {
          "duration": 0.0652172499999999,
          "durationTicks": 96,
          "midi": 67,
          "name": "G4",
          "ticks": 35520,
          "time": 24.130382500000003,
          "velocity": 0.14960629921259844
        },
        {
          "duration": 0.0652172499999999,
          "durationTicks": 96,
          "midi": 65,
          "name": "F4",
          "ticks": 35904,
          "time": 24.391251500000003,
          "velocity": 0.14960629921259844
        },
        {
          "duration": 0.0652172499999999,
          "durationTicks": 96,
          "midi": 62,
          "name": "D4",
          "ticks": 36288,
          "time": 24.652120500000002,
          "velocity": 0.14960629921259844
        },
        {
          "duration": 0.0652172499999999,
          "durationTicks": 96,
          "midi": 65,
          "name": "F4",
          "ticks": 36480,
          "time": 24.782555000000002,
          "velocity": 0.14960629921259844
        },
        {
          "duration": 0.0652172499999999,
          "durationTicks": 96,
          "midi": 67,
          "name": "G4",
          "ticks": 36672,
          "time": 24.912989500000002,
          "velocity": 0.14960629921259844
        },
        {
          "duration": 0.0652172499999999,
          "durationTicks": 96,
          "midi": 62,
          "name": "D4",
          "ticks": 36864,
          "time": 25.043424,
          "velocity": 0.14960629921259844
        },
        {
          "duration": 0.0652172499999999,
          "durationTicks": 96,
          "midi": 62,
          "name": "D4",
          "ticks": 37056,
          "time": 25.1738585,
          "velocity": 0.14960629921259844
        },
        {
          "duration": 0.0652172499999999,
          "durationTicks": 96,
          "midi": 74,
          "name": "D5",
          "ticks": 37248,
          "time": 25.304293,
          "velocity": 0.14960629921259844
        },
        {
          "duration": 0.0652172499999999,
          "durationTicks": 96,
          "midi": 69,
          "name": "A4",
          "ticks": 37632,
          "time": 25.565162,
          "velocity": 0.14960629921259844
        },
        {
          "duration": 0.0652172499999999,
          "durationTicks": 96,
          "midi": 68,
          "name": "G#4",
          "ticks": 38208,
          "time": 25.9564655,
          "velocity": 0.14960629921259844
        },
        {
          "duration": 0.0652172499999999,
          "durationTicks": 96,
          "midi": 67,
          "name": "G4",
          "ticks": 38592,
          "time": 26.217334500000003,
          "velocity": 0.14960629921259844
        },
        {
          "duration": 0.0652172499999999,
          "durationTicks": 96,
          "midi": 65,
          "name": "F4",
          "ticks": 38976,
          "time": 26.478203500000003,
          "velocity": 0.14960629921259844
        },
        {
          "duration": 0.0652172499999999,
          "durationTicks": 96,
          "midi": 62,
          "name": "D4",
          "ticks": 39360,
          "time": 26.739072500000002,
          "velocity": 0.14960629921259844
        },
        {
          "duration": 0.0652172499999999,
          "durationTicks": 96,
          "midi": 65,
          "name": "F4",
          "ticks": 39552,
          "time": 26.869507000000002,
          "velocity": 0.14960629921259844
        },
        {
          "duration": 0.0652172499999999,
          "durationTicks": 96,
          "midi": 67,
          "name": "G4",
          "ticks": 39744,
          "time": 26.999941500000002,
          "velocity": 0.14960629921259844
        },
        {
          "duration": 0.0652172499999999,
          "durationTicks": 96,
          "midi": 60,
          "name": "C4",
          "ticks": 39936,
          "time": 27.130376000000002,
          "velocity": 0.14960629921259844
        },
        {
          "duration": 0.0652172499999999,
          "durationTicks": 96,
          "midi": 60,
          "name": "C4",
          "ticks": 40128,
          "time": 27.2608105,
          "velocity": 0.14960629921259844
        },
        {
          "duration": 0.0652172499999999,
          "durationTicks": 96,
          "midi": 74,
          "name": "D5",
          "ticks": 40320,
          "time": 27.391245,
          "velocity": 0.14960629921259844
        },
        {
          "duration": 0.0652172499999999,
          "durationTicks": 96,
          "midi": 69,
          "name": "A4",
          "ticks": 40704,
          "time": 27.652114,
          "velocity": 0.14960629921259844
        },
        {
          "duration": 0.0652172499999999,
          "durationTicks": 96,
          "midi": 68,
          "name": "G#4",
          "ticks": 41280,
          "time": 28.0434175,
          "velocity": 0.14960629921259844
        },
        {
          "duration": 0.0652172499999999,
          "durationTicks": 96,
          "midi": 67,
          "name": "G4",
          "ticks": 41664,
          "time": 28.304286500000003,
          "velocity": 0.14960629921259844
        },
        {
          "duration": 0.0652172499999999,
          "durationTicks": 96,
          "midi": 65,
          "name": "F4",
          "ticks": 42048,
          "time": 28.565155500000003,
          "velocity": 0.14960629921259844
        },
        {
          "duration": 0.0652172499999999,
          "durationTicks": 96,
          "midi": 62,
          "name": "D4",
          "ticks": 42432,
          "time": 28.826024500000003,
          "velocity": 0.14960629921259844
        },
        {
          "duration": 0.0652172499999999,
          "durationTicks": 96,
          "midi": 65,
          "name": "F4",
          "ticks": 42624,
          "time": 28.956459000000002,
          "velocity": 0.14960629921259844
        },
        {
          "duration": 0.0652172499999999,
          "durationTicks": 96,
          "midi": 67,
          "name": "G4",
          "ticks": 42816,
          "time": 29.086893500000002,
          "velocity": 0.14960629921259844
        },
        {
          "duration": 0.0652172499999999,
          "durationTicks": 96,
          "midi": 59,
          "name": "B3",
          "ticks": 43008,
          "time": 29.217328000000002,
          "velocity": 0.14960629921259844
        },
        {
          "duration": 0.0652172499999999,
          "durationTicks": 96,
          "midi": 59,
          "name": "B3",
          "ticks": 43200,
          "time": 29.3477625,
          "velocity": 0.14960629921259844
        },
        {
          "duration": 0.0652172499999999,
          "durationTicks": 96,
          "midi": 74,
          "name": "D5",
          "ticks": 43392,
          "time": 29.478197,
          "velocity": 0.14960629921259844
        },
        {
          "duration": 0.0652172499999999,
          "durationTicks": 96,
          "midi": 69,
          "name": "A4",
          "ticks": 43776,
          "time": 29.739066,
          "velocity": 0.14960629921259844
        },
        {
          "duration": 0.0652172499999999,
          "durationTicks": 96,
          "midi": 68,
          "name": "G#4",
          "ticks": 44352,
          "time": 30.1303695,
          "velocity": 0.14960629921259844
        },
        {
          "duration": 0.0652172499999999,
          "durationTicks": 96,
          "midi": 67,
          "name": "G4",
          "ticks": 44736,
          "time": 30.391238500000004,
          "velocity": 0.14960629921259844
        },
        {
          "duration": 0.0652172499999999,
          "durationTicks": 96,
          "midi": 65,
          "name": "F4",
          "ticks": 45120,
          "time": 30.652107500000003,
          "velocity": 0.14960629921259844
        },
        {
          "duration": 0.0652172499999999,
          "durationTicks": 96,
          "midi": 62,
          "name": "D4",
          "ticks": 45504,
          "time": 30.912976500000003,
          "velocity": 0.14960629921259844
        },
        {
          "duration": 0.0652172499999999,
          "durationTicks": 96,
          "midi": 65,
          "name": "F4",
          "ticks": 45696,
          "time": 31.043411000000003,
          "velocity": 0.14960629921259844
        },
        {
          "duration": 0.0652172499999999,
          "durationTicks": 96,
          "midi": 67,
          "name": "G4",
          "ticks": 45888,
          "time": 31.173845500000002,
          "velocity": 0.14960629921259844
        },
        {
          "duration": 0.0652172499999999,
          "durationTicks": 96,
          "midi": 58,
          "name": "A#3",
          "ticks": 46080,
          "time": 31.304280000000002,
          "velocity": 0.14960629921259844
        },
        {
          "duration": 0.0652172499999999,
          "durationTicks": 96,
          "midi": 58,
          "name": "A#3",
          "ticks": 46272,
          "time": 31.434714500000002,
          "velocity": 0.14960629921259844
        },
        {
          "duration": 0.0652172499999999,
          "durationTicks": 96,
          "midi": 74,
          "name": "D5",
          "ticks": 46464,
          "time": 31.565149,
          "velocity": 0.14960629921259844
        },
        {
          "duration": 0.0652172499999999,
          "durationTicks": 96,
          "midi": 69,
          "name": "A4",
          "ticks": 46848,
          "time": 31.826018,
          "velocity": 0.14960629921259844
        },
        {
          "duration": 0.06521724999999634,
          "durationTicks": 96,
          "midi": 68,
          "name": "G#4",
          "ticks": 47424,
          "time": 32.217321500000004,
          "velocity": 0.14960629921259844
        },
        {
          "duration": 0.06521724999999634,
          "durationTicks": 96,
          "midi": 67,
          "name": "G4",
          "ticks": 47808,
          "time": 32.478190500000004,
          "velocity": 0.14960629921259844
        },
        {
          "duration": 0.06521724999999634,
          "durationTicks": 96,
          "midi": 65,
          "name": "F4",
          "ticks": 48192,
          "time": 32.7390595,
          "velocity": 0.14960629921259844
        },
        {
          "duration": 0.06521724999999634,
          "durationTicks": 96,
          "midi": 62,
          "name": "D4",
          "ticks": 48576,
          "time": 32.9999285,
          "velocity": 0.14960629921259844
        },
        {
          "duration": 0.06521724999999634,
          "durationTicks": 96,
          "midi": 65,
          "name": "F4",
          "ticks": 48768,
          "time": 33.130363,
          "velocity": 0.14960629921259844
        },
        {
          "duration": 0.06521724999999634,
          "durationTicks": 96,
          "midi": 67,
          "name": "G4",
          "ticks": 48960,
          "time": 33.2607975,
          "velocity": 0.14960629921259844
        }
      ],
      "endOfTrackTicks": 49056
    },
    {
      "channel": 3,
      "controlChanges": {},
      "pitchBends": [],
      "instrument": {
        "family": "bass",
        "number": 36,
        "name": "slap bass 1"
      },
      "name": "Slap Bass",
      "notes": [
        {
          "duration": 0.0652172499999999,
          "durationTicks": 96,
          "midi": 38,
          "name": "D2",
          "ticks": 24576,
          "time": 16.695616,
          "velocity": 0.14960629921259844
        },
        {
          "duration": 0.0652172499999999,
          "durationTicks": 96,
          "midi": 50,
          "name": "D3",
          "ticks": 24576,
          "time": 16.695616,
          "velocity": 0.14960629921259844
        },
        {
          "duration": 0.0652172499999999,
          "durationTicks": 96,
          "midi": 38,
          "name": "D2",
          "ticks": 24960,
          "time": 16.956485,
          "velocity": 0.14960629921259844
        },
        {
          "duration": 0.0652172499999999,
          "durationTicks": 96,
          "midi": 50,
          "name": "D3",
          "ticks": 24960,
          "time": 16.956485,
          "velocity": 0.14960629921259844
        },
        {
          "duration": 0.0652172499999999,
          "durationTicks": 96,
          "midi": 38,
          "name": "D2",
          "ticks": 25344,
          "time": 17.217354,
          "velocity": 0.14960629921259844
        },
        {
          "duration": 0.0652172499999999,
          "durationTicks": 96,
          "midi": 50,
          "name": "D3",
          "ticks": 25344,
          "time": 17.217354,
          "velocity": 0.14960629921259844
        },
        {
          "duration": 0.0652172499999999,
          "durationTicks": 96,
          "midi": 38,
          "name": "D2",
          "ticks": 25536,
          "time": 17.3477885,
          "velocity": 0.14960629921259844
        },
        {
          "duration": 0.0652172499999999,
          "durationTicks": 96,
          "midi": 50,
          "name": "D3",
          "ticks": 25536,
          "time": 17.3477885,
          "velocity": 0.14960629921259844
        },
        {
          "duration": 0.0652172499999999,
          "durationTicks": 96,
          "midi": 38,
          "name": "D2",
          "ticks": 25920,
          "time": 17.6086575,
          "velocity": 0.14960629921259844
        },
        {
          "duration": 0.0652172499999999,
          "durationTicks": 96,
          "midi": 50,
          "name": "D3",
          "ticks": 25920,
          "time": 17.6086575,
          "velocity": 0.14960629921259844
        },
        {
          "duration": 0.0652172499999999,
          "durationTicks": 96,
          "midi": 38,
          "name": "D2",
          "ticks": 26304,
          "time": 17.869526500000003,
          "velocity": 0.14960629921259844
        },
        {
          "duration": 0.0652172499999999,
          "durationTicks": 96,
          "midi": 50,
          "name": "D3",
          "ticks": 26304,
          "time": 17.869526500000003,
          "velocity": 0.14960629921259844
        },
        {
          "duration": 0.0652172499999999,
          "durationTicks": 96,
          "midi": 38,
          "name": "D2",
          "ticks": 26688,
          "time": 18.130395500000002,
          "velocity": 0.14960629921259844
        },
        {
          "duration": 0.0652172499999999,
          "durationTicks": 96,
          "midi": 50,
          "name": "D3",
          "ticks": 26688,
          "time": 18.130395500000002,
          "velocity": 0.14960629921259844
        },
        {
          "duration": 0.0652172499999999,
          "durationTicks": 96,
          "midi": 38,
          "name": "D2",
          "ticks": 27072,
          "time": 18.391264500000002,
          "velocity": 0.14960629921259844
        },
        {
          "duration": 0.0652172499999999,
          "durationTicks": 96,
          "midi": 50,
          "name": "D3",
          "ticks": 27072,
          "time": 18.391264500000002,
          "velocity": 0.14960629921259844
        },
        {
          "duration": 0.0652172499999999,
          "durationTicks": 96,
          "midi": 38,
          "name": "D2",
          "ticks": 27264,
          "time": 18.521699,
          "velocity": 0.14960629921259844
        },
        {
          "duration": 0.0652172499999999,
          "durationTicks": 96,
          "midi": 50,
          "name": "D3",
          "ticks": 27264,
          "time": 18.521699,
          "velocity": 0.14960629921259844
        },
        {
          "duration": 0.0652172499999999,
          "durationTicks": 96,
          "midi": 38,
          "name": "D2",
          "ticks": 27456,
          "time": 18.6521335,
          "velocity": 0.14960629921259844
        },
        {
          "duration": 0.0652172499999999,
          "durationTicks": 96,
          "midi": 50,
          "name": "D3",
          "ticks": 27456,
          "time": 18.6521335,
          "velocity": 0.14960629921259844
        },
        {
          "duration": 0.0652172499999999,
          "durationTicks": 96,
          "midi": 36,
          "name": "C2",
          "ticks": 27648,
          "time": 18.782568,
          "velocity": 0.14960629921259844
        },
        {
          "duration": 0.0652172499999999,
          "durationTicks": 96,
          "midi": 48,
          "name": "C3",
          "ticks": 27648,
          "time": 18.782568,
          "velocity": 0.14960629921259844
        },
        {
          "duration": 0.0652172499999999,
          "durationTicks": 96,
          "midi": 36,
          "name": "C2",
          "ticks": 28032,
          "time": 19.043437,
          "velocity": 0.14960629921259844
        },
        {
          "duration": 0.0652172499999999,
          "durationTicks": 96,
          "midi": 48,
          "name": "C3",
          "ticks": 28032,
          "time": 19.043437,
          "velocity": 0.14960629921259844
        },
        {
          "duration": 0.0652172499999999,
          "durationTicks": 96,
          "midi": 36,
          "name": "C2",
          "ticks": 28416,
          "time": 19.304306,
          "velocity": 0.14960629921259844
        },
        {
          "duration": 0.0652172499999999,
          "durationTicks": 96,
          "midi": 48,
          "name": "C3",
          "ticks": 28416,
          "time": 19.304306,
          "velocity": 0.14960629921259844
        },
        {
          "duration": 0.0652172499999999,
          "durationTicks": 96,
          "midi": 36,
          "name": "C2",
          "ticks": 28608,
          "time": 19.4347405,
          "velocity": 0.14960629921259844
        },
        {
          "duration": 0.0652172499999999,
          "durationTicks": 96,
          "midi": 48,
          "name": "C3",
          "ticks": 28608,
          "time": 19.4347405,
          "velocity": 0.14960629921259844
        },
        {
          "duration": 0.0652172499999999,
          "durationTicks": 96,
          "midi": 36,
          "name": "C2",
          "ticks": 28992,
          "time": 19.6956095,
          "velocity": 0.14960629921259844
        },
        {
          "duration": 0.0652172499999999,
          "durationTicks": 96,
          "midi": 48,
          "name": "C3",
          "ticks": 28992,
          "time": 19.6956095,
          "velocity": 0.14960629921259844
        },
        {
          "duration": 0.0652172499999999,
          "durationTicks": 96,
          "midi": 36,
          "name": "C2",
          "ticks": 29376,
          "time": 19.956478500000003,
          "velocity": 0.14960629921259844
        },
        {
          "duration": 0.0652172499999999,
          "durationTicks": 96,
          "midi": 48,
          "name": "C3",
          "ticks": 29376,
          "time": 19.956478500000003,
          "velocity": 0.14960629921259844
        },
        {
          "duration": 0.0652172499999999,
          "durationTicks": 96,
          "midi": 36,
          "name": "C2",
          "ticks": 29760,
          "time": 20.217347500000002,
          "velocity": 0.14960629921259844
        },
        {
          "duration": 0.0652172499999999,
          "durationTicks": 96,
          "midi": 48,
          "name": "C3",
          "ticks": 29760,
          "time": 20.217347500000002,
          "velocity": 0.14960629921259844
        },
        {
          "duration": 0.0652172499999999,
          "durationTicks": 96,
          "midi": 36,
          "name": "C2",
          "ticks": 30144,
          "time": 20.478216500000002,
          "velocity": 0.14960629921259844
        },
        {
          "duration": 0.0652172499999999,
          "durationTicks": 96,
          "midi": 48,
          "name": "C3",
          "ticks": 30144,
          "time": 20.478216500000002,
          "velocity": 0.14960629921259844
        },
        {
          "duration": 0.0652172499999999,
          "durationTicks": 96,
          "midi": 36,
          "name": "C2",
          "ticks": 30336,
          "time": 20.608651000000002,
          "velocity": 0.14960629921259844
        },
        {
          "duration": 0.0652172499999999,
          "durationTicks": 96,
          "midi": 48,
          "name": "C3",
          "ticks": 30336,
          "time": 20.608651000000002,
          "velocity": 0.14960629921259844
        },
        {
          "duration": 0.0652172499999999,
          "durationTicks": 96,
          "midi": 36,
          "name": "C2",
          "ticks": 30528,
          "time": 20.7390855,
          "velocity": 0.14960629921259844
        },
        {
          "duration": 0.0652172499999999,
          "durationTicks": 96,
          "midi": 48,
          "name": "C3",
          "ticks": 30528,
          "time": 20.7390855,
          "velocity": 0.14960629921259844
        },
        {
          "duration": 0.0652172499999999,
          "durationTicks": 96,
          "midi": 35,
          "name": "B1",
          "ticks": 30720,
          "time": 20.86952,
          "velocity": 0.14960629921259844
        },
        {
          "duration": 0.0652172499999999,
          "durationTicks": 96,
          "midi": 47,
          "name": "B2",
          "ticks": 30720,
          "time": 20.86952,
          "velocity": 0.14960629921259844
        },
        {
          "duration": 0.0652172499999999,
          "durationTicks": 96,
          "midi": 35,
          "name": "B1",
          "ticks": 31104,
          "time": 21.130389,
          "velocity": 0.14960629921259844
        },
        {
          "duration": 0.0652172499999999,
          "durationTicks": 96,
          "midi": 47,
          "name": "B2",
          "ticks": 31104,
          "time": 21.130389,
          "velocity": 0.14960629921259844
        },
        {
          "duration": 0.0652172499999999,
          "durationTicks": 96,
          "midi": 35,
          "name": "B1",
          "ticks": 31488,
          "time": 21.391258,
          "velocity": 0.14960629921259844
        },
        {
          "duration": 0.0652172499999999,
          "durationTicks": 96,
          "midi": 47,
          "name": "B2",
          "ticks": 31488,
          "time": 21.391258,
          "velocity": 0.14960629921259844
        },
        {
          "duration": 0.0652172499999999,
          "durationTicks": 96,
          "midi": 35,
          "name": "B1",
          "ticks": 31680,
          "time": 21.5216925,
          "velocity": 0.14960629921259844
        },
        {
          "duration": 0.0652172499999999,
          "durationTicks": 96,
          "midi": 47,
          "name": "B2",
          "ticks": 31680,
          "time": 21.5216925,
          "velocity": 0.14960629921259844
        },
        {
          "duration": 0.0652172499999999,
          "durationTicks": 96,
          "midi": 35,
          "name": "B1",
          "ticks": 32064,
          "time": 21.7825615,
          "velocity": 0.14960629921259844
        },
        {
          "duration": 0.0652172499999999,
          "durationTicks": 96,
          "midi": 47,
          "name": "B2",
          "ticks": 32064,
          "time": 21.7825615,
          "velocity": 0.14960629921259844
        },
        {
          "duration": 0.0652172499999999,
          "durationTicks": 96,
          "midi": 35,
          "name": "B1",
          "ticks": 32448,
          "time": 22.043430500000003,
          "velocity": 0.14960629921259844
        },
        {
          "duration": 0.0652172499999999,
          "durationTicks": 96,
          "midi": 47,
          "name": "B2",
          "ticks": 32448,
          "time": 22.043430500000003,
          "velocity": 0.14960629921259844
        },
        {
          "duration": 0.0652172499999999,
          "durationTicks": 96,
          "midi": 35,
          "name": "B1",
          "ticks": 32832,
          "time": 22.304299500000003,
          "velocity": 0.14960629921259844
        },
        {
          "duration": 0.0652172499999999,
          "durationTicks": 96,
          "midi": 47,
          "name": "B2",
          "ticks": 32832,
          "time": 22.304299500000003,
          "velocity": 0.14960629921259844
        },
        {
          "duration": 0.0652172499999999,
          "durationTicks": 96,
          "midi": 35,
          "name": "B1",
          "ticks": 33216,
          "time": 22.565168500000002,
          "velocity": 0.14960629921259844
        },
        {
          "duration": 0.0652172499999999,
          "durationTicks": 96,
          "midi": 47,
          "name": "B2",
          "ticks": 33216,
          "time": 22.565168500000002,
          "velocity": 0.14960629921259844
        },
        {
          "duration": 0.0652172499999999,
          "durationTicks": 96,
          "midi": 35,
          "name": "B1",
          "ticks": 33408,
          "time": 22.695603000000002,
          "velocity": 0.14960629921259844
        },
        {
          "duration": 0.0652172499999999,
          "durationTicks": 96,
          "midi": 47,
          "name": "B2",
          "ticks": 33408,
          "time": 22.695603000000002,
          "velocity": 0.14960629921259844
        },
        {
          "duration": 0.0652172499999999,
          "durationTicks": 96,
          "midi": 35,
          "name": "B1",
          "ticks": 33600,
          "time": 22.8260375,
          "velocity": 0.14960629921259844
        },
        {
          "duration": 0.0652172499999999,
          "durationTicks": 96,
          "midi": 47,
          "name": "B2",
          "ticks": 33600,
          "time": 22.8260375,
          "velocity": 0.14960629921259844
        },
        {
          "duration": 0.0652172499999999,
          "durationTicks": 96,
          "midi": 34,
          "name": "A#1",
          "ticks": 33792,
          "time": 22.956472,
          "velocity": 0.14960629921259844
        },
        {
          "duration": 0.0652172499999999,
          "durationTicks": 96,
          "midi": 46,
          "name": "A#2",
          "ticks": 33792,
          "time": 22.956472,
          "velocity": 0.14960629921259844
        },
        {
          "duration": 0.0652172499999999,
          "durationTicks": 96,
          "midi": 34,
          "name": "A#1",
          "ticks": 34176,
          "time": 23.217341,
          "velocity": 0.14960629921259844
        },
        {
          "duration": 0.0652172499999999,
          "durationTicks": 96,
          "midi": 46,
          "name": "A#2",
          "ticks": 34176,
          "time": 23.217341,
          "velocity": 0.14960629921259844
        },
        {
          "duration": 0.0652172499999999,
          "durationTicks": 96,
          "midi": 34,
          "name": "A#1",
          "ticks": 34560,
          "time": 23.47821,
          "velocity": 0.14960629921259844
        },
        {
          "duration": 0.0652172499999999,
          "durationTicks": 96,
          "midi": 46,
          "name": "A#2",
          "ticks": 34560,
          "time": 23.47821,
          "velocity": 0.14960629921259844
        },
        {
          "duration": 0.0652172499999999,
          "durationTicks": 96,
          "midi": 34,
          "name": "A#1",
          "ticks": 34752,
          "time": 23.6086445,
          "velocity": 0.14960629921259844
        },
        {
          "duration": 0.0652172499999999,
          "durationTicks": 96,
          "midi": 46,
          "name": "A#2",
          "ticks": 34752,
          "time": 23.6086445,
          "velocity": 0.14960629921259844
        },
        {
          "duration": 0.0652172499999999,
          "durationTicks": 96,
          "midi": 34,
          "name": "A#1",
          "ticks": 35136,
          "time": 23.8695135,
          "velocity": 0.14960629921259844
        },
        {
          "duration": 0.0652172499999999,
          "durationTicks": 96,
          "midi": 46,
          "name": "A#2",
          "ticks": 35136,
          "time": 23.8695135,
          "velocity": 0.14960629921259844
        },
        {
          "duration": 0.0652172499999999,
          "durationTicks": 96,
          "midi": 36,
          "name": "C2",
          "ticks": 35520,
          "time": 24.130382500000003,
          "velocity": 0.14960629921259844
        },
        {
          "duration": 0.0652172499999999,
          "durationTicks": 96,
          "midi": 48,
          "name": "C3",
          "ticks": 35520,
          "time": 24.130382500000003,
          "velocity": 0.14960629921259844
        },
        {
          "duration": 0.0652172499999999,
          "durationTicks": 96,
          "midi": 36,
          "name": "C2",
          "ticks": 35904,
          "time": 24.391251500000003,
          "velocity": 0.14960629921259844
        },
        {
          "duration": 0.0652172499999999,
          "durationTicks": 96,
          "midi": 48,
          "name": "C3",
          "ticks": 35904,
          "time": 24.391251500000003,
          "velocity": 0.14960629921259844
        },
        {
          "duration": 0.0652172499999999,
          "durationTicks": 96,
          "midi": 36,
          "name": "C2",
          "ticks": 36288,
          "time": 24.652120500000002,
          "velocity": 0.14960629921259844
        },
        {
          "duration": 0.0652172499999999,
          "durationTicks": 96,
          "midi": 48,
          "name": "C3",
          "ticks": 36288,
          "time": 24.652120500000002,
          "velocity": 0.14960629921259844
        },
        {
          "duration": 0.0652172499999999,
          "durationTicks": 96,
          "midi": 36,
          "name": "C2",
          "ticks": 36480,
          "time": 24.782555000000002,
          "velocity": 0.14960629921259844
        },
        {
          "duration": 0.0652172499999999,
          "durationTicks": 96,
          "midi": 48,
          "name": "C3",
          "ticks": 36480,
          "time": 24.782555000000002,
          "velocity": 0.14960629921259844
        },
        {
          "duration": 0.0652172499999999,
          "durationTicks": 96,
          "midi": 36,
          "name": "C2",
          "ticks": 36672,
          "time": 24.912989500000002,
          "velocity": 0.14960629921259844
        },
        {
          "duration": 0.0652172499999999,
          "durationTicks": 96,
          "midi": 48,
          "name": "C3",
          "ticks": 36672,
          "time": 24.912989500000002,
          "velocity": 0.14960629921259844
        },
        {
          "duration": 0.0652172499999999,
          "durationTicks": 96,
          "midi": 38,
          "name": "D2",
          "ticks": 36864,
          "time": 25.043424,
          "velocity": 0.14960629921259844
        },
        {
          "duration": 0.0652172499999999,
          "durationTicks": 96,
          "midi": 50,
          "name": "D3",
          "ticks": 36864,
          "time": 25.043424,
          "velocity": 0.14960629921259844
        },
        {
          "duration": 0.0652172499999999,
          "durationTicks": 96,
          "midi": 38,
          "name": "D2",
          "ticks": 37248,
          "time": 25.304293,
          "velocity": 0.14960629921259844
        },
        {
          "duration": 0.0652172499999999,
          "durationTicks": 96,
          "midi": 50,
          "name": "D3",
          "ticks": 37248,
          "time": 25.304293,
          "velocity": 0.14960629921259844
        },
        {
          "duration": 0.0652172499999999,
          "durationTicks": 96,
          "midi": 38,
          "name": "D2",
          "ticks": 37632,
          "time": 25.565162,
          "velocity": 0.14960629921259844
        },
        {
          "duration": 0.0652172499999999,
          "durationTicks": 96,
          "midi": 50,
          "name": "D3",
          "ticks": 37632,
          "time": 25.565162,
          "velocity": 0.14960629921259844
        },
        {
          "duration": 0.0652172499999999,
          "durationTicks": 96,
          "midi": 38,
          "name": "D2",
          "ticks": 37824,
          "time": 25.6955965,
          "velocity": 0.14960629921259844
        },
        {
          "duration": 0.0652172499999999,
          "durationTicks": 96,
          "midi": 50,
          "name": "D3",
          "ticks": 37824,
          "time": 25.6955965,
          "velocity": 0.14960629921259844
        },
        {
          "duration": 0.0652172499999999,
          "durationTicks": 96,
          "midi": 38,
          "name": "D2",
          "ticks": 38208,
          "time": 25.9564655,
          "velocity": 0.14960629921259844
        },
        {
          "duration": 0.0652172499999999,
          "durationTicks": 96,
          "midi": 50,
          "name": "D3",
          "ticks": 38208,
          "time": 25.9564655,
          "velocity": 0.14960629921259844
        },
        {
          "duration": 0.0652172499999999,
          "durationTicks": 96,
          "midi": 38,
          "name": "D2",
          "ticks": 38592,
          "time": 26.217334500000003,
          "velocity": 0.14960629921259844
        },
        {
          "duration": 0.0652172499999999,
          "durationTicks": 96,
          "midi": 50,
          "name": "D3",
          "ticks": 38592,
          "time": 26.217334500000003,
          "velocity": 0.14960629921259844
        },
        {
          "duration": 0.0652172499999999,
          "durationTicks": 96,
          "midi": 38,
          "name": "D2",
          "ticks": 38976,
          "time": 26.478203500000003,
          "velocity": 0.14960629921259844
        },
        {
          "duration": 0.0652172499999999,
          "durationTicks": 96,
          "midi": 50,
          "name": "D3",
          "ticks": 38976,
          "time": 26.478203500000003,
          "velocity": 0.14960629921259844
        },
        {
          "duration": 0.0652172499999999,
          "durationTicks": 96,
          "midi": 38,
          "name": "D2",
          "ticks": 39360,
          "time": 26.739072500000002,
          "velocity": 0.14960629921259844
        },
        {
          "duration": 0.0652172499999999,
          "durationTicks": 96,
          "midi": 50,
          "name": "D3",
          "ticks": 39360,
          "time": 26.739072500000002,
          "velocity": 0.14960629921259844
        },
        {
          "duration": 0.0652172499999999,
          "durationTicks": 96,
          "midi": 38,
          "name": "D2",
          "ticks": 39552,
          "time": 26.869507000000002,
          "velocity": 0.14960629921259844
        },
        {
          "duration": 0.0652172499999999,
          "durationTicks": 96,
          "midi": 50,
          "name": "D3",
          "ticks": 39552,
          "time": 26.869507000000002,
          "velocity": 0.14960629921259844
        },
        {
          "duration": 0.0652172499999999,
          "durationTicks": 96,
          "midi": 38,
          "name": "D2",
          "ticks": 39744,
          "time": 26.999941500000002,
          "velocity": 0.14960629921259844
        },
        {
          "duration": 0.0652172499999999,
          "durationTicks": 96,
          "midi": 50,
          "name": "D3",
          "ticks": 39744,
          "time": 26.999941500000002,
          "velocity": 0.14960629921259844
        },
        {
          "duration": 0.0652172499999999,
          "durationTicks": 96,
          "midi": 36,
          "name": "C2",
          "ticks": 39936,
          "time": 27.130376000000002,
          "velocity": 0.14960629921259844
        },
        {
          "duration": 0.0652172499999999,
          "durationTicks": 96,
          "midi": 48,
          "name": "C3",
          "ticks": 39936,
          "time": 27.130376000000002,
          "velocity": 0.14960629921259844
        },
        {
          "duration": 0.0652172499999999,
          "durationTicks": 96,
          "midi": 36,
          "name": "C2",
          "ticks": 40320,
          "time": 27.391245,
          "velocity": 0.14960629921259844
        },
        {
          "duration": 0.0652172499999999,
          "durationTicks": 96,
          "midi": 48,
          "name": "C3",
          "ticks": 40320,
          "time": 27.391245,
          "velocity": 0.14960629921259844
        },
        {
          "duration": 0.0652172499999999,
          "durationTicks": 96,
          "midi": 36,
          "name": "C2",
          "ticks": 40704,
          "time": 27.652114,
          "velocity": 0.14960629921259844
        },
        {
          "duration": 0.0652172499999999,
          "durationTicks": 96,
          "midi": 48,
          "name": "C3",
          "ticks": 40704,
          "time": 27.652114,
          "velocity": 0.14960629921259844
        },
        {
          "duration": 0.0652172499999999,
          "durationTicks": 96,
          "midi": 36,
          "name": "C2",
          "ticks": 40896,
          "time": 27.7825485,
          "velocity": 0.14960629921259844
        },
        {
          "duration": 0.0652172499999999,
          "durationTicks": 96,
          "midi": 48,
          "name": "C3",
          "ticks": 40896,
          "time": 27.7825485,
          "velocity": 0.14960629921259844
        },
        {
          "duration": 0.0652172499999999,
          "durationTicks": 96,
          "midi": 36,
          "name": "C2",
          "ticks": 41280,
          "time": 28.0434175,
          "velocity": 0.14960629921259844
        },
        {
          "duration": 0.0652172499999999,
          "durationTicks": 96,
          "midi": 48,
          "name": "C3",
          "ticks": 41280,
          "time": 28.0434175,
          "velocity": 0.14960629921259844
        },
        {
          "duration": 0.0652172499999999,
          "durationTicks": 96,
          "midi": 36,
          "name": "C2",
          "ticks": 41664,
          "time": 28.304286500000003,
          "velocity": 0.14960629921259844
        },
        {
          "duration": 0.0652172499999999,
          "durationTicks": 96,
          "midi": 48,
          "name": "C3",
          "ticks": 41664,
          "time": 28.304286500000003,
          "velocity": 0.14960629921259844
        },
        {
          "duration": 0.0652172499999999,
          "durationTicks": 96,
          "midi": 36,
          "name": "C2",
          "ticks": 42048,
          "time": 28.565155500000003,
          "velocity": 0.14960629921259844
        },
        {
          "duration": 0.0652172499999999,
          "durationTicks": 96,
          "midi": 48,
          "name": "C3",
          "ticks": 42048,
          "time": 28.565155500000003,
          "velocity": 0.14960629921259844
        },
        {
          "duration": 0.0652172499999999,
          "durationTicks": 96,
          "midi": 36,
          "name": "C2",
          "ticks": 42432,
          "time": 28.826024500000003,
          "velocity": 0.14960629921259844
        },
        {
          "duration": 0.0652172499999999,
          "durationTicks": 96,
          "midi": 48,
          "name": "C3",
          "ticks": 42432,
          "time": 28.826024500000003,
          "velocity": 0.14960629921259844
        },
        {
          "duration": 0.0652172499999999,
          "durationTicks": 96,
          "midi": 36,
          "name": "C2",
          "ticks": 42624,
          "time": 28.956459000000002,
          "velocity": 0.14960629921259844
        },
        {
          "duration": 0.0652172499999999,
          "durationTicks": 96,
          "midi": 48,
          "name": "C3",
          "ticks": 42624,
          "time": 28.956459000000002,
          "velocity": 0.14960629921259844
        },
        {
          "duration": 0.0652172499999999,
          "durationTicks": 96,
          "midi": 36,
          "name": "C2",
          "ticks": 42816,
          "time": 29.086893500000002,
          "velocity": 0.14960629921259844
        },
        {
          "duration": 0.0652172499999999,
          "durationTicks": 96,
          "midi": 48,
          "name": "C3",
          "ticks": 42816,
          "time": 29.086893500000002,
          "velocity": 0.14960629921259844
        },
        {
          "duration": 0.0652172499999999,
          "durationTicks": 96,
          "midi": 35,
          "name": "B1",
          "ticks": 43008,
          "time": 29.217328000000002,
          "velocity": 0.14960629921259844
        },
        {
          "duration": 0.0652172499999999,
          "durationTicks": 96,
          "midi": 47,
          "name": "B2",
          "ticks": 43008,
          "time": 29.217328000000002,
          "velocity": 0.14960629921259844
        },
        {
          "duration": 0.0652172499999999,
          "durationTicks": 96,
          "midi": 35,
          "name": "B1",
          "ticks": 43392,
          "time": 29.478197,
          "velocity": 0.14960629921259844
        },
        {
          "duration": 0.0652172499999999,
          "durationTicks": 96,
          "midi": 47,
          "name": "B2",
          "ticks": 43392,
          "time": 29.478197,
          "velocity": 0.14960629921259844
        },
        {
          "duration": 0.0652172499999999,
          "durationTicks": 96,
          "midi": 35,
          "name": "B1",
          "ticks": 43776,
          "time": 29.739066,
          "velocity": 0.14960629921259844
        },
        {
          "duration": 0.0652172499999999,
          "durationTicks": 96,
          "midi": 47,
          "name": "B2",
          "ticks": 43776,
          "time": 29.739066,
          "velocity": 0.14960629921259844
        },
        {
          "duration": 0.0652172499999999,
          "durationTicks": 96,
          "midi": 35,
          "name": "B1",
          "ticks": 43968,
          "time": 29.8695005,
          "velocity": 0.14960629921259844
        },
        {
          "duration": 0.0652172499999999,
          "durationTicks": 96,
          "midi": 47,
          "name": "B2",
          "ticks": 43968,
          "time": 29.8695005,
          "velocity": 0.14960629921259844
        },
        {
          "duration": 0.0652172499999999,
          "durationTicks": 96,
          "midi": 35,
          "name": "B1",
          "ticks": 44352,
          "time": 30.1303695,
          "velocity": 0.14960629921259844
        },
        {
          "duration": 0.0652172499999999,
          "durationTicks": 96,
          "midi": 47,
          "name": "B2",
          "ticks": 44352,
          "time": 30.1303695,
          "velocity": 0.14960629921259844
        },
        {
          "duration": 0.0652172499999999,
          "durationTicks": 96,
          "midi": 35,
          "name": "B1",
          "ticks": 44736,
          "time": 30.391238500000004,
          "velocity": 0.14960629921259844
        },
        {
          "duration": 0.0652172499999999,
          "durationTicks": 96,
          "midi": 47,
          "name": "B2",
          "ticks": 44736,
          "time": 30.391238500000004,
          "velocity": 0.14960629921259844
        },
        {
          "duration": 0.0652172499999999,
          "durationTicks": 96,
          "midi": 35,
          "name": "B1",
          "ticks": 45120,
          "time": 30.652107500000003,
          "velocity": 0.14960629921259844
        },
        {
          "duration": 0.0652172499999999,
          "durationTicks": 96,
          "midi": 47,
          "name": "B2",
          "ticks": 45120,
          "time": 30.652107500000003,
          "velocity": 0.14960629921259844
        },
        {
          "duration": 0.0652172499999999,
          "durationTicks": 96,
          "midi": 35,
          "name": "B1",
          "ticks": 45504,
          "time": 30.912976500000003,
          "velocity": 0.14960629921259844
        },
        {
          "duration": 0.0652172499999999,
          "durationTicks": 96,
          "midi": 47,
          "name": "B2",
          "ticks": 45504,
          "time": 30.912976500000003,
          "velocity": 0.14960629921259844
        },
        {
          "duration": 0.0652172499999999,
          "durationTicks": 96,
          "midi": 35,
          "name": "B1",
          "ticks": 45696,
          "time": 31.043411000000003,
          "velocity": 0.14960629921259844
        },
        {
          "duration": 0.0652172499999999,
          "durationTicks": 96,
          "midi": 47,
          "name": "B2",
          "ticks": 45696,
          "time": 31.043411000000003,
          "velocity": 0.14960629921259844
        },
        {
          "duration": 0.0652172499999999,
          "durationTicks": 96,
          "midi": 35,
          "name": "B1",
          "ticks": 45888,
          "time": 31.173845500000002,
          "velocity": 0.14960629921259844
        },
        {
          "duration": 0.0652172499999999,
          "durationTicks": 96,
          "midi": 47,
          "name": "B2",
          "ticks": 45888,
          "time": 31.173845500000002,
          "velocity": 0.14960629921259844
        },
        {
          "duration": 0.0652172499999999,
          "durationTicks": 96,
          "midi": 34,
          "name": "A#1",
          "ticks": 46080,
          "time": 31.304280000000002,
          "velocity": 0.14960629921259844
        },
        {
          "duration": 0.0652172499999999,
          "durationTicks": 96,
          "midi": 46,
          "name": "A#2",
          "ticks": 46080,
          "time": 31.304280000000002,
          "velocity": 0.14960629921259844
        },
        {
          "duration": 0.0652172499999999,
          "durationTicks": 96,
          "midi": 34,
          "name": "A#1",
          "ticks": 46464,
          "time": 31.565149,
          "velocity": 0.14960629921259844
        },
        {
          "duration": 0.0652172499999999,
          "durationTicks": 96,
          "midi": 46,
          "name": "A#2",
          "ticks": 46464,
          "time": 31.565149,
          "velocity": 0.14960629921259844
        },
        {
          "duration": 0.0652172499999999,
          "durationTicks": 96,
          "midi": 34,
          "name": "A#1",
          "ticks": 46848,
          "time": 31.826018,
          "velocity": 0.14960629921259844
        },
        {
          "duration": 0.0652172499999999,
          "durationTicks": 96,
          "midi": 46,
          "name": "A#2",
          "ticks": 46848,
          "time": 31.826018,
          "velocity": 0.14960629921259844
        },
        {
          "duration": 0.0652172499999999,
          "durationTicks": 96,
          "midi": 34,
          "name": "A#1",
          "ticks": 47040,
          "time": 31.9564525,
          "velocity": 0.14960629921259844
        },
        {
          "duration": 0.0652172499999999,
          "durationTicks": 96,
          "midi": 46,
          "name": "A#2",
          "ticks": 47040,
          "time": 31.9564525,
          "velocity": 0.14960629921259844
        },
        {
          "duration": 0.06521724999999634,
          "durationTicks": 96,
          "midi": 34,
          "name": "A#1",
          "ticks": 47424,
          "time": 32.217321500000004,
          "velocity": 0.14960629921259844
        },
        {
          "duration": 0.06521724999999634,
          "durationTicks": 96,
          "midi": 46,
          "name": "A#2",
          "ticks": 47424,
          "time": 32.217321500000004,
          "velocity": 0.14960629921259844
        },
        {
          "duration": 0.06521724999999634,
          "durationTicks": 96,
          "midi": 36,
          "name": "C2",
          "ticks": 47808,
          "time": 32.478190500000004,
          "velocity": 0.14960629921259844
        },
        {
          "duration": 0.06521724999999634,
          "durationTicks": 96,
          "midi": 48,
          "name": "C3",
          "ticks": 47808,
          "time": 32.478190500000004,
          "velocity": 0.14960629921259844
        },
        {
          "duration": 0.06521724999999634,
          "durationTicks": 96,
          "midi": 36,
          "name": "C2",
          "ticks": 48192,
          "time": 32.7390595,
          "velocity": 0.14960629921259844
        },
        {
          "duration": 0.06521724999999634,
          "durationTicks": 96,
          "midi": 48,
          "name": "C3",
          "ticks": 48192,
          "time": 32.7390595,
          "velocity": 0.14960629921259844
        },
        {
          "duration": 0.06521724999999634,
          "durationTicks": 96,
          "midi": 36,
          "name": "C2",
          "ticks": 48576,
          "time": 32.9999285,
          "velocity": 0.14960629921259844
        },
        {
          "duration": 0.06521724999999634,
          "durationTicks": 96,
          "midi": 48,
          "name": "C3",
          "ticks": 48576,
          "time": 32.9999285,
          "velocity": 0.14960629921259844
        },
        {
          "duration": 0.06521724999999634,
          "durationTicks": 96,
          "midi": 36,
          "name": "C2",
          "ticks": 48768,
          "time": 33.130363,
          "velocity": 0.14960629921259844
        },
        {
          "duration": 0.06521724999999634,
          "durationTicks": 96,
          "midi": 48,
          "name": "C3",
          "ticks": 48768,
          "time": 33.130363,
          "velocity": 0.14960629921259844
        },
        {
          "duration": 0.06521724999999634,
          "durationTicks": 96,
          "midi": 36,
          "name": "C2",
          "ticks": 48960,
          "time": 33.2607975,
          "velocity": 0.14960629921259844
        },
        {
          "duration": 0.06521724999999634,
          "durationTicks": 96,
          "midi": 48,
          "name": "C3",
          "ticks": 48960,
          "time": 33.2607975,
          "velocity": 0.14960629921259844
        }
      ],
      "endOfTrackTicks": 49056
    },
    {
      "channel": 4,
      "controlChanges": {},
      "pitchBends": [],
      "instrument": {
        "family": "synth lead",
        "number": 81,
        "name": "lead 2 (sawtooth)"
      },
      "name": "8-Bit Sawtooth",
      "notes": [
        {
          "duration": 0.06521725,
          "durationTicks": 96,
          "midi": 50,
          "name": "D3",
          "ticks": 0,
          "time": 0,
          "velocity": 0.08661417322834646
        },
        {
          "duration": 0.06521725,
          "durationTicks": 96,
          "midi": 50,
          "name": "D3",
          "ticks": 192,
          "time": 0.1304345,
          "velocity": 0.08661417322834646
        },
        {
          "duration": 0.06521725,
          "durationTicks": 96,
          "midi": 62,
          "name": "D4",
          "ticks": 384,
          "time": 0.260869,
          "velocity": 0.08661417322834646
        },
        {
          "duration": 0.06521725,
          "durationTicks": 96,
          "midi": 57,
          "name": "A3",
          "ticks": 768,
          "time": 0.521738,
          "velocity": 0.08661417322834646
        },
        {
          "duration": 0.06521725,
          "durationTicks": 96,
          "midi": 56,
          "name": "G#3",
          "ticks": 1344,
          "time": 0.9130415000000001,
          "velocity": 0.08661417322834646
        },
        {
          "duration": 0.06521725000000012,
          "durationTicks": 96,
          "midi": 55,
          "name": "G3",
          "ticks": 1728,
          "time": 1.1739105,
          "velocity": 0.08661417322834646
        },
        {
          "duration": 0.06521725000000012,
          "durationTicks": 96,
          "midi": 53,
          "name": "F3",
          "ticks": 2112,
          "time": 1.4347795,
          "velocity": 0.08661417322834646
        },
        {
          "duration": 0.06521725000000012,
          "durationTicks": 96,
          "midi": 50,
          "name": "D3",
          "ticks": 2496,
          "time": 1.6956485000000001,
          "velocity": 0.08661417322834646
        },
        {
          "duration": 0.0652172499999999,
          "durationTicks": 96,
          "midi": 53,
          "name": "F3",
          "ticks": 2688,
          "time": 1.8260830000000001,
          "velocity": 0.08661417322834646
        },
        {
          "duration": 0.06521725000000012,
          "durationTicks": 96,
          "midi": 55,
          "name": "G3",
          "ticks": 2880,
          "time": 1.9565175000000001,
          "velocity": 0.08661417322834646
        },
        {
          "duration": 0.0652172499999999,
          "durationTicks": 96,
          "midi": 48,
          "name": "C3",
          "ticks": 3072,
          "time": 2.086952,
          "velocity": 0.08661417322834646
        },
        {
          "duration": 0.06521725000000034,
          "durationTicks": 96,
          "midi": 48,
          "name": "C3",
          "ticks": 3264,
          "time": 2.2173865,
          "velocity": 0.08661417322834646
        },
        {
          "duration": 0.0652172499999999,
          "durationTicks": 96,
          "midi": 62,
          "name": "D4",
          "ticks": 3456,
          "time": 2.347821,
          "velocity": 0.08661417322834646
        },
        {
          "duration": 0.0652172499999999,
          "durationTicks": 96,
          "midi": 57,
          "name": "A3",
          "ticks": 3840,
          "time": 2.60869,
          "velocity": 0.08661417322834646
        },
        {
          "duration": 0.0652172499999999,
          "durationTicks": 96,
          "midi": 56,
          "name": "G#3",
          "ticks": 4416,
          "time": 2.9999935000000004,
          "velocity": 0.08661417322834646
        },
        {
          "duration": 0.06521725000000034,
          "durationTicks": 96,
          "midi": 55,
          "name": "G3",
          "ticks": 4800,
          "time": 3.2608625,
          "velocity": 0.08661417322834646
        },
        {
          "duration": 0.0652172499999999,
          "durationTicks": 96,
          "midi": 53,
          "name": "F3",
          "ticks": 5184,
          "time": 3.5217315000000005,
          "velocity": 0.08661417322834646
        },
        {
          "duration": 0.06521725000000034,
          "durationTicks": 96,
          "midi": 50,
          "name": "D3",
          "ticks": 5568,
          "time": 3.7826005,
          "velocity": 0.08661417322834646
        },
        {
          "duration": 0.0652172499999999,
          "durationTicks": 96,
          "midi": 53,
          "name": "F3",
          "ticks": 5760,
          "time": 3.9130350000000003,
          "velocity": 0.08661417322834646
        },
        {
          "duration": 0.0652172499999999,
          "durationTicks": 96,
          "midi": 55,
          "name": "G3",
          "ticks": 5952,
          "time": 4.0434695000000005,
          "velocity": 0.08661417322834646
        },
        {
          "duration": 0.0652172499999999,
          "durationTicks": 96,
          "midi": 47,
          "name": "B2",
          "ticks": 6144,
          "time": 4.173904,
          "velocity": 0.08661417322834646
        },
        {
          "duration": 0.0652172499999999,
          "durationTicks": 96,
          "midi": 47,
          "name": "B2",
          "ticks": 6336,
          "time": 4.3043385,
          "velocity": 0.08661417322834646
        },
        {
          "duration": 0.06521725000000078,
          "durationTicks": 96,
          "midi": 62,
          "name": "D4",
          "ticks": 6528,
          "time": 4.434773,
          "velocity": 0.08661417322834646
        },
        {
          "duration": 0.0652172499999999,
          "durationTicks": 96,
          "midi": 57,
          "name": "A3",
          "ticks": 6912,
          "time": 4.695642,
          "velocity": 0.08661417322834646
        },
        {
          "duration": 0.0652172499999999,
          "durationTicks": 96,
          "midi": 56,
          "name": "G#3",
          "ticks": 7488,
          "time": 5.086945500000001,
          "velocity": 0.08661417322834646
        },
        {
          "duration": 0.0652172499999999,
          "durationTicks": 96,
          "midi": 55,
          "name": "G3",
          "ticks": 7872,
          "time": 5.3478145,
          "velocity": 0.08661417322834646
        },
        {
          "duration": 0.0652172499999999,
          "durationTicks": 96,
          "midi": 53,
          "name": "F3",
          "ticks": 8256,
          "time": 5.608683500000001,
          "velocity": 0.08661417322834646
        },
        {
          "duration": 0.0652172499999999,
          "durationTicks": 96,
          "midi": 50,
          "name": "D3",
          "ticks": 8640,
          "time": 5.8695525,
          "velocity": 0.08661417322834646
        },
        {
          "duration": 0.0652172499999999,
          "durationTicks": 96,
          "midi": 53,
          "name": "F3",
          "ticks": 8832,
          "time": 5.999987000000001,
          "velocity": 0.08661417322834646
        },
        {
          "duration": 0.0652172499999999,
          "durationTicks": 96,
          "midi": 55,
          "name": "G3",
          "ticks": 9024,
          "time": 6.130421500000001,
          "velocity": 0.08661417322834646
        },
        {
          "duration": 0.0652172499999999,
          "durationTicks": 96,
          "midi": 46,
          "name": "A#2",
          "ticks": 9216,
          "time": 6.260856,
          "velocity": 0.08661417322834646
        },
        {
          "duration": 0.0652172499999999,
          "durationTicks": 96,
          "midi": 46,
          "name": "A#2",
          "ticks": 9408,
          "time": 6.3912905,
          "velocity": 0.08661417322834646
        },
        {
          "duration": 0.06521725000000078,
          "durationTicks": 96,
          "midi": 62,
          "name": "D4",
          "ticks": 9600,
          "time": 6.521725,
          "velocity": 0.08661417322834646
        },
        {
          "duration": 0.0652172499999999,
          "durationTicks": 96,
          "midi": 57,
          "name": "A3",
          "ticks": 9984,
          "time": 6.7825940000000005,
          "velocity": 0.08661417322834646
        },
        {
          "duration": 0.0652172499999999,
          "durationTicks": 96,
          "midi": 56,
          "name": "G#3",
          "ticks": 10560,
          "time": 7.173897500000001,
          "velocity": 0.08661417322834646
        },
        {
          "duration": 0.0652172499999999,
          "durationTicks": 96,
          "midi": 55,
          "name": "G3",
          "ticks": 10944,
          "time": 7.4347665,
          "velocity": 0.08661417322834646
        },
        {
          "duration": 0.0652172499999999,
          "durationTicks": 96,
          "midi": 53,
          "name": "F3",
          "ticks": 11328,
          "time": 7.695635500000001,
          "velocity": 0.08661417322834646
        },
        {
          "duration": 0.06521725000000078,
          "durationTicks": 96,
          "midi": 50,
          "name": "D3",
          "ticks": 11712,
          "time": 7.9565045,
          "velocity": 0.08661417322834646
        },
        {
          "duration": 0.0652172499999999,
          "durationTicks": 96,
          "midi": 53,
          "name": "F3",
          "ticks": 11904,
          "time": 8.086939000000001,
          "velocity": 0.08661417322834646
        },
        {
          "duration": 0.0652172499999999,
          "durationTicks": 96,
          "midi": 55,
          "name": "G3",
          "ticks": 12096,
          "time": 8.2173735,
          "velocity": 0.08661417322834646
        },
        {
          "duration": 0.0652172499999999,
          "durationTicks": 96,
          "midi": 50,
          "name": "D3",
          "ticks": 12288,
          "time": 8.347808,
          "velocity": 0.08661417322834646
        },
        {
          "duration": 0.0652172499999999,
          "durationTicks": 96,
          "midi": 50,
          "name": "D3",
          "ticks": 12480,
          "time": 8.4782425,
          "velocity": 0.08661417322834646
        },
        {
          "duration": 0.0652172499999999,
          "durationTicks": 96,
          "midi": 62,
          "name": "D4",
          "ticks": 12672,
          "time": 8.608677,
          "velocity": 0.08661417322834646
        },
        {
          "duration": 0.06521725000000167,
          "durationTicks": 96,
          "midi": 57,
          "name": "A3",
          "ticks": 13056,
          "time": 8.869546,
          "velocity": 0.08661417322834646
        },
        {
          "duration": 0.0652172499999999,
          "durationTicks": 96,
          "midi": 56,
          "name": "G#3",
          "ticks": 13632,
          "time": 9.2608495,
          "velocity": 0.08661417322834646
        },
        {
          "duration": 0.0652172499999999,
          "durationTicks": 96,
          "midi": 55,
          "name": "G3",
          "ticks": 14016,
          "time": 9.5217185,
          "velocity": 0.08661417322834646
        },
        {
          "duration": 0.0652172499999999,
          "durationTicks": 96,
          "midi": 53,
          "name": "F3",
          "ticks": 14400,
          "time": 9.7825875,
          "velocity": 0.08661417322834646
        },
        {
          "duration": 0.0652172499999999,
          "durationTicks": 96,
          "midi": 50,
          "name": "D3",
          "ticks": 14784,
          "time": 10.043456500000001,
          "velocity": 0.08661417322834646
        },
        {
          "duration": 0.0652172499999999,
          "durationTicks": 96,
          "midi": 53,
          "name": "F3",
          "ticks": 14976,
          "time": 10.173891000000001,
          "velocity": 0.08661417322834646
        },
        {
          "duration": 0.0652172499999999,
          "durationTicks": 96,
          "midi": 55,
          "name": "G3",
          "ticks": 15168,
          "time": 10.304325500000001,
          "velocity": 0.08661417322834646
        },
        {
          "duration": 0.0652172499999999,
          "durationTicks": 96,
          "midi": 48,
          "name": "C3",
          "ticks": 15360,
          "time": 10.43476,
          "velocity": 0.08661417322834646
        },
        {
          "duration": 0.0652172499999999,
          "durationTicks": 96,
          "midi": 48,
          "name": "C3",
          "ticks": 15552,
          "time": 10.5651945,
          "velocity": 0.08661417322834646
        },
        {
          "duration": 0.0652172499999999,
          "durationTicks": 96,
          "midi": 62,
          "name": "D4",
          "ticks": 15744,
          "time": 10.695629,
          "velocity": 0.08661417322834646
        },
        {
          "duration": 0.06521725000000167,
          "durationTicks": 96,
          "midi": 57,
          "name": "A3",
          "ticks": 16128,
          "time": 10.956498,
          "velocity": 0.08661417322834646
        },
        {
          "duration": 0.0652172499999999,
          "durationTicks": 96,
          "midi": 56,
          "name": "G#3",
          "ticks": 16704,
          "time": 11.347801500000001,
          "velocity": 0.08661417322834646
        },
        {
          "duration": 0.0652172499999999,
          "durationTicks": 96,
          "midi": 55,
          "name": "G3",
          "ticks": 17088,
          "time": 11.6086705,
          "velocity": 0.08661417322834646
        },
        {
          "duration": 0.0652172499999999,
          "durationTicks": 96,
          "midi": 53,
          "name": "F3",
          "ticks": 17472,
          "time": 11.8695395,
          "velocity": 0.08661417322834646
        },
        {
          "duration": 0.0652172499999999,
          "durationTicks": 96,
          "midi": 50,
          "name": "D3",
          "ticks": 17856,
          "time": 12.130408500000001,
          "velocity": 0.08661417322834646
        },
        {
          "duration": 0.0652172499999999,
          "durationTicks": 96,
          "midi": 53,
          "name": "F3",
          "ticks": 18048,
          "time": 12.260843000000001,
          "velocity": 0.08661417322834646
        },
        {
          "duration": 0.0652172499999999,
          "durationTicks": 96,
          "midi": 55,
          "name": "G3",
          "ticks": 18240,
          "time": 12.391277500000001,
          "velocity": 0.08661417322834646
        },
        {
          "duration": 0.0652172499999999,
          "durationTicks": 96,
          "midi": 47,
          "name": "B2",
          "ticks": 18432,
          "time": 12.521712,
          "velocity": 0.08661417322834646
        },
        {
          "duration": 0.0652172499999999,
          "durationTicks": 96,
          "midi": 47,
          "name": "B2",
          "ticks": 18624,
          "time": 12.6521465,
          "velocity": 0.08661417322834646
        },
        {
          "duration": 0.0652172499999999,
          "durationTicks": 96,
          "midi": 62,
          "name": "D4",
          "ticks": 18816,
          "time": 12.782581,
          "velocity": 0.08661417322834646
        },
        {
          "duration": 0.06521725000000167,
          "durationTicks": 96,
          "midi": 57,
          "name": "A3",
          "ticks": 19200,
          "time": 13.04345,
          "velocity": 0.08661417322834646
        },
        {
          "duration": 0.0652172499999999,
          "durationTicks": 96,
          "midi": 56,
          "name": "G#3",
          "ticks": 19776,
          "time": 13.434753500000001,
          "velocity": 0.08661417322834646
        },
        {
          "duration": 0.0652172499999999,
          "durationTicks": 96,
          "midi": 55,
          "name": "G3",
          "ticks": 20160,
          "time": 13.6956225,
          "velocity": 0.08661417322834646
        },
        {
          "duration": 0.0652172499999999,
          "durationTicks": 96,
          "midi": 53,
          "name": "F3",
          "ticks": 20544,
          "time": 13.9564915,
          "velocity": 0.08661417322834646
        },
        {
          "duration": 0.0652172499999999,
          "durationTicks": 96,
          "midi": 50,
          "name": "D3",
          "ticks": 20928,
          "time": 14.217360500000002,
          "velocity": 0.08661417322834646
        },
        {
          "duration": 0.0652172499999999,
          "durationTicks": 96,
          "midi": 53,
          "name": "F3",
          "ticks": 21120,
          "time": 14.347795000000001,
          "velocity": 0.08661417322834646
        },
        {
          "duration": 0.0652172499999999,
          "durationTicks": 96,
          "midi": 55,
          "name": "G3",
          "ticks": 21312,
          "time": 14.478229500000001,
          "velocity": 0.08661417322834646
        },
        {
          "duration": 0.0652172499999999,
          "durationTicks": 96,
          "midi": 46,
          "name": "A#2",
          "ticks": 21504,
          "time": 14.608664000000001,
          "velocity": 0.08661417322834646
        },
        {
          "duration": 0.0652172499999999,
          "durationTicks": 96,
          "midi": 46,
          "name": "A#2",
          "ticks": 21696,
          "time": 14.7390985,
          "velocity": 0.08661417322834646
        },
        {
          "duration": 0.0652172499999999,
          "durationTicks": 96,
          "midi": 62,
          "name": "D4",
          "ticks": 21888,
          "time": 14.869533,
          "velocity": 0.08661417322834646
        },
        {
          "duration": 0.06521725000000167,
          "durationTicks": 96,
          "midi": 57,
          "name": "A3",
          "ticks": 22272,
          "time": 15.130402,
          "velocity": 0.08661417322834646
        },
        {
          "duration": 0.0652172499999999,
          "durationTicks": 96,
          "midi": 56,
          "name": "G#3",
          "ticks": 22848,
          "time": 15.521705500000001,
          "velocity": 0.08661417322834646
        },
        {
          "duration": 0.0652172499999999,
          "durationTicks": 96,
          "midi": 55,
          "name": "G3",
          "ticks": 23232,
          "time": 15.7825745,
          "velocity": 0.08661417322834646
        },
        {
          "duration": 0.0652172499999999,
          "durationTicks": 96,
          "midi": 53,
          "name": "F3",
          "ticks": 23616,
          "time": 16.043443500000002,
          "velocity": 0.08661417322834646
        },
        {
          "duration": 0.0652172499999999,
          "durationTicks": 96,
          "midi": 50,
          "name": "D3",
          "ticks": 24000,
          "time": 16.3043125,
          "velocity": 0.08661417322834646
        },
        {
          "duration": 0.0652172499999999,
          "durationTicks": 96,
          "midi": 53,
          "name": "F3",
          "ticks": 24192,
          "time": 16.434747,
          "velocity": 0.08661417322834646
        },
        {
          "duration": 0.0652172499999999,
          "durationTicks": 96,
          "midi": 55,
          "name": "G3",
          "ticks": 24384,
          "time": 16.5651815,
          "velocity": 0.08661417322834646
        },
        {
          "duration": 0.0652172499999999,
          "durationTicks": 96,
          "midi": 62,
          "name": "D4",
          "ticks": 24576,
          "time": 16.695616,
          "velocity": 0.08661417322834646
        },
        {
          "duration": 0.0652172499999999,
          "durationTicks": 96,
          "midi": 62,
          "name": "D4",
          "ticks": 24768,
          "time": 16.8260505,
          "velocity": 0.08661417322834646
        },
        {
          "duration": 0.0652172499999999,
          "durationTicks": 96,
          "midi": 74,
          "name": "D5",
          "ticks": 24960,
          "time": 16.956485,
          "velocity": 0.08661417322834646
        },
        {
          "duration": 0.0652172499999999,
          "durationTicks": 96,
          "midi": 69,
          "name": "A4",
          "ticks": 25344,
          "time": 17.217354,
          "velocity": 0.08661417322834646
        },
        {
          "duration": 0.0652172499999999,
          "durationTicks": 96,
          "midi": 68,
          "name": "G#4",
          "ticks": 25920,
          "time": 17.6086575,
          "velocity": 0.08661417322834646
        },
        {
          "duration": 0.0652172499999999,
          "durationTicks": 96,
          "midi": 67,
          "name": "G4",
          "ticks": 26304,
          "time": 17.869526500000003,
          "velocity": 0.08661417322834646
        },
        {
          "duration": 0.0652172499999999,
          "durationTicks": 96,
          "midi": 65,
          "name": "F4",
          "ticks": 26688,
          "time": 18.130395500000002,
          "velocity": 0.08661417322834646
        },
        {
          "duration": 0.0652172499999999,
          "durationTicks": 96,
          "midi": 62,
          "name": "D4",
          "ticks": 27072,
          "time": 18.391264500000002,
          "velocity": 0.08661417322834646
        },
        {
          "duration": 0.0652172499999999,
          "durationTicks": 96,
          "midi": 65,
          "name": "F4",
          "ticks": 27264,
          "time": 18.521699,
          "velocity": 0.08661417322834646
        },
        {
          "duration": 0.0652172499999999,
          "durationTicks": 96,
          "midi": 67,
          "name": "G4",
          "ticks": 27456,
          "time": 18.6521335,
          "velocity": 0.08661417322834646
        },
        {
          "duration": 0.0652172499999999,
          "durationTicks": 96,
          "midi": 60,
          "name": "C4",
          "ticks": 27648,
          "time": 18.782568,
          "velocity": 0.08661417322834646
        },
        {
          "duration": 0.0652172499999999,
          "durationTicks": 96,
          "midi": 60,
          "name": "C4",
          "ticks": 27840,
          "time": 18.9130025,
          "velocity": 0.08661417322834646
        },
        {
          "duration": 0.0652172499999999,
          "durationTicks": 96,
          "midi": 74,
          "name": "D5",
          "ticks": 28032,
          "time": 19.043437,
          "velocity": 0.08661417322834646
        },
        {
          "duration": 0.0652172499999999,
          "durationTicks": 96,
          "midi": 69,
          "name": "A4",
          "ticks": 28416,
          "time": 19.304306,
          "velocity": 0.08661417322834646
        },
        {
          "duration": 0.0652172499999999,
          "durationTicks": 96,
          "midi": 68,
          "name": "G#4",
          "ticks": 28992,
          "time": 19.6956095,
          "velocity": 0.08661417322834646
        },
        {
          "duration": 0.0652172499999999,
          "durationTicks": 96,
          "midi": 67,
          "name": "G4",
          "ticks": 29376,
          "time": 19.956478500000003,
          "velocity": 0.08661417322834646
        },
        {
          "duration": 0.0652172499999999,
          "durationTicks": 96,
          "midi": 65,
          "name": "F4",
          "ticks": 29760,
          "time": 20.217347500000002,
          "velocity": 0.08661417322834646
        },
        {
          "duration": 0.0652172499999999,
          "durationTicks": 96,
          "midi": 62,
          "name": "D4",
          "ticks": 30144,
          "time": 20.478216500000002,
          "velocity": 0.08661417322834646
        },
        {
          "duration": 0.0652172499999999,
          "durationTicks": 96,
          "midi": 65,
          "name": "F4",
          "ticks": 30336,
          "time": 20.608651000000002,
          "velocity": 0.08661417322834646
        },
        {
          "duration": 0.0652172499999999,
          "durationTicks": 96,
          "midi": 67,
          "name": "G4",
          "ticks": 30528,
          "time": 20.7390855,
          "velocity": 0.08661417322834646
        },
        {
          "duration": 0.0652172499999999,
          "durationTicks": 96,
          "midi": 59,
          "name": "B3",
          "ticks": 30720,
          "time": 20.86952,
          "velocity": 0.08661417322834646
        },
        {
          "duration": 0.0652172499999999,
          "durationTicks": 96,
          "midi": 59,
          "name": "B3",
          "ticks": 30912,
          "time": 20.9999545,
          "velocity": 0.08661417322834646
        },
        {
          "duration": 0.0652172499999999,
          "durationTicks": 96,
          "midi": 74,
          "name": "D5",
          "ticks": 31104,
          "time": 21.130389,
          "velocity": 0.08661417322834646
        },
        {
          "duration": 0.0652172499999999,
          "durationTicks": 96,
          "midi": 69,
          "name": "A4",
          "ticks": 31488,
          "time": 21.391258,
          "velocity": 0.08661417322834646
        },
        {
          "duration": 0.0652172499999999,
          "durationTicks": 96,
          "midi": 68,
          "name": "G#4",
          "ticks": 32064,
          "time": 21.7825615,
          "velocity": 0.08661417322834646
        },
        {
          "duration": 0.0652172499999999,
          "durationTicks": 96,
          "midi": 67,
          "name": "G4",
          "ticks": 32448,
          "time": 22.043430500000003,
          "velocity": 0.08661417322834646
        },
        {
          "duration": 0.0652172499999999,
          "durationTicks": 96,
          "midi": 65,
          "name": "F4",
          "ticks": 32832,
          "time": 22.304299500000003,
          "velocity": 0.08661417322834646
        },
        {
          "duration": 0.0652172499999999,
          "durationTicks": 96,
          "midi": 62,
          "name": "D4",
          "ticks": 33216,
          "time": 22.565168500000002,
          "velocity": 0.08661417322834646
        },
        {
          "duration": 0.0652172499999999,
          "durationTicks": 96,
          "midi": 65,
          "name": "F4",
          "ticks": 33408,
          "time": 22.695603000000002,
          "velocity": 0.08661417322834646
        },
        {
          "duration": 0.0652172499999999,
          "durationTicks": 96,
          "midi": 67,
          "name": "G4",
          "ticks": 33600,
          "time": 22.8260375,
          "velocity": 0.08661417322834646
        },
        {
          "duration": 0.0652172499999999,
          "durationTicks": 96,
          "midi": 58,
          "name": "A#3",
          "ticks": 33792,
          "time": 22.956472,
          "velocity": 0.08661417322834646
        },
        {
          "duration": 0.0652172499999999,
          "durationTicks": 96,
          "midi": 58,
          "name": "A#3",
          "ticks": 33984,
          "time": 23.0869065,
          "velocity": 0.08661417322834646
        },
        {
          "duration": 0.0652172499999999,
          "durationTicks": 96,
          "midi": 74,
          "name": "D5",
          "ticks": 34176,
          "time": 23.217341,
          "velocity": 0.08661417322834646
        },
        {
          "duration": 0.0652172499999999,
          "durationTicks": 96,
          "midi": 69,
          "name": "A4",
          "ticks": 34560,
          "time": 23.47821,
          "velocity": 0.08661417322834646
        },
        {
          "duration": 0.0652172499999999,
          "durationTicks": 96,
          "midi": 68,
          "name": "G#4",
          "ticks": 35136,
          "time": 23.8695135,
          "velocity": 0.08661417322834646
        },
        {
          "duration": 0.0652172499999999,
          "durationTicks": 96,
          "midi": 67,
          "name": "G4",
          "ticks": 35520,
          "time": 24.130382500000003,
          "velocity": 0.08661417322834646
        },
        {
          "duration": 0.0652172499999999,
          "durationTicks": 96,
          "midi": 65,
          "name": "F4",
          "ticks": 35904,
          "time": 24.391251500000003,
          "velocity": 0.08661417322834646
        },
        {
          "duration": 0.0652172499999999,
          "durationTicks": 96,
          "midi": 62,
          "name": "D4",
          "ticks": 36288,
          "time": 24.652120500000002,
          "velocity": 0.08661417322834646
        },
        {
          "duration": 0.0652172499999999,
          "durationTicks": 96,
          "midi": 65,
          "name": "F4",
          "ticks": 36480,
          "time": 24.782555000000002,
          "velocity": 0.08661417322834646
        },
        {
          "duration": 0.0652172499999999,
          "durationTicks": 96,
          "midi": 67,
          "name": "G4",
          "ticks": 36672,
          "time": 24.912989500000002,
          "velocity": 0.08661417322834646
        },
        {
          "duration": 0.0652172499999999,
          "durationTicks": 96,
          "midi": 62,
          "name": "D4",
          "ticks": 36864,
          "time": 25.043424,
          "velocity": 0.08661417322834646
        },
        {
          "duration": 0.0652172499999999,
          "durationTicks": 96,
          "midi": 62,
          "name": "D4",
          "ticks": 37056,
          "time": 25.1738585,
          "velocity": 0.08661417322834646
        },
        {
          "duration": 0.0652172499999999,
          "durationTicks": 96,
          "midi": 74,
          "name": "D5",
          "ticks": 37248,
          "time": 25.304293,
          "velocity": 0.08661417322834646
        },
        {
          "duration": 0.0652172499999999,
          "durationTicks": 96,
          "midi": 69,
          "name": "A4",
          "ticks": 37632,
          "time": 25.565162,
          "velocity": 0.08661417322834646
        },
        {
          "duration": 0.0652172499999999,
          "durationTicks": 96,
          "midi": 68,
          "name": "G#4",
          "ticks": 38208,
          "time": 25.9564655,
          "velocity": 0.08661417322834646
        },
        {
          "duration": 0.0652172499999999,
          "durationTicks": 96,
          "midi": 67,
          "name": "G4",
          "ticks": 38592,
          "time": 26.217334500000003,
          "velocity": 0.08661417322834646
        },
        {
          "duration": 0.0652172499999999,
          "durationTicks": 96,
          "midi": 65,
          "name": "F4",
          "ticks": 38976,
          "time": 26.478203500000003,
          "velocity": 0.08661417322834646
        },
        {
          "duration": 0.0652172499999999,
          "durationTicks": 96,
          "midi": 62,
          "name": "D4",
          "ticks": 39360,
          "time": 26.739072500000002,
          "velocity": 0.08661417322834646
        },
        {
          "duration": 0.0652172499999999,
          "durationTicks": 96,
          "midi": 65,
          "name": "F4",
          "ticks": 39552,
          "time": 26.869507000000002,
          "velocity": 0.08661417322834646
        },
        {
          "duration": 0.0652172499999999,
          "durationTicks": 96,
          "midi": 67,
          "name": "G4",
          "ticks": 39744,
          "time": 26.999941500000002,
          "velocity": 0.08661417322834646
        },
        {
          "duration": 0.0652172499999999,
          "durationTicks": 96,
          "midi": 60,
          "name": "C4",
          "ticks": 39936,
          "time": 27.130376000000002,
          "velocity": 0.08661417322834646
        },
        {
          "duration": 0.0652172499999999,
          "durationTicks": 96,
          "midi": 60,
          "name": "C4",
          "ticks": 40128,
          "time": 27.2608105,
          "velocity": 0.08661417322834646
        },
        {
          "duration": 0.0652172499999999,
          "durationTicks": 96,
          "midi": 74,
          "name": "D5",
          "ticks": 40320,
          "time": 27.391245,
          "velocity": 0.08661417322834646
        },
        {
          "duration": 0.0652172499999999,
          "durationTicks": 96,
          "midi": 69,
          "name": "A4",
          "ticks": 40704,
          "time": 27.652114,
          "velocity": 0.08661417322834646
        },
        {
          "duration": 0.0652172499999999,
          "durationTicks": 96,
          "midi": 68,
          "name": "G#4",
          "ticks": 41280,
          "time": 28.0434175,
          "velocity": 0.08661417322834646
        },
        {
          "duration": 0.0652172499999999,
          "durationTicks": 96,
          "midi": 67,
          "name": "G4",
          "ticks": 41664,
          "time": 28.304286500000003,
          "velocity": 0.08661417322834646
        },
        {
          "duration": 0.0652172499999999,
          "durationTicks": 96,
          "midi": 65,
          "name": "F4",
          "ticks": 42048,
          "time": 28.565155500000003,
          "velocity": 0.08661417322834646
        },
        {
          "duration": 0.0652172499999999,
          "durationTicks": 96,
          "midi": 62,
          "name": "D4",
          "ticks": 42432,
          "time": 28.826024500000003,
          "velocity": 0.08661417322834646
        },
        {
          "duration": 0.0652172499999999,
          "durationTicks": 96,
          "midi": 65,
          "name": "F4",
          "ticks": 42624,
          "time": 28.956459000000002,
          "velocity": 0.08661417322834646
        },
        {
          "duration": 0.0652172499999999,
          "durationTicks": 96,
          "midi": 67,
          "name": "G4",
          "ticks": 42816,
          "time": 29.086893500000002,
          "velocity": 0.08661417322834646
        },
        {
          "duration": 0.0652172499999999,
          "durationTicks": 96,
          "midi": 59,
          "name": "B3",
          "ticks": 43008,
          "time": 29.217328000000002,
          "velocity": 0.08661417322834646
        },
        {
          "duration": 0.0652172499999999,
          "durationTicks": 96,
          "midi": 59,
          "name": "B3",
          "ticks": 43200,
          "time": 29.3477625,
          "velocity": 0.08661417322834646
        },
        {
          "duration": 0.0652172499999999,
          "durationTicks": 96,
          "midi": 74,
          "name": "D5",
          "ticks": 43392,
          "time": 29.478197,
          "velocity": 0.08661417322834646
        },
        {
          "duration": 0.0652172499999999,
          "durationTicks": 96,
          "midi": 69,
          "name": "A4",
          "ticks": 43776,
          "time": 29.739066,
          "velocity": 0.08661417322834646
        },
        {
          "duration": 0.0652172499999999,
          "durationTicks": 96,
          "midi": 68,
          "name": "G#4",
          "ticks": 44352,
          "time": 30.1303695,
          "velocity": 0.08661417322834646
        },
        {
          "duration": 0.0652172499999999,
          "durationTicks": 96,
          "midi": 67,
          "name": "G4",
          "ticks": 44736,
          "time": 30.391238500000004,
          "velocity": 0.08661417322834646
        },
        {
          "duration": 0.0652172499999999,
          "durationTicks": 96,
          "midi": 65,
          "name": "F4",
          "ticks": 45120,
          "time": 30.652107500000003,
          "velocity": 0.08661417322834646
        },
        {
          "duration": 0.0652172499999999,
          "durationTicks": 96,
          "midi": 62,
          "name": "D4",
          "ticks": 45504,
          "time": 30.912976500000003,
          "velocity": 0.08661417322834646
        },
        {
          "duration": 0.0652172499999999,
          "durationTicks": 96,
          "midi": 65,
          "name": "F4",
          "ticks": 45696,
          "time": 31.043411000000003,
          "velocity": 0.08661417322834646
        },
        {
          "duration": 0.0652172499999999,
          "durationTicks": 96,
          "midi": 67,
          "name": "G4",
          "ticks": 45888,
          "time": 31.173845500000002,
          "velocity": 0.08661417322834646
        },
        {
          "duration": 0.0652172499999999,
          "durationTicks": 96,
          "midi": 58,
          "name": "A#3",
          "ticks": 46080,
          "time": 31.304280000000002,
          "velocity": 0.08661417322834646
        },
        {
          "duration": 0.0652172499999999,
          "durationTicks": 96,
          "midi": 58,
          "name": "A#3",
          "ticks": 46272,
          "time": 31.434714500000002,
          "velocity": 0.08661417322834646
        },
        {
          "duration": 0.0652172499999999,
          "durationTicks": 96,
          "midi": 74,
          "name": "D5",
          "ticks": 46464,
          "time": 31.565149,
          "velocity": 0.08661417322834646
        },
        {
          "duration": 0.0652172499999999,
          "durationTicks": 96,
          "midi": 69,
          "name": "A4",
          "ticks": 46848,
          "time": 31.826018,
          "velocity": 0.08661417322834646
        },
        {
          "duration": 0.06521724999999634,
          "durationTicks": 96,
          "midi": 68,
          "name": "G#4",
          "ticks": 47424,
          "time": 32.217321500000004,
          "velocity": 0.08661417322834646
        },
        {
          "duration": 0.06521724999999634,
          "durationTicks": 96,
          "midi": 67,
          "name": "G4",
          "ticks": 47808,
          "time": 32.478190500000004,
          "velocity": 0.08661417322834646
        },
        {
          "duration": 0.06521724999999634,
          "durationTicks": 96,
          "midi": 65,
          "name": "F4",
          "ticks": 48192,
          "time": 32.7390595,
          "velocity": 0.08661417322834646
        },
        {
          "duration": 0.06521724999999634,
          "durationTicks": 96,
          "midi": 62,
          "name": "D4",
          "ticks": 48576,
          "time": 32.9999285,
          "velocity": 0.08661417322834646
        },
        {
          "duration": 0.06521724999999634,
          "durationTicks": 96,
          "midi": 65,
          "name": "F4",
          "ticks": 48768,
          "time": 33.130363,
          "velocity": 0.08661417322834646
        }
      ],
      "endOfTrackTicks": 48864
    },
    {
      "channel": 5,
      "controlChanges": {},
      "pitchBends": [],
      "instrument": {
        "family": "synth lead",
        "number": 80,
        "name": "lead 1 (square)"
      },
      "name": "8-Bit Square",
      "notes": [
        {
          "duration": 0.11413018750000001,
          "durationTicks": 168,
          "midi": 50,
          "name": "D3",
          "ticks": 0,
          "time": 0,
          "velocity": 0.07086614173228346
        },
        {
          "duration": 0.11413018750000001,
          "durationTicks": 168,
          "midi": 50,
          "name": "D3",
          "ticks": 192,
          "time": 0.1304345,
          "velocity": 0.07086614173228346
        },
        {
          "duration": 0.11413018750000004,
          "durationTicks": 168,
          "midi": 62,
          "name": "D4",
          "ticks": 384,
          "time": 0.260869,
          "velocity": 0.07086614173228346
        },
        {
          "duration": 0.11413018750000004,
          "durationTicks": 168,
          "midi": 57,
          "name": "A3",
          "ticks": 768,
          "time": 0.521738,
          "velocity": 0.07086614173228346
        },
        {
          "duration": 0.11413018750000004,
          "durationTicks": 168,
          "midi": 56,
          "name": "G#3",
          "ticks": 1344,
          "time": 0.9130415000000001,
          "velocity": 0.07086614173228346
        },
        {
          "duration": 0.11413018750000004,
          "durationTicks": 168,
          "midi": 55,
          "name": "G3",
          "ticks": 1728,
          "time": 1.1739105,
          "velocity": 0.07086614173228346
        },
        {
          "duration": 0.11413018750000004,
          "durationTicks": 168,
          "midi": 53,
          "name": "F3",
          "ticks": 2112,
          "time": 1.4347795,
          "velocity": 0.07086614173228346
        },
        {
          "duration": 0.11413018750000004,
          "durationTicks": 168,
          "midi": 50,
          "name": "D3",
          "ticks": 2496,
          "time": 1.6956485000000001,
          "velocity": 0.07086614173228346
        },
        {
          "duration": 0.11413018750000004,
          "durationTicks": 168,
          "midi": 53,
          "name": "F3",
          "ticks": 2688,
          "time": 1.8260830000000001,
          "velocity": 0.07086614173228346
        },
        {
          "duration": 0.11413018750000004,
          "durationTicks": 168,
          "midi": 55,
          "name": "G3",
          "ticks": 2880,
          "time": 1.9565175000000001,
          "velocity": 0.07086614173228346
        },
        {
          "duration": 0.11413018749999981,
          "durationTicks": 168,
          "midi": 48,
          "name": "C3",
          "ticks": 3072,
          "time": 2.086952,
          "velocity": 0.07086614173228346
        },
        {
          "duration": 0.11413018750000026,
          "durationTicks": 168,
          "midi": 48,
          "name": "C3",
          "ticks": 3264,
          "time": 2.2173865,
          "velocity": 0.07086614173228346
        },
        {
          "duration": 0.11413018749999981,
          "durationTicks": 168,
          "midi": 62,
          "name": "D4",
          "ticks": 3456,
          "time": 2.347821,
          "velocity": 0.07086614173228346
        },
        {
          "duration": 0.11413018749999981,
          "durationTicks": 168,
          "midi": 57,
          "name": "A3",
          "ticks": 3840,
          "time": 2.60869,
          "velocity": 0.07086614173228346
        },
        {
          "duration": 0.11413018749999981,
          "durationTicks": 168,
          "midi": 56,
          "name": "G#3",
          "ticks": 4416,
          "time": 2.9999935000000004,
          "velocity": 0.07086614173228346
        },
        {
          "duration": 0.11413018750000026,
          "durationTicks": 168,
          "midi": 55,
          "name": "G3",
          "ticks": 4800,
          "time": 3.2608625,
          "velocity": 0.07086614173228346
        },
        {
          "duration": 0.11413018749999981,
          "durationTicks": 168,
          "midi": 53,
          "name": "F3",
          "ticks": 5184,
          "time": 3.5217315000000005,
          "velocity": 0.07086614173228346
        },
        {
          "duration": 0.11413018750000026,
          "durationTicks": 168,
          "midi": 50,
          "name": "D3",
          "ticks": 5568,
          "time": 3.7826005,
          "velocity": 0.07086614173228346
        },
        {
          "duration": 0.11413018750000026,
          "durationTicks": 168,
          "midi": 53,
          "name": "F3",
          "ticks": 5760,
          "time": 3.9130350000000003,
          "velocity": 0.07086614173228346
        },
        {
          "duration": 0.11413018749999981,
          "durationTicks": 168,
          "midi": 55,
          "name": "G3",
          "ticks": 5952,
          "time": 4.0434695000000005,
          "velocity": 0.07086614173228346
        },
        {
          "duration": 0.11413018749999981,
          "durationTicks": 168,
          "midi": 47,
          "name": "B2",
          "ticks": 6144,
          "time": 4.173904,
          "velocity": 0.07086614173228346
        },
        {
          "duration": 0.11413018749999981,
          "durationTicks": 168,
          "midi": 47,
          "name": "B2",
          "ticks": 6336,
          "time": 4.3043385,
          "velocity": 0.07086614173228346
        },
        {
          "duration": 0.1141301875000007,
          "durationTicks": 168,
          "midi": 62,
          "name": "D4",
          "ticks": 6528,
          "time": 4.434773,
          "velocity": 0.07086614173228346
        },
        {
          "duration": 0.11413018749999981,
          "durationTicks": 168,
          "midi": 57,
          "name": "A3",
          "ticks": 6912,
          "time": 4.695642,
          "velocity": 0.07086614173228346
        },
        {
          "duration": 0.11413018749999981,
          "durationTicks": 168,
          "midi": 56,
          "name": "G#3",
          "ticks": 7488,
          "time": 5.086945500000001,
          "velocity": 0.07086614173228346
        },
        {
          "duration": 0.11413018749999981,
          "durationTicks": 168,
          "midi": 55,
          "name": "G3",
          "ticks": 7872,
          "time": 5.3478145,
          "velocity": 0.07086614173228346
        },
        {
          "duration": 0.11413018749999981,
          "durationTicks": 168,
          "midi": 53,
          "name": "F3",
          "ticks": 8256,
          "time": 5.608683500000001,
          "velocity": 0.07086614173228346
        },
        {
          "duration": 0.11413018749999981,
          "durationTicks": 168,
          "midi": 50,
          "name": "D3",
          "ticks": 8640,
          "time": 5.8695525,
          "velocity": 0.07086614173228346
        },
        {
          "duration": 0.11413018749999981,
          "durationTicks": 168,
          "midi": 53,
          "name": "F3",
          "ticks": 8832,
          "time": 5.999987000000001,
          "velocity": 0.07086614173228346
        },
        {
          "duration": 0.11413018749999981,
          "durationTicks": 168,
          "midi": 55,
          "name": "G3",
          "ticks": 9024,
          "time": 6.130421500000001,
          "velocity": 0.07086614173228346
        },
        {
          "duration": 0.11413018749999981,
          "durationTicks": 168,
          "midi": 46,
          "name": "A#2",
          "ticks": 9216,
          "time": 6.260856,
          "velocity": 0.07086614173228346
        },
        {
          "duration": 0.11413018749999981,
          "durationTicks": 168,
          "midi": 46,
          "name": "A#2",
          "ticks": 9408,
          "time": 6.3912905,
          "velocity": 0.07086614173228346
        },
        {
          "duration": 0.1141301875000007,
          "durationTicks": 168,
          "midi": 62,
          "name": "D4",
          "ticks": 9600,
          "time": 6.521725,
          "velocity": 0.07086614173228346
        },
        {
          "duration": 0.11413018749999981,
          "durationTicks": 168,
          "midi": 57,
          "name": "A3",
          "ticks": 9984,
          "time": 6.7825940000000005,
          "velocity": 0.07086614173228346
        },
        {
          "duration": 0.11413018749999981,
          "durationTicks": 168,
          "midi": 56,
          "name": "G#3",
          "ticks": 10560,
          "time": 7.173897500000001,
          "velocity": 0.07086614173228346
        },
        {
          "duration": 0.11413018749999981,
          "durationTicks": 168,
          "midi": 55,
          "name": "G3",
          "ticks": 10944,
          "time": 7.4347665,
          "velocity": 0.07086614173228346
        },
        {
          "duration": 0.11413018749999981,
          "durationTicks": 168,
          "midi": 53,
          "name": "F3",
          "ticks": 11328,
          "time": 7.695635500000001,
          "velocity": 0.07086614173228346
        },
        {
          "duration": 0.11413018749999981,
          "durationTicks": 168,
          "midi": 50,
          "name": "D3",
          "ticks": 11712,
          "time": 7.9565045,
          "velocity": 0.07086614173228346
        },
        {
          "duration": 0.11413018749999893,
          "durationTicks": 168,
          "midi": 53,
          "name": "F3",
          "ticks": 11904,
          "time": 8.086939000000001,
          "velocity": 0.07086614173228346
        },
        {
          "duration": 0.11413018749999893,
          "durationTicks": 168,
          "midi": 55,
          "name": "G3",
          "ticks": 12096,
          "time": 8.2173735,
          "velocity": 0.07086614173228346
        },
        {
          "duration": 0.1141301875000007,
          "durationTicks": 168,
          "midi": 50,
          "name": "D3",
          "ticks": 12288,
          "time": 8.347808,
          "velocity": 0.07086614173228346
        },
        {
          "duration": 0.1141301875000007,
          "durationTicks": 168,
          "midi": 50,
          "name": "D3",
          "ticks": 12480,
          "time": 8.4782425,
          "velocity": 0.07086614173228346
        },
        {
          "duration": 0.1141301875000007,
          "durationTicks": 168,
          "midi": 62,
          "name": "D4",
          "ticks": 12672,
          "time": 8.608677,
          "velocity": 0.07086614173228346
        },
        {
          "duration": 0.1141301875000007,
          "durationTicks": 168,
          "midi": 57,
          "name": "A3",
          "ticks": 13056,
          "time": 8.869546,
          "velocity": 0.07086614173228346
        },
        {
          "duration": 0.11413018749999893,
          "durationTicks": 168,
          "midi": 56,
          "name": "G#3",
          "ticks": 13632,
          "time": 9.2608495,
          "velocity": 0.07086614173228346
        },
        {
          "duration": 0.1141301875000007,
          "durationTicks": 168,
          "midi": 55,
          "name": "G3",
          "ticks": 14016,
          "time": 9.5217185,
          "velocity": 0.07086614173228346
        },
        {
          "duration": 0.1141301875000007,
          "durationTicks": 168,
          "midi": 53,
          "name": "F3",
          "ticks": 14400,
          "time": 9.7825875,
          "velocity": 0.07086614173228346
        },
        {
          "duration": 0.11413018749999893,
          "durationTicks": 168,
          "midi": 50,
          "name": "D3",
          "ticks": 14784,
          "time": 10.043456500000001,
          "velocity": 0.07086614173228346
        },
        {
          "duration": 0.11413018749999893,
          "durationTicks": 168,
          "midi": 53,
          "name": "F3",
          "ticks": 14976,
          "time": 10.173891000000001,
          "velocity": 0.07086614173228346
        },
        {
          "duration": 0.11413018749999893,
          "durationTicks": 168,
          "midi": 55,
          "name": "G3",
          "ticks": 15168,
          "time": 10.304325500000001,
          "velocity": 0.07086614173228346
        },
        {
          "duration": 0.1141301875000007,
          "durationTicks": 168,
          "midi": 48,
          "name": "C3",
          "ticks": 15360,
          "time": 10.43476,
          "velocity": 0.07086614173228346
        },
        {
          "duration": 0.1141301875000007,
          "durationTicks": 168,
          "midi": 48,
          "name": "C3",
          "ticks": 15552,
          "time": 10.5651945,
          "velocity": 0.07086614173228346
        },
        {
          "duration": 0.1141301875000007,
          "durationTicks": 168,
          "midi": 62,
          "name": "D4",
          "ticks": 15744,
          "time": 10.695629,
          "velocity": 0.07086614173228346
        },
        {
          "duration": 0.1141301875000007,
          "durationTicks": 168,
          "midi": 57,
          "name": "A3",
          "ticks": 16128,
          "time": 10.956498,
          "velocity": 0.07086614173228346
        },
        {
          "duration": 0.11413018749999893,
          "durationTicks": 168,
          "midi": 56,
          "name": "G#3",
          "ticks": 16704,
          "time": 11.347801500000001,
          "velocity": 0.07086614173228346
        },
        {
          "duration": 0.1141301875000007,
          "durationTicks": 168,
          "midi": 55,
          "name": "G3",
          "ticks": 17088,
          "time": 11.6086705,
          "velocity": 0.07086614173228346
        },
        {
          "duration": 0.1141301875000007,
          "durationTicks": 168,
          "midi": 53,
          "name": "F3",
          "ticks": 17472,
          "time": 11.8695395,
          "velocity": 0.07086614173228346
        },
        {
          "duration": 0.11413018749999893,
          "durationTicks": 168,
          "midi": 50,
          "name": "D3",
          "ticks": 17856,
          "time": 12.130408500000001,
          "velocity": 0.07086614173228346
        },
        {
          "duration": 0.11413018749999893,
          "durationTicks": 168,
          "midi": 53,
          "name": "F3",
          "ticks": 18048,
          "time": 12.260843000000001,
          "velocity": 0.07086614173228346
        },
        {
          "duration": 0.11413018749999893,
          "durationTicks": 168,
          "midi": 55,
          "name": "G3",
          "ticks": 18240,
          "time": 12.391277500000001,
          "velocity": 0.07086614173228346
        },
        {
          "duration": 0.1141301875000007,
          "durationTicks": 168,
          "midi": 47,
          "name": "B2",
          "ticks": 18432,
          "time": 12.521712,
          "velocity": 0.07086614173228346
        },
        {
          "duration": 0.1141301875000007,
          "durationTicks": 168,
          "midi": 47,
          "name": "B2",
          "ticks": 18624,
          "time": 12.6521465,
          "velocity": 0.07086614173228346
        },
        {
          "duration": 0.1141301875000007,
          "durationTicks": 168,
          "midi": 62,
          "name": "D4",
          "ticks": 18816,
          "time": 12.782581,
          "velocity": 0.07086614173228346
        },
        {
          "duration": 0.1141301875000007,
          "durationTicks": 168,
          "midi": 57,
          "name": "A3",
          "ticks": 19200,
          "time": 13.04345,
          "velocity": 0.07086614173228346
        },
        {
          "duration": 0.11413018749999893,
          "durationTicks": 168,
          "midi": 56,
          "name": "G#3",
          "ticks": 19776,
          "time": 13.434753500000001,
          "velocity": 0.07086614173228346
        },
        {
          "duration": 0.1141301875000007,
          "durationTicks": 168,
          "midi": 55,
          "name": "G3",
          "ticks": 20160,
          "time": 13.6956225,
          "velocity": 0.07086614173228346
        },
        {
          "duration": 0.1141301875000007,
          "durationTicks": 168,
          "midi": 53,
          "name": "F3",
          "ticks": 20544,
          "time": 13.9564915,
          "velocity": 0.07086614173228346
        },
        {
          "duration": 0.11413018749999893,
          "durationTicks": 168,
          "midi": 50,
          "name": "D3",
          "ticks": 20928,
          "time": 14.217360500000002,
          "velocity": 0.07086614173228346
        },
        {
          "duration": 0.11413018749999893,
          "durationTicks": 168,
          "midi": 53,
          "name": "F3",
          "ticks": 21120,
          "time": 14.347795000000001,
          "velocity": 0.07086614173228346
        },
        {
          "duration": 0.11413018749999893,
          "durationTicks": 168,
          "midi": 55,
          "name": "G3",
          "ticks": 21312,
          "time": 14.478229500000001,
          "velocity": 0.07086614173228346
        },
        {
          "duration": 0.1141301875000007,
          "durationTicks": 168,
          "midi": 46,
          "name": "A#2",
          "ticks": 21504,
          "time": 14.608664000000001,
          "velocity": 0.07086614173228346
        },
        {
          "duration": 0.1141301875000007,
          "durationTicks": 168,
          "midi": 46,
          "name": "A#2",
          "ticks": 21696,
          "time": 14.7390985,
          "velocity": 0.07086614173228346
        },
        {
          "duration": 0.1141301875000007,
          "durationTicks": 168,
          "midi": 62,
          "name": "D4",
          "ticks": 21888,
          "time": 14.869533,
          "velocity": 0.07086614173228346
        },
        {
          "duration": 0.1141301875000007,
          "durationTicks": 168,
          "midi": 57,
          "name": "A3",
          "ticks": 22272,
          "time": 15.130402,
          "velocity": 0.07086614173228346
        },
        {
          "duration": 0.11413018749999893,
          "durationTicks": 168,
          "midi": 56,
          "name": "G#3",
          "ticks": 22848,
          "time": 15.521705500000001,
          "velocity": 0.07086614173228346
        },
        {
          "duration": 0.1141301875000007,
          "durationTicks": 168,
          "midi": 55,
          "name": "G3",
          "ticks": 23232,
          "time": 15.7825745,
          "velocity": 0.07086614173228346
        },
        {
          "duration": 0.11413018749999893,
          "durationTicks": 168,
          "midi": 53,
          "name": "F3",
          "ticks": 23616,
          "time": 16.043443500000002,
          "velocity": 0.07086614173228346
        },
        {
          "duration": 0.11413018749999893,
          "durationTicks": 168,
          "midi": 50,
          "name": "D3",
          "ticks": 24000,
          "time": 16.3043125,
          "velocity": 0.07086614173228346
        },
        {
          "duration": 0.11413018749999893,
          "durationTicks": 168,
          "midi": 53,
          "name": "F3",
          "ticks": 24192,
          "time": 16.434747,
          "velocity": 0.07086614173228346
        },
        {
          "duration": 0.11413018749999893,
          "durationTicks": 168,
          "midi": 55,
          "name": "G3",
          "ticks": 24384,
          "time": 16.5651815,
          "velocity": 0.07086614173228346
        },
        {
          "duration": 0.11413018749999893,
          "durationTicks": 168,
          "midi": 62,
          "name": "D4",
          "ticks": 24576,
          "time": 16.695616,
          "velocity": 0.07086614173228346
        },
        {
          "duration": 0.11413018749999893,
          "durationTicks": 168,
          "midi": 62,
          "name": "D4",
          "ticks": 24768,
          "time": 16.8260505,
          "velocity": 0.07086614173228346
        },
        {
          "duration": 0.11413018749999893,
          "durationTicks": 168,
          "midi": 74,
          "name": "D5",
          "ticks": 24960,
          "time": 16.956485,
          "velocity": 0.07086614173228346
        },
        {
          "duration": 0.11413018750000248,
          "durationTicks": 168,
          "midi": 69,
          "name": "A4",
          "ticks": 25344,
          "time": 17.217354,
          "velocity": 0.07086614173228346
        },
        {
          "duration": 0.11413018750000248,
          "durationTicks": 168,
          "midi": 68,
          "name": "G#4",
          "ticks": 25920,
          "time": 17.6086575,
          "velocity": 0.07086614173228346
        },
        {
          "duration": 0.11413018749999893,
          "durationTicks": 168,
          "midi": 67,
          "name": "G4",
          "ticks": 26304,
          "time": 17.869526500000003,
          "velocity": 0.07086614173228346
        },
        {
          "duration": 0.11413018749999893,
          "durationTicks": 168,
          "midi": 65,
          "name": "F4",
          "ticks": 26688,
          "time": 18.130395500000002,
          "velocity": 0.07086614173228346
        },
        {
          "duration": 0.11413018749999893,
          "durationTicks": 168,
          "midi": 62,
          "name": "D4",
          "ticks": 27072,
          "time": 18.391264500000002,
          "velocity": 0.07086614173228346
        },
        {
          "duration": 0.11413018749999893,
          "durationTicks": 168,
          "midi": 65,
          "name": "F4",
          "ticks": 27264,
          "time": 18.521699,
          "velocity": 0.07086614173228346
        },
        {
          "duration": 0.11413018749999893,
          "durationTicks": 168,
          "midi": 67,
          "name": "G4",
          "ticks": 27456,
          "time": 18.6521335,
          "velocity": 0.07086614173228346
        },
        {
          "duration": 0.11413018749999893,
          "durationTicks": 168,
          "midi": 60,
          "name": "C4",
          "ticks": 27648,
          "time": 18.782568,
          "velocity": 0.07086614173228346
        },
        {
          "duration": 0.11413018749999893,
          "durationTicks": 168,
          "midi": 60,
          "name": "C4",
          "ticks": 27840,
          "time": 18.9130025,
          "velocity": 0.07086614173228346
        },
        {
          "duration": 0.11413018749999893,
          "durationTicks": 168,
          "midi": 74,
          "name": "D5",
          "ticks": 28032,
          "time": 19.043437,
          "velocity": 0.07086614173228346
        },
        {
          "duration": 0.11413018750000248,
          "durationTicks": 168,
          "midi": 69,
          "name": "A4",
          "ticks": 28416,
          "time": 19.304306,
          "velocity": 0.07086614173228346
        },
        {
          "duration": 0.11413018750000248,
          "durationTicks": 168,
          "midi": 68,
          "name": "G#4",
          "ticks": 28992,
          "time": 19.6956095,
          "velocity": 0.07086614173228346
        },
        {
          "duration": 0.11413018749999893,
          "durationTicks": 168,
          "midi": 67,
          "name": "G4",
          "ticks": 29376,
          "time": 19.956478500000003,
          "velocity": 0.07086614173228346
        },
        {
          "duration": 0.11413018749999893,
          "durationTicks": 168,
          "midi": 65,
          "name": "F4",
          "ticks": 29760,
          "time": 20.217347500000002,
          "velocity": 0.07086614173228346
        },
        {
          "duration": 0.11413018749999893,
          "durationTicks": 168,
          "midi": 62,
          "name": "D4",
          "ticks": 30144,
          "time": 20.478216500000002,
          "velocity": 0.07086614173228346
        },
        {
          "duration": 0.11413018749999893,
          "durationTicks": 168,
          "midi": 65,
          "name": "F4",
          "ticks": 30336,
          "time": 20.608651000000002,
          "velocity": 0.07086614173228346
        },
        {
          "duration": 0.11413018749999893,
          "durationTicks": 168,
          "midi": 67,
          "name": "G4",
          "ticks": 30528,
          "time": 20.7390855,
          "velocity": 0.07086614173228346
        },
        {
          "duration": 0.11413018749999893,
          "durationTicks": 168,
          "midi": 59,
          "name": "B3",
          "ticks": 30720,
          "time": 20.86952,
          "velocity": 0.07086614173228346
        },
        {
          "duration": 0.11413018749999893,
          "durationTicks": 168,
          "midi": 59,
          "name": "B3",
          "ticks": 30912,
          "time": 20.9999545,
          "velocity": 0.07086614173228346
        },
        {
          "duration": 0.11413018749999893,
          "durationTicks": 168,
          "midi": 74,
          "name": "D5",
          "ticks": 31104,
          "time": 21.130389,
          "velocity": 0.07086614173228346
        },
        {
          "duration": 0.11413018750000248,
          "durationTicks": 168,
          "midi": 69,
          "name": "A4",
          "ticks": 31488,
          "time": 21.391258,
          "velocity": 0.07086614173228346
        },
        {
          "duration": 0.11413018750000248,
          "durationTicks": 168,
          "midi": 68,
          "name": "G#4",
          "ticks": 32064,
          "time": 21.7825615,
          "velocity": 0.07086614173228346
        },
        {
          "duration": 0.11413018749999893,
          "durationTicks": 168,
          "midi": 67,
          "name": "G4",
          "ticks": 32448,
          "time": 22.043430500000003,
          "velocity": 0.07086614173228346
        },
        {
          "duration": 0.11413018749999893,
          "durationTicks": 168,
          "midi": 65,
          "name": "F4",
          "ticks": 32832,
          "time": 22.304299500000003,
          "velocity": 0.07086614173228346
        },
        {
          "duration": 0.11413018749999893,
          "durationTicks": 168,
          "midi": 62,
          "name": "D4",
          "ticks": 33216,
          "time": 22.565168500000002,
          "velocity": 0.07086614173228346
        },
        {
          "duration": 0.11413018749999893,
          "durationTicks": 168,
          "midi": 65,
          "name": "F4",
          "ticks": 33408,
          "time": 22.695603000000002,
          "velocity": 0.07086614173228346
        },
        {
          "duration": 0.11413018749999893,
          "durationTicks": 168,
          "midi": 67,
          "name": "G4",
          "ticks": 33600,
          "time": 22.8260375,
          "velocity": 0.07086614173228346
        },
        {
          "duration": 0.11413018749999893,
          "durationTicks": 168,
          "midi": 58,
          "name": "A#3",
          "ticks": 33792,
          "time": 22.956472,
          "velocity": 0.07086614173228346
        },
        {
          "duration": 0.11413018749999893,
          "durationTicks": 168,
          "midi": 58,
          "name": "A#3",
          "ticks": 33984,
          "time": 23.0869065,
          "velocity": 0.07086614173228346
        },
        {
          "duration": 0.11413018749999893,
          "durationTicks": 168,
          "midi": 74,
          "name": "D5",
          "ticks": 34176,
          "time": 23.217341,
          "velocity": 0.07086614173228346
        },
        {
          "duration": 0.11413018750000248,
          "durationTicks": 168,
          "midi": 69,
          "name": "A4",
          "ticks": 34560,
          "time": 23.47821,
          "velocity": 0.07086614173228346
        },
        {
          "duration": 0.11413018750000248,
          "durationTicks": 168,
          "midi": 68,
          "name": "G#4",
          "ticks": 35136,
          "time": 23.8695135,
          "velocity": 0.07086614173228346
        },
        {
          "duration": 0.11413018749999893,
          "durationTicks": 168,
          "midi": 67,
          "name": "G4",
          "ticks": 35520,
          "time": 24.130382500000003,
          "velocity": 0.07086614173228346
        },
        {
          "duration": 0.11413018749999893,
          "durationTicks": 168,
          "midi": 65,
          "name": "F4",
          "ticks": 35904,
          "time": 24.391251500000003,
          "velocity": 0.07086614173228346
        },
        {
          "duration": 0.11413018749999893,
          "durationTicks": 168,
          "midi": 62,
          "name": "D4",
          "ticks": 36288,
          "time": 24.652120500000002,
          "velocity": 0.07086614173228346
        },
        {
          "duration": 0.11413018749999893,
          "durationTicks": 168,
          "midi": 65,
          "name": "F4",
          "ticks": 36480,
          "time": 24.782555000000002,
          "velocity": 0.07086614173228346
        },
        {
          "duration": 0.11413018749999893,
          "durationTicks": 168,
          "midi": 67,
          "name": "G4",
          "ticks": 36672,
          "time": 24.912989500000002,
          "velocity": 0.07086614173228346
        },
        {
          "duration": 0.11413018749999893,
          "durationTicks": 168,
          "midi": 62,
          "name": "D4",
          "ticks": 36864,
          "time": 25.043424,
          "velocity": 0.07086614173228346
        },
        {
          "duration": 0.11413018749999893,
          "durationTicks": 168,
          "midi": 62,
          "name": "D4",
          "ticks": 37056,
          "time": 25.1738585,
          "velocity": 0.07086614173228346
        },
        {
          "duration": 0.11413018749999893,
          "durationTicks": 168,
          "midi": 74,
          "name": "D5",
          "ticks": 37248,
          "time": 25.304293,
          "velocity": 0.07086614173228346
        },
        {
          "duration": 0.11413018750000248,
          "durationTicks": 168,
          "midi": 69,
          "name": "A4",
          "ticks": 37632,
          "time": 25.565162,
          "velocity": 0.07086614173228346
        },
        {
          "duration": 0.11413018750000248,
          "durationTicks": 168,
          "midi": 68,
          "name": "G#4",
          "ticks": 38208,
          "time": 25.9564655,
          "velocity": 0.07086614173228346
        },
        {
          "duration": 0.11413018749999893,
          "durationTicks": 168,
          "midi": 67,
          "name": "G4",
          "ticks": 38592,
          "time": 26.217334500000003,
          "velocity": 0.07086614173228346
        },
        {
          "duration": 0.11413018749999893,
          "durationTicks": 168,
          "midi": 65,
          "name": "F4",
          "ticks": 38976,
          "time": 26.478203500000003,
          "velocity": 0.07086614173228346
        },
        {
          "duration": 0.11413018749999893,
          "durationTicks": 168,
          "midi": 62,
          "name": "D4",
          "ticks": 39360,
          "time": 26.739072500000002,
          "velocity": 0.07086614173228346
        },
        {
          "duration": 0.11413018749999893,
          "durationTicks": 168,
          "midi": 65,
          "name": "F4",
          "ticks": 39552,
          "time": 26.869507000000002,
          "velocity": 0.07086614173228346
        },
        {
          "duration": 0.11413018749999893,
          "durationTicks": 168,
          "midi": 67,
          "name": "G4",
          "ticks": 39744,
          "time": 26.999941500000002,
          "velocity": 0.07086614173228346
        },
        {
          "duration": 0.11413018749999893,
          "durationTicks": 168,
          "midi": 60,
          "name": "C4",
          "ticks": 39936,
          "time": 27.130376000000002,
          "velocity": 0.07086614173228346
        },
        {
          "duration": 0.11413018749999893,
          "durationTicks": 168,
          "midi": 60,
          "name": "C4",
          "ticks": 40128,
          "time": 27.2608105,
          "velocity": 0.07086614173228346
        },
        {
          "duration": 0.11413018749999893,
          "durationTicks": 168,
          "midi": 74,
          "name": "D5",
          "ticks": 40320,
          "time": 27.391245,
          "velocity": 0.07086614173228346
        },
        {
          "duration": 0.11413018750000248,
          "durationTicks": 168,
          "midi": 69,
          "name": "A4",
          "ticks": 40704,
          "time": 27.652114,
          "velocity": 0.07086614173228346
        },
        {
          "duration": 0.11413018750000248,
          "durationTicks": 168,
          "midi": 68,
          "name": "G#4",
          "ticks": 41280,
          "time": 28.0434175,
          "velocity": 0.07086614173228346
        },
        {
          "duration": 0.11413018749999893,
          "durationTicks": 168,
          "midi": 67,
          "name": "G4",
          "ticks": 41664,
          "time": 28.304286500000003,
          "velocity": 0.07086614173228346
        },
        {
          "duration": 0.11413018749999893,
          "durationTicks": 168,
          "midi": 65,
          "name": "F4",
          "ticks": 42048,
          "time": 28.565155500000003,
          "velocity": 0.07086614173228346
        },
        {
          "duration": 0.11413018749999893,
          "durationTicks": 168,
          "midi": 62,
          "name": "D4",
          "ticks": 42432,
          "time": 28.826024500000003,
          "velocity": 0.07086614173228346
        },
        {
          "duration": 0.11413018749999893,
          "durationTicks": 168,
          "midi": 65,
          "name": "F4",
          "ticks": 42624,
          "time": 28.956459000000002,
          "velocity": 0.07086614173228346
        },
        {
          "duration": 0.11413018749999893,
          "durationTicks": 168,
          "midi": 67,
          "name": "G4",
          "ticks": 42816,
          "time": 29.086893500000002,
          "velocity": 0.07086614173228346
        },
        {
          "duration": 0.11413018749999893,
          "durationTicks": 168,
          "midi": 59,
          "name": "B3",
          "ticks": 43008,
          "time": 29.217328000000002,
          "velocity": 0.07086614173228346
        },
        {
          "duration": 0.11413018749999893,
          "durationTicks": 168,
          "midi": 59,
          "name": "B3",
          "ticks": 43200,
          "time": 29.3477625,
          "velocity": 0.07086614173228346
        },
        {
          "duration": 0.11413018749999893,
          "durationTicks": 168,
          "midi": 74,
          "name": "D5",
          "ticks": 43392,
          "time": 29.478197,
          "velocity": 0.07086614173228346
        },
        {
          "duration": 0.11413018750000248,
          "durationTicks": 168,
          "midi": 69,
          "name": "A4",
          "ticks": 43776,
          "time": 29.739066,
          "velocity": 0.07086614173228346
        },
        {
          "duration": 0.11413018750000248,
          "durationTicks": 168,
          "midi": 68,
          "name": "G#4",
          "ticks": 44352,
          "time": 30.1303695,
          "velocity": 0.07086614173228346
        },
        {
          "duration": 0.11413018749999893,
          "durationTicks": 168,
          "midi": 67,
          "name": "G4",
          "ticks": 44736,
          "time": 30.391238500000004,
          "velocity": 0.07086614173228346
        },
        {
          "duration": 0.11413018749999893,
          "durationTicks": 168,
          "midi": 65,
          "name": "F4",
          "ticks": 45120,
          "time": 30.652107500000003,
          "velocity": 0.07086614173228346
        },
        {
          "duration": 0.11413018749999893,
          "durationTicks": 168,
          "midi": 62,
          "name": "D4",
          "ticks": 45504,
          "time": 30.912976500000003,
          "velocity": 0.07086614173228346
        },
        {
          "duration": 0.11413018749999893,
          "durationTicks": 168,
          "midi": 65,
          "name": "F4",
          "ticks": 45696,
          "time": 31.043411000000003,
          "velocity": 0.07086614173228346
        },
        {
          "duration": 0.11413018749999893,
          "durationTicks": 168,
          "midi": 67,
          "name": "G4",
          "ticks": 45888,
          "time": 31.173845500000002,
          "velocity": 0.07086614173228346
        },
        {
          "duration": 0.11413018749999893,
          "durationTicks": 168,
          "midi": 58,
          "name": "A#3",
          "ticks": 46080,
          "time": 31.304280000000002,
          "velocity": 0.07086614173228346
        },
        {
          "duration": 0.11413018749999893,
          "durationTicks": 168,
          "midi": 58,
          "name": "A#3",
          "ticks": 46272,
          "time": 31.434714500000002,
          "velocity": 0.07086614173228346
        },
        {
          "duration": 0.11413018749999893,
          "durationTicks": 168,
          "midi": 74,
          "name": "D5",
          "ticks": 46464,
          "time": 31.565149,
          "velocity": 0.07086614173228346
        },
        {
          "duration": 0.11413018750000248,
          "durationTicks": 168,
          "midi": 69,
          "name": "A4",
          "ticks": 46848,
          "time": 31.826018,
          "velocity": 0.07086614173228346
        },
        {
          "duration": 0.11413018749999537,
          "durationTicks": 168,
          "midi": 68,
          "name": "G#4",
          "ticks": 47424,
          "time": 32.217321500000004,
          "velocity": 0.07086614173228346
        },
        {
          "duration": 0.11413018749999537,
          "durationTicks": 168,
          "midi": 67,
          "name": "G4",
          "ticks": 47808,
          "time": 32.478190500000004,
          "velocity": 0.07086614173228346
        },
        {
          "duration": 0.11413018749999537,
          "durationTicks": 168,
          "midi": 65,
          "name": "F4",
          "ticks": 48192,
          "time": 32.7390595,
          "velocity": 0.07086614173228346
        },
        {
          "duration": 0.11413018750000248,
          "durationTicks": 168,
          "midi": 62,
          "name": "D4",
          "ticks": 48576,
          "time": 32.9999285,
          "velocity": 0.07086614173228346
        },
        {
          "duration": 0.11413018750000248,
          "durationTicks": 168,
          "midi": 65,
          "name": "F4",
          "ticks": 48768,
          "time": 33.130363,
          "velocity": 0.07086614173228346
        }
      ],
      "endOfTrackTicks": 48936
    }
  ]
}
