{
  "header": {
    "keySignatures": [],
    "meta": [],
    "name": "Electric Drum Kit",
    "ppq": 384,
    "tempos": [
      {
        "bpm": 113.00009605008164,
        "ticks": 0
      }
    ],
    "timeSignatures": [
      {
        "ticks": 0,
        "timeSignature": [4, 4],
        "measures": 0
      }
    ]
  },
  "tracks": [
    {
      "channel": 9,
      "controlChanges": {},
      "pitchBends": [],
      "instrument": {
        "family": "drums",
        "number": 0,
        "name": "standard kit"
      },
      "name": "Electric Drum Kit",
      "notes": [
        {
          "duration": 0.13274324999999998,
          "durationTicks": 96,
          "midi": 48,
          "name": "C3",
          "ticks": 576,
          "time": 0.7964595000000001,
          "velocity": 0.4330708661417323
        },
        {
          "duration": 0.13274324999999998,
          "durationTicks": 96,
          "midi": 48,
          "name": "C3",
          "ticks": 672,
          "time": 0.9292027500000001,
          "velocity": 0.4330708661417323
        },
        {
          "duration": 0.13274324999999987,
          "durationTicks": 96,
          "midi": 48,
          "name": "C3",
          "ticks": 864,
          "time": 1.1946892500000001,
          "velocity": 0.4330708661417323
        },
        {
          "duration": 0.1327432500000001,
          "durationTicks": 96,
          "midi": 48,
          "name": "C3",
          "ticks": 960,
          "time": 1.3274325,
          "velocity": 0.4330708661417323
        },
        {
          "duration": 0.1327432500000001,
          "durationTicks": 96,
          "midi": 48,
          "name": "C3",
          "ticks": 1056,
          "time": 1.46017575,
          "velocity": 0.4330708661417323
        },
        {
          "duration": 0.13274324999999987,
          "durationTicks": 96,
          "midi": 45,
          "name": "A2",
          "ticks": 1152,
          "time": 1.5929190000000002,
          "velocity": 0.4330708661417323
        },
        {
          "duration": 0.1327432500000001,
          "durationTicks": 96,
          "midi": 45,
          "name": "A2",
          "ticks": 1248,
          "time": 1.72566225,
          "velocity": 0.4330708661417323
        },
        {
          "duration": 0.13274324999999987,
          "durationTicks": 96,
          "midi": 41,
          "name": "F2",
          "ticks": 1344,
          "time": 1.8584055000000002,
          "velocity": 0.4330708661417323
        },
        {
          "duration": 0.1327432500000001,
          "durationTicks": 96,
          "midi": 41,
          "name": "F2",
          "ticks": 1440,
          "time": 1.99114875,
          "velocity": 0.4330708661417323
        },
        {
          "duration": 0.13274324999999987,
          "durationTicks": 96,
          "midi": 36,
          "name": "C2",
          "ticks": 1536,
          "time": 2.123892,
          "velocity": 0.4330708661417323
        },
        {
          "duration": 0.13274324999999987,
          "durationTicks": 96,
          "midi": 42,
          "name": "F#2",
          "ticks": 1536,
          "time": 2.123892,
          "velocity": 0.4330708661417323
        },
        {
          "duration": 0.13274324999999987,
          "durationTicks": 96,
          "midi": 42,
          "name": "F#2",
          "ticks": 1728,
          "time": 2.3893785000000003,
          "velocity": 0.4330708661417323
        },
        {
          "duration": 0.13274324999999987,
          "durationTicks": 96,
          "midi": 42,
          "name": "F#2",
          "ticks": 1824,
          "time": 2.52212175,
          "velocity": 0.4330708661417323
        },
        {
          "duration": 0.1327432500000003,
          "durationTicks": 96,
          "midi": 39,
          "name": "D#2",
          "ticks": 1920,
          "time": 2.654865,
          "velocity": 0.4330708661417323
        },
        {
          "duration": 0.1327432500000003,
          "durationTicks": 96,
          "midi": 36,
          "name": "C2",
          "ticks": 1920,
          "time": 2.654865,
          "velocity": 0.4330708661417323
        },
        {
          "duration": 0.1327432500000003,
          "durationTicks": 96,
          "midi": 38,
          "name": "D2",
          "ticks": 1920,
          "time": 2.654865,
          "velocity": 0.4330708661417323
        },
        {
          "duration": 0.1327432500000003,
          "durationTicks": 96,
          "midi": 42,
          "name": "F#2",
          "ticks": 1920,
          "time": 2.654865,
          "velocity": 0.4330708661417323
        },
        {
          "duration": 0.13274324999999987,
          "durationTicks": 96,
          "midi": 42,
          "name": "F#2",
          "ticks": 2112,
          "time": 2.9203515,
          "velocity": 0.4330708661417323
        },
        {
          "duration": 0.1327432500000003,
          "durationTicks": 96,
          "midi": 42,
          "name": "F#2",
          "ticks": 2208,
          "time": 3.05309475,
          "velocity": 0.4330708661417323
        },
        {
          "duration": 0.13274324999999987,
          "durationTicks": 96,
          "midi": 36,
          "name": "C2",
          "ticks": 2304,
          "time": 3.1858380000000004,
          "velocity": 0.4330708661417323
        },
        {
          "duration": 0.13274324999999987,
          "durationTicks": 96,
          "midi": 42,
          "name": "F#2",
          "ticks": 2304,
          "time": 3.1858380000000004,
          "velocity": 0.4330708661417323
        },
        {
          "duration": 0.13274324999999987,
          "durationTicks": 96,
          "midi": 42,
          "name": "F#2",
          "ticks": 2496,
          "time": 3.4513245,
          "velocity": 0.4330708661417323
        },
        {
          "duration": 0.1327432500000003,
          "durationTicks": 96,
          "midi": 42,
          "name": "F#2",
          "ticks": 2592,
          "time": 3.58406775,
          "velocity": 0.4330708661417323
        },
        {
          "duration": 0.13274324999999987,
          "durationTicks": 96,
          "midi": 39,
          "name": "D#2",
          "ticks": 2688,
          "time": 3.7168110000000003,
          "velocity": 0.4330708661417323
        },
        {
          "duration": 0.13274324999999987,
          "durationTicks": 96,
          "midi": 36,
          "name": "C2",
          "ticks": 2688,
          "time": 3.7168110000000003,
          "velocity": 0.4330708661417323
        },
        {
          "duration": 0.13274324999999987,
          "durationTicks": 96,
          "midi": 38,
          "name": "D2",
          "ticks": 2688,
          "time": 3.7168110000000003,
          "velocity": 0.4330708661417323
        },
        {
          "duration": 0.13274324999999987,
          "durationTicks": 96,
          "midi": 42,
          "name": "F#2",
          "ticks": 2688,
          "time": 3.7168110000000003,
          "velocity": 0.4330708661417323
        },
        {
          "duration": 0.1327432500000003,
          "durationTicks": 96,
          "midi": 42,
          "name": "F#2",
          "ticks": 2880,
          "time": 3.9822975,
          "velocity": 0.4330708661417323
        },
        {
          "duration": 0.13274324999999987,
          "durationTicks": 96,
          "midi": 42,
          "name": "F#2",
          "ticks": 2976,
          "time": 4.11504075,
          "velocity": 0.4330708661417323
        },
        {
          "duration": 0.13274324999999987,
          "durationTicks": 96,
          "midi": 36,
          "name": "C2",
          "ticks": 3072,
          "time": 4.247784,
          "velocity": 0.4330708661417323
        },
        {
          "duration": 0.13274324999999987,
          "durationTicks": 96,
          "midi": 42,
          "name": "F#2",
          "ticks": 3072,
          "time": 4.247784,
          "velocity": 0.4330708661417323
        },
        {
          "duration": 0.13274324999999987,
          "durationTicks": 96,
          "midi": 42,
          "name": "F#2",
          "ticks": 3264,
          "time": 4.5132705,
          "velocity": 0.4330708661417323
        },
        {
          "duration": 0.13274325000000076,
          "durationTicks": 96,
          "midi": 42,
          "name": "F#2",
          "ticks": 3360,
          "time": 4.64601375,
          "velocity": 0.4330708661417323
        },
        {
          "duration": 0.13274324999999987,
          "durationTicks": 96,
          "midi": 39,
          "name": "D#2",
          "ticks": 3456,
          "time": 4.778757000000001,
          "velocity": 0.4330708661417323
        },
        {
          "duration": 0.13274324999999987,
          "durationTicks": 96,
          "midi": 36,
          "name": "C2",
          "ticks": 3456,
          "time": 4.778757000000001,
          "velocity": 0.4330708661417323
        },
        {
          "duration": 0.13274324999999987,
          "durationTicks": 96,
          "midi": 38,
          "name": "D2",
          "ticks": 3456,
          "time": 4.778757000000001,
          "velocity": 0.4330708661417323
        },
        {
          "duration": 0.13274324999999987,
          "durationTicks": 96,
          "midi": 42,
          "name": "F#2",
          "ticks": 3456,
          "time": 4.778757000000001,
          "velocity": 0.4330708661417323
        },
        {
          "duration": 0.13274324999999987,
          "durationTicks": 96,
          "midi": 42,
          "name": "F#2",
          "ticks": 3648,
          "time": 5.0442435,
          "velocity": 0.4330708661417323
        },
        {
          "duration": 0.13274324999999987,
          "durationTicks": 96,
          "midi": 42,
          "name": "F#2",
          "ticks": 3744,
          "time": 5.17698675,
          "velocity": 0.4330708661417323
        },
        {
          "duration": 0.13274324999999987,
          "durationTicks": 96,
          "midi": 36,
          "name": "C2",
          "ticks": 3840,
          "time": 5.30973,
          "velocity": 0.4330708661417323
        },
        {
          "duration": 0.13274324999999987,
          "durationTicks": 96,
          "midi": 42,
          "name": "F#2",
          "ticks": 3840,
          "time": 5.30973,
          "velocity": 0.4330708661417323
        },
        {
          "duration": 0.13274324999999987,
          "durationTicks": 96,
          "midi": 42,
          "name": "F#2",
          "ticks": 4032,
          "time": 5.575216500000001,
          "velocity": 0.4330708661417323
        },
        {
          "duration": 0.13274324999999987,
          "durationTicks": 96,
          "midi": 42,
          "name": "F#2",
          "ticks": 4128,
          "time": 5.7079597500000006,
          "velocity": 0.4330708661417323
        },
        {
          "duration": 0.13274324999999987,
          "durationTicks": 96,
          "midi": 39,
          "name": "D#2",
          "ticks": 4224,
          "time": 5.840703,
          "velocity": 0.4330708661417323
        },
        {
          "duration": 0.13274324999999987,
          "durationTicks": 96,
          "midi": 36,
          "name": "C2",
          "ticks": 4224,
          "time": 5.840703,
          "velocity": 0.4330708661417323
        },
        {
          "duration": 0.13274324999999987,
          "durationTicks": 96,
          "midi": 38,
          "name": "D2",
          "ticks": 4224,
          "time": 5.840703,
          "velocity": 0.4330708661417323
        },
        {
          "duration": 0.13274324999999987,
          "durationTicks": 96,
          "midi": 42,
          "name": "F#2",
          "ticks": 4224,
          "time": 5.840703,
          "velocity": 0.4330708661417323
        },
        {
          "duration": 0.13274324999999987,
          "durationTicks": 96,
          "midi": 46,
          "name": "A#2",
          "ticks": 4416,
          "time": 6.1061895,
          "velocity": 0.4330708661417323
        },
        {
          "duration": 0.13274324999999987,
          "durationTicks": 96,
          "midi": 36,
          "name": "C2",
          "ticks": 4608,
          "time": 6.371676000000001,
          "velocity": 0.4330708661417323
        },
        {
          "duration": 0.13274324999999987,
          "durationTicks": 96,
          "midi": 42,
          "name": "F#2",
          "ticks": 4608,
          "time": 6.371676000000001,
          "velocity": 0.4330708661417323
        },
        {
          "duration": 0.13274324999999987,
          "durationTicks": 96,
          "midi": 42,
          "name": "F#2",
          "ticks": 4800,
          "time": 6.6371625000000005,
          "velocity": 0.4330708661417323
        },
        {
          "duration": 0.13274324999999987,
          "durationTicks": 96,
          "midi": 42,
          "name": "F#2",
          "ticks": 4896,
          "time": 6.76990575,
          "velocity": 0.4330708661417323
        },
        {
          "duration": 0.13274324999999987,
          "durationTicks": 96,
          "midi": 39,
          "name": "D#2",
          "ticks": 4992,
          "time": 6.902649,
          "velocity": 0.4330708661417323
        },
        {
          "duration": 0.13274324999999987,
          "durationTicks": 96,
          "midi": 36,
          "name": "C2",
          "ticks": 4992,
          "time": 6.902649,
          "velocity": 0.4330708661417323
        },
        {
          "duration": 0.13274324999999987,
          "durationTicks": 96,
          "midi": 38,
          "name": "D2",
          "ticks": 4992,
          "time": 6.902649,
          "velocity": 0.4330708661417323
        },
        {
          "duration": 0.13274324999999987,
          "durationTicks": 96,
          "midi": 42,
          "name": "F#2",
          "ticks": 4992,
          "time": 6.902649,
          "velocity": 0.4330708661417323
        },
        {
          "duration": 0.13274325000000076,
          "durationTicks": 96,
          "midi": 42,
          "name": "F#2",
          "ticks": 5184,
          "time": 7.1681355,
          "velocity": 0.4330708661417323
        },
        {
          "duration": 0.13274324999999987,
          "durationTicks": 96,
          "midi": 42,
          "name": "F#2",
          "ticks": 5280,
          "time": 7.300878750000001,
          "velocity": 0.4330708661417323
        },
        {
          "duration": 0.13274324999999987,
          "durationTicks": 96,
          "midi": 36,
          "name": "C2",
          "ticks": 5376,
          "time": 7.433622000000001,
          "velocity": 0.4330708661417323
        },
        {
          "duration": 0.13274324999999987,
          "durationTicks": 96,
          "midi": 42,
          "name": "F#2",
          "ticks": 5376,
          "time": 7.433622000000001,
          "velocity": 0.4330708661417323
        },
        {
          "duration": 0.13274324999999987,
          "durationTicks": 96,
          "midi": 42,
          "name": "F#2",
          "ticks": 5568,
          "time": 7.6991085,
          "velocity": 0.4330708661417323
        },
        {
          "duration": 0.13274324999999987,
          "durationTicks": 96,
          "midi": 42,
          "name": "F#2",
          "ticks": 5664,
          "time": 7.83185175,
          "velocity": 0.4330708661417323
        },
        {
          "duration": 0.13274324999999987,
          "durationTicks": 96,
          "midi": 39,
          "name": "D#2",
          "ticks": 5760,
          "time": 7.964595,
          "velocity": 0.4330708661417323
        },
        {
          "duration": 0.13274324999999987,
          "durationTicks": 96,
          "midi": 36,
          "name": "C2",
          "ticks": 5760,
          "time": 7.964595,
          "velocity": 0.4330708661417323
        },
        {
          "duration": 0.13274324999999987,
          "durationTicks": 96,
          "midi": 38,
          "name": "D2",
          "ticks": 5760,
          "time": 7.964595,
          "velocity": 0.4330708661417323
        },
        {
          "duration": 0.13274324999999987,
          "durationTicks": 96,
          "midi": 42,
          "name": "F#2",
          "ticks": 5760,
          "time": 7.964595,
          "velocity": 0.4330708661417323
        },
        {
          "duration": 0.13274324999999898,
          "durationTicks": 96,
          "midi": 42,
          "name": "F#2",
          "ticks": 5952,
          "time": 8.2300815,
          "velocity": 0.4330708661417323
        },
        {
          "duration": 0.13274325000000076,
          "durationTicks": 96,
          "midi": 42,
          "name": "F#2",
          "ticks": 6048,
          "time": 8.36282475,
          "velocity": 0.4330708661417323
        },
        {
          "duration": 0.13274325000000076,
          "durationTicks": 96,
          "midi": 36,
          "name": "C2",
          "ticks": 6144,
          "time": 8.495568,
          "velocity": 0.4330708661417323
        },
        {
          "duration": 0.13274325000000076,
          "durationTicks": 96,
          "midi": 42,
          "name": "F#2",
          "ticks": 6144,
          "time": 8.495568,
          "velocity": 0.4330708661417323
        },
        {
          "duration": 0.13274325000000076,
          "durationTicks": 96,
          "midi": 42,
          "name": "F#2",
          "ticks": 6336,
          "time": 8.7610545,
          "velocity": 0.4330708661417323
        },
        {
          "duration": 0.13274324999999898,
          "durationTicks": 96,
          "midi": 42,
          "name": "F#2",
          "ticks": 6432,
          "time": 8.893797750000001,
          "velocity": 0.4330708661417323
        },
        {
          "duration": 0.13274325000000076,
          "durationTicks": 96,
          "midi": 39,
          "name": "D#2",
          "ticks": 6528,
          "time": 9.026541,
          "velocity": 0.4330708661417323
        },
        {
          "duration": 0.13274325000000076,
          "durationTicks": 96,
          "midi": 36,
          "name": "C2",
          "ticks": 6528,
          "time": 9.026541,
          "velocity": 0.4330708661417323
        },
        {
          "duration": 0.13274325000000076,
          "durationTicks": 96,
          "midi": 38,
          "name": "D2",
          "ticks": 6528,
          "time": 9.026541,
          "velocity": 0.4330708661417323
        },
        {
          "duration": 0.13274325000000076,
          "durationTicks": 96,
          "midi": 42,
          "name": "F#2",
          "ticks": 6528,
          "time": 9.026541,
          "velocity": 0.4330708661417323
        },
        {
          "duration": 0.13274325000000076,
          "durationTicks": 96,
          "midi": 46,
          "name": "A#2",
          "ticks": 6720,
          "time": 9.2920275,
          "velocity": 0.4330708661417323
        },
        {
          "duration": 0.13274324999999898,
          "durationTicks": 96,
          "midi": 36,
          "name": "C2",
          "ticks": 6912,
          "time": 9.557514000000001,
          "velocity": 0.4330708661417323
        },
        {
          "duration": 0.13274324999999898,
          "durationTicks": 96,
          "midi": 42,
          "name": "F#2",
          "ticks": 6912,
          "time": 9.557514000000001,
          "velocity": 0.4330708661417323
        },
        {
          "duration": 0.13274324999999898,
          "durationTicks": 96,
          "midi": 42,
          "name": "F#2",
          "ticks": 7104,
          "time": 9.823000500000001,
          "velocity": 0.4330708661417323
        },
        {
          "duration": 0.13274325000000076,
          "durationTicks": 96,
          "midi": 42,
          "name": "F#2",
          "ticks": 7200,
          "time": 9.95574375,
          "velocity": 0.4330708661417323
        },
        {
          "duration": 0.13274325000000076,
          "durationTicks": 96,
          "midi": 39,
          "name": "D#2",
          "ticks": 7296,
          "time": 10.088487,
          "velocity": 0.4330708661417323
        },
        {
          "duration": 0.13274325000000076,
          "durationTicks": 96,
          "midi": 36,
          "name": "C2",
          "ticks": 7296,
          "time": 10.088487,
          "velocity": 0.4330708661417323
        },
        {
          "duration": 0.13274325000000076,
          "durationTicks": 96,
          "midi": 38,
          "name": "D2",
          "ticks": 7296,
          "time": 10.088487,
          "velocity": 0.4330708661417323
        },
        {
          "duration": 0.13274325000000076,
          "durationTicks": 96,
          "midi": 42,
          "name": "F#2",
          "ticks": 7296,
          "time": 10.088487,
          "velocity": 0.4330708661417323
        },
        {
          "duration": 0.13274324999999898,
          "durationTicks": 96,
          "midi": 39,
          "name": "D#2",
          "ticks": 7392,
          "time": 10.221230250000001,
          "velocity": 0.4330708661417323
        },
        {
          "duration": 0.13274325000000076,
          "durationTicks": 96,
          "midi": 39,
          "name": "D#2",
          "ticks": 7488,
          "time": 10.3539735,
          "velocity": 0.4330708661417323
        },
        {
          "duration": 0.13274325000000076,
          "durationTicks": 96,
          "midi": 46,
          "name": "A#2",
          "ticks": 7488,
          "time": 10.3539735,
          "velocity": 0.4330708661417323
        },
        {
          "duration": 0.13274324999999898,
          "durationTicks": 96,
          "midi": 39,
          "name": "D#2",
          "ticks": 7584,
          "time": 10.486716750000001,
          "velocity": 0.4330708661417323
        },
        {
          "duration": 0.13274325000000076,
          "durationTicks": 96,
          "midi": 36,
          "name": "C2",
          "ticks": 7680,
          "time": 10.61946,
          "velocity": 0.4330708661417323
        },
        {
          "duration": 0.13274325000000076,
          "durationTicks": 96,
          "midi": 42,
          "name": "F#2",
          "ticks": 7680,
          "time": 10.61946,
          "velocity": 0.4330708661417323
        },
        {
          "duration": 0.13274325000000076,
          "durationTicks": 96,
          "midi": 42,
          "name": "F#2",
          "ticks": 7872,
          "time": 10.8849465,
          "velocity": 0.4330708661417323
        },
        {
          "duration": 0.13274325000000076,
          "durationTicks": 96,
          "midi": 42,
          "name": "F#2",
          "ticks": 7968,
          "time": 11.01768975,
          "velocity": 0.4330708661417323
        },
        {
          "duration": 0.13274324999999898,
          "durationTicks": 96,
          "midi": 39,
          "name": "D#2",
          "ticks": 8064,
          "time": 11.150433000000001,
          "velocity": 0.4330708661417323
        },
        {
          "duration": 0.13274324999999898,
          "durationTicks": 96,
          "midi": 36,
          "name": "C2",
          "ticks": 8064,
          "time": 11.150433000000001,
          "velocity": 0.4330708661417323
        },
        {
          "duration": 0.13274324999999898,
          "durationTicks": 96,
          "midi": 38,
          "name": "D2",
          "ticks": 8064,
          "time": 11.150433000000001,
          "velocity": 0.4330708661417323
        },
        {
          "duration": 0.13274324999999898,
          "durationTicks": 96,
          "midi": 42,
          "name": "F#2",
          "ticks": 8064,
          "time": 11.150433000000001,
          "velocity": 0.4330708661417323
        },
        {
          "duration": 0.13274324999999898,
          "durationTicks": 96,
          "midi": 42,
          "name": "F#2",
          "ticks": 8256,
          "time": 11.415919500000001,
          "velocity": 0.4330708661417323
        },
        {
          "duration": 0.13274325000000076,
          "durationTicks": 96,
          "midi": 42,
          "name": "F#2",
          "ticks": 8352,
          "time": 11.54866275,
          "velocity": 0.4330708661417323
        },
        {
          "duration": 0.13274324999999898,
          "durationTicks": 96,
          "midi": 36,
          "name": "C2",
          "ticks": 8448,
          "time": 11.681406,
          "velocity": 0.4330708661417323
        },
        {
          "duration": 0.13274324999999898,
          "durationTicks": 96,
          "midi": 42,
          "name": "F#2",
          "ticks": 8448,
          "time": 11.681406,
          "velocity": 0.4330708661417323
        },
        {
          "duration": 0.13274325000000076,
          "durationTicks": 96,
          "midi": 42,
          "name": "F#2",
          "ticks": 8640,
          "time": 11.9468925,
          "velocity": 0.4330708661417323
        },
        {
          "duration": 0.13274324999999898,
          "durationTicks": 96,
          "midi": 42,
          "name": "F#2",
          "ticks": 8736,
          "time": 12.079635750000001,
          "velocity": 0.4330708661417323
        },
        {
          "duration": 0.13274325000000076,
          "durationTicks": 96,
          "midi": 39,
          "name": "D#2",
          "ticks": 8832,
          "time": 12.212379,
          "velocity": 0.4330708661417323
        },
        {
          "duration": 0.13274325000000076,
          "durationTicks": 96,
          "midi": 36,
          "name": "C2",
          "ticks": 8832,
          "time": 12.212379,
          "velocity": 0.4330708661417323
        },
        {
          "duration": 0.13274325000000076,
          "durationTicks": 96,
          "midi": 38,
          "name": "D2",
          "ticks": 8832,
          "time": 12.212379,
          "velocity": 0.4330708661417323
        },
        {
          "duration": 0.13274325000000076,
          "durationTicks": 96,
          "midi": 42,
          "name": "F#2",
          "ticks": 8832,
          "time": 12.212379,
          "velocity": 0.4330708661417323
        },
        {
          "duration": 0.13274325000000076,
          "durationTicks": 96,
          "midi": 42,
          "name": "F#2",
          "ticks": 9024,
          "time": 12.4778655,
          "velocity": 0.4330708661417323
        },
        {
          "duration": 0.13274325000000076,
          "durationTicks": 96,
          "midi": 42,
          "name": "F#2",
          "ticks": 9120,
          "time": 12.61060875,
          "velocity": 0.4330708661417323
        },
        {
          "duration": 0.13274324999999898,
          "durationTicks": 96,
          "midi": 36,
          "name": "C2",
          "ticks": 9216,
          "time": 12.743352000000002,
          "velocity": 0.4330708661417323
        },
        {
          "duration": 0.13274324999999898,
          "durationTicks": 96,
          "midi": 42,
          "name": "F#2",
          "ticks": 9216,
          "time": 12.743352000000002,
          "velocity": 0.4330708661417323
        },
        {
          "duration": 0.13274324999999898,
          "durationTicks": 96,
          "midi": 42,
          "name": "F#2",
          "ticks": 9408,
          "time": 13.008838500000001,
          "velocity": 0.4330708661417323
        },
        {
          "duration": 0.13274325000000076,
          "durationTicks": 96,
          "midi": 42,
          "name": "F#2",
          "ticks": 9504,
          "time": 13.14158175,
          "velocity": 0.4330708661417323
        },
        {
          "duration": 0.13274324999999898,
          "durationTicks": 96,
          "midi": 39,
          "name": "D#2",
          "ticks": 9600,
          "time": 13.274325000000001,
          "velocity": 0.4330708661417323
        },
        {
          "duration": 0.13274324999999898,
          "durationTicks": 96,
          "midi": 36,
          "name": "C2",
          "ticks": 9600,
          "time": 13.274325000000001,
          "velocity": 0.4330708661417323
        },
        {
          "duration": 0.13274324999999898,
          "durationTicks": 96,
          "midi": 38,
          "name": "D2",
          "ticks": 9600,
          "time": 13.274325000000001,
          "velocity": 0.4330708661417323
        },
        {
          "duration": 0.13274324999999898,
          "durationTicks": 96,
          "midi": 42,
          "name": "F#2",
          "ticks": 9600,
          "time": 13.274325000000001,
          "velocity": 0.4330708661417323
        },
        {
          "duration": 0.13274325000000076,
          "durationTicks": 96,
          "midi": 42,
          "name": "F#2",
          "ticks": 9792,
          "time": 13.5398115,
          "velocity": 0.4330708661417323
        },
        {
          "duration": 0.13274324999999898,
          "durationTicks": 96,
          "midi": 42,
          "name": "F#2",
          "ticks": 9888,
          "time": 13.672554750000002,
          "velocity": 0.4330708661417323
        },
        {
          "duration": 0.13274325000000076,
          "durationTicks": 96,
          "midi": 36,
          "name": "C2",
          "ticks": 9984,
          "time": 13.805298,
          "velocity": 0.4330708661417323
        },
        {
          "duration": 0.13274325000000076,
          "durationTicks": 96,
          "midi": 42,
          "name": "F#2",
          "ticks": 9984,
          "time": 13.805298,
          "velocity": 0.4330708661417323
        },
        {
          "duration": 0.13274325000000076,
          "durationTicks": 96,
          "midi": 42,
          "name": "F#2",
          "ticks": 10176,
          "time": 14.0707845,
          "velocity": 0.4330708661417323
        },
        {
          "duration": 0.13274324999999898,
          "durationTicks": 96,
          "midi": 42,
          "name": "F#2",
          "ticks": 10272,
          "time": 14.203527750000001,
          "velocity": 0.4330708661417323
        },
        {
          "duration": 0.13274325000000076,
          "durationTicks": 96,
          "midi": 39,
          "name": "D#2",
          "ticks": 10368,
          "time": 14.336271,
          "velocity": 0.4330708661417323
        },
        {
          "duration": 0.13274325000000076,
          "durationTicks": 96,
          "midi": 36,
          "name": "C2",
          "ticks": 10368,
          "time": 14.336271,
          "velocity": 0.4330708661417323
        },
        {
          "duration": 0.13274325000000076,
          "durationTicks": 96,
          "midi": 38,
          "name": "D2",
          "ticks": 10368,
          "time": 14.336271,
          "velocity": 0.4330708661417323
        },
        {
          "duration": 0.13274325000000076,
          "durationTicks": 96,
          "midi": 42,
          "name": "F#2",
          "ticks": 10368,
          "time": 14.336271,
          "velocity": 0.4330708661417323
        },
        {
          "duration": 0.13274324999999898,
          "durationTicks": 96,
          "midi": 46,
          "name": "A#2",
          "ticks": 10560,
          "time": 14.601757500000001,
          "velocity": 0.4330708661417323
        },
        {
          "duration": 0.13274324999999898,
          "durationTicks": 96,
          "midi": 36,
          "name": "C2",
          "ticks": 10752,
          "time": 14.867244000000001,
          "velocity": 0.4330708661417323
        },
        {
          "duration": 0.13274324999999898,
          "durationTicks": 96,
          "midi": 42,
          "name": "F#2",
          "ticks": 10752,
          "time": 14.867244000000001,
          "velocity": 0.4330708661417323
        },
        {
          "duration": 0.13274324999999898,
          "durationTicks": 96,
          "midi": 42,
          "name": "F#2",
          "ticks": 10944,
          "time": 15.132730500000001,
          "velocity": 0.4330708661417323
        },
        {
          "duration": 0.13274325000000076,
          "durationTicks": 96,
          "midi": 42,
          "name": "F#2",
          "ticks": 11040,
          "time": 15.26547375,
          "velocity": 0.4330708661417323
        },
        {
          "duration": 0.13274325000000076,
          "durationTicks": 96,
          "midi": 39,
          "name": "D#2",
          "ticks": 11136,
          "time": 15.398217,
          "velocity": 0.4330708661417323
        },
        {
          "duration": 0.13274325000000076,
          "durationTicks": 96,
          "midi": 36,
          "name": "C2",
          "ticks": 11136,
          "time": 15.398217,
          "velocity": 0.4330708661417323
        },
        {
          "duration": 0.13274325000000076,
          "durationTicks": 96,
          "midi": 38,
          "name": "D2",
          "ticks": 11136,
          "time": 15.398217,
          "velocity": 0.4330708661417323
        },
        {
          "duration": 0.13274325000000076,
          "durationTicks": 96,
          "midi": 42,
          "name": "F#2",
          "ticks": 11136,
          "time": 15.398217,
          "velocity": 0.4330708661417323
        },
        {
          "duration": 0.13274325000000076,
          "durationTicks": 96,
          "midi": 42,
          "name": "F#2",
          "ticks": 11328,
          "time": 15.6637035,
          "velocity": 0.4330708661417323
        },
        {
          "duration": 0.13274324999999898,
          "durationTicks": 96,
          "midi": 42,
          "name": "F#2",
          "ticks": 11424,
          "time": 15.796446750000001,
          "velocity": 0.4330708661417323
        },
        {
          "duration": 0.13274324999999898,
          "durationTicks": 96,
          "midi": 36,
          "name": "C2",
          "ticks": 11520,
          "time": 15.92919,
          "velocity": 0.4330708661417323
        },
        {
          "duration": 0.13274324999999898,
          "durationTicks": 96,
          "midi": 42,
          "name": "F#2",
          "ticks": 11520,
          "time": 15.92919,
          "velocity": 0.4330708661417323
        },
        {
          "duration": 0.13274325000000076,
          "durationTicks": 96,
          "midi": 42,
          "name": "F#2",
          "ticks": 11712,
          "time": 16.1946765,
          "velocity": 0.4330708661417323
        },
        {
          "duration": 0.13274325000000076,
          "durationTicks": 96,
          "midi": 42,
          "name": "F#2",
          "ticks": 11808,
          "time": 16.32741975,
          "velocity": 0.4330708661417323
        },
        {
          "duration": 0.13274325000000076,
          "durationTicks": 96,
          "midi": 39,
          "name": "D#2",
          "ticks": 11904,
          "time": 16.460163,
          "velocity": 0.4330708661417323
        },
        {
          "duration": 0.13274325000000076,
          "durationTicks": 96,
          "midi": 36,
          "name": "C2",
          "ticks": 11904,
          "time": 16.460163,
          "velocity": 0.4330708661417323
        },
        {
          "duration": 0.13274325000000076,
          "durationTicks": 96,
          "midi": 38,
          "name": "D2",
          "ticks": 11904,
          "time": 16.460163,
          "velocity": 0.4330708661417323
        },
        {
          "duration": 0.13274325000000076,
          "durationTicks": 96,
          "midi": 42,
          "name": "F#2",
          "ticks": 11904,
          "time": 16.460163,
          "velocity": 0.4330708661417323
        },
        {
          "duration": 0.13274325000000076,
          "durationTicks": 96,
          "midi": 42,
          "name": "F#2",
          "ticks": 12096,
          "time": 16.7256495,
          "velocity": 0.4330708661417323
        },
        {
          "duration": 0.13274325000000076,
          "durationTicks": 96,
          "midi": 42,
          "name": "F#2",
          "ticks": 12192,
          "time": 16.85839275,
          "velocity": 0.4330708661417323
        },
        {
          "duration": 0.13274325000000076,
          "durationTicks": 96,
          "midi": 36,
          "name": "C2",
          "ticks": 12288,
          "time": 16.991136,
          "velocity": 0.4330708661417323
        },
        {
          "duration": 0.13274325000000076,
          "durationTicks": 96,
          "midi": 42,
          "name": "F#2",
          "ticks": 12288,
          "time": 16.991136,
          "velocity": 0.4330708661417323
        },
        {
          "duration": 0.1327432499999972,
          "durationTicks": 96,
          "midi": 42,
          "name": "F#2",
          "ticks": 12480,
          "time": 17.256622500000002,
          "velocity": 0.4330708661417323
        },
        {
          "duration": 0.13274325000000076,
          "durationTicks": 96,
          "midi": 42,
          "name": "F#2",
          "ticks": 12576,
          "time": 17.38936575,
          "velocity": 0.4330708661417323
        },
        {
          "duration": 0.13274325000000076,
          "durationTicks": 96,
          "midi": 39,
          "name": "D#2",
          "ticks": 12672,
          "time": 17.522109,
          "velocity": 0.4330708661417323
        },
        {
          "duration": 0.13274325000000076,
          "durationTicks": 96,
          "midi": 36,
          "name": "C2",
          "ticks": 12672,
          "time": 17.522109,
          "velocity": 0.4330708661417323
        },
        {
          "duration": 0.13274325000000076,
          "durationTicks": 96,
          "midi": 38,
          "name": "D2",
          "ticks": 12672,
          "time": 17.522109,
          "velocity": 0.4330708661417323
        },
        {
          "duration": 0.13274325000000076,
          "durationTicks": 96,
          "midi": 42,
          "name": "F#2",
          "ticks": 12672,
          "time": 17.522109,
          "velocity": 0.4330708661417323
        },
        {
          "duration": 0.13274325000000076,
          "durationTicks": 96,
          "midi": 46,
          "name": "A#2",
          "ticks": 12864,
          "time": 17.787595500000002,
          "velocity": 0.4330708661417323
        },
        {
          "duration": 0.13274325000000076,
          "durationTicks": 96,
          "midi": 36,
          "name": "C2",
          "ticks": 13056,
          "time": 18.053082,
          "velocity": 0.4330708661417323
        },
        {
          "duration": 0.13274325000000076,
          "durationTicks": 96,
          "midi": 42,
          "name": "F#2",
          "ticks": 13056,
          "time": 18.053082,
          "velocity": 0.4330708661417323
        },
        {
          "duration": 0.13274325000000076,
          "durationTicks": 96,
          "midi": 42,
          "name": "F#2",
          "ticks": 13248,
          "time": 18.3185685,
          "velocity": 0.4330708661417323
        },
        {
          "duration": 0.1327432499999972,
          "durationTicks": 96,
          "midi": 42,
          "name": "F#2",
          "ticks": 13344,
          "time": 18.451311750000002,
          "velocity": 0.4330708661417323
        },
        {
          "duration": 0.13274325000000076,
          "durationTicks": 96,
          "midi": 39,
          "name": "D#2",
          "ticks": 13440,
          "time": 18.584055,
          "velocity": 0.4330708661417323
        },
        {
          "duration": 0.13274325000000076,
          "durationTicks": 96,
          "midi": 36,
          "name": "C2",
          "ticks": 13440,
          "time": 18.584055,
          "velocity": 0.4330708661417323
        },
        {
          "duration": 0.13274325000000076,
          "durationTicks": 96,
          "midi": 38,
          "name": "D2",
          "ticks": 13440,
          "time": 18.584055,
          "velocity": 0.4330708661417323
        },
        {
          "duration": 0.13274325000000076,
          "durationTicks": 96,
          "midi": 42,
          "name": "F#2",
          "ticks": 13440,
          "time": 18.584055,
          "velocity": 0.4330708661417323
        },
        {
          "duration": 0.13274325000000076,
          "durationTicks": 96,
          "midi": 39,
          "name": "D#2",
          "ticks": 13536,
          "time": 18.71679825,
          "velocity": 0.4330708661417323
        },
        {
          "duration": 0.13274325000000076,
          "durationTicks": 96,
          "midi": 39,
          "name": "D#2",
          "ticks": 13632,
          "time": 18.8495415,
          "velocity": 0.4330708661417323
        },
        {
          "duration": 0.13274325000000076,
          "durationTicks": 96,
          "midi": 46,
          "name": "A#2",
          "ticks": 13632,
          "time": 18.8495415,
          "velocity": 0.4330708661417323
        },
        {
          "duration": 0.13274325000000076,
          "durationTicks": 96,
          "midi": 39,
          "name": "D#2",
          "ticks": 13728,
          "time": 18.98228475,
          "velocity": 0.4330708661417323
        },
        {
          "duration": 0.1327432499999972,
          "durationTicks": 96,
          "midi": 36,
          "name": "C2",
          "ticks": 13824,
          "time": 19.115028000000002,
          "velocity": 0.4330708661417323
        },
        {
          "duration": 0.1327432499999972,
          "durationTicks": 96,
          "midi": 42,
          "name": "F#2",
          "ticks": 13824,
          "time": 19.115028000000002,
          "velocity": 0.4330708661417323
        },
        {
          "duration": 0.13274325000000076,
          "durationTicks": 96,
          "midi": 42,
          "name": "F#2",
          "ticks": 14016,
          "time": 19.3805145,
          "velocity": 0.4330708661417323
        },
        {
          "duration": 0.13274325000000076,
          "durationTicks": 96,
          "midi": 42,
          "name": "F#2",
          "ticks": 14112,
          "time": 19.51325775,
          "velocity": 0.4330708661417323
        },
        {
          "duration": 0.13274325000000076,
          "durationTicks": 96,
          "midi": 39,
          "name": "D#2",
          "ticks": 14208,
          "time": 19.646001000000002,
          "velocity": 0.4330708661417323
        },
        {
          "duration": 0.13274325000000076,
          "durationTicks": 96,
          "midi": 36,
          "name": "C2",
          "ticks": 14208,
          "time": 19.646001000000002,
          "velocity": 0.4330708661417323
        },
        {
          "duration": 0.13274325000000076,
          "durationTicks": 96,
          "midi": 38,
          "name": "D2",
          "ticks": 14208,
          "time": 19.646001000000002,
          "velocity": 0.4330708661417323
        },
        {
          "duration": 0.13274325000000076,
          "durationTicks": 96,
          "midi": 42,
          "name": "F#2",
          "ticks": 14208,
          "time": 19.646001000000002,
          "velocity": 0.4330708661417323
        },
        {
          "duration": 0.13274325000000076,
          "durationTicks": 96,
          "midi": 42,
          "name": "F#2",
          "ticks": 14400,
          "time": 19.9114875,
          "velocity": 0.4330708661417323
        },
        {
          "duration": 0.13274325000000076,
          "durationTicks": 96,
          "midi": 42,
          "name": "F#2",
          "ticks": 14496,
          "time": 20.04423075,
          "velocity": 0.4330708661417323
        },
        {
          "duration": 0.13274325000000076,
          "durationTicks": 96,
          "midi": 36,
          "name": "C2",
          "ticks": 14592,
          "time": 20.176974,
          "velocity": 0.4330708661417323
        },
        {
          "duration": 0.13274325000000076,
          "durationTicks": 96,
          "midi": 42,
          "name": "F#2",
          "ticks": 14592,
          "time": 20.176974,
          "velocity": 0.4330708661417323
        },
        {
          "duration": 0.1327432499999972,
          "durationTicks": 96,
          "midi": 42,
          "name": "F#2",
          "ticks": 14784,
          "time": 20.442460500000003,
          "velocity": 0.4330708661417323
        },
        {
          "duration": 0.13274325000000076,
          "durationTicks": 96,
          "midi": 42,
          "name": "F#2",
          "ticks": 14880,
          "time": 20.57520375,
          "velocity": 0.4330708661417323
        },
        {
          "duration": 0.13274325000000076,
          "durationTicks": 96,
          "midi": 39,
          "name": "D#2",
          "ticks": 14976,
          "time": 20.707947,
          "velocity": 0.4330708661417323
        },
        {
          "duration": 0.13274325000000076,
          "durationTicks": 96,
          "midi": 36,
          "name": "C2",
          "ticks": 14976,
          "time": 20.707947,
          "velocity": 0.4330708661417323
        },
        {
          "duration": 0.13274325000000076,
          "durationTicks": 96,
          "midi": 38,
          "name": "D2",
          "ticks": 14976,
          "time": 20.707947,
          "velocity": 0.4330708661417323
        },
        {
          "duration": 0.13274325000000076,
          "durationTicks": 96,
          "midi": 42,
          "name": "F#2",
          "ticks": 14976,
          "time": 20.707947,
          "velocity": 0.4330708661417323
        },
        {
          "duration": 0.1327432499999972,
          "durationTicks": 96,
          "midi": 42,
          "name": "F#2",
          "ticks": 15168,
          "time": 20.973433500000002,
          "velocity": 0.4330708661417323
        },
        {
          "duration": 0.13274325000000076,
          "durationTicks": 96,
          "midi": 42,
          "name": "F#2",
          "ticks": 15264,
          "time": 21.10617675,
          "velocity": 0.4330708661417323
        },
        {
          "duration": 0.13274325000000076,
          "durationTicks": 96,
          "midi": 36,
          "name": "C2",
          "ticks": 15360,
          "time": 21.23892,
          "velocity": 0.4330708661417323
        },
        {
          "duration": 0.13274325000000076,
          "durationTicks": 96,
          "midi": 42,
          "name": "F#2",
          "ticks": 15360,
          "time": 21.23892,
          "velocity": 0.4330708661417323
        },
        {
          "duration": 0.13274325000000076,
          "durationTicks": 96,
          "midi": 42,
          "name": "F#2",
          "ticks": 15552,
          "time": 21.5044065,
          "velocity": 0.4330708661417323
        },
        {
          "duration": 0.1327432499999972,
          "durationTicks": 96,
          "midi": 42,
          "name": "F#2",
          "ticks": 15648,
          "time": 21.637149750000003,
          "velocity": 0.4330708661417323
        },
        {
          "duration": 0.13274325000000076,
          "durationTicks": 96,
          "midi": 39,
          "name": "D#2",
          "ticks": 15744,
          "time": 21.769893,
          "velocity": 0.4330708661417323
        },
        {
          "duration": 0.13274325000000076,
          "durationTicks": 96,
          "midi": 36,
          "name": "C2",
          "ticks": 15744,
          "time": 21.769893,
          "velocity": 0.4330708661417323
        },
        {
          "duration": 0.13274325000000076,
          "durationTicks": 96,
          "midi": 38,
          "name": "D2",
          "ticks": 15744,
          "time": 21.769893,
          "velocity": 0.4330708661417323
        },
        {
          "duration": 0.13274325000000076,
          "durationTicks": 96,
          "midi": 42,
          "name": "F#2",
          "ticks": 15744,
          "time": 21.769893,
          "velocity": 0.4330708661417323
        },
        {
          "duration": 0.13274325000000076,
          "durationTicks": 96,
          "midi": 42,
          "name": "F#2",
          "ticks": 15936,
          "time": 22.0353795,
          "velocity": 0.4330708661417323
        },
        {
          "duration": 0.13274325000000076,
          "durationTicks": 96,
          "midi": 42,
          "name": "F#2",
          "ticks": 16032,
          "time": 22.168122750000002,
          "velocity": 0.4330708661417323
        },
        {
          "duration": 0.1327432499999972,
          "durationTicks": 96,
          "midi": 36,
          "name": "C2",
          "ticks": 16128,
          "time": 22.300866000000003,
          "velocity": 0.4330708661417323
        },
        {
          "duration": 0.1327432499999972,
          "durationTicks": 96,
          "midi": 42,
          "name": "F#2",
          "ticks": 16128,
          "time": 22.300866000000003,
          "velocity": 0.4330708661417323
        },
        {
          "duration": 0.13274325000000076,
          "durationTicks": 96,
          "midi": 42,
          "name": "F#2",
          "ticks": 16320,
          "time": 22.5663525,
          "velocity": 0.4330708661417323
        },
        {
          "duration": 0.13274325000000076,
          "durationTicks": 96,
          "midi": 42,
          "name": "F#2",
          "ticks": 16416,
          "time": 22.69909575,
          "velocity": 0.4330708661417323
        },
        {
          "duration": 0.13274325000000076,
          "durationTicks": 96,
          "midi": 39,
          "name": "D#2",
          "ticks": 16512,
          "time": 22.831839000000002,
          "velocity": 0.4330708661417323
        },
        {
          "duration": 0.13274325000000076,
          "durationTicks": 96,
          "midi": 36,
          "name": "C2",
          "ticks": 16512,
          "time": 22.831839000000002,
          "velocity": 0.4330708661417323
        },
        {
          "duration": 0.13274325000000076,
          "durationTicks": 96,
          "midi": 38,
          "name": "D2",
          "ticks": 16512,
          "time": 22.831839000000002,
          "velocity": 0.4330708661417323
        },
        {
          "duration": 0.13274325000000076,
          "durationTicks": 96,
          "midi": 42,
          "name": "F#2",
          "ticks": 16512,
          "time": 22.831839000000002,
          "velocity": 0.4330708661417323
        },
        {
          "duration": 0.13274325000000076,
          "durationTicks": 96,
          "midi": 46,
          "name": "A#2",
          "ticks": 16704,
          "time": 23.0973255,
          "velocity": 0.4330708661417323
        },
        {
          "duration": 0.13274325000000076,
          "durationTicks": 96,
          "midi": 36,
          "name": "C2",
          "ticks": 16896,
          "time": 23.362812,
          "velocity": 0.4330708661417323
        },
        {
          "duration": 0.13274325000000076,
          "durationTicks": 96,
          "midi": 42,
          "name": "F#2",
          "ticks": 16896,
          "time": 23.362812,
          "velocity": 0.4330708661417323
        },
        {
          "duration": 0.13274325000000076,
          "durationTicks": 96,
          "midi": 42,
          "name": "F#2",
          "ticks": 17088,
          "time": 23.6282985,
          "velocity": 0.4330708661417323
        },
        {
          "duration": 0.13274325000000076,
          "durationTicks": 96,
          "midi": 42,
          "name": "F#2",
          "ticks": 17184,
          "time": 23.76104175,
          "velocity": 0.4330708661417323
        },
        {
          "duration": 0.13274325000000076,
          "durationTicks": 96,
          "midi": 39,
          "name": "D#2",
          "ticks": 17280,
          "time": 23.893785,
          "velocity": 0.4330708661417323
        },
        {
          "duration": 0.13274325000000076,
          "durationTicks": 96,
          "midi": 36,
          "name": "C2",
          "ticks": 17280,
          "time": 23.893785,
          "velocity": 0.4330708661417323
        },
        {
          "duration": 0.13274325000000076,
          "durationTicks": 96,
          "midi": 38,
          "name": "D2",
          "ticks": 17280,
          "time": 23.893785,
          "velocity": 0.4330708661417323
        },
        {
          "duration": 0.13274325000000076,
          "durationTicks": 96,
          "midi": 42,
          "name": "F#2",
          "ticks": 17280,
          "time": 23.893785,
          "velocity": 0.4330708661417323
        },
        {
          "duration": 0.1327432499999972,
          "durationTicks": 96,
          "midi": 42,
          "name": "F#2",
          "ticks": 17472,
          "time": 24.159271500000003,
          "velocity": 0.4330708661417323
        },
        {
          "duration": 0.13274325000000076,
          "durationTicks": 96,
          "midi": 42,
          "name": "F#2",
          "ticks": 17568,
          "time": 24.29201475,
          "velocity": 0.4330708661417323
        },
        {
          "duration": 0.13274325000000076,
          "durationTicks": 96,
          "midi": 36,
          "name": "C2",
          "ticks": 17664,
          "time": 24.424758,
          "velocity": 0.4330708661417323
        },
        {
          "duration": 0.13274325000000076,
          "durationTicks": 96,
          "midi": 42,
          "name": "F#2",
          "ticks": 17664,
          "time": 24.424758,
          "velocity": 0.4330708661417323
        },
        {
          "duration": 0.13274325000000076,
          "durationTicks": 96,
          "midi": 42,
          "name": "F#2",
          "ticks": 17856,
          "time": 24.690244500000002,
          "velocity": 0.4330708661417323
        },
        {
          "duration": 0.1327432499999972,
          "durationTicks": 96,
          "midi": 42,
          "name": "F#2",
          "ticks": 17952,
          "time": 24.822987750000003,
          "velocity": 0.4330708661417323
        },
        {
          "duration": 0.13274325000000076,
          "durationTicks": 96,
          "midi": 39,
          "name": "D#2",
          "ticks": 18048,
          "time": 24.955731,
          "velocity": 0.4330708661417323
        },
        {
          "duration": 0.13274325000000076,
          "durationTicks": 96,
          "midi": 36,
          "name": "C2",
          "ticks": 18048,
          "time": 24.955731,
          "velocity": 0.4330708661417323
        },
        {
          "duration": 0.13274325000000076,
          "durationTicks": 96,
          "midi": 38,
          "name": "D2",
          "ticks": 18048,
          "time": 24.955731,
          "velocity": 0.4330708661417323
        },
        {
          "duration": 0.13274325000000076,
          "durationTicks": 96,
          "midi": 42,
          "name": "F#2",
          "ticks": 18048,
          "time": 24.955731,
          "velocity": 0.4330708661417323
        },
        {
          "duration": 0.13274325000000076,
          "durationTicks": 96,
          "midi": 42,
          "name": "F#2",
          "ticks": 18240,
          "time": 25.2212175,
          "velocity": 0.4330708661417323
        },
        {
          "duration": 0.13274325000000076,
          "durationTicks": 96,
          "midi": 42,
          "name": "F#2",
          "ticks": 18336,
          "time": 25.353960750000002,
          "velocity": 0.4330708661417323
        },
        {
          "duration": 0.1327432499999972,
          "durationTicks": 96,
          "midi": 36,
          "name": "C2",
          "ticks": 18432,
          "time": 25.486704000000003,
          "velocity": 0.4330708661417323
        },
        {
          "duration": 0.1327432499999972,
          "durationTicks": 96,
          "midi": 42,
          "name": "F#2",
          "ticks": 18432,
          "time": 25.486704000000003,
          "velocity": 0.4330708661417323
        },
        {
          "duration": 0.13274325000000076,
          "durationTicks": 96,
          "midi": 42,
          "name": "F#2",
          "ticks": 18624,
          "time": 25.7521905,
          "velocity": 0.4330708661417323
        },
        {
          "duration": 0.13274325000000076,
          "durationTicks": 96,
          "midi": 42,
          "name": "F#2",
          "ticks": 18720,
          "time": 25.884933750000002,
          "velocity": 0.4330708661417323
        },
        {
          "duration": 0.1327432499999972,
          "durationTicks": 96,
          "midi": 39,
          "name": "D#2",
          "ticks": 18816,
          "time": 26.017677000000003,
          "velocity": 0.4330708661417323
        },
        {
          "duration": 0.1327432499999972,
          "durationTicks": 96,
          "midi": 36,
          "name": "C2",
          "ticks": 18816,
          "time": 26.017677000000003,
          "velocity": 0.4330708661417323
        },
        {
          "duration": 0.1327432499999972,
          "durationTicks": 96,
          "midi": 38,
          "name": "D2",
          "ticks": 18816,
          "time": 26.017677000000003,
          "velocity": 0.4330708661417323
        },
        {
          "duration": 0.1327432499999972,
          "durationTicks": 96,
          "midi": 42,
          "name": "F#2",
          "ticks": 18816,
          "time": 26.017677000000003,
          "velocity": 0.4330708661417323
        },
        {
          "duration": 0.13274325000000076,
          "durationTicks": 96,
          "midi": 46,
          "name": "A#2",
          "ticks": 19008,
          "time": 26.2831635,
          "velocity": 0.4330708661417323
        },
        {
          "duration": 0.13274325000000076,
          "durationTicks": 96,
          "midi": 36,
          "name": "C2",
          "ticks": 19200,
          "time": 26.548650000000002,
          "velocity": 0.4330708661417323
        },
        {
          "duration": 0.13274325000000076,
          "durationTicks": 96,
          "midi": 42,
          "name": "F#2",
          "ticks": 19200,
          "time": 26.548650000000002,
          "velocity": 0.4330708661417323
        },
        {
          "duration": 0.13274325000000076,
          "durationTicks": 96,
          "midi": 42,
          "name": "F#2",
          "ticks": 19392,
          "time": 26.8141365,
          "velocity": 0.4330708661417323
        },
        {
          "duration": 0.13274325000000076,
          "durationTicks": 96,
          "midi": 42,
          "name": "F#2",
          "ticks": 19488,
          "time": 26.94687975,
          "velocity": 0.4330708661417323
        },
        {
          "duration": 0.13274325000000076,
          "durationTicks": 96,
          "midi": 39,
          "name": "D#2",
          "ticks": 19584,
          "time": 27.079623,
          "velocity": 0.4330708661417323
        },
        {
          "duration": 0.13274325000000076,
          "durationTicks": 96,
          "midi": 36,
          "name": "C2",
          "ticks": 19584,
          "time": 27.079623,
          "velocity": 0.4330708661417323
        },
        {
          "duration": 0.13274325000000076,
          "durationTicks": 96,
          "midi": 38,
          "name": "D2",
          "ticks": 19584,
          "time": 27.079623,
          "velocity": 0.4330708661417323
        },
        {
          "duration": 0.13274325000000076,
          "durationTicks": 96,
          "midi": 42,
          "name": "F#2",
          "ticks": 19584,
          "time": 27.079623,
          "velocity": 0.4330708661417323
        },
        {
          "duration": 0.13274325000000076,
          "durationTicks": 96,
          "midi": 39,
          "name": "D#2",
          "ticks": 19680,
          "time": 27.212366250000002,
          "velocity": 0.4330708661417323
        },
        {
          "duration": 0.1327432499999972,
          "durationTicks": 96,
          "midi": 39,
          "name": "D#2",
          "ticks": 19776,
          "time": 27.345109500000003,
          "velocity": 0.4330708661417323
        },
        {
          "duration": 0.1327432499999972,
          "durationTicks": 96,
          "midi": 46,
          "name": "A#2",
          "ticks": 19776,
          "time": 27.345109500000003,
          "velocity": 0.4330708661417323
        },
        {
          "duration": 0.13274325000000076,
          "durationTicks": 96,
          "midi": 39,
          "name": "D#2",
          "ticks": 19872,
          "time": 27.47785275,
          "velocity": 0.4330708661417323
        },
        {
          "duration": 0.13274325000000076,
          "durationTicks": 96,
          "midi": 36,
          "name": "C2",
          "ticks": 19968,
          "time": 27.610596,
          "velocity": 0.4330708661417323
        },
        {
          "duration": 0.13274325000000076,
          "durationTicks": 96,
          "midi": 42,
          "name": "F#2",
          "ticks": 19968,
          "time": 27.610596,
          "velocity": 0.4330708661417323
        },
        {
          "duration": 0.1327432499999972,
          "durationTicks": 96,
          "midi": 42,
          "name": "F#2",
          "ticks": 20160,
          "time": 27.876082500000003,
          "velocity": 0.4330708661417323
        },
        {
          "duration": 0.13274325000000076,
          "durationTicks": 96,
          "midi": 42,
          "name": "F#2",
          "ticks": 20256,
          "time": 28.00882575,
          "velocity": 0.4330708661417323
        },
        {
          "duration": 0.13274325000000076,
          "durationTicks": 96,
          "midi": 39,
          "name": "D#2",
          "ticks": 20352,
          "time": 28.141569,
          "velocity": 0.4330708661417323
        },
        {
          "duration": 0.13274325000000076,
          "durationTicks": 96,
          "midi": 36,
          "name": "C2",
          "ticks": 20352,
          "time": 28.141569,
          "velocity": 0.4330708661417323
        },
        {
          "duration": 0.13274325000000076,
          "durationTicks": 96,
          "midi": 38,
          "name": "D2",
          "ticks": 20352,
          "time": 28.141569,
          "velocity": 0.4330708661417323
        },
        {
          "duration": 0.13274325000000076,
          "durationTicks": 96,
          "midi": 42,
          "name": "F#2",
          "ticks": 20352,
          "time": 28.141569,
          "velocity": 0.4330708661417323
        },
        {
          "duration": 0.13274325000000076,
          "durationTicks": 96,
          "midi": 42,
          "name": "F#2",
          "ticks": 20544,
          "time": 28.407055500000002,
          "velocity": 0.4330708661417323
        },
        {
          "duration": 0.1327432499999972,
          "durationTicks": 96,
          "midi": 42,
          "name": "F#2",
          "ticks": 20640,
          "time": 28.539798750000003,
          "velocity": 0.4330708661417323
        },
        {
          "duration": 0.13274325000000076,
          "durationTicks": 96,
          "midi": 36,
          "name": "C2",
          "ticks": 20736,
          "time": 28.672542,
          "velocity": 0.4330708661417323
        },
        {
          "duration": 0.13274325000000076,
          "durationTicks": 96,
          "midi": 42,
          "name": "F#2",
          "ticks": 20736,
          "time": 28.672542,
          "velocity": 0.4330708661417323
        },
        {
          "duration": 0.13274325000000076,
          "durationTicks": 96,
          "midi": 42,
          "name": "F#2",
          "ticks": 20928,
          "time": 28.9380285,
          "velocity": 0.4330708661417323
        },
        {
          "duration": 0.13274325000000076,
          "durationTicks": 96,
          "midi": 42,
          "name": "F#2",
          "ticks": 21024,
          "time": 29.070771750000002,
          "velocity": 0.4330708661417323
        },
        {
          "duration": 0.1327432499999972,
          "durationTicks": 96,
          "midi": 39,
          "name": "D#2",
          "ticks": 21120,
          "time": 29.203515000000003,
          "velocity": 0.4330708661417323
        },
        {
          "duration": 0.1327432499999972,
          "durationTicks": 96,
          "midi": 36,
          "name": "C2",
          "ticks": 21120,
          "time": 29.203515000000003,
          "velocity": 0.4330708661417323
        },
        {
          "duration": 0.1327432499999972,
          "durationTicks": 96,
          "midi": 38,
          "name": "D2",
          "ticks": 21120,
          "time": 29.203515000000003,
          "velocity": 0.4330708661417323
        },
        {
          "duration": 0.1327432499999972,
          "durationTicks": 96,
          "midi": 42,
          "name": "F#2",
          "ticks": 21120,
          "time": 29.203515000000003,
          "velocity": 0.4330708661417323
        },
        {
          "duration": 0.13274325000000076,
          "durationTicks": 96,
          "midi": 42,
          "name": "F#2",
          "ticks": 21312,
          "time": 29.4690015,
          "velocity": 0.4330708661417323
        },
        {
          "duration": 0.13274325000000076,
          "durationTicks": 96,
          "midi": 42,
          "name": "F#2",
          "ticks": 21408,
          "time": 29.60174475,
          "velocity": 0.4330708661417323
        },
        {
          "duration": 0.13274325000000076,
          "durationTicks": 96,
          "midi": 36,
          "name": "C2",
          "ticks": 21504,
          "time": 29.734488000000002,
          "velocity": 0.4330708661417323
        },
        {
          "duration": 0.13274325000000076,
          "durationTicks": 96,
          "midi": 42,
          "name": "F#2",
          "ticks": 21504,
          "time": 29.734488000000002,
          "velocity": 0.4330708661417323
        },
        {
          "duration": 0.13274325000000076,
          "durationTicks": 96,
          "midi": 42,
          "name": "F#2",
          "ticks": 21696,
          "time": 29.9999745,
          "velocity": 0.4330708661417323
        },
        {
          "duration": 0.13274325000000076,
          "durationTicks": 96,
          "midi": 42,
          "name": "F#2",
          "ticks": 21792,
          "time": 30.13271775,
          "velocity": 0.4330708661417323
        },
        {
          "duration": 0.13274325000000076,
          "durationTicks": 96,
          "midi": 39,
          "name": "D#2",
          "ticks": 21888,
          "time": 30.265461000000002,
          "velocity": 0.4330708661417323
        },
        {
          "duration": 0.13274325000000076,
          "durationTicks": 96,
          "midi": 36,
          "name": "C2",
          "ticks": 21888,
          "time": 30.265461000000002,
          "velocity": 0.4330708661417323
        },
        {
          "duration": 0.13274325000000076,
          "durationTicks": 96,
          "midi": 38,
          "name": "D2",
          "ticks": 21888,
          "time": 30.265461000000002,
          "velocity": 0.4330708661417323
        },
        {
          "duration": 0.13274325000000076,
          "durationTicks": 96,
          "midi": 42,
          "name": "F#2",
          "ticks": 21888,
          "time": 30.265461000000002,
          "velocity": 0.4330708661417323
        },
        {
          "duration": 0.13274325000000076,
          "durationTicks": 96,
          "midi": 42,
          "name": "F#2",
          "ticks": 22080,
          "time": 30.5309475,
          "velocity": 0.4330708661417323
        },
        {
          "duration": 0.13274325000000076,
          "durationTicks": 96,
          "midi": 42,
          "name": "F#2",
          "ticks": 22176,
          "time": 30.66369075,
          "velocity": 0.4330708661417323
        },
        {
          "duration": 0.13274325000000076,
          "durationTicks": 96,
          "midi": 36,
          "name": "C2",
          "ticks": 22272,
          "time": 30.796434,
          "velocity": 0.4330708661417323
        },
        {
          "duration": 0.13274325000000076,
          "durationTicks": 96,
          "midi": 42,
          "name": "F#2",
          "ticks": 22272,
          "time": 30.796434,
          "velocity": 0.4330708661417323
        },
        {
          "duration": 0.1327432499999972,
          "durationTicks": 96,
          "midi": 42,
          "name": "F#2",
          "ticks": 22464,
          "time": 31.061920500000003,
          "velocity": 0.4330708661417323
        },
        {
          "duration": 0.13274325000000076,
          "durationTicks": 96,
          "midi": 42,
          "name": "F#2",
          "ticks": 22560,
          "time": 31.19466375,
          "velocity": 0.4330708661417323
        },
        {
          "duration": 0.13274325000000076,
          "durationTicks": 96,
          "midi": 39,
          "name": "D#2",
          "ticks": 22656,
          "time": 31.327407,
          "velocity": 0.4330708661417323
        },
        {
          "duration": 0.13274325000000076,
          "durationTicks": 96,
          "midi": 36,
          "name": "C2",
          "ticks": 22656,
          "time": 31.327407,
          "velocity": 0.4330708661417323
        },
        {
          "duration": 0.13274325000000076,
          "durationTicks": 96,
          "midi": 38,
          "name": "D2",
          "ticks": 22656,
          "time": 31.327407,
          "velocity": 0.4330708661417323
        },
        {
          "duration": 0.13274325000000076,
          "durationTicks": 96,
          "midi": 42,
          "name": "F#2",
          "ticks": 22656,
          "time": 31.327407,
          "velocity": 0.4330708661417323
        },
        {
          "duration": 0.13274325000000076,
          "durationTicks": 96,
          "midi": 46,
          "name": "A#2",
          "ticks": 22848,
          "time": 31.592893500000002,
          "velocity": 0.4330708661417323
        },
        {
          "duration": 0.13274325000000076,
          "durationTicks": 96,
          "midi": 36,
          "name": "C2",
          "ticks": 23040,
          "time": 31.85838,
          "velocity": 0.4330708661417323
        },
        {
          "duration": 0.13274325000000076,
          "durationTicks": 96,
          "midi": 42,
          "name": "F#2",
          "ticks": 23040,
          "time": 31.85838,
          "velocity": 0.4330708661417323
        },
        {
          "duration": 0.1327432500000043,
          "durationTicks": 96,
          "midi": 42,
          "name": "F#2",
          "ticks": 23232,
          "time": 32.1238665,
          "velocity": 0.4330708661417323
        },
        {
          "duration": 0.1327432499999972,
          "durationTicks": 96,
          "midi": 42,
          "name": "F#2",
          "ticks": 23328,
          "time": 32.25660975,
          "velocity": 0.4330708661417323
        },
        {
          "duration": 0.1327432500000043,
          "durationTicks": 96,
          "midi": 39,
          "name": "D#2",
          "ticks": 23424,
          "time": 32.389353,
          "velocity": 0.4330708661417323
        },
        {
          "duration": 0.1327432500000043,
          "durationTicks": 96,
          "midi": 36,
          "name": "C2",
          "ticks": 23424,
          "time": 32.389353,
          "velocity": 0.4330708661417323
        },
        {
          "duration": 0.1327432500000043,
          "durationTicks": 96,
          "midi": 38,
          "name": "D2",
          "ticks": 23424,
          "time": 32.389353,
          "velocity": 0.4330708661417323
        },
        {
          "duration": 0.1327432500000043,
          "durationTicks": 96,
          "midi": 42,
          "name": "F#2",
          "ticks": 23424,
          "time": 32.389353,
          "velocity": 0.4330708661417323
        },
        {
          "duration": 0.1327432499999972,
          "durationTicks": 96,
          "midi": 42,
          "name": "F#2",
          "ticks": 23616,
          "time": 32.6548395,
          "velocity": 0.4330708661417323
        },
        {
          "duration": 0.1327432500000043,
          "durationTicks": 96,
          "midi": 42,
          "name": "F#2",
          "ticks": 23712,
          "time": 32.78758275,
          "velocity": 0.4330708661417323
        },
        {
          "duration": 0.1327432499999972,
          "durationTicks": 96,
          "midi": 36,
          "name": "C2",
          "ticks": 23808,
          "time": 32.920326,
          "velocity": 0.4330708661417323
        },
        {
          "duration": 0.1327432499999972,
          "durationTicks": 96,
          "midi": 42,
          "name": "F#2",
          "ticks": 23808,
          "time": 32.920326,
          "velocity": 0.4330708661417323
        },
        {
          "duration": 0.1327432499999972,
          "durationTicks": 96,
          "midi": 42,
          "name": "F#2",
          "ticks": 24000,
          "time": 33.185812500000004,
          "velocity": 0.4330708661417323
        },
        {
          "duration": 0.1327432499999972,
          "durationTicks": 96,
          "midi": 42,
          "name": "F#2",
          "ticks": 24096,
          "time": 33.31855575,
          "velocity": 0.4330708661417323
        },
        {
          "duration": 0.1327432500000043,
          "durationTicks": 96,
          "midi": 39,
          "name": "D#2",
          "ticks": 24192,
          "time": 33.451299,
          "velocity": 0.4330708661417323
        },
        {
          "duration": 0.1327432500000043,
          "durationTicks": 96,
          "midi": 36,
          "name": "C2",
          "ticks": 24192,
          "time": 33.451299,
          "velocity": 0.4330708661417323
        },
        {
          "duration": 0.1327432500000043,
          "durationTicks": 96,
          "midi": 38,
          "name": "D2",
          "ticks": 24192,
          "time": 33.451299,
          "velocity": 0.4330708661417323
        },
        {
          "duration": 0.1327432500000043,
          "durationTicks": 96,
          "midi": 42,
          "name": "F#2",
          "ticks": 24192,
          "time": 33.451299,
          "velocity": 0.4330708661417323
        },
        {
          "duration": 0.1327432500000043,
          "durationTicks": 96,
          "midi": 42,
          "name": "F#2",
          "ticks": 24384,
          "time": 33.7167855,
          "velocity": 0.4330708661417323
        },
        {
          "duration": 0.1327432499999972,
          "durationTicks": 96,
          "midi": 42,
          "name": "F#2",
          "ticks": 24480,
          "time": 33.849528750000005,
          "velocity": 0.4330708661417323
        },
        {
          "duration": 0.1327432499999972,
          "durationTicks": 96,
          "midi": 36,
          "name": "C2",
          "ticks": 24576,
          "time": 33.982272,
          "velocity": 0.4330708661417323
        },
        {
          "duration": 0.1327432499999972,
          "durationTicks": 96,
          "midi": 42,
          "name": "F#2",
          "ticks": 24576,
          "time": 33.982272,
          "velocity": 0.4330708661417323
        },
        {
          "duration": 0.1327432499999972,
          "durationTicks": 96,
          "midi": 42,
          "name": "F#2",
          "ticks": 24768,
          "time": 34.2477585,
          "velocity": 0.4330708661417323
        },
        {
          "duration": 0.1327432500000043,
          "durationTicks": 96,
          "midi": 42,
          "name": "F#2",
          "ticks": 24864,
          "time": 34.38050175,
          "velocity": 0.4330708661417323
        },
        {
          "duration": 0.1327432499999972,
          "durationTicks": 96,
          "midi": 39,
          "name": "D#2",
          "ticks": 24960,
          "time": 34.513245000000005,
          "velocity": 0.4330708661417323
        },
        {
          "duration": 0.1327432499999972,
          "durationTicks": 96,
          "midi": 36,
          "name": "C2",
          "ticks": 24960,
          "time": 34.513245000000005,
          "velocity": 0.4330708661417323
        },
        {
          "duration": 0.1327432499999972,
          "durationTicks": 96,
          "midi": 38,
          "name": "D2",
          "ticks": 24960,
          "time": 34.513245000000005,
          "velocity": 0.4330708661417323
        },
        {
          "duration": 0.1327432499999972,
          "durationTicks": 96,
          "midi": 42,
          "name": "F#2",
          "ticks": 24960,
          "time": 34.513245000000005,
          "velocity": 0.4330708661417323
        },
        {
          "duration": 0.1327432500000043,
          "durationTicks": 96,
          "midi": 46,
          "name": "A#2",
          "ticks": 25152,
          "time": 34.7787315,
          "velocity": 0.4330708661417323
        },
        {
          "duration": 0.1327432500000043,
          "durationTicks": 96,
          "midi": 36,
          "name": "C2",
          "ticks": 25344,
          "time": 35.044218,
          "velocity": 0.4330708661417323
        },
        {
          "duration": 0.1327432500000043,
          "durationTicks": 96,
          "midi": 42,
          "name": "F#2",
          "ticks": 25344,
          "time": 35.044218,
          "velocity": 0.4330708661417323
        },
        {
          "duration": 0.1327432499999972,
          "durationTicks": 96,
          "midi": 42,
          "name": "F#2",
          "ticks": 25536,
          "time": 35.3097045,
          "velocity": 0.4330708661417323
        },
        {
          "duration": 0.1327432500000043,
          "durationTicks": 96,
          "midi": 42,
          "name": "F#2",
          "ticks": 25632,
          "time": 35.44244775,
          "velocity": 0.4330708661417323
        },
        {
          "duration": 0.1327432499999972,
          "durationTicks": 96,
          "midi": 39,
          "name": "D#2",
          "ticks": 25728,
          "time": 35.575191000000004,
          "velocity": 0.4330708661417323
        },
        {
          "duration": 0.1327432499999972,
          "durationTicks": 96,
          "midi": 36,
          "name": "C2",
          "ticks": 25728,
          "time": 35.575191000000004,
          "velocity": 0.4330708661417323
        },
        {
          "duration": 0.1327432499999972,
          "durationTicks": 96,
          "midi": 38,
          "name": "D2",
          "ticks": 25728,
          "time": 35.575191000000004,
          "velocity": 0.4330708661417323
        },
        {
          "duration": 0.1327432499999972,
          "durationTicks": 96,
          "midi": 42,
          "name": "F#2",
          "ticks": 25728,
          "time": 35.575191000000004,
          "velocity": 0.4330708661417323
        },
        {
          "duration": 0.1327432500000043,
          "durationTicks": 96,
          "midi": 39,
          "name": "D#2",
          "ticks": 25824,
          "time": 35.70793425,
          "velocity": 0.4330708661417323
        },
        {
          "duration": 0.1327432499999972,
          "durationTicks": 96,
          "midi": 39,
          "name": "D#2",
          "ticks": 25920,
          "time": 35.840677500000005,
          "velocity": 0.4330708661417323
        },
        {
          "duration": 0.1327432499999972,
          "durationTicks": 96,
          "midi": 46,
          "name": "A#2",
          "ticks": 25920,
          "time": 35.840677500000005,
          "velocity": 0.4330708661417323
        },
        {
          "duration": 0.1327432499999972,
          "durationTicks": 96,
          "midi": 39,
          "name": "D#2",
          "ticks": 26016,
          "time": 35.97342075,
          "velocity": 0.4330708661417323
        },
        {
          "duration": 0.1327432500000043,
          "durationTicks": 96,
          "midi": 36,
          "name": "C2",
          "ticks": 26112,
          "time": 36.106164,
          "velocity": 0.4330708661417323
        },
        {
          "duration": 0.1327432500000043,
          "durationTicks": 96,
          "midi": 46,
          "name": "A#2",
          "ticks": 26112,
          "time": 36.106164,
          "velocity": 0.4330708661417323
        },
        {
          "duration": 0.1327432499999972,
          "durationTicks": 96,
          "midi": 42,
          "name": "F#2",
          "ticks": 26304,
          "time": 36.3716505,
          "velocity": 0.4330708661417323
        },
        {
          "duration": 0.1327432500000043,
          "durationTicks": 96,
          "midi": 42,
          "name": "F#2",
          "ticks": 26400,
          "time": 36.50439375,
          "velocity": 0.4330708661417323
        },
        {
          "duration": 0.1327432499999972,
          "durationTicks": 96,
          "midi": 36,
          "name": "C2",
          "ticks": 26496,
          "time": 36.637137,
          "velocity": 0.4330708661417323
        },
        {
          "duration": 0.1327432499999972,
          "durationTicks": 96,
          "midi": 38,
          "name": "D2",
          "ticks": 26496,
          "time": 36.637137,
          "velocity": 0.4330708661417323
        },
        {
          "duration": 0.1327432499999972,
          "durationTicks": 96,
          "midi": 42,
          "name": "F#2",
          "ticks": 26496,
          "time": 36.637137,
          "velocity": 0.4330708661417323
        },
        {
          "duration": 0.1327432499999972,
          "durationTicks": 96,
          "midi": 42,
          "name": "F#2",
          "ticks": 26688,
          "time": 36.902623500000004,
          "velocity": 0.4330708661417323
        },
        {
          "duration": 0.1327432499999972,
          "durationTicks": 96,
          "midi": 42,
          "name": "F#2",
          "ticks": 26784,
          "time": 37.03536675,
          "velocity": 0.4330708661417323
        },
        {
          "duration": 0.1327432500000043,
          "durationTicks": 96,
          "midi": 36,
          "name": "C2",
          "ticks": 26880,
          "time": 37.16811,
          "velocity": 0.4330708661417323
        },
        {
          "duration": 0.1327432500000043,
          "durationTicks": 96,
          "midi": 42,
          "name": "F#2",
          "ticks": 26880,
          "time": 37.16811,
          "velocity": 0.4330708661417323
        },
        {
          "duration": 0.1327432500000043,
          "durationTicks": 96,
          "midi": 42,
          "name": "F#2",
          "ticks": 27072,
          "time": 37.4335965,
          "velocity": 0.4330708661417323
        },
        {
          "duration": 0.1327432499999972,
          "durationTicks": 96,
          "midi": 42,
          "name": "F#2",
          "ticks": 27168,
          "time": 37.566339750000004,
          "velocity": 0.4330708661417323
        },
        {
          "duration": 0.1327432499999972,
          "durationTicks": 96,
          "midi": 36,
          "name": "C2",
          "ticks": 27264,
          "time": 37.699083,
          "velocity": 0.4330708661417323
        },
        {
          "duration": 0.1327432499999972,
          "durationTicks": 96,
          "midi": 38,
          "name": "D2",
          "ticks": 27264,
          "time": 37.699083,
          "velocity": 0.4330708661417323
        },
        {
          "duration": 0.1327432499999972,
          "durationTicks": 96,
          "midi": 42,
          "name": "F#2",
          "ticks": 27264,
          "time": 37.699083,
          "velocity": 0.4330708661417323
        },
        {
          "duration": 0.1327432499999972,
          "durationTicks": 96,
          "midi": 42,
          "name": "F#2",
          "ticks": 27456,
          "time": 37.9645695,
          "velocity": 0.4330708661417323
        },
        {
          "duration": 0.1327432500000043,
          "durationTicks": 96,
          "midi": 42,
          "name": "F#2",
          "ticks": 27552,
          "time": 38.09731275,
          "velocity": 0.4330708661417323
        },
        {
          "duration": 0.1327432499999972,
          "durationTicks": 96,
          "midi": 36,
          "name": "C2",
          "ticks": 27648,
          "time": 38.230056000000005,
          "velocity": 0.4330708661417323
        },
        {
          "duration": 0.1327432499999972,
          "durationTicks": 96,
          "midi": 42,
          "name": "F#2",
          "ticks": 27648,
          "time": 38.230056000000005,
          "velocity": 0.4330708661417323
        },
        {
          "duration": 0.1327432500000043,
          "durationTicks": 96,
          "midi": 42,
          "name": "F#2",
          "ticks": 27840,
          "time": 38.4955425,
          "velocity": 0.4330708661417323
        },
        {
          "duration": 0.1327432499999972,
          "durationTicks": 96,
          "midi": 42,
          "name": "F#2",
          "ticks": 27936,
          "time": 38.62828575,
          "velocity": 0.4330708661417323
        },
        {
          "duration": 0.1327432500000043,
          "durationTicks": 96,
          "midi": 36,
          "name": "C2",
          "ticks": 28032,
          "time": 38.761029,
          "velocity": 0.4330708661417323
        },
        {
          "duration": 0.1327432500000043,
          "durationTicks": 96,
          "midi": 38,
          "name": "D2",
          "ticks": 28032,
          "time": 38.761029,
          "velocity": 0.4330708661417323
        },
        {
          "duration": 0.1327432500000043,
          "durationTicks": 96,
          "midi": 42,
          "name": "F#2",
          "ticks": 28032,
          "time": 38.761029,
          "velocity": 0.4330708661417323
        },
        {
          "duration": 0.1327432499999972,
          "durationTicks": 96,
          "midi": 42,
          "name": "F#2",
          "ticks": 28224,
          "time": 39.0265155,
          "velocity": 0.4330708661417323
        },
        {
          "duration": 0.1327432500000043,
          "durationTicks": 96,
          "midi": 42,
          "name": "F#2",
          "ticks": 28320,
          "time": 39.15925875,
          "velocity": 0.4330708661417323
        },
        {
          "duration": 0.1327432499999972,
          "durationTicks": 96,
          "midi": 36,
          "name": "C2",
          "ticks": 28416,
          "time": 39.292002000000004,
          "velocity": 0.4330708661417323
        },
        {
          "duration": 0.1327432499999972,
          "durationTicks": 96,
          "midi": 42,
          "name": "F#2",
          "ticks": 28416,
          "time": 39.292002000000004,
          "velocity": 0.4330708661417323
        },
        {
          "duration": 0.1327432499999972,
          "durationTicks": 96,
          "midi": 42,
          "name": "F#2",
          "ticks": 28608,
          "time": 39.557488500000005,
          "velocity": 0.4330708661417323
        },
        {
          "duration": 0.1327432499999972,
          "durationTicks": 96,
          "midi": 42,
          "name": "F#2",
          "ticks": 28704,
          "time": 39.69023175,
          "velocity": 0.4330708661417323
        },
        {
          "duration": 0.1327432500000043,
          "durationTicks": 96,
          "midi": 36,
          "name": "C2",
          "ticks": 28800,
          "time": 39.822975,
          "velocity": 0.4330708661417323
        },
        {
          "duration": 0.1327432500000043,
          "durationTicks": 96,
          "midi": 38,
          "name": "D2",
          "ticks": 28800,
          "time": 39.822975,
          "velocity": 0.4330708661417323
        },
        {
          "duration": 0.1327432500000043,
          "durationTicks": 96,
          "midi": 42,
          "name": "F#2",
          "ticks": 28800,
          "time": 39.822975,
          "velocity": 0.4330708661417323
        },
        {
          "duration": 0.1327432500000043,
          "durationTicks": 96,
          "midi": 46,
          "name": "A#2",
          "ticks": 28992,
          "time": 40.0884615,
          "velocity": 0.4330708661417323
        },
        {
          "duration": 0.1327432499999972,
          "durationTicks": 96,
          "midi": 36,
          "name": "C2",
          "ticks": 29184,
          "time": 40.353948,
          "velocity": 0.4330708661417323
        },
        {
          "duration": 0.1327432499999972,
          "durationTicks": 96,
          "midi": 42,
          "name": "F#2",
          "ticks": 29184,
          "time": 40.353948,
          "velocity": 0.4330708661417323
        },
        {
          "duration": 0.1327432499999972,
          "durationTicks": 96,
          "midi": 42,
          "name": "F#2",
          "ticks": 29376,
          "time": 40.619434500000004,
          "velocity": 0.4330708661417323
        },
        {
          "duration": 0.1327432500000043,
          "durationTicks": 96,
          "midi": 42,
          "name": "F#2",
          "ticks": 29472,
          "time": 40.75217775,
          "velocity": 0.4330708661417323
        },
        {
          "duration": 0.1327432499999972,
          "durationTicks": 96,
          "midi": 36,
          "name": "C2",
          "ticks": 29568,
          "time": 40.884921000000006,
          "velocity": 0.4330708661417323
        },
        {
          "duration": 0.1327432499999972,
          "durationTicks": 96,
          "midi": 38,
          "name": "D2",
          "ticks": 29568,
          "time": 40.884921000000006,
          "velocity": 0.4330708661417323
        },
        {
          "duration": 0.1327432499999972,
          "durationTicks": 96,
          "midi": 42,
          "name": "F#2",
          "ticks": 29568,
          "time": 40.884921000000006,
          "velocity": 0.4330708661417323
        },
        {
          "duration": 0.1327432500000043,
          "durationTicks": 96,
          "midi": 42,
          "name": "F#2",
          "ticks": 29760,
          "time": 41.1504075,
          "velocity": 0.4330708661417323
        },
        {
          "duration": 0.1327432499999972,
          "durationTicks": 96,
          "midi": 42,
          "name": "F#2",
          "ticks": 29856,
          "time": 41.283150750000004,
          "velocity": 0.4330708661417323
        },
        {
          "duration": 0.1327432499999972,
          "durationTicks": 96,
          "midi": 36,
          "name": "C2",
          "ticks": 29952,
          "time": 41.415894,
          "velocity": 0.4330708661417323
        },
        {
          "duration": 0.1327432499999972,
          "durationTicks": 96,
          "midi": 42,
          "name": "F#2",
          "ticks": 29952,
          "time": 41.415894,
          "velocity": 0.4330708661417323
        },
        {
          "duration": 0.1327432499999972,
          "durationTicks": 96,
          "midi": 42,
          "name": "F#2",
          "ticks": 30144,
          "time": 41.6813805,
          "velocity": 0.4330708661417323
        },
        {
          "duration": 0.1327432500000043,
          "durationTicks": 96,
          "midi": 42,
          "name": "F#2",
          "ticks": 30240,
          "time": 41.81412375,
          "velocity": 0.4330708661417323
        },
        {
          "duration": 0.1327432499999972,
          "durationTicks": 96,
          "midi": 36,
          "name": "C2",
          "ticks": 30336,
          "time": 41.946867000000005,
          "velocity": 0.4330708661417323
        },
        {
          "duration": 0.1327432499999972,
          "durationTicks": 96,
          "midi": 38,
          "name": "D2",
          "ticks": 30336,
          "time": 41.946867000000005,
          "velocity": 0.4330708661417323
        },
        {
          "duration": 0.1327432499999972,
          "durationTicks": 96,
          "midi": 42,
          "name": "F#2",
          "ticks": 30336,
          "time": 41.946867000000005,
          "velocity": 0.4330708661417323
        },
        {
          "duration": 0.1327432500000043,
          "durationTicks": 96,
          "midi": 42,
          "name": "F#2",
          "ticks": 30528,
          "time": 42.2123535,
          "velocity": 0.4330708661417323
        },
        {
          "duration": 0.1327432499999972,
          "durationTicks": 96,
          "midi": 42,
          "name": "F#2",
          "ticks": 30624,
          "time": 42.34509675,
          "velocity": 0.4330708661417323
        },
        {
          "duration": 0.1327432500000043,
          "durationTicks": 96,
          "midi": 36,
          "name": "C2",
          "ticks": 30720,
          "time": 42.47784,
          "velocity": 0.4330708661417323
        },
        {
          "duration": 0.1327432500000043,
          "durationTicks": 96,
          "midi": 42,
          "name": "F#2",
          "ticks": 30720,
          "time": 42.47784,
          "velocity": 0.4330708661417323
        },
        {
          "duration": 0.1327432499999972,
          "durationTicks": 96,
          "midi": 38,
          "name": "D2",
          "ticks": 30912,
          "time": 42.7433265,
          "velocity": 0.4330708661417323
        },
        {
          "duration": 0.1327432499999972,
          "durationTicks": 96,
          "midi": 42,
          "name": "F#2",
          "ticks": 30912,
          "time": 42.7433265,
          "velocity": 0.4330708661417323
        },
        {
          "duration": 0.1327432500000043,
          "durationTicks": 96,
          "midi": 42,
          "name": "F#2",
          "ticks": 31008,
          "time": 42.87606975,
          "velocity": 0.4330708661417323
        },
        {
          "duration": 0.1327432499999972,
          "durationTicks": 96,
          "midi": 36,
          "name": "C2",
          "ticks": 31104,
          "time": 43.008813,
          "velocity": 0.4330708661417323
        },
        {
          "duration": 0.1327432499999972,
          "durationTicks": 96,
          "midi": 42,
          "name": "F#2",
          "ticks": 31104,
          "time": 43.008813,
          "velocity": 0.4330708661417323
        },
        {
          "duration": 0.1327432500000043,
          "durationTicks": 96,
          "midi": 38,
          "name": "D2",
          "ticks": 31200,
          "time": 43.14155625,
          "velocity": 0.4330708661417323
        },
        {
          "duration": 0.1327432499999972,
          "durationTicks": 96,
          "midi": 46,
          "name": "A#2",
          "ticks": 31296,
          "time": 43.274299500000005,
          "velocity": 0.4330708661417323
        },
        {
          "duration": 0.1327432500000043,
          "durationTicks": 96,
          "midi": 36,
          "name": "C2",
          "ticks": 31488,
          "time": 43.539786,
          "velocity": 0.4330708661417323
        },
        {
          "duration": 0.1327432500000043,
          "durationTicks": 96,
          "midi": 38,
          "name": "D2",
          "ticks": 31488,
          "time": 43.539786,
          "velocity": 0.4330708661417323
        },
        {
          "duration": 0.1327432500000043,
          "durationTicks": 96,
          "midi": 42,
          "name": "F#2",
          "ticks": 31488,
          "time": 43.539786,
          "velocity": 0.4330708661417323
        },
        {
          "duration": 0.1327432500000043,
          "durationTicks": 96,
          "midi": 38,
          "name": "D2",
          "ticks": 31680,
          "time": 43.8052725,
          "velocity": 0.4330708661417323
        },
        {
          "duration": 0.1327432500000043,
          "durationTicks": 96,
          "midi": 42,
          "name": "F#2",
          "ticks": 31680,
          "time": 43.8052725,
          "velocity": 0.4330708661417323
        },
        {
          "duration": 0.1327432499999972,
          "durationTicks": 96,
          "midi": 38,
          "name": "D2",
          "ticks": 31776,
          "time": 43.938015750000005,
          "velocity": 0.4330708661417323
        },
        {
          "duration": 0.1327432499999972,
          "durationTicks": 96,
          "midi": 42,
          "name": "F#2",
          "ticks": 31776,
          "time": 43.938015750000005,
          "velocity": 0.4330708661417323
        },
        {
          "duration": 0.1327432499999972,
          "durationTicks": 96,
          "midi": 36,
          "name": "C2",
          "ticks": 31872,
          "time": 44.070759,
          "velocity": 0.4330708661417323
        },
        {
          "duration": 0.1327432499999972,
          "durationTicks": 96,
          "midi": 38,
          "name": "D2",
          "ticks": 31872,
          "time": 44.070759,
          "velocity": 0.4330708661417323
        },
        {
          "duration": 0.1327432499999972,
          "durationTicks": 96,
          "midi": 42,
          "name": "F#2",
          "ticks": 31872,
          "time": 44.070759,
          "velocity": 0.4330708661417323
        },
        {
          "duration": 0.1327432500000043,
          "durationTicks": 96,
          "midi": 38,
          "name": "D2",
          "ticks": 31968,
          "time": 44.20350225,
          "velocity": 0.4330708661417323
        },
        {
          "duration": 0.1327432499999972,
          "durationTicks": 96,
          "midi": 38,
          "name": "D2",
          "ticks": 32064,
          "time": 44.336245500000004,
          "velocity": 0.4330708661417323
        },
        {
          "duration": 0.1327432499999972,
          "durationTicks": 96,
          "midi": 46,
          "name": "A#2",
          "ticks": 32064,
          "time": 44.336245500000004,
          "velocity": 0.4330708661417323
        },
        {
          "duration": 0.1327432500000043,
          "durationTicks": 96,
          "midi": 38,
          "name": "D2",
          "ticks": 32160,
          "time": 44.46898875,
          "velocity": 0.4330708661417323
        },
        {
          "duration": 0.1327432499999972,
          "durationTicks": 96,
          "midi": 36,
          "name": "C2",
          "ticks": 32256,
          "time": 44.601732000000005,
          "velocity": 0.4330708661417323
        },
        {
          "duration": 0.1327432499999972,
          "durationTicks": 96,
          "midi": 42,
          "name": "F#2",
          "ticks": 32256,
          "time": 44.601732000000005,
          "velocity": 0.4330708661417323
        },
        {
          "duration": 0.1327432500000043,
          "durationTicks": 96,
          "midi": 42,
          "name": "F#2",
          "ticks": 32448,
          "time": 44.8672185,
          "velocity": 0.4330708661417323
        },
        {
          "duration": 0.1327432499999972,
          "durationTicks": 96,
          "midi": 42,
          "name": "F#2",
          "ticks": 32544,
          "time": 44.999961750000004,
          "velocity": 0.4330708661417323
        },
        {
          "duration": 0.1327432500000043,
          "durationTicks": 96,
          "midi": 39,
          "name": "D#2",
          "ticks": 32640,
          "time": 45.132705,
          "velocity": 0.4330708661417323
        },
        {
          "duration": 0.1327432500000043,
          "durationTicks": 96,
          "midi": 36,
          "name": "C2",
          "ticks": 32640,
          "time": 45.132705,
          "velocity": 0.4330708661417323
        },
        {
          "duration": 0.1327432500000043,
          "durationTicks": 96,
          "midi": 38,
          "name": "D2",
          "ticks": 32640,
          "time": 45.132705,
          "velocity": 0.4330708661417323
        },
        {
          "duration": 0.1327432500000043,
          "durationTicks": 96,
          "midi": 42,
          "name": "F#2",
          "ticks": 32640,
          "time": 45.132705,
          "velocity": 0.4330708661417323
        },
        {
          "duration": 0.1327432499999972,
          "durationTicks": 96,
          "midi": 42,
          "name": "F#2",
          "ticks": 32832,
          "time": 45.3981915,
          "velocity": 0.4330708661417323
        },
        {
          "duration": 0.1327432500000043,
          "durationTicks": 96,
          "midi": 42,
          "name": "F#2",
          "ticks": 32928,
          "time": 45.53093475,
          "velocity": 0.4330708661417323
        },
        {
          "duration": 0.1327432499999972,
          "durationTicks": 96,
          "midi": 36,
          "name": "C2",
          "ticks": 33024,
          "time": 45.663678000000004,
          "velocity": 0.4330708661417323
        },
        {
          "duration": 0.1327432499999972,
          "durationTicks": 96,
          "midi": 42,
          "name": "F#2",
          "ticks": 33024,
          "time": 45.663678000000004,
          "velocity": 0.4330708661417323
        },
        {
          "duration": 0.1327432499999972,
          "durationTicks": 96,
          "midi": 42,
          "name": "F#2",
          "ticks": 33216,
          "time": 45.929164500000006,
          "velocity": 0.4330708661417323
        },
        {
          "duration": 0.1327432499999972,
          "durationTicks": 96,
          "midi": 42,
          "name": "F#2",
          "ticks": 33312,
          "time": 46.06190775,
          "velocity": 0.4330708661417323
        },
        {
          "duration": 0.1327432500000043,
          "durationTicks": 96,
          "midi": 39,
          "name": "D#2",
          "ticks": 33408,
          "time": 46.194651,
          "velocity": 0.4330708661417323
        },
        {
          "duration": 0.1327432500000043,
          "durationTicks": 96,
          "midi": 36,
          "name": "C2",
          "ticks": 33408,
          "time": 46.194651,
          "velocity": 0.4330708661417323
        },
        {
          "duration": 0.1327432500000043,
          "durationTicks": 96,
          "midi": 38,
          "name": "D2",
          "ticks": 33408,
          "time": 46.194651,
          "velocity": 0.4330708661417323
        },
        {
          "duration": 0.1327432500000043,
          "durationTicks": 96,
          "midi": 42,
          "name": "F#2",
          "ticks": 33408,
          "time": 46.194651,
          "velocity": 0.4330708661417323
        },
        {
          "duration": 0.1327432499999972,
          "durationTicks": 96,
          "midi": 42,
          "name": "F#2",
          "ticks": 33600,
          "time": 46.4601375,
          "velocity": 0.4330708661417323
        },
        {
          "duration": 0.1327432500000043,
          "durationTicks": 96,
          "midi": 42,
          "name": "F#2",
          "ticks": 33696,
          "time": 46.59288075,
          "velocity": 0.4330708661417323
        },
        {
          "duration": 0.1327432499999972,
          "durationTicks": 96,
          "midi": 36,
          "name": "C2",
          "ticks": 33792,
          "time": 46.725624,
          "velocity": 0.4330708661417323
        },
        {
          "duration": 0.1327432499999972,
          "durationTicks": 96,
          "midi": 42,
          "name": "F#2",
          "ticks": 33792,
          "time": 46.725624,
          "velocity": 0.4330708661417323
        },
        {
          "duration": 0.1327432499999972,
          "durationTicks": 96,
          "midi": 42,
          "name": "F#2",
          "ticks": 33984,
          "time": 46.991110500000005,
          "velocity": 0.4330708661417323
        },
        {
          "duration": 0.1327432499999972,
          "durationTicks": 96,
          "midi": 42,
          "name": "F#2",
          "ticks": 34080,
          "time": 47.12385375,
          "velocity": 0.4330708661417323
        },
        {
          "duration": 0.1327432500000043,
          "durationTicks": 96,
          "midi": 39,
          "name": "D#2",
          "ticks": 34176,
          "time": 47.256597,
          "velocity": 0.4330708661417323
        },
        {
          "duration": 0.1327432500000043,
          "durationTicks": 96,
          "midi": 36,
          "name": "C2",
          "ticks": 34176,
          "time": 47.256597,
          "velocity": 0.4330708661417323
        },
        {
          "duration": 0.1327432500000043,
          "durationTicks": 96,
          "midi": 38,
          "name": "D2",
          "ticks": 34176,
          "time": 47.256597,
          "velocity": 0.4330708661417323
        },
        {
          "duration": 0.1327432500000043,
          "durationTicks": 96,
          "midi": 42,
          "name": "F#2",
          "ticks": 34176,
          "time": 47.256597,
          "velocity": 0.4330708661417323
        },
        {
          "duration": 0.1327432500000043,
          "durationTicks": 96,
          "midi": 42,
          "name": "F#2",
          "ticks": 34368,
          "time": 47.5220835,
          "velocity": 0.4330708661417323
        },
        {
          "duration": 0.1327432499999972,
          "durationTicks": 96,
          "midi": 42,
          "name": "F#2",
          "ticks": 34464,
          "time": 47.654826750000005,
          "velocity": 0.4330708661417323
        },
        {
          "duration": 0.1327432499999972,
          "durationTicks": 96,
          "midi": 36,
          "name": "C2",
          "ticks": 34560,
          "time": 47.78757,
          "velocity": 0.4330708661417323
        },
        {
          "duration": 0.1327432499999972,
          "durationTicks": 96,
          "midi": 42,
          "name": "F#2",
          "ticks": 34560,
          "time": 47.78757,
          "velocity": 0.4330708661417323
        },
        {
          "duration": 0.1327432499999972,
          "durationTicks": 96,
          "midi": 42,
          "name": "F#2",
          "ticks": 34752,
          "time": 48.053056500000004,
          "velocity": 0.4330708661417323
        },
        {
          "duration": 0.1327432500000043,
          "durationTicks": 96,
          "midi": 42,
          "name": "F#2",
          "ticks": 34848,
          "time": 48.18579975,
          "velocity": 0.4330708661417323
        },
        {
          "duration": 0.1327432499999972,
          "durationTicks": 96,
          "midi": 39,
          "name": "D#2",
          "ticks": 34944,
          "time": 48.318543000000005,
          "velocity": 0.4330708661417323
        },
        {
          "duration": 0.1327432499999972,
          "durationTicks": 96,
          "midi": 36,
          "name": "C2",
          "ticks": 34944,
          "time": 48.318543000000005,
          "velocity": 0.4330708661417323
        },
        {
          "duration": 0.1327432499999972,
          "durationTicks": 96,
          "midi": 38,
          "name": "D2",
          "ticks": 34944,
          "time": 48.318543000000005,
          "velocity": 0.4330708661417323
        },
        {
          "duration": 0.1327432499999972,
          "durationTicks": 96,
          "midi": 42,
          "name": "F#2",
          "ticks": 34944,
          "time": 48.318543000000005,
          "velocity": 0.4330708661417323
        },
        {
          "duration": 0.1327432500000043,
          "durationTicks": 96,
          "midi": 46,
          "name": "A#2",
          "ticks": 35136,
          "time": 48.5840295,
          "velocity": 0.4330708661417323
        },
        {
          "duration": 0.1327432500000043,
          "durationTicks": 96,
          "midi": 36,
          "name": "C2",
          "ticks": 35328,
          "time": 48.849516,
          "velocity": 0.4330708661417323
        },
        {
          "duration": 0.1327432500000043,
          "durationTicks": 96,
          "midi": 42,
          "name": "F#2",
          "ticks": 35328,
          "time": 48.849516,
          "velocity": 0.4330708661417323
        },
        {
          "duration": 0.1327432499999972,
          "durationTicks": 96,
          "midi": 42,
          "name": "F#2",
          "ticks": 35520,
          "time": 49.1150025,
          "velocity": 0.4330708661417323
        },
        {
          "duration": 0.1327432500000043,
          "durationTicks": 96,
          "midi": 42,
          "name": "F#2",
          "ticks": 35616,
          "time": 49.24774575,
          "velocity": 0.4330708661417323
        },
        {
          "duration": 0.1327432499999972,
          "durationTicks": 96,
          "midi": 39,
          "name": "D#2",
          "ticks": 35712,
          "time": 49.380489000000004,
          "velocity": 0.4330708661417323
        },
        {
          "duration": 0.1327432499999972,
          "durationTicks": 96,
          "midi": 36,
          "name": "C2",
          "ticks": 35712,
          "time": 49.380489000000004,
          "velocity": 0.4330708661417323
        },
        {
          "duration": 0.1327432499999972,
          "durationTicks": 96,
          "midi": 38,
          "name": "D2",
          "ticks": 35712,
          "time": 49.380489000000004,
          "velocity": 0.4330708661417323
        },
        {
          "duration": 0.1327432499999972,
          "durationTicks": 96,
          "midi": 42,
          "name": "F#2",
          "ticks": 35712,
          "time": 49.380489000000004,
          "velocity": 0.4330708661417323
        },
        {
          "duration": 0.1327432499999972,
          "durationTicks": 96,
          "midi": 42,
          "name": "F#2",
          "ticks": 35904,
          "time": 49.645975500000006,
          "velocity": 0.4330708661417323
        },
        {
          "duration": 0.1327432499999972,
          "durationTicks": 96,
          "midi": 42,
          "name": "F#2",
          "ticks": 36000,
          "time": 49.77871875,
          "velocity": 0.4330708661417323
        },
        {
          "duration": 0.1327432500000043,
          "durationTicks": 96,
          "midi": 36,
          "name": "C2",
          "ticks": 36096,
          "time": 49.911462,
          "velocity": 0.4330708661417323
        },
        {
          "duration": 0.1327432500000043,
          "durationTicks": 96,
          "midi": 42,
          "name": "F#2",
          "ticks": 36096,
          "time": 49.911462,
          "velocity": 0.4330708661417323
        },
        {
          "duration": 0.1327432500000043,
          "durationTicks": 96,
          "midi": 42,
          "name": "F#2",
          "ticks": 36288,
          "time": 50.1769485,
          "velocity": 0.4330708661417323
        },
        {
          "duration": 0.1327432499999972,
          "durationTicks": 96,
          "midi": 42,
          "name": "F#2",
          "ticks": 36384,
          "time": 50.309691750000006,
          "velocity": 0.4330708661417323
        },
        {
          "duration": 0.1327432499999972,
          "durationTicks": 96,
          "midi": 39,
          "name": "D#2",
          "ticks": 36480,
          "time": 50.442435,
          "velocity": 0.4330708661417323
        },
        {
          "duration": 0.1327432499999972,
          "durationTicks": 96,
          "midi": 36,
          "name": "C2",
          "ticks": 36480,
          "time": 50.442435,
          "velocity": 0.4330708661417323
        },
        {
          "duration": 0.1327432499999972,
          "durationTicks": 96,
          "midi": 38,
          "name": "D2",
          "ticks": 36480,
          "time": 50.442435,
          "velocity": 0.4330708661417323
        },
        {
          "duration": 0.1327432499999972,
          "durationTicks": 96,
          "midi": 42,
          "name": "F#2",
          "ticks": 36480,
          "time": 50.442435,
          "velocity": 0.4330708661417323
        },
        {
          "duration": 0.1327432499999972,
          "durationTicks": 96,
          "midi": 42,
          "name": "F#2",
          "ticks": 36672,
          "time": 50.707921500000005,
          "velocity": 0.4330708661417323
        },
        {
          "duration": 0.1327432500000043,
          "durationTicks": 96,
          "midi": 42,
          "name": "F#2",
          "ticks": 36768,
          "time": 50.84066475,
          "velocity": 0.4330708661417323
        },
        {
          "duration": 0.1327432499999972,
          "durationTicks": 96,
          "midi": 36,
          "name": "C2",
          "ticks": 36864,
          "time": 50.973408000000006,
          "velocity": 0.4330708661417323
        },
        {
          "duration": 0.1327432499999972,
          "durationTicks": 96,
          "midi": 42,
          "name": "F#2",
          "ticks": 36864,
          "time": 50.973408000000006,
          "velocity": 0.4330708661417323
        },
        {
          "duration": 0.1327432500000043,
          "durationTicks": 96,
          "midi": 42,
          "name": "F#2",
          "ticks": 37056,
          "time": 51.2388945,
          "velocity": 0.4330708661417323
        },
        {
          "duration": 0.1327432499999972,
          "durationTicks": 96,
          "midi": 42,
          "name": "F#2",
          "ticks": 37152,
          "time": 51.371637750000005,
          "velocity": 0.4330708661417323
        },
        {
          "duration": 0.1327432499999972,
          "durationTicks": 96,
          "midi": 39,
          "name": "D#2",
          "ticks": 37248,
          "time": 51.504381,
          "velocity": 0.4330708661417323
        },
        {
          "duration": 0.1327432499999972,
          "durationTicks": 96,
          "midi": 36,
          "name": "C2",
          "ticks": 37248,
          "time": 51.504381,
          "velocity": 0.4330708661417323
        },
        {
          "duration": 0.1327432499999972,
          "durationTicks": 96,
          "midi": 38,
          "name": "D2",
          "ticks": 37248,
          "time": 51.504381,
          "velocity": 0.4330708661417323
        },
        {
          "duration": 0.1327432499999972,
          "durationTicks": 96,
          "midi": 42,
          "name": "F#2",
          "ticks": 37248,
          "time": 51.504381,
          "velocity": 0.4330708661417323
        },
        {
          "duration": 0.1327432499999972,
          "durationTicks": 96,
          "midi": 46,
          "name": "A#2",
          "ticks": 37440,
          "time": 51.769867500000004,
          "velocity": 0.4330708661417323
        },
        {
          "duration": 0.1327432499999972,
          "durationTicks": 96,
          "midi": 36,
          "name": "C2",
          "ticks": 37632,
          "time": 52.035354000000005,
          "velocity": 0.4330708661417323
        },
        {
          "duration": 0.1327432499999972,
          "durationTicks": 96,
          "midi": 42,
          "name": "F#2",
          "ticks": 37632,
          "time": 52.035354000000005,
          "velocity": 0.4330708661417323
        },
        {
          "duration": 0.1327432500000043,
          "durationTicks": 96,
          "midi": 42,
          "name": "F#2",
          "ticks": 37824,
          "time": 52.3008405,
          "velocity": 0.4330708661417323
        },
        {
          "duration": 0.1327432499999972,
          "durationTicks": 96,
          "midi": 42,
          "name": "F#2",
          "ticks": 37920,
          "time": 52.433583750000004,
          "velocity": 0.4330708661417323
        },
        {
          "duration": 0.1327432500000043,
          "durationTicks": 96,
          "midi": 39,
          "name": "D#2",
          "ticks": 38016,
          "time": 52.566327,
          "velocity": 0.4330708661417323
        },
        {
          "duration": 0.1327432500000043,
          "durationTicks": 96,
          "midi": 36,
          "name": "C2",
          "ticks": 38016,
          "time": 52.566327,
          "velocity": 0.4330708661417323
        },
        {
          "duration": 0.1327432500000043,
          "durationTicks": 96,
          "midi": 38,
          "name": "D2",
          "ticks": 38016,
          "time": 52.566327,
          "velocity": 0.4330708661417323
        },
        {
          "duration": 0.1327432500000043,
          "durationTicks": 96,
          "midi": 42,
          "name": "F#2",
          "ticks": 38016,
          "time": 52.566327,
          "velocity": 0.4330708661417323
        },
        {
          "duration": 0.1327432499999972,
          "durationTicks": 96,
          "midi": 39,
          "name": "D#2",
          "ticks": 38112,
          "time": 52.699070250000005,
          "velocity": 0.4330708661417323
        },
        {
          "duration": 0.1327432499999972,
          "durationTicks": 96,
          "midi": 39,
          "name": "D#2",
          "ticks": 38208,
          "time": 52.8318135,
          "velocity": 0.4330708661417323
        },
        {
          "duration": 0.1327432499999972,
          "durationTicks": 96,
          "midi": 46,
          "name": "A#2",
          "ticks": 38208,
          "time": 52.8318135,
          "velocity": 0.4330708661417323
        },
        {
          "duration": 0.1327432500000043,
          "durationTicks": 96,
          "midi": 39,
          "name": "D#2",
          "ticks": 38304,
          "time": 52.96455675,
          "velocity": 0.4330708661417323
        },
        {
          "duration": 0.1327432499999972,
          "durationTicks": 96,
          "midi": 36,
          "name": "C2",
          "ticks": 38400,
          "time": 53.097300000000004,
          "velocity": 0.4330708661417323
        },
        {
          "duration": 0.1327432499999972,
          "durationTicks": 96,
          "midi": 42,
          "name": "F#2",
          "ticks": 38400,
          "time": 53.097300000000004,
          "velocity": 0.4330708661417323
        },
        {
          "duration": 0.1327432499999972,
          "durationTicks": 96,
          "midi": 42,
          "name": "F#2",
          "ticks": 38592,
          "time": 53.362786500000006,
          "velocity": 0.4330708661417323
        },
        {
          "duration": 0.1327432499999972,
          "durationTicks": 96,
          "midi": 42,
          "name": "F#2",
          "ticks": 38688,
          "time": 53.49552975,
          "velocity": 0.4330708661417323
        },
        {
          "duration": 0.1327432500000043,
          "durationTicks": 96,
          "midi": 39,
          "name": "D#2",
          "ticks": 38784,
          "time": 53.628273,
          "velocity": 0.4330708661417323
        },
        {
          "duration": 0.1327432500000043,
          "durationTicks": 96,
          "midi": 36,
          "name": "C2",
          "ticks": 38784,
          "time": 53.628273,
          "velocity": 0.4330708661417323
        },
        {
          "duration": 0.1327432500000043,
          "durationTicks": 96,
          "midi": 38,
          "name": "D2",
          "ticks": 38784,
          "time": 53.628273,
          "velocity": 0.4330708661417323
        },
        {
          "duration": 0.1327432500000043,
          "durationTicks": 96,
          "midi": 42,
          "name": "F#2",
          "ticks": 38784,
          "time": 53.628273,
          "velocity": 0.4330708661417323
        },
        {
          "duration": 0.1327432500000043,
          "durationTicks": 96,
          "midi": 42,
          "name": "F#2",
          "ticks": 38976,
          "time": 53.8937595,
          "velocity": 0.4330708661417323
        },
        {
          "duration": 0.1327432499999972,
          "durationTicks": 96,
          "midi": 42,
          "name": "F#2",
          "ticks": 39072,
          "time": 54.026502750000006,
          "velocity": 0.4330708661417323
        },
        {
          "duration": 0.1327432499999972,
          "durationTicks": 96,
          "midi": 36,
          "name": "C2",
          "ticks": 39168,
          "time": 54.159246,
          "velocity": 0.4330708661417323
        },
        {
          "duration": 0.1327432499999972,
          "durationTicks": 96,
          "midi": 42,
          "name": "F#2",
          "ticks": 39168,
          "time": 54.159246,
          "velocity": 0.4330708661417323
        },
        {
          "duration": 0.1327432499999972,
          "durationTicks": 96,
          "midi": 42,
          "name": "F#2",
          "ticks": 39360,
          "time": 54.424732500000005,
          "velocity": 0.4330708661417323
        },
        {
          "duration": 0.1327432500000043,
          "durationTicks": 96,
          "midi": 42,
          "name": "F#2",
          "ticks": 39456,
          "time": 54.55747575,
          "velocity": 0.4330708661417323
        },
        {
          "duration": 0.1327432499999972,
          "durationTicks": 96,
          "midi": 39,
          "name": "D#2",
          "ticks": 39552,
          "time": 54.690219000000006,
          "velocity": 0.4330708661417323
        },
        {
          "duration": 0.1327432499999972,
          "durationTicks": 96,
          "midi": 36,
          "name": "C2",
          "ticks": 39552,
          "time": 54.690219000000006,
          "velocity": 0.4330708661417323
        },
        {
          "duration": 0.1327432499999972,
          "durationTicks": 96,
          "midi": 38,
          "name": "D2",
          "ticks": 39552,
          "time": 54.690219000000006,
          "velocity": 0.4330708661417323
        },
        {
          "duration": 0.1327432499999972,
          "durationTicks": 96,
          "midi": 42,
          "name": "F#2",
          "ticks": 39552,
          "time": 54.690219000000006,
          "velocity": 0.4330708661417323
        },
        {
          "duration": 0.1327432500000043,
          "durationTicks": 96,
          "midi": 42,
          "name": "F#2",
          "ticks": 39744,
          "time": 54.9557055,
          "velocity": 0.4330708661417323
        },
        {
          "duration": 0.1327432499999972,
          "durationTicks": 96,
          "midi": 42,
          "name": "F#2",
          "ticks": 39840,
          "time": 55.088448750000005,
          "velocity": 0.4330708661417323
        },
        {
          "duration": 0.1327432500000043,
          "durationTicks": 96,
          "midi": 36,
          "name": "C2",
          "ticks": 39936,
          "time": 55.221192,
          "velocity": 0.4330708661417323
        },
        {
          "duration": 0.1327432500000043,
          "durationTicks": 96,
          "midi": 42,
          "name": "F#2",
          "ticks": 39936,
          "time": 55.221192,
          "velocity": 0.4330708661417323
        },
        {
          "duration": 0.1327432499999972,
          "durationTicks": 96,
          "midi": 42,
          "name": "F#2",
          "ticks": 40128,
          "time": 55.486678500000004,
          "velocity": 0.4330708661417323
        },
        {
          "duration": 0.1327432500000043,
          "durationTicks": 96,
          "midi": 42,
          "name": "F#2",
          "ticks": 40224,
          "time": 55.61942175,
          "velocity": 0.4330708661417323
        },
        {
          "duration": 0.1327432499999972,
          "durationTicks": 96,
          "midi": 39,
          "name": "D#2",
          "ticks": 40320,
          "time": 55.752165000000005,
          "velocity": 0.4330708661417323
        },
        {
          "duration": 0.1327432499999972,
          "durationTicks": 96,
          "midi": 36,
          "name": "C2",
          "ticks": 40320,
          "time": 55.752165000000005,
          "velocity": 0.4330708661417323
        },
        {
          "duration": 0.1327432499999972,
          "durationTicks": 96,
          "midi": 38,
          "name": "D2",
          "ticks": 40320,
          "time": 55.752165000000005,
          "velocity": 0.4330708661417323
        },
        {
          "duration": 0.1327432499999972,
          "durationTicks": 96,
          "midi": 42,
          "name": "F#2",
          "ticks": 40320,
          "time": 55.752165000000005,
          "velocity": 0.4330708661417323
        },
        {
          "duration": 0.1327432500000043,
          "durationTicks": 96,
          "midi": 42,
          "name": "F#2",
          "ticks": 40512,
          "time": 56.0176515,
          "velocity": 0.4330708661417323
        },
        {
          "duration": 0.1327432499999972,
          "durationTicks": 96,
          "midi": 42,
          "name": "F#2",
          "ticks": 40608,
          "time": 56.150394750000004,
          "velocity": 0.4330708661417323
        },
        {
          "duration": 0.1327432500000043,
          "durationTicks": 96,
          "midi": 36,
          "name": "C2",
          "ticks": 40704,
          "time": 56.283138,
          "velocity": 0.4330708661417323
        },
        {
          "duration": 0.1327432500000043,
          "durationTicks": 96,
          "midi": 42,
          "name": "F#2",
          "ticks": 40704,
          "time": 56.283138,
          "velocity": 0.4330708661417323
        },
        {
          "duration": 0.1327432499999972,
          "durationTicks": 96,
          "midi": 42,
          "name": "F#2",
          "ticks": 40896,
          "time": 56.5486245,
          "velocity": 0.4330708661417323
        },
        {
          "duration": 0.1327432500000043,
          "durationTicks": 96,
          "midi": 42,
          "name": "F#2",
          "ticks": 40992,
          "time": 56.68136775,
          "velocity": 0.4330708661417323
        },
        {
          "duration": 0.1327432499999972,
          "durationTicks": 96,
          "midi": 39,
          "name": "D#2",
          "ticks": 41088,
          "time": 56.814111000000004,
          "velocity": 0.4330708661417323
        },
        {
          "duration": 0.1327432499999972,
          "durationTicks": 96,
          "midi": 36,
          "name": "C2",
          "ticks": 41088,
          "time": 56.814111000000004,
          "velocity": 0.4330708661417323
        },
        {
          "duration": 0.1327432499999972,
          "durationTicks": 96,
          "midi": 38,
          "name": "D2",
          "ticks": 41088,
          "time": 56.814111000000004,
          "velocity": 0.4330708661417323
        },
        {
          "duration": 0.1327432499999972,
          "durationTicks": 96,
          "midi": 42,
          "name": "F#2",
          "ticks": 41088,
          "time": 56.814111000000004,
          "velocity": 0.4330708661417323
        },
        {
          "duration": 0.1327432499999972,
          "durationTicks": 96,
          "midi": 46,
          "name": "A#2",
          "ticks": 41280,
          "time": 57.079597500000006,
          "velocity": 0.4330708661417323
        },
        {
          "duration": 0.1327432500000043,
          "durationTicks": 96,
          "midi": 36,
          "name": "C2",
          "ticks": 41472,
          "time": 57.345084,
          "velocity": 0.4330708661417323
        },
        {
          "duration": 0.1327432500000043,
          "durationTicks": 96,
          "midi": 42,
          "name": "F#2",
          "ticks": 41472,
          "time": 57.345084,
          "velocity": 0.4330708661417323
        },
        {
          "duration": 0.1327432500000043,
          "durationTicks": 96,
          "midi": 42,
          "name": "F#2",
          "ticks": 41664,
          "time": 57.6105705,
          "velocity": 0.4330708661417323
        },
        {
          "duration": 0.1327432499999972,
          "durationTicks": 96,
          "midi": 42,
          "name": "F#2",
          "ticks": 41760,
          "time": 57.743313750000006,
          "velocity": 0.4330708661417323
        },
        {
          "duration": 0.1327432499999972,
          "durationTicks": 96,
          "midi": 39,
          "name": "D#2",
          "ticks": 41856,
          "time": 57.876057,
          "velocity": 0.4330708661417323
        },
        {
          "duration": 0.1327432499999972,
          "durationTicks": 96,
          "midi": 36,
          "name": "C2",
          "ticks": 41856,
          "time": 57.876057,
          "velocity": 0.4330708661417323
        },
        {
          "duration": 0.1327432499999972,
          "durationTicks": 96,
          "midi": 38,
          "name": "D2",
          "ticks": 41856,
          "time": 57.876057,
          "velocity": 0.4330708661417323
        },
        {
          "duration": 0.1327432499999972,
          "durationTicks": 96,
          "midi": 42,
          "name": "F#2",
          "ticks": 41856,
          "time": 57.876057,
          "velocity": 0.4330708661417323
        },
        {
          "duration": 0.1327432499999972,
          "durationTicks": 96,
          "midi": 42,
          "name": "F#2",
          "ticks": 42048,
          "time": 58.141543500000004,
          "velocity": 0.4330708661417323
        },
        {
          "duration": 0.1327432500000043,
          "durationTicks": 96,
          "midi": 42,
          "name": "F#2",
          "ticks": 42144,
          "time": 58.27428675,
          "velocity": 0.4330708661417323
        },
        {
          "duration": 0.1327432499999972,
          "durationTicks": 96,
          "midi": 36,
          "name": "C2",
          "ticks": 42240,
          "time": 58.407030000000006,
          "velocity": 0.4330708661417323
        },
        {
          "duration": 0.1327432499999972,
          "durationTicks": 96,
          "midi": 42,
          "name": "F#2",
          "ticks": 42240,
          "time": 58.407030000000006,
          "velocity": 0.4330708661417323
        },
        {
          "duration": 0.1327432500000043,
          "durationTicks": 96,
          "midi": 42,
          "name": "F#2",
          "ticks": 42432,
          "time": 58.6725165,
          "velocity": 0.4330708661417323
        },
        {
          "duration": 0.1327432499999972,
          "durationTicks": 96,
          "midi": 42,
          "name": "F#2",
          "ticks": 42528,
          "time": 58.805259750000005,
          "velocity": 0.4330708661417323
        },
        {
          "duration": 0.1327432500000043,
          "durationTicks": 96,
          "midi": 39,
          "name": "D#2",
          "ticks": 42624,
          "time": 58.938003,
          "velocity": 0.4330708661417323
        },
        {
          "duration": 0.1327432500000043,
          "durationTicks": 96,
          "midi": 36,
          "name": "C2",
          "ticks": 42624,
          "time": 58.938003,
          "velocity": 0.4330708661417323
        },
        {
          "duration": 0.1327432500000043,
          "durationTicks": 96,
          "midi": 38,
          "name": "D2",
          "ticks": 42624,
          "time": 58.938003,
          "velocity": 0.4330708661417323
        },
        {
          "duration": 0.1327432500000043,
          "durationTicks": 96,
          "midi": 42,
          "name": "F#2",
          "ticks": 42624,
          "time": 58.938003,
          "velocity": 0.4330708661417323
        },
        {
          "duration": 0.1327432499999972,
          "durationTicks": 96,
          "midi": 42,
          "name": "F#2",
          "ticks": 42816,
          "time": 59.2034895,
          "velocity": 0.4330708661417323
        },
        {
          "duration": 0.1327432500000043,
          "durationTicks": 96,
          "midi": 42,
          "name": "F#2",
          "ticks": 42912,
          "time": 59.33623275,
          "velocity": 0.4330708661417323
        },
        {
          "duration": 0.1327432499999972,
          "durationTicks": 96,
          "midi": 36,
          "name": "C2",
          "ticks": 43008,
          "time": 59.468976000000005,
          "velocity": 0.4330708661417323
        },
        {
          "duration": 0.1327432499999972,
          "durationTicks": 96,
          "midi": 42,
          "name": "F#2",
          "ticks": 43008,
          "time": 59.468976000000005,
          "velocity": 0.4330708661417323
        },
        {
          "duration": 0.1327432499999972,
          "durationTicks": 96,
          "midi": 42,
          "name": "F#2",
          "ticks": 43200,
          "time": 59.73446250000001,
          "velocity": 0.4330708661417323
        },
        {
          "duration": 0.1327432499999972,
          "durationTicks": 96,
          "midi": 42,
          "name": "F#2",
          "ticks": 43296,
          "time": 59.867205750000004,
          "velocity": 0.4330708661417323
        },
        {
          "duration": 0.1327432500000043,
          "durationTicks": 96,
          "midi": 39,
          "name": "D#2",
          "ticks": 43392,
          "time": 59.999949,
          "velocity": 0.4330708661417323
        },
        {
          "duration": 0.1327432500000043,
          "durationTicks": 96,
          "midi": 36,
          "name": "C2",
          "ticks": 43392,
          "time": 59.999949,
          "velocity": 0.4330708661417323
        },
        {
          "duration": 0.1327432500000043,
          "durationTicks": 96,
          "midi": 38,
          "name": "D2",
          "ticks": 43392,
          "time": 59.999949,
          "velocity": 0.4330708661417323
        },
        {
          "duration": 0.1327432500000043,
          "durationTicks": 96,
          "midi": 42,
          "name": "F#2",
          "ticks": 43392,
          "time": 59.999949,
          "velocity": 0.4330708661417323
        },
        {
          "duration": 0.1327432500000043,
          "durationTicks": 96,
          "midi": 46,
          "name": "A#2",
          "ticks": 43584,
          "time": 60.2654355,
          "velocity": 0.4330708661417323
        },
        {
          "duration": 0.1327432499999972,
          "durationTicks": 96,
          "midi": 36,
          "name": "C2",
          "ticks": 43776,
          "time": 60.530922000000004,
          "velocity": 0.4330708661417323
        },
        {
          "duration": 0.1327432499999972,
          "durationTicks": 96,
          "midi": 42,
          "name": "F#2",
          "ticks": 43776,
          "time": 60.530922000000004,
          "velocity": 0.4330708661417323
        },
        {
          "duration": 0.1327432499999972,
          "durationTicks": 96,
          "midi": 42,
          "name": "F#2",
          "ticks": 43968,
          "time": 60.796408500000005,
          "velocity": 0.4330708661417323
        },
        {
          "duration": 0.1327432499999972,
          "durationTicks": 96,
          "midi": 42,
          "name": "F#2",
          "ticks": 44064,
          "time": 60.92915175,
          "velocity": 0.4330708661417323
        },
        {
          "duration": 0.1327432500000043,
          "durationTicks": 96,
          "midi": 39,
          "name": "D#2",
          "ticks": 44160,
          "time": 61.061895,
          "velocity": 0.4330708661417323
        },
        {
          "duration": 0.1327432500000043,
          "durationTicks": 96,
          "midi": 36,
          "name": "C2",
          "ticks": 44160,
          "time": 61.061895,
          "velocity": 0.4330708661417323
        },
        {
          "duration": 0.1327432500000043,
          "durationTicks": 96,
          "midi": 38,
          "name": "D2",
          "ticks": 44160,
          "time": 61.061895,
          "velocity": 0.4330708661417323
        },
        {
          "duration": 0.1327432500000043,
          "durationTicks": 96,
          "midi": 42,
          "name": "F#2",
          "ticks": 44160,
          "time": 61.061895,
          "velocity": 0.4330708661417323
        },
        {
          "duration": 0.1327432499999972,
          "durationTicks": 96,
          "midi": 39,
          "name": "D#2",
          "ticks": 44256,
          "time": 61.194638250000004,
          "velocity": 0.4330708661417323
        },
        {
          "duration": 0.1327432500000043,
          "durationTicks": 96,
          "midi": 39,
          "name": "D#2",
          "ticks": 44352,
          "time": 61.3273815,
          "velocity": 0.4330708661417323
        },
        {
          "duration": 0.1327432500000043,
          "durationTicks": 96,
          "midi": 46,
          "name": "A#2",
          "ticks": 44352,
          "time": 61.3273815,
          "velocity": 0.4330708661417323
        },
        {
          "duration": 0.1327432499999972,
          "durationTicks": 96,
          "midi": 39,
          "name": "D#2",
          "ticks": 44448,
          "time": 61.460124750000006,
          "velocity": 0.4330708661417323
        },
        {
          "duration": 0.1327432499999972,
          "durationTicks": 96,
          "midi": 36,
          "name": "C2",
          "ticks": 44544,
          "time": 61.592868,
          "velocity": 0.4330708661417323
        },
        {
          "duration": 0.1327432499999972,
          "durationTicks": 96,
          "midi": 42,
          "name": "F#2",
          "ticks": 44544,
          "time": 61.592868,
          "velocity": 0.4330708661417323
        },
        {
          "duration": 0.1327432499999972,
          "durationTicks": 96,
          "midi": 42,
          "name": "F#2",
          "ticks": 44736,
          "time": 61.858354500000004,
          "velocity": 0.4330708661417323
        },
        {
          "duration": 0.1327432500000043,
          "durationTicks": 96,
          "midi": 42,
          "name": "F#2",
          "ticks": 44832,
          "time": 61.99109775,
          "velocity": 0.4330708661417323
        },
        {
          "duration": 0.1327432499999972,
          "durationTicks": 96,
          "midi": 39,
          "name": "D#2",
          "ticks": 44928,
          "time": 62.123841000000006,
          "velocity": 0.4330708661417323
        },
        {
          "duration": 0.1327432499999972,
          "durationTicks": 96,
          "midi": 36,
          "name": "C2",
          "ticks": 44928,
          "time": 62.123841000000006,
          "velocity": 0.4330708661417323
        },
        {
          "duration": 0.1327432499999972,
          "durationTicks": 96,
          "midi": 38,
          "name": "D2",
          "ticks": 44928,
          "time": 62.123841000000006,
          "velocity": 0.4330708661417323
        },
        {
          "duration": 0.1327432499999972,
          "durationTicks": 96,
          "midi": 42,
          "name": "F#2",
          "ticks": 44928,
          "time": 62.123841000000006,
          "velocity": 0.4330708661417323
        },
        {
          "duration": 0.1327432500000043,
          "durationTicks": 96,
          "midi": 42,
          "name": "F#2",
          "ticks": 45120,
          "time": 62.3893275,
          "velocity": 0.4330708661417323
        },
        {
          "duration": 0.1327432499999972,
          "durationTicks": 96,
          "midi": 42,
          "name": "F#2",
          "ticks": 45216,
          "time": 62.522070750000005,
          "velocity": 0.4330708661417323
        },
        {
          "duration": 0.1327432500000043,
          "durationTicks": 96,
          "midi": 36,
          "name": "C2",
          "ticks": 45312,
          "time": 62.654814,
          "velocity": 0.4330708661417323
        },
        {
          "duration": 0.1327432500000043,
          "durationTicks": 96,
          "midi": 42,
          "name": "F#2",
          "ticks": 45312,
          "time": 62.654814,
          "velocity": 0.4330708661417323
        },
        {
          "duration": 0.1327432499999972,
          "durationTicks": 96,
          "midi": 42,
          "name": "F#2",
          "ticks": 45504,
          "time": 62.9203005,
          "velocity": 0.4330708661417323
        },
        {
          "duration": 0.1327432500000043,
          "durationTicks": 96,
          "midi": 42,
          "name": "F#2",
          "ticks": 45600,
          "time": 63.05304375,
          "velocity": 0.4330708661417323
        },
        {
          "duration": 0.1327432499999972,
          "durationTicks": 96,
          "midi": 39,
          "name": "D#2",
          "ticks": 45696,
          "time": 63.185787000000005,
          "velocity": 0.4330708661417323
        },
        {
          "duration": 0.1327432499999972,
          "durationTicks": 96,
          "midi": 36,
          "name": "C2",
          "ticks": 45696,
          "time": 63.185787000000005,
          "velocity": 0.4330708661417323
        },
        {
          "duration": 0.1327432499999972,
          "durationTicks": 96,
          "midi": 38,
          "name": "D2",
          "ticks": 45696,
          "time": 63.185787000000005,
          "velocity": 0.4330708661417323
        },
        {
          "duration": 0.1327432499999972,
          "durationTicks": 96,
          "midi": 42,
          "name": "F#2",
          "ticks": 45696,
          "time": 63.185787000000005,
          "velocity": 0.4330708661417323
        },
        {
          "duration": 0.1327432499999972,
          "durationTicks": 96,
          "midi": 42,
          "name": "F#2",
          "ticks": 45888,
          "time": 63.451273500000006,
          "velocity": 0.4330708661417323
        },
        {
          "duration": 0.1327432499999972,
          "durationTicks": 96,
          "midi": 42,
          "name": "F#2",
          "ticks": 45984,
          "time": 63.58401675,
          "velocity": 0.4330708661417323
        },
        {
          "duration": 0.1327432500000043,
          "durationTicks": 96,
          "midi": 36,
          "name": "C2",
          "ticks": 46080,
          "time": 63.71676,
          "velocity": 0.4330708661417323
        },
        {
          "duration": 0.1327432500000043,
          "durationTicks": 96,
          "midi": 42,
          "name": "F#2",
          "ticks": 46080,
          "time": 63.71676,
          "velocity": 0.4330708661417323
        },
        {
          "duration": 0.1327432500000043,
          "durationTicks": 96,
          "midi": 42,
          "name": "F#2",
          "ticks": 46272,
          "time": 63.9822465,
          "velocity": 0.4330708661417323
        },
        {
          "duration": 0.1327432499999901,
          "durationTicks": 96,
          "midi": 42,
          "name": "F#2",
          "ticks": 46368,
          "time": 64.11498975,
          "velocity": 0.4330708661417323
        },
        {
          "duration": 0.1327432500000043,
          "durationTicks": 96,
          "midi": 39,
          "name": "D#2",
          "ticks": 46464,
          "time": 64.247733,
          "velocity": 0.4330708661417323
        },
        {
          "duration": 0.1327432500000043,
          "durationTicks": 96,
          "midi": 36,
          "name": "C2",
          "ticks": 46464,
          "time": 64.247733,
          "velocity": 0.4330708661417323
        },
        {
          "duration": 0.1327432500000043,
          "durationTicks": 96,
          "midi": 38,
          "name": "D2",
          "ticks": 46464,
          "time": 64.247733,
          "velocity": 0.4330708661417323
        },
        {
          "duration": 0.1327432500000043,
          "durationTicks": 96,
          "midi": 42,
          "name": "F#2",
          "ticks": 46464,
          "time": 64.247733,
          "velocity": 0.4330708661417323
        },
        {
          "duration": 0.1327432500000043,
          "durationTicks": 96,
          "midi": 42,
          "name": "F#2",
          "ticks": 46656,
          "time": 64.5132195,
          "velocity": 0.4330708661417323
        },
        {
          "duration": 0.1327432499999901,
          "durationTicks": 96,
          "midi": 42,
          "name": "F#2",
          "ticks": 46752,
          "time": 64.64596275000001,
          "velocity": 0.4330708661417323
        },
        {
          "duration": 0.1327432500000043,
          "durationTicks": 96,
          "midi": 36,
          "name": "C2",
          "ticks": 46848,
          "time": 64.778706,
          "velocity": 0.4330708661417323
        },
        {
          "duration": 0.1327432500000043,
          "durationTicks": 96,
          "midi": 42,
          "name": "F#2",
          "ticks": 46848,
          "time": 64.778706,
          "velocity": 0.4330708661417323
        },
        {
          "duration": 0.1327432499999901,
          "durationTicks": 96,
          "midi": 42,
          "name": "F#2",
          "ticks": 47040,
          "time": 65.04419250000001,
          "velocity": 0.4330708661417323
        },
        {
          "duration": 0.1327432500000043,
          "durationTicks": 96,
          "midi": 42,
          "name": "F#2",
          "ticks": 47136,
          "time": 65.17693575,
          "velocity": 0.4330708661417323
        },
        {
          "duration": 0.1327432500000043,
          "durationTicks": 96,
          "midi": 39,
          "name": "D#2",
          "ticks": 47232,
          "time": 65.309679,
          "velocity": 0.4330708661417323
        },
        {
          "duration": 0.1327432500000043,
          "durationTicks": 96,
          "midi": 36,
          "name": "C2",
          "ticks": 47232,
          "time": 65.309679,
          "velocity": 0.4330708661417323
        },
        {
          "duration": 0.1327432500000043,
          "durationTicks": 96,
          "midi": 38,
          "name": "D2",
          "ticks": 47232,
          "time": 65.309679,
          "velocity": 0.4330708661417323
        },
        {
          "duration": 0.1327432500000043,
          "durationTicks": 96,
          "midi": 42,
          "name": "F#2",
          "ticks": 47232,
          "time": 65.309679,
          "velocity": 0.4330708661417323
        },
        {
          "duration": 0.1327432500000043,
          "durationTicks": 96,
          "midi": 46,
          "name": "A#2",
          "ticks": 47424,
          "time": 65.5751655,
          "velocity": 0.4330708661417323
        },
        {
          "duration": 0.1327432500000043,
          "durationTicks": 96,
          "midi": 36,
          "name": "C2",
          "ticks": 47616,
          "time": 65.840652,
          "velocity": 0.4330708661417323
        },
        {
          "duration": 0.1327432500000043,
          "durationTicks": 96,
          "midi": 42,
          "name": "F#2",
          "ticks": 47616,
          "time": 65.840652,
          "velocity": 0.4330708661417323
        },
        {
          "duration": 0.1327432500000043,
          "durationTicks": 96,
          "midi": 42,
          "name": "F#2",
          "ticks": 47808,
          "time": 66.1061385,
          "velocity": 0.4330708661417323
        },
        {
          "duration": 0.1327432500000043,
          "durationTicks": 96,
          "midi": 42,
          "name": "F#2",
          "ticks": 47904,
          "time": 66.23888175,
          "velocity": 0.4330708661417323
        },
        {
          "duration": 0.1327432499999901,
          "durationTicks": 96,
          "midi": 39,
          "name": "D#2",
          "ticks": 48000,
          "time": 66.37162500000001,
          "velocity": 0.4330708661417323
        },
        {
          "duration": 0.1327432499999901,
          "durationTicks": 96,
          "midi": 36,
          "name": "C2",
          "ticks": 48000,
          "time": 66.37162500000001,
          "velocity": 0.4330708661417323
        },
        {
          "duration": 0.1327432499999901,
          "durationTicks": 96,
          "midi": 38,
          "name": "D2",
          "ticks": 48000,
          "time": 66.37162500000001,
          "velocity": 0.4330708661417323
        },
        {
          "duration": 0.1327432499999901,
          "durationTicks": 96,
          "midi": 42,
          "name": "F#2",
          "ticks": 48000,
          "time": 66.37162500000001,
          "velocity": 0.4330708661417323
        },
        {
          "duration": 0.1327432500000043,
          "durationTicks": 96,
          "midi": 42,
          "name": "F#2",
          "ticks": 48192,
          "time": 66.6371115,
          "velocity": 0.4330708661417323
        },
        {
          "duration": 0.1327432499999901,
          "durationTicks": 96,
          "midi": 42,
          "name": "F#2",
          "ticks": 48288,
          "time": 66.76985475000001,
          "velocity": 0.4330708661417323
        },
        {
          "duration": 0.1327432500000043,
          "durationTicks": 96,
          "midi": 36,
          "name": "C2",
          "ticks": 48384,
          "time": 66.902598,
          "velocity": 0.4330708661417323
        },
        {
          "duration": 0.1327432500000043,
          "durationTicks": 96,
          "midi": 42,
          "name": "F#2",
          "ticks": 48384,
          "time": 66.902598,
          "velocity": 0.4330708661417323
        },
        {
          "duration": 0.1327432500000043,
          "durationTicks": 96,
          "midi": 42,
          "name": "F#2",
          "ticks": 48576,
          "time": 67.1680845,
          "velocity": 0.4330708661417323
        },
        {
          "duration": 0.1327432499999901,
          "durationTicks": 96,
          "midi": 42,
          "name": "F#2",
          "ticks": 48672,
          "time": 67.30082775000001,
          "velocity": 0.4330708661417323
        },
        {
          "duration": 0.1327432500000043,
          "durationTicks": 96,
          "midi": 39,
          "name": "D#2",
          "ticks": 48768,
          "time": 67.433571,
          "velocity": 0.4330708661417323
        },
        {
          "duration": 0.1327432500000043,
          "durationTicks": 96,
          "midi": 36,
          "name": "C2",
          "ticks": 48768,
          "time": 67.433571,
          "velocity": 0.4330708661417323
        },
        {
          "duration": 0.1327432500000043,
          "durationTicks": 96,
          "midi": 38,
          "name": "D2",
          "ticks": 48768,
          "time": 67.433571,
          "velocity": 0.4330708661417323
        },
        {
          "duration": 0.1327432500000043,
          "durationTicks": 96,
          "midi": 42,
          "name": "F#2",
          "ticks": 48768,
          "time": 67.433571,
          "velocity": 0.4330708661417323
        },
        {
          "duration": 0.1327432499999901,
          "durationTicks": 96,
          "midi": 42,
          "name": "F#2",
          "ticks": 48960,
          "time": 67.69905750000001,
          "velocity": 0.4330708661417323
        },
        {
          "duration": 0.1327432500000043,
          "durationTicks": 96,
          "midi": 42,
          "name": "F#2",
          "ticks": 49056,
          "time": 67.83180075,
          "velocity": 0.4330708661417323
        },
        {
          "duration": 0.1327432500000043,
          "durationTicks": 96,
          "midi": 36,
          "name": "C2",
          "ticks": 49152,
          "time": 67.964544,
          "velocity": 0.4330708661417323
        },
        {
          "duration": 0.1327432500000043,
          "durationTicks": 96,
          "midi": 42,
          "name": "F#2",
          "ticks": 49152,
          "time": 67.964544,
          "velocity": 0.4330708661417323
        },
        {
          "duration": 0.1327432500000043,
          "durationTicks": 96,
          "midi": 42,
          "name": "F#2",
          "ticks": 49344,
          "time": 68.2300305,
          "velocity": 0.4330708661417323
        },
        {
          "duration": 0.1327432500000043,
          "durationTicks": 96,
          "midi": 42,
          "name": "F#2",
          "ticks": 49440,
          "time": 68.36277375,
          "velocity": 0.4330708661417323
        },
        {
          "duration": 0.1327432499999901,
          "durationTicks": 96,
          "midi": 39,
          "name": "D#2",
          "ticks": 49536,
          "time": 68.495517,
          "velocity": 0.4330708661417323
        },
        {
          "duration": 0.1327432499999901,
          "durationTicks": 96,
          "midi": 36,
          "name": "C2",
          "ticks": 49536,
          "time": 68.495517,
          "velocity": 0.4330708661417323
        },
        {
          "duration": 0.1327432499999901,
          "durationTicks": 96,
          "midi": 38,
          "name": "D2",
          "ticks": 49536,
          "time": 68.495517,
          "velocity": 0.4330708661417323
        },
        {
          "duration": 0.1327432499999901,
          "durationTicks": 96,
          "midi": 42,
          "name": "F#2",
          "ticks": 49536,
          "time": 68.495517,
          "velocity": 0.4330708661417323
        },
        {
          "duration": 0.1327432500000043,
          "durationTicks": 96,
          "midi": 46,
          "name": "A#2",
          "ticks": 49728,
          "time": 68.7610035,
          "velocity": 0.4330708661417323
        },
        {
          "duration": 0.1327432499999901,
          "durationTicks": 96,
          "midi": 36,
          "name": "C2",
          "ticks": 49920,
          "time": 69.02649000000001,
          "velocity": 0.4330708661417323
        },
        {
          "duration": 0.1327432499999901,
          "durationTicks": 96,
          "midi": 42,
          "name": "F#2",
          "ticks": 49920,
          "time": 69.02649000000001,
          "velocity": 0.4330708661417323
        },
        {
          "duration": 0.1327432500000043,
          "durationTicks": 96,
          "midi": 42,
          "name": "F#2",
          "ticks": 50112,
          "time": 69.2919765,
          "velocity": 0.4330708661417323
        },
        {
          "duration": 0.1327432499999901,
          "durationTicks": 96,
          "midi": 42,
          "name": "F#2",
          "ticks": 50208,
          "time": 69.42471975000001,
          "velocity": 0.4330708661417323
        },
        {
          "duration": 0.1327432500000043,
          "durationTicks": 96,
          "midi": 39,
          "name": "D#2",
          "ticks": 50304,
          "time": 69.557463,
          "velocity": 0.4330708661417323
        },
        {
          "duration": 0.1327432500000043,
          "durationTicks": 96,
          "midi": 36,
          "name": "C2",
          "ticks": 50304,
          "time": 69.557463,
          "velocity": 0.4330708661417323
        },
        {
          "duration": 0.1327432500000043,
          "durationTicks": 96,
          "midi": 38,
          "name": "D2",
          "ticks": 50304,
          "time": 69.557463,
          "velocity": 0.4330708661417323
        },
        {
          "duration": 0.1327432500000043,
          "durationTicks": 96,
          "midi": 42,
          "name": "F#2",
          "ticks": 50304,
          "time": 69.557463,
          "velocity": 0.4330708661417323
        },
        {
          "duration": 0.1327432500000043,
          "durationTicks": 96,
          "midi": 39,
          "name": "D#2",
          "ticks": 50400,
          "time": 69.69020625,
          "velocity": 0.4330708661417323
        },
        {
          "duration": 0.1327432499999901,
          "durationTicks": 96,
          "midi": 39,
          "name": "D#2",
          "ticks": 50496,
          "time": 69.82294950000001,
          "velocity": 0.4330708661417323
        },
        {
          "duration": 0.1327432499999901,
          "durationTicks": 96,
          "midi": 46,
          "name": "A#2",
          "ticks": 50496,
          "time": 69.82294950000001,
          "velocity": 0.4330708661417323
        },
        {
          "duration": 0.1327432500000043,
          "durationTicks": 96,
          "midi": 39,
          "name": "D#2",
          "ticks": 50592,
          "time": 69.95569275,
          "velocity": 0.4330708661417323
        },
        {
          "duration": 0.1327432500000043,
          "durationTicks": 96,
          "midi": 36,
          "name": "C2",
          "ticks": 50688,
          "time": 70.088436,
          "velocity": 0.4330708661417323
        },
        {
          "duration": 0.1327432500000043,
          "durationTicks": 96,
          "midi": 42,
          "name": "F#2",
          "ticks": 50688,
          "time": 70.088436,
          "velocity": 0.4330708661417323
        },
        {
          "duration": 0.1327432499999901,
          "durationTicks": 96,
          "midi": 42,
          "name": "F#2",
          "ticks": 50880,
          "time": 70.35392250000001,
          "velocity": 0.4330708661417323
        },
        {
          "duration": 0.1327432500000043,
          "durationTicks": 96,
          "midi": 42,
          "name": "F#2",
          "ticks": 50976,
          "time": 70.48666575,
          "velocity": 0.4330708661417323
        },
        {
          "duration": 0.1327432500000043,
          "durationTicks": 96,
          "midi": 39,
          "name": "D#2",
          "ticks": 51072,
          "time": 70.619409,
          "velocity": 0.4330708661417323
        },
        {
          "duration": 0.1327432500000043,
          "durationTicks": 96,
          "midi": 36,
          "name": "C2",
          "ticks": 51072,
          "time": 70.619409,
          "velocity": 0.4330708661417323
        },
        {
          "duration": 0.1327432500000043,
          "durationTicks": 96,
          "midi": 38,
          "name": "D2",
          "ticks": 51072,
          "time": 70.619409,
          "velocity": 0.4330708661417323
        },
        {
          "duration": 0.1327432500000043,
          "durationTicks": 96,
          "midi": 42,
          "name": "F#2",
          "ticks": 51072,
          "time": 70.619409,
          "velocity": 0.4330708661417323
        },
        {
          "duration": 0.1327432500000043,
          "durationTicks": 96,
          "midi": 42,
          "name": "F#2",
          "ticks": 51264,
          "time": 70.8848955,
          "velocity": 0.4330708661417323
        },
        {
          "duration": 0.1327432500000043,
          "durationTicks": 96,
          "midi": 42,
          "name": "F#2",
          "ticks": 51360,
          "time": 71.01763875,
          "velocity": 0.4330708661417323
        },
        {
          "duration": 0.1327432499999901,
          "durationTicks": 96,
          "midi": 36,
          "name": "C2",
          "ticks": 51456,
          "time": 71.15038200000001,
          "velocity": 0.4330708661417323
        },
        {
          "duration": 0.1327432499999901,
          "durationTicks": 96,
          "midi": 42,
          "name": "F#2",
          "ticks": 51456,
          "time": 71.15038200000001,
          "velocity": 0.4330708661417323
        },
        {
          "duration": 0.1327432500000043,
          "durationTicks": 96,
          "midi": 42,
          "name": "F#2",
          "ticks": 51648,
          "time": 71.4158685,
          "velocity": 0.4330708661417323
        },
        {
          "duration": 0.1327432500000043,
          "durationTicks": 96,
          "midi": 42,
          "name": "F#2",
          "ticks": 51744,
          "time": 71.54861175,
          "velocity": 0.4330708661417323
        },
        {
          "duration": 0.1327432499999901,
          "durationTicks": 96,
          "midi": 39,
          "name": "D#2",
          "ticks": 51840,
          "time": 71.68135500000001,
          "velocity": 0.4330708661417323
        },
        {
          "duration": 0.1327432499999901,
          "durationTicks": 96,
          "midi": 36,
          "name": "C2",
          "ticks": 51840,
          "time": 71.68135500000001,
          "velocity": 0.4330708661417323
        },
        {
          "duration": 0.1327432499999901,
          "durationTicks": 96,
          "midi": 38,
          "name": "D2",
          "ticks": 51840,
          "time": 71.68135500000001,
          "velocity": 0.4330708661417323
        },
        {
          "duration": 0.1327432499999901,
          "durationTicks": 96,
          "midi": 42,
          "name": "F#2",
          "ticks": 51840,
          "time": 71.68135500000001,
          "velocity": 0.4330708661417323
        },
        {
          "duration": 0.1327432500000043,
          "durationTicks": 96,
          "midi": 42,
          "name": "F#2",
          "ticks": 52032,
          "time": 71.9468415,
          "velocity": 0.4330708661417323
        },
        {
          "duration": 0.1327432499999901,
          "durationTicks": 96,
          "midi": 42,
          "name": "F#2",
          "ticks": 52128,
          "time": 72.07958475000001,
          "velocity": 0.4330708661417323
        },
        {
          "duration": 0.1327432500000043,
          "durationTicks": 96,
          "midi": 36,
          "name": "C2",
          "ticks": 52224,
          "time": 72.212328,
          "velocity": 0.4330708661417323
        },
        {
          "duration": 0.1327432500000043,
          "durationTicks": 96,
          "midi": 42,
          "name": "F#2",
          "ticks": 52224,
          "time": 72.212328,
          "velocity": 0.4330708661417323
        },
        {
          "duration": 0.1327432499999901,
          "durationTicks": 96,
          "midi": 42,
          "name": "F#2",
          "ticks": 52416,
          "time": 72.47781450000001,
          "velocity": 0.4330708661417323
        },
        {
          "duration": 0.1327432500000043,
          "durationTicks": 96,
          "midi": 42,
          "name": "F#2",
          "ticks": 52512,
          "time": 72.61055775,
          "velocity": 0.4330708661417323
        },
        {
          "duration": 0.1327432500000043,
          "durationTicks": 96,
          "midi": 39,
          "name": "D#2",
          "ticks": 52608,
          "time": 72.743301,
          "velocity": 0.4330708661417323
        },
        {
          "duration": 0.1327432500000043,
          "durationTicks": 96,
          "midi": 36,
          "name": "C2",
          "ticks": 52608,
          "time": 72.743301,
          "velocity": 0.4330708661417323
        },
        {
          "duration": 0.1327432500000043,
          "durationTicks": 96,
          "midi": 38,
          "name": "D2",
          "ticks": 52608,
          "time": 72.743301,
          "velocity": 0.4330708661417323
        },
        {
          "duration": 0.1327432500000043,
          "durationTicks": 96,
          "midi": 42,
          "name": "F#2",
          "ticks": 52608,
          "time": 72.743301,
          "velocity": 0.4330708661417323
        },
        {
          "duration": 0.1327432500000043,
          "durationTicks": 96,
          "midi": 42,
          "name": "F#2",
          "ticks": 52800,
          "time": 73.0087875,
          "velocity": 0.4330708661417323
        },
        {
          "duration": 0.1327432500000043,
          "durationTicks": 96,
          "midi": 42,
          "name": "F#2",
          "ticks": 52896,
          "time": 73.14153075,
          "velocity": 0.4330708661417323
        },
        {
          "duration": 0.1327432500000043,
          "durationTicks": 96,
          "midi": 36,
          "name": "C2",
          "ticks": 52992,
          "time": 73.274274,
          "velocity": 0.4330708661417323
        },
        {
          "duration": 0.1327432500000043,
          "durationTicks": 96,
          "midi": 42,
          "name": "F#2",
          "ticks": 52992,
          "time": 73.274274,
          "velocity": 0.4330708661417323
        },
        {
          "duration": 0.1327432500000043,
          "durationTicks": 96,
          "midi": 42,
          "name": "F#2",
          "ticks": 53184,
          "time": 73.5397605,
          "velocity": 0.4330708661417323
        },
        {
          "duration": 0.1327432500000043,
          "durationTicks": 96,
          "midi": 42,
          "name": "F#2",
          "ticks": 53280,
          "time": 73.67250375,
          "velocity": 0.4330708661417323
        },
        {
          "duration": 0.1327432499999901,
          "durationTicks": 96,
          "midi": 39,
          "name": "D#2",
          "ticks": 53376,
          "time": 73.80524700000001,
          "velocity": 0.4330708661417323
        },
        {
          "duration": 0.1327432499999901,
          "durationTicks": 96,
          "midi": 36,
          "name": "C2",
          "ticks": 53376,
          "time": 73.80524700000001,
          "velocity": 0.4330708661417323
        },
        {
          "duration": 0.1327432499999901,
          "durationTicks": 96,
          "midi": 38,
          "name": "D2",
          "ticks": 53376,
          "time": 73.80524700000001,
          "velocity": 0.4330708661417323
        },
        {
          "duration": 0.1327432499999901,
          "durationTicks": 96,
          "midi": 42,
          "name": "F#2",
          "ticks": 53376,
          "time": 73.80524700000001,
          "velocity": 0.4330708661417323
        },
        {
          "duration": 0.1327432500000043,
          "durationTicks": 96,
          "midi": 46,
          "name": "A#2",
          "ticks": 53568,
          "time": 74.0707335,
          "velocity": 0.4330708661417323
        },
        {
          "duration": 0.1327432500000043,
          "durationTicks": 96,
          "midi": 36,
          "name": "C2",
          "ticks": 53760,
          "time": 74.33622,
          "velocity": 0.4330708661417323
        },
        {
          "duration": 0.1327432500000043,
          "durationTicks": 96,
          "midi": 42,
          "name": "F#2",
          "ticks": 53760,
          "time": 74.33622,
          "velocity": 0.4330708661417323
        },
        {
          "duration": 0.1327432500000043,
          "durationTicks": 96,
          "midi": 42,
          "name": "F#2",
          "ticks": 53952,
          "time": 74.6017065,
          "velocity": 0.4330708661417323
        },
        {
          "duration": 0.1327432499999901,
          "durationTicks": 96,
          "midi": 42,
          "name": "F#2",
          "ticks": 54048,
          "time": 74.73444975000001,
          "velocity": 0.4330708661417323
        },
        {
          "duration": 0.1327432500000043,
          "durationTicks": 96,
          "midi": 39,
          "name": "D#2",
          "ticks": 54144,
          "time": 74.867193,
          "velocity": 0.4330708661417323
        },
        {
          "duration": 0.1327432500000043,
          "durationTicks": 96,
          "midi": 36,
          "name": "C2",
          "ticks": 54144,
          "time": 74.867193,
          "velocity": 0.4330708661417323
        },
        {
          "duration": 0.1327432500000043,
          "durationTicks": 96,
          "midi": 38,
          "name": "D2",
          "ticks": 54144,
          "time": 74.867193,
          "velocity": 0.4330708661417323
        },
        {
          "duration": 0.1327432500000043,
          "durationTicks": 96,
          "midi": 42,
          "name": "F#2",
          "ticks": 54144,
          "time": 74.867193,
          "velocity": 0.4330708661417323
        },
        {
          "duration": 0.1327432499999901,
          "durationTicks": 96,
          "midi": 42,
          "name": "F#2",
          "ticks": 54336,
          "time": 75.13267950000001,
          "velocity": 0.4330708661417323
        },
        {
          "duration": 0.1327432500000043,
          "durationTicks": 96,
          "midi": 42,
          "name": "F#2",
          "ticks": 54432,
          "time": 75.26542275,
          "velocity": 0.4330708661417323
        },
        {
          "duration": 0.1327432500000043,
          "durationTicks": 96,
          "midi": 36,
          "name": "C2",
          "ticks": 54528,
          "time": 75.398166,
          "velocity": 0.4330708661417323
        },
        {
          "duration": 0.1327432500000043,
          "durationTicks": 96,
          "midi": 42,
          "name": "F#2",
          "ticks": 54528,
          "time": 75.398166,
          "velocity": 0.4330708661417323
        },
        {
          "duration": 0.1327432500000043,
          "durationTicks": 96,
          "midi": 42,
          "name": "F#2",
          "ticks": 54720,
          "time": 75.6636525,
          "velocity": 0.4330708661417323
        },
        {
          "duration": 0.1327432500000043,
          "durationTicks": 96,
          "midi": 42,
          "name": "F#2",
          "ticks": 54816,
          "time": 75.79639575,
          "velocity": 0.4330708661417323
        },
        {
          "duration": 0.1327432500000043,
          "durationTicks": 96,
          "midi": 39,
          "name": "D#2",
          "ticks": 54912,
          "time": 75.929139,
          "velocity": 0.4330708661417323
        },
        {
          "duration": 0.1327432500000043,
          "durationTicks": 96,
          "midi": 36,
          "name": "C2",
          "ticks": 54912,
          "time": 75.929139,
          "velocity": 0.4330708661417323
        },
        {
          "duration": 0.1327432500000043,
          "durationTicks": 96,
          "midi": 38,
          "name": "D2",
          "ticks": 54912,
          "time": 75.929139,
          "velocity": 0.4330708661417323
        },
        {
          "duration": 0.1327432500000043,
          "durationTicks": 96,
          "midi": 42,
          "name": "F#2",
          "ticks": 54912,
          "time": 75.929139,
          "velocity": 0.4330708661417323
        },
        {
          "duration": 0.1327432500000043,
          "durationTicks": 96,
          "midi": 42,
          "name": "F#2",
          "ticks": 55104,
          "time": 76.1946255,
          "velocity": 0.4330708661417323
        },
        {
          "duration": 0.1327432500000043,
          "durationTicks": 96,
          "midi": 42,
          "name": "F#2",
          "ticks": 55200,
          "time": 76.32736875,
          "velocity": 0.4330708661417323
        },
        {
          "duration": 0.1327432499999901,
          "durationTicks": 96,
          "midi": 36,
          "name": "C2",
          "ticks": 55296,
          "time": 76.46011200000001,
          "velocity": 0.4330708661417323
        },
        {
          "duration": 0.1327432499999901,
          "durationTicks": 96,
          "midi": 42,
          "name": "F#2",
          "ticks": 55296,
          "time": 76.46011200000001,
          "velocity": 0.4330708661417323
        },
        {
          "duration": 0.1327432500000043,
          "durationTicks": 96,
          "midi": 42,
          "name": "F#2",
          "ticks": 55488,
          "time": 76.7255985,
          "velocity": 0.4330708661417323
        },
        {
          "duration": 0.1327432499999901,
          "durationTicks": 96,
          "midi": 42,
          "name": "F#2",
          "ticks": 55584,
          "time": 76.85834175000001,
          "velocity": 0.4330708661417323
        },
        {
          "duration": 0.1327432500000043,
          "durationTicks": 96,
          "midi": 39,
          "name": "D#2",
          "ticks": 55680,
          "time": 76.991085,
          "velocity": 0.4330708661417323
        },
        {
          "duration": 0.1327432500000043,
          "durationTicks": 96,
          "midi": 36,
          "name": "C2",
          "ticks": 55680,
          "time": 76.991085,
          "velocity": 0.4330708661417323
        },
        {
          "duration": 0.1327432500000043,
          "durationTicks": 96,
          "midi": 38,
          "name": "D2",
          "ticks": 55680,
          "time": 76.991085,
          "velocity": 0.4330708661417323
        },
        {
          "duration": 0.1327432500000043,
          "durationTicks": 96,
          "midi": 42,
          "name": "F#2",
          "ticks": 55680,
          "time": 76.991085,
          "velocity": 0.4330708661417323
        },
        {
          "duration": 0.1327432500000043,
          "durationTicks": 96,
          "midi": 46,
          "name": "A#2",
          "ticks": 55872,
          "time": 77.2565715,
          "velocity": 0.4330708661417323
        },
        {
          "duration": 0.1327432500000043,
          "durationTicks": 96,
          "midi": 36,
          "name": "C2",
          "ticks": 56064,
          "time": 77.522058,
          "velocity": 0.4330708661417323
        },
        {
          "duration": 0.1327432500000043,
          "durationTicks": 96,
          "midi": 42,
          "name": "F#2",
          "ticks": 56064,
          "time": 77.522058,
          "velocity": 0.4330708661417323
        },
        {
          "duration": 0.1327432499999901,
          "durationTicks": 96,
          "midi": 42,
          "name": "F#2",
          "ticks": 56256,
          "time": 77.78754450000001,
          "velocity": 0.4330708661417323
        },
        {
          "duration": 0.1327432500000043,
          "durationTicks": 96,
          "midi": 42,
          "name": "F#2",
          "ticks": 56352,
          "time": 77.92028775,
          "velocity": 0.4330708661417323
        },
        {
          "duration": 0.1327432500000043,
          "durationTicks": 96,
          "midi": 39,
          "name": "D#2",
          "ticks": 56448,
          "time": 78.053031,
          "velocity": 0.4330708661417323
        },
        {
          "duration": 0.1327432500000043,
          "durationTicks": 96,
          "midi": 36,
          "name": "C2",
          "ticks": 56448,
          "time": 78.053031,
          "velocity": 0.4330708661417323
        },
        {
          "duration": 0.1327432500000043,
          "durationTicks": 96,
          "midi": 38,
          "name": "D2",
          "ticks": 56448,
          "time": 78.053031,
          "velocity": 0.4330708661417323
        },
        {
          "duration": 0.1327432500000043,
          "durationTicks": 96,
          "midi": 42,
          "name": "F#2",
          "ticks": 56448,
          "time": 78.053031,
          "velocity": 0.4330708661417323
        },
        {
          "duration": 0.1327432499999901,
          "durationTicks": 96,
          "midi": 39,
          "name": "D#2",
          "ticks": 56544,
          "time": 78.18577425000001,
          "velocity": 0.4330708661417323
        },
        {
          "duration": 0.1327432500000043,
          "durationTicks": 96,
          "midi": 39,
          "name": "D#2",
          "ticks": 56640,
          "time": 78.3185175,
          "velocity": 0.4330708661417323
        },
        {
          "duration": 0.1327432500000043,
          "durationTicks": 96,
          "midi": 46,
          "name": "A#2",
          "ticks": 56640,
          "time": 78.3185175,
          "velocity": 0.4330708661417323
        },
        {
          "duration": 0.1327432500000043,
          "durationTicks": 96,
          "midi": 39,
          "name": "D#2",
          "ticks": 56736,
          "time": 78.45126075,
          "velocity": 0.4330708661417323
        },
        {
          "duration": 0.1327432499999901,
          "durationTicks": 96,
          "midi": 36,
          "name": "C2",
          "ticks": 56832,
          "time": 78.58400400000001,
          "velocity": 0.4330708661417323
        },
        {
          "duration": 0.1327432499999901,
          "durationTicks": 96,
          "midi": 46,
          "name": "A#2",
          "ticks": 56832,
          "time": 78.58400400000001,
          "velocity": 0.4330708661417323
        },
        {
          "duration": 0.1327432500000043,
          "durationTicks": 96,
          "midi": 42,
          "name": "F#2",
          "ticks": 57024,
          "time": 78.8494905,
          "velocity": 0.4330708661417323
        },
        {
          "duration": 0.1327432500000043,
          "durationTicks": 96,
          "midi": 42,
          "name": "F#2",
          "ticks": 57120,
          "time": 78.98223375,
          "velocity": 0.4330708661417323
        },
        {
          "duration": 0.1327432499999901,
          "durationTicks": 96,
          "midi": 36,
          "name": "C2",
          "ticks": 57216,
          "time": 79.11497700000001,
          "velocity": 0.4330708661417323
        },
        {
          "duration": 0.1327432499999901,
          "durationTicks": 96,
          "midi": 38,
          "name": "D2",
          "ticks": 57216,
          "time": 79.11497700000001,
          "velocity": 0.4330708661417323
        },
        {
          "duration": 0.1327432499999901,
          "durationTicks": 96,
          "midi": 42,
          "name": "F#2",
          "ticks": 57216,
          "time": 79.11497700000001,
          "velocity": 0.4330708661417323
        },
        {
          "duration": 0.1327432500000043,
          "durationTicks": 96,
          "midi": 42,
          "name": "F#2",
          "ticks": 57408,
          "time": 79.3804635,
          "velocity": 0.4330708661417323
        },
        {
          "duration": 0.1327432499999901,
          "durationTicks": 96,
          "midi": 42,
          "name": "F#2",
          "ticks": 57504,
          "time": 79.51320675000001,
          "velocity": 0.4330708661417323
        },
        {
          "duration": 0.1327432500000043,
          "durationTicks": 96,
          "midi": 36,
          "name": "C2",
          "ticks": 57600,
          "time": 79.64595,
          "velocity": 0.4330708661417323
        },
        {
          "duration": 0.1327432500000043,
          "durationTicks": 96,
          "midi": 42,
          "name": "F#2",
          "ticks": 57600,
          "time": 79.64595,
          "velocity": 0.4330708661417323
        },
        {
          "duration": 0.1327432499999901,
          "durationTicks": 96,
          "midi": 42,
          "name": "F#2",
          "ticks": 57792,
          "time": 79.91143650000001,
          "velocity": 0.4330708661417323
        },
        {
          "duration": 0.1327432500000043,
          "durationTicks": 96,
          "midi": 42,
          "name": "F#2",
          "ticks": 57888,
          "time": 80.04417975,
          "velocity": 0.4330708661417323
        },
        {
          "duration": 0.1327432500000043,
          "durationTicks": 96,
          "midi": 36,
          "name": "C2",
          "ticks": 57984,
          "time": 80.176923,
          "velocity": 0.4330708661417323
        },
        {
          "duration": 0.1327432500000043,
          "durationTicks": 96,
          "midi": 38,
          "name": "D2",
          "ticks": 57984,
          "time": 80.176923,
          "velocity": 0.4330708661417323
        },
        {
          "duration": 0.1327432500000043,
          "durationTicks": 96,
          "midi": 42,
          "name": "F#2",
          "ticks": 57984,
          "time": 80.176923,
          "velocity": 0.4330708661417323
        },
        {
          "duration": 0.1327432499999901,
          "durationTicks": 96,
          "midi": 42,
          "name": "F#2",
          "ticks": 58176,
          "time": 80.44240950000001,
          "velocity": 0.4330708661417323
        },
        {
          "duration": 0.1327432500000043,
          "durationTicks": 96,
          "midi": 42,
          "name": "F#2",
          "ticks": 58272,
          "time": 80.57515275,
          "velocity": 0.4330708661417323
        },
        {
          "duration": 0.1327432500000043,
          "durationTicks": 96,
          "midi": 36,
          "name": "C2",
          "ticks": 58368,
          "time": 80.707896,
          "velocity": 0.4330708661417323
        },
        {
          "duration": 0.1327432500000043,
          "durationTicks": 96,
          "midi": 42,
          "name": "F#2",
          "ticks": 58368,
          "time": 80.707896,
          "velocity": 0.4330708661417323
        },
        {
          "duration": 0.1327432500000043,
          "durationTicks": 96,
          "midi": 42,
          "name": "F#2",
          "ticks": 58560,
          "time": 80.9733825,
          "velocity": 0.4330708661417323
        },
        {
          "duration": 0.1327432500000043,
          "durationTicks": 96,
          "midi": 42,
          "name": "F#2",
          "ticks": 58656,
          "time": 81.10612575,
          "velocity": 0.4330708661417323
        },
        {
          "duration": 0.1327432499999901,
          "durationTicks": 96,
          "midi": 36,
          "name": "C2",
          "ticks": 58752,
          "time": 81.23886900000001,
          "velocity": 0.4330708661417323
        },
        {
          "duration": 0.1327432499999901,
          "durationTicks": 96,
          "midi": 38,
          "name": "D2",
          "ticks": 58752,
          "time": 81.23886900000001,
          "velocity": 0.4330708661417323
        },
        {
          "duration": 0.1327432499999901,
          "durationTicks": 96,
          "midi": 42,
          "name": "F#2",
          "ticks": 58752,
          "time": 81.23886900000001,
          "velocity": 0.4330708661417323
        },
        {
          "duration": 0.1327432500000043,
          "durationTicks": 96,
          "midi": 42,
          "name": "F#2",
          "ticks": 58944,
          "time": 81.5043555,
          "velocity": 0.4330708661417323
        },
        {
          "duration": 0.1327432500000043,
          "durationTicks": 96,
          "midi": 42,
          "name": "F#2",
          "ticks": 59040,
          "time": 81.63709875,
          "velocity": 0.4330708661417323
        },
        {
          "duration": 0.1327432499999901,
          "durationTicks": 96,
          "midi": 36,
          "name": "C2",
          "ticks": 59136,
          "time": 81.76984200000001,
          "velocity": 0.4330708661417323
        },
        {
          "duration": 0.1327432499999901,
          "durationTicks": 96,
          "midi": 42,
          "name": "F#2",
          "ticks": 59136,
          "time": 81.76984200000001,
          "velocity": 0.4330708661417323
        },
        {
          "duration": 0.1327432500000043,
          "durationTicks": 96,
          "midi": 42,
          "name": "F#2",
          "ticks": 59328,
          "time": 82.0353285,
          "velocity": 0.4330708661417323
        },
        {
          "duration": 0.1327432499999901,
          "durationTicks": 96,
          "midi": 42,
          "name": "F#2",
          "ticks": 59424,
          "time": 82.16807175000001,
          "velocity": 0.4330708661417323
        },
        {
          "duration": 0.1327432500000043,
          "durationTicks": 96,
          "midi": 36,
          "name": "C2",
          "ticks": 59520,
          "time": 82.300815,
          "velocity": 0.4330708661417323
        },
        {
          "duration": 0.1327432500000043,
          "durationTicks": 96,
          "midi": 38,
          "name": "D2",
          "ticks": 59520,
          "time": 82.300815,
          "velocity": 0.4330708661417323
        },
        {
          "duration": 0.1327432500000043,
          "durationTicks": 96,
          "midi": 42,
          "name": "F#2",
          "ticks": 59520,
          "time": 82.300815,
          "velocity": 0.4330708661417323
        },
        {
          "duration": 0.1327432499999901,
          "durationTicks": 96,
          "midi": 46,
          "name": "A#2",
          "ticks": 59712,
          "time": 82.56630150000001,
          "velocity": 0.4330708661417323
        },
        {
          "duration": 0.1327432500000043,
          "durationTicks": 96,
          "midi": 36,
          "name": "C2",
          "ticks": 59904,
          "time": 82.831788,
          "velocity": 0.4330708661417323
        },
        {
          "duration": 0.1327432500000043,
          "durationTicks": 96,
          "midi": 42,
          "name": "F#2",
          "ticks": 59904,
          "time": 82.831788,
          "velocity": 0.4330708661417323
        },
        {
          "duration": 0.1327432500000043,
          "durationTicks": 96,
          "midi": 42,
          "name": "F#2",
          "ticks": 60096,
          "time": 83.0972745,
          "velocity": 0.4330708661417323
        },
        {
          "duration": 0.1327432500000043,
          "durationTicks": 96,
          "midi": 42,
          "name": "F#2",
          "ticks": 60192,
          "time": 83.23001775,
          "velocity": 0.4330708661417323
        },
        {
          "duration": 0.1327432500000043,
          "durationTicks": 96,
          "midi": 36,
          "name": "C2",
          "ticks": 60288,
          "time": 83.362761,
          "velocity": 0.4330708661417323
        },
        {
          "duration": 0.1327432500000043,
          "durationTicks": 96,
          "midi": 38,
          "name": "D2",
          "ticks": 60288,
          "time": 83.362761,
          "velocity": 0.4330708661417323
        },
        {
          "duration": 0.1327432500000043,
          "durationTicks": 96,
          "midi": 42,
          "name": "F#2",
          "ticks": 60288,
          "time": 83.362761,
          "velocity": 0.4330708661417323
        },
        {
          "duration": 0.1327432500000043,
          "durationTicks": 96,
          "midi": 42,
          "name": "F#2",
          "ticks": 60480,
          "time": 83.6282475,
          "velocity": 0.4330708661417323
        },
        {
          "duration": 0.1327432500000043,
          "durationTicks": 96,
          "midi": 42,
          "name": "F#2",
          "ticks": 60576,
          "time": 83.76099075,
          "velocity": 0.4330708661417323
        },
        {
          "duration": 0.1327432499999901,
          "durationTicks": 96,
          "midi": 36,
          "name": "C2",
          "ticks": 60672,
          "time": 83.89373400000001,
          "velocity": 0.4330708661417323
        },
        {
          "duration": 0.1327432499999901,
          "durationTicks": 96,
          "midi": 42,
          "name": "F#2",
          "ticks": 60672,
          "time": 83.89373400000001,
          "velocity": 0.4330708661417323
        },
        {
          "duration": 0.1327432500000043,
          "durationTicks": 96,
          "midi": 42,
          "name": "F#2",
          "ticks": 60864,
          "time": 84.1592205,
          "velocity": 0.4330708661417323
        },
        {
          "duration": 0.1327432499999901,
          "durationTicks": 96,
          "midi": 42,
          "name": "F#2",
          "ticks": 60960,
          "time": 84.29196375000001,
          "velocity": 0.4330708661417323
        },
        {
          "duration": 0.1327432500000043,
          "durationTicks": 96,
          "midi": 36,
          "name": "C2",
          "ticks": 61056,
          "time": 84.424707,
          "velocity": 0.4330708661417323
        },
        {
          "duration": 0.1327432500000043,
          "durationTicks": 96,
          "midi": 38,
          "name": "D2",
          "ticks": 61056,
          "time": 84.424707,
          "velocity": 0.4330708661417323
        },
        {
          "duration": 0.1327432500000043,
          "durationTicks": 96,
          "midi": 42,
          "name": "F#2",
          "ticks": 61056,
          "time": 84.424707,
          "velocity": 0.4330708661417323
        },
        {
          "duration": 0.1327432500000043,
          "durationTicks": 96,
          "midi": 42,
          "name": "F#2",
          "ticks": 61248,
          "time": 84.6901935,
          "velocity": 0.4330708661417323
        },
        {
          "duration": 0.1327432499999901,
          "durationTicks": 96,
          "midi": 42,
          "name": "F#2",
          "ticks": 61344,
          "time": 84.82293675000001,
          "velocity": 0.4330708661417323
        },
        {
          "duration": 0.1327432500000043,
          "durationTicks": 96,
          "midi": 36,
          "name": "C2",
          "ticks": 61440,
          "time": 84.95568,
          "velocity": 0.4330708661417323
        },
        {
          "duration": 0.1327432500000043,
          "durationTicks": 96,
          "midi": 42,
          "name": "F#2",
          "ticks": 61440,
          "time": 84.95568,
          "velocity": 0.4330708661417323
        },
        {
          "duration": 0.1327432499999901,
          "durationTicks": 96,
          "midi": 38,
          "name": "D2",
          "ticks": 61632,
          "time": 85.22116650000001,
          "velocity": 0.4330708661417323
        },
        {
          "duration": 0.1327432499999901,
          "durationTicks": 96,
          "midi": 42,
          "name": "F#2",
          "ticks": 61632,
          "time": 85.22116650000001,
          "velocity": 0.4330708661417323
        },
        {
          "duration": 0.1327432500000043,
          "durationTicks": 96,
          "midi": 42,
          "name": "F#2",
          "ticks": 61728,
          "time": 85.35390975,
          "velocity": 0.4330708661417323
        },
        {
          "duration": 0.1327432500000043,
          "durationTicks": 96,
          "midi": 36,
          "name": "C2",
          "ticks": 61824,
          "time": 85.486653,
          "velocity": 0.4330708661417323
        },
        {
          "duration": 0.1327432500000043,
          "durationTicks": 96,
          "midi": 42,
          "name": "F#2",
          "ticks": 61824,
          "time": 85.486653,
          "velocity": 0.4330708661417323
        },
        {
          "duration": 0.1327432499999901,
          "durationTicks": 96,
          "midi": 38,
          "name": "D2",
          "ticks": 61920,
          "time": 85.61939625000001,
          "velocity": 0.4330708661417323
        },
        {
          "duration": 0.1327432500000043,
          "durationTicks": 96,
          "midi": 46,
          "name": "A#2",
          "ticks": 62016,
          "time": 85.7521395,
          "velocity": 0.4330708661417323
        },
        {
          "duration": 0.1327432500000043,
          "durationTicks": 96,
          "midi": 36,
          "name": "C2",
          "ticks": 62208,
          "time": 86.017626,
          "velocity": 0.4330708661417323
        },
        {
          "duration": 0.1327432500000043,
          "durationTicks": 96,
          "midi": 38,
          "name": "D2",
          "ticks": 62208,
          "time": 86.017626,
          "velocity": 0.4330708661417323
        },
        {
          "duration": 0.1327432500000043,
          "durationTicks": 96,
          "midi": 42,
          "name": "F#2",
          "ticks": 62208,
          "time": 86.017626,
          "velocity": 0.4330708661417323
        },
        {
          "duration": 0.1327432500000043,
          "durationTicks": 96,
          "midi": 38,
          "name": "D2",
          "ticks": 62400,
          "time": 86.2831125,
          "velocity": 0.4330708661417323
        },
        {
          "duration": 0.1327432500000043,
          "durationTicks": 96,
          "midi": 42,
          "name": "F#2",
          "ticks": 62400,
          "time": 86.2831125,
          "velocity": 0.4330708661417323
        },
        {
          "duration": 0.1327432500000043,
          "durationTicks": 96,
          "midi": 38,
          "name": "D2",
          "ticks": 62496,
          "time": 86.41585575,
          "velocity": 0.4330708661417323
        },
        {
          "duration": 0.1327432500000043,
          "durationTicks": 96,
          "midi": 42,
          "name": "F#2",
          "ticks": 62496,
          "time": 86.41585575,
          "velocity": 0.4330708661417323
        },
        {
          "duration": 0.1327432499999901,
          "durationTicks": 96,
          "midi": 36,
          "name": "C2",
          "ticks": 62592,
          "time": 86.54859900000001,
          "velocity": 0.4330708661417323
        },
        {
          "duration": 0.1327432499999901,
          "durationTicks": 96,
          "midi": 38,
          "name": "D2",
          "ticks": 62592,
          "time": 86.54859900000001,
          "velocity": 0.4330708661417323
        },
        {
          "duration": 0.1327432499999901,
          "durationTicks": 96,
          "midi": 42,
          "name": "F#2",
          "ticks": 62592,
          "time": 86.54859900000001,
          "velocity": 0.4330708661417323
        },
        {
          "duration": 0.1327432500000043,
          "durationTicks": 96,
          "midi": 38,
          "name": "D2",
          "ticks": 62688,
          "time": 86.68134225,
          "velocity": 0.4330708661417323
        },
        {
          "duration": 0.1327432500000043,
          "durationTicks": 96,
          "midi": 38,
          "name": "D2",
          "ticks": 62784,
          "time": 86.8140855,
          "velocity": 0.4330708661417323
        },
        {
          "duration": 0.1327432500000043,
          "durationTicks": 96,
          "midi": 46,
          "name": "A#2",
          "ticks": 62784,
          "time": 86.8140855,
          "velocity": 0.4330708661417323
        },
        {
          "duration": 0.1327432499999901,
          "durationTicks": 96,
          "midi": 38,
          "name": "D2",
          "ticks": 62880,
          "time": 86.94682875000001,
          "velocity": 0.4330708661417323
        },
        {
          "duration": 0.1327432500000043,
          "durationTicks": 96,
          "midi": 36,
          "name": "C2",
          "ticks": 62976,
          "time": 87.079572,
          "velocity": 0.4330708661417323
        },
        {
          "duration": 0.1327432500000043,
          "durationTicks": 96,
          "midi": 42,
          "name": "F#2",
          "ticks": 62976,
          "time": 87.079572,
          "velocity": 0.4330708661417323
        },
        {
          "duration": 0.1327432499999901,
          "durationTicks": 96,
          "midi": 42,
          "name": "F#2",
          "ticks": 63168,
          "time": 87.34505850000001,
          "velocity": 0.4330708661417323
        },
        {
          "duration": 0.1327432500000043,
          "durationTicks": 96,
          "midi": 42,
          "name": "F#2",
          "ticks": 63264,
          "time": 87.47780175,
          "velocity": 0.4330708661417323
        },
        {
          "duration": 0.1327432500000043,
          "durationTicks": 96,
          "midi": 39,
          "name": "D#2",
          "ticks": 63360,
          "time": 87.610545,
          "velocity": 0.4330708661417323
        },
        {
          "duration": 0.1327432500000043,
          "durationTicks": 96,
          "midi": 36,
          "name": "C2",
          "ticks": 63360,
          "time": 87.610545,
          "velocity": 0.4330708661417323
        },
        {
          "duration": 0.1327432500000043,
          "durationTicks": 96,
          "midi": 38,
          "name": "D2",
          "ticks": 63360,
          "time": 87.610545,
          "velocity": 0.4330708661417323
        },
        {
          "duration": 0.1327432500000043,
          "durationTicks": 96,
          "midi": 42,
          "name": "F#2",
          "ticks": 63360,
          "time": 87.610545,
          "velocity": 0.4330708661417323
        },
        {
          "duration": 0.1327432499999901,
          "durationTicks": 96,
          "midi": 42,
          "name": "F#2",
          "ticks": 63552,
          "time": 87.87603150000001,
          "velocity": 0.4330708661417323
        },
        {
          "duration": 0.1327432500000043,
          "durationTicks": 96,
          "midi": 42,
          "name": "F#2",
          "ticks": 63648,
          "time": 88.00877475,
          "velocity": 0.4330708661417323
        },
        {
          "duration": 0.1327432500000043,
          "durationTicks": 96,
          "midi": 36,
          "name": "C2",
          "ticks": 63744,
          "time": 88.141518,
          "velocity": 0.4330708661417323
        },
        {
          "duration": 0.1327432500000043,
          "durationTicks": 96,
          "midi": 42,
          "name": "F#2",
          "ticks": 63744,
          "time": 88.141518,
          "velocity": 0.4330708661417323
        },
        {
          "duration": 0.1327432500000043,
          "durationTicks": 96,
          "midi": 42,
          "name": "F#2",
          "ticks": 63936,
          "time": 88.4070045,
          "velocity": 0.4330708661417323
        },
        {
          "duration": 0.1327432500000043,
          "durationTicks": 96,
          "midi": 42,
          "name": "F#2",
          "ticks": 64032,
          "time": 88.53974775,
          "velocity": 0.4330708661417323
        },
        {
          "duration": 0.1327432499999901,
          "durationTicks": 96,
          "midi": 39,
          "name": "D#2",
          "ticks": 64128,
          "time": 88.67249100000001,
          "velocity": 0.4330708661417323
        },
        {
          "duration": 0.1327432499999901,
          "durationTicks": 96,
          "midi": 36,
          "name": "C2",
          "ticks": 64128,
          "time": 88.67249100000001,
          "velocity": 0.4330708661417323
        },
        {
          "duration": 0.1327432499999901,
          "durationTicks": 96,
          "midi": 38,
          "name": "D2",
          "ticks": 64128,
          "time": 88.67249100000001,
          "velocity": 0.4330708661417323
        },
        {
          "duration": 0.1327432499999901,
          "durationTicks": 96,
          "midi": 42,
          "name": "F#2",
          "ticks": 64128,
          "time": 88.67249100000001,
          "velocity": 0.4330708661417323
        },
        {
          "duration": 0.1327432500000043,
          "durationTicks": 96,
          "midi": 42,
          "name": "F#2",
          "ticks": 64320,
          "time": 88.9379775,
          "velocity": 0.4330708661417323
        },
        {
          "duration": 0.1327432500000043,
          "durationTicks": 96,
          "midi": 42,
          "name": "F#2",
          "ticks": 64416,
          "time": 89.07072075,
          "velocity": 0.4330708661417323
        },
        {
          "duration": 0.1327432499999901,
          "durationTicks": 96,
          "midi": 36,
          "name": "C2",
          "ticks": 64512,
          "time": 89.20346400000001,
          "velocity": 0.4330708661417323
        },
        {
          "duration": 0.1327432499999901,
          "durationTicks": 96,
          "midi": 42,
          "name": "F#2",
          "ticks": 64512,
          "time": 89.20346400000001,
          "velocity": 0.4330708661417323
        },
        {
          "duration": 0.1327432500000043,
          "durationTicks": 96,
          "midi": 42,
          "name": "F#2",
          "ticks": 64704,
          "time": 89.4689505,
          "velocity": 0.4330708661417323
        },
        {
          "duration": 0.1327432499999901,
          "durationTicks": 96,
          "midi": 42,
          "name": "F#2",
          "ticks": 64800,
          "time": 89.60169375000001,
          "velocity": 0.4330708661417323
        },
        {
          "duration": 0.1327432500000043,
          "durationTicks": 96,
          "midi": 39,
          "name": "D#2",
          "ticks": 64896,
          "time": 89.734437,
          "velocity": 0.4330708661417323
        },
        {
          "duration": 0.1327432500000043,
          "durationTicks": 96,
          "midi": 36,
          "name": "C2",
          "ticks": 64896,
          "time": 89.734437,
          "velocity": 0.4330708661417323
        },
        {
          "duration": 0.1327432500000043,
          "durationTicks": 96,
          "midi": 38,
          "name": "D2",
          "ticks": 64896,
          "time": 89.734437,
          "velocity": 0.4330708661417323
        },
        {
          "duration": 0.1327432500000043,
          "durationTicks": 96,
          "midi": 42,
          "name": "F#2",
          "ticks": 64896,
          "time": 89.734437,
          "velocity": 0.4330708661417323
        },
        {
          "duration": 0.1327432499999901,
          "durationTicks": 96,
          "midi": 42,
          "name": "F#2",
          "ticks": 65088,
          "time": 89.99992350000001,
          "velocity": 0.4330708661417323
        },
        {
          "duration": 0.1327432500000043,
          "durationTicks": 96,
          "midi": 42,
          "name": "F#2",
          "ticks": 65184,
          "time": 90.13266675,
          "velocity": 0.4330708661417323
        },
        {
          "duration": 0.1327432500000043,
          "durationTicks": 96,
          "midi": 36,
          "name": "C2",
          "ticks": 65280,
          "time": 90.26541,
          "velocity": 0.4330708661417323
        },
        {
          "duration": 0.1327432500000043,
          "durationTicks": 96,
          "midi": 42,
          "name": "F#2",
          "ticks": 65280,
          "time": 90.26541,
          "velocity": 0.4330708661417323
        },
        {
          "duration": 0.1327432499999901,
          "durationTicks": 96,
          "midi": 42,
          "name": "F#2",
          "ticks": 65472,
          "time": 90.53089650000001,
          "velocity": 0.4330708661417323
        },
        {
          "duration": 0.1327432500000043,
          "durationTicks": 96,
          "midi": 42,
          "name": "F#2",
          "ticks": 65568,
          "time": 90.66363975,
          "velocity": 0.4330708661417323
        },
        {
          "duration": 0.1327432500000043,
          "durationTicks": 96,
          "midi": 39,
          "name": "D#2",
          "ticks": 65664,
          "time": 90.796383,
          "velocity": 0.4330708661417323
        },
        {
          "duration": 0.1327432500000043,
          "durationTicks": 96,
          "midi": 36,
          "name": "C2",
          "ticks": 65664,
          "time": 90.796383,
          "velocity": 0.4330708661417323
        },
        {
          "duration": 0.1327432500000043,
          "durationTicks": 96,
          "midi": 38,
          "name": "D2",
          "ticks": 65664,
          "time": 90.796383,
          "velocity": 0.4330708661417323
        },
        {
          "duration": 0.1327432500000043,
          "durationTicks": 96,
          "midi": 42,
          "name": "F#2",
          "ticks": 65664,
          "time": 90.796383,
          "velocity": 0.4330708661417323
        },
        {
          "duration": 0.1327432500000043,
          "durationTicks": 96,
          "midi": 46,
          "name": "A#2",
          "ticks": 65856,
          "time": 91.0618695,
          "velocity": 0.4330708661417323
        },
        {
          "duration": 0.1327432499999901,
          "durationTicks": 96,
          "midi": 36,
          "name": "C2",
          "ticks": 66048,
          "time": 91.32735600000001,
          "velocity": 0.4330708661417323
        },
        {
          "duration": 0.1327432499999901,
          "durationTicks": 96,
          "midi": 42,
          "name": "F#2",
          "ticks": 66048,
          "time": 91.32735600000001,
          "velocity": 0.4330708661417323
        },
        {
          "duration": 0.1327432500000043,
          "durationTicks": 96,
          "midi": 42,
          "name": "F#2",
          "ticks": 66240,
          "time": 91.5928425,
          "velocity": 0.4330708661417323
        },
        {
          "duration": 0.1327432500000043,
          "durationTicks": 96,
          "midi": 42,
          "name": "F#2",
          "ticks": 66336,
          "time": 91.72558575000001,
          "velocity": 0.4330708661417323
        },
        {
          "duration": 0.1327432499999901,
          "durationTicks": 96,
          "midi": 39,
          "name": "D#2",
          "ticks": 66432,
          "time": 91.85832900000001,
          "velocity": 0.4330708661417323
        },
        {
          "duration": 0.1327432499999901,
          "durationTicks": 96,
          "midi": 36,
          "name": "C2",
          "ticks": 66432,
          "time": 91.85832900000001,
          "velocity": 0.4330708661417323
        },
        {
          "duration": 0.1327432499999901,
          "durationTicks": 96,
          "midi": 38,
          "name": "D2",
          "ticks": 66432,
          "time": 91.85832900000001,
          "velocity": 0.4330708661417323
        },
        {
          "duration": 0.1327432499999901,
          "durationTicks": 96,
          "midi": 42,
          "name": "F#2",
          "ticks": 66432,
          "time": 91.85832900000001,
          "velocity": 0.4330708661417323
        },
        {
          "duration": 0.1327432500000043,
          "durationTicks": 96,
          "midi": 42,
          "name": "F#2",
          "ticks": 66624,
          "time": 92.1238155,
          "velocity": 0.4330708661417323
        },
        {
          "duration": 0.1327432499999901,
          "durationTicks": 96,
          "midi": 42,
          "name": "F#2",
          "ticks": 66720,
          "time": 92.25655875000001,
          "velocity": 0.4330708661417323
        },
        {
          "duration": 0.1327432500000043,
          "durationTicks": 96,
          "midi": 36,
          "name": "C2",
          "ticks": 66816,
          "time": 92.389302,
          "velocity": 0.4330708661417323
        },
        {
          "duration": 0.1327432500000043,
          "durationTicks": 96,
          "midi": 42,
          "name": "F#2",
          "ticks": 66816,
          "time": 92.389302,
          "velocity": 0.4330708661417323
        },
        {
          "duration": 0.1327432499999901,
          "durationTicks": 96,
          "midi": 42,
          "name": "F#2",
          "ticks": 67008,
          "time": 92.65478850000001,
          "velocity": 0.4330708661417323
        },
        {
          "duration": 0.1327432500000043,
          "durationTicks": 96,
          "midi": 42,
          "name": "F#2",
          "ticks": 67104,
          "time": 92.78753175,
          "velocity": 0.4330708661417323
        },
        {
          "duration": 0.1327432500000043,
          "durationTicks": 96,
          "midi": 39,
          "name": "D#2",
          "ticks": 67200,
          "time": 92.920275,
          "velocity": 0.4330708661417323
        },
        {
          "duration": 0.1327432500000043,
          "durationTicks": 96,
          "midi": 36,
          "name": "C2",
          "ticks": 67200,
          "time": 92.920275,
          "velocity": 0.4330708661417323
        },
        {
          "duration": 0.1327432500000043,
          "durationTicks": 96,
          "midi": 38,
          "name": "D2",
          "ticks": 67200,
          "time": 92.920275,
          "velocity": 0.4330708661417323
        },
        {
          "duration": 0.1327432500000043,
          "durationTicks": 96,
          "midi": 42,
          "name": "F#2",
          "ticks": 67200,
          "time": 92.920275,
          "velocity": 0.4330708661417323
        },
        {
          "duration": 0.1327432500000043,
          "durationTicks": 96,
          "midi": 42,
          "name": "F#2",
          "ticks": 67392,
          "time": 93.1857615,
          "velocity": 0.4330708661417323
        },
        {
          "duration": 0.1327432500000043,
          "durationTicks": 96,
          "midi": 42,
          "name": "F#2",
          "ticks": 67488,
          "time": 93.31850475,
          "velocity": 0.4330708661417323
        },
        {
          "duration": 0.1327432500000043,
          "durationTicks": 96,
          "midi": 36,
          "name": "C2",
          "ticks": 67584,
          "time": 93.451248,
          "velocity": 0.4330708661417323
        },
        {
          "duration": 0.1327432500000043,
          "durationTicks": 96,
          "midi": 42,
          "name": "F#2",
          "ticks": 67584,
          "time": 93.451248,
          "velocity": 0.4330708661417323
        },
        {
          "duration": 0.1327432500000043,
          "durationTicks": 96,
          "midi": 42,
          "name": "F#2",
          "ticks": 67776,
          "time": 93.7167345,
          "velocity": 0.4330708661417323
        },
        {
          "duration": 0.1327432500000043,
          "durationTicks": 96,
          "midi": 42,
          "name": "F#2",
          "ticks": 67872,
          "time": 93.84947775,
          "velocity": 0.4330708661417323
        },
        {
          "duration": 0.1327432499999901,
          "durationTicks": 96,
          "midi": 39,
          "name": "D#2",
          "ticks": 67968,
          "time": 93.98222100000001,
          "velocity": 0.4330708661417323
        },
        {
          "duration": 0.1327432499999901,
          "durationTicks": 96,
          "midi": 36,
          "name": "C2",
          "ticks": 67968,
          "time": 93.98222100000001,
          "velocity": 0.4330708661417323
        },
        {
          "duration": 0.1327432499999901,
          "durationTicks": 96,
          "midi": 38,
          "name": "D2",
          "ticks": 67968,
          "time": 93.98222100000001,
          "velocity": 0.4330708661417323
        },
        {
          "duration": 0.1327432499999901,
          "durationTicks": 96,
          "midi": 42,
          "name": "F#2",
          "ticks": 67968,
          "time": 93.98222100000001,
          "velocity": 0.4330708661417323
        },
        {
          "duration": 0.1327432500000043,
          "durationTicks": 96,
          "midi": 46,
          "name": "A#2",
          "ticks": 68160,
          "time": 94.2477075,
          "velocity": 0.4330708661417323
        },
        {
          "duration": 0.1327432500000043,
          "durationTicks": 96,
          "midi": 36,
          "name": "C2",
          "ticks": 68352,
          "time": 94.513194,
          "velocity": 0.4330708661417323
        },
        {
          "duration": 0.1327432500000043,
          "durationTicks": 96,
          "midi": 42,
          "name": "F#2",
          "ticks": 68352,
          "time": 94.513194,
          "velocity": 0.4330708661417323
        },
        {
          "duration": 0.1327432500000043,
          "durationTicks": 96,
          "midi": 42,
          "name": "F#2",
          "ticks": 68544,
          "time": 94.77868050000001,
          "velocity": 0.4330708661417323
        },
        {
          "duration": 0.1327432499999901,
          "durationTicks": 96,
          "midi": 42,
          "name": "F#2",
          "ticks": 68640,
          "time": 94.91142375000001,
          "velocity": 0.4330708661417323
        },
        {
          "duration": 0.1327432500000043,
          "durationTicks": 96,
          "midi": 39,
          "name": "D#2",
          "ticks": 68736,
          "time": 95.044167,
          "velocity": 0.4330708661417323
        },
        {
          "duration": 0.1327432500000043,
          "durationTicks": 96,
          "midi": 36,
          "name": "C2",
          "ticks": 68736,
          "time": 95.044167,
          "velocity": 0.4330708661417323
        },
        {
          "duration": 0.1327432500000043,
          "durationTicks": 96,
          "midi": 38,
          "name": "D2",
          "ticks": 68736,
          "time": 95.044167,
          "velocity": 0.4330708661417323
        },
        {
          "duration": 0.1327432500000043,
          "durationTicks": 96,
          "midi": 42,
          "name": "F#2",
          "ticks": 68736,
          "time": 95.044167,
          "velocity": 0.4330708661417323
        },
        {
          "duration": 0.1327432500000043,
          "durationTicks": 96,
          "midi": 39,
          "name": "D#2",
          "ticks": 68832,
          "time": 95.17691025,
          "velocity": 0.4330708661417323
        },
        {
          "duration": 0.1327432499999901,
          "durationTicks": 96,
          "midi": 39,
          "name": "D#2",
          "ticks": 68928,
          "time": 95.30965350000001,
          "velocity": 0.4330708661417323
        },
        {
          "duration": 0.1327432499999901,
          "durationTicks": 96,
          "midi": 46,
          "name": "A#2",
          "ticks": 68928,
          "time": 95.30965350000001,
          "velocity": 0.4330708661417323
        },
        {
          "duration": 0.1327432500000043,
          "durationTicks": 96,
          "midi": 39,
          "name": "D#2",
          "ticks": 69024,
          "time": 95.44239675,
          "velocity": 0.4330708661417323
        },
        {
          "duration": 0.1327432500000043,
          "durationTicks": 96,
          "midi": 36,
          "name": "C2",
          "ticks": 69120,
          "time": 95.57514,
          "velocity": 0.4330708661417323
        },
        {
          "duration": 0.1327432500000043,
          "durationTicks": 96,
          "midi": 42,
          "name": "F#2",
          "ticks": 69120,
          "time": 95.57514,
          "velocity": 0.4330708661417323
        },
        {
          "duration": 0.1327432500000043,
          "durationTicks": 96,
          "midi": 42,
          "name": "F#2",
          "ticks": 69312,
          "time": 95.8406265,
          "velocity": 0.4330708661417323
        },
        {
          "duration": 0.1327432500000043,
          "durationTicks": 96,
          "midi": 42,
          "name": "F#2",
          "ticks": 69408,
          "time": 95.97336975,
          "velocity": 0.4330708661417323
        },
        {
          "duration": 0.1327432500000043,
          "durationTicks": 96,
          "midi": 39,
          "name": "D#2",
          "ticks": 69504,
          "time": 96.10611300000001,
          "velocity": 0.4330708661417323
        },
        {
          "duration": 0.1327432500000043,
          "durationTicks": 96,
          "midi": 36,
          "name": "C2",
          "ticks": 69504,
          "time": 96.10611300000001,
          "velocity": 0.4330708661417323
        },
        {
          "duration": 0.1327432500000043,
          "durationTicks": 96,
          "midi": 38,
          "name": "D2",
          "ticks": 69504,
          "time": 96.10611300000001,
          "velocity": 0.4330708661417323
        },
        {
          "duration": 0.1327432500000043,
          "durationTicks": 96,
          "midi": 42,
          "name": "F#2",
          "ticks": 69504,
          "time": 96.10611300000001,
          "velocity": 0.4330708661417323
        },
        {
          "duration": 0.1327432500000043,
          "durationTicks": 96,
          "midi": 42,
          "name": "F#2",
          "ticks": 69696,
          "time": 96.3715995,
          "velocity": 0.4330708661417323
        },
        {
          "duration": 0.1327432500000043,
          "durationTicks": 96,
          "midi": 42,
          "name": "F#2",
          "ticks": 69792,
          "time": 96.50434275,
          "velocity": 0.4330708661417323
        },
        {
          "duration": 0.1327432499999901,
          "durationTicks": 96,
          "midi": 36,
          "name": "C2",
          "ticks": 69888,
          "time": 96.63708600000001,
          "velocity": 0.4330708661417323
        },
        {
          "duration": 0.1327432499999901,
          "durationTicks": 96,
          "midi": 42,
          "name": "F#2",
          "ticks": 69888,
          "time": 96.63708600000001,
          "velocity": 0.4330708661417323
        },
        {
          "duration": 0.1327432500000043,
          "durationTicks": 96,
          "midi": 42,
          "name": "F#2",
          "ticks": 70080,
          "time": 96.9025725,
          "velocity": 0.4330708661417323
        },
        {
          "duration": 0.1327432499999901,
          "durationTicks": 96,
          "midi": 42,
          "name": "F#2",
          "ticks": 70176,
          "time": 97.03531575000001,
          "velocity": 0.4330708661417323
        },
        {
          "duration": 0.1327432500000043,
          "durationTicks": 96,
          "midi": 39,
          "name": "D#2",
          "ticks": 70272,
          "time": 97.168059,
          "velocity": 0.4330708661417323
        },
        {
          "duration": 0.1327432500000043,
          "durationTicks": 96,
          "midi": 36,
          "name": "C2",
          "ticks": 70272,
          "time": 97.168059,
          "velocity": 0.4330708661417323
        },
        {
          "duration": 0.1327432500000043,
          "durationTicks": 96,
          "midi": 38,
          "name": "D2",
          "ticks": 70272,
          "time": 97.168059,
          "velocity": 0.4330708661417323
        },
        {
          "duration": 0.1327432500000043,
          "durationTicks": 96,
          "midi": 42,
          "name": "F#2",
          "ticks": 70272,
          "time": 97.168059,
          "velocity": 0.4330708661417323
        },
        {
          "duration": 0.1327432499999901,
          "durationTicks": 96,
          "midi": 42,
          "name": "F#2",
          "ticks": 70464,
          "time": 97.43354550000001,
          "velocity": 0.4330708661417323
        },
        {
          "duration": 0.1327432500000043,
          "durationTicks": 96,
          "midi": 42,
          "name": "F#2",
          "ticks": 70560,
          "time": 97.56628875,
          "velocity": 0.4330708661417323
        },
        {
          "duration": 0.1327432500000043,
          "durationTicks": 96,
          "midi": 36,
          "name": "C2",
          "ticks": 70656,
          "time": 97.699032,
          "velocity": 0.4330708661417323
        },
        {
          "duration": 0.1327432500000043,
          "durationTicks": 96,
          "midi": 42,
          "name": "F#2",
          "ticks": 70656,
          "time": 97.699032,
          "velocity": 0.4330708661417323
        },
        {
          "duration": 0.1327432499999901,
          "durationTicks": 96,
          "midi": 42,
          "name": "F#2",
          "ticks": 70848,
          "time": 97.96451850000001,
          "velocity": 0.4330708661417323
        },
        {
          "duration": 0.1327432500000043,
          "durationTicks": 96,
          "midi": 42,
          "name": "F#2",
          "ticks": 70944,
          "time": 98.09726175,
          "velocity": 0.4330708661417323
        },
        {
          "duration": 0.1327432500000043,
          "durationTicks": 96,
          "midi": 39,
          "name": "D#2",
          "ticks": 71040,
          "time": 98.230005,
          "velocity": 0.4330708661417323
        },
        {
          "duration": 0.1327432500000043,
          "durationTicks": 96,
          "midi": 36,
          "name": "C2",
          "ticks": 71040,
          "time": 98.230005,
          "velocity": 0.4330708661417323
        },
        {
          "duration": 0.1327432500000043,
          "durationTicks": 96,
          "midi": 38,
          "name": "D2",
          "ticks": 71040,
          "time": 98.230005,
          "velocity": 0.4330708661417323
        },
        {
          "duration": 0.1327432500000043,
          "durationTicks": 96,
          "midi": 42,
          "name": "F#2",
          "ticks": 71040,
          "time": 98.230005,
          "velocity": 0.4330708661417323
        },
        {
          "duration": 0.1327432500000043,
          "durationTicks": 96,
          "midi": 42,
          "name": "F#2",
          "ticks": 71232,
          "time": 98.4954915,
          "velocity": 0.4330708661417323
        },
        {
          "duration": 0.1327432500000043,
          "durationTicks": 96,
          "midi": 42,
          "name": "F#2",
          "ticks": 71328,
          "time": 98.62823475,
          "velocity": 0.4330708661417323
        },
        {
          "duration": 0.1327432499999901,
          "durationTicks": 96,
          "midi": 36,
          "name": "C2",
          "ticks": 71424,
          "time": 98.76097800000001,
          "velocity": 0.4330708661417323
        },
        {
          "duration": 0.1327432499999901,
          "durationTicks": 96,
          "midi": 42,
          "name": "F#2",
          "ticks": 71424,
          "time": 98.76097800000001,
          "velocity": 0.4330708661417323
        },
        {
          "duration": 0.1327432500000043,
          "durationTicks": 96,
          "midi": 42,
          "name": "F#2",
          "ticks": 71616,
          "time": 99.0264645,
          "velocity": 0.4330708661417323
        },
        {
          "duration": 0.1327432500000043,
          "durationTicks": 96,
          "midi": 42,
          "name": "F#2",
          "ticks": 71712,
          "time": 99.15920775000001,
          "velocity": 0.4330708661417323
        },
        {
          "duration": 0.1327432499999901,
          "durationTicks": 96,
          "midi": 39,
          "name": "D#2",
          "ticks": 71808,
          "time": 99.29195100000001,
          "velocity": 0.4330708661417323
        },
        {
          "duration": 0.1327432499999901,
          "durationTicks": 96,
          "midi": 36,
          "name": "C2",
          "ticks": 71808,
          "time": 99.29195100000001,
          "velocity": 0.4330708661417323
        },
        {
          "duration": 0.1327432499999901,
          "durationTicks": 96,
          "midi": 38,
          "name": "D2",
          "ticks": 71808,
          "time": 99.29195100000001,
          "velocity": 0.4330708661417323
        },
        {
          "duration": 0.1327432499999901,
          "durationTicks": 96,
          "midi": 42,
          "name": "F#2",
          "ticks": 71808,
          "time": 99.29195100000001,
          "velocity": 0.4330708661417323
        },
        {
          "duration": 0.1327432500000043,
          "durationTicks": 96,
          "midi": 46,
          "name": "A#2",
          "ticks": 72000,
          "time": 99.5574375,
          "velocity": 0.4330708661417323
        },
        {
          "duration": 0.1327432500000043,
          "durationTicks": 96,
          "midi": 36,
          "name": "C2",
          "ticks": 72192,
          "time": 99.822924,
          "velocity": 0.4330708661417323
        },
        {
          "duration": 0.1327432500000043,
          "durationTicks": 96,
          "midi": 42,
          "name": "F#2",
          "ticks": 72192,
          "time": 99.822924,
          "velocity": 0.4330708661417323
        },
        {
          "duration": 0.1327432499999901,
          "durationTicks": 96,
          "midi": 42,
          "name": "F#2",
          "ticks": 72384,
          "time": 100.08841050000001,
          "velocity": 0.4330708661417323
        },
        {
          "duration": 0.1327432500000043,
          "durationTicks": 96,
          "midi": 42,
          "name": "F#2",
          "ticks": 72480,
          "time": 100.22115375,
          "velocity": 0.4330708661417323
        },
        {
          "duration": 0.1327432500000043,
          "durationTicks": 96,
          "midi": 39,
          "name": "D#2",
          "ticks": 72576,
          "time": 100.353897,
          "velocity": 0.4330708661417323
        },
        {
          "duration": 0.1327432500000043,
          "durationTicks": 96,
          "midi": 36,
          "name": "C2",
          "ticks": 72576,
          "time": 100.353897,
          "velocity": 0.4330708661417323
        },
        {
          "duration": 0.1327432500000043,
          "durationTicks": 96,
          "midi": 38,
          "name": "D2",
          "ticks": 72576,
          "time": 100.353897,
          "velocity": 0.4330708661417323
        },
        {
          "duration": 0.1327432500000043,
          "durationTicks": 96,
          "midi": 42,
          "name": "F#2",
          "ticks": 72576,
          "time": 100.353897,
          "velocity": 0.4330708661417323
        },
        {
          "duration": 0.1327432499999901,
          "durationTicks": 96,
          "midi": 42,
          "name": "F#2",
          "ticks": 72768,
          "time": 100.61938350000001,
          "velocity": 0.4330708661417323
        },
        {
          "duration": 0.1327432500000043,
          "durationTicks": 96,
          "midi": 42,
          "name": "F#2",
          "ticks": 72864,
          "time": 100.75212675,
          "velocity": 0.4330708661417323
        },
        {
          "duration": 0.1327432500000043,
          "durationTicks": 96,
          "midi": 36,
          "name": "C2",
          "ticks": 72960,
          "time": 100.88487,
          "velocity": 0.4330708661417323
        },
        {
          "duration": 0.1327432500000043,
          "durationTicks": 96,
          "midi": 42,
          "name": "F#2",
          "ticks": 72960,
          "time": 100.88487,
          "velocity": 0.4330708661417323
        },
        {
          "duration": 0.1327432500000043,
          "durationTicks": 96,
          "midi": 42,
          "name": "F#2",
          "ticks": 73152,
          "time": 101.1503565,
          "velocity": 0.4330708661417323
        },
        {
          "duration": 0.1327432500000043,
          "durationTicks": 96,
          "midi": 42,
          "name": "F#2",
          "ticks": 73248,
          "time": 101.28309975,
          "velocity": 0.4330708661417323
        },
        {
          "duration": 0.1327432499999901,
          "durationTicks": 96,
          "midi": 39,
          "name": "D#2",
          "ticks": 73344,
          "time": 101.41584300000001,
          "velocity": 0.4330708661417323
        },
        {
          "duration": 0.1327432499999901,
          "durationTicks": 96,
          "midi": 36,
          "name": "C2",
          "ticks": 73344,
          "time": 101.41584300000001,
          "velocity": 0.4330708661417323
        },
        {
          "duration": 0.1327432499999901,
          "durationTicks": 96,
          "midi": 38,
          "name": "D2",
          "ticks": 73344,
          "time": 101.41584300000001,
          "velocity": 0.4330708661417323
        },
        {
          "duration": 0.1327432499999901,
          "durationTicks": 96,
          "midi": 42,
          "name": "F#2",
          "ticks": 73344,
          "time": 101.41584300000001,
          "velocity": 0.4330708661417323
        },
        {
          "duration": 0.1327432500000043,
          "durationTicks": 96,
          "midi": 42,
          "name": "F#2",
          "ticks": 73536,
          "time": 101.6813295,
          "velocity": 0.4330708661417323
        },
        {
          "duration": 0.1327432500000043,
          "durationTicks": 96,
          "midi": 42,
          "name": "F#2",
          "ticks": 73632,
          "time": 101.81407275000001,
          "velocity": 0.4330708661417323
        },
        {
          "duration": 0.1327432499999901,
          "durationTicks": 96,
          "midi": 36,
          "name": "C2",
          "ticks": 73728,
          "time": 101.94681600000001,
          "velocity": 0.4330708661417323
        },
        {
          "duration": 0.1327432499999901,
          "durationTicks": 96,
          "midi": 42,
          "name": "F#2",
          "ticks": 73728,
          "time": 101.94681600000001,
          "velocity": 0.4330708661417323
        },
        {
          "duration": 0.1327432500000043,
          "durationTicks": 96,
          "midi": 48,
          "name": "C3",
          "ticks": 73916,
          "time": 102.20677153125001,
          "velocity": 0.4330708661417323
        },
        {
          "duration": 0.1327432500000043,
          "durationTicks": 96,
          "midi": 42,
          "name": "F#2",
          "ticks": 73920,
          "time": 102.2123025,
          "velocity": 0.4330708661417323
        },
        {
          "duration": 0.1327432499999901,
          "durationTicks": 96,
          "midi": 48,
          "name": "C3",
          "ticks": 74014,
          "time": 102.342280265625,
          "velocity": 0.4330708661417323
        },
        {
          "duration": 0.1327432499999901,
          "durationTicks": 96,
          "midi": 42,
          "name": "F#2",
          "ticks": 74016,
          "time": 102.34504575000001,
          "velocity": 0.4330708661417323
        },
        {
          "duration": 0.1327432500000043,
          "durationTicks": 96,
          "midi": 39,
          "name": "D#2",
          "ticks": 74112,
          "time": 102.477789,
          "velocity": 0.4330708661417323
        },
        {
          "duration": 0.1327432500000043,
          "durationTicks": 96,
          "midi": 36,
          "name": "C2",
          "ticks": 74112,
          "time": 102.477789,
          "velocity": 0.4330708661417323
        },
        {
          "duration": 0.1327432500000043,
          "durationTicks": 96,
          "midi": 38,
          "name": "D2",
          "ticks": 74112,
          "time": 102.477789,
          "velocity": 0.4330708661417323
        },
        {
          "duration": 0.1327432500000043,
          "durationTicks": 96,
          "midi": 42,
          "name": "F#2",
          "ticks": 74112,
          "time": 102.477789,
          "velocity": 0.4330708661417323
        },
        {
          "duration": 0.1327432500000043,
          "durationTicks": 96,
          "midi": 48,
          "name": "C3",
          "ticks": 74210,
          "time": 102.61329773437501,
          "velocity": 0.4330708661417323
        },
        {
          "duration": 0.1327432499999901,
          "durationTicks": 96,
          "midi": 46,
          "name": "A#2",
          "ticks": 74304,
          "time": 102.74327550000001,
          "velocity": 0.4330708661417323
        },
        {
          "duration": 0.1327432499999901,
          "durationTicks": 96,
          "midi": 45,
          "name": "A2",
          "ticks": 74310,
          "time": 102.75157195312501,
          "velocity": 0.4330708661417323
        },
        {
          "duration": 0.1327432500000043,
          "durationTicks": 96,
          "midi": 36,
          "name": "C2",
          "ticks": 74496,
          "time": 103.008762,
          "velocity": 0.4330708661417323
        },
        {
          "duration": 0.1327432500000043,
          "durationTicks": 96,
          "midi": 42,
          "name": "F#2",
          "ticks": 74496,
          "time": 103.008762,
          "velocity": 0.4330708661417323
        },
        {
          "duration": 0.1327432500000043,
          "durationTicks": 96,
          "midi": 45,
          "name": "A2",
          "ticks": 74500,
          "time": 103.01429296875,
          "velocity": 0.4330708661417323
        },
        {
          "duration": 0.1327432500000043,
          "durationTicks": 96,
          "midi": 45,
          "name": "A2",
          "ticks": 74596,
          "time": 103.14703621875,
          "velocity": 0.4330708661417323
        },
        {
          "duration": 0.1327432500000043,
          "durationTicks": 96,
          "midi": 42,
          "name": "F#2",
          "ticks": 74688,
          "time": 103.2742485,
          "velocity": 0.4330708661417323
        },
        {
          "duration": 0.1327432499999901,
          "durationTicks": 96,
          "midi": 45,
          "name": "A2",
          "ticks": 74690,
          "time": 103.27701398437502,
          "velocity": 0.4330708661417323
        },
        {
          "duration": 0.1327432500000043,
          "durationTicks": 96,
          "midi": 42,
          "name": "F#2",
          "ticks": 74784,
          "time": 103.40699175,
          "velocity": 0.4330708661417323
        },
        {
          "duration": 0.1327432500000043,
          "durationTicks": 96,
          "midi": 45,
          "name": "A2",
          "ticks": 74792,
          "time": 103.4180536875,
          "velocity": 0.4330708661417323
        },
        {
          "duration": 0.1327432500000043,
          "durationTicks": 96,
          "midi": 39,
          "name": "D#2",
          "ticks": 74880,
          "time": 103.53973500000001,
          "velocity": 0.4330708661417323
        },
        {
          "duration": 0.1327432500000043,
          "durationTicks": 96,
          "midi": 36,
          "name": "C2",
          "ticks": 74880,
          "time": 103.53973500000001,
          "velocity": 0.4330708661417323
        },
        {
          "duration": 0.1327432500000043,
          "durationTicks": 96,
          "midi": 38,
          "name": "D2",
          "ticks": 74880,
          "time": 103.53973500000001,
          "velocity": 0.4330708661417323
        },
        {
          "duration": 0.1327432500000043,
          "durationTicks": 96,
          "midi": 42,
          "name": "F#2",
          "ticks": 74880,
          "time": 103.53973500000001,
          "velocity": 0.4330708661417323
        },
        {
          "duration": 0.1327432500000043,
          "durationTicks": 96,
          "midi": 41,
          "name": "F2",
          "ticks": 74888,
          "time": 103.55079693750001,
          "velocity": 0.4330708661417323
        },
        {
          "duration": 0.13412599218749222,
          "durationTicks": 97,
          "midi": 39,
          "name": "D#2",
          "ticks": 74976,
          "time": 103.67247825000001,
          "velocity": 0.4330708661417323
        },
        {
          "duration": 0.1327432500000043,
          "durationTicks": 96,
          "midi": 41,
          "name": "F2",
          "ticks": 74991,
          "time": 103.6932193828125,
          "velocity": 0.4330708661417323
        },
        {
          "duration": 0.1327432499999901,
          "durationTicks": 96,
          "midi": 41,
          "name": "F2",
          "ticks": 75067,
          "time": 103.7983077890625,
          "velocity": 0.4330708661417323
        },
        {
          "duration": 0.1327432499999901,
          "durationTicks": 96,
          "midi": 39,
          "name": "D#2",
          "ticks": 75073,
          "time": 103.8066042421875,
          "velocity": 0.4330708661417323
        },
        {
          "duration": 0.1327432499999901,
          "durationTicks": 96,
          "midi": 46,
          "name": "A#2",
          "ticks": 75073,
          "time": 103.8066042421875,
          "velocity": 0.4330708661417323
        },
        {
          "duration": 0.1327432500000043,
          "durationTicks": 96,
          "midi": 39,
          "name": "D#2",
          "ticks": 75169,
          "time": 103.9393474921875,
          "velocity": 0.4330708661417323
        },
        {
          "duration": 0.1327432499999901,
          "durationTicks": 96,
          "midi": 41,
          "name": "F2",
          "ticks": 75173,
          "time": 103.94487846093752,
          "velocity": 0.4330708661417323
        },
        {
          "duration": 0.1327432500000043,
          "durationTicks": 96,
          "midi": 36,
          "name": "C2",
          "ticks": 75265,
          "time": 104.0720907421875,
          "velocity": 0.4330708661417323
        },
        {
          "duration": 0.1327432500000043,
          "durationTicks": 96,
          "midi": 42,
          "name": "F#2",
          "ticks": 75265,
          "time": 104.0720907421875,
          "velocity": 0.4330708661417323
        },
        {
          "duration": 0.1327432499999901,
          "durationTicks": 96,
          "midi": 42,
          "name": "F#2",
          "ticks": 75457,
          "time": 104.3375772421875,
          "velocity": 0.4330708661417323
        },
        {
          "duration": 0.1327432500000043,
          "durationTicks": 96,
          "midi": 42,
          "name": "F#2",
          "ticks": 75553,
          "time": 104.4703204921875,
          "velocity": 0.4330708661417323
        },
        {
          "duration": 0.1327432500000043,
          "durationTicks": 96,
          "midi": 39,
          "name": "D#2",
          "ticks": 75649,
          "time": 104.6030637421875,
          "velocity": 0.4330708661417323
        },
        {
          "duration": 0.1327432500000043,
          "durationTicks": 96,
          "midi": 36,
          "name": "C2",
          "ticks": 75649,
          "time": 104.6030637421875,
          "velocity": 0.4330708661417323
        },
        {
          "duration": 0.1327432500000043,
          "durationTicks": 96,
          "midi": 38,
          "name": "D2",
          "ticks": 75649,
          "time": 104.6030637421875,
          "velocity": 0.4330708661417323
        },
        {
          "duration": 0.1327432500000043,
          "durationTicks": 96,
          "midi": 42,
          "name": "F#2",
          "ticks": 75649,
          "time": 104.6030637421875,
          "velocity": 0.4330708661417323
        },
        {
          "duration": 0.1327432500000043,
          "durationTicks": 96,
          "midi": 42,
          "name": "F#2",
          "ticks": 75841,
          "time": 104.8685502421875,
          "velocity": 0.4330708661417323
        },
        {
          "duration": 0.1327432500000043,
          "durationTicks": 96,
          "midi": 42,
          "name": "F#2",
          "ticks": 75937,
          "time": 105.0012934921875,
          "velocity": 0.4330708661417323
        },
        {
          "duration": 0.1327432499999901,
          "durationTicks": 96,
          "midi": 36,
          "name": "C2",
          "ticks": 76033,
          "time": 105.1340367421875,
          "velocity": 0.4330708661417323
        },
        {
          "duration": 0.1327432499999901,
          "durationTicks": 96,
          "midi": 42,
          "name": "F#2",
          "ticks": 76033,
          "time": 105.1340367421875,
          "velocity": 0.4330708661417323
        },
        {
          "duration": 0.1327432500000043,
          "durationTicks": 96,
          "midi": 42,
          "name": "F#2",
          "ticks": 76225,
          "time": 105.3995232421875,
          "velocity": 0.4330708661417323
        },
        {
          "duration": 0.1327432500000043,
          "durationTicks": 96,
          "midi": 42,
          "name": "F#2",
          "ticks": 76321,
          "time": 105.5322664921875,
          "velocity": 0.4330708661417323
        },
        {
          "duration": 0.1327432499999901,
          "durationTicks": 96,
          "midi": 39,
          "name": "D#2",
          "ticks": 76417,
          "time": 105.66500974218751,
          "velocity": 0.4330708661417323
        },
        {
          "duration": 0.1327432499999901,
          "durationTicks": 96,
          "midi": 36,
          "name": "C2",
          "ticks": 76417,
          "time": 105.66500974218751,
          "velocity": 0.4330708661417323
        },
        {
          "duration": 0.1327432499999901,
          "durationTicks": 96,
          "midi": 38,
          "name": "D2",
          "ticks": 76417,
          "time": 105.66500974218751,
          "velocity": 0.4330708661417323
        },
        {
          "duration": 0.1327432499999901,
          "durationTicks": 96,
          "midi": 42,
          "name": "F#2",
          "ticks": 76417,
          "time": 105.66500974218751,
          "velocity": 0.4330708661417323
        },
        {
          "duration": 0.1327432500000043,
          "durationTicks": 96,
          "midi": 42,
          "name": "F#2",
          "ticks": 76609,
          "time": 105.9304962421875,
          "velocity": 0.4330708661417323
        },
        {
          "duration": 0.1327432499999901,
          "durationTicks": 96,
          "midi": 42,
          "name": "F#2",
          "ticks": 76705,
          "time": 106.0632394921875,
          "velocity": 0.4330708661417323
        },
        {
          "duration": 0.1327432500000043,
          "durationTicks": 96,
          "midi": 36,
          "name": "C2",
          "ticks": 76801,
          "time": 106.1959827421875,
          "velocity": 0.4330708661417323
        },
        {
          "duration": 0.1327432500000043,
          "durationTicks": 96,
          "midi": 42,
          "name": "F#2",
          "ticks": 76801,
          "time": 106.1959827421875,
          "velocity": 0.4330708661417323
        },
        {
          "duration": 0.1327432499999901,
          "durationTicks": 96,
          "midi": 42,
          "name": "F#2",
          "ticks": 76993,
          "time": 106.4614692421875,
          "velocity": 0.4330708661417323
        },
        {
          "duration": 0.1327432500000043,
          "durationTicks": 96,
          "midi": 42,
          "name": "F#2",
          "ticks": 77089,
          "time": 106.5942124921875,
          "velocity": 0.4330708661417323
        },
        {
          "duration": 0.1327432500000043,
          "durationTicks": 96,
          "midi": 39,
          "name": "D#2",
          "ticks": 77185,
          "time": 106.7269557421875,
          "velocity": 0.4330708661417323
        },
        {
          "duration": 0.1327432500000043,
          "durationTicks": 96,
          "midi": 36,
          "name": "C2",
          "ticks": 77185,
          "time": 106.7269557421875,
          "velocity": 0.4330708661417323
        },
        {
          "duration": 0.1327432500000043,
          "durationTicks": 96,
          "midi": 38,
          "name": "D2",
          "ticks": 77185,
          "time": 106.7269557421875,
          "velocity": 0.4330708661417323
        },
        {
          "duration": 0.1327432500000043,
          "durationTicks": 96,
          "midi": 42,
          "name": "F#2",
          "ticks": 77185,
          "time": 106.7269557421875,
          "velocity": 0.4330708661417323
        },
        {
          "duration": 0.1327432500000043,
          "durationTicks": 96,
          "midi": 42,
          "name": "F#2",
          "ticks": 77377,
          "time": 106.9924422421875,
          "velocity": 0.4330708661417323
        },
        {
          "duration": 0.1327432500000043,
          "durationTicks": 96,
          "midi": 42,
          "name": "F#2",
          "ticks": 77473,
          "time": 107.1251854921875,
          "velocity": 0.4330708661417323
        },
        {
          "duration": 0.1327432500000043,
          "durationTicks": 96,
          "midi": 36,
          "name": "C2",
          "ticks": 77569,
          "time": 107.2579287421875,
          "velocity": 0.4330708661417323
        },
        {
          "duration": 0.1327432500000043,
          "durationTicks": 96,
          "midi": 42,
          "name": "F#2",
          "ticks": 77569,
          "time": 107.2579287421875,
          "velocity": 0.4330708661417323
        },
        {
          "duration": 0.1327432500000043,
          "durationTicks": 96,
          "midi": 42,
          "name": "F#2",
          "ticks": 77761,
          "time": 107.5234152421875,
          "velocity": 0.4330708661417323
        },
        {
          "duration": 0.1327432500000043,
          "durationTicks": 96,
          "midi": 42,
          "name": "F#2",
          "ticks": 77857,
          "time": 107.6561584921875,
          "velocity": 0.4330708661417323
        },
        {
          "duration": 0.1327432499999901,
          "durationTicks": 96,
          "midi": 39,
          "name": "D#2",
          "ticks": 77953,
          "time": 107.7889017421875,
          "velocity": 0.4330708661417323
        },
        {
          "duration": 0.1327432499999901,
          "durationTicks": 96,
          "midi": 36,
          "name": "C2",
          "ticks": 77953,
          "time": 107.7889017421875,
          "velocity": 0.4330708661417323
        },
        {
          "duration": 0.1327432499999901,
          "durationTicks": 96,
          "midi": 38,
          "name": "D2",
          "ticks": 77953,
          "time": 107.7889017421875,
          "velocity": 0.4330708661417323
        },
        {
          "duration": 0.1327432499999901,
          "durationTicks": 96,
          "midi": 42,
          "name": "F#2",
          "ticks": 77953,
          "time": 107.7889017421875,
          "velocity": 0.4330708661417323
        },
        {
          "duration": 0.1327432500000043,
          "durationTicks": 96,
          "midi": 46,
          "name": "A#2",
          "ticks": 78145,
          "time": 108.0543882421875,
          "velocity": 0.4330708661417323
        },
        {
          "duration": 0.1327432500000043,
          "durationTicks": 96,
          "midi": 36,
          "name": "C2",
          "ticks": 78337,
          "time": 108.3198747421875,
          "velocity": 0.4330708661417323
        },
        {
          "duration": 0.1327432500000043,
          "durationTicks": 96,
          "midi": 42,
          "name": "F#2",
          "ticks": 78337,
          "time": 108.3198747421875,
          "velocity": 0.4330708661417323
        },
        {
          "duration": 0.1327432500000043,
          "durationTicks": 96,
          "midi": 42,
          "name": "F#2",
          "ticks": 78529,
          "time": 108.5853612421875,
          "velocity": 0.4330708661417323
        },
        {
          "duration": 0.1327432499999901,
          "durationTicks": 96,
          "midi": 42,
          "name": "F#2",
          "ticks": 78625,
          "time": 108.7181044921875,
          "velocity": 0.4330708661417323
        },
        {
          "duration": 0.1327432500000043,
          "durationTicks": 96,
          "midi": 39,
          "name": "D#2",
          "ticks": 78721,
          "time": 108.8508477421875,
          "velocity": 0.4330708661417323
        },
        {
          "duration": 0.1327432500000043,
          "durationTicks": 96,
          "midi": 36,
          "name": "C2",
          "ticks": 78721,
          "time": 108.8508477421875,
          "velocity": 0.4330708661417323
        },
        {
          "duration": 0.1327432500000043,
          "durationTicks": 96,
          "midi": 38,
          "name": "D2",
          "ticks": 78721,
          "time": 108.8508477421875,
          "velocity": 0.4330708661417323
        },
        {
          "duration": 0.1327432500000043,
          "durationTicks": 96,
          "midi": 42,
          "name": "F#2",
          "ticks": 78721,
          "time": 108.8508477421875,
          "velocity": 0.4330708661417323
        },
        {
          "duration": 0.1327432499999901,
          "durationTicks": 96,
          "midi": 42,
          "name": "F#2",
          "ticks": 78913,
          "time": 109.1163342421875,
          "velocity": 0.4330708661417323
        },
        {
          "duration": 0.1327432500000043,
          "durationTicks": 96,
          "midi": 42,
          "name": "F#2",
          "ticks": 79009,
          "time": 109.2490774921875,
          "velocity": 0.4330708661417323
        },
        {
          "duration": 0.1327432500000043,
          "durationTicks": 96,
          "midi": 36,
          "name": "C2",
          "ticks": 79105,
          "time": 109.3818207421875,
          "velocity": 0.4330708661417323
        },
        {
          "duration": 0.1327432500000043,
          "durationTicks": 96,
          "midi": 42,
          "name": "F#2",
          "ticks": 79105,
          "time": 109.3818207421875,
          "velocity": 0.4330708661417323
        },
        {
          "duration": 0.1327432500000043,
          "durationTicks": 96,
          "midi": 42,
          "name": "F#2",
          "ticks": 79297,
          "time": 109.6473072421875,
          "velocity": 0.4330708661417323
        },
        {
          "duration": 0.1327432500000043,
          "durationTicks": 96,
          "midi": 42,
          "name": "F#2",
          "ticks": 79393,
          "time": 109.7800504921875,
          "velocity": 0.4330708661417323
        },
        {
          "duration": 0.1327432500000043,
          "durationTicks": 96,
          "midi": 39,
          "name": "D#2",
          "ticks": 79489,
          "time": 109.9127937421875,
          "velocity": 0.4330708661417323
        },
        {
          "duration": 0.1327432500000043,
          "durationTicks": 96,
          "midi": 36,
          "name": "C2",
          "ticks": 79489,
          "time": 109.9127937421875,
          "velocity": 0.4330708661417323
        },
        {
          "duration": 0.1327432500000043,
          "durationTicks": 96,
          "midi": 38,
          "name": "D2",
          "ticks": 79489,
          "time": 109.9127937421875,
          "velocity": 0.4330708661417323
        },
        {
          "duration": 0.1327432500000043,
          "durationTicks": 96,
          "midi": 42,
          "name": "F#2",
          "ticks": 79489,
          "time": 109.9127937421875,
          "velocity": 0.4330708661417323
        },
        {
          "duration": 0.1327432500000043,
          "durationTicks": 96,
          "midi": 42,
          "name": "F#2",
          "ticks": 79681,
          "time": 110.1782802421875,
          "velocity": 0.4330708661417323
        },
        {
          "duration": 0.1327432500000043,
          "durationTicks": 96,
          "midi": 42,
          "name": "F#2",
          "ticks": 79777,
          "time": 110.3110234921875,
          "velocity": 0.4330708661417323
        },
        {
          "duration": 0.1327432499999901,
          "durationTicks": 96,
          "midi": 36,
          "name": "C2",
          "ticks": 79873,
          "time": 110.4437667421875,
          "velocity": 0.4330708661417323
        },
        {
          "duration": 0.1327432499999901,
          "durationTicks": 96,
          "midi": 42,
          "name": "F#2",
          "ticks": 79873,
          "time": 110.4437667421875,
          "velocity": 0.4330708661417323
        },
        {
          "duration": 0.1327432500000043,
          "durationTicks": 96,
          "midi": 42,
          "name": "F#2",
          "ticks": 80065,
          "time": 110.7092532421875,
          "velocity": 0.4330708661417323
        },
        {
          "duration": 0.1327432499999901,
          "durationTicks": 96,
          "midi": 42,
          "name": "F#2",
          "ticks": 80161,
          "time": 110.8419964921875,
          "velocity": 0.4330708661417323
        },
        {
          "duration": 0.1327432500000043,
          "durationTicks": 96,
          "midi": 39,
          "name": "D#2",
          "ticks": 80257,
          "time": 110.9747397421875,
          "velocity": 0.4330708661417323
        },
        {
          "duration": 0.1327432500000043,
          "durationTicks": 96,
          "midi": 36,
          "name": "C2",
          "ticks": 80257,
          "time": 110.9747397421875,
          "velocity": 0.4330708661417323
        },
        {
          "duration": 0.1327432500000043,
          "durationTicks": 96,
          "midi": 38,
          "name": "D2",
          "ticks": 80257,
          "time": 110.9747397421875,
          "velocity": 0.4330708661417323
        },
        {
          "duration": 0.1327432500000043,
          "durationTicks": 96,
          "midi": 42,
          "name": "F#2",
          "ticks": 80257,
          "time": 110.9747397421875,
          "velocity": 0.4330708661417323
        },
        {
          "duration": 0.1327432500000043,
          "durationTicks": 96,
          "midi": 46,
          "name": "A#2",
          "ticks": 80449,
          "time": 111.2402262421875,
          "velocity": 0.4330708661417323
        },
        {
          "duration": 0.1327432500000043,
          "durationTicks": 96,
          "midi": 36,
          "name": "C2",
          "ticks": 80641,
          "time": 111.5057127421875,
          "velocity": 0.4330708661417323
        },
        {
          "duration": 0.1327432500000043,
          "durationTicks": 96,
          "midi": 42,
          "name": "F#2",
          "ticks": 80641,
          "time": 111.5057127421875,
          "velocity": 0.4330708661417323
        },
        {
          "duration": 0.1327432499999901,
          "durationTicks": 96,
          "midi": 42,
          "name": "F#2",
          "ticks": 80833,
          "time": 111.7711992421875,
          "velocity": 0.4330708661417323
        },
        {
          "duration": 0.1327432500000043,
          "durationTicks": 96,
          "midi": 42,
          "name": "F#2",
          "ticks": 80929,
          "time": 111.9039424921875,
          "velocity": 0.4330708661417323
        },
        {
          "duration": 0.1327432500000043,
          "durationTicks": 96,
          "midi": 39,
          "name": "D#2",
          "ticks": 81025,
          "time": 112.0366857421875,
          "velocity": 0.4330708661417323
        },
        {
          "duration": 0.1327432500000043,
          "durationTicks": 96,
          "midi": 36,
          "name": "C2",
          "ticks": 81025,
          "time": 112.0366857421875,
          "velocity": 0.4330708661417323
        },
        {
          "duration": 0.1327432500000043,
          "durationTicks": 96,
          "midi": 38,
          "name": "D2",
          "ticks": 81025,
          "time": 112.0366857421875,
          "velocity": 0.4330708661417323
        },
        {
          "duration": 0.1327432500000043,
          "durationTicks": 96,
          "midi": 42,
          "name": "F#2",
          "ticks": 81025,
          "time": 112.0366857421875,
          "velocity": 0.4330708661417323
        },
        {
          "duration": 0.1327432499999901,
          "durationTicks": 96,
          "midi": 39,
          "name": "D#2",
          "ticks": 81121,
          "time": 112.1694289921875,
          "velocity": 0.4330708661417323
        },
        {
          "duration": 0.1327432500000043,
          "durationTicks": 96,
          "midi": 39,
          "name": "D#2",
          "ticks": 81217,
          "time": 112.3021722421875,
          "velocity": 0.4330708661417323
        },
        {
          "duration": 0.1327432500000043,
          "durationTicks": 96,
          "midi": 46,
          "name": "A#2",
          "ticks": 81217,
          "time": 112.3021722421875,
          "velocity": 0.4330708661417323
        },
        {
          "duration": 0.1327432500000043,
          "durationTicks": 96,
          "midi": 39,
          "name": "D#2",
          "ticks": 81313,
          "time": 112.4349154921875,
          "velocity": 0.4330708661417323
        },
        {
          "duration": 0.1327432499999901,
          "durationTicks": 96,
          "midi": 36,
          "name": "C2",
          "ticks": 81409,
          "time": 112.5676587421875,
          "velocity": 0.4330708661417323
        },
        {
          "duration": 0.1327432499999901,
          "durationTicks": 96,
          "midi": 42,
          "name": "F#2",
          "ticks": 81409,
          "time": 112.5676587421875,
          "velocity": 0.4330708661417323
        },
        {
          "duration": 0.1327432500000043,
          "durationTicks": 96,
          "midi": 42,
          "name": "F#2",
          "ticks": 81601,
          "time": 112.8331452421875,
          "velocity": 0.4330708661417323
        },
        {
          "duration": 0.1327432500000043,
          "durationTicks": 96,
          "midi": 42,
          "name": "F#2",
          "ticks": 81697,
          "time": 112.9658884921875,
          "velocity": 0.4330708661417323
        },
        {
          "duration": 0.1327432499999901,
          "durationTicks": 96,
          "midi": 39,
          "name": "D#2",
          "ticks": 81793,
          "time": 113.09863174218751,
          "velocity": 0.4330708661417323
        },
        {
          "duration": 0.1327432499999901,
          "durationTicks": 96,
          "midi": 36,
          "name": "C2",
          "ticks": 81793,
          "time": 113.09863174218751,
          "velocity": 0.4330708661417323
        },
        {
          "duration": 0.1327432499999901,
          "durationTicks": 96,
          "midi": 38,
          "name": "D2",
          "ticks": 81793,
          "time": 113.09863174218751,
          "velocity": 0.4330708661417323
        },
        {
          "duration": 0.1327432499999901,
          "durationTicks": 96,
          "midi": 42,
          "name": "F#2",
          "ticks": 81793,
          "time": 113.09863174218751,
          "velocity": 0.4330708661417323
        },
        {
          "duration": 0.1327432500000043,
          "durationTicks": 96,
          "midi": 42,
          "name": "F#2",
          "ticks": 81985,
          "time": 113.3641182421875,
          "velocity": 0.4330708661417323
        },
        {
          "duration": 0.1327432499999901,
          "durationTicks": 96,
          "midi": 42,
          "name": "F#2",
          "ticks": 82081,
          "time": 113.4968614921875,
          "velocity": 0.4330708661417323
        },
        {
          "duration": 0.1327432500000043,
          "durationTicks": 96,
          "midi": 36,
          "name": "C2",
          "ticks": 82177,
          "time": 113.6296047421875,
          "velocity": 0.4330708661417323
        },
        {
          "duration": 0.1327432500000043,
          "durationTicks": 96,
          "midi": 42,
          "name": "F#2",
          "ticks": 82177,
          "time": 113.6296047421875,
          "velocity": 0.4330708661417323
        },
        {
          "duration": 0.1327432499999901,
          "durationTicks": 96,
          "midi": 42,
          "name": "F#2",
          "ticks": 82369,
          "time": 113.8950912421875,
          "velocity": 0.4330708661417323
        },
        {
          "duration": 0.1327432500000043,
          "durationTicks": 96,
          "midi": 42,
          "name": "F#2",
          "ticks": 82465,
          "time": 114.0278344921875,
          "velocity": 0.4330708661417323
        },
        {
          "duration": 0.1327432500000043,
          "durationTicks": 96,
          "midi": 39,
          "name": "D#2",
          "ticks": 82561,
          "time": 114.1605777421875,
          "velocity": 0.4330708661417323
        },
        {
          "duration": 0.1327432500000043,
          "durationTicks": 96,
          "midi": 36,
          "name": "C2",
          "ticks": 82561,
          "time": 114.1605777421875,
          "velocity": 0.4330708661417323
        },
        {
          "duration": 0.1327432500000043,
          "durationTicks": 96,
          "midi": 38,
          "name": "D2",
          "ticks": 82561,
          "time": 114.1605777421875,
          "velocity": 0.4330708661417323
        },
        {
          "duration": 0.1327432500000043,
          "durationTicks": 96,
          "midi": 42,
          "name": "F#2",
          "ticks": 82561,
          "time": 114.1605777421875,
          "velocity": 0.4330708661417323
        },
        {
          "duration": 0.1327432499999901,
          "durationTicks": 96,
          "midi": 42,
          "name": "F#2",
          "ticks": 82753,
          "time": 114.42606424218751,
          "velocity": 0.4330708661417323
        },
        {
          "duration": 0.1327432500000043,
          "durationTicks": 96,
          "midi": 42,
          "name": "F#2",
          "ticks": 82849,
          "time": 114.5588074921875,
          "velocity": 0.4330708661417323
        },
        {
          "duration": 0.1327432500000043,
          "durationTicks": 96,
          "midi": 36,
          "name": "C2",
          "ticks": 82945,
          "time": 114.6915507421875,
          "velocity": 0.4330708661417323
        },
        {
          "duration": 0.1327432500000043,
          "durationTicks": 96,
          "midi": 42,
          "name": "F#2",
          "ticks": 82945,
          "time": 114.6915507421875,
          "velocity": 0.4330708661417323
        },
        {
          "duration": 0.1327432500000043,
          "durationTicks": 96,
          "midi": 42,
          "name": "F#2",
          "ticks": 83137,
          "time": 114.9570372421875,
          "velocity": 0.4330708661417323
        },
        {
          "duration": 0.1327432500000043,
          "durationTicks": 96,
          "midi": 42,
          "name": "F#2",
          "ticks": 83233,
          "time": 115.0897804921875,
          "velocity": 0.4330708661417323
        },
        {
          "duration": 0.1327432499999901,
          "durationTicks": 96,
          "midi": 39,
          "name": "D#2",
          "ticks": 83329,
          "time": 115.2225237421875,
          "velocity": 0.4330708661417323
        },
        {
          "duration": 0.1327432499999901,
          "durationTicks": 96,
          "midi": 36,
          "name": "C2",
          "ticks": 83329,
          "time": 115.2225237421875,
          "velocity": 0.4330708661417323
        },
        {
          "duration": 0.1327432499999901,
          "durationTicks": 96,
          "midi": 38,
          "name": "D2",
          "ticks": 83329,
          "time": 115.2225237421875,
          "velocity": 0.4330708661417323
        },
        {
          "duration": 0.1327432499999901,
          "durationTicks": 96,
          "midi": 42,
          "name": "F#2",
          "ticks": 83329,
          "time": 115.2225237421875,
          "velocity": 0.4330708661417323
        },
        {
          "duration": 0.1327432500000043,
          "durationTicks": 96,
          "midi": 42,
          "name": "F#2",
          "ticks": 83521,
          "time": 115.4880102421875,
          "velocity": 0.4330708661417323
        },
        {
          "duration": 0.1327432500000043,
          "durationTicks": 96,
          "midi": 42,
          "name": "F#2",
          "ticks": 83617,
          "time": 115.6207534921875,
          "velocity": 0.4330708661417323
        },
        {
          "duration": 0.1327432499999901,
          "durationTicks": 96,
          "midi": 36,
          "name": "C2",
          "ticks": 83713,
          "time": 115.75349674218751,
          "velocity": 0.4330708661417323
        },
        {
          "duration": 0.1327432499999901,
          "durationTicks": 96,
          "midi": 42,
          "name": "F#2",
          "ticks": 83713,
          "time": 115.75349674218751,
          "velocity": 0.4330708661417323
        },
        {
          "duration": 0.1327432500000043,
          "durationTicks": 96,
          "midi": 42,
          "name": "F#2",
          "ticks": 83905,
          "time": 116.0189832421875,
          "velocity": 0.4330708661417323
        },
        {
          "duration": 0.1327432499999901,
          "durationTicks": 96,
          "midi": 42,
          "name": "F#2",
          "ticks": 84001,
          "time": 116.1517264921875,
          "velocity": 0.4330708661417323
        },
        {
          "duration": 0.1327432500000043,
          "durationTicks": 96,
          "midi": 39,
          "name": "D#2",
          "ticks": 84097,
          "time": 116.2844697421875,
          "velocity": 0.4330708661417323
        },
        {
          "duration": 0.1327432500000043,
          "durationTicks": 96,
          "midi": 36,
          "name": "C2",
          "ticks": 84097,
          "time": 116.2844697421875,
          "velocity": 0.4330708661417323
        },
        {
          "duration": 0.1327432500000043,
          "durationTicks": 96,
          "midi": 38,
          "name": "D2",
          "ticks": 84097,
          "time": 116.2844697421875,
          "velocity": 0.4330708661417323
        },
        {
          "duration": 0.1327432500000043,
          "durationTicks": 96,
          "midi": 42,
          "name": "F#2",
          "ticks": 84097,
          "time": 116.2844697421875,
          "velocity": 0.4330708661417323
        },
        {
          "duration": 0.1327432499999901,
          "durationTicks": 96,
          "midi": 46,
          "name": "A#2",
          "ticks": 84289,
          "time": 116.5499562421875,
          "velocity": 0.4330708661417323
        },
        {
          "duration": 0.1327432500000043,
          "durationTicks": 96,
          "midi": 36,
          "name": "C2",
          "ticks": 84481,
          "time": 116.8154427421875,
          "velocity": 0.4330708661417323
        },
        {
          "duration": 0.1327432500000043,
          "durationTicks": 96,
          "midi": 42,
          "name": "F#2",
          "ticks": 84481,
          "time": 116.8154427421875,
          "velocity": 0.4330708661417323
        },
        {
          "duration": 0.1327432500000043,
          "durationTicks": 96,
          "midi": 42,
          "name": "F#2",
          "ticks": 84673,
          "time": 117.0809292421875,
          "velocity": 0.4330708661417323
        },
        {
          "duration": 0.1327432500000043,
          "durationTicks": 96,
          "midi": 42,
          "name": "F#2",
          "ticks": 84769,
          "time": 117.2136724921875,
          "velocity": 0.4330708661417323
        },
        {
          "duration": 0.1327432500000043,
          "durationTicks": 96,
          "midi": 39,
          "name": "D#2",
          "ticks": 84865,
          "time": 117.3464157421875,
          "velocity": 0.4330708661417323
        },
        {
          "duration": 0.1327432500000043,
          "durationTicks": 96,
          "midi": 36,
          "name": "C2",
          "ticks": 84865,
          "time": 117.3464157421875,
          "velocity": 0.4330708661417323
        },
        {
          "duration": 0.1327432500000043,
          "durationTicks": 96,
          "midi": 38,
          "name": "D2",
          "ticks": 84865,
          "time": 117.3464157421875,
          "velocity": 0.4330708661417323
        },
        {
          "duration": 0.1327432500000043,
          "durationTicks": 96,
          "midi": 42,
          "name": "F#2",
          "ticks": 84865,
          "time": 117.3464157421875,
          "velocity": 0.4330708661417323
        },
        {
          "duration": 0.1327432500000043,
          "durationTicks": 96,
          "midi": 42,
          "name": "F#2",
          "ticks": 85057,
          "time": 117.6119022421875,
          "velocity": 0.4330708661417323
        },
        {
          "duration": 0.1327432500000043,
          "durationTicks": 96,
          "midi": 42,
          "name": "F#2",
          "ticks": 85153,
          "time": 117.7446454921875,
          "velocity": 0.4330708661417323
        },
        {
          "duration": 0.1327432499999901,
          "durationTicks": 96,
          "midi": 36,
          "name": "C2",
          "ticks": 85249,
          "time": 117.8773887421875,
          "velocity": 0.4330708661417323
        },
        {
          "duration": 0.1327432499999901,
          "durationTicks": 96,
          "midi": 42,
          "name": "F#2",
          "ticks": 85249,
          "time": 117.8773887421875,
          "velocity": 0.4330708661417323
        },
        {
          "duration": 0.1327432500000043,
          "durationTicks": 96,
          "midi": 42,
          "name": "F#2",
          "ticks": 85441,
          "time": 118.1428752421875,
          "velocity": 0.4330708661417323
        },
        {
          "duration": 0.1327432499999901,
          "durationTicks": 96,
          "midi": 42,
          "name": "F#2",
          "ticks": 85537,
          "time": 118.2756184921875,
          "velocity": 0.4330708661417323
        },
        {
          "duration": 0.1327432500000043,
          "durationTicks": 96,
          "midi": 39,
          "name": "D#2",
          "ticks": 85633,
          "time": 118.4083617421875,
          "velocity": 0.4330708661417323
        },
        {
          "duration": 0.1327432500000043,
          "durationTicks": 96,
          "midi": 36,
          "name": "C2",
          "ticks": 85633,
          "time": 118.4083617421875,
          "velocity": 0.4330708661417323
        },
        {
          "duration": 0.1327432500000043,
          "durationTicks": 96,
          "midi": 38,
          "name": "D2",
          "ticks": 85633,
          "time": 118.4083617421875,
          "velocity": 0.4330708661417323
        },
        {
          "duration": 0.1327432500000043,
          "durationTicks": 96,
          "midi": 42,
          "name": "F#2",
          "ticks": 85633,
          "time": 118.4083617421875,
          "velocity": 0.4330708661417323
        },
        {
          "duration": 0.1327432500000043,
          "durationTicks": 96,
          "midi": 42,
          "name": "F#2",
          "ticks": 85825,
          "time": 118.6738482421875,
          "velocity": 0.4330708661417323
        },
        {
          "duration": 0.1327432499999901,
          "durationTicks": 96,
          "midi": 42,
          "name": "F#2",
          "ticks": 85921,
          "time": 118.80659149218751,
          "velocity": 0.4330708661417323
        },
        {
          "duration": 0.1327432500000043,
          "durationTicks": 96,
          "midi": 36,
          "name": "C2",
          "ticks": 86017,
          "time": 118.9393347421875,
          "velocity": 0.4330708661417323
        },
        {
          "duration": 0.1327432500000043,
          "durationTicks": 96,
          "midi": 42,
          "name": "F#2",
          "ticks": 86017,
          "time": 118.9393347421875,
          "velocity": 0.4330708661417323
        },
        {
          "duration": 0.1327432499999901,
          "durationTicks": 96,
          "midi": 48,
          "name": "C3",
          "ticks": 86209,
          "time": 119.2048212421875,
          "velocity": 0.4330708661417323
        },
        {
          "duration": 0.1327432500000043,
          "durationTicks": 96,
          "midi": 48,
          "name": "C3",
          "ticks": 86305,
          "time": 119.3375644921875,
          "velocity": 0.4330708661417323
        },
        {
          "duration": 0.1327432500000043,
          "durationTicks": 96,
          "midi": 39,
          "name": "D#2",
          "ticks": 86401,
          "time": 119.4703077421875,
          "velocity": 0.4330708661417323
        },
        {
          "duration": 0.1327432500000043,
          "durationTicks": 96,
          "midi": 36,
          "name": "C2",
          "ticks": 86401,
          "time": 119.4703077421875,
          "velocity": 0.4330708661417323
        },
        {
          "duration": 0.1327432500000043,
          "durationTicks": 96,
          "midi": 38,
          "name": "D2",
          "ticks": 86401,
          "time": 119.4703077421875,
          "velocity": 0.4330708661417323
        },
        {
          "duration": 0.1327432500000043,
          "durationTicks": 96,
          "midi": 48,
          "name": "C3",
          "ticks": 86401,
          "time": 119.4703077421875,
          "velocity": 0.4330708661417323
        },
        {
          "duration": 0.1327432499999901,
          "durationTicks": 96,
          "midi": 48,
          "name": "C3",
          "ticks": 86497,
          "time": 119.6030509921875,
          "velocity": 0.4330708661417323
        },
        {
          "duration": 0.1327432500000043,
          "durationTicks": 96,
          "midi": 46,
          "name": "A#2",
          "ticks": 86593,
          "time": 119.7357942421875,
          "velocity": 0.4330708661417323
        },
        {
          "duration": 0.1327432500000043,
          "durationTicks": 96,
          "midi": 45,
          "name": "A2",
          "ticks": 86593,
          "time": 119.7357942421875,
          "velocity": 0.4330708661417323
        },
        {
          "duration": 0.1327432500000043,
          "durationTicks": 96,
          "midi": 45,
          "name": "A2",
          "ticks": 86689,
          "time": 119.8685374921875,
          "velocity": 0.4330708661417323
        },
        {
          "duration": 0.1327432500000043,
          "durationTicks": 96,
          "midi": 36,
          "name": "C2",
          "ticks": 86785,
          "time": 120.0012807421875,
          "velocity": 0.4330708661417323
        },
        {
          "duration": 0.1327432500000043,
          "durationTicks": 96,
          "midi": 45,
          "name": "A2",
          "ticks": 86785,
          "time": 120.0012807421875,
          "velocity": 0.4330708661417323
        },
        {
          "duration": 0.1327432499999901,
          "durationTicks": 96,
          "midi": 45,
          "name": "A2",
          "ticks": 86881,
          "time": 120.13402399218751,
          "velocity": 0.4330708661417323
        },
        {
          "duration": 0.1327432500000043,
          "durationTicks": 96,
          "midi": 41,
          "name": "F2",
          "ticks": 86977,
          "time": 120.2667672421875,
          "velocity": 0.4330708661417323
        },
        {
          "duration": 0.1327432500000043,
          "durationTicks": 96,
          "midi": 41,
          "name": "F2",
          "ticks": 87073,
          "time": 120.3995104921875,
          "velocity": 0.4330708661417323
        },
        {
          "duration": 0.1327432499999901,
          "durationTicks": 96,
          "midi": 39,
          "name": "D#2",
          "ticks": 87169,
          "time": 120.5322537421875,
          "velocity": 0.4330708661417323
        },
        {
          "duration": 0.1327432499999901,
          "durationTicks": 96,
          "midi": 36,
          "name": "C2",
          "ticks": 87169,
          "time": 120.5322537421875,
          "velocity": 0.4330708661417323
        },
        {
          "duration": 0.1327432499999901,
          "durationTicks": 96,
          "midi": 38,
          "name": "D2",
          "ticks": 87169,
          "time": 120.5322537421875,
          "velocity": 0.4330708661417323
        },
        {
          "duration": 0.1327432499999901,
          "durationTicks": 96,
          "midi": 41,
          "name": "F2",
          "ticks": 87169,
          "time": 120.5322537421875,
          "velocity": 0.4330708661417323
        },
        {
          "duration": 0.1327432500000043,
          "durationTicks": 96,
          "midi": 39,
          "name": "D#2",
          "ticks": 87265,
          "time": 120.6649969921875,
          "velocity": 0.4330708661417323
        },
        {
          "duration": 0.1327432500000043,
          "durationTicks": 96,
          "midi": 41,
          "name": "F2",
          "ticks": 87265,
          "time": 120.6649969921875,
          "velocity": 0.4330708661417323
        },
        {
          "duration": 0.1327432500000043,
          "durationTicks": 96,
          "midi": 39,
          "name": "D#2",
          "ticks": 87361,
          "time": 120.7977402421875,
          "velocity": 0.4330708661417323
        },
        {
          "duration": 0.1327432500000043,
          "durationTicks": 96,
          "midi": 41,
          "name": "F2",
          "ticks": 87361,
          "time": 120.7977402421875,
          "velocity": 0.4330708661417323
        },
        {
          "duration": 0.1327432499999901,
          "durationTicks": 96,
          "midi": 39,
          "name": "D#2",
          "ticks": 87457,
          "time": 120.9304834921875,
          "velocity": 0.4330708661417323
        },
        {
          "duration": 0.1327432499999901,
          "durationTicks": 96,
          "midi": 41,
          "name": "F2",
          "ticks": 87457,
          "time": 120.9304834921875,
          "velocity": 0.4330708661417323
        },
        {
          "duration": 0.1327432500000043,
          "durationTicks": 96,
          "midi": 36,
          "name": "C2",
          "ticks": 87553,
          "time": 121.0632267421875,
          "velocity": 0.4330708661417323
        },
        {
          "duration": 0.1327432500000043,
          "durationTicks": 96,
          "midi": 42,
          "name": "F#2",
          "ticks": 87553,
          "time": 121.0632267421875,
          "velocity": 0.4330708661417323
        },
        {
          "duration": 0.1327432499999901,
          "durationTicks": 96,
          "midi": 42,
          "name": "F#2",
          "ticks": 87745,
          "time": 121.3287132421875,
          "velocity": 0.4330708661417323
        },
        {
          "duration": 0.1327432500000043,
          "durationTicks": 96,
          "midi": 42,
          "name": "F#2",
          "ticks": 87841,
          "time": 121.4614564921875,
          "velocity": 0.4330708661417323
        },
        {
          "duration": 0.1327432500000043,
          "durationTicks": 96,
          "midi": 39,
          "name": "D#2",
          "ticks": 87937,
          "time": 121.5941997421875,
          "velocity": 0.4330708661417323
        },
        {
          "duration": 0.1327432500000043,
          "durationTicks": 96,
          "midi": 36,
          "name": "C2",
          "ticks": 87937,
          "time": 121.5941997421875,
          "velocity": 0.4330708661417323
        },
        {
          "duration": 0.1327432500000043,
          "durationTicks": 96,
          "midi": 38,
          "name": "D2",
          "ticks": 87937,
          "time": 121.5941997421875,
          "velocity": 0.4330708661417323
        },
        {
          "duration": 0.1327432500000043,
          "durationTicks": 96,
          "midi": 42,
          "name": "F#2",
          "ticks": 87937,
          "time": 121.5941997421875,
          "velocity": 0.4330708661417323
        },
        {
          "duration": 0.1327432499999901,
          "durationTicks": 96,
          "midi": 42,
          "name": "F#2",
          "ticks": 88129,
          "time": 121.85968624218751,
          "velocity": 0.4330708661417323
        },
        {
          "duration": 0.1327432500000043,
          "durationTicks": 96,
          "midi": 42,
          "name": "F#2",
          "ticks": 88225,
          "time": 121.9924294921875,
          "velocity": 0.4330708661417323
        },
        {
          "duration": 0.1327432500000043,
          "durationTicks": 96,
          "midi": 36,
          "name": "C2",
          "ticks": 88321,
          "time": 122.1251727421875,
          "velocity": 0.4330708661417323
        },
        {
          "duration": 0.1327432500000043,
          "durationTicks": 96,
          "midi": 42,
          "name": "F#2",
          "ticks": 88321,
          "time": 122.1251727421875,
          "velocity": 0.4330708661417323
        },
        {
          "duration": 0.1327432500000043,
          "durationTicks": 96,
          "midi": 42,
          "name": "F#2",
          "ticks": 88513,
          "time": 122.3906592421875,
          "velocity": 0.4330708661417323
        },
        {
          "duration": 0.1327432500000043,
          "durationTicks": 96,
          "midi": 42,
          "name": "F#2",
          "ticks": 88609,
          "time": 122.5234024921875,
          "velocity": 0.4330708661417323
        },
        {
          "duration": 0.1327432499999901,
          "durationTicks": 96,
          "midi": 39,
          "name": "D#2",
          "ticks": 88705,
          "time": 122.6561457421875,
          "velocity": 0.4330708661417323
        },
        {
          "duration": 0.1327432499999901,
          "durationTicks": 96,
          "midi": 36,
          "name": "C2",
          "ticks": 88705,
          "time": 122.6561457421875,
          "velocity": 0.4330708661417323
        },
        {
          "duration": 0.1327432499999901,
          "durationTicks": 96,
          "midi": 38,
          "name": "D2",
          "ticks": 88705,
          "time": 122.6561457421875,
          "velocity": 0.4330708661417323
        },
        {
          "duration": 0.1327432499999901,
          "durationTicks": 96,
          "midi": 42,
          "name": "F#2",
          "ticks": 88705,
          "time": 122.6561457421875,
          "velocity": 0.4330708661417323
        },
        {
          "duration": 0.1327432500000043,
          "durationTicks": 96,
          "midi": 42,
          "name": "F#2",
          "ticks": 88897,
          "time": 122.9216322421875,
          "velocity": 0.4330708661417323
        },
        {
          "duration": 0.1327432500000043,
          "durationTicks": 96,
          "midi": 42,
          "name": "F#2",
          "ticks": 88993,
          "time": 123.0543754921875,
          "velocity": 0.4330708661417323
        },
        {
          "duration": 0.1327432499999901,
          "durationTicks": 96,
          "midi": 36,
          "name": "C2",
          "ticks": 89089,
          "time": 123.18711874218751,
          "velocity": 0.4330708661417323
        },
        {
          "duration": 0.1327432499999901,
          "durationTicks": 96,
          "midi": 42,
          "name": "F#2",
          "ticks": 89089,
          "time": 123.18711874218751,
          "velocity": 0.4330708661417323
        },
        {
          "duration": 0.1327432500000043,
          "durationTicks": 96,
          "midi": 42,
          "name": "F#2",
          "ticks": 89281,
          "time": 123.4526052421875,
          "velocity": 0.4330708661417323
        },
        {
          "duration": 0.1327432499999901,
          "durationTicks": 96,
          "midi": 42,
          "name": "F#2",
          "ticks": 89377,
          "time": 123.5853484921875,
          "velocity": 0.4330708661417323
        },
        {
          "duration": 0.1327432500000043,
          "durationTicks": 96,
          "midi": 39,
          "name": "D#2",
          "ticks": 89473,
          "time": 123.7180917421875,
          "velocity": 0.4330708661417323
        },
        {
          "duration": 0.1327432500000043,
          "durationTicks": 96,
          "midi": 36,
          "name": "C2",
          "ticks": 89473,
          "time": 123.7180917421875,
          "velocity": 0.4330708661417323
        },
        {
          "duration": 0.1327432500000043,
          "durationTicks": 96,
          "midi": 38,
          "name": "D2",
          "ticks": 89473,
          "time": 123.7180917421875,
          "velocity": 0.4330708661417323
        },
        {
          "duration": 0.1327432500000043,
          "durationTicks": 96,
          "midi": 42,
          "name": "F#2",
          "ticks": 89473,
          "time": 123.7180917421875,
          "velocity": 0.4330708661417323
        },
        {
          "duration": 0.1327432499999901,
          "durationTicks": 96,
          "midi": 42,
          "name": "F#2",
          "ticks": 89665,
          "time": 123.9835782421875,
          "velocity": 0.4330708661417323
        },
        {
          "duration": 0.1327432500000043,
          "durationTicks": 96,
          "midi": 42,
          "name": "F#2",
          "ticks": 89761,
          "time": 124.1163214921875,
          "velocity": 0.4330708661417323
        },
        {
          "duration": 0.1327432500000043,
          "durationTicks": 96,
          "midi": 36,
          "name": "C2",
          "ticks": 89857,
          "time": 124.2490647421875,
          "velocity": 0.4330708661417323
        },
        {
          "duration": 0.1327432500000043,
          "durationTicks": 96,
          "midi": 42,
          "name": "F#2",
          "ticks": 89857,
          "time": 124.2490647421875,
          "velocity": 0.4330708661417323
        },
        {
          "duration": 0.1327432499999901,
          "durationTicks": 96,
          "midi": 42,
          "name": "F#2",
          "ticks": 90049,
          "time": 124.51455124218751,
          "velocity": 0.4330708661417323
        },
        {
          "duration": 0.1327432500000043,
          "durationTicks": 96,
          "midi": 42,
          "name": "F#2",
          "ticks": 90145,
          "time": 124.6472944921875,
          "velocity": 0.4330708661417323
        },
        {
          "duration": 0.1327432500000043,
          "durationTicks": 96,
          "midi": 39,
          "name": "D#2",
          "ticks": 90241,
          "time": 124.7800377421875,
          "velocity": 0.4330708661417323
        },
        {
          "duration": 0.1327432500000043,
          "durationTicks": 96,
          "midi": 36,
          "name": "C2",
          "ticks": 90241,
          "time": 124.7800377421875,
          "velocity": 0.4330708661417323
        },
        {
          "duration": 0.1327432500000043,
          "durationTicks": 96,
          "midi": 38,
          "name": "D2",
          "ticks": 90241,
          "time": 124.7800377421875,
          "velocity": 0.4330708661417323
        },
        {
          "duration": 0.1327432500000043,
          "durationTicks": 96,
          "midi": 42,
          "name": "F#2",
          "ticks": 90241,
          "time": 124.7800377421875,
          "velocity": 0.4330708661417323
        },
        {
          "duration": 0.1327432500000043,
          "durationTicks": 96,
          "midi": 46,
          "name": "A#2",
          "ticks": 90433,
          "time": 125.0455242421875,
          "velocity": 0.4330708661417323
        },
        {
          "duration": 0.1327432499999901,
          "durationTicks": 96,
          "midi": 36,
          "name": "C2",
          "ticks": 90625,
          "time": 125.3110107421875,
          "velocity": 0.4330708661417323
        },
        {
          "duration": 0.1327432499999901,
          "durationTicks": 96,
          "midi": 42,
          "name": "F#2",
          "ticks": 90625,
          "time": 125.3110107421875,
          "velocity": 0.4330708661417323
        },
        {
          "duration": 0.1327432500000043,
          "durationTicks": 96,
          "midi": 42,
          "name": "F#2",
          "ticks": 90817,
          "time": 125.5764972421875,
          "velocity": 0.4330708661417323
        },
        {
          "duration": 0.1327432500000043,
          "durationTicks": 96,
          "midi": 42,
          "name": "F#2",
          "ticks": 90913,
          "time": 125.7092404921875,
          "velocity": 0.4330708661417323
        },
        {
          "duration": 0.1327432499999901,
          "durationTicks": 96,
          "midi": 39,
          "name": "D#2",
          "ticks": 91009,
          "time": 125.84198374218751,
          "velocity": 0.4330708661417323
        },
        {
          "duration": 0.1327432499999901,
          "durationTicks": 96,
          "midi": 36,
          "name": "C2",
          "ticks": 91009,
          "time": 125.84198374218751,
          "velocity": 0.4330708661417323
        },
        {
          "duration": 0.1327432499999901,
          "durationTicks": 96,
          "midi": 38,
          "name": "D2",
          "ticks": 91009,
          "time": 125.84198374218751,
          "velocity": 0.4330708661417323
        },
        {
          "duration": 0.1327432499999901,
          "durationTicks": 96,
          "midi": 42,
          "name": "F#2",
          "ticks": 91009,
          "time": 125.84198374218751,
          "velocity": 0.4330708661417323
        },
        {
          "duration": 0.1327432500000043,
          "durationTicks": 96,
          "midi": 42,
          "name": "F#2",
          "ticks": 91201,
          "time": 126.1074702421875,
          "velocity": 0.4330708661417323
        },
        {
          "duration": 0.1327432499999901,
          "durationTicks": 96,
          "midi": 42,
          "name": "F#2",
          "ticks": 91297,
          "time": 126.24021349218751,
          "velocity": 0.4330708661417323
        },
        {
          "duration": 0.1327432500000043,
          "durationTicks": 96,
          "midi": 36,
          "name": "C2",
          "ticks": 91393,
          "time": 126.3729567421875,
          "velocity": 0.4330708661417323
        },
        {
          "duration": 0.1327432500000043,
          "durationTicks": 96,
          "midi": 42,
          "name": "F#2",
          "ticks": 91393,
          "time": 126.3729567421875,
          "velocity": 0.4330708661417323
        },
        {
          "duration": 0.1327432499999901,
          "durationTicks": 96,
          "midi": 42,
          "name": "F#2",
          "ticks": 91585,
          "time": 126.6384432421875,
          "velocity": 0.4330708661417323
        },
        {
          "duration": 0.1327432500000043,
          "durationTicks": 96,
          "midi": 42,
          "name": "F#2",
          "ticks": 91681,
          "time": 126.7711864921875,
          "velocity": 0.4330708661417323
        },
        {
          "duration": 0.1327432500000043,
          "durationTicks": 96,
          "midi": 39,
          "name": "D#2",
          "ticks": 91777,
          "time": 126.9039297421875,
          "velocity": 0.4330708661417323
        },
        {
          "duration": 0.1327432500000043,
          "durationTicks": 96,
          "midi": 36,
          "name": "C2",
          "ticks": 91777,
          "time": 126.9039297421875,
          "velocity": 0.4330708661417323
        },
        {
          "duration": 0.1327432500000043,
          "durationTicks": 96,
          "midi": 38,
          "name": "D2",
          "ticks": 91777,
          "time": 126.9039297421875,
          "velocity": 0.4330708661417323
        },
        {
          "duration": 0.1327432500000043,
          "durationTicks": 96,
          "midi": 42,
          "name": "F#2",
          "ticks": 91777,
          "time": 126.9039297421875,
          "velocity": 0.4330708661417323
        },
        {
          "duration": 0.1327432500000043,
          "durationTicks": 96,
          "midi": 42,
          "name": "F#2",
          "ticks": 91969,
          "time": 127.1694162421875,
          "velocity": 0.4330708661417323
        },
        {
          "duration": 0.1327432500000043,
          "durationTicks": 96,
          "midi": 42,
          "name": "F#2",
          "ticks": 92065,
          "time": 127.3021594921875,
          "velocity": 0.4330708661417323
        },
        {
          "duration": 0.1327432500000043,
          "durationTicks": 96,
          "midi": 36,
          "name": "C2",
          "ticks": 92161,
          "time": 127.4349027421875,
          "velocity": 0.4330708661417323
        },
        {
          "duration": 0.1327432500000043,
          "durationTicks": 96,
          "midi": 42,
          "name": "F#2",
          "ticks": 92161,
          "time": 127.4349027421875,
          "velocity": 0.4330708661417323
        },
        {
          "duration": 0.1327432500000043,
          "durationTicks": 96,
          "midi": 42,
          "name": "F#2",
          "ticks": 92353,
          "time": 127.7003892421875,
          "velocity": 0.4330708661417323
        },
        {
          "duration": 0.1327432500000043,
          "durationTicks": 96,
          "midi": 42,
          "name": "F#2",
          "ticks": 92449,
          "time": 127.8331324921875,
          "velocity": 0.4330708661417323
        },
        {
          "duration": 0.1327432500000043,
          "durationTicks": 96,
          "midi": 39,
          "name": "D#2",
          "ticks": 92545,
          "time": 127.9658757421875,
          "velocity": 0.4330708661417323
        },
        {
          "duration": 0.1327432500000043,
          "durationTicks": 96,
          "midi": 36,
          "name": "C2",
          "ticks": 92545,
          "time": 127.9658757421875,
          "velocity": 0.4330708661417323
        },
        {
          "duration": 0.1327432500000043,
          "durationTicks": 96,
          "midi": 38,
          "name": "D2",
          "ticks": 92545,
          "time": 127.9658757421875,
          "velocity": 0.4330708661417323
        },
        {
          "duration": 0.1327432500000043,
          "durationTicks": 96,
          "midi": 42,
          "name": "F#2",
          "ticks": 92545,
          "time": 127.9658757421875,
          "velocity": 0.4330708661417323
        },
        {
          "duration": 0.1327432499999759,
          "durationTicks": 96,
          "midi": 46,
          "name": "A#2",
          "ticks": 92737,
          "time": 128.23136224218752,
          "velocity": 0.4330708661417323
        },
        {
          "duration": 0.1327432500000043,
          "durationTicks": 96,
          "midi": 36,
          "name": "C2",
          "ticks": 92929,
          "time": 128.4968487421875,
          "velocity": 0.4330708661417323
        },
        {
          "duration": 0.1327432500000043,
          "durationTicks": 96,
          "midi": 42,
          "name": "F#2",
          "ticks": 92929,
          "time": 128.4968487421875,
          "velocity": 0.4330708661417323
        },
        {
          "duration": 0.1327432500000043,
          "durationTicks": 96,
          "midi": 42,
          "name": "F#2",
          "ticks": 93121,
          "time": 128.7623352421875,
          "velocity": 0.4330708661417323
        },
        {
          "duration": 0.1327432500000043,
          "durationTicks": 96,
          "midi": 42,
          "name": "F#2",
          "ticks": 93217,
          "time": 128.8950784921875,
          "velocity": 0.4330708661417323
        },
        {
          "duration": 0.1327432499999759,
          "durationTicks": 96,
          "midi": 39,
          "name": "D#2",
          "ticks": 93313,
          "time": 129.0278217421875,
          "velocity": 0.4330708661417323
        },
        {
          "duration": 0.1327432499999759,
          "durationTicks": 96,
          "midi": 36,
          "name": "C2",
          "ticks": 93313,
          "time": 129.0278217421875,
          "velocity": 0.4330708661417323
        },
        {
          "duration": 0.1327432499999759,
          "durationTicks": 96,
          "midi": 38,
          "name": "D2",
          "ticks": 93313,
          "time": 129.0278217421875,
          "velocity": 0.4330708661417323
        },
        {
          "duration": 0.1327432499999759,
          "durationTicks": 96,
          "midi": 42,
          "name": "F#2",
          "ticks": 93313,
          "time": 129.0278217421875,
          "velocity": 0.4330708661417323
        },
        {
          "duration": 0.1327432500000043,
          "durationTicks": 96,
          "midi": 39,
          "name": "D#2",
          "ticks": 93409,
          "time": 129.1605649921875,
          "velocity": 0.4330708661417323
        },
        {
          "duration": 0.1327432500000043,
          "durationTicks": 96,
          "midi": 39,
          "name": "D#2",
          "ticks": 93505,
          "time": 129.2933082421875,
          "velocity": 0.4330708661417323
        },
        {
          "duration": 0.1327432500000043,
          "durationTicks": 96,
          "midi": 46,
          "name": "A#2",
          "ticks": 93505,
          "time": 129.2933082421875,
          "velocity": 0.4330708661417323
        },
        {
          "duration": 0.1327432500000043,
          "durationTicks": 96,
          "midi": 39,
          "name": "D#2",
          "ticks": 93601,
          "time": 129.4260514921875,
          "velocity": 0.4330708661417323
        },
        {
          "duration": 0.1327432500000043,
          "durationTicks": 96,
          "midi": 36,
          "name": "C2",
          "ticks": 93697,
          "time": 129.5587947421875,
          "velocity": 0.4330708661417323
        },
        {
          "duration": 0.1327432500000043,
          "durationTicks": 96,
          "midi": 42,
          "name": "F#2",
          "ticks": 93697,
          "time": 129.5587947421875,
          "velocity": 0.4330708661417323
        },
        {
          "duration": 0.1327432500000043,
          "durationTicks": 96,
          "midi": 42,
          "name": "F#2",
          "ticks": 93889,
          "time": 129.8242812421875,
          "velocity": 0.4330708661417323
        },
        {
          "duration": 0.1327432499999759,
          "durationTicks": 96,
          "midi": 42,
          "name": "F#2",
          "ticks": 93985,
          "time": 129.95702449218751,
          "velocity": 0.4330708661417323
        },
        {
          "duration": 0.1327432500000043,
          "durationTicks": 96,
          "midi": 39,
          "name": "D#2",
          "ticks": 94081,
          "time": 130.0897677421875,
          "velocity": 0.4330708661417323
        },
        {
          "duration": 0.1327432500000043,
          "durationTicks": 96,
          "midi": 36,
          "name": "C2",
          "ticks": 94081,
          "time": 130.0897677421875,
          "velocity": 0.4330708661417323
        },
        {
          "duration": 0.1327432500000043,
          "durationTicks": 96,
          "midi": 38,
          "name": "D2",
          "ticks": 94081,
          "time": 130.0897677421875,
          "velocity": 0.4330708661417323
        },
        {
          "duration": 0.1327432500000043,
          "durationTicks": 96,
          "midi": 42,
          "name": "F#2",
          "ticks": 94081,
          "time": 130.0897677421875,
          "velocity": 0.4330708661417323
        },
        {
          "duration": 0.1327432500000043,
          "durationTicks": 96,
          "midi": 42,
          "name": "F#2",
          "ticks": 94273,
          "time": 130.3552542421875,
          "velocity": 0.4330708661417323
        },
        {
          "duration": 0.1327432500000043,
          "durationTicks": 96,
          "midi": 42,
          "name": "F#2",
          "ticks": 94369,
          "time": 130.4879974921875,
          "velocity": 0.4330708661417323
        },
        {
          "duration": 0.1327432500000043,
          "durationTicks": 96,
          "midi": 36,
          "name": "C2",
          "ticks": 94465,
          "time": 130.6207407421875,
          "velocity": 0.4330708661417323
        },
        {
          "duration": 0.1327432500000043,
          "durationTicks": 96,
          "midi": 42,
          "name": "F#2",
          "ticks": 94465,
          "time": 130.6207407421875,
          "velocity": 0.4330708661417323
        },
        {
          "duration": 0.1327432499999759,
          "durationTicks": 96,
          "midi": 42,
          "name": "F#2",
          "ticks": 94657,
          "time": 130.88622724218752,
          "velocity": 0.4330708661417323
        },
        {
          "duration": 0.1327432500000043,
          "durationTicks": 96,
          "midi": 42,
          "name": "F#2",
          "ticks": 94753,
          "time": 131.0189704921875,
          "velocity": 0.4330708661417323
        },
        {
          "duration": 0.1327432500000043,
          "durationTicks": 96,
          "midi": 39,
          "name": "D#2",
          "ticks": 94849,
          "time": 131.1517137421875,
          "velocity": 0.4330708661417323
        },
        {
          "duration": 0.1327432500000043,
          "durationTicks": 96,
          "midi": 36,
          "name": "C2",
          "ticks": 94849,
          "time": 131.1517137421875,
          "velocity": 0.4330708661417323
        },
        {
          "duration": 0.1327432500000043,
          "durationTicks": 96,
          "midi": 38,
          "name": "D2",
          "ticks": 94849,
          "time": 131.1517137421875,
          "velocity": 0.4330708661417323
        },
        {
          "duration": 0.1327432500000043,
          "durationTicks": 96,
          "midi": 42,
          "name": "F#2",
          "ticks": 94849,
          "time": 131.1517137421875,
          "velocity": 0.4330708661417323
        },
        {
          "duration": 0.1327432500000043,
          "durationTicks": 96,
          "midi": 42,
          "name": "F#2",
          "ticks": 95041,
          "time": 131.4172002421875,
          "velocity": 0.4330708661417323
        },
        {
          "duration": 0.1327432500000043,
          "durationTicks": 96,
          "midi": 42,
          "name": "F#2",
          "ticks": 95137,
          "time": 131.5499434921875,
          "velocity": 0.4330708661417323
        },
        {
          "duration": 0.1327432499999759,
          "durationTicks": 96,
          "midi": 36,
          "name": "C2",
          "ticks": 95233,
          "time": 131.6826867421875,
          "velocity": 0.4330708661417323
        },
        {
          "duration": 0.1327432499999759,
          "durationTicks": 96,
          "midi": 42,
          "name": "F#2",
          "ticks": 95233,
          "time": 131.6826867421875,
          "velocity": 0.4330708661417323
        },
        {
          "duration": 0.1327432500000043,
          "durationTicks": 96,
          "midi": 42,
          "name": "F#2",
          "ticks": 95425,
          "time": 131.9481732421875,
          "velocity": 0.4330708661417323
        },
        {
          "duration": 0.1327432500000043,
          "durationTicks": 96,
          "midi": 42,
          "name": "F#2",
          "ticks": 95521,
          "time": 132.0809164921875,
          "velocity": 0.4330708661417323
        },
        {
          "duration": 0.1327432500000043,
          "durationTicks": 96,
          "midi": 39,
          "name": "D#2",
          "ticks": 95617,
          "time": 132.2136597421875,
          "velocity": 0.4330708661417323
        },
        {
          "duration": 0.1327432500000043,
          "durationTicks": 96,
          "midi": 36,
          "name": "C2",
          "ticks": 95617,
          "time": 132.2136597421875,
          "velocity": 0.4330708661417323
        },
        {
          "duration": 0.1327432500000043,
          "durationTicks": 96,
          "midi": 38,
          "name": "D2",
          "ticks": 95617,
          "time": 132.2136597421875,
          "velocity": 0.4330708661417323
        },
        {
          "duration": 0.1327432500000043,
          "durationTicks": 96,
          "midi": 42,
          "name": "F#2",
          "ticks": 95617,
          "time": 132.2136597421875,
          "velocity": 0.4330708661417323
        },
        {
          "duration": 0.1327432500000043,
          "durationTicks": 96,
          "midi": 42,
          "name": "F#2",
          "ticks": 95809,
          "time": 132.4791462421875,
          "velocity": 0.4330708661417323
        },
        {
          "duration": 0.1327432499999759,
          "durationTicks": 96,
          "midi": 42,
          "name": "F#2",
          "ticks": 95905,
          "time": 132.61188949218752,
          "velocity": 0.4330708661417323
        },
        {
          "duration": 0.1327432500000043,
          "durationTicks": 96,
          "midi": 36,
          "name": "C2",
          "ticks": 96001,
          "time": 132.7446327421875,
          "velocity": 0.4330708661417323
        },
        {
          "duration": 0.1327432500000043,
          "durationTicks": 96,
          "midi": 42,
          "name": "F#2",
          "ticks": 96001,
          "time": 132.7446327421875,
          "velocity": 0.4330708661417323
        },
        {
          "duration": 0.1327432500000043,
          "durationTicks": 96,
          "midi": 42,
          "name": "F#2",
          "ticks": 96193,
          "time": 133.0101192421875,
          "velocity": 0.4330708661417323
        },
        {
          "duration": 0.1327432500000043,
          "durationTicks": 96,
          "midi": 42,
          "name": "F#2",
          "ticks": 96289,
          "time": 133.1428624921875,
          "velocity": 0.4330708661417323
        },
        {
          "duration": 0.1327432500000043,
          "durationTicks": 96,
          "midi": 39,
          "name": "D#2",
          "ticks": 96385,
          "time": 133.2756057421875,
          "velocity": 0.4330708661417323
        },
        {
          "duration": 0.1327432500000043,
          "durationTicks": 96,
          "midi": 36,
          "name": "C2",
          "ticks": 96385,
          "time": 133.2756057421875,
          "velocity": 0.4330708661417323
        },
        {
          "duration": 0.1327432500000043,
          "durationTicks": 96,
          "midi": 38,
          "name": "D2",
          "ticks": 96385,
          "time": 133.2756057421875,
          "velocity": 0.4330708661417323
        },
        {
          "duration": 0.1327432500000043,
          "durationTicks": 96,
          "midi": 42,
          "name": "F#2",
          "ticks": 96385,
          "time": 133.2756057421875,
          "velocity": 0.4330708661417323
        },
        {
          "duration": 0.1327432500000043,
          "durationTicks": 96,
          "midi": 46,
          "name": "A#2",
          "ticks": 96577,
          "time": 133.5410922421875,
          "velocity": 0.4330708661417323
        },
        {
          "duration": 0.1327432500000043,
          "durationTicks": 96,
          "midi": 36,
          "name": "C2",
          "ticks": 96769,
          "time": 133.8065787421875,
          "velocity": 0.4330708661417323
        },
        {
          "duration": 0.1327432500000043,
          "durationTicks": 96,
          "midi": 42,
          "name": "F#2",
          "ticks": 96769,
          "time": 133.8065787421875,
          "velocity": 0.4330708661417323
        },
        {
          "duration": 0.1327432500000043,
          "durationTicks": 96,
          "midi": 42,
          "name": "F#2",
          "ticks": 96961,
          "time": 134.0720652421875,
          "velocity": 0.4330708661417323
        },
        {
          "duration": 0.1327432500000043,
          "durationTicks": 96,
          "midi": 42,
          "name": "F#2",
          "ticks": 97057,
          "time": 134.2048084921875,
          "velocity": 0.4330708661417323
        },
        {
          "duration": 0.1327432499999759,
          "durationTicks": 96,
          "midi": 39,
          "name": "D#2",
          "ticks": 97153,
          "time": 134.33755174218751,
          "velocity": 0.4330708661417323
        },
        {
          "duration": 0.1327432499999759,
          "durationTicks": 96,
          "midi": 36,
          "name": "C2",
          "ticks": 97153,
          "time": 134.33755174218751,
          "velocity": 0.4330708661417323
        },
        {
          "duration": 0.1327432499999759,
          "durationTicks": 96,
          "midi": 38,
          "name": "D2",
          "ticks": 97153,
          "time": 134.33755174218751,
          "velocity": 0.4330708661417323
        },
        {
          "duration": 0.1327432499999759,
          "durationTicks": 96,
          "midi": 42,
          "name": "F#2",
          "ticks": 97153,
          "time": 134.33755174218751,
          "velocity": 0.4330708661417323
        },
        {
          "duration": 0.1327432500000043,
          "durationTicks": 96,
          "midi": 42,
          "name": "F#2",
          "ticks": 97345,
          "time": 134.6030382421875,
          "velocity": 0.4330708661417323
        },
        {
          "duration": 0.1327432500000043,
          "durationTicks": 96,
          "midi": 42,
          "name": "F#2",
          "ticks": 97441,
          "time": 134.7357814921875,
          "velocity": 0.4330708661417323
        },
        {
          "duration": 0.1327432500000043,
          "durationTicks": 96,
          "midi": 36,
          "name": "C2",
          "ticks": 97537,
          "time": 134.8685247421875,
          "velocity": 0.4330708661417323
        },
        {
          "duration": 0.1327432500000043,
          "durationTicks": 96,
          "midi": 42,
          "name": "F#2",
          "ticks": 97537,
          "time": 134.8685247421875,
          "velocity": 0.4330708661417323
        },
        {
          "duration": 0.1327432500000043,
          "durationTicks": 96,
          "midi": 42,
          "name": "F#2",
          "ticks": 97729,
          "time": 135.1340112421875,
          "velocity": 0.4330708661417323
        },
        {
          "duration": 0.1327432499999759,
          "durationTicks": 96,
          "midi": 42,
          "name": "F#2",
          "ticks": 97825,
          "time": 135.26675449218752,
          "velocity": 0.4330708661417323
        },
        {
          "duration": 0.1327432500000043,
          "durationTicks": 96,
          "midi": 39,
          "name": "D#2",
          "ticks": 97921,
          "time": 135.3994977421875,
          "velocity": 0.4330708661417323
        },
        {
          "duration": 0.1327432500000043,
          "durationTicks": 96,
          "midi": 36,
          "name": "C2",
          "ticks": 97921,
          "time": 135.3994977421875,
          "velocity": 0.4330708661417323
        },
        {
          "duration": 0.1327432500000043,
          "durationTicks": 96,
          "midi": 38,
          "name": "D2",
          "ticks": 97921,
          "time": 135.3994977421875,
          "velocity": 0.4330708661417323
        },
        {
          "duration": 0.1327432500000043,
          "durationTicks": 96,
          "midi": 42,
          "name": "F#2",
          "ticks": 97921,
          "time": 135.3994977421875,
          "velocity": 0.4330708661417323
        },
        {
          "duration": 0.1327432500000043,
          "durationTicks": 96,
          "midi": 42,
          "name": "F#2",
          "ticks": 98113,
          "time": 135.6649842421875,
          "velocity": 0.4330708661417323
        },
        {
          "duration": 0.1327432500000043,
          "durationTicks": 96,
          "midi": 42,
          "name": "F#2",
          "ticks": 98209,
          "time": 135.7977274921875,
          "velocity": 0.4330708661417323
        },
        {
          "duration": 0.1327432500000043,
          "durationTicks": 96,
          "midi": 36,
          "name": "C2",
          "ticks": 98305,
          "time": 135.9304707421875,
          "velocity": 0.4330708661417323
        },
        {
          "duration": 0.1327432500000043,
          "durationTicks": 96,
          "midi": 42,
          "name": "F#2",
          "ticks": 98305,
          "time": 135.9304707421875,
          "velocity": 0.4330708661417323
        },
        {
          "duration": 0.1327432500000043,
          "durationTicks": 96,
          "midi": 42,
          "name": "F#2",
          "ticks": 98497,
          "time": 136.19595724218752,
          "velocity": 0.4330708661417323
        },
        {
          "duration": 0.1327432500000043,
          "durationTicks": 96,
          "midi": 42,
          "name": "F#2",
          "ticks": 98593,
          "time": 136.32870049218752,
          "velocity": 0.4330708661417323
        },
        {
          "duration": 0.1327432500000043,
          "durationTicks": 96,
          "midi": 39,
          "name": "D#2",
          "ticks": 98689,
          "time": 136.46144374218753,
          "velocity": 0.4330708661417323
        },
        {
          "duration": 0.1327432500000043,
          "durationTicks": 96,
          "midi": 36,
          "name": "C2",
          "ticks": 98689,
          "time": 136.46144374218753,
          "velocity": 0.4330708661417323
        },
        {
          "duration": 0.1327432500000043,
          "durationTicks": 96,
          "midi": 38,
          "name": "D2",
          "ticks": 98689,
          "time": 136.46144374218753,
          "velocity": 0.4330708661417323
        },
        {
          "duration": 0.1327432500000043,
          "durationTicks": 96,
          "midi": 42,
          "name": "F#2",
          "ticks": 98689,
          "time": 136.46144374218753,
          "velocity": 0.4330708661417323
        },
        {
          "duration": 0.1327432500000043,
          "durationTicks": 96,
          "midi": 46,
          "name": "A#2",
          "ticks": 98881,
          "time": 136.7269302421875,
          "velocity": 0.4330708661417323
        },
        {
          "duration": 0.1327432500000043,
          "durationTicks": 96,
          "midi": 36,
          "name": "C2",
          "ticks": 99073,
          "time": 136.99241674218752,
          "velocity": 0.4330708661417323
        },
        {
          "duration": 0.1327432500000043,
          "durationTicks": 96,
          "midi": 42,
          "name": "F#2",
          "ticks": 99073,
          "time": 136.99241674218752,
          "velocity": 0.4330708661417323
        },
        {
          "duration": 0.1327432500000043,
          "durationTicks": 96,
          "midi": 42,
          "name": "F#2",
          "ticks": 99265,
          "time": 137.25790324218752,
          "velocity": 0.4330708661417323
        },
        {
          "duration": 0.1327432499999759,
          "durationTicks": 96,
          "midi": 42,
          "name": "F#2",
          "ticks": 99361,
          "time": 137.39064649218753,
          "velocity": 0.4330708661417323
        },
        {
          "duration": 0.1327432500000043,
          "durationTicks": 96,
          "midi": 39,
          "name": "D#2",
          "ticks": 99457,
          "time": 137.5233897421875,
          "velocity": 0.4330708661417323
        },
        {
          "duration": 0.1327432500000043,
          "durationTicks": 96,
          "midi": 36,
          "name": "C2",
          "ticks": 99457,
          "time": 137.5233897421875,
          "velocity": 0.4330708661417323
        },
        {
          "duration": 0.1327432500000043,
          "durationTicks": 96,
          "midi": 38,
          "name": "D2",
          "ticks": 99457,
          "time": 137.5233897421875,
          "velocity": 0.4330708661417323
        },
        {
          "duration": 0.1327432500000043,
          "durationTicks": 96,
          "midi": 42,
          "name": "F#2",
          "ticks": 99457,
          "time": 137.5233897421875,
          "velocity": 0.4330708661417323
        },
        {
          "duration": 0.1327432500000043,
          "durationTicks": 96,
          "midi": 39,
          "name": "D#2",
          "ticks": 99553,
          "time": 137.6561329921875,
          "velocity": 0.4330708661417323
        },
        {
          "duration": 0.1327432500000043,
          "durationTicks": 96,
          "midi": 39,
          "name": "D#2",
          "ticks": 99649,
          "time": 137.7888762421875,
          "velocity": 0.4330708661417323
        },
        {
          "duration": 0.1327432500000043,
          "durationTicks": 96,
          "midi": 46,
          "name": "A#2",
          "ticks": 99649,
          "time": 137.7888762421875,
          "velocity": 0.4330708661417323
        },
        {
          "duration": 0.1327432500000043,
          "durationTicks": 96,
          "midi": 39,
          "name": "D#2",
          "ticks": 99745,
          "time": 137.92161949218752,
          "velocity": 0.4330708661417323
        },
        {
          "duration": 0.1327432500000043,
          "durationTicks": 96,
          "midi": 36,
          "name": "C2",
          "ticks": 99841,
          "time": 138.05436274218752,
          "velocity": 0.4330708661417323
        },
        {
          "duration": 0.1327432500000043,
          "durationTicks": 96,
          "midi": 42,
          "name": "F#2",
          "ticks": 99841,
          "time": 138.05436274218752,
          "velocity": 0.4330708661417323
        },
        {
          "duration": 0.1327432499999759,
          "durationTicks": 96,
          "midi": 42,
          "name": "F#2",
          "ticks": 100033,
          "time": 138.31984924218753,
          "velocity": 0.4330708661417323
        },
        {
          "duration": 0.1327432500000043,
          "durationTicks": 96,
          "midi": 42,
          "name": "F#2",
          "ticks": 100129,
          "time": 138.4525924921875,
          "velocity": 0.4330708661417323
        },
        {
          "duration": 0.1327432500000043,
          "durationTicks": 96,
          "midi": 39,
          "name": "D#2",
          "ticks": 100225,
          "time": 138.5853357421875,
          "velocity": 0.4330708661417323
        },
        {
          "duration": 0.1327432500000043,
          "durationTicks": 96,
          "midi": 36,
          "name": "C2",
          "ticks": 100225,
          "time": 138.5853357421875,
          "velocity": 0.4330708661417323
        },
        {
          "duration": 0.1327432500000043,
          "durationTicks": 96,
          "midi": 38,
          "name": "D2",
          "ticks": 100225,
          "time": 138.5853357421875,
          "velocity": 0.4330708661417323
        },
        {
          "duration": 0.1327432500000043,
          "durationTicks": 96,
          "midi": 42,
          "name": "F#2",
          "ticks": 100225,
          "time": 138.5853357421875,
          "velocity": 0.4330708661417323
        },
        {
          "duration": 0.1327432500000043,
          "durationTicks": 96,
          "midi": 42,
          "name": "F#2",
          "ticks": 100417,
          "time": 138.85082224218752,
          "velocity": 0.4330708661417323
        },
        {
          "duration": 0.1327432500000043,
          "durationTicks": 96,
          "midi": 42,
          "name": "F#2",
          "ticks": 100513,
          "time": 138.98356549218752,
          "velocity": 0.4330708661417323
        },
        {
          "duration": 0.1327432499999759,
          "durationTicks": 96,
          "midi": 36,
          "name": "C2",
          "ticks": 100609,
          "time": 139.11630874218753,
          "velocity": 0.4330708661417323
        },
        {
          "duration": 0.1327432499999759,
          "durationTicks": 96,
          "midi": 42,
          "name": "F#2",
          "ticks": 100609,
          "time": 139.11630874218753,
          "velocity": 0.4330708661417323
        },
        {
          "duration": 0.1327432500000043,
          "durationTicks": 96,
          "midi": 42,
          "name": "F#2",
          "ticks": 100801,
          "time": 139.3817952421875,
          "velocity": 0.4330708661417323
        },
        {
          "duration": 0.1327432500000043,
          "durationTicks": 96,
          "midi": 42,
          "name": "F#2",
          "ticks": 100897,
          "time": 139.5145384921875,
          "velocity": 0.4330708661417323
        },
        {
          "duration": 0.1327432500000043,
          "durationTicks": 96,
          "midi": 39,
          "name": "D#2",
          "ticks": 100993,
          "time": 139.64728174218752,
          "velocity": 0.4330708661417323
        },
        {
          "duration": 0.1327432500000043,
          "durationTicks": 96,
          "midi": 36,
          "name": "C2",
          "ticks": 100993,
          "time": 139.64728174218752,
          "velocity": 0.4330708661417323
        },
        {
          "duration": 0.1327432500000043,
          "durationTicks": 96,
          "midi": 38,
          "name": "D2",
          "ticks": 100993,
          "time": 139.64728174218752,
          "velocity": 0.4330708661417323
        },
        {
          "duration": 0.1327432500000043,
          "durationTicks": 96,
          "midi": 42,
          "name": "F#2",
          "ticks": 100993,
          "time": 139.64728174218752,
          "velocity": 0.4330708661417323
        },
        {
          "duration": 0.1327432500000043,
          "durationTicks": 96,
          "midi": 42,
          "name": "F#2",
          "ticks": 101185,
          "time": 139.91276824218752,
          "velocity": 0.4330708661417323
        },
        {
          "duration": 0.1327432499999759,
          "durationTicks": 96,
          "midi": 42,
          "name": "F#2",
          "ticks": 101281,
          "time": 140.04551149218753,
          "velocity": 0.4330708661417323
        },
        {
          "duration": 0.1327432500000043,
          "durationTicks": 96,
          "midi": 36,
          "name": "C2",
          "ticks": 101377,
          "time": 140.1782547421875,
          "velocity": 0.4330708661417323
        },
        {
          "duration": 0.1327432500000043,
          "durationTicks": 96,
          "midi": 42,
          "name": "F#2",
          "ticks": 101377,
          "time": 140.1782547421875,
          "velocity": 0.4330708661417323
        },
        {
          "duration": 0.1327432500000043,
          "durationTicks": 96,
          "midi": 42,
          "name": "F#2",
          "ticks": 101569,
          "time": 140.4437412421875,
          "velocity": 0.4330708661417323
        },
        {
          "duration": 0.1327432500000043,
          "durationTicks": 96,
          "midi": 42,
          "name": "F#2",
          "ticks": 101665,
          "time": 140.57648449218752,
          "velocity": 0.4330708661417323
        },
        {
          "duration": 0.1327432500000043,
          "durationTicks": 96,
          "midi": 39,
          "name": "D#2",
          "ticks": 101761,
          "time": 140.70922774218752,
          "velocity": 0.4330708661417323
        },
        {
          "duration": 0.1327432500000043,
          "durationTicks": 96,
          "midi": 36,
          "name": "C2",
          "ticks": 101761,
          "time": 140.70922774218752,
          "velocity": 0.4330708661417323
        },
        {
          "duration": 0.1327432500000043,
          "durationTicks": 96,
          "midi": 38,
          "name": "D2",
          "ticks": 101761,
          "time": 140.70922774218752,
          "velocity": 0.4330708661417323
        },
        {
          "duration": 0.1327432500000043,
          "durationTicks": 96,
          "midi": 42,
          "name": "F#2",
          "ticks": 101761,
          "time": 140.70922774218752,
          "velocity": 0.4330708661417323
        },
        {
          "duration": 0.1327432499999759,
          "durationTicks": 96,
          "midi": 42,
          "name": "F#2",
          "ticks": 101953,
          "time": 140.97471424218753,
          "velocity": 0.4330708661417323
        },
        {
          "duration": 0.1327432500000043,
          "durationTicks": 96,
          "midi": 42,
          "name": "F#2",
          "ticks": 102049,
          "time": 141.1074574921875,
          "velocity": 0.4330708661417323
        },
        {
          "duration": 0.1327432500000043,
          "durationTicks": 96,
          "midi": 36,
          "name": "C2",
          "ticks": 102145,
          "time": 141.2402007421875,
          "velocity": 0.4330708661417323
        },
        {
          "duration": 0.1327432500000043,
          "durationTicks": 96,
          "midi": 42,
          "name": "F#2",
          "ticks": 102145,
          "time": 141.2402007421875,
          "velocity": 0.4330708661417323
        },
        {
          "duration": 0.1327432500000043,
          "durationTicks": 96,
          "midi": 42,
          "name": "F#2",
          "ticks": 102337,
          "time": 141.50568724218752,
          "velocity": 0.4330708661417323
        },
        {
          "duration": 0.1327432500000043,
          "durationTicks": 96,
          "midi": 42,
          "name": "F#2",
          "ticks": 102433,
          "time": 141.63843049218752,
          "velocity": 0.4330708661417323
        },
        {
          "duration": 0.1327432499999759,
          "durationTicks": 96,
          "midi": 39,
          "name": "D#2",
          "ticks": 102529,
          "time": 141.77117374218753,
          "velocity": 0.4330708661417323
        },
        {
          "duration": 0.1327432499999759,
          "durationTicks": 96,
          "midi": 36,
          "name": "C2",
          "ticks": 102529,
          "time": 141.77117374218753,
          "velocity": 0.4330708661417323
        },
        {
          "duration": 0.1327432499999759,
          "durationTicks": 96,
          "midi": 38,
          "name": "D2",
          "ticks": 102529,
          "time": 141.77117374218753,
          "velocity": 0.4330708661417323
        },
        {
          "duration": 0.1327432499999759,
          "durationTicks": 96,
          "midi": 42,
          "name": "F#2",
          "ticks": 102529,
          "time": 141.77117374218753,
          "velocity": 0.4330708661417323
        },
        {
          "duration": 0.1327432500000043,
          "durationTicks": 96,
          "midi": 46,
          "name": "A#2",
          "ticks": 102721,
          "time": 142.0366602421875,
          "velocity": 0.4330708661417323
        },
        {
          "duration": 0.1327432500000043,
          "durationTicks": 96,
          "midi": 36,
          "name": "C2",
          "ticks": 102913,
          "time": 142.30214674218752,
          "velocity": 0.4330708661417323
        },
        {
          "duration": 0.1327432500000043,
          "durationTicks": 96,
          "midi": 42,
          "name": "F#2",
          "ticks": 102913,
          "time": 142.30214674218752,
          "velocity": 0.4330708661417323
        },
        {
          "duration": 0.1327432500000043,
          "durationTicks": 96,
          "midi": 42,
          "name": "F#2",
          "ticks": 103105,
          "time": 142.56763324218753,
          "velocity": 0.4330708661417323
        },
        {
          "duration": 0.1327432499999759,
          "durationTicks": 96,
          "midi": 42,
          "name": "F#2",
          "ticks": 103201,
          "time": 142.70037649218753,
          "velocity": 0.4330708661417323
        },
        {
          "duration": 0.1327432500000043,
          "durationTicks": 96,
          "midi": 39,
          "name": "D#2",
          "ticks": 103297,
          "time": 142.8331197421875,
          "velocity": 0.4330708661417323
        },
        {
          "duration": 0.1327432500000043,
          "durationTicks": 96,
          "midi": 36,
          "name": "C2",
          "ticks": 103297,
          "time": 142.8331197421875,
          "velocity": 0.4330708661417323
        },
        {
          "duration": 0.1327432500000043,
          "durationTicks": 96,
          "midi": 38,
          "name": "D2",
          "ticks": 103297,
          "time": 142.8331197421875,
          "velocity": 0.4330708661417323
        },
        {
          "duration": 0.1327432500000043,
          "durationTicks": 96,
          "midi": 42,
          "name": "F#2",
          "ticks": 103297,
          "time": 142.8331197421875,
          "velocity": 0.4330708661417323
        },
        {
          "duration": 0.1327432500000043,
          "durationTicks": 96,
          "midi": 42,
          "name": "F#2",
          "ticks": 103489,
          "time": 143.09860624218751,
          "velocity": 0.4330708661417323
        },
        {
          "duration": 0.1327432500000043,
          "durationTicks": 96,
          "midi": 42,
          "name": "F#2",
          "ticks": 103585,
          "time": 143.23134949218752,
          "velocity": 0.4330708661417323
        },
        {
          "duration": 0.1327432500000043,
          "durationTicks": 96,
          "midi": 36,
          "name": "C2",
          "ticks": 103681,
          "time": 143.36409274218752,
          "velocity": 0.4330708661417323
        },
        {
          "duration": 0.1327432500000043,
          "durationTicks": 96,
          "midi": 42,
          "name": "F#2",
          "ticks": 103681,
          "time": 143.36409274218752,
          "velocity": 0.4330708661417323
        },
        {
          "duration": 0.1327432499999759,
          "durationTicks": 96,
          "midi": 42,
          "name": "F#2",
          "ticks": 103873,
          "time": 143.62957924218753,
          "velocity": 0.4330708661417323
        },
        {
          "duration": 0.1327432500000043,
          "durationTicks": 96,
          "midi": 42,
          "name": "F#2",
          "ticks": 103969,
          "time": 143.7623224921875,
          "velocity": 0.4330708661417323
        },
        {
          "duration": 0.1327432500000043,
          "durationTicks": 96,
          "midi": 39,
          "name": "D#2",
          "ticks": 104065,
          "time": 143.8950657421875,
          "velocity": 0.4330708661417323
        },
        {
          "duration": 0.1327432500000043,
          "durationTicks": 96,
          "midi": 36,
          "name": "C2",
          "ticks": 104065,
          "time": 143.8950657421875,
          "velocity": 0.4330708661417323
        },
        {
          "duration": 0.1327432500000043,
          "durationTicks": 96,
          "midi": 38,
          "name": "D2",
          "ticks": 104065,
          "time": 143.8950657421875,
          "velocity": 0.4330708661417323
        },
        {
          "duration": 0.1327432500000043,
          "durationTicks": 96,
          "midi": 42,
          "name": "F#2",
          "ticks": 104065,
          "time": 143.8950657421875,
          "velocity": 0.4330708661417323
        },
        {
          "duration": 0.1327432500000043,
          "durationTicks": 96,
          "midi": 42,
          "name": "F#2",
          "ticks": 104257,
          "time": 144.16055224218752,
          "velocity": 0.4330708661417323
        },
        {
          "duration": 0.1327432500000043,
          "durationTicks": 96,
          "midi": 42,
          "name": "F#2",
          "ticks": 104353,
          "time": 144.29329549218753,
          "velocity": 0.4330708661417323
        },
        {
          "duration": 0.1327432499999759,
          "durationTicks": 96,
          "midi": 36,
          "name": "C2",
          "ticks": 104449,
          "time": 144.42603874218753,
          "velocity": 0.4330708661417323
        },
        {
          "duration": 0.1327432499999759,
          "durationTicks": 96,
          "midi": 42,
          "name": "F#2",
          "ticks": 104449,
          "time": 144.42603874218753,
          "velocity": 0.4330708661417323
        },
        {
          "duration": 0.1327432500000043,
          "durationTicks": 96,
          "midi": 42,
          "name": "F#2",
          "ticks": 104641,
          "time": 144.6915252421875,
          "velocity": 0.4330708661417323
        },
        {
          "duration": 0.1327432500000043,
          "durationTicks": 96,
          "midi": 42,
          "name": "F#2",
          "ticks": 104737,
          "time": 144.8242684921875,
          "velocity": 0.4330708661417323
        },
        {
          "duration": 0.1327432500000043,
          "durationTicks": 96,
          "midi": 39,
          "name": "D#2",
          "ticks": 104833,
          "time": 144.95701174218752,
          "velocity": 0.4330708661417323
        },
        {
          "duration": 0.1327432500000043,
          "durationTicks": 96,
          "midi": 36,
          "name": "C2",
          "ticks": 104833,
          "time": 144.95701174218752,
          "velocity": 0.4330708661417323
        },
        {
          "duration": 0.1327432500000043,
          "durationTicks": 96,
          "midi": 38,
          "name": "D2",
          "ticks": 104833,
          "time": 144.95701174218752,
          "velocity": 0.4330708661417323
        },
        {
          "duration": 0.1327432500000043,
          "durationTicks": 96,
          "midi": 42,
          "name": "F#2",
          "ticks": 104833,
          "time": 144.95701174218752,
          "velocity": 0.4330708661417323
        },
        {
          "duration": 0.1327432500000043,
          "durationTicks": 96,
          "midi": 46,
          "name": "A#2",
          "ticks": 105025,
          "time": 145.22249824218753,
          "velocity": 0.4330708661417323
        },
        {
          "duration": 0.1327432500000043,
          "durationTicks": 96,
          "midi": 36,
          "name": "C2",
          "ticks": 105217,
          "time": 145.4879847421875,
          "velocity": 0.4330708661417323
        },
        {
          "duration": 0.1327432500000043,
          "durationTicks": 96,
          "midi": 42,
          "name": "F#2",
          "ticks": 105217,
          "time": 145.4879847421875,
          "velocity": 0.4330708661417323
        },
        {
          "duration": 0.1327432500000043,
          "durationTicks": 96,
          "midi": 42,
          "name": "F#2",
          "ticks": 105409,
          "time": 145.75347124218752,
          "velocity": 0.4330708661417323
        },
        {
          "duration": 0.1327432500000043,
          "durationTicks": 96,
          "midi": 42,
          "name": "F#2",
          "ticks": 105505,
          "time": 145.88621449218752,
          "velocity": 0.4330708661417323
        },
        {
          "duration": 0.1327432500000043,
          "durationTicks": 96,
          "midi": 39,
          "name": "D#2",
          "ticks": 105601,
          "time": 146.01895774218752,
          "velocity": 0.4330708661417323
        },
        {
          "duration": 0.1327432500000043,
          "durationTicks": 96,
          "midi": 36,
          "name": "C2",
          "ticks": 105601,
          "time": 146.01895774218752,
          "velocity": 0.4330708661417323
        },
        {
          "duration": 0.1327432500000043,
          "durationTicks": 96,
          "midi": 38,
          "name": "D2",
          "ticks": 105601,
          "time": 146.01895774218752,
          "velocity": 0.4330708661417323
        },
        {
          "duration": 0.1327432500000043,
          "durationTicks": 96,
          "midi": 42,
          "name": "F#2",
          "ticks": 105601,
          "time": 146.01895774218752,
          "velocity": 0.4330708661417323
        },
        {
          "duration": 0.1327432499999759,
          "durationTicks": 96,
          "midi": 39,
          "name": "D#2",
          "ticks": 105697,
          "time": 146.15170099218753,
          "velocity": 0.4330708661417323
        },
        {
          "duration": 0.1327432500000043,
          "durationTicks": 96,
          "midi": 39,
          "name": "D#2",
          "ticks": 105793,
          "time": 146.2844442421875,
          "velocity": 0.4330708661417323
        },
        {
          "duration": 0.1327432500000043,
          "durationTicks": 96,
          "midi": 46,
          "name": "A#2",
          "ticks": 105793,
          "time": 146.2844442421875,
          "velocity": 0.4330708661417323
        },
        {
          "duration": 0.1327432500000043,
          "durationTicks": 96,
          "midi": 39,
          "name": "D#2",
          "ticks": 105889,
          "time": 146.4171874921875,
          "velocity": 0.4330708661417323
        },
        {
          "duration": 0.1327432500000043,
          "durationTicks": 96,
          "midi": 36,
          "name": "C2",
          "ticks": 105985,
          "time": 146.5499307421875,
          "velocity": 0.4330708661417323
        },
        {
          "duration": 0.1327432500000043,
          "durationTicks": 96,
          "midi": 42,
          "name": "F#2",
          "ticks": 105985,
          "time": 146.5499307421875,
          "velocity": 0.4330708661417323
        },
        {
          "duration": 0.1327432500000043,
          "durationTicks": 96,
          "midi": 42,
          "name": "F#2",
          "ticks": 106177,
          "time": 146.81541724218752,
          "velocity": 0.4330708661417323
        },
        {
          "duration": 0.1327432500000043,
          "durationTicks": 96,
          "midi": 42,
          "name": "F#2",
          "ticks": 106273,
          "time": 146.94816049218753,
          "velocity": 0.4330708661417323
        },
        {
          "duration": 0.1327432499999759,
          "durationTicks": 96,
          "midi": 39,
          "name": "D#2",
          "ticks": 106369,
          "time": 147.08090374218753,
          "velocity": 0.4330708661417323
        },
        {
          "duration": 0.1327432499999759,
          "durationTicks": 96,
          "midi": 36,
          "name": "C2",
          "ticks": 106369,
          "time": 147.08090374218753,
          "velocity": 0.4330708661417323
        },
        {
          "duration": 0.1327432499999759,
          "durationTicks": 96,
          "midi": 38,
          "name": "D2",
          "ticks": 106369,
          "time": 147.08090374218753,
          "velocity": 0.4330708661417323
        },
        {
          "duration": 0.1327432499999759,
          "durationTicks": 96,
          "midi": 42,
          "name": "F#2",
          "ticks": 106369,
          "time": 147.08090374218753,
          "velocity": 0.4330708661417323
        },
        {
          "duration": 0.1327432500000043,
          "durationTicks": 96,
          "midi": 42,
          "name": "F#2",
          "ticks": 106561,
          "time": 147.3463902421875,
          "velocity": 0.4330708661417323
        },
        {
          "duration": 0.1327432500000043,
          "durationTicks": 96,
          "midi": 42,
          "name": "F#2",
          "ticks": 106657,
          "time": 147.47913349218751,
          "velocity": 0.4330708661417323
        },
        {
          "duration": 0.1327432500000043,
          "durationTicks": 96,
          "midi": 36,
          "name": "C2",
          "ticks": 106753,
          "time": 147.61187674218752,
          "velocity": 0.4330708661417323
        },
        {
          "duration": 0.1327432500000043,
          "durationTicks": 96,
          "midi": 42,
          "name": "F#2",
          "ticks": 106753,
          "time": 147.61187674218752,
          "velocity": 0.4330708661417323
        },
        {
          "duration": 0.1327432500000043,
          "durationTicks": 96,
          "midi": 42,
          "name": "F#2",
          "ticks": 106945,
          "time": 147.87736324218753,
          "velocity": 0.4330708661417323
        },
        {
          "duration": 0.1327432499999759,
          "durationTicks": 96,
          "midi": 42,
          "name": "F#2",
          "ticks": 107041,
          "time": 148.01010649218753,
          "velocity": 0.4330708661417323
        },
        {
          "duration": 0.1327432500000043,
          "durationTicks": 96,
          "midi": 39,
          "name": "D#2",
          "ticks": 107137,
          "time": 148.1428497421875,
          "velocity": 0.4330708661417323
        },
        {
          "duration": 0.1327432500000043,
          "durationTicks": 96,
          "midi": 36,
          "name": "C2",
          "ticks": 107137,
          "time": 148.1428497421875,
          "velocity": 0.4330708661417323
        },
        {
          "duration": 0.1327432500000043,
          "durationTicks": 96,
          "midi": 38,
          "name": "D2",
          "ticks": 107137,
          "time": 148.1428497421875,
          "velocity": 0.4330708661417323
        },
        {
          "duration": 0.1327432500000043,
          "durationTicks": 96,
          "midi": 42,
          "name": "F#2",
          "ticks": 107137,
          "time": 148.1428497421875,
          "velocity": 0.4330708661417323
        },
        {
          "duration": 0.1327432500000043,
          "durationTicks": 96,
          "midi": 42,
          "name": "F#2",
          "ticks": 107329,
          "time": 148.40833624218752,
          "velocity": 0.4330708661417323
        },
        {
          "duration": 0.1327432500000043,
          "durationTicks": 96,
          "midi": 42,
          "name": "F#2",
          "ticks": 107425,
          "time": 148.54107949218752,
          "velocity": 0.4330708661417323
        },
        {
          "duration": 0.1327432500000043,
          "durationTicks": 96,
          "midi": 36,
          "name": "C2",
          "ticks": 107521,
          "time": 148.67382274218753,
          "velocity": 0.4330708661417323
        },
        {
          "duration": 0.1327432500000043,
          "durationTicks": 96,
          "midi": 42,
          "name": "F#2",
          "ticks": 107521,
          "time": 148.67382274218753,
          "velocity": 0.4330708661417323
        },
        {
          "duration": 0.1327432500000043,
          "durationTicks": 96,
          "midi": 42,
          "name": "F#2",
          "ticks": 107713,
          "time": 148.9393092421875,
          "velocity": 0.4330708661417323
        },
        {
          "duration": 0.1327432500000043,
          "durationTicks": 96,
          "midi": 42,
          "name": "F#2",
          "ticks": 107809,
          "time": 149.0720524921875,
          "velocity": 0.4330708661417323
        },
        {
          "duration": 0.1327432500000043,
          "durationTicks": 96,
          "midi": 39,
          "name": "D#2",
          "ticks": 107905,
          "time": 149.2047957421875,
          "velocity": 0.4330708661417323
        },
        {
          "duration": 0.1327432500000043,
          "durationTicks": 96,
          "midi": 36,
          "name": "C2",
          "ticks": 107905,
          "time": 149.2047957421875,
          "velocity": 0.4330708661417323
        },
        {
          "duration": 0.1327432500000043,
          "durationTicks": 96,
          "midi": 38,
          "name": "D2",
          "ticks": 107905,
          "time": 149.2047957421875,
          "velocity": 0.4330708661417323
        },
        {
          "duration": 0.1327432500000043,
          "durationTicks": 96,
          "midi": 42,
          "name": "F#2",
          "ticks": 107905,
          "time": 149.2047957421875,
          "velocity": 0.4330708661417323
        },
        {
          "duration": 0.1327432500000043,
          "durationTicks": 96,
          "midi": 42,
          "name": "F#2",
          "ticks": 108097,
          "time": 149.47028224218752,
          "velocity": 0.4330708661417323
        },
        {
          "duration": 0.1327432500000043,
          "durationTicks": 96,
          "midi": 42,
          "name": "F#2",
          "ticks": 108193,
          "time": 149.60302549218753,
          "velocity": 0.4330708661417323
        },
        {
          "duration": 0.1327432499999759,
          "durationTicks": 96,
          "midi": 36,
          "name": "C2",
          "ticks": 108289,
          "time": 149.73576874218753,
          "velocity": 0.4330708661417323
        },
        {
          "duration": 0.1327432499999759,
          "durationTicks": 96,
          "midi": 42,
          "name": "F#2",
          "ticks": 108289,
          "time": 149.73576874218753,
          "velocity": 0.4330708661417323
        },
        {
          "duration": 0.1327432500000043,
          "durationTicks": 96,
          "midi": 42,
          "name": "F#2",
          "ticks": 108481,
          "time": 150.0012552421875,
          "velocity": 0.4330708661417323
        },
        {
          "duration": 0.1327432500000043,
          "durationTicks": 96,
          "midi": 42,
          "name": "F#2",
          "ticks": 108577,
          "time": 150.13399849218752,
          "velocity": 0.4330708661417323
        },
        {
          "duration": 0.1327432500000043,
          "durationTicks": 96,
          "midi": 39,
          "name": "D#2",
          "ticks": 108673,
          "time": 150.26674174218752,
          "velocity": 0.4330708661417323
        },
        {
          "duration": 0.1327432500000043,
          "durationTicks": 96,
          "midi": 36,
          "name": "C2",
          "ticks": 108673,
          "time": 150.26674174218752,
          "velocity": 0.4330708661417323
        },
        {
          "duration": 0.1327432500000043,
          "durationTicks": 96,
          "midi": 38,
          "name": "D2",
          "ticks": 108673,
          "time": 150.26674174218752,
          "velocity": 0.4330708661417323
        },
        {
          "duration": 0.1327432500000043,
          "durationTicks": 96,
          "midi": 42,
          "name": "F#2",
          "ticks": 108673,
          "time": 150.26674174218752,
          "velocity": 0.4330708661417323
        },
        {
          "duration": 0.1327432499999759,
          "durationTicks": 96,
          "midi": 46,
          "name": "A#2",
          "ticks": 108865,
          "time": 150.53222824218753,
          "velocity": 0.4330708661417323
        },
        {
          "duration": 0.1327432500000043,
          "durationTicks": 96,
          "midi": 36,
          "name": "C2",
          "ticks": 109057,
          "time": 150.7977147421875,
          "velocity": 0.4330708661417323
        },
        {
          "duration": 0.1327432500000043,
          "durationTicks": 96,
          "midi": 42,
          "name": "F#2",
          "ticks": 109057,
          "time": 150.7977147421875,
          "velocity": 0.4330708661417323
        },
        {
          "duration": 0.1327432500000043,
          "durationTicks": 96,
          "midi": 42,
          "name": "F#2",
          "ticks": 109249,
          "time": 151.06320124218752,
          "velocity": 0.4330708661417323
        },
        {
          "duration": 0.1327432500000043,
          "durationTicks": 96,
          "midi": 42,
          "name": "F#2",
          "ticks": 109345,
          "time": 151.19594449218752,
          "velocity": 0.4330708661417323
        },
        {
          "duration": 0.1327432500000043,
          "durationTicks": 96,
          "midi": 39,
          "name": "D#2",
          "ticks": 109441,
          "time": 151.32868774218753,
          "velocity": 0.4330708661417323
        },
        {
          "duration": 0.1327432500000043,
          "durationTicks": 96,
          "midi": 36,
          "name": "C2",
          "ticks": 109441,
          "time": 151.32868774218753,
          "velocity": 0.4330708661417323
        },
        {
          "duration": 0.1327432500000043,
          "durationTicks": 96,
          "midi": 38,
          "name": "D2",
          "ticks": 109441,
          "time": 151.32868774218753,
          "velocity": 0.4330708661417323
        },
        {
          "duration": 0.1327432500000043,
          "durationTicks": 96,
          "midi": 42,
          "name": "F#2",
          "ticks": 109441,
          "time": 151.32868774218753,
          "velocity": 0.4330708661417323
        },
        {
          "duration": 0.1327432500000043,
          "durationTicks": 96,
          "midi": 42,
          "name": "F#2",
          "ticks": 109633,
          "time": 151.5941742421875,
          "velocity": 0.4330708661417323
        },
        {
          "duration": 0.1327432500000043,
          "durationTicks": 96,
          "midi": 42,
          "name": "F#2",
          "ticks": 109729,
          "time": 151.7269174921875,
          "velocity": 0.4330708661417323
        },
        {
          "duration": 0.1327432500000043,
          "durationTicks": 96,
          "midi": 36,
          "name": "C2",
          "ticks": 109825,
          "time": 151.85966074218751,
          "velocity": 0.4330708661417323
        },
        {
          "duration": 0.1327432500000043,
          "durationTicks": 96,
          "midi": 42,
          "name": "F#2",
          "ticks": 109825,
          "time": 151.85966074218751,
          "velocity": 0.4330708661417323
        },
        {
          "duration": 0.1327432500000043,
          "durationTicks": 96,
          "midi": 42,
          "name": "F#2",
          "ticks": 110017,
          "time": 152.12514724218752,
          "velocity": 0.4330708661417323
        },
        {
          "duration": 0.1327432500000043,
          "durationTicks": 96,
          "midi": 42,
          "name": "F#2",
          "ticks": 110113,
          "time": 152.25789049218753,
          "velocity": 0.4330708661417323
        },
        {
          "duration": 0.1327432499999759,
          "durationTicks": 96,
          "midi": 39,
          "name": "D#2",
          "ticks": 110209,
          "time": 152.39063374218753,
          "velocity": 0.4330708661417323
        },
        {
          "duration": 0.1327432499999759,
          "durationTicks": 96,
          "midi": 36,
          "name": "C2",
          "ticks": 110209,
          "time": 152.39063374218753,
          "velocity": 0.4330708661417323
        },
        {
          "duration": 0.1327432499999759,
          "durationTicks": 96,
          "midi": 38,
          "name": "D2",
          "ticks": 110209,
          "time": 152.39063374218753,
          "velocity": 0.4330708661417323
        },
        {
          "duration": 0.1327432499999759,
          "durationTicks": 96,
          "midi": 42,
          "name": "F#2",
          "ticks": 110209,
          "time": 152.39063374218753,
          "velocity": 0.4330708661417323
        },
        {
          "duration": 0.1327432500000043,
          "durationTicks": 96,
          "midi": 42,
          "name": "F#2",
          "ticks": 110401,
          "time": 152.6561202421875,
          "velocity": 0.4330708661417323
        },
        {
          "duration": 0.1327432500000043,
          "durationTicks": 96,
          "midi": 42,
          "name": "F#2",
          "ticks": 110497,
          "time": 152.78886349218752,
          "velocity": 0.4330708661417323
        },
        {
          "duration": 0.1327432500000043,
          "durationTicks": 96,
          "midi": 36,
          "name": "C2",
          "ticks": 110593,
          "time": 152.92160674218752,
          "velocity": 0.4330708661417323
        },
        {
          "duration": 0.1327432500000043,
          "durationTicks": 96,
          "midi": 42,
          "name": "F#2",
          "ticks": 110593,
          "time": 152.92160674218752,
          "velocity": 0.4330708661417323
        },
        {
          "duration": 0.1327432499999759,
          "durationTicks": 96,
          "midi": 42,
          "name": "F#2",
          "ticks": 110785,
          "time": 153.18709324218753,
          "velocity": 0.4330708661417323
        },
        {
          "duration": 0.1327432499999759,
          "durationTicks": 96,
          "midi": 48,
          "name": "C3",
          "ticks": 110785,
          "time": 153.18709324218753,
          "velocity": 0.4330708661417323
        },
        {
          "duration": 0.1327432500000043,
          "durationTicks": 96,
          "midi": 48,
          "name": "C3",
          "ticks": 110881,
          "time": 153.3198364921875,
          "velocity": 0.4330708661417323
        },
        {
          "duration": 0.1327432500000043,
          "durationTicks": 96,
          "midi": 42,
          "name": "F#2",
          "ticks": 110881,
          "time": 153.3198364921875,
          "velocity": 0.4330708661417323
        },
        {
          "duration": 0.1327432500000043,
          "durationTicks": 96,
          "midi": 39,
          "name": "D#2",
          "ticks": 110977,
          "time": 153.4525797421875,
          "velocity": 0.4330708661417323
        },
        {
          "duration": 0.1327432500000043,
          "durationTicks": 96,
          "midi": 36,
          "name": "C2",
          "ticks": 110977,
          "time": 153.4525797421875,
          "velocity": 0.4330708661417323
        },
        {
          "duration": 0.1327432500000043,
          "durationTicks": 96,
          "midi": 38,
          "name": "D2",
          "ticks": 110977,
          "time": 153.4525797421875,
          "velocity": 0.4330708661417323
        },
        {
          "duration": 0.1327432500000043,
          "durationTicks": 96,
          "midi": 42,
          "name": "F#2",
          "ticks": 110977,
          "time": 153.4525797421875,
          "velocity": 0.4330708661417323
        },
        {
          "duration": 0.1327432500000043,
          "durationTicks": 96,
          "midi": 48,
          "name": "C3",
          "ticks": 110977,
          "time": 153.4525797421875,
          "velocity": 0.4330708661417323
        },
        {
          "duration": 0.1327432500000043,
          "durationTicks": 96,
          "midi": 48,
          "name": "C3",
          "ticks": 111073,
          "time": 153.5853229921875,
          "velocity": 0.4330708661417323
        },
        {
          "duration": 0.1327432500000043,
          "durationTicks": 96,
          "midi": 45,
          "name": "A2",
          "ticks": 111169,
          "time": 153.71806624218752,
          "velocity": 0.4330708661417323
        },
        {
          "duration": 0.1327432500000043,
          "durationTicks": 96,
          "midi": 46,
          "name": "A#2",
          "ticks": 111169,
          "time": 153.71806624218752,
          "velocity": 0.4330708661417323
        },
        {
          "duration": 0.1327432500000043,
          "durationTicks": 96,
          "midi": 45,
          "name": "A2",
          "ticks": 111265,
          "time": 153.85080949218752,
          "velocity": 0.4330708661417323
        },
        {
          "duration": 0.1327432500000043,
          "durationTicks": 96,
          "midi": 36,
          "name": "C2",
          "ticks": 111361,
          "time": 153.98355274218753,
          "velocity": 0.4330708661417323
        },
        {
          "duration": 0.1327432500000043,
          "durationTicks": 96,
          "midi": 45,
          "name": "A2",
          "ticks": 111361,
          "time": 153.98355274218753,
          "velocity": 0.4330708661417323
        },
        {
          "duration": 0.1327432500000043,
          "durationTicks": 96,
          "midi": 42,
          "name": "F#2",
          "ticks": 111361,
          "time": 153.98355274218753,
          "velocity": 0.4330708661417323
        },
        {
          "duration": 0.1327432499999759,
          "durationTicks": 96,
          "midi": 45,
          "name": "A2",
          "ticks": 111457,
          "time": 154.11629599218753,
          "velocity": 0.4330708661417323
        },
        {
          "duration": 0.1327432500000043,
          "durationTicks": 96,
          "midi": 41,
          "name": "F2",
          "ticks": 111553,
          "time": 154.2490392421875,
          "velocity": 0.4330708661417323
        },
        {
          "duration": 0.1327432500000043,
          "durationTicks": 96,
          "midi": 42,
          "name": "F#2",
          "ticks": 111553,
          "time": 154.2490392421875,
          "velocity": 0.4330708661417323
        },
        {
          "duration": 0.1327432500000043,
          "durationTicks": 96,
          "midi": 41,
          "name": "F2",
          "ticks": 111649,
          "time": 154.3817824921875,
          "velocity": 0.4330708661417323
        },
        {
          "duration": 0.1327432500000043,
          "durationTicks": 96,
          "midi": 42,
          "name": "F#2",
          "ticks": 111649,
          "time": 154.3817824921875,
          "velocity": 0.4330708661417323
        },
        {
          "duration": 0.1327432500000043,
          "durationTicks": 96,
          "midi": 39,
          "name": "D#2",
          "ticks": 111745,
          "time": 154.51452574218752,
          "velocity": 0.4330708661417323
        },
        {
          "duration": 0.1327432500000043,
          "durationTicks": 96,
          "midi": 36,
          "name": "C2",
          "ticks": 111745,
          "time": 154.51452574218752,
          "velocity": 0.4330708661417323
        },
        {
          "duration": 0.1327432500000043,
          "durationTicks": 96,
          "midi": 38,
          "name": "D2",
          "ticks": 111745,
          "time": 154.51452574218752,
          "velocity": 0.4330708661417323
        },
        {
          "duration": 0.1327432500000043,
          "durationTicks": 96,
          "midi": 41,
          "name": "F2",
          "ticks": 111745,
          "time": 154.51452574218752,
          "velocity": 0.4330708661417323
        },
        {
          "duration": 0.1327432500000043,
          "durationTicks": 96,
          "midi": 42,
          "name": "F#2",
          "ticks": 111745,
          "time": 154.51452574218752,
          "velocity": 0.4330708661417323
        },
        {
          "duration": 0.1327432500000043,
          "durationTicks": 96,
          "midi": 39,
          "name": "D#2",
          "ticks": 111841,
          "time": 154.64726899218752,
          "velocity": 0.4330708661417323
        },
        {
          "duration": 0.1327432500000043,
          "durationTicks": 96,
          "midi": 41,
          "name": "F2",
          "ticks": 111841,
          "time": 154.64726899218752,
          "velocity": 0.4330708661417323
        },
        {
          "duration": 0.1327432500000043,
          "durationTicks": 96,
          "midi": 39,
          "name": "D#2",
          "ticks": 111937,
          "time": 154.78001224218752,
          "velocity": 0.4330708661417323
        },
        {
          "duration": 0.1327432500000043,
          "durationTicks": 96,
          "midi": 41,
          "name": "F2",
          "ticks": 111937,
          "time": 154.78001224218752,
          "velocity": 0.4330708661417323
        },
        {
          "duration": 0.1327432500000043,
          "durationTicks": 96,
          "midi": 46,
          "name": "A#2",
          "ticks": 111937,
          "time": 154.78001224218752,
          "velocity": 0.4330708661417323
        },
        {
          "duration": 0.1327432499999759,
          "durationTicks": 96,
          "midi": 39,
          "name": "D#2",
          "ticks": 112033,
          "time": 154.91275549218753,
          "velocity": 0.4330708661417323
        },
        {
          "duration": 0.1327432499999759,
          "durationTicks": 96,
          "midi": 41,
          "name": "F2",
          "ticks": 112033,
          "time": 154.91275549218753,
          "velocity": 0.4330708661417323
        },
        {
          "duration": 0.1327432500000043,
          "durationTicks": 96,
          "midi": 36,
          "name": "C2",
          "ticks": 112129,
          "time": 155.0454987421875,
          "velocity": 0.4330708661417323
        },
        {
          "duration": 0.1327432500000043,
          "durationTicks": 96,
          "midi": 42,
          "name": "F#2",
          "ticks": 112129,
          "time": 155.0454987421875,
          "velocity": 0.4330708661417323
        },
        {
          "duration": 0.1327432500000043,
          "durationTicks": 96,
          "midi": 42,
          "name": "F#2",
          "ticks": 112321,
          "time": 155.3109852421875,
          "velocity": 0.4330708661417323
        },
        {
          "duration": 0.1327432500000043,
          "durationTicks": 96,
          "midi": 42,
          "name": "F#2",
          "ticks": 112417,
          "time": 155.44372849218752,
          "velocity": 0.4330708661417323
        },
        {
          "duration": 0.1327432500000043,
          "durationTicks": 96,
          "midi": 39,
          "name": "D#2",
          "ticks": 112513,
          "time": 155.57647174218752,
          "velocity": 0.4330708661417323
        },
        {
          "duration": 0.1327432500000043,
          "durationTicks": 96,
          "midi": 36,
          "name": "C2",
          "ticks": 112513,
          "time": 155.57647174218752,
          "velocity": 0.4330708661417323
        },
        {
          "duration": 0.1327432500000043,
          "durationTicks": 96,
          "midi": 38,
          "name": "D2",
          "ticks": 112513,
          "time": 155.57647174218752,
          "velocity": 0.4330708661417323
        },
        {
          "duration": 0.1327432500000043,
          "durationTicks": 96,
          "midi": 42,
          "name": "F#2",
          "ticks": 112513,
          "time": 155.57647174218752,
          "velocity": 0.4330708661417323
        },
        {
          "duration": 0.1327432499999759,
          "durationTicks": 96,
          "midi": 42,
          "name": "F#2",
          "ticks": 112705,
          "time": 155.84195824218753,
          "velocity": 0.4330708661417323
        },
        {
          "duration": 0.1327432500000043,
          "durationTicks": 96,
          "midi": 42,
          "name": "F#2",
          "ticks": 112801,
          "time": 155.9747014921875,
          "velocity": 0.4330708661417323
        },
        {
          "duration": 0.1327432500000043,
          "durationTicks": 96,
          "midi": 36,
          "name": "C2",
          "ticks": 112897,
          "time": 156.1074447421875,
          "velocity": 0.4330708661417323
        },
        {
          "duration": 0.1327432500000043,
          "durationTicks": 96,
          "midi": 42,
          "name": "F#2",
          "ticks": 112897,
          "time": 156.1074447421875,
          "velocity": 0.4330708661417323
        },
        {
          "duration": 0.1327432500000043,
          "durationTicks": 96,
          "midi": 42,
          "name": "F#2",
          "ticks": 113089,
          "time": 156.37293124218752,
          "velocity": 0.4330708661417323
        },
        {
          "duration": 0.1327432500000043,
          "durationTicks": 96,
          "midi": 42,
          "name": "F#2",
          "ticks": 113185,
          "time": 156.50567449218752,
          "velocity": 0.4330708661417323
        },
        {
          "duration": 0.1327432500000043,
          "durationTicks": 96,
          "midi": 39,
          "name": "D#2",
          "ticks": 113281,
          "time": 156.63841774218753,
          "velocity": 0.4330708661417323
        },
        {
          "duration": 0.1327432500000043,
          "durationTicks": 96,
          "midi": 36,
          "name": "C2",
          "ticks": 113281,
          "time": 156.63841774218753,
          "velocity": 0.4330708661417323
        },
        {
          "duration": 0.1327432500000043,
          "durationTicks": 96,
          "midi": 38,
          "name": "D2",
          "ticks": 113281,
          "time": 156.63841774218753,
          "velocity": 0.4330708661417323
        },
        {
          "duration": 0.1327432500000043,
          "durationTicks": 96,
          "midi": 42,
          "name": "F#2",
          "ticks": 113281,
          "time": 156.63841774218753,
          "velocity": 0.4330708661417323
        },
        {
          "duration": 0.1327432500000043,
          "durationTicks": 96,
          "midi": 42,
          "name": "F#2",
          "ticks": 113473,
          "time": 156.9039042421875,
          "velocity": 0.4330708661417323
        },
        {
          "duration": 0.1327432500000043,
          "durationTicks": 96,
          "midi": 42,
          "name": "F#2",
          "ticks": 113569,
          "time": 157.0366474921875,
          "velocity": 0.4330708661417323
        },
        {
          "duration": 0.1327432500000043,
          "durationTicks": 96,
          "midi": 36,
          "name": "C2",
          "ticks": 113665,
          "time": 157.16939074218752,
          "velocity": 0.4330708661417323
        },
        {
          "duration": 0.1327432500000043,
          "durationTicks": 96,
          "midi": 42,
          "name": "F#2",
          "ticks": 113665,
          "time": 157.16939074218752,
          "velocity": 0.4330708661417323
        },
        {
          "duration": 0.1327432500000043,
          "durationTicks": 96,
          "midi": 42,
          "name": "F#2",
          "ticks": 113857,
          "time": 157.43487724218753,
          "velocity": 0.4330708661417323
        },
        {
          "duration": 0.1327432499999759,
          "durationTicks": 96,
          "midi": 42,
          "name": "F#2",
          "ticks": 113953,
          "time": 157.56762049218753,
          "velocity": 0.4330708661417323
        },
        {
          "duration": 0.1327432500000043,
          "durationTicks": 96,
          "midi": 39,
          "name": "D#2",
          "ticks": 114049,
          "time": 157.7003637421875,
          "velocity": 0.4330708661417323
        },
        {
          "duration": 0.1327432500000043,
          "durationTicks": 96,
          "midi": 36,
          "name": "C2",
          "ticks": 114049,
          "time": 157.7003637421875,
          "velocity": 0.4330708661417323
        },
        {
          "duration": 0.1327432500000043,
          "durationTicks": 96,
          "midi": 38,
          "name": "D2",
          "ticks": 114049,
          "time": 157.7003637421875,
          "velocity": 0.4330708661417323
        },
        {
          "duration": 0.1327432500000043,
          "durationTicks": 96,
          "midi": 42,
          "name": "F#2",
          "ticks": 114049,
          "time": 157.7003637421875,
          "velocity": 0.4330708661417323
        },
        {
          "duration": 0.1327432500000043,
          "durationTicks": 96,
          "midi": 42,
          "name": "F#2",
          "ticks": 114241,
          "time": 157.9658502421875,
          "velocity": 0.4330708661417323
        },
        {
          "duration": 0.1327432500000043,
          "durationTicks": 96,
          "midi": 42,
          "name": "F#2",
          "ticks": 114337,
          "time": 158.09859349218752,
          "velocity": 0.4330708661417323
        },
        {
          "duration": 0.1327432500000043,
          "durationTicks": 96,
          "midi": 36,
          "name": "C2",
          "ticks": 114433,
          "time": 158.23133674218752,
          "velocity": 0.4330708661417323
        },
        {
          "duration": 0.1327432500000043,
          "durationTicks": 96,
          "midi": 42,
          "name": "F#2",
          "ticks": 114433,
          "time": 158.23133674218752,
          "velocity": 0.4330708661417323
        },
        {
          "duration": 0.1327432499999759,
          "durationTicks": 96,
          "midi": 42,
          "name": "F#2",
          "ticks": 114625,
          "time": 158.49682324218753,
          "velocity": 0.4330708661417323
        },
        {
          "duration": 0.1327432500000043,
          "durationTicks": 96,
          "midi": 42,
          "name": "F#2",
          "ticks": 114721,
          "time": 158.6295664921875,
          "velocity": 0.4330708661417323
        },
        {
          "duration": 0.1327432500000043,
          "durationTicks": 96,
          "midi": 39,
          "name": "D#2",
          "ticks": 114817,
          "time": 158.7623097421875,
          "velocity": 0.4330708661417323
        },
        {
          "duration": 0.1327432500000043,
          "durationTicks": 96,
          "midi": 36,
          "name": "C2",
          "ticks": 114817,
          "time": 158.7623097421875,
          "velocity": 0.4330708661417323
        },
        {
          "duration": 0.1327432500000043,
          "durationTicks": 96,
          "midi": 38,
          "name": "D2",
          "ticks": 114817,
          "time": 158.7623097421875,
          "velocity": 0.4330708661417323
        },
        {
          "duration": 0.1327432500000043,
          "durationTicks": 96,
          "midi": 42,
          "name": "F#2",
          "ticks": 114817,
          "time": 158.7623097421875,
          "velocity": 0.4330708661417323
        },
        {
          "duration": 0.1327432500000043,
          "durationTicks": 96,
          "midi": 46,
          "name": "A#2",
          "ticks": 115009,
          "time": 159.02779624218752,
          "velocity": 0.4330708661417323
        },
        {
          "duration": 0.1327432499999759,
          "durationTicks": 96,
          "midi": 36,
          "name": "C2",
          "ticks": 115201,
          "time": 159.29328274218753,
          "velocity": 0.4330708661417323
        },
        {
          "duration": 0.1327432499999759,
          "durationTicks": 96,
          "midi": 42,
          "name": "F#2",
          "ticks": 115201,
          "time": 159.29328274218753,
          "velocity": 0.4330708661417323
        },
        {
          "duration": 0.1327432500000043,
          "durationTicks": 96,
          "midi": 42,
          "name": "F#2",
          "ticks": 115393,
          "time": 159.5587692421875,
          "velocity": 0.4330708661417323
        },
        {
          "duration": 0.1327432500000043,
          "durationTicks": 96,
          "midi": 42,
          "name": "F#2",
          "ticks": 115489,
          "time": 159.6915124921875,
          "velocity": 0.4330708661417323
        },
        {
          "duration": 0.1327432500000043,
          "durationTicks": 96,
          "midi": 39,
          "name": "D#2",
          "ticks": 115585,
          "time": 159.82425574218752,
          "velocity": 0.4330708661417323
        },
        {
          "duration": 0.1327432500000043,
          "durationTicks": 96,
          "midi": 36,
          "name": "C2",
          "ticks": 115585,
          "time": 159.82425574218752,
          "velocity": 0.4330708661417323
        },
        {
          "duration": 0.1327432500000043,
          "durationTicks": 96,
          "midi": 38,
          "name": "D2",
          "ticks": 115585,
          "time": 159.82425574218752,
          "velocity": 0.4330708661417323
        },
        {
          "duration": 0.1327432500000043,
          "durationTicks": 96,
          "midi": 42,
          "name": "F#2",
          "ticks": 115585,
          "time": 159.82425574218752,
          "velocity": 0.4330708661417323
        },
        {
          "duration": 0.1327432500000043,
          "durationTicks": 96,
          "midi": 42,
          "name": "F#2",
          "ticks": 115777,
          "time": 160.08974224218753,
          "velocity": 0.4330708661417323
        },
        {
          "duration": 0.1327432499999759,
          "durationTicks": 96,
          "midi": 42,
          "name": "F#2",
          "ticks": 115873,
          "time": 160.22248549218753,
          "velocity": 0.4330708661417323
        },
        {
          "duration": 0.1327432500000043,
          "durationTicks": 96,
          "midi": 36,
          "name": "C2",
          "ticks": 115969,
          "time": 160.3552287421875,
          "velocity": 0.4330708661417323
        },
        {
          "duration": 0.1327432500000043,
          "durationTicks": 96,
          "midi": 42,
          "name": "F#2",
          "ticks": 115969,
          "time": 160.3552287421875,
          "velocity": 0.4330708661417323
        },
        {
          "duration": 0.1327432500000043,
          "durationTicks": 96,
          "midi": 42,
          "name": "F#2",
          "ticks": 116161,
          "time": 160.62071524218752,
          "velocity": 0.4330708661417323
        },
        {
          "duration": 0.1327432500000043,
          "durationTicks": 96,
          "midi": 42,
          "name": "F#2",
          "ticks": 116257,
          "time": 160.75345849218752,
          "velocity": 0.4330708661417323
        },
        {
          "duration": 0.1327432500000043,
          "durationTicks": 96,
          "midi": 39,
          "name": "D#2",
          "ticks": 116353,
          "time": 160.88620174218752,
          "velocity": 0.4330708661417323
        },
        {
          "duration": 0.1327432500000043,
          "durationTicks": 96,
          "midi": 36,
          "name": "C2",
          "ticks": 116353,
          "time": 160.88620174218752,
          "velocity": 0.4330708661417323
        },
        {
          "duration": 0.1327432500000043,
          "durationTicks": 96,
          "midi": 38,
          "name": "D2",
          "ticks": 116353,
          "time": 160.88620174218752,
          "velocity": 0.4330708661417323
        },
        {
          "duration": 0.1327432500000043,
          "durationTicks": 96,
          "midi": 42,
          "name": "F#2",
          "ticks": 116353,
          "time": 160.88620174218752,
          "velocity": 0.4330708661417323
        },
        {
          "duration": 0.1327432499999759,
          "durationTicks": 96,
          "midi": 42,
          "name": "F#2",
          "ticks": 116545,
          "time": 161.15168824218753,
          "velocity": 0.4330708661417323
        },
        {
          "duration": 0.1327432500000043,
          "durationTicks": 96,
          "midi": 42,
          "name": "F#2",
          "ticks": 116641,
          "time": 161.2844314921875,
          "velocity": 0.4330708661417323
        },
        {
          "duration": 0.1327432500000043,
          "durationTicks": 96,
          "midi": 36,
          "name": "C2",
          "ticks": 116737,
          "time": 161.4171747421875,
          "velocity": 0.4330708661417323
        },
        {
          "duration": 0.1327432500000043,
          "durationTicks": 96,
          "midi": 42,
          "name": "F#2",
          "ticks": 116737,
          "time": 161.4171747421875,
          "velocity": 0.4330708661417323
        },
        {
          "duration": 0.1327432500000043,
          "durationTicks": 96,
          "midi": 42,
          "name": "F#2",
          "ticks": 116929,
          "time": 161.68266124218752,
          "velocity": 0.4330708661417323
        },
        {
          "duration": 0.1327432500000043,
          "durationTicks": 96,
          "midi": 42,
          "name": "F#2",
          "ticks": 117025,
          "time": 161.81540449218753,
          "velocity": 0.4330708661417323
        },
        {
          "duration": 0.1327432499999759,
          "durationTicks": 96,
          "midi": 39,
          "name": "D#2",
          "ticks": 117121,
          "time": 161.94814774218753,
          "velocity": 0.4330708661417323
        },
        {
          "duration": 0.1327432499999759,
          "durationTicks": 96,
          "midi": 36,
          "name": "C2",
          "ticks": 117121,
          "time": 161.94814774218753,
          "velocity": 0.4330708661417323
        },
        {
          "duration": 0.1327432499999759,
          "durationTicks": 96,
          "midi": 38,
          "name": "D2",
          "ticks": 117121,
          "time": 161.94814774218753,
          "velocity": 0.4330708661417323
        },
        {
          "duration": 0.1327432499999759,
          "durationTicks": 96,
          "midi": 42,
          "name": "F#2",
          "ticks": 117121,
          "time": 161.94814774218753,
          "velocity": 0.4330708661417323
        },
        {
          "duration": 0.1327432500000043,
          "durationTicks": 96,
          "midi": 46,
          "name": "A#2",
          "ticks": 117313,
          "time": 162.2136342421875,
          "velocity": 0.4330708661417323
        },
        {
          "duration": 0.1327432500000043,
          "durationTicks": 96,
          "midi": 36,
          "name": "C2",
          "ticks": 117505,
          "time": 162.47912074218752,
          "velocity": 0.4330708661417323
        },
        {
          "duration": 0.1327432500000043,
          "durationTicks": 96,
          "midi": 42,
          "name": "F#2",
          "ticks": 117505,
          "time": 162.47912074218752,
          "velocity": 0.4330708661417323
        },
        {
          "duration": 0.1327432500000043,
          "durationTicks": 96,
          "midi": 42,
          "name": "F#2",
          "ticks": 117697,
          "time": 162.74460724218753,
          "velocity": 0.4330708661417323
        },
        {
          "duration": 0.1327432499999759,
          "durationTicks": 96,
          "midi": 42,
          "name": "F#2",
          "ticks": 117793,
          "time": 162.87735049218753,
          "velocity": 0.4330708661417323
        },
        {
          "duration": 0.1327432500000043,
          "durationTicks": 96,
          "midi": 39,
          "name": "D#2",
          "ticks": 117889,
          "time": 163.0100937421875,
          "velocity": 0.4330708661417323
        },
        {
          "duration": 0.1327432500000043,
          "durationTicks": 96,
          "midi": 36,
          "name": "C2",
          "ticks": 117889,
          "time": 163.0100937421875,
          "velocity": 0.4330708661417323
        },
        {
          "duration": 0.1327432500000043,
          "durationTicks": 96,
          "midi": 38,
          "name": "D2",
          "ticks": 117889,
          "time": 163.0100937421875,
          "velocity": 0.4330708661417323
        },
        {
          "duration": 0.1327432500000043,
          "durationTicks": 96,
          "midi": 42,
          "name": "F#2",
          "ticks": 117889,
          "time": 163.0100937421875,
          "velocity": 0.4330708661417323
        },
        {
          "duration": 0.1327432500000043,
          "durationTicks": 96,
          "midi": 39,
          "name": "D#2",
          "ticks": 117985,
          "time": 163.1428369921875,
          "velocity": 0.4330708661417323
        },
        {
          "duration": 0.1327432500000043,
          "durationTicks": 96,
          "midi": 39,
          "name": "D#2",
          "ticks": 118081,
          "time": 163.27558024218752,
          "velocity": 0.4330708661417323
        },
        {
          "duration": 0.1327432500000043,
          "durationTicks": 96,
          "midi": 46,
          "name": "A#2",
          "ticks": 118081,
          "time": 163.27558024218752,
          "velocity": 0.4330708661417323
        },
        {
          "duration": 0.1327432500000043,
          "durationTicks": 96,
          "midi": 39,
          "name": "D#2",
          "ticks": 118177,
          "time": 163.40832349218752,
          "velocity": 0.4330708661417323
        },
        {
          "duration": 0.1327432500000043,
          "durationTicks": 96,
          "midi": 36,
          "name": "C2",
          "ticks": 118273,
          "time": 163.54106674218752,
          "velocity": 0.4330708661417323
        },
        {
          "duration": 0.1327432500000043,
          "durationTicks": 96,
          "midi": 42,
          "name": "F#2",
          "ticks": 118273,
          "time": 163.54106674218752,
          "velocity": 0.4330708661417323
        },
        {
          "duration": 0.1327432500000043,
          "durationTicks": 96,
          "midi": 42,
          "name": "F#2",
          "ticks": 118465,
          "time": 163.8065532421875,
          "velocity": 0.4330708661417323
        },
        {
          "duration": 0.1327432500000043,
          "durationTicks": 96,
          "midi": 42,
          "name": "F#2",
          "ticks": 118561,
          "time": 163.9392964921875,
          "velocity": 0.4330708661417323
        },
        {
          "duration": 0.1327432500000043,
          "durationTicks": 96,
          "midi": 39,
          "name": "D#2",
          "ticks": 118657,
          "time": 164.0720397421875,
          "velocity": 0.4330708661417323
        },
        {
          "duration": 0.1327432500000043,
          "durationTicks": 96,
          "midi": 36,
          "name": "C2",
          "ticks": 118657,
          "time": 164.0720397421875,
          "velocity": 0.4330708661417323
        },
        {
          "duration": 0.1327432500000043,
          "durationTicks": 96,
          "midi": 38,
          "name": "D2",
          "ticks": 118657,
          "time": 164.0720397421875,
          "velocity": 0.4330708661417323
        },
        {
          "duration": 0.1327432500000043,
          "durationTicks": 96,
          "midi": 42,
          "name": "F#2",
          "ticks": 118657,
          "time": 164.0720397421875,
          "velocity": 0.4330708661417323
        },
        {
          "duration": 0.1327432500000043,
          "durationTicks": 96,
          "midi": 42,
          "name": "F#2",
          "ticks": 118849,
          "time": 164.33752624218752,
          "velocity": 0.4330708661417323
        },
        {
          "duration": 0.1327432500000043,
          "durationTicks": 96,
          "midi": 42,
          "name": "F#2",
          "ticks": 118945,
          "time": 164.47026949218753,
          "velocity": 0.4330708661417323
        },
        {
          "duration": 0.1327432499999759,
          "durationTicks": 96,
          "midi": 36,
          "name": "C2",
          "ticks": 119041,
          "time": 164.60301274218753,
          "velocity": 0.4330708661417323
        },
        {
          "duration": 0.1327432499999759,
          "durationTicks": 96,
          "midi": 42,
          "name": "F#2",
          "ticks": 119041,
          "time": 164.60301274218753,
          "velocity": 0.4330708661417323
        },
        {
          "duration": 0.1327432500000043,
          "durationTicks": 96,
          "midi": 42,
          "name": "F#2",
          "ticks": 119233,
          "time": 164.8684992421875,
          "velocity": 0.4330708661417323
        },
        {
          "duration": 0.1327432500000043,
          "durationTicks": 96,
          "midi": 42,
          "name": "F#2",
          "ticks": 119329,
          "time": 165.00124249218752,
          "velocity": 0.4330708661417323
        },
        {
          "duration": 0.1327432500000043,
          "durationTicks": 96,
          "midi": 39,
          "name": "D#2",
          "ticks": 119425,
          "time": 165.13398574218752,
          "velocity": 0.4330708661417323
        },
        {
          "duration": 0.1327432500000043,
          "durationTicks": 96,
          "midi": 36,
          "name": "C2",
          "ticks": 119425,
          "time": 165.13398574218752,
          "velocity": 0.4330708661417323
        },
        {
          "duration": 0.1327432500000043,
          "durationTicks": 96,
          "midi": 38,
          "name": "D2",
          "ticks": 119425,
          "time": 165.13398574218752,
          "velocity": 0.4330708661417323
        },
        {
          "duration": 0.1327432500000043,
          "durationTicks": 96,
          "midi": 42,
          "name": "F#2",
          "ticks": 119425,
          "time": 165.13398574218752,
          "velocity": 0.4330708661417323
        },
        {
          "duration": 0.1327432500000043,
          "durationTicks": 96,
          "midi": 42,
          "name": "F#2",
          "ticks": 119617,
          "time": 165.39947224218753,
          "velocity": 0.4330708661417323
        },
        {
          "duration": 0.1327432499999759,
          "durationTicks": 96,
          "midi": 42,
          "name": "F#2",
          "ticks": 119713,
          "time": 165.53221549218753,
          "velocity": 0.4330708661417323
        },
        {
          "duration": 0.1327432500000043,
          "durationTicks": 96,
          "midi": 36,
          "name": "C2",
          "ticks": 119809,
          "time": 165.6649587421875,
          "velocity": 0.4330708661417323
        },
        {
          "duration": 0.1327432500000043,
          "durationTicks": 96,
          "midi": 42,
          "name": "F#2",
          "ticks": 119809,
          "time": 165.6649587421875,
          "velocity": 0.4330708661417323
        },
        {
          "duration": 0.1327432500000043,
          "durationTicks": 96,
          "midi": 42,
          "name": "F#2",
          "ticks": 120001,
          "time": 165.93044524218752,
          "velocity": 0.4330708661417323
        },
        {
          "duration": 0.1327432500000043,
          "durationTicks": 96,
          "midi": 42,
          "name": "F#2",
          "ticks": 120097,
          "time": 166.06318849218752,
          "velocity": 0.4330708661417323
        },
        {
          "duration": 0.1327432500000043,
          "durationTicks": 96,
          "midi": 39,
          "name": "D#2",
          "ticks": 120193,
          "time": 166.19593174218753,
          "velocity": 0.4330708661417323
        },
        {
          "duration": 0.1327432500000043,
          "durationTicks": 96,
          "midi": 36,
          "name": "C2",
          "ticks": 120193,
          "time": 166.19593174218753,
          "velocity": 0.4330708661417323
        },
        {
          "duration": 0.1327432500000043,
          "durationTicks": 96,
          "midi": 38,
          "name": "D2",
          "ticks": 120193,
          "time": 166.19593174218753,
          "velocity": 0.4330708661417323
        },
        {
          "duration": 0.1327432500000043,
          "durationTicks": 96,
          "midi": 42,
          "name": "F#2",
          "ticks": 120193,
          "time": 166.19593174218753,
          "velocity": 0.4330708661417323
        },
        {
          "duration": 0.1327432500000043,
          "durationTicks": 96,
          "midi": 42,
          "name": "F#2",
          "ticks": 120385,
          "time": 166.4614182421875,
          "velocity": 0.4330708661417323
        },
        {
          "duration": 0.1327432500000043,
          "durationTicks": 96,
          "midi": 42,
          "name": "F#2",
          "ticks": 120481,
          "time": 166.5941614921875,
          "velocity": 0.4330708661417323
        },
        {
          "duration": 0.1327432500000043,
          "durationTicks": 96,
          "midi": 36,
          "name": "C2",
          "ticks": 120577,
          "time": 166.72690474218751,
          "velocity": 0.4330708661417323
        },
        {
          "duration": 0.1327432500000043,
          "durationTicks": 96,
          "midi": 42,
          "name": "F#2",
          "ticks": 120577,
          "time": 166.72690474218751,
          "velocity": 0.4330708661417323
        },
        {
          "duration": 0.1327432500000043,
          "durationTicks": 96,
          "midi": 42,
          "name": "F#2",
          "ticks": 120769,
          "time": 166.99239124218752,
          "velocity": 0.4330708661417323
        },
        {
          "duration": 0.1327432500000043,
          "durationTicks": 96,
          "midi": 42,
          "name": "F#2",
          "ticks": 120865,
          "time": 167.12513449218753,
          "velocity": 0.4330708661417323
        },
        {
          "duration": 0.1327432499999759,
          "durationTicks": 96,
          "midi": 39,
          "name": "D#2",
          "ticks": 120961,
          "time": 167.25787774218753,
          "velocity": 0.4330708661417323
        },
        {
          "duration": 0.1327432499999759,
          "durationTicks": 96,
          "midi": 36,
          "name": "C2",
          "ticks": 120961,
          "time": 167.25787774218753,
          "velocity": 0.4330708661417323
        },
        {
          "duration": 0.1327432499999759,
          "durationTicks": 96,
          "midi": 38,
          "name": "D2",
          "ticks": 120961,
          "time": 167.25787774218753,
          "velocity": 0.4330708661417323
        },
        {
          "duration": 0.1327432499999759,
          "durationTicks": 96,
          "midi": 42,
          "name": "F#2",
          "ticks": 120961,
          "time": 167.25787774218753,
          "velocity": 0.4330708661417323
        },
        {
          "duration": 0.1327432500000043,
          "durationTicks": 96,
          "midi": 46,
          "name": "A#2",
          "ticks": 121153,
          "time": 167.5233642421875,
          "velocity": 0.4330708661417323
        },
        {
          "duration": 0.1327432500000043,
          "durationTicks": 96,
          "midi": 36,
          "name": "C2",
          "ticks": 121345,
          "time": 167.78885074218752,
          "velocity": 0.4330708661417323
        },
        {
          "duration": 0.1327432500000043,
          "durationTicks": 96,
          "midi": 42,
          "name": "F#2",
          "ticks": 121345,
          "time": 167.78885074218752,
          "velocity": 0.4330708661417323
        },
        {
          "duration": 0.1327432499999759,
          "durationTicks": 96,
          "midi": 42,
          "name": "F#2",
          "ticks": 121537,
          "time": 168.05433724218753,
          "velocity": 0.4330708661417323
        },
        {
          "duration": 0.1327432500000043,
          "durationTicks": 96,
          "midi": 42,
          "name": "F#2",
          "ticks": 121633,
          "time": 168.1870804921875,
          "velocity": 0.4330708661417323
        },
        {
          "duration": 0.1327432500000043,
          "durationTicks": 96,
          "midi": 39,
          "name": "D#2",
          "ticks": 121729,
          "time": 168.3198237421875,
          "velocity": 0.4330708661417323
        },
        {
          "duration": 0.1327432500000043,
          "durationTicks": 96,
          "midi": 36,
          "name": "C2",
          "ticks": 121729,
          "time": 168.3198237421875,
          "velocity": 0.4330708661417323
        },
        {
          "duration": 0.1327432500000043,
          "durationTicks": 96,
          "midi": 38,
          "name": "D2",
          "ticks": 121729,
          "time": 168.3198237421875,
          "velocity": 0.4330708661417323
        },
        {
          "duration": 0.1327432500000043,
          "durationTicks": 96,
          "midi": 42,
          "name": "F#2",
          "ticks": 121729,
          "time": 168.3198237421875,
          "velocity": 0.4330708661417323
        },
        {
          "duration": 0.1327432500000043,
          "durationTicks": 96,
          "midi": 42,
          "name": "F#2",
          "ticks": 121921,
          "time": 168.58531024218752,
          "velocity": 0.4330708661417323
        },
        {
          "duration": 0.1327432500000043,
          "durationTicks": 96,
          "midi": 42,
          "name": "F#2",
          "ticks": 122017,
          "time": 168.71805349218752,
          "velocity": 0.4330708661417323
        },
        {
          "duration": 0.1327432500000043,
          "durationTicks": 96,
          "midi": 36,
          "name": "C2",
          "ticks": 122113,
          "time": 168.85079674218753,
          "velocity": 0.4330708661417323
        },
        {
          "duration": 0.1327432500000043,
          "durationTicks": 96,
          "midi": 42,
          "name": "F#2",
          "ticks": 122113,
          "time": 168.85079674218753,
          "velocity": 0.4330708661417323
        },
        {
          "duration": 0.1327432500000043,
          "durationTicks": 96,
          "midi": 42,
          "name": "F#2",
          "ticks": 122305,
          "time": 169.1162832421875,
          "velocity": 0.4330708661417323
        },
        {
          "duration": 0.1327432500000043,
          "durationTicks": 96,
          "midi": 42,
          "name": "F#2",
          "ticks": 122401,
          "time": 169.2490264921875,
          "velocity": 0.4330708661417323
        },
        {
          "duration": 0.1327432500000043,
          "durationTicks": 96,
          "midi": 39,
          "name": "D#2",
          "ticks": 122497,
          "time": 169.38176974218752,
          "velocity": 0.4330708661417323
        },
        {
          "duration": 0.1327432500000043,
          "durationTicks": 96,
          "midi": 36,
          "name": "C2",
          "ticks": 122497,
          "time": 169.38176974218752,
          "velocity": 0.4330708661417323
        },
        {
          "duration": 0.1327432500000043,
          "durationTicks": 96,
          "midi": 38,
          "name": "D2",
          "ticks": 122497,
          "time": 169.38176974218752,
          "velocity": 0.4330708661417323
        },
        {
          "duration": 0.1327432500000043,
          "durationTicks": 96,
          "midi": 42,
          "name": "F#2",
          "ticks": 122497,
          "time": 169.38176974218752,
          "velocity": 0.4330708661417323
        },
        {
          "duration": 0.1327432500000043,
          "durationTicks": 96,
          "midi": 42,
          "name": "F#2",
          "ticks": 122689,
          "time": 169.64725624218752,
          "velocity": 0.4330708661417323
        },
        {
          "duration": 0.1327432500000043,
          "durationTicks": 96,
          "midi": 42,
          "name": "F#2",
          "ticks": 122785,
          "time": 169.77999949218753,
          "velocity": 0.4330708661417323
        },
        {
          "duration": 0.1327432499999759,
          "durationTicks": 96,
          "midi": 36,
          "name": "C2",
          "ticks": 122881,
          "time": 169.91274274218753,
          "velocity": 0.4330708661417323
        },
        {
          "duration": 0.1327432499999759,
          "durationTicks": 96,
          "midi": 42,
          "name": "F#2",
          "ticks": 122881,
          "time": 169.91274274218753,
          "velocity": 0.4330708661417323
        },
        {
          "duration": 0.1327432500000043,
          "durationTicks": 96,
          "midi": 42,
          "name": "F#2",
          "ticks": 123073,
          "time": 170.1782292421875,
          "velocity": 0.4330708661417323
        },
        {
          "duration": 0.1327432500000043,
          "durationTicks": 96,
          "midi": 42,
          "name": "F#2",
          "ticks": 123169,
          "time": 170.31097249218752,
          "velocity": 0.4330708661417323
        },
        {
          "duration": 0.1327432500000043,
          "durationTicks": 96,
          "midi": 39,
          "name": "D#2",
          "ticks": 123265,
          "time": 170.44371574218752,
          "velocity": 0.4330708661417323
        },
        {
          "duration": 0.1327432500000043,
          "durationTicks": 96,
          "midi": 36,
          "name": "C2",
          "ticks": 123265,
          "time": 170.44371574218752,
          "velocity": 0.4330708661417323
        },
        {
          "duration": 0.1327432500000043,
          "durationTicks": 96,
          "midi": 38,
          "name": "D2",
          "ticks": 123265,
          "time": 170.44371574218752,
          "velocity": 0.4330708661417323
        },
        {
          "duration": 0.1327432500000043,
          "durationTicks": 96,
          "midi": 42,
          "name": "F#2",
          "ticks": 123265,
          "time": 170.44371574218752,
          "velocity": 0.4330708661417323
        },
        {
          "duration": 0.1327432499999759,
          "durationTicks": 96,
          "midi": 46,
          "name": "A#2",
          "ticks": 123457,
          "time": 170.70920224218753,
          "velocity": 0.4330708661417323
        },
        {
          "duration": 0.1327432500000043,
          "durationTicks": 96,
          "midi": 36,
          "name": "C2",
          "ticks": 123649,
          "time": 170.9746887421875,
          "velocity": 0.4330708661417323
        },
        {
          "duration": 0.1327432500000043,
          "durationTicks": 96,
          "midi": 42,
          "name": "F#2",
          "ticks": 123649,
          "time": 170.9746887421875,
          "velocity": 0.4330708661417323
        },
        {
          "duration": 0.1327432500000043,
          "durationTicks": 96,
          "midi": 42,
          "name": "F#2",
          "ticks": 123841,
          "time": 171.24017524218752,
          "velocity": 0.4330708661417323
        },
        {
          "duration": 0.1327432500000043,
          "durationTicks": 96,
          "midi": 42,
          "name": "F#2",
          "ticks": 123937,
          "time": 171.37291849218752,
          "velocity": 0.4330708661417323
        },
        {
          "duration": 0.1327432500000043,
          "durationTicks": 96,
          "midi": 39,
          "name": "D#2",
          "ticks": 124033,
          "time": 171.50566174218753,
          "velocity": 0.4330708661417323
        },
        {
          "duration": 0.1327432500000043,
          "durationTicks": 96,
          "midi": 36,
          "name": "C2",
          "ticks": 124033,
          "time": 171.50566174218753,
          "velocity": 0.4330708661417323
        },
        {
          "duration": 0.1327432500000043,
          "durationTicks": 96,
          "midi": 38,
          "name": "D2",
          "ticks": 124033,
          "time": 171.50566174218753,
          "velocity": 0.4330708661417323
        },
        {
          "duration": 0.1327432500000043,
          "durationTicks": 96,
          "midi": 42,
          "name": "F#2",
          "ticks": 124033,
          "time": 171.50566174218753,
          "velocity": 0.4330708661417323
        },
        {
          "duration": 0.1327432499999759,
          "durationTicks": 96,
          "midi": 39,
          "name": "D#2",
          "ticks": 124129,
          "time": 171.63840499218753,
          "velocity": 0.4330708661417323
        },
        {
          "duration": 0.1327432500000043,
          "durationTicks": 96,
          "midi": 39,
          "name": "D#2",
          "ticks": 124225,
          "time": 171.7711482421875,
          "velocity": 0.4330708661417323
        },
        {
          "duration": 0.1327432500000043,
          "durationTicks": 96,
          "midi": 46,
          "name": "A#2",
          "ticks": 124225,
          "time": 171.7711482421875,
          "velocity": 0.4330708661417323
        },
        {
          "duration": 0.1327432500000043,
          "durationTicks": 96,
          "midi": 39,
          "name": "D#2",
          "ticks": 124321,
          "time": 171.9038914921875,
          "velocity": 0.4330708661417323
        },
        {
          "duration": 0.1327432500000043,
          "durationTicks": 96,
          "midi": 36,
          "name": "C2",
          "ticks": 124417,
          "time": 172.03663474218752,
          "velocity": 0.4330708661417323
        },
        {
          "duration": 0.1327432500000043,
          "durationTicks": 96,
          "midi": 46,
          "name": "A#2",
          "ticks": 124417,
          "time": 172.03663474218752,
          "velocity": 0.4330708661417323
        },
        {
          "duration": 0.1327432500000043,
          "durationTicks": 96,
          "midi": 42,
          "name": "F#2",
          "ticks": 124609,
          "time": 172.30212124218752,
          "velocity": 0.4330708661417323
        },
        {
          "duration": 0.1327432500000043,
          "durationTicks": 96,
          "midi": 42,
          "name": "F#2",
          "ticks": 124705,
          "time": 172.43486449218753,
          "velocity": 0.4330708661417323
        },
        {
          "duration": 0.1327432499999759,
          "durationTicks": 96,
          "midi": 36,
          "name": "C2",
          "ticks": 124801,
          "time": 172.56760774218753,
          "velocity": 0.4330708661417323
        },
        {
          "duration": 0.1327432499999759,
          "durationTicks": 96,
          "midi": 38,
          "name": "D2",
          "ticks": 124801,
          "time": 172.56760774218753,
          "velocity": 0.4330708661417323
        },
        {
          "duration": 0.1327432499999759,
          "durationTicks": 96,
          "midi": 42,
          "name": "F#2",
          "ticks": 124801,
          "time": 172.56760774218753,
          "velocity": 0.4330708661417323
        },
        {
          "duration": 0.1327432499999759,
          "durationTicks": 96,
          "midi": 40,
          "name": "E2",
          "ticks": 124801,
          "time": 172.56760774218753,
          "velocity": 0.4330708661417323
        },
        {
          "duration": 0.1327432500000043,
          "durationTicks": 96,
          "midi": 42,
          "name": "F#2",
          "ticks": 124993,
          "time": 172.8330942421875,
          "velocity": 0.4330708661417323
        },
        {
          "duration": 0.1327432500000043,
          "durationTicks": 96,
          "midi": 42,
          "name": "F#2",
          "ticks": 125089,
          "time": 172.96583749218752,
          "velocity": 0.4330708661417323
        },
        {
          "duration": 0.1327432500000043,
          "durationTicks": 96,
          "midi": 36,
          "name": "C2",
          "ticks": 125185,
          "time": 173.09858074218752,
          "velocity": 0.4330708661417323
        },
        {
          "duration": 0.1327432500000043,
          "durationTicks": 96,
          "midi": 42,
          "name": "F#2",
          "ticks": 125185,
          "time": 173.09858074218752,
          "velocity": 0.4330708661417323
        },
        {
          "duration": 0.1327432499999759,
          "durationTicks": 96,
          "midi": 42,
          "name": "F#2",
          "ticks": 125377,
          "time": 173.36406724218753,
          "velocity": 0.4330708661417323
        },
        {
          "duration": 0.1327432500000043,
          "durationTicks": 96,
          "midi": 42,
          "name": "F#2",
          "ticks": 125473,
          "time": 173.4968104921875,
          "velocity": 0.4330708661417323
        },
        {
          "duration": 0.1327432500000043,
          "durationTicks": 96,
          "midi": 36,
          "name": "C2",
          "ticks": 125569,
          "time": 173.6295537421875,
          "velocity": 0.4330708661417323
        },
        {
          "duration": 0.1327432500000043,
          "durationTicks": 96,
          "midi": 38,
          "name": "D2",
          "ticks": 125569,
          "time": 173.6295537421875,
          "velocity": 0.4330708661417323
        },
        {
          "duration": 0.1327432500000043,
          "durationTicks": 96,
          "midi": 42,
          "name": "F#2",
          "ticks": 125569,
          "time": 173.6295537421875,
          "velocity": 0.4330708661417323
        },
        {
          "duration": 0.1327432500000043,
          "durationTicks": 96,
          "midi": 40,
          "name": "E2",
          "ticks": 125569,
          "time": 173.6295537421875,
          "velocity": 0.4330708661417323
        },
        {
          "duration": 0.1327432500000043,
          "durationTicks": 96,
          "midi": 42,
          "name": "F#2",
          "ticks": 125761,
          "time": 173.89504024218752,
          "velocity": 0.4330708661417323
        },
        {
          "duration": 0.1327432500000043,
          "durationTicks": 96,
          "midi": 42,
          "name": "F#2",
          "ticks": 125857,
          "time": 174.02778349218752,
          "velocity": 0.4330708661417323
        },
        {
          "duration": 0.1327432500000043,
          "durationTicks": 96,
          "midi": 36,
          "name": "C2",
          "ticks": 125953,
          "time": 174.16052674218753,
          "velocity": 0.4330708661417323
        },
        {
          "duration": 0.1327432500000043,
          "durationTicks": 96,
          "midi": 42,
          "name": "F#2",
          "ticks": 125953,
          "time": 174.16052674218753,
          "velocity": 0.4330708661417323
        },
        {
          "duration": 0.1327432500000043,
          "durationTicks": 96,
          "midi": 42,
          "name": "F#2",
          "ticks": 126145,
          "time": 174.4260132421875,
          "velocity": 0.4330708661417323
        },
        {
          "duration": 0.1327432500000043,
          "durationTicks": 96,
          "midi": 42,
          "name": "F#2",
          "ticks": 126241,
          "time": 174.5587564921875,
          "velocity": 0.4330708661417323
        },
        {
          "duration": 0.1327432500000043,
          "durationTicks": 96,
          "midi": 36,
          "name": "C2",
          "ticks": 126337,
          "time": 174.69149974218752,
          "velocity": 0.4330708661417323
        },
        {
          "duration": 0.1327432500000043,
          "durationTicks": 96,
          "midi": 38,
          "name": "D2",
          "ticks": 126337,
          "time": 174.69149974218752,
          "velocity": 0.4330708661417323
        },
        {
          "duration": 0.1327432500000043,
          "durationTicks": 96,
          "midi": 42,
          "name": "F#2",
          "ticks": 126337,
          "time": 174.69149974218752,
          "velocity": 0.4330708661417323
        },
        {
          "duration": 0.1327432500000043,
          "durationTicks": 96,
          "midi": 40,
          "name": "E2",
          "ticks": 126337,
          "time": 174.69149974218752,
          "velocity": 0.4330708661417323
        },
        {
          "duration": 0.1327432500000043,
          "durationTicks": 96,
          "midi": 42,
          "name": "F#2",
          "ticks": 126529,
          "time": 174.95698624218753,
          "velocity": 0.4330708661417323
        },
        {
          "duration": 0.1327432499999759,
          "durationTicks": 96,
          "midi": 42,
          "name": "F#2",
          "ticks": 126625,
          "time": 175.08972949218753,
          "velocity": 0.4330708661417323
        },
        {
          "duration": 0.1327432500000043,
          "durationTicks": 96,
          "midi": 36,
          "name": "C2",
          "ticks": 126721,
          "time": 175.2224727421875,
          "velocity": 0.4330708661417323
        },
        {
          "duration": 0.1327432500000043,
          "durationTicks": 96,
          "midi": 42,
          "name": "F#2",
          "ticks": 126721,
          "time": 175.2224727421875,
          "velocity": 0.4330708661417323
        },
        {
          "duration": 0.1327432500000043,
          "durationTicks": 96,
          "midi": 42,
          "name": "F#2",
          "ticks": 126913,
          "time": 175.48795924218751,
          "velocity": 0.4330708661417323
        },
        {
          "duration": 0.1327432500000043,
          "durationTicks": 96,
          "midi": 42,
          "name": "F#2",
          "ticks": 127009,
          "time": 175.62070249218752,
          "velocity": 0.4330708661417323
        },
        {
          "duration": 0.1327432500000043,
          "durationTicks": 96,
          "midi": 36,
          "name": "C2",
          "ticks": 127105,
          "time": 175.75344574218752,
          "velocity": 0.4330708661417323
        },
        {
          "duration": 0.1327432500000043,
          "durationTicks": 96,
          "midi": 38,
          "name": "D2",
          "ticks": 127105,
          "time": 175.75344574218752,
          "velocity": 0.4330708661417323
        },
        {
          "duration": 0.1327432500000043,
          "durationTicks": 96,
          "midi": 42,
          "name": "F#2",
          "ticks": 127105,
          "time": 175.75344574218752,
          "velocity": 0.4330708661417323
        },
        {
          "duration": 0.1327432500000043,
          "durationTicks": 96,
          "midi": 40,
          "name": "E2",
          "ticks": 127105,
          "time": 175.75344574218752,
          "velocity": 0.4330708661417323
        },
        {
          "duration": 0.1327432499999759,
          "durationTicks": 96,
          "midi": 46,
          "name": "A#2",
          "ticks": 127297,
          "time": 176.01893224218753,
          "velocity": 0.4330708661417323
        },
        {
          "duration": 0.1327432500000043,
          "durationTicks": 96,
          "midi": 36,
          "name": "C2",
          "ticks": 127489,
          "time": 176.2844187421875,
          "velocity": 0.4330708661417323
        },
        {
          "duration": 0.1327432500000043,
          "durationTicks": 96,
          "midi": 42,
          "name": "F#2",
          "ticks": 127489,
          "time": 176.2844187421875,
          "velocity": 0.4330708661417323
        },
        {
          "duration": 0.1327432500000043,
          "durationTicks": 96,
          "midi": 42,
          "name": "F#2",
          "ticks": 127681,
          "time": 176.54990524218752,
          "velocity": 0.4330708661417323
        },
        {
          "duration": 0.1327432500000043,
          "durationTicks": 96,
          "midi": 42,
          "name": "F#2",
          "ticks": 127777,
          "time": 176.68264849218752,
          "velocity": 0.4330708661417323
        },
        {
          "duration": 0.1327432500000043,
          "durationTicks": 96,
          "midi": 36,
          "name": "C2",
          "ticks": 127873,
          "time": 176.81539174218753,
          "velocity": 0.4330708661417323
        },
        {
          "duration": 0.1327432500000043,
          "durationTicks": 96,
          "midi": 38,
          "name": "D2",
          "ticks": 127873,
          "time": 176.81539174218753,
          "velocity": 0.4330708661417323
        },
        {
          "duration": 0.1327432500000043,
          "durationTicks": 96,
          "midi": 42,
          "name": "F#2",
          "ticks": 127873,
          "time": 176.81539174218753,
          "velocity": 0.4330708661417323
        },
        {
          "duration": 0.1327432500000043,
          "durationTicks": 96,
          "midi": 40,
          "name": "E2",
          "ticks": 127873,
          "time": 176.81539174218753,
          "velocity": 0.4330708661417323
        },
        {
          "duration": 0.1327432500000043,
          "durationTicks": 96,
          "midi": 42,
          "name": "F#2",
          "ticks": 128065,
          "time": 177.0808782421875,
          "velocity": 0.4330708661417323
        },
        {
          "duration": 0.1327432500000043,
          "durationTicks": 96,
          "midi": 42,
          "name": "F#2",
          "ticks": 128161,
          "time": 177.2136214921875,
          "velocity": 0.4330708661417323
        },
        {
          "duration": 0.1327432500000043,
          "durationTicks": 96,
          "midi": 36,
          "name": "C2",
          "ticks": 128257,
          "time": 177.34636474218752,
          "velocity": 0.4330708661417323
        },
        {
          "duration": 0.1327432500000043,
          "durationTicks": 96,
          "midi": 42,
          "name": "F#2",
          "ticks": 128257,
          "time": 177.34636474218752,
          "velocity": 0.4330708661417323
        },
        {
          "duration": 0.1327432500000043,
          "durationTicks": 96,
          "midi": 42,
          "name": "F#2",
          "ticks": 128449,
          "time": 177.61185124218753,
          "velocity": 0.4330708661417323
        },
        {
          "duration": 0.1327432499999759,
          "durationTicks": 96,
          "midi": 42,
          "name": "F#2",
          "ticks": 128545,
          "time": 177.74459449218753,
          "velocity": 0.4330708661417323
        },
        {
          "duration": 0.1327432500000043,
          "durationTicks": 96,
          "midi": 36,
          "name": "C2",
          "ticks": 128641,
          "time": 177.8773377421875,
          "velocity": 0.4330708661417323
        },
        {
          "duration": 0.1327432500000043,
          "durationTicks": 96,
          "midi": 38,
          "name": "D2",
          "ticks": 128641,
          "time": 177.8773377421875,
          "velocity": 0.4330708661417323
        },
        {
          "duration": 0.1327432500000043,
          "durationTicks": 96,
          "midi": 42,
          "name": "F#2",
          "ticks": 128641,
          "time": 177.8773377421875,
          "velocity": 0.4330708661417323
        },
        {
          "duration": 0.1327432500000043,
          "durationTicks": 96,
          "midi": 40,
          "name": "E2",
          "ticks": 128641,
          "time": 177.8773377421875,
          "velocity": 0.4330708661417323
        },
        {
          "duration": 0.1327432500000043,
          "durationTicks": 96,
          "midi": 42,
          "name": "F#2",
          "ticks": 128833,
          "time": 178.14282424218752,
          "velocity": 0.4330708661417323
        },
        {
          "duration": 0.1327432500000043,
          "durationTicks": 96,
          "midi": 42,
          "name": "F#2",
          "ticks": 128929,
          "time": 178.27556749218752,
          "velocity": 0.4330708661417323
        },
        {
          "duration": 0.1327432500000043,
          "durationTicks": 96,
          "midi": 36,
          "name": "C2",
          "ticks": 129025,
          "time": 178.40831074218752,
          "velocity": 0.4330708661417323
        },
        {
          "duration": 0.1327432500000043,
          "durationTicks": 96,
          "midi": 42,
          "name": "F#2",
          "ticks": 129025,
          "time": 178.40831074218752,
          "velocity": 0.4330708661417323
        },
        {
          "duration": 0.1327432499999759,
          "durationTicks": 96,
          "midi": 38,
          "name": "D2",
          "ticks": 129217,
          "time": 178.67379724218753,
          "velocity": 0.4330708661417323
        },
        {
          "duration": 0.1327432499999759,
          "durationTicks": 96,
          "midi": 42,
          "name": "F#2",
          "ticks": 129217,
          "time": 178.67379724218753,
          "velocity": 0.4330708661417323
        },
        {
          "duration": 0.1327432499999759,
          "durationTicks": 96,
          "midi": 40,
          "name": "E2",
          "ticks": 129217,
          "time": 178.67379724218753,
          "velocity": 0.4330708661417323
        },
        {
          "duration": 0.1327432500000043,
          "durationTicks": 96,
          "midi": 42,
          "name": "F#2",
          "ticks": 129313,
          "time": 178.8065404921875,
          "velocity": 0.4330708661417323
        },
        {
          "duration": 0.1327432500000043,
          "durationTicks": 96,
          "midi": 36,
          "name": "C2",
          "ticks": 129409,
          "time": 178.9392837421875,
          "velocity": 0.4330708661417323
        },
        {
          "duration": 0.1327432500000043,
          "durationTicks": 96,
          "midi": 42,
          "name": "F#2",
          "ticks": 129409,
          "time": 178.9392837421875,
          "velocity": 0.4330708661417323
        },
        {
          "duration": 0.1327432500000043,
          "durationTicks": 96,
          "midi": 38,
          "name": "D2",
          "ticks": 129505,
          "time": 179.07202699218752,
          "velocity": 0.4330708661417323
        },
        {
          "duration": 0.1327432500000043,
          "durationTicks": 96,
          "midi": 40,
          "name": "E2",
          "ticks": 129505,
          "time": 179.07202699218752,
          "velocity": 0.4330708661417323
        },
        {
          "duration": 0.1327432500000043,
          "durationTicks": 96,
          "midi": 46,
          "name": "A#2",
          "ticks": 129601,
          "time": 179.20477024218752,
          "velocity": 0.4330708661417323
        },
        {
          "duration": 0.1327432499999759,
          "durationTicks": 96,
          "midi": 36,
          "name": "C2",
          "ticks": 129793,
          "time": 179.47025674218753,
          "velocity": 0.4330708661417323
        },
        {
          "duration": 0.1327432499999759,
          "durationTicks": 96,
          "midi": 38,
          "name": "D2",
          "ticks": 129793,
          "time": 179.47025674218753,
          "velocity": 0.4330708661417323
        },
        {
          "duration": 0.1327432499999759,
          "durationTicks": 96,
          "midi": 42,
          "name": "F#2",
          "ticks": 129793,
          "time": 179.47025674218753,
          "velocity": 0.4330708661417323
        },
        {
          "duration": 0.1327432499999759,
          "durationTicks": 96,
          "midi": 40,
          "name": "E2",
          "ticks": 129793,
          "time": 179.47025674218753,
          "velocity": 0.4330708661417323
        },
        {
          "duration": 0.1327432500000043,
          "durationTicks": 96,
          "midi": 38,
          "name": "D2",
          "ticks": 129985,
          "time": 179.7357432421875,
          "velocity": 0.4330708661417323
        },
        {
          "duration": 0.1327432500000043,
          "durationTicks": 96,
          "midi": 42,
          "name": "F#2",
          "ticks": 129985,
          "time": 179.7357432421875,
          "velocity": 0.4330708661417323
        },
        {
          "duration": 0.1327432500000043,
          "durationTicks": 96,
          "midi": 40,
          "name": "E2",
          "ticks": 129985,
          "time": 179.7357432421875,
          "velocity": 0.4330708661417323
        },
        {
          "duration": 0.1327432500000043,
          "durationTicks": 96,
          "midi": 38,
          "name": "D2",
          "ticks": 130081,
          "time": 179.86848649218751,
          "velocity": 0.4330708661417323
        },
        {
          "duration": 0.1327432500000043,
          "durationTicks": 96,
          "midi": 42,
          "name": "F#2",
          "ticks": 130081,
          "time": 179.86848649218751,
          "velocity": 0.4330708661417323
        },
        {
          "duration": 0.1327432500000043,
          "durationTicks": 96,
          "midi": 40,
          "name": "E2",
          "ticks": 130081,
          "time": 179.86848649218751,
          "velocity": 0.4330708661417323
        },
        {
          "duration": 0.1327432500000043,
          "durationTicks": 96,
          "midi": 36,
          "name": "C2",
          "ticks": 130177,
          "time": 180.00122974218752,
          "velocity": 0.4330708661417323
        },
        {
          "duration": 0.1327432500000043,
          "durationTicks": 96,
          "midi": 38,
          "name": "D2",
          "ticks": 130177,
          "time": 180.00122974218752,
          "velocity": 0.4330708661417323
        },
        {
          "duration": 0.1327432500000043,
          "durationTicks": 96,
          "midi": 42,
          "name": "F#2",
          "ticks": 130177,
          "time": 180.00122974218752,
          "velocity": 0.4330708661417323
        },
        {
          "duration": 0.1327432500000043,
          "durationTicks": 96,
          "midi": 40,
          "name": "E2",
          "ticks": 130177,
          "time": 180.00122974218752,
          "velocity": 0.4330708661417323
        },
        {
          "duration": 0.1327432500000043,
          "durationTicks": 96,
          "midi": 38,
          "name": "D2",
          "ticks": 130273,
          "time": 180.13397299218752,
          "velocity": 0.4330708661417323
        },
        {
          "duration": 0.1327432500000043,
          "durationTicks": 96,
          "midi": 40,
          "name": "E2",
          "ticks": 130273,
          "time": 180.13397299218752,
          "velocity": 0.4330708661417323
        },
        {
          "duration": 0.1327432500000043,
          "durationTicks": 96,
          "midi": 38,
          "name": "D2",
          "ticks": 130369,
          "time": 180.26671624218753,
          "velocity": 0.4330708661417323
        },
        {
          "duration": 0.1327432500000043,
          "durationTicks": 96,
          "midi": 46,
          "name": "A#2",
          "ticks": 130369,
          "time": 180.26671624218753,
          "velocity": 0.4330708661417323
        },
        {
          "duration": 0.1327432500000043,
          "durationTicks": 96,
          "midi": 40,
          "name": "E2",
          "ticks": 130369,
          "time": 180.26671624218753,
          "velocity": 0.4330708661417323
        },
        {
          "duration": 0.1327432499999759,
          "durationTicks": 96,
          "midi": 38,
          "name": "D2",
          "ticks": 130465,
          "time": 180.39945949218753,
          "velocity": 0.4330708661417323
        },
        {
          "duration": 0.1327432499999759,
          "durationTicks": 96,
          "midi": 40,
          "name": "E2",
          "ticks": 130465,
          "time": 180.39945949218753,
          "velocity": 0.4330708661417323
        },
        {
          "duration": 0.1327432500000043,
          "durationTicks": 96,
          "midi": 36,
          "name": "C2",
          "ticks": 130561,
          "time": 180.5322027421875,
          "velocity": 0.4330708661417323
        },
        {
          "duration": 0.1327432500000043,
          "durationTicks": 96,
          "midi": 42,
          "name": "F#2",
          "ticks": 130561,
          "time": 180.5322027421875,
          "velocity": 0.4330708661417323
        },
        {
          "duration": 0.1327432500000043,
          "durationTicks": 96,
          "midi": 42,
          "name": "F#2",
          "ticks": 130753,
          "time": 180.79768924218752,
          "velocity": 0.4330708661417323
        },
        {
          "duration": 0.1327432500000043,
          "durationTicks": 96,
          "midi": 42,
          "name": "F#2",
          "ticks": 130849,
          "time": 180.93043249218752,
          "velocity": 0.4330708661417323
        },
        {
          "duration": 0.1327432500000043,
          "durationTicks": 96,
          "midi": 39,
          "name": "D#2",
          "ticks": 130945,
          "time": 181.06317574218752,
          "velocity": 0.4330708661417323
        },
        {
          "duration": 0.1327432500000043,
          "durationTicks": 96,
          "midi": 36,
          "name": "C2",
          "ticks": 130945,
          "time": 181.06317574218752,
          "velocity": 0.4330708661417323
        },
        {
          "duration": 0.1327432500000043,
          "durationTicks": 96,
          "midi": 38,
          "name": "D2",
          "ticks": 130945,
          "time": 181.06317574218752,
          "velocity": 0.4330708661417323
        },
        {
          "duration": 0.1327432500000043,
          "durationTicks": 96,
          "midi": 42,
          "name": "F#2",
          "ticks": 130945,
          "time": 181.06317574218752,
          "velocity": 0.4330708661417323
        },
        {
          "duration": 0.1327432499999759,
          "durationTicks": 96,
          "midi": 42,
          "name": "F#2",
          "ticks": 131137,
          "time": 181.32866224218753,
          "velocity": 0.4330708661417323
        },
        {
          "duration": 0.1327432500000043,
          "durationTicks": 96,
          "midi": 42,
          "name": "F#2",
          "ticks": 131233,
          "time": 181.4614054921875,
          "velocity": 0.4330708661417323
        },
        {
          "duration": 0.1327432500000043,
          "durationTicks": 96,
          "midi": 36,
          "name": "C2",
          "ticks": 131329,
          "time": 181.5941487421875,
          "velocity": 0.4330708661417323
        },
        {
          "duration": 0.1327432500000043,
          "durationTicks": 96,
          "midi": 42,
          "name": "F#2",
          "ticks": 131329,
          "time": 181.5941487421875,
          "velocity": 0.4330708661417323
        },
        {
          "duration": 0.1327432500000043,
          "durationTicks": 96,
          "midi": 42,
          "name": "F#2",
          "ticks": 131521,
          "time": 181.85963524218752,
          "velocity": 0.4330708661417323
        },
        {
          "duration": 0.1327432500000043,
          "durationTicks": 96,
          "midi": 42,
          "name": "F#2",
          "ticks": 131617,
          "time": 181.99237849218753,
          "velocity": 0.4330708661417323
        },
        {
          "duration": 0.1327432499999759,
          "durationTicks": 96,
          "midi": 39,
          "name": "D#2",
          "ticks": 131713,
          "time": 182.12512174218753,
          "velocity": 0.4330708661417323
        },
        {
          "duration": 0.1327432499999759,
          "durationTicks": 96,
          "midi": 36,
          "name": "C2",
          "ticks": 131713,
          "time": 182.12512174218753,
          "velocity": 0.4330708661417323
        },
        {
          "duration": 0.1327432499999759,
          "durationTicks": 96,
          "midi": 38,
          "name": "D2",
          "ticks": 131713,
          "time": 182.12512174218753,
          "velocity": 0.4330708661417323
        },
        {
          "duration": 0.1327432499999759,
          "durationTicks": 96,
          "midi": 42,
          "name": "F#2",
          "ticks": 131713,
          "time": 182.12512174218753,
          "velocity": 0.4330708661417323
        },
        {
          "duration": 0.1327432500000043,
          "durationTicks": 96,
          "midi": 42,
          "name": "F#2",
          "ticks": 131905,
          "time": 182.3906082421875,
          "velocity": 0.4330708661417323
        },
        {
          "duration": 0.1327432500000043,
          "durationTicks": 96,
          "midi": 42,
          "name": "F#2",
          "ticks": 132001,
          "time": 182.52335149218752,
          "velocity": 0.4330708661417323
        },
        {
          "duration": 0.1327432500000043,
          "durationTicks": 96,
          "midi": 36,
          "name": "C2",
          "ticks": 132097,
          "time": 182.65609474218752,
          "velocity": 0.4330708661417323
        },
        {
          "duration": 0.1327432500000043,
          "durationTicks": 96,
          "midi": 42,
          "name": "F#2",
          "ticks": 132097,
          "time": 182.65609474218752,
          "velocity": 0.4330708661417323
        },
        {
          "duration": 0.1327432500000043,
          "durationTicks": 96,
          "midi": 42,
          "name": "F#2",
          "ticks": 132289,
          "time": 182.92158124218753,
          "velocity": 0.4330708661417323
        },
        {
          "duration": 0.1327432499999759,
          "durationTicks": 96,
          "midi": 42,
          "name": "F#2",
          "ticks": 132385,
          "time": 183.05432449218753,
          "velocity": 0.4330708661417323
        },
        {
          "duration": 0.1327432500000043,
          "durationTicks": 96,
          "midi": 39,
          "name": "D#2",
          "ticks": 132481,
          "time": 183.1870677421875,
          "velocity": 0.4330708661417323
        },
        {
          "duration": 0.1327432500000043,
          "durationTicks": 96,
          "midi": 36,
          "name": "C2",
          "ticks": 132481,
          "time": 183.1870677421875,
          "velocity": 0.4330708661417323
        },
        {
          "duration": 0.1327432500000043,
          "durationTicks": 96,
          "midi": 38,
          "name": "D2",
          "ticks": 132481,
          "time": 183.1870677421875,
          "velocity": 0.4330708661417323
        },
        {
          "duration": 0.1327432500000043,
          "durationTicks": 96,
          "midi": 42,
          "name": "F#2",
          "ticks": 132481,
          "time": 183.1870677421875,
          "velocity": 0.4330708661417323
        },
        {
          "duration": 0.1327432500000043,
          "durationTicks": 96,
          "midi": 42,
          "name": "F#2",
          "ticks": 132673,
          "time": 183.45255424218752,
          "velocity": 0.4330708661417323
        },
        {
          "duration": 0.1327432500000043,
          "durationTicks": 96,
          "midi": 42,
          "name": "F#2",
          "ticks": 132769,
          "time": 183.58529749218752,
          "velocity": 0.4330708661417323
        },
        {
          "duration": 0.1327432500000043,
          "durationTicks": 96,
          "midi": 36,
          "name": "C2",
          "ticks": 132865,
          "time": 183.71804074218753,
          "velocity": 0.4330708661417323
        },
        {
          "duration": 0.1327432500000043,
          "durationTicks": 96,
          "midi": 42,
          "name": "F#2",
          "ticks": 132865,
          "time": 183.71804074218753,
          "velocity": 0.4330708661417323
        },
        {
          "duration": 0.1327432500000043,
          "durationTicks": 96,
          "midi": 42,
          "name": "F#2",
          "ticks": 133057,
          "time": 183.9835272421875,
          "velocity": 0.4330708661417323
        },
        {
          "duration": 0.1327432500000043,
          "durationTicks": 96,
          "midi": 42,
          "name": "F#2",
          "ticks": 133153,
          "time": 184.1162704921875,
          "velocity": 0.4330708661417323
        },
        {
          "duration": 0.1327432500000043,
          "durationTicks": 96,
          "midi": 39,
          "name": "D#2",
          "ticks": 133249,
          "time": 184.24901374218751,
          "velocity": 0.4330708661417323
        },
        {
          "duration": 0.1327432500000043,
          "durationTicks": 96,
          "midi": 36,
          "name": "C2",
          "ticks": 133249,
          "time": 184.24901374218751,
          "velocity": 0.4330708661417323
        },
        {
          "duration": 0.1327432500000043,
          "durationTicks": 96,
          "midi": 38,
          "name": "D2",
          "ticks": 133249,
          "time": 184.24901374218751,
          "velocity": 0.4330708661417323
        },
        {
          "duration": 0.1327432500000043,
          "durationTicks": 96,
          "midi": 42,
          "name": "F#2",
          "ticks": 133249,
          "time": 184.24901374218751,
          "velocity": 0.4330708661417323
        },
        {
          "duration": 0.1327432500000043,
          "durationTicks": 96,
          "midi": 46,
          "name": "A#2",
          "ticks": 133441,
          "time": 184.51450024218752,
          "velocity": 0.4330708661417323
        },
        {
          "duration": 0.1327432499999759,
          "durationTicks": 96,
          "midi": 36,
          "name": "C2",
          "ticks": 133633,
          "time": 184.77998674218753,
          "velocity": 0.4330708661417323
        },
        {
          "duration": 0.1327432499999759,
          "durationTicks": 96,
          "midi": 42,
          "name": "F#2",
          "ticks": 133633,
          "time": 184.77998674218753,
          "velocity": 0.4330708661417323
        },
        {
          "duration": 0.1327432500000043,
          "durationTicks": 96,
          "midi": 42,
          "name": "F#2",
          "ticks": 133825,
          "time": 185.0454732421875,
          "velocity": 0.4330708661417323
        },
        {
          "duration": 0.1327432500000043,
          "durationTicks": 96,
          "midi": 42,
          "name": "F#2",
          "ticks": 133921,
          "time": 185.17821649218752,
          "velocity": 0.4330708661417323
        },
        {
          "duration": 0.1327432500000043,
          "durationTicks": 96,
          "midi": 39,
          "name": "D#2",
          "ticks": 134017,
          "time": 185.31095974218752,
          "velocity": 0.4330708661417323
        },
        {
          "duration": 0.1327432500000043,
          "durationTicks": 96,
          "midi": 36,
          "name": "C2",
          "ticks": 134017,
          "time": 185.31095974218752,
          "velocity": 0.4330708661417323
        },
        {
          "duration": 0.1327432500000043,
          "durationTicks": 96,
          "midi": 38,
          "name": "D2",
          "ticks": 134017,
          "time": 185.31095974218752,
          "velocity": 0.4330708661417323
        },
        {
          "duration": 0.1327432500000043,
          "durationTicks": 96,
          "midi": 42,
          "name": "F#2",
          "ticks": 134017,
          "time": 185.31095974218752,
          "velocity": 0.4330708661417323
        },
        {
          "duration": 0.1327432500000043,
          "durationTicks": 96,
          "midi": 42,
          "name": "F#2",
          "ticks": 134209,
          "time": 185.57644624218753,
          "velocity": 0.4330708661417323
        },
        {
          "duration": 0.1327432499999759,
          "durationTicks": 96,
          "midi": 42,
          "name": "F#2",
          "ticks": 134305,
          "time": 185.70918949218753,
          "velocity": 0.4330708661417323
        },
        {
          "duration": 0.1327432500000043,
          "durationTicks": 96,
          "midi": 36,
          "name": "C2",
          "ticks": 134401,
          "time": 185.8419327421875,
          "velocity": 0.4330708661417323
        },
        {
          "duration": 0.1327432500000043,
          "durationTicks": 96,
          "midi": 42,
          "name": "F#2",
          "ticks": 134401,
          "time": 185.8419327421875,
          "velocity": 0.4330708661417323
        },
        {
          "duration": 0.1327432500000043,
          "durationTicks": 96,
          "midi": 42,
          "name": "F#2",
          "ticks": 134593,
          "time": 186.10741924218752,
          "velocity": 0.4330708661417323
        },
        {
          "duration": 0.1327432500000043,
          "durationTicks": 96,
          "midi": 42,
          "name": "F#2",
          "ticks": 134689,
          "time": 186.24016249218752,
          "velocity": 0.4330708661417323
        },
        {
          "duration": 0.1327432500000043,
          "durationTicks": 96,
          "midi": 39,
          "name": "D#2",
          "ticks": 134785,
          "time": 186.37290574218753,
          "velocity": 0.4330708661417323
        },
        {
          "duration": 0.1327432500000043,
          "durationTicks": 96,
          "midi": 36,
          "name": "C2",
          "ticks": 134785,
          "time": 186.37290574218753,
          "velocity": 0.4330708661417323
        },
        {
          "duration": 0.1327432500000043,
          "durationTicks": 96,
          "midi": 38,
          "name": "D2",
          "ticks": 134785,
          "time": 186.37290574218753,
          "velocity": 0.4330708661417323
        },
        {
          "duration": 0.1327432500000043,
          "durationTicks": 96,
          "midi": 42,
          "name": "F#2",
          "ticks": 134785,
          "time": 186.37290574218753,
          "velocity": 0.4330708661417323
        },
        {
          "duration": 0.1327432500000043,
          "durationTicks": 96,
          "midi": 42,
          "name": "F#2",
          "ticks": 134977,
          "time": 186.6383922421875,
          "velocity": 0.4330708661417323
        },
        {
          "duration": 0.1327432500000043,
          "durationTicks": 96,
          "midi": 42,
          "name": "F#2",
          "ticks": 135073,
          "time": 186.7711354921875,
          "velocity": 0.4330708661417323
        },
        {
          "duration": 0.1327432500000043,
          "durationTicks": 96,
          "midi": 36,
          "name": "C2",
          "ticks": 135169,
          "time": 186.90387874218752,
          "velocity": 0.4330708661417323
        },
        {
          "duration": 0.1327432500000043,
          "durationTicks": 96,
          "midi": 42,
          "name": "F#2",
          "ticks": 135169,
          "time": 186.90387874218752,
          "velocity": 0.4330708661417323
        },
        {
          "duration": 0.1327432500000043,
          "durationTicks": 96,
          "midi": 42,
          "name": "F#2",
          "ticks": 135361,
          "time": 187.16936524218752,
          "velocity": 0.4330708661417323
        },
        {
          "duration": 0.1327432500000043,
          "durationTicks": 96,
          "midi": 42,
          "name": "F#2",
          "ticks": 135457,
          "time": 187.30210849218753,
          "velocity": 0.4330708661417323
        },
        {
          "duration": 0.1327432499999759,
          "durationTicks": 96,
          "midi": 39,
          "name": "D#2",
          "ticks": 135553,
          "time": 187.43485174218753,
          "velocity": 0.4330708661417323
        },
        {
          "duration": 0.1327432499999759,
          "durationTicks": 96,
          "midi": 36,
          "name": "C2",
          "ticks": 135553,
          "time": 187.43485174218753,
          "velocity": 0.4330708661417323
        },
        {
          "duration": 0.1327432499999759,
          "durationTicks": 96,
          "midi": 38,
          "name": "D2",
          "ticks": 135553,
          "time": 187.43485174218753,
          "velocity": 0.4330708661417323
        },
        {
          "duration": 0.1327432499999759,
          "durationTicks": 96,
          "midi": 42,
          "name": "F#2",
          "ticks": 135553,
          "time": 187.43485174218753,
          "velocity": 0.4330708661417323
        },
        {
          "duration": 0.1327432500000043,
          "durationTicks": 96,
          "midi": 46,
          "name": "A#2",
          "ticks": 135745,
          "time": 187.7003382421875,
          "velocity": 0.4330708661417323
        },
        {
          "duration": 0.1327432500000043,
          "durationTicks": 96,
          "midi": 36,
          "name": "C2",
          "ticks": 135937,
          "time": 187.96582474218752,
          "velocity": 0.4330708661417323
        },
        {
          "duration": 0.1327432500000043,
          "durationTicks": 96,
          "midi": 42,
          "name": "F#2",
          "ticks": 135937,
          "time": 187.96582474218752,
          "velocity": 0.4330708661417323
        },
        {
          "duration": 0.1327432499999759,
          "durationTicks": 96,
          "midi": 42,
          "name": "F#2",
          "ticks": 136129,
          "time": 188.23131124218753,
          "velocity": 0.4330708661417323
        },
        {
          "duration": 0.1327432500000043,
          "durationTicks": 96,
          "midi": 42,
          "name": "F#2",
          "ticks": 136225,
          "time": 188.3640544921875,
          "velocity": 0.4330708661417323
        },
        {
          "duration": 0.1327432500000043,
          "durationTicks": 96,
          "midi": 39,
          "name": "D#2",
          "ticks": 136321,
          "time": 188.4967977421875,
          "velocity": 0.4330708661417323
        },
        {
          "duration": 0.1327432500000043,
          "durationTicks": 96,
          "midi": 36,
          "name": "C2",
          "ticks": 136321,
          "time": 188.4967977421875,
          "velocity": 0.4330708661417323
        },
        {
          "duration": 0.1327432500000043,
          "durationTicks": 96,
          "midi": 38,
          "name": "D2",
          "ticks": 136321,
          "time": 188.4967977421875,
          "velocity": 0.4330708661417323
        },
        {
          "duration": 0.1327432500000043,
          "durationTicks": 96,
          "midi": 42,
          "name": "F#2",
          "ticks": 136321,
          "time": 188.4967977421875,
          "velocity": 0.4330708661417323
        },
        {
          "duration": 0.1327432500000043,
          "durationTicks": 96,
          "midi": 39,
          "name": "D#2",
          "ticks": 136417,
          "time": 188.62954099218751,
          "velocity": 0.4330708661417323
        },
        {
          "duration": 0.1327432500000043,
          "durationTicks": 96,
          "midi": 39,
          "name": "D#2",
          "ticks": 136513,
          "time": 188.76228424218752,
          "velocity": 0.4330708661417323
        },
        {
          "duration": 0.1327432500000043,
          "durationTicks": 96,
          "midi": 46,
          "name": "A#2",
          "ticks": 136513,
          "time": 188.76228424218752,
          "velocity": 0.4330708661417323
        },
        {
          "duration": 0.1327432500000043,
          "durationTicks": 96,
          "midi": 39,
          "name": "D#2",
          "ticks": 136609,
          "time": 188.89502749218752,
          "velocity": 0.4330708661417323
        },
        {
          "duration": 0.1327432500000043,
          "durationTicks": 96,
          "midi": 36,
          "name": "C2",
          "ticks": 136705,
          "time": 189.02777074218753,
          "velocity": 0.4330708661417323
        },
        {
          "duration": 0.1327432500000043,
          "durationTicks": 96,
          "midi": 42,
          "name": "F#2",
          "ticks": 136705,
          "time": 189.02777074218753,
          "velocity": 0.4330708661417323
        },
        {
          "duration": 0.1327432500000043,
          "durationTicks": 96,
          "midi": 42,
          "name": "F#2",
          "ticks": 136897,
          "time": 189.2932572421875,
          "velocity": 0.4330708661417323
        },
        {
          "duration": 0.1327432500000043,
          "durationTicks": 96,
          "midi": 42,
          "name": "F#2",
          "ticks": 136993,
          "time": 189.4260004921875,
          "velocity": 0.4330708661417323
        },
        {
          "duration": 0.1327432500000043,
          "durationTicks": 96,
          "midi": 39,
          "name": "D#2",
          "ticks": 137089,
          "time": 189.55874374218752,
          "velocity": 0.4330708661417323
        },
        {
          "duration": 0.1327432500000043,
          "durationTicks": 96,
          "midi": 36,
          "name": "C2",
          "ticks": 137089,
          "time": 189.55874374218752,
          "velocity": 0.4330708661417323
        },
        {
          "duration": 0.1327432500000043,
          "durationTicks": 96,
          "midi": 38,
          "name": "D2",
          "ticks": 137089,
          "time": 189.55874374218752,
          "velocity": 0.4330708661417323
        },
        {
          "duration": 0.1327432500000043,
          "durationTicks": 96,
          "midi": 42,
          "name": "F#2",
          "ticks": 137089,
          "time": 189.55874374218752,
          "velocity": 0.4330708661417323
        },
        {
          "duration": 0.1327432500000043,
          "durationTicks": 96,
          "midi": 42,
          "name": "F#2",
          "ticks": 137281,
          "time": 189.82423024218753,
          "velocity": 0.4330708661417323
        },
        {
          "duration": 0.1327432500000043,
          "durationTicks": 96,
          "midi": 42,
          "name": "F#2",
          "ticks": 137377,
          "time": 189.95697349218753,
          "velocity": 0.4330708661417323
        },
        {
          "duration": 0.1327432499999759,
          "durationTicks": 96,
          "midi": 36,
          "name": "C2",
          "ticks": 137473,
          "time": 190.08971674218753,
          "velocity": 0.4330708661417323
        },
        {
          "duration": 0.1327432499999759,
          "durationTicks": 96,
          "midi": 42,
          "name": "F#2",
          "ticks": 137473,
          "time": 190.08971674218753,
          "velocity": 0.4330708661417323
        },
        {
          "duration": 0.1327432500000043,
          "durationTicks": 96,
          "midi": 42,
          "name": "F#2",
          "ticks": 137665,
          "time": 190.3552032421875,
          "velocity": 0.4330708661417323
        },
        {
          "duration": 0.1327432500000043,
          "durationTicks": 96,
          "midi": 42,
          "name": "F#2",
          "ticks": 137761,
          "time": 190.48794649218752,
          "velocity": 0.4330708661417323
        },
        {
          "duration": 0.1327432500000043,
          "durationTicks": 96,
          "midi": 39,
          "name": "D#2",
          "ticks": 137857,
          "time": 190.62068974218752,
          "velocity": 0.4330708661417323
        },
        {
          "duration": 0.1327432500000043,
          "durationTicks": 96,
          "midi": 36,
          "name": "C2",
          "ticks": 137857,
          "time": 190.62068974218752,
          "velocity": 0.4330708661417323
        },
        {
          "duration": 0.1327432500000043,
          "durationTicks": 96,
          "midi": 38,
          "name": "D2",
          "ticks": 137857,
          "time": 190.62068974218752,
          "velocity": 0.4330708661417323
        },
        {
          "duration": 0.1327432500000043,
          "durationTicks": 96,
          "midi": 42,
          "name": "F#2",
          "ticks": 137857,
          "time": 190.62068974218752,
          "velocity": 0.4330708661417323
        },
        {
          "duration": 0.1327432499999759,
          "durationTicks": 96,
          "midi": 42,
          "name": "F#2",
          "ticks": 138049,
          "time": 190.88617624218753,
          "velocity": 0.4330708661417323
        },
        {
          "duration": 0.1327432500000043,
          "durationTicks": 96,
          "midi": 42,
          "name": "F#2",
          "ticks": 138145,
          "time": 191.0189194921875,
          "velocity": 0.4330708661417323
        },
        {
          "duration": 0.1327432500000043,
          "durationTicks": 96,
          "midi": 36,
          "name": "C2",
          "ticks": 138241,
          "time": 191.1516627421875,
          "velocity": 0.4330708661417323
        },
        {
          "duration": 0.1327432500000043,
          "durationTicks": 96,
          "midi": 42,
          "name": "F#2",
          "ticks": 138241,
          "time": 191.1516627421875,
          "velocity": 0.4330708661417323
        },
        {
          "duration": 0.1327432500000043,
          "durationTicks": 96,
          "midi": 42,
          "name": "F#2",
          "ticks": 138433,
          "time": 191.41714924218752,
          "velocity": 0.4330708661417323
        },
        {
          "duration": 0.1327432500000043,
          "durationTicks": 96,
          "midi": 42,
          "name": "F#2",
          "ticks": 138529,
          "time": 191.54989249218752,
          "velocity": 0.4330708661417323
        },
        {
          "duration": 0.1327432500000043,
          "durationTicks": 96,
          "midi": 39,
          "name": "D#2",
          "ticks": 138625,
          "time": 191.68263574218753,
          "velocity": 0.4330708661417323
        },
        {
          "duration": 0.1327432500000043,
          "durationTicks": 96,
          "midi": 36,
          "name": "C2",
          "ticks": 138625,
          "time": 191.68263574218753,
          "velocity": 0.4330708661417323
        },
        {
          "duration": 0.1327432500000043,
          "durationTicks": 96,
          "midi": 38,
          "name": "D2",
          "ticks": 138625,
          "time": 191.68263574218753,
          "velocity": 0.4330708661417323
        },
        {
          "duration": 0.1327432500000043,
          "durationTicks": 96,
          "midi": 42,
          "name": "F#2",
          "ticks": 138625,
          "time": 191.68263574218753,
          "velocity": 0.4330708661417323
        },
        {
          "duration": 0.1327432500000043,
          "durationTicks": 96,
          "midi": 42,
          "name": "F#2",
          "ticks": 138817,
          "time": 191.9481222421875,
          "velocity": 0.4330708661417323
        },
        {
          "duration": 0.1327432500000043,
          "durationTicks": 96,
          "midi": 42,
          "name": "F#2",
          "ticks": 138913,
          "time": 192.0808654921875,
          "velocity": 0.4330708661417323
        },
        {
          "duration": 0.1327432500000043,
          "durationTicks": 96,
          "midi": 36,
          "name": "C2",
          "ticks": 139009,
          "time": 192.21360874218752,
          "velocity": 0.4330708661417323
        },
        {
          "duration": 0.1327432500000043,
          "durationTicks": 96,
          "midi": 42,
          "name": "F#2",
          "ticks": 139009,
          "time": 192.21360874218752,
          "velocity": 0.4330708661417323
        },
        {
          "duration": 0.1327432500000043,
          "durationTicks": 96,
          "midi": 42,
          "name": "F#2",
          "ticks": 139201,
          "time": 192.47909524218753,
          "velocity": 0.4330708661417323
        },
        {
          "duration": 0.1327432499999759,
          "durationTicks": 96,
          "midi": 42,
          "name": "F#2",
          "ticks": 139297,
          "time": 192.61183849218753,
          "velocity": 0.4330708661417323
        },
        {
          "duration": 0.1327432500000043,
          "durationTicks": 96,
          "midi": 39,
          "name": "D#2",
          "ticks": 139393,
          "time": 192.7445817421875,
          "velocity": 0.4330708661417323
        },
        {
          "duration": 0.1327432500000043,
          "durationTicks": 96,
          "midi": 36,
          "name": "C2",
          "ticks": 139393,
          "time": 192.7445817421875,
          "velocity": 0.4330708661417323
        },
        {
          "duration": 0.1327432500000043,
          "durationTicks": 96,
          "midi": 38,
          "name": "D2",
          "ticks": 139393,
          "time": 192.7445817421875,
          "velocity": 0.4330708661417323
        },
        {
          "duration": 0.1327432500000043,
          "durationTicks": 96,
          "midi": 42,
          "name": "F#2",
          "ticks": 139393,
          "time": 192.7445817421875,
          "velocity": 0.4330708661417323
        },
        {
          "duration": 0.1327432500000043,
          "durationTicks": 96,
          "midi": 46,
          "name": "A#2",
          "ticks": 139585,
          "time": 193.01006824218751,
          "velocity": 0.4330708661417323
        },
        {
          "duration": 0.1327432500000043,
          "durationTicks": 96,
          "midi": 36,
          "name": "C2",
          "ticks": 139777,
          "time": 193.27555474218752,
          "velocity": 0.4330708661417323
        },
        {
          "duration": 0.1327432500000043,
          "durationTicks": 96,
          "midi": 42,
          "name": "F#2",
          "ticks": 139777,
          "time": 193.27555474218752,
          "velocity": 0.4330708661417323
        },
        {
          "duration": 0.1327432499999759,
          "durationTicks": 96,
          "midi": 42,
          "name": "F#2",
          "ticks": 139969,
          "time": 193.54104124218753,
          "velocity": 0.4330708661417323
        },
        {
          "duration": 0.1327432500000043,
          "durationTicks": 96,
          "midi": 42,
          "name": "F#2",
          "ticks": 140065,
          "time": 193.6737844921875,
          "velocity": 0.4330708661417323
        },
        {
          "duration": 0.1327432500000043,
          "durationTicks": 96,
          "midi": 39,
          "name": "D#2",
          "ticks": 140161,
          "time": 193.8065277421875,
          "velocity": 0.4330708661417323
        },
        {
          "duration": 0.1327432500000043,
          "durationTicks": 96,
          "midi": 36,
          "name": "C2",
          "ticks": 140161,
          "time": 193.8065277421875,
          "velocity": 0.4330708661417323
        },
        {
          "duration": 0.1327432500000043,
          "durationTicks": 96,
          "midi": 38,
          "name": "D2",
          "ticks": 140161,
          "time": 193.8065277421875,
          "velocity": 0.4330708661417323
        },
        {
          "duration": 0.1327432500000043,
          "durationTicks": 96,
          "midi": 42,
          "name": "F#2",
          "ticks": 140161,
          "time": 193.8065277421875,
          "velocity": 0.4330708661417323
        },
        {
          "duration": 0.1327432500000043,
          "durationTicks": 96,
          "midi": 42,
          "name": "F#2",
          "ticks": 140353,
          "time": 194.07201424218752,
          "velocity": 0.4330708661417323
        },
        {
          "duration": 0.1327432500000043,
          "durationTicks": 96,
          "midi": 42,
          "name": "F#2",
          "ticks": 140449,
          "time": 194.20475749218753,
          "velocity": 0.4330708661417323
        },
        {
          "duration": 0.1327432500000043,
          "durationTicks": 96,
          "midi": 36,
          "name": "C2",
          "ticks": 140545,
          "time": 194.33750074218753,
          "velocity": 0.4330708661417323
        },
        {
          "duration": 0.1327432500000043,
          "durationTicks": 96,
          "midi": 42,
          "name": "F#2",
          "ticks": 140545,
          "time": 194.33750074218753,
          "velocity": 0.4330708661417323
        },
        {
          "duration": 0.1327432500000043,
          "durationTicks": 96,
          "midi": 42,
          "name": "F#2",
          "ticks": 140737,
          "time": 194.6029872421875,
          "velocity": 0.4330708661417323
        },
        {
          "duration": 0.1327432500000043,
          "durationTicks": 96,
          "midi": 42,
          "name": "F#2",
          "ticks": 140833,
          "time": 194.7357304921875,
          "velocity": 0.4330708661417323
        },
        {
          "duration": 0.1327432500000043,
          "durationTicks": 96,
          "midi": 39,
          "name": "D#2",
          "ticks": 140929,
          "time": 194.86847374218752,
          "velocity": 0.4330708661417323
        },
        {
          "duration": 0.1327432500000043,
          "durationTicks": 96,
          "midi": 36,
          "name": "C2",
          "ticks": 140929,
          "time": 194.86847374218752,
          "velocity": 0.4330708661417323
        },
        {
          "duration": 0.1327432500000043,
          "durationTicks": 96,
          "midi": 38,
          "name": "D2",
          "ticks": 140929,
          "time": 194.86847374218752,
          "velocity": 0.4330708661417323
        },
        {
          "duration": 0.1327432500000043,
          "durationTicks": 96,
          "midi": 42,
          "name": "F#2",
          "ticks": 140929,
          "time": 194.86847374218752,
          "velocity": 0.4330708661417323
        },
        {
          "duration": 0.1327432500000043,
          "durationTicks": 96,
          "midi": 42,
          "name": "F#2",
          "ticks": 141121,
          "time": 195.13396024218753,
          "velocity": 0.4330708661417323
        },
        {
          "duration": 0.1327432499999759,
          "durationTicks": 96,
          "midi": 42,
          "name": "F#2",
          "ticks": 141217,
          "time": 195.26670349218753,
          "velocity": 0.4330708661417323
        },
        {
          "duration": 0.1327432500000043,
          "durationTicks": 96,
          "midi": 36,
          "name": "C2",
          "ticks": 141313,
          "time": 195.3994467421875,
          "velocity": 0.4330708661417323
        },
        {
          "duration": 0.1327432500000043,
          "durationTicks": 96,
          "midi": 42,
          "name": "F#2",
          "ticks": 141313,
          "time": 195.3994467421875,
          "velocity": 0.4330708661417323
        },
        {
          "duration": 0.1327432500000043,
          "durationTicks": 96,
          "midi": 42,
          "name": "F#2",
          "ticks": 141505,
          "time": 195.66493324218752,
          "velocity": 0.4330708661417323
        },
        {
          "duration": 0.1327432500000043,
          "durationTicks": 96,
          "midi": 42,
          "name": "F#2",
          "ticks": 141601,
          "time": 195.79767649218752,
          "velocity": 0.4330708661417323
        },
        {
          "duration": 0.1327432500000043,
          "durationTicks": 96,
          "midi": 39,
          "name": "D#2",
          "ticks": 141697,
          "time": 195.93041974218752,
          "velocity": 0.4330708661417323
        },
        {
          "duration": 0.1327432500000043,
          "durationTicks": 96,
          "midi": 36,
          "name": "C2",
          "ticks": 141697,
          "time": 195.93041974218752,
          "velocity": 0.4330708661417323
        },
        {
          "duration": 0.1327432500000043,
          "durationTicks": 96,
          "midi": 38,
          "name": "D2",
          "ticks": 141697,
          "time": 195.93041974218752,
          "velocity": 0.4330708661417323
        },
        {
          "duration": 0.1327432500000043,
          "durationTicks": 96,
          "midi": 42,
          "name": "F#2",
          "ticks": 141697,
          "time": 195.93041974218752,
          "velocity": 0.4330708661417323
        },
        {
          "duration": 0.1327432499999759,
          "durationTicks": 96,
          "midi": 46,
          "name": "A#2",
          "ticks": 141889,
          "time": 196.19590624218753,
          "velocity": 0.4330708661417323
        },
        {
          "duration": 0.1327432500000043,
          "durationTicks": 96,
          "midi": 36,
          "name": "C2",
          "ticks": 142081,
          "time": 196.4613927421875,
          "velocity": 0.4330708661417323
        },
        {
          "duration": 0.1327432500000043,
          "durationTicks": 96,
          "midi": 42,
          "name": "F#2",
          "ticks": 142081,
          "time": 196.4613927421875,
          "velocity": 0.4330708661417323
        },
        {
          "duration": 0.1327432500000043,
          "durationTicks": 96,
          "midi": 42,
          "name": "F#2",
          "ticks": 142273,
          "time": 196.72687924218752,
          "velocity": 0.4330708661417323
        },
        {
          "duration": 0.1327432500000043,
          "durationTicks": 96,
          "midi": 42,
          "name": "F#2",
          "ticks": 142369,
          "time": 196.85962249218753,
          "velocity": 0.4330708661417323
        },
        {
          "duration": 0.1327432499999759,
          "durationTicks": 96,
          "midi": 39,
          "name": "D#2",
          "ticks": 142465,
          "time": 196.99236574218753,
          "velocity": 0.4330708661417323
        },
        {
          "duration": 0.1327432499999759,
          "durationTicks": 96,
          "midi": 36,
          "name": "C2",
          "ticks": 142465,
          "time": 196.99236574218753,
          "velocity": 0.4330708661417323
        },
        {
          "duration": 0.1327432499999759,
          "durationTicks": 96,
          "midi": 38,
          "name": "D2",
          "ticks": 142465,
          "time": 196.99236574218753,
          "velocity": 0.4330708661417323
        },
        {
          "duration": 0.1327432499999759,
          "durationTicks": 96,
          "midi": 42,
          "name": "F#2",
          "ticks": 142465,
          "time": 196.99236574218753,
          "velocity": 0.4330708661417323
        },
        {
          "duration": 0.1327432500000043,
          "durationTicks": 96,
          "midi": 39,
          "name": "D#2",
          "ticks": 142561,
          "time": 197.1251089921875,
          "velocity": 0.4330708661417323
        },
        {
          "duration": 0.1327432500000043,
          "durationTicks": 96,
          "midi": 39,
          "name": "D#2",
          "ticks": 142657,
          "time": 197.2578522421875,
          "velocity": 0.4330708661417323
        },
        {
          "duration": 0.1327432500000043,
          "durationTicks": 96,
          "midi": 46,
          "name": "A#2",
          "ticks": 142657,
          "time": 197.2578522421875,
          "velocity": 0.4330708661417323
        },
        {
          "duration": 0.1327432500000043,
          "durationTicks": 96,
          "midi": 39,
          "name": "D#2",
          "ticks": 142753,
          "time": 197.39059549218751,
          "velocity": 0.4330708661417323
        },
        {
          "duration": 0.1327432500000043,
          "durationTicks": 96,
          "midi": 36,
          "name": "C2",
          "ticks": 142849,
          "time": 197.52333874218752,
          "velocity": 0.4330708661417323
        },
        {
          "duration": 0.1327432500000043,
          "durationTicks": 96,
          "midi": 42,
          "name": "F#2",
          "ticks": 142849,
          "time": 197.52333874218752,
          "velocity": 0.4330708661417323
        },
        {
          "duration": 0.1327432500000043,
          "durationTicks": 96,
          "midi": 42,
          "name": "F#2",
          "ticks": 143041,
          "time": 197.78882524218753,
          "velocity": 0.4330708661417323
        },
        {
          "duration": 0.1327432499999759,
          "durationTicks": 96,
          "midi": 42,
          "name": "F#2",
          "ticks": 143137,
          "time": 197.92156849218753,
          "velocity": 0.4330708661417323
        },
        {
          "duration": 0.1327432500000043,
          "durationTicks": 96,
          "midi": 39,
          "name": "D#2",
          "ticks": 143233,
          "time": 198.0543117421875,
          "velocity": 0.4330708661417323
        },
        {
          "duration": 0.1327432500000043,
          "durationTicks": 96,
          "midi": 36,
          "name": "C2",
          "ticks": 143233,
          "time": 198.0543117421875,
          "velocity": 0.4330708661417323
        },
        {
          "duration": 0.1327432500000043,
          "durationTicks": 96,
          "midi": 38,
          "name": "D2",
          "ticks": 143233,
          "time": 198.0543117421875,
          "velocity": 0.4330708661417323
        },
        {
          "duration": 0.1327432500000043,
          "durationTicks": 96,
          "midi": 42,
          "name": "F#2",
          "ticks": 143233,
          "time": 198.0543117421875,
          "velocity": 0.4330708661417323
        },
        {
          "duration": 0.1327432500000043,
          "durationTicks": 96,
          "midi": 42,
          "name": "F#2",
          "ticks": 143425,
          "time": 198.31979824218752,
          "velocity": 0.4330708661417323
        },
        {
          "duration": 0.1327432500000043,
          "durationTicks": 96,
          "midi": 42,
          "name": "F#2",
          "ticks": 143521,
          "time": 198.45254149218752,
          "velocity": 0.4330708661417323
        },
        {
          "duration": 0.1327432500000043,
          "durationTicks": 96,
          "midi": 36,
          "name": "C2",
          "ticks": 143617,
          "time": 198.58528474218753,
          "velocity": 0.4330708661417323
        },
        {
          "duration": 0.1327432500000043,
          "durationTicks": 96,
          "midi": 42,
          "name": "F#2",
          "ticks": 143617,
          "time": 198.58528474218753,
          "velocity": 0.4330708661417323
        },
        {
          "duration": 0.1327432499999759,
          "durationTicks": 96,
          "midi": 42,
          "name": "F#2",
          "ticks": 143809,
          "time": 198.85077124218753,
          "velocity": 0.4330708661417323
        },
        {
          "duration": 0.1327432500000043,
          "durationTicks": 96,
          "midi": 42,
          "name": "F#2",
          "ticks": 143905,
          "time": 198.9835144921875,
          "velocity": 0.4330708661417323
        },
        {
          "duration": 0.1327432500000043,
          "durationTicks": 96,
          "midi": 39,
          "name": "D#2",
          "ticks": 144001,
          "time": 199.1162577421875,
          "velocity": 0.4330708661417323
        },
        {
          "duration": 0.1327432500000043,
          "durationTicks": 96,
          "midi": 36,
          "name": "C2",
          "ticks": 144001,
          "time": 199.1162577421875,
          "velocity": 0.4330708661417323
        },
        {
          "duration": 0.1327432500000043,
          "durationTicks": 96,
          "midi": 38,
          "name": "D2",
          "ticks": 144001,
          "time": 199.1162577421875,
          "velocity": 0.4330708661417323
        },
        {
          "duration": 0.1327432500000043,
          "durationTicks": 96,
          "midi": 42,
          "name": "F#2",
          "ticks": 144001,
          "time": 199.1162577421875,
          "velocity": 0.4330708661417323
        },
        {
          "duration": 0.1327432500000043,
          "durationTicks": 96,
          "midi": 42,
          "name": "F#2",
          "ticks": 144193,
          "time": 199.38174424218752,
          "velocity": 0.4330708661417323
        },
        {
          "duration": 0.1327432500000043,
          "durationTicks": 96,
          "midi": 42,
          "name": "F#2",
          "ticks": 144289,
          "time": 199.51448749218753,
          "velocity": 0.4330708661417323
        },
        {
          "duration": 0.1327432499999759,
          "durationTicks": 96,
          "midi": 36,
          "name": "C2",
          "ticks": 144385,
          "time": 199.64723074218753,
          "velocity": 0.4330708661417323
        },
        {
          "duration": 0.1327432499999759,
          "durationTicks": 96,
          "midi": 42,
          "name": "F#2",
          "ticks": 144385,
          "time": 199.64723074218753,
          "velocity": 0.4330708661417323
        },
        {
          "duration": 0.1327432500000043,
          "durationTicks": 96,
          "midi": 42,
          "name": "F#2",
          "ticks": 144577,
          "time": 199.9127172421875,
          "velocity": 0.4330708661417323
        },
        {
          "duration": 0.1327432500000043,
          "durationTicks": 96,
          "midi": 42,
          "name": "F#2",
          "ticks": 144673,
          "time": 200.04546049218752,
          "velocity": 0.4330708661417323
        },
        {
          "duration": 0.1327432500000043,
          "durationTicks": 96,
          "midi": 39,
          "name": "D#2",
          "ticks": 144769,
          "time": 200.17820374218752,
          "velocity": 0.4330708661417323
        },
        {
          "duration": 0.1327432500000043,
          "durationTicks": 96,
          "midi": 36,
          "name": "C2",
          "ticks": 144769,
          "time": 200.17820374218752,
          "velocity": 0.4330708661417323
        },
        {
          "duration": 0.1327432500000043,
          "durationTicks": 96,
          "midi": 38,
          "name": "D2",
          "ticks": 144769,
          "time": 200.17820374218752,
          "velocity": 0.4330708661417323
        },
        {
          "duration": 0.1327432500000043,
          "durationTicks": 96,
          "midi": 42,
          "name": "F#2",
          "ticks": 144769,
          "time": 200.17820374218752,
          "velocity": 0.4330708661417323
        },
        {
          "duration": 0.1327432500000043,
          "durationTicks": 96,
          "midi": 42,
          "name": "F#2",
          "ticks": 144961,
          "time": 200.44369024218753,
          "velocity": 0.4330708661417323
        },
        {
          "duration": 0.1327432499999759,
          "durationTicks": 96,
          "midi": 42,
          "name": "F#2",
          "ticks": 145057,
          "time": 200.57643349218753,
          "velocity": 0.4330708661417323
        },
        {
          "duration": 0.1327432500000043,
          "durationTicks": 96,
          "midi": 36,
          "name": "C2",
          "ticks": 145153,
          "time": 200.7091767421875,
          "velocity": 0.4330708661417323
        },
        {
          "duration": 0.1327432500000043,
          "durationTicks": 96,
          "midi": 42,
          "name": "F#2",
          "ticks": 145153,
          "time": 200.7091767421875,
          "velocity": 0.4330708661417323
        },
        {
          "duration": 0.1327432500000043,
          "durationTicks": 96,
          "midi": 42,
          "name": "F#2",
          "ticks": 145345,
          "time": 200.97466324218752,
          "velocity": 0.4330708661417323
        },
        {
          "duration": 0.1327432500000043,
          "durationTicks": 96,
          "midi": 42,
          "name": "F#2",
          "ticks": 145441,
          "time": 201.10740649218752,
          "velocity": 0.4330708661417323
        },
        {
          "duration": 0.1327432500000043,
          "durationTicks": 96,
          "midi": 39,
          "name": "D#2",
          "ticks": 145537,
          "time": 201.24014974218753,
          "velocity": 0.4330708661417323
        },
        {
          "duration": 0.1327432500000043,
          "durationTicks": 96,
          "midi": 36,
          "name": "C2",
          "ticks": 145537,
          "time": 201.24014974218753,
          "velocity": 0.4330708661417323
        },
        {
          "duration": 0.1327432500000043,
          "durationTicks": 96,
          "midi": 38,
          "name": "D2",
          "ticks": 145537,
          "time": 201.24014974218753,
          "velocity": 0.4330708661417323
        },
        {
          "duration": 0.1327432500000043,
          "durationTicks": 96,
          "midi": 42,
          "name": "F#2",
          "ticks": 145537,
          "time": 201.24014974218753,
          "velocity": 0.4330708661417323
        },
        {
          "duration": 0.1327432499999759,
          "durationTicks": 96,
          "midi": 46,
          "name": "A#2",
          "ticks": 145729,
          "time": 201.50563624218753,
          "velocity": 0.4330708661417323
        },
        {
          "duration": 0.1327432500000043,
          "durationTicks": 96,
          "midi": 36,
          "name": "C2",
          "ticks": 145921,
          "time": 201.77112274218752,
          "velocity": 0.4330708661417323
        },
        {
          "duration": 0.1327432500000043,
          "durationTicks": 96,
          "midi": 42,
          "name": "F#2",
          "ticks": 145921,
          "time": 201.77112274218752,
          "velocity": 0.4330708661417323
        },
        {
          "duration": 0.1327432500000043,
          "durationTicks": 96,
          "midi": 42,
          "name": "F#2",
          "ticks": 146113,
          "time": 202.03660924218752,
          "velocity": 0.4330708661417323
        },
        {
          "duration": 0.1327432500000043,
          "durationTicks": 96,
          "midi": 42,
          "name": "F#2",
          "ticks": 146209,
          "time": 202.16935249218753,
          "velocity": 0.4330708661417323
        },
        {
          "duration": 0.1327432499999759,
          "durationTicks": 96,
          "midi": 39,
          "name": "D#2",
          "ticks": 146305,
          "time": 202.30209574218753,
          "velocity": 0.4330708661417323
        },
        {
          "duration": 0.1327432499999759,
          "durationTicks": 96,
          "midi": 36,
          "name": "C2",
          "ticks": 146305,
          "time": 202.30209574218753,
          "velocity": 0.4330708661417323
        },
        {
          "duration": 0.1327432499999759,
          "durationTicks": 96,
          "midi": 38,
          "name": "D2",
          "ticks": 146305,
          "time": 202.30209574218753,
          "velocity": 0.4330708661417323
        },
        {
          "duration": 0.1327432499999759,
          "durationTicks": 96,
          "midi": 42,
          "name": "F#2",
          "ticks": 146305,
          "time": 202.30209574218753,
          "velocity": 0.4330708661417323
        },
        {
          "duration": 0.1327432500000043,
          "durationTicks": 96,
          "midi": 42,
          "name": "F#2",
          "ticks": 146497,
          "time": 202.5675822421875,
          "velocity": 0.4330708661417323
        },
        {
          "duration": 0.1327432500000043,
          "durationTicks": 96,
          "midi": 42,
          "name": "F#2",
          "ticks": 146593,
          "time": 202.70032549218752,
          "velocity": 0.4330708661417323
        },
        {
          "duration": 0.1327432500000043,
          "durationTicks": 96,
          "midi": 36,
          "name": "C2",
          "ticks": 146689,
          "time": 202.83306874218752,
          "velocity": 0.4330708661417323
        },
        {
          "duration": 0.1327432500000043,
          "durationTicks": 96,
          "midi": 42,
          "name": "F#2",
          "ticks": 146689,
          "time": 202.83306874218752,
          "velocity": 0.4330708661417323
        },
        {
          "duration": 0.1327432500000043,
          "durationTicks": 96,
          "midi": 42,
          "name": "F#2",
          "ticks": 146881,
          "time": 203.09855524218753,
          "velocity": 0.4330708661417323
        },
        {
          "duration": 0.1327432499999759,
          "durationTicks": 96,
          "midi": 42,
          "name": "F#2",
          "ticks": 146977,
          "time": 203.23129849218753,
          "velocity": 0.4330708661417323
        },
        {
          "duration": 0.1327432500000043,
          "durationTicks": 96,
          "midi": 39,
          "name": "D#2",
          "ticks": 147073,
          "time": 203.3640417421875,
          "velocity": 0.4330708661417323
        },
        {
          "duration": 0.1327432500000043,
          "durationTicks": 96,
          "midi": 36,
          "name": "C2",
          "ticks": 147073,
          "time": 203.3640417421875,
          "velocity": 0.4330708661417323
        },
        {
          "duration": 0.1327432500000043,
          "durationTicks": 96,
          "midi": 38,
          "name": "D2",
          "ticks": 147073,
          "time": 203.3640417421875,
          "velocity": 0.4330708661417323
        },
        {
          "duration": 0.1327432500000043,
          "durationTicks": 96,
          "midi": 42,
          "name": "F#2",
          "ticks": 147073,
          "time": 203.3640417421875,
          "velocity": 0.4330708661417323
        },
        {
          "duration": 0.1327432500000043,
          "durationTicks": 96,
          "midi": 42,
          "name": "F#2",
          "ticks": 147265,
          "time": 203.62952824218752,
          "velocity": 0.4330708661417323
        },
        {
          "duration": 0.1327432500000043,
          "durationTicks": 96,
          "midi": 42,
          "name": "F#2",
          "ticks": 147361,
          "time": 203.76227149218752,
          "velocity": 0.4330708661417323
        },
        {
          "duration": 0.1327432500000043,
          "durationTicks": 96,
          "midi": 36,
          "name": "C2",
          "ticks": 147457,
          "time": 203.89501474218753,
          "velocity": 0.4330708661417323
        },
        {
          "duration": 0.1327432500000043,
          "durationTicks": 96,
          "midi": 42,
          "name": "F#2",
          "ticks": 147457,
          "time": 203.89501474218753,
          "velocity": 0.4330708661417323
        },
        {
          "duration": 0.1327432500000043,
          "durationTicks": 96,
          "midi": 42,
          "name": "F#2",
          "ticks": 147649,
          "time": 204.1605012421875,
          "velocity": 0.4330708661417323
        },
        {
          "duration": 0.1327432500000043,
          "durationTicks": 96,
          "midi": 42,
          "name": "F#2",
          "ticks": 147745,
          "time": 204.2932444921875,
          "velocity": 0.4330708661417323
        },
        {
          "duration": 0.1327432500000043,
          "durationTicks": 96,
          "midi": 39,
          "name": "D#2",
          "ticks": 147841,
          "time": 204.42598774218752,
          "velocity": 0.4330708661417323
        },
        {
          "duration": 0.1327432500000043,
          "durationTicks": 96,
          "midi": 36,
          "name": "C2",
          "ticks": 147841,
          "time": 204.42598774218752,
          "velocity": 0.4330708661417323
        },
        {
          "duration": 0.1327432500000043,
          "durationTicks": 96,
          "midi": 38,
          "name": "D2",
          "ticks": 147841,
          "time": 204.42598774218752,
          "velocity": 0.4330708661417323
        },
        {
          "duration": 0.1327432500000043,
          "durationTicks": 96,
          "midi": 42,
          "name": "F#2",
          "ticks": 147841,
          "time": 204.42598774218752,
          "velocity": 0.4330708661417323
        },
        {
          "duration": 0.1327432500000043,
          "durationTicks": 96,
          "midi": 46,
          "name": "A#2",
          "ticks": 148033,
          "time": 204.69147424218752,
          "velocity": 0.4330708661417323
        },
        {
          "duration": 0.1327432499999759,
          "durationTicks": 96,
          "midi": 36,
          "name": "C2",
          "ticks": 148225,
          "time": 204.95696074218753,
          "velocity": 0.4330708661417323
        },
        {
          "duration": 0.1327432499999759,
          "durationTicks": 96,
          "midi": 42,
          "name": "F#2",
          "ticks": 148225,
          "time": 204.95696074218753,
          "velocity": 0.4330708661417323
        },
        {
          "duration": 0.1327432500000043,
          "durationTicks": 96,
          "midi": 42,
          "name": "F#2",
          "ticks": 148417,
          "time": 205.2224472421875,
          "velocity": 0.4330708661417323
        },
        {
          "duration": 0.1327432500000043,
          "durationTicks": 96,
          "midi": 42,
          "name": "F#2",
          "ticks": 148513,
          "time": 205.35519049218752,
          "velocity": 0.4330708661417323
        },
        {
          "duration": 0.1327432500000043,
          "durationTicks": 96,
          "midi": 39,
          "name": "D#2",
          "ticks": 148609,
          "time": 205.48793374218752,
          "velocity": 0.4330708661417323
        },
        {
          "duration": 0.1327432500000043,
          "durationTicks": 96,
          "midi": 36,
          "name": "C2",
          "ticks": 148609,
          "time": 205.48793374218752,
          "velocity": 0.4330708661417323
        },
        {
          "duration": 0.1327432500000043,
          "durationTicks": 96,
          "midi": 38,
          "name": "D2",
          "ticks": 148609,
          "time": 205.48793374218752,
          "velocity": 0.4330708661417323
        },
        {
          "duration": 0.1327432500000043,
          "durationTicks": 96,
          "midi": 42,
          "name": "F#2",
          "ticks": 148609,
          "time": 205.48793374218752,
          "velocity": 0.4330708661417323
        },
        {
          "duration": 0.1327432500000043,
          "durationTicks": 96,
          "midi": 39,
          "name": "D#2",
          "ticks": 148705,
          "time": 205.62067699218753,
          "velocity": 0.4330708661417323
        },
        {
          "duration": 0.1327432500000043,
          "durationTicks": 96,
          "midi": 39,
          "name": "D#2",
          "ticks": 148801,
          "time": 205.75342024218753,
          "velocity": 0.4330708661417323
        },
        {
          "duration": 0.1327432500000043,
          "durationTicks": 96,
          "midi": 46,
          "name": "A#2",
          "ticks": 148801,
          "time": 205.75342024218753,
          "velocity": 0.4330708661417323
        },
        {
          "duration": 0.1327432499999759,
          "durationTicks": 96,
          "midi": 39,
          "name": "D#2",
          "ticks": 148897,
          "time": 205.88616349218753,
          "velocity": 0.4330708661417323
        },
        {
          "duration": 0.1327432500000043,
          "durationTicks": 96,
          "midi": 36,
          "name": "C2",
          "ticks": 148993,
          "time": 206.0189067421875,
          "velocity": 0.4330708661417323
        },
        {
          "duration": 0.1327432500000043,
          "durationTicks": 96,
          "midi": 42,
          "name": "F#2",
          "ticks": 148993,
          "time": 206.0189067421875,
          "velocity": 0.4330708661417323
        },
        {
          "duration": 0.1327432500000043,
          "durationTicks": 96,
          "midi": 42,
          "name": "F#2",
          "ticks": 149185,
          "time": 206.28439324218752,
          "velocity": 0.4330708661417323
        },
        {
          "duration": 0.1327432500000043,
          "durationTicks": 96,
          "midi": 42,
          "name": "F#2",
          "ticks": 149281,
          "time": 206.41713649218752,
          "velocity": 0.4330708661417323
        },
        {
          "duration": 0.1327432500000043,
          "durationTicks": 96,
          "midi": 39,
          "name": "D#2",
          "ticks": 149377,
          "time": 206.54987974218753,
          "velocity": 0.4330708661417323
        },
        {
          "duration": 0.1327432500000043,
          "durationTicks": 96,
          "midi": 36,
          "name": "C2",
          "ticks": 149377,
          "time": 206.54987974218753,
          "velocity": 0.4330708661417323
        },
        {
          "duration": 0.1327432500000043,
          "durationTicks": 96,
          "midi": 38,
          "name": "D2",
          "ticks": 149377,
          "time": 206.54987974218753,
          "velocity": 0.4330708661417323
        },
        {
          "duration": 0.1327432500000043,
          "durationTicks": 96,
          "midi": 42,
          "name": "F#2",
          "ticks": 149377,
          "time": 206.54987974218753,
          "velocity": 0.4330708661417323
        },
        {
          "duration": 0.1327432500000043,
          "durationTicks": 96,
          "midi": 42,
          "name": "F#2",
          "ticks": 149569,
          "time": 206.8153662421875,
          "velocity": 0.4330708661417323
        },
        {
          "duration": 0.1327432500000043,
          "durationTicks": 96,
          "midi": 42,
          "name": "F#2",
          "ticks": 149665,
          "time": 206.9481094921875,
          "velocity": 0.4330708661417323
        },
        {
          "duration": 0.1327432500000043,
          "durationTicks": 96,
          "midi": 36,
          "name": "C2",
          "ticks": 149761,
          "time": 207.08085274218752,
          "velocity": 0.4330708661417323
        },
        {
          "duration": 0.1327432500000043,
          "durationTicks": 96,
          "midi": 42,
          "name": "F#2",
          "ticks": 149761,
          "time": 207.08085274218752,
          "velocity": 0.4330708661417323
        },
        {
          "duration": 0.1327432500000043,
          "durationTicks": 96,
          "midi": 42,
          "name": "F#2",
          "ticks": 149953,
          "time": 207.34633924218753,
          "velocity": 0.4330708661417323
        },
        {
          "duration": 0.1327432500000043,
          "durationTicks": 96,
          "midi": 42,
          "name": "F#2",
          "ticks": 150049,
          "time": 207.47908249218753,
          "velocity": 0.4330708661417323
        },
        {
          "duration": 0.1327432499999759,
          "durationTicks": 96,
          "midi": 39,
          "name": "D#2",
          "ticks": 150145,
          "time": 207.61182574218753,
          "velocity": 0.4330708661417323
        },
        {
          "duration": 0.1327432499999759,
          "durationTicks": 96,
          "midi": 36,
          "name": "C2",
          "ticks": 150145,
          "time": 207.61182574218753,
          "velocity": 0.4330708661417323
        },
        {
          "duration": 0.1327432499999759,
          "durationTicks": 96,
          "midi": 38,
          "name": "D2",
          "ticks": 150145,
          "time": 207.61182574218753,
          "velocity": 0.4330708661417323
        },
        {
          "duration": 0.1327432499999759,
          "durationTicks": 96,
          "midi": 42,
          "name": "F#2",
          "ticks": 150145,
          "time": 207.61182574218753,
          "velocity": 0.4330708661417323
        },
        {
          "duration": 0.1327432500000043,
          "durationTicks": 96,
          "midi": 42,
          "name": "F#2",
          "ticks": 150337,
          "time": 207.87731224218751,
          "velocity": 0.4330708661417323
        },
        {
          "duration": 0.1327432500000043,
          "durationTicks": 96,
          "midi": 42,
          "name": "F#2",
          "ticks": 150433,
          "time": 208.01005549218752,
          "velocity": 0.4330708661417323
        },
        {
          "duration": 0.1327432500000043,
          "durationTicks": 96,
          "midi": 36,
          "name": "C2",
          "ticks": 150529,
          "time": 208.14279874218752,
          "velocity": 0.4330708661417323
        },
        {
          "duration": 0.1327432500000043,
          "durationTicks": 96,
          "midi": 42,
          "name": "F#2",
          "ticks": 150529,
          "time": 208.14279874218752,
          "velocity": 0.4330708661417323
        },
        {
          "duration": 0.1327432499999759,
          "durationTicks": 96,
          "midi": 42,
          "name": "F#2",
          "ticks": 150721,
          "time": 208.40828524218753,
          "velocity": 0.4330708661417323
        },
        {
          "duration": 0.1327432500000043,
          "durationTicks": 96,
          "midi": 42,
          "name": "F#2",
          "ticks": 150817,
          "time": 208.5410284921875,
          "velocity": 0.4330708661417323
        },
        {
          "duration": 0.1327432500000043,
          "durationTicks": 96,
          "midi": 39,
          "name": "D#2",
          "ticks": 150913,
          "time": 208.6737717421875,
          "velocity": 0.4330708661417323
        },
        {
          "duration": 0.1327432500000043,
          "durationTicks": 96,
          "midi": 36,
          "name": "C2",
          "ticks": 150913,
          "time": 208.6737717421875,
          "velocity": 0.4330708661417323
        },
        {
          "duration": 0.1327432500000043,
          "durationTicks": 96,
          "midi": 38,
          "name": "D2",
          "ticks": 150913,
          "time": 208.6737717421875,
          "velocity": 0.4330708661417323
        },
        {
          "duration": 0.1327432500000043,
          "durationTicks": 96,
          "midi": 42,
          "name": "F#2",
          "ticks": 150913,
          "time": 208.6737717421875,
          "velocity": 0.4330708661417323
        },
        {
          "duration": 0.1327432500000043,
          "durationTicks": 96,
          "midi": 42,
          "name": "F#2",
          "ticks": 151105,
          "time": 208.93925824218752,
          "velocity": 0.4330708661417323
        },
        {
          "duration": 0.1327432500000043,
          "durationTicks": 96,
          "midi": 42,
          "name": "F#2",
          "ticks": 151201,
          "time": 209.07200149218752,
          "velocity": 0.4330708661417323
        },
        {
          "duration": 0.1327432500000043,
          "durationTicks": 96,
          "midi": 36,
          "name": "C2",
          "ticks": 151297,
          "time": 209.20474474218753,
          "velocity": 0.4330708661417323
        },
        {
          "duration": 0.1327432500000043,
          "durationTicks": 96,
          "midi": 42,
          "name": "F#2",
          "ticks": 151297,
          "time": 209.20474474218753,
          "velocity": 0.4330708661417323
        },
        {
          "duration": 0.1327432500000043,
          "durationTicks": 96,
          "midi": 42,
          "name": "F#2",
          "ticks": 151489,
          "time": 209.4702312421875,
          "velocity": 0.4330708661417323
        },
        {
          "duration": 0.1327432500000043,
          "durationTicks": 96,
          "midi": 42,
          "name": "F#2",
          "ticks": 151585,
          "time": 209.6029744921875,
          "velocity": 0.4330708661417323
        },
        {
          "duration": 0.1327432500000043,
          "durationTicks": 96,
          "midi": 39,
          "name": "D#2",
          "ticks": 151681,
          "time": 209.73571774218752,
          "velocity": 0.4330708661417323
        },
        {
          "duration": 0.1327432500000043,
          "durationTicks": 96,
          "midi": 36,
          "name": "C2",
          "ticks": 151681,
          "time": 209.73571774218752,
          "velocity": 0.4330708661417323
        },
        {
          "duration": 0.1327432500000043,
          "durationTicks": 96,
          "midi": 38,
          "name": "D2",
          "ticks": 151681,
          "time": 209.73571774218752,
          "velocity": 0.4330708661417323
        },
        {
          "duration": 0.1327432500000043,
          "durationTicks": 96,
          "midi": 42,
          "name": "F#2",
          "ticks": 151681,
          "time": 209.73571774218752,
          "velocity": 0.4330708661417323
        },
        {
          "duration": 0.1327432500000043,
          "durationTicks": 96,
          "midi": 46,
          "name": "A#2",
          "ticks": 151873,
          "time": 210.00120424218753,
          "velocity": 0.4330708661417323
        },
        {
          "duration": 0.1327432499999759,
          "durationTicks": 96,
          "midi": 36,
          "name": "C2",
          "ticks": 152065,
          "time": 210.26669074218754,
          "velocity": 0.4330708661417323
        },
        {
          "duration": 0.1327432499999759,
          "durationTicks": 96,
          "midi": 42,
          "name": "F#2",
          "ticks": 152065,
          "time": 210.26669074218754,
          "velocity": 0.4330708661417323
        },
        {
          "duration": 0.1327432500000043,
          "durationTicks": 96,
          "midi": 42,
          "name": "F#2",
          "ticks": 152257,
          "time": 210.53217724218752,
          "velocity": 0.4330708661417323
        },
        {
          "duration": 0.1327432500000043,
          "durationTicks": 96,
          "midi": 42,
          "name": "F#2",
          "ticks": 152353,
          "time": 210.66492049218752,
          "velocity": 0.4330708661417323
        },
        {
          "duration": 0.1327432500000043,
          "durationTicks": 96,
          "midi": 39,
          "name": "D#2",
          "ticks": 152449,
          "time": 210.79766374218752,
          "velocity": 0.4330708661417323
        },
        {
          "duration": 0.1327432500000043,
          "durationTicks": 96,
          "midi": 36,
          "name": "C2",
          "ticks": 152449,
          "time": 210.79766374218752,
          "velocity": 0.4330708661417323
        },
        {
          "duration": 0.1327432500000043,
          "durationTicks": 96,
          "midi": 38,
          "name": "D2",
          "ticks": 152449,
          "time": 210.79766374218752,
          "velocity": 0.4330708661417323
        },
        {
          "duration": 0.1327432500000043,
          "durationTicks": 96,
          "midi": 42,
          "name": "F#2",
          "ticks": 152449,
          "time": 210.79766374218752,
          "velocity": 0.4330708661417323
        },
        {
          "duration": 0.1327432499999759,
          "durationTicks": 96,
          "midi": 42,
          "name": "F#2",
          "ticks": 152641,
          "time": 211.06315024218753,
          "velocity": 0.4330708661417323
        },
        {
          "duration": 0.1327432500000043,
          "durationTicks": 96,
          "midi": 42,
          "name": "F#2",
          "ticks": 152737,
          "time": 211.1958934921875,
          "velocity": 0.4330708661417323
        },
        {
          "duration": 0.1327432500000043,
          "durationTicks": 96,
          "midi": 36,
          "name": "C2",
          "ticks": 152833,
          "time": 211.3286367421875,
          "velocity": 0.4330708661417323
        },
        {
          "duration": 0.1327432500000043,
          "durationTicks": 96,
          "midi": 42,
          "name": "F#2",
          "ticks": 152833,
          "time": 211.3286367421875,
          "velocity": 0.4330708661417323
        },
        {
          "duration": 0.1327432500000043,
          "durationTicks": 96,
          "midi": 42,
          "name": "F#2",
          "ticks": 153025,
          "time": 211.59412324218752,
          "velocity": 0.4330708661417323
        },
        {
          "duration": 0.1327432500000043,
          "durationTicks": 96,
          "midi": 42,
          "name": "F#2",
          "ticks": 153121,
          "time": 211.72686649218753,
          "velocity": 0.4330708661417323
        },
        {
          "duration": 0.1327432500000043,
          "durationTicks": 96,
          "midi": 39,
          "name": "D#2",
          "ticks": 153217,
          "time": 211.85960974218753,
          "velocity": 0.4330708661417323
        },
        {
          "duration": 0.1327432500000043,
          "durationTicks": 96,
          "midi": 36,
          "name": "C2",
          "ticks": 153217,
          "time": 211.85960974218753,
          "velocity": 0.4330708661417323
        },
        {
          "duration": 0.1327432500000043,
          "durationTicks": 96,
          "midi": 38,
          "name": "D2",
          "ticks": 153217,
          "time": 211.85960974218753,
          "velocity": 0.4330708661417323
        },
        {
          "duration": 0.1327432500000043,
          "durationTicks": 96,
          "midi": 42,
          "name": "F#2",
          "ticks": 153217,
          "time": 211.85960974218753,
          "velocity": 0.4330708661417323
        },
        {
          "duration": 0.1327432500000043,
          "durationTicks": 96,
          "midi": 42,
          "name": "F#2",
          "ticks": 153409,
          "time": 212.1250962421875,
          "velocity": 0.4330708661417323
        },
        {
          "duration": 0.1327432500000043,
          "durationTicks": 96,
          "midi": 42,
          "name": "F#2",
          "ticks": 153505,
          "time": 212.25783949218751,
          "velocity": 0.4330708661417323
        },
        {
          "duration": 0.1327432500000043,
          "durationTicks": 96,
          "midi": 36,
          "name": "C2",
          "ticks": 153601,
          "time": 212.39058274218752,
          "velocity": 0.4330708661417323
        },
        {
          "duration": 0.1327432500000043,
          "durationTicks": 96,
          "midi": 42,
          "name": "F#2",
          "ticks": 153601,
          "time": 212.39058274218752,
          "velocity": 0.4330708661417323
        },
        {
          "duration": 0.1327432500000043,
          "durationTicks": 96,
          "midi": 42,
          "name": "F#2",
          "ticks": 153793,
          "time": 212.65606924218753,
          "velocity": 0.4330708661417323
        },
        {
          "duration": 0.1327432499999759,
          "durationTicks": 96,
          "midi": 42,
          "name": "F#2",
          "ticks": 153889,
          "time": 212.78881249218753,
          "velocity": 0.4330708661417323
        },
        {
          "duration": 0.1327432500000043,
          "durationTicks": 96,
          "midi": 39,
          "name": "D#2",
          "ticks": 153985,
          "time": 212.9215557421875,
          "velocity": 0.4330708661417323
        },
        {
          "duration": 0.1327432500000043,
          "durationTicks": 96,
          "midi": 36,
          "name": "C2",
          "ticks": 153985,
          "time": 212.9215557421875,
          "velocity": 0.4330708661417323
        },
        {
          "duration": 0.1327432500000043,
          "durationTicks": 96,
          "midi": 38,
          "name": "D2",
          "ticks": 153985,
          "time": 212.9215557421875,
          "velocity": 0.4330708661417323
        },
        {
          "duration": 0.1327432500000043,
          "durationTicks": 96,
          "midi": 42,
          "name": "F#2",
          "ticks": 153985,
          "time": 212.9215557421875,
          "velocity": 0.4330708661417323
        },
        {
          "duration": 0.1327432500000043,
          "durationTicks": 96,
          "midi": 46,
          "name": "A#2",
          "ticks": 154177,
          "time": 213.18704224218752,
          "velocity": 0.4330708661417323
        },
        {
          "duration": 0.1327432500000043,
          "durationTicks": 96,
          "midi": 36,
          "name": "C2",
          "ticks": 154369,
          "time": 213.45252874218752,
          "velocity": 0.4330708661417323
        },
        {
          "duration": 0.1327432500000043,
          "durationTicks": 96,
          "midi": 42,
          "name": "F#2",
          "ticks": 154369,
          "time": 213.45252874218752,
          "velocity": 0.4330708661417323
        },
        {
          "duration": 0.1327432499999759,
          "durationTicks": 96,
          "midi": 42,
          "name": "F#2",
          "ticks": 154561,
          "time": 213.71801524218753,
          "velocity": 0.4330708661417323
        },
        {
          "duration": 0.1327432500000043,
          "durationTicks": 96,
          "midi": 42,
          "name": "F#2",
          "ticks": 154657,
          "time": 213.8507584921875,
          "velocity": 0.4330708661417323
        },
        {
          "duration": 0.1327432500000043,
          "durationTicks": 96,
          "midi": 39,
          "name": "D#2",
          "ticks": 154753,
          "time": 213.9835017421875,
          "velocity": 0.4330708661417323
        },
        {
          "duration": 0.1327432500000043,
          "durationTicks": 96,
          "midi": 36,
          "name": "C2",
          "ticks": 154753,
          "time": 213.9835017421875,
          "velocity": 0.4330708661417323
        },
        {
          "duration": 0.1327432500000043,
          "durationTicks": 96,
          "midi": 38,
          "name": "D2",
          "ticks": 154753,
          "time": 213.9835017421875,
          "velocity": 0.4330708661417323
        },
        {
          "duration": 0.1327432500000043,
          "durationTicks": 96,
          "midi": 42,
          "name": "F#2",
          "ticks": 154753,
          "time": 213.9835017421875,
          "velocity": 0.4330708661417323
        },
        {
          "duration": 0.1327432500000043,
          "durationTicks": 96,
          "midi": 39,
          "name": "D#2",
          "ticks": 154849,
          "time": 214.11624499218752,
          "velocity": 0.4330708661417323
        },
        {
          "duration": 0.1327432500000043,
          "durationTicks": 96,
          "midi": 39,
          "name": "D#2",
          "ticks": 154945,
          "time": 214.24898824218752,
          "velocity": 0.4330708661417323
        },
        {
          "duration": 0.1327432500000043,
          "durationTicks": 96,
          "midi": 46,
          "name": "A#2",
          "ticks": 154945,
          "time": 214.24898824218752,
          "velocity": 0.4330708661417323
        },
        {
          "duration": 0.1327432500000043,
          "durationTicks": 96,
          "midi": 39,
          "name": "D#2",
          "ticks": 155041,
          "time": 214.38173149218753,
          "velocity": 0.4330708661417323
        },
        {
          "duration": 0.1327432500000043,
          "durationTicks": 96,
          "midi": 36,
          "name": "C2",
          "ticks": 155137,
          "time": 214.51447474218753,
          "velocity": 0.4330708661417323
        },
        {
          "duration": 0.1327432500000043,
          "durationTicks": 96,
          "midi": 42,
          "name": "F#2",
          "ticks": 155137,
          "time": 214.51447474218753,
          "velocity": 0.4330708661417323
        },
        {
          "duration": 0.1327432500000043,
          "durationTicks": 96,
          "midi": 42,
          "name": "F#2",
          "ticks": 155329,
          "time": 214.7799612421875,
          "velocity": 0.4330708661417323
        },
        {
          "duration": 0.1327432500000043,
          "durationTicks": 96,
          "midi": 42,
          "name": "F#2",
          "ticks": 155425,
          "time": 214.91270449218752,
          "velocity": 0.4330708661417323
        },
        {
          "duration": 0.1327432500000043,
          "durationTicks": 96,
          "midi": 39,
          "name": "D#2",
          "ticks": 155521,
          "time": 215.04544774218752,
          "velocity": 0.4330708661417323
        },
        {
          "duration": 0.1327432500000043,
          "durationTicks": 96,
          "midi": 36,
          "name": "C2",
          "ticks": 155521,
          "time": 215.04544774218752,
          "velocity": 0.4330708661417323
        },
        {
          "duration": 0.1327432500000043,
          "durationTicks": 96,
          "midi": 38,
          "name": "D2",
          "ticks": 155521,
          "time": 215.04544774218752,
          "velocity": 0.4330708661417323
        },
        {
          "duration": 0.1327432500000043,
          "durationTicks": 96,
          "midi": 42,
          "name": "F#2",
          "ticks": 155521,
          "time": 215.04544774218752,
          "velocity": 0.4330708661417323
        },
        {
          "duration": 0.1327432500000043,
          "durationTicks": 96,
          "midi": 42,
          "name": "F#2",
          "ticks": 155713,
          "time": 215.31093424218753,
          "velocity": 0.4330708661417323
        },
        {
          "duration": 0.1327432499999759,
          "durationTicks": 96,
          "midi": 42,
          "name": "F#2",
          "ticks": 155809,
          "time": 215.44367749218753,
          "velocity": 0.4330708661417323
        },
        {
          "duration": 0.1327432500000043,
          "durationTicks": 96,
          "midi": 36,
          "name": "C2",
          "ticks": 155905,
          "time": 215.5764207421875,
          "velocity": 0.4330708661417323
        },
        {
          "duration": 0.1327432500000043,
          "durationTicks": 96,
          "midi": 42,
          "name": "F#2",
          "ticks": 155905,
          "time": 215.5764207421875,
          "velocity": 0.4330708661417323
        },
        {
          "duration": 0.1327432500000043,
          "durationTicks": 96,
          "midi": 42,
          "name": "F#2",
          "ticks": 156097,
          "time": 215.84190724218752,
          "velocity": 0.4330708661417323
        },
        {
          "duration": 0.1327432500000043,
          "durationTicks": 96,
          "midi": 42,
          "name": "F#2",
          "ticks": 156193,
          "time": 215.97465049218752,
          "velocity": 0.4330708661417323
        },
        {
          "duration": 0.1327432500000043,
          "durationTicks": 96,
          "midi": 39,
          "name": "D#2",
          "ticks": 156289,
          "time": 216.10739374218753,
          "velocity": 0.4330708661417323
        },
        {
          "duration": 0.1327432500000043,
          "durationTicks": 96,
          "midi": 36,
          "name": "C2",
          "ticks": 156289,
          "time": 216.10739374218753,
          "velocity": 0.4330708661417323
        },
        {
          "duration": 0.1327432500000043,
          "durationTicks": 96,
          "midi": 38,
          "name": "D2",
          "ticks": 156289,
          "time": 216.10739374218753,
          "velocity": 0.4330708661417323
        },
        {
          "duration": 0.1327432500000043,
          "durationTicks": 96,
          "midi": 42,
          "name": "F#2",
          "ticks": 156289,
          "time": 216.10739374218753,
          "velocity": 0.4330708661417323
        },
        {
          "duration": 0.1327432499999759,
          "durationTicks": 96,
          "midi": 42,
          "name": "F#2",
          "ticks": 156481,
          "time": 216.37288024218753,
          "velocity": 0.4330708661417323
        },
        {
          "duration": 0.1327432500000043,
          "durationTicks": 96,
          "midi": 42,
          "name": "F#2",
          "ticks": 156577,
          "time": 216.5056234921875,
          "velocity": 0.4330708661417323
        },
        {
          "duration": 0.1327432500000043,
          "durationTicks": 96,
          "midi": 36,
          "name": "C2",
          "ticks": 156673,
          "time": 216.63836674218751,
          "velocity": 0.4330708661417323
        },
        {
          "duration": 0.1327432500000043,
          "durationTicks": 96,
          "midi": 42,
          "name": "F#2",
          "ticks": 156673,
          "time": 216.63836674218751,
          "velocity": 0.4330708661417323
        },
        {
          "duration": 0.1327432500000043,
          "durationTicks": 96,
          "midi": 42,
          "name": "F#2",
          "ticks": 156865,
          "time": 216.90385324218752,
          "velocity": 0.4330708661417323
        },
        {
          "duration": 0.1327432500000043,
          "durationTicks": 96,
          "midi": 42,
          "name": "F#2",
          "ticks": 156961,
          "time": 217.03659649218753,
          "velocity": 0.4330708661417323
        },
        {
          "duration": 0.1327432499999759,
          "durationTicks": 96,
          "midi": 39,
          "name": "D#2",
          "ticks": 157057,
          "time": 217.16933974218753,
          "velocity": 0.4330708661417323
        },
        {
          "duration": 0.1327432499999759,
          "durationTicks": 96,
          "midi": 36,
          "name": "C2",
          "ticks": 157057,
          "time": 217.16933974218753,
          "velocity": 0.4330708661417323
        },
        {
          "duration": 0.1327432499999759,
          "durationTicks": 96,
          "midi": 38,
          "name": "D2",
          "ticks": 157057,
          "time": 217.16933974218753,
          "velocity": 0.4330708661417323
        },
        {
          "duration": 0.1327432499999759,
          "durationTicks": 96,
          "midi": 42,
          "name": "F#2",
          "ticks": 157057,
          "time": 217.16933974218753,
          "velocity": 0.4330708661417323
        },
        {
          "duration": 0.1327432500000043,
          "durationTicks": 96,
          "midi": 42,
          "name": "F#2",
          "ticks": 157249,
          "time": 217.4348262421875,
          "velocity": 0.4330708661417323
        },
        {
          "duration": 0.1327432500000043,
          "durationTicks": 96,
          "midi": 42,
          "name": "F#2",
          "ticks": 157345,
          "time": 217.56756949218752,
          "velocity": 0.4330708661417323
        },
        {
          "duration": 0.1327432500000043,
          "durationTicks": 96,
          "midi": 36,
          "name": "C2",
          "ticks": 157441,
          "time": 217.70031274218752,
          "velocity": 0.4330708661417323
        },
        {
          "duration": 0.1327432500000043,
          "durationTicks": 96,
          "midi": 42,
          "name": "F#2",
          "ticks": 157441,
          "time": 217.70031274218752,
          "velocity": 0.4330708661417323
        },
        {
          "duration": 0.1327432500000043,
          "durationTicks": 96,
          "midi": 42,
          "name": "F#2",
          "ticks": 157633,
          "time": 217.96579924218753,
          "velocity": 0.4330708661417323
        },
        {
          "duration": 0.1327432499999759,
          "durationTicks": 96,
          "midi": 42,
          "name": "F#2",
          "ticks": 157729,
          "time": 218.09854249218753,
          "velocity": 0.4330708661417323
        },
        {
          "duration": 0.1327432500000043,
          "durationTicks": 96,
          "midi": 39,
          "name": "D#2",
          "ticks": 157825,
          "time": 218.2312857421875,
          "velocity": 0.4330708661417323
        },
        {
          "duration": 0.1327432500000043,
          "durationTicks": 96,
          "midi": 36,
          "name": "C2",
          "ticks": 157825,
          "time": 218.2312857421875,
          "velocity": 0.4330708661417323
        },
        {
          "duration": 0.1327432500000043,
          "durationTicks": 96,
          "midi": 38,
          "name": "D2",
          "ticks": 157825,
          "time": 218.2312857421875,
          "velocity": 0.4330708661417323
        },
        {
          "duration": 0.1327432500000043,
          "durationTicks": 96,
          "midi": 42,
          "name": "F#2",
          "ticks": 157825,
          "time": 218.2312857421875,
          "velocity": 0.4330708661417323
        },
        {
          "duration": 0.1327432500000043,
          "durationTicks": 96,
          "midi": 46,
          "name": "A#2",
          "ticks": 158017,
          "time": 218.49677224218752,
          "velocity": 0.4330708661417323
        },
        {
          "duration": 0.1327432500000043,
          "durationTicks": 96,
          "midi": 36,
          "name": "C2",
          "ticks": 158209,
          "time": 218.76225874218753,
          "velocity": 0.4330708661417323
        },
        {
          "duration": 0.1327432500000043,
          "durationTicks": 96,
          "midi": 42,
          "name": "F#2",
          "ticks": 158209,
          "time": 218.76225874218753,
          "velocity": 0.4330708661417323
        },
        {
          "duration": 0.1327432499999759,
          "durationTicks": 96,
          "midi": 42,
          "name": "F#2",
          "ticks": 158401,
          "time": 219.02774524218754,
          "velocity": 0.4330708661417323
        },
        {
          "duration": 0.1327432500000043,
          "durationTicks": 96,
          "midi": 42,
          "name": "F#2",
          "ticks": 158497,
          "time": 219.1604884921875,
          "velocity": 0.4330708661417323
        },
        {
          "duration": 0.1327432500000043,
          "durationTicks": 96,
          "midi": 39,
          "name": "D#2",
          "ticks": 158593,
          "time": 219.29323174218752,
          "velocity": 0.4330708661417323
        },
        {
          "duration": 0.1327432500000043,
          "durationTicks": 96,
          "midi": 36,
          "name": "C2",
          "ticks": 158593,
          "time": 219.29323174218752,
          "velocity": 0.4330708661417323
        },
        {
          "duration": 0.1327432500000043,
          "durationTicks": 96,
          "midi": 38,
          "name": "D2",
          "ticks": 158593,
          "time": 219.29323174218752,
          "velocity": 0.4330708661417323
        },
        {
          "duration": 0.1327432500000043,
          "durationTicks": 96,
          "midi": 42,
          "name": "F#2",
          "ticks": 158593,
          "time": 219.29323174218752,
          "velocity": 0.4330708661417323
        },
        {
          "duration": 0.1327432500000043,
          "durationTicks": 96,
          "midi": 42,
          "name": "F#2",
          "ticks": 158785,
          "time": 219.55871824218752,
          "velocity": 0.4330708661417323
        },
        {
          "duration": 0.1327432500000043,
          "durationTicks": 96,
          "midi": 42,
          "name": "F#2",
          "ticks": 158881,
          "time": 219.69146149218753,
          "velocity": 0.4330708661417323
        },
        {
          "duration": 0.1327432499999759,
          "durationTicks": 96,
          "midi": 36,
          "name": "C2",
          "ticks": 158977,
          "time": 219.82420474218753,
          "velocity": 0.4330708661417323
        },
        {
          "duration": 0.1327432499999759,
          "durationTicks": 96,
          "midi": 42,
          "name": "F#2",
          "ticks": 158977,
          "time": 219.82420474218753,
          "velocity": 0.4330708661417323
        },
        {
          "duration": 0.1327432500000043,
          "durationTicks": 96,
          "midi": 42,
          "name": "F#2",
          "ticks": 159169,
          "time": 220.0896912421875,
          "velocity": 0.4330708661417323
        },
        {
          "duration": 0.1327432500000043,
          "durationTicks": 96,
          "midi": 42,
          "name": "F#2",
          "ticks": 159265,
          "time": 220.22243449218752,
          "velocity": 0.4330708661417323
        },
        {
          "duration": 0.1327432500000043,
          "durationTicks": 96,
          "midi": 39,
          "name": "D#2",
          "ticks": 159361,
          "time": 220.35517774218752,
          "velocity": 0.4330708661417323
        },
        {
          "duration": 0.1327432500000043,
          "durationTicks": 96,
          "midi": 36,
          "name": "C2",
          "ticks": 159361,
          "time": 220.35517774218752,
          "velocity": 0.4330708661417323
        },
        {
          "duration": 0.1327432500000043,
          "durationTicks": 96,
          "midi": 38,
          "name": "D2",
          "ticks": 159361,
          "time": 220.35517774218752,
          "velocity": 0.4330708661417323
        },
        {
          "duration": 0.1327432500000043,
          "durationTicks": 96,
          "midi": 42,
          "name": "F#2",
          "ticks": 159361,
          "time": 220.35517774218752,
          "velocity": 0.4330708661417323
        },
        {
          "duration": 0.1327432500000043,
          "durationTicks": 96,
          "midi": 42,
          "name": "F#2",
          "ticks": 159553,
          "time": 220.62066424218753,
          "velocity": 0.4330708661417323
        },
        {
          "duration": 0.1327432499999759,
          "durationTicks": 96,
          "midi": 42,
          "name": "F#2",
          "ticks": 159649,
          "time": 220.75340749218753,
          "velocity": 0.4330708661417323
        },
        {
          "duration": 0.1327432500000043,
          "durationTicks": 96,
          "midi": 36,
          "name": "C2",
          "ticks": 159745,
          "time": 220.8861507421875,
          "velocity": 0.4330708661417323
        },
        {
          "duration": 0.1327432500000043,
          "durationTicks": 96,
          "midi": 42,
          "name": "F#2",
          "ticks": 159745,
          "time": 220.8861507421875,
          "velocity": 0.4330708661417323
        },
        {
          "duration": 0.1327432500000043,
          "durationTicks": 96,
          "midi": 42,
          "name": "F#2",
          "ticks": 159937,
          "time": 221.15163724218752,
          "velocity": 0.4330708661417323
        },
        {
          "duration": 0.1327432500000043,
          "durationTicks": 96,
          "midi": 42,
          "name": "F#2",
          "ticks": 160033,
          "time": 221.28438049218752,
          "velocity": 0.4330708661417323
        },
        {
          "duration": 0.1327432500000043,
          "durationTicks": 96,
          "midi": 39,
          "name": "D#2",
          "ticks": 160129,
          "time": 221.41712374218753,
          "velocity": 0.4330708661417323
        },
        {
          "duration": 0.1327432500000043,
          "durationTicks": 96,
          "midi": 36,
          "name": "C2",
          "ticks": 160129,
          "time": 221.41712374218753,
          "velocity": 0.4330708661417323
        },
        {
          "duration": 0.1327432500000043,
          "durationTicks": 96,
          "midi": 38,
          "name": "D2",
          "ticks": 160129,
          "time": 221.41712374218753,
          "velocity": 0.4330708661417323
        },
        {
          "duration": 0.1327432500000043,
          "durationTicks": 96,
          "midi": 42,
          "name": "F#2",
          "ticks": 160129,
          "time": 221.41712374218753,
          "velocity": 0.4330708661417323
        },
        {
          "duration": 0.1327432500000043,
          "durationTicks": 96,
          "midi": 46,
          "name": "A#2",
          "ticks": 160321,
          "time": 221.6826102421875,
          "velocity": 0.4330708661417323
        },
        {
          "duration": 0.1327432500000043,
          "durationTicks": 96,
          "midi": 36,
          "name": "C2",
          "ticks": 160513,
          "time": 221.94809674218752,
          "velocity": 0.4330708661417323
        },
        {
          "duration": 0.1327432500000043,
          "durationTicks": 96,
          "midi": 42,
          "name": "F#2",
          "ticks": 160513,
          "time": 221.94809674218752,
          "velocity": 0.4330708661417323
        },
        {
          "duration": 0.1327432500000043,
          "durationTicks": 96,
          "midi": 42,
          "name": "F#2",
          "ticks": 160705,
          "time": 222.21358324218753,
          "velocity": 0.4330708661417323
        },
        {
          "duration": 0.1327432500000043,
          "durationTicks": 96,
          "midi": 42,
          "name": "F#2",
          "ticks": 160801,
          "time": 222.34632649218753,
          "velocity": 0.4330708661417323
        },
        {
          "duration": 0.1327432499999759,
          "durationTicks": 96,
          "midi": 39,
          "name": "D#2",
          "ticks": 160897,
          "time": 222.47906974218753,
          "velocity": 0.4330708661417323
        },
        {
          "duration": 0.1327432499999759,
          "durationTicks": 96,
          "midi": 36,
          "name": "C2",
          "ticks": 160897,
          "time": 222.47906974218753,
          "velocity": 0.4330708661417323
        },
        {
          "duration": 0.1327432499999759,
          "durationTicks": 96,
          "midi": 38,
          "name": "D2",
          "ticks": 160897,
          "time": 222.47906974218753,
          "velocity": 0.4330708661417323
        },
        {
          "duration": 0.1327432499999759,
          "durationTicks": 96,
          "midi": 42,
          "name": "F#2",
          "ticks": 160897,
          "time": 222.47906974218753,
          "velocity": 0.4330708661417323
        },
        {
          "duration": 0.1327432500000043,
          "durationTicks": 96,
          "midi": 39,
          "name": "D#2",
          "ticks": 160993,
          "time": 222.6118129921875,
          "velocity": 0.4330708661417323
        },
        {
          "duration": 0.1327432500000043,
          "durationTicks": 96,
          "midi": 39,
          "name": "D#2",
          "ticks": 161089,
          "time": 222.7445562421875,
          "velocity": 0.4330708661417323
        },
        {
          "duration": 0.1327432500000043,
          "durationTicks": 96,
          "midi": 46,
          "name": "A#2",
          "ticks": 161089,
          "time": 222.7445562421875,
          "velocity": 0.4330708661417323
        },
        {
          "duration": 0.1327432500000043,
          "durationTicks": 96,
          "midi": 39,
          "name": "D#2",
          "ticks": 161185,
          "time": 222.87729949218752,
          "velocity": 0.4330708661417323
        },
        {
          "duration": 0.1327432500000043,
          "durationTicks": 96,
          "midi": 36,
          "name": "C2",
          "ticks": 161281,
          "time": 223.01004274218752,
          "velocity": 0.4330708661417323
        },
        {
          "duration": 0.1327432500000043,
          "durationTicks": 96,
          "midi": 42,
          "name": "F#2",
          "ticks": 161281,
          "time": 223.01004274218752,
          "velocity": 0.4330708661417323
        },
        {
          "duration": 0.1327432500000043,
          "durationTicks": 96,
          "midi": 42,
          "name": "F#2",
          "ticks": 161473,
          "time": 223.27552924218753,
          "velocity": 0.4330708661417323
        },
        {
          "duration": 0.1327432499999759,
          "durationTicks": 96,
          "midi": 42,
          "name": "F#2",
          "ticks": 161569,
          "time": 223.40827249218754,
          "velocity": 0.4330708661417323
        },
        {
          "duration": 0.1327432500000043,
          "durationTicks": 96,
          "midi": 39,
          "name": "D#2",
          "ticks": 161665,
          "time": 223.5410157421875,
          "velocity": 0.4330708661417323
        },
        {
          "duration": 0.1327432500000043,
          "durationTicks": 96,
          "midi": 36,
          "name": "C2",
          "ticks": 161665,
          "time": 223.5410157421875,
          "velocity": 0.4330708661417323
        },
        {
          "duration": 0.1327432500000043,
          "durationTicks": 96,
          "midi": 42,
          "name": "F#2",
          "ticks": 161665,
          "time": 223.5410157421875,
          "velocity": 0.4330708661417323
        },
        {
          "duration": 0.1327432500000043,
          "durationTicks": 96,
          "midi": 42,
          "name": "F#2",
          "ticks": 161857,
          "time": 223.80650224218752,
          "velocity": 0.4330708661417323
        },
        {
          "duration": 0.1327432500000043,
          "durationTicks": 96,
          "midi": 42,
          "name": "F#2",
          "ticks": 161953,
          "time": 223.93924549218752,
          "velocity": 0.4330708661417323
        },
        {
          "duration": 0.1327432500000043,
          "durationTicks": 96,
          "midi": 36,
          "name": "C2",
          "ticks": 162049,
          "time": 224.07198874218753,
          "velocity": 0.4330708661417323
        },
        {
          "duration": 0.1327432500000043,
          "durationTicks": 96,
          "midi": 42,
          "name": "F#2",
          "ticks": 162049,
          "time": 224.07198874218753,
          "velocity": 0.4330708661417323
        },
        {
          "duration": 0.1327432500000043,
          "durationTicks": 96,
          "midi": 42,
          "name": "F#2",
          "ticks": 162241,
          "time": 224.3374752421875,
          "velocity": 0.4330708661417323
        },
        {
          "duration": 0.1327432500000043,
          "durationTicks": 96,
          "midi": 42,
          "name": "F#2",
          "ticks": 162337,
          "time": 224.4702184921875,
          "velocity": 0.4330708661417323
        },
        {
          "duration": 0.1327432500000043,
          "durationTicks": 96,
          "midi": 39,
          "name": "D#2",
          "ticks": 162433,
          "time": 224.60296174218752,
          "velocity": 0.4330708661417323
        },
        {
          "duration": 0.1327432500000043,
          "durationTicks": 96,
          "midi": 36,
          "name": "C2",
          "ticks": 162433,
          "time": 224.60296174218752,
          "velocity": 0.4330708661417323
        },
        {
          "duration": 0.1327432500000043,
          "durationTicks": 96,
          "midi": 42,
          "name": "F#2",
          "ticks": 162433,
          "time": 224.60296174218752,
          "velocity": 0.4330708661417323
        },
        {
          "duration": 0.1327432500000043,
          "durationTicks": 96,
          "midi": 42,
          "name": "F#2",
          "ticks": 162625,
          "time": 224.86844824218753,
          "velocity": 0.4330708661417323
        },
        {
          "duration": 0.1327432500000043,
          "durationTicks": 96,
          "midi": 42,
          "name": "F#2",
          "ticks": 162721,
          "time": 225.00119149218753,
          "velocity": 0.4330708661417323
        },
        {
          "duration": 0.1327432499999759,
          "durationTicks": 96,
          "midi": 36,
          "name": "C2",
          "ticks": 162817,
          "time": 225.13393474218753,
          "velocity": 0.4330708661417323
        },
        {
          "duration": 0.1327432499999759,
          "durationTicks": 96,
          "midi": 42,
          "name": "F#2",
          "ticks": 162817,
          "time": 225.13393474218753,
          "velocity": 0.4330708661417323
        },
        {
          "duration": 0.1327432500000043,
          "durationTicks": 96,
          "midi": 42,
          "name": "F#2",
          "ticks": 163009,
          "time": 225.39942124218751,
          "velocity": 0.4330708661417323
        },
        {
          "duration": 0.1327432500000043,
          "durationTicks": 96,
          "midi": 42,
          "name": "F#2",
          "ticks": 163105,
          "time": 225.53216449218752,
          "velocity": 0.4330708661417323
        },
        {
          "duration": 0.1327432500000043,
          "durationTicks": 96,
          "midi": 39,
          "name": "D#2",
          "ticks": 163201,
          "time": 225.66490774218752,
          "velocity": 0.4330708661417323
        },
        {
          "duration": 0.1327432500000043,
          "durationTicks": 96,
          "midi": 36,
          "name": "C2",
          "ticks": 163201,
          "time": 225.66490774218752,
          "velocity": 0.4330708661417323
        },
        {
          "duration": 0.1327432500000043,
          "durationTicks": 96,
          "midi": 42,
          "name": "F#2",
          "ticks": 163201,
          "time": 225.66490774218752,
          "velocity": 0.4330708661417323
        },
        {
          "duration": 0.1327432500000043,
          "durationTicks": 96,
          "midi": 42,
          "name": "F#2",
          "ticks": 163393,
          "time": 225.93039424218753,
          "velocity": 0.4330708661417323
        },
        {
          "duration": 0.1327432499999759,
          "durationTicks": 96,
          "midi": 42,
          "name": "F#2",
          "ticks": 163489,
          "time": 226.06313749218754,
          "velocity": 0.4330708661417323
        },
        {
          "duration": 0.1327432500000043,
          "durationTicks": 96,
          "midi": 36,
          "name": "C2",
          "ticks": 163585,
          "time": 226.1958807421875,
          "velocity": 0.4330708661417323
        },
        {
          "duration": 0.1327432500000043,
          "durationTicks": 96,
          "midi": 42,
          "name": "F#2",
          "ticks": 163585,
          "time": 226.1958807421875,
          "velocity": 0.4330708661417323
        },
        {
          "duration": 0.1327432500000043,
          "durationTicks": 96,
          "midi": 42,
          "name": "F#2",
          "ticks": 163777,
          "time": 226.46136724218752,
          "velocity": 0.4330708661417323
        },
        {
          "duration": 0.1327432500000043,
          "durationTicks": 96,
          "midi": 42,
          "name": "F#2",
          "ticks": 163873,
          "time": 226.59411049218753,
          "velocity": 0.4330708661417323
        },
        {
          "duration": 0.1327432500000043,
          "durationTicks": 96,
          "midi": 39,
          "name": "D#2",
          "ticks": 163969,
          "time": 226.72685374218753,
          "velocity": 0.4330708661417323
        },
        {
          "duration": 0.1327432500000043,
          "durationTicks": 96,
          "midi": 36,
          "name": "C2",
          "ticks": 163969,
          "time": 226.72685374218753,
          "velocity": 0.4330708661417323
        },
        {
          "duration": 0.1327432500000043,
          "durationTicks": 96,
          "midi": 42,
          "name": "F#2",
          "ticks": 163969,
          "time": 226.72685374218753,
          "velocity": 0.4330708661417323
        },
        {
          "duration": 0.1327432500000043,
          "durationTicks": 96,
          "midi": 46,
          "name": "A#2",
          "ticks": 164161,
          "time": 226.9923402421875,
          "velocity": 0.4330708661417323
        },
        {
          "duration": 0.1327432500000043,
          "durationTicks": 96,
          "midi": 36,
          "name": "C2",
          "ticks": 164353,
          "time": 227.25782674218752,
          "velocity": 0.4330708661417323
        },
        {
          "duration": 0.1327432500000043,
          "durationTicks": 96,
          "midi": 42,
          "name": "F#2",
          "ticks": 164353,
          "time": 227.25782674218752,
          "velocity": 0.4330708661417323
        },
        {
          "duration": 0.1327432500000043,
          "durationTicks": 96,
          "midi": 42,
          "name": "F#2",
          "ticks": 164545,
          "time": 227.52331324218753,
          "velocity": 0.4330708661417323
        },
        {
          "duration": 0.1327432500000043,
          "durationTicks": 96,
          "midi": 42,
          "name": "F#2",
          "ticks": 164641,
          "time": 227.65605649218753,
          "velocity": 0.4330708661417323
        },
        {
          "duration": 0.1327432499999759,
          "durationTicks": 96,
          "midi": 39,
          "name": "D#2",
          "ticks": 164737,
          "time": 227.78879974218754,
          "velocity": 0.4330708661417323
        },
        {
          "duration": 0.1327432499999759,
          "durationTicks": 96,
          "midi": 36,
          "name": "C2",
          "ticks": 164737,
          "time": 227.78879974218754,
          "velocity": 0.4330708661417323
        },
        {
          "duration": 0.1327432499999759,
          "durationTicks": 96,
          "midi": 42,
          "name": "F#2",
          "ticks": 164737,
          "time": 227.78879974218754,
          "velocity": 0.4330708661417323
        },
        {
          "duration": 0.1327432500000043,
          "durationTicks": 96,
          "midi": 42,
          "name": "F#2",
          "ticks": 164929,
          "time": 228.05428624218752,
          "velocity": 0.4330708661417323
        },
        {
          "duration": 0.1327432500000043,
          "durationTicks": 96,
          "midi": 42,
          "name": "F#2",
          "ticks": 165025,
          "time": 228.18702949218752,
          "velocity": 0.4330708661417323
        },
        {
          "duration": 0.1327432500000043,
          "durationTicks": 96,
          "midi": 36,
          "name": "C2",
          "ticks": 165121,
          "time": 228.31977274218752,
          "velocity": 0.4330708661417323
        },
        {
          "duration": 0.1327432500000043,
          "durationTicks": 96,
          "midi": 42,
          "name": "F#2",
          "ticks": 165121,
          "time": 228.31977274218752,
          "velocity": 0.4330708661417323
        },
        {
          "duration": 0.1327432499999759,
          "durationTicks": 96,
          "midi": 42,
          "name": "F#2",
          "ticks": 165313,
          "time": 228.58525924218753,
          "velocity": 0.4330708661417323
        },
        {
          "duration": 0.1327432500000043,
          "durationTicks": 96,
          "midi": 42,
          "name": "F#2",
          "ticks": 165409,
          "time": 228.7180024921875,
          "velocity": 0.4330708661417323
        },
        {
          "duration": 0.1327432500000043,
          "durationTicks": 96,
          "midi": 39,
          "name": "D#2",
          "ticks": 165505,
          "time": 228.8507457421875,
          "velocity": 0.4330708661417323
        },
        {
          "duration": 0.1327432500000043,
          "durationTicks": 96,
          "midi": 36,
          "name": "C2",
          "ticks": 165505,
          "time": 228.8507457421875,
          "velocity": 0.4330708661417323
        },
        {
          "duration": 0.1327432500000043,
          "durationTicks": 96,
          "midi": 42,
          "name": "F#2",
          "ticks": 165505,
          "time": 228.8507457421875,
          "velocity": 0.4330708661417323
        },
        {
          "duration": 0.1327432500000043,
          "durationTicks": 96,
          "midi": 42,
          "name": "F#2",
          "ticks": 165697,
          "time": 229.11623224218752,
          "velocity": 0.4330708661417323
        },
        {
          "duration": 0.1327432500000043,
          "durationTicks": 96,
          "midi": 42,
          "name": "F#2",
          "ticks": 165793,
          "time": 229.24897549218753,
          "velocity": 0.4330708661417323
        },
        {
          "duration": 0.1327432500000043,
          "durationTicks": 96,
          "midi": 36,
          "name": "C2",
          "ticks": 165889,
          "time": 229.38171874218753,
          "velocity": 0.4330708661417323
        },
        {
          "duration": 0.1327432500000043,
          "durationTicks": 96,
          "midi": 42,
          "name": "F#2",
          "ticks": 165889,
          "time": 229.38171874218753,
          "velocity": 0.4330708661417323
        },
        {
          "duration": 0.1327432500000043,
          "durationTicks": 96,
          "midi": 42,
          "name": "F#2",
          "ticks": 166081,
          "time": 229.6472052421875,
          "velocity": 0.4330708661417323
        },
        {
          "duration": 0.1327432500000043,
          "durationTicks": 96,
          "midi": 42,
          "name": "F#2",
          "ticks": 166177,
          "time": 229.77994849218751,
          "velocity": 0.4330708661417323
        },
        {
          "duration": 0.1327432500000043,
          "durationTicks": 96,
          "midi": 39,
          "name": "D#2",
          "ticks": 166273,
          "time": 229.91269174218752,
          "velocity": 0.4330708661417323
        },
        {
          "duration": 0.1327432500000043,
          "durationTicks": 96,
          "midi": 36,
          "name": "C2",
          "ticks": 166273,
          "time": 229.91269174218752,
          "velocity": 0.4330708661417323
        },
        {
          "duration": 0.1327432500000043,
          "durationTicks": 96,
          "midi": 42,
          "name": "F#2",
          "ticks": 166273,
          "time": 229.91269174218752,
          "velocity": 0.4330708661417323
        },
        {
          "duration": 0.1327432500000043,
          "durationTicks": 96,
          "midi": 46,
          "name": "A#2",
          "ticks": 166465,
          "time": 230.17817824218753,
          "velocity": 0.4330708661417323
        },
        {
          "duration": 0.1327432499999759,
          "durationTicks": 96,
          "midi": 36,
          "name": "C2",
          "ticks": 166657,
          "time": 230.44366474218754,
          "velocity": 0.4330708661417323
        },
        {
          "duration": 0.1327432499999759,
          "durationTicks": 96,
          "midi": 42,
          "name": "F#2",
          "ticks": 166657,
          "time": 230.44366474218754,
          "velocity": 0.4330708661417323
        },
        {
          "duration": 0.1327432500000043,
          "durationTicks": 96,
          "midi": 42,
          "name": "F#2",
          "ticks": 166849,
          "time": 230.70915124218752,
          "velocity": 0.4330708661417323
        },
        {
          "duration": 0.1327432500000043,
          "durationTicks": 96,
          "midi": 42,
          "name": "F#2",
          "ticks": 166945,
          "time": 230.84189449218752,
          "velocity": 0.4330708661417323
        },
        {
          "duration": 0.1327432500000043,
          "durationTicks": 96,
          "midi": 39,
          "name": "D#2",
          "ticks": 167041,
          "time": 230.97463774218753,
          "velocity": 0.4330708661417323
        },
        {
          "duration": 0.1327432500000043,
          "durationTicks": 96,
          "midi": 36,
          "name": "C2",
          "ticks": 167041,
          "time": 230.97463774218753,
          "velocity": 0.4330708661417323
        },
        {
          "duration": 0.1327432500000043,
          "durationTicks": 96,
          "midi": 42,
          "name": "F#2",
          "ticks": 167041,
          "time": 230.97463774218753,
          "velocity": 0.4330708661417323
        },
        {
          "duration": 0.1327432500000043,
          "durationTicks": 96,
          "midi": 39,
          "name": "D#2",
          "ticks": 167137,
          "time": 231.10738099218753,
          "velocity": 0.4330708661417323
        },
        {
          "duration": 0.1327432499999759,
          "durationTicks": 96,
          "midi": 39,
          "name": "D#2",
          "ticks": 167233,
          "time": 231.24012424218753,
          "velocity": 0.4330708661417323
        },
        {
          "duration": 0.1327432499999759,
          "durationTicks": 96,
          "midi": 46,
          "name": "A#2",
          "ticks": 167233,
          "time": 231.24012424218753,
          "velocity": 0.4330708661417323
        },
        {
          "duration": 0.1327432500000043,
          "durationTicks": 96,
          "midi": 39,
          "name": "D#2",
          "ticks": 167329,
          "time": 231.3728674921875,
          "velocity": 0.4330708661417323
        },
        {
          "duration": 0.1327432500000043,
          "durationTicks": 96,
          "midi": 42,
          "name": "F#2",
          "ticks": 167425,
          "time": 231.5056107421875,
          "velocity": 0.4330708661417323
        },
        {
          "duration": 0.1327432500000043,
          "durationTicks": 96,
          "midi": 42,
          "name": "F#2",
          "ticks": 167617,
          "time": 231.77109724218752,
          "velocity": 0.4330708661417323
        },
        {
          "duration": 0.1327432500000043,
          "durationTicks": 96,
          "midi": 42,
          "name": "F#2",
          "ticks": 167713,
          "time": 231.90384049218753,
          "velocity": 0.4330708661417323
        },
        {
          "duration": 0.1327432500000043,
          "durationTicks": 96,
          "midi": 39,
          "name": "D#2",
          "ticks": 167809,
          "time": 232.03658374218753,
          "velocity": 0.4330708661417323
        },
        {
          "duration": 0.1327432500000043,
          "durationTicks": 96,
          "midi": 42,
          "name": "F#2",
          "ticks": 167809,
          "time": 232.03658374218753,
          "velocity": 0.4330708661417323
        },
        {
          "duration": 0.1327432500000043,
          "durationTicks": 96,
          "midi": 42,
          "name": "F#2",
          "ticks": 168001,
          "time": 232.3020702421875,
          "velocity": 0.4330708661417323
        },
        {
          "duration": 0.1327432500000043,
          "durationTicks": 96,
          "midi": 42,
          "name": "F#2",
          "ticks": 168097,
          "time": 232.43481349218752,
          "velocity": 0.4330708661417323
        },
        {
          "duration": 0.1327432500000043,
          "durationTicks": 96,
          "midi": 42,
          "name": "F#2",
          "ticks": 168193,
          "time": 232.56755674218752,
          "velocity": 0.4330708661417323
        },
        {
          "duration": 0.1327432500000043,
          "durationTicks": 96,
          "midi": 42,
          "name": "F#2",
          "ticks": 168385,
          "time": 232.83304324218753,
          "velocity": 0.4330708661417323
        },
        {
          "duration": 0.1327432499999759,
          "durationTicks": 96,
          "midi": 42,
          "name": "F#2",
          "ticks": 168481,
          "time": 232.96578649218753,
          "velocity": 0.4330708661417323
        },
        {
          "duration": 0.1327432500000043,
          "durationTicks": 96,
          "midi": 39,
          "name": "D#2",
          "ticks": 168577,
          "time": 233.0985297421875,
          "velocity": 0.4330708661417323
        },
        {
          "duration": 0.1327432500000043,
          "durationTicks": 96,
          "midi": 42,
          "name": "F#2",
          "ticks": 168577,
          "time": 233.0985297421875,
          "velocity": 0.4330708661417323
        },
        {
          "duration": 0.1327432500000043,
          "durationTicks": 96,
          "midi": 42,
          "name": "F#2",
          "ticks": 168769,
          "time": 233.36401624218752,
          "velocity": 0.4330708661417323
        },
        {
          "duration": 0.1327432500000043,
          "durationTicks": 96,
          "midi": 42,
          "name": "F#2",
          "ticks": 168865,
          "time": 233.49675949218752,
          "velocity": 0.4330708661417323
        },
        {
          "duration": 0.1327432500000043,
          "durationTicks": 96,
          "midi": 42,
          "name": "F#2",
          "ticks": 168961,
          "time": 233.62950274218753,
          "velocity": 0.4330708661417323
        },
        {
          "duration": 0.1327432499999759,
          "durationTicks": 96,
          "midi": 42,
          "name": "F#2",
          "ticks": 169153,
          "time": 233.89498924218753,
          "velocity": 0.4330708661417323
        },
        {
          "duration": 0.1327432500000043,
          "durationTicks": 96,
          "midi": 42,
          "name": "F#2",
          "ticks": 169249,
          "time": 234.0277324921875,
          "velocity": 0.4330708661417323
        },
        {
          "duration": 0.1327432500000043,
          "durationTicks": 96,
          "midi": 39,
          "name": "D#2",
          "ticks": 169345,
          "time": 234.16047574218751,
          "velocity": 0.4330708661417323
        },
        {
          "duration": 0.1327432500000043,
          "durationTicks": 96,
          "midi": 42,
          "name": "F#2",
          "ticks": 169345,
          "time": 234.16047574218751,
          "velocity": 0.4330708661417323
        },
        {
          "duration": 0.1327432500000043,
          "durationTicks": 96,
          "midi": 42,
          "name": "F#2",
          "ticks": 169537,
          "time": 234.42596224218752,
          "velocity": 0.4330708661417323
        },
        {
          "duration": 0.1327432500000043,
          "durationTicks": 96,
          "midi": 42,
          "name": "F#2",
          "ticks": 169633,
          "time": 234.55870549218753,
          "velocity": 0.4330708661417323
        },
        {
          "duration": 0.1327432500000043,
          "durationTicks": 96,
          "midi": 42,
          "name": "F#2",
          "ticks": 169729,
          "time": 234.69144874218753,
          "velocity": 0.4330708661417323
        },
        {
          "duration": 0.1327432500000043,
          "durationTicks": 96,
          "midi": 42,
          "name": "F#2",
          "ticks": 169921,
          "time": 234.9569352421875,
          "velocity": 0.4330708661417323
        },
        {
          "duration": 0.1327432500000043,
          "durationTicks": 96,
          "midi": 42,
          "name": "F#2",
          "ticks": 170017,
          "time": 235.08967849218752,
          "velocity": 0.4330708661417323
        },
        {
          "duration": 0.1327432500000043,
          "durationTicks": 96,
          "midi": 39,
          "name": "D#2",
          "ticks": 170113,
          "time": 235.22242174218752,
          "velocity": 0.4330708661417323
        },
        {
          "duration": 0.1327432500000043,
          "durationTicks": 96,
          "midi": 42,
          "name": "F#2",
          "ticks": 170113,
          "time": 235.22242174218752,
          "velocity": 0.4330708661417323
        },
        {
          "duration": 0.1327432500000043,
          "durationTicks": 96,
          "midi": 46,
          "name": "A#2",
          "ticks": 170305,
          "time": 235.48790824218753,
          "velocity": 0.4330708661417323
        },
        {
          "duration": 0.1327432500000043,
          "durationTicks": 96,
          "midi": 42,
          "name": "F#2",
          "ticks": 170497,
          "time": 235.7533947421875,
          "velocity": 0.4330708661417323
        },
        {
          "duration": 0.1327432500000043,
          "durationTicks": 96,
          "midi": 42,
          "name": "F#2",
          "ticks": 170689,
          "time": 236.01888124218752,
          "velocity": 0.4330708661417323
        },
        {
          "duration": 0.1327432500000043,
          "durationTicks": 96,
          "midi": 42,
          "name": "F#2",
          "ticks": 170785,
          "time": 236.15162449218752,
          "velocity": 0.4330708661417323
        },
        {
          "duration": 0.1327432500000043,
          "durationTicks": 96,
          "midi": 39,
          "name": "D#2",
          "ticks": 170881,
          "time": 236.28436774218753,
          "velocity": 0.4330708661417323
        },
        {
          "duration": 0.1327432500000043,
          "durationTicks": 96,
          "midi": 42,
          "name": "F#2",
          "ticks": 170881,
          "time": 236.28436774218753,
          "velocity": 0.4330708661417323
        },
        {
          "duration": 0.1327432499999759,
          "durationTicks": 96,
          "midi": 42,
          "name": "F#2",
          "ticks": 171073,
          "time": 236.54985424218754,
          "velocity": 0.4330708661417323
        },
        {
          "duration": 0.1327432500000043,
          "durationTicks": 96,
          "midi": 42,
          "name": "F#2",
          "ticks": 171169,
          "time": 236.6825974921875,
          "velocity": 0.4330708661417323
        },
        {
          "duration": 0.1327432500000043,
          "durationTicks": 96,
          "midi": 42,
          "name": "F#2",
          "ticks": 171265,
          "time": 236.81534074218752,
          "velocity": 0.4330708661417323
        },
        {
          "duration": 0.1327432500000043,
          "durationTicks": 96,
          "midi": 42,
          "name": "F#2",
          "ticks": 171457,
          "time": 237.08082724218752,
          "velocity": 0.4330708661417323
        },
        {
          "duration": 0.1327432500000043,
          "durationTicks": 96,
          "midi": 42,
          "name": "F#2",
          "ticks": 171553,
          "time": 237.21357049218753,
          "velocity": 0.4330708661417323
        },
        {
          "duration": 0.1327432499999759,
          "durationTicks": 96,
          "midi": 39,
          "name": "D#2",
          "ticks": 171649,
          "time": 237.34631374218753,
          "velocity": 0.4330708661417323
        },
        {
          "duration": 0.1327432499999759,
          "durationTicks": 96,
          "midi": 42,
          "name": "F#2",
          "ticks": 171649,
          "time": 237.34631374218753,
          "velocity": 0.4330708661417323
        },
        {
          "duration": 0.1327432500000043,
          "durationTicks": 96,
          "midi": 42,
          "name": "F#2",
          "ticks": 171841,
          "time": 237.6118002421875,
          "velocity": 0.4330708661417323
        },
        {
          "duration": 0.1327432500000043,
          "durationTicks": 96,
          "midi": 42,
          "name": "F#2",
          "ticks": 171937,
          "time": 237.74454349218752,
          "velocity": 0.4330708661417323
        },
        {
          "duration": 0.1327432500000043,
          "durationTicks": 96,
          "midi": 42,
          "name": "F#2",
          "ticks": 172033,
          "time": 237.87728674218752,
          "velocity": 0.4330708661417323
        },
        {
          "duration": 0.1327432500000043,
          "durationTicks": 96,
          "midi": 42,
          "name": "F#2",
          "ticks": 172225,
          "time": 238.14277324218753,
          "velocity": 0.4330708661417323
        },
        {
          "duration": 0.1327432499999759,
          "durationTicks": 96,
          "midi": 42,
          "name": "F#2",
          "ticks": 172321,
          "time": 238.27551649218753,
          "velocity": 0.4330708661417323
        },
        {
          "duration": 0.1327432500000043,
          "durationTicks": 96,
          "midi": 39,
          "name": "D#2",
          "ticks": 172417,
          "time": 238.4082597421875,
          "velocity": 0.4330708661417323
        },
        {
          "duration": 0.1327432500000043,
          "durationTicks": 96,
          "midi": 42,
          "name": "F#2",
          "ticks": 172417,
          "time": 238.4082597421875,
          "velocity": 0.4330708661417323
        },
        {
          "duration": 0.1327432500000043,
          "durationTicks": 96,
          "midi": 46,
          "name": "A#2",
          "ticks": 172609,
          "time": 238.67374624218752,
          "velocity": 0.4330708661417323
        },
        {
          "duration": 0.1327432500000043,
          "durationTicks": 96,
          "midi": 42,
          "name": "F#2",
          "ticks": 172801,
          "time": 238.93923274218753,
          "velocity": 0.4330708661417323
        },
        {
          "duration": 0.1327432499999759,
          "durationTicks": 96,
          "midi": 42,
          "name": "F#2",
          "ticks": 172993,
          "time": 239.20471924218754,
          "velocity": 0.4330708661417323
        },
        {
          "duration": 0.1327432500000043,
          "durationTicks": 96,
          "midi": 42,
          "name": "F#2",
          "ticks": 173089,
          "time": 239.3374624921875,
          "velocity": 0.4330708661417323
        },
        {
          "duration": 0.1327432500000043,
          "durationTicks": 96,
          "midi": 39,
          "name": "D#2",
          "ticks": 173185,
          "time": 239.47020574218752,
          "velocity": 0.4330708661417323
        },
        {
          "duration": 2.5221217499999966,
          "durationTicks": 1824,
          "midi": 39,
          "name": "D#2",
          "ticks": 173281,
          "time": 239.60294899218752,
          "velocity": 0.4330708661417323
        }
      ],
      "endOfTrackTicks": 175105
    },
    {
      "channel": 0,
      "controlChanges": {},
      "pitchBends": [],
      "instrument": {
        "family": "strings",
        "number": 40,
        "name": "violin"
      },
      "name": "Violin",
      "notes": [
        {
          "duration": 0.7964595000000001,
          "durationTicks": 576,
          "midi": 73,
          "name": "C#5",
          "ticks": 1536,
          "time": 2.123892,
          "velocity": 0.3858267716535433
        },
        {
          "duration": 0.7964595000000001,
          "durationTicks": 576,
          "midi": 70,
          "name": "A#4",
          "ticks": 1536,
          "time": 2.123892,
          "velocity": 0.3858267716535433
        },
        {
          "duration": 0.7964595000000001,
          "durationTicks": 576,
          "midi": 66,
          "name": "F#4",
          "ticks": 1536,
          "time": 2.123892,
          "velocity": 0.3858267716535433
        },
        {
          "duration": 0.7964595000000001,
          "durationTicks": 576,
          "midi": 77,
          "name": "F5",
          "ticks": 1536,
          "time": 2.123892,
          "velocity": 0.3858267716535433
        },
        {
          "duration": 1.3274325,
          "durationTicks": 960,
          "midi": 68,
          "name": "G#4",
          "ticks": 2112,
          "time": 2.9203515,
          "velocity": 0.3858267716535433
        },
        {
          "duration": 1.3274325,
          "durationTicks": 960,
          "midi": 72,
          "name": "C5",
          "ticks": 2112,
          "time": 2.9203515,
          "velocity": 0.3858267716535433
        },
        {
          "duration": 1.3274325,
          "durationTicks": 960,
          "midi": 75,
          "name": "D#5",
          "ticks": 2112,
          "time": 2.9203515,
          "velocity": 0.3858267716535433
        },
        {
          "duration": 0.7964595000000001,
          "durationTicks": 576,
          "midi": 75,
          "name": "D#5",
          "ticks": 3072,
          "time": 4.247784,
          "velocity": 0.3858267716535433
        },
        {
          "duration": 0.7964595000000001,
          "durationTicks": 576,
          "midi": 68,
          "name": "G#4",
          "ticks": 3072,
          "time": 4.247784,
          "velocity": 0.3858267716535433
        },
        {
          "duration": 0.7964595000000001,
          "durationTicks": 576,
          "midi": 72,
          "name": "C5",
          "ticks": 3072,
          "time": 4.247784,
          "velocity": 0.3858267716535433
        },
        {
          "duration": 1.3274325000000005,
          "durationTicks": 960,
          "midi": 73,
          "name": "C#5",
          "ticks": 3648,
          "time": 5.0442435,
          "velocity": 0.3858267716535433
        },
        {
          "duration": 1.3274325000000005,
          "durationTicks": 960,
          "midi": 70,
          "name": "A#4",
          "ticks": 3648,
          "time": 5.0442435,
          "velocity": 0.3858267716535433
        },
        {
          "duration": 1.3274325000000005,
          "durationTicks": 960,
          "midi": 77,
          "name": "F5",
          "ticks": 3648,
          "time": 5.0442435,
          "velocity": 0.3858267716535433
        },
        {
          "duration": 0.7964594999999992,
          "durationTicks": 576,
          "midi": 73,
          "name": "C#5",
          "ticks": 4608,
          "time": 6.371676000000001,
          "velocity": 0.3858267716535433
        },
        {
          "duration": 0.7964594999999992,
          "durationTicks": 576,
          "midi": 70,
          "name": "A#4",
          "ticks": 4608,
          "time": 6.371676000000001,
          "velocity": 0.3858267716535433
        },
        {
          "duration": 0.7964594999999992,
          "durationTicks": 576,
          "midi": 66,
          "name": "F#4",
          "ticks": 4608,
          "time": 6.371676000000001,
          "velocity": 0.3858267716535433
        },
        {
          "duration": 0.7964594999999992,
          "durationTicks": 576,
          "midi": 77,
          "name": "F5",
          "ticks": 4608,
          "time": 6.371676000000001,
          "velocity": 0.3858267716535433
        },
        {
          "duration": 1.3274325000000005,
          "durationTicks": 960,
          "midi": 68,
          "name": "G#4",
          "ticks": 5184,
          "time": 7.1681355,
          "velocity": 0.3858267716535433
        },
        {
          "duration": 1.3274325000000005,
          "durationTicks": 960,
          "midi": 72,
          "name": "C5",
          "ticks": 5184,
          "time": 7.1681355,
          "velocity": 0.3858267716535433
        },
        {
          "duration": 1.3274325000000005,
          "durationTicks": 960,
          "midi": 75,
          "name": "D#5",
          "ticks": 5184,
          "time": 7.1681355,
          "velocity": 0.3858267716535433
        },
        {
          "duration": 0.7964594999999992,
          "durationTicks": 576,
          "midi": 75,
          "name": "D#5",
          "ticks": 6144,
          "time": 8.495568,
          "velocity": 0.3858267716535433
        },
        {
          "duration": 0.7964594999999992,
          "durationTicks": 576,
          "midi": 68,
          "name": "G#4",
          "ticks": 6144,
          "time": 8.495568,
          "velocity": 0.3858267716535433
        },
        {
          "duration": 0.7964594999999992,
          "durationTicks": 576,
          "midi": 72,
          "name": "C5",
          "ticks": 6144,
          "time": 8.495568,
          "velocity": 0.3858267716535433
        },
        {
          "duration": 1.3274325000000005,
          "durationTicks": 960,
          "midi": 73,
          "name": "C#5",
          "ticks": 6720,
          "time": 9.2920275,
          "velocity": 0.3858267716535433
        },
        {
          "duration": 1.3274325000000005,
          "durationTicks": 960,
          "midi": 70,
          "name": "A#4",
          "ticks": 6720,
          "time": 9.2920275,
          "velocity": 0.3858267716535433
        },
        {
          "duration": 1.3274325000000005,
          "durationTicks": 960,
          "midi": 77,
          "name": "F5",
          "ticks": 6720,
          "time": 9.2920275,
          "velocity": 0.3858267716535433
        },
        {
          "duration": 0.796459500000001,
          "durationTicks": 576,
          "midi": 73,
          "name": "C#5",
          "ticks": 7680,
          "time": 10.61946,
          "velocity": 0.3858267716535433
        },
        {
          "duration": 0.796459500000001,
          "durationTicks": 576,
          "midi": 70,
          "name": "A#4",
          "ticks": 7680,
          "time": 10.61946,
          "velocity": 0.3858267716535433
        },
        {
          "duration": 0.796459500000001,
          "durationTicks": 576,
          "midi": 66,
          "name": "F#4",
          "ticks": 7680,
          "time": 10.61946,
          "velocity": 0.3858267716535433
        },
        {
          "duration": 0.796459500000001,
          "durationTicks": 576,
          "midi": 77,
          "name": "F5",
          "ticks": 7680,
          "time": 10.61946,
          "velocity": 0.3858267716535433
        },
        {
          "duration": 1.3274325000000005,
          "durationTicks": 960,
          "midi": 68,
          "name": "G#4",
          "ticks": 8256,
          "time": 11.415919500000001,
          "velocity": 0.3858267716535433
        },
        {
          "duration": 1.3274325000000005,
          "durationTicks": 960,
          "midi": 72,
          "name": "C5",
          "ticks": 8256,
          "time": 11.415919500000001,
          "velocity": 0.3858267716535433
        },
        {
          "duration": 1.3274325000000005,
          "durationTicks": 960,
          "midi": 75,
          "name": "D#5",
          "ticks": 8256,
          "time": 11.415919500000001,
          "velocity": 0.3858267716535433
        },
        {
          "duration": 0.7964594999999992,
          "durationTicks": 576,
          "midi": 75,
          "name": "D#5",
          "ticks": 9216,
          "time": 12.743352000000002,
          "velocity": 0.3858267716535433
        },
        {
          "duration": 0.7964594999999992,
          "durationTicks": 576,
          "midi": 68,
          "name": "G#4",
          "ticks": 9216,
          "time": 12.743352000000002,
          "velocity": 0.3858267716535433
        },
        {
          "duration": 0.7964594999999992,
          "durationTicks": 576,
          "midi": 72,
          "name": "C5",
          "ticks": 9216,
          "time": 12.743352000000002,
          "velocity": 0.3858267716535433
        },
        {
          "duration": 1.3274325000000005,
          "durationTicks": 960,
          "midi": 73,
          "name": "C#5",
          "ticks": 9792,
          "time": 13.5398115,
          "velocity": 0.3858267716535433
        },
        {
          "duration": 1.3274325000000005,
          "durationTicks": 960,
          "midi": 70,
          "name": "A#4",
          "ticks": 9792,
          "time": 13.5398115,
          "velocity": 0.3858267716535433
        },
        {
          "duration": 1.3274325000000005,
          "durationTicks": 960,
          "midi": 77,
          "name": "F5",
          "ticks": 9792,
          "time": 13.5398115,
          "velocity": 0.3858267716535433
        },
        {
          "duration": 0.6637162500000002,
          "durationTicks": 480,
          "midi": 70,
          "name": "A#4",
          "ticks": 10752,
          "time": 14.867244000000001,
          "velocity": 0.3858267716535433
        },
        {
          "duration": 0.6637162500000002,
          "durationTicks": 480,
          "midi": 66,
          "name": "F#4",
          "ticks": 10752,
          "time": 14.867244000000001,
          "velocity": 0.3858267716535433
        },
        {
          "duration": 0.7964594999999992,
          "durationTicks": 576,
          "midi": 73,
          "name": "C#5",
          "ticks": 10752,
          "time": 14.867244000000001,
          "velocity": 0.3858267716535433
        },
        {
          "duration": 1.3274325000000005,
          "durationTicks": 960,
          "midi": 72,
          "name": "C5",
          "ticks": 11328,
          "time": 15.6637035,
          "velocity": 0.3858267716535433
        },
        {
          "duration": 1.3274325000000005,
          "durationTicks": 960,
          "midi": 75,
          "name": "D#5",
          "ticks": 11328,
          "time": 15.6637035,
          "velocity": 0.3858267716535433
        },
        {
          "duration": 1.3274325000000005,
          "durationTicks": 960,
          "midi": 68,
          "name": "G#4",
          "ticks": 11328,
          "time": 15.6637035,
          "velocity": 0.3858267716535433
        },
        {
          "duration": 0.5309729999999995,
          "durationTicks": 384,
          "midi": 72,
          "name": "C5",
          "ticks": 12288,
          "time": 16.991136,
          "velocity": 0.3858267716535433
        },
        {
          "duration": 0.5309729999999995,
          "durationTicks": 384,
          "midi": 75,
          "name": "D#5",
          "ticks": 12288,
          "time": 16.991136,
          "velocity": 0.3858267716535433
        },
        {
          "duration": 0.5309729999999995,
          "durationTicks": 384,
          "midi": 68,
          "name": "G#4",
          "ticks": 12288,
          "time": 16.991136,
          "velocity": 0.3858267716535433
        },
        {
          "duration": 1.592919000000002,
          "durationTicks": 1152,
          "midi": 68,
          "name": "G#4",
          "ticks": 12672,
          "time": 17.522109,
          "velocity": 0.3858267716535433
        },
        {
          "duration": 1.592919000000002,
          "durationTicks": 1152,
          "midi": 73,
          "name": "C#5",
          "ticks": 12672,
          "time": 17.522109,
          "velocity": 0.3858267716535433
        },
        {
          "duration": 1.592919000000002,
          "durationTicks": 1152,
          "midi": 77,
          "name": "F5",
          "ticks": 12672,
          "time": 17.522109,
          "velocity": 0.3858267716535433
        },
        {
          "duration": 2.123891999999998,
          "durationTicks": 1536,
          "midi": 73,
          "name": "C#5",
          "ticks": 13824,
          "time": 19.115028000000002,
          "velocity": 0.3858267716535433
        },
        {
          "duration": 2.123891999999998,
          "durationTicks": 1536,
          "midi": 70,
          "name": "A#4",
          "ticks": 13824,
          "time": 19.115028000000002,
          "velocity": 0.3858267716535433
        },
        {
          "duration": 2.123891999999998,
          "durationTicks": 1536,
          "midi": 66,
          "name": "F#4",
          "ticks": 13824,
          "time": 19.115028000000002,
          "velocity": 0.3858267716535433
        },
        {
          "duration": 2.123891999999998,
          "durationTicks": 1536,
          "midi": 77,
          "name": "F5",
          "ticks": 13824,
          "time": 19.115028000000002,
          "velocity": 0.3858267716535433
        },
        {
          "duration": 2.1238920000000014,
          "durationTicks": 1536,
          "midi": 68,
          "name": "G#4",
          "ticks": 15360,
          "time": 21.23892,
          "velocity": 0.3858267716535433
        },
        {
          "duration": 2.1238920000000014,
          "durationTicks": 1536,
          "midi": 70,
          "name": "A#4",
          "ticks": 15360,
          "time": 21.23892,
          "velocity": 0.3858267716535433
        },
        {
          "duration": 2.1238920000000014,
          "durationTicks": 1536,
          "midi": 72,
          "name": "C5",
          "ticks": 15360,
          "time": 21.23892,
          "velocity": 0.3858267716535433
        },
        {
          "duration": 2.1238920000000014,
          "durationTicks": 1536,
          "midi": 75,
          "name": "D#5",
          "ticks": 15360,
          "time": 21.23892,
          "velocity": 0.3858267716535433
        },
        {
          "duration": 2.1238920000000014,
          "durationTicks": 1536,
          "midi": 66,
          "name": "F#4",
          "ticks": 16896,
          "time": 23.362812,
          "velocity": 0.3858267716535433
        },
        {
          "duration": 2.1238920000000014,
          "durationTicks": 1536,
          "midi": 70,
          "name": "A#4",
          "ticks": 16896,
          "time": 23.362812,
          "velocity": 0.3858267716535433
        },
        {
          "duration": 2.1238920000000014,
          "durationTicks": 1536,
          "midi": 73,
          "name": "C#5",
          "ticks": 16896,
          "time": 23.362812,
          "velocity": 0.3858267716535433
        },
        {
          "duration": 2.1238920000000014,
          "durationTicks": 1536,
          "midi": 77,
          "name": "F5",
          "ticks": 16896,
          "time": 23.362812,
          "velocity": 0.3858267716535433
        },
        {
          "duration": 0.7964594999999974,
          "durationTicks": 576,
          "midi": 73,
          "name": "C#5",
          "ticks": 18432,
          "time": 25.486704000000003,
          "velocity": 0.3858267716535433
        },
        {
          "duration": 0.7964594999999974,
          "durationTicks": 576,
          "midi": 66,
          "name": "F#4",
          "ticks": 18432,
          "time": 25.486704000000003,
          "velocity": 0.3858267716535433
        },
        {
          "duration": 0.7964594999999974,
          "durationTicks": 576,
          "midi": 70,
          "name": "A#4",
          "ticks": 18432,
          "time": 25.486704000000003,
          "velocity": 0.3858267716535433
        },
        {
          "duration": 0.7964594999999974,
          "durationTicks": 576,
          "midi": 77,
          "name": "F5",
          "ticks": 18432,
          "time": 25.486704000000003,
          "velocity": 0.3858267716535433
        },
        {
          "duration": 1.3274325000000005,
          "durationTicks": 960,
          "midi": 70,
          "name": "A#4",
          "ticks": 19008,
          "time": 26.2831635,
          "velocity": 0.3858267716535433
        },
        {
          "duration": 1.3274325000000005,
          "durationTicks": 960,
          "midi": 68,
          "name": "G#4",
          "ticks": 19008,
          "time": 26.2831635,
          "velocity": 0.3858267716535433
        },
        {
          "duration": 1.3274325000000005,
          "durationTicks": 960,
          "midi": 75,
          "name": "D#5",
          "ticks": 19008,
          "time": 26.2831635,
          "velocity": 0.3858267716535433
        },
        {
          "duration": 1.3274325000000005,
          "durationTicks": 960,
          "midi": 72,
          "name": "C5",
          "ticks": 19008,
          "time": 26.2831635,
          "velocity": 0.3858267716535433
        },
        {
          "duration": 2.1238920000000014,
          "durationTicks": 1536,
          "midi": 66,
          "name": "F#4",
          "ticks": 19968,
          "time": 27.610596,
          "velocity": 0.3858267716535433
        },
        {
          "duration": 2.1238920000000014,
          "durationTicks": 1536,
          "midi": 77,
          "name": "F5",
          "ticks": 19968,
          "time": 27.610596,
          "velocity": 0.3858267716535433
        },
        {
          "duration": 2.1238920000000014,
          "durationTicks": 1536,
          "midi": 70,
          "name": "A#4",
          "ticks": 19968,
          "time": 27.610596,
          "velocity": 0.3858267716535433
        },
        {
          "duration": 2.1238920000000014,
          "durationTicks": 1536,
          "midi": 73,
          "name": "C#5",
          "ticks": 19968,
          "time": 27.610596,
          "velocity": 0.3858267716535433
        },
        {
          "duration": 2.123891999999998,
          "durationTicks": 1536,
          "midi": 68,
          "name": "G#4",
          "ticks": 21504,
          "time": 29.734488000000002,
          "velocity": 0.3858267716535433
        },
        {
          "duration": 2.123891999999998,
          "durationTicks": 1536,
          "midi": 70,
          "name": "A#4",
          "ticks": 21504,
          "time": 29.734488000000002,
          "velocity": 0.3858267716535433
        },
        {
          "duration": 2.123891999999998,
          "durationTicks": 1536,
          "midi": 75,
          "name": "D#5",
          "ticks": 21504,
          "time": 29.734488000000002,
          "velocity": 0.3858267716535433
        },
        {
          "duration": 2.123891999999998,
          "durationTicks": 1536,
          "midi": 72,
          "name": "C5",
          "ticks": 21504,
          "time": 29.734488000000002,
          "velocity": 0.3858267716535433
        },
        {
          "duration": 2.1238920000000014,
          "durationTicks": 1536,
          "midi": 77,
          "name": "F5",
          "ticks": 23040,
          "time": 31.85838,
          "velocity": 0.3858267716535433
        },
        {
          "duration": 2.1238920000000014,
          "durationTicks": 1536,
          "midi": 66,
          "name": "F#4",
          "ticks": 23040,
          "time": 31.85838,
          "velocity": 0.3858267716535433
        },
        {
          "duration": 2.1238920000000014,
          "durationTicks": 1536,
          "midi": 70,
          "name": "A#4",
          "ticks": 23040,
          "time": 31.85838,
          "velocity": 0.3858267716535433
        },
        {
          "duration": 2.1238920000000014,
          "durationTicks": 1536,
          "midi": 73,
          "name": "C#5",
          "ticks": 23040,
          "time": 31.85838,
          "velocity": 0.3858267716535433
        },
        {
          "duration": 0.7964594999999974,
          "durationTicks": 576,
          "midi": 73,
          "name": "C#5",
          "ticks": 24576,
          "time": 33.982272,
          "velocity": 0.3858267716535433
        },
        {
          "duration": 0.7964594999999974,
          "durationTicks": 576,
          "midi": 66,
          "name": "F#4",
          "ticks": 24576,
          "time": 33.982272,
          "velocity": 0.3858267716535433
        },
        {
          "duration": 0.7964594999999974,
          "durationTicks": 576,
          "midi": 70,
          "name": "A#4",
          "ticks": 24576,
          "time": 33.982272,
          "velocity": 0.3858267716535433
        },
        {
          "duration": 0.7964594999999974,
          "durationTicks": 576,
          "midi": 77,
          "name": "F5",
          "ticks": 24576,
          "time": 33.982272,
          "velocity": 0.3858267716535433
        },
        {
          "duration": 1.3274325000000005,
          "durationTicks": 960,
          "midi": 70,
          "name": "A#4",
          "ticks": 25152,
          "time": 34.7787315,
          "velocity": 0.3858267716535433
        },
        {
          "duration": 1.3274325000000005,
          "durationTicks": 960,
          "midi": 68,
          "name": "G#4",
          "ticks": 25152,
          "time": 34.7787315,
          "velocity": 0.3858267716535433
        },
        {
          "duration": 1.3274325000000005,
          "durationTicks": 960,
          "midi": 75,
          "name": "D#5",
          "ticks": 25152,
          "time": 34.7787315,
          "velocity": 0.3858267716535433
        },
        {
          "duration": 1.3274325000000005,
          "durationTicks": 960,
          "midi": 72,
          "name": "C5",
          "ticks": 25152,
          "time": 34.7787315,
          "velocity": 0.3858267716535433
        },
        {
          "duration": 1.8584055000000035,
          "durationTicks": 1344,
          "midi": 70,
          "name": "A#4",
          "ticks": 26112,
          "time": 36.106164,
          "velocity": 0.3858267716535433
        },
        {
          "duration": 1.8584055000000035,
          "durationTicks": 1344,
          "midi": 73,
          "name": "C#5",
          "ticks": 26112,
          "time": 36.106164,
          "velocity": 0.3858267716535433
        },
        {
          "duration": 1.8584055000000035,
          "durationTicks": 1344,
          "midi": 66,
          "name": "F#4",
          "ticks": 26112,
          "time": 36.106164,
          "velocity": 0.3858267716535433
        },
        {
          "duration": 2.3893784999999994,
          "durationTicks": 1728,
          "midi": 65,
          "name": "F4",
          "ticks": 27456,
          "time": 37.9645695,
          "velocity": 0.3858267716535433
        },
        {
          "duration": 2.3893784999999994,
          "durationTicks": 1728,
          "midi": 68,
          "name": "G#4",
          "ticks": 27456,
          "time": 37.9645695,
          "velocity": 0.3858267716535433
        },
        {
          "duration": 2.3893784999999994,
          "durationTicks": 1728,
          "midi": 72,
          "name": "C5",
          "ticks": 27456,
          "time": 37.9645695,
          "velocity": 0.3858267716535433
        },
        {
          "duration": 2.3893784999999994,
          "durationTicks": 1728,
          "midi": 75,
          "name": "D#5",
          "ticks": 27456,
          "time": 37.9645695,
          "velocity": 0.3858267716535433
        },
        {
          "duration": 2.123891999999998,
          "durationTicks": 1536,
          "midi": 66,
          "name": "F#4",
          "ticks": 29184,
          "time": 40.353948,
          "velocity": 0.3858267716535433
        },
        {
          "duration": 2.123891999999998,
          "durationTicks": 1536,
          "midi": 73,
          "name": "C#5",
          "ticks": 29184,
          "time": 40.353948,
          "velocity": 0.3858267716535433
        },
        {
          "duration": 2.123891999999998,
          "durationTicks": 1536,
          "midi": 70,
          "name": "A#4",
          "ticks": 29184,
          "time": 40.353948,
          "velocity": 0.3858267716535433
        },
        {
          "duration": 0.7964595000000045,
          "durationTicks": 576,
          "midi": 66,
          "name": "F#4",
          "ticks": 30720,
          "time": 42.47784,
          "velocity": 0.3858267716535433
        },
        {
          "duration": 0.7964595000000045,
          "durationTicks": 576,
          "midi": 70,
          "name": "A#4",
          "ticks": 30720,
          "time": 42.47784,
          "velocity": 0.3858267716535433
        },
        {
          "duration": 0.7964595000000045,
          "durationTicks": 576,
          "midi": 73,
          "name": "C#5",
          "ticks": 30720,
          "time": 42.47784,
          "velocity": 0.3858267716535433
        },
        {
          "duration": 0.7964595000000045,
          "durationTicks": 576,
          "midi": 77,
          "name": "F5",
          "ticks": 30720,
          "time": 42.47784,
          "velocity": 0.3858267716535433
        },
        {
          "duration": 1.3274325000000005,
          "durationTicks": 960,
          "midi": 72,
          "name": "C5",
          "ticks": 31296,
          "time": 43.274299500000005,
          "velocity": 0.3858267716535433
        },
        {
          "duration": 1.3274325000000005,
          "durationTicks": 960,
          "midi": 65,
          "name": "F4",
          "ticks": 31296,
          "time": 43.274299500000005,
          "velocity": 0.3858267716535433
        },
        {
          "duration": 1.3274325000000005,
          "durationTicks": 960,
          "midi": 75,
          "name": "D#5",
          "ticks": 31296,
          "time": 43.274299500000005,
          "velocity": 0.3858267716535433
        },
        {
          "duration": 1.3274325000000005,
          "durationTicks": 960,
          "midi": 68,
          "name": "G#4",
          "ticks": 31296,
          "time": 43.274299500000005,
          "velocity": 0.3858267716535433
        },
        {
          "duration": 0.7964594999999974,
          "durationTicks": 576,
          "midi": 73,
          "name": "C#5",
          "ticks": 32256,
          "time": 44.601732000000005,
          "velocity": 0.3858267716535433
        },
        {
          "duration": 0.7964594999999974,
          "durationTicks": 576,
          "midi": 70,
          "name": "A#4",
          "ticks": 32256,
          "time": 44.601732000000005,
          "velocity": 0.3858267716535433
        },
        {
          "duration": 0.7964594999999974,
          "durationTicks": 576,
          "midi": 66,
          "name": "F#4",
          "ticks": 32256,
          "time": 44.601732000000005,
          "velocity": 0.3858267716535433
        },
        {
          "duration": 0.7964594999999974,
          "durationTicks": 576,
          "midi": 77,
          "name": "F5",
          "ticks": 32256,
          "time": 44.601732000000005,
          "velocity": 0.3858267716535433
        },
        {
          "duration": 1.3274325000000005,
          "durationTicks": 960,
          "midi": 68,
          "name": "G#4",
          "ticks": 32832,
          "time": 45.3981915,
          "velocity": 0.3858267716535433
        },
        {
          "duration": 1.3274325000000005,
          "durationTicks": 960,
          "midi": 72,
          "name": "C5",
          "ticks": 32832,
          "time": 45.3981915,
          "velocity": 0.3858267716535433
        },
        {
          "duration": 1.3274325000000005,
          "durationTicks": 960,
          "midi": 75,
          "name": "D#5",
          "ticks": 32832,
          "time": 45.3981915,
          "velocity": 0.3858267716535433
        },
        {
          "duration": 0.7964594999999974,
          "durationTicks": 576,
          "midi": 75,
          "name": "D#5",
          "ticks": 33792,
          "time": 46.725624,
          "velocity": 0.3858267716535433
        },
        {
          "duration": 0.7964594999999974,
          "durationTicks": 576,
          "midi": 68,
          "name": "G#4",
          "ticks": 33792,
          "time": 46.725624,
          "velocity": 0.3858267716535433
        },
        {
          "duration": 0.7964594999999974,
          "durationTicks": 576,
          "midi": 72,
          "name": "C5",
          "ticks": 33792,
          "time": 46.725624,
          "velocity": 0.3858267716535433
        },
        {
          "duration": 1.3274325000000005,
          "durationTicks": 960,
          "midi": 73,
          "name": "C#5",
          "ticks": 34368,
          "time": 47.5220835,
          "velocity": 0.3858267716535433
        },
        {
          "duration": 1.3274325000000005,
          "durationTicks": 960,
          "midi": 70,
          "name": "A#4",
          "ticks": 34368,
          "time": 47.5220835,
          "velocity": 0.3858267716535433
        },
        {
          "duration": 1.3274325000000005,
          "durationTicks": 960,
          "midi": 77,
          "name": "F5",
          "ticks": 34368,
          "time": 47.5220835,
          "velocity": 0.3858267716535433
        },
        {
          "duration": 0.7964595000000045,
          "durationTicks": 576,
          "midi": 73,
          "name": "C#5",
          "ticks": 35328,
          "time": 48.849516,
          "velocity": 0.3858267716535433
        },
        {
          "duration": 0.7964595000000045,
          "durationTicks": 576,
          "midi": 70,
          "name": "A#4",
          "ticks": 35328,
          "time": 48.849516,
          "velocity": 0.3858267716535433
        },
        {
          "duration": 0.7964595000000045,
          "durationTicks": 576,
          "midi": 66,
          "name": "F#4",
          "ticks": 35328,
          "time": 48.849516,
          "velocity": 0.3858267716535433
        },
        {
          "duration": 0.7964595000000045,
          "durationTicks": 576,
          "midi": 77,
          "name": "F5",
          "ticks": 35328,
          "time": 48.849516,
          "velocity": 0.3858267716535433
        },
        {
          "duration": 1.3274325000000005,
          "durationTicks": 960,
          "midi": 68,
          "name": "G#4",
          "ticks": 35904,
          "time": 49.645975500000006,
          "velocity": 0.3858267716535433
        },
        {
          "duration": 1.3274325000000005,
          "durationTicks": 960,
          "midi": 72,
          "name": "C5",
          "ticks": 35904,
          "time": 49.645975500000006,
          "velocity": 0.3858267716535433
        },
        {
          "duration": 1.3274325000000005,
          "durationTicks": 960,
          "midi": 75,
          "name": "D#5",
          "ticks": 35904,
          "time": 49.645975500000006,
          "velocity": 0.3858267716535433
        },
        {
          "duration": 0.7964594999999974,
          "durationTicks": 576,
          "midi": 75,
          "name": "D#5",
          "ticks": 36864,
          "time": 50.973408000000006,
          "velocity": 0.3858267716535433
        },
        {
          "duration": 0.7964594999999974,
          "durationTicks": 576,
          "midi": 68,
          "name": "G#4",
          "ticks": 36864,
          "time": 50.973408000000006,
          "velocity": 0.3858267716535433
        },
        {
          "duration": 0.7964594999999974,
          "durationTicks": 576,
          "midi": 72,
          "name": "C5",
          "ticks": 36864,
          "time": 50.973408000000006,
          "velocity": 0.3858267716535433
        },
        {
          "duration": 1.3274325000000005,
          "durationTicks": 960,
          "midi": 73,
          "name": "C#5",
          "ticks": 37440,
          "time": 51.769867500000004,
          "velocity": 0.3858267716535433
        },
        {
          "duration": 1.3274325000000005,
          "durationTicks": 960,
          "midi": 70,
          "name": "A#4",
          "ticks": 37440,
          "time": 51.769867500000004,
          "velocity": 0.3858267716535433
        },
        {
          "duration": 1.3274325000000005,
          "durationTicks": 960,
          "midi": 77,
          "name": "F5",
          "ticks": 37440,
          "time": 51.769867500000004,
          "velocity": 0.3858267716535433
        },
        {
          "duration": 0.7964594999999974,
          "durationTicks": 576,
          "midi": 73,
          "name": "C#5",
          "ticks": 38400,
          "time": 53.097300000000004,
          "velocity": 0.3858267716535433
        },
        {
          "duration": 0.7964594999999974,
          "durationTicks": 576,
          "midi": 70,
          "name": "A#4",
          "ticks": 38400,
          "time": 53.097300000000004,
          "velocity": 0.3858267716535433
        },
        {
          "duration": 0.7964594999999974,
          "durationTicks": 576,
          "midi": 66,
          "name": "F#4",
          "ticks": 38400,
          "time": 53.097300000000004,
          "velocity": 0.3858267716535433
        },
        {
          "duration": 0.7964594999999974,
          "durationTicks": 576,
          "midi": 77,
          "name": "F5",
          "ticks": 38400,
          "time": 53.097300000000004,
          "velocity": 0.3858267716535433
        },
        {
          "duration": 1.3274325000000005,
          "durationTicks": 960,
          "midi": 68,
          "name": "G#4",
          "ticks": 38976,
          "time": 53.8937595,
          "velocity": 0.3858267716535433
        },
        {
          "duration": 1.3274325000000005,
          "durationTicks": 960,
          "midi": 72,
          "name": "C5",
          "ticks": 38976,
          "time": 53.8937595,
          "velocity": 0.3858267716535433
        },
        {
          "duration": 1.3274325000000005,
          "durationTicks": 960,
          "midi": 75,
          "name": "D#5",
          "ticks": 38976,
          "time": 53.8937595,
          "velocity": 0.3858267716535433
        },
        {
          "duration": 0.7964594999999974,
          "durationTicks": 576,
          "midi": 75,
          "name": "D#5",
          "ticks": 39936,
          "time": 55.221192,
          "velocity": 0.3858267716535433
        },
        {
          "duration": 0.7964594999999974,
          "durationTicks": 576,
          "midi": 68,
          "name": "G#4",
          "ticks": 39936,
          "time": 55.221192,
          "velocity": 0.3858267716535433
        },
        {
          "duration": 0.7964594999999974,
          "durationTicks": 576,
          "midi": 72,
          "name": "C5",
          "ticks": 39936,
          "time": 55.221192,
          "velocity": 0.3858267716535433
        },
        {
          "duration": 1.3274325000000005,
          "durationTicks": 960,
          "midi": 73,
          "name": "C#5",
          "ticks": 40512,
          "time": 56.0176515,
          "velocity": 0.3858267716535433
        },
        {
          "duration": 1.3274325000000005,
          "durationTicks": 960,
          "midi": 70,
          "name": "A#4",
          "ticks": 40512,
          "time": 56.0176515,
          "velocity": 0.3858267716535433
        },
        {
          "duration": 1.3274325000000005,
          "durationTicks": 960,
          "midi": 77,
          "name": "F5",
          "ticks": 40512,
          "time": 56.0176515,
          "velocity": 0.3858267716535433
        },
        {
          "duration": 0.6637162500000002,
          "durationTicks": 480,
          "midi": 70,
          "name": "A#4",
          "ticks": 41472,
          "time": 57.345084,
          "velocity": 0.3858267716535433
        },
        {
          "duration": 0.6637162500000002,
          "durationTicks": 480,
          "midi": 66,
          "name": "F#4",
          "ticks": 41472,
          "time": 57.345084,
          "velocity": 0.3858267716535433
        },
        {
          "duration": 0.7964595000000045,
          "durationTicks": 576,
          "midi": 73,
          "name": "C#5",
          "ticks": 41472,
          "time": 57.345084,
          "velocity": 0.3858267716535433
        },
        {
          "duration": 1.3274325000000005,
          "durationTicks": 960,
          "midi": 72,
          "name": "C5",
          "ticks": 42048,
          "time": 58.141543500000004,
          "velocity": 0.3858267716535433
        },
        {
          "duration": 1.3274325000000005,
          "durationTicks": 960,
          "midi": 75,
          "name": "D#5",
          "ticks": 42048,
          "time": 58.141543500000004,
          "velocity": 0.3858267716535433
        },
        {
          "duration": 1.3274325000000005,
          "durationTicks": 960,
          "midi": 68,
          "name": "G#4",
          "ticks": 42048,
          "time": 58.141543500000004,
          "velocity": 0.3858267716535433
        },
        {
          "duration": 0.5309729999999959,
          "durationTicks": 384,
          "midi": 72,
          "name": "C5",
          "ticks": 43008,
          "time": 59.468976000000005,
          "velocity": 0.3858267716535433
        },
        {
          "duration": 0.5309729999999959,
          "durationTicks": 384,
          "midi": 75,
          "name": "D#5",
          "ticks": 43008,
          "time": 59.468976000000005,
          "velocity": 0.3858267716535433
        },
        {
          "duration": 0.5309729999999959,
          "durationTicks": 384,
          "midi": 68,
          "name": "G#4",
          "ticks": 43008,
          "time": 59.468976000000005,
          "velocity": 0.3858267716535433
        },
        {
          "duration": 1.592919000000002,
          "durationTicks": 1152,
          "midi": 68,
          "name": "G#4",
          "ticks": 43392,
          "time": 59.999949,
          "velocity": 0.3858267716535433
        },
        {
          "duration": 1.592919000000002,
          "durationTicks": 1152,
          "midi": 73,
          "name": "C#5",
          "ticks": 43392,
          "time": 59.999949,
          "velocity": 0.3858267716535433
        },
        {
          "duration": 1.592919000000002,
          "durationTicks": 1152,
          "midi": 77,
          "name": "F5",
          "ticks": 43392,
          "time": 59.999949,
          "velocity": 0.3858267716535433
        },
        {
          "duration": 2.123891999999998,
          "durationTicks": 1536,
          "midi": 73,
          "name": "C#5",
          "ticks": 44544,
          "time": 61.592868,
          "velocity": 0.3858267716535433
        },
        {
          "duration": 2.123891999999998,
          "durationTicks": 1536,
          "midi": 70,
          "name": "A#4",
          "ticks": 44544,
          "time": 61.592868,
          "velocity": 0.3858267716535433
        },
        {
          "duration": 2.123891999999998,
          "durationTicks": 1536,
          "midi": 66,
          "name": "F#4",
          "ticks": 44544,
          "time": 61.592868,
          "velocity": 0.3858267716535433
        },
        {
          "duration": 2.123891999999998,
          "durationTicks": 1536,
          "midi": 77,
          "name": "F5",
          "ticks": 44544,
          "time": 61.592868,
          "velocity": 0.3858267716535433
        },
        {
          "duration": 2.123892000000005,
          "durationTicks": 1536,
          "midi": 68,
          "name": "G#4",
          "ticks": 46080,
          "time": 63.71676,
          "velocity": 0.3858267716535433
        },
        {
          "duration": 2.123892000000005,
          "durationTicks": 1536,
          "midi": 70,
          "name": "A#4",
          "ticks": 46080,
          "time": 63.71676,
          "velocity": 0.3858267716535433
        },
        {
          "duration": 2.123892000000005,
          "durationTicks": 1536,
          "midi": 72,
          "name": "C5",
          "ticks": 46080,
          "time": 63.71676,
          "velocity": 0.3858267716535433
        },
        {
          "duration": 2.123892000000005,
          "durationTicks": 1536,
          "midi": 75,
          "name": "D#5",
          "ticks": 46080,
          "time": 63.71676,
          "velocity": 0.3858267716535433
        },
        {
          "duration": 2.123891999999998,
          "durationTicks": 1536,
          "midi": 66,
          "name": "F#4",
          "ticks": 47616,
          "time": 65.840652,
          "velocity": 0.3858267716535433
        },
        {
          "duration": 2.123891999999998,
          "durationTicks": 1536,
          "midi": 70,
          "name": "A#4",
          "ticks": 47616,
          "time": 65.840652,
          "velocity": 0.3858267716535433
        },
        {
          "duration": 2.123891999999998,
          "durationTicks": 1536,
          "midi": 73,
          "name": "C#5",
          "ticks": 47616,
          "time": 65.840652,
          "velocity": 0.3858267716535433
        },
        {
          "duration": 2.123891999999998,
          "durationTicks": 1536,
          "midi": 77,
          "name": "F5",
          "ticks": 47616,
          "time": 65.840652,
          "velocity": 0.3858267716535433
        },
        {
          "duration": 0.7964594999999974,
          "durationTicks": 576,
          "midi": 73,
          "name": "C#5",
          "ticks": 49152,
          "time": 67.964544,
          "velocity": 0.3858267716535433
        },
        {
          "duration": 0.7964594999999974,
          "durationTicks": 576,
          "midi": 66,
          "name": "F#4",
          "ticks": 49152,
          "time": 67.964544,
          "velocity": 0.3858267716535433
        },
        {
          "duration": 0.7964594999999974,
          "durationTicks": 576,
          "midi": 70,
          "name": "A#4",
          "ticks": 49152,
          "time": 67.964544,
          "velocity": 0.3858267716535433
        },
        {
          "duration": 0.7964594999999974,
          "durationTicks": 576,
          "midi": 77,
          "name": "F5",
          "ticks": 49152,
          "time": 67.964544,
          "velocity": 0.3858267716535433
        },
        {
          "duration": 1.3274325000000005,
          "durationTicks": 960,
          "midi": 70,
          "name": "A#4",
          "ticks": 49728,
          "time": 68.7610035,
          "velocity": 0.3858267716535433
        },
        {
          "duration": 1.3274325000000005,
          "durationTicks": 960,
          "midi": 68,
          "name": "G#4",
          "ticks": 49728,
          "time": 68.7610035,
          "velocity": 0.3858267716535433
        },
        {
          "duration": 1.3274325000000005,
          "durationTicks": 960,
          "midi": 75,
          "name": "D#5",
          "ticks": 49728,
          "time": 68.7610035,
          "velocity": 0.3858267716535433
        },
        {
          "duration": 1.3274325000000005,
          "durationTicks": 960,
          "midi": 72,
          "name": "C5",
          "ticks": 49728,
          "time": 68.7610035,
          "velocity": 0.3858267716535433
        },
        {
          "duration": 2.123891999999998,
          "durationTicks": 1536,
          "midi": 66,
          "name": "F#4",
          "ticks": 50688,
          "time": 70.088436,
          "velocity": 0.3858267716535433
        },
        {
          "duration": 2.123891999999998,
          "durationTicks": 1536,
          "midi": 77,
          "name": "F5",
          "ticks": 50688,
          "time": 70.088436,
          "velocity": 0.3858267716535433
        },
        {
          "duration": 2.123891999999998,
          "durationTicks": 1536,
          "midi": 70,
          "name": "A#4",
          "ticks": 50688,
          "time": 70.088436,
          "velocity": 0.3858267716535433
        },
        {
          "duration": 2.123891999999998,
          "durationTicks": 1536,
          "midi": 73,
          "name": "C#5",
          "ticks": 50688,
          "time": 70.088436,
          "velocity": 0.3858267716535433
        },
        {
          "duration": 2.123891999999998,
          "durationTicks": 1536,
          "midi": 68,
          "name": "G#4",
          "ticks": 52224,
          "time": 72.212328,
          "velocity": 0.3858267716535433
        },
        {
          "duration": 2.123891999999998,
          "durationTicks": 1536,
          "midi": 70,
          "name": "A#4",
          "ticks": 52224,
          "time": 72.212328,
          "velocity": 0.3858267716535433
        },
        {
          "duration": 2.123891999999998,
          "durationTicks": 1536,
          "midi": 75,
          "name": "D#5",
          "ticks": 52224,
          "time": 72.212328,
          "velocity": 0.3858267716535433
        },
        {
          "duration": 2.123891999999998,
          "durationTicks": 1536,
          "midi": 72,
          "name": "C5",
          "ticks": 52224,
          "time": 72.212328,
          "velocity": 0.3858267716535433
        },
        {
          "duration": 2.123892000000012,
          "durationTicks": 1536,
          "midi": 77,
          "name": "F5",
          "ticks": 53760,
          "time": 74.33622,
          "velocity": 0.3858267716535433
        },
        {
          "duration": 2.123892000000012,
          "durationTicks": 1536,
          "midi": 66,
          "name": "F#4",
          "ticks": 53760,
          "time": 74.33622,
          "velocity": 0.3858267716535433
        },
        {
          "duration": 2.123892000000012,
          "durationTicks": 1536,
          "midi": 70,
          "name": "A#4",
          "ticks": 53760,
          "time": 74.33622,
          "velocity": 0.3858267716535433
        },
        {
          "duration": 2.123892000000012,
          "durationTicks": 1536,
          "midi": 73,
          "name": "C#5",
          "ticks": 53760,
          "time": 74.33622,
          "velocity": 0.3858267716535433
        },
        {
          "duration": 0.7964594999999974,
          "durationTicks": 576,
          "midi": 73,
          "name": "C#5",
          "ticks": 55296,
          "time": 76.46011200000001,
          "velocity": 0.3858267716535433
        },
        {
          "duration": 0.7964594999999974,
          "durationTicks": 576,
          "midi": 66,
          "name": "F#4",
          "ticks": 55296,
          "time": 76.46011200000001,
          "velocity": 0.3858267716535433
        },
        {
          "duration": 0.7964594999999974,
          "durationTicks": 576,
          "midi": 70,
          "name": "A#4",
          "ticks": 55296,
          "time": 76.46011200000001,
          "velocity": 0.3858267716535433
        },
        {
          "duration": 0.7964594999999974,
          "durationTicks": 576,
          "midi": 77,
          "name": "F5",
          "ticks": 55296,
          "time": 76.46011200000001,
          "velocity": 0.3858267716535433
        },
        {
          "duration": 1.3274325000000005,
          "durationTicks": 960,
          "midi": 70,
          "name": "A#4",
          "ticks": 55872,
          "time": 77.2565715,
          "velocity": 0.3858267716535433
        },
        {
          "duration": 1.3274325000000005,
          "durationTicks": 960,
          "midi": 68,
          "name": "G#4",
          "ticks": 55872,
          "time": 77.2565715,
          "velocity": 0.3858267716535433
        },
        {
          "duration": 1.3274325000000005,
          "durationTicks": 960,
          "midi": 75,
          "name": "D#5",
          "ticks": 55872,
          "time": 77.2565715,
          "velocity": 0.3858267716535433
        },
        {
          "duration": 1.3274325000000005,
          "durationTicks": 960,
          "midi": 72,
          "name": "C5",
          "ticks": 55872,
          "time": 77.2565715,
          "velocity": 0.3858267716535433
        },
        {
          "duration": 1.8584055000000035,
          "durationTicks": 1344,
          "midi": 70,
          "name": "A#4",
          "ticks": 56832,
          "time": 78.58400400000001,
          "velocity": 0.3858267716535433
        },
        {
          "duration": 1.8584055000000035,
          "durationTicks": 1344,
          "midi": 73,
          "name": "C#5",
          "ticks": 56832,
          "time": 78.58400400000001,
          "velocity": 0.3858267716535433
        },
        {
          "duration": 1.8584055000000035,
          "durationTicks": 1344,
          "midi": 66,
          "name": "F#4",
          "ticks": 56832,
          "time": 78.58400400000001,
          "velocity": 0.3858267716535433
        },
        {
          "duration": 2.3893784999999923,
          "durationTicks": 1728,
          "midi": 65,
          "name": "F4",
          "ticks": 58176,
          "time": 80.44240950000001,
          "velocity": 0.3858267716535433
        },
        {
          "duration": 2.3893784999999923,
          "durationTicks": 1728,
          "midi": 68,
          "name": "G#4",
          "ticks": 58176,
          "time": 80.44240950000001,
          "velocity": 0.3858267716535433
        },
        {
          "duration": 2.3893784999999923,
          "durationTicks": 1728,
          "midi": 72,
          "name": "C5",
          "ticks": 58176,
          "time": 80.44240950000001,
          "velocity": 0.3858267716535433
        },
        {
          "duration": 2.3893784999999923,
          "durationTicks": 1728,
          "midi": 75,
          "name": "D#5",
          "ticks": 58176,
          "time": 80.44240950000001,
          "velocity": 0.3858267716535433
        },
        {
          "duration": 2.123891999999998,
          "durationTicks": 1536,
          "midi": 66,
          "name": "F#4",
          "ticks": 59904,
          "time": 82.831788,
          "velocity": 0.3858267716535433
        },
        {
          "duration": 2.123891999999998,
          "durationTicks": 1536,
          "midi": 73,
          "name": "C#5",
          "ticks": 59904,
          "time": 82.831788,
          "velocity": 0.3858267716535433
        },
        {
          "duration": 2.123891999999998,
          "durationTicks": 1536,
          "midi": 70,
          "name": "A#4",
          "ticks": 59904,
          "time": 82.831788,
          "velocity": 0.3858267716535433
        },
        {
          "duration": 0.7964594999999974,
          "durationTicks": 576,
          "midi": 66,
          "name": "F#4",
          "ticks": 61440,
          "time": 84.95568,
          "velocity": 0.3858267716535433
        },
        {
          "duration": 0.7964594999999974,
          "durationTicks": 576,
          "midi": 70,
          "name": "A#4",
          "ticks": 61440,
          "time": 84.95568,
          "velocity": 0.3858267716535433
        },
        {
          "duration": 0.7964594999999974,
          "durationTicks": 576,
          "midi": 73,
          "name": "C#5",
          "ticks": 61440,
          "time": 84.95568,
          "velocity": 0.3858267716535433
        },
        {
          "duration": 0.7964594999999974,
          "durationTicks": 576,
          "midi": 77,
          "name": "F5",
          "ticks": 61440,
          "time": 84.95568,
          "velocity": 0.3858267716535433
        },
        {
          "duration": 1.3274325000000005,
          "durationTicks": 960,
          "midi": 72,
          "name": "C5",
          "ticks": 62016,
          "time": 85.7521395,
          "velocity": 0.3858267716535433
        },
        {
          "duration": 1.3274325000000005,
          "durationTicks": 960,
          "midi": 65,
          "name": "F4",
          "ticks": 62016,
          "time": 85.7521395,
          "velocity": 0.3858267716535433
        },
        {
          "duration": 1.3274325000000005,
          "durationTicks": 960,
          "midi": 75,
          "name": "D#5",
          "ticks": 62016,
          "time": 85.7521395,
          "velocity": 0.3858267716535433
        },
        {
          "duration": 1.3274325000000005,
          "durationTicks": 960,
          "midi": 68,
          "name": "G#4",
          "ticks": 62016,
          "time": 85.7521395,
          "velocity": 0.3858267716535433
        },
        {
          "duration": 0.7964595000000116,
          "durationTicks": 576,
          "midi": 73,
          "name": "C#5",
          "ticks": 62976,
          "time": 87.079572,
          "velocity": 0.3858267716535433
        },
        {
          "duration": 0.7964595000000116,
          "durationTicks": 576,
          "midi": 70,
          "name": "A#4",
          "ticks": 62976,
          "time": 87.079572,
          "velocity": 0.3858267716535433
        },
        {
          "duration": 0.7964595000000116,
          "durationTicks": 576,
          "midi": 66,
          "name": "F#4",
          "ticks": 62976,
          "time": 87.079572,
          "velocity": 0.3858267716535433
        },
        {
          "duration": 0.7964595000000116,
          "durationTicks": 576,
          "midi": 77,
          "name": "F5",
          "ticks": 62976,
          "time": 87.079572,
          "velocity": 0.3858267716535433
        },
        {
          "duration": 1.3274325000000005,
          "durationTicks": 960,
          "midi": 68,
          "name": "G#4",
          "ticks": 63552,
          "time": 87.87603150000001,
          "velocity": 0.3858267716535433
        },
        {
          "duration": 1.3274325000000005,
          "durationTicks": 960,
          "midi": 72,
          "name": "C5",
          "ticks": 63552,
          "time": 87.87603150000001,
          "velocity": 0.3858267716535433
        },
        {
          "duration": 1.3274325000000005,
          "durationTicks": 960,
          "midi": 75,
          "name": "D#5",
          "ticks": 63552,
          "time": 87.87603150000001,
          "velocity": 0.3858267716535433
        },
        {
          "duration": 0.7964594999999974,
          "durationTicks": 576,
          "midi": 75,
          "name": "D#5",
          "ticks": 64512,
          "time": 89.20346400000001,
          "velocity": 0.3858267716535433
        },
        {
          "duration": 0.7964594999999974,
          "durationTicks": 576,
          "midi": 68,
          "name": "G#4",
          "ticks": 64512,
          "time": 89.20346400000001,
          "velocity": 0.3858267716535433
        },
        {
          "duration": 0.7964594999999974,
          "durationTicks": 576,
          "midi": 72,
          "name": "C5",
          "ticks": 64512,
          "time": 89.20346400000001,
          "velocity": 0.3858267716535433
        },
        {
          "duration": 1.3274325000000005,
          "durationTicks": 960,
          "midi": 73,
          "name": "C#5",
          "ticks": 65088,
          "time": 89.99992350000001,
          "velocity": 0.3858267716535433
        },
        {
          "duration": 1.3274325000000005,
          "durationTicks": 960,
          "midi": 70,
          "name": "A#4",
          "ticks": 65088,
          "time": 89.99992350000001,
          "velocity": 0.3858267716535433
        },
        {
          "duration": 1.3274325000000005,
          "durationTicks": 960,
          "midi": 77,
          "name": "F5",
          "ticks": 65088,
          "time": 89.99992350000001,
          "velocity": 0.3858267716535433
        },
        {
          "duration": 0.7964594999999974,
          "durationTicks": 576,
          "midi": 73,
          "name": "C#5",
          "ticks": 66048,
          "time": 91.32735600000001,
          "velocity": 0.3858267716535433
        },
        {
          "duration": 0.7964594999999974,
          "durationTicks": 576,
          "midi": 70,
          "name": "A#4",
          "ticks": 66048,
          "time": 91.32735600000001,
          "velocity": 0.3858267716535433
        },
        {
          "duration": 0.7964594999999974,
          "durationTicks": 576,
          "midi": 66,
          "name": "F#4",
          "ticks": 66048,
          "time": 91.32735600000001,
          "velocity": 0.3858267716535433
        },
        {
          "duration": 0.7964594999999974,
          "durationTicks": 576,
          "midi": 77,
          "name": "F5",
          "ticks": 66048,
          "time": 91.32735600000001,
          "velocity": 0.3858267716535433
        },
        {
          "duration": 1.3274325000000005,
          "durationTicks": 960,
          "midi": 68,
          "name": "G#4",
          "ticks": 66624,
          "time": 92.1238155,
          "velocity": 0.3858267716535433
        },
        {
          "duration": 1.3274325000000005,
          "durationTicks": 960,
          "midi": 72,
          "name": "C5",
          "ticks": 66624,
          "time": 92.1238155,
          "velocity": 0.3858267716535433
        },
        {
          "duration": 1.3274325000000005,
          "durationTicks": 960,
          "midi": 75,
          "name": "D#5",
          "ticks": 66624,
          "time": 92.1238155,
          "velocity": 0.3858267716535433
        },
        {
          "duration": 0.7964594999999974,
          "durationTicks": 576,
          "midi": 75,
          "name": "D#5",
          "ticks": 67584,
          "time": 93.451248,
          "velocity": 0.3858267716535433
        },
        {
          "duration": 0.7964594999999974,
          "durationTicks": 576,
          "midi": 68,
          "name": "G#4",
          "ticks": 67584,
          "time": 93.451248,
          "velocity": 0.3858267716535433
        },
        {
          "duration": 0.7964594999999974,
          "durationTicks": 576,
          "midi": 72,
          "name": "C5",
          "ticks": 67584,
          "time": 93.451248,
          "velocity": 0.3858267716535433
        },
        {
          "duration": 1.3274325000000005,
          "durationTicks": 960,
          "midi": 73,
          "name": "C#5",
          "ticks": 68160,
          "time": 94.2477075,
          "velocity": 0.3858267716535433
        },
        {
          "duration": 1.3274325000000005,
          "durationTicks": 960,
          "midi": 70,
          "name": "A#4",
          "ticks": 68160,
          "time": 94.2477075,
          "velocity": 0.3858267716535433
        },
        {
          "duration": 1.3274325000000005,
          "durationTicks": 960,
          "midi": 77,
          "name": "F5",
          "ticks": 68160,
          "time": 94.2477075,
          "velocity": 0.3858267716535433
        },
        {
          "duration": 0.7964594999999974,
          "durationTicks": 576,
          "midi": 73,
          "name": "C#5",
          "ticks": 69120,
          "time": 95.57514,
          "velocity": 0.3858267716535433
        },
        {
          "duration": 0.7964594999999974,
          "durationTicks": 576,
          "midi": 70,
          "name": "A#4",
          "ticks": 69120,
          "time": 95.57514,
          "velocity": 0.3858267716535433
        },
        {
          "duration": 0.7964594999999974,
          "durationTicks": 576,
          "midi": 66,
          "name": "F#4",
          "ticks": 69120,
          "time": 95.57514,
          "velocity": 0.3858267716535433
        },
        {
          "duration": 0.7964594999999974,
          "durationTicks": 576,
          "midi": 77,
          "name": "F5",
          "ticks": 69120,
          "time": 95.57514,
          "velocity": 0.3858267716535433
        },
        {
          "duration": 1.3274325000000005,
          "durationTicks": 960,
          "midi": 68,
          "name": "G#4",
          "ticks": 69696,
          "time": 96.3715995,
          "velocity": 0.3858267716535433
        },
        {
          "duration": 1.3274325000000005,
          "durationTicks": 960,
          "midi": 72,
          "name": "C5",
          "ticks": 69696,
          "time": 96.3715995,
          "velocity": 0.3858267716535433
        },
        {
          "duration": 1.3274325000000005,
          "durationTicks": 960,
          "midi": 75,
          "name": "D#5",
          "ticks": 69696,
          "time": 96.3715995,
          "velocity": 0.3858267716535433
        },
        {
          "duration": 0.7964594999999974,
          "durationTicks": 576,
          "midi": 75,
          "name": "D#5",
          "ticks": 70656,
          "time": 97.699032,
          "velocity": 0.3858267716535433
        },
        {
          "duration": 0.7964594999999974,
          "durationTicks": 576,
          "midi": 68,
          "name": "G#4",
          "ticks": 70656,
          "time": 97.699032,
          "velocity": 0.3858267716535433
        },
        {
          "duration": 0.7964594999999974,
          "durationTicks": 576,
          "midi": 72,
          "name": "C5",
          "ticks": 70656,
          "time": 97.699032,
          "velocity": 0.3858267716535433
        },
        {
          "duration": 1.3274325000000005,
          "durationTicks": 960,
          "midi": 73,
          "name": "C#5",
          "ticks": 71232,
          "time": 98.4954915,
          "velocity": 0.3858267716535433
        },
        {
          "duration": 1.3274325000000005,
          "durationTicks": 960,
          "midi": 70,
          "name": "A#4",
          "ticks": 71232,
          "time": 98.4954915,
          "velocity": 0.3858267716535433
        },
        {
          "duration": 1.3274325000000005,
          "durationTicks": 960,
          "midi": 77,
          "name": "F5",
          "ticks": 71232,
          "time": 98.4954915,
          "velocity": 0.3858267716535433
        },
        {
          "duration": 0.6637162500000073,
          "durationTicks": 480,
          "midi": 70,
          "name": "A#4",
          "ticks": 72192,
          "time": 99.822924,
          "velocity": 0.3858267716535433
        },
        {
          "duration": 0.6637162500000073,
          "durationTicks": 480,
          "midi": 66,
          "name": "F#4",
          "ticks": 72192,
          "time": 99.822924,
          "velocity": 0.3858267716535433
        },
        {
          "duration": 0.7964595000000116,
          "durationTicks": 576,
          "midi": 73,
          "name": "C#5",
          "ticks": 72192,
          "time": 99.822924,
          "velocity": 0.3858267716535433
        },
        {
          "duration": 1.3274325000000005,
          "durationTicks": 960,
          "midi": 72,
          "name": "C5",
          "ticks": 72768,
          "time": 100.61938350000001,
          "velocity": 0.3858267716535433
        },
        {
          "duration": 1.3274325000000005,
          "durationTicks": 960,
          "midi": 75,
          "name": "D#5",
          "ticks": 72768,
          "time": 100.61938350000001,
          "velocity": 0.3858267716535433
        },
        {
          "duration": 1.3274325000000005,
          "durationTicks": 960,
          "midi": 68,
          "name": "G#4",
          "ticks": 72768,
          "time": 100.61938350000001,
          "velocity": 0.3858267716535433
        },
        {
          "duration": 0.5309729999999888,
          "durationTicks": 384,
          "midi": 72,
          "name": "C5",
          "ticks": 73728,
          "time": 101.94681600000001,
          "velocity": 0.3858267716535433
        },
        {
          "duration": 0.5309729999999888,
          "durationTicks": 384,
          "midi": 75,
          "name": "D#5",
          "ticks": 73728,
          "time": 101.94681600000001,
          "velocity": 0.3858267716535433
        },
        {
          "duration": 0.5309729999999888,
          "durationTicks": 384,
          "midi": 68,
          "name": "G#4",
          "ticks": 73728,
          "time": 101.94681600000001,
          "velocity": 0.3858267716535433
        },
        {
          "duration": 1.592919000000009,
          "durationTicks": 1152,
          "midi": 68,
          "name": "G#4",
          "ticks": 74112,
          "time": 102.477789,
          "velocity": 0.3858267716535433
        },
        {
          "duration": 1.592919000000009,
          "durationTicks": 1152,
          "midi": 73,
          "name": "C#5",
          "ticks": 74112,
          "time": 102.477789,
          "velocity": 0.3858267716535433
        },
        {
          "duration": 1.592919000000009,
          "durationTicks": 1152,
          "midi": 77,
          "name": "F5",
          "ticks": 74112,
          "time": 102.477789,
          "velocity": 0.3858267716535433
        },
        {
          "duration": 0.7964594999999974,
          "durationTicks": 576,
          "midi": 73,
          "name": "C#5",
          "ticks": 75264,
          "time": 104.07070800000001,
          "velocity": 0.3858267716535433
        },
        {
          "duration": 0.7964594999999974,
          "durationTicks": 576,
          "midi": 70,
          "name": "A#4",
          "ticks": 75264,
          "time": 104.07070800000001,
          "velocity": 0.3858267716535433
        },
        {
          "duration": 0.7964594999999974,
          "durationTicks": 576,
          "midi": 66,
          "name": "F#4",
          "ticks": 75264,
          "time": 104.07070800000001,
          "velocity": 0.3858267716535433
        },
        {
          "duration": 0.7964594999999974,
          "durationTicks": 576,
          "midi": 77,
          "name": "F5",
          "ticks": 75264,
          "time": 104.07070800000001,
          "velocity": 0.3858267716535433
        },
        {
          "duration": 1.3274325000000005,
          "durationTicks": 960,
          "midi": 68,
          "name": "G#4",
          "ticks": 75840,
          "time": 104.86716750000001,
          "velocity": 0.3858267716535433
        },
        {
          "duration": 1.3274325000000005,
          "durationTicks": 960,
          "midi": 72,
          "name": "C5",
          "ticks": 75840,
          "time": 104.86716750000001,
          "velocity": 0.3858267716535433
        },
        {
          "duration": 1.3274325000000005,
          "durationTicks": 960,
          "midi": 75,
          "name": "D#5",
          "ticks": 75840,
          "time": 104.86716750000001,
          "velocity": 0.3858267716535433
        },
        {
          "duration": 0.7964594999999974,
          "durationTicks": 576,
          "midi": 75,
          "name": "D#5",
          "ticks": 76800,
          "time": 106.19460000000001,
          "velocity": 0.3858267716535433
        },
        {
          "duration": 0.7964594999999974,
          "durationTicks": 576,
          "midi": 68,
          "name": "G#4",
          "ticks": 76800,
          "time": 106.19460000000001,
          "velocity": 0.3858267716535433
        },
        {
          "duration": 0.7964594999999974,
          "durationTicks": 576,
          "midi": 72,
          "name": "C5",
          "ticks": 76800,
          "time": 106.19460000000001,
          "velocity": 0.3858267716535433
        },
        {
          "duration": 1.3274325000000005,
          "durationTicks": 960,
          "midi": 73,
          "name": "C#5",
          "ticks": 77376,
          "time": 106.9910595,
          "velocity": 0.3858267716535433
        },
        {
          "duration": 1.3274325000000005,
          "durationTicks": 960,
          "midi": 70,
          "name": "A#4",
          "ticks": 77376,
          "time": 106.9910595,
          "velocity": 0.3858267716535433
        },
        {
          "duration": 1.3274325000000005,
          "durationTicks": 960,
          "midi": 77,
          "name": "F5",
          "ticks": 77376,
          "time": 106.9910595,
          "velocity": 0.3858267716535433
        },
        {
          "duration": 0.7964594999999974,
          "durationTicks": 576,
          "midi": 73,
          "name": "C#5",
          "ticks": 78336,
          "time": 108.318492,
          "velocity": 0.3858267716535433
        },
        {
          "duration": 0.7964594999999974,
          "durationTicks": 576,
          "midi": 70,
          "name": "A#4",
          "ticks": 78336,
          "time": 108.318492,
          "velocity": 0.3858267716535433
        },
        {
          "duration": 0.7964594999999974,
          "durationTicks": 576,
          "midi": 66,
          "name": "F#4",
          "ticks": 78336,
          "time": 108.318492,
          "velocity": 0.3858267716535433
        },
        {
          "duration": 0.7964594999999974,
          "durationTicks": 576,
          "midi": 77,
          "name": "F5",
          "ticks": 78336,
          "time": 108.318492,
          "velocity": 0.3858267716535433
        },
        {
          "duration": 1.3274325000000005,
          "durationTicks": 960,
          "midi": 68,
          "name": "G#4",
          "ticks": 78912,
          "time": 109.1149515,
          "velocity": 0.3858267716535433
        },
        {
          "duration": 1.3274325000000005,
          "durationTicks": 960,
          "midi": 72,
          "name": "C5",
          "ticks": 78912,
          "time": 109.1149515,
          "velocity": 0.3858267716535433
        },
        {
          "duration": 1.3274325000000005,
          "durationTicks": 960,
          "midi": 75,
          "name": "D#5",
          "ticks": 78912,
          "time": 109.1149515,
          "velocity": 0.3858267716535433
        },
        {
          "duration": 0.7964594999999974,
          "durationTicks": 576,
          "midi": 75,
          "name": "D#5",
          "ticks": 79872,
          "time": 110.442384,
          "velocity": 0.3858267716535433
        },
        {
          "duration": 0.7964594999999974,
          "durationTicks": 576,
          "midi": 68,
          "name": "G#4",
          "ticks": 79872,
          "time": 110.442384,
          "velocity": 0.3858267716535433
        },
        {
          "duration": 0.7964594999999974,
          "durationTicks": 576,
          "midi": 72,
          "name": "C5",
          "ticks": 79872,
          "time": 110.442384,
          "velocity": 0.3858267716535433
        },
        {
          "duration": 1.3274325000000005,
          "durationTicks": 960,
          "midi": 73,
          "name": "C#5",
          "ticks": 80448,
          "time": 111.2388435,
          "velocity": 0.3858267716535433
        },
        {
          "duration": 1.3274325000000005,
          "durationTicks": 960,
          "midi": 70,
          "name": "A#4",
          "ticks": 80448,
          "time": 111.2388435,
          "velocity": 0.3858267716535433
        },
        {
          "duration": 1.3274325000000005,
          "durationTicks": 960,
          "midi": 77,
          "name": "F5",
          "ticks": 80448,
          "time": 111.2388435,
          "velocity": 0.3858267716535433
        },
        {
          "duration": 0.7964594999999974,
          "durationTicks": 576,
          "midi": 73,
          "name": "C#5",
          "ticks": 81408,
          "time": 112.566276,
          "velocity": 0.3858267716535433
        },
        {
          "duration": 0.7964594999999974,
          "durationTicks": 576,
          "midi": 70,
          "name": "A#4",
          "ticks": 81408,
          "time": 112.566276,
          "velocity": 0.3858267716535433
        },
        {
          "duration": 0.7964594999999974,
          "durationTicks": 576,
          "midi": 66,
          "name": "F#4",
          "ticks": 81408,
          "time": 112.566276,
          "velocity": 0.3858267716535433
        },
        {
          "duration": 0.7964594999999974,
          "durationTicks": 576,
          "midi": 77,
          "name": "F5",
          "ticks": 81408,
          "time": 112.566276,
          "velocity": 0.3858267716535433
        },
        {
          "duration": 1.3274325000000005,
          "durationTicks": 960,
          "midi": 68,
          "name": "G#4",
          "ticks": 81984,
          "time": 113.3627355,
          "velocity": 0.3858267716535433
        },
        {
          "duration": 1.3274325000000005,
          "durationTicks": 960,
          "midi": 72,
          "name": "C5",
          "ticks": 81984,
          "time": 113.3627355,
          "velocity": 0.3858267716535433
        },
        {
          "duration": 1.3274325000000005,
          "durationTicks": 960,
          "midi": 75,
          "name": "D#5",
          "ticks": 81984,
          "time": 113.3627355,
          "velocity": 0.3858267716535433
        },
        {
          "duration": 0.7964595000000116,
          "durationTicks": 576,
          "midi": 75,
          "name": "D#5",
          "ticks": 82944,
          "time": 114.690168,
          "velocity": 0.3858267716535433
        },
        {
          "duration": 0.7964595000000116,
          "durationTicks": 576,
          "midi": 68,
          "name": "G#4",
          "ticks": 82944,
          "time": 114.690168,
          "velocity": 0.3858267716535433
        },
        {
          "duration": 0.7964595000000116,
          "durationTicks": 576,
          "midi": 72,
          "name": "C5",
          "ticks": 82944,
          "time": 114.690168,
          "velocity": 0.3858267716535433
        },
        {
          "duration": 1.3274325000000005,
          "durationTicks": 960,
          "midi": 73,
          "name": "C#5",
          "ticks": 83520,
          "time": 115.48662750000001,
          "velocity": 0.3858267716535433
        },
        {
          "duration": 1.3274325000000005,
          "durationTicks": 960,
          "midi": 70,
          "name": "A#4",
          "ticks": 83520,
          "time": 115.48662750000001,
          "velocity": 0.3858267716535433
        },
        {
          "duration": 1.3274325000000005,
          "durationTicks": 960,
          "midi": 77,
          "name": "F5",
          "ticks": 83520,
          "time": 115.48662750000001,
          "velocity": 0.3858267716535433
        },
        {
          "duration": 0.6637162499999931,
          "durationTicks": 480,
          "midi": 70,
          "name": "A#4",
          "ticks": 84480,
          "time": 116.81406000000001,
          "velocity": 0.3858267716535433
        },
        {
          "duration": 0.6637162499999931,
          "durationTicks": 480,
          "midi": 66,
          "name": "F#4",
          "ticks": 84480,
          "time": 116.81406000000001,
          "velocity": 0.3858267716535433
        },
        {
          "duration": 0.7964594999999974,
          "durationTicks": 576,
          "midi": 73,
          "name": "C#5",
          "ticks": 84480,
          "time": 116.81406000000001,
          "velocity": 0.3858267716535433
        },
        {
          "duration": 1.3274325000000005,
          "durationTicks": 960,
          "midi": 72,
          "name": "C5",
          "ticks": 85056,
          "time": 117.61051950000001,
          "velocity": 0.3858267716535433
        },
        {
          "duration": 1.3274325000000005,
          "durationTicks": 960,
          "midi": 75,
          "name": "D#5",
          "ticks": 85056,
          "time": 117.61051950000001,
          "velocity": 0.3858267716535433
        },
        {
          "duration": 1.3274325000000005,
          "durationTicks": 960,
          "midi": 68,
          "name": "G#4",
          "ticks": 85056,
          "time": 117.61051950000001,
          "velocity": 0.3858267716535433
        },
        {
          "duration": 0.530973000000003,
          "durationTicks": 384,
          "midi": 72,
          "name": "C5",
          "ticks": 86016,
          "time": 118.93795200000001,
          "velocity": 0.3858267716535433
        },
        {
          "duration": 0.530973000000003,
          "durationTicks": 384,
          "midi": 75,
          "name": "D#5",
          "ticks": 86016,
          "time": 118.93795200000001,
          "velocity": 0.3858267716535433
        },
        {
          "duration": 0.530973000000003,
          "durationTicks": 384,
          "midi": 68,
          "name": "G#4",
          "ticks": 86016,
          "time": 118.93795200000001,
          "velocity": 0.3858267716535433
        },
        {
          "duration": 1.5929189999999949,
          "durationTicks": 1152,
          "midi": 68,
          "name": "G#4",
          "ticks": 86400,
          "time": 119.46892500000001,
          "velocity": 0.3858267716535433
        },
        {
          "duration": 1.5929189999999949,
          "durationTicks": 1152,
          "midi": 73,
          "name": "C#5",
          "ticks": 86400,
          "time": 119.46892500000001,
          "velocity": 0.3858267716535433
        },
        {
          "duration": 1.5929189999999949,
          "durationTicks": 1152,
          "midi": 77,
          "name": "F5",
          "ticks": 86400,
          "time": 119.46892500000001,
          "velocity": 0.3858267716535433
        },
        {
          "duration": 0.2654864999999944,
          "durationTicks": 192,
          "midi": 77,
          "name": "F5",
          "ticks": 89088,
          "time": 123.185736,
          "velocity": 0.3858267716535433
        },
        {
          "duration": 0.2654864999999944,
          "durationTicks": 192,
          "midi": 80,
          "name": "G#5",
          "ticks": 89088,
          "time": 123.185736,
          "velocity": 0.3858267716535433
        },
        {
          "duration": 0.2654864999999944,
          "durationTicks": 192,
          "midi": 85,
          "name": "C#6",
          "ticks": 89088,
          "time": 123.185736,
          "velocity": 0.3858267716535433
        },
        {
          "duration": 0.3982297499999987,
          "durationTicks": 288,
          "midi": 77,
          "name": "F5",
          "ticks": 89376,
          "time": 123.58396575,
          "velocity": 0.3858267716535433
        },
        {
          "duration": 0.3982297499999987,
          "durationTicks": 288,
          "midi": 80,
          "name": "G#5",
          "ticks": 89376,
          "time": 123.58396575,
          "velocity": 0.3858267716535433
        },
        {
          "duration": 0.3982297499999987,
          "durationTicks": 288,
          "midi": 85,
          "name": "C#6",
          "ticks": 89376,
          "time": 123.58396575,
          "velocity": 0.3858267716535433
        },
        {
          "duration": 0.1327432500000043,
          "durationTicks": 96,
          "midi": 84,
          "name": "C6",
          "ticks": 89664,
          "time": 123.9821955,
          "velocity": 0.3858267716535433
        },
        {
          "duration": 0.1327432500000043,
          "durationTicks": 96,
          "midi": 80,
          "name": "G#5",
          "ticks": 89664,
          "time": 123.9821955,
          "velocity": 0.3858267716535433
        },
        {
          "duration": 0.1327432500000043,
          "durationTicks": 96,
          "midi": 75,
          "name": "D#5",
          "ticks": 89664,
          "time": 123.9821955,
          "velocity": 0.3858267716535433
        },
        {
          "duration": 0.2654865000000086,
          "durationTicks": 192,
          "midi": 77,
          "name": "F5",
          "ticks": 92160,
          "time": 127.43352,
          "velocity": 0.3858267716535433
        },
        {
          "duration": 0.2654865000000086,
          "durationTicks": 192,
          "midi": 80,
          "name": "G#5",
          "ticks": 92160,
          "time": 127.43352,
          "velocity": 0.3858267716535433
        },
        {
          "duration": 0.2654865000000086,
          "durationTicks": 192,
          "midi": 85,
          "name": "C#6",
          "ticks": 92160,
          "time": 127.43352,
          "velocity": 0.3858267716535433
        },
        {
          "duration": 0.3982297500000129,
          "durationTicks": 288,
          "midi": 77,
          "name": "F5",
          "ticks": 92448,
          "time": 127.83174975,
          "velocity": 0.3858267716535433
        },
        {
          "duration": 0.3982297500000129,
          "durationTicks": 288,
          "midi": 80,
          "name": "G#5",
          "ticks": 92448,
          "time": 127.83174975,
          "velocity": 0.3858267716535433
        },
        {
          "duration": 0.3982297500000129,
          "durationTicks": 288,
          "midi": 85,
          "name": "C#6",
          "ticks": 92448,
          "time": 127.83174975,
          "velocity": 0.3858267716535433
        },
        {
          "duration": 0.1327432500000043,
          "durationTicks": 96,
          "midi": 84,
          "name": "C6",
          "ticks": 92736,
          "time": 128.2299795,
          "velocity": 0.3858267716535433
        },
        {
          "duration": 0.1327432500000043,
          "durationTicks": 96,
          "midi": 80,
          "name": "G#5",
          "ticks": 92736,
          "time": 128.2299795,
          "velocity": 0.3858267716535433
        },
        {
          "duration": 0.1327432500000043,
          "durationTicks": 96,
          "midi": 75,
          "name": "D#5",
          "ticks": 92736,
          "time": 128.2299795,
          "velocity": 0.3858267716535433
        },
        {
          "duration": 0.2654865000000086,
          "durationTicks": 192,
          "midi": 77,
          "name": "F5",
          "ticks": 95232,
          "time": 131.681304,
          "velocity": 0.3858267716535433
        },
        {
          "duration": 0.2654865000000086,
          "durationTicks": 192,
          "midi": 80,
          "name": "G#5",
          "ticks": 95232,
          "time": 131.681304,
          "velocity": 0.3858267716535433
        },
        {
          "duration": 0.2654865000000086,
          "durationTicks": 192,
          "midi": 85,
          "name": "C#6",
          "ticks": 95232,
          "time": 131.681304,
          "velocity": 0.3858267716535433
        },
        {
          "duration": 0.3982297500000129,
          "durationTicks": 288,
          "midi": 77,
          "name": "F5",
          "ticks": 95520,
          "time": 132.07953375,
          "velocity": 0.3858267716535433
        },
        {
          "duration": 0.3982297500000129,
          "durationTicks": 288,
          "midi": 80,
          "name": "G#5",
          "ticks": 95520,
          "time": 132.07953375,
          "velocity": 0.3858267716535433
        },
        {
          "duration": 0.3982297500000129,
          "durationTicks": 288,
          "midi": 85,
          "name": "C#6",
          "ticks": 95520,
          "time": 132.07953375,
          "velocity": 0.3858267716535433
        },
        {
          "duration": 0.1327432500000043,
          "durationTicks": 96,
          "midi": 84,
          "name": "C6",
          "ticks": 95808,
          "time": 132.4777635,
          "velocity": 0.3858267716535433
        },
        {
          "duration": 0.1327432500000043,
          "durationTicks": 96,
          "midi": 80,
          "name": "G#5",
          "ticks": 95808,
          "time": 132.4777635,
          "velocity": 0.3858267716535433
        },
        {
          "duration": 0.1327432500000043,
          "durationTicks": 96,
          "midi": 75,
          "name": "D#5",
          "ticks": 95808,
          "time": 132.4777635,
          "velocity": 0.3858267716535433
        },
        {
          "duration": 0.2654865000000086,
          "durationTicks": 192,
          "midi": 77,
          "name": "F5",
          "ticks": 98304,
          "time": 135.929088,
          "velocity": 0.3858267716535433
        },
        {
          "duration": 0.2654865000000086,
          "durationTicks": 192,
          "midi": 80,
          "name": "G#5",
          "ticks": 98304,
          "time": 135.929088,
          "velocity": 0.3858267716535433
        },
        {
          "duration": 0.2654865000000086,
          "durationTicks": 192,
          "midi": 85,
          "name": "C#6",
          "ticks": 98304,
          "time": 135.929088,
          "velocity": 0.3858267716535433
        },
        {
          "duration": 0.3982297499999845,
          "durationTicks": 288,
          "midi": 77,
          "name": "F5",
          "ticks": 98592,
          "time": 136.32731775000002,
          "velocity": 0.3858267716535433
        },
        {
          "duration": 0.3982297499999845,
          "durationTicks": 288,
          "midi": 80,
          "name": "G#5",
          "ticks": 98592,
          "time": 136.32731775000002,
          "velocity": 0.3858267716535433
        },
        {
          "duration": 0.3982297499999845,
          "durationTicks": 288,
          "midi": 85,
          "name": "C#6",
          "ticks": 98592,
          "time": 136.32731775000002,
          "velocity": 0.3858267716535433
        },
        {
          "duration": 0.1327432500000043,
          "durationTicks": 96,
          "midi": 84,
          "name": "C6",
          "ticks": 98880,
          "time": 136.7255475,
          "velocity": 0.3858267716535433
        },
        {
          "duration": 0.1327432500000043,
          "durationTicks": 96,
          "midi": 80,
          "name": "G#5",
          "ticks": 98880,
          "time": 136.7255475,
          "velocity": 0.3858267716535433
        },
        {
          "duration": 0.1327432500000043,
          "durationTicks": 96,
          "midi": 75,
          "name": "D#5",
          "ticks": 98880,
          "time": 136.7255475,
          "velocity": 0.3858267716535433
        },
        {
          "duration": 0.2654865000000086,
          "durationTicks": 192,
          "midi": 77,
          "name": "F5",
          "ticks": 101376,
          "time": 140.176872,
          "velocity": 0.3858267716535433
        },
        {
          "duration": 0.2654865000000086,
          "durationTicks": 192,
          "midi": 80,
          "name": "G#5",
          "ticks": 101376,
          "time": 140.176872,
          "velocity": 0.3858267716535433
        },
        {
          "duration": 0.2654865000000086,
          "durationTicks": 192,
          "midi": 85,
          "name": "C#6",
          "ticks": 101376,
          "time": 140.176872,
          "velocity": 0.3858267716535433
        },
        {
          "duration": 0.3982297499999845,
          "durationTicks": 288,
          "midi": 77,
          "name": "F5",
          "ticks": 101664,
          "time": 140.57510175000002,
          "velocity": 0.3858267716535433
        },
        {
          "duration": 0.3982297499999845,
          "durationTicks": 288,
          "midi": 80,
          "name": "G#5",
          "ticks": 101664,
          "time": 140.57510175000002,
          "velocity": 0.3858267716535433
        },
        {
          "duration": 0.3982297499999845,
          "durationTicks": 288,
          "midi": 85,
          "name": "C#6",
          "ticks": 101664,
          "time": 140.57510175000002,
          "velocity": 0.3858267716535433
        },
        {
          "duration": 0.1327432500000043,
          "durationTicks": 96,
          "midi": 84,
          "name": "C6",
          "ticks": 101952,
          "time": 140.9733315,
          "velocity": 0.3858267716535433
        },
        {
          "duration": 0.1327432500000043,
          "durationTicks": 96,
          "midi": 80,
          "name": "G#5",
          "ticks": 101952,
          "time": 140.9733315,
          "velocity": 0.3858267716535433
        },
        {
          "duration": 0.1327432500000043,
          "durationTicks": 96,
          "midi": 75,
          "name": "D#5",
          "ticks": 101952,
          "time": 140.9733315,
          "velocity": 0.3858267716535433
        },
        {
          "duration": 0.2654865000000086,
          "durationTicks": 192,
          "midi": 77,
          "name": "F5",
          "ticks": 104448,
          "time": 144.424656,
          "velocity": 0.3858267716535433
        },
        {
          "duration": 0.2654865000000086,
          "durationTicks": 192,
          "midi": 80,
          "name": "G#5",
          "ticks": 104448,
          "time": 144.424656,
          "velocity": 0.3858267716535433
        },
        {
          "duration": 0.2654865000000086,
          "durationTicks": 192,
          "midi": 85,
          "name": "C#6",
          "ticks": 104448,
          "time": 144.424656,
          "velocity": 0.3858267716535433
        },
        {
          "duration": 0.3982297499999845,
          "durationTicks": 288,
          "midi": 77,
          "name": "F5",
          "ticks": 104736,
          "time": 144.82288575,
          "velocity": 0.3858267716535433
        },
        {
          "duration": 0.3982297499999845,
          "durationTicks": 288,
          "midi": 80,
          "name": "G#5",
          "ticks": 104736,
          "time": 144.82288575,
          "velocity": 0.3858267716535433
        },
        {
          "duration": 0.3982297499999845,
          "durationTicks": 288,
          "midi": 85,
          "name": "C#6",
          "ticks": 104736,
          "time": 144.82288575,
          "velocity": 0.3858267716535433
        },
        {
          "duration": 0.1327432500000043,
          "durationTicks": 96,
          "midi": 84,
          "name": "C6",
          "ticks": 105024,
          "time": 145.2211155,
          "velocity": 0.3858267716535433
        },
        {
          "duration": 0.1327432500000043,
          "durationTicks": 96,
          "midi": 80,
          "name": "G#5",
          "ticks": 105024,
          "time": 145.2211155,
          "velocity": 0.3858267716535433
        },
        {
          "duration": 0.1327432500000043,
          "durationTicks": 96,
          "midi": 75,
          "name": "D#5",
          "ticks": 105024,
          "time": 145.2211155,
          "velocity": 0.3858267716535433
        },
        {
          "duration": 0.2654865000000086,
          "durationTicks": 192,
          "midi": 77,
          "name": "F5",
          "ticks": 107520,
          "time": 148.67244,
          "velocity": 0.3858267716535433
        },
        {
          "duration": 0.2654865000000086,
          "durationTicks": 192,
          "midi": 80,
          "name": "G#5",
          "ticks": 107520,
          "time": 148.67244,
          "velocity": 0.3858267716535433
        },
        {
          "duration": 0.2654865000000086,
          "durationTicks": 192,
          "midi": 85,
          "name": "C#6",
          "ticks": 107520,
          "time": 148.67244,
          "velocity": 0.3858267716535433
        },
        {
          "duration": 0.3982297500000129,
          "durationTicks": 288,
          "midi": 77,
          "name": "F5",
          "ticks": 107808,
          "time": 149.07066975,
          "velocity": 0.3858267716535433
        },
        {
          "duration": 0.3982297500000129,
          "durationTicks": 288,
          "midi": 80,
          "name": "G#5",
          "ticks": 107808,
          "time": 149.07066975,
          "velocity": 0.3858267716535433
        },
        {
          "duration": 0.3982297500000129,
          "durationTicks": 288,
          "midi": 85,
          "name": "C#6",
          "ticks": 107808,
          "time": 149.07066975,
          "velocity": 0.3858267716535433
        },
        {
          "duration": 0.1327432499999759,
          "durationTicks": 96,
          "midi": 84,
          "name": "C6",
          "ticks": 108096,
          "time": 149.46889950000002,
          "velocity": 0.3858267716535433
        },
        {
          "duration": 0.1327432499999759,
          "durationTicks": 96,
          "midi": 80,
          "name": "G#5",
          "ticks": 108096,
          "time": 149.46889950000002,
          "velocity": 0.3858267716535433
        },
        {
          "duration": 0.1327432499999759,
          "durationTicks": 96,
          "midi": 75,
          "name": "D#5",
          "ticks": 108096,
          "time": 149.46889950000002,
          "velocity": 0.3858267716535433
        },
        {
          "duration": 0.2654864999999802,
          "durationTicks": 192,
          "midi": 77,
          "name": "F5",
          "ticks": 110592,
          "time": 152.92022400000002,
          "velocity": 0.3858267716535433
        },
        {
          "duration": 0.2654864999999802,
          "durationTicks": 192,
          "midi": 80,
          "name": "G#5",
          "ticks": 110592,
          "time": 152.92022400000002,
          "velocity": 0.3858267716535433
        },
        {
          "duration": 0.2654864999999802,
          "durationTicks": 192,
          "midi": 85,
          "name": "C#6",
          "ticks": 110592,
          "time": 152.92022400000002,
          "velocity": 0.3858267716535433
        },
        {
          "duration": 0.3982297500000129,
          "durationTicks": 288,
          "midi": 77,
          "name": "F5",
          "ticks": 110880,
          "time": 153.31845375,
          "velocity": 0.3858267716535433
        },
        {
          "duration": 0.3982297500000129,
          "durationTicks": 288,
          "midi": 80,
          "name": "G#5",
          "ticks": 110880,
          "time": 153.31845375,
          "velocity": 0.3858267716535433
        },
        {
          "duration": 0.3982297500000129,
          "durationTicks": 288,
          "midi": 85,
          "name": "C#6",
          "ticks": 110880,
          "time": 153.31845375,
          "velocity": 0.3858267716535433
        },
        {
          "duration": 0.1327432500000043,
          "durationTicks": 96,
          "midi": 84,
          "name": "C6",
          "ticks": 111168,
          "time": 153.71668350000002,
          "velocity": 0.3858267716535433
        },
        {
          "duration": 0.1327432500000043,
          "durationTicks": 96,
          "midi": 80,
          "name": "G#5",
          "ticks": 111168,
          "time": 153.71668350000002,
          "velocity": 0.3858267716535433
        },
        {
          "duration": 0.1327432500000043,
          "durationTicks": 96,
          "midi": 75,
          "name": "D#5",
          "ticks": 111168,
          "time": 153.71668350000002,
          "velocity": 0.3858267716535433
        },
        {
          "duration": 0.7964594999999974,
          "durationTicks": 576,
          "midi": 66,
          "name": "F#4",
          "ticks": 116736,
          "time": 161.415792,
          "velocity": 0.3858267716535433
        },
        {
          "duration": 0.7964594999999974,
          "durationTicks": 576,
          "midi": 70,
          "name": "A#4",
          "ticks": 116736,
          "time": 161.415792,
          "velocity": 0.3858267716535433
        },
        {
          "duration": 0.7964594999999974,
          "durationTicks": 576,
          "midi": 73,
          "name": "C#5",
          "ticks": 116736,
          "time": 161.415792,
          "velocity": 0.3858267716535433
        },
        {
          "duration": 0.7964594999999974,
          "durationTicks": 576,
          "midi": 77,
          "name": "F5",
          "ticks": 116736,
          "time": 161.415792,
          "velocity": 0.3858267716535433
        },
        {
          "duration": 1.3274325000000147,
          "durationTicks": 960,
          "midi": 72,
          "name": "C5",
          "ticks": 117312,
          "time": 162.2122515,
          "velocity": 0.3858267716535433
        },
        {
          "duration": 1.3274325000000147,
          "durationTicks": 960,
          "midi": 65,
          "name": "F4",
          "ticks": 117312,
          "time": 162.2122515,
          "velocity": 0.3858267716535433
        },
        {
          "duration": 1.3274325000000147,
          "durationTicks": 960,
          "midi": 75,
          "name": "D#5",
          "ticks": 117312,
          "time": 162.2122515,
          "velocity": 0.3858267716535433
        },
        {
          "duration": 1.3274325000000147,
          "durationTicks": 960,
          "midi": 68,
          "name": "G#4",
          "ticks": 117312,
          "time": 162.2122515,
          "velocity": 0.3858267716535433
        },
        {
          "duration": 0.7964594999999974,
          "durationTicks": 576,
          "midi": 66,
          "name": "F#4",
          "ticks": 122880,
          "time": 169.91136,
          "velocity": 0.3858267716535433
        },
        {
          "duration": 0.7964594999999974,
          "durationTicks": 576,
          "midi": 70,
          "name": "A#4",
          "ticks": 122880,
          "time": 169.91136,
          "velocity": 0.3858267716535433
        },
        {
          "duration": 0.7964594999999974,
          "durationTicks": 576,
          "midi": 73,
          "name": "C#5",
          "ticks": 122880,
          "time": 169.91136,
          "velocity": 0.3858267716535433
        },
        {
          "duration": 0.7964594999999974,
          "durationTicks": 576,
          "midi": 77,
          "name": "F5",
          "ticks": 122880,
          "time": 169.91136,
          "velocity": 0.3858267716535433
        },
        {
          "duration": 1.3274325000000147,
          "durationTicks": 960,
          "midi": 72,
          "name": "C5",
          "ticks": 123456,
          "time": 170.7078195,
          "velocity": 0.3858267716535433
        },
        {
          "duration": 1.3274325000000147,
          "durationTicks": 960,
          "midi": 65,
          "name": "F4",
          "ticks": 123456,
          "time": 170.7078195,
          "velocity": 0.3858267716535433
        },
        {
          "duration": 1.3274325000000147,
          "durationTicks": 960,
          "midi": 75,
          "name": "D#5",
          "ticks": 123456,
          "time": 170.7078195,
          "velocity": 0.3858267716535433
        },
        {
          "duration": 1.3274325000000147,
          "durationTicks": 960,
          "midi": 68,
          "name": "G#4",
          "ticks": 123456,
          "time": 170.7078195,
          "velocity": 0.3858267716535433
        },
        {
          "duration": 1.8584055000000035,
          "durationTicks": 1344,
          "midi": 70,
          "name": "A#4",
          "ticks": 124416,
          "time": 172.035252,
          "velocity": 0.3858267716535433
        },
        {
          "duration": 1.8584055000000035,
          "durationTicks": 1344,
          "midi": 73,
          "name": "C#5",
          "ticks": 124416,
          "time": 172.035252,
          "velocity": 0.3858267716535433
        },
        {
          "duration": 1.8584055000000035,
          "durationTicks": 1344,
          "midi": 66,
          "name": "F#4",
          "ticks": 124416,
          "time": 172.035252,
          "velocity": 0.3858267716535433
        },
        {
          "duration": 2.3893784999999923,
          "durationTicks": 1728,
          "midi": 65,
          "name": "F4",
          "ticks": 125760,
          "time": 173.89365750000002,
          "velocity": 0.3858267716535433
        },
        {
          "duration": 2.3893784999999923,
          "durationTicks": 1728,
          "midi": 68,
          "name": "G#4",
          "ticks": 125760,
          "time": 173.89365750000002,
          "velocity": 0.3858267716535433
        },
        {
          "duration": 2.3893784999999923,
          "durationTicks": 1728,
          "midi": 72,
          "name": "C5",
          "ticks": 125760,
          "time": 173.89365750000002,
          "velocity": 0.3858267716535433
        },
        {
          "duration": 2.3893784999999923,
          "durationTicks": 1728,
          "midi": 75,
          "name": "D#5",
          "ticks": 125760,
          "time": 173.89365750000002,
          "velocity": 0.3858267716535433
        },
        {
          "duration": 2.123892000000012,
          "durationTicks": 1536,
          "midi": 66,
          "name": "F#4",
          "ticks": 127488,
          "time": 176.283036,
          "velocity": 0.3858267716535433
        },
        {
          "duration": 2.123892000000012,
          "durationTicks": 1536,
          "midi": 73,
          "name": "C#5",
          "ticks": 127488,
          "time": 176.283036,
          "velocity": 0.3858267716535433
        },
        {
          "duration": 2.123892000000012,
          "durationTicks": 1536,
          "midi": 70,
          "name": "A#4",
          "ticks": 127488,
          "time": 176.283036,
          "velocity": 0.3858267716535433
        },
        {
          "duration": 0.7964594999999974,
          "durationTicks": 576,
          "midi": 66,
          "name": "F#4",
          "ticks": 129024,
          "time": 178.40692800000002,
          "velocity": 0.3858267716535433
        },
        {
          "duration": 0.7964594999999974,
          "durationTicks": 576,
          "midi": 70,
          "name": "A#4",
          "ticks": 129024,
          "time": 178.40692800000002,
          "velocity": 0.3858267716535433
        },
        {
          "duration": 0.7964594999999974,
          "durationTicks": 576,
          "midi": 73,
          "name": "C#5",
          "ticks": 129024,
          "time": 178.40692800000002,
          "velocity": 0.3858267716535433
        },
        {
          "duration": 0.7964594999999974,
          "durationTicks": 576,
          "midi": 77,
          "name": "F5",
          "ticks": 129024,
          "time": 178.40692800000002,
          "velocity": 0.3858267716535433
        },
        {
          "duration": 1.3274324999999862,
          "durationTicks": 960,
          "midi": 72,
          "name": "C5",
          "ticks": 129600,
          "time": 179.20338750000002,
          "velocity": 0.3858267716535433
        },
        {
          "duration": 1.3274324999999862,
          "durationTicks": 960,
          "midi": 65,
          "name": "F4",
          "ticks": 129600,
          "time": 179.20338750000002,
          "velocity": 0.3858267716535433
        },
        {
          "duration": 1.3274324999999862,
          "durationTicks": 960,
          "midi": 75,
          "name": "D#5",
          "ticks": 129600,
          "time": 179.20338750000002,
          "velocity": 0.3858267716535433
        },
        {
          "duration": 1.3274324999999862,
          "durationTicks": 960,
          "midi": 68,
          "name": "G#4",
          "ticks": 129600,
          "time": 179.20338750000002,
          "velocity": 0.3858267716535433
        },
        {
          "duration": 0.7964594999999974,
          "durationTicks": 576,
          "midi": 73,
          "name": "C#5",
          "ticks": 130560,
          "time": 180.53082,
          "velocity": 0.3858267716535433
        },
        {
          "duration": 0.7964594999999974,
          "durationTicks": 576,
          "midi": 70,
          "name": "A#4",
          "ticks": 130560,
          "time": 180.53082,
          "velocity": 0.3858267716535433
        },
        {
          "duration": 0.7964594999999974,
          "durationTicks": 576,
          "midi": 66,
          "name": "F#4",
          "ticks": 130560,
          "time": 180.53082,
          "velocity": 0.3858267716535433
        },
        {
          "duration": 0.7964594999999974,
          "durationTicks": 576,
          "midi": 77,
          "name": "F5",
          "ticks": 130560,
          "time": 180.53082,
          "velocity": 0.3858267716535433
        },
        {
          "duration": 1.3274325000000147,
          "durationTicks": 960,
          "midi": 68,
          "name": "G#4",
          "ticks": 131136,
          "time": 181.3272795,
          "velocity": 0.3858267716535433
        },
        {
          "duration": 1.3274325000000147,
          "durationTicks": 960,
          "midi": 72,
          "name": "C5",
          "ticks": 131136,
          "time": 181.3272795,
          "velocity": 0.3858267716535433
        },
        {
          "duration": 1.3274325000000147,
          "durationTicks": 960,
          "midi": 75,
          "name": "D#5",
          "ticks": 131136,
          "time": 181.3272795,
          "velocity": 0.3858267716535433
        },
        {
          "duration": 0.7964594999999974,
          "durationTicks": 576,
          "midi": 75,
          "name": "D#5",
          "ticks": 132096,
          "time": 182.65471200000002,
          "velocity": 0.3858267716535433
        },
        {
          "duration": 0.7964594999999974,
          "durationTicks": 576,
          "midi": 68,
          "name": "G#4",
          "ticks": 132096,
          "time": 182.65471200000002,
          "velocity": 0.3858267716535433
        },
        {
          "duration": 0.7964594999999974,
          "durationTicks": 576,
          "midi": 72,
          "name": "C5",
          "ticks": 132096,
          "time": 182.65471200000002,
          "velocity": 0.3858267716535433
        },
        {
          "duration": 1.3274324999999862,
          "durationTicks": 960,
          "midi": 73,
          "name": "C#5",
          "ticks": 132672,
          "time": 183.45117150000002,
          "velocity": 0.3858267716535433
        },
        {
          "duration": 1.3274324999999862,
          "durationTicks": 960,
          "midi": 70,
          "name": "A#4",
          "ticks": 132672,
          "time": 183.45117150000002,
          "velocity": 0.3858267716535433
        },
        {
          "duration": 1.3274324999999862,
          "durationTicks": 960,
          "midi": 77,
          "name": "F5",
          "ticks": 132672,
          "time": 183.45117150000002,
          "velocity": 0.3858267716535433
        },
        {
          "duration": 0.7964594999999974,
          "durationTicks": 576,
          "midi": 73,
          "name": "C#5",
          "ticks": 133632,
          "time": 184.778604,
          "velocity": 0.3858267716535433
        },
        {
          "duration": 0.7964594999999974,
          "durationTicks": 576,
          "midi": 70,
          "name": "A#4",
          "ticks": 133632,
          "time": 184.778604,
          "velocity": 0.3858267716535433
        },
        {
          "duration": 0.7964594999999974,
          "durationTicks": 576,
          "midi": 66,
          "name": "F#4",
          "ticks": 133632,
          "time": 184.778604,
          "velocity": 0.3858267716535433
        },
        {
          "duration": 0.7964594999999974,
          "durationTicks": 576,
          "midi": 77,
          "name": "F5",
          "ticks": 133632,
          "time": 184.778604,
          "velocity": 0.3858267716535433
        },
        {
          "duration": 1.3274325000000147,
          "durationTicks": 960,
          "midi": 68,
          "name": "G#4",
          "ticks": 134208,
          "time": 185.5750635,
          "velocity": 0.3858267716535433
        },
        {
          "duration": 1.3274325000000147,
          "durationTicks": 960,
          "midi": 72,
          "name": "C5",
          "ticks": 134208,
          "time": 185.5750635,
          "velocity": 0.3858267716535433
        },
        {
          "duration": 1.3274325000000147,
          "durationTicks": 960,
          "midi": 75,
          "name": "D#5",
          "ticks": 134208,
          "time": 185.5750635,
          "velocity": 0.3858267716535433
        },
        {
          "duration": 0.7964594999999974,
          "durationTicks": 576,
          "midi": 75,
          "name": "D#5",
          "ticks": 135168,
          "time": 186.902496,
          "velocity": 0.3858267716535433
        },
        {
          "duration": 0.7964594999999974,
          "durationTicks": 576,
          "midi": 68,
          "name": "G#4",
          "ticks": 135168,
          "time": 186.902496,
          "velocity": 0.3858267716535433
        },
        {
          "duration": 0.7964594999999974,
          "durationTicks": 576,
          "midi": 72,
          "name": "C5",
          "ticks": 135168,
          "time": 186.902496,
          "velocity": 0.3858267716535433
        },
        {
          "duration": 1.3274324999999862,
          "durationTicks": 960,
          "midi": 73,
          "name": "C#5",
          "ticks": 135744,
          "time": 187.6989555,
          "velocity": 0.3858267716535433
        },
        {
          "duration": 1.3274324999999862,
          "durationTicks": 960,
          "midi": 70,
          "name": "A#4",
          "ticks": 135744,
          "time": 187.6989555,
          "velocity": 0.3858267716535433
        },
        {
          "duration": 1.3274324999999862,
          "durationTicks": 960,
          "midi": 77,
          "name": "F5",
          "ticks": 135744,
          "time": 187.6989555,
          "velocity": 0.3858267716535433
        },
        {
          "duration": 0.7964595000000259,
          "durationTicks": 576,
          "midi": 73,
          "name": "C#5",
          "ticks": 136704,
          "time": 189.026388,
          "velocity": 0.3858267716535433
        },
        {
          "duration": 0.7964595000000259,
          "durationTicks": 576,
          "midi": 70,
          "name": "A#4",
          "ticks": 136704,
          "time": 189.026388,
          "velocity": 0.3858267716535433
        },
        {
          "duration": 0.7964595000000259,
          "durationTicks": 576,
          "midi": 66,
          "name": "F#4",
          "ticks": 136704,
          "time": 189.026388,
          "velocity": 0.3858267716535433
        },
        {
          "duration": 0.7964595000000259,
          "durationTicks": 576,
          "midi": 77,
          "name": "F5",
          "ticks": 136704,
          "time": 189.026388,
          "velocity": 0.3858267716535433
        },
        {
          "duration": 1.3274324999999862,
          "durationTicks": 960,
          "midi": 68,
          "name": "G#4",
          "ticks": 137280,
          "time": 189.82284750000002,
          "velocity": 0.3858267716535433
        },
        {
          "duration": 1.3274324999999862,
          "durationTicks": 960,
          "midi": 72,
          "name": "C5",
          "ticks": 137280,
          "time": 189.82284750000002,
          "velocity": 0.3858267716535433
        },
        {
          "duration": 1.3274324999999862,
          "durationTicks": 960,
          "midi": 75,
          "name": "D#5",
          "ticks": 137280,
          "time": 189.82284750000002,
          "velocity": 0.3858267716535433
        },
        {
          "duration": 0.7964594999999974,
          "durationTicks": 576,
          "midi": 75,
          "name": "D#5",
          "ticks": 138240,
          "time": 191.15028,
          "velocity": 0.3858267716535433
        },
        {
          "duration": 0.7964594999999974,
          "durationTicks": 576,
          "midi": 68,
          "name": "G#4",
          "ticks": 138240,
          "time": 191.15028,
          "velocity": 0.3858267716535433
        },
        {
          "duration": 0.7964594999999974,
          "durationTicks": 576,
          "midi": 72,
          "name": "C5",
          "ticks": 138240,
          "time": 191.15028,
          "velocity": 0.3858267716535433
        },
        {
          "duration": 1.3274325000000147,
          "durationTicks": 960,
          "midi": 73,
          "name": "C#5",
          "ticks": 138816,
          "time": 191.9467395,
          "velocity": 0.3858267716535433
        },
        {
          "duration": 1.3274325000000147,
          "durationTicks": 960,
          "midi": 70,
          "name": "A#4",
          "ticks": 138816,
          "time": 191.9467395,
          "velocity": 0.3858267716535433
        },
        {
          "duration": 1.3274325000000147,
          "durationTicks": 960,
          "midi": 77,
          "name": "F5",
          "ticks": 138816,
          "time": 191.9467395,
          "velocity": 0.3858267716535433
        },
        {
          "duration": 0.6637162499999931,
          "durationTicks": 480,
          "midi": 70,
          "name": "A#4",
          "ticks": 139776,
          "time": 193.27417200000002,
          "velocity": 0.3858267716535433
        },
        {
          "duration": 0.6637162499999931,
          "durationTicks": 480,
          "midi": 66,
          "name": "F#4",
          "ticks": 139776,
          "time": 193.27417200000002,
          "velocity": 0.3858267716535433
        },
        {
          "duration": 0.7964594999999974,
          "durationTicks": 576,
          "midi": 73,
          "name": "C#5",
          "ticks": 139776,
          "time": 193.27417200000002,
          "velocity": 0.3858267716535433
        },
        {
          "duration": 1.3274324999999862,
          "durationTicks": 960,
          "midi": 72,
          "name": "C5",
          "ticks": 140352,
          "time": 194.07063150000002,
          "velocity": 0.3858267716535433
        },
        {
          "duration": 1.3274324999999862,
          "durationTicks": 960,
          "midi": 75,
          "name": "D#5",
          "ticks": 140352,
          "time": 194.07063150000002,
          "velocity": 0.3858267716535433
        },
        {
          "duration": 1.3274324999999862,
          "durationTicks": 960,
          "midi": 68,
          "name": "G#4",
          "ticks": 140352,
          "time": 194.07063150000002,
          "velocity": 0.3858267716535433
        },
        {
          "duration": 0.5309730000000172,
          "durationTicks": 384,
          "midi": 72,
          "name": "C5",
          "ticks": 141312,
          "time": 195.398064,
          "velocity": 0.3858267716535433
        },
        {
          "duration": 0.5309730000000172,
          "durationTicks": 384,
          "midi": 75,
          "name": "D#5",
          "ticks": 141312,
          "time": 195.398064,
          "velocity": 0.3858267716535433
        },
        {
          "duration": 0.5309730000000172,
          "durationTicks": 384,
          "midi": 68,
          "name": "G#4",
          "ticks": 141312,
          "time": 195.398064,
          "velocity": 0.3858267716535433
        },
        {
          "duration": 1.5929189999999949,
          "durationTicks": 1152,
          "midi": 68,
          "name": "G#4",
          "ticks": 141696,
          "time": 195.92903700000002,
          "velocity": 0.3858267716535433
        },
        {
          "duration": 1.5929189999999949,
          "durationTicks": 1152,
          "midi": 73,
          "name": "C#5",
          "ticks": 141696,
          "time": 195.92903700000002,
          "velocity": 0.3858267716535433
        },
        {
          "duration": 1.5929189999999949,
          "durationTicks": 1152,
          "midi": 77,
          "name": "F5",
          "ticks": 141696,
          "time": 195.92903700000002,
          "velocity": 0.3858267716535433
        },
        {
          "duration": 0.7964594999999974,
          "durationTicks": 576,
          "midi": 73,
          "name": "C#5",
          "ticks": 142848,
          "time": 197.52195600000002,
          "velocity": 0.3858267716535433
        },
        {
          "duration": 0.7964594999999974,
          "durationTicks": 576,
          "midi": 70,
          "name": "A#4",
          "ticks": 142848,
          "time": 197.52195600000002,
          "velocity": 0.3858267716535433
        },
        {
          "duration": 0.7964594999999974,
          "durationTicks": 576,
          "midi": 66,
          "name": "F#4",
          "ticks": 142848,
          "time": 197.52195600000002,
          "velocity": 0.3858267716535433
        },
        {
          "duration": 0.7964594999999974,
          "durationTicks": 576,
          "midi": 77,
          "name": "F5",
          "ticks": 142848,
          "time": 197.52195600000002,
          "velocity": 0.3858267716535433
        },
        {
          "duration": 1.3274324999999862,
          "durationTicks": 960,
          "midi": 68,
          "name": "G#4",
          "ticks": 143424,
          "time": 198.31841550000001,
          "velocity": 0.3858267716535433
        },
        {
          "duration": 1.3274324999999862,
          "durationTicks": 960,
          "midi": 72,
          "name": "C5",
          "ticks": 143424,
          "time": 198.31841550000001,
          "velocity": 0.3858267716535433
        },
        {
          "duration": 1.3274324999999862,
          "durationTicks": 960,
          "midi": 75,
          "name": "D#5",
          "ticks": 143424,
          "time": 198.31841550000001,
          "velocity": 0.3858267716535433
        },
        {
          "duration": 0.7964594999999974,
          "durationTicks": 576,
          "midi": 75,
          "name": "D#5",
          "ticks": 144384,
          "time": 199.645848,
          "velocity": 0.3858267716535433
        },
        {
          "duration": 0.7964594999999974,
          "durationTicks": 576,
          "midi": 68,
          "name": "G#4",
          "ticks": 144384,
          "time": 199.645848,
          "velocity": 0.3858267716535433
        },
        {
          "duration": 0.7964594999999974,
          "durationTicks": 576,
          "midi": 72,
          "name": "C5",
          "ticks": 144384,
          "time": 199.645848,
          "velocity": 0.3858267716535433
        },
        {
          "duration": 1.3274325000000147,
          "durationTicks": 960,
          "midi": 73,
          "name": "C#5",
          "ticks": 144960,
          "time": 200.4423075,
          "velocity": 0.3858267716535433
        },
        {
          "duration": 1.3274325000000147,
          "durationTicks": 960,
          "midi": 70,
          "name": "A#4",
          "ticks": 144960,
          "time": 200.4423075,
          "velocity": 0.3858267716535433
        },
        {
          "duration": 1.3274325000000147,
          "durationTicks": 960,
          "midi": 77,
          "name": "F5",
          "ticks": 144960,
          "time": 200.4423075,
          "velocity": 0.3858267716535433
        },
        {
          "duration": 0.7964594999999974,
          "durationTicks": 576,
          "midi": 73,
          "name": "C#5",
          "ticks": 145920,
          "time": 201.76974,
          "velocity": 0.3858267716535433
        },
        {
          "duration": 0.7964594999999974,
          "durationTicks": 576,
          "midi": 70,
          "name": "A#4",
          "ticks": 145920,
          "time": 201.76974,
          "velocity": 0.3858267716535433
        },
        {
          "duration": 0.7964594999999974,
          "durationTicks": 576,
          "midi": 66,
          "name": "F#4",
          "ticks": 145920,
          "time": 201.76974,
          "velocity": 0.3858267716535433
        },
        {
          "duration": 0.7964594999999974,
          "durationTicks": 576,
          "midi": 77,
          "name": "F5",
          "ticks": 145920,
          "time": 201.76974,
          "velocity": 0.3858267716535433
        },
        {
          "duration": 1.3274325000000147,
          "durationTicks": 960,
          "midi": 68,
          "name": "G#4",
          "ticks": 146496,
          "time": 202.5661995,
          "velocity": 0.3858267716535433
        },
        {
          "duration": 1.3274325000000147,
          "durationTicks": 960,
          "midi": 72,
          "name": "C5",
          "ticks": 146496,
          "time": 202.5661995,
          "velocity": 0.3858267716535433
        },
        {
          "duration": 1.3274325000000147,
          "durationTicks": 960,
          "midi": 75,
          "name": "D#5",
          "ticks": 146496,
          "time": 202.5661995,
          "velocity": 0.3858267716535433
        },
        {
          "duration": 0.7964594999999974,
          "durationTicks": 576,
          "midi": 75,
          "name": "D#5",
          "ticks": 147456,
          "time": 203.89363200000003,
          "velocity": 0.3858267716535433
        },
        {
          "duration": 0.7964594999999974,
          "durationTicks": 576,
          "midi": 68,
          "name": "G#4",
          "ticks": 147456,
          "time": 203.89363200000003,
          "velocity": 0.3858267716535433
        },
        {
          "duration": 0.7964594999999974,
          "durationTicks": 576,
          "midi": 72,
          "name": "C5",
          "ticks": 147456,
          "time": 203.89363200000003,
          "velocity": 0.3858267716535433
        },
        {
          "duration": 1.3274324999999862,
          "durationTicks": 960,
          "midi": 73,
          "name": "C#5",
          "ticks": 148032,
          "time": 204.69009150000002,
          "velocity": 0.3858267716535433
        },
        {
          "duration": 1.3274324999999862,
          "durationTicks": 960,
          "midi": 70,
          "name": "A#4",
          "ticks": 148032,
          "time": 204.69009150000002,
          "velocity": 0.3858267716535433
        },
        {
          "duration": 1.3274324999999862,
          "durationTicks": 960,
          "midi": 77,
          "name": "F5",
          "ticks": 148032,
          "time": 204.69009150000002,
          "velocity": 0.3858267716535433
        },
        {
          "duration": 0.7964594999999974,
          "durationTicks": 576,
          "midi": 73,
          "name": "C#5",
          "ticks": 148992,
          "time": 206.017524,
          "velocity": 0.3858267716535433
        },
        {
          "duration": 0.7964594999999974,
          "durationTicks": 576,
          "midi": 70,
          "name": "A#4",
          "ticks": 148992,
          "time": 206.017524,
          "velocity": 0.3858267716535433
        },
        {
          "duration": 0.7964594999999974,
          "durationTicks": 576,
          "midi": 66,
          "name": "F#4",
          "ticks": 148992,
          "time": 206.017524,
          "velocity": 0.3858267716535433
        },
        {
          "duration": 0.7964594999999974,
          "durationTicks": 576,
          "midi": 77,
          "name": "F5",
          "ticks": 148992,
          "time": 206.017524,
          "velocity": 0.3858267716535433
        },
        {
          "duration": 1.3274325000000147,
          "durationTicks": 960,
          "midi": 68,
          "name": "G#4",
          "ticks": 149568,
          "time": 206.8139835,
          "velocity": 0.3858267716535433
        },
        {
          "duration": 1.3274325000000147,
          "durationTicks": 960,
          "midi": 72,
          "name": "C5",
          "ticks": 149568,
          "time": 206.8139835,
          "velocity": 0.3858267716535433
        },
        {
          "duration": 1.3274325000000147,
          "durationTicks": 960,
          "midi": 75,
          "name": "D#5",
          "ticks": 149568,
          "time": 206.8139835,
          "velocity": 0.3858267716535433
        },
        {
          "duration": 0.7964594999999974,
          "durationTicks": 576,
          "midi": 75,
          "name": "D#5",
          "ticks": 150528,
          "time": 208.14141600000002,
          "velocity": 0.3858267716535433
        },
        {
          "duration": 0.7964594999999974,
          "durationTicks": 576,
          "midi": 68,
          "name": "G#4",
          "ticks": 150528,
          "time": 208.14141600000002,
          "velocity": 0.3858267716535433
        },
        {
          "duration": 0.7964594999999974,
          "durationTicks": 576,
          "midi": 72,
          "name": "C5",
          "ticks": 150528,
          "time": 208.14141600000002,
          "velocity": 0.3858267716535433
        },
        {
          "duration": 1.3274324999999862,
          "durationTicks": 960,
          "midi": 73,
          "name": "C#5",
          "ticks": 151104,
          "time": 208.93787550000002,
          "velocity": 0.3858267716535433
        },
        {
          "duration": 1.3274324999999862,
          "durationTicks": 960,
          "midi": 70,
          "name": "A#4",
          "ticks": 151104,
          "time": 208.93787550000002,
          "velocity": 0.3858267716535433
        },
        {
          "duration": 1.3274324999999862,
          "durationTicks": 960,
          "midi": 77,
          "name": "F5",
          "ticks": 151104,
          "time": 208.93787550000002,
          "velocity": 0.3858267716535433
        },
        {
          "duration": 0.6637162499999931,
          "durationTicks": 480,
          "midi": 70,
          "name": "A#4",
          "ticks": 152064,
          "time": 210.265308,
          "velocity": 0.3858267716535433
        },
        {
          "duration": 0.6637162499999931,
          "durationTicks": 480,
          "midi": 66,
          "name": "F#4",
          "ticks": 152064,
          "time": 210.265308,
          "velocity": 0.3858267716535433
        },
        {
          "duration": 0.7964594999999974,
          "durationTicks": 576,
          "midi": 73,
          "name": "C#5",
          "ticks": 152064,
          "time": 210.265308,
          "velocity": 0.3858267716535433
        },
        {
          "duration": 1.3274325000000147,
          "durationTicks": 960,
          "midi": 72,
          "name": "C5",
          "ticks": 152640,
          "time": 211.0617675,
          "velocity": 0.3858267716535433
        },
        {
          "duration": 1.3274325000000147,
          "durationTicks": 960,
          "midi": 75,
          "name": "D#5",
          "ticks": 152640,
          "time": 211.0617675,
          "velocity": 0.3858267716535433
        },
        {
          "duration": 1.3274325000000147,
          "durationTicks": 960,
          "midi": 68,
          "name": "G#4",
          "ticks": 152640,
          "time": 211.0617675,
          "velocity": 0.3858267716535433
        },
        {
          "duration": 0.5309729999999888,
          "durationTicks": 384,
          "midi": 72,
          "name": "C5",
          "ticks": 153600,
          "time": 212.38920000000002,
          "velocity": 0.3858267716535433
        },
        {
          "duration": 0.5309729999999888,
          "durationTicks": 384,
          "midi": 75,
          "name": "D#5",
          "ticks": 153600,
          "time": 212.38920000000002,
          "velocity": 0.3858267716535433
        },
        {
          "duration": 0.5309729999999888,
          "durationTicks": 384,
          "midi": 68,
          "name": "G#4",
          "ticks": 153600,
          "time": 212.38920000000002,
          "velocity": 0.3858267716535433
        },
        {
          "duration": 1.5929189999999949,
          "durationTicks": 1152,
          "midi": 68,
          "name": "G#4",
          "ticks": 153984,
          "time": 212.920173,
          "velocity": 0.3858267716535433
        },
        {
          "duration": 1.5929189999999949,
          "durationTicks": 1152,
          "midi": 73,
          "name": "C#5",
          "ticks": 153984,
          "time": 212.920173,
          "velocity": 0.3858267716535433
        },
        {
          "duration": 1.5929189999999949,
          "durationTicks": 1152,
          "midi": 77,
          "name": "F5",
          "ticks": 153984,
          "time": 212.920173,
          "velocity": 0.3858267716535433
        },
        {
          "duration": 0.2654865000000086,
          "durationTicks": 192,
          "midi": 77,
          "name": "F5",
          "ticks": 156672,
          "time": 216.636984,
          "velocity": 0.3858267716535433
        },
        {
          "duration": 0.2654865000000086,
          "durationTicks": 192,
          "midi": 80,
          "name": "G#5",
          "ticks": 156672,
          "time": 216.636984,
          "velocity": 0.3858267716535433
        },
        {
          "duration": 0.2654865000000086,
          "durationTicks": 192,
          "midi": 85,
          "name": "C#6",
          "ticks": 156672,
          "time": 216.636984,
          "velocity": 0.3858267716535433
        },
        {
          "duration": 0.3982297499999845,
          "durationTicks": 288,
          "midi": 77,
          "name": "F5",
          "ticks": 156960,
          "time": 217.03521375000003,
          "velocity": 0.3858267716535433
        },
        {
          "duration": 0.3982297499999845,
          "durationTicks": 288,
          "midi": 80,
          "name": "G#5",
          "ticks": 156960,
          "time": 217.03521375000003,
          "velocity": 0.3858267716535433
        },
        {
          "duration": 0.3982297499999845,
          "durationTicks": 288,
          "midi": 85,
          "name": "C#6",
          "ticks": 156960,
          "time": 217.03521375000003,
          "velocity": 0.3858267716535433
        },
        {
          "duration": 0.1327432500000043,
          "durationTicks": 96,
          "midi": 84,
          "name": "C6",
          "ticks": 157248,
          "time": 217.4334435,
          "velocity": 0.3858267716535433
        },
        {
          "duration": 0.1327432500000043,
          "durationTicks": 96,
          "midi": 80,
          "name": "G#5",
          "ticks": 157248,
          "time": 217.4334435,
          "velocity": 0.3858267716535433
        },
        {
          "duration": 0.1327432500000043,
          "durationTicks": 96,
          "midi": 75,
          "name": "D#5",
          "ticks": 157248,
          "time": 217.4334435,
          "velocity": 0.3858267716535433
        },
        {
          "duration": 0.2654865000000086,
          "durationTicks": 192,
          "midi": 77,
          "name": "F5",
          "ticks": 159744,
          "time": 220.884768,
          "velocity": 0.3858267716535433
        },
        {
          "duration": 0.2654865000000086,
          "durationTicks": 192,
          "midi": 80,
          "name": "G#5",
          "ticks": 159744,
          "time": 220.884768,
          "velocity": 0.3858267716535433
        },
        {
          "duration": 0.2654865000000086,
          "durationTicks": 192,
          "midi": 85,
          "name": "C#6",
          "ticks": 159744,
          "time": 220.884768,
          "velocity": 0.3858267716535433
        },
        {
          "duration": 0.3982297499999845,
          "durationTicks": 288,
          "midi": 77,
          "name": "F5",
          "ticks": 160032,
          "time": 221.28299775000002,
          "velocity": 0.3858267716535433
        },
        {
          "duration": 0.3982297499999845,
          "durationTicks": 288,
          "midi": 80,
          "name": "G#5",
          "ticks": 160032,
          "time": 221.28299775000002,
          "velocity": 0.3858267716535433
        },
        {
          "duration": 0.3982297499999845,
          "durationTicks": 288,
          "midi": 85,
          "name": "C#6",
          "ticks": 160032,
          "time": 221.28299775000002,
          "velocity": 0.3858267716535433
        },
        {
          "duration": 0.1327432500000043,
          "durationTicks": 96,
          "midi": 84,
          "name": "C6",
          "ticks": 160320,
          "time": 221.6812275,
          "velocity": 0.3858267716535433
        },
        {
          "duration": 0.1327432500000043,
          "durationTicks": 96,
          "midi": 80,
          "name": "G#5",
          "ticks": 160320,
          "time": 221.6812275,
          "velocity": 0.3858267716535433
        },
        {
          "duration": 0.1327432500000043,
          "durationTicks": 96,
          "midi": 75,
          "name": "D#5",
          "ticks": 160320,
          "time": 221.6812275,
          "velocity": 0.3858267716535433
        },
        {
          "duration": 0.2654865000000086,
          "durationTicks": 192,
          "midi": 77,
          "name": "F5",
          "ticks": 162816,
          "time": 225.132552,
          "velocity": 0.3858267716535433
        },
        {
          "duration": 0.2654865000000086,
          "durationTicks": 192,
          "midi": 80,
          "name": "G#5",
          "ticks": 162816,
          "time": 225.132552,
          "velocity": 0.3858267716535433
        },
        {
          "duration": 0.2654865000000086,
          "durationTicks": 192,
          "midi": 85,
          "name": "C#6",
          "ticks": 162816,
          "time": 225.132552,
          "velocity": 0.3858267716535433
        },
        {
          "duration": 0.3982297499999845,
          "durationTicks": 288,
          "midi": 77,
          "name": "F5",
          "ticks": 163104,
          "time": 225.53078175000002,
          "velocity": 0.3858267716535433
        },
        {
          "duration": 0.3982297499999845,
          "durationTicks": 288,
          "midi": 80,
          "name": "G#5",
          "ticks": 163104,
          "time": 225.53078175000002,
          "velocity": 0.3858267716535433
        },
        {
          "duration": 0.3982297499999845,
          "durationTicks": 288,
          "midi": 85,
          "name": "C#6",
          "ticks": 163104,
          "time": 225.53078175000002,
          "velocity": 0.3858267716535433
        },
        {
          "duration": 0.1327432500000043,
          "durationTicks": 96,
          "midi": 84,
          "name": "C6",
          "ticks": 163392,
          "time": 225.9290115,
          "velocity": 0.3858267716535433
        },
        {
          "duration": 0.1327432500000043,
          "durationTicks": 96,
          "midi": 80,
          "name": "G#5",
          "ticks": 163392,
          "time": 225.9290115,
          "velocity": 0.3858267716535433
        },
        {
          "duration": 0.1327432500000043,
          "durationTicks": 96,
          "midi": 75,
          "name": "D#5",
          "ticks": 163392,
          "time": 225.9290115,
          "velocity": 0.3858267716535433
        },
        {
          "duration": 0.2654865000000086,
          "durationTicks": 192,
          "midi": 77,
          "name": "F5",
          "ticks": 165888,
          "time": 229.380336,
          "velocity": 0.3858267716535433
        },
        {
          "duration": 0.2654865000000086,
          "durationTicks": 192,
          "midi": 80,
          "name": "G#5",
          "ticks": 165888,
          "time": 229.380336,
          "velocity": 0.3858267716535433
        },
        {
          "duration": 0.2654865000000086,
          "durationTicks": 192,
          "midi": 85,
          "name": "C#6",
          "ticks": 165888,
          "time": 229.380336,
          "velocity": 0.3858267716535433
        },
        {
          "duration": 0.3982297500000129,
          "durationTicks": 288,
          "midi": 77,
          "name": "F5",
          "ticks": 166176,
          "time": 229.77856575,
          "velocity": 0.3858267716535433
        },
        {
          "duration": 0.3982297500000129,
          "durationTicks": 288,
          "midi": 80,
          "name": "G#5",
          "ticks": 166176,
          "time": 229.77856575,
          "velocity": 0.3858267716535433
        },
        {
          "duration": 0.3982297500000129,
          "durationTicks": 288,
          "midi": 85,
          "name": "C#6",
          "ticks": 166176,
          "time": 229.77856575,
          "velocity": 0.3858267716535433
        },
        {
          "duration": 0.1327432499999759,
          "durationTicks": 96,
          "midi": 84,
          "name": "C6",
          "ticks": 166464,
          "time": 230.17679550000003,
          "velocity": 0.3858267716535433
        },
        {
          "duration": 0.1327432499999759,
          "durationTicks": 96,
          "midi": 80,
          "name": "G#5",
          "ticks": 166464,
          "time": 230.17679550000003,
          "velocity": 0.3858267716535433
        },
        {
          "duration": 0.1327432499999759,
          "durationTicks": 96,
          "midi": 75,
          "name": "D#5",
          "ticks": 166464,
          "time": 230.17679550000003,
          "velocity": 0.3858267716535433
        },
        {
          "duration": 0.2654864999999802,
          "durationTicks": 192,
          "midi": 77,
          "name": "F5",
          "ticks": 168960,
          "time": 233.62812000000002,
          "velocity": 0.3858267716535433
        },
        {
          "duration": 0.2654864999999802,
          "durationTicks": 192,
          "midi": 80,
          "name": "G#5",
          "ticks": 168960,
          "time": 233.62812000000002,
          "velocity": 0.3858267716535433
        },
        {
          "duration": 0.2654864999999802,
          "durationTicks": 192,
          "midi": 85,
          "name": "C#6",
          "ticks": 168960,
          "time": 233.62812000000002,
          "velocity": 0.3858267716535433
        },
        {
          "duration": 0.3982297500000129,
          "durationTicks": 288,
          "midi": 77,
          "name": "F5",
          "ticks": 169248,
          "time": 234.02634975,
          "velocity": 0.3858267716535433
        },
        {
          "duration": 0.3982297500000129,
          "durationTicks": 288,
          "midi": 80,
          "name": "G#5",
          "ticks": 169248,
          "time": 234.02634975,
          "velocity": 0.3858267716535433
        },
        {
          "duration": 0.3982297500000129,
          "durationTicks": 288,
          "midi": 85,
          "name": "C#6",
          "ticks": 169248,
          "time": 234.02634975,
          "velocity": 0.3858267716535433
        },
        {
          "duration": 0.1327432500000043,
          "durationTicks": 96,
          "midi": 84,
          "name": "C6",
          "ticks": 169536,
          "time": 234.42457950000002,
          "velocity": 0.3858267716535433
        },
        {
          "duration": 0.1327432500000043,
          "durationTicks": 96,
          "midi": 80,
          "name": "G#5",
          "ticks": 169536,
          "time": 234.42457950000002,
          "velocity": 0.3858267716535433
        },
        {
          "duration": 0.1327432500000043,
          "durationTicks": 96,
          "midi": 75,
          "name": "D#5",
          "ticks": 169536,
          "time": 234.42457950000002,
          "velocity": 0.3858267716535433
        },
        {
          "duration": 0.2654864999999802,
          "durationTicks": 192,
          "midi": 77,
          "name": "F5",
          "ticks": 172032,
          "time": 237.87590400000002,
          "velocity": 0.3858267716535433
        },
        {
          "duration": 0.2654864999999802,
          "durationTicks": 192,
          "midi": 80,
          "name": "G#5",
          "ticks": 172032,
          "time": 237.87590400000002,
          "velocity": 0.3858267716535433
        },
        {
          "duration": 0.2654864999999802,
          "durationTicks": 192,
          "midi": 85,
          "name": "C#6",
          "ticks": 172032,
          "time": 237.87590400000002,
          "velocity": 0.3858267716535433
        },
        {
          "duration": 0.3982297500000129,
          "durationTicks": 288,
          "midi": 77,
          "name": "F5",
          "ticks": 172320,
          "time": 238.27413375,
          "velocity": 0.3858267716535433
        },
        {
          "duration": 0.3982297500000129,
          "durationTicks": 288,
          "midi": 80,
          "name": "G#5",
          "ticks": 172320,
          "time": 238.27413375,
          "velocity": 0.3858267716535433
        },
        {
          "duration": 0.3982297500000129,
          "durationTicks": 288,
          "midi": 85,
          "name": "C#6",
          "ticks": 172320,
          "time": 238.27413375,
          "velocity": 0.3858267716535433
        },
        {
          "duration": 0.1327432500000043,
          "durationTicks": 96,
          "midi": 84,
          "name": "C6",
          "ticks": 172608,
          "time": 238.67236350000002,
          "velocity": 0.3858267716535433
        },
        {
          "duration": 0.1327432500000043,
          "durationTicks": 96,
          "midi": 80,
          "name": "G#5",
          "ticks": 172608,
          "time": 238.67236350000002,
          "velocity": 0.3858267716535433
        },
        {
          "duration": 0.1327432500000043,
          "durationTicks": 96,
          "midi": 75,
          "name": "D#5",
          "ticks": 172608,
          "time": 238.67236350000002,
          "velocity": 0.3858267716535433
        }
      ],
      "endOfTrackTicks": 172704
    },
    {
      "channel": 1,
      "controlChanges": {},
      "pitchBends": [],
      "instrument": {
        "family": "synth lead",
        "number": 81,
        "name": "lead 2 (sawtooth)"
      },
      "name": "8-Bit Sawtooth",
      "notes": [
        {
          "duration": 0.13274324999999987,
          "durationTicks": 96,
          "midi": 27,
          "name": "D#1",
          "ticks": 1536,
          "time": 2.123892,
          "velocity": 0.3937007874015748
        },
        {
          "duration": 0.13274324999999987,
          "durationTicks": 96,
          "midi": 27,
          "name": "D#1",
          "ticks": 1728,
          "time": 2.3893785000000003,
          "velocity": 0.3937007874015748
        },
        {
          "duration": 0.13274324999999987,
          "durationTicks": 96,
          "midi": 27,
          "name": "D#1",
          "ticks": 1824,
          "time": 2.52212175,
          "velocity": 0.3937007874015748
        },
        {
          "duration": 0.13274324999999987,
          "durationTicks": 96,
          "midi": 36,
          "name": "C2",
          "ticks": 2016,
          "time": 2.7876082500000003,
          "velocity": 0.3937007874015748
        },
        {
          "duration": 0.13274324999999987,
          "durationTicks": 96,
          "midi": 34,
          "name": "A#1",
          "ticks": 2112,
          "time": 2.9203515,
          "velocity": 0.3937007874015748
        },
        {
          "duration": 0.13274324999999987,
          "durationTicks": 96,
          "midi": 32,
          "name": "G#1",
          "ticks": 2304,
          "time": 3.1858380000000004,
          "velocity": 0.3937007874015748
        },
        {
          "duration": 0.13274324999999987,
          "durationTicks": 96,
          "midi": 32,
          "name": "G#1",
          "ticks": 2496,
          "time": 3.4513245,
          "velocity": 0.3937007874015748
        },
        {
          "duration": 0.1327432500000003,
          "durationTicks": 96,
          "midi": 27,
          "name": "D#1",
          "ticks": 2880,
          "time": 3.9822975,
          "velocity": 0.3937007874015748
        },
        {
          "duration": 0.13274324999999987,
          "durationTicks": 96,
          "midi": 32,
          "name": "G#1",
          "ticks": 2976,
          "time": 4.11504075,
          "velocity": 0.3937007874015748
        },
        {
          "duration": 0.13274324999999987,
          "durationTicks": 96,
          "midi": 29,
          "name": "F1",
          "ticks": 3072,
          "time": 4.247784,
          "velocity": 0.3937007874015748
        },
        {
          "duration": 0.13274324999999987,
          "durationTicks": 96,
          "midi": 29,
          "name": "F1",
          "ticks": 3264,
          "time": 4.5132705,
          "velocity": 0.3937007874015748
        },
        {
          "duration": 0.13274325000000076,
          "durationTicks": 96,
          "midi": 36,
          "name": "C2",
          "ticks": 3360,
          "time": 4.64601375,
          "velocity": 0.3937007874015748
        },
        {
          "duration": 0.13274324999999987,
          "durationTicks": 96,
          "midi": 36,
          "name": "C2",
          "ticks": 3552,
          "time": 4.9115002500000005,
          "velocity": 0.3937007874015748
        },
        {
          "duration": 0.13274324999999987,
          "durationTicks": 96,
          "midi": 34,
          "name": "A#1",
          "ticks": 3648,
          "time": 5.0442435,
          "velocity": 0.3937007874015748
        },
        {
          "duration": 0.13274324999999987,
          "durationTicks": 96,
          "midi": 34,
          "name": "A#1",
          "ticks": 4032,
          "time": 5.575216500000001,
          "velocity": 0.3937007874015748
        },
        {
          "duration": 0.13274324999999987,
          "durationTicks": 96,
          "midi": 34,
          "name": "A#1",
          "ticks": 4128,
          "time": 5.7079597500000006,
          "velocity": 0.3937007874015748
        },
        {
          "duration": 0.13274324999999987,
          "durationTicks": 96,
          "midi": 36,
          "name": "C2",
          "ticks": 4320,
          "time": 5.97344625,
          "velocity": 0.3937007874015748
        },
        {
          "duration": 0.13274324999999987,
          "durationTicks": 96,
          "midi": 34,
          "name": "A#1",
          "ticks": 4416,
          "time": 6.1061895,
          "velocity": 0.3937007874015748
        },
        {
          "duration": 0.13274324999999987,
          "durationTicks": 96,
          "midi": 27,
          "name": "D#1",
          "ticks": 4608,
          "time": 6.371676000000001,
          "velocity": 0.3937007874015748
        },
        {
          "duration": 0.13274324999999987,
          "durationTicks": 96,
          "midi": 27,
          "name": "D#1",
          "ticks": 4800,
          "time": 6.6371625000000005,
          "velocity": 0.3937007874015748
        },
        {
          "duration": 0.13274324999999987,
          "durationTicks": 96,
          "midi": 36,
          "name": "C2",
          "ticks": 4896,
          "time": 6.76990575,
          "velocity": 0.3937007874015748
        },
        {
          "duration": 0.13274324999999987,
          "durationTicks": 96,
          "midi": 36,
          "name": "C2",
          "ticks": 5088,
          "time": 7.03539225,
          "velocity": 0.3937007874015748
        },
        {
          "duration": 0.13274325000000076,
          "durationTicks": 96,
          "midi": 34,
          "name": "A#1",
          "ticks": 5184,
          "time": 7.1681355,
          "velocity": 0.3937007874015748
        },
        {
          "duration": 0.13274324999999987,
          "durationTicks": 96,
          "midi": 32,
          "name": "G#1",
          "ticks": 5376,
          "time": 7.433622000000001,
          "velocity": 0.3937007874015748
        },
        {
          "duration": 0.13274324999999987,
          "durationTicks": 96,
          "midi": 32,
          "name": "G#1",
          "ticks": 5568,
          "time": 7.6991085,
          "velocity": 0.3937007874015748
        },
        {
          "duration": 0.13274324999999898,
          "durationTicks": 96,
          "midi": 27,
          "name": "D#1",
          "ticks": 5952,
          "time": 8.2300815,
          "velocity": 0.3937007874015748
        },
        {
          "duration": 0.13274325000000076,
          "durationTicks": 96,
          "midi": 27,
          "name": "D#1",
          "ticks": 6048,
          "time": 8.36282475,
          "velocity": 0.3937007874015748
        },
        {
          "duration": 0.13274325000000076,
          "durationTicks": 96,
          "midi": 29,
          "name": "F1",
          "ticks": 6144,
          "time": 8.495568,
          "velocity": 0.3937007874015748
        },
        {
          "duration": 0.13274325000000076,
          "durationTicks": 96,
          "midi": 29,
          "name": "F1",
          "ticks": 6336,
          "time": 8.7610545,
          "velocity": 0.3937007874015748
        },
        {
          "duration": 0.13274324999999898,
          "durationTicks": 96,
          "midi": 29,
          "name": "F1",
          "ticks": 6432,
          "time": 8.893797750000001,
          "velocity": 0.3937007874015748
        },
        {
          "duration": 0.13274324999999898,
          "durationTicks": 96,
          "midi": 36,
          "name": "C2",
          "ticks": 6624,
          "time": 9.15928425,
          "velocity": 0.3937007874015748
        },
        {
          "duration": 0.13274325000000076,
          "durationTicks": 96,
          "midi": 34,
          "name": "A#1",
          "ticks": 6720,
          "time": 9.2920275,
          "velocity": 0.3937007874015748
        },
        {
          "duration": 0.13274324999999898,
          "durationTicks": 96,
          "midi": 32,
          "name": "G#1",
          "ticks": 7104,
          "time": 9.823000500000001,
          "velocity": 0.3937007874015748
        },
        {
          "duration": 0.13274325000000076,
          "durationTicks": 96,
          "midi": 37,
          "name": "C#2",
          "ticks": 7296,
          "time": 10.088487,
          "velocity": 0.3937007874015748
        },
        {
          "duration": 0.13274324999999898,
          "durationTicks": 96,
          "midi": 34,
          "name": "A#1",
          "ticks": 7392,
          "time": 10.221230250000001,
          "velocity": 0.3937007874015748
        },
        {
          "duration": 0.13274324999999898,
          "durationTicks": 96,
          "midi": 37,
          "name": "C#2",
          "ticks": 7584,
          "time": 10.486716750000001,
          "velocity": 0.3937007874015748
        },
        {
          "duration": 0.13274325000000076,
          "durationTicks": 96,
          "midi": 27,
          "name": "D#1",
          "ticks": 7680,
          "time": 10.61946,
          "velocity": 0.3937007874015748
        },
        {
          "duration": 0.13274325000000076,
          "durationTicks": 96,
          "midi": 27,
          "name": "D#1",
          "ticks": 7872,
          "time": 10.8849465,
          "velocity": 0.3937007874015748
        },
        {
          "duration": 0.13274325000000076,
          "durationTicks": 96,
          "midi": 27,
          "name": "D#1",
          "ticks": 7968,
          "time": 11.01768975,
          "velocity": 0.3937007874015748
        },
        {
          "duration": 0.13274325000000076,
          "durationTicks": 96,
          "midi": 36,
          "name": "C2",
          "ticks": 8160,
          "time": 11.28317625,
          "velocity": 0.3937007874015748
        },
        {
          "duration": 0.13274324999999898,
          "durationTicks": 96,
          "midi": 34,
          "name": "A#1",
          "ticks": 8256,
          "time": 11.415919500000001,
          "velocity": 0.3937007874015748
        },
        {
          "duration": 0.13274324999999898,
          "durationTicks": 96,
          "midi": 32,
          "name": "G#1",
          "ticks": 8448,
          "time": 11.681406,
          "velocity": 0.3937007874015748
        },
        {
          "duration": 0.13274325000000076,
          "durationTicks": 96,
          "midi": 32,
          "name": "G#1",
          "ticks": 8640,
          "time": 11.9468925,
          "velocity": 0.3937007874015748
        },
        {
          "duration": 0.13274325000000076,
          "durationTicks": 96,
          "midi": 27,
          "name": "D#1",
          "ticks": 9024,
          "time": 12.4778655,
          "velocity": 0.3937007874015748
        },
        {
          "duration": 0.13274325000000076,
          "durationTicks": 96,
          "midi": 32,
          "name": "G#1",
          "ticks": 9120,
          "time": 12.61060875,
          "velocity": 0.3937007874015748
        },
        {
          "duration": 0.13274324999999898,
          "durationTicks": 96,
          "midi": 29,
          "name": "F1",
          "ticks": 9216,
          "time": 12.743352000000002,
          "velocity": 0.3937007874015748
        },
        {
          "duration": 0.13274324999999898,
          "durationTicks": 96,
          "midi": 29,
          "name": "F1",
          "ticks": 9408,
          "time": 13.008838500000001,
          "velocity": 0.3937007874015748
        },
        {
          "duration": 0.13274325000000076,
          "durationTicks": 96,
          "midi": 36,
          "name": "C2",
          "ticks": 9504,
          "time": 13.14158175,
          "velocity": 0.3937007874015748
        },
        {
          "duration": 0.13274325000000076,
          "durationTicks": 96,
          "midi": 36,
          "name": "C2",
          "ticks": 9696,
          "time": 13.40706825,
          "velocity": 0.3937007874015748
        },
        {
          "duration": 0.13274325000000076,
          "durationTicks": 96,
          "midi": 34,
          "name": "A#1",
          "ticks": 9792,
          "time": 13.5398115,
          "velocity": 0.3937007874015748
        },
        {
          "duration": 0.13274325000000076,
          "durationTicks": 96,
          "midi": 34,
          "name": "A#1",
          "ticks": 10176,
          "time": 14.0707845,
          "velocity": 0.3937007874015748
        },
        {
          "duration": 0.13274324999999898,
          "durationTicks": 96,
          "midi": 34,
          "name": "A#1",
          "ticks": 10272,
          "time": 14.203527750000001,
          "velocity": 0.3937007874015748
        },
        {
          "duration": 0.13274325000000076,
          "durationTicks": 96,
          "midi": 36,
          "name": "C2",
          "ticks": 10464,
          "time": 14.46901425,
          "velocity": 0.3937007874015748
        },
        {
          "duration": 0.13274324999999898,
          "durationTicks": 96,
          "midi": 34,
          "name": "A#1",
          "ticks": 10560,
          "time": 14.601757500000001,
          "velocity": 0.3937007874015748
        },
        {
          "duration": 0.13274324999999898,
          "durationTicks": 96,
          "midi": 27,
          "name": "D#1",
          "ticks": 10752,
          "time": 14.867244000000001,
          "velocity": 0.3937007874015748
        },
        {
          "duration": 0.13274324999999898,
          "durationTicks": 96,
          "midi": 27,
          "name": "D#1",
          "ticks": 10944,
          "time": 15.132730500000001,
          "velocity": 0.3937007874015748
        },
        {
          "duration": 0.13274325000000076,
          "durationTicks": 96,
          "midi": 36,
          "name": "C2",
          "ticks": 11040,
          "time": 15.26547375,
          "velocity": 0.3937007874015748
        },
        {
          "duration": 0.13274324999999898,
          "durationTicks": 96,
          "midi": 36,
          "name": "C2",
          "ticks": 11232,
          "time": 15.530960250000001,
          "velocity": 0.3937007874015748
        },
        {
          "duration": 0.13274325000000076,
          "durationTicks": 96,
          "midi": 34,
          "name": "A#1",
          "ticks": 11328,
          "time": 15.6637035,
          "velocity": 0.3937007874015748
        },
        {
          "duration": 0.13274324999999898,
          "durationTicks": 96,
          "midi": 32,
          "name": "G#1",
          "ticks": 11520,
          "time": 15.92919,
          "velocity": 0.3937007874015748
        },
        {
          "duration": 0.13274325000000076,
          "durationTicks": 96,
          "midi": 32,
          "name": "G#1",
          "ticks": 11712,
          "time": 16.1946765,
          "velocity": 0.3937007874015748
        },
        {
          "duration": 0.13274325000000076,
          "durationTicks": 96,
          "midi": 27,
          "name": "D#1",
          "ticks": 12096,
          "time": 16.7256495,
          "velocity": 0.3937007874015748
        },
        {
          "duration": 0.13274325000000076,
          "durationTicks": 96,
          "midi": 27,
          "name": "D#1",
          "ticks": 12192,
          "time": 16.85839275,
          "velocity": 0.3937007874015748
        },
        {
          "duration": 0.13274325000000076,
          "durationTicks": 96,
          "midi": 29,
          "name": "F1",
          "ticks": 12288,
          "time": 16.991136,
          "velocity": 0.3937007874015748
        },
        {
          "duration": 0.1327432499999972,
          "durationTicks": 96,
          "midi": 29,
          "name": "F1",
          "ticks": 12480,
          "time": 17.256622500000002,
          "velocity": 0.3937007874015748
        },
        {
          "duration": 0.13274325000000076,
          "durationTicks": 96,
          "midi": 29,
          "name": "F1",
          "ticks": 12576,
          "time": 17.38936575,
          "velocity": 0.3937007874015748
        },
        {
          "duration": 0.13274325000000076,
          "durationTicks": 96,
          "midi": 36,
          "name": "C2",
          "ticks": 12768,
          "time": 17.65485225,
          "velocity": 0.3937007874015748
        },
        {
          "duration": 0.13274325000000076,
          "durationTicks": 96,
          "midi": 34,
          "name": "A#1",
          "ticks": 12864,
          "time": 17.787595500000002,
          "velocity": 0.3937007874015748
        },
        {
          "duration": 0.13274325000000076,
          "durationTicks": 96,
          "midi": 32,
          "name": "G#1",
          "ticks": 13248,
          "time": 18.3185685,
          "velocity": 0.3937007874015748
        },
        {
          "duration": 0.13274325000000076,
          "durationTicks": 96,
          "midi": 37,
          "name": "C#2",
          "ticks": 13440,
          "time": 18.584055,
          "velocity": 0.3937007874015748
        },
        {
          "duration": 0.13274325000000076,
          "durationTicks": 96,
          "midi": 34,
          "name": "A#1",
          "ticks": 13536,
          "time": 18.71679825,
          "velocity": 0.3937007874015748
        },
        {
          "duration": 0.13274325000000076,
          "durationTicks": 96,
          "midi": 37,
          "name": "C#2",
          "ticks": 13728,
          "time": 18.98228475,
          "velocity": 0.3937007874015748
        },
        {
          "duration": 0.1327432499999972,
          "durationTicks": 96,
          "midi": 34,
          "name": "A#1",
          "ticks": 13824,
          "time": 19.115028000000002,
          "velocity": 0.3937007874015748
        },
        {
          "duration": 0.13274325000000076,
          "durationTicks": 96,
          "midi": 34,
          "name": "A#1",
          "ticks": 14016,
          "time": 19.3805145,
          "velocity": 0.3937007874015748
        },
        {
          "duration": 0.13274325000000076,
          "durationTicks": 96,
          "midi": 34,
          "name": "A#1",
          "ticks": 14112,
          "time": 19.51325775,
          "velocity": 0.3937007874015748
        },
        {
          "duration": 0.1327432499999972,
          "durationTicks": 96,
          "midi": 37,
          "name": "C#2",
          "ticks": 14304,
          "time": 19.778744250000003,
          "velocity": 0.3937007874015748
        },
        {
          "duration": 0.13274325000000076,
          "durationTicks": 96,
          "midi": 36,
          "name": "C2",
          "ticks": 14400,
          "time": 19.9114875,
          "velocity": 0.3937007874015748
        },
        {
          "duration": 0.13274325000000076,
          "durationTicks": 96,
          "midi": 32,
          "name": "G#1",
          "ticks": 14592,
          "time": 20.176974,
          "velocity": 0.3937007874015748
        },
        {
          "duration": 0.1327432499999972,
          "durationTicks": 96,
          "midi": 34,
          "name": "A#1",
          "ticks": 14784,
          "time": 20.442460500000003,
          "velocity": 0.3937007874015748
        },
        {
          "duration": 0.1327432499999972,
          "durationTicks": 96,
          "midi": 29,
          "name": "F1",
          "ticks": 15168,
          "time": 20.973433500000002,
          "velocity": 0.3937007874015748
        },
        {
          "duration": 0.13274325000000076,
          "durationTicks": 96,
          "midi": 34,
          "name": "A#1",
          "ticks": 15264,
          "time": 21.10617675,
          "velocity": 0.3937007874015748
        },
        {
          "duration": 0.13274325000000076,
          "durationTicks": 96,
          "midi": 32,
          "name": "G#1",
          "ticks": 15552,
          "time": 21.5044065,
          "velocity": 0.3937007874015748
        },
        {
          "duration": 0.1327432499999972,
          "durationTicks": 96,
          "midi": 34,
          "name": "A#1",
          "ticks": 15648,
          "time": 21.637149750000003,
          "velocity": 0.3937007874015748
        },
        {
          "duration": 0.13274325000000076,
          "durationTicks": 96,
          "midi": 37,
          "name": "C#2",
          "ticks": 15840,
          "time": 21.90263625,
          "velocity": 0.3937007874015748
        },
        {
          "duration": 0.13274325000000076,
          "durationTicks": 96,
          "midi": 36,
          "name": "C2",
          "ticks": 15936,
          "time": 22.0353795,
          "velocity": 0.3937007874015748
        },
        {
          "duration": 0.13274325000000076,
          "durationTicks": 96,
          "midi": 34,
          "name": "A#1",
          "ticks": 16320,
          "time": 22.5663525,
          "velocity": 0.3937007874015748
        },
        {
          "duration": 0.13274325000000076,
          "durationTicks": 96,
          "midi": 32,
          "name": "G#1",
          "ticks": 16704,
          "time": 23.0973255,
          "velocity": 0.3937007874015748
        },
        {
          "duration": 0.13274325000000076,
          "durationTicks": 96,
          "midi": 32,
          "name": "G#1",
          "ticks": 16800,
          "time": 23.23006875,
          "velocity": 0.3937007874015748
        },
        {
          "duration": 0.13274325000000076,
          "durationTicks": 96,
          "midi": 34,
          "name": "A#1",
          "ticks": 16896,
          "time": 23.362812,
          "velocity": 0.3937007874015748
        },
        {
          "duration": 0.13274325000000076,
          "durationTicks": 96,
          "midi": 34,
          "name": "A#1",
          "ticks": 17088,
          "time": 23.6282985,
          "velocity": 0.3937007874015748
        },
        {
          "duration": 0.13274325000000076,
          "durationTicks": 96,
          "midi": 34,
          "name": "A#1",
          "ticks": 17184,
          "time": 23.76104175,
          "velocity": 0.3937007874015748
        },
        {
          "duration": 0.13274325000000076,
          "durationTicks": 96,
          "midi": 37,
          "name": "C#2",
          "ticks": 17376,
          "time": 24.026528250000002,
          "velocity": 0.3937007874015748
        },
        {
          "duration": 0.1327432499999972,
          "durationTicks": 96,
          "midi": 36,
          "name": "C2",
          "ticks": 17472,
          "time": 24.159271500000003,
          "velocity": 0.3937007874015748
        },
        {
          "duration": 0.13274325000000076,
          "durationTicks": 96,
          "midi": 32,
          "name": "G#1",
          "ticks": 17664,
          "time": 24.424758,
          "velocity": 0.3937007874015748
        },
        {
          "duration": 0.13274325000000076,
          "durationTicks": 96,
          "midi": 34,
          "name": "A#1",
          "ticks": 17856,
          "time": 24.690244500000002,
          "velocity": 0.3937007874015748
        },
        {
          "duration": 0.13274325000000076,
          "durationTicks": 96,
          "midi": 32,
          "name": "G#1",
          "ticks": 18240,
          "time": 25.2212175,
          "velocity": 0.3937007874015748
        },
        {
          "duration": 0.13274325000000076,
          "durationTicks": 96,
          "midi": 32,
          "name": "G#1",
          "ticks": 18336,
          "time": 25.353960750000002,
          "velocity": 0.3937007874015748
        },
        {
          "duration": 0.1327432499999972,
          "durationTicks": 96,
          "midi": 27,
          "name": "D#1",
          "ticks": 18432,
          "time": 25.486704000000003,
          "velocity": 0.3937007874015748
        },
        {
          "duration": 0.13274325000000076,
          "durationTicks": 96,
          "midi": 27,
          "name": "D#1",
          "ticks": 18624,
          "time": 25.7521905,
          "velocity": 0.3937007874015748
        },
        {
          "duration": 0.13274325000000076,
          "durationTicks": 96,
          "midi": 32,
          "name": "G#1",
          "ticks": 18720,
          "time": 25.884933750000002,
          "velocity": 0.3937007874015748
        },
        {
          "duration": 0.13274325000000076,
          "durationTicks": 96,
          "midi": 32,
          "name": "G#1",
          "ticks": 18912,
          "time": 26.15042025,
          "velocity": 0.3937007874015748
        },
        {
          "duration": 0.13274325000000076,
          "durationTicks": 96,
          "midi": 32,
          "name": "G#1",
          "ticks": 19008,
          "time": 26.2831635,
          "velocity": 0.3937007874015748
        },
        {
          "duration": 0.13274325000000076,
          "durationTicks": 96,
          "midi": 32,
          "name": "G#1",
          "ticks": 19392,
          "time": 26.8141365,
          "velocity": 0.3937007874015748
        },
        {
          "duration": 0.13274325000000076,
          "durationTicks": 96,
          "midi": 32,
          "name": "G#1",
          "ticks": 19488,
          "time": 26.94687975,
          "velocity": 0.3937007874015748
        },
        {
          "duration": 0.13274325000000076,
          "durationTicks": 96,
          "midi": 32,
          "name": "G#1",
          "ticks": 19680,
          "time": 27.212366250000002,
          "velocity": 0.3937007874015748
        },
        {
          "duration": 0.1327432499999972,
          "durationTicks": 96,
          "midi": 34,
          "name": "A#1",
          "ticks": 19776,
          "time": 27.345109500000003,
          "velocity": 0.3937007874015748
        },
        {
          "duration": 0.13274325000000076,
          "durationTicks": 96,
          "midi": 34,
          "name": "A#1",
          "ticks": 19872,
          "time": 27.47785275,
          "velocity": 0.3937007874015748
        },
        {
          "duration": 0.13274325000000076,
          "durationTicks": 96,
          "midi": 34,
          "name": "A#1",
          "ticks": 19968,
          "time": 27.610596,
          "velocity": 0.3937007874015748
        },
        {
          "duration": 0.1327432499999972,
          "durationTicks": 96,
          "midi": 34,
          "name": "A#1",
          "ticks": 20160,
          "time": 27.876082500000003,
          "velocity": 0.3937007874015748
        },
        {
          "duration": 0.13274325000000076,
          "durationTicks": 96,
          "midi": 34,
          "name": "A#1",
          "ticks": 20256,
          "time": 28.00882575,
          "velocity": 0.3937007874015748
        },
        {
          "duration": 0.13274325000000076,
          "durationTicks": 96,
          "midi": 37,
          "name": "C#2",
          "ticks": 20448,
          "time": 28.27431225,
          "velocity": 0.3937007874015748
        },
        {
          "duration": 0.13274325000000076,
          "durationTicks": 96,
          "midi": 36,
          "name": "C2",
          "ticks": 20544,
          "time": 28.407055500000002,
          "velocity": 0.3937007874015748
        },
        {
          "duration": 0.13274325000000076,
          "durationTicks": 96,
          "midi": 32,
          "name": "G#1",
          "ticks": 20736,
          "time": 28.672542,
          "velocity": 0.3937007874015748
        },
        {
          "duration": 0.13274325000000076,
          "durationTicks": 96,
          "midi": 34,
          "name": "A#1",
          "ticks": 20928,
          "time": 28.9380285,
          "velocity": 0.3937007874015748
        },
        {
          "duration": 0.13274325000000076,
          "durationTicks": 96,
          "midi": 29,
          "name": "F1",
          "ticks": 21312,
          "time": 29.4690015,
          "velocity": 0.3937007874015748
        },
        {
          "duration": 0.13274325000000076,
          "durationTicks": 96,
          "midi": 34,
          "name": "A#1",
          "ticks": 21408,
          "time": 29.60174475,
          "velocity": 0.3937007874015748
        },
        {
          "duration": 0.13274325000000076,
          "durationTicks": 96,
          "midi": 32,
          "name": "G#1",
          "ticks": 21696,
          "time": 29.9999745,
          "velocity": 0.3937007874015748
        },
        {
          "duration": 0.13274325000000076,
          "durationTicks": 96,
          "midi": 34,
          "name": "A#1",
          "ticks": 21792,
          "time": 30.13271775,
          "velocity": 0.3937007874015748
        },
        {
          "duration": 0.1327432499999972,
          "durationTicks": 96,
          "midi": 37,
          "name": "C#2",
          "ticks": 21984,
          "time": 30.398204250000003,
          "velocity": 0.3937007874015748
        },
        {
          "duration": 0.13274325000000076,
          "durationTicks": 96,
          "midi": 36,
          "name": "C2",
          "ticks": 22080,
          "time": 30.5309475,
          "velocity": 0.3937007874015748
        },
        {
          "duration": 0.1327432499999972,
          "durationTicks": 96,
          "midi": 34,
          "name": "A#1",
          "ticks": 22464,
          "time": 31.061920500000003,
          "velocity": 0.3937007874015748
        },
        {
          "duration": 0.13274325000000076,
          "durationTicks": 96,
          "midi": 32,
          "name": "G#1",
          "ticks": 22848,
          "time": 31.592893500000002,
          "velocity": 0.3937007874015748
        },
        {
          "duration": 0.1327432499999972,
          "durationTicks": 96,
          "midi": 32,
          "name": "G#1",
          "ticks": 22944,
          "time": 31.725636750000003,
          "velocity": 0.3937007874015748
        },
        {
          "duration": 0.13274325000000076,
          "durationTicks": 96,
          "midi": 34,
          "name": "A#1",
          "ticks": 23040,
          "time": 31.85838,
          "velocity": 0.3937007874015748
        },
        {
          "duration": 0.1327432500000043,
          "durationTicks": 96,
          "midi": 34,
          "name": "A#1",
          "ticks": 23232,
          "time": 32.1238665,
          "velocity": 0.3937007874015748
        },
        {
          "duration": 0.1327432499999972,
          "durationTicks": 96,
          "midi": 34,
          "name": "A#1",
          "ticks": 23328,
          "time": 32.25660975,
          "velocity": 0.3937007874015748
        },
        {
          "duration": 0.1327432499999972,
          "durationTicks": 96,
          "midi": 37,
          "name": "C#2",
          "ticks": 23520,
          "time": 32.522096250000004,
          "velocity": 0.3937007874015748
        },
        {
          "duration": 0.1327432499999972,
          "durationTicks": 96,
          "midi": 36,
          "name": "C2",
          "ticks": 23616,
          "time": 32.6548395,
          "velocity": 0.3937007874015748
        },
        {
          "duration": 0.1327432499999972,
          "durationTicks": 96,
          "midi": 32,
          "name": "G#1",
          "ticks": 23808,
          "time": 32.920326,
          "velocity": 0.3937007874015748
        },
        {
          "duration": 0.1327432499999972,
          "durationTicks": 96,
          "midi": 34,
          "name": "A#1",
          "ticks": 24000,
          "time": 33.185812500000004,
          "velocity": 0.3937007874015748
        },
        {
          "duration": 0.1327432500000043,
          "durationTicks": 96,
          "midi": 32,
          "name": "G#1",
          "ticks": 24384,
          "time": 33.7167855,
          "velocity": 0.3937007874015748
        },
        {
          "duration": 0.1327432499999972,
          "durationTicks": 96,
          "midi": 32,
          "name": "G#1",
          "ticks": 24480,
          "time": 33.849528750000005,
          "velocity": 0.3937007874015748
        },
        {
          "duration": 0.1327432499999972,
          "durationTicks": 96,
          "midi": 27,
          "name": "D#1",
          "ticks": 24576,
          "time": 33.982272,
          "velocity": 0.3937007874015748
        },
        {
          "duration": 0.1327432499999972,
          "durationTicks": 96,
          "midi": 27,
          "name": "D#1",
          "ticks": 24768,
          "time": 34.2477585,
          "velocity": 0.3937007874015748
        },
        {
          "duration": 0.1327432500000043,
          "durationTicks": 96,
          "midi": 32,
          "name": "G#1",
          "ticks": 24864,
          "time": 34.38050175,
          "velocity": 0.3937007874015748
        },
        {
          "duration": 0.1327432499999972,
          "durationTicks": 96,
          "midi": 32,
          "name": "G#1",
          "ticks": 25056,
          "time": 34.64598825,
          "velocity": 0.3937007874015748
        },
        {
          "duration": 0.1327432500000043,
          "durationTicks": 96,
          "midi": 32,
          "name": "G#1",
          "ticks": 25152,
          "time": 34.7787315,
          "velocity": 0.3937007874015748
        },
        {
          "duration": 0.1327432499999972,
          "durationTicks": 96,
          "midi": 32,
          "name": "G#1",
          "ticks": 25536,
          "time": 35.3097045,
          "velocity": 0.3937007874015748
        },
        {
          "duration": 0.1327432500000043,
          "durationTicks": 96,
          "midi": 32,
          "name": "G#1",
          "ticks": 25632,
          "time": 35.44244775,
          "velocity": 0.3937007874015748
        },
        {
          "duration": 0.1327432500000043,
          "durationTicks": 96,
          "midi": 32,
          "name": "G#1",
          "ticks": 25824,
          "time": 35.70793425,
          "velocity": 0.3937007874015748
        },
        {
          "duration": 0.1327432499999972,
          "durationTicks": 96,
          "midi": 34,
          "name": "A#1",
          "ticks": 25920,
          "time": 35.840677500000005,
          "velocity": 0.3937007874015748
        },
        {
          "duration": 0.1327432499999972,
          "durationTicks": 96,
          "midi": 34,
          "name": "A#1",
          "ticks": 26016,
          "time": 35.97342075,
          "velocity": 0.3937007874015748
        },
        {
          "duration": 0.1327432500000043,
          "durationTicks": 96,
          "midi": 34,
          "name": "A#1",
          "ticks": 26112,
          "time": 36.106164,
          "velocity": 0.3937007874015748
        },
        {
          "duration": 0.1327432499999972,
          "durationTicks": 96,
          "midi": 34,
          "name": "A#1",
          "ticks": 26304,
          "time": 36.3716505,
          "velocity": 0.3937007874015748
        },
        {
          "duration": 0.1327432500000043,
          "durationTicks": 96,
          "midi": 37,
          "name": "C#2",
          "ticks": 26400,
          "time": 36.50439375,
          "velocity": 0.3937007874015748
        },
        {
          "duration": 0.1327432500000043,
          "durationTicks": 96,
          "midi": 37,
          "name": "C#2",
          "ticks": 26592,
          "time": 36.76988025,
          "velocity": 0.3937007874015748
        },
        {
          "duration": 0.1327432499999972,
          "durationTicks": 96,
          "midi": 36,
          "name": "C2",
          "ticks": 26688,
          "time": 36.902623500000004,
          "velocity": 0.3937007874015748
        },
        {
          "duration": 0.1327432500000043,
          "durationTicks": 96,
          "midi": 32,
          "name": "G#1",
          "ticks": 26880,
          "time": 37.16811,
          "velocity": 0.3937007874015748
        },
        {
          "duration": 0.1327432500000043,
          "durationTicks": 96,
          "midi": 34,
          "name": "A#1",
          "ticks": 27072,
          "time": 37.4335965,
          "velocity": 0.3937007874015748
        },
        {
          "duration": 0.1327432500000043,
          "durationTicks": 96,
          "midi": 32,
          "name": "G#1",
          "ticks": 27552,
          "time": 38.09731275,
          "velocity": 0.3937007874015748
        },
        {
          "duration": 0.1327432499999972,
          "durationTicks": 96,
          "midi": 34,
          "name": "A#1",
          "ticks": 27648,
          "time": 38.230056000000005,
          "velocity": 0.3937007874015748
        },
        {
          "duration": 0.1327432500000043,
          "durationTicks": 96,
          "midi": 34,
          "name": "A#1",
          "ticks": 27840,
          "time": 38.4955425,
          "velocity": 0.3937007874015748
        },
        {
          "duration": 0.1327432499999972,
          "durationTicks": 96,
          "midi": 37,
          "name": "C#2",
          "ticks": 27936,
          "time": 38.62828575,
          "velocity": 0.3937007874015748
        },
        {
          "duration": 0.1327432499999972,
          "durationTicks": 96,
          "midi": 37,
          "name": "C#2",
          "ticks": 28128,
          "time": 38.893772250000005,
          "velocity": 0.3937007874015748
        },
        {
          "duration": 0.1327432499999972,
          "durationTicks": 96,
          "midi": 36,
          "name": "C2",
          "ticks": 28224,
          "time": 39.0265155,
          "velocity": 0.3937007874015748
        },
        {
          "duration": 0.1327432499999972,
          "durationTicks": 96,
          "midi": 32,
          "name": "G#1",
          "ticks": 28416,
          "time": 39.292002000000004,
          "velocity": 0.3937007874015748
        },
        {
          "duration": 0.1327432499999972,
          "durationTicks": 96,
          "midi": 34,
          "name": "A#1",
          "ticks": 28608,
          "time": 39.557488500000005,
          "velocity": 0.3937007874015748
        },
        {
          "duration": 0.1327432500000043,
          "durationTicks": 96,
          "midi": 32,
          "name": "G#1",
          "ticks": 28992,
          "time": 40.0884615,
          "velocity": 0.3937007874015748
        },
        {
          "duration": 0.1327432499999972,
          "durationTicks": 96,
          "midi": 32,
          "name": "G#1",
          "ticks": 29088,
          "time": 40.221204750000005,
          "velocity": 0.3937007874015748
        },
        {
          "duration": 0.1327432499999972,
          "durationTicks": 96,
          "midi": 34,
          "name": "A#1",
          "ticks": 29184,
          "time": 40.353948,
          "velocity": 0.3937007874015748
        },
        {
          "duration": 0.1327432499999972,
          "durationTicks": 96,
          "midi": 34,
          "name": "A#1",
          "ticks": 29376,
          "time": 40.619434500000004,
          "velocity": 0.3937007874015748
        },
        {
          "duration": 0.1327432500000043,
          "durationTicks": 96,
          "midi": 37,
          "name": "C#2",
          "ticks": 29472,
          "time": 40.75217775,
          "velocity": 0.3937007874015748
        },
        {
          "duration": 0.1327432499999972,
          "durationTicks": 96,
          "midi": 37,
          "name": "C#2",
          "ticks": 29664,
          "time": 41.01766425,
          "velocity": 0.3937007874015748
        },
        {
          "duration": 0.1327432500000043,
          "durationTicks": 96,
          "midi": 36,
          "name": "C2",
          "ticks": 29760,
          "time": 41.1504075,
          "velocity": 0.3937007874015748
        },
        {
          "duration": 0.1327432499999972,
          "durationTicks": 96,
          "midi": 32,
          "name": "G#1",
          "ticks": 29952,
          "time": 41.415894,
          "velocity": 0.3937007874015748
        },
        {
          "duration": 0.1327432499999972,
          "durationTicks": 96,
          "midi": 34,
          "name": "A#1",
          "ticks": 30144,
          "time": 41.6813805,
          "velocity": 0.3937007874015748
        },
        {
          "duration": 0.1327432499999972,
          "durationTicks": 96,
          "midi": 32,
          "name": "G#1",
          "ticks": 30624,
          "time": 42.34509675,
          "velocity": 0.3937007874015748
        },
        {
          "duration": 0.1327432500000043,
          "durationTicks": 96,
          "midi": 34,
          "name": "A#1",
          "ticks": 30720,
          "time": 42.47784,
          "velocity": 0.3937007874015748
        },
        {
          "duration": 0.1327432499999972,
          "durationTicks": 96,
          "midi": 34,
          "name": "A#1",
          "ticks": 30912,
          "time": 42.7433265,
          "velocity": 0.3937007874015748
        },
        {
          "duration": 0.1327432500000043,
          "durationTicks": 96,
          "midi": 37,
          "name": "C#2",
          "ticks": 31008,
          "time": 42.87606975,
          "velocity": 0.3937007874015748
        },
        {
          "duration": 0.1327432500000043,
          "durationTicks": 96,
          "midi": 37,
          "name": "C#2",
          "ticks": 31200,
          "time": 43.14155625,
          "velocity": 0.3937007874015748
        },
        {
          "duration": 0.1327432499999972,
          "durationTicks": 96,
          "midi": 36,
          "name": "C2",
          "ticks": 31296,
          "time": 43.274299500000005,
          "velocity": 0.3937007874015748
        },
        {
          "duration": 0.1327432500000043,
          "durationTicks": 96,
          "midi": 32,
          "name": "G#1",
          "ticks": 31488,
          "time": 43.539786,
          "velocity": 0.3937007874015748
        },
        {
          "duration": 0.1327432500000043,
          "durationTicks": 96,
          "midi": 34,
          "name": "A#1",
          "ticks": 31680,
          "time": 43.8052725,
          "velocity": 0.3937007874015748
        },
        {
          "duration": 0.1327432499999972,
          "durationTicks": 96,
          "midi": 29,
          "name": "F1",
          "ticks": 31872,
          "time": 44.070759,
          "velocity": 0.3937007874015748
        },
        {
          "duration": 0.1327432499999972,
          "durationTicks": 96,
          "midi": 32,
          "name": "G#1",
          "ticks": 32064,
          "time": 44.336245500000004,
          "velocity": 0.3937007874015748
        },
        {
          "duration": 0.1327432500000043,
          "durationTicks": 96,
          "midi": 29,
          "name": "F1",
          "ticks": 32160,
          "time": 44.46898875,
          "velocity": 0.3937007874015748
        },
        {
          "duration": 0.1327432499999972,
          "durationTicks": 96,
          "midi": 27,
          "name": "D#1",
          "ticks": 32256,
          "time": 44.601732000000005,
          "velocity": 0.3937007874015748
        },
        {
          "duration": 0.1327432500000043,
          "durationTicks": 96,
          "midi": 27,
          "name": "D#1",
          "ticks": 32448,
          "time": 44.8672185,
          "velocity": 0.3937007874015748
        },
        {
          "duration": 0.1327432499999972,
          "durationTicks": 96,
          "midi": 27,
          "name": "D#1",
          "ticks": 32544,
          "time": 44.999961750000004,
          "velocity": 0.3937007874015748
        },
        {
          "duration": 0.1327432499999972,
          "durationTicks": 96,
          "midi": 36,
          "name": "C2",
          "ticks": 32736,
          "time": 45.265448250000006,
          "velocity": 0.3937007874015748
        },
        {
          "duration": 0.1327432499999972,
          "durationTicks": 96,
          "midi": 34,
          "name": "A#1",
          "ticks": 32832,
          "time": 45.3981915,
          "velocity": 0.3937007874015748
        },
        {
          "duration": 0.1327432499999972,
          "durationTicks": 96,
          "midi": 32,
          "name": "G#1",
          "ticks": 33024,
          "time": 45.663678000000004,
          "velocity": 0.3937007874015748
        },
        {
          "duration": 0.1327432499999972,
          "durationTicks": 96,
          "midi": 32,
          "name": "G#1",
          "ticks": 33216,
          "time": 45.929164500000006,
          "velocity": 0.3937007874015748
        },
        {
          "duration": 0.1327432499999972,
          "durationTicks": 96,
          "midi": 27,
          "name": "D#1",
          "ticks": 33600,
          "time": 46.4601375,
          "velocity": 0.3937007874015748
        },
        {
          "duration": 0.1327432500000043,
          "durationTicks": 96,
          "midi": 32,
          "name": "G#1",
          "ticks": 33696,
          "time": 46.59288075,
          "velocity": 0.3937007874015748
        },
        {
          "duration": 0.1327432499999972,
          "durationTicks": 96,
          "midi": 29,
          "name": "F1",
          "ticks": 33792,
          "time": 46.725624,
          "velocity": 0.3937007874015748
        },
        {
          "duration": 0.1327432499999972,
          "durationTicks": 96,
          "midi": 29,
          "name": "F1",
          "ticks": 33984,
          "time": 46.991110500000005,
          "velocity": 0.3937007874015748
        },
        {
          "duration": 0.1327432499999972,
          "durationTicks": 96,
          "midi": 36,
          "name": "C2",
          "ticks": 34080,
          "time": 47.12385375,
          "velocity": 0.3937007874015748
        },
        {
          "duration": 0.1327432499999972,
          "durationTicks": 96,
          "midi": 36,
          "name": "C2",
          "ticks": 34272,
          "time": 47.389340250000004,
          "velocity": 0.3937007874015748
        },
        {
          "duration": 0.1327432500000043,
          "durationTicks": 96,
          "midi": 34,
          "name": "A#1",
          "ticks": 34368,
          "time": 47.5220835,
          "velocity": 0.3937007874015748
        },
        {
          "duration": 0.1327432499999972,
          "durationTicks": 96,
          "midi": 34,
          "name": "A#1",
          "ticks": 34752,
          "time": 48.053056500000004,
          "velocity": 0.3937007874015748
        },
        {
          "duration": 0.1327432500000043,
          "durationTicks": 96,
          "midi": 34,
          "name": "A#1",
          "ticks": 34848,
          "time": 48.18579975,
          "velocity": 0.3937007874015748
        },
        {
          "duration": 0.1327432499999972,
          "durationTicks": 96,
          "midi": 36,
          "name": "C2",
          "ticks": 35040,
          "time": 48.45128625,
          "velocity": 0.3937007874015748
        },
        {
          "duration": 0.1327432500000043,
          "durationTicks": 96,
          "midi": 34,
          "name": "A#1",
          "ticks": 35136,
          "time": 48.5840295,
          "velocity": 0.3937007874015748
        },
        {
          "duration": 0.1327432500000043,
          "durationTicks": 96,
          "midi": 27,
          "name": "D#1",
          "ticks": 35328,
          "time": 48.849516,
          "velocity": 0.3937007874015748
        },
        {
          "duration": 0.1327432499999972,
          "durationTicks": 96,
          "midi": 27,
          "name": "D#1",
          "ticks": 35520,
          "time": 49.1150025,
          "velocity": 0.3937007874015748
        },
        {
          "duration": 0.1327432500000043,
          "durationTicks": 96,
          "midi": 36,
          "name": "C2",
          "ticks": 35616,
          "time": 49.24774575,
          "velocity": 0.3937007874015748
        },
        {
          "duration": 0.1327432500000043,
          "durationTicks": 96,
          "midi": 36,
          "name": "C2",
          "ticks": 35808,
          "time": 49.51323225,
          "velocity": 0.3937007874015748
        },
        {
          "duration": 0.1327432499999972,
          "durationTicks": 96,
          "midi": 34,
          "name": "A#1",
          "ticks": 35904,
          "time": 49.645975500000006,
          "velocity": 0.3937007874015748
        },
        {
          "duration": 0.1327432500000043,
          "durationTicks": 96,
          "midi": 32,
          "name": "G#1",
          "ticks": 36096,
          "time": 49.911462,
          "velocity": 0.3937007874015748
        },
        {
          "duration": 0.1327432500000043,
          "durationTicks": 96,
          "midi": 32,
          "name": "G#1",
          "ticks": 36288,
          "time": 50.1769485,
          "velocity": 0.3937007874015748
        },
        {
          "duration": 0.1327432499999972,
          "durationTicks": 96,
          "midi": 27,
          "name": "D#1",
          "ticks": 36672,
          "time": 50.707921500000005,
          "velocity": 0.3937007874015748
        },
        {
          "duration": 0.1327432500000043,
          "durationTicks": 96,
          "midi": 27,
          "name": "D#1",
          "ticks": 36768,
          "time": 50.84066475,
          "velocity": 0.3937007874015748
        },
        {
          "duration": 0.1327432499999972,
          "durationTicks": 96,
          "midi": 29,
          "name": "F1",
          "ticks": 36864,
          "time": 50.973408000000006,
          "velocity": 0.3937007874015748
        },
        {
          "duration": 0.1327432500000043,
          "durationTicks": 96,
          "midi": 29,
          "name": "F1",
          "ticks": 37056,
          "time": 51.2388945,
          "velocity": 0.3937007874015748
        },
        {
          "duration": 0.1327432499999972,
          "durationTicks": 96,
          "midi": 29,
          "name": "F1",
          "ticks": 37152,
          "time": 51.371637750000005,
          "velocity": 0.3937007874015748
        },
        {
          "duration": 0.1327432500000043,
          "durationTicks": 96,
          "midi": 36,
          "name": "C2",
          "ticks": 37344,
          "time": 51.63712425,
          "velocity": 0.3937007874015748
        },
        {
          "duration": 0.1327432499999972,
          "durationTicks": 96,
          "midi": 34,
          "name": "A#1",
          "ticks": 37440,
          "time": 51.769867500000004,
          "velocity": 0.3937007874015748
        },
        {
          "duration": 0.1327432500000043,
          "durationTicks": 96,
          "midi": 32,
          "name": "G#1",
          "ticks": 37824,
          "time": 52.3008405,
          "velocity": 0.3937007874015748
        },
        {
          "duration": 0.1327432500000043,
          "durationTicks": 96,
          "midi": 37,
          "name": "C#2",
          "ticks": 38016,
          "time": 52.566327,
          "velocity": 0.3937007874015748
        },
        {
          "duration": 0.1327432499999972,
          "durationTicks": 96,
          "midi": 34,
          "name": "A#1",
          "ticks": 38112,
          "time": 52.699070250000005,
          "velocity": 0.3937007874015748
        },
        {
          "duration": 0.1327432500000043,
          "durationTicks": 96,
          "midi": 37,
          "name": "C#2",
          "ticks": 38304,
          "time": 52.96455675,
          "velocity": 0.3937007874015748
        },
        {
          "duration": 0.1327432499999972,
          "durationTicks": 96,
          "midi": 27,
          "name": "D#1",
          "ticks": 38400,
          "time": 53.097300000000004,
          "velocity": 0.3937007874015748
        },
        {
          "duration": 0.1327432499999972,
          "durationTicks": 96,
          "midi": 27,
          "name": "D#1",
          "ticks": 38592,
          "time": 53.362786500000006,
          "velocity": 0.3937007874015748
        },
        {
          "duration": 0.1327432499999972,
          "durationTicks": 96,
          "midi": 27,
          "name": "D#1",
          "ticks": 38688,
          "time": 53.49552975,
          "velocity": 0.3937007874015748
        },
        {
          "duration": 0.1327432499999972,
          "durationTicks": 96,
          "midi": 36,
          "name": "C2",
          "ticks": 38880,
          "time": 53.761016250000004,
          "velocity": 0.3937007874015748
        },
        {
          "duration": 0.1327432500000043,
          "durationTicks": 96,
          "midi": 34,
          "name": "A#1",
          "ticks": 38976,
          "time": 53.8937595,
          "velocity": 0.3937007874015748
        },
        {
          "duration": 0.1327432499999972,
          "durationTicks": 96,
          "midi": 32,
          "name": "G#1",
          "ticks": 39168,
          "time": 54.159246,
          "velocity": 0.3937007874015748
        },
        {
          "duration": 0.1327432499999972,
          "durationTicks": 96,
          "midi": 32,
          "name": "G#1",
          "ticks": 39360,
          "time": 54.424732500000005,
          "velocity": 0.3937007874015748
        },
        {
          "duration": 0.1327432500000043,
          "durationTicks": 96,
          "midi": 27,
          "name": "D#1",
          "ticks": 39744,
          "time": 54.9557055,
          "velocity": 0.3937007874015748
        },
        {
          "duration": 0.1327432499999972,
          "durationTicks": 96,
          "midi": 32,
          "name": "G#1",
          "ticks": 39840,
          "time": 55.088448750000005,
          "velocity": 0.3937007874015748
        },
        {
          "duration": 0.1327432500000043,
          "durationTicks": 96,
          "midi": 29,
          "name": "F1",
          "ticks": 39936,
          "time": 55.221192,
          "velocity": 0.3937007874015748
        },
        {
          "duration": 0.1327432499999972,
          "durationTicks": 96,
          "midi": 29,
          "name": "F1",
          "ticks": 40128,
          "time": 55.486678500000004,
          "velocity": 0.3937007874015748
        },
        {
          "duration": 0.1327432500000043,
          "durationTicks": 96,
          "midi": 36,
          "name": "C2",
          "ticks": 40224,
          "time": 55.61942175,
          "velocity": 0.3937007874015748
        },
        {
          "duration": 0.1327432499999972,
          "durationTicks": 96,
          "midi": 36,
          "name": "C2",
          "ticks": 40416,
          "time": 55.88490825,
          "velocity": 0.3937007874015748
        },
        {
          "duration": 0.1327432500000043,
          "durationTicks": 96,
          "midi": 34,
          "name": "A#1",
          "ticks": 40512,
          "time": 56.0176515,
          "velocity": 0.3937007874015748
        },
        {
          "duration": 0.1327432499999972,
          "durationTicks": 96,
          "midi": 34,
          "name": "A#1",
          "ticks": 40896,
          "time": 56.5486245,
          "velocity": 0.3937007874015748
        },
        {
          "duration": 0.1327432500000043,
          "durationTicks": 96,
          "midi": 34,
          "name": "A#1",
          "ticks": 40992,
          "time": 56.68136775,
          "velocity": 0.3937007874015748
        },
        {
          "duration": 0.1327432500000043,
          "durationTicks": 96,
          "midi": 36,
          "name": "C2",
          "ticks": 41184,
          "time": 56.94685425,
          "velocity": 0.3937007874015748
        },
        {
          "duration": 0.1327432499999972,
          "durationTicks": 96,
          "midi": 34,
          "name": "A#1",
          "ticks": 41280,
          "time": 57.079597500000006,
          "velocity": 0.3937007874015748
        },
        {
          "duration": 0.1327432500000043,
          "durationTicks": 96,
          "midi": 27,
          "name": "D#1",
          "ticks": 41472,
          "time": 57.345084,
          "velocity": 0.3937007874015748
        },
        {
          "duration": 0.1327432500000043,
          "durationTicks": 96,
          "midi": 27,
          "name": "D#1",
          "ticks": 41664,
          "time": 57.6105705,
          "velocity": 0.3937007874015748
        },
        {
          "duration": 0.1327432499999972,
          "durationTicks": 96,
          "midi": 36,
          "name": "C2",
          "ticks": 41760,
          "time": 57.743313750000006,
          "velocity": 0.3937007874015748
        },
        {
          "duration": 0.1327432500000043,
          "durationTicks": 96,
          "midi": 36,
          "name": "C2",
          "ticks": 41952,
          "time": 58.00880025,
          "velocity": 0.3937007874015748
        },
        {
          "duration": 0.1327432499999972,
          "durationTicks": 96,
          "midi": 34,
          "name": "A#1",
          "ticks": 42048,
          "time": 58.141543500000004,
          "velocity": 0.3937007874015748
        },
        {
          "duration": 0.1327432499999972,
          "durationTicks": 96,
          "midi": 32,
          "name": "G#1",
          "ticks": 42240,
          "time": 58.407030000000006,
          "velocity": 0.3937007874015748
        },
        {
          "duration": 0.1327432500000043,
          "durationTicks": 96,
          "midi": 32,
          "name": "G#1",
          "ticks": 42432,
          "time": 58.6725165,
          "velocity": 0.3937007874015748
        },
        {
          "duration": 0.1327432499999972,
          "durationTicks": 96,
          "midi": 27,
          "name": "D#1",
          "ticks": 42816,
          "time": 59.2034895,
          "velocity": 0.3937007874015748
        },
        {
          "duration": 0.1327432500000043,
          "durationTicks": 96,
          "midi": 27,
          "name": "D#1",
          "ticks": 42912,
          "time": 59.33623275,
          "velocity": 0.3937007874015748
        },
        {
          "duration": 0.1327432499999972,
          "durationTicks": 96,
          "midi": 29,
          "name": "F1",
          "ticks": 43008,
          "time": 59.468976000000005,
          "velocity": 0.3937007874015748
        },
        {
          "duration": 0.1327432499999972,
          "durationTicks": 96,
          "midi": 29,
          "name": "F1",
          "ticks": 43200,
          "time": 59.73446250000001,
          "velocity": 0.3937007874015748
        },
        {
          "duration": 0.1327432499999972,
          "durationTicks": 96,
          "midi": 29,
          "name": "F1",
          "ticks": 43296,
          "time": 59.867205750000004,
          "velocity": 0.3937007874015748
        },
        {
          "duration": 0.1327432499999972,
          "durationTicks": 96,
          "midi": 36,
          "name": "C2",
          "ticks": 43488,
          "time": 60.132692250000005,
          "velocity": 0.3937007874015748
        },
        {
          "duration": 0.1327432500000043,
          "durationTicks": 96,
          "midi": 34,
          "name": "A#1",
          "ticks": 43584,
          "time": 60.2654355,
          "velocity": 0.3937007874015748
        },
        {
          "duration": 0.1327432499999972,
          "durationTicks": 96,
          "midi": 32,
          "name": "G#1",
          "ticks": 43968,
          "time": 60.796408500000005,
          "velocity": 0.3937007874015748
        },
        {
          "duration": 0.1327432500000043,
          "durationTicks": 96,
          "midi": 37,
          "name": "C#2",
          "ticks": 44160,
          "time": 61.061895,
          "velocity": 0.3937007874015748
        },
        {
          "duration": 0.1327432499999972,
          "durationTicks": 96,
          "midi": 34,
          "name": "A#1",
          "ticks": 44256,
          "time": 61.194638250000004,
          "velocity": 0.3937007874015748
        },
        {
          "duration": 0.1327432499999972,
          "durationTicks": 96,
          "midi": 37,
          "name": "C#2",
          "ticks": 44448,
          "time": 61.460124750000006,
          "velocity": 0.3937007874015748
        },
        {
          "duration": 0.1327432499999972,
          "durationTicks": 96,
          "midi": 34,
          "name": "A#1",
          "ticks": 44544,
          "time": 61.592868,
          "velocity": 0.3937007874015748
        },
        {
          "duration": 0.1327432499999972,
          "durationTicks": 96,
          "midi": 34,
          "name": "A#1",
          "ticks": 44736,
          "time": 61.858354500000004,
          "velocity": 0.3937007874015748
        },
        {
          "duration": 0.1327432500000043,
          "durationTicks": 96,
          "midi": 34,
          "name": "A#1",
          "ticks": 44832,
          "time": 61.99109775,
          "velocity": 0.3937007874015748
        },
        {
          "duration": 0.1327432499999972,
          "durationTicks": 96,
          "midi": 37,
          "name": "C#2",
          "ticks": 45024,
          "time": 62.25658425,
          "velocity": 0.3937007874015748
        },
        {
          "duration": 0.1327432500000043,
          "durationTicks": 96,
          "midi": 36,
          "name": "C2",
          "ticks": 45120,
          "time": 62.3893275,
          "velocity": 0.3937007874015748
        },
        {
          "duration": 0.1327432500000043,
          "durationTicks": 96,
          "midi": 32,
          "name": "G#1",
          "ticks": 45312,
          "time": 62.654814,
          "velocity": 0.3937007874015748
        },
        {
          "duration": 0.1327432499999972,
          "durationTicks": 96,
          "midi": 34,
          "name": "A#1",
          "ticks": 45504,
          "time": 62.9203005,
          "velocity": 0.3937007874015748
        },
        {
          "duration": 0.1327432499999972,
          "durationTicks": 96,
          "midi": 29,
          "name": "F1",
          "ticks": 45888,
          "time": 63.451273500000006,
          "velocity": 0.3937007874015748
        },
        {
          "duration": 0.1327432499999972,
          "durationTicks": 96,
          "midi": 34,
          "name": "A#1",
          "ticks": 45984,
          "time": 63.58401675,
          "velocity": 0.3937007874015748
        },
        {
          "duration": 0.1327432500000043,
          "durationTicks": 96,
          "midi": 32,
          "name": "G#1",
          "ticks": 46272,
          "time": 63.9822465,
          "velocity": 0.3937007874015748
        },
        {
          "duration": 0.1327432499999901,
          "durationTicks": 96,
          "midi": 34,
          "name": "A#1",
          "ticks": 46368,
          "time": 64.11498975,
          "velocity": 0.3937007874015748
        },
        {
          "duration": 0.1327432500000043,
          "durationTicks": 96,
          "midi": 37,
          "name": "C#2",
          "ticks": 46560,
          "time": 64.38047625,
          "velocity": 0.3937007874015748
        },
        {
          "duration": 0.1327432500000043,
          "durationTicks": 96,
          "midi": 36,
          "name": "C2",
          "ticks": 46656,
          "time": 64.5132195,
          "velocity": 0.3937007874015748
        },
        {
          "duration": 0.1327432499999901,
          "durationTicks": 96,
          "midi": 34,
          "name": "A#1",
          "ticks": 47040,
          "time": 65.04419250000001,
          "velocity": 0.3937007874015748
        },
        {
          "duration": 0.1327432500000043,
          "durationTicks": 96,
          "midi": 32,
          "name": "G#1",
          "ticks": 47424,
          "time": 65.5751655,
          "velocity": 0.3937007874015748
        },
        {
          "duration": 0.1327432500000043,
          "durationTicks": 96,
          "midi": 32,
          "name": "G#1",
          "ticks": 47520,
          "time": 65.70790875,
          "velocity": 0.3937007874015748
        },
        {
          "duration": 0.1327432500000043,
          "durationTicks": 96,
          "midi": 34,
          "name": "A#1",
          "ticks": 47616,
          "time": 65.840652,
          "velocity": 0.3937007874015748
        },
        {
          "duration": 0.1327432500000043,
          "durationTicks": 96,
          "midi": 34,
          "name": "A#1",
          "ticks": 47808,
          "time": 66.1061385,
          "velocity": 0.3937007874015748
        },
        {
          "duration": 0.1327432500000043,
          "durationTicks": 96,
          "midi": 34,
          "name": "A#1",
          "ticks": 47904,
          "time": 66.23888175,
          "velocity": 0.3937007874015748
        },
        {
          "duration": 0.1327432500000043,
          "durationTicks": 96,
          "midi": 37,
          "name": "C#2",
          "ticks": 48096,
          "time": 66.50436825,
          "velocity": 0.3937007874015748
        },
        {
          "duration": 0.1327432500000043,
          "durationTicks": 96,
          "midi": 36,
          "name": "C2",
          "ticks": 48192,
          "time": 66.6371115,
          "velocity": 0.3937007874015748
        },
        {
          "duration": 0.1327432500000043,
          "durationTicks": 96,
          "midi": 32,
          "name": "G#1",
          "ticks": 48384,
          "time": 66.902598,
          "velocity": 0.3937007874015748
        },
        {
          "duration": 0.1327432500000043,
          "durationTicks": 96,
          "midi": 34,
          "name": "A#1",
          "ticks": 48576,
          "time": 67.1680845,
          "velocity": 0.3937007874015748
        },
        {
          "duration": 0.1327432499999901,
          "durationTicks": 96,
          "midi": 32,
          "name": "G#1",
          "ticks": 48960,
          "time": 67.69905750000001,
          "velocity": 0.3937007874015748
        },
        {
          "duration": 0.1327432500000043,
          "durationTicks": 96,
          "midi": 32,
          "name": "G#1",
          "ticks": 49056,
          "time": 67.83180075,
          "velocity": 0.3937007874015748
        },
        {
          "duration": 0.1327432500000043,
          "durationTicks": 96,
          "midi": 27,
          "name": "D#1",
          "ticks": 49152,
          "time": 67.964544,
          "velocity": 0.3937007874015748
        },
        {
          "duration": 0.1327432500000043,
          "durationTicks": 96,
          "midi": 27,
          "name": "D#1",
          "ticks": 49344,
          "time": 68.2300305,
          "velocity": 0.3937007874015748
        },
        {
          "duration": 0.1327432500000043,
          "durationTicks": 96,
          "midi": 32,
          "name": "G#1",
          "ticks": 49440,
          "time": 68.36277375,
          "velocity": 0.3937007874015748
        },
        {
          "duration": 0.1327432500000043,
          "durationTicks": 96,
          "midi": 32,
          "name": "G#1",
          "ticks": 49632,
          "time": 68.62826025,
          "velocity": 0.3937007874015748
        },
        {
          "duration": 0.1327432500000043,
          "durationTicks": 96,
          "midi": 32,
          "name": "G#1",
          "ticks": 49728,
          "time": 68.7610035,
          "velocity": 0.3937007874015748
        },
        {
          "duration": 0.1327432500000043,
          "durationTicks": 96,
          "midi": 32,
          "name": "G#1",
          "ticks": 50112,
          "time": 69.2919765,
          "velocity": 0.3937007874015748
        },
        {
          "duration": 0.1327432499999901,
          "durationTicks": 96,
          "midi": 32,
          "name": "G#1",
          "ticks": 50208,
          "time": 69.42471975000001,
          "velocity": 0.3937007874015748
        },
        {
          "duration": 0.1327432500000043,
          "durationTicks": 96,
          "midi": 32,
          "name": "G#1",
          "ticks": 50400,
          "time": 69.69020625,
          "velocity": 0.3937007874015748
        },
        {
          "duration": 0.1327432499999901,
          "durationTicks": 96,
          "midi": 34,
          "name": "A#1",
          "ticks": 50496,
          "time": 69.82294950000001,
          "velocity": 0.3937007874015748
        },
        {
          "duration": 0.1327432500000043,
          "durationTicks": 96,
          "midi": 34,
          "name": "A#1",
          "ticks": 50592,
          "time": 69.95569275,
          "velocity": 0.3937007874015748
        },
        {
          "duration": 0.1327432500000043,
          "durationTicks": 96,
          "midi": 34,
          "name": "A#1",
          "ticks": 50688,
          "time": 70.088436,
          "velocity": 0.3937007874015748
        },
        {
          "duration": 0.1327432499999901,
          "durationTicks": 96,
          "midi": 34,
          "name": "A#1",
          "ticks": 50880,
          "time": 70.35392250000001,
          "velocity": 0.3937007874015748
        },
        {
          "duration": 0.1327432500000043,
          "durationTicks": 96,
          "midi": 34,
          "name": "A#1",
          "ticks": 50976,
          "time": 70.48666575,
          "velocity": 0.3937007874015748
        },
        {
          "duration": 0.1327432499999901,
          "durationTicks": 96,
          "midi": 37,
          "name": "C#2",
          "ticks": 51168,
          "time": 70.75215225000001,
          "velocity": 0.3937007874015748
        },
        {
          "duration": 0.1327432500000043,
          "durationTicks": 96,
          "midi": 36,
          "name": "C2",
          "ticks": 51264,
          "time": 70.8848955,
          "velocity": 0.3937007874015748
        },
        {
          "duration": 0.1327432499999901,
          "durationTicks": 96,
          "midi": 32,
          "name": "G#1",
          "ticks": 51456,
          "time": 71.15038200000001,
          "velocity": 0.3937007874015748
        },
        {
          "duration": 0.1327432500000043,
          "durationTicks": 96,
          "midi": 34,
          "name": "A#1",
          "ticks": 51648,
          "time": 71.4158685,
          "velocity": 0.3937007874015748
        },
        {
          "duration": 0.1327432500000043,
          "durationTicks": 96,
          "midi": 29,
          "name": "F1",
          "ticks": 52032,
          "time": 71.9468415,
          "velocity": 0.3937007874015748
        },
        {
          "duration": 0.1327432499999901,
          "durationTicks": 96,
          "midi": 34,
          "name": "A#1",
          "ticks": 52128,
          "time": 72.07958475000001,
          "velocity": 0.3937007874015748
        },
        {
          "duration": 0.1327432499999901,
          "durationTicks": 96,
          "midi": 32,
          "name": "G#1",
          "ticks": 52416,
          "time": 72.47781450000001,
          "velocity": 0.3937007874015748
        },
        {
          "duration": 0.1327432500000043,
          "durationTicks": 96,
          "midi": 34,
          "name": "A#1",
          "ticks": 52512,
          "time": 72.61055775,
          "velocity": 0.3937007874015748
        },
        {
          "duration": 0.1327432499999901,
          "durationTicks": 96,
          "midi": 37,
          "name": "C#2",
          "ticks": 52704,
          "time": 72.87604425,
          "velocity": 0.3937007874015748
        },
        {
          "duration": 0.1327432500000043,
          "durationTicks": 96,
          "midi": 36,
          "name": "C2",
          "ticks": 52800,
          "time": 73.0087875,
          "velocity": 0.3937007874015748
        },
        {
          "duration": 0.1327432500000043,
          "durationTicks": 96,
          "midi": 34,
          "name": "A#1",
          "ticks": 53184,
          "time": 73.5397605,
          "velocity": 0.3937007874015748
        },
        {
          "duration": 0.1327432500000043,
          "durationTicks": 96,
          "midi": 32,
          "name": "G#1",
          "ticks": 53568,
          "time": 74.0707335,
          "velocity": 0.3937007874015748
        },
        {
          "duration": 0.1327432499999901,
          "durationTicks": 96,
          "midi": 32,
          "name": "G#1",
          "ticks": 53664,
          "time": 74.20347675000001,
          "velocity": 0.3937007874015748
        },
        {
          "duration": 0.1327432500000043,
          "durationTicks": 96,
          "midi": 34,
          "name": "A#1",
          "ticks": 53760,
          "time": 74.33622,
          "velocity": 0.3937007874015748
        },
        {
          "duration": 0.1327432500000043,
          "durationTicks": 96,
          "midi": 34,
          "name": "A#1",
          "ticks": 53952,
          "time": 74.6017065,
          "velocity": 0.3937007874015748
        },
        {
          "duration": 0.1327432499999901,
          "durationTicks": 96,
          "midi": 34,
          "name": "A#1",
          "ticks": 54048,
          "time": 74.73444975000001,
          "velocity": 0.3937007874015748
        },
        {
          "duration": 0.1327432500000043,
          "durationTicks": 96,
          "midi": 37,
          "name": "C#2",
          "ticks": 54240,
          "time": 74.99993625,
          "velocity": 0.3937007874015748
        },
        {
          "duration": 0.1327432499999901,
          "durationTicks": 96,
          "midi": 36,
          "name": "C2",
          "ticks": 54336,
          "time": 75.13267950000001,
          "velocity": 0.3937007874015748
        },
        {
          "duration": 0.1327432500000043,
          "durationTicks": 96,
          "midi": 32,
          "name": "G#1",
          "ticks": 54528,
          "time": 75.398166,
          "velocity": 0.3937007874015748
        },
        {
          "duration": 0.1327432500000043,
          "durationTicks": 96,
          "midi": 34,
          "name": "A#1",
          "ticks": 54720,
          "time": 75.6636525,
          "velocity": 0.3937007874015748
        },
        {
          "duration": 0.1327432500000043,
          "durationTicks": 96,
          "midi": 32,
          "name": "G#1",
          "ticks": 55104,
          "time": 76.1946255,
          "velocity": 0.3937007874015748
        },
        {
          "duration": 0.1327432500000043,
          "durationTicks": 96,
          "midi": 32,
          "name": "G#1",
          "ticks": 55200,
          "time": 76.32736875,
          "velocity": 0.3937007874015748
        },
        {
          "duration": 0.1327432499999901,
          "durationTicks": 96,
          "midi": 27,
          "name": "D#1",
          "ticks": 55296,
          "time": 76.46011200000001,
          "velocity": 0.3937007874015748
        },
        {
          "duration": 0.1327432500000043,
          "durationTicks": 96,
          "midi": 27,
          "name": "D#1",
          "ticks": 55488,
          "time": 76.7255985,
          "velocity": 0.3937007874015748
        },
        {
          "duration": 0.1327432499999901,
          "durationTicks": 96,
          "midi": 32,
          "name": "G#1",
          "ticks": 55584,
          "time": 76.85834175000001,
          "velocity": 0.3937007874015748
        },
        {
          "duration": 0.1327432500000043,
          "durationTicks": 96,
          "midi": 32,
          "name": "G#1",
          "ticks": 55776,
          "time": 77.12382825,
          "velocity": 0.3937007874015748
        },
        {
          "duration": 0.1327432500000043,
          "durationTicks": 96,
          "midi": 32,
          "name": "G#1",
          "ticks": 55872,
          "time": 77.2565715,
          "velocity": 0.3937007874015748
        },
        {
          "duration": 0.1327432499999901,
          "durationTicks": 96,
          "midi": 32,
          "name": "G#1",
          "ticks": 56256,
          "time": 77.78754450000001,
          "velocity": 0.3937007874015748
        },
        {
          "duration": 0.1327432500000043,
          "durationTicks": 96,
          "midi": 32,
          "name": "G#1",
          "ticks": 56352,
          "time": 77.92028775,
          "velocity": 0.3937007874015748
        },
        {
          "duration": 0.1327432499999901,
          "durationTicks": 96,
          "midi": 32,
          "name": "G#1",
          "ticks": 56544,
          "time": 78.18577425000001,
          "velocity": 0.3937007874015748
        },
        {
          "duration": 0.1327432500000043,
          "durationTicks": 96,
          "midi": 34,
          "name": "A#1",
          "ticks": 56640,
          "time": 78.3185175,
          "velocity": 0.3937007874015748
        },
        {
          "duration": 0.1327432500000043,
          "durationTicks": 96,
          "midi": 34,
          "name": "A#1",
          "ticks": 56736,
          "time": 78.45126075,
          "velocity": 0.3937007874015748
        },
        {
          "duration": 0.1327432499999901,
          "durationTicks": 96,
          "midi": 34,
          "name": "A#1",
          "ticks": 56832,
          "time": 78.58400400000001,
          "velocity": 0.3937007874015748
        },
        {
          "duration": 0.1327432500000043,
          "durationTicks": 96,
          "midi": 34,
          "name": "A#1",
          "ticks": 57024,
          "time": 78.8494905,
          "velocity": 0.3937007874015748
        },
        {
          "duration": 0.1327432500000043,
          "durationTicks": 96,
          "midi": 37,
          "name": "C#2",
          "ticks": 57120,
          "time": 78.98223375,
          "velocity": 0.3937007874015748
        },
        {
          "duration": 0.1327432500000043,
          "durationTicks": 96,
          "midi": 37,
          "name": "C#2",
          "ticks": 57312,
          "time": 79.24772025,
          "velocity": 0.3937007874015748
        },
        {
          "duration": 0.1327432500000043,
          "durationTicks": 96,
          "midi": 36,
          "name": "C2",
          "ticks": 57408,
          "time": 79.3804635,
          "velocity": 0.3937007874015748
        },
        {
          "duration": 0.1327432500000043,
          "durationTicks": 96,
          "midi": 32,
          "name": "G#1",
          "ticks": 57600,
          "time": 79.64595,
          "velocity": 0.3937007874015748
        },
        {
          "duration": 0.1327432499999901,
          "durationTicks": 96,
          "midi": 34,
          "name": "A#1",
          "ticks": 57792,
          "time": 79.91143650000001,
          "velocity": 0.3937007874015748
        },
        {
          "duration": 0.1327432500000043,
          "durationTicks": 96,
          "midi": 32,
          "name": "G#1",
          "ticks": 58272,
          "time": 80.57515275,
          "velocity": 0.3937007874015748
        },
        {
          "duration": 0.1327432500000043,
          "durationTicks": 96,
          "midi": 34,
          "name": "A#1",
          "ticks": 58368,
          "time": 80.707896,
          "velocity": 0.3937007874015748
        },
        {
          "duration": 0.1327432500000043,
          "durationTicks": 96,
          "midi": 34,
          "name": "A#1",
          "ticks": 58560,
          "time": 80.9733825,
          "velocity": 0.3937007874015748
        },
        {
          "duration": 0.1327432500000043,
          "durationTicks": 96,
          "midi": 37,
          "name": "C#2",
          "ticks": 58656,
          "time": 81.10612575,
          "velocity": 0.3937007874015748
        },
        {
          "duration": 0.1327432500000043,
          "durationTicks": 96,
          "midi": 37,
          "name": "C#2",
          "ticks": 58848,
          "time": 81.37161225,
          "velocity": 0.3937007874015748
        },
        {
          "duration": 0.1327432500000043,
          "durationTicks": 96,
          "midi": 36,
          "name": "C2",
          "ticks": 58944,
          "time": 81.5043555,
          "velocity": 0.3937007874015748
        },
        {
          "duration": 0.1327432499999901,
          "durationTicks": 96,
          "midi": 32,
          "name": "G#1",
          "ticks": 59136,
          "time": 81.76984200000001,
          "velocity": 0.3937007874015748
        },
        {
          "duration": 0.1327432500000043,
          "durationTicks": 96,
          "midi": 34,
          "name": "A#1",
          "ticks": 59328,
          "time": 82.0353285,
          "velocity": 0.3937007874015748
        },
        {
          "duration": 0.1327432499999901,
          "durationTicks": 96,
          "midi": 32,
          "name": "G#1",
          "ticks": 59712,
          "time": 82.56630150000001,
          "velocity": 0.3937007874015748
        },
        {
          "duration": 0.1327432500000043,
          "durationTicks": 96,
          "midi": 32,
          "name": "G#1",
          "ticks": 59808,
          "time": 82.69904475,
          "velocity": 0.3937007874015748
        },
        {
          "duration": 0.1327432500000043,
          "durationTicks": 96,
          "midi": 34,
          "name": "A#1",
          "ticks": 59904,
          "time": 82.831788,
          "velocity": 0.3937007874015748
        },
        {
          "duration": 0.1327432500000043,
          "durationTicks": 96,
          "midi": 34,
          "name": "A#1",
          "ticks": 60096,
          "time": 83.0972745,
          "velocity": 0.3937007874015748
        },
        {
          "duration": 0.1327432500000043,
          "durationTicks": 96,
          "midi": 37,
          "name": "C#2",
          "ticks": 60192,
          "time": 83.23001775,
          "velocity": 0.3937007874015748
        },
        {
          "duration": 0.1327432499999901,
          "durationTicks": 96,
          "midi": 37,
          "name": "C#2",
          "ticks": 60384,
          "time": 83.49550425000001,
          "velocity": 0.3937007874015748
        },
        {
          "duration": 0.1327432500000043,
          "durationTicks": 96,
          "midi": 36,
          "name": "C2",
          "ticks": 60480,
          "time": 83.6282475,
          "velocity": 0.3937007874015748
        },
        {
          "duration": 0.1327432499999901,
          "durationTicks": 96,
          "midi": 32,
          "name": "G#1",
          "ticks": 60672,
          "time": 83.89373400000001,
          "velocity": 0.3937007874015748
        },
        {
          "duration": 0.1327432500000043,
          "durationTicks": 96,
          "midi": 34,
          "name": "A#1",
          "ticks": 60864,
          "time": 84.1592205,
          "velocity": 0.3937007874015748
        },
        {
          "duration": 0.1327432499999901,
          "durationTicks": 96,
          "midi": 32,
          "name": "G#1",
          "ticks": 61344,
          "time": 84.82293675000001,
          "velocity": 0.3937007874015748
        },
        {
          "duration": 0.1327432500000043,
          "durationTicks": 96,
          "midi": 34,
          "name": "A#1",
          "ticks": 61440,
          "time": 84.95568,
          "velocity": 0.3937007874015748
        },
        {
          "duration": 0.1327432499999901,
          "durationTicks": 96,
          "midi": 34,
          "name": "A#1",
          "ticks": 61632,
          "time": 85.22116650000001,
          "velocity": 0.3937007874015748
        },
        {
          "duration": 0.1327432500000043,
          "durationTicks": 96,
          "midi": 37,
          "name": "C#2",
          "ticks": 61728,
          "time": 85.35390975,
          "velocity": 0.3937007874015748
        },
        {
          "duration": 0.1327432499999901,
          "durationTicks": 96,
          "midi": 37,
          "name": "C#2",
          "ticks": 61920,
          "time": 85.61939625000001,
          "velocity": 0.3937007874015748
        },
        {
          "duration": 0.1327432500000043,
          "durationTicks": 96,
          "midi": 36,
          "name": "C2",
          "ticks": 62016,
          "time": 85.7521395,
          "velocity": 0.3937007874015748
        },
        {
          "duration": 0.1327432500000043,
          "durationTicks": 96,
          "midi": 32,
          "name": "G#1",
          "ticks": 62208,
          "time": 86.017626,
          "velocity": 0.3937007874015748
        },
        {
          "duration": 0.1327432500000043,
          "durationTicks": 96,
          "midi": 34,
          "name": "A#1",
          "ticks": 62400,
          "time": 86.2831125,
          "velocity": 0.3937007874015748
        },
        {
          "duration": 0.1327432499999901,
          "durationTicks": 96,
          "midi": 29,
          "name": "F1",
          "ticks": 62592,
          "time": 86.54859900000001,
          "velocity": 0.3937007874015748
        },
        {
          "duration": 0.1327432500000043,
          "durationTicks": 96,
          "midi": 32,
          "name": "G#1",
          "ticks": 62784,
          "time": 86.8140855,
          "velocity": 0.3937007874015748
        },
        {
          "duration": 0.1327432499999901,
          "durationTicks": 96,
          "midi": 29,
          "name": "F1",
          "ticks": 62880,
          "time": 86.94682875000001,
          "velocity": 0.3937007874015748
        },
        {
          "duration": 0.1327432500000043,
          "durationTicks": 96,
          "midi": 27,
          "name": "D#1",
          "ticks": 62976,
          "time": 87.079572,
          "velocity": 0.3937007874015748
        },
        {
          "duration": 0.1327432499999901,
          "durationTicks": 96,
          "midi": 27,
          "name": "D#1",
          "ticks": 63168,
          "time": 87.34505850000001,
          "velocity": 0.3937007874015748
        },
        {
          "duration": 0.1327432500000043,
          "durationTicks": 96,
          "midi": 27,
          "name": "D#1",
          "ticks": 63264,
          "time": 87.47780175,
          "velocity": 0.3937007874015748
        },
        {
          "duration": 0.1327432500000043,
          "durationTicks": 96,
          "midi": 36,
          "name": "C2",
          "ticks": 63456,
          "time": 87.74328825,
          "velocity": 0.3937007874015748
        },
        {
          "duration": 0.1327432499999901,
          "durationTicks": 96,
          "midi": 34,
          "name": "A#1",
          "ticks": 63552,
          "time": 87.87603150000001,
          "velocity": 0.3937007874015748
        },
        {
          "duration": 0.1327432500000043,
          "durationTicks": 96,
          "midi": 32,
          "name": "G#1",
          "ticks": 63744,
          "time": 88.141518,
          "velocity": 0.3937007874015748
        },
        {
          "duration": 0.1327432500000043,
          "durationTicks": 96,
          "midi": 32,
          "name": "G#1",
          "ticks": 63936,
          "time": 88.4070045,
          "velocity": 0.3937007874015748
        },
        {
          "duration": 0.1327432500000043,
          "durationTicks": 96,
          "midi": 27,
          "name": "D#1",
          "ticks": 64320,
          "time": 88.9379775,
          "velocity": 0.3937007874015748
        },
        {
          "duration": 0.1327432500000043,
          "durationTicks": 96,
          "midi": 32,
          "name": "G#1",
          "ticks": 64416,
          "time": 89.07072075,
          "velocity": 0.3937007874015748
        },
        {
          "duration": 0.1327432499999901,
          "durationTicks": 96,
          "midi": 29,
          "name": "F1",
          "ticks": 64512,
          "time": 89.20346400000001,
          "velocity": 0.3937007874015748
        },
        {
          "duration": 0.1327432500000043,
          "durationTicks": 96,
          "midi": 29,
          "name": "F1",
          "ticks": 64704,
          "time": 89.4689505,
          "velocity": 0.3937007874015748
        },
        {
          "duration": 0.1327432499999901,
          "durationTicks": 96,
          "midi": 36,
          "name": "C2",
          "ticks": 64800,
          "time": 89.60169375000001,
          "velocity": 0.3937007874015748
        },
        {
          "duration": 0.1327432500000043,
          "durationTicks": 96,
          "midi": 36,
          "name": "C2",
          "ticks": 64992,
          "time": 89.86718025,
          "velocity": 0.3937007874015748
        },
        {
          "duration": 0.1327432499999901,
          "durationTicks": 96,
          "midi": 34,
          "name": "A#1",
          "ticks": 65088,
          "time": 89.99992350000001,
          "velocity": 0.3937007874015748
        },
        {
          "duration": 0.1327432499999901,
          "durationTicks": 96,
          "midi": 34,
          "name": "A#1",
          "ticks": 65472,
          "time": 90.53089650000001,
          "velocity": 0.3937007874015748
        },
        {
          "duration": 0.1327432500000043,
          "durationTicks": 96,
          "midi": 34,
          "name": "A#1",
          "ticks": 65568,
          "time": 90.66363975,
          "velocity": 0.3937007874015748
        },
        {
          "duration": 0.1327432499999901,
          "durationTicks": 96,
          "midi": 36,
          "name": "C2",
          "ticks": 65760,
          "time": 90.92912625000001,
          "velocity": 0.3937007874015748
        },
        {
          "duration": 0.1327432500000043,
          "durationTicks": 96,
          "midi": 34,
          "name": "A#1",
          "ticks": 65856,
          "time": 91.0618695,
          "velocity": 0.3937007874015748
        },
        {
          "duration": 0.1327432499999901,
          "durationTicks": 96,
          "midi": 27,
          "name": "D#1",
          "ticks": 66048,
          "time": 91.32735600000001,
          "velocity": 0.3937007874015748
        },
        {
          "duration": 0.1327432500000043,
          "durationTicks": 96,
          "midi": 27,
          "name": "D#1",
          "ticks": 66240,
          "time": 91.5928425,
          "velocity": 0.3937007874015748
        },
        {
          "duration": 0.1327432500000043,
          "durationTicks": 96,
          "midi": 36,
          "name": "C2",
          "ticks": 66336,
          "time": 91.72558575000001,
          "velocity": 0.3937007874015748
        },
        {
          "duration": 0.1327432500000043,
          "durationTicks": 96,
          "midi": 36,
          "name": "C2",
          "ticks": 66528,
          "time": 91.99107225,
          "velocity": 0.3937007874015748
        },
        {
          "duration": 0.1327432500000043,
          "durationTicks": 96,
          "midi": 34,
          "name": "A#1",
          "ticks": 66624,
          "time": 92.1238155,
          "velocity": 0.3937007874015748
        },
        {
          "duration": 0.1327432500000043,
          "durationTicks": 96,
          "midi": 32,
          "name": "G#1",
          "ticks": 66816,
          "time": 92.389302,
          "velocity": 0.3937007874015748
        },
        {
          "duration": 0.1327432499999901,
          "durationTicks": 96,
          "midi": 32,
          "name": "G#1",
          "ticks": 67008,
          "time": 92.65478850000001,
          "velocity": 0.3937007874015748
        },
        {
          "duration": 0.1327432500000043,
          "durationTicks": 96,
          "midi": 27,
          "name": "D#1",
          "ticks": 67392,
          "time": 93.1857615,
          "velocity": 0.3937007874015748
        },
        {
          "duration": 0.1327432500000043,
          "durationTicks": 96,
          "midi": 27,
          "name": "D#1",
          "ticks": 67488,
          "time": 93.31850475,
          "velocity": 0.3937007874015748
        },
        {
          "duration": 0.1327432500000043,
          "durationTicks": 96,
          "midi": 29,
          "name": "F1",
          "ticks": 67584,
          "time": 93.451248,
          "velocity": 0.3937007874015748
        },
        {
          "duration": 0.1327432500000043,
          "durationTicks": 96,
          "midi": 29,
          "name": "F1",
          "ticks": 67776,
          "time": 93.7167345,
          "velocity": 0.3937007874015748
        },
        {
          "duration": 0.1327432500000043,
          "durationTicks": 96,
          "midi": 29,
          "name": "F1",
          "ticks": 67872,
          "time": 93.84947775,
          "velocity": 0.3937007874015748
        },
        {
          "duration": 0.1327432500000043,
          "durationTicks": 96,
          "midi": 36,
          "name": "C2",
          "ticks": 68064,
          "time": 94.11496425,
          "velocity": 0.3937007874015748
        },
        {
          "duration": 0.1327432500000043,
          "durationTicks": 96,
          "midi": 34,
          "name": "A#1",
          "ticks": 68160,
          "time": 94.2477075,
          "velocity": 0.3937007874015748
        },
        {
          "duration": 0.1327432500000043,
          "durationTicks": 96,
          "midi": 32,
          "name": "G#1",
          "ticks": 68544,
          "time": 94.77868050000001,
          "velocity": 0.3937007874015748
        },
        {
          "duration": 0.1327432500000043,
          "durationTicks": 96,
          "midi": 37,
          "name": "C#2",
          "ticks": 68736,
          "time": 95.044167,
          "velocity": 0.3937007874015748
        },
        {
          "duration": 0.1327432500000043,
          "durationTicks": 96,
          "midi": 34,
          "name": "A#1",
          "ticks": 68832,
          "time": 95.17691025,
          "velocity": 0.3937007874015748
        },
        {
          "duration": 0.1327432500000043,
          "durationTicks": 96,
          "midi": 37,
          "name": "C#2",
          "ticks": 69024,
          "time": 95.44239675,
          "velocity": 0.3937007874015748
        },
        {
          "duration": 0.1327432500000043,
          "durationTicks": 96,
          "midi": 27,
          "name": "D#1",
          "ticks": 69120,
          "time": 95.57514,
          "velocity": 0.3937007874015748
        },
        {
          "duration": 0.1327432500000043,
          "durationTicks": 96,
          "midi": 27,
          "name": "D#1",
          "ticks": 69312,
          "time": 95.8406265,
          "velocity": 0.3937007874015748
        },
        {
          "duration": 0.1327432500000043,
          "durationTicks": 96,
          "midi": 27,
          "name": "D#1",
          "ticks": 69408,
          "time": 95.97336975,
          "velocity": 0.3937007874015748
        },
        {
          "duration": 0.1327432499999901,
          "durationTicks": 96,
          "midi": 36,
          "name": "C2",
          "ticks": 69600,
          "time": 96.23885625000001,
          "velocity": 0.3937007874015748
        },
        {
          "duration": 0.1327432500000043,
          "durationTicks": 96,
          "midi": 34,
          "name": "A#1",
          "ticks": 69696,
          "time": 96.3715995,
          "velocity": 0.3937007874015748
        },
        {
          "duration": 0.1327432499999901,
          "durationTicks": 96,
          "midi": 32,
          "name": "G#1",
          "ticks": 69888,
          "time": 96.63708600000001,
          "velocity": 0.3937007874015748
        },
        {
          "duration": 0.1327432500000043,
          "durationTicks": 96,
          "midi": 32,
          "name": "G#1",
          "ticks": 70080,
          "time": 96.9025725,
          "velocity": 0.3937007874015748
        },
        {
          "duration": 0.1327432499999901,
          "durationTicks": 96,
          "midi": 27,
          "name": "D#1",
          "ticks": 70464,
          "time": 97.43354550000001,
          "velocity": 0.3937007874015748
        },
        {
          "duration": 0.1327432500000043,
          "durationTicks": 96,
          "midi": 32,
          "name": "G#1",
          "ticks": 70560,
          "time": 97.56628875,
          "velocity": 0.3937007874015748
        },
        {
          "duration": 0.1327432500000043,
          "durationTicks": 96,
          "midi": 29,
          "name": "F1",
          "ticks": 70656,
          "time": 97.699032,
          "velocity": 0.3937007874015748
        },
        {
          "duration": 0.1327432499999901,
          "durationTicks": 96,
          "midi": 29,
          "name": "F1",
          "ticks": 70848,
          "time": 97.96451850000001,
          "velocity": 0.3937007874015748
        },
        {
          "duration": 0.1327432500000043,
          "durationTicks": 96,
          "midi": 36,
          "name": "C2",
          "ticks": 70944,
          "time": 98.09726175,
          "velocity": 0.3937007874015748
        },
        {
          "duration": 0.1327432499999901,
          "durationTicks": 96,
          "midi": 36,
          "name": "C2",
          "ticks": 71136,
          "time": 98.36274825000001,
          "velocity": 0.3937007874015748
        },
        {
          "duration": 0.1327432500000043,
          "durationTicks": 96,
          "midi": 34,
          "name": "A#1",
          "ticks": 71232,
          "time": 98.4954915,
          "velocity": 0.3937007874015748
        },
        {
          "duration": 0.1327432500000043,
          "durationTicks": 96,
          "midi": 34,
          "name": "A#1",
          "ticks": 71616,
          "time": 99.0264645,
          "velocity": 0.3937007874015748
        },
        {
          "duration": 0.1327432500000043,
          "durationTicks": 96,
          "midi": 34,
          "name": "A#1",
          "ticks": 71712,
          "time": 99.15920775000001,
          "velocity": 0.3937007874015748
        },
        {
          "duration": 0.1327432500000043,
          "durationTicks": 96,
          "midi": 36,
          "name": "C2",
          "ticks": 71904,
          "time": 99.42469425,
          "velocity": 0.3937007874015748
        },
        {
          "duration": 0.1327432500000043,
          "durationTicks": 96,
          "midi": 34,
          "name": "A#1",
          "ticks": 72000,
          "time": 99.5574375,
          "velocity": 0.3937007874015748
        },
        {
          "duration": 0.1327432500000043,
          "durationTicks": 96,
          "midi": 27,
          "name": "D#1",
          "ticks": 72192,
          "time": 99.822924,
          "velocity": 0.3937007874015748
        },
        {
          "duration": 0.1327432499999901,
          "durationTicks": 96,
          "midi": 27,
          "name": "D#1",
          "ticks": 72384,
          "time": 100.08841050000001,
          "velocity": 0.3937007874015748
        },
        {
          "duration": 0.1327432500000043,
          "durationTicks": 96,
          "midi": 36,
          "name": "C2",
          "ticks": 72480,
          "time": 100.22115375,
          "velocity": 0.3937007874015748
        },
        {
          "duration": 0.1327432500000043,
          "durationTicks": 96,
          "midi": 36,
          "name": "C2",
          "ticks": 72672,
          "time": 100.48664025000001,
          "velocity": 0.3937007874015748
        },
        {
          "duration": 0.1327432499999901,
          "durationTicks": 96,
          "midi": 34,
          "name": "A#1",
          "ticks": 72768,
          "time": 100.61938350000001,
          "velocity": 0.3937007874015748
        },
        {
          "duration": 0.1327432500000043,
          "durationTicks": 96,
          "midi": 32,
          "name": "G#1",
          "ticks": 72960,
          "time": 100.88487,
          "velocity": 0.3937007874015748
        },
        {
          "duration": 0.1327432500000043,
          "durationTicks": 96,
          "midi": 32,
          "name": "G#1",
          "ticks": 73152,
          "time": 101.1503565,
          "velocity": 0.3937007874015748
        },
        {
          "duration": 0.1327432500000043,
          "durationTicks": 96,
          "midi": 27,
          "name": "D#1",
          "ticks": 73536,
          "time": 101.6813295,
          "velocity": 0.3937007874015748
        },
        {
          "duration": 0.1327432500000043,
          "durationTicks": 96,
          "midi": 27,
          "name": "D#1",
          "ticks": 73632,
          "time": 101.81407275000001,
          "velocity": 0.3937007874015748
        },
        {
          "duration": 0.1327432499999901,
          "durationTicks": 96,
          "midi": 29,
          "name": "F1",
          "ticks": 73728,
          "time": 101.94681600000001,
          "velocity": 0.3937007874015748
        },
        {
          "duration": 0.1327432500000043,
          "durationTicks": 96,
          "midi": 29,
          "name": "F1",
          "ticks": 73920,
          "time": 102.2123025,
          "velocity": 0.3937007874015748
        },
        {
          "duration": 0.1327432499999901,
          "durationTicks": 96,
          "midi": 29,
          "name": "F1",
          "ticks": 74016,
          "time": 102.34504575000001,
          "velocity": 0.3937007874015748
        },
        {
          "duration": 0.1327432500000043,
          "durationTicks": 96,
          "midi": 36,
          "name": "C2",
          "ticks": 74208,
          "time": 102.61053225,
          "velocity": 0.3937007874015748
        },
        {
          "duration": 0.1327432499999901,
          "durationTicks": 96,
          "midi": 34,
          "name": "A#1",
          "ticks": 74304,
          "time": 102.74327550000001,
          "velocity": 0.3937007874015748
        },
        {
          "duration": 0.1327432500000043,
          "durationTicks": 96,
          "midi": 32,
          "name": "G#1",
          "ticks": 74688,
          "time": 103.2742485,
          "velocity": 0.3937007874015748
        },
        {
          "duration": 0.1327432500000043,
          "durationTicks": 96,
          "midi": 37,
          "name": "C#2",
          "ticks": 74880,
          "time": 103.53973500000001,
          "velocity": 0.3937007874015748
        },
        {
          "duration": 0.1327432499999901,
          "durationTicks": 96,
          "midi": 34,
          "name": "A#1",
          "ticks": 74976,
          "time": 103.67247825000001,
          "velocity": 0.3937007874015748
        },
        {
          "duration": 0.1327432500000043,
          "durationTicks": 96,
          "midi": 37,
          "name": "C#2",
          "ticks": 75168,
          "time": 103.93796475,
          "velocity": 0.3937007874015748
        },
        {
          "duration": 0.1327432499999901,
          "durationTicks": 96,
          "midi": 27,
          "name": "D#1",
          "ticks": 75264,
          "time": 104.07070800000001,
          "velocity": 0.3937007874015748
        },
        {
          "duration": 0.1327432500000043,
          "durationTicks": 96,
          "midi": 27,
          "name": "D#1",
          "ticks": 75456,
          "time": 104.3361945,
          "velocity": 0.3937007874015748
        },
        {
          "duration": 0.1327432499999901,
          "durationTicks": 96,
          "midi": 27,
          "name": "D#1",
          "ticks": 75552,
          "time": 104.46893775000001,
          "velocity": 0.3937007874015748
        },
        {
          "duration": 0.1327432500000043,
          "durationTicks": 96,
          "midi": 36,
          "name": "C2",
          "ticks": 75744,
          "time": 104.73442425,
          "velocity": 0.3937007874015748
        },
        {
          "duration": 0.1327432500000043,
          "durationTicks": 96,
          "midi": 34,
          "name": "A#1",
          "ticks": 75840,
          "time": 104.86716750000001,
          "velocity": 0.3937007874015748
        },
        {
          "duration": 0.1327432500000043,
          "durationTicks": 96,
          "midi": 32,
          "name": "G#1",
          "ticks": 76032,
          "time": 105.132654,
          "velocity": 0.3937007874015748
        },
        {
          "duration": 0.1327432499999901,
          "durationTicks": 96,
          "midi": 32,
          "name": "G#1",
          "ticks": 76224,
          "time": 105.39814050000001,
          "velocity": 0.3937007874015748
        },
        {
          "duration": 0.1327432500000043,
          "durationTicks": 96,
          "midi": 27,
          "name": "D#1",
          "ticks": 76608,
          "time": 105.9291135,
          "velocity": 0.3937007874015748
        },
        {
          "duration": 0.1327432500000043,
          "durationTicks": 96,
          "midi": 32,
          "name": "G#1",
          "ticks": 76704,
          "time": 106.06185675,
          "velocity": 0.3937007874015748
        },
        {
          "duration": 0.1327432500000043,
          "durationTicks": 96,
          "midi": 29,
          "name": "F1",
          "ticks": 76800,
          "time": 106.19460000000001,
          "velocity": 0.3937007874015748
        },
        {
          "duration": 0.1327432500000043,
          "durationTicks": 96,
          "midi": 29,
          "name": "F1",
          "ticks": 76992,
          "time": 106.4600865,
          "velocity": 0.3937007874015748
        },
        {
          "duration": 0.1327432500000043,
          "durationTicks": 96,
          "midi": 36,
          "name": "C2",
          "ticks": 77088,
          "time": 106.59282975,
          "velocity": 0.3937007874015748
        },
        {
          "duration": 0.1327432500000043,
          "durationTicks": 96,
          "midi": 36,
          "name": "C2",
          "ticks": 77280,
          "time": 106.85831625,
          "velocity": 0.3937007874015748
        },
        {
          "duration": 0.1327432500000043,
          "durationTicks": 96,
          "midi": 34,
          "name": "A#1",
          "ticks": 77376,
          "time": 106.9910595,
          "velocity": 0.3937007874015748
        },
        {
          "duration": 0.1327432499999901,
          "durationTicks": 96,
          "midi": 34,
          "name": "A#1",
          "ticks": 77760,
          "time": 107.52203250000001,
          "velocity": 0.3937007874015748
        },
        {
          "duration": 0.1327432500000043,
          "durationTicks": 96,
          "midi": 34,
          "name": "A#1",
          "ticks": 77856,
          "time": 107.65477575,
          "velocity": 0.3937007874015748
        },
        {
          "duration": 0.1327432500000043,
          "durationTicks": 96,
          "midi": 36,
          "name": "C2",
          "ticks": 78048,
          "time": 107.92026225000001,
          "velocity": 0.3937007874015748
        },
        {
          "duration": 0.1327432499999901,
          "durationTicks": 96,
          "midi": 34,
          "name": "A#1",
          "ticks": 78144,
          "time": 108.05300550000001,
          "velocity": 0.3937007874015748
        },
        {
          "duration": 0.1327432500000043,
          "durationTicks": 96,
          "midi": 27,
          "name": "D#1",
          "ticks": 78336,
          "time": 108.318492,
          "velocity": 0.3937007874015748
        },
        {
          "duration": 0.1327432500000043,
          "durationTicks": 96,
          "midi": 27,
          "name": "D#1",
          "ticks": 78528,
          "time": 108.5839785,
          "velocity": 0.3937007874015748
        },
        {
          "duration": 0.1327432500000043,
          "durationTicks": 96,
          "midi": 36,
          "name": "C2",
          "ticks": 78624,
          "time": 108.71672175,
          "velocity": 0.3937007874015748
        },
        {
          "duration": 0.1327432500000043,
          "durationTicks": 96,
          "midi": 36,
          "name": "C2",
          "ticks": 78816,
          "time": 108.98220825,
          "velocity": 0.3937007874015748
        },
        {
          "duration": 0.1327432500000043,
          "durationTicks": 96,
          "midi": 34,
          "name": "A#1",
          "ticks": 78912,
          "time": 109.1149515,
          "velocity": 0.3937007874015748
        },
        {
          "duration": 0.1327432499999901,
          "durationTicks": 96,
          "midi": 32,
          "name": "G#1",
          "ticks": 79104,
          "time": 109.38043800000001,
          "velocity": 0.3937007874015748
        },
        {
          "duration": 0.1327432500000043,
          "durationTicks": 96,
          "midi": 32,
          "name": "G#1",
          "ticks": 79296,
          "time": 109.6459245,
          "velocity": 0.3937007874015748
        },
        {
          "duration": 0.1327432499999901,
          "durationTicks": 96,
          "midi": 27,
          "name": "D#1",
          "ticks": 79680,
          "time": 110.17689750000001,
          "velocity": 0.3937007874015748
        },
        {
          "duration": 0.1327432500000043,
          "durationTicks": 96,
          "midi": 27,
          "name": "D#1",
          "ticks": 79776,
          "time": 110.30964075,
          "velocity": 0.3937007874015748
        },
        {
          "duration": 0.1327432500000043,
          "durationTicks": 96,
          "midi": 29,
          "name": "F1",
          "ticks": 79872,
          "time": 110.442384,
          "velocity": 0.3937007874015748
        },
        {
          "duration": 0.1327432499999901,
          "durationTicks": 96,
          "midi": 29,
          "name": "F1",
          "ticks": 80064,
          "time": 110.70787050000001,
          "velocity": 0.3937007874015748
        },
        {
          "duration": 0.1327432500000043,
          "durationTicks": 96,
          "midi": 29,
          "name": "F1",
          "ticks": 80160,
          "time": 110.84061375,
          "velocity": 0.3937007874015748
        },
        {
          "duration": 0.1327432499999901,
          "durationTicks": 96,
          "midi": 36,
          "name": "C2",
          "ticks": 80352,
          "time": 111.10610025000001,
          "velocity": 0.3937007874015748
        },
        {
          "duration": 0.1327432500000043,
          "durationTicks": 96,
          "midi": 34,
          "name": "A#1",
          "ticks": 80448,
          "time": 111.2388435,
          "velocity": 0.3937007874015748
        },
        {
          "duration": 0.1327432500000043,
          "durationTicks": 96,
          "midi": 32,
          "name": "G#1",
          "ticks": 80832,
          "time": 111.7698165,
          "velocity": 0.3937007874015748
        },
        {
          "duration": 0.1327432500000043,
          "durationTicks": 96,
          "midi": 37,
          "name": "C#2",
          "ticks": 81024,
          "time": 112.035303,
          "velocity": 0.3937007874015748
        },
        {
          "duration": 0.1327432500000043,
          "durationTicks": 96,
          "midi": 34,
          "name": "A#1",
          "ticks": 81120,
          "time": 112.16804625,
          "velocity": 0.3937007874015748
        },
        {
          "duration": 0.1327432499999901,
          "durationTicks": 96,
          "midi": 37,
          "name": "C#2",
          "ticks": 81312,
          "time": 112.43353275000001,
          "velocity": 0.3937007874015748
        },
        {
          "duration": 0.1327432500000043,
          "durationTicks": 96,
          "midi": 27,
          "name": "D#1",
          "ticks": 81408,
          "time": 112.566276,
          "velocity": 0.3937007874015748
        },
        {
          "duration": 0.1327432499999901,
          "durationTicks": 96,
          "midi": 27,
          "name": "D#1",
          "ticks": 81600,
          "time": 112.83176250000001,
          "velocity": 0.3937007874015748
        },
        {
          "duration": 0.1327432500000043,
          "durationTicks": 96,
          "midi": 27,
          "name": "D#1",
          "ticks": 81696,
          "time": 112.96450575,
          "velocity": 0.3937007874015748
        },
        {
          "duration": 0.1327432499999901,
          "durationTicks": 96,
          "midi": 36,
          "name": "C2",
          "ticks": 81888,
          "time": 113.22999225000001,
          "velocity": 0.3937007874015748
        },
        {
          "duration": 0.1327432500000043,
          "durationTicks": 96,
          "midi": 34,
          "name": "A#1",
          "ticks": 81984,
          "time": 113.3627355,
          "velocity": 0.3937007874015748
        },
        {
          "duration": 0.1327432500000043,
          "durationTicks": 96,
          "midi": 32,
          "name": "G#1",
          "ticks": 82176,
          "time": 113.62822200000001,
          "velocity": 0.3937007874015748
        },
        {
          "duration": 0.1327432500000043,
          "durationTicks": 96,
          "midi": 32,
          "name": "G#1",
          "ticks": 82368,
          "time": 113.8937085,
          "velocity": 0.3937007874015748
        },
        {
          "duration": 0.1327432500000043,
          "durationTicks": 96,
          "midi": 27,
          "name": "D#1",
          "ticks": 82752,
          "time": 114.4246815,
          "velocity": 0.3937007874015748
        },
        {
          "duration": 0.1327432499999901,
          "durationTicks": 96,
          "midi": 32,
          "name": "G#1",
          "ticks": 82848,
          "time": 114.55742475000001,
          "velocity": 0.3937007874015748
        },
        {
          "duration": 0.1327432500000043,
          "durationTicks": 96,
          "midi": 29,
          "name": "F1",
          "ticks": 82944,
          "time": 114.690168,
          "velocity": 0.3937007874015748
        },
        {
          "duration": 0.1327432500000043,
          "durationTicks": 96,
          "midi": 29,
          "name": "F1",
          "ticks": 83136,
          "time": 114.95565450000001,
          "velocity": 0.3937007874015748
        },
        {
          "duration": 0.1327432499999901,
          "durationTicks": 96,
          "midi": 36,
          "name": "C2",
          "ticks": 83232,
          "time": 115.08839775000001,
          "velocity": 0.3937007874015748
        },
        {
          "duration": 0.1327432500000043,
          "durationTicks": 96,
          "midi": 36,
          "name": "C2",
          "ticks": 83424,
          "time": 115.35388425000001,
          "velocity": 0.3937007874015748
        },
        {
          "duration": 0.1327432499999901,
          "durationTicks": 96,
          "midi": 34,
          "name": "A#1",
          "ticks": 83520,
          "time": 115.48662750000001,
          "velocity": 0.3937007874015748
        },
        {
          "duration": 0.1327432500000043,
          "durationTicks": 96,
          "midi": 34,
          "name": "A#1",
          "ticks": 83904,
          "time": 116.0176005,
          "velocity": 0.3937007874015748
        },
        {
          "duration": 0.1327432500000043,
          "durationTicks": 96,
          "midi": 34,
          "name": "A#1",
          "ticks": 84000,
          "time": 116.15034375,
          "velocity": 0.3937007874015748
        },
        {
          "duration": 0.1327432499999901,
          "durationTicks": 96,
          "midi": 36,
          "name": "C2",
          "ticks": 84192,
          "time": 116.41583025000001,
          "velocity": 0.3937007874015748
        },
        {
          "duration": 0.1327432500000043,
          "durationTicks": 96,
          "midi": 34,
          "name": "A#1",
          "ticks": 84288,
          "time": 116.5485735,
          "velocity": 0.3937007874015748
        },
        {
          "duration": 0.1327432499999901,
          "durationTicks": 96,
          "midi": 27,
          "name": "D#1",
          "ticks": 84480,
          "time": 116.81406000000001,
          "velocity": 0.3937007874015748
        },
        {
          "duration": 0.1327432500000043,
          "durationTicks": 96,
          "midi": 27,
          "name": "D#1",
          "ticks": 84672,
          "time": 117.0795465,
          "velocity": 0.3937007874015748
        },
        {
          "duration": 0.1327432499999901,
          "durationTicks": 96,
          "midi": 36,
          "name": "C2",
          "ticks": 84768,
          "time": 117.21228975000001,
          "velocity": 0.3937007874015748
        },
        {
          "duration": 0.1327432500000043,
          "durationTicks": 96,
          "midi": 36,
          "name": "C2",
          "ticks": 84960,
          "time": 117.47777625,
          "velocity": 0.3937007874015748
        },
        {
          "duration": 0.1327432499999901,
          "durationTicks": 96,
          "midi": 34,
          "name": "A#1",
          "ticks": 85056,
          "time": 117.61051950000001,
          "velocity": 0.3937007874015748
        },
        {
          "duration": 0.1327432500000043,
          "durationTicks": 96,
          "midi": 32,
          "name": "G#1",
          "ticks": 85248,
          "time": 117.876006,
          "velocity": 0.3937007874015748
        },
        {
          "duration": 0.1327432499999901,
          "durationTicks": 96,
          "midi": 32,
          "name": "G#1",
          "ticks": 85440,
          "time": 118.14149250000001,
          "velocity": 0.3937007874015748
        },
        {
          "duration": 0.1327432500000043,
          "durationTicks": 96,
          "midi": 27,
          "name": "D#1",
          "ticks": 85824,
          "time": 118.6724655,
          "velocity": 0.3937007874015748
        },
        {
          "duration": 0.1327432500000043,
          "durationTicks": 96,
          "midi": 27,
          "name": "D#1",
          "ticks": 85920,
          "time": 118.80520875,
          "velocity": 0.3937007874015748
        },
        {
          "duration": 0.1327432499999901,
          "durationTicks": 96,
          "midi": 29,
          "name": "F1",
          "ticks": 86016,
          "time": 118.93795200000001,
          "velocity": 0.3937007874015748
        },
        {
          "duration": 0.1327432500000043,
          "durationTicks": 96,
          "midi": 29,
          "name": "F1",
          "ticks": 86208,
          "time": 119.2034385,
          "velocity": 0.3937007874015748
        },
        {
          "duration": 0.1327432500000043,
          "durationTicks": 96,
          "midi": 29,
          "name": "F1",
          "ticks": 86304,
          "time": 119.33618175000001,
          "velocity": 0.3937007874015748
        },
        {
          "duration": 0.1327432500000043,
          "durationTicks": 96,
          "midi": 36,
          "name": "C2",
          "ticks": 86496,
          "time": 119.60166825,
          "velocity": 0.3937007874015748
        },
        {
          "duration": 0.1327432500000043,
          "durationTicks": 96,
          "midi": 34,
          "name": "A#1",
          "ticks": 86592,
          "time": 119.73441150000001,
          "velocity": 0.3937007874015748
        },
        {
          "duration": 0.1327432499999901,
          "durationTicks": 96,
          "midi": 32,
          "name": "G#1",
          "ticks": 86976,
          "time": 120.26538450000001,
          "velocity": 0.3937007874015748
        },
        {
          "duration": 0.1327432500000043,
          "durationTicks": 96,
          "midi": 37,
          "name": "C#2",
          "ticks": 87168,
          "time": 120.530871,
          "velocity": 0.3937007874015748
        },
        {
          "duration": 0.1327432500000043,
          "durationTicks": 96,
          "midi": 34,
          "name": "A#1",
          "ticks": 87264,
          "time": 120.66361425000001,
          "velocity": 0.3937007874015748
        },
        {
          "duration": 0.1327432500000043,
          "durationTicks": 96,
          "midi": 37,
          "name": "C#2",
          "ticks": 87456,
          "time": 120.92910075,
          "velocity": 0.3937007874015748
        },
        {
          "duration": 0.1327432500000043,
          "durationTicks": 96,
          "midi": 34,
          "name": "A#1",
          "ticks": 87552,
          "time": 121.06184400000001,
          "velocity": 0.3937007874015748
        },
        {
          "duration": 0.1327432500000043,
          "durationTicks": 96,
          "midi": 34,
          "name": "A#1",
          "ticks": 87744,
          "time": 121.3273305,
          "velocity": 0.3937007874015748
        },
        {
          "duration": 0.1327432500000043,
          "durationTicks": 96,
          "midi": 34,
          "name": "A#1",
          "ticks": 87840,
          "time": 121.46007375,
          "velocity": 0.3937007874015748
        },
        {
          "duration": 0.1327432500000043,
          "durationTicks": 96,
          "midi": 37,
          "name": "C#2",
          "ticks": 88032,
          "time": 121.72556025,
          "velocity": 0.3937007874015748
        },
        {
          "duration": 0.1327432500000043,
          "durationTicks": 96,
          "midi": 36,
          "name": "C2",
          "ticks": 88128,
          "time": 121.8583035,
          "velocity": 0.3937007874015748
        },
        {
          "duration": 0.1327432500000043,
          "durationTicks": 96,
          "midi": 32,
          "name": "G#1",
          "ticks": 88320,
          "time": 122.12379,
          "velocity": 0.3937007874015748
        },
        {
          "duration": 0.1327432500000043,
          "durationTicks": 96,
          "midi": 34,
          "name": "A#1",
          "ticks": 88512,
          "time": 122.38927650000001,
          "velocity": 0.3937007874015748
        },
        {
          "duration": 0.1327432499999901,
          "durationTicks": 96,
          "midi": 29,
          "name": "F1",
          "ticks": 88896,
          "time": 122.92024950000001,
          "velocity": 0.3937007874015748
        },
        {
          "duration": 0.1327432500000043,
          "durationTicks": 96,
          "midi": 34,
          "name": "A#1",
          "ticks": 88992,
          "time": 123.05299275,
          "velocity": 0.3937007874015748
        },
        {
          "duration": 0.1327432500000043,
          "durationTicks": 96,
          "midi": 32,
          "name": "G#1",
          "ticks": 89280,
          "time": 123.4512225,
          "velocity": 0.3937007874015748
        },
        {
          "duration": 0.1327432500000043,
          "durationTicks": 96,
          "midi": 34,
          "name": "A#1",
          "ticks": 89376,
          "time": 123.58396575,
          "velocity": 0.3937007874015748
        },
        {
          "duration": 0.1327432499999901,
          "durationTicks": 96,
          "midi": 37,
          "name": "C#2",
          "ticks": 89568,
          "time": 123.84945225000001,
          "velocity": 0.3937007874015748
        },
        {
          "duration": 0.1327432500000043,
          "durationTicks": 96,
          "midi": 36,
          "name": "C2",
          "ticks": 89664,
          "time": 123.9821955,
          "velocity": 0.3937007874015748
        },
        {
          "duration": 0.1327432500000043,
          "durationTicks": 96,
          "midi": 34,
          "name": "A#1",
          "ticks": 90048,
          "time": 124.5131685,
          "velocity": 0.3937007874015748
        },
        {
          "duration": 0.1327432500000043,
          "durationTicks": 96,
          "midi": 32,
          "name": "G#1",
          "ticks": 90432,
          "time": 125.04414150000001,
          "velocity": 0.3937007874015748
        },
        {
          "duration": 0.1327432499999901,
          "durationTicks": 96,
          "midi": 32,
          "name": "G#1",
          "ticks": 90528,
          "time": 125.17688475000001,
          "velocity": 0.3937007874015748
        },
        {
          "duration": 0.1327432500000043,
          "durationTicks": 96,
          "midi": 34,
          "name": "A#1",
          "ticks": 90624,
          "time": 125.309628,
          "velocity": 0.3937007874015748
        },
        {
          "duration": 0.1327432499999901,
          "durationTicks": 96,
          "midi": 34,
          "name": "A#1",
          "ticks": 90816,
          "time": 125.57511450000001,
          "velocity": 0.3937007874015748
        },
        {
          "duration": 0.1327432500000043,
          "durationTicks": 96,
          "midi": 34,
          "name": "A#1",
          "ticks": 90912,
          "time": 125.70785775,
          "velocity": 0.3937007874015748
        },
        {
          "duration": 0.1327432499999901,
          "durationTicks": 96,
          "midi": 37,
          "name": "C#2",
          "ticks": 91104,
          "time": 125.97334425000001,
          "velocity": 0.3937007874015748
        },
        {
          "duration": 0.1327432500000043,
          "durationTicks": 96,
          "midi": 36,
          "name": "C2",
          "ticks": 91200,
          "time": 126.1060875,
          "velocity": 0.3937007874015748
        },
        {
          "duration": 0.1327432499999901,
          "durationTicks": 96,
          "midi": 32,
          "name": "G#1",
          "ticks": 91392,
          "time": 126.37157400000001,
          "velocity": 0.3937007874015748
        },
        {
          "duration": 0.1327432500000043,
          "durationTicks": 96,
          "midi": 34,
          "name": "A#1",
          "ticks": 91584,
          "time": 126.6370605,
          "velocity": 0.3937007874015748
        },
        {
          "duration": 0.1327432500000043,
          "durationTicks": 96,
          "midi": 32,
          "name": "G#1",
          "ticks": 91968,
          "time": 127.1680335,
          "velocity": 0.3937007874015748
        },
        {
          "duration": 0.1327432499999901,
          "durationTicks": 96,
          "midi": 32,
          "name": "G#1",
          "ticks": 92064,
          "time": 127.30077675000001,
          "velocity": 0.3937007874015748
        },
        {
          "duration": 0.1327432500000043,
          "durationTicks": 96,
          "midi": 27,
          "name": "D#1",
          "ticks": 92160,
          "time": 127.43352,
          "velocity": 0.3937007874015748
        },
        {
          "duration": 0.1327432499999901,
          "durationTicks": 96,
          "midi": 27,
          "name": "D#1",
          "ticks": 92352,
          "time": 127.69900650000001,
          "velocity": 0.3937007874015748
        },
        {
          "duration": 0.1327432500000043,
          "durationTicks": 96,
          "midi": 32,
          "name": "G#1",
          "ticks": 92448,
          "time": 127.83174975,
          "velocity": 0.3937007874015748
        },
        {
          "duration": 0.1327432500000043,
          "durationTicks": 96,
          "midi": 32,
          "name": "G#1",
          "ticks": 92640,
          "time": 128.09723625,
          "velocity": 0.3937007874015748
        },
        {
          "duration": 0.1327432500000043,
          "durationTicks": 96,
          "midi": 32,
          "name": "G#1",
          "ticks": 92736,
          "time": 128.2299795,
          "velocity": 0.3937007874015748
        },
        {
          "duration": 0.1327432500000043,
          "durationTicks": 96,
          "midi": 32,
          "name": "G#1",
          "ticks": 93120,
          "time": 128.7609525,
          "velocity": 0.3937007874015748
        },
        {
          "duration": 0.1327432500000043,
          "durationTicks": 96,
          "midi": 32,
          "name": "G#1",
          "ticks": 93216,
          "time": 128.89369575,
          "velocity": 0.3937007874015748
        },
        {
          "duration": 0.1327432500000043,
          "durationTicks": 96,
          "midi": 32,
          "name": "G#1",
          "ticks": 93408,
          "time": 129.15918225000001,
          "velocity": 0.3937007874015748
        },
        {
          "duration": 0.1327432499999759,
          "durationTicks": 96,
          "midi": 34,
          "name": "A#1",
          "ticks": 93504,
          "time": 129.29192550000002,
          "velocity": 0.3937007874015748
        },
        {
          "duration": 0.1327432500000043,
          "durationTicks": 96,
          "midi": 34,
          "name": "A#1",
          "ticks": 93600,
          "time": 129.42466875,
          "velocity": 0.3937007874015748
        },
        {
          "duration": 0.1327432500000043,
          "durationTicks": 96,
          "midi": 34,
          "name": "A#1",
          "ticks": 93696,
          "time": 129.557412,
          "velocity": 0.3937007874015748
        },
        {
          "duration": 0.1327432500000043,
          "durationTicks": 96,
          "midi": 34,
          "name": "A#1",
          "ticks": 93888,
          "time": 129.8228985,
          "velocity": 0.3937007874015748
        },
        {
          "duration": 0.1327432500000043,
          "durationTicks": 96,
          "midi": 34,
          "name": "A#1",
          "ticks": 93984,
          "time": 129.95564175,
          "velocity": 0.3937007874015748
        },
        {
          "duration": 0.1327432499999759,
          "durationTicks": 96,
          "midi": 37,
          "name": "C#2",
          "ticks": 94176,
          "time": 130.22112825000002,
          "velocity": 0.3937007874015748
        },
        {
          "duration": 0.1327432500000043,
          "durationTicks": 96,
          "midi": 36,
          "name": "C2",
          "ticks": 94272,
          "time": 130.3538715,
          "velocity": 0.3937007874015748
        },
        {
          "duration": 0.1327432500000043,
          "durationTicks": 96,
          "midi": 32,
          "name": "G#1",
          "ticks": 94464,
          "time": 130.619358,
          "velocity": 0.3937007874015748
        },
        {
          "duration": 0.1327432500000043,
          "durationTicks": 96,
          "midi": 34,
          "name": "A#1",
          "ticks": 94656,
          "time": 130.8848445,
          "velocity": 0.3937007874015748
        },
        {
          "duration": 0.1327432500000043,
          "durationTicks": 96,
          "midi": 29,
          "name": "F1",
          "ticks": 95040,
          "time": 131.4158175,
          "velocity": 0.3937007874015748
        },
        {
          "duration": 0.1327432500000043,
          "durationTicks": 96,
          "midi": 34,
          "name": "A#1",
          "ticks": 95136,
          "time": 131.54856075,
          "velocity": 0.3937007874015748
        },
        {
          "duration": 0.1327432499999759,
          "durationTicks": 96,
          "midi": 32,
          "name": "G#1",
          "ticks": 95424,
          "time": 131.94679050000002,
          "velocity": 0.3937007874015748
        },
        {
          "duration": 0.1327432500000043,
          "durationTicks": 96,
          "midi": 34,
          "name": "A#1",
          "ticks": 95520,
          "time": 132.07953375,
          "velocity": 0.3937007874015748
        },
        {
          "duration": 0.1327432500000043,
          "durationTicks": 96,
          "midi": 37,
          "name": "C#2",
          "ticks": 95712,
          "time": 132.34502025,
          "velocity": 0.3937007874015748
        },
        {
          "duration": 0.1327432500000043,
          "durationTicks": 96,
          "midi": 36,
          "name": "C2",
          "ticks": 95808,
          "time": 132.4777635,
          "velocity": 0.3937007874015748
        },
        {
          "duration": 0.1327432500000043,
          "durationTicks": 96,
          "midi": 34,
          "name": "A#1",
          "ticks": 96192,
          "time": 133.0087365,
          "velocity": 0.3937007874015748
        },
        {
          "duration": 0.1327432500000043,
          "durationTicks": 96,
          "midi": 32,
          "name": "G#1",
          "ticks": 96576,
          "time": 133.53970950000001,
          "velocity": 0.3937007874015748
        },
        {
          "duration": 0.1327432499999759,
          "durationTicks": 96,
          "midi": 32,
          "name": "G#1",
          "ticks": 96672,
          "time": 133.67245275000002,
          "velocity": 0.3937007874015748
        },
        {
          "duration": 0.1327432500000043,
          "durationTicks": 96,
          "midi": 34,
          "name": "A#1",
          "ticks": 96768,
          "time": 133.805196,
          "velocity": 0.3937007874015748
        },
        {
          "duration": 0.1327432500000043,
          "durationTicks": 96,
          "midi": 34,
          "name": "A#1",
          "ticks": 96960,
          "time": 134.0706825,
          "velocity": 0.3937007874015748
        },
        {
          "duration": 0.1327432500000043,
          "durationTicks": 96,
          "midi": 34,
          "name": "A#1",
          "ticks": 97056,
          "time": 134.20342575,
          "velocity": 0.3937007874015748
        },
        {
          "duration": 0.1327432500000043,
          "durationTicks": 96,
          "midi": 37,
          "name": "C#2",
          "ticks": 97248,
          "time": 134.46891225000002,
          "velocity": 0.3937007874015748
        },
        {
          "duration": 0.1327432499999759,
          "durationTicks": 96,
          "midi": 36,
          "name": "C2",
          "ticks": 97344,
          "time": 134.60165550000002,
          "velocity": 0.3937007874015748
        },
        {
          "duration": 0.1327432500000043,
          "durationTicks": 96,
          "midi": 32,
          "name": "G#1",
          "ticks": 97536,
          "time": 134.867142,
          "velocity": 0.3937007874015748
        },
        {
          "duration": 0.1327432500000043,
          "durationTicks": 96,
          "midi": 34,
          "name": "A#1",
          "ticks": 97728,
          "time": 135.1326285,
          "velocity": 0.3937007874015748
        },
        {
          "duration": 0.1327432500000043,
          "durationTicks": 96,
          "midi": 32,
          "name": "G#1",
          "ticks": 98112,
          "time": 135.6636015,
          "velocity": 0.3937007874015748
        },
        {
          "duration": 0.1327432500000043,
          "durationTicks": 96,
          "midi": 32,
          "name": "G#1",
          "ticks": 98208,
          "time": 135.79634475,
          "velocity": 0.3937007874015748
        },
        {
          "duration": 0.1327432500000043,
          "durationTicks": 96,
          "midi": 27,
          "name": "D#1",
          "ticks": 98304,
          "time": 135.929088,
          "velocity": 0.3937007874015748
        },
        {
          "duration": 0.1327432500000043,
          "durationTicks": 96,
          "midi": 27,
          "name": "D#1",
          "ticks": 98496,
          "time": 136.19457450000002,
          "velocity": 0.3937007874015748
        },
        {
          "duration": 0.1327432499999759,
          "durationTicks": 96,
          "midi": 32,
          "name": "G#1",
          "ticks": 98592,
          "time": 136.32731775000002,
          "velocity": 0.3937007874015748
        },
        {
          "duration": 0.1327432500000043,
          "durationTicks": 96,
          "midi": 32,
          "name": "G#1",
          "ticks": 98784,
          "time": 136.59280425,
          "velocity": 0.3937007874015748
        },
        {
          "duration": 0.1327432500000043,
          "durationTicks": 96,
          "midi": 32,
          "name": "G#1",
          "ticks": 98880,
          "time": 136.7255475,
          "velocity": 0.3937007874015748
        },
        {
          "duration": 0.1327432500000043,
          "durationTicks": 96,
          "midi": 32,
          "name": "G#1",
          "ticks": 99264,
          "time": 137.2565205,
          "velocity": 0.3937007874015748
        },
        {
          "duration": 0.1327432500000043,
          "durationTicks": 96,
          "midi": 32,
          "name": "G#1",
          "ticks": 99360,
          "time": 137.38926375,
          "velocity": 0.3937007874015748
        },
        {
          "duration": 0.1327432500000043,
          "durationTicks": 96,
          "midi": 32,
          "name": "G#1",
          "ticks": 99552,
          "time": 137.65475025,
          "velocity": 0.3937007874015748
        },
        {
          "duration": 0.1327432500000043,
          "durationTicks": 96,
          "midi": 34,
          "name": "A#1",
          "ticks": 99648,
          "time": 137.7874935,
          "velocity": 0.3937007874015748
        },
        {
          "duration": 0.1327432500000043,
          "durationTicks": 96,
          "midi": 34,
          "name": "A#1",
          "ticks": 99744,
          "time": 137.92023675000002,
          "velocity": 0.3937007874015748
        },
        {
          "duration": 0.1327432499999759,
          "durationTicks": 96,
          "midi": 34,
          "name": "A#1",
          "ticks": 99840,
          "time": 138.05298000000002,
          "velocity": 0.3937007874015748
        },
        {
          "duration": 0.1327432500000043,
          "durationTicks": 96,
          "midi": 34,
          "name": "A#1",
          "ticks": 100032,
          "time": 138.3184665,
          "velocity": 0.3937007874015748
        },
        {
          "duration": 0.1327432500000043,
          "durationTicks": 96,
          "midi": 34,
          "name": "A#1",
          "ticks": 100128,
          "time": 138.45120975,
          "velocity": 0.3937007874015748
        },
        {
          "duration": 0.1327432500000043,
          "durationTicks": 96,
          "midi": 37,
          "name": "C#2",
          "ticks": 100320,
          "time": 138.71669625,
          "velocity": 0.3937007874015748
        },
        {
          "duration": 0.1327432500000043,
          "durationTicks": 96,
          "midi": 36,
          "name": "C2",
          "ticks": 100416,
          "time": 138.84943950000002,
          "velocity": 0.3937007874015748
        },
        {
          "duration": 0.1327432500000043,
          "durationTicks": 96,
          "midi": 32,
          "name": "G#1",
          "ticks": 100608,
          "time": 139.114926,
          "velocity": 0.3937007874015748
        },
        {
          "duration": 0.1327432500000043,
          "durationTicks": 96,
          "midi": 34,
          "name": "A#1",
          "ticks": 100800,
          "time": 139.3804125,
          "velocity": 0.3937007874015748
        },
        {
          "duration": 0.1327432500000043,
          "durationTicks": 96,
          "midi": 29,
          "name": "F1",
          "ticks": 101184,
          "time": 139.9113855,
          "velocity": 0.3937007874015748
        },
        {
          "duration": 0.1327432500000043,
          "durationTicks": 96,
          "midi": 34,
          "name": "A#1",
          "ticks": 101280,
          "time": 140.04412875,
          "velocity": 0.3937007874015748
        },
        {
          "duration": 0.1327432500000043,
          "durationTicks": 96,
          "midi": 32,
          "name": "G#1",
          "ticks": 101568,
          "time": 140.4423585,
          "velocity": 0.3937007874015748
        },
        {
          "duration": 0.1327432500000043,
          "durationTicks": 96,
          "midi": 34,
          "name": "A#1",
          "ticks": 101664,
          "time": 140.57510175000002,
          "velocity": 0.3937007874015748
        },
        {
          "duration": 0.1327432500000043,
          "durationTicks": 96,
          "midi": 37,
          "name": "C#2",
          "ticks": 101856,
          "time": 140.84058825,
          "velocity": 0.3937007874015748
        },
        {
          "duration": 0.1327432500000043,
          "durationTicks": 96,
          "midi": 36,
          "name": "C2",
          "ticks": 101952,
          "time": 140.9733315,
          "velocity": 0.3937007874015748
        },
        {
          "duration": 0.1327432499999759,
          "durationTicks": 96,
          "midi": 34,
          "name": "A#1",
          "ticks": 102336,
          "time": 141.50430450000002,
          "velocity": 0.3937007874015748
        },
        {
          "duration": 0.1327432500000043,
          "durationTicks": 96,
          "midi": 32,
          "name": "G#1",
          "ticks": 102720,
          "time": 142.0352775,
          "velocity": 0.3937007874015748
        },
        {
          "duration": 0.1327432500000043,
          "durationTicks": 96,
          "midi": 32,
          "name": "G#1",
          "ticks": 102816,
          "time": 142.16802075,
          "velocity": 0.3937007874015748
        },
        {
          "duration": 0.1327432500000043,
          "durationTicks": 96,
          "midi": 34,
          "name": "A#1",
          "ticks": 102912,
          "time": 142.30076400000002,
          "velocity": 0.3937007874015748
        },
        {
          "duration": 0.1327432500000043,
          "durationTicks": 96,
          "midi": 34,
          "name": "A#1",
          "ticks": 103104,
          "time": 142.5662505,
          "velocity": 0.3937007874015748
        },
        {
          "duration": 0.1327432500000043,
          "durationTicks": 96,
          "midi": 34,
          "name": "A#1",
          "ticks": 103200,
          "time": 142.69899375,
          "velocity": 0.3937007874015748
        },
        {
          "duration": 0.1327432500000043,
          "durationTicks": 96,
          "midi": 37,
          "name": "C#2",
          "ticks": 103392,
          "time": 142.96448025,
          "velocity": 0.3937007874015748
        },
        {
          "duration": 0.1327432500000043,
          "durationTicks": 96,
          "midi": 36,
          "name": "C2",
          "ticks": 103488,
          "time": 143.0972235,
          "velocity": 0.3937007874015748
        },
        {
          "duration": 0.1327432499999759,
          "durationTicks": 96,
          "midi": 32,
          "name": "G#1",
          "ticks": 103680,
          "time": 143.36271000000002,
          "velocity": 0.3937007874015748
        },
        {
          "duration": 0.1327432500000043,
          "durationTicks": 96,
          "midi": 34,
          "name": "A#1",
          "ticks": 103872,
          "time": 143.6281965,
          "velocity": 0.3937007874015748
        },
        {
          "duration": 0.1327432499999759,
          "durationTicks": 96,
          "midi": 32,
          "name": "G#1",
          "ticks": 104256,
          "time": 144.15916950000002,
          "velocity": 0.3937007874015748
        },
        {
          "duration": 0.1327432500000043,
          "durationTicks": 96,
          "midi": 32,
          "name": "G#1",
          "ticks": 104352,
          "time": 144.29191275,
          "velocity": 0.3937007874015748
        },
        {
          "duration": 0.1327432500000043,
          "durationTicks": 96,
          "midi": 27,
          "name": "D#1",
          "ticks": 104448,
          "time": 144.424656,
          "velocity": 0.3937007874015748
        },
        {
          "duration": 0.1327432500000043,
          "durationTicks": 96,
          "midi": 27,
          "name": "D#1",
          "ticks": 104640,
          "time": 144.6901425,
          "velocity": 0.3937007874015748
        },
        {
          "duration": 0.1327432500000043,
          "durationTicks": 96,
          "midi": 32,
          "name": "G#1",
          "ticks": 104736,
          "time": 144.82288575,
          "velocity": 0.3937007874015748
        },
        {
          "duration": 0.1327432499999759,
          "durationTicks": 96,
          "midi": 32,
          "name": "G#1",
          "ticks": 104928,
          "time": 145.08837225000002,
          "velocity": 0.3937007874015748
        },
        {
          "duration": 0.1327432500000043,
          "durationTicks": 96,
          "midi": 32,
          "name": "G#1",
          "ticks": 105024,
          "time": 145.2211155,
          "velocity": 0.3937007874015748
        },
        {
          "duration": 0.1327432500000043,
          "durationTicks": 96,
          "midi": 32,
          "name": "G#1",
          "ticks": 105408,
          "time": 145.7520885,
          "velocity": 0.3937007874015748
        },
        {
          "duration": 0.1327432499999759,
          "durationTicks": 96,
          "midi": 32,
          "name": "G#1",
          "ticks": 105504,
          "time": 145.88483175000002,
          "velocity": 0.3937007874015748
        },
        {
          "duration": 0.1327432500000043,
          "durationTicks": 96,
          "midi": 32,
          "name": "G#1",
          "ticks": 105696,
          "time": 146.15031825,
          "velocity": 0.3937007874015748
        },
        {
          "duration": 0.1327432500000043,
          "durationTicks": 96,
          "midi": 34,
          "name": "A#1",
          "ticks": 105792,
          "time": 146.2830615,
          "velocity": 0.3937007874015748
        },
        {
          "duration": 0.1327432500000043,
          "durationTicks": 96,
          "midi": 34,
          "name": "A#1",
          "ticks": 105888,
          "time": 146.41580475,
          "velocity": 0.3937007874015748
        },
        {
          "duration": 0.1327432500000043,
          "durationTicks": 96,
          "midi": 34,
          "name": "A#1",
          "ticks": 105984,
          "time": 146.548548,
          "velocity": 0.3937007874015748
        },
        {
          "duration": 0.1327432499999759,
          "durationTicks": 96,
          "midi": 34,
          "name": "A#1",
          "ticks": 106176,
          "time": 146.81403450000002,
          "velocity": 0.3937007874015748
        },
        {
          "duration": 0.1327432500000043,
          "durationTicks": 96,
          "midi": 34,
          "name": "A#1",
          "ticks": 106272,
          "time": 146.94677775,
          "velocity": 0.3937007874015748
        },
        {
          "duration": 0.1327432500000043,
          "durationTicks": 96,
          "midi": 37,
          "name": "C#2",
          "ticks": 106464,
          "time": 147.21226425,
          "velocity": 0.3937007874015748
        },
        {
          "duration": 0.1327432500000043,
          "durationTicks": 96,
          "midi": 36,
          "name": "C2",
          "ticks": 106560,
          "time": 147.3450075,
          "velocity": 0.3937007874015748
        },
        {
          "duration": 0.1327432500000043,
          "durationTicks": 96,
          "midi": 32,
          "name": "G#1",
          "ticks": 106752,
          "time": 147.61049400000002,
          "velocity": 0.3937007874015748
        },
        {
          "duration": 0.1327432500000043,
          "durationTicks": 96,
          "midi": 34,
          "name": "A#1",
          "ticks": 106944,
          "time": 147.8759805,
          "velocity": 0.3937007874015748
        },
        {
          "duration": 0.1327432500000043,
          "durationTicks": 96,
          "midi": 29,
          "name": "F1",
          "ticks": 107328,
          "time": 148.40695350000001,
          "velocity": 0.3937007874015748
        },
        {
          "duration": 0.1327432499999759,
          "durationTicks": 96,
          "midi": 34,
          "name": "A#1",
          "ticks": 107424,
          "time": 148.53969675000002,
          "velocity": 0.3937007874015748
        },
        {
          "duration": 0.1327432500000043,
          "durationTicks": 96,
          "midi": 32,
          "name": "G#1",
          "ticks": 107712,
          "time": 148.9379265,
          "velocity": 0.3937007874015748
        },
        {
          "duration": 0.1327432500000043,
          "durationTicks": 96,
          "midi": 34,
          "name": "A#1",
          "ticks": 107808,
          "time": 149.07066975,
          "velocity": 0.3937007874015748
        },
        {
          "duration": 0.1327432500000043,
          "durationTicks": 96,
          "midi": 37,
          "name": "C#2",
          "ticks": 108000,
          "time": 149.33615625000002,
          "velocity": 0.3937007874015748
        },
        {
          "duration": 0.1327432499999759,
          "durationTicks": 96,
          "midi": 36,
          "name": "C2",
          "ticks": 108096,
          "time": 149.46889950000002,
          "velocity": 0.3937007874015748
        },
        {
          "duration": 0.1327432500000043,
          "durationTicks": 96,
          "midi": 34,
          "name": "A#1",
          "ticks": 108480,
          "time": 149.9998725,
          "velocity": 0.3937007874015748
        },
        {
          "duration": 0.1327432500000043,
          "durationTicks": 96,
          "midi": 32,
          "name": "G#1",
          "ticks": 108864,
          "time": 150.5308455,
          "velocity": 0.3937007874015748
        },
        {
          "duration": 0.1327432500000043,
          "durationTicks": 96,
          "midi": 32,
          "name": "G#1",
          "ticks": 108960,
          "time": 150.66358875,
          "velocity": 0.3937007874015748
        },
        {
          "duration": 0.1327432500000043,
          "durationTicks": 96,
          "midi": 34,
          "name": "A#1",
          "ticks": 109056,
          "time": 150.796332,
          "velocity": 0.3937007874015748
        },
        {
          "duration": 0.1327432500000043,
          "durationTicks": 96,
          "midi": 34,
          "name": "A#1",
          "ticks": 109248,
          "time": 151.06181850000002,
          "velocity": 0.3937007874015748
        },
        {
          "duration": 0.1327432499999759,
          "durationTicks": 96,
          "midi": 34,
          "name": "A#1",
          "ticks": 109344,
          "time": 151.19456175000002,
          "velocity": 0.3937007874015748
        },
        {
          "duration": 0.1327432500000043,
          "durationTicks": 96,
          "midi": 37,
          "name": "C#2",
          "ticks": 109536,
          "time": 151.46004825,
          "velocity": 0.3937007874015748
        },
        {
          "duration": 0.1327432500000043,
          "durationTicks": 96,
          "midi": 36,
          "name": "C2",
          "ticks": 109632,
          "time": 151.5927915,
          "velocity": 0.3937007874015748
        },
        {
          "duration": 0.1327432500000043,
          "durationTicks": 96,
          "midi": 32,
          "name": "G#1",
          "ticks": 109824,
          "time": 151.858278,
          "velocity": 0.3937007874015748
        },
        {
          "duration": 0.1327432499999759,
          "durationTicks": 96,
          "midi": 34,
          "name": "A#1",
          "ticks": 110016,
          "time": 152.12376450000002,
          "velocity": 0.3937007874015748
        },
        {
          "duration": 0.1327432500000043,
          "durationTicks": 96,
          "midi": 32,
          "name": "G#1",
          "ticks": 110400,
          "time": 152.6547375,
          "velocity": 0.3937007874015748
        },
        {
          "duration": 0.1327432500000043,
          "durationTicks": 96,
          "midi": 32,
          "name": "G#1",
          "ticks": 110496,
          "time": 152.78748075000001,
          "velocity": 0.3937007874015748
        },
        {
          "duration": 0.1327432499999759,
          "durationTicks": 96,
          "midi": 27,
          "name": "D#1",
          "ticks": 110592,
          "time": 152.92022400000002,
          "velocity": 0.3937007874015748
        },
        {
          "duration": 0.1327432500000043,
          "durationTicks": 96,
          "midi": 27,
          "name": "D#1",
          "ticks": 110784,
          "time": 153.1857105,
          "velocity": 0.3937007874015748
        },
        {
          "duration": 0.1327432500000043,
          "durationTicks": 96,
          "midi": 32,
          "name": "G#1",
          "ticks": 110880,
          "time": 153.31845375,
          "velocity": 0.3937007874015748
        },
        {
          "duration": 0.1327432500000043,
          "durationTicks": 96,
          "midi": 32,
          "name": "G#1",
          "ticks": 111072,
          "time": 153.58394025,
          "velocity": 0.3937007874015748
        },
        {
          "duration": 0.1327432500000043,
          "durationTicks": 96,
          "midi": 32,
          "name": "G#1",
          "ticks": 111168,
          "time": 153.71668350000002,
          "velocity": 0.3937007874015748
        },
        {
          "duration": 0.1327432500000043,
          "durationTicks": 96,
          "midi": 32,
          "name": "G#1",
          "ticks": 111552,
          "time": 154.2476565,
          "velocity": 0.3937007874015748
        },
        {
          "duration": 0.1327432500000043,
          "durationTicks": 96,
          "midi": 32,
          "name": "G#1",
          "ticks": 111648,
          "time": 154.38039975,
          "velocity": 0.3937007874015748
        },
        {
          "duration": 0.1327432500000043,
          "durationTicks": 96,
          "midi": 32,
          "name": "G#1",
          "ticks": 111840,
          "time": 154.64588625000002,
          "velocity": 0.3937007874015748
        },
        {
          "duration": 0.1327432499999759,
          "durationTicks": 96,
          "midi": 34,
          "name": "A#1",
          "ticks": 111936,
          "time": 154.77862950000002,
          "velocity": 0.3937007874015748
        },
        {
          "duration": 0.1327432500000043,
          "durationTicks": 96,
          "midi": 34,
          "name": "A#1",
          "ticks": 112032,
          "time": 154.91137275,
          "velocity": 0.3937007874015748
        },
        {
          "duration": 0.1327432500000043,
          "durationTicks": 96,
          "midi": 34,
          "name": "A#1",
          "ticks": 124416,
          "time": 172.035252,
          "velocity": 0.3937007874015748
        },
        {
          "duration": 0.1327432499999759,
          "durationTicks": 96,
          "midi": 34,
          "name": "A#1",
          "ticks": 124608,
          "time": 172.30073850000002,
          "velocity": 0.3937007874015748
        },
        {
          "duration": 0.1327432500000043,
          "durationTicks": 96,
          "midi": 37,
          "name": "C#2",
          "ticks": 124704,
          "time": 172.43348175,
          "velocity": 0.3937007874015748
        },
        {
          "duration": 0.1327432500000043,
          "durationTicks": 96,
          "midi": 37,
          "name": "C#2",
          "ticks": 124896,
          "time": 172.69896825,
          "velocity": 0.3937007874015748
        },
        {
          "duration": 0.1327432500000043,
          "durationTicks": 96,
          "midi": 36,
          "name": "C2",
          "ticks": 124992,
          "time": 172.8317115,
          "velocity": 0.3937007874015748
        },
        {
          "duration": 0.1327432499999759,
          "durationTicks": 96,
          "midi": 32,
          "name": "G#1",
          "ticks": 125184,
          "time": 173.09719800000002,
          "velocity": 0.3937007874015748
        },
        {
          "duration": 0.1327432500000043,
          "durationTicks": 96,
          "midi": 34,
          "name": "A#1",
          "ticks": 125376,
          "time": 173.3626845,
          "velocity": 0.3937007874015748
        },
        {
          "duration": 0.1327432499999759,
          "durationTicks": 96,
          "midi": 32,
          "name": "G#1",
          "ticks": 125856,
          "time": 174.02640075000002,
          "velocity": 0.3937007874015748
        },
        {
          "duration": 0.1327432500000043,
          "durationTicks": 96,
          "midi": 34,
          "name": "A#1",
          "ticks": 125952,
          "time": 174.159144,
          "velocity": 0.3937007874015748
        },
        {
          "duration": 0.1327432500000043,
          "durationTicks": 96,
          "midi": 34,
          "name": "A#1",
          "ticks": 126144,
          "time": 174.4246305,
          "velocity": 0.3937007874015748
        },
        {
          "duration": 0.1327432500000043,
          "durationTicks": 96,
          "midi": 37,
          "name": "C#2",
          "ticks": 126240,
          "time": 174.55737375,
          "velocity": 0.3937007874015748
        },
        {
          "duration": 0.1327432499999759,
          "durationTicks": 96,
          "midi": 37,
          "name": "C#2",
          "ticks": 126432,
          "time": 174.82286025000002,
          "velocity": 0.3937007874015748
        },
        {
          "duration": 0.1327432500000043,
          "durationTicks": 96,
          "midi": 36,
          "name": "C2",
          "ticks": 126528,
          "time": 174.9556035,
          "velocity": 0.3937007874015748
        },
        {
          "duration": 0.1327432500000043,
          "durationTicks": 96,
          "midi": 32,
          "name": "G#1",
          "ticks": 126720,
          "time": 175.22109,
          "velocity": 0.3937007874015748
        },
        {
          "duration": 0.1327432500000043,
          "durationTicks": 96,
          "midi": 34,
          "name": "A#1",
          "ticks": 126912,
          "time": 175.4865765,
          "velocity": 0.3937007874015748
        },
        {
          "duration": 0.1327432500000043,
          "durationTicks": 96,
          "midi": 32,
          "name": "G#1",
          "ticks": 127296,
          "time": 176.0175495,
          "velocity": 0.3937007874015748
        },
        {
          "duration": 0.1327432500000043,
          "durationTicks": 96,
          "midi": 32,
          "name": "G#1",
          "ticks": 127392,
          "time": 176.15029275,
          "velocity": 0.3937007874015748
        },
        {
          "duration": 0.1327432500000043,
          "durationTicks": 96,
          "midi": 34,
          "name": "A#1",
          "ticks": 127488,
          "time": 176.283036,
          "velocity": 0.3937007874015748
        },
        {
          "duration": 0.1327432500000043,
          "durationTicks": 96,
          "midi": 34,
          "name": "A#1",
          "ticks": 127680,
          "time": 176.54852250000002,
          "velocity": 0.3937007874015748
        },
        {
          "duration": 0.1327432499999759,
          "durationTicks": 96,
          "midi": 37,
          "name": "C#2",
          "ticks": 127776,
          "time": 176.68126575000002,
          "velocity": 0.3937007874015748
        },
        {
          "duration": 0.1327432500000043,
          "durationTicks": 96,
          "midi": 37,
          "name": "C#2",
          "ticks": 127968,
          "time": 176.94675225,
          "velocity": 0.3937007874015748
        },
        {
          "duration": 0.1327432500000043,
          "durationTicks": 96,
          "midi": 36,
          "name": "C2",
          "ticks": 128064,
          "time": 177.0794955,
          "velocity": 0.3937007874015748
        },
        {
          "duration": 0.1327432500000043,
          "durationTicks": 96,
          "midi": 32,
          "name": "G#1",
          "ticks": 128256,
          "time": 177.34498200000002,
          "velocity": 0.3937007874015748
        },
        {
          "duration": 0.1327432500000043,
          "durationTicks": 96,
          "midi": 34,
          "name": "A#1",
          "ticks": 128448,
          "time": 177.6104685,
          "velocity": 0.3937007874015748
        },
        {
          "duration": 0.1327432500000043,
          "durationTicks": 96,
          "midi": 32,
          "name": "G#1",
          "ticks": 128928,
          "time": 178.27418475000002,
          "velocity": 0.3937007874015748
        },
        {
          "duration": 0.1327432499999759,
          "durationTicks": 96,
          "midi": 34,
          "name": "A#1",
          "ticks": 129024,
          "time": 178.40692800000002,
          "velocity": 0.3937007874015748
        },
        {
          "duration": 0.1327432500000043,
          "durationTicks": 96,
          "midi": 34,
          "name": "A#1",
          "ticks": 129216,
          "time": 178.6724145,
          "velocity": 0.3937007874015748
        },
        {
          "duration": 0.1327432500000043,
          "durationTicks": 96,
          "midi": 37,
          "name": "C#2",
          "ticks": 129312,
          "time": 178.80515775,
          "velocity": 0.3937007874015748
        },
        {
          "duration": 0.1327432500000043,
          "durationTicks": 96,
          "midi": 37,
          "name": "C#2",
          "ticks": 129504,
          "time": 179.07064425000002,
          "velocity": 0.3937007874015748
        },
        {
          "duration": 0.1327432500000043,
          "durationTicks": 96,
          "midi": 36,
          "name": "C2",
          "ticks": 129600,
          "time": 179.20338750000002,
          "velocity": 0.3937007874015748
        },
        {
          "duration": 0.1327432500000043,
          "durationTicks": 96,
          "midi": 32,
          "name": "G#1",
          "ticks": 129792,
          "time": 179.468874,
          "velocity": 0.3937007874015748
        },
        {
          "duration": 0.1327432500000043,
          "durationTicks": 96,
          "midi": 34,
          "name": "A#1",
          "ticks": 129984,
          "time": 179.7343605,
          "velocity": 0.3937007874015748
        },
        {
          "duration": 0.1327432500000043,
          "durationTicks": 96,
          "midi": 29,
          "name": "F1",
          "ticks": 130176,
          "time": 179.99984700000002,
          "velocity": 0.3937007874015748
        },
        {
          "duration": 0.1327432500000043,
          "durationTicks": 96,
          "midi": 32,
          "name": "G#1",
          "ticks": 130368,
          "time": 180.2653335,
          "velocity": 0.3937007874015748
        },
        {
          "duration": 0.1327432500000043,
          "durationTicks": 96,
          "midi": 29,
          "name": "F1",
          "ticks": 130464,
          "time": 180.39807675,
          "velocity": 0.3937007874015748
        },
        {
          "duration": 0.1327432500000043,
          "durationTicks": 96,
          "midi": 27,
          "name": "D#1",
          "ticks": 130560,
          "time": 180.53082,
          "velocity": 0.3937007874015748
        },
        {
          "duration": 0.1327432500000043,
          "durationTicks": 96,
          "midi": 27,
          "name": "D#1",
          "ticks": 130752,
          "time": 180.79630650000001,
          "velocity": 0.3937007874015748
        },
        {
          "duration": 0.1327432500000043,
          "durationTicks": 96,
          "midi": 27,
          "name": "D#1",
          "ticks": 130848,
          "time": 180.92904975000002,
          "velocity": 0.3937007874015748
        },
        {
          "duration": 0.1327432500000043,
          "durationTicks": 96,
          "midi": 36,
          "name": "C2",
          "ticks": 131040,
          "time": 181.19453625,
          "velocity": 0.3937007874015748
        },
        {
          "duration": 0.1327432500000043,
          "durationTicks": 96,
          "midi": 34,
          "name": "A#1",
          "ticks": 131136,
          "time": 181.3272795,
          "velocity": 0.3937007874015748
        },
        {
          "duration": 0.1327432500000043,
          "durationTicks": 96,
          "midi": 32,
          "name": "G#1",
          "ticks": 131328,
          "time": 181.592766,
          "velocity": 0.3937007874015748
        },
        {
          "duration": 0.1327432499999759,
          "durationTicks": 96,
          "midi": 32,
          "name": "G#1",
          "ticks": 131520,
          "time": 181.85825250000002,
          "velocity": 0.3937007874015748
        },
        {
          "duration": 0.1327432500000043,
          "durationTicks": 96,
          "midi": 27,
          "name": "D#1",
          "ticks": 131904,
          "time": 182.3892255,
          "velocity": 0.3937007874015748
        },
        {
          "duration": 0.1327432500000043,
          "durationTicks": 96,
          "midi": 32,
          "name": "G#1",
          "ticks": 132000,
          "time": 182.52196875,
          "velocity": 0.3937007874015748
        },
        {
          "duration": 0.1327432500000043,
          "durationTicks": 96,
          "midi": 29,
          "name": "F1",
          "ticks": 132096,
          "time": 182.65471200000002,
          "velocity": 0.3937007874015748
        },
        {
          "duration": 0.1327432500000043,
          "durationTicks": 96,
          "midi": 29,
          "name": "F1",
          "ticks": 132288,
          "time": 182.9201985,
          "velocity": 0.3937007874015748
        },
        {
          "duration": 0.1327432500000043,
          "durationTicks": 96,
          "midi": 36,
          "name": "C2",
          "ticks": 132384,
          "time": 183.05294175,
          "velocity": 0.3937007874015748
        },
        {
          "duration": 0.1327432500000043,
          "durationTicks": 96,
          "midi": 36,
          "name": "C2",
          "ticks": 132576,
          "time": 183.31842825,
          "velocity": 0.3937007874015748
        },
        {
          "duration": 0.1327432500000043,
          "durationTicks": 96,
          "midi": 34,
          "name": "A#1",
          "ticks": 132672,
          "time": 183.45117150000002,
          "velocity": 0.3937007874015748
        },
        {
          "duration": 0.1327432500000043,
          "durationTicks": 96,
          "midi": 34,
          "name": "A#1",
          "ticks": 133056,
          "time": 183.9821445,
          "velocity": 0.3937007874015748
        },
        {
          "duration": 0.1327432500000043,
          "durationTicks": 96,
          "midi": 34,
          "name": "A#1",
          "ticks": 133152,
          "time": 184.11488775,
          "velocity": 0.3937007874015748
        },
        {
          "duration": 0.1327432500000043,
          "durationTicks": 96,
          "midi": 36,
          "name": "C2",
          "ticks": 133344,
          "time": 184.38037425000002,
          "velocity": 0.3937007874015748
        },
        {
          "duration": 0.1327432499999759,
          "durationTicks": 96,
          "midi": 34,
          "name": "A#1",
          "ticks": 133440,
          "time": 184.51311750000002,
          "velocity": 0.3937007874015748
        },
        {
          "duration": 0.1327432500000043,
          "durationTicks": 96,
          "midi": 27,
          "name": "D#1",
          "ticks": 133632,
          "time": 184.778604,
          "velocity": 0.3937007874015748
        },
        {
          "duration": 0.1327432500000043,
          "durationTicks": 96,
          "midi": 27,
          "name": "D#1",
          "ticks": 133824,
          "time": 185.0440905,
          "velocity": 0.3937007874015748
        },
        {
          "duration": 0.1327432500000043,
          "durationTicks": 96,
          "midi": 36,
          "name": "C2",
          "ticks": 133920,
          "time": 185.17683375000001,
          "velocity": 0.3937007874015748
        },
        {
          "duration": 0.1327432499999759,
          "durationTicks": 96,
          "midi": 36,
          "name": "C2",
          "ticks": 134112,
          "time": 185.44232025000002,
          "velocity": 0.3937007874015748
        },
        {
          "duration": 0.1327432500000043,
          "durationTicks": 96,
          "midi": 34,
          "name": "A#1",
          "ticks": 134208,
          "time": 185.5750635,
          "velocity": 0.3937007874015748
        },
        {
          "duration": 0.1327432500000043,
          "durationTicks": 96,
          "midi": 32,
          "name": "G#1",
          "ticks": 134400,
          "time": 185.84055,
          "velocity": 0.3937007874015748
        },
        {
          "duration": 0.1327432500000043,
          "durationTicks": 96,
          "midi": 32,
          "name": "G#1",
          "ticks": 134592,
          "time": 186.10603650000002,
          "velocity": 0.3937007874015748
        },
        {
          "duration": 0.1327432500000043,
          "durationTicks": 96,
          "midi": 27,
          "name": "D#1",
          "ticks": 134976,
          "time": 186.6370095,
          "velocity": 0.3937007874015748
        },
        {
          "duration": 0.1327432500000043,
          "durationTicks": 96,
          "midi": 27,
          "name": "D#1",
          "ticks": 135072,
          "time": 186.76975275,
          "velocity": 0.3937007874015748
        },
        {
          "duration": 0.1327432500000043,
          "durationTicks": 96,
          "midi": 29,
          "name": "F1",
          "ticks": 135168,
          "time": 186.902496,
          "velocity": 0.3937007874015748
        },
        {
          "duration": 0.1327432499999759,
          "durationTicks": 96,
          "midi": 29,
          "name": "F1",
          "ticks": 135360,
          "time": 187.16798250000002,
          "velocity": 0.3937007874015748
        },
        {
          "duration": 0.1327432500000043,
          "durationTicks": 96,
          "midi": 29,
          "name": "F1",
          "ticks": 135456,
          "time": 187.30072575,
          "velocity": 0.3937007874015748
        },
        {
          "duration": 0.1327432500000043,
          "durationTicks": 96,
          "midi": 36,
          "name": "C2",
          "ticks": 135648,
          "time": 187.56621225,
          "velocity": 0.3937007874015748
        },
        {
          "duration": 0.1327432500000043,
          "durationTicks": 96,
          "midi": 34,
          "name": "A#1",
          "ticks": 135744,
          "time": 187.6989555,
          "velocity": 0.3937007874015748
        },
        {
          "duration": 0.1327432500000043,
          "durationTicks": 96,
          "midi": 32,
          "name": "G#1",
          "ticks": 136128,
          "time": 188.2299285,
          "velocity": 0.3937007874015748
        },
        {
          "duration": 0.1327432500000043,
          "durationTicks": 96,
          "midi": 37,
          "name": "C#2",
          "ticks": 136320,
          "time": 188.495415,
          "velocity": 0.3937007874015748
        },
        {
          "duration": 0.1327432500000043,
          "durationTicks": 96,
          "midi": 34,
          "name": "A#1",
          "ticks": 136416,
          "time": 188.62815825,
          "velocity": 0.3937007874015748
        },
        {
          "duration": 0.1327432499999759,
          "durationTicks": 96,
          "midi": 37,
          "name": "C#2",
          "ticks": 136608,
          "time": 188.89364475000002,
          "velocity": 0.3937007874015748
        },
        {
          "duration": 0.1327432500000043,
          "durationTicks": 96,
          "midi": 27,
          "name": "D#1",
          "ticks": 136704,
          "time": 189.026388,
          "velocity": 0.3937007874015748
        },
        {
          "duration": 0.1327432500000043,
          "durationTicks": 96,
          "midi": 27,
          "name": "D#1",
          "ticks": 136896,
          "time": 189.2918745,
          "velocity": 0.3937007874015748
        },
        {
          "duration": 0.1327432500000043,
          "durationTicks": 96,
          "midi": 27,
          "name": "D#1",
          "ticks": 136992,
          "time": 189.42461775,
          "velocity": 0.3937007874015748
        },
        {
          "duration": 0.1327432500000043,
          "durationTicks": 96,
          "midi": 36,
          "name": "C2",
          "ticks": 137184,
          "time": 189.69010425000002,
          "velocity": 0.3937007874015748
        },
        {
          "duration": 0.1327432499999759,
          "durationTicks": 96,
          "midi": 34,
          "name": "A#1",
          "ticks": 137280,
          "time": 189.82284750000002,
          "velocity": 0.3937007874015748
        },
        {
          "duration": 0.1327432500000043,
          "durationTicks": 96,
          "midi": 32,
          "name": "G#1",
          "ticks": 137472,
          "time": 190.088334,
          "velocity": 0.3937007874015748
        },
        {
          "duration": 0.1327432500000043,
          "durationTicks": 96,
          "midi": 32,
          "name": "G#1",
          "ticks": 137664,
          "time": 190.3538205,
          "velocity": 0.3937007874015748
        },
        {
          "duration": 0.1327432500000043,
          "durationTicks": 96,
          "midi": 27,
          "name": "D#1",
          "ticks": 138048,
          "time": 190.8847935,
          "velocity": 0.3937007874015748
        },
        {
          "duration": 0.1327432500000043,
          "durationTicks": 96,
          "midi": 32,
          "name": "G#1",
          "ticks": 138144,
          "time": 191.01753675,
          "velocity": 0.3937007874015748
        },
        {
          "duration": 0.1327432500000043,
          "durationTicks": 96,
          "midi": 29,
          "name": "F1",
          "ticks": 138240,
          "time": 191.15028,
          "velocity": 0.3937007874015748
        },
        {
          "duration": 0.1327432500000043,
          "durationTicks": 96,
          "midi": 29,
          "name": "F1",
          "ticks": 138432,
          "time": 191.41576650000002,
          "velocity": 0.3937007874015748
        },
        {
          "duration": 0.1327432499999759,
          "durationTicks": 96,
          "midi": 36,
          "name": "C2",
          "ticks": 138528,
          "time": 191.54850975000002,
          "velocity": 0.3937007874015748
        },
        {
          "duration": 0.1327432500000043,
          "durationTicks": 96,
          "midi": 36,
          "name": "C2",
          "ticks": 138720,
          "time": 191.81399625,
          "velocity": 0.3937007874015748
        },
        {
          "duration": 0.1327432500000043,
          "durationTicks": 96,
          "midi": 34,
          "name": "A#1",
          "ticks": 138816,
          "time": 191.9467395,
          "velocity": 0.3937007874015748
        },
        {
          "duration": 0.1327432499999759,
          "durationTicks": 96,
          "midi": 34,
          "name": "A#1",
          "ticks": 139200,
          "time": 192.47771250000002,
          "velocity": 0.3937007874015748
        },
        {
          "duration": 0.1327432500000043,
          "durationTicks": 96,
          "midi": 34,
          "name": "A#1",
          "ticks": 139296,
          "time": 192.61045575,
          "velocity": 0.3937007874015748
        },
        {
          "duration": 0.1327432500000043,
          "durationTicks": 96,
          "midi": 36,
          "name": "C2",
          "ticks": 139488,
          "time": 192.87594225,
          "velocity": 0.3937007874015748
        },
        {
          "duration": 0.1327432500000043,
          "durationTicks": 96,
          "midi": 34,
          "name": "A#1",
          "ticks": 139584,
          "time": 193.0086855,
          "velocity": 0.3937007874015748
        },
        {
          "duration": 0.1327432499999759,
          "durationTicks": 96,
          "midi": 27,
          "name": "D#1",
          "ticks": 139776,
          "time": 193.27417200000002,
          "velocity": 0.3937007874015748
        },
        {
          "duration": 0.1327432500000043,
          "durationTicks": 96,
          "midi": 27,
          "name": "D#1",
          "ticks": 139968,
          "time": 193.5396585,
          "velocity": 0.3937007874015748
        },
        {
          "duration": 0.1327432500000043,
          "durationTicks": 96,
          "midi": 36,
          "name": "C2",
          "ticks": 140064,
          "time": 193.67240175,
          "velocity": 0.3937007874015748
        },
        {
          "duration": 0.1327432500000043,
          "durationTicks": 96,
          "midi": 36,
          "name": "C2",
          "ticks": 140256,
          "time": 193.93788825000001,
          "velocity": 0.3937007874015748
        },
        {
          "duration": 0.1327432500000043,
          "durationTicks": 96,
          "midi": 34,
          "name": "A#1",
          "ticks": 140352,
          "time": 194.07063150000002,
          "velocity": 0.3937007874015748
        },
        {
          "duration": 0.1327432500000043,
          "durationTicks": 96,
          "midi": 32,
          "name": "G#1",
          "ticks": 140544,
          "time": 194.336118,
          "velocity": 0.3937007874015748
        },
        {
          "duration": 0.1327432500000043,
          "durationTicks": 96,
          "midi": 32,
          "name": "G#1",
          "ticks": 140736,
          "time": 194.6016045,
          "velocity": 0.3937007874015748
        },
        {
          "duration": 0.1327432500000043,
          "durationTicks": 96,
          "midi": 27,
          "name": "D#1",
          "ticks": 141120,
          "time": 195.1325775,
          "velocity": 0.3937007874015748
        },
        {
          "duration": 0.1327432500000043,
          "durationTicks": 96,
          "midi": 27,
          "name": "D#1",
          "ticks": 141216,
          "time": 195.26532075,
          "velocity": 0.3937007874015748
        },
        {
          "duration": 0.1327432500000043,
          "durationTicks": 96,
          "midi": 29,
          "name": "F1",
          "ticks": 141312,
          "time": 195.398064,
          "velocity": 0.3937007874015748
        },
        {
          "duration": 0.1327432500000043,
          "durationTicks": 96,
          "midi": 29,
          "name": "F1",
          "ticks": 141504,
          "time": 195.6635505,
          "velocity": 0.3937007874015748
        },
        {
          "duration": 0.1327432500000043,
          "durationTicks": 96,
          "midi": 29,
          "name": "F1",
          "ticks": 141600,
          "time": 195.79629375000002,
          "velocity": 0.3937007874015748
        },
        {
          "duration": 0.1327432500000043,
          "durationTicks": 96,
          "midi": 36,
          "name": "C2",
          "ticks": 141792,
          "time": 196.06178025,
          "velocity": 0.3937007874015748
        },
        {
          "duration": 0.1327432500000043,
          "durationTicks": 96,
          "midi": 34,
          "name": "A#1",
          "ticks": 141888,
          "time": 196.1945235,
          "velocity": 0.3937007874015748
        },
        {
          "duration": 0.1327432500000043,
          "durationTicks": 96,
          "midi": 32,
          "name": "G#1",
          "ticks": 142272,
          "time": 196.72549650000002,
          "velocity": 0.3937007874015748
        },
        {
          "duration": 0.1327432500000043,
          "durationTicks": 96,
          "midi": 37,
          "name": "C#2",
          "ticks": 142464,
          "time": 196.990983,
          "velocity": 0.3937007874015748
        },
        {
          "duration": 0.1327432500000043,
          "durationTicks": 96,
          "midi": 34,
          "name": "A#1",
          "ticks": 142560,
          "time": 197.12372625,
          "velocity": 0.3937007874015748
        },
        {
          "duration": 0.1327432500000043,
          "durationTicks": 96,
          "midi": 37,
          "name": "C#2",
          "ticks": 142752,
          "time": 197.38921275,
          "velocity": 0.3937007874015748
        },
        {
          "duration": 0.1327432500000043,
          "durationTicks": 96,
          "midi": 27,
          "name": "D#1",
          "ticks": 142848,
          "time": 197.52195600000002,
          "velocity": 0.3937007874015748
        },
        {
          "duration": 0.1327432500000043,
          "durationTicks": 96,
          "midi": 27,
          "name": "D#1",
          "ticks": 143040,
          "time": 197.7874425,
          "velocity": 0.3937007874015748
        },
        {
          "duration": 0.1327432500000043,
          "durationTicks": 96,
          "midi": 27,
          "name": "D#1",
          "ticks": 143136,
          "time": 197.92018575,
          "velocity": 0.3937007874015748
        },
        {
          "duration": 0.1327432500000043,
          "durationTicks": 96,
          "midi": 36,
          "name": "C2",
          "ticks": 143328,
          "time": 198.18567225,
          "velocity": 0.3937007874015748
        },
        {
          "duration": 0.1327432500000043,
          "durationTicks": 96,
          "midi": 34,
          "name": "A#1",
          "ticks": 143424,
          "time": 198.31841550000001,
          "velocity": 0.3937007874015748
        },
        {
          "duration": 0.1327432499999759,
          "durationTicks": 96,
          "midi": 32,
          "name": "G#1",
          "ticks": 143616,
          "time": 198.58390200000002,
          "velocity": 0.3937007874015748
        },
        {
          "duration": 0.1327432500000043,
          "durationTicks": 96,
          "midi": 32,
          "name": "G#1",
          "ticks": 143808,
          "time": 198.8493885,
          "velocity": 0.3937007874015748
        },
        {
          "duration": 0.1327432499999759,
          "durationTicks": 96,
          "midi": 27,
          "name": "D#1",
          "ticks": 144192,
          "time": 199.38036150000002,
          "velocity": 0.3937007874015748
        },
        {
          "duration": 0.1327432500000043,
          "durationTicks": 96,
          "midi": 32,
          "name": "G#1",
          "ticks": 144288,
          "time": 199.51310475,
          "velocity": 0.3937007874015748
        },
        {
          "duration": 0.1327432500000043,
          "durationTicks": 96,
          "midi": 29,
          "name": "F1",
          "ticks": 144384,
          "time": 199.645848,
          "velocity": 0.3937007874015748
        },
        {
          "duration": 0.1327432500000043,
          "durationTicks": 96,
          "midi": 29,
          "name": "F1",
          "ticks": 144576,
          "time": 199.9113345,
          "velocity": 0.3937007874015748
        },
        {
          "duration": 0.1327432500000043,
          "durationTicks": 96,
          "midi": 36,
          "name": "C2",
          "ticks": 144672,
          "time": 200.04407775,
          "velocity": 0.3937007874015748
        },
        {
          "duration": 0.1327432499999759,
          "durationTicks": 96,
          "midi": 36,
          "name": "C2",
          "ticks": 144864,
          "time": 200.30956425000002,
          "velocity": 0.3937007874015748
        },
        {
          "duration": 0.1327432500000043,
          "durationTicks": 96,
          "midi": 34,
          "name": "A#1",
          "ticks": 144960,
          "time": 200.4423075,
          "velocity": 0.3937007874015748
        },
        {
          "duration": 0.1327432500000043,
          "durationTicks": 96,
          "midi": 34,
          "name": "A#1",
          "ticks": 145344,
          "time": 200.97328050000002,
          "velocity": 0.3937007874015748
        },
        {
          "duration": 0.1327432500000043,
          "durationTicks": 96,
          "midi": 34,
          "name": "A#1",
          "ticks": 145440,
          "time": 201.10602375000002,
          "velocity": 0.3937007874015748
        },
        {
          "duration": 0.1327432500000043,
          "durationTicks": 96,
          "midi": 36,
          "name": "C2",
          "ticks": 145632,
          "time": 201.37151025,
          "velocity": 0.3937007874015748
        },
        {
          "duration": 0.1327432500000043,
          "durationTicks": 96,
          "midi": 34,
          "name": "A#1",
          "ticks": 145728,
          "time": 201.5042535,
          "velocity": 0.3937007874015748
        },
        {
          "duration": 0.1327432500000043,
          "durationTicks": 96,
          "midi": 27,
          "name": "D#1",
          "ticks": 145920,
          "time": 201.76974,
          "velocity": 0.3937007874015748
        },
        {
          "duration": 0.1327432499999759,
          "durationTicks": 96,
          "midi": 27,
          "name": "D#1",
          "ticks": 146112,
          "time": 202.03522650000002,
          "velocity": 0.3937007874015748
        },
        {
          "duration": 0.1327432500000043,
          "durationTicks": 96,
          "midi": 36,
          "name": "C2",
          "ticks": 146208,
          "time": 202.16796975,
          "velocity": 0.3937007874015748
        },
        {
          "duration": 0.1327432500000043,
          "durationTicks": 96,
          "midi": 36,
          "name": "C2",
          "ticks": 146400,
          "time": 202.43345625,
          "velocity": 0.3937007874015748
        },
        {
          "duration": 0.1327432500000043,
          "durationTicks": 96,
          "midi": 34,
          "name": "A#1",
          "ticks": 146496,
          "time": 202.5661995,
          "velocity": 0.3937007874015748
        },
        {
          "duration": 0.1327432500000043,
          "durationTicks": 96,
          "midi": 32,
          "name": "G#1",
          "ticks": 146688,
          "time": 202.83168600000002,
          "velocity": 0.3937007874015748
        },
        {
          "duration": 0.1327432500000043,
          "durationTicks": 96,
          "midi": 32,
          "name": "G#1",
          "ticks": 146880,
          "time": 203.0971725,
          "velocity": 0.3937007874015748
        },
        {
          "duration": 0.1327432500000043,
          "durationTicks": 96,
          "midi": 27,
          "name": "D#1",
          "ticks": 147264,
          "time": 203.62814550000002,
          "velocity": 0.3937007874015748
        },
        {
          "duration": 0.1327432500000043,
          "durationTicks": 96,
          "midi": 27,
          "name": "D#1",
          "ticks": 147360,
          "time": 203.76088875000002,
          "velocity": 0.3937007874015748
        },
        {
          "duration": 0.1327432499999759,
          "durationTicks": 96,
          "midi": 29,
          "name": "F1",
          "ticks": 147456,
          "time": 203.89363200000003,
          "velocity": 0.3937007874015748
        },
        {
          "duration": 0.1327432500000043,
          "durationTicks": 96,
          "midi": 29,
          "name": "F1",
          "ticks": 147648,
          "time": 204.1591185,
          "velocity": 0.3937007874015748
        },
        {
          "duration": 0.1327432500000043,
          "durationTicks": 96,
          "midi": 29,
          "name": "F1",
          "ticks": 147744,
          "time": 204.29186175,
          "velocity": 0.3937007874015748
        },
        {
          "duration": 0.1327432500000043,
          "durationTicks": 96,
          "midi": 36,
          "name": "C2",
          "ticks": 147936,
          "time": 204.55734825000002,
          "velocity": 0.3937007874015748
        },
        {
          "duration": 0.1327432499999759,
          "durationTicks": 96,
          "midi": 34,
          "name": "A#1",
          "ticks": 148032,
          "time": 204.69009150000002,
          "velocity": 0.3937007874015748
        },
        {
          "duration": 0.1327432500000043,
          "durationTicks": 96,
          "midi": 32,
          "name": "G#1",
          "ticks": 148416,
          "time": 205.2210645,
          "velocity": 0.3937007874015748
        },
        {
          "duration": 0.1327432500000043,
          "durationTicks": 96,
          "midi": 37,
          "name": "C#2",
          "ticks": 148608,
          "time": 205.48655100000002,
          "velocity": 0.3937007874015748
        },
        {
          "duration": 0.1327432499999759,
          "durationTicks": 96,
          "midi": 34,
          "name": "A#1",
          "ticks": 148704,
          "time": 205.61929425000002,
          "velocity": 0.3937007874015748
        },
        {
          "duration": 0.1327432500000043,
          "durationTicks": 96,
          "midi": 37,
          "name": "C#2",
          "ticks": 148896,
          "time": 205.88478075,
          "velocity": 0.3937007874015748
        },
        {
          "duration": 0.1327432500000043,
          "durationTicks": 96,
          "midi": 27,
          "name": "D#1",
          "ticks": 148992,
          "time": 206.017524,
          "velocity": 0.3937007874015748
        },
        {
          "duration": 0.1327432500000043,
          "durationTicks": 96,
          "midi": 27,
          "name": "D#1",
          "ticks": 149184,
          "time": 206.28301050000002,
          "velocity": 0.3937007874015748
        },
        {
          "duration": 0.1327432499999759,
          "durationTicks": 96,
          "midi": 27,
          "name": "D#1",
          "ticks": 149280,
          "time": 206.41575375000002,
          "velocity": 0.3937007874015748
        },
        {
          "duration": 0.1327432500000043,
          "durationTicks": 96,
          "midi": 36,
          "name": "C2",
          "ticks": 149472,
          "time": 206.68124025,
          "velocity": 0.3937007874015748
        },
        {
          "duration": 0.1327432500000043,
          "durationTicks": 96,
          "midi": 34,
          "name": "A#1",
          "ticks": 149568,
          "time": 206.8139835,
          "velocity": 0.3937007874015748
        },
        {
          "duration": 0.1327432500000043,
          "durationTicks": 96,
          "midi": 32,
          "name": "G#1",
          "ticks": 149760,
          "time": 207.07947000000001,
          "velocity": 0.3937007874015748
        },
        {
          "duration": 0.1327432499999759,
          "durationTicks": 96,
          "midi": 32,
          "name": "G#1",
          "ticks": 149952,
          "time": 207.34495650000002,
          "velocity": 0.3937007874015748
        },
        {
          "duration": 0.1327432500000043,
          "durationTicks": 96,
          "midi": 27,
          "name": "D#1",
          "ticks": 150336,
          "time": 207.8759295,
          "velocity": 0.3937007874015748
        },
        {
          "duration": 0.1327432500000043,
          "durationTicks": 96,
          "midi": 32,
          "name": "G#1",
          "ticks": 150432,
          "time": 208.00867275000002,
          "velocity": 0.3937007874015748
        },
        {
          "duration": 0.1327432500000043,
          "durationTicks": 96,
          "midi": 29,
          "name": "F1",
          "ticks": 150528,
          "time": 208.14141600000002,
          "velocity": 0.3937007874015748
        },
        {
          "duration": 0.1327432500000043,
          "durationTicks": 96,
          "midi": 29,
          "name": "F1",
          "ticks": 150720,
          "time": 208.4069025,
          "velocity": 0.3937007874015748
        },
        {
          "duration": 0.1327432500000043,
          "durationTicks": 96,
          "midi": 36,
          "name": "C2",
          "ticks": 150816,
          "time": 208.53964575,
          "velocity": 0.3937007874015748
        },
        {
          "duration": 0.1327432500000043,
          "durationTicks": 96,
          "midi": 36,
          "name": "C2",
          "ticks": 151008,
          "time": 208.80513225,
          "velocity": 0.3937007874015748
        },
        {
          "duration": 0.1327432500000043,
          "durationTicks": 96,
          "midi": 34,
          "name": "A#1",
          "ticks": 151104,
          "time": 208.93787550000002,
          "velocity": 0.3937007874015748
        },
        {
          "duration": 0.1327432500000043,
          "durationTicks": 96,
          "midi": 34,
          "name": "A#1",
          "ticks": 151488,
          "time": 209.4688485,
          "velocity": 0.3937007874015748
        },
        {
          "duration": 0.1327432500000043,
          "durationTicks": 96,
          "midi": 34,
          "name": "A#1",
          "ticks": 151584,
          "time": 209.60159175,
          "velocity": 0.3937007874015748
        },
        {
          "duration": 0.1327432500000043,
          "durationTicks": 96,
          "midi": 36,
          "name": "C2",
          "ticks": 151776,
          "time": 209.86707825000002,
          "velocity": 0.3937007874015748
        },
        {
          "duration": 0.1327432499999759,
          "durationTicks": 96,
          "midi": 34,
          "name": "A#1",
          "ticks": 151872,
          "time": 209.99982150000002,
          "velocity": 0.3937007874015748
        },
        {
          "duration": 0.1327432500000043,
          "durationTicks": 96,
          "midi": 27,
          "name": "D#1",
          "ticks": 152064,
          "time": 210.265308,
          "velocity": 0.3937007874015748
        },
        {
          "duration": 0.1327432500000043,
          "durationTicks": 96,
          "midi": 27,
          "name": "D#1",
          "ticks": 152256,
          "time": 210.5307945,
          "velocity": 0.3937007874015748
        },
        {
          "duration": 0.1327432500000043,
          "durationTicks": 96,
          "midi": 36,
          "name": "C2",
          "ticks": 152352,
          "time": 210.66353775000002,
          "velocity": 0.3937007874015748
        },
        {
          "duration": 0.1327432500000043,
          "durationTicks": 96,
          "midi": 36,
          "name": "C2",
          "ticks": 152544,
          "time": 210.92902425,
          "velocity": 0.3937007874015748
        },
        {
          "duration": 0.1327432500000043,
          "durationTicks": 96,
          "midi": 34,
          "name": "A#1",
          "ticks": 152640,
          "time": 211.0617675,
          "velocity": 0.3937007874015748
        },
        {
          "duration": 0.1327432500000043,
          "durationTicks": 96,
          "midi": 32,
          "name": "G#1",
          "ticks": 152832,
          "time": 211.327254,
          "velocity": 0.3937007874015748
        },
        {
          "duration": 0.1327432500000043,
          "durationTicks": 96,
          "midi": 32,
          "name": "G#1",
          "ticks": 153024,
          "time": 211.59274050000002,
          "velocity": 0.3937007874015748
        },
        {
          "duration": 0.1327432500000043,
          "durationTicks": 96,
          "midi": 27,
          "name": "D#1",
          "ticks": 153408,
          "time": 212.1237135,
          "velocity": 0.3937007874015748
        },
        {
          "duration": 0.1327432500000043,
          "durationTicks": 96,
          "midi": 27,
          "name": "D#1",
          "ticks": 153504,
          "time": 212.25645675,
          "velocity": 0.3937007874015748
        },
        {
          "duration": 0.1327432500000043,
          "durationTicks": 96,
          "midi": 29,
          "name": "F1",
          "ticks": 153600,
          "time": 212.38920000000002,
          "velocity": 0.3937007874015748
        },
        {
          "duration": 0.1327432499999759,
          "durationTicks": 96,
          "midi": 29,
          "name": "F1",
          "ticks": 153792,
          "time": 212.65468650000003,
          "velocity": 0.3937007874015748
        },
        {
          "duration": 0.1327432500000043,
          "durationTicks": 96,
          "midi": 29,
          "name": "F1",
          "ticks": 153888,
          "time": 212.78742975,
          "velocity": 0.3937007874015748
        },
        {
          "duration": 0.1327432500000043,
          "durationTicks": 96,
          "midi": 36,
          "name": "C2",
          "ticks": 154080,
          "time": 213.05291625,
          "velocity": 0.3937007874015748
        },
        {
          "duration": 0.1327432500000043,
          "durationTicks": 96,
          "midi": 34,
          "name": "A#1",
          "ticks": 154176,
          "time": 213.1856595,
          "velocity": 0.3937007874015748
        },
        {
          "duration": 0.1327432500000043,
          "durationTicks": 96,
          "midi": 32,
          "name": "G#1",
          "ticks": 154560,
          "time": 213.7166325,
          "velocity": 0.3937007874015748
        },
        {
          "duration": 0.1327432500000043,
          "durationTicks": 96,
          "midi": 37,
          "name": "C#2",
          "ticks": 154752,
          "time": 213.982119,
          "velocity": 0.3937007874015748
        },
        {
          "duration": 0.1327432500000043,
          "durationTicks": 96,
          "midi": 34,
          "name": "A#1",
          "ticks": 154848,
          "time": 214.11486225000002,
          "velocity": 0.3937007874015748
        },
        {
          "duration": 0.1327432499999759,
          "durationTicks": 96,
          "midi": 37,
          "name": "C#2",
          "ticks": 155040,
          "time": 214.38034875000002,
          "velocity": 0.3937007874015748
        },
        {
          "duration": 0.1327432500000043,
          "durationTicks": 96,
          "midi": 34,
          "name": "A#1",
          "ticks": 155136,
          "time": 214.513092,
          "velocity": 0.3937007874015748
        },
        {
          "duration": 0.1327432500000043,
          "durationTicks": 96,
          "midi": 34,
          "name": "A#1",
          "ticks": 155328,
          "time": 214.7785785,
          "velocity": 0.3937007874015748
        },
        {
          "duration": 0.1327432500000043,
          "durationTicks": 96,
          "midi": 34,
          "name": "A#1",
          "ticks": 155424,
          "time": 214.91132175,
          "velocity": 0.3937007874015748
        },
        {
          "duration": 0.1327432499999759,
          "durationTicks": 96,
          "midi": 37,
          "name": "C#2",
          "ticks": 155616,
          "time": 215.17680825000002,
          "velocity": 0.3937007874015748
        },
        {
          "duration": 0.1327432500000043,
          "durationTicks": 96,
          "midi": 36,
          "name": "C2",
          "ticks": 155712,
          "time": 215.3095515,
          "velocity": 0.3937007874015748
        },
        {
          "duration": 0.1327432500000043,
          "durationTicks": 96,
          "midi": 32,
          "name": "G#1",
          "ticks": 155904,
          "time": 215.575038,
          "velocity": 0.3937007874015748
        },
        {
          "duration": 0.1327432500000043,
          "durationTicks": 96,
          "midi": 34,
          "name": "A#1",
          "ticks": 156096,
          "time": 215.84052450000001,
          "velocity": 0.3937007874015748
        },
        {
          "duration": 0.1327432500000043,
          "durationTicks": 96,
          "midi": 29,
          "name": "F1",
          "ticks": 156480,
          "time": 216.3714975,
          "velocity": 0.3937007874015748
        },
        {
          "duration": 0.1327432500000043,
          "durationTicks": 96,
          "midi": 34,
          "name": "A#1",
          "ticks": 156576,
          "time": 216.50424075,
          "velocity": 0.3937007874015748
        },
        {
          "duration": 0.1327432500000043,
          "durationTicks": 96,
          "midi": 32,
          "name": "G#1",
          "ticks": 156864,
          "time": 216.90247050000002,
          "velocity": 0.3937007874015748
        },
        {
          "duration": 0.1327432499999759,
          "durationTicks": 96,
          "midi": 34,
          "name": "A#1",
          "ticks": 156960,
          "time": 217.03521375000003,
          "velocity": 0.3937007874015748
        },
        {
          "duration": 0.1327432500000043,
          "durationTicks": 96,
          "midi": 37,
          "name": "C#2",
          "ticks": 157152,
          "time": 217.30070025,
          "velocity": 0.3937007874015748
        },
        {
          "duration": 0.1327432500000043,
          "durationTicks": 96,
          "midi": 36,
          "name": "C2",
          "ticks": 157248,
          "time": 217.4334435,
          "velocity": 0.3937007874015748
        },
        {
          "duration": 0.1327432500000043,
          "durationTicks": 96,
          "midi": 34,
          "name": "A#1",
          "ticks": 157632,
          "time": 217.9644165,
          "velocity": 0.3937007874015748
        },
        {
          "duration": 0.1327432500000043,
          "durationTicks": 96,
          "midi": 32,
          "name": "G#1",
          "ticks": 158016,
          "time": 218.49538950000002,
          "velocity": 0.3937007874015748
        },
        {
          "duration": 0.1327432500000043,
          "durationTicks": 96,
          "midi": 32,
          "name": "G#1",
          "ticks": 158112,
          "time": 218.62813275000002,
          "velocity": 0.3937007874015748
        },
        {
          "duration": 0.1327432499999759,
          "durationTicks": 96,
          "midi": 34,
          "name": "A#1",
          "ticks": 158208,
          "time": 218.76087600000002,
          "velocity": 0.3937007874015748
        },
        {
          "duration": 0.1327432500000043,
          "durationTicks": 96,
          "midi": 34,
          "name": "A#1",
          "ticks": 158400,
          "time": 219.0263625,
          "velocity": 0.3937007874015748
        },
        {
          "duration": 0.1327432500000043,
          "durationTicks": 96,
          "midi": 34,
          "name": "A#1",
          "ticks": 158496,
          "time": 219.15910575,
          "velocity": 0.3937007874015748
        },
        {
          "duration": 0.1327432500000043,
          "durationTicks": 96,
          "midi": 37,
          "name": "C#2",
          "ticks": 158688,
          "time": 219.42459225000002,
          "velocity": 0.3937007874015748
        },
        {
          "duration": 0.1327432499999759,
          "durationTicks": 96,
          "midi": 36,
          "name": "C2",
          "ticks": 158784,
          "time": 219.55733550000002,
          "velocity": 0.3937007874015748
        },
        {
          "duration": 0.1327432500000043,
          "durationTicks": 96,
          "midi": 32,
          "name": "G#1",
          "ticks": 158976,
          "time": 219.822822,
          "velocity": 0.3937007874015748
        },
        {
          "duration": 0.1327432500000043,
          "durationTicks": 96,
          "midi": 34,
          "name": "A#1",
          "ticks": 159168,
          "time": 220.0883085,
          "velocity": 0.3937007874015748
        },
        {
          "duration": 0.1327432500000043,
          "durationTicks": 96,
          "midi": 32,
          "name": "G#1",
          "ticks": 159552,
          "time": 220.6192815,
          "velocity": 0.3937007874015748
        },
        {
          "duration": 0.1327432500000043,
          "durationTicks": 96,
          "midi": 32,
          "name": "G#1",
          "ticks": 159648,
          "time": 220.75202475,
          "velocity": 0.3937007874015748
        },
        {
          "duration": 0.1327432500000043,
          "durationTicks": 96,
          "midi": 27,
          "name": "D#1",
          "ticks": 159744,
          "time": 220.884768,
          "velocity": 0.3937007874015748
        },
        {
          "duration": 0.1327432500000043,
          "durationTicks": 96,
          "midi": 27,
          "name": "D#1",
          "ticks": 159936,
          "time": 221.15025450000002,
          "velocity": 0.3937007874015748
        },
        {
          "duration": 0.1327432500000043,
          "durationTicks": 96,
          "midi": 32,
          "name": "G#1",
          "ticks": 160032,
          "time": 221.28299775000002,
          "velocity": 0.3937007874015748
        },
        {
          "duration": 0.1327432500000043,
          "durationTicks": 96,
          "midi": 32,
          "name": "G#1",
          "ticks": 160224,
          "time": 221.54848425,
          "velocity": 0.3937007874015748
        },
        {
          "duration": 0.1327432500000043,
          "durationTicks": 96,
          "midi": 32,
          "name": "G#1",
          "ticks": 160320,
          "time": 221.6812275,
          "velocity": 0.3937007874015748
        },
        {
          "duration": 0.1327432499999759,
          "durationTicks": 96,
          "midi": 32,
          "name": "G#1",
          "ticks": 160704,
          "time": 222.21220050000002,
          "velocity": 0.3937007874015748
        },
        {
          "duration": 0.1327432500000043,
          "durationTicks": 96,
          "midi": 32,
          "name": "G#1",
          "ticks": 160800,
          "time": 222.34494375,
          "velocity": 0.3937007874015748
        },
        {
          "duration": 0.1327432500000043,
          "durationTicks": 96,
          "midi": 32,
          "name": "G#1",
          "ticks": 160992,
          "time": 222.61043025,
          "velocity": 0.3937007874015748
        },
        {
          "duration": 0.1327432500000043,
          "durationTicks": 96,
          "midi": 34,
          "name": "A#1",
          "ticks": 161088,
          "time": 222.7431735,
          "velocity": 0.3937007874015748
        },
        {
          "duration": 0.1327432500000043,
          "durationTicks": 96,
          "midi": 34,
          "name": "A#1",
          "ticks": 161184,
          "time": 222.87591675000002,
          "velocity": 0.3937007874015748
        },
        {
          "duration": 0.1327432500000043,
          "durationTicks": 96,
          "midi": 34,
          "name": "A#1",
          "ticks": 161280,
          "time": 223.00866000000002,
          "velocity": 0.3937007874015748
        },
        {
          "duration": 0.1327432500000043,
          "durationTicks": 96,
          "midi": 34,
          "name": "A#1",
          "ticks": 161472,
          "time": 223.2741465,
          "velocity": 0.3937007874015748
        },
        {
          "duration": 0.1327432500000043,
          "durationTicks": 96,
          "midi": 34,
          "name": "A#1",
          "ticks": 161568,
          "time": 223.40688975,
          "velocity": 0.3937007874015748
        },
        {
          "duration": 0.1327432500000043,
          "durationTicks": 96,
          "midi": 37,
          "name": "C#2",
          "ticks": 161760,
          "time": 223.67237625,
          "velocity": 0.3937007874015748
        },
        {
          "duration": 0.1327432500000043,
          "durationTicks": 96,
          "midi": 36,
          "name": "C2",
          "ticks": 161856,
          "time": 223.80511950000002,
          "velocity": 0.3937007874015748
        },
        {
          "duration": 0.1327432500000043,
          "durationTicks": 96,
          "midi": 32,
          "name": "G#1",
          "ticks": 162048,
          "time": 224.070606,
          "velocity": 0.3937007874015748
        },
        {
          "duration": 0.1327432500000043,
          "durationTicks": 96,
          "midi": 34,
          "name": "A#1",
          "ticks": 162240,
          "time": 224.3360925,
          "velocity": 0.3937007874015748
        },
        {
          "duration": 0.1327432499999759,
          "durationTicks": 96,
          "midi": 29,
          "name": "F1",
          "ticks": 162624,
          "time": 224.86706550000002,
          "velocity": 0.3937007874015748
        },
        {
          "duration": 0.1327432500000043,
          "durationTicks": 96,
          "midi": 34,
          "name": "A#1",
          "ticks": 162720,
          "time": 224.99980875,
          "velocity": 0.3937007874015748
        },
        {
          "duration": 0.1327432500000043,
          "durationTicks": 96,
          "midi": 32,
          "name": "G#1",
          "ticks": 163008,
          "time": 225.3980385,
          "velocity": 0.3937007874015748
        },
        {
          "duration": 0.1327432500000043,
          "durationTicks": 96,
          "midi": 34,
          "name": "A#1",
          "ticks": 163104,
          "time": 225.53078175000002,
          "velocity": 0.3937007874015748
        },
        {
          "duration": 0.1327432499999759,
          "durationTicks": 96,
          "midi": 37,
          "name": "C#2",
          "ticks": 163296,
          "time": 225.79626825000003,
          "velocity": 0.3937007874015748
        },
        {
          "duration": 0.1327432500000043,
          "durationTicks": 96,
          "midi": 36,
          "name": "C2",
          "ticks": 163392,
          "time": 225.9290115,
          "velocity": 0.3937007874015748
        },
        {
          "duration": 0.1327432500000043,
          "durationTicks": 96,
          "midi": 34,
          "name": "A#1",
          "ticks": 163776,
          "time": 226.45998450000002,
          "velocity": 0.3937007874015748
        },
        {
          "duration": 0.1327432500000043,
          "durationTicks": 96,
          "midi": 32,
          "name": "G#1",
          "ticks": 164160,
          "time": 226.9909575,
          "velocity": 0.3937007874015748
        },
        {
          "duration": 0.1327432500000043,
          "durationTicks": 96,
          "midi": 32,
          "name": "G#1",
          "ticks": 164256,
          "time": 227.12370075,
          "velocity": 0.3937007874015748
        },
        {
          "duration": 0.1327432500000043,
          "durationTicks": 96,
          "midi": 34,
          "name": "A#1",
          "ticks": 164352,
          "time": 227.25644400000002,
          "velocity": 0.3937007874015748
        },
        {
          "duration": 0.1327432499999759,
          "durationTicks": 96,
          "midi": 34,
          "name": "A#1",
          "ticks": 164544,
          "time": 227.52193050000002,
          "velocity": 0.3937007874015748
        },
        {
          "duration": 0.1327432500000043,
          "durationTicks": 96,
          "midi": 34,
          "name": "A#1",
          "ticks": 164640,
          "time": 227.65467375,
          "velocity": 0.3937007874015748
        },
        {
          "duration": 0.1327432500000043,
          "durationTicks": 96,
          "midi": 37,
          "name": "C#2",
          "ticks": 164832,
          "time": 227.92016025,
          "velocity": 0.3937007874015748
        },
        {
          "duration": 0.1327432500000043,
          "durationTicks": 96,
          "midi": 36,
          "name": "C2",
          "ticks": 164928,
          "time": 228.0529035,
          "velocity": 0.3937007874015748
        },
        {
          "duration": 0.1327432499999759,
          "durationTicks": 96,
          "midi": 32,
          "name": "G#1",
          "ticks": 165120,
          "time": 228.31839000000002,
          "velocity": 0.3937007874015748
        },
        {
          "duration": 0.1327432500000043,
          "durationTicks": 96,
          "midi": 34,
          "name": "A#1",
          "ticks": 165312,
          "time": 228.5838765,
          "velocity": 0.3937007874015748
        },
        {
          "duration": 0.1327432500000043,
          "durationTicks": 96,
          "midi": 32,
          "name": "G#1",
          "ticks": 165696,
          "time": 229.11484950000002,
          "velocity": 0.3937007874015748
        },
        {
          "duration": 0.1327432499999759,
          "durationTicks": 96,
          "midi": 32,
          "name": "G#1",
          "ticks": 165792,
          "time": 229.24759275000002,
          "velocity": 0.3937007874015748
        },
        {
          "duration": 0.1327432500000043,
          "durationTicks": 96,
          "midi": 27,
          "name": "D#1",
          "ticks": 165888,
          "time": 229.380336,
          "velocity": 0.3937007874015748
        },
        {
          "duration": 0.1327432500000043,
          "durationTicks": 96,
          "midi": 27,
          "name": "D#1",
          "ticks": 166080,
          "time": 229.6458225,
          "velocity": 0.3937007874015748
        },
        {
          "duration": 0.1327432500000043,
          "durationTicks": 96,
          "midi": 32,
          "name": "G#1",
          "ticks": 166176,
          "time": 229.77856575,
          "velocity": 0.3937007874015748
        },
        {
          "duration": 0.1327432500000043,
          "durationTicks": 96,
          "midi": 32,
          "name": "G#1",
          "ticks": 166368,
          "time": 230.04405225000002,
          "velocity": 0.3937007874015748
        },
        {
          "duration": 0.1327432499999759,
          "durationTicks": 96,
          "midi": 32,
          "name": "G#1",
          "ticks": 166464,
          "time": 230.17679550000003,
          "velocity": 0.3937007874015748
        },
        {
          "duration": 0.1327432500000043,
          "durationTicks": 96,
          "midi": 32,
          "name": "G#1",
          "ticks": 166848,
          "time": 230.70776850000001,
          "velocity": 0.3937007874015748
        },
        {
          "duration": 0.1327432500000043,
          "durationTicks": 96,
          "midi": 32,
          "name": "G#1",
          "ticks": 166944,
          "time": 230.84051175000002,
          "velocity": 0.3937007874015748
        },
        {
          "duration": 0.1327432500000043,
          "durationTicks": 96,
          "midi": 32,
          "name": "G#1",
          "ticks": 167136,
          "time": 231.10599825,
          "velocity": 0.3937007874015748
        },
        {
          "duration": 0.1327432500000043,
          "durationTicks": 96,
          "midi": 34,
          "name": "A#1",
          "ticks": 167232,
          "time": 231.2387415,
          "velocity": 0.3937007874015748
        },
        {
          "duration": 0.1327432500000043,
          "durationTicks": 96,
          "midi": 34,
          "name": "A#1",
          "ticks": 167328,
          "time": 231.37148475,
          "velocity": 0.3937007874015748
        },
        {
          "duration": 0.1327432500000043,
          "durationTicks": 96,
          "midi": 34,
          "name": "A#1",
          "ticks": 173386,
          "time": 239.74813692187502,
          "velocity": 0.3937007874015748
        }
      ],
      "endOfTrackTicks": 173482
    },
    {
      "channel": 2,
      "controlChanges": {},
      "pitchBends": [],
      "instrument": {
        "family": "synth lead",
        "number": 80,
        "name": "lead 1 (square)"
      },
      "name": "Smooth Synth (Classic)",
      "notes": [
        {
          "duration": 0.7964595000000001,
          "durationTicks": 576,
          "midi": 61,
          "name": "C#4",
          "ticks": 1536,
          "time": 2.123892,
          "velocity": 0.5039370078740157
        },
        {
          "duration": 0.7964595000000001,
          "durationTicks": 576,
          "midi": 58,
          "name": "A#3",
          "ticks": 1536,
          "time": 2.123892,
          "velocity": 0.5039370078740157
        },
        {
          "duration": 0.7964595000000001,
          "durationTicks": 576,
          "midi": 66,
          "name": "F#4",
          "ticks": 1536,
          "time": 2.123892,
          "velocity": 0.5039370078740157
        },
        {
          "duration": 2.123892,
          "durationTicks": 1536,
          "midi": 63,
          "name": "D#4",
          "ticks": 2112,
          "time": 2.9203515,
          "velocity": 0.5039370078740157
        },
        {
          "duration": 2.123892,
          "durationTicks": 1536,
          "midi": 60,
          "name": "C4",
          "ticks": 2112,
          "time": 2.9203515,
          "velocity": 0.5039370078740157
        },
        {
          "duration": 3.4513245000000006,
          "durationTicks": 2496,
          "midi": 68,
          "name": "G#4",
          "ticks": 2112,
          "time": 2.9203515,
          "velocity": 0.5039370078740157
        },
        {
          "duration": 0.7964595000000001,
          "durationTicks": 576,
          "midi": 61,
          "name": "C#4",
          "ticks": 3648,
          "time": 5.0442435,
          "velocity": 0.5039370078740157
        },
        {
          "duration": 0.92920275,
          "durationTicks": 672,
          "midi": 65,
          "name": "F4",
          "ticks": 3648,
          "time": 5.0442435,
          "velocity": 0.5039370078740157
        },
        {
          "duration": 0.5309730000000004,
          "durationTicks": 384,
          "midi": 60,
          "name": "C4",
          "ticks": 4224,
          "time": 5.840703,
          "velocity": 0.5039370078740157
        },
        {
          "duration": 0.5309730000000004,
          "durationTicks": 384,
          "midi": 63,
          "name": "D#4",
          "ticks": 4224,
          "time": 5.840703,
          "velocity": 0.5039370078740157
        },
        {
          "duration": 0.7964594999999992,
          "durationTicks": 576,
          "midi": 61,
          "name": "C#4",
          "ticks": 4608,
          "time": 6.371676000000001,
          "velocity": 0.5039370078740157
        },
        {
          "duration": 0.7964594999999992,
          "durationTicks": 576,
          "midi": 58,
          "name": "A#3",
          "ticks": 4608,
          "time": 6.371676000000001,
          "velocity": 0.5039370078740157
        },
        {
          "duration": 0.92920275,
          "durationTicks": 672,
          "midi": 66,
          "name": "F#4",
          "ticks": 4608,
          "time": 6.371676000000001,
          "velocity": 0.5039370078740157
        },
        {
          "duration": 1.8584055,
          "durationTicks": 1344,
          "midi": 60,
          "name": "C4",
          "ticks": 5184,
          "time": 7.1681355,
          "velocity": 0.5039370078740157
        },
        {
          "duration": 1.8584055,
          "durationTicks": 1344,
          "midi": 63,
          "name": "D#4",
          "ticks": 5184,
          "time": 7.1681355,
          "velocity": 0.5039370078740157
        },
        {
          "duration": 3.318581250000001,
          "durationTicks": 2400,
          "midi": 68,
          "name": "G#4",
          "ticks": 5184,
          "time": 7.1681355,
          "velocity": 0.5039370078740157
        },
        {
          "duration": 0.5309729999999995,
          "durationTicks": 384,
          "midi": 56,
          "name": "G#3",
          "ticks": 6144,
          "time": 8.495568,
          "velocity": 0.5039370078740157
        },
        {
          "duration": 1.4601757500000012,
          "durationTicks": 1056,
          "midi": 65,
          "name": "F4",
          "ticks": 6528,
          "time": 9.026541,
          "velocity": 0.5039370078740157
        },
        {
          "duration": 1.4601757500000012,
          "durationTicks": 1056,
          "midi": 61,
          "name": "C#4",
          "ticks": 6528,
          "time": 9.026541,
          "velocity": 0.5039370078740157
        },
        {
          "duration": 0.796459500000001,
          "durationTicks": 576,
          "midi": 61,
          "name": "C#4",
          "ticks": 7680,
          "time": 10.61946,
          "velocity": 0.5039370078740157
        },
        {
          "duration": 0.796459500000001,
          "durationTicks": 576,
          "midi": 58,
          "name": "A#3",
          "ticks": 7680,
          "time": 10.61946,
          "velocity": 0.5039370078740157
        },
        {
          "duration": 0.796459500000001,
          "durationTicks": 576,
          "midi": 66,
          "name": "F#4",
          "ticks": 7680,
          "time": 10.61946,
          "velocity": 0.5039370078740157
        },
        {
          "duration": 2.1238919999999997,
          "durationTicks": 1536,
          "midi": 63,
          "name": "D#4",
          "ticks": 8256,
          "time": 11.415919500000001,
          "velocity": 0.5039370078740157
        },
        {
          "duration": 2.1238919999999997,
          "durationTicks": 1536,
          "midi": 60,
          "name": "C4",
          "ticks": 8256,
          "time": 11.415919500000001,
          "velocity": 0.5039370078740157
        },
        {
          "duration": 3.4513245,
          "durationTicks": 2496,
          "midi": 68,
          "name": "G#4",
          "ticks": 8256,
          "time": 11.415919500000001,
          "velocity": 0.5039370078740157
        },
        {
          "duration": 0.7964594999999992,
          "durationTicks": 576,
          "midi": 61,
          "name": "C#4",
          "ticks": 9792,
          "time": 13.5398115,
          "velocity": 0.5039370078740157
        },
        {
          "duration": 0.92920275,
          "durationTicks": 672,
          "midi": 65,
          "name": "F4",
          "ticks": 9792,
          "time": 13.5398115,
          "velocity": 0.5039370078740157
        },
        {
          "duration": 0.5309730000000012,
          "durationTicks": 384,
          "midi": 60,
          "name": "C4",
          "ticks": 10368,
          "time": 14.336271,
          "velocity": 0.5039370078740157
        },
        {
          "duration": 0.5309730000000012,
          "durationTicks": 384,
          "midi": 63,
          "name": "D#4",
          "ticks": 10368,
          "time": 14.336271,
          "velocity": 0.5039370078740157
        },
        {
          "duration": 0.7964594999999992,
          "durationTicks": 576,
          "midi": 61,
          "name": "C#4",
          "ticks": 10752,
          "time": 14.867244000000001,
          "velocity": 0.5039370078740157
        },
        {
          "duration": 0.7964594999999992,
          "durationTicks": 576,
          "midi": 58,
          "name": "A#3",
          "ticks": 10752,
          "time": 14.867244000000001,
          "velocity": 0.5039370078740157
        },
        {
          "duration": 0.92920275,
          "durationTicks": 672,
          "midi": 66,
          "name": "F#4",
          "ticks": 10752,
          "time": 14.867244000000001,
          "velocity": 0.5039370078740157
        },
        {
          "duration": 1.8584055,
          "durationTicks": 1344,
          "midi": 60,
          "name": "C4",
          "ticks": 11328,
          "time": 15.6637035,
          "velocity": 0.5039370078740157
        },
        {
          "duration": 1.8584055,
          "durationTicks": 1344,
          "midi": 63,
          "name": "D#4",
          "ticks": 11328,
          "time": 15.6637035,
          "velocity": 0.5039370078740157
        },
        {
          "duration": 3.318581250000001,
          "durationTicks": 2400,
          "midi": 68,
          "name": "G#4",
          "ticks": 11328,
          "time": 15.6637035,
          "velocity": 0.5039370078740157
        },
        {
          "duration": 0.5309729999999995,
          "durationTicks": 384,
          "midi": 56,
          "name": "G#3",
          "ticks": 12288,
          "time": 16.991136,
          "velocity": 0.5039370078740157
        },
        {
          "duration": 1.4601757500000012,
          "durationTicks": 1056,
          "midi": 65,
          "name": "F4",
          "ticks": 12672,
          "time": 17.522109,
          "velocity": 0.5039370078740157
        },
        {
          "duration": 1.4601757500000012,
          "durationTicks": 1056,
          "midi": 61,
          "name": "C#4",
          "ticks": 12672,
          "time": 17.522109,
          "velocity": 0.5039370078740157
        },
        {
          "duration": 0.7964594999999974,
          "durationTicks": 576,
          "midi": 61,
          "name": "C#4",
          "ticks": 32256,
          "time": 44.601732000000005,
          "velocity": 0.5039370078740157
        },
        {
          "duration": 0.7964594999999974,
          "durationTicks": 576,
          "midi": 58,
          "name": "A#3",
          "ticks": 32256,
          "time": 44.601732000000005,
          "velocity": 0.5039370078740157
        },
        {
          "duration": 0.7964594999999974,
          "durationTicks": 576,
          "midi": 66,
          "name": "F#4",
          "ticks": 32256,
          "time": 44.601732000000005,
          "velocity": 0.5039370078740157
        },
        {
          "duration": 2.123891999999998,
          "durationTicks": 1536,
          "midi": 63,
          "name": "D#4",
          "ticks": 32832,
          "time": 45.3981915,
          "velocity": 0.5039370078740157
        },
        {
          "duration": 2.123891999999998,
          "durationTicks": 1536,
          "midi": 60,
          "name": "C4",
          "ticks": 32832,
          "time": 45.3981915,
          "velocity": 0.5039370078740157
        },
        {
          "duration": 3.4513244999999984,
          "durationTicks": 2496,
          "midi": 68,
          "name": "G#4",
          "ticks": 32832,
          "time": 45.3981915,
          "velocity": 0.5039370078740157
        },
        {
          "duration": 0.7964595000000045,
          "durationTicks": 576,
          "midi": 61,
          "name": "C#4",
          "ticks": 34368,
          "time": 47.5220835,
          "velocity": 0.5039370078740157
        },
        {
          "duration": 0.9292027500000017,
          "durationTicks": 672,
          "midi": 65,
          "name": "F4",
          "ticks": 34368,
          "time": 47.5220835,
          "velocity": 0.5039370078740157
        },
        {
          "duration": 0.5309729999999959,
          "durationTicks": 384,
          "midi": 60,
          "name": "C4",
          "ticks": 34944,
          "time": 48.318543000000005,
          "velocity": 0.5039370078740157
        },
        {
          "duration": 0.5309729999999959,
          "durationTicks": 384,
          "midi": 63,
          "name": "D#4",
          "ticks": 34944,
          "time": 48.318543000000005,
          "velocity": 0.5039370078740157
        },
        {
          "duration": 0.7964595000000045,
          "durationTicks": 576,
          "midi": 61,
          "name": "C#4",
          "ticks": 35328,
          "time": 48.849516,
          "velocity": 0.5039370078740157
        },
        {
          "duration": 0.7964595000000045,
          "durationTicks": 576,
          "midi": 58,
          "name": "A#3",
          "ticks": 35328,
          "time": 48.849516,
          "velocity": 0.5039370078740157
        },
        {
          "duration": 0.9292027500000017,
          "durationTicks": 672,
          "midi": 66,
          "name": "F#4",
          "ticks": 35328,
          "time": 48.849516,
          "velocity": 0.5039370078740157
        },
        {
          "duration": 1.8584054999999964,
          "durationTicks": 1344,
          "midi": 60,
          "name": "C4",
          "ticks": 35904,
          "time": 49.645975500000006,
          "velocity": 0.5039370078740157
        },
        {
          "duration": 1.8584054999999964,
          "durationTicks": 1344,
          "midi": 63,
          "name": "D#4",
          "ticks": 35904,
          "time": 49.645975500000006,
          "velocity": 0.5039370078740157
        },
        {
          "duration": 3.318581249999994,
          "durationTicks": 2400,
          "midi": 68,
          "name": "G#4",
          "ticks": 35904,
          "time": 49.645975500000006,
          "velocity": 0.5039370078740157
        },
        {
          "duration": 0.5309729999999959,
          "durationTicks": 384,
          "midi": 56,
          "name": "G#3",
          "ticks": 36864,
          "time": 50.973408000000006,
          "velocity": 0.5039370078740157
        },
        {
          "duration": 1.4601757499999977,
          "durationTicks": 1056,
          "midi": 65,
          "name": "F4",
          "ticks": 37248,
          "time": 51.504381,
          "velocity": 0.5039370078740157
        },
        {
          "duration": 1.4601757499999977,
          "durationTicks": 1056,
          "midi": 61,
          "name": "C#4",
          "ticks": 37248,
          "time": 51.504381,
          "velocity": 0.5039370078740157
        },
        {
          "duration": 0.7964594999999974,
          "durationTicks": 576,
          "midi": 61,
          "name": "C#4",
          "ticks": 38400,
          "time": 53.097300000000004,
          "velocity": 0.5039370078740157
        },
        {
          "duration": 0.7964594999999974,
          "durationTicks": 576,
          "midi": 58,
          "name": "A#3",
          "ticks": 38400,
          "time": 53.097300000000004,
          "velocity": 0.5039370078740157
        },
        {
          "duration": 0.7964594999999974,
          "durationTicks": 576,
          "midi": 66,
          "name": "F#4",
          "ticks": 38400,
          "time": 53.097300000000004,
          "velocity": 0.5039370078740157
        },
        {
          "duration": 2.123891999999998,
          "durationTicks": 1536,
          "midi": 63,
          "name": "D#4",
          "ticks": 38976,
          "time": 53.8937595,
          "velocity": 0.5039370078740157
        },
        {
          "duration": 2.123891999999998,
          "durationTicks": 1536,
          "midi": 60,
          "name": "C4",
          "ticks": 38976,
          "time": 53.8937595,
          "velocity": 0.5039370078740157
        },
        {
          "duration": 3.4513244999999984,
          "durationTicks": 2496,
          "midi": 68,
          "name": "G#4",
          "ticks": 38976,
          "time": 53.8937595,
          "velocity": 0.5039370078740157
        },
        {
          "duration": 0.7964595000000045,
          "durationTicks": 576,
          "midi": 61,
          "name": "C#4",
          "ticks": 40512,
          "time": 56.0176515,
          "velocity": 0.5039370078740157
        },
        {
          "duration": 0.9292027500000017,
          "durationTicks": 672,
          "midi": 65,
          "name": "F4",
          "ticks": 40512,
          "time": 56.0176515,
          "velocity": 0.5039370078740157
        },
        {
          "duration": 0.5309729999999959,
          "durationTicks": 384,
          "midi": 60,
          "name": "C4",
          "ticks": 41088,
          "time": 56.814111000000004,
          "velocity": 0.5039370078740157
        },
        {
          "duration": 0.5309729999999959,
          "durationTicks": 384,
          "midi": 63,
          "name": "D#4",
          "ticks": 41088,
          "time": 56.814111000000004,
          "velocity": 0.5039370078740157
        },
        {
          "duration": 0.7964595000000045,
          "durationTicks": 576,
          "midi": 61,
          "name": "C#4",
          "ticks": 41472,
          "time": 57.345084,
          "velocity": 0.5039370078740157
        },
        {
          "duration": 0.7964595000000045,
          "durationTicks": 576,
          "midi": 58,
          "name": "A#3",
          "ticks": 41472,
          "time": 57.345084,
          "velocity": 0.5039370078740157
        },
        {
          "duration": 0.9292027500000017,
          "durationTicks": 672,
          "midi": 66,
          "name": "F#4",
          "ticks": 41472,
          "time": 57.345084,
          "velocity": 0.5039370078740157
        },
        {
          "duration": 1.8584054999999964,
          "durationTicks": 1344,
          "midi": 60,
          "name": "C4",
          "ticks": 42048,
          "time": 58.141543500000004,
          "velocity": 0.5039370078740157
        },
        {
          "duration": 1.8584054999999964,
          "durationTicks": 1344,
          "midi": 63,
          "name": "D#4",
          "ticks": 42048,
          "time": 58.141543500000004,
          "velocity": 0.5039370078740157
        },
        {
          "duration": 3.318581250000001,
          "durationTicks": 2400,
          "midi": 68,
          "name": "G#4",
          "ticks": 42048,
          "time": 58.141543500000004,
          "velocity": 0.5039370078740157
        },
        {
          "duration": 0.5309729999999959,
          "durationTicks": 384,
          "midi": 56,
          "name": "G#3",
          "ticks": 43008,
          "time": 59.468976000000005,
          "velocity": 0.5039370078740157
        },
        {
          "duration": 1.4601757500000048,
          "durationTicks": 1056,
          "midi": 65,
          "name": "F4",
          "ticks": 43392,
          "time": 59.999949,
          "velocity": 0.5039370078740157
        },
        {
          "duration": 1.4601757500000048,
          "durationTicks": 1056,
          "midi": 61,
          "name": "C#4",
          "ticks": 43392,
          "time": 59.999949,
          "velocity": 0.5039370078740157
        },
        {
          "duration": 0.7964595000000116,
          "durationTicks": 576,
          "midi": 61,
          "name": "C#4",
          "ticks": 62976,
          "time": 87.079572,
          "velocity": 0.5039370078740157
        },
        {
          "duration": 0.7964595000000116,
          "durationTicks": 576,
          "midi": 58,
          "name": "A#3",
          "ticks": 62976,
          "time": 87.079572,
          "velocity": 0.5039370078740157
        },
        {
          "duration": 0.7964595000000116,
          "durationTicks": 576,
          "midi": 66,
          "name": "F#4",
          "ticks": 62976,
          "time": 87.079572,
          "velocity": 0.5039370078740157
        },
        {
          "duration": 2.123891999999998,
          "durationTicks": 1536,
          "midi": 63,
          "name": "D#4",
          "ticks": 63552,
          "time": 87.87603150000001,
          "velocity": 0.5039370078740157
        },
        {
          "duration": 2.123891999999998,
          "durationTicks": 1536,
          "midi": 60,
          "name": "C4",
          "ticks": 63552,
          "time": 87.87603150000001,
          "velocity": 0.5039370078740157
        },
        {
          "duration": 3.4513244999999984,
          "durationTicks": 2496,
          "midi": 68,
          "name": "G#4",
          "ticks": 63552,
          "time": 87.87603150000001,
          "velocity": 0.5039370078740157
        },
        {
          "duration": 0.7964594999999974,
          "durationTicks": 576,
          "midi": 61,
          "name": "C#4",
          "ticks": 65088,
          "time": 89.99992350000001,
          "velocity": 0.5039370078740157
        },
        {
          "duration": 0.9292027500000017,
          "durationTicks": 672,
          "midi": 65,
          "name": "F4",
          "ticks": 65088,
          "time": 89.99992350000001,
          "velocity": 0.5039370078740157
        },
        {
          "duration": 0.530973000000003,
          "durationTicks": 384,
          "midi": 60,
          "name": "C4",
          "ticks": 65664,
          "time": 90.796383,
          "velocity": 0.5039370078740157
        },
        {
          "duration": 0.530973000000003,
          "durationTicks": 384,
          "midi": 63,
          "name": "D#4",
          "ticks": 65664,
          "time": 90.796383,
          "velocity": 0.5039370078740157
        },
        {
          "duration": 0.7964594999999974,
          "durationTicks": 576,
          "midi": 61,
          "name": "C#4",
          "ticks": 66048,
          "time": 91.32735600000001,
          "velocity": 0.5039370078740157
        },
        {
          "duration": 0.7964594999999974,
          "durationTicks": 576,
          "midi": 58,
          "name": "A#3",
          "ticks": 66048,
          "time": 91.32735600000001,
          "velocity": 0.5039370078740157
        },
        {
          "duration": 0.9292027500000017,
          "durationTicks": 672,
          "midi": 66,
          "name": "F#4",
          "ticks": 66048,
          "time": 91.32735600000001,
          "velocity": 0.5039370078740157
        },
        {
          "duration": 1.8584055000000035,
          "durationTicks": 1344,
          "midi": 60,
          "name": "C4",
          "ticks": 66624,
          "time": 92.1238155,
          "velocity": 0.5039370078740157
        },
        {
          "duration": 1.8584055000000035,
          "durationTicks": 1344,
          "midi": 63,
          "name": "D#4",
          "ticks": 66624,
          "time": 92.1238155,
          "velocity": 0.5039370078740157
        },
        {
          "duration": 3.318581249999994,
          "durationTicks": 2400,
          "midi": 68,
          "name": "G#4",
          "ticks": 66624,
          "time": 92.1238155,
          "velocity": 0.5039370078740157
        },
        {
          "duration": 0.530973000000003,
          "durationTicks": 384,
          "midi": 56,
          "name": "G#3",
          "ticks": 67584,
          "time": 93.451248,
          "velocity": 0.5039370078740157
        },
        {
          "duration": 1.4601757499999906,
          "durationTicks": 1056,
          "midi": 65,
          "name": "F4",
          "ticks": 67968,
          "time": 93.98222100000001,
          "velocity": 0.5039370078740157
        },
        {
          "duration": 1.4601757499999906,
          "durationTicks": 1056,
          "midi": 61,
          "name": "C#4",
          "ticks": 67968,
          "time": 93.98222100000001,
          "velocity": 0.5039370078740157
        },
        {
          "duration": 0.7964594999999974,
          "durationTicks": 576,
          "midi": 61,
          "name": "C#4",
          "ticks": 69120,
          "time": 95.57514,
          "velocity": 0.5039370078740157
        },
        {
          "duration": 0.7964594999999974,
          "durationTicks": 576,
          "midi": 58,
          "name": "A#3",
          "ticks": 69120,
          "time": 95.57514,
          "velocity": 0.5039370078740157
        },
        {
          "duration": 0.7964594999999974,
          "durationTicks": 576,
          "midi": 66,
          "name": "F#4",
          "ticks": 69120,
          "time": 95.57514,
          "velocity": 0.5039370078740157
        },
        {
          "duration": 2.123891999999998,
          "durationTicks": 1536,
          "midi": 63,
          "name": "D#4",
          "ticks": 69696,
          "time": 96.3715995,
          "velocity": 0.5039370078740157
        },
        {
          "duration": 2.123891999999998,
          "durationTicks": 1536,
          "midi": 60,
          "name": "C4",
          "ticks": 69696,
          "time": 96.3715995,
          "velocity": 0.5039370078740157
        },
        {
          "duration": 3.4513244999999984,
          "durationTicks": 2496,
          "midi": 68,
          "name": "G#4",
          "ticks": 69696,
          "time": 96.3715995,
          "velocity": 0.5039370078740157
        },
        {
          "duration": 0.7964595000000116,
          "durationTicks": 576,
          "midi": 61,
          "name": "C#4",
          "ticks": 71232,
          "time": 98.4954915,
          "velocity": 0.5039370078740157
        },
        {
          "duration": 0.9292027500000017,
          "durationTicks": 672,
          "midi": 65,
          "name": "F4",
          "ticks": 71232,
          "time": 98.4954915,
          "velocity": 0.5039370078740157
        },
        {
          "duration": 0.5309729999999888,
          "durationTicks": 384,
          "midi": 60,
          "name": "C4",
          "ticks": 71808,
          "time": 99.29195100000001,
          "velocity": 0.5039370078740157
        },
        {
          "duration": 0.5309729999999888,
          "durationTicks": 384,
          "midi": 63,
          "name": "D#4",
          "ticks": 71808,
          "time": 99.29195100000001,
          "velocity": 0.5039370078740157
        },
        {
          "duration": 0.7964595000000116,
          "durationTicks": 576,
          "midi": 61,
          "name": "C#4",
          "ticks": 72192,
          "time": 99.822924,
          "velocity": 0.5039370078740157
        },
        {
          "duration": 0.7964595000000116,
          "durationTicks": 576,
          "midi": 58,
          "name": "A#3",
          "ticks": 72192,
          "time": 99.822924,
          "velocity": 0.5039370078740157
        },
        {
          "duration": 0.9292027500000017,
          "durationTicks": 672,
          "midi": 66,
          "name": "F#4",
          "ticks": 72192,
          "time": 99.822924,
          "velocity": 0.5039370078740157
        },
        {
          "duration": 1.8584054999999893,
          "durationTicks": 1344,
          "midi": 60,
          "name": "C4",
          "ticks": 72768,
          "time": 100.61938350000001,
          "velocity": 0.5039370078740157
        },
        {
          "duration": 1.8584054999999893,
          "durationTicks": 1344,
          "midi": 63,
          "name": "D#4",
          "ticks": 72768,
          "time": 100.61938350000001,
          "velocity": 0.5039370078740157
        },
        {
          "duration": 3.318581249999994,
          "durationTicks": 2400,
          "midi": 68,
          "name": "G#4",
          "ticks": 72768,
          "time": 100.61938350000001,
          "velocity": 0.5039370078740157
        },
        {
          "duration": 0.5309729999999888,
          "durationTicks": 384,
          "midi": 56,
          "name": "G#3",
          "ticks": 73728,
          "time": 101.94681600000001,
          "velocity": 0.5039370078740157
        },
        {
          "duration": 1.4601757500000048,
          "durationTicks": 1056,
          "midi": 65,
          "name": "F4",
          "ticks": 74112,
          "time": 102.477789,
          "velocity": 0.5039370078740157
        },
        {
          "duration": 1.4601757500000048,
          "durationTicks": 1056,
          "midi": 61,
          "name": "C#4",
          "ticks": 74112,
          "time": 102.477789,
          "velocity": 0.5039370078740157
        },
        {
          "duration": 0.7964594999999974,
          "durationTicks": 576,
          "midi": 61,
          "name": "C#4",
          "ticks": 75264,
          "time": 104.07070800000001,
          "velocity": 0.5039370078740157
        },
        {
          "duration": 0.7964594999999974,
          "durationTicks": 576,
          "midi": 58,
          "name": "A#3",
          "ticks": 75264,
          "time": 104.07070800000001,
          "velocity": 0.5039370078740157
        },
        {
          "duration": 0.7964594999999974,
          "durationTicks": 576,
          "midi": 66,
          "name": "F#4",
          "ticks": 75264,
          "time": 104.07070800000001,
          "velocity": 0.5039370078740157
        },
        {
          "duration": 2.123891999999998,
          "durationTicks": 1536,
          "midi": 63,
          "name": "D#4",
          "ticks": 75840,
          "time": 104.86716750000001,
          "velocity": 0.5039370078740157
        },
        {
          "duration": 2.123891999999998,
          "durationTicks": 1536,
          "midi": 60,
          "name": "C4",
          "ticks": 75840,
          "time": 104.86716750000001,
          "velocity": 0.5039370078740157
        },
        {
          "duration": 3.4513244999999984,
          "durationTicks": 2496,
          "midi": 68,
          "name": "G#4",
          "ticks": 75840,
          "time": 104.86716750000001,
          "velocity": 0.5039370078740157
        },
        {
          "duration": 0.7964594999999974,
          "durationTicks": 576,
          "midi": 61,
          "name": "C#4",
          "ticks": 77376,
          "time": 106.9910595,
          "velocity": 0.5039370078740157
        },
        {
          "duration": 0.9292027500000017,
          "durationTicks": 672,
          "midi": 65,
          "name": "F4",
          "ticks": 77376,
          "time": 106.9910595,
          "velocity": 0.5039370078740157
        },
        {
          "duration": 0.530973000000003,
          "durationTicks": 384,
          "midi": 60,
          "name": "C4",
          "ticks": 77952,
          "time": 107.787519,
          "velocity": 0.5039370078740157
        },
        {
          "duration": 0.530973000000003,
          "durationTicks": 384,
          "midi": 63,
          "name": "D#4",
          "ticks": 77952,
          "time": 107.787519,
          "velocity": 0.5039370078740157
        },
        {
          "duration": 0.7964594999999974,
          "durationTicks": 576,
          "midi": 61,
          "name": "C#4",
          "ticks": 78336,
          "time": 108.318492,
          "velocity": 0.5039370078740157
        },
        {
          "duration": 0.7964594999999974,
          "durationTicks": 576,
          "midi": 58,
          "name": "A#3",
          "ticks": 78336,
          "time": 108.318492,
          "velocity": 0.5039370078740157
        },
        {
          "duration": 0.9292027500000017,
          "durationTicks": 672,
          "midi": 66,
          "name": "F#4",
          "ticks": 78336,
          "time": 108.318492,
          "velocity": 0.5039370078740157
        },
        {
          "duration": 1.8584055000000035,
          "durationTicks": 1344,
          "midi": 60,
          "name": "C4",
          "ticks": 78912,
          "time": 109.1149515,
          "velocity": 0.5039370078740157
        },
        {
          "duration": 1.8584055000000035,
          "durationTicks": 1344,
          "midi": 63,
          "name": "D#4",
          "ticks": 78912,
          "time": 109.1149515,
          "velocity": 0.5039370078740157
        },
        {
          "duration": 3.3185812500000083,
          "durationTicks": 2400,
          "midi": 68,
          "name": "G#4",
          "ticks": 78912,
          "time": 109.1149515,
          "velocity": 0.5039370078740157
        },
        {
          "duration": 0.530973000000003,
          "durationTicks": 384,
          "midi": 56,
          "name": "G#3",
          "ticks": 79872,
          "time": 110.442384,
          "velocity": 0.5039370078740157
        },
        {
          "duration": 1.4601757500000048,
          "durationTicks": 1056,
          "midi": 65,
          "name": "F4",
          "ticks": 80256,
          "time": 110.97335700000001,
          "velocity": 0.5039370078740157
        },
        {
          "duration": 1.4601757500000048,
          "durationTicks": 1056,
          "midi": 61,
          "name": "C#4",
          "ticks": 80256,
          "time": 110.97335700000001,
          "velocity": 0.5039370078740157
        },
        {
          "duration": 0.7964594999999974,
          "durationTicks": 576,
          "midi": 61,
          "name": "C#4",
          "ticks": 81408,
          "time": 112.566276,
          "velocity": 0.5039370078740157
        },
        {
          "duration": 0.7964594999999974,
          "durationTicks": 576,
          "midi": 58,
          "name": "A#3",
          "ticks": 81408,
          "time": 112.566276,
          "velocity": 0.5039370078740157
        },
        {
          "duration": 0.7964594999999974,
          "durationTicks": 576,
          "midi": 66,
          "name": "F#4",
          "ticks": 81408,
          "time": 112.566276,
          "velocity": 0.5039370078740157
        },
        {
          "duration": 2.123892000000012,
          "durationTicks": 1536,
          "midi": 63,
          "name": "D#4",
          "ticks": 81984,
          "time": 113.3627355,
          "velocity": 0.5039370078740157
        },
        {
          "duration": 2.123892000000012,
          "durationTicks": 1536,
          "midi": 60,
          "name": "C4",
          "ticks": 81984,
          "time": 113.3627355,
          "velocity": 0.5039370078740157
        },
        {
          "duration": 3.4513245000000126,
          "durationTicks": 2496,
          "midi": 68,
          "name": "G#4",
          "ticks": 81984,
          "time": 113.3627355,
          "velocity": 0.5039370078740157
        },
        {
          "duration": 0.7964594999999974,
          "durationTicks": 576,
          "midi": 61,
          "name": "C#4",
          "ticks": 83520,
          "time": 115.48662750000001,
          "velocity": 0.5039370078740157
        },
        {
          "duration": 0.9292027500000017,
          "durationTicks": 672,
          "midi": 65,
          "name": "F4",
          "ticks": 83520,
          "time": 115.48662750000001,
          "velocity": 0.5039370078740157
        },
        {
          "duration": 0.530973000000003,
          "durationTicks": 384,
          "midi": 60,
          "name": "C4",
          "ticks": 84096,
          "time": 116.28308700000001,
          "velocity": 0.5039370078740157
        },
        {
          "duration": 0.530973000000003,
          "durationTicks": 384,
          "midi": 63,
          "name": "D#4",
          "ticks": 84096,
          "time": 116.28308700000001,
          "velocity": 0.5039370078740157
        },
        {
          "duration": 0.7964594999999974,
          "durationTicks": 576,
          "midi": 61,
          "name": "C#4",
          "ticks": 84480,
          "time": 116.81406000000001,
          "velocity": 0.5039370078740157
        },
        {
          "duration": 0.7964594999999974,
          "durationTicks": 576,
          "midi": 58,
          "name": "A#3",
          "ticks": 84480,
          "time": 116.81406000000001,
          "velocity": 0.5039370078740157
        },
        {
          "duration": 0.9292027499999875,
          "durationTicks": 672,
          "midi": 66,
          "name": "F#4",
          "ticks": 84480,
          "time": 116.81406000000001,
          "velocity": 0.5039370078740157
        },
        {
          "duration": 1.8584055000000035,
          "durationTicks": 1344,
          "midi": 60,
          "name": "C4",
          "ticks": 85056,
          "time": 117.61051950000001,
          "velocity": 0.5039370078740157
        },
        {
          "duration": 1.8584055000000035,
          "durationTicks": 1344,
          "midi": 63,
          "name": "D#4",
          "ticks": 85056,
          "time": 117.61051950000001,
          "velocity": 0.5039370078740157
        },
        {
          "duration": 3.318581249999994,
          "durationTicks": 2400,
          "midi": 68,
          "name": "G#4",
          "ticks": 85056,
          "time": 117.61051950000001,
          "velocity": 0.5039370078740157
        },
        {
          "duration": 0.530973000000003,
          "durationTicks": 384,
          "midi": 56,
          "name": "G#3",
          "ticks": 86016,
          "time": 118.93795200000001,
          "velocity": 0.5039370078740157
        },
        {
          "duration": 1.4601757499999906,
          "durationTicks": 1056,
          "midi": 65,
          "name": "F4",
          "ticks": 86400,
          "time": 119.46892500000001,
          "velocity": 0.5039370078740157
        },
        {
          "duration": 1.4601757499999906,
          "durationTicks": 1056,
          "midi": 61,
          "name": "C#4",
          "ticks": 86400,
          "time": 119.46892500000001,
          "velocity": 0.5039370078740157
        },
        {
          "duration": 1.8584055000000035,
          "durationTicks": 1344,
          "midi": 68,
          "name": "G#4",
          "ticks": 87552,
          "time": 121.06184400000001,
          "velocity": 0.5039370078740157
        },
        {
          "duration": 0.1327432499999901,
          "durationTicks": 96,
          "midi": 65,
          "name": "F4",
          "ticks": 88896,
          "time": 122.92024950000001,
          "velocity": 0.5039370078740157
        },
        {
          "duration": 0.1327432500000043,
          "durationTicks": 96,
          "midi": 63,
          "name": "D#4",
          "ticks": 88992,
          "time": 123.05299275,
          "velocity": 0.5039370078740157
        },
        {
          "duration": 0.530973000000003,
          "durationTicks": 384,
          "midi": 56,
          "name": "G#3",
          "ticks": 90240,
          "time": 124.778655,
          "velocity": 0.5039370078740157
        },
        {
          "duration": 1.8584055000000035,
          "durationTicks": 1344,
          "midi": 68,
          "name": "G#4",
          "ticks": 90624,
          "time": 125.309628,
          "velocity": 0.5039370078740157
        },
        {
          "duration": 0.1327432500000043,
          "durationTicks": 96,
          "midi": 65,
          "name": "F4",
          "ticks": 91968,
          "time": 127.1680335,
          "velocity": 0.5039370078740157
        },
        {
          "duration": 0.1327432499999901,
          "durationTicks": 96,
          "midi": 63,
          "name": "D#4",
          "ticks": 92064,
          "time": 127.30077675000001,
          "velocity": 0.5039370078740157
        },
        {
          "duration": 0.5309729999999888,
          "durationTicks": 384,
          "midi": 56,
          "name": "G#3",
          "ticks": 93312,
          "time": 129.026439,
          "velocity": 0.5039370078740157
        },
        {
          "duration": 1.8584055000000035,
          "durationTicks": 1344,
          "midi": 68,
          "name": "G#4",
          "ticks": 93696,
          "time": 129.557412,
          "velocity": 0.5039370078740157
        },
        {
          "duration": 0.1327432500000043,
          "durationTicks": 96,
          "midi": 65,
          "name": "F4",
          "ticks": 95040,
          "time": 131.4158175,
          "velocity": 0.5039370078740157
        },
        {
          "duration": 0.1327432500000043,
          "durationTicks": 96,
          "midi": 63,
          "name": "D#4",
          "ticks": 95136,
          "time": 131.54856075,
          "velocity": 0.5039370078740157
        },
        {
          "duration": 0.5309729999999888,
          "durationTicks": 384,
          "midi": 56,
          "name": "G#3",
          "ticks": 96384,
          "time": 133.274223,
          "velocity": 0.5039370078740157
        },
        {
          "duration": 1.8584055000000035,
          "durationTicks": 1344,
          "midi": 68,
          "name": "G#4",
          "ticks": 96768,
          "time": 133.805196,
          "velocity": 0.5039370078740157
        },
        {
          "duration": 0.1327432500000043,
          "durationTicks": 96,
          "midi": 65,
          "name": "F4",
          "ticks": 98112,
          "time": 135.6636015,
          "velocity": 0.5039370078740157
        },
        {
          "duration": 0.1327432500000043,
          "durationTicks": 96,
          "midi": 63,
          "name": "D#4",
          "ticks": 98208,
          "time": 135.79634475,
          "velocity": 0.5039370078740157
        },
        {
          "duration": 0.5309730000000172,
          "durationTicks": 384,
          "midi": 56,
          "name": "G#3",
          "ticks": 99456,
          "time": 137.522007,
          "velocity": 0.5039370078740157
        },
        {
          "duration": 1.858405499999975,
          "durationTicks": 1344,
          "midi": 68,
          "name": "G#4",
          "ticks": 99840,
          "time": 138.05298000000002,
          "velocity": 0.5039370078740157
        },
        {
          "duration": 0.1327432500000043,
          "durationTicks": 96,
          "midi": 65,
          "name": "F4",
          "ticks": 101184,
          "time": 139.9113855,
          "velocity": 0.5039370078740157
        },
        {
          "duration": 0.1327432500000043,
          "durationTicks": 96,
          "midi": 63,
          "name": "D#4",
          "ticks": 101280,
          "time": 140.04412875,
          "velocity": 0.5039370078740157
        },
        {
          "duration": 0.5309730000000172,
          "durationTicks": 384,
          "midi": 56,
          "name": "G#3",
          "ticks": 102528,
          "time": 141.769791,
          "velocity": 0.5039370078740157
        },
        {
          "duration": 1.8584055000000035,
          "durationTicks": 1344,
          "midi": 68,
          "name": "G#4",
          "ticks": 102912,
          "time": 142.30076400000002,
          "velocity": 0.5039370078740157
        },
        {
          "duration": 0.1327432499999759,
          "durationTicks": 96,
          "midi": 65,
          "name": "F4",
          "ticks": 104256,
          "time": 144.15916950000002,
          "velocity": 0.5039370078740157
        },
        {
          "duration": 0.1327432500000043,
          "durationTicks": 96,
          "midi": 63,
          "name": "D#4",
          "ticks": 104352,
          "time": 144.29191275,
          "velocity": 0.5039370078740157
        },
        {
          "duration": 0.5309730000000172,
          "durationTicks": 384,
          "midi": 56,
          "name": "G#3",
          "ticks": 105600,
          "time": 146.017575,
          "velocity": 0.5039370078740157
        },
        {
          "duration": 1.8584055000000035,
          "durationTicks": 1344,
          "midi": 68,
          "name": "G#4",
          "ticks": 105984,
          "time": 146.548548,
          "velocity": 0.5039370078740157
        },
        {
          "duration": 0.1327432500000043,
          "durationTicks": 96,
          "midi": 65,
          "name": "F4",
          "ticks": 107328,
          "time": 148.40695350000001,
          "velocity": 0.5039370078740157
        },
        {
          "duration": 0.1327432499999759,
          "durationTicks": 96,
          "midi": 63,
          "name": "D#4",
          "ticks": 107424,
          "time": 148.53969675000002,
          "velocity": 0.5039370078740157
        },
        {
          "duration": 0.5309729999999888,
          "durationTicks": 384,
          "midi": 56,
          "name": "G#3",
          "ticks": 108672,
          "time": 150.26535900000002,
          "velocity": 0.5039370078740157
        },
        {
          "duration": 1.8584055000000035,
          "durationTicks": 1344,
          "midi": 68,
          "name": "G#4",
          "ticks": 109056,
          "time": 150.796332,
          "velocity": 0.5039370078740157
        },
        {
          "duration": 0.1327432500000043,
          "durationTicks": 96,
          "midi": 65,
          "name": "F4",
          "ticks": 110400,
          "time": 152.6547375,
          "velocity": 0.5039370078740157
        },
        {
          "duration": 0.1327432500000043,
          "durationTicks": 96,
          "midi": 63,
          "name": "D#4",
          "ticks": 110496,
          "time": 152.78748075000001,
          "velocity": 0.5039370078740157
        },
        {
          "duration": 0.7964594999999974,
          "durationTicks": 576,
          "midi": 61,
          "name": "C#4",
          "ticks": 130560,
          "time": 180.53082,
          "velocity": 0.5039370078740157
        },
        {
          "duration": 0.7964594999999974,
          "durationTicks": 576,
          "midi": 58,
          "name": "A#3",
          "ticks": 130560,
          "time": 180.53082,
          "velocity": 0.5039370078740157
        },
        {
          "duration": 0.7964594999999974,
          "durationTicks": 576,
          "midi": 66,
          "name": "F#4",
          "ticks": 130560,
          "time": 180.53082,
          "velocity": 0.5039370078740157
        },
        {
          "duration": 2.123892000000012,
          "durationTicks": 1536,
          "midi": 63,
          "name": "D#4",
          "ticks": 131136,
          "time": 181.3272795,
          "velocity": 0.5039370078740157
        },
        {
          "duration": 2.123892000000012,
          "durationTicks": 1536,
          "midi": 60,
          "name": "C4",
          "ticks": 131136,
          "time": 181.3272795,
          "velocity": 0.5039370078740157
        },
        {
          "duration": 3.4513244999999984,
          "durationTicks": 2496,
          "midi": 68,
          "name": "G#4",
          "ticks": 131136,
          "time": 181.3272795,
          "velocity": 0.5039370078740157
        },
        {
          "duration": 0.7964594999999974,
          "durationTicks": 576,
          "midi": 61,
          "name": "C#4",
          "ticks": 132672,
          "time": 183.45117150000002,
          "velocity": 0.5039370078740157
        },
        {
          "duration": 0.9292027500000017,
          "durationTicks": 672,
          "midi": 65,
          "name": "F4",
          "ticks": 132672,
          "time": 183.45117150000002,
          "velocity": 0.5039370078740157
        },
        {
          "duration": 0.5309729999999888,
          "durationTicks": 384,
          "midi": 60,
          "name": "C4",
          "ticks": 133248,
          "time": 184.247631,
          "velocity": 0.5039370078740157
        },
        {
          "duration": 0.5309729999999888,
          "durationTicks": 384,
          "midi": 63,
          "name": "D#4",
          "ticks": 133248,
          "time": 184.247631,
          "velocity": 0.5039370078740157
        },
        {
          "duration": 0.7964594999999974,
          "durationTicks": 576,
          "midi": 61,
          "name": "C#4",
          "ticks": 133632,
          "time": 184.778604,
          "velocity": 0.5039370078740157
        },
        {
          "duration": 0.7964594999999974,
          "durationTicks": 576,
          "midi": 58,
          "name": "A#3",
          "ticks": 133632,
          "time": 184.778604,
          "velocity": 0.5039370078740157
        },
        {
          "duration": 0.9292027500000017,
          "durationTicks": 672,
          "midi": 66,
          "name": "F#4",
          "ticks": 133632,
          "time": 184.778604,
          "velocity": 0.5039370078740157
        },
        {
          "duration": 1.8584055000000035,
          "durationTicks": 1344,
          "midi": 60,
          "name": "C4",
          "ticks": 134208,
          "time": 185.5750635,
          "velocity": 0.5039370078740157
        },
        {
          "duration": 1.8584055000000035,
          "durationTicks": 1344,
          "midi": 63,
          "name": "D#4",
          "ticks": 134208,
          "time": 185.5750635,
          "velocity": 0.5039370078740157
        },
        {
          "duration": 3.3185812500000225,
          "durationTicks": 2400,
          "midi": 68,
          "name": "G#4",
          "ticks": 134208,
          "time": 185.5750635,
          "velocity": 0.5039370078740157
        },
        {
          "duration": 0.5309729999999888,
          "durationTicks": 384,
          "midi": 56,
          "name": "G#3",
          "ticks": 135168,
          "time": 186.902496,
          "velocity": 0.5039370078740157
        },
        {
          "duration": 1.460175750000019,
          "durationTicks": 1056,
          "midi": 65,
          "name": "F4",
          "ticks": 135552,
          "time": 187.433469,
          "velocity": 0.5039370078740157
        },
        {
          "duration": 1.460175750000019,
          "durationTicks": 1056,
          "midi": 61,
          "name": "C#4",
          "ticks": 135552,
          "time": 187.433469,
          "velocity": 0.5039370078740157
        },
        {
          "duration": 0.7964595000000259,
          "durationTicks": 576,
          "midi": 61,
          "name": "C#4",
          "ticks": 136704,
          "time": 189.026388,
          "velocity": 0.5039370078740157
        },
        {
          "duration": 0.7964595000000259,
          "durationTicks": 576,
          "midi": 58,
          "name": "A#3",
          "ticks": 136704,
          "time": 189.026388,
          "velocity": 0.5039370078740157
        },
        {
          "duration": 0.7964595000000259,
          "durationTicks": 576,
          "midi": 66,
          "name": "F#4",
          "ticks": 136704,
          "time": 189.026388,
          "velocity": 0.5039370078740157
        },
        {
          "duration": 2.1238919999999837,
          "durationTicks": 1536,
          "midi": 63,
          "name": "D#4",
          "ticks": 137280,
          "time": 189.82284750000002,
          "velocity": 0.5039370078740157
        },
        {
          "duration": 2.1238919999999837,
          "durationTicks": 1536,
          "midi": 60,
          "name": "C4",
          "ticks": 137280,
          "time": 189.82284750000002,
          "velocity": 0.5039370078740157
        },
        {
          "duration": 3.4513244999999984,
          "durationTicks": 2496,
          "midi": 68,
          "name": "G#4",
          "ticks": 137280,
          "time": 189.82284750000002,
          "velocity": 0.5039370078740157
        },
        {
          "duration": 0.7964594999999974,
          "durationTicks": 576,
          "midi": 61,
          "name": "C#4",
          "ticks": 138816,
          "time": 191.9467395,
          "velocity": 0.5039370078740157
        },
        {
          "duration": 0.9292027500000017,
          "durationTicks": 672,
          "midi": 65,
          "name": "F4",
          "ticks": 138816,
          "time": 191.9467395,
          "velocity": 0.5039370078740157
        },
        {
          "duration": 0.5309730000000172,
          "durationTicks": 384,
          "midi": 60,
          "name": "C4",
          "ticks": 139392,
          "time": 192.743199,
          "velocity": 0.5039370078740157
        },
        {
          "duration": 0.5309730000000172,
          "durationTicks": 384,
          "midi": 63,
          "name": "D#4",
          "ticks": 139392,
          "time": 192.743199,
          "velocity": 0.5039370078740157
        },
        {
          "duration": 0.7964594999999974,
          "durationTicks": 576,
          "midi": 61,
          "name": "C#4",
          "ticks": 139776,
          "time": 193.27417200000002,
          "velocity": 0.5039370078740157
        },
        {
          "duration": 0.7964594999999974,
          "durationTicks": 576,
          "midi": 58,
          "name": "A#3",
          "ticks": 139776,
          "time": 193.27417200000002,
          "velocity": 0.5039370078740157
        },
        {
          "duration": 0.9292027500000017,
          "durationTicks": 672,
          "midi": 66,
          "name": "F#4",
          "ticks": 139776,
          "time": 193.27417200000002,
          "velocity": 0.5039370078740157
        },
        {
          "duration": 1.8584055000000035,
          "durationTicks": 1344,
          "midi": 60,
          "name": "C4",
          "ticks": 140352,
          "time": 194.07063150000002,
          "velocity": 0.5039370078740157
        },
        {
          "duration": 1.8584055000000035,
          "durationTicks": 1344,
          "midi": 63,
          "name": "D#4",
          "ticks": 140352,
          "time": 194.07063150000002,
          "velocity": 0.5039370078740157
        },
        {
          "duration": 3.318581249999994,
          "durationTicks": 2400,
          "midi": 68,
          "name": "G#4",
          "ticks": 140352,
          "time": 194.07063150000002,
          "velocity": 0.5039370078740157
        },
        {
          "duration": 0.5309730000000172,
          "durationTicks": 384,
          "midi": 56,
          "name": "G#3",
          "ticks": 141312,
          "time": 195.398064,
          "velocity": 0.5039370078740157
        },
        {
          "duration": 1.4601757499999906,
          "durationTicks": 1056,
          "midi": 65,
          "name": "F4",
          "ticks": 141696,
          "time": 195.92903700000002,
          "velocity": 0.5039370078740157
        },
        {
          "duration": 1.4601757499999906,
          "durationTicks": 1056,
          "midi": 61,
          "name": "C#4",
          "ticks": 141696,
          "time": 195.92903700000002,
          "velocity": 0.5039370078740157
        },
        {
          "duration": 0.7964594999999974,
          "durationTicks": 576,
          "midi": 61,
          "name": "C#4",
          "ticks": 142848,
          "time": 197.52195600000002,
          "velocity": 0.5039370078740157
        },
        {
          "duration": 0.7964594999999974,
          "durationTicks": 576,
          "midi": 58,
          "name": "A#3",
          "ticks": 142848,
          "time": 197.52195600000002,
          "velocity": 0.5039370078740157
        },
        {
          "duration": 0.7964594999999974,
          "durationTicks": 576,
          "midi": 66,
          "name": "F#4",
          "ticks": 142848,
          "time": 197.52195600000002,
          "velocity": 0.5039370078740157
        },
        {
          "duration": 2.1238919999999837,
          "durationTicks": 1536,
          "midi": 63,
          "name": "D#4",
          "ticks": 143424,
          "time": 198.31841550000001,
          "velocity": 0.5039370078740157
        },
        {
          "duration": 2.1238919999999837,
          "durationTicks": 1536,
          "midi": 60,
          "name": "C4",
          "ticks": 143424,
          "time": 198.31841550000001,
          "velocity": 0.5039370078740157
        },
        {
          "duration": 3.4513244999999984,
          "durationTicks": 2496,
          "midi": 68,
          "name": "G#4",
          "ticks": 143424,
          "time": 198.31841550000001,
          "velocity": 0.5039370078740157
        },
        {
          "duration": 0.7964595000000259,
          "durationTicks": 576,
          "midi": 61,
          "name": "C#4",
          "ticks": 144960,
          "time": 200.4423075,
          "velocity": 0.5039370078740157
        },
        {
          "duration": 0.9292027500000017,
          "durationTicks": 672,
          "midi": 65,
          "name": "F4",
          "ticks": 144960,
          "time": 200.4423075,
          "velocity": 0.5039370078740157
        },
        {
          "duration": 0.5309729999999888,
          "durationTicks": 384,
          "midi": 60,
          "name": "C4",
          "ticks": 145536,
          "time": 201.23876700000002,
          "velocity": 0.5039370078740157
        },
        {
          "duration": 0.5309729999999888,
          "durationTicks": 384,
          "midi": 63,
          "name": "D#4",
          "ticks": 145536,
          "time": 201.23876700000002,
          "velocity": 0.5039370078740157
        },
        {
          "duration": 0.7964594999999974,
          "durationTicks": 576,
          "midi": 61,
          "name": "C#4",
          "ticks": 145920,
          "time": 201.76974,
          "velocity": 0.5039370078740157
        },
        {
          "duration": 0.7964594999999974,
          "durationTicks": 576,
          "midi": 58,
          "name": "A#3",
          "ticks": 145920,
          "time": 201.76974,
          "velocity": 0.5039370078740157
        },
        {
          "duration": 0.9292027500000017,
          "durationTicks": 672,
          "midi": 66,
          "name": "F#4",
          "ticks": 145920,
          "time": 201.76974,
          "velocity": 0.5039370078740157
        },
        {
          "duration": 1.8584055000000035,
          "durationTicks": 1344,
          "midi": 60,
          "name": "C4",
          "ticks": 146496,
          "time": 202.5661995,
          "velocity": 0.5039370078740157
        },
        {
          "duration": 1.8584055000000035,
          "durationTicks": 1344,
          "midi": 63,
          "name": "D#4",
          "ticks": 146496,
          "time": 202.5661995,
          "velocity": 0.5039370078740157
        },
        {
          "duration": 3.318581249999994,
          "durationTicks": 2400,
          "midi": 68,
          "name": "G#4",
          "ticks": 146496,
          "time": 202.5661995,
          "velocity": 0.5039370078740157
        },
        {
          "duration": 0.5309729999999888,
          "durationTicks": 384,
          "midi": 56,
          "name": "G#3",
          "ticks": 147456,
          "time": 203.89363200000003,
          "velocity": 0.5039370078740157
        },
        {
          "duration": 1.4601757499999906,
          "durationTicks": 1056,
          "midi": 65,
          "name": "F4",
          "ticks": 147840,
          "time": 204.424605,
          "velocity": 0.5039370078740157
        },
        {
          "duration": 1.4601757499999906,
          "durationTicks": 1056,
          "midi": 61,
          "name": "C#4",
          "ticks": 147840,
          "time": 204.424605,
          "velocity": 0.5039370078740157
        },
        {
          "duration": 0.7964594999999974,
          "durationTicks": 576,
          "midi": 61,
          "name": "C#4",
          "ticks": 148992,
          "time": 206.017524,
          "velocity": 0.5039370078740157
        },
        {
          "duration": 0.7964594999999974,
          "durationTicks": 576,
          "midi": 58,
          "name": "A#3",
          "ticks": 148992,
          "time": 206.017524,
          "velocity": 0.5039370078740157
        },
        {
          "duration": 0.7964594999999974,
          "durationTicks": 576,
          "midi": 66,
          "name": "F#4",
          "ticks": 148992,
          "time": 206.017524,
          "velocity": 0.5039370078740157
        },
        {
          "duration": 2.123892000000012,
          "durationTicks": 1536,
          "midi": 63,
          "name": "D#4",
          "ticks": 149568,
          "time": 206.8139835,
          "velocity": 0.5039370078740157
        },
        {
          "duration": 2.123892000000012,
          "durationTicks": 1536,
          "midi": 60,
          "name": "C4",
          "ticks": 149568,
          "time": 206.8139835,
          "velocity": 0.5039370078740157
        },
        {
          "duration": 3.4513244999999984,
          "durationTicks": 2496,
          "midi": 68,
          "name": "G#4",
          "ticks": 149568,
          "time": 206.8139835,
          "velocity": 0.5039370078740157
        },
        {
          "duration": 0.7964594999999974,
          "durationTicks": 576,
          "midi": 61,
          "name": "C#4",
          "ticks": 151104,
          "time": 208.93787550000002,
          "velocity": 0.5039370078740157
        },
        {
          "duration": 0.9292027500000017,
          "durationTicks": 672,
          "midi": 65,
          "name": "F4",
          "ticks": 151104,
          "time": 208.93787550000002,
          "velocity": 0.5039370078740157
        },
        {
          "duration": 0.5309729999999888,
          "durationTicks": 384,
          "midi": 60,
          "name": "C4",
          "ticks": 151680,
          "time": 209.73433500000002,
          "velocity": 0.5039370078740157
        },
        {
          "duration": 0.5309729999999888,
          "durationTicks": 384,
          "midi": 63,
          "name": "D#4",
          "ticks": 151680,
          "time": 209.73433500000002,
          "velocity": 0.5039370078740157
        },
        {
          "duration": 0.7964594999999974,
          "durationTicks": 576,
          "midi": 61,
          "name": "C#4",
          "ticks": 152064,
          "time": 210.265308,
          "velocity": 0.5039370078740157
        },
        {
          "duration": 0.7964594999999974,
          "durationTicks": 576,
          "midi": 58,
          "name": "A#3",
          "ticks": 152064,
          "time": 210.265308,
          "velocity": 0.5039370078740157
        },
        {
          "duration": 0.9292027500000017,
          "durationTicks": 672,
          "midi": 66,
          "name": "F#4",
          "ticks": 152064,
          "time": 210.265308,
          "velocity": 0.5039370078740157
        },
        {
          "duration": 1.8584055000000035,
          "durationTicks": 1344,
          "midi": 60,
          "name": "C4",
          "ticks": 152640,
          "time": 211.0617675,
          "velocity": 0.5039370078740157
        },
        {
          "duration": 1.8584055000000035,
          "durationTicks": 1344,
          "midi": 63,
          "name": "D#4",
          "ticks": 152640,
          "time": 211.0617675,
          "velocity": 0.5039370078740157
        },
        {
          "duration": 3.3185812500000225,
          "durationTicks": 2400,
          "midi": 68,
          "name": "G#4",
          "ticks": 152640,
          "time": 211.0617675,
          "velocity": 0.5039370078740157
        },
        {
          "duration": 0.5309729999999888,
          "durationTicks": 384,
          "midi": 56,
          "name": "G#3",
          "ticks": 153600,
          "time": 212.38920000000002,
          "velocity": 0.5039370078740157
        },
        {
          "duration": 1.460175750000019,
          "durationTicks": 1056,
          "midi": 65,
          "name": "F4",
          "ticks": 153984,
          "time": 212.920173,
          "velocity": 0.5039370078740157
        },
        {
          "duration": 1.460175750000019,
          "durationTicks": 1056,
          "midi": 61,
          "name": "C#4",
          "ticks": 153984,
          "time": 212.920173,
          "velocity": 0.5039370078740157
        }
      ],
      "endOfTrackTicks": 155040
    },
    {
      "channel": 3,
      "controlChanges": {},
      "pitchBends": [],
      "instrument": {
        "family": "piano",
        "number": 0,
        "name": "acoustic grand piano"
      },
      "name": "Grand Piano (Classic)",
      "notes": [
        {
          "duration": 0.7964595000000001,
          "durationTicks": 576,
          "midi": 85,
          "name": "C#6",
          "ticks": 1536,
          "time": 2.123892,
          "velocity": 0.3858267716535433
        },
        {
          "duration": 1.0619459999999998,
          "durationTicks": 768,
          "midi": 87,
          "name": "D#6",
          "ticks": 2112,
          "time": 2.9203515,
          "velocity": 0.3858267716535433
        },
        {
          "duration": 0.2654865000000002,
          "durationTicks": 192,
          "midi": 80,
          "name": "G#5",
          "ticks": 2880,
          "time": 3.9822975,
          "velocity": 0.3858267716535433
        },
        {
          "duration": 0.7964595000000001,
          "durationTicks": 576,
          "midi": 87,
          "name": "D#6",
          "ticks": 3072,
          "time": 4.247784,
          "velocity": 0.3858267716535433
        },
        {
          "duration": 0.7964595000000001,
          "durationTicks": 576,
          "midi": 89,
          "name": "F6",
          "ticks": 3648,
          "time": 5.0442435,
          "velocity": 0.3858267716535433
        },
        {
          "duration": 0.13274324999999987,
          "durationTicks": 96,
          "midi": 89,
          "name": "F6",
          "ticks": 4224,
          "time": 5.840703,
          "velocity": 0.3858267716535433
        },
        {
          "duration": 0.13274324999999987,
          "durationTicks": 96,
          "midi": 90,
          "name": "F#6",
          "ticks": 4320,
          "time": 5.97344625,
          "velocity": 0.3858267716535433
        },
        {
          "duration": 0.13274324999999987,
          "durationTicks": 96,
          "midi": 89,
          "name": "F6",
          "ticks": 4416,
          "time": 6.1061895,
          "velocity": 0.3858267716535433
        },
        {
          "duration": 0.92920275,
          "durationTicks": 672,
          "midi": 85,
          "name": "C#6",
          "ticks": 4512,
          "time": 6.23893275,
          "velocity": 0.3858267716535433
        },
        {
          "duration": 0.7964595000000001,
          "durationTicks": 576,
          "midi": 87,
          "name": "D#6",
          "ticks": 5184,
          "time": 7.1681355,
          "velocity": 0.3858267716535433
        },
        {
          "duration": 2.522121750000001,
          "durationTicks": 1824,
          "midi": 80,
          "name": "G#5",
          "ticks": 5760,
          "time": 7.964595,
          "velocity": 0.3858267716535433
        },
        {
          "duration": 0.796459500000001,
          "durationTicks": 576,
          "midi": 85,
          "name": "C#6",
          "ticks": 7680,
          "time": 10.61946,
          "velocity": 0.3858267716535433
        },
        {
          "duration": 1.061945999999999,
          "durationTicks": 768,
          "midi": 87,
          "name": "D#6",
          "ticks": 8256,
          "time": 11.415919500000001,
          "velocity": 0.3858267716535433
        },
        {
          "duration": 0.2654865000000015,
          "durationTicks": 192,
          "midi": 80,
          "name": "G#5",
          "ticks": 9024,
          "time": 12.4778655,
          "velocity": 0.3858267716535433
        },
        {
          "duration": 0.7964594999999992,
          "durationTicks": 576,
          "midi": 87,
          "name": "D#6",
          "ticks": 9216,
          "time": 12.743352000000002,
          "velocity": 0.3858267716535433
        },
        {
          "duration": 0.7964594999999992,
          "durationTicks": 576,
          "midi": 89,
          "name": "F6",
          "ticks": 9792,
          "time": 13.5398115,
          "velocity": 0.3858267716535433
        },
        {
          "duration": 0.13274325000000076,
          "durationTicks": 96,
          "midi": 89,
          "name": "F6",
          "ticks": 10368,
          "time": 14.336271,
          "velocity": 0.3858267716535433
        },
        {
          "duration": 0.13274325000000076,
          "durationTicks": 96,
          "midi": 90,
          "name": "F#6",
          "ticks": 10464,
          "time": 14.46901425,
          "velocity": 0.3858267716535433
        },
        {
          "duration": 0.13274324999999898,
          "durationTicks": 96,
          "midi": 89,
          "name": "F6",
          "ticks": 10560,
          "time": 14.601757500000001,
          "velocity": 0.3858267716535433
        },
        {
          "duration": 0.92920275,
          "durationTicks": 672,
          "midi": 85,
          "name": "C#6",
          "ticks": 10656,
          "time": 14.73450075,
          "velocity": 0.3858267716535433
        },
        {
          "duration": 0.796459500000001,
          "durationTicks": 576,
          "midi": 87,
          "name": "D#6",
          "ticks": 11328,
          "time": 15.6637035,
          "velocity": 0.3858267716535433
        },
        {
          "duration": 2.52212175,
          "durationTicks": 1824,
          "midi": 80,
          "name": "G#5",
          "ticks": 11904,
          "time": 16.460163,
          "velocity": 0.3858267716535433
        },
        {
          "duration": 1.592919000000002,
          "durationTicks": 1152,
          "midi": 63,
          "name": "D#4",
          "ticks": 26112,
          "time": 36.106164,
          "velocity": 0.3858267716535433
        },
        {
          "duration": 1.592919000000002,
          "durationTicks": 1152,
          "midi": 73,
          "name": "C#5",
          "ticks": 26112,
          "time": 36.106164,
          "velocity": 0.3858267716535433
        },
        {
          "duration": 1.592919000000002,
          "durationTicks": 1152,
          "midi": 70,
          "name": "A#4",
          "ticks": 26112,
          "time": 36.106164,
          "velocity": 0.3858267716535433
        },
        {
          "duration": 1.592919000000002,
          "durationTicks": 1152,
          "midi": 66,
          "name": "F#4",
          "ticks": 26112,
          "time": 36.106164,
          "velocity": 0.3858267716535433
        },
        {
          "duration": 1.592919000000002,
          "durationTicks": 1152,
          "midi": 61,
          "name": "C#4",
          "ticks": 26112,
          "time": 36.106164,
          "velocity": 0.3858267716535433
        },
        {
          "duration": 1.9911487500000007,
          "durationTicks": 1440,
          "midi": 63,
          "name": "D#4",
          "ticks": 27456,
          "time": 37.9645695,
          "velocity": 0.3858267716535433
        },
        {
          "duration": 1.9911487500000007,
          "durationTicks": 1440,
          "midi": 65,
          "name": "F4",
          "ticks": 27456,
          "time": 37.9645695,
          "velocity": 0.3858267716535433
        },
        {
          "duration": 1.9911487500000007,
          "durationTicks": 1440,
          "midi": 68,
          "name": "G#4",
          "ticks": 27456,
          "time": 37.9645695,
          "velocity": 0.3858267716535433
        },
        {
          "duration": 1.9911487500000007,
          "durationTicks": 1440,
          "midi": 75,
          "name": "D#5",
          "ticks": 27456,
          "time": 37.9645695,
          "velocity": 0.3858267716535433
        },
        {
          "duration": 1.9911487500000007,
          "durationTicks": 1440,
          "midi": 72,
          "name": "C5",
          "ticks": 27456,
          "time": 37.9645695,
          "velocity": 0.3858267716535433
        },
        {
          "duration": 2.123891999999998,
          "durationTicks": 1536,
          "midi": 68,
          "name": "G#4",
          "ticks": 28992,
          "time": 40.0884615,
          "velocity": 0.3858267716535433
        },
        {
          "duration": 2.123891999999998,
          "durationTicks": 1536,
          "midi": 77,
          "name": "F5",
          "ticks": 28992,
          "time": 40.0884615,
          "velocity": 0.3858267716535433
        },
        {
          "duration": 2.123891999999998,
          "durationTicks": 1536,
          "midi": 70,
          "name": "A#4",
          "ticks": 28992,
          "time": 40.0884615,
          "velocity": 0.3858267716535433
        },
        {
          "duration": 2.123891999999998,
          "durationTicks": 1536,
          "midi": 73,
          "name": "C#5",
          "ticks": 28992,
          "time": 40.0884615,
          "velocity": 0.3858267716535433
        },
        {
          "duration": 2.256635250000002,
          "durationTicks": 1632,
          "midi": 66,
          "name": "F#4",
          "ticks": 28992,
          "time": 40.0884615,
          "velocity": 0.3858267716535433
        },
        {
          "duration": 0.1327432500000043,
          "durationTicks": 96,
          "midi": 66,
          "name": "F#4",
          "ticks": 30720,
          "time": 42.47784,
          "velocity": 0.3858267716535433
        },
        {
          "duration": 0.1327432500000043,
          "durationTicks": 96,
          "midi": 70,
          "name": "A#4",
          "ticks": 30720,
          "time": 42.47784,
          "velocity": 0.3858267716535433
        },
        {
          "duration": 0.1327432500000043,
          "durationTicks": 96,
          "midi": 63,
          "name": "D#4",
          "ticks": 30720,
          "time": 42.47784,
          "velocity": 0.3858267716535433
        },
        {
          "duration": 0.1327432500000043,
          "durationTicks": 96,
          "midi": 73,
          "name": "C#5",
          "ticks": 30720,
          "time": 42.47784,
          "velocity": 0.3858267716535433
        },
        {
          "duration": 0.1327432500000043,
          "durationTicks": 96,
          "midi": 70,
          "name": "A#4",
          "ticks": 31008,
          "time": 42.87606975,
          "velocity": 0.3858267716535433
        },
        {
          "duration": 0.1327432500000043,
          "durationTicks": 96,
          "midi": 63,
          "name": "D#4",
          "ticks": 31008,
          "time": 42.87606975,
          "velocity": 0.3858267716535433
        },
        {
          "duration": 0.1327432500000043,
          "durationTicks": 96,
          "midi": 66,
          "name": "F#4",
          "ticks": 31008,
          "time": 42.87606975,
          "velocity": 0.3858267716535433
        },
        {
          "duration": 0.1327432500000043,
          "durationTicks": 96,
          "midi": 73,
          "name": "C#5",
          "ticks": 31008,
          "time": 42.87606975,
          "velocity": 0.3858267716535433
        },
        {
          "duration": 0.6637162500000002,
          "durationTicks": 480,
          "midi": 72,
          "name": "C5",
          "ticks": 31296,
          "time": 43.274299500000005,
          "velocity": 0.3858267716535433
        },
        {
          "duration": 0.6637162500000002,
          "durationTicks": 480,
          "midi": 65,
          "name": "F4",
          "ticks": 31296,
          "time": 43.274299500000005,
          "velocity": 0.3858267716535433
        },
        {
          "duration": 0.6637162500000002,
          "durationTicks": 480,
          "midi": 75,
          "name": "D#5",
          "ticks": 31296,
          "time": 43.274299500000005,
          "velocity": 0.3858267716535433
        },
        {
          "duration": 0.6637162500000002,
          "durationTicks": 480,
          "midi": 68,
          "name": "G#4",
          "ticks": 31296,
          "time": 43.274299500000005,
          "velocity": 0.3858267716535433
        },
        {
          "duration": 0.1327432499999972,
          "durationTicks": 96,
          "midi": 68,
          "name": "G#4",
          "ticks": 31872,
          "time": 44.070759,
          "velocity": 0.3858267716535433
        },
        {
          "duration": 0.1327432500000043,
          "durationTicks": 96,
          "midi": 70,
          "name": "A#4",
          "ticks": 31968,
          "time": 44.20350225,
          "velocity": 0.3858267716535433
        },
        {
          "duration": 0.1327432499999972,
          "durationTicks": 96,
          "midi": 73,
          "name": "C#5",
          "ticks": 32064,
          "time": 44.336245500000004,
          "velocity": 0.3858267716535433
        },
        {
          "duration": 0.1327432500000043,
          "durationTicks": 96,
          "midi": 70,
          "name": "A#4",
          "ticks": 32160,
          "time": 44.46898875,
          "velocity": 0.3858267716535433
        },
        {
          "duration": 0.7964594999999974,
          "durationTicks": 576,
          "midi": 85,
          "name": "C#6",
          "ticks": 32256,
          "time": 44.601732000000005,
          "velocity": 0.3858267716535433
        },
        {
          "duration": 1.061945999999999,
          "durationTicks": 768,
          "midi": 87,
          "name": "D#6",
          "ticks": 32832,
          "time": 45.3981915,
          "velocity": 0.3858267716535433
        },
        {
          "duration": 0.2654865000000015,
          "durationTicks": 192,
          "midi": 80,
          "name": "G#5",
          "ticks": 33600,
          "time": 46.4601375,
          "velocity": 0.3858267716535433
        },
        {
          "duration": 0.7964594999999974,
          "durationTicks": 576,
          "midi": 87,
          "name": "D#6",
          "ticks": 33792,
          "time": 46.725624,
          "velocity": 0.3858267716535433
        },
        {
          "duration": 0.7964595000000045,
          "durationTicks": 576,
          "midi": 89,
          "name": "F6",
          "ticks": 34368,
          "time": 47.5220835,
          "velocity": 0.3858267716535433
        },
        {
          "duration": 0.1327432499999972,
          "durationTicks": 96,
          "midi": 89,
          "name": "F6",
          "ticks": 34944,
          "time": 48.318543000000005,
          "velocity": 0.3858267716535433
        },
        {
          "duration": 0.1327432499999972,
          "durationTicks": 96,
          "midi": 90,
          "name": "F#6",
          "ticks": 35040,
          "time": 48.45128625,
          "velocity": 0.3858267716535433
        },
        {
          "duration": 0.1327432500000043,
          "durationTicks": 96,
          "midi": 89,
          "name": "F6",
          "ticks": 35136,
          "time": 48.5840295,
          "velocity": 0.3858267716535433
        },
        {
          "duration": 0.9292027500000017,
          "durationTicks": 672,
          "midi": 85,
          "name": "C#6",
          "ticks": 35232,
          "time": 48.716772750000004,
          "velocity": 0.3858267716535433
        },
        {
          "duration": 0.7964594999999974,
          "durationTicks": 576,
          "midi": 87,
          "name": "D#6",
          "ticks": 35904,
          "time": 49.645975500000006,
          "velocity": 0.3858267716535433
        },
        {
          "duration": 2.5221217499999966,
          "durationTicks": 1824,
          "midi": 80,
          "name": "G#5",
          "ticks": 36480,
          "time": 50.442435,
          "velocity": 0.3858267716535433
        },
        {
          "duration": 0.7964594999999974,
          "durationTicks": 576,
          "midi": 85,
          "name": "C#6",
          "ticks": 38400,
          "time": 53.097300000000004,
          "velocity": 0.3858267716535433
        },
        {
          "duration": 1.061945999999999,
          "durationTicks": 768,
          "midi": 87,
          "name": "D#6",
          "ticks": 38976,
          "time": 53.8937595,
          "velocity": 0.3858267716535433
        },
        {
          "duration": 0.2654865000000015,
          "durationTicks": 192,
          "midi": 80,
          "name": "G#5",
          "ticks": 39744,
          "time": 54.9557055,
          "velocity": 0.3858267716535433
        },
        {
          "duration": 0.7964594999999974,
          "durationTicks": 576,
          "midi": 87,
          "name": "D#6",
          "ticks": 39936,
          "time": 55.221192,
          "velocity": 0.3858267716535433
        },
        {
          "duration": 0.7964595000000045,
          "durationTicks": 576,
          "midi": 89,
          "name": "F6",
          "ticks": 40512,
          "time": 56.0176515,
          "velocity": 0.3858267716535433
        },
        {
          "duration": 0.1327432499999972,
          "durationTicks": 96,
          "midi": 89,
          "name": "F6",
          "ticks": 41088,
          "time": 56.814111000000004,
          "velocity": 0.3858267716535433
        },
        {
          "duration": 0.1327432500000043,
          "durationTicks": 96,
          "midi": 90,
          "name": "F#6",
          "ticks": 41184,
          "time": 56.94685425,
          "velocity": 0.3858267716535433
        },
        {
          "duration": 0.1327432499999972,
          "durationTicks": 96,
          "midi": 89,
          "name": "F6",
          "ticks": 41280,
          "time": 57.079597500000006,
          "velocity": 0.3858267716535433
        },
        {
          "duration": 0.9292027500000017,
          "durationTicks": 672,
          "midi": 85,
          "name": "C#6",
          "ticks": 41376,
          "time": 57.21234075,
          "velocity": 0.3858267716535433
        },
        {
          "duration": 0.7964594999999974,
          "durationTicks": 576,
          "midi": 87,
          "name": "D#6",
          "ticks": 42048,
          "time": 58.141543500000004,
          "velocity": 0.3858267716535433
        },
        {
          "duration": 2.5221217500000037,
          "durationTicks": 1824,
          "midi": 80,
          "name": "G#5",
          "ticks": 42624,
          "time": 58.938003,
          "velocity": 0.3858267716535433
        },
        {
          "duration": 1.5929189999999949,
          "durationTicks": 1152,
          "midi": 63,
          "name": "D#4",
          "ticks": 56832,
          "time": 78.58400400000001,
          "velocity": 0.3858267716535433
        },
        {
          "duration": 1.5929189999999949,
          "durationTicks": 1152,
          "midi": 73,
          "name": "C#5",
          "ticks": 56832,
          "time": 78.58400400000001,
          "velocity": 0.3858267716535433
        },
        {
          "duration": 1.5929189999999949,
          "durationTicks": 1152,
          "midi": 70,
          "name": "A#4",
          "ticks": 56832,
          "time": 78.58400400000001,
          "velocity": 0.3858267716535433
        },
        {
          "duration": 1.5929189999999949,
          "durationTicks": 1152,
          "midi": 66,
          "name": "F#4",
          "ticks": 56832,
          "time": 78.58400400000001,
          "velocity": 0.3858267716535433
        },
        {
          "duration": 1.5929189999999949,
          "durationTicks": 1152,
          "midi": 61,
          "name": "C#4",
          "ticks": 56832,
          "time": 78.58400400000001,
          "velocity": 0.3858267716535433
        },
        {
          "duration": 1.9911487499999936,
          "durationTicks": 1440,
          "midi": 63,
          "name": "D#4",
          "ticks": 58176,
          "time": 80.44240950000001,
          "velocity": 0.3858267716535433
        },
        {
          "duration": 1.9911487499999936,
          "durationTicks": 1440,
          "midi": 65,
          "name": "F4",
          "ticks": 58176,
          "time": 80.44240950000001,
          "velocity": 0.3858267716535433
        },
        {
          "duration": 1.9911487499999936,
          "durationTicks": 1440,
          "midi": 68,
          "name": "G#4",
          "ticks": 58176,
          "time": 80.44240950000001,
          "velocity": 0.3858267716535433
        },
        {
          "duration": 1.9911487499999936,
          "durationTicks": 1440,
          "midi": 75,
          "name": "D#5",
          "ticks": 58176,
          "time": 80.44240950000001,
          "velocity": 0.3858267716535433
        },
        {
          "duration": 1.9911487499999936,
          "durationTicks": 1440,
          "midi": 72,
          "name": "C5",
          "ticks": 58176,
          "time": 80.44240950000001,
          "velocity": 0.3858267716535433
        },
        {
          "duration": 2.123891999999998,
          "durationTicks": 1536,
          "midi": 68,
          "name": "G#4",
          "ticks": 59712,
          "time": 82.56630150000001,
          "velocity": 0.3858267716535433
        },
        {
          "duration": 2.123891999999998,
          "durationTicks": 1536,
          "midi": 77,
          "name": "F5",
          "ticks": 59712,
          "time": 82.56630150000001,
          "velocity": 0.3858267716535433
        },
        {
          "duration": 2.123891999999998,
          "durationTicks": 1536,
          "midi": 70,
          "name": "A#4",
          "ticks": 59712,
          "time": 82.56630150000001,
          "velocity": 0.3858267716535433
        },
        {
          "duration": 2.123891999999998,
          "durationTicks": 1536,
          "midi": 73,
          "name": "C#5",
          "ticks": 59712,
          "time": 82.56630150000001,
          "velocity": 0.3858267716535433
        },
        {
          "duration": 2.256635250000002,
          "durationTicks": 1632,
          "midi": 66,
          "name": "F#4",
          "ticks": 59712,
          "time": 82.56630150000001,
          "velocity": 0.3858267716535433
        },
        {
          "duration": 0.1327432500000043,
          "durationTicks": 96,
          "midi": 66,
          "name": "F#4",
          "ticks": 61440,
          "time": 84.95568,
          "velocity": 0.3858267716535433
        },
        {
          "duration": 0.1327432500000043,
          "durationTicks": 96,
          "midi": 70,
          "name": "A#4",
          "ticks": 61440,
          "time": 84.95568,
          "velocity": 0.3858267716535433
        },
        {
          "duration": 0.1327432500000043,
          "durationTicks": 96,
          "midi": 63,
          "name": "D#4",
          "ticks": 61440,
          "time": 84.95568,
          "velocity": 0.3858267716535433
        },
        {
          "duration": 0.1327432500000043,
          "durationTicks": 96,
          "midi": 73,
          "name": "C#5",
          "ticks": 61440,
          "time": 84.95568,
          "velocity": 0.3858267716535433
        },
        {
          "duration": 0.1327432500000043,
          "durationTicks": 96,
          "midi": 70,
          "name": "A#4",
          "ticks": 61728,
          "time": 85.35390975,
          "velocity": 0.3858267716535433
        },
        {
          "duration": 0.1327432500000043,
          "durationTicks": 96,
          "midi": 63,
          "name": "D#4",
          "ticks": 61728,
          "time": 85.35390975,
          "velocity": 0.3858267716535433
        },
        {
          "duration": 0.1327432500000043,
          "durationTicks": 96,
          "midi": 66,
          "name": "F#4",
          "ticks": 61728,
          "time": 85.35390975,
          "velocity": 0.3858267716535433
        },
        {
          "duration": 0.1327432500000043,
          "durationTicks": 96,
          "midi": 73,
          "name": "C#5",
          "ticks": 61728,
          "time": 85.35390975,
          "velocity": 0.3858267716535433
        },
        {
          "duration": 0.6637162500000073,
          "durationTicks": 480,
          "midi": 72,
          "name": "C5",
          "ticks": 62016,
          "time": 85.7521395,
          "velocity": 0.3858267716535433
        },
        {
          "duration": 0.6637162500000073,
          "durationTicks": 480,
          "midi": 65,
          "name": "F4",
          "ticks": 62016,
          "time": 85.7521395,
          "velocity": 0.3858267716535433
        },
        {
          "duration": 0.6637162500000073,
          "durationTicks": 480,
          "midi": 75,
          "name": "D#5",
          "ticks": 62016,
          "time": 85.7521395,
          "velocity": 0.3858267716535433
        },
        {
          "duration": 0.6637162500000073,
          "durationTicks": 480,
          "midi": 68,
          "name": "G#4",
          "ticks": 62016,
          "time": 85.7521395,
          "velocity": 0.3858267716535433
        },
        {
          "duration": 0.1327432499999901,
          "durationTicks": 96,
          "midi": 68,
          "name": "G#4",
          "ticks": 62592,
          "time": 86.54859900000001,
          "velocity": 0.3858267716535433
        },
        {
          "duration": 0.1327432500000043,
          "durationTicks": 96,
          "midi": 70,
          "name": "A#4",
          "ticks": 62688,
          "time": 86.68134225,
          "velocity": 0.3858267716535433
        },
        {
          "duration": 0.1327432500000043,
          "durationTicks": 96,
          "midi": 73,
          "name": "C#5",
          "ticks": 62784,
          "time": 86.8140855,
          "velocity": 0.3858267716535433
        },
        {
          "duration": 0.1327432499999901,
          "durationTicks": 96,
          "midi": 70,
          "name": "A#4",
          "ticks": 62880,
          "time": 86.94682875000001,
          "velocity": 0.3858267716535433
        },
        {
          "duration": 0.7964595000000116,
          "durationTicks": 576,
          "midi": 85,
          "name": "C#6",
          "ticks": 62976,
          "time": 87.079572,
          "velocity": 0.3858267716535433
        },
        {
          "duration": 1.0619459999999918,
          "durationTicks": 768,
          "midi": 87,
          "name": "D#6",
          "ticks": 63552,
          "time": 87.87603150000001,
          "velocity": 0.3858267716535433
        },
        {
          "duration": 0.2654865000000086,
          "durationTicks": 192,
          "midi": 80,
          "name": "G#5",
          "ticks": 64320,
          "time": 88.9379775,
          "velocity": 0.3858267716535433
        },
        {
          "duration": 0.7964594999999974,
          "durationTicks": 576,
          "midi": 87,
          "name": "D#6",
          "ticks": 64512,
          "time": 89.20346400000001,
          "velocity": 0.3858267716535433
        },
        {
          "duration": 0.7964594999999974,
          "durationTicks": 576,
          "midi": 89,
          "name": "F6",
          "ticks": 65088,
          "time": 89.99992350000001,
          "velocity": 0.3858267716535433
        },
        {
          "duration": 0.1327432500000043,
          "durationTicks": 96,
          "midi": 89,
          "name": "F6",
          "ticks": 65664,
          "time": 90.796383,
          "velocity": 0.3858267716535433
        },
        {
          "duration": 0.1327432499999901,
          "durationTicks": 96,
          "midi": 90,
          "name": "F#6",
          "ticks": 65760,
          "time": 90.92912625000001,
          "velocity": 0.3858267716535433
        },
        {
          "duration": 0.1327432500000043,
          "durationTicks": 96,
          "midi": 89,
          "name": "F6",
          "ticks": 65856,
          "time": 91.0618695,
          "velocity": 0.3858267716535433
        },
        {
          "duration": 0.9292027500000017,
          "durationTicks": 672,
          "midi": 85,
          "name": "C#6",
          "ticks": 65952,
          "time": 91.19461275,
          "velocity": 0.3858267716535433
        },
        {
          "duration": 0.7964594999999974,
          "durationTicks": 576,
          "midi": 87,
          "name": "D#6",
          "ticks": 66624,
          "time": 92.1238155,
          "velocity": 0.3858267716535433
        },
        {
          "duration": 2.5221217499999966,
          "durationTicks": 1824,
          "midi": 80,
          "name": "G#5",
          "ticks": 67200,
          "time": 92.920275,
          "velocity": 0.3858267716535433
        },
        {
          "duration": 0.7964594999999974,
          "durationTicks": 576,
          "midi": 85,
          "name": "C#6",
          "ticks": 69120,
          "time": 95.57514,
          "velocity": 0.3858267716535433
        },
        {
          "duration": 1.061946000000006,
          "durationTicks": 768,
          "midi": 87,
          "name": "D#6",
          "ticks": 69696,
          "time": 96.3715995,
          "velocity": 0.3858267716535433
        },
        {
          "duration": 0.2654864999999944,
          "durationTicks": 192,
          "midi": 80,
          "name": "G#5",
          "ticks": 70464,
          "time": 97.43354550000001,
          "velocity": 0.3858267716535433
        },
        {
          "duration": 0.7964594999999974,
          "durationTicks": 576,
          "midi": 87,
          "name": "D#6",
          "ticks": 70656,
          "time": 97.699032,
          "velocity": 0.3858267716535433
        },
        {
          "duration": 0.7964595000000116,
          "durationTicks": 576,
          "midi": 89,
          "name": "F6",
          "ticks": 71232,
          "time": 98.4954915,
          "velocity": 0.3858267716535433
        },
        {
          "duration": 0.1327432499999901,
          "durationTicks": 96,
          "midi": 89,
          "name": "F6",
          "ticks": 71808,
          "time": 99.29195100000001,
          "velocity": 0.3858267716535433
        },
        {
          "duration": 0.1327432500000043,
          "durationTicks": 96,
          "midi": 90,
          "name": "F#6",
          "ticks": 71904,
          "time": 99.42469425,
          "velocity": 0.3858267716535433
        },
        {
          "duration": 0.1327432500000043,
          "durationTicks": 96,
          "midi": 89,
          "name": "F6",
          "ticks": 72000,
          "time": 99.5574375,
          "velocity": 0.3858267716535433
        },
        {
          "duration": 0.9292027500000017,
          "durationTicks": 672,
          "midi": 85,
          "name": "C#6",
          "ticks": 72096,
          "time": 99.69018075000001,
          "velocity": 0.3858267716535433
        },
        {
          "duration": 0.7964594999999974,
          "durationTicks": 576,
          "midi": 87,
          "name": "D#6",
          "ticks": 72768,
          "time": 100.61938350000001,
          "velocity": 0.3858267716535433
        },
        {
          "duration": 2.5221217499999966,
          "durationTicks": 1824,
          "midi": 80,
          "name": "G#5",
          "ticks": 73344,
          "time": 101.41584300000001,
          "velocity": 0.3858267716535433
        },
        {
          "duration": 0.7964594999999974,
          "durationTicks": 576,
          "midi": 85,
          "name": "C#6",
          "ticks": 75264,
          "time": 104.07070800000001,
          "velocity": 0.3858267716535433
        },
        {
          "duration": 1.0619459999999918,
          "durationTicks": 768,
          "midi": 87,
          "name": "D#6",
          "ticks": 75840,
          "time": 104.86716750000001,
          "velocity": 0.3858267716535433
        },
        {
          "duration": 0.2654865000000086,
          "durationTicks": 192,
          "midi": 80,
          "name": "G#5",
          "ticks": 76608,
          "time": 105.9291135,
          "velocity": 0.3858267716535433
        },
        {
          "duration": 0.7964594999999974,
          "durationTicks": 576,
          "midi": 87,
          "name": "D#6",
          "ticks": 76800,
          "time": 106.19460000000001,
          "velocity": 0.3858267716535433
        },
        {
          "duration": 0.7964594999999974,
          "durationTicks": 576,
          "midi": 89,
          "name": "F6",
          "ticks": 77376,
          "time": 106.9910595,
          "velocity": 0.3858267716535433
        },
        {
          "duration": 0.1327432500000043,
          "durationTicks": 96,
          "midi": 89,
          "name": "F6",
          "ticks": 77952,
          "time": 107.787519,
          "velocity": 0.3858267716535433
        },
        {
          "duration": 0.1327432500000043,
          "durationTicks": 96,
          "midi": 90,
          "name": "F#6",
          "ticks": 78048,
          "time": 107.92026225000001,
          "velocity": 0.3858267716535433
        },
        {
          "duration": 0.1327432499999901,
          "durationTicks": 96,
          "midi": 89,
          "name": "F6",
          "ticks": 78144,
          "time": 108.05300550000001,
          "velocity": 0.3858267716535433
        },
        {
          "duration": 0.9292027500000017,
          "durationTicks": 672,
          "midi": 85,
          "name": "C#6",
          "ticks": 78240,
          "time": 108.18574875,
          "velocity": 0.3858267716535433
        },
        {
          "duration": 0.7964594999999974,
          "durationTicks": 576,
          "midi": 87,
          "name": "D#6",
          "ticks": 78912,
          "time": 109.1149515,
          "velocity": 0.3858267716535433
        },
        {
          "duration": 2.522121750000011,
          "durationTicks": 1824,
          "midi": 80,
          "name": "G#5",
          "ticks": 79488,
          "time": 109.911411,
          "velocity": 0.3858267716535433
        },
        {
          "duration": 0.7964594999999974,
          "durationTicks": 576,
          "midi": 85,
          "name": "C#6",
          "ticks": 81408,
          "time": 112.566276,
          "velocity": 0.3858267716535433
        },
        {
          "duration": 1.061946000000006,
          "durationTicks": 768,
          "midi": 87,
          "name": "D#6",
          "ticks": 81984,
          "time": 113.3627355,
          "velocity": 0.3858267716535433
        },
        {
          "duration": 0.2654864999999944,
          "durationTicks": 192,
          "midi": 80,
          "name": "G#5",
          "ticks": 82752,
          "time": 114.4246815,
          "velocity": 0.3858267716535433
        },
        {
          "duration": 0.7964595000000116,
          "durationTicks": 576,
          "midi": 87,
          "name": "D#6",
          "ticks": 82944,
          "time": 114.690168,
          "velocity": 0.3858267716535433
        },
        {
          "duration": 0.7964594999999974,
          "durationTicks": 576,
          "midi": 89,
          "name": "F6",
          "ticks": 83520,
          "time": 115.48662750000001,
          "velocity": 0.3858267716535433
        },
        {
          "duration": 0.1327432500000043,
          "durationTicks": 96,
          "midi": 89,
          "name": "F6",
          "ticks": 84096,
          "time": 116.28308700000001,
          "velocity": 0.3858267716535433
        },
        {
          "duration": 0.1327432499999901,
          "durationTicks": 96,
          "midi": 90,
          "name": "F#6",
          "ticks": 84192,
          "time": 116.41583025000001,
          "velocity": 0.3858267716535433
        },
        {
          "duration": 0.1327432500000043,
          "durationTicks": 96,
          "midi": 89,
          "name": "F6",
          "ticks": 84288,
          "time": 116.5485735,
          "velocity": 0.3858267716535433
        },
        {
          "duration": 0.9292027500000017,
          "durationTicks": 672,
          "midi": 85,
          "name": "C#6",
          "ticks": 84384,
          "time": 116.68131675000001,
          "velocity": 0.3858267716535433
        },
        {
          "duration": 0.7964594999999974,
          "durationTicks": 576,
          "midi": 87,
          "name": "D#6",
          "ticks": 85056,
          "time": 117.61051950000001,
          "velocity": 0.3858267716535433
        },
        {
          "duration": 2.5221217499999966,
          "durationTicks": 1824,
          "midi": 80,
          "name": "G#5",
          "ticks": 85632,
          "time": 118.406979,
          "velocity": 0.3858267716535433
        },
        {
          "duration": 0.6637162499999931,
          "durationTicks": 480,
          "midi": 58,
          "name": "A#3",
          "ticks": 116736,
          "time": 161.415792,
          "velocity": 0.3858267716535433
        },
        {
          "duration": 0.6637162499999931,
          "durationTicks": 480,
          "midi": 54,
          "name": "F#3",
          "ticks": 116736,
          "time": 161.415792,
          "velocity": 0.3858267716535433
        },
        {
          "duration": 0.6637162499999931,
          "durationTicks": 480,
          "midi": 65,
          "name": "F4",
          "ticks": 116736,
          "time": 161.415792,
          "velocity": 0.3858267716535433
        },
        {
          "duration": 0.6637162499999931,
          "durationTicks": 480,
          "midi": 61,
          "name": "C#4",
          "ticks": 116736,
          "time": 161.415792,
          "velocity": 0.3858267716535433
        },
        {
          "duration": 0.9292027500000017,
          "durationTicks": 672,
          "midi": 53,
          "name": "F3",
          "ticks": 117312,
          "time": 162.2122515,
          "velocity": 0.3858267716535433
        },
        {
          "duration": 0.9292027500000017,
          "durationTicks": 672,
          "midi": 60,
          "name": "C4",
          "ticks": 117312,
          "time": 162.2122515,
          "velocity": 0.3858267716535433
        },
        {
          "duration": 0.9292027500000017,
          "durationTicks": 672,
          "midi": 63,
          "name": "D#4",
          "ticks": 117312,
          "time": 162.2122515,
          "velocity": 0.3858267716535433
        },
        {
          "duration": 0.9292027500000017,
          "durationTicks": 672,
          "midi": 56,
          "name": "G#3",
          "ticks": 117312,
          "time": 162.2122515,
          "velocity": 0.3858267716535433
        },
        {
          "duration": 0.6637162499999931,
          "durationTicks": 480,
          "midi": 58,
          "name": "A#3",
          "ticks": 122880,
          "time": 169.91136,
          "velocity": 0.3858267716535433
        },
        {
          "duration": 0.6637162499999931,
          "durationTicks": 480,
          "midi": 54,
          "name": "F#3",
          "ticks": 122880,
          "time": 169.91136,
          "velocity": 0.3858267716535433
        },
        {
          "duration": 0.6637162499999931,
          "durationTicks": 480,
          "midi": 65,
          "name": "F4",
          "ticks": 122880,
          "time": 169.91136,
          "velocity": 0.3858267716535433
        },
        {
          "duration": 0.6637162499999931,
          "durationTicks": 480,
          "midi": 61,
          "name": "C#4",
          "ticks": 122880,
          "time": 169.91136,
          "velocity": 0.3858267716535433
        },
        {
          "duration": 0.9292027500000017,
          "durationTicks": 672,
          "midi": 53,
          "name": "F3",
          "ticks": 123456,
          "time": 170.7078195,
          "velocity": 0.3858267716535433
        },
        {
          "duration": 0.9292027500000017,
          "durationTicks": 672,
          "midi": 60,
          "name": "C4",
          "ticks": 123456,
          "time": 170.7078195,
          "velocity": 0.3858267716535433
        },
        {
          "duration": 0.9292027500000017,
          "durationTicks": 672,
          "midi": 63,
          "name": "D#4",
          "ticks": 123456,
          "time": 170.7078195,
          "velocity": 0.3858267716535433
        },
        {
          "duration": 0.9292027500000017,
          "durationTicks": 672,
          "midi": 56,
          "name": "G#3",
          "ticks": 123456,
          "time": 170.7078195,
          "velocity": 0.3858267716535433
        },
        {
          "duration": 1.5929189999999949,
          "durationTicks": 1152,
          "midi": 63,
          "name": "D#4",
          "ticks": 124416,
          "time": 172.035252,
          "velocity": 0.3858267716535433
        },
        {
          "duration": 1.5929189999999949,
          "durationTicks": 1152,
          "midi": 73,
          "name": "C#5",
          "ticks": 124416,
          "time": 172.035252,
          "velocity": 0.3858267716535433
        },
        {
          "duration": 1.5929189999999949,
          "durationTicks": 1152,
          "midi": 70,
          "name": "A#4",
          "ticks": 124416,
          "time": 172.035252,
          "velocity": 0.3858267716535433
        },
        {
          "duration": 1.5929189999999949,
          "durationTicks": 1152,
          "midi": 66,
          "name": "F#4",
          "ticks": 124416,
          "time": 172.035252,
          "velocity": 0.3858267716535433
        },
        {
          "duration": 1.5929189999999949,
          "durationTicks": 1152,
          "midi": 61,
          "name": "C#4",
          "ticks": 124416,
          "time": 172.035252,
          "velocity": 0.3858267716535433
        },
        {
          "duration": 1.9911487499999794,
          "durationTicks": 1440,
          "midi": 63,
          "name": "D#4",
          "ticks": 125760,
          "time": 173.89365750000002,
          "velocity": 0.3858267716535433
        },
        {
          "duration": 1.9911487499999794,
          "durationTicks": 1440,
          "midi": 65,
          "name": "F4",
          "ticks": 125760,
          "time": 173.89365750000002,
          "velocity": 0.3858267716535433
        },
        {
          "duration": 1.9911487499999794,
          "durationTicks": 1440,
          "midi": 68,
          "name": "G#4",
          "ticks": 125760,
          "time": 173.89365750000002,
          "velocity": 0.3858267716535433
        },
        {
          "duration": 1.9911487499999794,
          "durationTicks": 1440,
          "midi": 75,
          "name": "D#5",
          "ticks": 125760,
          "time": 173.89365750000002,
          "velocity": 0.3858267716535433
        },
        {
          "duration": 1.9911487499999794,
          "durationTicks": 1440,
          "midi": 72,
          "name": "C5",
          "ticks": 125760,
          "time": 173.89365750000002,
          "velocity": 0.3858267716535433
        },
        {
          "duration": 2.123892000000012,
          "durationTicks": 1536,
          "midi": 68,
          "name": "G#4",
          "ticks": 127296,
          "time": 176.0175495,
          "velocity": 0.3858267716535433
        },
        {
          "duration": 2.123892000000012,
          "durationTicks": 1536,
          "midi": 77,
          "name": "F5",
          "ticks": 127296,
          "time": 176.0175495,
          "velocity": 0.3858267716535433
        },
        {
          "duration": 2.123892000000012,
          "durationTicks": 1536,
          "midi": 70,
          "name": "A#4",
          "ticks": 127296,
          "time": 176.0175495,
          "velocity": 0.3858267716535433
        },
        {
          "duration": 2.123892000000012,
          "durationTicks": 1536,
          "midi": 73,
          "name": "C#5",
          "ticks": 127296,
          "time": 176.0175495,
          "velocity": 0.3858267716535433
        },
        {
          "duration": 2.2566352500000164,
          "durationTicks": 1632,
          "midi": 66,
          "name": "F#4",
          "ticks": 127296,
          "time": 176.0175495,
          "velocity": 0.3858267716535433
        },
        {
          "duration": 0.1327432499999759,
          "durationTicks": 96,
          "midi": 66,
          "name": "F#4",
          "ticks": 129024,
          "time": 178.40692800000002,
          "velocity": 0.3858267716535433
        },
        {
          "duration": 0.1327432499999759,
          "durationTicks": 96,
          "midi": 70,
          "name": "A#4",
          "ticks": 129024,
          "time": 178.40692800000002,
          "velocity": 0.3858267716535433
        },
        {
          "duration": 0.1327432499999759,
          "durationTicks": 96,
          "midi": 63,
          "name": "D#4",
          "ticks": 129024,
          "time": 178.40692800000002,
          "velocity": 0.3858267716535433
        },
        {
          "duration": 0.1327432499999759,
          "durationTicks": 96,
          "midi": 73,
          "name": "C#5",
          "ticks": 129024,
          "time": 178.40692800000002,
          "velocity": 0.3858267716535433
        },
        {
          "duration": 0.1327432500000043,
          "durationTicks": 96,
          "midi": 70,
          "name": "A#4",
          "ticks": 129312,
          "time": 178.80515775,
          "velocity": 0.3858267716535433
        },
        {
          "duration": 0.1327432500000043,
          "durationTicks": 96,
          "midi": 63,
          "name": "D#4",
          "ticks": 129312,
          "time": 178.80515775,
          "velocity": 0.3858267716535433
        },
        {
          "duration": 0.1327432500000043,
          "durationTicks": 96,
          "midi": 66,
          "name": "F#4",
          "ticks": 129312,
          "time": 178.80515775,
          "velocity": 0.3858267716535433
        },
        {
          "duration": 0.1327432500000043,
          "durationTicks": 96,
          "midi": 73,
          "name": "C#5",
          "ticks": 129312,
          "time": 178.80515775,
          "velocity": 0.3858267716535433
        },
        {
          "duration": 0.6637162499999931,
          "durationTicks": 480,
          "midi": 72,
          "name": "C5",
          "ticks": 129600,
          "time": 179.20338750000002,
          "velocity": 0.3858267716535433
        },
        {
          "duration": 0.6637162499999931,
          "durationTicks": 480,
          "midi": 65,
          "name": "F4",
          "ticks": 129600,
          "time": 179.20338750000002,
          "velocity": 0.3858267716535433
        },
        {
          "duration": 0.6637162499999931,
          "durationTicks": 480,
          "midi": 75,
          "name": "D#5",
          "ticks": 129600,
          "time": 179.20338750000002,
          "velocity": 0.3858267716535433
        },
        {
          "duration": 0.6637162499999931,
          "durationTicks": 480,
          "midi": 68,
          "name": "G#4",
          "ticks": 129600,
          "time": 179.20338750000002,
          "velocity": 0.3858267716535433
        },
        {
          "duration": 0.1327432500000043,
          "durationTicks": 96,
          "midi": 68,
          "name": "G#4",
          "ticks": 130176,
          "time": 179.99984700000002,
          "velocity": 0.3858267716535433
        },
        {
          "duration": 0.1327432499999759,
          "durationTicks": 96,
          "midi": 70,
          "name": "A#4",
          "ticks": 130272,
          "time": 180.13259025000002,
          "velocity": 0.3858267716535433
        },
        {
          "duration": 0.1327432500000043,
          "durationTicks": 96,
          "midi": 73,
          "name": "C#5",
          "ticks": 130368,
          "time": 180.2653335,
          "velocity": 0.3858267716535433
        },
        {
          "duration": 0.1327432500000043,
          "durationTicks": 96,
          "midi": 70,
          "name": "A#4",
          "ticks": 130464,
          "time": 180.39807675,
          "velocity": 0.3858267716535433
        },
        {
          "duration": 0.7964594999999974,
          "durationTicks": 576,
          "midi": 85,
          "name": "C#6",
          "ticks": 130560,
          "time": 180.53082,
          "velocity": 0.3858267716535433
        },
        {
          "duration": 1.061946000000006,
          "durationTicks": 768,
          "midi": 87,
          "name": "D#6",
          "ticks": 131136,
          "time": 181.3272795,
          "velocity": 0.3858267716535433
        },
        {
          "duration": 0.2654865000000086,
          "durationTicks": 192,
          "midi": 80,
          "name": "G#5",
          "ticks": 131904,
          "time": 182.3892255,
          "velocity": 0.3858267716535433
        },
        {
          "duration": 0.7964594999999974,
          "durationTicks": 576,
          "midi": 87,
          "name": "D#6",
          "ticks": 132096,
          "time": 182.65471200000002,
          "velocity": 0.3858267716535433
        },
        {
          "duration": 0.7964594999999974,
          "durationTicks": 576,
          "midi": 89,
          "name": "F6",
          "ticks": 132672,
          "time": 183.45117150000002,
          "velocity": 0.3858267716535433
        },
        {
          "duration": 0.1327432500000043,
          "durationTicks": 96,
          "midi": 89,
          "name": "F6",
          "ticks": 133248,
          "time": 184.247631,
          "velocity": 0.3858267716535433
        },
        {
          "duration": 0.1327432500000043,
          "durationTicks": 96,
          "midi": 90,
          "name": "F#6",
          "ticks": 133344,
          "time": 184.38037425000002,
          "velocity": 0.3858267716535433
        },
        {
          "duration": 0.1327432499999759,
          "durationTicks": 96,
          "midi": 89,
          "name": "F6",
          "ticks": 133440,
          "time": 184.51311750000002,
          "velocity": 0.3858267716535433
        },
        {
          "duration": 0.9292027500000017,
          "durationTicks": 672,
          "midi": 85,
          "name": "C#6",
          "ticks": 133536,
          "time": 184.64586075,
          "velocity": 0.3858267716535433
        },
        {
          "duration": 0.7964594999999974,
          "durationTicks": 576,
          "midi": 87,
          "name": "D#6",
          "ticks": 134208,
          "time": 185.5750635,
          "velocity": 0.3858267716535433
        },
        {
          "duration": 2.522121750000025,
          "durationTicks": 1824,
          "midi": 80,
          "name": "G#5",
          "ticks": 134784,
          "time": 186.371523,
          "velocity": 0.3858267716535433
        },
        {
          "duration": 0.7964595000000259,
          "durationTicks": 576,
          "midi": 85,
          "name": "C#6",
          "ticks": 136704,
          "time": 189.026388,
          "velocity": 0.3858267716535433
        },
        {
          "duration": 1.0619459999999776,
          "durationTicks": 768,
          "midi": 87,
          "name": "D#6",
          "ticks": 137280,
          "time": 189.82284750000002,
          "velocity": 0.3858267716535433
        },
        {
          "duration": 0.2654865000000086,
          "durationTicks": 192,
          "midi": 80,
          "name": "G#5",
          "ticks": 138048,
          "time": 190.8847935,
          "velocity": 0.3858267716535433
        },
        {
          "duration": 0.7964594999999974,
          "durationTicks": 576,
          "midi": 87,
          "name": "D#6",
          "ticks": 138240,
          "time": 191.15028,
          "velocity": 0.3858267716535433
        },
        {
          "duration": 0.7964594999999974,
          "durationTicks": 576,
          "midi": 89,
          "name": "F6",
          "ticks": 138816,
          "time": 191.9467395,
          "velocity": 0.3858267716535433
        },
        {
          "duration": 0.1327432500000043,
          "durationTicks": 96,
          "midi": 89,
          "name": "F6",
          "ticks": 139392,
          "time": 192.743199,
          "velocity": 0.3858267716535433
        },
        {
          "duration": 0.1327432500000043,
          "durationTicks": 96,
          "midi": 90,
          "name": "F#6",
          "ticks": 139488,
          "time": 192.87594225,
          "velocity": 0.3858267716535433
        },
        {
          "duration": 0.1327432500000043,
          "durationTicks": 96,
          "midi": 89,
          "name": "F6",
          "ticks": 139584,
          "time": 193.0086855,
          "velocity": 0.3858267716535433
        },
        {
          "duration": 0.9292027500000017,
          "durationTicks": 672,
          "midi": 85,
          "name": "C#6",
          "ticks": 139680,
          "time": 193.14142875000002,
          "velocity": 0.3858267716535433
        },
        {
          "duration": 0.7964594999999974,
          "durationTicks": 576,
          "midi": 87,
          "name": "D#6",
          "ticks": 140352,
          "time": 194.07063150000002,
          "velocity": 0.3858267716535433
        },
        {
          "duration": 2.5221217499999966,
          "durationTicks": 1824,
          "midi": 80,
          "name": "G#5",
          "ticks": 140928,
          "time": 194.86709100000002,
          "velocity": 0.3858267716535433
        },
        {
          "duration": 0.7964594999999974,
          "durationTicks": 576,
          "midi": 85,
          "name": "C#6",
          "ticks": 142848,
          "time": 197.52195600000002,
          "velocity": 0.3858267716535433
        },
        {
          "duration": 1.061946000000006,
          "durationTicks": 768,
          "midi": 87,
          "name": "D#6",
          "ticks": 143424,
          "time": 198.31841550000001,
          "velocity": 0.3858267716535433
        },
        {
          "duration": 0.2654864999999802,
          "durationTicks": 192,
          "midi": 80,
          "name": "G#5",
          "ticks": 144192,
          "time": 199.38036150000002,
          "velocity": 0.3858267716535433
        },
        {
          "duration": 0.7964594999999974,
          "durationTicks": 576,
          "midi": 87,
          "name": "D#6",
          "ticks": 144384,
          "time": 199.645848,
          "velocity": 0.3858267716535433
        },
        {
          "duration": 0.7964595000000259,
          "durationTicks": 576,
          "midi": 89,
          "name": "F6",
          "ticks": 144960,
          "time": 200.4423075,
          "velocity": 0.3858267716535433
        },
        {
          "duration": 0.1327432499999759,
          "durationTicks": 96,
          "midi": 89,
          "name": "F6",
          "ticks": 145536,
          "time": 201.23876700000002,
          "velocity": 0.3858267716535433
        },
        {
          "duration": 0.1327432500000043,
          "durationTicks": 96,
          "midi": 90,
          "name": "F#6",
          "ticks": 145632,
          "time": 201.37151025,
          "velocity": 0.3858267716535433
        },
        {
          "duration": 0.1327432500000043,
          "durationTicks": 96,
          "midi": 89,
          "name": "F6",
          "ticks": 145728,
          "time": 201.5042535,
          "velocity": 0.3858267716535433
        },
        {
          "duration": 0.9292027500000017,
          "durationTicks": 672,
          "midi": 85,
          "name": "C#6",
          "ticks": 145824,
          "time": 201.63699675,
          "velocity": 0.3858267716535433
        },
        {
          "duration": 0.7964594999999974,
          "durationTicks": 576,
          "midi": 87,
          "name": "D#6",
          "ticks": 146496,
          "time": 202.5661995,
          "velocity": 0.3858267716535433
        },
        {
          "duration": 2.5221217499999966,
          "durationTicks": 1824,
          "midi": 80,
          "name": "G#5",
          "ticks": 147072,
          "time": 203.362659,
          "velocity": 0.3858267716535433
        },
        {
          "duration": 0.7964594999999974,
          "durationTicks": 576,
          "midi": 85,
          "name": "C#6",
          "ticks": 148992,
          "time": 206.017524,
          "velocity": 0.3858267716535433
        },
        {
          "duration": 1.061946000000006,
          "durationTicks": 768,
          "midi": 87,
          "name": "D#6",
          "ticks": 149568,
          "time": 206.8139835,
          "velocity": 0.3858267716535433
        },
        {
          "duration": 0.2654865000000086,
          "durationTicks": 192,
          "midi": 80,
          "name": "G#5",
          "ticks": 150336,
          "time": 207.8759295,
          "velocity": 0.3858267716535433
        },
        {
          "duration": 0.7964594999999974,
          "durationTicks": 576,
          "midi": 87,
          "name": "D#6",
          "ticks": 150528,
          "time": 208.14141600000002,
          "velocity": 0.3858267716535433
        },
        {
          "duration": 0.7964594999999974,
          "durationTicks": 576,
          "midi": 89,
          "name": "F6",
          "ticks": 151104,
          "time": 208.93787550000002,
          "velocity": 0.3858267716535433
        },
        {
          "duration": 0.1327432500000043,
          "durationTicks": 96,
          "midi": 89,
          "name": "F6",
          "ticks": 151680,
          "time": 209.73433500000002,
          "velocity": 0.3858267716535433
        },
        {
          "duration": 0.1327432500000043,
          "durationTicks": 96,
          "midi": 90,
          "name": "F#6",
          "ticks": 151776,
          "time": 209.86707825000002,
          "velocity": 0.3858267716535433
        },
        {
          "duration": 0.1327432499999759,
          "durationTicks": 96,
          "midi": 89,
          "name": "F6",
          "ticks": 151872,
          "time": 209.99982150000002,
          "velocity": 0.3858267716535433
        },
        {
          "duration": 0.9292027500000017,
          "durationTicks": 672,
          "midi": 85,
          "name": "C#6",
          "ticks": 151968,
          "time": 210.13256475,
          "velocity": 0.3858267716535433
        },
        {
          "duration": 0.7964594999999974,
          "durationTicks": 576,
          "midi": 87,
          "name": "D#6",
          "ticks": 152640,
          "time": 211.0617675,
          "velocity": 0.3858267716535433
        },
        {
          "duration": 2.522121750000025,
          "durationTicks": 1824,
          "midi": 80,
          "name": "G#5",
          "ticks": 153216,
          "time": 211.858227,
          "velocity": 0.3858267716535433
        }
      ],
      "endOfTrackTicks": 155040
    },
    {
      "channel": 4,
      "controlChanges": {},
      "pitchBends": [],
      "instrument": {
        "family": "piano",
        "number": 0,
        "name": "acoustic grand piano"
      },
      "name": "Elec. Piano (Classic)",
      "notes": [
        {
          "duration": 0.13274324999999898,
          "durationTicks": 96,
          "midi": 85,
          "name": "C#6",
          "ticks": 6912,
          "time": 9.557514000000001,
          "velocity": 0.2992125984251969
        },
        {
          "duration": 0.13274324999999898,
          "durationTicks": 96,
          "midi": 68,
          "name": "G#4",
          "ticks": 6912,
          "time": 9.557514000000001,
          "velocity": 0.2992125984251969
        },
        {
          "duration": 0.13274324999999898,
          "durationTicks": 96,
          "midi": 80,
          "name": "G#5",
          "ticks": 6912,
          "time": 9.557514000000001,
          "velocity": 0.2992125984251969
        },
        {
          "duration": 0.13274325000000076,
          "durationTicks": 96,
          "midi": 85,
          "name": "C#6",
          "ticks": 7008,
          "time": 9.69025725,
          "velocity": 0.2992125984251969
        },
        {
          "duration": 0.13274325000000076,
          "durationTicks": 96,
          "midi": 80,
          "name": "G#5",
          "ticks": 7008,
          "time": 9.69025725,
          "velocity": 0.2992125984251969
        },
        {
          "duration": 0.13274325000000076,
          "durationTicks": 96,
          "midi": 68,
          "name": "G#4",
          "ticks": 7008,
          "time": 9.69025725,
          "velocity": 0.2992125984251969
        },
        {
          "duration": 0.13274325000000076,
          "durationTicks": 96,
          "midi": 80,
          "name": "G#5",
          "ticks": 7200,
          "time": 9.95574375,
          "velocity": 0.2992125984251969
        },
        {
          "duration": 0.13274325000000076,
          "durationTicks": 96,
          "midi": 85,
          "name": "C#6",
          "ticks": 7200,
          "time": 9.95574375,
          "velocity": 0.2992125984251969
        },
        {
          "duration": 0.13274325000000076,
          "durationTicks": 96,
          "midi": 68,
          "name": "G#4",
          "ticks": 7200,
          "time": 9.95574375,
          "velocity": 0.2992125984251969
        },
        {
          "duration": 0.13274325000000076,
          "durationTicks": 96,
          "midi": 85,
          "name": "C#6",
          "ticks": 7296,
          "time": 10.088487,
          "velocity": 0.2992125984251969
        },
        {
          "duration": 0.13274325000000076,
          "durationTicks": 96,
          "midi": 80,
          "name": "G#5",
          "ticks": 7296,
          "time": 10.088487,
          "velocity": 0.2992125984251969
        },
        {
          "duration": 0.13274325000000076,
          "durationTicks": 96,
          "midi": 68,
          "name": "G#4",
          "ticks": 7296,
          "time": 10.088487,
          "velocity": 0.2992125984251969
        },
        {
          "duration": 0.13274324999999898,
          "durationTicks": 96,
          "midi": 85,
          "name": "C#6",
          "ticks": 7392,
          "time": 10.221230250000001,
          "velocity": 0.2992125984251969
        },
        {
          "duration": 0.13274324999999898,
          "durationTicks": 96,
          "midi": 80,
          "name": "G#5",
          "ticks": 7392,
          "time": 10.221230250000001,
          "velocity": 0.2992125984251969
        },
        {
          "duration": 0.13274324999999898,
          "durationTicks": 96,
          "midi": 68,
          "name": "G#4",
          "ticks": 7392,
          "time": 10.221230250000001,
          "velocity": 0.2992125984251969
        },
        {
          "duration": 0.13274325000000076,
          "durationTicks": 96,
          "midi": 85,
          "name": "C#6",
          "ticks": 7488,
          "time": 10.3539735,
          "velocity": 0.2992125984251969
        },
        {
          "duration": 0.13274325000000076,
          "durationTicks": 96,
          "midi": 80,
          "name": "G#5",
          "ticks": 7488,
          "time": 10.3539735,
          "velocity": 0.2992125984251969
        },
        {
          "duration": 0.13274325000000076,
          "durationTicks": 96,
          "midi": 68,
          "name": "G#4",
          "ticks": 7488,
          "time": 10.3539735,
          "velocity": 0.2992125984251969
        },
        {
          "duration": 0.13274324999999898,
          "durationTicks": 96,
          "midi": 68,
          "name": "G#4",
          "ticks": 7584,
          "time": 10.486716750000001,
          "velocity": 0.2992125984251969
        },
        {
          "duration": 0.13274324999999898,
          "durationTicks": 96,
          "midi": 85,
          "name": "C#6",
          "ticks": 7584,
          "time": 10.486716750000001,
          "velocity": 0.2992125984251969
        },
        {
          "duration": 0.13274324999999898,
          "durationTicks": 96,
          "midi": 80,
          "name": "G#5",
          "ticks": 7584,
          "time": 10.486716750000001,
          "velocity": 0.2992125984251969
        },
        {
          "duration": 0.13274325000000076,
          "durationTicks": 96,
          "midi": 85,
          "name": "C#6",
          "ticks": 13056,
          "time": 18.053082,
          "velocity": 0.2992125984251969
        },
        {
          "duration": 0.13274325000000076,
          "durationTicks": 96,
          "midi": 68,
          "name": "G#4",
          "ticks": 13056,
          "time": 18.053082,
          "velocity": 0.2992125984251969
        },
        {
          "duration": 0.13274325000000076,
          "durationTicks": 96,
          "midi": 80,
          "name": "G#5",
          "ticks": 13056,
          "time": 18.053082,
          "velocity": 0.2992125984251969
        },
        {
          "duration": 0.13274325000000076,
          "durationTicks": 96,
          "midi": 85,
          "name": "C#6",
          "ticks": 13152,
          "time": 18.18582525,
          "velocity": 0.2992125984251969
        },
        {
          "duration": 0.13274325000000076,
          "durationTicks": 96,
          "midi": 80,
          "name": "G#5",
          "ticks": 13152,
          "time": 18.18582525,
          "velocity": 0.2992125984251969
        },
        {
          "duration": 0.13274325000000076,
          "durationTicks": 96,
          "midi": 68,
          "name": "G#4",
          "ticks": 13152,
          "time": 18.18582525,
          "velocity": 0.2992125984251969
        },
        {
          "duration": 0.1327432499999972,
          "durationTicks": 96,
          "midi": 80,
          "name": "G#5",
          "ticks": 13344,
          "time": 18.451311750000002,
          "velocity": 0.2992125984251969
        },
        {
          "duration": 0.1327432499999972,
          "durationTicks": 96,
          "midi": 85,
          "name": "C#6",
          "ticks": 13344,
          "time": 18.451311750000002,
          "velocity": 0.2992125984251969
        },
        {
          "duration": 0.1327432499999972,
          "durationTicks": 96,
          "midi": 68,
          "name": "G#4",
          "ticks": 13344,
          "time": 18.451311750000002,
          "velocity": 0.2992125984251969
        },
        {
          "duration": 0.13274325000000076,
          "durationTicks": 96,
          "midi": 85,
          "name": "C#6",
          "ticks": 13440,
          "time": 18.584055,
          "velocity": 0.2992125984251969
        },
        {
          "duration": 0.13274325000000076,
          "durationTicks": 96,
          "midi": 80,
          "name": "G#5",
          "ticks": 13440,
          "time": 18.584055,
          "velocity": 0.2992125984251969
        },
        {
          "duration": 0.13274325000000076,
          "durationTicks": 96,
          "midi": 68,
          "name": "G#4",
          "ticks": 13440,
          "time": 18.584055,
          "velocity": 0.2992125984251969
        },
        {
          "duration": 0.13274325000000076,
          "durationTicks": 96,
          "midi": 85,
          "name": "C#6",
          "ticks": 13536,
          "time": 18.71679825,
          "velocity": 0.2992125984251969
        },
        {
          "duration": 0.13274325000000076,
          "durationTicks": 96,
          "midi": 80,
          "name": "G#5",
          "ticks": 13536,
          "time": 18.71679825,
          "velocity": 0.2992125984251969
        },
        {
          "duration": 0.13274325000000076,
          "durationTicks": 96,
          "midi": 68,
          "name": "G#4",
          "ticks": 13536,
          "time": 18.71679825,
          "velocity": 0.2992125984251969
        },
        {
          "duration": 0.13274325000000076,
          "durationTicks": 96,
          "midi": 85,
          "name": "C#6",
          "ticks": 13632,
          "time": 18.8495415,
          "velocity": 0.2992125984251969
        },
        {
          "duration": 0.13274325000000076,
          "durationTicks": 96,
          "midi": 80,
          "name": "G#5",
          "ticks": 13632,
          "time": 18.8495415,
          "velocity": 0.2992125984251969
        },
        {
          "duration": 0.13274325000000076,
          "durationTicks": 96,
          "midi": 68,
          "name": "G#4",
          "ticks": 13632,
          "time": 18.8495415,
          "velocity": 0.2992125984251969
        },
        {
          "duration": 0.13274325000000076,
          "durationTicks": 96,
          "midi": 68,
          "name": "G#4",
          "ticks": 13728,
          "time": 18.98228475,
          "velocity": 0.2992125984251969
        },
        {
          "duration": 0.13274325000000076,
          "durationTicks": 96,
          "midi": 85,
          "name": "C#6",
          "ticks": 13728,
          "time": 18.98228475,
          "velocity": 0.2992125984251969
        },
        {
          "duration": 0.13274325000000076,
          "durationTicks": 96,
          "midi": 80,
          "name": "G#5",
          "ticks": 13728,
          "time": 18.98228475,
          "velocity": 0.2992125984251969
        },
        {
          "duration": 0.2654865000000015,
          "durationTicks": 192,
          "midi": 56,
          "name": "G#3",
          "ticks": 18240,
          "time": 25.2212175,
          "velocity": 0.2992125984251969
        },
        {
          "duration": 0.2654865000000015,
          "durationTicks": 192,
          "midi": 68,
          "name": "G#4",
          "ticks": 18240,
          "time": 25.2212175,
          "velocity": 0.2992125984251969
        },
        {
          "duration": 0.1327432499999972,
          "durationTicks": 96,
          "midi": 80,
          "name": "G#5",
          "ticks": 18432,
          "time": 25.486704000000003,
          "velocity": 0.2992125984251969
        },
        {
          "duration": 0.1327432499999972,
          "durationTicks": 96,
          "midi": 68,
          "name": "G#4",
          "ticks": 18432,
          "time": 25.486704000000003,
          "velocity": 0.2992125984251969
        },
        {
          "duration": 0.26548649999999796,
          "durationTicks": 192,
          "midi": 68,
          "name": "G#4",
          "ticks": 18816,
          "time": 26.017677000000003,
          "velocity": 0.2992125984251969
        },
        {
          "duration": 0.26548649999999796,
          "durationTicks": 192,
          "midi": 80,
          "name": "G#5",
          "ticks": 18816,
          "time": 26.017677000000003,
          "velocity": 0.2992125984251969
        },
        {
          "duration": 0.5309729999999995,
          "durationTicks": 384,
          "midi": 75,
          "name": "D#5",
          "ticks": 19008,
          "time": 26.2831635,
          "velocity": 0.2992125984251969
        },
        {
          "duration": 0.5309729999999995,
          "durationTicks": 384,
          "midi": 63,
          "name": "D#4",
          "ticks": 19008,
          "time": 26.2831635,
          "velocity": 0.2992125984251969
        },
        {
          "duration": 0.2654865000000015,
          "durationTicks": 192,
          "midi": 65,
          "name": "F4",
          "ticks": 19392,
          "time": 26.8141365,
          "velocity": 0.2992125984251969
        },
        {
          "duration": 0.2654865000000015,
          "durationTicks": 192,
          "midi": 77,
          "name": "F5",
          "ticks": 19392,
          "time": 26.8141365,
          "velocity": 0.2992125984251969
        },
        {
          "duration": 0.2654865000000015,
          "durationTicks": 192,
          "midi": 63,
          "name": "D#4",
          "ticks": 19584,
          "time": 27.079623,
          "velocity": 0.2992125984251969
        },
        {
          "duration": 0.2654865000000015,
          "durationTicks": 192,
          "midi": 75,
          "name": "D#5",
          "ticks": 19584,
          "time": 27.079623,
          "velocity": 0.2992125984251969
        },
        {
          "duration": 0.1327432499999972,
          "durationTicks": 96,
          "midi": 73,
          "name": "C#5",
          "ticks": 19776,
          "time": 27.345109500000003,
          "velocity": 0.2992125984251969
        },
        {
          "duration": 0.1327432499999972,
          "durationTicks": 96,
          "midi": 61,
          "name": "C#4",
          "ticks": 19776,
          "time": 27.345109500000003,
          "velocity": 0.2992125984251969
        },
        {
          "duration": 2.1238920000000014,
          "durationTicks": 1536,
          "midi": 68,
          "name": "G#4",
          "ticks": 23040,
          "time": 31.85838,
          "velocity": 0.2992125984251969
        },
        {
          "duration": 2.1238920000000014,
          "durationTicks": 1536,
          "midi": 80,
          "name": "G#5",
          "ticks": 23040,
          "time": 31.85838,
          "velocity": 0.2992125984251969
        },
        {
          "duration": 0.1327432499999972,
          "durationTicks": 96,
          "midi": 77,
          "name": "F5",
          "ticks": 24768,
          "time": 34.2477585,
          "velocity": 0.2992125984251969
        },
        {
          "duration": 0.1327432499999972,
          "durationTicks": 96,
          "midi": 65,
          "name": "F4",
          "ticks": 24768,
          "time": 34.2477585,
          "velocity": 0.2992125984251969
        },
        {
          "duration": 0.1327432500000043,
          "durationTicks": 96,
          "midi": 75,
          "name": "D#5",
          "ticks": 25152,
          "time": 34.7787315,
          "velocity": 0.2992125984251969
        },
        {
          "duration": 0.2654865000000015,
          "durationTicks": 192,
          "midi": 63,
          "name": "D#4",
          "ticks": 25152,
          "time": 34.7787315,
          "velocity": 0.2992125984251969
        },
        {
          "duration": 0.1327432499999972,
          "durationTicks": 96,
          "midi": 61,
          "name": "C#4",
          "ticks": 25536,
          "time": 35.3097045,
          "velocity": 0.2992125984251969
        },
        {
          "duration": 0.1327432499999972,
          "durationTicks": 96,
          "midi": 73,
          "name": "C#5",
          "ticks": 25536,
          "time": 35.3097045,
          "velocity": 0.2992125984251969
        },
        {
          "duration": 1.8584054999999964,
          "durationTicks": 1344,
          "midi": 58,
          "name": "A#3",
          "ticks": 25920,
          "time": 35.840677500000005,
          "velocity": 0.2992125984251969
        },
        {
          "duration": 1.8584054999999964,
          "durationTicks": 1344,
          "midi": 70,
          "name": "A#4",
          "ticks": 25920,
          "time": 35.840677500000005,
          "velocity": 0.2992125984251969
        },
        {
          "duration": 0.5309729999999959,
          "durationTicks": 384,
          "midi": 56,
          "name": "G#3",
          "ticks": 31296,
          "time": 43.274299500000005,
          "velocity": 0.2992125984251969
        },
        {
          "duration": 0.5309729999999959,
          "durationTicks": 384,
          "midi": 68,
          "name": "G#4",
          "ticks": 31296,
          "time": 43.274299500000005,
          "velocity": 0.2992125984251969
        },
        {
          "duration": 0.1327432500000043,
          "durationTicks": 96,
          "midi": 80,
          "name": "G#5",
          "ticks": 31680,
          "time": 43.8052725,
          "velocity": 0.2992125984251969
        },
        {
          "duration": 0.1327432500000043,
          "durationTicks": 96,
          "midi": 68,
          "name": "G#4",
          "ticks": 31680,
          "time": 43.8052725,
          "velocity": 0.2992125984251969
        },
        {
          "duration": 0.1327432499999972,
          "durationTicks": 96,
          "midi": 80,
          "name": "G#5",
          "ticks": 31776,
          "time": 43.938015750000005,
          "velocity": 0.2992125984251969
        },
        {
          "duration": 0.1327432499999972,
          "durationTicks": 96,
          "midi": 68,
          "name": "G#4",
          "ticks": 31776,
          "time": 43.938015750000005,
          "velocity": 0.2992125984251969
        },
        {
          "duration": 0.1327432499999972,
          "durationTicks": 96,
          "midi": 68,
          "name": "G#4",
          "ticks": 31872,
          "time": 44.070759,
          "velocity": 0.2992125984251969
        },
        {
          "duration": 0.1327432499999972,
          "durationTicks": 96,
          "midi": 80,
          "name": "G#5",
          "ticks": 31872,
          "time": 44.070759,
          "velocity": 0.2992125984251969
        },
        {
          "duration": 0.1327432500000043,
          "durationTicks": 96,
          "midi": 70,
          "name": "A#4",
          "ticks": 31968,
          "time": 44.20350225,
          "velocity": 0.2992125984251969
        },
        {
          "duration": 0.1327432500000043,
          "durationTicks": 96,
          "midi": 82,
          "name": "A#5",
          "ticks": 31968,
          "time": 44.20350225,
          "velocity": 0.2992125984251969
        },
        {
          "duration": 0.1327432499999972,
          "durationTicks": 96,
          "midi": 73,
          "name": "C#5",
          "ticks": 32064,
          "time": 44.336245500000004,
          "velocity": 0.2992125984251969
        },
        {
          "duration": 0.1327432499999972,
          "durationTicks": 96,
          "midi": 85,
          "name": "C#6",
          "ticks": 32064,
          "time": 44.336245500000004,
          "velocity": 0.2992125984251969
        },
        {
          "duration": 0.1327432500000043,
          "durationTicks": 96,
          "midi": 82,
          "name": "A#5",
          "ticks": 32160,
          "time": 44.46898875,
          "velocity": 0.2992125984251969
        },
        {
          "duration": 0.1327432500000043,
          "durationTicks": 96,
          "midi": 70,
          "name": "A#4",
          "ticks": 32160,
          "time": 44.46898875,
          "velocity": 0.2992125984251969
        },
        {
          "duration": 0.1327432499999972,
          "durationTicks": 96,
          "midi": 68,
          "name": "G#4",
          "ticks": 37632,
          "time": 52.035354000000005,
          "velocity": 0.2992125984251969
        },
        {
          "duration": 0.1327432499999972,
          "durationTicks": 96,
          "midi": 80,
          "name": "G#5",
          "ticks": 37632,
          "time": 52.035354000000005,
          "velocity": 0.2992125984251969
        },
        {
          "duration": 0.1327432499999972,
          "durationTicks": 96,
          "midi": 80,
          "name": "G#5",
          "ticks": 37728,
          "time": 52.16809725,
          "velocity": 0.2992125984251969
        },
        {
          "duration": 0.1327432499999972,
          "durationTicks": 96,
          "midi": 68,
          "name": "G#4",
          "ticks": 37728,
          "time": 52.16809725,
          "velocity": 0.2992125984251969
        },
        {
          "duration": 0.1327432499999972,
          "durationTicks": 96,
          "midi": 80,
          "name": "G#5",
          "ticks": 37920,
          "time": 52.433583750000004,
          "velocity": 0.2992125984251969
        },
        {
          "duration": 0.1327432499999972,
          "durationTicks": 96,
          "midi": 68,
          "name": "G#4",
          "ticks": 37920,
          "time": 52.433583750000004,
          "velocity": 0.2992125984251969
        },
        {
          "duration": 0.1327432500000043,
          "durationTicks": 96,
          "midi": 80,
          "name": "G#5",
          "ticks": 38016,
          "time": 52.566327,
          "velocity": 0.2992125984251969
        },
        {
          "duration": 0.1327432500000043,
          "durationTicks": 96,
          "midi": 68,
          "name": "G#4",
          "ticks": 38016,
          "time": 52.566327,
          "velocity": 0.2992125984251969
        },
        {
          "duration": 0.1327432499999972,
          "durationTicks": 96,
          "midi": 82,
          "name": "A#5",
          "ticks": 38112,
          "time": 52.699070250000005,
          "velocity": 0.2992125984251969
        },
        {
          "duration": 0.1327432499999972,
          "durationTicks": 96,
          "midi": 70,
          "name": "A#4",
          "ticks": 38112,
          "time": 52.699070250000005,
          "velocity": 0.2992125984251969
        },
        {
          "duration": 0.1327432499999972,
          "durationTicks": 96,
          "midi": 85,
          "name": "C#6",
          "ticks": 38208,
          "time": 52.8318135,
          "velocity": 0.2992125984251969
        },
        {
          "duration": 0.1327432499999972,
          "durationTicks": 96,
          "midi": 73,
          "name": "C#5",
          "ticks": 38208,
          "time": 52.8318135,
          "velocity": 0.2992125984251969
        },
        {
          "duration": 0.1327432500000043,
          "durationTicks": 96,
          "midi": 85,
          "name": "C#6",
          "ticks": 38304,
          "time": 52.96455675,
          "velocity": 0.2992125984251969
        },
        {
          "duration": 0.1327432500000043,
          "durationTicks": 96,
          "midi": 73,
          "name": "C#5",
          "ticks": 38304,
          "time": 52.96455675,
          "velocity": 0.2992125984251969
        },
        {
          "duration": 0.1327432499999972,
          "durationTicks": 96,
          "midi": 85,
          "name": "C#6",
          "ticks": 43776,
          "time": 60.530922000000004,
          "velocity": 0.2992125984251969
        },
        {
          "duration": 0.1327432499999972,
          "durationTicks": 96,
          "midi": 68,
          "name": "G#4",
          "ticks": 43776,
          "time": 60.530922000000004,
          "velocity": 0.2992125984251969
        },
        {
          "duration": 0.1327432499999972,
          "durationTicks": 96,
          "midi": 80,
          "name": "G#5",
          "ticks": 43776,
          "time": 60.530922000000004,
          "velocity": 0.2992125984251969
        },
        {
          "duration": 0.1327432500000043,
          "durationTicks": 96,
          "midi": 85,
          "name": "C#6",
          "ticks": 43872,
          "time": 60.66366525,
          "velocity": 0.2992125984251969
        },
        {
          "duration": 0.1327432500000043,
          "durationTicks": 96,
          "midi": 80,
          "name": "G#5",
          "ticks": 43872,
          "time": 60.66366525,
          "velocity": 0.2992125984251969
        },
        {
          "duration": 0.1327432500000043,
          "durationTicks": 96,
          "midi": 68,
          "name": "G#4",
          "ticks": 43872,
          "time": 60.66366525,
          "velocity": 0.2992125984251969
        },
        {
          "duration": 0.1327432499999972,
          "durationTicks": 96,
          "midi": 80,
          "name": "G#5",
          "ticks": 44064,
          "time": 60.92915175,
          "velocity": 0.2992125984251969
        },
        {
          "duration": 0.1327432499999972,
          "durationTicks": 96,
          "midi": 85,
          "name": "C#6",
          "ticks": 44064,
          "time": 60.92915175,
          "velocity": 0.2992125984251969
        },
        {
          "duration": 0.1327432499999972,
          "durationTicks": 96,
          "midi": 68,
          "name": "G#4",
          "ticks": 44064,
          "time": 60.92915175,
          "velocity": 0.2992125984251969
        },
        {
          "duration": 0.1327432500000043,
          "durationTicks": 96,
          "midi": 85,
          "name": "C#6",
          "ticks": 44160,
          "time": 61.061895,
          "velocity": 0.2992125984251969
        },
        {
          "duration": 0.1327432500000043,
          "durationTicks": 96,
          "midi": 80,
          "name": "G#5",
          "ticks": 44160,
          "time": 61.061895,
          "velocity": 0.2992125984251969
        },
        {
          "duration": 0.1327432500000043,
          "durationTicks": 96,
          "midi": 68,
          "name": "G#4",
          "ticks": 44160,
          "time": 61.061895,
          "velocity": 0.2992125984251969
        },
        {
          "duration": 0.1327432499999972,
          "durationTicks": 96,
          "midi": 85,
          "name": "C#6",
          "ticks": 44256,
          "time": 61.194638250000004,
          "velocity": 0.2992125984251969
        },
        {
          "duration": 0.1327432499999972,
          "durationTicks": 96,
          "midi": 80,
          "name": "G#5",
          "ticks": 44256,
          "time": 61.194638250000004,
          "velocity": 0.2992125984251969
        },
        {
          "duration": 0.1327432499999972,
          "durationTicks": 96,
          "midi": 68,
          "name": "G#4",
          "ticks": 44256,
          "time": 61.194638250000004,
          "velocity": 0.2992125984251969
        },
        {
          "duration": 0.1327432500000043,
          "durationTicks": 96,
          "midi": 85,
          "name": "C#6",
          "ticks": 44352,
          "time": 61.3273815,
          "velocity": 0.2992125984251969
        },
        {
          "duration": 0.1327432500000043,
          "durationTicks": 96,
          "midi": 80,
          "name": "G#5",
          "ticks": 44352,
          "time": 61.3273815,
          "velocity": 0.2992125984251969
        },
        {
          "duration": 0.1327432500000043,
          "durationTicks": 96,
          "midi": 68,
          "name": "G#4",
          "ticks": 44352,
          "time": 61.3273815,
          "velocity": 0.2992125984251969
        },
        {
          "duration": 0.1327432499999972,
          "durationTicks": 96,
          "midi": 68,
          "name": "G#4",
          "ticks": 44448,
          "time": 61.460124750000006,
          "velocity": 0.2992125984251969
        },
        {
          "duration": 0.1327432499999972,
          "durationTicks": 96,
          "midi": 85,
          "name": "C#6",
          "ticks": 44448,
          "time": 61.460124750000006,
          "velocity": 0.2992125984251969
        },
        {
          "duration": 0.1327432499999972,
          "durationTicks": 96,
          "midi": 80,
          "name": "G#5",
          "ticks": 44448,
          "time": 61.460124750000006,
          "velocity": 0.2992125984251969
        },
        {
          "duration": 0.2654864999999944,
          "durationTicks": 192,
          "midi": 56,
          "name": "G#3",
          "ticks": 48960,
          "time": 67.69905750000001,
          "velocity": 0.2992125984251969
        },
        {
          "duration": 0.2654864999999944,
          "durationTicks": 192,
          "midi": 68,
          "name": "G#4",
          "ticks": 48960,
          "time": 67.69905750000001,
          "velocity": 0.2992125984251969
        },
        {
          "duration": 0.1327432500000043,
          "durationTicks": 96,
          "midi": 80,
          "name": "G#5",
          "ticks": 49152,
          "time": 67.964544,
          "velocity": 0.2992125984251969
        },
        {
          "duration": 0.1327432500000043,
          "durationTicks": 96,
          "midi": 68,
          "name": "G#4",
          "ticks": 49152,
          "time": 67.964544,
          "velocity": 0.2992125984251969
        },
        {
          "duration": 0.2654864999999944,
          "durationTicks": 192,
          "midi": 68,
          "name": "G#4",
          "ticks": 49536,
          "time": 68.495517,
          "velocity": 0.2992125984251969
        },
        {
          "duration": 0.2654864999999944,
          "durationTicks": 192,
          "midi": 80,
          "name": "G#5",
          "ticks": 49536,
          "time": 68.495517,
          "velocity": 0.2992125984251969
        },
        {
          "duration": 0.530973000000003,
          "durationTicks": 384,
          "midi": 75,
          "name": "D#5",
          "ticks": 49728,
          "time": 68.7610035,
          "velocity": 0.2992125984251969
        },
        {
          "duration": 0.530973000000003,
          "durationTicks": 384,
          "midi": 63,
          "name": "D#4",
          "ticks": 49728,
          "time": 68.7610035,
          "velocity": 0.2992125984251969
        },
        {
          "duration": 0.2654864999999944,
          "durationTicks": 192,
          "midi": 65,
          "name": "F4",
          "ticks": 50112,
          "time": 69.2919765,
          "velocity": 0.2992125984251969
        },
        {
          "duration": 0.2654864999999944,
          "durationTicks": 192,
          "midi": 77,
          "name": "F5",
          "ticks": 50112,
          "time": 69.2919765,
          "velocity": 0.2992125984251969
        },
        {
          "duration": 0.2654865000000086,
          "durationTicks": 192,
          "midi": 63,
          "name": "D#4",
          "ticks": 50304,
          "time": 69.557463,
          "velocity": 0.2992125984251969
        },
        {
          "duration": 0.2654865000000086,
          "durationTicks": 192,
          "midi": 75,
          "name": "D#5",
          "ticks": 50304,
          "time": 69.557463,
          "velocity": 0.2992125984251969
        },
        {
          "duration": 0.1327432499999901,
          "durationTicks": 96,
          "midi": 73,
          "name": "C#5",
          "ticks": 50496,
          "time": 69.82294950000001,
          "velocity": 0.2992125984251969
        },
        {
          "duration": 0.1327432499999901,
          "durationTicks": 96,
          "midi": 61,
          "name": "C#4",
          "ticks": 50496,
          "time": 69.82294950000001,
          "velocity": 0.2992125984251969
        },
        {
          "duration": 0.2654864999999944,
          "durationTicks": 192,
          "midi": 75,
          "name": "D#5",
          "ticks": 55296,
          "time": 76.46011200000001,
          "velocity": 0.2992125984251969
        },
        {
          "duration": 0.1327432500000043,
          "durationTicks": 96,
          "midi": 63,
          "name": "D#4",
          "ticks": 55488,
          "time": 76.7255985,
          "velocity": 0.2992125984251969
        },
        {
          "duration": 0.2654864999999944,
          "durationTicks": 192,
          "midi": 75,
          "name": "D#5",
          "ticks": 55488,
          "time": 76.7255985,
          "velocity": 0.2992125984251969
        },
        {
          "duration": 0.2654864999999944,
          "durationTicks": 192,
          "midi": 63,
          "name": "D#4",
          "ticks": 55488,
          "time": 76.7255985,
          "velocity": 0.2992125984251969
        },
        {
          "duration": 0.2654865000000086,
          "durationTicks": 192,
          "midi": 75,
          "name": "D#5",
          "ticks": 55680,
          "time": 76.991085,
          "velocity": 0.2992125984251969
        },
        {
          "duration": 0.2654865000000086,
          "durationTicks": 192,
          "midi": 63,
          "name": "D#4",
          "ticks": 55680,
          "time": 76.991085,
          "velocity": 0.2992125984251969
        },
        {
          "duration": 0.2654864999999944,
          "durationTicks": 192,
          "midi": 77,
          "name": "F5",
          "ticks": 55872,
          "time": 77.2565715,
          "velocity": 0.2992125984251969
        },
        {
          "duration": 0.2654864999999944,
          "durationTicks": 192,
          "midi": 65,
          "name": "F4",
          "ticks": 55872,
          "time": 77.2565715,
          "velocity": 0.2992125984251969
        },
        {
          "duration": 1.061946000000006,
          "durationTicks": 768,
          "midi": 75,
          "name": "D#5",
          "ticks": 56064,
          "time": 77.522058,
          "velocity": 0.2992125984251969
        },
        {
          "duration": 1.061946000000006,
          "durationTicks": 768,
          "midi": 63,
          "name": "D#4",
          "ticks": 56064,
          "time": 77.522058,
          "velocity": 0.2992125984251969
        },
        {
          "duration": 0.6637162500000073,
          "durationTicks": 480,
          "midi": 68,
          "name": "G#4",
          "ticks": 62016,
          "time": 85.7521395,
          "velocity": 0.2992125984251969
        },
        {
          "duration": 0.6637162500000073,
          "durationTicks": 480,
          "midi": 56,
          "name": "G#3",
          "ticks": 62016,
          "time": 85.7521395,
          "velocity": 0.2992125984251969
        },
        {
          "duration": 0.1327432499999901,
          "durationTicks": 96,
          "midi": 68,
          "name": "G#4",
          "ticks": 62592,
          "time": 86.54859900000001,
          "velocity": 0.2992125984251969
        },
        {
          "duration": 0.1327432499999901,
          "durationTicks": 96,
          "midi": 56,
          "name": "G#3",
          "ticks": 62592,
          "time": 86.54859900000001,
          "velocity": 0.2992125984251969
        },
        {
          "duration": 0.1327432500000043,
          "durationTicks": 96,
          "midi": 58,
          "name": "A#3",
          "ticks": 62688,
          "time": 86.68134225,
          "velocity": 0.2992125984251969
        },
        {
          "duration": 0.1327432500000043,
          "durationTicks": 96,
          "midi": 70,
          "name": "A#4",
          "ticks": 62688,
          "time": 86.68134225,
          "velocity": 0.2992125984251969
        },
        {
          "duration": 0.1327432500000043,
          "durationTicks": 96,
          "midi": 73,
          "name": "C#5",
          "ticks": 62784,
          "time": 86.8140855,
          "velocity": 0.2992125984251969
        },
        {
          "duration": 0.1327432500000043,
          "durationTicks": 96,
          "midi": 61,
          "name": "C#4",
          "ticks": 62784,
          "time": 86.8140855,
          "velocity": 0.2992125984251969
        },
        {
          "duration": 0.1327432499999901,
          "durationTicks": 96,
          "midi": 70,
          "name": "A#4",
          "ticks": 62880,
          "time": 86.94682875000001,
          "velocity": 0.2992125984251969
        },
        {
          "duration": 0.1327432499999901,
          "durationTicks": 96,
          "midi": 58,
          "name": "A#3",
          "ticks": 62880,
          "time": 86.94682875000001,
          "velocity": 0.2992125984251969
        },
        {
          "duration": 0.1327432500000043,
          "durationTicks": 96,
          "midi": 68,
          "name": "G#4",
          "ticks": 68352,
          "time": 94.513194,
          "velocity": 0.2992125984251969
        },
        {
          "duration": 0.1327432500000043,
          "durationTicks": 96,
          "midi": 80,
          "name": "G#5",
          "ticks": 68352,
          "time": 94.513194,
          "velocity": 0.2992125984251969
        },
        {
          "duration": 0.1327432500000043,
          "durationTicks": 96,
          "midi": 80,
          "name": "G#5",
          "ticks": 68448,
          "time": 94.64593725,
          "velocity": 0.2992125984251969
        },
        {
          "duration": 0.1327432500000043,
          "durationTicks": 96,
          "midi": 68,
          "name": "G#4",
          "ticks": 68448,
          "time": 94.64593725,
          "velocity": 0.2992125984251969
        },
        {
          "duration": 0.1327432499999901,
          "durationTicks": 96,
          "midi": 80,
          "name": "G#5",
          "ticks": 68640,
          "time": 94.91142375000001,
          "velocity": 0.2992125984251969
        },
        {
          "duration": 0.1327432499999901,
          "durationTicks": 96,
          "midi": 68,
          "name": "G#4",
          "ticks": 68640,
          "time": 94.91142375000001,
          "velocity": 0.2992125984251969
        },
        {
          "duration": 0.1327432500000043,
          "durationTicks": 96,
          "midi": 80,
          "name": "G#5",
          "ticks": 68736,
          "time": 95.044167,
          "velocity": 0.2992125984251969
        },
        {
          "duration": 0.1327432500000043,
          "durationTicks": 96,
          "midi": 68,
          "name": "G#4",
          "ticks": 68736,
          "time": 95.044167,
          "velocity": 0.2992125984251969
        },
        {
          "duration": 0.1327432500000043,
          "durationTicks": 96,
          "midi": 82,
          "name": "A#5",
          "ticks": 68832,
          "time": 95.17691025,
          "velocity": 0.2992125984251969
        },
        {
          "duration": 0.1327432500000043,
          "durationTicks": 96,
          "midi": 70,
          "name": "A#4",
          "ticks": 68832,
          "time": 95.17691025,
          "velocity": 0.2992125984251969
        },
        {
          "duration": 0.1327432499999901,
          "durationTicks": 96,
          "midi": 85,
          "name": "C#6",
          "ticks": 68928,
          "time": 95.30965350000001,
          "velocity": 0.2992125984251969
        },
        {
          "duration": 0.1327432499999901,
          "durationTicks": 96,
          "midi": 73,
          "name": "C#5",
          "ticks": 68928,
          "time": 95.30965350000001,
          "velocity": 0.2992125984251969
        },
        {
          "duration": 0.1327432500000043,
          "durationTicks": 96,
          "midi": 85,
          "name": "C#6",
          "ticks": 69024,
          "time": 95.44239675,
          "velocity": 0.2992125984251969
        },
        {
          "duration": 0.1327432500000043,
          "durationTicks": 96,
          "midi": 73,
          "name": "C#5",
          "ticks": 69024,
          "time": 95.44239675,
          "velocity": 0.2992125984251969
        },
        {
          "duration": 0.1327432500000043,
          "durationTicks": 96,
          "midi": 85,
          "name": "C#6",
          "ticks": 74496,
          "time": 103.008762,
          "velocity": 0.2992125984251969
        },
        {
          "duration": 0.1327432500000043,
          "durationTicks": 96,
          "midi": 68,
          "name": "G#4",
          "ticks": 74496,
          "time": 103.008762,
          "velocity": 0.2992125984251969
        },
        {
          "duration": 0.1327432500000043,
          "durationTicks": 96,
          "midi": 80,
          "name": "G#5",
          "ticks": 74496,
          "time": 103.008762,
          "velocity": 0.2992125984251969
        },
        {
          "duration": 0.1327432499999901,
          "durationTicks": 96,
          "midi": 85,
          "name": "C#6",
          "ticks": 74592,
          "time": 103.14150525000001,
          "velocity": 0.2992125984251969
        },
        {
          "duration": 0.1327432499999901,
          "durationTicks": 96,
          "midi": 80,
          "name": "G#5",
          "ticks": 74592,
          "time": 103.14150525000001,
          "velocity": 0.2992125984251969
        },
        {
          "duration": 0.1327432499999901,
          "durationTicks": 96,
          "midi": 68,
          "name": "G#4",
          "ticks": 74592,
          "time": 103.14150525000001,
          "velocity": 0.2992125984251969
        },
        {
          "duration": 0.1327432500000043,
          "durationTicks": 96,
          "midi": 80,
          "name": "G#5",
          "ticks": 74784,
          "time": 103.40699175,
          "velocity": 0.2992125984251969
        },
        {
          "duration": 0.1327432500000043,
          "durationTicks": 96,
          "midi": 85,
          "name": "C#6",
          "ticks": 74784,
          "time": 103.40699175,
          "velocity": 0.2992125984251969
        },
        {
          "duration": 0.1327432500000043,
          "durationTicks": 96,
          "midi": 68,
          "name": "G#4",
          "ticks": 74784,
          "time": 103.40699175,
          "velocity": 0.2992125984251969
        },
        {
          "duration": 0.1327432500000043,
          "durationTicks": 96,
          "midi": 85,
          "name": "C#6",
          "ticks": 74880,
          "time": 103.53973500000001,
          "velocity": 0.2992125984251969
        },
        {
          "duration": 0.1327432500000043,
          "durationTicks": 96,
          "midi": 80,
          "name": "G#5",
          "ticks": 74880,
          "time": 103.53973500000001,
          "velocity": 0.2992125984251969
        },
        {
          "duration": 0.1327432500000043,
          "durationTicks": 96,
          "midi": 68,
          "name": "G#4",
          "ticks": 74880,
          "time": 103.53973500000001,
          "velocity": 0.2992125984251969
        },
        {
          "duration": 0.1327432499999901,
          "durationTicks": 96,
          "midi": 85,
          "name": "C#6",
          "ticks": 74976,
          "time": 103.67247825000001,
          "velocity": 0.2992125984251969
        },
        {
          "duration": 0.1327432499999901,
          "durationTicks": 96,
          "midi": 80,
          "name": "G#5",
          "ticks": 74976,
          "time": 103.67247825000001,
          "velocity": 0.2992125984251969
        },
        {
          "duration": 0.1327432499999901,
          "durationTicks": 96,
          "midi": 68,
          "name": "G#4",
          "ticks": 74976,
          "time": 103.67247825000001,
          "velocity": 0.2992125984251969
        },
        {
          "duration": 0.1327432500000043,
          "durationTicks": 96,
          "midi": 85,
          "name": "C#6",
          "ticks": 75072,
          "time": 103.8052215,
          "velocity": 0.2992125984251969
        },
        {
          "duration": 0.1327432500000043,
          "durationTicks": 96,
          "midi": 80,
          "name": "G#5",
          "ticks": 75072,
          "time": 103.8052215,
          "velocity": 0.2992125984251969
        },
        {
          "duration": 0.1327432500000043,
          "durationTicks": 96,
          "midi": 68,
          "name": "G#4",
          "ticks": 75072,
          "time": 103.8052215,
          "velocity": 0.2992125984251969
        },
        {
          "duration": 0.1327432500000043,
          "durationTicks": 96,
          "midi": 68,
          "name": "G#4",
          "ticks": 75168,
          "time": 103.93796475,
          "velocity": 0.2992125984251969
        },
        {
          "duration": 0.1327432500000043,
          "durationTicks": 96,
          "midi": 85,
          "name": "C#6",
          "ticks": 75168,
          "time": 103.93796475,
          "velocity": 0.2992125984251969
        },
        {
          "duration": 0.1327432500000043,
          "durationTicks": 96,
          "midi": 80,
          "name": "G#5",
          "ticks": 75168,
          "time": 103.93796475,
          "velocity": 0.2992125984251969
        },
        {
          "duration": 0.1327432499999901,
          "durationTicks": 96,
          "midi": 68,
          "name": "G#4",
          "ticks": 80640,
          "time": 111.50433000000001,
          "velocity": 0.2992125984251969
        },
        {
          "duration": 0.1327432499999901,
          "durationTicks": 96,
          "midi": 80,
          "name": "G#5",
          "ticks": 80640,
          "time": 111.50433000000001,
          "velocity": 0.2992125984251969
        },
        {
          "duration": 0.1327432500000043,
          "durationTicks": 96,
          "midi": 80,
          "name": "G#5",
          "ticks": 80736,
          "time": 111.63707325,
          "velocity": 0.2992125984251969
        },
        {
          "duration": 0.1327432500000043,
          "durationTicks": 96,
          "midi": 68,
          "name": "G#4",
          "ticks": 80736,
          "time": 111.63707325,
          "velocity": 0.2992125984251969
        },
        {
          "duration": 0.1327432499999901,
          "durationTicks": 96,
          "midi": 80,
          "name": "G#5",
          "ticks": 80928,
          "time": 111.90255975000001,
          "velocity": 0.2992125984251969
        },
        {
          "duration": 0.1327432499999901,
          "durationTicks": 96,
          "midi": 68,
          "name": "G#4",
          "ticks": 80928,
          "time": 111.90255975000001,
          "velocity": 0.2992125984251969
        },
        {
          "duration": 0.1327432500000043,
          "durationTicks": 96,
          "midi": 80,
          "name": "G#5",
          "ticks": 81024,
          "time": 112.035303,
          "velocity": 0.2992125984251969
        },
        {
          "duration": 0.1327432500000043,
          "durationTicks": 96,
          "midi": 68,
          "name": "G#4",
          "ticks": 81024,
          "time": 112.035303,
          "velocity": 0.2992125984251969
        },
        {
          "duration": 0.1327432500000043,
          "durationTicks": 96,
          "midi": 82,
          "name": "A#5",
          "ticks": 81120,
          "time": 112.16804625,
          "velocity": 0.2992125984251969
        },
        {
          "duration": 0.1327432500000043,
          "durationTicks": 96,
          "midi": 70,
          "name": "A#4",
          "ticks": 81120,
          "time": 112.16804625,
          "velocity": 0.2992125984251969
        },
        {
          "duration": 0.1327432500000043,
          "durationTicks": 96,
          "midi": 85,
          "name": "C#6",
          "ticks": 81216,
          "time": 112.30078950000001,
          "velocity": 0.2992125984251969
        },
        {
          "duration": 0.1327432500000043,
          "durationTicks": 96,
          "midi": 73,
          "name": "C#5",
          "ticks": 81216,
          "time": 112.30078950000001,
          "velocity": 0.2992125984251969
        },
        {
          "duration": 0.1327432499999901,
          "durationTicks": 96,
          "midi": 85,
          "name": "C#6",
          "ticks": 81312,
          "time": 112.43353275000001,
          "velocity": 0.2992125984251969
        },
        {
          "duration": 0.1327432499999901,
          "durationTicks": 96,
          "midi": 73,
          "name": "C#5",
          "ticks": 81312,
          "time": 112.43353275000001,
          "velocity": 0.2992125984251969
        },
        {
          "duration": 0.1327432500000043,
          "durationTicks": 96,
          "midi": 85,
          "name": "C#6",
          "ticks": 86784,
          "time": 119.999898,
          "velocity": 0.2992125984251969
        },
        {
          "duration": 0.1327432500000043,
          "durationTicks": 96,
          "midi": 68,
          "name": "G#4",
          "ticks": 86784,
          "time": 119.999898,
          "velocity": 0.2992125984251969
        },
        {
          "duration": 0.1327432500000043,
          "durationTicks": 96,
          "midi": 80,
          "name": "G#5",
          "ticks": 86784,
          "time": 119.999898,
          "velocity": 0.2992125984251969
        },
        {
          "duration": 0.1327432500000043,
          "durationTicks": 96,
          "midi": 85,
          "name": "C#6",
          "ticks": 86880,
          "time": 120.13264125,
          "velocity": 0.2992125984251969
        },
        {
          "duration": 0.1327432500000043,
          "durationTicks": 96,
          "midi": 80,
          "name": "G#5",
          "ticks": 86880,
          "time": 120.13264125,
          "velocity": 0.2992125984251969
        },
        {
          "duration": 0.1327432500000043,
          "durationTicks": 96,
          "midi": 68,
          "name": "G#4",
          "ticks": 86880,
          "time": 120.13264125,
          "velocity": 0.2992125984251969
        },
        {
          "duration": 0.1327432500000043,
          "durationTicks": 96,
          "midi": 80,
          "name": "G#5",
          "ticks": 87072,
          "time": 120.39812775,
          "velocity": 0.2992125984251969
        },
        {
          "duration": 0.1327432500000043,
          "durationTicks": 96,
          "midi": 85,
          "name": "C#6",
          "ticks": 87072,
          "time": 120.39812775,
          "velocity": 0.2992125984251969
        },
        {
          "duration": 0.1327432500000043,
          "durationTicks": 96,
          "midi": 68,
          "name": "G#4",
          "ticks": 87072,
          "time": 120.39812775,
          "velocity": 0.2992125984251969
        },
        {
          "duration": 0.1327432500000043,
          "durationTicks": 96,
          "midi": 85,
          "name": "C#6",
          "ticks": 87168,
          "time": 120.530871,
          "velocity": 0.2992125984251969
        },
        {
          "duration": 0.1327432500000043,
          "durationTicks": 96,
          "midi": 80,
          "name": "G#5",
          "ticks": 87168,
          "time": 120.530871,
          "velocity": 0.2992125984251969
        },
        {
          "duration": 0.1327432500000043,
          "durationTicks": 96,
          "midi": 68,
          "name": "G#4",
          "ticks": 87168,
          "time": 120.530871,
          "velocity": 0.2992125984251969
        },
        {
          "duration": 0.1327432500000043,
          "durationTicks": 96,
          "midi": 85,
          "name": "C#6",
          "ticks": 87264,
          "time": 120.66361425000001,
          "velocity": 0.2992125984251969
        },
        {
          "duration": 0.1327432500000043,
          "durationTicks": 96,
          "midi": 80,
          "name": "G#5",
          "ticks": 87264,
          "time": 120.66361425000001,
          "velocity": 0.2992125984251969
        },
        {
          "duration": 0.1327432500000043,
          "durationTicks": 96,
          "midi": 68,
          "name": "G#4",
          "ticks": 87264,
          "time": 120.66361425000001,
          "velocity": 0.2992125984251969
        },
        {
          "duration": 0.1327432499999901,
          "durationTicks": 96,
          "midi": 85,
          "name": "C#6",
          "ticks": 87360,
          "time": 120.79635750000001,
          "velocity": 0.2992125984251969
        },
        {
          "duration": 0.1327432499999901,
          "durationTicks": 96,
          "midi": 80,
          "name": "G#5",
          "ticks": 87360,
          "time": 120.79635750000001,
          "velocity": 0.2992125984251969
        },
        {
          "duration": 0.1327432499999901,
          "durationTicks": 96,
          "midi": 68,
          "name": "G#4",
          "ticks": 87360,
          "time": 120.79635750000001,
          "velocity": 0.2992125984251969
        },
        {
          "duration": 0.1327432500000043,
          "durationTicks": 96,
          "midi": 68,
          "name": "G#4",
          "ticks": 87456,
          "time": 120.92910075,
          "velocity": 0.2992125984251969
        },
        {
          "duration": 0.1327432500000043,
          "durationTicks": 96,
          "midi": 85,
          "name": "C#6",
          "ticks": 87456,
          "time": 120.92910075,
          "velocity": 0.2992125984251969
        },
        {
          "duration": 0.1327432500000043,
          "durationTicks": 96,
          "midi": 80,
          "name": "G#5",
          "ticks": 87456,
          "time": 120.92910075,
          "velocity": 0.2992125984251969
        },
        {
          "duration": 0.1327432500000043,
          "durationTicks": 96,
          "midi": 68,
          "name": "G#4",
          "ticks": 100032,
          "time": 138.3184665,
          "velocity": 0.2992125984251969
        },
        {
          "duration": 0.1327432500000043,
          "durationTicks": 96,
          "midi": 70,
          "name": "A#4",
          "ticks": 100128,
          "time": 138.45120975,
          "velocity": 0.2992125984251969
        },
        {
          "duration": 0.1327432500000043,
          "durationTicks": 96,
          "midi": 73,
          "name": "C#5",
          "ticks": 100224,
          "time": 138.583953,
          "velocity": 0.2992125984251969
        },
        {
          "duration": 0.1327432500000043,
          "durationTicks": 96,
          "midi": 70,
          "name": "A#4",
          "ticks": 100320,
          "time": 138.71669625,
          "velocity": 0.2992125984251969
        },
        {
          "duration": 0.1327432500000043,
          "durationTicks": 96,
          "midi": 77,
          "name": "F5",
          "ticks": 100416,
          "time": 138.84943950000002,
          "velocity": 0.2992125984251969
        },
        {
          "duration": 0.1327432500000043,
          "durationTicks": 96,
          "midi": 68,
          "name": "G#4",
          "ticks": 100608,
          "time": 139.114926,
          "velocity": 0.2992125984251969
        },
        {
          "duration": 0.1327432500000043,
          "durationTicks": 96,
          "midi": 70,
          "name": "A#4",
          "ticks": 100704,
          "time": 139.24766925,
          "velocity": 0.2992125984251969
        },
        {
          "duration": 0.1327432500000043,
          "durationTicks": 96,
          "midi": 73,
          "name": "C#5",
          "ticks": 100800,
          "time": 139.3804125,
          "velocity": 0.2992125984251969
        },
        {
          "duration": 0.1327432500000043,
          "durationTicks": 96,
          "midi": 70,
          "name": "A#4",
          "ticks": 100896,
          "time": 139.51315575,
          "velocity": 0.2992125984251969
        },
        {
          "duration": 0.2654864999999802,
          "durationTicks": 192,
          "midi": 77,
          "name": "F5",
          "ticks": 100992,
          "time": 139.64589900000001,
          "velocity": 0.2992125984251969
        },
        {
          "duration": 0.1327432500000043,
          "durationTicks": 96,
          "midi": 70,
          "name": "A#4",
          "ticks": 101184,
          "time": 139.9113855,
          "velocity": 0.2992125984251969
        },
        {
          "duration": 0.1327432500000043,
          "durationTicks": 96,
          "midi": 68,
          "name": "G#4",
          "ticks": 103104,
          "time": 142.5662505,
          "velocity": 0.2992125984251969
        },
        {
          "duration": 0.1327432500000043,
          "durationTicks": 96,
          "midi": 70,
          "name": "A#4",
          "ticks": 103200,
          "time": 142.69899375,
          "velocity": 0.2992125984251969
        },
        {
          "duration": 0.1327432500000043,
          "durationTicks": 96,
          "midi": 73,
          "name": "C#5",
          "ticks": 103296,
          "time": 142.831737,
          "velocity": 0.2992125984251969
        },
        {
          "duration": 0.1327432500000043,
          "durationTicks": 96,
          "midi": 70,
          "name": "A#4",
          "ticks": 103392,
          "time": 142.96448025,
          "velocity": 0.2992125984251969
        },
        {
          "duration": 0.1327432500000043,
          "durationTicks": 96,
          "midi": 77,
          "name": "F5",
          "ticks": 103488,
          "time": 143.0972235,
          "velocity": 0.2992125984251969
        },
        {
          "duration": 0.1327432499999759,
          "durationTicks": 96,
          "midi": 68,
          "name": "G#4",
          "ticks": 103680,
          "time": 143.36271000000002,
          "velocity": 0.2992125984251969
        },
        {
          "duration": 0.1327432500000043,
          "durationTicks": 96,
          "midi": 70,
          "name": "A#4",
          "ticks": 103776,
          "time": 143.49545325,
          "velocity": 0.2992125984251969
        },
        {
          "duration": 0.1327432500000043,
          "durationTicks": 96,
          "midi": 73,
          "name": "C#5",
          "ticks": 103872,
          "time": 143.6281965,
          "velocity": 0.2992125984251969
        },
        {
          "duration": 0.1327432500000043,
          "durationTicks": 96,
          "midi": 70,
          "name": "A#4",
          "ticks": 103968,
          "time": 143.76093975,
          "velocity": 0.2992125984251969
        },
        {
          "duration": 0.2654865000000086,
          "durationTicks": 192,
          "midi": 77,
          "name": "F5",
          "ticks": 104064,
          "time": 143.893683,
          "velocity": 0.2992125984251969
        },
        {
          "duration": 0.1327432499999759,
          "durationTicks": 96,
          "midi": 70,
          "name": "A#4",
          "ticks": 104256,
          "time": 144.15916950000002,
          "velocity": 0.2992125984251969
        },
        {
          "duration": 0.1327432499999759,
          "durationTicks": 96,
          "midi": 68,
          "name": "G#4",
          "ticks": 106176,
          "time": 146.81403450000002,
          "velocity": 0.2992125984251969
        },
        {
          "duration": 0.1327432500000043,
          "durationTicks": 96,
          "midi": 70,
          "name": "A#4",
          "ticks": 106272,
          "time": 146.94677775,
          "velocity": 0.2992125984251969
        },
        {
          "duration": 0.1327432500000043,
          "durationTicks": 96,
          "midi": 73,
          "name": "C#5",
          "ticks": 106368,
          "time": 147.079521,
          "velocity": 0.2992125984251969
        },
        {
          "duration": 0.1327432500000043,
          "durationTicks": 96,
          "midi": 70,
          "name": "A#4",
          "ticks": 106464,
          "time": 147.21226425,
          "velocity": 0.2992125984251969
        },
        {
          "duration": 0.1327432500000043,
          "durationTicks": 96,
          "midi": 77,
          "name": "F5",
          "ticks": 106560,
          "time": 147.3450075,
          "velocity": 0.2992125984251969
        },
        {
          "duration": 0.1327432500000043,
          "durationTicks": 96,
          "midi": 68,
          "name": "G#4",
          "ticks": 106752,
          "time": 147.61049400000002,
          "velocity": 0.2992125984251969
        },
        {
          "duration": 0.1327432499999759,
          "durationTicks": 96,
          "midi": 70,
          "name": "A#4",
          "ticks": 106848,
          "time": 147.74323725000002,
          "velocity": 0.2992125984251969
        },
        {
          "duration": 0.1327432500000043,
          "durationTicks": 96,
          "midi": 73,
          "name": "C#5",
          "ticks": 106944,
          "time": 147.8759805,
          "velocity": 0.2992125984251969
        },
        {
          "duration": 0.1327432500000043,
          "durationTicks": 96,
          "midi": 70,
          "name": "A#4",
          "ticks": 107040,
          "time": 148.00872375,
          "velocity": 0.2992125984251969
        },
        {
          "duration": 0.2654865000000086,
          "durationTicks": 192,
          "midi": 77,
          "name": "F5",
          "ticks": 107136,
          "time": 148.141467,
          "velocity": 0.2992125984251969
        },
        {
          "duration": 0.1327432500000043,
          "durationTicks": 96,
          "midi": 70,
          "name": "A#4",
          "ticks": 107328,
          "time": 148.40695350000001,
          "velocity": 0.2992125984251969
        },
        {
          "duration": 0.1327432500000043,
          "durationTicks": 96,
          "midi": 68,
          "name": "G#4",
          "ticks": 109248,
          "time": 151.06181850000002,
          "velocity": 0.2992125984251969
        },
        {
          "duration": 0.1327432499999759,
          "durationTicks": 96,
          "midi": 70,
          "name": "A#4",
          "ticks": 109344,
          "time": 151.19456175000002,
          "velocity": 0.2992125984251969
        },
        {
          "duration": 0.1327432500000043,
          "durationTicks": 96,
          "midi": 73,
          "name": "C#5",
          "ticks": 109440,
          "time": 151.327305,
          "velocity": 0.2992125984251969
        },
        {
          "duration": 0.1327432500000043,
          "durationTicks": 96,
          "midi": 70,
          "name": "A#4",
          "ticks": 109536,
          "time": 151.46004825,
          "velocity": 0.2992125984251969
        },
        {
          "duration": 0.1327432500000043,
          "durationTicks": 96,
          "midi": 77,
          "name": "F5",
          "ticks": 109632,
          "time": 151.5927915,
          "velocity": 0.2992125984251969
        },
        {
          "duration": 0.1327432500000043,
          "durationTicks": 96,
          "midi": 68,
          "name": "G#4",
          "ticks": 109824,
          "time": 151.858278,
          "velocity": 0.2992125984251969
        },
        {
          "duration": 0.1327432500000043,
          "durationTicks": 96,
          "midi": 70,
          "name": "A#4",
          "ticks": 109920,
          "time": 151.99102125000002,
          "velocity": 0.2992125984251969
        },
        {
          "duration": 0.1327432499999759,
          "durationTicks": 96,
          "midi": 73,
          "name": "C#5",
          "ticks": 110016,
          "time": 152.12376450000002,
          "velocity": 0.2992125984251969
        },
        {
          "duration": 0.1327432500000043,
          "durationTicks": 96,
          "midi": 70,
          "name": "A#4",
          "ticks": 110112,
          "time": 152.25650775,
          "velocity": 0.2992125984251969
        },
        {
          "duration": 0.2654865000000086,
          "durationTicks": 192,
          "midi": 77,
          "name": "F5",
          "ticks": 110208,
          "time": 152.389251,
          "velocity": 0.2992125984251969
        },
        {
          "duration": 0.1327432500000043,
          "durationTicks": 96,
          "midi": 70,
          "name": "A#4",
          "ticks": 110400,
          "time": 152.6547375,
          "velocity": 0.2992125984251969
        },
        {
          "duration": 0.2654865000000086,
          "durationTicks": 192,
          "midi": 56,
          "name": "G#3",
          "ticks": 116544,
          "time": 161.1503055,
          "velocity": 0.2992125984251969
        },
        {
          "duration": 0.2654865000000086,
          "durationTicks": 192,
          "midi": 68,
          "name": "G#4",
          "ticks": 116544,
          "time": 161.1503055,
          "velocity": 0.2992125984251969
        },
        {
          "duration": 0.1327432500000043,
          "durationTicks": 96,
          "midi": 80,
          "name": "G#5",
          "ticks": 116736,
          "time": 161.415792,
          "velocity": 0.2992125984251969
        },
        {
          "duration": 0.1327432500000043,
          "durationTicks": 96,
          "midi": 68,
          "name": "G#4",
          "ticks": 116736,
          "time": 161.415792,
          "velocity": 0.2992125984251969
        },
        {
          "duration": 0.2654865000000086,
          "durationTicks": 192,
          "midi": 68,
          "name": "G#4",
          "ticks": 117120,
          "time": 161.946765,
          "velocity": 0.2992125984251969
        },
        {
          "duration": 0.2654865000000086,
          "durationTicks": 192,
          "midi": 80,
          "name": "G#5",
          "ticks": 117120,
          "time": 161.946765,
          "velocity": 0.2992125984251969
        },
        {
          "duration": 0.5309729999999888,
          "durationTicks": 384,
          "midi": 75,
          "name": "D#5",
          "ticks": 117312,
          "time": 162.2122515,
          "velocity": 0.2992125984251969
        },
        {
          "duration": 0.5309729999999888,
          "durationTicks": 384,
          "midi": 63,
          "name": "D#4",
          "ticks": 117312,
          "time": 162.2122515,
          "velocity": 0.2992125984251969
        },
        {
          "duration": 0.2654865000000086,
          "durationTicks": 192,
          "midi": 65,
          "name": "F4",
          "ticks": 117696,
          "time": 162.7432245,
          "velocity": 0.2992125984251969
        },
        {
          "duration": 0.2654865000000086,
          "durationTicks": 192,
          "midi": 77,
          "name": "F5",
          "ticks": 117696,
          "time": 162.7432245,
          "velocity": 0.2992125984251969
        },
        {
          "duration": 0.2654865000000086,
          "durationTicks": 192,
          "midi": 63,
          "name": "D#4",
          "ticks": 117888,
          "time": 163.008711,
          "velocity": 0.2992125984251969
        },
        {
          "duration": 0.2654865000000086,
          "durationTicks": 192,
          "midi": 75,
          "name": "D#5",
          "ticks": 117888,
          "time": 163.008711,
          "velocity": 0.2992125984251969
        },
        {
          "duration": 0.1327432500000043,
          "durationTicks": 96,
          "midi": 73,
          "name": "C#5",
          "ticks": 118080,
          "time": 163.2741975,
          "velocity": 0.2992125984251969
        },
        {
          "duration": 0.1327432500000043,
          "durationTicks": 96,
          "midi": 61,
          "name": "C#4",
          "ticks": 118080,
          "time": 163.2741975,
          "velocity": 0.2992125984251969
        },
        {
          "duration": 0.2654865000000086,
          "durationTicks": 192,
          "midi": 75,
          "name": "D#5",
          "ticks": 122880,
          "time": 169.91136,
          "velocity": 0.2992125984251969
        },
        {
          "duration": 0.1327432500000043,
          "durationTicks": 96,
          "midi": 63,
          "name": "D#4",
          "ticks": 123072,
          "time": 170.1768465,
          "velocity": 0.2992125984251969
        },
        {
          "duration": 0.2654865000000086,
          "durationTicks": 192,
          "midi": 75,
          "name": "D#5",
          "ticks": 123072,
          "time": 170.1768465,
          "velocity": 0.2992125984251969
        },
        {
          "duration": 0.2654865000000086,
          "durationTicks": 192,
          "midi": 63,
          "name": "D#4",
          "ticks": 123072,
          "time": 170.1768465,
          "velocity": 0.2992125984251969
        },
        {
          "duration": 0.2654864999999802,
          "durationTicks": 192,
          "midi": 75,
          "name": "D#5",
          "ticks": 123264,
          "time": 170.44233300000002,
          "velocity": 0.2992125984251969
        },
        {
          "duration": 0.2654864999999802,
          "durationTicks": 192,
          "midi": 63,
          "name": "D#4",
          "ticks": 123264,
          "time": 170.44233300000002,
          "velocity": 0.2992125984251969
        },
        {
          "duration": 0.2654865000000086,
          "durationTicks": 192,
          "midi": 77,
          "name": "F5",
          "ticks": 123456,
          "time": 170.7078195,
          "velocity": 0.2992125984251969
        },
        {
          "duration": 0.2654865000000086,
          "durationTicks": 192,
          "midi": 65,
          "name": "F4",
          "ticks": 123456,
          "time": 170.7078195,
          "velocity": 0.2992125984251969
        },
        {
          "duration": 1.061946000000006,
          "durationTicks": 768,
          "midi": 75,
          "name": "D#5",
          "ticks": 123648,
          "time": 170.973306,
          "velocity": 0.2992125984251969
        },
        {
          "duration": 1.061946000000006,
          "durationTicks": 768,
          "midi": 63,
          "name": "D#4",
          "ticks": 123648,
          "time": 170.973306,
          "velocity": 0.2992125984251969
        },
        {
          "duration": 0.6637162499999931,
          "durationTicks": 480,
          "midi": 68,
          "name": "G#4",
          "ticks": 129600,
          "time": 179.20338750000002,
          "velocity": 0.2992125984251969
        },
        {
          "duration": 0.6637162499999931,
          "durationTicks": 480,
          "midi": 56,
          "name": "G#3",
          "ticks": 129600,
          "time": 179.20338750000002,
          "velocity": 0.2992125984251969
        },
        {
          "duration": 0.1327432500000043,
          "durationTicks": 96,
          "midi": 68,
          "name": "G#4",
          "ticks": 130176,
          "time": 179.99984700000002,
          "velocity": 0.2992125984251969
        },
        {
          "duration": 0.1327432500000043,
          "durationTicks": 96,
          "midi": 56,
          "name": "G#3",
          "ticks": 130176,
          "time": 179.99984700000002,
          "velocity": 0.2992125984251969
        },
        {
          "duration": 0.1327432499999759,
          "durationTicks": 96,
          "midi": 58,
          "name": "A#3",
          "ticks": 130272,
          "time": 180.13259025000002,
          "velocity": 0.2992125984251969
        },
        {
          "duration": 0.1327432499999759,
          "durationTicks": 96,
          "midi": 70,
          "name": "A#4",
          "ticks": 130272,
          "time": 180.13259025000002,
          "velocity": 0.2992125984251969
        },
        {
          "duration": 0.1327432500000043,
          "durationTicks": 96,
          "midi": 73,
          "name": "C#5",
          "ticks": 130368,
          "time": 180.2653335,
          "velocity": 0.2992125984251969
        },
        {
          "duration": 0.1327432500000043,
          "durationTicks": 96,
          "midi": 61,
          "name": "C#4",
          "ticks": 130368,
          "time": 180.2653335,
          "velocity": 0.2992125984251969
        },
        {
          "duration": 0.1327432500000043,
          "durationTicks": 96,
          "midi": 70,
          "name": "A#4",
          "ticks": 130464,
          "time": 180.39807675,
          "velocity": 0.2992125984251969
        },
        {
          "duration": 0.1327432500000043,
          "durationTicks": 96,
          "midi": 58,
          "name": "A#3",
          "ticks": 130464,
          "time": 180.39807675,
          "velocity": 0.2992125984251969
        },
        {
          "duration": 0.1327432500000043,
          "durationTicks": 96,
          "midi": 68,
          "name": "G#4",
          "ticks": 135936,
          "time": 187.96444200000002,
          "velocity": 0.2992125984251969
        },
        {
          "duration": 0.1327432500000043,
          "durationTicks": 96,
          "midi": 80,
          "name": "G#5",
          "ticks": 135936,
          "time": 187.96444200000002,
          "velocity": 0.2992125984251969
        },
        {
          "duration": 0.1327432499999759,
          "durationTicks": 96,
          "midi": 80,
          "name": "G#5",
          "ticks": 136032,
          "time": 188.09718525000002,
          "velocity": 0.2992125984251969
        },
        {
          "duration": 0.1327432499999759,
          "durationTicks": 96,
          "midi": 68,
          "name": "G#4",
          "ticks": 136032,
          "time": 188.09718525000002,
          "velocity": 0.2992125984251969
        },
        {
          "duration": 0.1327432500000043,
          "durationTicks": 96,
          "midi": 80,
          "name": "G#5",
          "ticks": 136224,
          "time": 188.36267175,
          "velocity": 0.2992125984251969
        },
        {
          "duration": 0.1327432500000043,
          "durationTicks": 96,
          "midi": 68,
          "name": "G#4",
          "ticks": 136224,
          "time": 188.36267175,
          "velocity": 0.2992125984251969
        },
        {
          "duration": 0.1327432500000043,
          "durationTicks": 96,
          "midi": 80,
          "name": "G#5",
          "ticks": 136320,
          "time": 188.495415,
          "velocity": 0.2992125984251969
        },
        {
          "duration": 0.1327432500000043,
          "durationTicks": 96,
          "midi": 68,
          "name": "G#4",
          "ticks": 136320,
          "time": 188.495415,
          "velocity": 0.2992125984251969
        },
        {
          "duration": 0.1327432500000043,
          "durationTicks": 96,
          "midi": 82,
          "name": "A#5",
          "ticks": 136416,
          "time": 188.62815825,
          "velocity": 0.2992125984251969
        },
        {
          "duration": 0.1327432500000043,
          "durationTicks": 96,
          "midi": 70,
          "name": "A#4",
          "ticks": 136416,
          "time": 188.62815825,
          "velocity": 0.2992125984251969
        },
        {
          "duration": 0.1327432500000043,
          "durationTicks": 96,
          "midi": 85,
          "name": "C#6",
          "ticks": 136512,
          "time": 188.76090150000002,
          "velocity": 0.2992125984251969
        },
        {
          "duration": 0.1327432500000043,
          "durationTicks": 96,
          "midi": 73,
          "name": "C#5",
          "ticks": 136512,
          "time": 188.76090150000002,
          "velocity": 0.2992125984251969
        },
        {
          "duration": 0.1327432499999759,
          "durationTicks": 96,
          "midi": 85,
          "name": "C#6",
          "ticks": 136608,
          "time": 188.89364475000002,
          "velocity": 0.2992125984251969
        },
        {
          "duration": 0.1327432499999759,
          "durationTicks": 96,
          "midi": 73,
          "name": "C#5",
          "ticks": 136608,
          "time": 188.89364475000002,
          "velocity": 0.2992125984251969
        },
        {
          "duration": 0.1327432500000043,
          "durationTicks": 96,
          "midi": 85,
          "name": "C#6",
          "ticks": 142080,
          "time": 196.46001,
          "velocity": 0.2992125984251969
        },
        {
          "duration": 0.1327432500000043,
          "durationTicks": 96,
          "midi": 68,
          "name": "G#4",
          "ticks": 142080,
          "time": 196.46001,
          "velocity": 0.2992125984251969
        },
        {
          "duration": 0.1327432500000043,
          "durationTicks": 96,
          "midi": 80,
          "name": "G#5",
          "ticks": 142080,
          "time": 196.46001,
          "velocity": 0.2992125984251969
        },
        {
          "duration": 0.1327432500000043,
          "durationTicks": 96,
          "midi": 85,
          "name": "C#6",
          "ticks": 142176,
          "time": 196.59275325000002,
          "velocity": 0.2992125984251969
        },
        {
          "duration": 0.1327432500000043,
          "durationTicks": 96,
          "midi": 80,
          "name": "G#5",
          "ticks": 142176,
          "time": 196.59275325000002,
          "velocity": 0.2992125984251969
        },
        {
          "duration": 0.1327432500000043,
          "durationTicks": 96,
          "midi": 68,
          "name": "G#4",
          "ticks": 142176,
          "time": 196.59275325000002,
          "velocity": 0.2992125984251969
        },
        {
          "duration": 0.1327432499999759,
          "durationTicks": 96,
          "midi": 80,
          "name": "G#5",
          "ticks": 142368,
          "time": 196.85823975000002,
          "velocity": 0.2992125984251969
        },
        {
          "duration": 0.1327432499999759,
          "durationTicks": 96,
          "midi": 85,
          "name": "C#6",
          "ticks": 142368,
          "time": 196.85823975000002,
          "velocity": 0.2992125984251969
        },
        {
          "duration": 0.1327432499999759,
          "durationTicks": 96,
          "midi": 68,
          "name": "G#4",
          "ticks": 142368,
          "time": 196.85823975000002,
          "velocity": 0.2992125984251969
        },
        {
          "duration": 0.1327432500000043,
          "durationTicks": 96,
          "midi": 85,
          "name": "C#6",
          "ticks": 142464,
          "time": 196.990983,
          "velocity": 0.2992125984251969
        },
        {
          "duration": 0.1327432500000043,
          "durationTicks": 96,
          "midi": 80,
          "name": "G#5",
          "ticks": 142464,
          "time": 196.990983,
          "velocity": 0.2992125984251969
        },
        {
          "duration": 0.1327432500000043,
          "durationTicks": 96,
          "midi": 68,
          "name": "G#4",
          "ticks": 142464,
          "time": 196.990983,
          "velocity": 0.2992125984251969
        },
        {
          "duration": 0.1327432500000043,
          "durationTicks": 96,
          "midi": 85,
          "name": "C#6",
          "ticks": 142560,
          "time": 197.12372625,
          "velocity": 0.2992125984251969
        },
        {
          "duration": 0.1327432500000043,
          "durationTicks": 96,
          "midi": 80,
          "name": "G#5",
          "ticks": 142560,
          "time": 197.12372625,
          "velocity": 0.2992125984251969
        },
        {
          "duration": 0.1327432500000043,
          "durationTicks": 96,
          "midi": 68,
          "name": "G#4",
          "ticks": 142560,
          "time": 197.12372625,
          "velocity": 0.2992125984251969
        },
        {
          "duration": 0.1327432500000043,
          "durationTicks": 96,
          "midi": 85,
          "name": "C#6",
          "ticks": 142656,
          "time": 197.2564695,
          "velocity": 0.2992125984251969
        },
        {
          "duration": 0.1327432500000043,
          "durationTicks": 96,
          "midi": 80,
          "name": "G#5",
          "ticks": 142656,
          "time": 197.2564695,
          "velocity": 0.2992125984251969
        },
        {
          "duration": 0.1327432500000043,
          "durationTicks": 96,
          "midi": 68,
          "name": "G#4",
          "ticks": 142656,
          "time": 197.2564695,
          "velocity": 0.2992125984251969
        },
        {
          "duration": 0.1327432500000043,
          "durationTicks": 96,
          "midi": 68,
          "name": "G#4",
          "ticks": 142752,
          "time": 197.38921275,
          "velocity": 0.2992125984251969
        },
        {
          "duration": 0.1327432500000043,
          "durationTicks": 96,
          "midi": 85,
          "name": "C#6",
          "ticks": 142752,
          "time": 197.38921275,
          "velocity": 0.2992125984251969
        },
        {
          "duration": 0.1327432500000043,
          "durationTicks": 96,
          "midi": 80,
          "name": "G#5",
          "ticks": 142752,
          "time": 197.38921275,
          "velocity": 0.2992125984251969
        },
        {
          "duration": 0.1327432500000043,
          "durationTicks": 96,
          "midi": 68,
          "name": "G#4",
          "ticks": 148224,
          "time": 204.955578,
          "velocity": 0.2992125984251969
        },
        {
          "duration": 0.1327432500000043,
          "durationTicks": 96,
          "midi": 80,
          "name": "G#5",
          "ticks": 148224,
          "time": 204.955578,
          "velocity": 0.2992125984251969
        },
        {
          "duration": 0.1327432500000043,
          "durationTicks": 96,
          "midi": 80,
          "name": "G#5",
          "ticks": 148320,
          "time": 205.08832125,
          "velocity": 0.2992125984251969
        },
        {
          "duration": 0.1327432500000043,
          "durationTicks": 96,
          "midi": 68,
          "name": "G#4",
          "ticks": 148320,
          "time": 205.08832125,
          "velocity": 0.2992125984251969
        },
        {
          "duration": 0.1327432500000043,
          "durationTicks": 96,
          "midi": 80,
          "name": "G#5",
          "ticks": 148512,
          "time": 205.35380775000002,
          "velocity": 0.2992125984251969
        },
        {
          "duration": 0.1327432500000043,
          "durationTicks": 96,
          "midi": 68,
          "name": "G#4",
          "ticks": 148512,
          "time": 205.35380775000002,
          "velocity": 0.2992125984251969
        },
        {
          "duration": 0.1327432500000043,
          "durationTicks": 96,
          "midi": 80,
          "name": "G#5",
          "ticks": 148608,
          "time": 205.48655100000002,
          "velocity": 0.2992125984251969
        },
        {
          "duration": 0.1327432500000043,
          "durationTicks": 96,
          "midi": 68,
          "name": "G#4",
          "ticks": 148608,
          "time": 205.48655100000002,
          "velocity": 0.2992125984251969
        },
        {
          "duration": 0.1327432499999759,
          "durationTicks": 96,
          "midi": 82,
          "name": "A#5",
          "ticks": 148704,
          "time": 205.61929425000002,
          "velocity": 0.2992125984251969
        },
        {
          "duration": 0.1327432499999759,
          "durationTicks": 96,
          "midi": 70,
          "name": "A#4",
          "ticks": 148704,
          "time": 205.61929425000002,
          "velocity": 0.2992125984251969
        },
        {
          "duration": 0.1327432500000043,
          "durationTicks": 96,
          "midi": 85,
          "name": "C#6",
          "ticks": 148800,
          "time": 205.7520375,
          "velocity": 0.2992125984251969
        },
        {
          "duration": 0.1327432500000043,
          "durationTicks": 96,
          "midi": 73,
          "name": "C#5",
          "ticks": 148800,
          "time": 205.7520375,
          "velocity": 0.2992125984251969
        },
        {
          "duration": 0.1327432500000043,
          "durationTicks": 96,
          "midi": 85,
          "name": "C#6",
          "ticks": 148896,
          "time": 205.88478075,
          "velocity": 0.2992125984251969
        },
        {
          "duration": 0.1327432500000043,
          "durationTicks": 96,
          "midi": 73,
          "name": "C#5",
          "ticks": 148896,
          "time": 205.88478075,
          "velocity": 0.2992125984251969
        },
        {
          "duration": 0.1327432499999759,
          "durationTicks": 96,
          "midi": 85,
          "name": "C#6",
          "ticks": 154368,
          "time": 213.45114600000002,
          "velocity": 0.2992125984251969
        },
        {
          "duration": 0.1327432499999759,
          "durationTicks": 96,
          "midi": 68,
          "name": "G#4",
          "ticks": 154368,
          "time": 213.45114600000002,
          "velocity": 0.2992125984251969
        },
        {
          "duration": 0.1327432499999759,
          "durationTicks": 96,
          "midi": 80,
          "name": "G#5",
          "ticks": 154368,
          "time": 213.45114600000002,
          "velocity": 0.2992125984251969
        },
        {
          "duration": 0.1327432500000043,
          "durationTicks": 96,
          "midi": 85,
          "name": "C#6",
          "ticks": 154464,
          "time": 213.58388925,
          "velocity": 0.2992125984251969
        },
        {
          "duration": 0.1327432500000043,
          "durationTicks": 96,
          "midi": 80,
          "name": "G#5",
          "ticks": 154464,
          "time": 213.58388925,
          "velocity": 0.2992125984251969
        },
        {
          "duration": 0.1327432500000043,
          "durationTicks": 96,
          "midi": 68,
          "name": "G#4",
          "ticks": 154464,
          "time": 213.58388925,
          "velocity": 0.2992125984251969
        },
        {
          "duration": 0.1327432500000043,
          "durationTicks": 96,
          "midi": 80,
          "name": "G#5",
          "ticks": 154656,
          "time": 213.84937575,
          "velocity": 0.2992125984251969
        },
        {
          "duration": 0.1327432500000043,
          "durationTicks": 96,
          "midi": 85,
          "name": "C#6",
          "ticks": 154656,
          "time": 213.84937575,
          "velocity": 0.2992125984251969
        },
        {
          "duration": 0.1327432500000043,
          "durationTicks": 96,
          "midi": 68,
          "name": "G#4",
          "ticks": 154656,
          "time": 213.84937575,
          "velocity": 0.2992125984251969
        },
        {
          "duration": 0.1327432500000043,
          "durationTicks": 96,
          "midi": 85,
          "name": "C#6",
          "ticks": 154752,
          "time": 213.982119,
          "velocity": 0.2992125984251969
        },
        {
          "duration": 0.1327432500000043,
          "durationTicks": 96,
          "midi": 80,
          "name": "G#5",
          "ticks": 154752,
          "time": 213.982119,
          "velocity": 0.2992125984251969
        },
        {
          "duration": 0.1327432500000043,
          "durationTicks": 96,
          "midi": 68,
          "name": "G#4",
          "ticks": 154752,
          "time": 213.982119,
          "velocity": 0.2992125984251969
        },
        {
          "duration": 0.1327432500000043,
          "durationTicks": 96,
          "midi": 85,
          "name": "C#6",
          "ticks": 154848,
          "time": 214.11486225000002,
          "velocity": 0.2992125984251969
        },
        {
          "duration": 0.1327432500000043,
          "durationTicks": 96,
          "midi": 80,
          "name": "G#5",
          "ticks": 154848,
          "time": 214.11486225000002,
          "velocity": 0.2992125984251969
        },
        {
          "duration": 0.1327432500000043,
          "durationTicks": 96,
          "midi": 68,
          "name": "G#4",
          "ticks": 154848,
          "time": 214.11486225000002,
          "velocity": 0.2992125984251969
        },
        {
          "duration": 0.1327432500000043,
          "durationTicks": 96,
          "midi": 85,
          "name": "C#6",
          "ticks": 154944,
          "time": 214.24760550000002,
          "velocity": 0.2992125984251969
        },
        {
          "duration": 0.1327432500000043,
          "durationTicks": 96,
          "midi": 80,
          "name": "G#5",
          "ticks": 154944,
          "time": 214.24760550000002,
          "velocity": 0.2992125984251969
        },
        {
          "duration": 0.1327432500000043,
          "durationTicks": 96,
          "midi": 68,
          "name": "G#4",
          "ticks": 154944,
          "time": 214.24760550000002,
          "velocity": 0.2992125984251969
        },
        {
          "duration": 0.1327432499999759,
          "durationTicks": 96,
          "midi": 68,
          "name": "G#4",
          "ticks": 155040,
          "time": 214.38034875000002,
          "velocity": 0.2992125984251969
        },
        {
          "duration": 0.1327432499999759,
          "durationTicks": 96,
          "midi": 85,
          "name": "C#6",
          "ticks": 155040,
          "time": 214.38034875000002,
          "velocity": 0.2992125984251969
        },
        {
          "duration": 0.1327432499999759,
          "durationTicks": 96,
          "midi": 80,
          "name": "G#5",
          "ticks": 155040,
          "time": 214.38034875000002,
          "velocity": 0.2992125984251969
        },
        {
          "duration": 0.26686924218751074,
          "durationTicks": 193,
          "midi": 58,
          "name": "A#3",
          "ticks": 173378,
          "time": 239.737074984375,
          "velocity": 0.2992125984251969
        },
        {
          "duration": 0.26686924218751074,
          "durationTicks": 193,
          "midi": 82,
          "name": "A#5",
          "ticks": 173384,
          "time": 239.7453714375,
          "velocity": 0.2992125984251969
        },
        {
          "duration": 0.1327432499999759,
          "durationTicks": 96,
          "midi": 70,
          "name": "A#4",
          "ticks": 173391,
          "time": 239.75505063281253,
          "velocity": 0.2992125984251969
        }
      ],
      "endOfTrackTicks": 173577
    },
    {
      "channel": 5,
      "controlChanges": {},
      "pitchBends": [],
      "instrument": {
        "family": "guitar",
        "number": 29,
        "name": "overdriven guitar"
      },
      "name": "Electric Guitar",
      "notes": [
        {
          "duration": 0.1327432500000003,
          "durationTicks": 96,
          "midi": 56,
          "name": "G#3",
          "ticks": 1632,
          "time": 2.25663525,
          "velocity": 0.25196850393700787
        },
        {
          "duration": 0.1327432500000003,
          "durationTicks": 96,
          "midi": 56,
          "name": "G#3",
          "ticks": 1920,
          "time": 2.654865,
          "velocity": 0.25196850393700787
        },
        {
          "duration": 0.1327432500000003,
          "durationTicks": 96,
          "midi": 53,
          "name": "F3",
          "ticks": 2208,
          "time": 3.05309475,
          "velocity": 0.25196850393700787
        },
        {
          "duration": 0.13274324999999987,
          "durationTicks": 96,
          "midi": 56,
          "name": "G#3",
          "ticks": 2304,
          "time": 3.1858380000000004,
          "velocity": 0.25196850393700787
        },
        {
          "duration": 0.1327432500000003,
          "durationTicks": 96,
          "midi": 56,
          "name": "G#3",
          "ticks": 2592,
          "time": 3.58406775,
          "velocity": 0.25196850393700787
        },
        {
          "duration": 0.1327432500000003,
          "durationTicks": 96,
          "midi": 53,
          "name": "F3",
          "ticks": 2880,
          "time": 3.9822975,
          "velocity": 0.25196850393700787
        },
        {
          "duration": 0.13274324999999987,
          "durationTicks": 96,
          "midi": 56,
          "name": "G#3",
          "ticks": 2976,
          "time": 4.11504075,
          "velocity": 0.25196850393700787
        },
        {
          "duration": 0.13274324999999987,
          "durationTicks": 96,
          "midi": 56,
          "name": "G#3",
          "ticks": 3168,
          "time": 4.38052725,
          "velocity": 0.25196850393700787
        },
        {
          "duration": 0.13274324999999987,
          "durationTicks": 96,
          "midi": 56,
          "name": "G#3",
          "ticks": 3456,
          "time": 4.778757000000001,
          "velocity": 0.25196850393700787
        },
        {
          "duration": 0.13274324999999987,
          "durationTicks": 96,
          "midi": 53,
          "name": "F3",
          "ticks": 3744,
          "time": 5.17698675,
          "velocity": 0.25196850393700787
        },
        {
          "duration": 0.13274324999999987,
          "durationTicks": 96,
          "midi": 56,
          "name": "G#3",
          "ticks": 3840,
          "time": 5.30973,
          "velocity": 0.25196850393700787
        },
        {
          "duration": 0.13274324999999987,
          "durationTicks": 96,
          "midi": 56,
          "name": "G#3",
          "ticks": 4032,
          "time": 5.575216500000001,
          "velocity": 0.25196850393700787
        },
        {
          "duration": 0.13274324999999987,
          "durationTicks": 96,
          "midi": 56,
          "name": "G#3",
          "ticks": 4224,
          "time": 5.840703,
          "velocity": 0.25196850393700787
        },
        {
          "duration": 0.13274324999999987,
          "durationTicks": 96,
          "midi": 58,
          "name": "A#3",
          "ticks": 4320,
          "time": 5.97344625,
          "velocity": 0.25196850393700787
        },
        {
          "duration": 0.13274324999999987,
          "durationTicks": 96,
          "midi": 56,
          "name": "G#3",
          "ticks": 4704,
          "time": 6.504419250000001,
          "velocity": 0.25196850393700787
        },
        {
          "duration": 0.13274324999999987,
          "durationTicks": 96,
          "midi": 56,
          "name": "G#3",
          "ticks": 4992,
          "time": 6.902649,
          "velocity": 0.25196850393700787
        },
        {
          "duration": 0.13274324999999987,
          "durationTicks": 96,
          "midi": 53,
          "name": "F3",
          "ticks": 5280,
          "time": 7.300878750000001,
          "velocity": 0.25196850393700787
        },
        {
          "duration": 0.13274324999999987,
          "durationTicks": 96,
          "midi": 56,
          "name": "G#3",
          "ticks": 5376,
          "time": 7.433622000000001,
          "velocity": 0.25196850393700787
        },
        {
          "duration": 0.13274324999999987,
          "durationTicks": 96,
          "midi": 56,
          "name": "G#3",
          "ticks": 5568,
          "time": 7.6991085,
          "velocity": 0.25196850393700787
        },
        {
          "duration": 0.13274324999999898,
          "durationTicks": 96,
          "midi": 51,
          "name": "D#3",
          "ticks": 5952,
          "time": 8.2300815,
          "velocity": 0.25196850393700787
        },
        {
          "duration": 0.13274325000000076,
          "durationTicks": 96,
          "midi": 53,
          "name": "F3",
          "ticks": 6048,
          "time": 8.36282475,
          "velocity": 0.25196850393700787
        },
        {
          "duration": 0.13274324999999898,
          "durationTicks": 96,
          "midi": 56,
          "name": "G#3",
          "ticks": 6240,
          "time": 8.628311250000001,
          "velocity": 0.25196850393700787
        },
        {
          "duration": 0.13274325000000076,
          "durationTicks": 96,
          "midi": 56,
          "name": "G#3",
          "ticks": 6528,
          "time": 9.026541,
          "velocity": 0.25196850393700787
        },
        {
          "duration": 0.13274325000000076,
          "durationTicks": 96,
          "midi": 53,
          "name": "F3",
          "ticks": 6816,
          "time": 9.42477075,
          "velocity": 0.25196850393700787
        },
        {
          "duration": 0.13274324999999898,
          "durationTicks": 96,
          "midi": 56,
          "name": "G#3",
          "ticks": 6912,
          "time": 9.557514000000001,
          "velocity": 0.25196850393700787
        },
        {
          "duration": 0.13274324999999898,
          "durationTicks": 96,
          "midi": 56,
          "name": "G#3",
          "ticks": 7104,
          "time": 9.823000500000001,
          "velocity": 0.25196850393700787
        },
        {
          "duration": 0.13274324999999898,
          "durationTicks": 96,
          "midi": 56,
          "name": "G#3",
          "ticks": 7392,
          "time": 10.221230250000001,
          "velocity": 0.25196850393700787
        },
        {
          "duration": 0.13274324999999898,
          "durationTicks": 96,
          "midi": 56,
          "name": "G#3",
          "ticks": 7584,
          "time": 10.486716750000001,
          "velocity": 0.25196850393700787
        },
        {
          "duration": 0.13274324999999898,
          "durationTicks": 96,
          "midi": 56,
          "name": "G#3",
          "ticks": 7776,
          "time": 10.75220325,
          "velocity": 0.25196850393700787
        },
        {
          "duration": 0.13274324999999898,
          "durationTicks": 96,
          "midi": 56,
          "name": "G#3",
          "ticks": 8064,
          "time": 11.150433000000001,
          "velocity": 0.25196850393700787
        },
        {
          "duration": 0.13274325000000076,
          "durationTicks": 96,
          "midi": 53,
          "name": "F3",
          "ticks": 8352,
          "time": 11.54866275,
          "velocity": 0.25196850393700787
        },
        {
          "duration": 0.13274324999999898,
          "durationTicks": 96,
          "midi": 56,
          "name": "G#3",
          "ticks": 8448,
          "time": 11.681406,
          "velocity": 0.25196850393700787
        },
        {
          "duration": 0.13274324999999898,
          "durationTicks": 96,
          "midi": 56,
          "name": "G#3",
          "ticks": 8736,
          "time": 12.079635750000001,
          "velocity": 0.25196850393700787
        },
        {
          "duration": 0.13274325000000076,
          "durationTicks": 96,
          "midi": 53,
          "name": "F3",
          "ticks": 9024,
          "time": 12.4778655,
          "velocity": 0.25196850393700787
        },
        {
          "duration": 0.13274325000000076,
          "durationTicks": 96,
          "midi": 56,
          "name": "G#3",
          "ticks": 9120,
          "time": 12.61060875,
          "velocity": 0.25196850393700787
        },
        {
          "duration": 0.13274325000000076,
          "durationTicks": 96,
          "midi": 56,
          "name": "G#3",
          "ticks": 9312,
          "time": 12.87609525,
          "velocity": 0.25196850393700787
        },
        {
          "duration": 0.13274324999999898,
          "durationTicks": 96,
          "midi": 56,
          "name": "G#3",
          "ticks": 9600,
          "time": 13.274325000000001,
          "velocity": 0.25196850393700787
        },
        {
          "duration": 0.13274324999999898,
          "durationTicks": 96,
          "midi": 53,
          "name": "F3",
          "ticks": 9888,
          "time": 13.672554750000002,
          "velocity": 0.25196850393700787
        },
        {
          "duration": 0.13274325000000076,
          "durationTicks": 96,
          "midi": 56,
          "name": "G#3",
          "ticks": 9984,
          "time": 13.805298,
          "velocity": 0.25196850393700787
        },
        {
          "duration": 0.13274325000000076,
          "durationTicks": 96,
          "midi": 56,
          "name": "G#3",
          "ticks": 10176,
          "time": 14.0707845,
          "velocity": 0.25196850393700787
        },
        {
          "duration": 0.13274325000000076,
          "durationTicks": 96,
          "midi": 56,
          "name": "G#3",
          "ticks": 10368,
          "time": 14.336271,
          "velocity": 0.25196850393700787
        },
        {
          "duration": 0.13274325000000076,
          "durationTicks": 96,
          "midi": 58,
          "name": "A#3",
          "ticks": 10464,
          "time": 14.46901425,
          "velocity": 0.25196850393700787
        },
        {
          "duration": 0.13274325000000076,
          "durationTicks": 96,
          "midi": 56,
          "name": "G#3",
          "ticks": 10848,
          "time": 14.99998725,
          "velocity": 0.25196850393700787
        },
        {
          "duration": 0.13274325000000076,
          "durationTicks": 96,
          "midi": 56,
          "name": "G#3",
          "ticks": 11136,
          "time": 15.398217,
          "velocity": 0.25196850393700787
        },
        {
          "duration": 0.13274324999999898,
          "durationTicks": 96,
          "midi": 53,
          "name": "F3",
          "ticks": 11424,
          "time": 15.796446750000001,
          "velocity": 0.25196850393700787
        },
        {
          "duration": 0.13274324999999898,
          "durationTicks": 96,
          "midi": 56,
          "name": "G#3",
          "ticks": 11520,
          "time": 15.92919,
          "velocity": 0.25196850393700787
        },
        {
          "duration": 0.13274325000000076,
          "durationTicks": 96,
          "midi": 56,
          "name": "G#3",
          "ticks": 11712,
          "time": 16.1946765,
          "velocity": 0.25196850393700787
        },
        {
          "duration": 0.13274325000000076,
          "durationTicks": 96,
          "midi": 51,
          "name": "D#3",
          "ticks": 12096,
          "time": 16.7256495,
          "velocity": 0.25196850393700787
        },
        {
          "duration": 0.13274325000000076,
          "durationTicks": 96,
          "midi": 53,
          "name": "F3",
          "ticks": 12192,
          "time": 16.85839275,
          "velocity": 0.25196850393700787
        },
        {
          "duration": 0.13274325000000076,
          "durationTicks": 96,
          "midi": 56,
          "name": "G#3",
          "ticks": 12384,
          "time": 17.12387925,
          "velocity": 0.25196850393700787
        },
        {
          "duration": 0.13274325000000076,
          "durationTicks": 96,
          "midi": 56,
          "name": "G#3",
          "ticks": 12672,
          "time": 17.522109,
          "velocity": 0.25196850393700787
        },
        {
          "duration": 0.1327432499999972,
          "durationTicks": 96,
          "midi": 53,
          "name": "F3",
          "ticks": 12960,
          "time": 17.920338750000003,
          "velocity": 0.25196850393700787
        },
        {
          "duration": 0.13274325000000076,
          "durationTicks": 96,
          "midi": 56,
          "name": "G#3",
          "ticks": 13056,
          "time": 18.053082,
          "velocity": 0.25196850393700787
        },
        {
          "duration": 0.13274325000000076,
          "durationTicks": 96,
          "midi": 56,
          "name": "G#3",
          "ticks": 13248,
          "time": 18.3185685,
          "velocity": 0.25196850393700787
        },
        {
          "duration": 0.13274325000000076,
          "durationTicks": 96,
          "midi": 56,
          "name": "G#3",
          "ticks": 13536,
          "time": 18.71679825,
          "velocity": 0.25196850393700787
        },
        {
          "duration": 0.13274325000000076,
          "durationTicks": 96,
          "midi": 56,
          "name": "G#3",
          "ticks": 13728,
          "time": 18.98228475,
          "velocity": 0.25196850393700787
        },
        {
          "duration": 0.13274325000000076,
          "durationTicks": 96,
          "midi": 56,
          "name": "G#3",
          "ticks": 13920,
          "time": 19.24777125,
          "velocity": 0.25196850393700787
        },
        {
          "duration": 0.13274325000000076,
          "durationTicks": 96,
          "midi": 56,
          "name": "G#3",
          "ticks": 14208,
          "time": 19.646001000000002,
          "velocity": 0.25196850393700787
        },
        {
          "duration": 0.13274325000000076,
          "durationTicks": 96,
          "midi": 53,
          "name": "F3",
          "ticks": 14496,
          "time": 20.04423075,
          "velocity": 0.25196850393700787
        },
        {
          "duration": 0.13274325000000076,
          "durationTicks": 96,
          "midi": 56,
          "name": "G#3",
          "ticks": 14592,
          "time": 20.176974,
          "velocity": 0.25196850393700787
        },
        {
          "duration": 0.13274325000000076,
          "durationTicks": 96,
          "midi": 56,
          "name": "G#3",
          "ticks": 14880,
          "time": 20.57520375,
          "velocity": 0.25196850393700787
        },
        {
          "duration": 0.1327432499999972,
          "durationTicks": 96,
          "midi": 53,
          "name": "F3",
          "ticks": 15168,
          "time": 20.973433500000002,
          "velocity": 0.25196850393700787
        },
        {
          "duration": 0.13274325000000076,
          "durationTicks": 96,
          "midi": 56,
          "name": "G#3",
          "ticks": 15264,
          "time": 21.10617675,
          "velocity": 0.25196850393700787
        },
        {
          "duration": 0.13274325000000076,
          "durationTicks": 96,
          "midi": 56,
          "name": "G#3",
          "ticks": 15456,
          "time": 21.37166325,
          "velocity": 0.25196850393700787
        },
        {
          "duration": 0.13274325000000076,
          "durationTicks": 96,
          "midi": 56,
          "name": "G#3",
          "ticks": 15744,
          "time": 21.769893,
          "velocity": 0.25196850393700787
        },
        {
          "duration": 0.13274325000000076,
          "durationTicks": 96,
          "midi": 53,
          "name": "F3",
          "ticks": 16032,
          "time": 22.168122750000002,
          "velocity": 0.25196850393700787
        },
        {
          "duration": 0.1327432499999972,
          "durationTicks": 96,
          "midi": 56,
          "name": "G#3",
          "ticks": 16128,
          "time": 22.300866000000003,
          "velocity": 0.25196850393700787
        },
        {
          "duration": 0.13274325000000076,
          "durationTicks": 96,
          "midi": 56,
          "name": "G#3",
          "ticks": 16320,
          "time": 22.5663525,
          "velocity": 0.25196850393700787
        },
        {
          "duration": 0.13274325000000076,
          "durationTicks": 96,
          "midi": 56,
          "name": "G#3",
          "ticks": 16512,
          "time": 22.831839000000002,
          "velocity": 0.25196850393700787
        },
        {
          "duration": 0.1327432499999972,
          "durationTicks": 96,
          "midi": 58,
          "name": "A#3",
          "ticks": 16608,
          "time": 22.964582250000003,
          "velocity": 0.25196850393700787
        },
        {
          "duration": 0.1327432499999972,
          "durationTicks": 96,
          "midi": 56,
          "name": "G#3",
          "ticks": 16992,
          "time": 23.495555250000002,
          "velocity": 0.25196850393700787
        },
        {
          "duration": 0.13274325000000076,
          "durationTicks": 96,
          "midi": 56,
          "name": "G#3",
          "ticks": 17280,
          "time": 23.893785,
          "velocity": 0.25196850393700787
        },
        {
          "duration": 0.13274325000000076,
          "durationTicks": 96,
          "midi": 53,
          "name": "F3",
          "ticks": 17568,
          "time": 24.29201475,
          "velocity": 0.25196850393700787
        },
        {
          "duration": 0.13274325000000076,
          "durationTicks": 96,
          "midi": 56,
          "name": "G#3",
          "ticks": 17664,
          "time": 24.424758,
          "velocity": 0.25196850393700787
        },
        {
          "duration": 0.13274325000000076,
          "durationTicks": 96,
          "midi": 56,
          "name": "G#3",
          "ticks": 17856,
          "time": 24.690244500000002,
          "velocity": 0.25196850393700787
        },
        {
          "duration": 0.13274325000000076,
          "durationTicks": 96,
          "midi": 51,
          "name": "D#3",
          "ticks": 18240,
          "time": 25.2212175,
          "velocity": 0.25196850393700787
        },
        {
          "duration": 0.13274325000000076,
          "durationTicks": 96,
          "midi": 53,
          "name": "F3",
          "ticks": 18336,
          "time": 25.353960750000002,
          "velocity": 0.25196850393700787
        },
        {
          "duration": 0.13274325000000076,
          "durationTicks": 96,
          "midi": 56,
          "name": "G#3",
          "ticks": 18528,
          "time": 25.61944725,
          "velocity": 0.25196850393700787
        },
        {
          "duration": 0.1327432499999972,
          "durationTicks": 96,
          "midi": 56,
          "name": "G#3",
          "ticks": 18816,
          "time": 26.017677000000003,
          "velocity": 0.25196850393700787
        },
        {
          "duration": 0.13274325000000076,
          "durationTicks": 96,
          "midi": 53,
          "name": "F3",
          "ticks": 19104,
          "time": 26.41590675,
          "velocity": 0.25196850393700787
        },
        {
          "duration": 0.13274325000000076,
          "durationTicks": 96,
          "midi": 56,
          "name": "G#3",
          "ticks": 19200,
          "time": 26.548650000000002,
          "velocity": 0.25196850393700787
        },
        {
          "duration": 0.13274325000000076,
          "durationTicks": 96,
          "midi": 56,
          "name": "G#3",
          "ticks": 19392,
          "time": 26.8141365,
          "velocity": 0.25196850393700787
        },
        {
          "duration": 0.13274325000000076,
          "durationTicks": 96,
          "midi": 56,
          "name": "G#3",
          "ticks": 19680,
          "time": 27.212366250000002,
          "velocity": 0.25196850393700787
        },
        {
          "duration": 0.13274325000000076,
          "durationTicks": 96,
          "midi": 56,
          "name": "G#3",
          "ticks": 19872,
          "time": 27.47785275,
          "velocity": 0.25196850393700787
        },
        {
          "duration": 0.13274325000000076,
          "durationTicks": 96,
          "midi": 56,
          "name": "G#3",
          "ticks": 20064,
          "time": 27.743339250000002,
          "velocity": 0.25196850393700787
        },
        {
          "duration": 0.13274325000000076,
          "durationTicks": 96,
          "midi": 56,
          "name": "G#3",
          "ticks": 20352,
          "time": 28.141569,
          "velocity": 0.25196850393700787
        },
        {
          "duration": 0.1327432499999972,
          "durationTicks": 96,
          "midi": 53,
          "name": "F3",
          "ticks": 20640,
          "time": 28.539798750000003,
          "velocity": 0.25196850393700787
        },
        {
          "duration": 0.13274325000000076,
          "durationTicks": 96,
          "midi": 56,
          "name": "G#3",
          "ticks": 20736,
          "time": 28.672542,
          "velocity": 0.25196850393700787
        },
        {
          "duration": 0.13274325000000076,
          "durationTicks": 96,
          "midi": 56,
          "name": "G#3",
          "ticks": 21024,
          "time": 29.070771750000002,
          "velocity": 0.25196850393700787
        },
        {
          "duration": 0.13274325000000076,
          "durationTicks": 96,
          "midi": 53,
          "name": "F3",
          "ticks": 21312,
          "time": 29.4690015,
          "velocity": 0.25196850393700787
        },
        {
          "duration": 0.13274325000000076,
          "durationTicks": 96,
          "midi": 56,
          "name": "G#3",
          "ticks": 21408,
          "time": 29.60174475,
          "velocity": 0.25196850393700787
        },
        {
          "duration": 0.1327432499999972,
          "durationTicks": 96,
          "midi": 56,
          "name": "G#3",
          "ticks": 21600,
          "time": 29.867231250000003,
          "velocity": 0.25196850393700787
        },
        {
          "duration": 0.13274325000000076,
          "durationTicks": 96,
          "midi": 56,
          "name": "G#3",
          "ticks": 21888,
          "time": 30.265461000000002,
          "velocity": 0.25196850393700787
        },
        {
          "duration": 0.13274325000000076,
          "durationTicks": 96,
          "midi": 53,
          "name": "F3",
          "ticks": 22176,
          "time": 30.66369075,
          "velocity": 0.25196850393700787
        },
        {
          "duration": 0.13274325000000076,
          "durationTicks": 96,
          "midi": 56,
          "name": "G#3",
          "ticks": 22272,
          "time": 30.796434,
          "velocity": 0.25196850393700787
        },
        {
          "duration": 0.1327432499999972,
          "durationTicks": 96,
          "midi": 56,
          "name": "G#3",
          "ticks": 22464,
          "time": 31.061920500000003,
          "velocity": 0.25196850393700787
        },
        {
          "duration": 0.13274325000000076,
          "durationTicks": 96,
          "midi": 56,
          "name": "G#3",
          "ticks": 22656,
          "time": 31.327407,
          "velocity": 0.25196850393700787
        },
        {
          "duration": 0.13274325000000076,
          "durationTicks": 96,
          "midi": 58,
          "name": "A#3",
          "ticks": 22752,
          "time": 31.46015025,
          "velocity": 0.25196850393700787
        },
        {
          "duration": 0.1327432499999972,
          "durationTicks": 96,
          "midi": 56,
          "name": "G#3",
          "ticks": 23136,
          "time": 31.99112325,
          "velocity": 0.25196850393700787
        },
        {
          "duration": 0.1327432500000043,
          "durationTicks": 96,
          "midi": 56,
          "name": "G#3",
          "ticks": 23424,
          "time": 32.389353,
          "velocity": 0.25196850393700787
        },
        {
          "duration": 0.1327432500000043,
          "durationTicks": 96,
          "midi": 53,
          "name": "F3",
          "ticks": 23712,
          "time": 32.78758275,
          "velocity": 0.25196850393700787
        },
        {
          "duration": 0.1327432499999972,
          "durationTicks": 96,
          "midi": 56,
          "name": "G#3",
          "ticks": 23808,
          "time": 32.920326,
          "velocity": 0.25196850393700787
        },
        {
          "duration": 0.1327432499999972,
          "durationTicks": 96,
          "midi": 56,
          "name": "G#3",
          "ticks": 24000,
          "time": 33.185812500000004,
          "velocity": 0.25196850393700787
        },
        {
          "duration": 0.1327432500000043,
          "durationTicks": 96,
          "midi": 51,
          "name": "D#3",
          "ticks": 24384,
          "time": 33.7167855,
          "velocity": 0.25196850393700787
        },
        {
          "duration": 0.1327432499999972,
          "durationTicks": 96,
          "midi": 53,
          "name": "F3",
          "ticks": 24480,
          "time": 33.849528750000005,
          "velocity": 0.25196850393700787
        },
        {
          "duration": 0.1327432500000043,
          "durationTicks": 96,
          "midi": 56,
          "name": "G#3",
          "ticks": 24672,
          "time": 34.11501525,
          "velocity": 0.25196850393700787
        },
        {
          "duration": 0.1327432499999972,
          "durationTicks": 96,
          "midi": 56,
          "name": "G#3",
          "ticks": 24960,
          "time": 34.513245000000005,
          "velocity": 0.25196850393700787
        },
        {
          "duration": 0.1327432499999972,
          "durationTicks": 96,
          "midi": 53,
          "name": "F3",
          "ticks": 25248,
          "time": 34.911474750000004,
          "velocity": 0.25196850393700787
        },
        {
          "duration": 0.1327432500000043,
          "durationTicks": 96,
          "midi": 56,
          "name": "G#3",
          "ticks": 25344,
          "time": 35.044218,
          "velocity": 0.25196850393700787
        },
        {
          "duration": 0.1327432499999972,
          "durationTicks": 96,
          "midi": 56,
          "name": "G#3",
          "ticks": 25536,
          "time": 35.3097045,
          "velocity": 0.25196850393700787
        },
        {
          "duration": 0.1327432500000043,
          "durationTicks": 96,
          "midi": 56,
          "name": "G#3",
          "ticks": 25824,
          "time": 35.70793425,
          "velocity": 0.25196850393700787
        },
        {
          "duration": 0.1327432499999972,
          "durationTicks": 96,
          "midi": 56,
          "name": "G#3",
          "ticks": 26016,
          "time": 35.97342075,
          "velocity": 0.25196850393700787
        },
        {
          "duration": 0.1327432499999972,
          "durationTicks": 96,
          "midi": 56,
          "name": "G#3",
          "ticks": 26208,
          "time": 36.238907250000004,
          "velocity": 0.25196850393700787
        },
        {
          "duration": 0.1327432499999972,
          "durationTicks": 96,
          "midi": 56,
          "name": "G#3",
          "ticks": 26496,
          "time": 36.637137,
          "velocity": 0.25196850393700787
        },
        {
          "duration": 0.1327432499999972,
          "durationTicks": 96,
          "midi": 53,
          "name": "F3",
          "ticks": 26784,
          "time": 37.03536675,
          "velocity": 0.25196850393700787
        },
        {
          "duration": 0.1327432500000043,
          "durationTicks": 96,
          "midi": 56,
          "name": "G#3",
          "ticks": 26880,
          "time": 37.16811,
          "velocity": 0.25196850393700787
        },
        {
          "duration": 0.1327432499999972,
          "durationTicks": 96,
          "midi": 56,
          "name": "G#3",
          "ticks": 27168,
          "time": 37.566339750000004,
          "velocity": 0.25196850393700787
        },
        {
          "duration": 0.1327432499999972,
          "durationTicks": 96,
          "midi": 53,
          "name": "F3",
          "ticks": 27456,
          "time": 37.9645695,
          "velocity": 0.25196850393700787
        },
        {
          "duration": 0.1327432500000043,
          "durationTicks": 96,
          "midi": 56,
          "name": "G#3",
          "ticks": 27552,
          "time": 38.09731275,
          "velocity": 0.25196850393700787
        },
        {
          "duration": 0.1327432499999972,
          "durationTicks": 96,
          "midi": 56,
          "name": "G#3",
          "ticks": 27744,
          "time": 38.36279925,
          "velocity": 0.25196850393700787
        },
        {
          "duration": 0.1327432500000043,
          "durationTicks": 96,
          "midi": 56,
          "name": "G#3",
          "ticks": 28032,
          "time": 38.761029,
          "velocity": 0.25196850393700787
        },
        {
          "duration": 0.1327432500000043,
          "durationTicks": 96,
          "midi": 53,
          "name": "F3",
          "ticks": 28320,
          "time": 39.15925875,
          "velocity": 0.25196850393700787
        },
        {
          "duration": 0.1327432499999972,
          "durationTicks": 96,
          "midi": 56,
          "name": "G#3",
          "ticks": 28416,
          "time": 39.292002000000004,
          "velocity": 0.25196850393700787
        },
        {
          "duration": 0.1327432499999972,
          "durationTicks": 96,
          "midi": 56,
          "name": "G#3",
          "ticks": 28608,
          "time": 39.557488500000005,
          "velocity": 0.25196850393700787
        },
        {
          "duration": 0.1327432500000043,
          "durationTicks": 96,
          "midi": 56,
          "name": "G#3",
          "ticks": 28800,
          "time": 39.822975,
          "velocity": 0.25196850393700787
        },
        {
          "duration": 0.1327432499999972,
          "durationTicks": 96,
          "midi": 58,
          "name": "A#3",
          "ticks": 28896,
          "time": 39.955718250000004,
          "velocity": 0.25196850393700787
        },
        {
          "duration": 0.1327432500000043,
          "durationTicks": 96,
          "midi": 56,
          "name": "G#3",
          "ticks": 29280,
          "time": 40.48669125,
          "velocity": 0.25196850393700787
        },
        {
          "duration": 0.1327432499999972,
          "durationTicks": 96,
          "midi": 56,
          "name": "G#3",
          "ticks": 29568,
          "time": 40.884921000000006,
          "velocity": 0.25196850393700787
        },
        {
          "duration": 0.1327432499999972,
          "durationTicks": 96,
          "midi": 53,
          "name": "F3",
          "ticks": 29856,
          "time": 41.283150750000004,
          "velocity": 0.25196850393700787
        },
        {
          "duration": 0.1327432499999972,
          "durationTicks": 96,
          "midi": 56,
          "name": "G#3",
          "ticks": 29952,
          "time": 41.415894,
          "velocity": 0.25196850393700787
        },
        {
          "duration": 0.1327432499999972,
          "durationTicks": 96,
          "midi": 56,
          "name": "G#3",
          "ticks": 30144,
          "time": 41.6813805,
          "velocity": 0.25196850393700787
        },
        {
          "duration": 0.1327432500000043,
          "durationTicks": 96,
          "midi": 51,
          "name": "D#3",
          "ticks": 30528,
          "time": 42.2123535,
          "velocity": 0.25196850393700787
        },
        {
          "duration": 0.1327432499999972,
          "durationTicks": 96,
          "midi": 53,
          "name": "F3",
          "ticks": 30624,
          "time": 42.34509675,
          "velocity": 0.25196850393700787
        },
        {
          "duration": 0.1327432499999972,
          "durationTicks": 96,
          "midi": 56,
          "name": "G#3",
          "ticks": 30816,
          "time": 42.610583250000005,
          "velocity": 0.25196850393700787
        },
        {
          "duration": 0.1327432499999972,
          "durationTicks": 96,
          "midi": 56,
          "name": "G#3",
          "ticks": 31104,
          "time": 43.008813,
          "velocity": 0.25196850393700787
        },
        {
          "duration": 0.1327432499999972,
          "durationTicks": 96,
          "midi": 53,
          "name": "F3",
          "ticks": 31392,
          "time": 43.40704275,
          "velocity": 0.25196850393700787
        },
        {
          "duration": 0.1327432500000043,
          "durationTicks": 96,
          "midi": 56,
          "name": "G#3",
          "ticks": 31488,
          "time": 43.539786,
          "velocity": 0.25196850393700787
        },
        {
          "duration": 0.1327432500000043,
          "durationTicks": 96,
          "midi": 56,
          "name": "G#3",
          "ticks": 31680,
          "time": 43.8052725,
          "velocity": 0.25196850393700787
        },
        {
          "duration": 0.1327432500000043,
          "durationTicks": 96,
          "midi": 56,
          "name": "G#3",
          "ticks": 31968,
          "time": 44.20350225,
          "velocity": 0.25196850393700787
        },
        {
          "duration": 0.1327432500000043,
          "durationTicks": 96,
          "midi": 56,
          "name": "G#3",
          "ticks": 32160,
          "time": 44.46898875,
          "velocity": 0.25196850393700787
        },
        {
          "duration": 0.1327432499999972,
          "durationTicks": 96,
          "midi": 56,
          "name": "G#3",
          "ticks": 32352,
          "time": 44.73447525,
          "velocity": 0.25196850393700787
        },
        {
          "duration": 0.1327432500000043,
          "durationTicks": 96,
          "midi": 56,
          "name": "G#3",
          "ticks": 32640,
          "time": 45.132705,
          "velocity": 0.25196850393700787
        },
        {
          "duration": 0.1327432500000043,
          "durationTicks": 96,
          "midi": 53,
          "name": "F3",
          "ticks": 32928,
          "time": 45.53093475,
          "velocity": 0.25196850393700787
        },
        {
          "duration": 0.1327432499999972,
          "durationTicks": 96,
          "midi": 56,
          "name": "G#3",
          "ticks": 33024,
          "time": 45.663678000000004,
          "velocity": 0.25196850393700787
        },
        {
          "duration": 0.1327432499999972,
          "durationTicks": 96,
          "midi": 56,
          "name": "G#3",
          "ticks": 33312,
          "time": 46.06190775,
          "velocity": 0.25196850393700787
        },
        {
          "duration": 0.1327432499999972,
          "durationTicks": 96,
          "midi": 53,
          "name": "F3",
          "ticks": 33600,
          "time": 46.4601375,
          "velocity": 0.25196850393700787
        },
        {
          "duration": 0.1327432500000043,
          "durationTicks": 96,
          "midi": 56,
          "name": "G#3",
          "ticks": 33696,
          "time": 46.59288075,
          "velocity": 0.25196850393700787
        },
        {
          "duration": 0.1327432500000043,
          "durationTicks": 96,
          "midi": 56,
          "name": "G#3",
          "ticks": 33888,
          "time": 46.85836725,
          "velocity": 0.25196850393700787
        },
        {
          "duration": 0.1327432500000043,
          "durationTicks": 96,
          "midi": 56,
          "name": "G#3",
          "ticks": 34176,
          "time": 47.256597,
          "velocity": 0.25196850393700787
        },
        {
          "duration": 0.1327432499999972,
          "durationTicks": 96,
          "midi": 53,
          "name": "F3",
          "ticks": 34464,
          "time": 47.654826750000005,
          "velocity": 0.25196850393700787
        },
        {
          "duration": 0.1327432499999972,
          "durationTicks": 96,
          "midi": 56,
          "name": "G#3",
          "ticks": 34560,
          "time": 47.78757,
          "velocity": 0.25196850393700787
        },
        {
          "duration": 0.1327432499999972,
          "durationTicks": 96,
          "midi": 56,
          "name": "G#3",
          "ticks": 34752,
          "time": 48.053056500000004,
          "velocity": 0.25196850393700787
        },
        {
          "duration": 0.1327432499999972,
          "durationTicks": 96,
          "midi": 56,
          "name": "G#3",
          "ticks": 34944,
          "time": 48.318543000000005,
          "velocity": 0.25196850393700787
        },
        {
          "duration": 0.1327432499999972,
          "durationTicks": 96,
          "midi": 58,
          "name": "A#3",
          "ticks": 35040,
          "time": 48.45128625,
          "velocity": 0.25196850393700787
        },
        {
          "duration": 0.1327432499999972,
          "durationTicks": 96,
          "midi": 56,
          "name": "G#3",
          "ticks": 35424,
          "time": 48.982259250000006,
          "velocity": 0.25196850393700787
        },
        {
          "duration": 0.1327432499999972,
          "durationTicks": 96,
          "midi": 56,
          "name": "G#3",
          "ticks": 35712,
          "time": 49.380489000000004,
          "velocity": 0.25196850393700787
        },
        {
          "duration": 0.1327432499999972,
          "durationTicks": 96,
          "midi": 53,
          "name": "F3",
          "ticks": 36000,
          "time": 49.77871875,
          "velocity": 0.25196850393700787
        },
        {
          "duration": 0.1327432500000043,
          "durationTicks": 96,
          "midi": 56,
          "name": "G#3",
          "ticks": 36096,
          "time": 49.911462,
          "velocity": 0.25196850393700787
        },
        {
          "duration": 0.1327432500000043,
          "durationTicks": 96,
          "midi": 56,
          "name": "G#3",
          "ticks": 36288,
          "time": 50.1769485,
          "velocity": 0.25196850393700787
        },
        {
          "duration": 0.1327432499999972,
          "durationTicks": 96,
          "midi": 51,
          "name": "D#3",
          "ticks": 36672,
          "time": 50.707921500000005,
          "velocity": 0.25196850393700787
        },
        {
          "duration": 0.1327432500000043,
          "durationTicks": 96,
          "midi": 53,
          "name": "F3",
          "ticks": 36768,
          "time": 50.84066475,
          "velocity": 0.25196850393700787
        },
        {
          "duration": 0.1327432499999972,
          "durationTicks": 96,
          "midi": 56,
          "name": "G#3",
          "ticks": 36960,
          "time": 51.10615125,
          "velocity": 0.25196850393700787
        },
        {
          "duration": 0.1327432499999972,
          "durationTicks": 96,
          "midi": 56,
          "name": "G#3",
          "ticks": 37248,
          "time": 51.504381,
          "velocity": 0.25196850393700787
        },
        {
          "duration": 0.1327432500000043,
          "durationTicks": 96,
          "midi": 53,
          "name": "F3",
          "ticks": 37536,
          "time": 51.90261075,
          "velocity": 0.25196850393700787
        },
        {
          "duration": 0.1327432499999972,
          "durationTicks": 96,
          "midi": 56,
          "name": "G#3",
          "ticks": 37632,
          "time": 52.035354000000005,
          "velocity": 0.25196850393700787
        },
        {
          "duration": 0.1327432500000043,
          "durationTicks": 96,
          "midi": 56,
          "name": "G#3",
          "ticks": 37824,
          "time": 52.3008405,
          "velocity": 0.25196850393700787
        },
        {
          "duration": 0.1327432499999972,
          "durationTicks": 96,
          "midi": 56,
          "name": "G#3",
          "ticks": 38112,
          "time": 52.699070250000005,
          "velocity": 0.25196850393700787
        },
        {
          "duration": 0.1327432500000043,
          "durationTicks": 96,
          "midi": 56,
          "name": "G#3",
          "ticks": 38304,
          "time": 52.96455675,
          "velocity": 0.25196850393700787
        },
        {
          "duration": 0.1327432500000043,
          "durationTicks": 96,
          "midi": 56,
          "name": "G#3",
          "ticks": 38496,
          "time": 53.23004325,
          "velocity": 0.25196850393700787
        },
        {
          "duration": 0.1327432500000043,
          "durationTicks": 96,
          "midi": 56,
          "name": "G#3",
          "ticks": 38784,
          "time": 53.628273,
          "velocity": 0.25196850393700787
        },
        {
          "duration": 0.1327432499999972,
          "durationTicks": 96,
          "midi": 53,
          "name": "F3",
          "ticks": 39072,
          "time": 54.026502750000006,
          "velocity": 0.25196850393700787
        },
        {
          "duration": 0.1327432499999972,
          "durationTicks": 96,
          "midi": 56,
          "name": "G#3",
          "ticks": 39168,
          "time": 54.159246,
          "velocity": 0.25196850393700787
        },
        {
          "duration": 0.1327432500000043,
          "durationTicks": 96,
          "midi": 56,
          "name": "G#3",
          "ticks": 39456,
          "time": 54.55747575,
          "velocity": 0.25196850393700787
        },
        {
          "duration": 0.1327432500000043,
          "durationTicks": 96,
          "midi": 53,
          "name": "F3",
          "ticks": 39744,
          "time": 54.9557055,
          "velocity": 0.25196850393700787
        },
        {
          "duration": 0.1327432499999972,
          "durationTicks": 96,
          "midi": 56,
          "name": "G#3",
          "ticks": 39840,
          "time": 55.088448750000005,
          "velocity": 0.25196850393700787
        },
        {
          "duration": 0.1327432499999972,
          "durationTicks": 96,
          "midi": 56,
          "name": "G#3",
          "ticks": 40032,
          "time": 55.353935250000006,
          "velocity": 0.25196850393700787
        },
        {
          "duration": 0.1327432499999972,
          "durationTicks": 96,
          "midi": 56,
          "name": "G#3",
          "ticks": 40320,
          "time": 55.752165000000005,
          "velocity": 0.25196850393700787
        },
        {
          "duration": 0.1327432499999972,
          "durationTicks": 96,
          "midi": 53,
          "name": "F3",
          "ticks": 40608,
          "time": 56.150394750000004,
          "velocity": 0.25196850393700787
        },
        {
          "duration": 0.1327432500000043,
          "durationTicks": 96,
          "midi": 56,
          "name": "G#3",
          "ticks": 40704,
          "time": 56.283138,
          "velocity": 0.25196850393700787
        },
        {
          "duration": 0.1327432499999972,
          "durationTicks": 96,
          "midi": 56,
          "name": "G#3",
          "ticks": 40896,
          "time": 56.5486245,
          "velocity": 0.25196850393700787
        },
        {
          "duration": 0.1327432499999972,
          "durationTicks": 96,
          "midi": 56,
          "name": "G#3",
          "ticks": 41088,
          "time": 56.814111000000004,
          "velocity": 0.25196850393700787
        },
        {
          "duration": 0.1327432500000043,
          "durationTicks": 96,
          "midi": 58,
          "name": "A#3",
          "ticks": 41184,
          "time": 56.94685425,
          "velocity": 0.25196850393700787
        },
        {
          "duration": 0.1327432499999972,
          "durationTicks": 96,
          "midi": 56,
          "name": "G#3",
          "ticks": 41568,
          "time": 57.477827250000004,
          "velocity": 0.25196850393700787
        },
        {
          "duration": 0.1327432499999972,
          "durationTicks": 96,
          "midi": 56,
          "name": "G#3",
          "ticks": 41856,
          "time": 57.876057,
          "velocity": 0.25196850393700787
        },
        {
          "duration": 0.1327432500000043,
          "durationTicks": 96,
          "midi": 53,
          "name": "F3",
          "ticks": 42144,
          "time": 58.27428675,
          "velocity": 0.25196850393700787
        },
        {
          "duration": 0.1327432499999972,
          "durationTicks": 96,
          "midi": 56,
          "name": "G#3",
          "ticks": 42240,
          "time": 58.407030000000006,
          "velocity": 0.25196850393700787
        },
        {
          "duration": 0.1327432500000043,
          "durationTicks": 96,
          "midi": 56,
          "name": "G#3",
          "ticks": 42432,
          "time": 58.6725165,
          "velocity": 0.25196850393700787
        },
        {
          "duration": 0.1327432499999972,
          "durationTicks": 96,
          "midi": 51,
          "name": "D#3",
          "ticks": 42816,
          "time": 59.2034895,
          "velocity": 0.25196850393700787
        },
        {
          "duration": 0.1327432500000043,
          "durationTicks": 96,
          "midi": 53,
          "name": "F3",
          "ticks": 42912,
          "time": 59.33623275,
          "velocity": 0.25196850393700787
        },
        {
          "duration": 0.1327432500000043,
          "durationTicks": 96,
          "midi": 56,
          "name": "G#3",
          "ticks": 43104,
          "time": 59.60171925,
          "velocity": 0.25196850393700787
        },
        {
          "duration": 0.1327432500000043,
          "durationTicks": 96,
          "midi": 56,
          "name": "G#3",
          "ticks": 43392,
          "time": 59.999949,
          "velocity": 0.25196850393700787
        },
        {
          "duration": 0.1327432499999972,
          "durationTicks": 96,
          "midi": 53,
          "name": "F3",
          "ticks": 43680,
          "time": 60.39817875000001,
          "velocity": 0.25196850393700787
        },
        {
          "duration": 0.1327432499999972,
          "durationTicks": 96,
          "midi": 56,
          "name": "G#3",
          "ticks": 43776,
          "time": 60.530922000000004,
          "velocity": 0.25196850393700787
        },
        {
          "duration": 0.1327432499999972,
          "durationTicks": 96,
          "midi": 56,
          "name": "G#3",
          "ticks": 43968,
          "time": 60.796408500000005,
          "velocity": 0.25196850393700787
        },
        {
          "duration": 0.1327432499999972,
          "durationTicks": 96,
          "midi": 56,
          "name": "G#3",
          "ticks": 44256,
          "time": 61.194638250000004,
          "velocity": 0.25196850393700787
        },
        {
          "duration": 0.1327432499999972,
          "durationTicks": 96,
          "midi": 56,
          "name": "G#3",
          "ticks": 44448,
          "time": 61.460124750000006,
          "velocity": 0.25196850393700787
        },
        {
          "duration": 0.1327432500000043,
          "durationTicks": 96,
          "midi": 56,
          "name": "G#3",
          "ticks": 44640,
          "time": 61.72561125,
          "velocity": 0.25196850393700787
        },
        {
          "duration": 0.1327432499999972,
          "durationTicks": 96,
          "midi": 56,
          "name": "G#3",
          "ticks": 44928,
          "time": 62.123841000000006,
          "velocity": 0.25196850393700787
        },
        {
          "duration": 0.1327432499999972,
          "durationTicks": 96,
          "midi": 53,
          "name": "F3",
          "ticks": 45216,
          "time": 62.522070750000005,
          "velocity": 0.25196850393700787
        },
        {
          "duration": 0.1327432500000043,
          "durationTicks": 96,
          "midi": 56,
          "name": "G#3",
          "ticks": 45312,
          "time": 62.654814,
          "velocity": 0.25196850393700787
        },
        {
          "duration": 0.1327432500000043,
          "durationTicks": 96,
          "midi": 56,
          "name": "G#3",
          "ticks": 45600,
          "time": 63.05304375,
          "velocity": 0.25196850393700787
        },
        {
          "duration": 0.1327432499999972,
          "durationTicks": 96,
          "midi": 53,
          "name": "F3",
          "ticks": 45888,
          "time": 63.451273500000006,
          "velocity": 0.25196850393700787
        },
        {
          "duration": 0.1327432499999972,
          "durationTicks": 96,
          "midi": 56,
          "name": "G#3",
          "ticks": 45984,
          "time": 63.58401675,
          "velocity": 0.25196850393700787
        },
        {
          "duration": 0.1327432499999972,
          "durationTicks": 96,
          "midi": 56,
          "name": "G#3",
          "ticks": 46176,
          "time": 63.849503250000005,
          "velocity": 0.25196850393700787
        },
        {
          "duration": 0.1327432500000043,
          "durationTicks": 96,
          "midi": 56,
          "name": "G#3",
          "ticks": 46464,
          "time": 64.247733,
          "velocity": 0.25196850393700787
        },
        {
          "duration": 0.1327432499999901,
          "durationTicks": 96,
          "midi": 53,
          "name": "F3",
          "ticks": 46752,
          "time": 64.64596275000001,
          "velocity": 0.25196850393700787
        },
        {
          "duration": 0.1327432500000043,
          "durationTicks": 96,
          "midi": 56,
          "name": "G#3",
          "ticks": 46848,
          "time": 64.778706,
          "velocity": 0.25196850393700787
        },
        {
          "duration": 0.1327432499999901,
          "durationTicks": 96,
          "midi": 56,
          "name": "G#3",
          "ticks": 47040,
          "time": 65.04419250000001,
          "velocity": 0.25196850393700787
        },
        {
          "duration": 0.1327432500000043,
          "durationTicks": 96,
          "midi": 56,
          "name": "G#3",
          "ticks": 47232,
          "time": 65.309679,
          "velocity": 0.25196850393700787
        },
        {
          "duration": 0.1327432499999901,
          "durationTicks": 96,
          "midi": 58,
          "name": "A#3",
          "ticks": 47328,
          "time": 65.44242225,
          "velocity": 0.25196850393700787
        },
        {
          "duration": 0.1327432499999901,
          "durationTicks": 96,
          "midi": 56,
          "name": "G#3",
          "ticks": 47712,
          "time": 65.97339525000001,
          "velocity": 0.25196850393700787
        },
        {
          "duration": 0.1327432499999901,
          "durationTicks": 96,
          "midi": 56,
          "name": "G#3",
          "ticks": 48000,
          "time": 66.37162500000001,
          "velocity": 0.25196850393700787
        },
        {
          "duration": 0.1327432499999901,
          "durationTicks": 96,
          "midi": 53,
          "name": "F3",
          "ticks": 48288,
          "time": 66.76985475000001,
          "velocity": 0.25196850393700787
        },
        {
          "duration": 0.1327432500000043,
          "durationTicks": 96,
          "midi": 56,
          "name": "G#3",
          "ticks": 48384,
          "time": 66.902598,
          "velocity": 0.25196850393700787
        },
        {
          "duration": 0.1327432500000043,
          "durationTicks": 96,
          "midi": 56,
          "name": "G#3",
          "ticks": 48576,
          "time": 67.1680845,
          "velocity": 0.25196850393700787
        },
        {
          "duration": 0.1327432499999901,
          "durationTicks": 96,
          "midi": 51,
          "name": "D#3",
          "ticks": 48960,
          "time": 67.69905750000001,
          "velocity": 0.25196850393700787
        },
        {
          "duration": 0.1327432500000043,
          "durationTicks": 96,
          "midi": 53,
          "name": "F3",
          "ticks": 49056,
          "time": 67.83180075,
          "velocity": 0.25196850393700787
        },
        {
          "duration": 0.1327432499999901,
          "durationTicks": 96,
          "midi": 56,
          "name": "G#3",
          "ticks": 49248,
          "time": 68.09728725000001,
          "velocity": 0.25196850393700787
        },
        {
          "duration": 0.1327432499999901,
          "durationTicks": 96,
          "midi": 56,
          "name": "G#3",
          "ticks": 49536,
          "time": 68.495517,
          "velocity": 0.25196850393700787
        },
        {
          "duration": 0.1327432500000043,
          "durationTicks": 96,
          "midi": 53,
          "name": "F3",
          "ticks": 49824,
          "time": 68.89374675,
          "velocity": 0.25196850393700787
        },
        {
          "duration": 0.1327432499999901,
          "durationTicks": 96,
          "midi": 56,
          "name": "G#3",
          "ticks": 49920,
          "time": 69.02649000000001,
          "velocity": 0.25196850393700787
        },
        {
          "duration": 0.1327432500000043,
          "durationTicks": 96,
          "midi": 56,
          "name": "G#3",
          "ticks": 50112,
          "time": 69.2919765,
          "velocity": 0.25196850393700787
        },
        {
          "duration": 0.1327432500000043,
          "durationTicks": 96,
          "midi": 56,
          "name": "G#3",
          "ticks": 50400,
          "time": 69.69020625,
          "velocity": 0.25196850393700787
        },
        {
          "duration": 0.1327432500000043,
          "durationTicks": 96,
          "midi": 56,
          "name": "G#3",
          "ticks": 50592,
          "time": 69.95569275,
          "velocity": 0.25196850393700787
        },
        {
          "duration": 0.1327432500000043,
          "durationTicks": 96,
          "midi": 56,
          "name": "G#3",
          "ticks": 50784,
          "time": 70.22117925,
          "velocity": 0.25196850393700787
        },
        {
          "duration": 0.1327432500000043,
          "durationTicks": 96,
          "midi": 56,
          "name": "G#3",
          "ticks": 51072,
          "time": 70.619409,
          "velocity": 0.25196850393700787
        },
        {
          "duration": 0.1327432500000043,
          "durationTicks": 96,
          "midi": 53,
          "name": "F3",
          "ticks": 51360,
          "time": 71.01763875,
          "velocity": 0.25196850393700787
        },
        {
          "duration": 0.1327432499999901,
          "durationTicks": 96,
          "midi": 56,
          "name": "G#3",
          "ticks": 51456,
          "time": 71.15038200000001,
          "velocity": 0.25196850393700787
        },
        {
          "duration": 0.1327432500000043,
          "durationTicks": 96,
          "midi": 56,
          "name": "G#3",
          "ticks": 51744,
          "time": 71.54861175,
          "velocity": 0.25196850393700787
        },
        {
          "duration": 0.1327432500000043,
          "durationTicks": 96,
          "midi": 53,
          "name": "F3",
          "ticks": 52032,
          "time": 71.9468415,
          "velocity": 0.25196850393700787
        },
        {
          "duration": 0.1327432499999901,
          "durationTicks": 96,
          "midi": 56,
          "name": "G#3",
          "ticks": 52128,
          "time": 72.07958475000001,
          "velocity": 0.25196850393700787
        },
        {
          "duration": 0.1327432500000043,
          "durationTicks": 96,
          "midi": 56,
          "name": "G#3",
          "ticks": 52320,
          "time": 72.34507125,
          "velocity": 0.25196850393700787
        },
        {
          "duration": 0.1327432500000043,
          "durationTicks": 96,
          "midi": 56,
          "name": "G#3",
          "ticks": 52608,
          "time": 72.743301,
          "velocity": 0.25196850393700787
        },
        {
          "duration": 0.1327432500000043,
          "durationTicks": 96,
          "midi": 53,
          "name": "F3",
          "ticks": 52896,
          "time": 73.14153075,
          "velocity": 0.25196850393700787
        },
        {
          "duration": 0.1327432500000043,
          "durationTicks": 96,
          "midi": 56,
          "name": "G#3",
          "ticks": 52992,
          "time": 73.274274,
          "velocity": 0.25196850393700787
        },
        {
          "duration": 0.1327432500000043,
          "durationTicks": 96,
          "midi": 56,
          "name": "G#3",
          "ticks": 53184,
          "time": 73.5397605,
          "velocity": 0.25196850393700787
        },
        {
          "duration": 0.1327432499999901,
          "durationTicks": 96,
          "midi": 56,
          "name": "G#3",
          "ticks": 53376,
          "time": 73.80524700000001,
          "velocity": 0.25196850393700787
        },
        {
          "duration": 0.1327432500000043,
          "durationTicks": 96,
          "midi": 58,
          "name": "A#3",
          "ticks": 53472,
          "time": 73.93799025,
          "velocity": 0.25196850393700787
        },
        {
          "duration": 0.1327432500000043,
          "durationTicks": 96,
          "midi": 56,
          "name": "G#3",
          "ticks": 53856,
          "time": 74.46896325,
          "velocity": 0.25196850393700787
        },
        {
          "duration": 0.1327432500000043,
          "durationTicks": 96,
          "midi": 56,
          "name": "G#3",
          "ticks": 54144,
          "time": 74.867193,
          "velocity": 0.25196850393700787
        },
        {
          "duration": 0.1327432500000043,
          "durationTicks": 96,
          "midi": 53,
          "name": "F3",
          "ticks": 54432,
          "time": 75.26542275,
          "velocity": 0.25196850393700787
        },
        {
          "duration": 0.1327432500000043,
          "durationTicks": 96,
          "midi": 56,
          "name": "G#3",
          "ticks": 54528,
          "time": 75.398166,
          "velocity": 0.25196850393700787
        },
        {
          "duration": 0.1327432500000043,
          "durationTicks": 96,
          "midi": 56,
          "name": "G#3",
          "ticks": 54720,
          "time": 75.6636525,
          "velocity": 0.25196850393700787
        },
        {
          "duration": 0.1327432500000043,
          "durationTicks": 96,
          "midi": 51,
          "name": "D#3",
          "ticks": 55104,
          "time": 76.1946255,
          "velocity": 0.25196850393700787
        },
        {
          "duration": 0.1327432500000043,
          "durationTicks": 96,
          "midi": 53,
          "name": "F3",
          "ticks": 55200,
          "time": 76.32736875,
          "velocity": 0.25196850393700787
        },
        {
          "duration": 0.1327432500000043,
          "durationTicks": 96,
          "midi": 56,
          "name": "G#3",
          "ticks": 55392,
          "time": 76.59285525,
          "velocity": 0.25196850393700787
        },
        {
          "duration": 0.1327432500000043,
          "durationTicks": 96,
          "midi": 56,
          "name": "G#3",
          "ticks": 55680,
          "time": 76.991085,
          "velocity": 0.25196850393700787
        },
        {
          "duration": 0.1327432499999901,
          "durationTicks": 96,
          "midi": 53,
          "name": "F3",
          "ticks": 55968,
          "time": 77.38931475000001,
          "velocity": 0.25196850393700787
        },
        {
          "duration": 0.1327432500000043,
          "durationTicks": 96,
          "midi": 56,
          "name": "G#3",
          "ticks": 56064,
          "time": 77.522058,
          "velocity": 0.25196850393700787
        },
        {
          "duration": 0.1327432499999901,
          "durationTicks": 96,
          "midi": 56,
          "name": "G#3",
          "ticks": 56256,
          "time": 77.78754450000001,
          "velocity": 0.25196850393700787
        },
        {
          "duration": 0.1327432499999901,
          "durationTicks": 96,
          "midi": 56,
          "name": "G#3",
          "ticks": 56544,
          "time": 78.18577425000001,
          "velocity": 0.25196850393700787
        },
        {
          "duration": 0.1327432500000043,
          "durationTicks": 96,
          "midi": 56,
          "name": "G#3",
          "ticks": 56736,
          "time": 78.45126075,
          "velocity": 0.25196850393700787
        },
        {
          "duration": 0.1327432500000043,
          "durationTicks": 96,
          "midi": 56,
          "name": "G#3",
          "ticks": 56928,
          "time": 78.71674725,
          "velocity": 0.25196850393700787
        },
        {
          "duration": 0.1327432499999901,
          "durationTicks": 96,
          "midi": 56,
          "name": "G#3",
          "ticks": 57216,
          "time": 79.11497700000001,
          "velocity": 0.25196850393700787
        },
        {
          "duration": 0.1327432499999901,
          "durationTicks": 96,
          "midi": 53,
          "name": "F3",
          "ticks": 57504,
          "time": 79.51320675000001,
          "velocity": 0.25196850393700787
        },
        {
          "duration": 0.1327432500000043,
          "durationTicks": 96,
          "midi": 56,
          "name": "G#3",
          "ticks": 57600,
          "time": 79.64595,
          "velocity": 0.25196850393700787
        },
        {
          "duration": 0.1327432500000043,
          "durationTicks": 96,
          "midi": 56,
          "name": "G#3",
          "ticks": 57888,
          "time": 80.04417975,
          "velocity": 0.25196850393700787
        },
        {
          "duration": 0.1327432499999901,
          "durationTicks": 96,
          "midi": 53,
          "name": "F3",
          "ticks": 58176,
          "time": 80.44240950000001,
          "velocity": 0.25196850393700787
        },
        {
          "duration": 0.1327432500000043,
          "durationTicks": 96,
          "midi": 56,
          "name": "G#3",
          "ticks": 58272,
          "time": 80.57515275,
          "velocity": 0.25196850393700787
        },
        {
          "duration": 0.1327432499999901,
          "durationTicks": 96,
          "midi": 56,
          "name": "G#3",
          "ticks": 58464,
          "time": 80.84063925000001,
          "velocity": 0.25196850393700787
        },
        {
          "duration": 0.1327432499999901,
          "durationTicks": 96,
          "midi": 56,
          "name": "G#3",
          "ticks": 58752,
          "time": 81.23886900000001,
          "velocity": 0.25196850393700787
        },
        {
          "duration": 0.1327432500000043,
          "durationTicks": 96,
          "midi": 53,
          "name": "F3",
          "ticks": 59040,
          "time": 81.63709875,
          "velocity": 0.25196850393700787
        },
        {
          "duration": 0.1327432499999901,
          "durationTicks": 96,
          "midi": 56,
          "name": "G#3",
          "ticks": 59136,
          "time": 81.76984200000001,
          "velocity": 0.25196850393700787
        },
        {
          "duration": 0.1327432500000043,
          "durationTicks": 96,
          "midi": 56,
          "name": "G#3",
          "ticks": 59328,
          "time": 82.0353285,
          "velocity": 0.25196850393700787
        },
        {
          "duration": 0.1327432500000043,
          "durationTicks": 96,
          "midi": 56,
          "name": "G#3",
          "ticks": 59520,
          "time": 82.300815,
          "velocity": 0.25196850393700787
        },
        {
          "duration": 0.1327432500000043,
          "durationTicks": 96,
          "midi": 58,
          "name": "A#3",
          "ticks": 59616,
          "time": 82.43355825,
          "velocity": 0.25196850393700787
        },
        {
          "duration": 0.1327432499999901,
          "durationTicks": 96,
          "midi": 56,
          "name": "G#3",
          "ticks": 60000,
          "time": 82.96453125000001,
          "velocity": 0.25196850393700787
        },
        {
          "duration": 0.1327432500000043,
          "durationTicks": 96,
          "midi": 56,
          "name": "G#3",
          "ticks": 60288,
          "time": 83.362761,
          "velocity": 0.25196850393700787
        },
        {
          "duration": 0.1327432500000043,
          "durationTicks": 96,
          "midi": 53,
          "name": "F3",
          "ticks": 60576,
          "time": 83.76099075,
          "velocity": 0.25196850393700787
        },
        {
          "duration": 0.1327432499999901,
          "durationTicks": 96,
          "midi": 56,
          "name": "G#3",
          "ticks": 60672,
          "time": 83.89373400000001,
          "velocity": 0.25196850393700787
        },
        {
          "duration": 0.1327432500000043,
          "durationTicks": 96,
          "midi": 56,
          "name": "G#3",
          "ticks": 60864,
          "time": 84.1592205,
          "velocity": 0.25196850393700787
        },
        {
          "duration": 0.1327432500000043,
          "durationTicks": 96,
          "midi": 51,
          "name": "D#3",
          "ticks": 61248,
          "time": 84.6901935,
          "velocity": 0.25196850393700787
        },
        {
          "duration": 0.1327432499999901,
          "durationTicks": 96,
          "midi": 53,
          "name": "F3",
          "ticks": 61344,
          "time": 84.82293675000001,
          "velocity": 0.25196850393700787
        },
        {
          "duration": 0.1327432500000043,
          "durationTicks": 96,
          "midi": 56,
          "name": "G#3",
          "ticks": 61536,
          "time": 85.08842325,
          "velocity": 0.25196850393700787
        },
        {
          "duration": 0.1327432500000043,
          "durationTicks": 96,
          "midi": 56,
          "name": "G#3",
          "ticks": 61824,
          "time": 85.486653,
          "velocity": 0.25196850393700787
        },
        {
          "duration": 0.1327432500000043,
          "durationTicks": 96,
          "midi": 53,
          "name": "F3",
          "ticks": 62112,
          "time": 85.88488275,
          "velocity": 0.25196850393700787
        },
        {
          "duration": 0.1327432500000043,
          "durationTicks": 96,
          "midi": 56,
          "name": "G#3",
          "ticks": 62208,
          "time": 86.017626,
          "velocity": 0.25196850393700787
        },
        {
          "duration": 0.1327432500000043,
          "durationTicks": 96,
          "midi": 56,
          "name": "G#3",
          "ticks": 62400,
          "time": 86.2831125,
          "velocity": 0.25196850393700787
        },
        {
          "duration": 0.1327432500000043,
          "durationTicks": 96,
          "midi": 56,
          "name": "G#3",
          "ticks": 62688,
          "time": 86.68134225,
          "velocity": 0.25196850393700787
        },
        {
          "duration": 0.1327432499999901,
          "durationTicks": 96,
          "midi": 56,
          "name": "G#3",
          "ticks": 62880,
          "time": 86.94682875000001,
          "velocity": 0.25196850393700787
        },
        {
          "duration": 0.1327432500000043,
          "durationTicks": 96,
          "midi": 56,
          "name": "G#3",
          "ticks": 63072,
          "time": 87.21231525,
          "velocity": 0.25196850393700787
        },
        {
          "duration": 0.1327432500000043,
          "durationTicks": 96,
          "midi": 56,
          "name": "G#3",
          "ticks": 63360,
          "time": 87.610545,
          "velocity": 0.25196850393700787
        },
        {
          "duration": 0.1327432500000043,
          "durationTicks": 96,
          "midi": 53,
          "name": "F3",
          "ticks": 63648,
          "time": 88.00877475,
          "velocity": 0.25196850393700787
        },
        {
          "duration": 0.1327432500000043,
          "durationTicks": 96,
          "midi": 56,
          "name": "G#3",
          "ticks": 63744,
          "time": 88.141518,
          "velocity": 0.25196850393700787
        },
        {
          "duration": 0.1327432500000043,
          "durationTicks": 96,
          "midi": 56,
          "name": "G#3",
          "ticks": 64032,
          "time": 88.53974775,
          "velocity": 0.25196850393700787
        },
        {
          "duration": 0.1327432500000043,
          "durationTicks": 96,
          "midi": 53,
          "name": "F3",
          "ticks": 64320,
          "time": 88.9379775,
          "velocity": 0.25196850393700787
        },
        {
          "duration": 0.1327432500000043,
          "durationTicks": 96,
          "midi": 56,
          "name": "G#3",
          "ticks": 64416,
          "time": 89.07072075,
          "velocity": 0.25196850393700787
        },
        {
          "duration": 0.1327432500000043,
          "durationTicks": 96,
          "midi": 56,
          "name": "G#3",
          "ticks": 64608,
          "time": 89.33620725,
          "velocity": 0.25196850393700787
        },
        {
          "duration": 0.1327432500000043,
          "durationTicks": 96,
          "midi": 56,
          "name": "G#3",
          "ticks": 64896,
          "time": 89.734437,
          "velocity": 0.25196850393700787
        },
        {
          "duration": 0.1327432500000043,
          "durationTicks": 96,
          "midi": 53,
          "name": "F3",
          "ticks": 65184,
          "time": 90.13266675,
          "velocity": 0.25196850393700787
        },
        {
          "duration": 0.1327432500000043,
          "durationTicks": 96,
          "midi": 56,
          "name": "G#3",
          "ticks": 65280,
          "time": 90.26541,
          "velocity": 0.25196850393700787
        },
        {
          "duration": 0.1327432499999901,
          "durationTicks": 96,
          "midi": 56,
          "name": "G#3",
          "ticks": 65472,
          "time": 90.53089650000001,
          "velocity": 0.25196850393700787
        },
        {
          "duration": 0.1327432500000043,
          "durationTicks": 96,
          "midi": 56,
          "name": "G#3",
          "ticks": 65664,
          "time": 90.796383,
          "velocity": 0.25196850393700787
        },
        {
          "duration": 0.1327432499999901,
          "durationTicks": 96,
          "midi": 58,
          "name": "A#3",
          "ticks": 65760,
          "time": 90.92912625000001,
          "velocity": 0.25196850393700787
        },
        {
          "duration": 0.1327432500000043,
          "durationTicks": 96,
          "midi": 56,
          "name": "G#3",
          "ticks": 66144,
          "time": 91.46009925,
          "velocity": 0.25196850393700787
        },
        {
          "duration": 0.1327432499999901,
          "durationTicks": 96,
          "midi": 56,
          "name": "G#3",
          "ticks": 66432,
          "time": 91.85832900000001,
          "velocity": 0.25196850393700787
        },
        {
          "duration": 0.1327432499999901,
          "durationTicks": 96,
          "midi": 53,
          "name": "F3",
          "ticks": 66720,
          "time": 92.25655875000001,
          "velocity": 0.25196850393700787
        },
        {
          "duration": 0.1327432500000043,
          "durationTicks": 96,
          "midi": 56,
          "name": "G#3",
          "ticks": 66816,
          "time": 92.389302,
          "velocity": 0.25196850393700787
        },
        {
          "duration": 0.1327432499999901,
          "durationTicks": 96,
          "midi": 56,
          "name": "G#3",
          "ticks": 67008,
          "time": 92.65478850000001,
          "velocity": 0.25196850393700787
        },
        {
          "duration": 0.1327432500000043,
          "durationTicks": 96,
          "midi": 51,
          "name": "D#3",
          "ticks": 67392,
          "time": 93.1857615,
          "velocity": 0.25196850393700787
        },
        {
          "duration": 0.1327432500000043,
          "durationTicks": 96,
          "midi": 53,
          "name": "F3",
          "ticks": 67488,
          "time": 93.31850475,
          "velocity": 0.25196850393700787
        },
        {
          "duration": 0.1327432499999901,
          "durationTicks": 96,
          "midi": 56,
          "name": "G#3",
          "ticks": 67680,
          "time": 93.58399125000001,
          "velocity": 0.25196850393700787
        },
        {
          "duration": 0.1327432499999901,
          "durationTicks": 96,
          "midi": 56,
          "name": "G#3",
          "ticks": 67968,
          "time": 93.98222100000001,
          "velocity": 0.25196850393700787
        },
        {
          "duration": 0.1327432499999901,
          "durationTicks": 96,
          "midi": 53,
          "name": "F3",
          "ticks": 68256,
          "time": 94.38045075000001,
          "velocity": 0.25196850393700787
        },
        {
          "duration": 0.1327432500000043,
          "durationTicks": 96,
          "midi": 56,
          "name": "G#3",
          "ticks": 68352,
          "time": 94.513194,
          "velocity": 0.25196850393700787
        },
        {
          "duration": 0.1327432500000043,
          "durationTicks": 96,
          "midi": 56,
          "name": "G#3",
          "ticks": 68544,
          "time": 94.77868050000001,
          "velocity": 0.25196850393700787
        },
        {
          "duration": 0.1327432500000043,
          "durationTicks": 96,
          "midi": 56,
          "name": "G#3",
          "ticks": 68832,
          "time": 95.17691025,
          "velocity": 0.25196850393700787
        },
        {
          "duration": 0.1327432500000043,
          "durationTicks": 96,
          "midi": 56,
          "name": "G#3",
          "ticks": 69024,
          "time": 95.44239675,
          "velocity": 0.25196850393700787
        },
        {
          "duration": 0.1327432499999901,
          "durationTicks": 96,
          "midi": 56,
          "name": "G#3",
          "ticks": 69216,
          "time": 95.70788325000001,
          "velocity": 0.25196850393700787
        },
        {
          "duration": 0.1327432500000043,
          "durationTicks": 96,
          "midi": 56,
          "name": "G#3",
          "ticks": 69504,
          "time": 96.10611300000001,
          "velocity": 0.25196850393700787
        },
        {
          "duration": 0.1327432500000043,
          "durationTicks": 96,
          "midi": 53,
          "name": "F3",
          "ticks": 69792,
          "time": 96.50434275,
          "velocity": 0.25196850393700787
        },
        {
          "duration": 0.1327432499999901,
          "durationTicks": 96,
          "midi": 56,
          "name": "G#3",
          "ticks": 69888,
          "time": 96.63708600000001,
          "velocity": 0.25196850393700787
        },
        {
          "duration": 0.1327432499999901,
          "durationTicks": 96,
          "midi": 56,
          "name": "G#3",
          "ticks": 70176,
          "time": 97.03531575000001,
          "velocity": 0.25196850393700787
        },
        {
          "duration": 0.1327432499999901,
          "durationTicks": 96,
          "midi": 53,
          "name": "F3",
          "ticks": 70464,
          "time": 97.43354550000001,
          "velocity": 0.25196850393700787
        },
        {
          "duration": 0.1327432500000043,
          "durationTicks": 96,
          "midi": 56,
          "name": "G#3",
          "ticks": 70560,
          "time": 97.56628875,
          "velocity": 0.25196850393700787
        },
        {
          "duration": 0.1327432500000043,
          "durationTicks": 96,
          "midi": 56,
          "name": "G#3",
          "ticks": 70752,
          "time": 97.83177525,
          "velocity": 0.25196850393700787
        },
        {
          "duration": 0.1327432500000043,
          "durationTicks": 96,
          "midi": 56,
          "name": "G#3",
          "ticks": 71040,
          "time": 98.230005,
          "velocity": 0.25196850393700787
        },
        {
          "duration": 0.1327432500000043,
          "durationTicks": 96,
          "midi": 53,
          "name": "F3",
          "ticks": 71328,
          "time": 98.62823475,
          "velocity": 0.25196850393700787
        },
        {
          "duration": 0.1327432499999901,
          "durationTicks": 96,
          "midi": 56,
          "name": "G#3",
          "ticks": 71424,
          "time": 98.76097800000001,
          "velocity": 0.25196850393700787
        },
        {
          "duration": 0.1327432500000043,
          "durationTicks": 96,
          "midi": 56,
          "name": "G#3",
          "ticks": 71616,
          "time": 99.0264645,
          "velocity": 0.25196850393700787
        },
        {
          "duration": 0.1327432499999901,
          "durationTicks": 96,
          "midi": 56,
          "name": "G#3",
          "ticks": 71808,
          "time": 99.29195100000001,
          "velocity": 0.25196850393700787
        },
        {
          "duration": 0.1327432500000043,
          "durationTicks": 96,
          "midi": 58,
          "name": "A#3",
          "ticks": 71904,
          "time": 99.42469425,
          "velocity": 0.25196850393700787
        },
        {
          "duration": 0.1327432500000043,
          "durationTicks": 96,
          "midi": 56,
          "name": "G#3",
          "ticks": 72288,
          "time": 99.95566725,
          "velocity": 0.25196850393700787
        },
        {
          "duration": 0.1327432500000043,
          "durationTicks": 96,
          "midi": 56,
          "name": "G#3",
          "ticks": 72576,
          "time": 100.353897,
          "velocity": 0.25196850393700787
        },
        {
          "duration": 0.1327432500000043,
          "durationTicks": 96,
          "midi": 53,
          "name": "F3",
          "ticks": 72864,
          "time": 100.75212675,
          "velocity": 0.25196850393700787
        },
        {
          "duration": 0.1327432500000043,
          "durationTicks": 96,
          "midi": 56,
          "name": "G#3",
          "ticks": 72960,
          "time": 100.88487,
          "velocity": 0.25196850393700787
        },
        {
          "duration": 0.1327432500000043,
          "durationTicks": 96,
          "midi": 56,
          "name": "G#3",
          "ticks": 73152,
          "time": 101.1503565,
          "velocity": 0.25196850393700787
        },
        {
          "duration": 0.1327432500000043,
          "durationTicks": 96,
          "midi": 51,
          "name": "D#3",
          "ticks": 73536,
          "time": 101.6813295,
          "velocity": 0.25196850393700787
        },
        {
          "duration": 0.1327432500000043,
          "durationTicks": 96,
          "midi": 53,
          "name": "F3",
          "ticks": 73632,
          "time": 101.81407275000001,
          "velocity": 0.25196850393700787
        },
        {
          "duration": 0.1327432500000043,
          "durationTicks": 96,
          "midi": 56,
          "name": "G#3",
          "ticks": 73824,
          "time": 102.07955925,
          "velocity": 0.25196850393700787
        },
        {
          "duration": 0.1327432500000043,
          "durationTicks": 96,
          "midi": 56,
          "name": "G#3",
          "ticks": 74112,
          "time": 102.477789,
          "velocity": 0.25196850393700787
        },
        {
          "duration": 0.1327432500000043,
          "durationTicks": 96,
          "midi": 53,
          "name": "F3",
          "ticks": 74400,
          "time": 102.87601875,
          "velocity": 0.25196850393700787
        },
        {
          "duration": 0.1327432500000043,
          "durationTicks": 96,
          "midi": 56,
          "name": "G#3",
          "ticks": 74496,
          "time": 103.008762,
          "velocity": 0.25196850393700787
        },
        {
          "duration": 0.1327432500000043,
          "durationTicks": 96,
          "midi": 56,
          "name": "G#3",
          "ticks": 74688,
          "time": 103.2742485,
          "velocity": 0.25196850393700787
        },
        {
          "duration": 0.1327432499999901,
          "durationTicks": 96,
          "midi": 56,
          "name": "G#3",
          "ticks": 74976,
          "time": 103.67247825000001,
          "velocity": 0.25196850393700787
        },
        {
          "duration": 0.1327432500000043,
          "durationTicks": 96,
          "midi": 56,
          "name": "G#3",
          "ticks": 75168,
          "time": 103.93796475,
          "velocity": 0.25196850393700787
        },
        {
          "duration": 0.1327432500000043,
          "durationTicks": 96,
          "midi": 56,
          "name": "G#3",
          "ticks": 75360,
          "time": 104.20345125,
          "velocity": 0.25196850393700787
        },
        {
          "duration": 0.1327432500000043,
          "durationTicks": 96,
          "midi": 56,
          "name": "G#3",
          "ticks": 75648,
          "time": 104.601681,
          "velocity": 0.25196850393700787
        },
        {
          "duration": 0.1327432499999901,
          "durationTicks": 96,
          "midi": 53,
          "name": "F3",
          "ticks": 75936,
          "time": 104.99991075000001,
          "velocity": 0.25196850393700787
        },
        {
          "duration": 0.1327432500000043,
          "durationTicks": 96,
          "midi": 56,
          "name": "G#3",
          "ticks": 76032,
          "time": 105.132654,
          "velocity": 0.25196850393700787
        },
        {
          "duration": 0.1327432500000043,
          "durationTicks": 96,
          "midi": 56,
          "name": "G#3",
          "ticks": 76320,
          "time": 105.53088375,
          "velocity": 0.25196850393700787
        },
        {
          "duration": 0.1327432500000043,
          "durationTicks": 96,
          "midi": 53,
          "name": "F3",
          "ticks": 76608,
          "time": 105.9291135,
          "velocity": 0.25196850393700787
        },
        {
          "duration": 0.1327432500000043,
          "durationTicks": 96,
          "midi": 56,
          "name": "G#3",
          "ticks": 76704,
          "time": 106.06185675,
          "velocity": 0.25196850393700787
        },
        {
          "duration": 0.1327432499999901,
          "durationTicks": 96,
          "midi": 56,
          "name": "G#3",
          "ticks": 76896,
          "time": 106.32734325000001,
          "velocity": 0.25196850393700787
        },
        {
          "duration": 0.1327432499999901,
          "durationTicks": 96,
          "midi": 56,
          "name": "G#3",
          "ticks": 77184,
          "time": 106.72557300000001,
          "velocity": 0.25196850393700787
        },
        {
          "duration": 0.1327432499999901,
          "durationTicks": 96,
          "midi": 53,
          "name": "F3",
          "ticks": 77472,
          "time": 107.12380275000001,
          "velocity": 0.25196850393700787
        },
        {
          "duration": 0.1327432500000043,
          "durationTicks": 96,
          "midi": 56,
          "name": "G#3",
          "ticks": 77568,
          "time": 107.256546,
          "velocity": 0.25196850393700787
        },
        {
          "duration": 0.1327432499999901,
          "durationTicks": 96,
          "midi": 56,
          "name": "G#3",
          "ticks": 77760,
          "time": 107.52203250000001,
          "velocity": 0.25196850393700787
        },
        {
          "duration": 0.1327432500000043,
          "durationTicks": 96,
          "midi": 56,
          "name": "G#3",
          "ticks": 77952,
          "time": 107.787519,
          "velocity": 0.25196850393700787
        },
        {
          "duration": 0.1327432500000043,
          "durationTicks": 96,
          "midi": 58,
          "name": "A#3",
          "ticks": 78048,
          "time": 107.92026225000001,
          "velocity": 0.25196850393700787
        },
        {
          "duration": 0.1327432499999901,
          "durationTicks": 96,
          "midi": 56,
          "name": "G#3",
          "ticks": 78432,
          "time": 108.45123525000001,
          "velocity": 0.25196850393700787
        },
        {
          "duration": 0.1327432499999901,
          "durationTicks": 96,
          "midi": 56,
          "name": "G#3",
          "ticks": 78720,
          "time": 108.84946500000001,
          "velocity": 0.25196850393700787
        },
        {
          "duration": 0.1327432500000043,
          "durationTicks": 96,
          "midi": 53,
          "name": "F3",
          "ticks": 79008,
          "time": 109.24769475000001,
          "velocity": 0.25196850393700787
        },
        {
          "duration": 0.1327432499999901,
          "durationTicks": 96,
          "midi": 56,
          "name": "G#3",
          "ticks": 79104,
          "time": 109.38043800000001,
          "velocity": 0.25196850393700787
        },
        {
          "duration": 0.1327432500000043,
          "durationTicks": 96,
          "midi": 56,
          "name": "G#3",
          "ticks": 79296,
          "time": 109.6459245,
          "velocity": 0.25196850393700787
        },
        {
          "duration": 0.1327432499999901,
          "durationTicks": 96,
          "midi": 51,
          "name": "D#3",
          "ticks": 79680,
          "time": 110.17689750000001,
          "velocity": 0.25196850393700787
        },
        {
          "duration": 0.1327432500000043,
          "durationTicks": 96,
          "midi": 53,
          "name": "F3",
          "ticks": 79776,
          "time": 110.30964075,
          "velocity": 0.25196850393700787
        },
        {
          "duration": 0.1327432500000043,
          "durationTicks": 96,
          "midi": 56,
          "name": "G#3",
          "ticks": 79968,
          "time": 110.57512725000001,
          "velocity": 0.25196850393700787
        },
        {
          "duration": 0.1327432500000043,
          "durationTicks": 96,
          "midi": 56,
          "name": "G#3",
          "ticks": 80256,
          "time": 110.97335700000001,
          "velocity": 0.25196850393700787
        },
        {
          "duration": 0.1327432500000043,
          "durationTicks": 96,
          "midi": 53,
          "name": "F3",
          "ticks": 80544,
          "time": 111.37158675,
          "velocity": 0.25196850393700787
        },
        {
          "duration": 0.1327432499999901,
          "durationTicks": 96,
          "midi": 56,
          "name": "G#3",
          "ticks": 80640,
          "time": 111.50433000000001,
          "velocity": 0.25196850393700787
        },
        {
          "duration": 0.1327432500000043,
          "durationTicks": 96,
          "midi": 56,
          "name": "G#3",
          "ticks": 80832,
          "time": 111.7698165,
          "velocity": 0.25196850393700787
        },
        {
          "duration": 0.1327432500000043,
          "durationTicks": 96,
          "midi": 56,
          "name": "G#3",
          "ticks": 81120,
          "time": 112.16804625,
          "velocity": 0.25196850393700787
        },
        {
          "duration": 0.1327432499999901,
          "durationTicks": 96,
          "midi": 56,
          "name": "G#3",
          "ticks": 81312,
          "time": 112.43353275000001,
          "velocity": 0.25196850393700787
        },
        {
          "duration": 0.1327432500000043,
          "durationTicks": 96,
          "midi": 56,
          "name": "G#3",
          "ticks": 81504,
          "time": 112.69901925,
          "velocity": 0.25196850393700787
        },
        {
          "duration": 0.1327432500000043,
          "durationTicks": 96,
          "midi": 56,
          "name": "G#3",
          "ticks": 81792,
          "time": 113.097249,
          "velocity": 0.25196850393700787
        },
        {
          "duration": 0.1327432500000043,
          "durationTicks": 96,
          "midi": 53,
          "name": "F3",
          "ticks": 82080,
          "time": 113.49547875,
          "velocity": 0.25196850393700787
        },
        {
          "duration": 0.1327432500000043,
          "durationTicks": 96,
          "midi": 56,
          "name": "G#3",
          "ticks": 82176,
          "time": 113.62822200000001,
          "velocity": 0.25196850393700787
        },
        {
          "duration": 0.1327432500000043,
          "durationTicks": 96,
          "midi": 56,
          "name": "G#3",
          "ticks": 82464,
          "time": 114.02645175,
          "velocity": 0.25196850393700787
        },
        {
          "duration": 0.1327432500000043,
          "durationTicks": 96,
          "midi": 53,
          "name": "F3",
          "ticks": 82752,
          "time": 114.4246815,
          "velocity": 0.25196850393700787
        },
        {
          "duration": 0.1327432499999901,
          "durationTicks": 96,
          "midi": 56,
          "name": "G#3",
          "ticks": 82848,
          "time": 114.55742475000001,
          "velocity": 0.25196850393700787
        },
        {
          "duration": 0.1327432500000043,
          "durationTicks": 96,
          "midi": 56,
          "name": "G#3",
          "ticks": 83040,
          "time": 114.82291125,
          "velocity": 0.25196850393700787
        },
        {
          "duration": 0.1327432500000043,
          "durationTicks": 96,
          "midi": 56,
          "name": "G#3",
          "ticks": 83328,
          "time": 115.221141,
          "velocity": 0.25196850393700787
        },
        {
          "duration": 0.1327432500000043,
          "durationTicks": 96,
          "midi": 53,
          "name": "F3",
          "ticks": 83616,
          "time": 115.61937075,
          "velocity": 0.25196850393700787
        },
        {
          "duration": 0.1327432500000043,
          "durationTicks": 96,
          "midi": 56,
          "name": "G#3",
          "ticks": 83712,
          "time": 115.752114,
          "velocity": 0.25196850393700787
        },
        {
          "duration": 0.1327432500000043,
          "durationTicks": 96,
          "midi": 56,
          "name": "G#3",
          "ticks": 83904,
          "time": 116.0176005,
          "velocity": 0.25196850393700787
        },
        {
          "duration": 0.1327432500000043,
          "durationTicks": 96,
          "midi": 56,
          "name": "G#3",
          "ticks": 84096,
          "time": 116.28308700000001,
          "velocity": 0.25196850393700787
        },
        {
          "duration": 0.1327432499999901,
          "durationTicks": 96,
          "midi": 58,
          "name": "A#3",
          "ticks": 84192,
          "time": 116.41583025000001,
          "velocity": 0.25196850393700787
        },
        {
          "duration": 0.1327432500000043,
          "durationTicks": 96,
          "midi": 56,
          "name": "G#3",
          "ticks": 84576,
          "time": 116.94680325,
          "velocity": 0.25196850393700787
        },
        {
          "duration": 0.1327432500000043,
          "durationTicks": 96,
          "midi": 56,
          "name": "G#3",
          "ticks": 84864,
          "time": 117.345033,
          "velocity": 0.25196850393700787
        },
        {
          "duration": 0.1327432500000043,
          "durationTicks": 96,
          "midi": 53,
          "name": "F3",
          "ticks": 85152,
          "time": 117.74326275,
          "velocity": 0.25196850393700787
        },
        {
          "duration": 0.1327432500000043,
          "durationTicks": 96,
          "midi": 56,
          "name": "G#3",
          "ticks": 85248,
          "time": 117.876006,
          "velocity": 0.25196850393700787
        },
        {
          "duration": 0.1327432499999901,
          "durationTicks": 96,
          "midi": 56,
          "name": "G#3",
          "ticks": 85440,
          "time": 118.14149250000001,
          "velocity": 0.25196850393700787
        },
        {
          "duration": 0.1327432500000043,
          "durationTicks": 96,
          "midi": 51,
          "name": "D#3",
          "ticks": 85824,
          "time": 118.6724655,
          "velocity": 0.25196850393700787
        },
        {
          "duration": 0.1327432500000043,
          "durationTicks": 96,
          "midi": 53,
          "name": "F3",
          "ticks": 85920,
          "time": 118.80520875,
          "velocity": 0.25196850393700787
        },
        {
          "duration": 0.1327432500000043,
          "durationTicks": 96,
          "midi": 56,
          "name": "G#3",
          "ticks": 86112,
          "time": 119.07069525,
          "velocity": 0.25196850393700787
        },
        {
          "duration": 0.1327432499999901,
          "durationTicks": 96,
          "midi": 56,
          "name": "G#3",
          "ticks": 86400,
          "time": 119.46892500000001,
          "velocity": 0.25196850393700787
        },
        {
          "duration": 0.1327432499999901,
          "durationTicks": 96,
          "midi": 53,
          "name": "F3",
          "ticks": 86688,
          "time": 119.86715475000001,
          "velocity": 0.25196850393700787
        },
        {
          "duration": 0.1327432500000043,
          "durationTicks": 96,
          "midi": 56,
          "name": "G#3",
          "ticks": 86784,
          "time": 119.999898,
          "velocity": 0.25196850393700787
        },
        {
          "duration": 0.1327432499999901,
          "durationTicks": 96,
          "midi": 56,
          "name": "G#3",
          "ticks": 86976,
          "time": 120.26538450000001,
          "velocity": 0.25196850393700787
        },
        {
          "duration": 0.1327432500000043,
          "durationTicks": 96,
          "midi": 56,
          "name": "G#3",
          "ticks": 87264,
          "time": 120.66361425000001,
          "velocity": 0.25196850393700787
        },
        {
          "duration": 0.1327432500000043,
          "durationTicks": 96,
          "midi": 56,
          "name": "G#3",
          "ticks": 87456,
          "time": 120.92910075,
          "velocity": 0.25196850393700787
        },
        {
          "duration": 0.1327432499999901,
          "durationTicks": 96,
          "midi": 56,
          "name": "G#3",
          "ticks": 87648,
          "time": 121.19458725000001,
          "velocity": 0.25196850393700787
        },
        {
          "duration": 0.1327432499999901,
          "durationTicks": 96,
          "midi": 56,
          "name": "G#3",
          "ticks": 87936,
          "time": 121.59281700000001,
          "velocity": 0.25196850393700787
        },
        {
          "duration": 0.1327432499999901,
          "durationTicks": 96,
          "midi": 53,
          "name": "F3",
          "ticks": 88224,
          "time": 121.99104675000001,
          "velocity": 0.25196850393700787
        },
        {
          "duration": 0.1327432500000043,
          "durationTicks": 96,
          "midi": 56,
          "name": "G#3",
          "ticks": 88320,
          "time": 122.12379,
          "velocity": 0.25196850393700787
        },
        {
          "duration": 0.1327432499999901,
          "durationTicks": 96,
          "midi": 56,
          "name": "G#3",
          "ticks": 88608,
          "time": 122.52201975000001,
          "velocity": 0.25196850393700787
        },
        {
          "duration": 0.1327432499999901,
          "durationTicks": 96,
          "midi": 53,
          "name": "F3",
          "ticks": 88896,
          "time": 122.92024950000001,
          "velocity": 0.25196850393700787
        },
        {
          "duration": 0.1327432500000043,
          "durationTicks": 96,
          "midi": 56,
          "name": "G#3",
          "ticks": 88992,
          "time": 123.05299275,
          "velocity": 0.25196850393700787
        },
        {
          "duration": 0.1327432499999901,
          "durationTicks": 96,
          "midi": 56,
          "name": "G#3",
          "ticks": 89184,
          "time": 123.31847925000001,
          "velocity": 0.25196850393700787
        },
        {
          "duration": 0.1327432500000043,
          "durationTicks": 96,
          "midi": 56,
          "name": "G#3",
          "ticks": 89472,
          "time": 123.71670900000001,
          "velocity": 0.25196850393700787
        },
        {
          "duration": 0.1327432500000043,
          "durationTicks": 96,
          "midi": 53,
          "name": "F3",
          "ticks": 89760,
          "time": 124.11493875000001,
          "velocity": 0.25196850393700787
        },
        {
          "duration": 0.1327432499999901,
          "durationTicks": 96,
          "midi": 56,
          "name": "G#3",
          "ticks": 89856,
          "time": 124.24768200000001,
          "velocity": 0.25196850393700787
        },
        {
          "duration": 0.1327432500000043,
          "durationTicks": 96,
          "midi": 56,
          "name": "G#3",
          "ticks": 90048,
          "time": 124.5131685,
          "velocity": 0.25196850393700787
        },
        {
          "duration": 0.1327432500000043,
          "durationTicks": 96,
          "midi": 56,
          "name": "G#3",
          "ticks": 90240,
          "time": 124.778655,
          "velocity": 0.25196850393700787
        },
        {
          "duration": 0.1327432500000043,
          "durationTicks": 96,
          "midi": 58,
          "name": "A#3",
          "ticks": 90336,
          "time": 124.91139825,
          "velocity": 0.25196850393700787
        },
        {
          "duration": 0.1327432500000043,
          "durationTicks": 96,
          "midi": 56,
          "name": "G#3",
          "ticks": 90720,
          "time": 125.44237125000001,
          "velocity": 0.25196850393700787
        },
        {
          "duration": 0.1327432500000043,
          "durationTicks": 96,
          "midi": 56,
          "name": "G#3",
          "ticks": 91008,
          "time": 125.840601,
          "velocity": 0.25196850393700787
        },
        {
          "duration": 0.1327432500000043,
          "durationTicks": 96,
          "midi": 53,
          "name": "F3",
          "ticks": 91296,
          "time": 126.23883075,
          "velocity": 0.25196850393700787
        },
        {
          "duration": 0.1327432499999901,
          "durationTicks": 96,
          "midi": 56,
          "name": "G#3",
          "ticks": 91392,
          "time": 126.37157400000001,
          "velocity": 0.25196850393700787
        },
        {
          "duration": 0.1327432500000043,
          "durationTicks": 96,
          "midi": 56,
          "name": "G#3",
          "ticks": 91584,
          "time": 126.6370605,
          "velocity": 0.25196850393700787
        },
        {
          "duration": 0.1327432500000043,
          "durationTicks": 96,
          "midi": 51,
          "name": "D#3",
          "ticks": 91968,
          "time": 127.1680335,
          "velocity": 0.25196850393700787
        },
        {
          "duration": 0.1327432499999901,
          "durationTicks": 96,
          "midi": 53,
          "name": "F3",
          "ticks": 92064,
          "time": 127.30077675000001,
          "velocity": 0.25196850393700787
        },
        {
          "duration": 0.1327432500000043,
          "durationTicks": 96,
          "midi": 56,
          "name": "G#3",
          "ticks": 92256,
          "time": 127.56626325,
          "velocity": 0.25196850393700787
        },
        {
          "duration": 0.1327432500000043,
          "durationTicks": 96,
          "midi": 56,
          "name": "G#3",
          "ticks": 92544,
          "time": 127.964493,
          "velocity": 0.25196850393700787
        },
        {
          "duration": 0.1327432499999759,
          "durationTicks": 96,
          "midi": 53,
          "name": "F3",
          "ticks": 92832,
          "time": 128.36272275000002,
          "velocity": 0.25196850393700787
        },
        {
          "duration": 0.1327432500000043,
          "durationTicks": 96,
          "midi": 56,
          "name": "G#3",
          "ticks": 92928,
          "time": 128.495466,
          "velocity": 0.25196850393700787
        },
        {
          "duration": 0.1327432500000043,
          "durationTicks": 96,
          "midi": 56,
          "name": "G#3",
          "ticks": 93120,
          "time": 128.7609525,
          "velocity": 0.25196850393700787
        },
        {
          "duration": 0.1327432500000043,
          "durationTicks": 96,
          "midi": 56,
          "name": "G#3",
          "ticks": 93408,
          "time": 129.15918225000001,
          "velocity": 0.25196850393700787
        },
        {
          "duration": 0.1327432500000043,
          "durationTicks": 96,
          "midi": 56,
          "name": "G#3",
          "ticks": 93600,
          "time": 129.42466875,
          "velocity": 0.25196850393700787
        },
        {
          "duration": 0.1327432500000043,
          "durationTicks": 96,
          "midi": 56,
          "name": "G#3",
          "ticks": 93792,
          "time": 129.69015525,
          "velocity": 0.25196850393700787
        },
        {
          "duration": 0.1327432500000043,
          "durationTicks": 96,
          "midi": 56,
          "name": "G#3",
          "ticks": 94080,
          "time": 130.08838500000002,
          "velocity": 0.25196850393700787
        },
        {
          "duration": 0.1327432500000043,
          "durationTicks": 96,
          "midi": 53,
          "name": "F3",
          "ticks": 94368,
          "time": 130.48661475,
          "velocity": 0.25196850393700787
        },
        {
          "duration": 0.1327432500000043,
          "durationTicks": 96,
          "midi": 56,
          "name": "G#3",
          "ticks": 94464,
          "time": 130.619358,
          "velocity": 0.25196850393700787
        },
        {
          "duration": 0.1327432499999759,
          "durationTicks": 96,
          "midi": 56,
          "name": "G#3",
          "ticks": 94752,
          "time": 131.01758775000002,
          "velocity": 0.25196850393700787
        },
        {
          "duration": 0.1327432500000043,
          "durationTicks": 96,
          "midi": 53,
          "name": "F3",
          "ticks": 95040,
          "time": 131.4158175,
          "velocity": 0.25196850393700787
        },
        {
          "duration": 0.1327432500000043,
          "durationTicks": 96,
          "midi": 56,
          "name": "G#3",
          "ticks": 95136,
          "time": 131.54856075,
          "velocity": 0.25196850393700787
        },
        {
          "duration": 0.1327432500000043,
          "durationTicks": 96,
          "midi": 56,
          "name": "G#3",
          "ticks": 95328,
          "time": 131.81404725000002,
          "velocity": 0.25196850393700787
        },
        {
          "duration": 0.1327432500000043,
          "durationTicks": 96,
          "midi": 56,
          "name": "G#3",
          "ticks": 95616,
          "time": 132.212277,
          "velocity": 0.25196850393700787
        },
        {
          "duration": 0.1327432500000043,
          "durationTicks": 96,
          "midi": 53,
          "name": "F3",
          "ticks": 95904,
          "time": 132.61050675,
          "velocity": 0.25196850393700787
        },
        {
          "duration": 0.1327432499999759,
          "durationTicks": 96,
          "midi": 56,
          "name": "G#3",
          "ticks": 96000,
          "time": 132.74325000000002,
          "velocity": 0.25196850393700787
        },
        {
          "duration": 0.1327432500000043,
          "durationTicks": 96,
          "midi": 56,
          "name": "G#3",
          "ticks": 96192,
          "time": 133.0087365,
          "velocity": 0.25196850393700787
        },
        {
          "duration": 0.1327432500000043,
          "durationTicks": 96,
          "midi": 56,
          "name": "G#3",
          "ticks": 96384,
          "time": 133.274223,
          "velocity": 0.25196850393700787
        },
        {
          "duration": 0.1327432500000043,
          "durationTicks": 96,
          "midi": 58,
          "name": "A#3",
          "ticks": 96480,
          "time": 133.40696625,
          "velocity": 0.25196850393700787
        },
        {
          "duration": 0.1327432500000043,
          "durationTicks": 96,
          "midi": 56,
          "name": "G#3",
          "ticks": 96864,
          "time": 133.93793925,
          "velocity": 0.25196850393700787
        },
        {
          "duration": 0.1327432500000043,
          "durationTicks": 96,
          "midi": 56,
          "name": "G#3",
          "ticks": 97152,
          "time": 134.336169,
          "velocity": 0.25196850393700787
        },
        {
          "duration": 0.1327432500000043,
          "durationTicks": 96,
          "midi": 53,
          "name": "F3",
          "ticks": 97440,
          "time": 134.73439875,
          "velocity": 0.25196850393700787
        },
        {
          "duration": 0.1327432500000043,
          "durationTicks": 96,
          "midi": 56,
          "name": "G#3",
          "ticks": 97536,
          "time": 134.867142,
          "velocity": 0.25196850393700787
        },
        {
          "duration": 0.1327432500000043,
          "durationTicks": 96,
          "midi": 56,
          "name": "G#3",
          "ticks": 97728,
          "time": 135.1326285,
          "velocity": 0.25196850393700787
        },
        {
          "duration": 0.1327432500000043,
          "durationTicks": 96,
          "midi": 51,
          "name": "D#3",
          "ticks": 98112,
          "time": 135.6636015,
          "velocity": 0.25196850393700787
        },
        {
          "duration": 0.1327432500000043,
          "durationTicks": 96,
          "midi": 53,
          "name": "F3",
          "ticks": 98208,
          "time": 135.79634475,
          "velocity": 0.25196850393700787
        },
        {
          "duration": 0.1327432500000043,
          "durationTicks": 96,
          "midi": 56,
          "name": "G#3",
          "ticks": 98400,
          "time": 136.06183125,
          "velocity": 0.25196850393700787
        },
        {
          "duration": 0.1327432500000043,
          "durationTicks": 96,
          "midi": 56,
          "name": "G#3",
          "ticks": 98688,
          "time": 136.460061,
          "velocity": 0.25196850393700787
        },
        {
          "duration": 0.1327432500000043,
          "durationTicks": 96,
          "midi": 53,
          "name": "F3",
          "ticks": 98976,
          "time": 136.85829075,
          "velocity": 0.25196850393700787
        },
        {
          "duration": 0.1327432500000043,
          "durationTicks": 96,
          "midi": 56,
          "name": "G#3",
          "ticks": 99072,
          "time": 136.991034,
          "velocity": 0.25196850393700787
        },
        {
          "duration": 0.1327432500000043,
          "durationTicks": 96,
          "midi": 56,
          "name": "G#3",
          "ticks": 99264,
          "time": 137.2565205,
          "velocity": 0.25196850393700787
        },
        {
          "duration": 0.1327432500000043,
          "durationTicks": 96,
          "midi": 56,
          "name": "G#3",
          "ticks": 99552,
          "time": 137.65475025,
          "velocity": 0.25196850393700787
        },
        {
          "duration": 0.1327432500000043,
          "durationTicks": 96,
          "midi": 56,
          "name": "G#3",
          "ticks": 99744,
          "time": 137.92023675000002,
          "velocity": 0.25196850393700787
        },
        {
          "duration": 0.1327432500000043,
          "durationTicks": 96,
          "midi": 56,
          "name": "G#3",
          "ticks": 99936,
          "time": 138.18572325,
          "velocity": 0.25196850393700787
        },
        {
          "duration": 0.1327432500000043,
          "durationTicks": 96,
          "midi": 56,
          "name": "G#3",
          "ticks": 100224,
          "time": 138.583953,
          "velocity": 0.25196850393700787
        },
        {
          "duration": 0.1327432499999759,
          "durationTicks": 96,
          "midi": 53,
          "name": "F3",
          "ticks": 100512,
          "time": 138.98218275000002,
          "velocity": 0.25196850393700787
        },
        {
          "duration": 0.1327432500000043,
          "durationTicks": 96,
          "midi": 56,
          "name": "G#3",
          "ticks": 100608,
          "time": 139.114926,
          "velocity": 0.25196850393700787
        },
        {
          "duration": 0.1327432500000043,
          "durationTicks": 96,
          "midi": 56,
          "name": "G#3",
          "ticks": 100896,
          "time": 139.51315575,
          "velocity": 0.25196850393700787
        },
        {
          "duration": 0.1327432500000043,
          "durationTicks": 96,
          "midi": 53,
          "name": "F3",
          "ticks": 101184,
          "time": 139.9113855,
          "velocity": 0.25196850393700787
        },
        {
          "duration": 0.1327432500000043,
          "durationTicks": 96,
          "midi": 56,
          "name": "G#3",
          "ticks": 101280,
          "time": 140.04412875,
          "velocity": 0.25196850393700787
        },
        {
          "duration": 0.1327432500000043,
          "durationTicks": 96,
          "midi": 56,
          "name": "G#3",
          "ticks": 101472,
          "time": 140.30961525,
          "velocity": 0.25196850393700787
        },
        {
          "duration": 0.1327432499999759,
          "durationTicks": 96,
          "midi": 56,
          "name": "G#3",
          "ticks": 101760,
          "time": 140.70784500000002,
          "velocity": 0.25196850393700787
        },
        {
          "duration": 0.1327432500000043,
          "durationTicks": 96,
          "midi": 53,
          "name": "F3",
          "ticks": 102048,
          "time": 141.10607475,
          "velocity": 0.25196850393700787
        },
        {
          "duration": 0.1327432500000043,
          "durationTicks": 96,
          "midi": 56,
          "name": "G#3",
          "ticks": 102144,
          "time": 141.238818,
          "velocity": 0.25196850393700787
        },
        {
          "duration": 0.1327432499999759,
          "durationTicks": 96,
          "midi": 56,
          "name": "G#3",
          "ticks": 102336,
          "time": 141.50430450000002,
          "velocity": 0.25196850393700787
        },
        {
          "duration": 0.1327432500000043,
          "durationTicks": 96,
          "midi": 56,
          "name": "G#3",
          "ticks": 102528,
          "time": 141.769791,
          "velocity": 0.25196850393700787
        },
        {
          "duration": 0.1327432500000043,
          "durationTicks": 96,
          "midi": 58,
          "name": "A#3",
          "ticks": 102624,
          "time": 141.90253425,
          "velocity": 0.25196850393700787
        },
        {
          "duration": 0.1327432499999759,
          "durationTicks": 96,
          "midi": 56,
          "name": "G#3",
          "ticks": 103008,
          "time": 142.43350725000002,
          "velocity": 0.25196850393700787
        },
        {
          "duration": 0.1327432500000043,
          "durationTicks": 96,
          "midi": 56,
          "name": "G#3",
          "ticks": 103296,
          "time": 142.831737,
          "velocity": 0.25196850393700787
        },
        {
          "duration": 0.1327432500000043,
          "durationTicks": 96,
          "midi": 53,
          "name": "F3",
          "ticks": 103584,
          "time": 143.22996675000002,
          "velocity": 0.25196850393700787
        },
        {
          "duration": 0.1327432499999759,
          "durationTicks": 96,
          "midi": 56,
          "name": "G#3",
          "ticks": 103680,
          "time": 143.36271000000002,
          "velocity": 0.25196850393700787
        },
        {
          "duration": 0.1327432500000043,
          "durationTicks": 96,
          "midi": 56,
          "name": "G#3",
          "ticks": 103872,
          "time": 143.6281965,
          "velocity": 0.25196850393700787
        },
        {
          "duration": 0.1327432499999759,
          "durationTicks": 96,
          "midi": 51,
          "name": "D#3",
          "ticks": 104256,
          "time": 144.15916950000002,
          "velocity": 0.25196850393700787
        },
        {
          "duration": 0.1327432500000043,
          "durationTicks": 96,
          "midi": 53,
          "name": "F3",
          "ticks": 104352,
          "time": 144.29191275,
          "velocity": 0.25196850393700787
        },
        {
          "duration": 0.1327432500000043,
          "durationTicks": 96,
          "midi": 56,
          "name": "G#3",
          "ticks": 104544,
          "time": 144.55739925,
          "velocity": 0.25196850393700787
        },
        {
          "duration": 0.1327432500000043,
          "durationTicks": 96,
          "midi": 56,
          "name": "G#3",
          "ticks": 104832,
          "time": 144.95562900000002,
          "velocity": 0.25196850393700787
        },
        {
          "duration": 0.1327432500000043,
          "durationTicks": 96,
          "midi": 53,
          "name": "F3",
          "ticks": 105120,
          "time": 145.35385875,
          "velocity": 0.25196850393700787
        },
        {
          "duration": 0.1327432500000043,
          "durationTicks": 96,
          "midi": 56,
          "name": "G#3",
          "ticks": 105216,
          "time": 145.486602,
          "velocity": 0.25196850393700787
        },
        {
          "duration": 0.1327432500000043,
          "durationTicks": 96,
          "midi": 56,
          "name": "G#3",
          "ticks": 105408,
          "time": 145.7520885,
          "velocity": 0.25196850393700787
        },
        {
          "duration": 0.1327432500000043,
          "durationTicks": 96,
          "midi": 56,
          "name": "G#3",
          "ticks": 105696,
          "time": 146.15031825,
          "velocity": 0.25196850393700787
        },
        {
          "duration": 0.1327432500000043,
          "durationTicks": 96,
          "midi": 56,
          "name": "G#3",
          "ticks": 105888,
          "time": 146.41580475,
          "velocity": 0.25196850393700787
        },
        {
          "duration": 0.1327432500000043,
          "durationTicks": 96,
          "midi": 56,
          "name": "G#3",
          "ticks": 106080,
          "time": 146.68129125000002,
          "velocity": 0.25196850393700787
        },
        {
          "duration": 0.1327432500000043,
          "durationTicks": 96,
          "midi": 56,
          "name": "G#3",
          "ticks": 106368,
          "time": 147.079521,
          "velocity": 0.25196850393700787
        },
        {
          "duration": 0.1327432500000043,
          "durationTicks": 96,
          "midi": 53,
          "name": "F3",
          "ticks": 106656,
          "time": 147.47775075,
          "velocity": 0.25196850393700787
        },
        {
          "duration": 0.1327432500000043,
          "durationTicks": 96,
          "midi": 56,
          "name": "G#3",
          "ticks": 106752,
          "time": 147.61049400000002,
          "velocity": 0.25196850393700787
        },
        {
          "duration": 0.1327432500000043,
          "durationTicks": 96,
          "midi": 56,
          "name": "G#3",
          "ticks": 107040,
          "time": 148.00872375,
          "velocity": 0.25196850393700787
        },
        {
          "duration": 0.1327432500000043,
          "durationTicks": 96,
          "midi": 53,
          "name": "F3",
          "ticks": 107328,
          "time": 148.40695350000001,
          "velocity": 0.25196850393700787
        },
        {
          "duration": 0.1327432499999759,
          "durationTicks": 96,
          "midi": 56,
          "name": "G#3",
          "ticks": 107424,
          "time": 148.53969675000002,
          "velocity": 0.25196850393700787
        },
        {
          "duration": 0.1327432500000043,
          "durationTicks": 96,
          "midi": 56,
          "name": "G#3",
          "ticks": 107616,
          "time": 148.80518325,
          "velocity": 0.25196850393700787
        },
        {
          "duration": 0.1327432500000043,
          "durationTicks": 96,
          "midi": 56,
          "name": "G#3",
          "ticks": 107904,
          "time": 149.203413,
          "velocity": 0.25196850393700787
        },
        {
          "duration": 0.1327432500000043,
          "durationTicks": 96,
          "midi": 53,
          "name": "F3",
          "ticks": 108192,
          "time": 149.60164275,
          "velocity": 0.25196850393700787
        },
        {
          "duration": 0.1327432500000043,
          "durationTicks": 96,
          "midi": 56,
          "name": "G#3",
          "ticks": 108288,
          "time": 149.734386,
          "velocity": 0.25196850393700787
        },
        {
          "duration": 0.1327432500000043,
          "durationTicks": 96,
          "midi": 56,
          "name": "G#3",
          "ticks": 108480,
          "time": 149.9998725,
          "velocity": 0.25196850393700787
        },
        {
          "duration": 0.1327432500000043,
          "durationTicks": 96,
          "midi": 56,
          "name": "G#3",
          "ticks": 108672,
          "time": 150.26535900000002,
          "velocity": 0.25196850393700787
        },
        {
          "duration": 0.1327432499999759,
          "durationTicks": 96,
          "midi": 58,
          "name": "A#3",
          "ticks": 108768,
          "time": 150.39810225000002,
          "velocity": 0.25196850393700787
        },
        {
          "duration": 0.1327432500000043,
          "durationTicks": 96,
          "midi": 56,
          "name": "G#3",
          "ticks": 109152,
          "time": 150.92907525,
          "velocity": 0.25196850393700787
        },
        {
          "duration": 0.1327432500000043,
          "durationTicks": 96,
          "midi": 56,
          "name": "G#3",
          "ticks": 109440,
          "time": 151.327305,
          "velocity": 0.25196850393700787
        },
        {
          "duration": 0.1327432500000043,
          "durationTicks": 96,
          "midi": 53,
          "name": "F3",
          "ticks": 109728,
          "time": 151.72553475,
          "velocity": 0.25196850393700787
        },
        {
          "duration": 0.1327432500000043,
          "durationTicks": 96,
          "midi": 56,
          "name": "G#3",
          "ticks": 109824,
          "time": 151.858278,
          "velocity": 0.25196850393700787
        },
        {
          "duration": 0.1327432499999759,
          "durationTicks": 96,
          "midi": 56,
          "name": "G#3",
          "ticks": 110016,
          "time": 152.12376450000002,
          "velocity": 0.25196850393700787
        },
        {
          "duration": 0.1327432500000043,
          "durationTicks": 96,
          "midi": 51,
          "name": "D#3",
          "ticks": 110400,
          "time": 152.6547375,
          "velocity": 0.25196850393700787
        },
        {
          "duration": 0.1327432500000043,
          "durationTicks": 96,
          "midi": 53,
          "name": "F3",
          "ticks": 110496,
          "time": 152.78748075000001,
          "velocity": 0.25196850393700787
        },
        {
          "duration": 0.1327432500000043,
          "durationTicks": 96,
          "midi": 56,
          "name": "G#3",
          "ticks": 110688,
          "time": 153.05296725,
          "velocity": 0.25196850393700787
        },
        {
          "duration": 0.1327432500000043,
          "durationTicks": 96,
          "midi": 56,
          "name": "G#3",
          "ticks": 110976,
          "time": 153.451197,
          "velocity": 0.25196850393700787
        },
        {
          "duration": 0.1327432499999759,
          "durationTicks": 96,
          "midi": 53,
          "name": "F3",
          "ticks": 111264,
          "time": 153.84942675000002,
          "velocity": 0.25196850393700787
        },
        {
          "duration": 0.1327432500000043,
          "durationTicks": 96,
          "midi": 56,
          "name": "G#3",
          "ticks": 111360,
          "time": 153.98217,
          "velocity": 0.25196850393700787
        },
        {
          "duration": 0.1327432500000043,
          "durationTicks": 96,
          "midi": 56,
          "name": "G#3",
          "ticks": 111552,
          "time": 154.2476565,
          "velocity": 0.25196850393700787
        },
        {
          "duration": 0.1327432500000043,
          "durationTicks": 96,
          "midi": 56,
          "name": "G#3",
          "ticks": 111840,
          "time": 154.64588625000002,
          "velocity": 0.25196850393700787
        },
        {
          "duration": 0.1327432500000043,
          "durationTicks": 96,
          "midi": 56,
          "name": "G#3",
          "ticks": 112032,
          "time": 154.91137275,
          "velocity": 0.25196850393700787
        },
        {
          "duration": 0.1327432500000043,
          "durationTicks": 96,
          "midi": 56,
          "name": "G#3",
          "ticks": 124512,
          "time": 172.16799525000002,
          "velocity": 0.25196850393700787
        },
        {
          "duration": 0.1327432500000043,
          "durationTicks": 96,
          "midi": 56,
          "name": "G#3",
          "ticks": 124800,
          "time": 172.566225,
          "velocity": 0.25196850393700787
        },
        {
          "duration": 0.1327432500000043,
          "durationTicks": 96,
          "midi": 53,
          "name": "F3",
          "ticks": 125088,
          "time": 172.96445475000002,
          "velocity": 0.25196850393700787
        },
        {
          "duration": 0.1327432499999759,
          "durationTicks": 96,
          "midi": 56,
          "name": "G#3",
          "ticks": 125184,
          "time": 173.09719800000002,
          "velocity": 0.25196850393700787
        },
        {
          "duration": 0.1327432500000043,
          "durationTicks": 96,
          "midi": 56,
          "name": "G#3",
          "ticks": 125472,
          "time": 173.49542775,
          "velocity": 0.25196850393700787
        },
        {
          "duration": 0.1327432500000043,
          "durationTicks": 96,
          "midi": 53,
          "name": "F3",
          "ticks": 125760,
          "time": 173.89365750000002,
          "velocity": 0.25196850393700787
        },
        {
          "duration": 0.1327432499999759,
          "durationTicks": 96,
          "midi": 56,
          "name": "G#3",
          "ticks": 125856,
          "time": 174.02640075000002,
          "velocity": 0.25196850393700787
        },
        {
          "duration": 0.1327432500000043,
          "durationTicks": 96,
          "midi": 56,
          "name": "G#3",
          "ticks": 126048,
          "time": 174.29188725,
          "velocity": 0.25196850393700787
        },
        {
          "duration": 0.1327432500000043,
          "durationTicks": 96,
          "midi": 56,
          "name": "G#3",
          "ticks": 126336,
          "time": 174.69011700000001,
          "velocity": 0.25196850393700787
        },
        {
          "duration": 0.1327432500000043,
          "durationTicks": 96,
          "midi": 53,
          "name": "F3",
          "ticks": 126624,
          "time": 175.08834675,
          "velocity": 0.25196850393700787
        },
        {
          "duration": 0.1327432500000043,
          "durationTicks": 96,
          "midi": 56,
          "name": "G#3",
          "ticks": 126720,
          "time": 175.22109,
          "velocity": 0.25196850393700787
        },
        {
          "duration": 0.1327432500000043,
          "durationTicks": 96,
          "midi": 56,
          "name": "G#3",
          "ticks": 126912,
          "time": 175.4865765,
          "velocity": 0.25196850393700787
        },
        {
          "duration": 0.1327432499999759,
          "durationTicks": 96,
          "midi": 56,
          "name": "G#3",
          "ticks": 127104,
          "time": 175.75206300000002,
          "velocity": 0.25196850393700787
        },
        {
          "duration": 0.1327432500000043,
          "durationTicks": 96,
          "midi": 58,
          "name": "A#3",
          "ticks": 127200,
          "time": 175.88480625,
          "velocity": 0.25196850393700787
        },
        {
          "duration": 0.1327432500000043,
          "durationTicks": 96,
          "midi": 56,
          "name": "G#3",
          "ticks": 127584,
          "time": 176.41577925,
          "velocity": 0.25196850393700787
        },
        {
          "duration": 0.1327432500000043,
          "durationTicks": 96,
          "midi": 56,
          "name": "G#3",
          "ticks": 127872,
          "time": 176.814009,
          "velocity": 0.25196850393700787
        },
        {
          "duration": 0.1327432500000043,
          "durationTicks": 96,
          "midi": 53,
          "name": "F3",
          "ticks": 128160,
          "time": 177.21223875,
          "velocity": 0.25196850393700787
        },
        {
          "duration": 0.1327432500000043,
          "durationTicks": 96,
          "midi": 56,
          "name": "G#3",
          "ticks": 128256,
          "time": 177.34498200000002,
          "velocity": 0.25196850393700787
        },
        {
          "duration": 0.1327432500000043,
          "durationTicks": 96,
          "midi": 56,
          "name": "G#3",
          "ticks": 128448,
          "time": 177.6104685,
          "velocity": 0.25196850393700787
        },
        {
          "duration": 0.1327432500000043,
          "durationTicks": 96,
          "midi": 51,
          "name": "D#3",
          "ticks": 128832,
          "time": 178.1414415,
          "velocity": 0.25196850393700787
        },
        {
          "duration": 0.1327432500000043,
          "durationTicks": 96,
          "midi": 53,
          "name": "F3",
          "ticks": 128928,
          "time": 178.27418475000002,
          "velocity": 0.25196850393700787
        },
        {
          "duration": 0.1327432500000043,
          "durationTicks": 96,
          "midi": 56,
          "name": "G#3",
          "ticks": 129120,
          "time": 178.53967125,
          "velocity": 0.25196850393700787
        },
        {
          "duration": 0.1327432500000043,
          "durationTicks": 96,
          "midi": 56,
          "name": "G#3",
          "ticks": 129408,
          "time": 178.937901,
          "velocity": 0.25196850393700787
        },
        {
          "duration": 0.1327432499999759,
          "durationTicks": 96,
          "midi": 53,
          "name": "F3",
          "ticks": 129696,
          "time": 179.33613075000002,
          "velocity": 0.25196850393700787
        },
        {
          "duration": 0.1327432500000043,
          "durationTicks": 96,
          "midi": 56,
          "name": "G#3",
          "ticks": 129792,
          "time": 179.468874,
          "velocity": 0.25196850393700787
        },
        {
          "duration": 0.1327432500000043,
          "durationTicks": 96,
          "midi": 56,
          "name": "G#3",
          "ticks": 129984,
          "time": 179.7343605,
          "velocity": 0.25196850393700787
        },
        {
          "duration": 0.1327432499999759,
          "durationTicks": 96,
          "midi": 56,
          "name": "G#3",
          "ticks": 130272,
          "time": 180.13259025000002,
          "velocity": 0.25196850393700787
        },
        {
          "duration": 0.1327432500000043,
          "durationTicks": 96,
          "midi": 56,
          "name": "G#3",
          "ticks": 130464,
          "time": 180.39807675,
          "velocity": 0.25196850393700787
        },
        {
          "duration": 0.1327432500000043,
          "durationTicks": 96,
          "midi": 56,
          "name": "G#3",
          "ticks": 130656,
          "time": 180.66356325,
          "velocity": 0.25196850393700787
        },
        {
          "duration": 0.1327432499999759,
          "durationTicks": 96,
          "midi": 56,
          "name": "G#3",
          "ticks": 130944,
          "time": 181.06179300000002,
          "velocity": 0.25196850393700787
        },
        {
          "duration": 0.1327432500000043,
          "durationTicks": 96,
          "midi": 53,
          "name": "F3",
          "ticks": 131232,
          "time": 181.46002275,
          "velocity": 0.25196850393700787
        },
        {
          "duration": 0.1327432500000043,
          "durationTicks": 96,
          "midi": 56,
          "name": "G#3",
          "ticks": 131328,
          "time": 181.592766,
          "velocity": 0.25196850393700787
        },
        {
          "duration": 0.1327432500000043,
          "durationTicks": 96,
          "midi": 56,
          "name": "G#3",
          "ticks": 131616,
          "time": 181.99099575,
          "velocity": 0.25196850393700787
        },
        {
          "duration": 0.1327432500000043,
          "durationTicks": 96,
          "midi": 53,
          "name": "F3",
          "ticks": 131904,
          "time": 182.3892255,
          "velocity": 0.25196850393700787
        },
        {
          "duration": 0.1327432500000043,
          "durationTicks": 96,
          "midi": 56,
          "name": "G#3",
          "ticks": 132000,
          "time": 182.52196875,
          "velocity": 0.25196850393700787
        },
        {
          "duration": 0.1327432499999759,
          "durationTicks": 96,
          "midi": 56,
          "name": "G#3",
          "ticks": 132192,
          "time": 182.78745525000002,
          "velocity": 0.25196850393700787
        },
        {
          "duration": 0.1327432500000043,
          "durationTicks": 96,
          "midi": 56,
          "name": "G#3",
          "ticks": 132480,
          "time": 183.185685,
          "velocity": 0.25196850393700787
        },
        {
          "duration": 0.1327432500000043,
          "durationTicks": 96,
          "midi": 53,
          "name": "F3",
          "ticks": 132768,
          "time": 183.58391475000002,
          "velocity": 0.25196850393700787
        },
        {
          "duration": 0.1327432499999759,
          "durationTicks": 96,
          "midi": 56,
          "name": "G#3",
          "ticks": 132864,
          "time": 183.71665800000002,
          "velocity": 0.25196850393700787
        },
        {
          "duration": 0.1327432500000043,
          "durationTicks": 96,
          "midi": 56,
          "name": "G#3",
          "ticks": 133056,
          "time": 183.9821445,
          "velocity": 0.25196850393700787
        },
        {
          "duration": 0.1327432500000043,
          "durationTicks": 96,
          "midi": 56,
          "name": "G#3",
          "ticks": 133248,
          "time": 184.247631,
          "velocity": 0.25196850393700787
        },
        {
          "duration": 0.1327432500000043,
          "durationTicks": 96,
          "midi": 58,
          "name": "A#3",
          "ticks": 133344,
          "time": 184.38037425000002,
          "velocity": 0.25196850393700787
        },
        {
          "duration": 0.1327432500000043,
          "durationTicks": 96,
          "midi": 56,
          "name": "G#3",
          "ticks": 133728,
          "time": 184.91134725,
          "velocity": 0.25196850393700787
        },
        {
          "duration": 0.1327432500000043,
          "durationTicks": 96,
          "midi": 56,
          "name": "G#3",
          "ticks": 134016,
          "time": 185.30957700000002,
          "velocity": 0.25196850393700787
        },
        {
          "duration": 0.1327432500000043,
          "durationTicks": 96,
          "midi": 53,
          "name": "F3",
          "ticks": 134304,
          "time": 185.70780675,
          "velocity": 0.25196850393700787
        },
        {
          "duration": 0.1327432500000043,
          "durationTicks": 96,
          "midi": 56,
          "name": "G#3",
          "ticks": 134400,
          "time": 185.84055,
          "velocity": 0.25196850393700787
        },
        {
          "duration": 0.1327432500000043,
          "durationTicks": 96,
          "midi": 56,
          "name": "G#3",
          "ticks": 134592,
          "time": 186.10603650000002,
          "velocity": 0.25196850393700787
        },
        {
          "duration": 0.1327432500000043,
          "durationTicks": 96,
          "midi": 51,
          "name": "D#3",
          "ticks": 134976,
          "time": 186.6370095,
          "velocity": 0.25196850393700787
        },
        {
          "duration": 0.1327432500000043,
          "durationTicks": 96,
          "midi": 53,
          "name": "F3",
          "ticks": 135072,
          "time": 186.76975275,
          "velocity": 0.25196850393700787
        },
        {
          "duration": 0.1327432500000043,
          "durationTicks": 96,
          "midi": 56,
          "name": "G#3",
          "ticks": 135264,
          "time": 187.03523925000002,
          "velocity": 0.25196850393700787
        },
        {
          "duration": 0.1327432500000043,
          "durationTicks": 96,
          "midi": 56,
          "name": "G#3",
          "ticks": 135552,
          "time": 187.433469,
          "velocity": 0.25196850393700787
        },
        {
          "duration": 0.1327432500000043,
          "durationTicks": 96,
          "midi": 53,
          "name": "F3",
          "ticks": 135840,
          "time": 187.83169875000002,
          "velocity": 0.25196850393700787
        },
        {
          "duration": 0.1327432500000043,
          "durationTicks": 96,
          "midi": 56,
          "name": "G#3",
          "ticks": 135936,
          "time": 187.96444200000002,
          "velocity": 0.25196850393700787
        },
        {
          "duration": 0.1327432500000043,
          "durationTicks": 96,
          "midi": 56,
          "name": "G#3",
          "ticks": 136128,
          "time": 188.2299285,
          "velocity": 0.25196850393700787
        },
        {
          "duration": 0.1327432500000043,
          "durationTicks": 96,
          "midi": 56,
          "name": "G#3",
          "ticks": 136416,
          "time": 188.62815825,
          "velocity": 0.25196850393700787
        },
        {
          "duration": 0.1327432499999759,
          "durationTicks": 96,
          "midi": 56,
          "name": "G#3",
          "ticks": 136608,
          "time": 188.89364475000002,
          "velocity": 0.25196850393700787
        },
        {
          "duration": 0.1327432500000043,
          "durationTicks": 96,
          "midi": 56,
          "name": "G#3",
          "ticks": 136800,
          "time": 189.15913125,
          "velocity": 0.25196850393700787
        },
        {
          "duration": 0.1327432500000043,
          "durationTicks": 96,
          "midi": 56,
          "name": "G#3",
          "ticks": 137088,
          "time": 189.55736100000001,
          "velocity": 0.25196850393700787
        },
        {
          "duration": 0.1327432500000043,
          "durationTicks": 96,
          "midi": 53,
          "name": "F3",
          "ticks": 137376,
          "time": 189.95559075,
          "velocity": 0.25196850393700787
        },
        {
          "duration": 0.1327432500000043,
          "durationTicks": 96,
          "midi": 56,
          "name": "G#3",
          "ticks": 137472,
          "time": 190.088334,
          "velocity": 0.25196850393700787
        },
        {
          "duration": 0.1327432500000043,
          "durationTicks": 96,
          "midi": 56,
          "name": "G#3",
          "ticks": 137760,
          "time": 190.48656375000002,
          "velocity": 0.25196850393700787
        },
        {
          "duration": 0.1327432500000043,
          "durationTicks": 96,
          "midi": 53,
          "name": "F3",
          "ticks": 138048,
          "time": 190.8847935,
          "velocity": 0.25196850393700787
        },
        {
          "duration": 0.1327432500000043,
          "durationTicks": 96,
          "midi": 56,
          "name": "G#3",
          "ticks": 138144,
          "time": 191.01753675,
          "velocity": 0.25196850393700787
        },
        {
          "duration": 0.1327432500000043,
          "durationTicks": 96,
          "midi": 56,
          "name": "G#3",
          "ticks": 138336,
          "time": 191.28302325,
          "velocity": 0.25196850393700787
        },
        {
          "duration": 0.1327432500000043,
          "durationTicks": 96,
          "midi": 56,
          "name": "G#3",
          "ticks": 138624,
          "time": 191.681253,
          "velocity": 0.25196850393700787
        },
        {
          "duration": 0.1327432500000043,
          "durationTicks": 96,
          "midi": 53,
          "name": "F3",
          "ticks": 138912,
          "time": 192.07948275,
          "velocity": 0.25196850393700787
        },
        {
          "duration": 0.1327432500000043,
          "durationTicks": 96,
          "midi": 56,
          "name": "G#3",
          "ticks": 139008,
          "time": 192.21222600000002,
          "velocity": 0.25196850393700787
        },
        {
          "duration": 0.1327432499999759,
          "durationTicks": 96,
          "midi": 56,
          "name": "G#3",
          "ticks": 139200,
          "time": 192.47771250000002,
          "velocity": 0.25196850393700787
        },
        {
          "duration": 0.1327432500000043,
          "durationTicks": 96,
          "midi": 56,
          "name": "G#3",
          "ticks": 139392,
          "time": 192.743199,
          "velocity": 0.25196850393700787
        },
        {
          "duration": 0.1327432500000043,
          "durationTicks": 96,
          "midi": 58,
          "name": "A#3",
          "ticks": 139488,
          "time": 192.87594225,
          "velocity": 0.25196850393700787
        },
        {
          "duration": 0.1327432500000043,
          "durationTicks": 96,
          "midi": 56,
          "name": "G#3",
          "ticks": 139872,
          "time": 193.40691525,
          "velocity": 0.25196850393700787
        },
        {
          "duration": 0.1327432500000043,
          "durationTicks": 96,
          "midi": 56,
          "name": "G#3",
          "ticks": 140160,
          "time": 193.805145,
          "velocity": 0.25196850393700787
        },
        {
          "duration": 0.1327432499999759,
          "durationTicks": 96,
          "midi": 53,
          "name": "F3",
          "ticks": 140448,
          "time": 194.20337475000002,
          "velocity": 0.25196850393700787
        },
        {
          "duration": 0.1327432500000043,
          "durationTicks": 96,
          "midi": 56,
          "name": "G#3",
          "ticks": 140544,
          "time": 194.336118,
          "velocity": 0.25196850393700787
        },
        {
          "duration": 0.1327432500000043,
          "durationTicks": 96,
          "midi": 56,
          "name": "G#3",
          "ticks": 140736,
          "time": 194.6016045,
          "velocity": 0.25196850393700787
        },
        {
          "duration": 0.1327432500000043,
          "durationTicks": 96,
          "midi": 51,
          "name": "D#3",
          "ticks": 141120,
          "time": 195.1325775,
          "velocity": 0.25196850393700787
        },
        {
          "duration": 0.1327432500000043,
          "durationTicks": 96,
          "midi": 53,
          "name": "F3",
          "ticks": 141216,
          "time": 195.26532075,
          "velocity": 0.25196850393700787
        },
        {
          "duration": 0.1327432500000043,
          "durationTicks": 96,
          "midi": 56,
          "name": "G#3",
          "ticks": 141408,
          "time": 195.53080725,
          "velocity": 0.25196850393700787
        },
        {
          "duration": 0.1327432499999759,
          "durationTicks": 96,
          "midi": 56,
          "name": "G#3",
          "ticks": 141696,
          "time": 195.92903700000002,
          "velocity": 0.25196850393700787
        },
        {
          "duration": 0.1327432500000043,
          "durationTicks": 96,
          "midi": 53,
          "name": "F3",
          "ticks": 141984,
          "time": 196.32726675,
          "velocity": 0.25196850393700787
        },
        {
          "duration": 0.1327432500000043,
          "durationTicks": 96,
          "midi": 56,
          "name": "G#3",
          "ticks": 142080,
          "time": 196.46001,
          "velocity": 0.25196850393700787
        },
        {
          "duration": 0.1327432500000043,
          "durationTicks": 96,
          "midi": 56,
          "name": "G#3",
          "ticks": 142272,
          "time": 196.72549650000002,
          "velocity": 0.25196850393700787
        },
        {
          "duration": 0.1327432500000043,
          "durationTicks": 96,
          "midi": 56,
          "name": "G#3",
          "ticks": 142560,
          "time": 197.12372625,
          "velocity": 0.25196850393700787
        },
        {
          "duration": 0.1327432500000043,
          "durationTicks": 96,
          "midi": 56,
          "name": "G#3",
          "ticks": 142752,
          "time": 197.38921275,
          "velocity": 0.25196850393700787
        },
        {
          "duration": 0.1327432499999759,
          "durationTicks": 96,
          "midi": 56,
          "name": "G#3",
          "ticks": 142944,
          "time": 197.65469925000002,
          "velocity": 0.25196850393700787
        },
        {
          "duration": 0.1327432500000043,
          "durationTicks": 96,
          "midi": 56,
          "name": "G#3",
          "ticks": 143232,
          "time": 198.052929,
          "velocity": 0.25196850393700787
        },
        {
          "duration": 0.1327432500000043,
          "durationTicks": 96,
          "midi": 53,
          "name": "F3",
          "ticks": 143520,
          "time": 198.45115875000002,
          "velocity": 0.25196850393700787
        },
        {
          "duration": 0.1327432499999759,
          "durationTicks": 96,
          "midi": 56,
          "name": "G#3",
          "ticks": 143616,
          "time": 198.58390200000002,
          "velocity": 0.25196850393700787
        },
        {
          "duration": 0.1327432500000043,
          "durationTicks": 96,
          "midi": 56,
          "name": "G#3",
          "ticks": 143904,
          "time": 198.98213175,
          "velocity": 0.25196850393700787
        },
        {
          "duration": 0.1327432499999759,
          "durationTicks": 96,
          "midi": 53,
          "name": "F3",
          "ticks": 144192,
          "time": 199.38036150000002,
          "velocity": 0.25196850393700787
        },
        {
          "duration": 0.1327432500000043,
          "durationTicks": 96,
          "midi": 56,
          "name": "G#3",
          "ticks": 144288,
          "time": 199.51310475,
          "velocity": 0.25196850393700787
        },
        {
          "duration": 0.1327432500000043,
          "durationTicks": 96,
          "midi": 56,
          "name": "G#3",
          "ticks": 144480,
          "time": 199.77859125,
          "velocity": 0.25196850393700787
        },
        {
          "duration": 0.1327432500000043,
          "durationTicks": 96,
          "midi": 56,
          "name": "G#3",
          "ticks": 144768,
          "time": 200.17682100000002,
          "velocity": 0.25196850393700787
        },
        {
          "duration": 0.1327432500000043,
          "durationTicks": 96,
          "midi": 53,
          "name": "F3",
          "ticks": 145056,
          "time": 200.57505075,
          "velocity": 0.25196850393700787
        },
        {
          "duration": 0.1327432500000043,
          "durationTicks": 96,
          "midi": 56,
          "name": "G#3",
          "ticks": 145152,
          "time": 200.707794,
          "velocity": 0.25196850393700787
        },
        {
          "duration": 0.1327432500000043,
          "durationTicks": 96,
          "midi": 56,
          "name": "G#3",
          "ticks": 145344,
          "time": 200.97328050000002,
          "velocity": 0.25196850393700787
        },
        {
          "duration": 0.1327432499999759,
          "durationTicks": 96,
          "midi": 56,
          "name": "G#3",
          "ticks": 145536,
          "time": 201.23876700000002,
          "velocity": 0.25196850393700787
        },
        {
          "duration": 0.1327432500000043,
          "durationTicks": 96,
          "midi": 58,
          "name": "A#3",
          "ticks": 145632,
          "time": 201.37151025,
          "velocity": 0.25196850393700787
        },
        {
          "duration": 0.1327432500000043,
          "durationTicks": 96,
          "midi": 56,
          "name": "G#3",
          "ticks": 146016,
          "time": 201.90248325000002,
          "velocity": 0.25196850393700787
        },
        {
          "duration": 0.1327432500000043,
          "durationTicks": 96,
          "midi": 56,
          "name": "G#3",
          "ticks": 146304,
          "time": 202.300713,
          "velocity": 0.25196850393700787
        },
        {
          "duration": 0.1327432500000043,
          "durationTicks": 96,
          "midi": 53,
          "name": "F3",
          "ticks": 146592,
          "time": 202.69894275000001,
          "velocity": 0.25196850393700787
        },
        {
          "duration": 0.1327432500000043,
          "durationTicks": 96,
          "midi": 56,
          "name": "G#3",
          "ticks": 146688,
          "time": 202.83168600000002,
          "velocity": 0.25196850393700787
        },
        {
          "duration": 0.1327432500000043,
          "durationTicks": 96,
          "midi": 56,
          "name": "G#3",
          "ticks": 146880,
          "time": 203.0971725,
          "velocity": 0.25196850393700787
        },
        {
          "duration": 0.1327432500000043,
          "durationTicks": 96,
          "midi": 51,
          "name": "D#3",
          "ticks": 147264,
          "time": 203.62814550000002,
          "velocity": 0.25196850393700787
        },
        {
          "duration": 0.1327432500000043,
          "durationTicks": 96,
          "midi": 53,
          "name": "F3",
          "ticks": 147360,
          "time": 203.76088875000002,
          "velocity": 0.25196850393700787
        },
        {
          "duration": 0.1327432500000043,
          "durationTicks": 96,
          "midi": 56,
          "name": "G#3",
          "ticks": 147552,
          "time": 204.02637525,
          "velocity": 0.25196850393700787
        },
        {
          "duration": 0.1327432500000043,
          "durationTicks": 96,
          "midi": 56,
          "name": "G#3",
          "ticks": 147840,
          "time": 204.424605,
          "velocity": 0.25196850393700787
        },
        {
          "duration": 0.1327432500000043,
          "durationTicks": 96,
          "midi": 53,
          "name": "F3",
          "ticks": 148128,
          "time": 204.82283475,
          "velocity": 0.25196850393700787
        },
        {
          "duration": 0.1327432500000043,
          "durationTicks": 96,
          "midi": 56,
          "name": "G#3",
          "ticks": 148224,
          "time": 204.955578,
          "velocity": 0.25196850393700787
        },
        {
          "duration": 0.1327432500000043,
          "durationTicks": 96,
          "midi": 56,
          "name": "G#3",
          "ticks": 148416,
          "time": 205.2210645,
          "velocity": 0.25196850393700787
        },
        {
          "duration": 0.1327432499999759,
          "durationTicks": 96,
          "midi": 56,
          "name": "G#3",
          "ticks": 148704,
          "time": 205.61929425000002,
          "velocity": 0.25196850393700787
        },
        {
          "duration": 0.1327432500000043,
          "durationTicks": 96,
          "midi": 56,
          "name": "G#3",
          "ticks": 148896,
          "time": 205.88478075,
          "velocity": 0.25196850393700787
        },
        {
          "duration": 0.1327432500000043,
          "durationTicks": 96,
          "midi": 56,
          "name": "G#3",
          "ticks": 149088,
          "time": 206.15026725,
          "velocity": 0.25196850393700787
        },
        {
          "duration": 0.1327432500000043,
          "durationTicks": 96,
          "midi": 56,
          "name": "G#3",
          "ticks": 149376,
          "time": 206.548497,
          "velocity": 0.25196850393700787
        },
        {
          "duration": 0.1327432500000043,
          "durationTicks": 96,
          "midi": 53,
          "name": "F3",
          "ticks": 149664,
          "time": 206.94672675,
          "velocity": 0.25196850393700787
        },
        {
          "duration": 0.1327432500000043,
          "durationTicks": 96,
          "midi": 56,
          "name": "G#3",
          "ticks": 149760,
          "time": 207.07947000000001,
          "velocity": 0.25196850393700787
        },
        {
          "duration": 0.1327432500000043,
          "durationTicks": 96,
          "midi": 56,
          "name": "G#3",
          "ticks": 150048,
          "time": 207.47769975,
          "velocity": 0.25196850393700787
        },
        {
          "duration": 0.1327432500000043,
          "durationTicks": 96,
          "midi": 53,
          "name": "F3",
          "ticks": 150336,
          "time": 207.8759295,
          "velocity": 0.25196850393700787
        },
        {
          "duration": 0.1327432500000043,
          "durationTicks": 96,
          "midi": 56,
          "name": "G#3",
          "ticks": 150432,
          "time": 208.00867275000002,
          "velocity": 0.25196850393700787
        },
        {
          "duration": 0.1327432499999759,
          "durationTicks": 96,
          "midi": 56,
          "name": "G#3",
          "ticks": 150624,
          "time": 208.27415925000003,
          "velocity": 0.25196850393700787
        },
        {
          "duration": 0.1327432500000043,
          "durationTicks": 96,
          "midi": 56,
          "name": "G#3",
          "ticks": 150912,
          "time": 208.672389,
          "velocity": 0.25196850393700787
        },
        {
          "duration": 0.1327432499999759,
          "durationTicks": 96,
          "midi": 53,
          "name": "F3",
          "ticks": 151200,
          "time": 209.07061875000002,
          "velocity": 0.25196850393700787
        },
        {
          "duration": 0.1327432500000043,
          "durationTicks": 96,
          "midi": 56,
          "name": "G#3",
          "ticks": 151296,
          "time": 209.203362,
          "velocity": 0.25196850393700787
        },
        {
          "duration": 0.1327432500000043,
          "durationTicks": 96,
          "midi": 56,
          "name": "G#3",
          "ticks": 151488,
          "time": 209.4688485,
          "velocity": 0.25196850393700787
        },
        {
          "duration": 0.1327432500000043,
          "durationTicks": 96,
          "midi": 56,
          "name": "G#3",
          "ticks": 151680,
          "time": 209.73433500000002,
          "velocity": 0.25196850393700787
        },
        {
          "duration": 0.1327432500000043,
          "durationTicks": 96,
          "midi": 58,
          "name": "A#3",
          "ticks": 151776,
          "time": 209.86707825000002,
          "velocity": 0.25196850393700787
        },
        {
          "duration": 0.1327432500000043,
          "durationTicks": 96,
          "midi": 56,
          "name": "G#3",
          "ticks": 152160,
          "time": 210.39805125,
          "velocity": 0.25196850393700787
        },
        {
          "duration": 0.1327432499999759,
          "durationTicks": 96,
          "midi": 56,
          "name": "G#3",
          "ticks": 152448,
          "time": 210.79628100000002,
          "velocity": 0.25196850393700787
        },
        {
          "duration": 0.1327432500000043,
          "durationTicks": 96,
          "midi": 53,
          "name": "F3",
          "ticks": 152736,
          "time": 211.19451075,
          "velocity": 0.25196850393700787
        },
        {
          "duration": 0.1327432500000043,
          "durationTicks": 96,
          "midi": 56,
          "name": "G#3",
          "ticks": 152832,
          "time": 211.327254,
          "velocity": 0.25196850393700787
        },
        {
          "duration": 0.1327432500000043,
          "durationTicks": 96,
          "midi": 56,
          "name": "G#3",
          "ticks": 153024,
          "time": 211.59274050000002,
          "velocity": 0.25196850393700787
        },
        {
          "duration": 0.1327432500000043,
          "durationTicks": 96,
          "midi": 51,
          "name": "D#3",
          "ticks": 153408,
          "time": 212.1237135,
          "velocity": 0.25196850393700787
        },
        {
          "duration": 0.1327432500000043,
          "durationTicks": 96,
          "midi": 53,
          "name": "F3",
          "ticks": 153504,
          "time": 212.25645675,
          "velocity": 0.25196850393700787
        },
        {
          "duration": 0.1327432500000043,
          "durationTicks": 96,
          "midi": 56,
          "name": "G#3",
          "ticks": 153696,
          "time": 212.52194325000002,
          "velocity": 0.25196850393700787
        },
        {
          "duration": 0.1327432500000043,
          "durationTicks": 96,
          "midi": 56,
          "name": "G#3",
          "ticks": 153984,
          "time": 212.920173,
          "velocity": 0.25196850393700787
        },
        {
          "duration": 0.1327432500000043,
          "durationTicks": 96,
          "midi": 53,
          "name": "F3",
          "ticks": 154272,
          "time": 213.31840275000002,
          "velocity": 0.25196850393700787
        },
        {
          "duration": 0.1327432499999759,
          "durationTicks": 96,
          "midi": 56,
          "name": "G#3",
          "ticks": 154368,
          "time": 213.45114600000002,
          "velocity": 0.25196850393700787
        },
        {
          "duration": 0.1327432500000043,
          "durationTicks": 96,
          "midi": 56,
          "name": "G#3",
          "ticks": 154560,
          "time": 213.7166325,
          "velocity": 0.25196850393700787
        },
        {
          "duration": 0.1327432500000043,
          "durationTicks": 96,
          "midi": 56,
          "name": "G#3",
          "ticks": 154848,
          "time": 214.11486225000002,
          "velocity": 0.25196850393700787
        },
        {
          "duration": 0.1327432499999759,
          "durationTicks": 96,
          "midi": 56,
          "name": "G#3",
          "ticks": 155040,
          "time": 214.38034875000002,
          "velocity": 0.25196850393700787
        },
        {
          "duration": 0.1327432500000043,
          "durationTicks": 96,
          "midi": 56,
          "name": "G#3",
          "ticks": 155232,
          "time": 214.64583525,
          "velocity": 0.25196850393700787
        },
        {
          "duration": 0.1327432500000043,
          "durationTicks": 96,
          "midi": 56,
          "name": "G#3",
          "ticks": 155520,
          "time": 215.04406500000002,
          "velocity": 0.25196850393700787
        },
        {
          "duration": 0.1327432500000043,
          "durationTicks": 96,
          "midi": 53,
          "name": "F3",
          "ticks": 155808,
          "time": 215.44229475,
          "velocity": 0.25196850393700787
        },
        {
          "duration": 0.1327432500000043,
          "durationTicks": 96,
          "midi": 56,
          "name": "G#3",
          "ticks": 155904,
          "time": 215.575038,
          "velocity": 0.25196850393700787
        },
        {
          "duration": 0.1327432500000043,
          "durationTicks": 96,
          "midi": 56,
          "name": "G#3",
          "ticks": 156192,
          "time": 215.97326775000002,
          "velocity": 0.25196850393700787
        },
        {
          "duration": 0.1327432500000043,
          "durationTicks": 96,
          "midi": 53,
          "name": "F3",
          "ticks": 156480,
          "time": 216.3714975,
          "velocity": 0.25196850393700787
        },
        {
          "duration": 0.1327432500000043,
          "durationTicks": 96,
          "midi": 56,
          "name": "G#3",
          "ticks": 156576,
          "time": 216.50424075,
          "velocity": 0.25196850393700787
        },
        {
          "duration": 0.1327432500000043,
          "durationTicks": 96,
          "midi": 56,
          "name": "G#3",
          "ticks": 156768,
          "time": 216.76972725000002,
          "velocity": 0.25196850393700787
        },
        {
          "duration": 0.1327432500000043,
          "durationTicks": 96,
          "midi": 56,
          "name": "G#3",
          "ticks": 157056,
          "time": 217.167957,
          "velocity": 0.25196850393700787
        },
        {
          "duration": 0.1327432500000043,
          "durationTicks": 96,
          "midi": 53,
          "name": "F3",
          "ticks": 157344,
          "time": 217.56618675,
          "velocity": 0.25196850393700787
        },
        {
          "duration": 0.1327432500000043,
          "durationTicks": 96,
          "midi": 56,
          "name": "G#3",
          "ticks": 157440,
          "time": 217.69893000000002,
          "velocity": 0.25196850393700787
        },
        {
          "duration": 0.1327432500000043,
          "durationTicks": 96,
          "midi": 56,
          "name": "G#3",
          "ticks": 157632,
          "time": 217.9644165,
          "velocity": 0.25196850393700787
        },
        {
          "duration": 0.1327432500000043,
          "durationTicks": 96,
          "midi": 56,
          "name": "G#3",
          "ticks": 157824,
          "time": 218.229903,
          "velocity": 0.25196850393700787
        },
        {
          "duration": 0.1327432500000043,
          "durationTicks": 96,
          "midi": 58,
          "name": "A#3",
          "ticks": 157920,
          "time": 218.36264625,
          "velocity": 0.25196850393700787
        },
        {
          "duration": 0.1327432500000043,
          "durationTicks": 96,
          "midi": 56,
          "name": "G#3",
          "ticks": 158304,
          "time": 218.89361925,
          "velocity": 0.25196850393700787
        },
        {
          "duration": 0.1327432500000043,
          "durationTicks": 96,
          "midi": 56,
          "name": "G#3",
          "ticks": 158592,
          "time": 219.291849,
          "velocity": 0.25196850393700787
        },
        {
          "duration": 0.1327432500000043,
          "durationTicks": 96,
          "midi": 53,
          "name": "F3",
          "ticks": 158880,
          "time": 219.69007875,
          "velocity": 0.25196850393700787
        },
        {
          "duration": 0.1327432500000043,
          "durationTicks": 96,
          "midi": 56,
          "name": "G#3",
          "ticks": 158976,
          "time": 219.822822,
          "velocity": 0.25196850393700787
        },
        {
          "duration": 0.1327432500000043,
          "durationTicks": 96,
          "midi": 56,
          "name": "G#3",
          "ticks": 159168,
          "time": 220.0883085,
          "velocity": 0.25196850393700787
        },
        {
          "duration": 0.1327432500000043,
          "durationTicks": 96,
          "midi": 51,
          "name": "D#3",
          "ticks": 159552,
          "time": 220.6192815,
          "velocity": 0.25196850393700787
        },
        {
          "duration": 0.1327432500000043,
          "durationTicks": 96,
          "midi": 53,
          "name": "F3",
          "ticks": 159648,
          "time": 220.75202475,
          "velocity": 0.25196850393700787
        },
        {
          "duration": 0.1327432500000043,
          "durationTicks": 96,
          "midi": 56,
          "name": "G#3",
          "ticks": 159840,
          "time": 221.01751125,
          "velocity": 0.25196850393700787
        },
        {
          "duration": 0.1327432499999759,
          "durationTicks": 96,
          "midi": 56,
          "name": "G#3",
          "ticks": 160128,
          "time": 221.41574100000003,
          "velocity": 0.25196850393700787
        },
        {
          "duration": 0.1327432500000043,
          "durationTicks": 96,
          "midi": 53,
          "name": "F3",
          "ticks": 160416,
          "time": 221.81397075,
          "velocity": 0.25196850393700787
        },
        {
          "duration": 0.1327432500000043,
          "durationTicks": 96,
          "midi": 56,
          "name": "G#3",
          "ticks": 160512,
          "time": 221.94671400000001,
          "velocity": 0.25196850393700787
        },
        {
          "duration": 0.1327432499999759,
          "durationTicks": 96,
          "midi": 56,
          "name": "G#3",
          "ticks": 160704,
          "time": 222.21220050000002,
          "velocity": 0.25196850393700787
        },
        {
          "duration": 0.1327432500000043,
          "durationTicks": 96,
          "midi": 56,
          "name": "G#3",
          "ticks": 160992,
          "time": 222.61043025,
          "velocity": 0.25196850393700787
        },
        {
          "duration": 0.1327432500000043,
          "durationTicks": 96,
          "midi": 56,
          "name": "G#3",
          "ticks": 161184,
          "time": 222.87591675000002,
          "velocity": 0.25196850393700787
        },
        {
          "duration": 0.1327432499999759,
          "durationTicks": 96,
          "midi": 56,
          "name": "G#3",
          "ticks": 161376,
          "time": 223.14140325000002,
          "velocity": 0.25196850393700787
        },
        {
          "duration": 0.1327432500000043,
          "durationTicks": 96,
          "midi": 56,
          "name": "G#3",
          "ticks": 161664,
          "time": 223.539633,
          "velocity": 0.25196850393700787
        },
        {
          "duration": 0.1327432499999759,
          "durationTicks": 96,
          "midi": 53,
          "name": "F3",
          "ticks": 161952,
          "time": 223.93786275000002,
          "velocity": 0.25196850393700787
        },
        {
          "duration": 0.1327432500000043,
          "durationTicks": 96,
          "midi": 56,
          "name": "G#3",
          "ticks": 162048,
          "time": 224.070606,
          "velocity": 0.25196850393700787
        },
        {
          "duration": 0.1327432500000043,
          "durationTicks": 96,
          "midi": 56,
          "name": "G#3",
          "ticks": 162336,
          "time": 224.46883575,
          "velocity": 0.25196850393700787
        },
        {
          "duration": 0.1327432499999759,
          "durationTicks": 96,
          "midi": 53,
          "name": "F3",
          "ticks": 162624,
          "time": 224.86706550000002,
          "velocity": 0.25196850393700787
        },
        {
          "duration": 0.1327432500000043,
          "durationTicks": 96,
          "midi": 56,
          "name": "G#3",
          "ticks": 162720,
          "time": 224.99980875,
          "velocity": 0.25196850393700787
        },
        {
          "duration": 0.1327432500000043,
          "durationTicks": 96,
          "midi": 56,
          "name": "G#3",
          "ticks": 162912,
          "time": 225.26529525,
          "velocity": 0.25196850393700787
        },
        {
          "duration": 0.1327432500000043,
          "durationTicks": 96,
          "midi": 56,
          "name": "G#3",
          "ticks": 163200,
          "time": 225.66352500000002,
          "velocity": 0.25196850393700787
        },
        {
          "duration": 0.1327432500000043,
          "durationTicks": 96,
          "midi": 53,
          "name": "F3",
          "ticks": 163488,
          "time": 226.06175475,
          "velocity": 0.25196850393700787
        },
        {
          "duration": 0.1327432500000043,
          "durationTicks": 96,
          "midi": 56,
          "name": "G#3",
          "ticks": 163584,
          "time": 226.194498,
          "velocity": 0.25196850393700787
        },
        {
          "duration": 0.1327432500000043,
          "durationTicks": 96,
          "midi": 56,
          "name": "G#3",
          "ticks": 163776,
          "time": 226.45998450000002,
          "velocity": 0.25196850393700787
        },
        {
          "duration": 0.1327432500000043,
          "durationTicks": 96,
          "midi": 56,
          "name": "G#3",
          "ticks": 163968,
          "time": 226.725471,
          "velocity": 0.25196850393700787
        },
        {
          "duration": 0.1327432500000043,
          "durationTicks": 96,
          "midi": 58,
          "name": "A#3",
          "ticks": 164064,
          "time": 226.85821425,
          "velocity": 0.25196850393700787
        },
        {
          "duration": 0.1327432500000043,
          "durationTicks": 96,
          "midi": 56,
          "name": "G#3",
          "ticks": 164448,
          "time": 227.38918725000002,
          "velocity": 0.25196850393700787
        },
        {
          "duration": 0.1327432500000043,
          "durationTicks": 96,
          "midi": 56,
          "name": "G#3",
          "ticks": 164736,
          "time": 227.787417,
          "velocity": 0.25196850393700787
        },
        {
          "duration": 0.1327432500000043,
          "durationTicks": 96,
          "midi": 53,
          "name": "F3",
          "ticks": 165024,
          "time": 228.18564675000002,
          "velocity": 0.25196850393700787
        },
        {
          "duration": 0.1327432499999759,
          "durationTicks": 96,
          "midi": 56,
          "name": "G#3",
          "ticks": 165120,
          "time": 228.31839000000002,
          "velocity": 0.25196850393700787
        },
        {
          "duration": 0.1327432500000043,
          "durationTicks": 96,
          "midi": 56,
          "name": "G#3",
          "ticks": 165312,
          "time": 228.5838765,
          "velocity": 0.25196850393700787
        },
        {
          "duration": 0.1327432500000043,
          "durationTicks": 96,
          "midi": 51,
          "name": "D#3",
          "ticks": 165696,
          "time": 229.11484950000002,
          "velocity": 0.25196850393700787
        },
        {
          "duration": 0.1327432499999759,
          "durationTicks": 96,
          "midi": 53,
          "name": "F3",
          "ticks": 165792,
          "time": 229.24759275000002,
          "velocity": 0.25196850393700787
        },
        {
          "duration": 0.1327432500000043,
          "durationTicks": 96,
          "midi": 56,
          "name": "G#3",
          "ticks": 165984,
          "time": 229.51307925,
          "velocity": 0.25196850393700787
        },
        {
          "duration": 0.1327432500000043,
          "durationTicks": 96,
          "midi": 56,
          "name": "G#3",
          "ticks": 166272,
          "time": 229.91130900000002,
          "velocity": 0.25196850393700787
        },
        {
          "duration": 0.1327432500000043,
          "durationTicks": 96,
          "midi": 53,
          "name": "F3",
          "ticks": 166560,
          "time": 230.30953875,
          "velocity": 0.25196850393700787
        },
        {
          "duration": 0.1327432500000043,
          "durationTicks": 96,
          "midi": 56,
          "name": "G#3",
          "ticks": 166656,
          "time": 230.442282,
          "velocity": 0.25196850393700787
        },
        {
          "duration": 0.1327432500000043,
          "durationTicks": 96,
          "midi": 56,
          "name": "G#3",
          "ticks": 166848,
          "time": 230.70776850000001,
          "velocity": 0.25196850393700787
        },
        {
          "duration": 0.1327432500000043,
          "durationTicks": 96,
          "midi": 56,
          "name": "G#3",
          "ticks": 167136,
          "time": 231.10599825,
          "velocity": 0.25196850393700787
        },
        {
          "duration": 0.1327432500000043,
          "durationTicks": 96,
          "midi": 56,
          "name": "G#3",
          "ticks": 167328,
          "time": 231.37148475,
          "velocity": 0.25196850393700787
        },
        {
          "duration": 0.1327432500000043,
          "durationTicks": 96,
          "midi": 56,
          "name": "G#3",
          "ticks": 167520,
          "time": 231.63697125000002,
          "velocity": 0.25196850393700787
        },
        {
          "duration": 0.1327432500000043,
          "durationTicks": 96,
          "midi": 56,
          "name": "G#3",
          "ticks": 167808,
          "time": 232.035201,
          "velocity": 0.25196850393700787
        },
        {
          "duration": 0.1327432500000043,
          "durationTicks": 96,
          "midi": 53,
          "name": "F3",
          "ticks": 168096,
          "time": 232.43343075,
          "velocity": 0.25196850393700787
        },
        {
          "duration": 0.1327432500000043,
          "durationTicks": 96,
          "midi": 56,
          "name": "G#3",
          "ticks": 168192,
          "time": 232.56617400000002,
          "velocity": 0.25196850393700787
        },
        {
          "duration": 0.1327432500000043,
          "durationTicks": 96,
          "midi": 56,
          "name": "G#3",
          "ticks": 168480,
          "time": 232.96440375,
          "velocity": 0.25196850393700787
        },
        {
          "duration": 0.1327432500000043,
          "durationTicks": 96,
          "midi": 53,
          "name": "F3",
          "ticks": 168768,
          "time": 233.36263350000002,
          "velocity": 0.25196850393700787
        },
        {
          "duration": 0.1327432500000043,
          "durationTicks": 96,
          "midi": 56,
          "name": "G#3",
          "ticks": 168864,
          "time": 233.49537675000002,
          "velocity": 0.25196850393700787
        },
        {
          "duration": 0.1327432500000043,
          "durationTicks": 96,
          "midi": 56,
          "name": "G#3",
          "ticks": 169056,
          "time": 233.76086325,
          "velocity": 0.25196850393700787
        },
        {
          "duration": 0.1327432500000043,
          "durationTicks": 96,
          "midi": 56,
          "name": "G#3",
          "ticks": 169344,
          "time": 234.159093,
          "velocity": 0.25196850393700787
        },
        {
          "duration": 0.1327432499999759,
          "durationTicks": 96,
          "midi": 53,
          "name": "F3",
          "ticks": 169632,
          "time": 234.55732275000003,
          "velocity": 0.25196850393700787
        },
        {
          "duration": 0.1327432500000043,
          "durationTicks": 96,
          "midi": 56,
          "name": "G#3",
          "ticks": 169728,
          "time": 234.690066,
          "velocity": 0.25196850393700787
        },
        {
          "duration": 0.1327432500000043,
          "durationTicks": 96,
          "midi": 56,
          "name": "G#3",
          "ticks": 169920,
          "time": 234.9555525,
          "velocity": 0.25196850393700787
        },
        {
          "duration": 0.1327432500000043,
          "durationTicks": 96,
          "midi": 56,
          "name": "G#3",
          "ticks": 170112,
          "time": 235.22103900000002,
          "velocity": 0.25196850393700787
        },
        {
          "duration": 0.1327432499999759,
          "durationTicks": 96,
          "midi": 58,
          "name": "A#3",
          "ticks": 170208,
          "time": 235.35378225000002,
          "velocity": 0.25196850393700787
        },
        {
          "duration": 0.1327432500000043,
          "durationTicks": 96,
          "midi": 56,
          "name": "G#3",
          "ticks": 170592,
          "time": 235.88475525,
          "velocity": 0.25196850393700787
        },
        {
          "duration": 0.1327432499999759,
          "durationTicks": 96,
          "midi": 56,
          "name": "G#3",
          "ticks": 170880,
          "time": 236.28298500000002,
          "velocity": 0.25196850393700787
        },
        {
          "duration": 0.1327432500000043,
          "durationTicks": 96,
          "midi": 53,
          "name": "F3",
          "ticks": 171168,
          "time": 236.68121475,
          "velocity": 0.25196850393700787
        },
        {
          "duration": 0.1327432500000043,
          "durationTicks": 96,
          "midi": 56,
          "name": "G#3",
          "ticks": 171264,
          "time": 236.813958,
          "velocity": 0.25196850393700787
        },
        {
          "duration": 0.1327432500000043,
          "durationTicks": 96,
          "midi": 56,
          "name": "G#3",
          "ticks": 171456,
          "time": 237.07944450000002,
          "velocity": 0.25196850393700787
        },
        {
          "duration": 0.1327432500000043,
          "durationTicks": 96,
          "midi": 51,
          "name": "D#3",
          "ticks": 171840,
          "time": 237.6104175,
          "velocity": 0.25196850393700787
        },
        {
          "duration": 0.1327432500000043,
          "durationTicks": 96,
          "midi": 53,
          "name": "F3",
          "ticks": 171936,
          "time": 237.74316075000002,
          "velocity": 0.25196850393700787
        },
        {
          "duration": 0.1327432499999759,
          "durationTicks": 96,
          "midi": 56,
          "name": "G#3",
          "ticks": 172128,
          "time": 238.00864725000002,
          "velocity": 0.25196850393700787
        },
        {
          "duration": 0.1327432500000043,
          "durationTicks": 96,
          "midi": 56,
          "name": "G#3",
          "ticks": 172416,
          "time": 238.406877,
          "velocity": 0.25196850393700787
        },
        {
          "duration": 0.1327432500000043,
          "durationTicks": 96,
          "midi": 53,
          "name": "F3",
          "ticks": 172704,
          "time": 238.80510675000002,
          "velocity": 0.25196850393700787
        },
        {
          "duration": 0.1327432499999759,
          "durationTicks": 96,
          "midi": 56,
          "name": "G#3",
          "ticks": 172800,
          "time": 238.93785000000003,
          "velocity": 0.25196850393700787
        },
        {
          "duration": 0.1327432500000043,
          "durationTicks": 96,
          "midi": 56,
          "name": "G#3",
          "ticks": 172992,
          "time": 239.2033365,
          "velocity": 0.25196850393700787
        },
        {
          "duration": 0.1327432500000043,
          "durationTicks": 96,
          "midi": 56,
          "name": "G#3",
          "ticks": 173280,
          "time": 239.60156625000002,
          "velocity": 0.25196850393700787
        },
        {
          "duration": 0.1327432500000043,
          "durationTicks": 96,
          "midi": 56,
          "name": "G#3",
          "ticks": 173472,
          "time": 239.86705275,
          "velocity": 0.25196850393700787
        }
      ],
      "endOfTrackTicks": 173568
    }
  ]
}
