{
  "header": {
    "keySignatures": [
      {
        "key": "Eb",
        "scale": "major",
        "ticks": 0
      },
      {
        "key": "E",
        "scale": "major",
        "ticks": 136320
      },
      {
        "key": "E",
        "scale": "major",
        "ticks": 151680
      },
      {
        "key": "Eb",
        "scale": "major",
        "ticks": 0
      },
      {
        "key": "E",
        "scale": "major",
        "ticks": 136320
      },
      {
        "key": "E",
        "scale": "major",
        "ticks": 151680
      }
    ],
    "meta": [],
    "name": "Piano",
    "ppq": 480,
    "tempos": [
      {
        "bpm": 89.9999550000225,
        "ticks": 0
      },
      {
        "bpm": 229.99961666730556,
        "ticks": 11040
      },
      {
        "bpm": 229.99961666730556,
        "ticks": 26879
      },
      {
        "bpm": 229.99961666730556,
        "ticks": 88319
      },
      {
        "bpm": 229.99961666730556,
        "ticks": 151679
      }
    ],
    "timeSignatures": [
      {
        "ticks": 0,
        "timeSignature": [2, 2],
        "measures": 0
      }
    ]
  },
  "tracks": [
    {
      "channel": 0,
      "controlChanges": {
        "6": [
          {
            "number": 6,
            "ticks": 0,
            "time": 0,
            "value": 0.09448818897637795
          }
        ],
        "7": [
          {
            "number": 7,
            "ticks": 0,
            "time": 0,
            "value": 0.7874015748031497
          }
        ],
        "10": [
          {
            "number": 10,
            "ticks": 0,
            "time": 0,
            "value": 0.5039370078740157
          }
        ],
        "91": [
          {
            "number": 91,
            "ticks": 0,
            "time": 0,
            "value": 0
          }
        ],
        "93": [
          {
            "number": 93,
            "ticks": 0,
            "time": 0,
            "value": 0
          }
        ],
        "100": [
          {
            "number": 100,
            "ticks": 0,
            "time": 0,
            "value": 0
          },
          {
            "number": 100,
            "ticks": 0,
            "time": 0,
            "value": 1
          }
        ],
        "101": [
          {
            "number": 101,
            "ticks": 0,
            "time": 0,
            "value": 0
          },
          {
            "number": 101,
            "ticks": 0,
            "time": 0,
            "value": 1
          }
        ],
        "121": [
          {
            "number": 121,
            "ticks": 0,
            "time": 0,
            "value": 0
          }
        ]
      },
      "pitchBends": [],
      "instrument": {
        "family": "piano",
        "number": 0,
        "name": "acoustic grand piano"
      },
      "name": "Piano",
      "notes": [
        {
          "duration": 1.2652784104166668,
          "durationTicks": 911,
          "midi": 63,
          "name": "D#4",
          "ticks": 0,
          "time": 0,
          "velocity": 0.3858267716535433
        },
        {
          "duration": 1.2652784104166668,
          "durationTicks": 911,
          "midi": 70,
          "name": "A#4",
          "ticks": 0,
          "time": 0,
          "velocity": 0.3858267716535433
        },
        {
          "duration": 0.6319447604166666,
          "durationTicks": 455,
          "midi": 63,
          "name": "D#4",
          "ticks": 960,
          "time": 1.333334,
          "velocity": 0.3858267716535433
        },
        {
          "duration": 0.6319447604166666,
          "durationTicks": 455,
          "midi": 67,
          "name": "G4",
          "ticks": 960,
          "time": 1.333334,
          "velocity": 0.3858267716535433
        },
        {
          "duration": 0.6319447604166664,
          "durationTicks": 455,
          "midi": 63,
          "name": "D#4",
          "ticks": 1440,
          "time": 2.000001,
          "velocity": 0.4094488188976378
        },
        {
          "duration": 0.6319447604166668,
          "durationTicks": 455,
          "midi": 62,
          "name": "D4",
          "ticks": 1920,
          "time": 2.666668,
          "velocity": 0.4409448818897638
        },
        {
          "duration": 0.6319447604166668,
          "durationTicks": 455,
          "midi": 65,
          "name": "F4",
          "ticks": 1920,
          "time": 2.666668,
          "velocity": 0.4409448818897638
        },
        {
          "duration": 0.6319447604166668,
          "durationTicks": 455,
          "midi": 63,
          "name": "D#4",
          "ticks": 2400,
          "time": 3.333335,
          "velocity": 0.47244094488188976
        },
        {
          "duration": 0.6319447604166668,
          "durationTicks": 455,
          "midi": 67,
          "name": "G4",
          "ticks": 2400,
          "time": 3.333335,
          "velocity": 0.47244094488188976
        },
        {
          "duration": 0.6319447604166664,
          "durationTicks": 455,
          "midi": 65,
          "name": "F4",
          "ticks": 2880,
          "time": 4.000002,
          "velocity": 0.5039370078740157
        },
        {
          "duration": 0.6319447604166664,
          "durationTicks": 455,
          "midi": 74,
          "name": "D5",
          "ticks": 2880,
          "time": 4.000002,
          "velocity": 0.5039370078740157
        },
        {
          "duration": 0.6319447604166673,
          "durationTicks": 455,
          "midi": 63,
          "name": "D#4",
          "ticks": 3360,
          "time": 4.666669,
          "velocity": 0.5354330708661418
        },
        {
          "duration": 0.6319447604166673,
          "durationTicks": 455,
          "midi": 72,
          "name": "C5",
          "ticks": 3360,
          "time": 4.666669,
          "velocity": 0.5354330708661418
        },
        {
          "duration": 1.331945110416667,
          "durationTicks": 959,
          "midi": 68,
          "name": "G#4",
          "ticks": 3840,
          "time": 5.333336,
          "velocity": 0.5669291338582677
        },
        {
          "duration": 1.2652784104166672,
          "durationTicks": 911,
          "midi": 75,
          "name": "D#5",
          "ticks": 3887,
          "time": 5.398613810416666,
          "velocity": 0.5669291338582677
        },
        {
          "duration": 0.6319447604166664,
          "durationTicks": 455,
          "midi": 72,
          "name": "C5",
          "ticks": 4800,
          "time": 6.66667,
          "velocity": 0.6299212598425197
        },
        {
          "duration": 0.6319447604166664,
          "durationTicks": 455,
          "midi": 68,
          "name": "G#4",
          "ticks": 5280,
          "time": 7.333337,
          "velocity": 0.6614173228346457
        },
        {
          "duration": 1.2652784104166663,
          "durationTicks": 911,
          "midi": 60,
          "name": "C4",
          "ticks": 5760,
          "time": 8.000004,
          "velocity": 0.6929133858267716
        },
        {
          "duration": 1.265278410416668,
          "durationTicks": 911,
          "midi": 59,
          "name": "B3",
          "ticks": 6720,
          "time": 9.333338,
          "velocity": 0.7559055118110236
        },
        {
          "duration": 0.22083344375000102,
          "durationTicks": 159,
          "midi": 62,
          "name": "D4",
          "ticks": 7680,
          "time": 10.666672,
          "velocity": 1
        },
        {
          "duration": 0.22083344375000102,
          "durationTicks": 159,
          "midi": 70,
          "name": "A#4",
          "ticks": 7680,
          "time": 10.666672,
          "velocity": 1
        },
        {
          "duration": 0.12336977083333345,
          "durationTicks": 227,
          "midi": 73,
          "name": "C#5",
          "ticks": 11040,
          "time": 15.333341,
          "velocity": 0.7401574803149606
        },
        {
          "duration": 0.12336977083333345,
          "durationTicks": 227,
          "midi": 74,
          "name": "D5",
          "ticks": 11280,
          "time": 15.463776000000001,
          "velocity": 0.7401574803149606
        },
        {
          "duration": 0.4951095208333314,
          "durationTicks": 911,
          "midi": 75,
          "name": "D#5",
          "ticks": 11520,
          "time": 15.594211000000001,
          "velocity": 0.7401574803149606
        },
        {
          "duration": 0.12989152083333444,
          "durationTicks": 239,
          "midi": 67,
          "name": "G4",
          "ticks": 12000,
          "time": 15.855081,
          "velocity": 0.7401574803149606
        },
        {
          "duration": 0.12989152083333444,
          "durationTicks": 239,
          "midi": 70,
          "name": "A#4",
          "ticks": 12000,
          "time": 15.855081,
          "velocity": 0.7401574803149606
        },
        {
          "duration": 0.12989152083333266,
          "durationTicks": 239,
          "midi": 67,
          "name": "G4",
          "ticks": 12960,
          "time": 16.376821,
          "velocity": 0.7401574803149606
        },
        {
          "duration": 0.12989152083333266,
          "durationTicks": 239,
          "midi": 70,
          "name": "A#4",
          "ticks": 12960,
          "time": 16.376821,
          "velocity": 0.7401574803149606
        },
        {
          "duration": 0.26032652083333474,
          "durationTicks": 479,
          "midi": 82,
          "name": "A#5",
          "ticks": 13440,
          "time": 16.637691,
          "velocity": 0.7401574803149606
        },
        {
          "duration": 0.12989152083333266,
          "durationTicks": 239,
          "midi": 79,
          "name": "G5",
          "ticks": 13920,
          "time": 16.898561,
          "velocity": 0.7401574803149606
        },
        {
          "duration": 0.12989152083333266,
          "durationTicks": 239,
          "midi": 67,
          "name": "G4",
          "ticks": 13920,
          "time": 16.898561,
          "velocity": 0.7401574803149606
        },
        {
          "duration": 0.12989152083333266,
          "durationTicks": 239,
          "midi": 70,
          "name": "A#4",
          "ticks": 13920,
          "time": 16.898561,
          "velocity": 0.7401574803149606
        },
        {
          "duration": 0.2603265208333312,
          "durationTicks": 479,
          "midi": 79,
          "name": "G5",
          "ticks": 14400,
          "time": 17.159431,
          "velocity": 0.7401574803149606
        },
        {
          "duration": 0.12989152083333266,
          "durationTicks": 239,
          "midi": 77,
          "name": "F5",
          "ticks": 14880,
          "time": 17.420301000000002,
          "velocity": 0.7401574803149606
        },
        {
          "duration": 0.12989152083333266,
          "durationTicks": 239,
          "midi": 67,
          "name": "G4",
          "ticks": 14880,
          "time": 17.420301000000002,
          "velocity": 0.7401574803149606
        },
        {
          "duration": 0.12989152083333266,
          "durationTicks": 239,
          "midi": 70,
          "name": "A#4",
          "ticks": 14880,
          "time": 17.420301000000002,
          "velocity": 0.7401574803149606
        },
        {
          "duration": 0.4951095208333349,
          "durationTicks": 911,
          "midi": 75,
          "name": "D#5",
          "ticks": 15360,
          "time": 17.681171,
          "velocity": 0.7401574803149606
        },
        {
          "duration": 0.12989152083333622,
          "durationTicks": 239,
          "midi": 67,
          "name": "G4",
          "ticks": 15840,
          "time": 17.942041,
          "velocity": 0.7401574803149606
        },
        {
          "duration": 0.12989152083333622,
          "durationTicks": 239,
          "midi": 72,
          "name": "C5",
          "ticks": 15840,
          "time": 17.942041,
          "velocity": 0.7401574803149606
        },
        {
          "duration": 0.12989152083333266,
          "durationTicks": 239,
          "midi": 67,
          "name": "G4",
          "ticks": 16800,
          "time": 18.463781,
          "velocity": 0.7401574803149606
        },
        {
          "duration": 0.12989152083333266,
          "durationTicks": 239,
          "midi": 72,
          "name": "C5",
          "ticks": 16800,
          "time": 18.463781,
          "velocity": 0.7401574803149606
        },
        {
          "duration": 0.2603265208333312,
          "durationTicks": 479,
          "midi": 82,
          "name": "A#5",
          "ticks": 17280,
          "time": 18.724651,
          "velocity": 0.7401574803149606
        },
        {
          "duration": 0.12989152083333266,
          "durationTicks": 239,
          "midi": 79,
          "name": "G5",
          "ticks": 17760,
          "time": 18.985521000000002,
          "velocity": 0.7401574803149606
        },
        {
          "duration": 0.12989152083333266,
          "durationTicks": 239,
          "midi": 67,
          "name": "G4",
          "ticks": 17760,
          "time": 18.985521000000002,
          "velocity": 0.7401574803149606
        },
        {
          "duration": 0.12989152083333266,
          "durationTicks": 239,
          "midi": 73,
          "name": "C#5",
          "ticks": 17760,
          "time": 18.985521000000002,
          "velocity": 0.7401574803149606
        },
        {
          "duration": 0.26032652083333474,
          "durationTicks": 479,
          "midi": 79,
          "name": "G5",
          "ticks": 18240,
          "time": 19.246391,
          "velocity": 0.7401574803149606
        },
        {
          "duration": 0.12989152083333266,
          "durationTicks": 239,
          "midi": 77,
          "name": "F5",
          "ticks": 18720,
          "time": 19.507261,
          "velocity": 0.7401574803149606
        },
        {
          "duration": 0.12989152083333266,
          "durationTicks": 239,
          "midi": 67,
          "name": "G4",
          "ticks": 18720,
          "time": 19.507261,
          "velocity": 0.7401574803149606
        },
        {
          "duration": 0.12989152083333266,
          "durationTicks": 239,
          "midi": 73,
          "name": "C#5",
          "ticks": 18720,
          "time": 19.507261,
          "velocity": 0.7401574803149606
        },
        {
          "duration": 0.12989152083333266,
          "durationTicks": 239,
          "midi": 78,
          "name": "F#5",
          "ticks": 18960,
          "time": 19.637696000000002,
          "velocity": 0.7401574803149606
        },
        {
          "duration": 0.4951095208333349,
          "durationTicks": 911,
          "midi": 79,
          "name": "G5",
          "ticks": 19200,
          "time": 19.768131,
          "velocity": 0.7401574803149606
        },
        {
          "duration": 0.12989152083333266,
          "durationTicks": 239,
          "midi": 68,
          "name": "G#4",
          "ticks": 19680,
          "time": 20.029001,
          "velocity": 0.7401574803149606
        },
        {
          "duration": 0.12989152083333266,
          "durationTicks": 239,
          "midi": 72,
          "name": "C5",
          "ticks": 19680,
          "time": 20.029001,
          "velocity": 0.7401574803149606
        },
        {
          "duration": 0.12989152083333266,
          "durationTicks": 239,
          "midi": 68,
          "name": "G#4",
          "ticks": 20640,
          "time": 20.550741000000002,
          "velocity": 0.7401574803149606
        },
        {
          "duration": 0.12989152083333266,
          "durationTicks": 239,
          "midi": 72,
          "name": "C5",
          "ticks": 20640,
          "time": 20.550741000000002,
          "velocity": 0.7401574803149606
        },
        {
          "duration": 0.26032652083333474,
          "durationTicks": 479,
          "midi": 82,
          "name": "A#5",
          "ticks": 21120,
          "time": 20.811611,
          "velocity": 0.7401574803149606
        },
        {
          "duration": 0.12989152083333266,
          "durationTicks": 239,
          "midi": 79,
          "name": "G5",
          "ticks": 21600,
          "time": 21.072481,
          "velocity": 0.7401574803149606
        },
        {
          "duration": 0.12989152083333266,
          "durationTicks": 239,
          "midi": 67,
          "name": "G4",
          "ticks": 21600,
          "time": 21.072481,
          "velocity": 0.7401574803149606
        },
        {
          "duration": 0.12989152083333266,
          "durationTicks": 239,
          "midi": 72,
          "name": "C5",
          "ticks": 21600,
          "time": 21.072481,
          "velocity": 0.7401574803149606
        },
        {
          "duration": 0.2603265208333312,
          "durationTicks": 479,
          "midi": 79,
          "name": "G5",
          "ticks": 22080,
          "time": 21.333351,
          "velocity": 0.7401574803149606
        },
        {
          "duration": 0.2603265208333312,
          "durationTicks": 479,
          "midi": 77,
          "name": "F5",
          "ticks": 22560,
          "time": 21.594221,
          "velocity": 0.7401574803149606
        },
        {
          "duration": 0.12989152083333266,
          "durationTicks": 239,
          "midi": 67,
          "name": "G4",
          "ticks": 22560,
          "time": 21.594221,
          "velocity": 0.7401574803149606
        },
        {
          "duration": 0.12989152083333266,
          "durationTicks": 239,
          "midi": 72,
          "name": "C5",
          "ticks": 22560,
          "time": 21.594221,
          "velocity": 0.7401574803149606
        },
        {
          "duration": 0.12989152083333266,
          "durationTicks": 239,
          "midi": 75,
          "name": "D#5",
          "ticks": 23040,
          "time": 21.855091,
          "velocity": 0.7401574803149606
        },
        {
          "duration": 0.12989152083333266,
          "durationTicks": 239,
          "midi": 72,
          "name": "C5",
          "ticks": 23520,
          "time": 22.115961,
          "velocity": 0.7401574803149606
        },
        {
          "duration": 0.12989152083333266,
          "durationTicks": 239,
          "midi": 65,
          "name": "F4",
          "ticks": 23520,
          "time": 22.115961,
          "velocity": 0.7401574803149606
        },
        {
          "duration": 0.12989152083333266,
          "durationTicks": 239,
          "midi": 68,
          "name": "G#4",
          "ticks": 23520,
          "time": 22.115961,
          "velocity": 0.7401574803149606
        },
        {
          "duration": 0.12989152083333622,
          "durationTicks": 239,
          "midi": 75,
          "name": "D#5",
          "ticks": 24000,
          "time": 22.376831,
          "velocity": 0.7401574803149606
        },
        {
          "duration": 0.12989152083333266,
          "durationTicks": 239,
          "midi": 77,
          "name": "F5",
          "ticks": 24480,
          "time": 22.637701,
          "velocity": 0.7401574803149606
        },
        {
          "duration": 0.12989152083333266,
          "durationTicks": 239,
          "midi": 65,
          "name": "F4",
          "ticks": 24480,
          "time": 22.637701,
          "velocity": 0.7401574803149606
        },
        {
          "duration": 0.12989152083333266,
          "durationTicks": 239,
          "midi": 68,
          "name": "G#4",
          "ticks": 24480,
          "time": 22.637701,
          "velocity": 0.7401574803149606
        },
        {
          "duration": 0.24728302083333276,
          "durationTicks": 455,
          "midi": 82,
          "name": "A#5",
          "ticks": 24960,
          "time": 22.898571,
          "velocity": 0.7401574803149606
        },
        {
          "duration": 0.12989152083333266,
          "durationTicks": 239,
          "midi": 72,
          "name": "C5",
          "ticks": 25440,
          "time": 23.159441,
          "velocity": 0.7401574803149606
        },
        {
          "duration": 0.12989152083333266,
          "durationTicks": 239,
          "midi": 65,
          "name": "F4",
          "ticks": 25440,
          "time": 23.159441,
          "velocity": 0.7401574803149606
        },
        {
          "duration": 0.12989152083333266,
          "durationTicks": 239,
          "midi": 70,
          "name": "A#4",
          "ticks": 25440,
          "time": 23.159441,
          "velocity": 0.7401574803149606
        },
        {
          "duration": 0.12989152083333266,
          "durationTicks": 239,
          "midi": 75,
          "name": "D#5",
          "ticks": 25920,
          "time": 23.420310999999998,
          "velocity": 0.7401574803149606
        },
        {
          "duration": 0.12989152083333266,
          "durationTicks": 239,
          "midi": 77,
          "name": "F5",
          "ticks": 26400,
          "time": 23.681181000000002,
          "velocity": 0.7401574803149606
        },
        {
          "duration": 0.12989152083333266,
          "durationTicks": 239,
          "midi": 65,
          "name": "F4",
          "ticks": 26400,
          "time": 23.681181000000002,
          "velocity": 0.7401574803149606
        },
        {
          "duration": 0.12989152083333266,
          "durationTicks": 239,
          "midi": 70,
          "name": "A#4",
          "ticks": 26400,
          "time": 23.681181000000002,
          "velocity": 0.7401574803149606
        },
        {
          "duration": 0.4951095208333349,
          "durationTicks": 911,
          "midi": 75,
          "name": "D#5",
          "ticks": 26880,
          "time": 23.942051,
          "velocity": 0.7401574803149606
        },
        {
          "duration": 0.12989152083333266,
          "durationTicks": 239,
          "midi": 67,
          "name": "G4",
          "ticks": 27360,
          "time": 24.202921,
          "velocity": 0.7401574803149606
        },
        {
          "duration": 0.12989152083333266,
          "durationTicks": 239,
          "midi": 70,
          "name": "A#4",
          "ticks": 27360,
          "time": 24.202921,
          "velocity": 0.7401574803149606
        },
        {
          "duration": 0.12989152083333266,
          "durationTicks": 239,
          "midi": 67,
          "name": "G4",
          "ticks": 28320,
          "time": 24.724661,
          "velocity": 0.7401574803149606
        },
        {
          "duration": 0.12989152083333266,
          "durationTicks": 239,
          "midi": 70,
          "name": "A#4",
          "ticks": 28320,
          "time": 24.724661,
          "velocity": 0.7401574803149606
        },
        {
          "duration": 0.2603265208333312,
          "durationTicks": 479,
          "midi": 82,
          "name": "A#5",
          "ticks": 28800,
          "time": 24.985531,
          "velocity": 0.7401574803149606
        },
        {
          "duration": 0.12989152083333622,
          "durationTicks": 239,
          "midi": 79,
          "name": "G5",
          "ticks": 29280,
          "time": 25.246401,
          "velocity": 0.7401574803149606
        },
        {
          "duration": 0.12989152083333622,
          "durationTicks": 239,
          "midi": 67,
          "name": "G4",
          "ticks": 29280,
          "time": 25.246401,
          "velocity": 0.7401574803149606
        },
        {
          "duration": 0.12989152083333622,
          "durationTicks": 239,
          "midi": 70,
          "name": "A#4",
          "ticks": 29280,
          "time": 25.246401,
          "velocity": 0.7401574803149606
        },
        {
          "duration": 0.26032652083333474,
          "durationTicks": 479,
          "midi": 79,
          "name": "G5",
          "ticks": 29760,
          "time": 25.507271,
          "velocity": 0.7401574803149606
        },
        {
          "duration": 0.12989152083333266,
          "durationTicks": 239,
          "midi": 77,
          "name": "F5",
          "ticks": 30240,
          "time": 25.768141,
          "velocity": 0.7401574803149606
        },
        {
          "duration": 0.12989152083333266,
          "durationTicks": 239,
          "midi": 67,
          "name": "G4",
          "ticks": 30240,
          "time": 25.768141,
          "velocity": 0.7401574803149606
        },
        {
          "duration": 0.12989152083333266,
          "durationTicks": 239,
          "midi": 70,
          "name": "A#4",
          "ticks": 30240,
          "time": 25.768141,
          "velocity": 0.7401574803149606
        },
        {
          "duration": 0.4951095208333314,
          "durationTicks": 911,
          "midi": 75,
          "name": "D#5",
          "ticks": 30720,
          "time": 26.029011,
          "velocity": 0.7401574803149606
        },
        {
          "duration": 0.12989152083333266,
          "durationTicks": 239,
          "midi": 67,
          "name": "G4",
          "ticks": 31200,
          "time": 26.289881,
          "velocity": 0.7401574803149606
        },
        {
          "duration": 0.12989152083333266,
          "durationTicks": 239,
          "midi": 72,
          "name": "C5",
          "ticks": 31200,
          "time": 26.289881,
          "velocity": 0.7401574803149606
        },
        {
          "duration": 0.12989152083333622,
          "durationTicks": 239,
          "midi": 67,
          "name": "G4",
          "ticks": 32160,
          "time": 26.811621,
          "velocity": 0.7401574803149606
        },
        {
          "duration": 0.12989152083333622,
          "durationTicks": 239,
          "midi": 72,
          "name": "C5",
          "ticks": 32160,
          "time": 26.811621,
          "velocity": 0.7401574803149606
        },
        {
          "duration": 0.26032652083333474,
          "durationTicks": 479,
          "midi": 82,
          "name": "A#5",
          "ticks": 32640,
          "time": 27.072491,
          "velocity": 0.7401574803149606
        },
        {
          "duration": 0.12989152083333266,
          "durationTicks": 239,
          "midi": 79,
          "name": "G5",
          "ticks": 33120,
          "time": 27.333361,
          "velocity": 0.7401574803149606
        },
        {
          "duration": 0.12989152083333266,
          "durationTicks": 239,
          "midi": 67,
          "name": "G4",
          "ticks": 33120,
          "time": 27.333361,
          "velocity": 0.7401574803149606
        },
        {
          "duration": 0.12989152083333266,
          "durationTicks": 239,
          "midi": 73,
          "name": "C#5",
          "ticks": 33120,
          "time": 27.333361,
          "velocity": 0.7401574803149606
        },
        {
          "duration": 0.2603265208333312,
          "durationTicks": 479,
          "midi": 79,
          "name": "G5",
          "ticks": 33600,
          "time": 27.594231,
          "velocity": 0.7401574803149606
        },
        {
          "duration": 0.12989152083333266,
          "durationTicks": 239,
          "midi": 77,
          "name": "F5",
          "ticks": 34080,
          "time": 27.855101,
          "velocity": 0.7401574803149606
        },
        {
          "duration": 0.12989152083333266,
          "durationTicks": 239,
          "midi": 67,
          "name": "G4",
          "ticks": 34080,
          "time": 27.855101,
          "velocity": 0.7401574803149606
        },
        {
          "duration": 0.12989152083333266,
          "durationTicks": 239,
          "midi": 73,
          "name": "C#5",
          "ticks": 34080,
          "time": 27.855101,
          "velocity": 0.7401574803149606
        },
        {
          "duration": 0.12989152083333266,
          "durationTicks": 239,
          "midi": 78,
          "name": "F#5",
          "ticks": 34320,
          "time": 27.985536,
          "velocity": 0.7401574803149606
        },
        {
          "duration": 0.4951095208333314,
          "durationTicks": 911,
          "midi": 79,
          "name": "G5",
          "ticks": 34560,
          "time": 28.115971000000002,
          "velocity": 0.7401574803149606
        },
        {
          "duration": 0.12989152083333266,
          "durationTicks": 239,
          "midi": 68,
          "name": "G#4",
          "ticks": 35040,
          "time": 28.376841,
          "velocity": 0.7401574803149606
        },
        {
          "duration": 0.12989152083333266,
          "durationTicks": 239,
          "midi": 72,
          "name": "C5",
          "ticks": 35040,
          "time": 28.376841,
          "velocity": 0.7401574803149606
        },
        {
          "duration": 0.12989152083333266,
          "durationTicks": 239,
          "midi": 68,
          "name": "G#4",
          "ticks": 36000,
          "time": 28.898581,
          "velocity": 0.7401574803149606
        },
        {
          "duration": 0.12989152083333266,
          "durationTicks": 239,
          "midi": 72,
          "name": "C5",
          "ticks": 36000,
          "time": 28.898581,
          "velocity": 0.7401574803149606
        },
        {
          "duration": 0.26032652083333474,
          "durationTicks": 479,
          "midi": 82,
          "name": "A#5",
          "ticks": 36480,
          "time": 29.159451,
          "velocity": 0.7401574803149606
        },
        {
          "duration": 0.12989152083333266,
          "durationTicks": 239,
          "midi": 79,
          "name": "G5",
          "ticks": 36960,
          "time": 29.420321,
          "velocity": 0.7401574803149606
        },
        {
          "duration": 0.12989152083333266,
          "durationTicks": 239,
          "midi": 67,
          "name": "G4",
          "ticks": 36960,
          "time": 29.420321,
          "velocity": 0.7401574803149606
        },
        {
          "duration": 0.12989152083333266,
          "durationTicks": 239,
          "midi": 72,
          "name": "C5",
          "ticks": 36960,
          "time": 29.420321,
          "velocity": 0.7401574803149606
        },
        {
          "duration": 0.26032652083333474,
          "durationTicks": 479,
          "midi": 79,
          "name": "G5",
          "ticks": 37440,
          "time": 29.681191,
          "velocity": 0.7401574803149606
        },
        {
          "duration": 0.2603265208333312,
          "durationTicks": 479,
          "midi": 77,
          "name": "F5",
          "ticks": 37920,
          "time": 29.942061000000002,
          "velocity": 0.7401574803149606
        },
        {
          "duration": 0.12989152083333266,
          "durationTicks": 239,
          "midi": 67,
          "name": "G4",
          "ticks": 37920,
          "time": 29.942061000000002,
          "velocity": 0.7401574803149606
        },
        {
          "duration": 0.12989152083333266,
          "durationTicks": 239,
          "midi": 72,
          "name": "C5",
          "ticks": 37920,
          "time": 29.942061000000002,
          "velocity": 0.7401574803149606
        },
        {
          "duration": 0.12989152083333266,
          "durationTicks": 239,
          "midi": 75,
          "name": "D#5",
          "ticks": 38400,
          "time": 30.202931,
          "velocity": 0.7401574803149606
        },
        {
          "duration": 0.12989152083333266,
          "durationTicks": 239,
          "midi": 72,
          "name": "C5",
          "ticks": 38880,
          "time": 30.463801,
          "velocity": 0.7401574803149606
        },
        {
          "duration": 0.12989152083333266,
          "durationTicks": 239,
          "midi": 65,
          "name": "F4",
          "ticks": 38880,
          "time": 30.463801,
          "velocity": 0.7401574803149606
        },
        {
          "duration": 0.12989152083333266,
          "durationTicks": 239,
          "midi": 68,
          "name": "G#4",
          "ticks": 38880,
          "time": 30.463801,
          "velocity": 0.7401574803149606
        },
        {
          "duration": 0.12989152083333266,
          "durationTicks": 239,
          "midi": 75,
          "name": "D#5",
          "ticks": 39360,
          "time": 30.724671,
          "velocity": 0.7401574803149606
        },
        {
          "duration": 0.12989152083333266,
          "durationTicks": 239,
          "midi": 77,
          "name": "F5",
          "ticks": 39840,
          "time": 30.985541,
          "velocity": 0.7401574803149606
        },
        {
          "duration": 0.12989152083333266,
          "durationTicks": 239,
          "midi": 65,
          "name": "F4",
          "ticks": 39840,
          "time": 30.985541,
          "velocity": 0.7401574803149606
        },
        {
          "duration": 0.12989152083333266,
          "durationTicks": 239,
          "midi": 68,
          "name": "G#4",
          "ticks": 39840,
          "time": 30.985541,
          "velocity": 0.7401574803149606
        },
        {
          "duration": 0.2472830208333292,
          "durationTicks": 455,
          "midi": 82,
          "name": "A#5",
          "ticks": 40320,
          "time": 31.246411000000002,
          "velocity": 0.7401574803149606
        },
        {
          "duration": 0.12989152083333266,
          "durationTicks": 239,
          "midi": 72,
          "name": "C5",
          "ticks": 40800,
          "time": 31.507281,
          "velocity": 0.7401574803149606
        },
        {
          "duration": 0.12989152083333266,
          "durationTicks": 239,
          "midi": 65,
          "name": "F4",
          "ticks": 40800,
          "time": 31.507281,
          "velocity": 0.7401574803149606
        },
        {
          "duration": 0.12989152083333266,
          "durationTicks": 239,
          "midi": 70,
          "name": "A#4",
          "ticks": 40800,
          "time": 31.507281,
          "velocity": 0.7401574803149606
        },
        {
          "duration": 0.12989152083333266,
          "durationTicks": 239,
          "midi": 75,
          "name": "D#5",
          "ticks": 41280,
          "time": 31.768151,
          "velocity": 0.7401574803149606
        },
        {
          "duration": 0.12989152083333266,
          "durationTicks": 239,
          "midi": 77,
          "name": "F5",
          "ticks": 41760,
          "time": 32.029021,
          "velocity": 0.7401574803149606
        },
        {
          "duration": 0.12989152083333266,
          "durationTicks": 239,
          "midi": 65,
          "name": "F4",
          "ticks": 41760,
          "time": 32.029021,
          "velocity": 0.7401574803149606
        },
        {
          "duration": 0.12989152083333266,
          "durationTicks": 239,
          "midi": 70,
          "name": "A#4",
          "ticks": 41760,
          "time": 32.029021,
          "velocity": 0.7401574803149606
        },
        {
          "duration": 0.19510902083333548,
          "durationTicks": 359,
          "midi": 79,
          "name": "G5",
          "ticks": 42240,
          "time": 32.289891,
          "velocity": 0.7401574803149606
        },
        {
          "duration": 0.19510902083333548,
          "durationTicks": 359,
          "midi": 75,
          "name": "D#5",
          "ticks": 42960,
          "time": 32.681196,
          "velocity": 0.7401574803149606
        },
        {
          "duration": 0.12989152083333266,
          "durationTicks": 239,
          "midi": 70,
          "name": "A#4",
          "ticks": 43680,
          "time": 33.072501,
          "velocity": 0.7401574803149606
        },
        {
          "duration": 0.19510902083333548,
          "durationTicks": 359,
          "midi": 79,
          "name": "G5",
          "ticks": 44160,
          "time": 33.333371,
          "velocity": 0.7401574803149606
        },
        {
          "duration": 0.19510902083332837,
          "durationTicks": 359,
          "midi": 75,
          "name": "D#5",
          "ticks": 44880,
          "time": 33.724676,
          "velocity": 0.7401574803149606
        },
        {
          "duration": 0.12989152083333266,
          "durationTicks": 239,
          "midi": 70,
          "name": "A#4",
          "ticks": 45600,
          "time": 34.115981,
          "velocity": 0.7401574803149606
        },
        {
          "duration": 0.3907615208333297,
          "durationTicks": 719,
          "midi": 75,
          "name": "D#5",
          "ticks": 46080,
          "time": 34.376851,
          "velocity": 0.7401574803149606
        },
        {
          "duration": 0.19510902083333548,
          "durationTicks": 359,
          "midi": 72,
          "name": "C5",
          "ticks": 46800,
          "time": 34.768156,
          "velocity": 0.7401574803149606
        },
        {
          "duration": 0.7429360208333335,
          "durationTicks": 1367,
          "midi": 70,
          "name": "A#4",
          "ticks": 47520,
          "time": 35.159461,
          "velocity": 0.7401574803149606
        },
        {
          "duration": 0.12336977083333522,
          "durationTicks": 227,
          "midi": 67,
          "name": "G4",
          "ticks": 48960,
          "time": 35.942071,
          "velocity": 0.7401574803149606
        },
        {
          "duration": 0.12336977083333522,
          "durationTicks": 227,
          "midi": 68,
          "name": "G#4",
          "ticks": 49200,
          "time": 36.072506,
          "velocity": 0.7401574803149606
        },
        {
          "duration": 0.12336977083333522,
          "durationTicks": 227,
          "midi": 69,
          "name": "A4",
          "ticks": 49440,
          "time": 36.202940999999996,
          "velocity": 0.7401574803149606
        },
        {
          "duration": 0.12336977083333522,
          "durationTicks": 227,
          "midi": 70,
          "name": "A#4",
          "ticks": 49680,
          "time": 36.333376,
          "velocity": 0.7401574803149606
        },
        {
          "duration": 0.19510902083333548,
          "durationTicks": 359,
          "midi": 79,
          "name": "G5",
          "ticks": 49920,
          "time": 36.463811,
          "velocity": 0.7401574803149606
        },
        {
          "duration": 0.19510902083333548,
          "durationTicks": 359,
          "midi": 75,
          "name": "D#5",
          "ticks": 50640,
          "time": 36.855115999999995,
          "velocity": 0.7401574803149606
        },
        {
          "duration": 0.12989152083333266,
          "durationTicks": 239,
          "midi": 70,
          "name": "A#4",
          "ticks": 51360,
          "time": 37.246421,
          "velocity": 0.7401574803149606
        },
        {
          "duration": 0.19510902083333548,
          "durationTicks": 359,
          "midi": 79,
          "name": "G5",
          "ticks": 51840,
          "time": 37.507290999999995,
          "velocity": 0.7401574803149606
        },
        {
          "duration": 0.19510902083333548,
          "durationTicks": 359,
          "midi": 75,
          "name": "D#5",
          "ticks": 52560,
          "time": 37.898596,
          "velocity": 0.7401574803149606
        },
        {
          "duration": 0.12989152083333266,
          "durationTicks": 239,
          "midi": 70,
          "name": "A#4",
          "ticks": 53280,
          "time": 38.289901,
          "velocity": 0.7401574803149606
        },
        {
          "duration": 0.3711962708333374,
          "durationTicks": 683,
          "midi": 72,
          "name": "C5",
          "ticks": 53760,
          "time": 38.550771,
          "velocity": 0.7401574803149606
        },
        {
          "duration": 0.3711962708333303,
          "durationTicks": 683,
          "midi": 72,
          "name": "C5",
          "ticks": 54480,
          "time": 38.942076,
          "velocity": 0.7401574803149606
        },
        {
          "duration": 0.5081530208333334,
          "durationTicks": 935,
          "midi": 73,
          "name": "C#5",
          "ticks": 55200,
          "time": 39.333381,
          "velocity": 0.7401574803149606
        },
        {
          "duration": 0.2603265208333312,
          "durationTicks": 479,
          "midi": 70,
          "name": "A#4",
          "ticks": 56160,
          "time": 39.855121,
          "velocity": 0.7401574803149606
        },
        {
          "duration": 0.2603265208333383,
          "durationTicks": 479,
          "midi": 77,
          "name": "F5",
          "ticks": 56640,
          "time": 40.115990999999994,
          "velocity": 0.7401574803149606
        },
        {
          "duration": 0.12989152083333266,
          "durationTicks": 239,
          "midi": 75,
          "name": "D#5",
          "ticks": 57120,
          "time": 40.376861,
          "velocity": 0.7401574803149606
        },
        {
          "duration": 0.12989152083333977,
          "durationTicks": 239,
          "midi": 77,
          "name": "F5",
          "ticks": 57360,
          "time": 40.507296,
          "velocity": 0.7401574803149606
        },
        {
          "duration": 0.19510902083332837,
          "durationTicks": 359,
          "midi": 79,
          "name": "G5",
          "ticks": 57600,
          "time": 40.637731,
          "velocity": 0.7401574803149606
        },
        {
          "duration": 0.19510902083333548,
          "durationTicks": 359,
          "midi": 75,
          "name": "D#5",
          "ticks": 58320,
          "time": 41.029036,
          "velocity": 0.7401574803149606
        },
        {
          "duration": 0.12989152083333266,
          "durationTicks": 239,
          "midi": 70,
          "name": "A#4",
          "ticks": 59040,
          "time": 41.420341,
          "velocity": 0.7401574803149606
        },
        {
          "duration": 0.19510902083333548,
          "durationTicks": 359,
          "midi": 79,
          "name": "G5",
          "ticks": 59520,
          "time": 41.681211,
          "velocity": 0.7401574803149606
        },
        {
          "duration": 0.19510902083333548,
          "durationTicks": 359,
          "midi": 75,
          "name": "D#5",
          "ticks": 60240,
          "time": 42.072516,
          "velocity": 0.7401574803149606
        },
        {
          "duration": 0.12989152083333977,
          "durationTicks": 239,
          "midi": 70,
          "name": "A#4",
          "ticks": 60960,
          "time": 42.463820999999996,
          "velocity": 0.7401574803149606
        },
        {
          "duration": 0.3907615208333297,
          "durationTicks": 719,
          "midi": 75,
          "name": "D#5",
          "ticks": 61440,
          "time": 42.724691,
          "velocity": 0.7401574803149606
        },
        {
          "duration": 0.19510902083333548,
          "durationTicks": 359,
          "midi": 72,
          "name": "C5",
          "ticks": 62160,
          "time": 43.115995999999996,
          "velocity": 0.7401574803149606
        },
        {
          "duration": 0.7429360208333335,
          "durationTicks": 1367,
          "midi": 70,
          "name": "A#4",
          "ticks": 62880,
          "time": 43.507301,
          "velocity": 0.7401574803149606
        },
        {
          "duration": 0.12336977083332812,
          "durationTicks": 227,
          "midi": 67,
          "name": "G4",
          "ticks": 64320,
          "time": 44.289911000000004,
          "velocity": 0.7401574803149606
        },
        {
          "duration": 0.12336977083333522,
          "durationTicks": 227,
          "midi": 68,
          "name": "G#4",
          "ticks": 64560,
          "time": 44.420345999999995,
          "velocity": 0.7401574803149606
        },
        {
          "duration": 0.12336977083333522,
          "durationTicks": 227,
          "midi": 69,
          "name": "A4",
          "ticks": 64800,
          "time": 44.550781,
          "velocity": 0.7401574803149606
        },
        {
          "duration": 0.12336977083332812,
          "durationTicks": 227,
          "midi": 70,
          "name": "A#4",
          "ticks": 65040,
          "time": 44.681216,
          "velocity": 0.7401574803149606
        },
        {
          "duration": 0.19510902083333548,
          "durationTicks": 359,
          "midi": 79,
          "name": "G5",
          "ticks": 65280,
          "time": 44.811651,
          "velocity": 0.7401574803149606
        },
        {
          "duration": 0.19510902083332837,
          "durationTicks": 359,
          "midi": 75,
          "name": "D#5",
          "ticks": 66000,
          "time": 45.202956,
          "velocity": 0.7401574803149606
        },
        {
          "duration": 0.12989152083332556,
          "durationTicks": 239,
          "midi": 70,
          "name": "A#4",
          "ticks": 66720,
          "time": 45.594261,
          "velocity": 0.7401574803149606
        },
        {
          "duration": 0.19510902083332837,
          "durationTicks": 359,
          "midi": 79,
          "name": "G5",
          "ticks": 67200,
          "time": 45.855131,
          "velocity": 0.7401574803149606
        },
        {
          "duration": 0.19510902083332837,
          "durationTicks": 359,
          "midi": 77,
          "name": "F5",
          "ticks": 67920,
          "time": 46.246436,
          "velocity": 0.7401574803149606
        },
        {
          "duration": 0.12989152083333266,
          "durationTicks": 239,
          "midi": 75,
          "name": "D#5",
          "ticks": 68640,
          "time": 46.637741,
          "velocity": 0.7401574803149606
        },
        {
          "duration": 0.3907615208333297,
          "durationTicks": 719,
          "midi": 77,
          "name": "F5",
          "ticks": 69120,
          "time": 46.898611,
          "velocity": 0.7401574803149606
        },
        {
          "duration": 0.19510902083333548,
          "durationTicks": 359,
          "midi": 77,
          "name": "F5",
          "ticks": 69840,
          "time": 47.289916,
          "velocity": 0.7401574803149606
        },
        {
          "duration": 0.9907625208333428,
          "durationTicks": 1823,
          "midi": 68,
          "name": "G#4",
          "ticks": 70560,
          "time": 47.681220999999994,
          "velocity": 0.7401574803149606
        },
        {
          "duration": 0.9907625208333428,
          "durationTicks": 1823,
          "midi": 74,
          "name": "D5",
          "ticks": 70560,
          "time": 47.681220999999994,
          "velocity": 0.7401574803149606
        },
        {
          "duration": 0.9907625208333428,
          "durationTicks": 1823,
          "midi": 78,
          "name": "F#5",
          "ticks": 70560,
          "time": 47.681220999999994,
          "velocity": 0.7401574803149606
        },
        {
          "duration": 0.12336977083333522,
          "durationTicks": 227,
          "midi": 78,
          "name": "F#5",
          "ticks": 72480,
          "time": 48.724700999999996,
          "velocity": 0.7401574803149606
        },
        {
          "duration": 0.12336977083332812,
          "durationTicks": 227,
          "midi": 77,
          "name": "F5",
          "ticks": 72720,
          "time": 48.855136,
          "velocity": 0.7401574803149606
        },
        {
          "duration": 0.4951095208333314,
          "durationTicks": 911,
          "midi": 75,
          "name": "D#5",
          "ticks": 72960,
          "time": 48.985571,
          "velocity": 0.7401574803149606
        },
        {
          "duration": 0.12989152083333266,
          "durationTicks": 239,
          "midi": 67,
          "name": "G4",
          "ticks": 73440,
          "time": 49.246441,
          "velocity": 0.7401574803149606
        },
        {
          "duration": 0.12989152083333266,
          "durationTicks": 239,
          "midi": 70,
          "name": "A#4",
          "ticks": 73440,
          "time": 49.246441,
          "velocity": 0.7401574803149606
        },
        {
          "duration": 0.12989152083333266,
          "durationTicks": 239,
          "midi": 67,
          "name": "G4",
          "ticks": 74400,
          "time": 49.768181,
          "velocity": 0.7401574803149606
        },
        {
          "duration": 0.12989152083333266,
          "durationTicks": 239,
          "midi": 70,
          "name": "A#4",
          "ticks": 74400,
          "time": 49.768181,
          "velocity": 0.7401574803149606
        },
        {
          "duration": 0.2603265208333383,
          "durationTicks": 479,
          "midi": 82,
          "name": "A#5",
          "ticks": 74880,
          "time": 50.029050999999995,
          "velocity": 0.7401574803149606
        },
        {
          "duration": 0.12989152083333266,
          "durationTicks": 239,
          "midi": 79,
          "name": "G5",
          "ticks": 75360,
          "time": 50.289921,
          "velocity": 0.7401574803149606
        },
        {
          "duration": 0.12989152083333266,
          "durationTicks": 239,
          "midi": 67,
          "name": "G4",
          "ticks": 75360,
          "time": 50.289921,
          "velocity": 0.7401574803149606
        },
        {
          "duration": 0.12989152083333266,
          "durationTicks": 239,
          "midi": 70,
          "name": "A#4",
          "ticks": 75360,
          "time": 50.289921,
          "velocity": 0.7401574803149606
        },
        {
          "duration": 0.2603265208333312,
          "durationTicks": 479,
          "midi": 79,
          "name": "G5",
          "ticks": 75840,
          "time": 50.550791000000004,
          "velocity": 0.7401574803149606
        },
        {
          "duration": 0.12989152083333266,
          "durationTicks": 239,
          "midi": 77,
          "name": "F5",
          "ticks": 76320,
          "time": 50.811661,
          "velocity": 0.7401574803149606
        },
        {
          "duration": 0.12989152083333266,
          "durationTicks": 239,
          "midi": 67,
          "name": "G4",
          "ticks": 76320,
          "time": 50.811661,
          "velocity": 0.7401574803149606
        },
        {
          "duration": 0.12989152083333266,
          "durationTicks": 239,
          "midi": 70,
          "name": "A#4",
          "ticks": 76320,
          "time": 50.811661,
          "velocity": 0.7401574803149606
        },
        {
          "duration": 0.4951095208333385,
          "durationTicks": 911,
          "midi": 75,
          "name": "D#5",
          "ticks": 76800,
          "time": 51.072531,
          "velocity": 0.7401574803149606
        },
        {
          "duration": 0.12989152083333977,
          "durationTicks": 239,
          "midi": 67,
          "name": "G4",
          "ticks": 77280,
          "time": 51.333400999999995,
          "velocity": 0.7401574803149606
        },
        {
          "duration": 0.12989152083333977,
          "durationTicks": 239,
          "midi": 72,
          "name": "C5",
          "ticks": 77280,
          "time": 51.333400999999995,
          "velocity": 0.7401574803149606
        },
        {
          "duration": 0.12989152083332556,
          "durationTicks": 239,
          "midi": 67,
          "name": "G4",
          "ticks": 78240,
          "time": 51.855141,
          "velocity": 0.7401574803149606
        },
        {
          "duration": 0.12989152083332556,
          "durationTicks": 239,
          "midi": 72,
          "name": "C5",
          "ticks": 78240,
          "time": 51.855141,
          "velocity": 0.7401574803149606
        },
        {
          "duration": 0.2603265208333312,
          "durationTicks": 479,
          "midi": 82,
          "name": "A#5",
          "ticks": 78720,
          "time": 52.116011,
          "velocity": 0.7401574803149606
        },
        {
          "duration": 0.12989152083333977,
          "durationTicks": 239,
          "midi": 79,
          "name": "G5",
          "ticks": 79200,
          "time": 52.376881,
          "velocity": 0.7401574803149606
        },
        {
          "duration": 0.12989152083333977,
          "durationTicks": 239,
          "midi": 67,
          "name": "G4",
          "ticks": 79200,
          "time": 52.376881,
          "velocity": 0.7401574803149606
        },
        {
          "duration": 0.12989152083333977,
          "durationTicks": 239,
          "midi": 73,
          "name": "C#5",
          "ticks": 79200,
          "time": 52.376881,
          "velocity": 0.7401574803149606
        },
        {
          "duration": 0.2603265208333383,
          "durationTicks": 479,
          "midi": 79,
          "name": "G5",
          "ticks": 79680,
          "time": 52.637750999999994,
          "velocity": 0.7401574803149606
        },
        {
          "duration": 0.12989152083333266,
          "durationTicks": 239,
          "midi": 77,
          "name": "F5",
          "ticks": 80160,
          "time": 52.898621,
          "velocity": 0.7401574803149606
        },
        {
          "duration": 0.12989152083333266,
          "durationTicks": 239,
          "midi": 67,
          "name": "G4",
          "ticks": 80160,
          "time": 52.898621,
          "velocity": 0.7401574803149606
        },
        {
          "duration": 0.12989152083333266,
          "durationTicks": 239,
          "midi": 73,
          "name": "C#5",
          "ticks": 80160,
          "time": 52.898621,
          "velocity": 0.7401574803149606
        },
        {
          "duration": 0.12989152083333977,
          "durationTicks": 239,
          "midi": 78,
          "name": "F#5",
          "ticks": 80400,
          "time": 53.029056,
          "velocity": 0.7401574803149606
        },
        {
          "duration": 0.4951095208333314,
          "durationTicks": 911,
          "midi": 79,
          "name": "G5",
          "ticks": 80640,
          "time": 53.159491,
          "velocity": 0.7401574803149606
        },
        {
          "duration": 0.12989152083333266,
          "durationTicks": 239,
          "midi": 68,
          "name": "G#4",
          "ticks": 81120,
          "time": 53.420361,
          "velocity": 0.7401574803149606
        },
        {
          "duration": 0.12989152083333266,
          "durationTicks": 239,
          "midi": 72,
          "name": "C5",
          "ticks": 81120,
          "time": 53.420361,
          "velocity": 0.7401574803149606
        },
        {
          "duration": 0.12989152083333977,
          "durationTicks": 239,
          "midi": 68,
          "name": "G#4",
          "ticks": 82080,
          "time": 53.942100999999994,
          "velocity": 0.7401574803149606
        },
        {
          "duration": 0.12989152083333977,
          "durationTicks": 239,
          "midi": 72,
          "name": "C5",
          "ticks": 82080,
          "time": 53.942100999999994,
          "velocity": 0.7401574803149606
        },
        {
          "duration": 0.2603265208333383,
          "durationTicks": 479,
          "midi": 82,
          "name": "A#5",
          "ticks": 82560,
          "time": 54.202971,
          "velocity": 0.7401574803149606
        },
        {
          "duration": 0.12989152083332556,
          "durationTicks": 239,
          "midi": 79,
          "name": "G5",
          "ticks": 83040,
          "time": 54.463841,
          "velocity": 0.7401574803149606
        },
        {
          "duration": 0.12989152083332556,
          "durationTicks": 239,
          "midi": 67,
          "name": "G4",
          "ticks": 83040,
          "time": 54.463841,
          "velocity": 0.7401574803149606
        },
        {
          "duration": 0.12989152083332556,
          "durationTicks": 239,
          "midi": 72,
          "name": "C5",
          "ticks": 83040,
          "time": 54.463841,
          "velocity": 0.7401574803149606
        },
        {
          "duration": 0.2603265208333312,
          "durationTicks": 479,
          "midi": 79,
          "name": "G5",
          "ticks": 83520,
          "time": 54.724711,
          "velocity": 0.7401574803149606
        },
        {
          "duration": 0.2603265208333312,
          "durationTicks": 479,
          "midi": 77,
          "name": "F5",
          "ticks": 84000,
          "time": 54.985580999999996,
          "velocity": 0.7401574803149606
        },
        {
          "duration": 0.12989152083333977,
          "durationTicks": 239,
          "midi": 67,
          "name": "G4",
          "ticks": 84000,
          "time": 54.985580999999996,
          "velocity": 0.7401574803149606
        },
        {
          "duration": 0.12989152083333977,
          "durationTicks": 239,
          "midi": 72,
          "name": "C5",
          "ticks": 84000,
          "time": 54.985580999999996,
          "velocity": 0.7401574803149606
        },
        {
          "duration": 0.12989152083333977,
          "durationTicks": 239,
          "midi": 75,
          "name": "D#5",
          "ticks": 84480,
          "time": 55.24645099999999,
          "velocity": 0.7401574803149606
        },
        {
          "duration": 0.12989152083333266,
          "durationTicks": 239,
          "midi": 72,
          "name": "C5",
          "ticks": 84960,
          "time": 55.507321,
          "velocity": 0.7401574803149606
        },
        {
          "duration": 0.12989152083333266,
          "durationTicks": 239,
          "midi": 65,
          "name": "F4",
          "ticks": 84960,
          "time": 55.507321,
          "velocity": 0.7401574803149606
        },
        {
          "duration": 0.12989152083333266,
          "durationTicks": 239,
          "midi": 68,
          "name": "G#4",
          "ticks": 84960,
          "time": 55.507321,
          "velocity": 0.7401574803149606
        },
        {
          "duration": 0.12989152083332556,
          "durationTicks": 239,
          "midi": 75,
          "name": "D#5",
          "ticks": 85440,
          "time": 55.768191,
          "velocity": 0.7401574803149606
        },
        {
          "duration": 0.12989152083333266,
          "durationTicks": 239,
          "midi": 77,
          "name": "F5",
          "ticks": 85920,
          "time": 56.029061,
          "velocity": 0.7401574803149606
        },
        {
          "duration": 0.12989152083333266,
          "durationTicks": 239,
          "midi": 65,
          "name": "F4",
          "ticks": 85920,
          "time": 56.029061,
          "velocity": 0.7401574803149606
        },
        {
          "duration": 0.12989152083333266,
          "durationTicks": 239,
          "midi": 68,
          "name": "G#4",
          "ticks": 85920,
          "time": 56.029061,
          "velocity": 0.7401574803149606
        },
        {
          "duration": 0.2472830208333363,
          "durationTicks": 455,
          "midi": 82,
          "name": "A#5",
          "ticks": 86400,
          "time": 56.289930999999996,
          "velocity": 0.7401574803149606
        },
        {
          "duration": 0.12989152083333266,
          "durationTicks": 239,
          "midi": 72,
          "name": "C5",
          "ticks": 86880,
          "time": 56.550801,
          "velocity": 0.7401574803149606
        },
        {
          "duration": 0.12989152083333266,
          "durationTicks": 239,
          "midi": 65,
          "name": "F4",
          "ticks": 86880,
          "time": 56.550801,
          "velocity": 0.7401574803149606
        },
        {
          "duration": 0.12989152083333266,
          "durationTicks": 239,
          "midi": 70,
          "name": "A#4",
          "ticks": 86880,
          "time": 56.550801,
          "velocity": 0.7401574803149606
        },
        {
          "duration": 0.12989152083333266,
          "durationTicks": 239,
          "midi": 75,
          "name": "D#5",
          "ticks": 87360,
          "time": 56.811671,
          "velocity": 0.7401574803149606
        },
        {
          "duration": 0.12989152083333266,
          "durationTicks": 239,
          "midi": 77,
          "name": "F5",
          "ticks": 87840,
          "time": 57.072541,
          "velocity": 0.7401574803149606
        },
        {
          "duration": 0.12989152083333266,
          "durationTicks": 239,
          "midi": 65,
          "name": "F4",
          "ticks": 87840,
          "time": 57.072541,
          "velocity": 0.7401574803149606
        },
        {
          "duration": 0.12989152083333266,
          "durationTicks": 239,
          "midi": 70,
          "name": "A#4",
          "ticks": 87840,
          "time": 57.072541,
          "velocity": 0.7401574803149606
        },
        {
          "duration": 0.4951095208333314,
          "durationTicks": 911,
          "midi": 75,
          "name": "D#5",
          "ticks": 88320,
          "time": 57.333411,
          "velocity": 0.7401574803149606
        },
        {
          "duration": 0.12989152083333266,
          "durationTicks": 239,
          "midi": 67,
          "name": "G4",
          "ticks": 88800,
          "time": 57.594281,
          "velocity": 0.7401574803149606
        },
        {
          "duration": 0.12989152083333266,
          "durationTicks": 239,
          "midi": 70,
          "name": "A#4",
          "ticks": 88800,
          "time": 57.594281,
          "velocity": 0.7401574803149606
        },
        {
          "duration": 0.12989152083333266,
          "durationTicks": 239,
          "midi": 67,
          "name": "G4",
          "ticks": 89760,
          "time": 58.116020999999996,
          "velocity": 0.7401574803149606
        },
        {
          "duration": 0.12989152083333266,
          "durationTicks": 239,
          "midi": 70,
          "name": "A#4",
          "ticks": 89760,
          "time": 58.116020999999996,
          "velocity": 0.7401574803149606
        },
        {
          "duration": 0.2603265208333312,
          "durationTicks": 479,
          "midi": 82,
          "name": "A#5",
          "ticks": 90240,
          "time": 58.376891,
          "velocity": 0.7401574803149606
        },
        {
          "duration": 0.12989152083333266,
          "durationTicks": 239,
          "midi": 79,
          "name": "G5",
          "ticks": 90720,
          "time": 58.637761,
          "velocity": 0.7401574803149606
        },
        {
          "duration": 0.12989152083333266,
          "durationTicks": 239,
          "midi": 67,
          "name": "G4",
          "ticks": 90720,
          "time": 58.637761,
          "velocity": 0.7401574803149606
        },
        {
          "duration": 0.12989152083333266,
          "durationTicks": 239,
          "midi": 70,
          "name": "A#4",
          "ticks": 90720,
          "time": 58.637761,
          "velocity": 0.7401574803149606
        },
        {
          "duration": 0.2603265208333312,
          "durationTicks": 479,
          "midi": 79,
          "name": "G5",
          "ticks": 91200,
          "time": 58.898631,
          "velocity": 0.7401574803149606
        },
        {
          "duration": 0.12989152083333266,
          "durationTicks": 239,
          "midi": 77,
          "name": "F5",
          "ticks": 91680,
          "time": 59.159501,
          "velocity": 0.7401574803149606
        },
        {
          "duration": 0.12989152083333266,
          "durationTicks": 239,
          "midi": 67,
          "name": "G4",
          "ticks": 91680,
          "time": 59.159501,
          "velocity": 0.7401574803149606
        },
        {
          "duration": 0.12989152083333266,
          "durationTicks": 239,
          "midi": 70,
          "name": "A#4",
          "ticks": 91680,
          "time": 59.159501,
          "velocity": 0.7401574803149606
        },
        {
          "duration": 0.4951095208333385,
          "durationTicks": 911,
          "midi": 75,
          "name": "D#5",
          "ticks": 92160,
          "time": 59.420370999999996,
          "velocity": 0.7401574803149606
        },
        {
          "duration": 0.12989152083333266,
          "durationTicks": 239,
          "midi": 67,
          "name": "G4",
          "ticks": 92640,
          "time": 59.681241,
          "velocity": 0.7401574803149606
        },
        {
          "duration": 0.12989152083333266,
          "durationTicks": 239,
          "midi": 72,
          "name": "C5",
          "ticks": 92640,
          "time": 59.681241,
          "velocity": 0.7401574803149606
        },
        {
          "duration": 0.12989152083333266,
          "durationTicks": 239,
          "midi": 67,
          "name": "G4",
          "ticks": 93600,
          "time": 60.202981,
          "velocity": 0.7401574803149606
        },
        {
          "duration": 0.12989152083333266,
          "durationTicks": 239,
          "midi": 72,
          "name": "C5",
          "ticks": 93600,
          "time": 60.202981,
          "velocity": 0.7401574803149606
        },
        {
          "duration": 0.2603265208333312,
          "durationTicks": 479,
          "midi": 82,
          "name": "A#5",
          "ticks": 94080,
          "time": 60.463851,
          "velocity": 0.7401574803149606
        },
        {
          "duration": 0.12989152083333266,
          "durationTicks": 239,
          "midi": 79,
          "name": "G5",
          "ticks": 94560,
          "time": 60.724721,
          "velocity": 0.7401574803149606
        },
        {
          "duration": 0.12989152083333266,
          "durationTicks": 239,
          "midi": 67,
          "name": "G4",
          "ticks": 94560,
          "time": 60.724721,
          "velocity": 0.7401574803149606
        },
        {
          "duration": 0.12989152083333266,
          "durationTicks": 239,
          "midi": 73,
          "name": "C#5",
          "ticks": 94560,
          "time": 60.724721,
          "velocity": 0.7401574803149606
        },
        {
          "duration": 0.2603265208333312,
          "durationTicks": 479,
          "midi": 79,
          "name": "G5",
          "ticks": 95040,
          "time": 60.985591,
          "velocity": 0.7401574803149606
        },
        {
          "duration": 0.12989152083333266,
          "durationTicks": 239,
          "midi": 77,
          "name": "F5",
          "ticks": 95520,
          "time": 61.246461,
          "velocity": 0.7401574803149606
        },
        {
          "duration": 0.12989152083333266,
          "durationTicks": 239,
          "midi": 67,
          "name": "G4",
          "ticks": 95520,
          "time": 61.246461,
          "velocity": 0.7401574803149606
        },
        {
          "duration": 0.12989152083333266,
          "durationTicks": 239,
          "midi": 73,
          "name": "C#5",
          "ticks": 95520,
          "time": 61.246461,
          "velocity": 0.7401574803149606
        },
        {
          "duration": 0.12989152083333266,
          "durationTicks": 239,
          "midi": 78,
          "name": "F#5",
          "ticks": 95760,
          "time": 61.376896,
          "velocity": 0.7401574803149606
        },
        {
          "duration": 0.4951095208333314,
          "durationTicks": 911,
          "midi": 79,
          "name": "G5",
          "ticks": 96000,
          "time": 61.507331,
          "velocity": 0.7401574803149606
        },
        {
          "duration": 0.12989152083333266,
          "durationTicks": 239,
          "midi": 68,
          "name": "G#4",
          "ticks": 96480,
          "time": 61.768201,
          "velocity": 0.7401574803149606
        },
        {
          "duration": 0.12989152083333266,
          "durationTicks": 239,
          "midi": 72,
          "name": "C5",
          "ticks": 96480,
          "time": 61.768201,
          "velocity": 0.7401574803149606
        },
        {
          "duration": 0.12989152083333266,
          "durationTicks": 239,
          "midi": 68,
          "name": "G#4",
          "ticks": 97440,
          "time": 62.289941,
          "velocity": 0.7401574803149606
        },
        {
          "duration": 0.12989152083333266,
          "durationTicks": 239,
          "midi": 72,
          "name": "C5",
          "ticks": 97440,
          "time": 62.289941,
          "velocity": 0.7401574803149606
        },
        {
          "duration": 0.2603265208333383,
          "durationTicks": 479,
          "midi": 82,
          "name": "A#5",
          "ticks": 97920,
          "time": 62.550810999999996,
          "velocity": 0.7401574803149606
        },
        {
          "duration": 0.12989152083333266,
          "durationTicks": 239,
          "midi": 79,
          "name": "G5",
          "ticks": 98400,
          "time": 62.811681,
          "velocity": 0.7401574803149606
        },
        {
          "duration": 0.12989152083333266,
          "durationTicks": 239,
          "midi": 67,
          "name": "G4",
          "ticks": 98400,
          "time": 62.811681,
          "velocity": 0.7401574803149606
        },
        {
          "duration": 0.12989152083333266,
          "durationTicks": 239,
          "midi": 72,
          "name": "C5",
          "ticks": 98400,
          "time": 62.811681,
          "velocity": 0.7401574803149606
        },
        {
          "duration": 0.2603265208333383,
          "durationTicks": 479,
          "midi": 79,
          "name": "G5",
          "ticks": 98880,
          "time": 63.072551,
          "velocity": 0.7401574803149606
        },
        {
          "duration": 0.2603265208333312,
          "durationTicks": 479,
          "midi": 77,
          "name": "F5",
          "ticks": 99360,
          "time": 63.333421,
          "velocity": 0.7401574803149606
        },
        {
          "duration": 0.12989152083333266,
          "durationTicks": 239,
          "midi": 67,
          "name": "G4",
          "ticks": 99360,
          "time": 63.333421,
          "velocity": 0.7401574803149606
        },
        {
          "duration": 0.12989152083333266,
          "durationTicks": 239,
          "midi": 72,
          "name": "C5",
          "ticks": 99360,
          "time": 63.333421,
          "velocity": 0.7401574803149606
        },
        {
          "duration": 0.12989152083333266,
          "durationTicks": 239,
          "midi": 75,
          "name": "D#5",
          "ticks": 99840,
          "time": 63.594291,
          "velocity": 0.7401574803149606
        },
        {
          "duration": 0.12989152083333977,
          "durationTicks": 239,
          "midi": 72,
          "name": "C5",
          "ticks": 100320,
          "time": 63.855160999999995,
          "velocity": 0.7401574803149606
        },
        {
          "duration": 0.12989152083333977,
          "durationTicks": 239,
          "midi": 65,
          "name": "F4",
          "ticks": 100320,
          "time": 63.855160999999995,
          "velocity": 0.7401574803149606
        },
        {
          "duration": 0.12989152083333977,
          "durationTicks": 239,
          "midi": 68,
          "name": "G#4",
          "ticks": 100320,
          "time": 63.855160999999995,
          "velocity": 0.7401574803149606
        },
        {
          "duration": 0.12989152083333977,
          "durationTicks": 239,
          "midi": 75,
          "name": "D#5",
          "ticks": 100800,
          "time": 64.11603099999999,
          "velocity": 0.7401574803149606
        },
        {
          "duration": 0.12989152083332556,
          "durationTicks": 239,
          "midi": 77,
          "name": "F5",
          "ticks": 101280,
          "time": 64.376901,
          "velocity": 0.7401574803149606
        },
        {
          "duration": 0.12989152083332556,
          "durationTicks": 239,
          "midi": 65,
          "name": "F4",
          "ticks": 101280,
          "time": 64.376901,
          "velocity": 0.7401574803149606
        },
        {
          "duration": 0.12989152083332556,
          "durationTicks": 239,
          "midi": 68,
          "name": "G#4",
          "ticks": 101280,
          "time": 64.376901,
          "velocity": 0.7401574803149606
        },
        {
          "duration": 0.2472830208333363,
          "durationTicks": 455,
          "midi": 82,
          "name": "A#5",
          "ticks": 101760,
          "time": 64.637771,
          "velocity": 0.7401574803149606
        },
        {
          "duration": 0.12989152083333977,
          "durationTicks": 239,
          "midi": 72,
          "name": "C5",
          "ticks": 102240,
          "time": 64.898641,
          "velocity": 0.7401574803149606
        },
        {
          "duration": 0.12989152083333977,
          "durationTicks": 239,
          "midi": 65,
          "name": "F4",
          "ticks": 102240,
          "time": 64.898641,
          "velocity": 0.7401574803149606
        },
        {
          "duration": 0.12989152083333977,
          "durationTicks": 239,
          "midi": 70,
          "name": "A#4",
          "ticks": 102240,
          "time": 64.898641,
          "velocity": 0.7401574803149606
        },
        {
          "duration": 0.12989152083333977,
          "durationTicks": 239,
          "midi": 75,
          "name": "D#5",
          "ticks": 102720,
          "time": 65.159511,
          "velocity": 0.7401574803149606
        },
        {
          "duration": 0.12989152083333977,
          "durationTicks": 239,
          "midi": 77,
          "name": "F5",
          "ticks": 103200,
          "time": 65.42038099999999,
          "velocity": 0.7401574803149606
        },
        {
          "duration": 0.12989152083333977,
          "durationTicks": 239,
          "midi": 65,
          "name": "F4",
          "ticks": 103200,
          "time": 65.42038099999999,
          "velocity": 0.7401574803149606
        },
        {
          "duration": 0.12989152083333977,
          "durationTicks": 239,
          "midi": 70,
          "name": "A#4",
          "ticks": 103200,
          "time": 65.42038099999999,
          "velocity": 0.7401574803149606
        },
        {
          "duration": 0.19510902083332837,
          "durationTicks": 359,
          "midi": 79,
          "name": "G5",
          "ticks": 103680,
          "time": 65.681251,
          "velocity": 0.7401574803149606
        },
        {
          "duration": 0.19510902083334258,
          "durationTicks": 359,
          "midi": 75,
          "name": "D#5",
          "ticks": 104400,
          "time": 66.07255599999999,
          "velocity": 0.7401574803149606
        },
        {
          "duration": 0.12989152083333977,
          "durationTicks": 239,
          "midi": 70,
          "name": "A#4",
          "ticks": 105120,
          "time": 66.463861,
          "velocity": 0.7401574803149606
        },
        {
          "duration": 0.19510902083334258,
          "durationTicks": 359,
          "midi": 79,
          "name": "G5",
          "ticks": 105600,
          "time": 66.72473099999999,
          "velocity": 0.7401574803149606
        },
        {
          "duration": 0.19510902083334258,
          "durationTicks": 359,
          "midi": 75,
          "name": "D#5",
          "ticks": 106320,
          "time": 67.116036,
          "velocity": 0.7401574803149606
        },
        {
          "duration": 0.12989152083333977,
          "durationTicks": 239,
          "midi": 70,
          "name": "A#4",
          "ticks": 107040,
          "time": 67.507341,
          "velocity": 0.7401574803149606
        },
        {
          "duration": 0.3907615208333368,
          "durationTicks": 719,
          "midi": 75,
          "name": "D#5",
          "ticks": 107520,
          "time": 67.768211,
          "velocity": 0.7401574803149606
        },
        {
          "duration": 0.19510902083334258,
          "durationTicks": 359,
          "midi": 72,
          "name": "C5",
          "ticks": 108240,
          "time": 68.159516,
          "velocity": 0.7401574803149606
        },
        {
          "duration": 0.7429360208333406,
          "durationTicks": 1367,
          "midi": 70,
          "name": "A#4",
          "ticks": 108960,
          "time": 68.550821,
          "velocity": 0.7401574803149606
        },
        {
          "duration": 0.12336977083333522,
          "durationTicks": 227,
          "midi": 67,
          "name": "G4",
          "ticks": 110400,
          "time": 69.33343099999999,
          "velocity": 0.7401574803149606
        },
        {
          "duration": 0.12336977083333522,
          "durationTicks": 227,
          "midi": 68,
          "name": "G#4",
          "ticks": 110640,
          "time": 69.463866,
          "velocity": 0.7401574803149606
        },
        {
          "duration": 0.12336977083333522,
          "durationTicks": 227,
          "midi": 69,
          "name": "A4",
          "ticks": 110880,
          "time": 69.594301,
          "velocity": 0.7401574803149606
        },
        {
          "duration": 0.12336977083333522,
          "durationTicks": 227,
          "midi": 70,
          "name": "A#4",
          "ticks": 111120,
          "time": 69.724736,
          "velocity": 0.7401574803149606
        },
        {
          "duration": 0.19510902083332837,
          "durationTicks": 359,
          "midi": 79,
          "name": "G5",
          "ticks": 111360,
          "time": 69.855171,
          "velocity": 0.7401574803149606
        },
        {
          "duration": 0.19510902083332837,
          "durationTicks": 359,
          "midi": 75,
          "name": "D#5",
          "ticks": 112080,
          "time": 70.246476,
          "velocity": 0.7401574803149606
        },
        {
          "duration": 0.12989152083332556,
          "durationTicks": 239,
          "midi": 70,
          "name": "A#4",
          "ticks": 112800,
          "time": 70.637781,
          "velocity": 0.7401574803149606
        },
        {
          "duration": 0.19510902083332837,
          "durationTicks": 359,
          "midi": 79,
          "name": "G5",
          "ticks": 113280,
          "time": 70.898651,
          "velocity": 0.7401574803149606
        },
        {
          "duration": 0.19510902083332837,
          "durationTicks": 359,
          "midi": 75,
          "name": "D#5",
          "ticks": 114000,
          "time": 71.289956,
          "velocity": 0.7401574803149606
        },
        {
          "duration": 0.12989152083333977,
          "durationTicks": 239,
          "midi": 70,
          "name": "A#4",
          "ticks": 114720,
          "time": 71.68126099999999,
          "velocity": 0.7401574803149606
        },
        {
          "duration": 0.3711962708333232,
          "durationTicks": 683,
          "midi": 72,
          "name": "C5",
          "ticks": 115200,
          "time": 71.942131,
          "velocity": 0.7401574803149606
        },
        {
          "duration": 0.3711962708333374,
          "durationTicks": 683,
          "midi": 72,
          "name": "C5",
          "ticks": 115920,
          "time": 72.33343599999999,
          "velocity": 0.7401574803149606
        },
        {
          "duration": 0.5081530208333334,
          "durationTicks": 935,
          "midi": 73,
          "name": "C#5",
          "ticks": 116640,
          "time": 72.724741,
          "velocity": 0.7401574803149606
        },
        {
          "duration": 0.2603265208333312,
          "durationTicks": 479,
          "midi": 70,
          "name": "A#4",
          "ticks": 117600,
          "time": 73.246481,
          "velocity": 0.7401574803149606
        },
        {
          "duration": 0.2603265208333312,
          "durationTicks": 479,
          "midi": 77,
          "name": "F5",
          "ticks": 118080,
          "time": 73.507351,
          "velocity": 0.7401574803149606
        },
        {
          "duration": 0.12989152083333977,
          "durationTicks": 239,
          "midi": 75,
          "name": "D#5",
          "ticks": 118560,
          "time": 73.768221,
          "velocity": 0.7401574803149606
        },
        {
          "duration": 0.12989152083332556,
          "durationTicks": 239,
          "midi": 77,
          "name": "F5",
          "ticks": 118800,
          "time": 73.898656,
          "velocity": 0.7401574803149606
        },
        {
          "duration": 0.19510902083334258,
          "durationTicks": 359,
          "midi": 79,
          "name": "G5",
          "ticks": 119040,
          "time": 74.029091,
          "velocity": 0.7401574803149606
        },
        {
          "duration": 0.19510902083332837,
          "durationTicks": 359,
          "midi": 75,
          "name": "D#5",
          "ticks": 119760,
          "time": 74.420396,
          "velocity": 0.7401574803149606
        },
        {
          "duration": 0.12989152083332556,
          "durationTicks": 239,
          "midi": 70,
          "name": "A#4",
          "ticks": 120480,
          "time": 74.811701,
          "velocity": 0.7401574803149606
        },
        {
          "duration": 0.19510902083332837,
          "durationTicks": 359,
          "midi": 79,
          "name": "G5",
          "ticks": 120960,
          "time": 75.072571,
          "velocity": 0.7401574803149606
        },
        {
          "duration": 0.19510902083332837,
          "durationTicks": 359,
          "midi": 75,
          "name": "D#5",
          "ticks": 121680,
          "time": 75.463876,
          "velocity": 0.7401574803149606
        },
        {
          "duration": 0.12989152083332556,
          "durationTicks": 239,
          "midi": 70,
          "name": "A#4",
          "ticks": 122400,
          "time": 75.855181,
          "velocity": 0.7401574803149606
        },
        {
          "duration": 0.3907615208333368,
          "durationTicks": 719,
          "midi": 75,
          "name": "D#5",
          "ticks": 122880,
          "time": 76.116051,
          "velocity": 0.7401574803149606
        },
        {
          "duration": 0.19510902083332837,
          "durationTicks": 359,
          "midi": 72,
          "name": "C5",
          "ticks": 123600,
          "time": 76.507356,
          "velocity": 0.7401574803149606
        },
        {
          "duration": 0.7429360208333264,
          "durationTicks": 1367,
          "midi": 70,
          "name": "A#4",
          "ticks": 124320,
          "time": 76.898661,
          "velocity": 0.7401574803149606
        },
        {
          "duration": 0.12336977083333522,
          "durationTicks": 227,
          "midi": 67,
          "name": "G4",
          "ticks": 125760,
          "time": 77.681271,
          "velocity": 0.7401574803149606
        },
        {
          "duration": 0.12336977083332101,
          "durationTicks": 227,
          "midi": 68,
          "name": "G#4",
          "ticks": 126000,
          "time": 77.811706,
          "velocity": 0.7401574803149606
        },
        {
          "duration": 0.12336977083333522,
          "durationTicks": 227,
          "midi": 69,
          "name": "A4",
          "ticks": 126240,
          "time": 77.94214099999999,
          "velocity": 0.7401574803149606
        },
        {
          "duration": 0.12336977083333522,
          "durationTicks": 227,
          "midi": 70,
          "name": "A#4",
          "ticks": 126480,
          "time": 78.072576,
          "velocity": 0.7401574803149606
        },
        {
          "duration": 0.19510902083332837,
          "durationTicks": 359,
          "midi": 79,
          "name": "G5",
          "ticks": 126720,
          "time": 78.203011,
          "velocity": 0.7401574803149606
        },
        {
          "duration": 0.19510902083334258,
          "durationTicks": 359,
          "midi": 75,
          "name": "D#5",
          "ticks": 127440,
          "time": 78.59431599999999,
          "velocity": 0.7401574803149606
        },
        {
          "duration": 0.12989152083333977,
          "durationTicks": 239,
          "midi": 70,
          "name": "A#4",
          "ticks": 128160,
          "time": 78.985621,
          "velocity": 0.7401574803149606
        },
        {
          "duration": 0.19510902083334258,
          "durationTicks": 359,
          "midi": 79,
          "name": "G5",
          "ticks": 128640,
          "time": 79.24649099999999,
          "velocity": 0.7401574803149606
        },
        {
          "duration": 0.19510902083332837,
          "durationTicks": 359,
          "midi": 77,
          "name": "F5",
          "ticks": 129360,
          "time": 79.637796,
          "velocity": 0.7401574803149606
        },
        {
          "duration": 0.12989152083332556,
          "durationTicks": 239,
          "midi": 75,
          "name": "D#5",
          "ticks": 130080,
          "time": 80.029101,
          "velocity": 0.7401574803149606
        },
        {
          "duration": 0.3907615208333368,
          "durationTicks": 719,
          "midi": 77,
          "name": "F5",
          "ticks": 130560,
          "time": 80.289971,
          "velocity": 0.7401574803149606
        },
        {
          "duration": 0.19510902083334258,
          "durationTicks": 359,
          "midi": 77,
          "name": "F5",
          "ticks": 131280,
          "time": 80.681276,
          "velocity": 0.7401574803149606
        },
        {
          "duration": 0.12989152083333977,
          "durationTicks": 239,
          "midi": 72,
          "name": "C5",
          "ticks": 132000,
          "time": 81.072581,
          "velocity": 0.7401574803149606
        },
        {
          "duration": 0.4951095208333385,
          "durationTicks": 911,
          "midi": 63,
          "name": "D#4",
          "ticks": 132480,
          "time": 81.333451,
          "velocity": 0.7401574803149606
        },
        {
          "duration": 0.4951095208333385,
          "durationTicks": 911,
          "midi": 70,
          "name": "A#4",
          "ticks": 132480,
          "time": 81.333451,
          "velocity": 0.7401574803149606
        },
        {
          "duration": 0.4951095208333385,
          "durationTicks": 911,
          "midi": 62,
          "name": "D4",
          "ticks": 133440,
          "time": 81.85519099999999,
          "velocity": 0.7401574803149606
        },
        {
          "duration": 0.4951095208333385,
          "durationTicks": 911,
          "midi": 69,
          "name": "A4",
          "ticks": 133440,
          "time": 81.85519099999999,
          "velocity": 0.7401574803149606
        },
        {
          "duration": 0.4951095208333385,
          "durationTicks": 911,
          "midi": 64,
          "name": "E4",
          "ticks": 134400,
          "time": 82.376931,
          "velocity": 0.7401574803149606
        },
        {
          "duration": 0.4951095208333385,
          "durationTicks": 911,
          "midi": 76,
          "name": "E5",
          "ticks": 134400,
          "time": 82.376931,
          "velocity": 0.7401574803149606
        },
        {
          "duration": 0.4951095208333385,
          "durationTicks": 911,
          "midi": 63,
          "name": "D#4",
          "ticks": 135360,
          "time": 82.898671,
          "velocity": 0.7401574803149606
        },
        {
          "duration": 0.4951095208333385,
          "durationTicks": 911,
          "midi": 75,
          "name": "D#5",
          "ticks": 135360,
          "time": 82.898671,
          "velocity": 0.7401574803149606
        },
        {
          "duration": 0.49510952083332427,
          "durationTicks": 911,
          "midi": 76,
          "name": "E5",
          "ticks": 136320,
          "time": 83.420411,
          "velocity": 0.7401574803149606
        },
        {
          "duration": 0.12989152083333977,
          "durationTicks": 239,
          "midi": 68,
          "name": "G#4",
          "ticks": 136800,
          "time": 83.681281,
          "velocity": 0.7401574803149606
        },
        {
          "duration": 0.12989152083333977,
          "durationTicks": 239,
          "midi": 71,
          "name": "B4",
          "ticks": 136800,
          "time": 83.681281,
          "velocity": 0.7401574803149606
        },
        {
          "duration": 0.12989152083333977,
          "durationTicks": 239,
          "midi": 68,
          "name": "G#4",
          "ticks": 137760,
          "time": 84.20302099999999,
          "velocity": 0.7401574803149606
        },
        {
          "duration": 0.12989152083333977,
          "durationTicks": 239,
          "midi": 71,
          "name": "B4",
          "ticks": 137760,
          "time": 84.20302099999999,
          "velocity": 0.7401574803149606
        },
        {
          "duration": 0.2603265208333454,
          "durationTicks": 479,
          "midi": 83,
          "name": "B5",
          "ticks": 138240,
          "time": 84.46389099999999,
          "velocity": 0.7401574803149606
        },
        {
          "duration": 0.12989152083332556,
          "durationTicks": 239,
          "midi": 80,
          "name": "G#5",
          "ticks": 138720,
          "time": 84.724761,
          "velocity": 0.7401574803149606
        },
        {
          "duration": 0.12989152083332556,
          "durationTicks": 239,
          "midi": 68,
          "name": "G#4",
          "ticks": 138720,
          "time": 84.724761,
          "velocity": 0.7401574803149606
        },
        {
          "duration": 0.12989152083332556,
          "durationTicks": 239,
          "midi": 71,
          "name": "B4",
          "ticks": 138720,
          "time": 84.724761,
          "velocity": 0.7401574803149606
        },
        {
          "duration": 0.2603265208333312,
          "durationTicks": 479,
          "midi": 80,
          "name": "G#5",
          "ticks": 139200,
          "time": 84.985631,
          "velocity": 0.7401574803149606
        },
        {
          "duration": 0.12989152083333977,
          "durationTicks": 239,
          "midi": 78,
          "name": "F#5",
          "ticks": 139680,
          "time": 85.246501,
          "velocity": 0.7401574803149606
        },
        {
          "duration": 0.12989152083333977,
          "durationTicks": 239,
          "midi": 68,
          "name": "G#4",
          "ticks": 139680,
          "time": 85.246501,
          "velocity": 0.7401574803149606
        },
        {
          "duration": 0.12989152083333977,
          "durationTicks": 239,
          "midi": 71,
          "name": "B4",
          "ticks": 139680,
          "time": 85.246501,
          "velocity": 0.7401574803149606
        },
        {
          "duration": 0.49510952083332427,
          "durationTicks": 911,
          "midi": 76,
          "name": "E5",
          "ticks": 140160,
          "time": 85.507371,
          "velocity": 0.7401574803149606
        },
        {
          "duration": 0.12989152083333977,
          "durationTicks": 239,
          "midi": 68,
          "name": "G#4",
          "ticks": 140640,
          "time": 85.76824099999999,
          "velocity": 0.7401574803149606
        },
        {
          "duration": 0.12989152083333977,
          "durationTicks": 239,
          "midi": 73,
          "name": "C#5",
          "ticks": 140640,
          "time": 85.76824099999999,
          "velocity": 0.7401574803149606
        },
        {
          "duration": 0.12989152083333977,
          "durationTicks": 239,
          "midi": 68,
          "name": "G#4",
          "ticks": 141600,
          "time": 86.289981,
          "velocity": 0.7401574803149606
        },
        {
          "duration": 0.12989152083333977,
          "durationTicks": 239,
          "midi": 73,
          "name": "C#5",
          "ticks": 141600,
          "time": 86.289981,
          "velocity": 0.7401574803149606
        },
        {
          "duration": 0.2603265208333312,
          "durationTicks": 479,
          "midi": 83,
          "name": "B5",
          "ticks": 142080,
          "time": 86.550851,
          "velocity": 0.7401574803149606
        },
        {
          "duration": 0.12989152083332556,
          "durationTicks": 239,
          "midi": 80,
          "name": "G#5",
          "ticks": 142560,
          "time": 86.811721,
          "velocity": 0.7401574803149606
        },
        {
          "duration": 0.12989152083332556,
          "durationTicks": 239,
          "midi": 68,
          "name": "G#4",
          "ticks": 142560,
          "time": 86.811721,
          "velocity": 0.7401574803149606
        },
        {
          "duration": 0.12989152083332556,
          "durationTicks": 239,
          "midi": 74,
          "name": "D5",
          "ticks": 142560,
          "time": 86.811721,
          "velocity": 0.7401574803149606
        },
        {
          "duration": 0.2603265208333454,
          "durationTicks": 479,
          "midi": 80,
          "name": "G#5",
          "ticks": 143040,
          "time": 87.07259099999999,
          "velocity": 0.7401574803149606
        },
        {
          "duration": 0.12989152083332556,
          "durationTicks": 239,
          "midi": 78,
          "name": "F#5",
          "ticks": 143520,
          "time": 87.333461,
          "velocity": 0.7401574803149606
        },
        {
          "duration": 0.12989152083332556,
          "durationTicks": 239,
          "midi": 68,
          "name": "G#4",
          "ticks": 143520,
          "time": 87.333461,
          "velocity": 0.7401574803149606
        },
        {
          "duration": 0.12989152083332556,
          "durationTicks": 239,
          "midi": 74,
          "name": "D5",
          "ticks": 143520,
          "time": 87.333461,
          "velocity": 0.7401574803149606
        },
        {
          "duration": 0.12989152083332556,
          "durationTicks": 239,
          "midi": 79,
          "name": "G5",
          "ticks": 143760,
          "time": 87.463896,
          "velocity": 0.7401574803149606
        },
        {
          "duration": 0.4951095208333385,
          "durationTicks": 911,
          "midi": 80,
          "name": "G#5",
          "ticks": 144000,
          "time": 87.594331,
          "velocity": 0.7401574803149606
        },
        {
          "duration": 0.12989152083333977,
          "durationTicks": 239,
          "midi": 69,
          "name": "A4",
          "ticks": 144480,
          "time": 87.855201,
          "velocity": 0.7401574803149606
        },
        {
          "duration": 0.12989152083333977,
          "durationTicks": 239,
          "midi": 73,
          "name": "C#5",
          "ticks": 144480,
          "time": 87.855201,
          "velocity": 0.7401574803149606
        },
        {
          "duration": 0.12989152083332556,
          "durationTicks": 239,
          "midi": 69,
          "name": "A4",
          "ticks": 145440,
          "time": 88.376941,
          "velocity": 0.7401574803149606
        },
        {
          "duration": 0.12989152083332556,
          "durationTicks": 239,
          "midi": 73,
          "name": "C#5",
          "ticks": 145440,
          "time": 88.376941,
          "velocity": 0.7401574803149606
        },
        {
          "duration": 0.2603265208333312,
          "durationTicks": 479,
          "midi": 83,
          "name": "B5",
          "ticks": 145920,
          "time": 88.637811,
          "velocity": 0.7401574803149606
        },
        {
          "duration": 0.12989152083333977,
          "durationTicks": 239,
          "midi": 80,
          "name": "G#5",
          "ticks": 146400,
          "time": 88.898681,
          "velocity": 0.7401574803149606
        },
        {
          "duration": 0.12989152083333977,
          "durationTicks": 239,
          "midi": 68,
          "name": "G#4",
          "ticks": 146400,
          "time": 88.898681,
          "velocity": 0.7401574803149606
        },
        {
          "duration": 0.12989152083333977,
          "durationTicks": 239,
          "midi": 73,
          "name": "C#5",
          "ticks": 146400,
          "time": 88.898681,
          "velocity": 0.7401574803149606
        },
        {
          "duration": 0.2603265208333312,
          "durationTicks": 479,
          "midi": 80,
          "name": "G#5",
          "ticks": 146880,
          "time": 89.159551,
          "velocity": 0.7401574803149606
        },
        {
          "duration": 0.2603265208333312,
          "durationTicks": 479,
          "midi": 78,
          "name": "F#5",
          "ticks": 147360,
          "time": 89.420421,
          "velocity": 0.7401574803149606
        },
        {
          "duration": 0.12989152083332556,
          "durationTicks": 239,
          "midi": 68,
          "name": "G#4",
          "ticks": 147360,
          "time": 89.420421,
          "velocity": 0.7401574803149606
        },
        {
          "duration": 0.12989152083332556,
          "durationTicks": 239,
          "midi": 73,
          "name": "C#5",
          "ticks": 147360,
          "time": 89.420421,
          "velocity": 0.7401574803149606
        },
        {
          "duration": 0.12989152083335398,
          "durationTicks": 239,
          "midi": 76,
          "name": "E5",
          "ticks": 147840,
          "time": 89.68129099999999,
          "velocity": 0.7401574803149606
        },
        {
          "duration": 0.12989152083332556,
          "durationTicks": 239,
          "midi": 73,
          "name": "C#5",
          "ticks": 148320,
          "time": 89.942161,
          "velocity": 0.7401574803149606
        },
        {
          "duration": 0.12989152083332556,
          "durationTicks": 239,
          "midi": 66,
          "name": "F#4",
          "ticks": 148320,
          "time": 89.942161,
          "velocity": 0.7401574803149606
        },
        {
          "duration": 0.12989152083332556,
          "durationTicks": 239,
          "midi": 69,
          "name": "A4",
          "ticks": 148320,
          "time": 89.942161,
          "velocity": 0.7401574803149606
        },
        {
          "duration": 0.12989152083333977,
          "durationTicks": 239,
          "midi": 76,
          "name": "E5",
          "ticks": 148800,
          "time": 90.203031,
          "velocity": 0.7401574803149606
        },
        {
          "duration": 0.12989152083333977,
          "durationTicks": 239,
          "midi": 78,
          "name": "F#5",
          "ticks": 149280,
          "time": 90.46390099999999,
          "velocity": 0.7401574803149606
        },
        {
          "duration": 0.12989152083333977,
          "durationTicks": 239,
          "midi": 66,
          "name": "F#4",
          "ticks": 149280,
          "time": 90.46390099999999,
          "velocity": 0.7401574803149606
        },
        {
          "duration": 0.12989152083333977,
          "durationTicks": 239,
          "midi": 69,
          "name": "A4",
          "ticks": 149280,
          "time": 90.46390099999999,
          "velocity": 0.7401574803149606
        },
        {
          "duration": 0.2472830208333221,
          "durationTicks": 455,
          "midi": 83,
          "name": "B5",
          "ticks": 149760,
          "time": 90.724771,
          "velocity": 0.7401574803149606
        },
        {
          "duration": 0.12989152083335398,
          "durationTicks": 239,
          "midi": 73,
          "name": "C#5",
          "ticks": 150240,
          "time": 90.98564099999999,
          "velocity": 0.7401574803149606
        },
        {
          "duration": 0.12989152083335398,
          "durationTicks": 239,
          "midi": 66,
          "name": "F#4",
          "ticks": 150240,
          "time": 90.98564099999999,
          "velocity": 0.7401574803149606
        },
        {
          "duration": 0.12989152083335398,
          "durationTicks": 239,
          "midi": 71,
          "name": "B4",
          "ticks": 150240,
          "time": 90.98564099999999,
          "velocity": 0.7401574803149606
        },
        {
          "duration": 0.12989152083332556,
          "durationTicks": 239,
          "midi": 76,
          "name": "E5",
          "ticks": 150720,
          "time": 91.246511,
          "velocity": 0.7401574803149606
        },
        {
          "duration": 0.12989152083333977,
          "durationTicks": 239,
          "midi": 78,
          "name": "F#5",
          "ticks": 151200,
          "time": 91.507381,
          "velocity": 0.7401574803149606
        },
        {
          "duration": 0.12989152083333977,
          "durationTicks": 239,
          "midi": 66,
          "name": "F#4",
          "ticks": 151200,
          "time": 91.507381,
          "velocity": 0.7401574803149606
        },
        {
          "duration": 0.12989152083333977,
          "durationTicks": 239,
          "midi": 71,
          "name": "B4",
          "ticks": 151200,
          "time": 91.507381,
          "velocity": 0.7401574803149606
        },
        {
          "duration": 0.4951095208333385,
          "durationTicks": 911,
          "midi": 76,
          "name": "E5",
          "ticks": 151680,
          "time": 91.76825099999999,
          "velocity": 0.7401574803149606
        },
        {
          "duration": 0.12989152083333977,
          "durationTicks": 239,
          "midi": 68,
          "name": "G#4",
          "ticks": 152160,
          "time": 92.02912099999999,
          "velocity": 0.7401574803149606
        },
        {
          "duration": 0.12989152083333977,
          "durationTicks": 239,
          "midi": 71,
          "name": "B4",
          "ticks": 152160,
          "time": 92.02912099999999,
          "velocity": 0.7401574803149606
        },
        {
          "duration": 0.12989152083332556,
          "durationTicks": 239,
          "midi": 68,
          "name": "G#4",
          "ticks": 153120,
          "time": 92.550861,
          "velocity": 0.7401574803149606
        },
        {
          "duration": 0.12989152083332556,
          "durationTicks": 239,
          "midi": 71,
          "name": "B4",
          "ticks": 153120,
          "time": 92.550861,
          "velocity": 0.7401574803149606
        },
        {
          "duration": 0.2603265208333312,
          "durationTicks": 479,
          "midi": 83,
          "name": "B5",
          "ticks": 153600,
          "time": 92.811731,
          "velocity": 0.7401574803149606
        },
        {
          "duration": 0.12989152083333977,
          "durationTicks": 239,
          "midi": 80,
          "name": "G#5",
          "ticks": 154080,
          "time": 93.07260099999999,
          "velocity": 0.7401574803149606
        },
        {
          "duration": 0.12989152083333977,
          "durationTicks": 239,
          "midi": 68,
          "name": "G#4",
          "ticks": 154080,
          "time": 93.07260099999999,
          "velocity": 0.7401574803149606
        },
        {
          "duration": 0.12989152083333977,
          "durationTicks": 239,
          "midi": 71,
          "name": "B4",
          "ticks": 154080,
          "time": 93.07260099999999,
          "velocity": 0.7401574803149606
        },
        {
          "duration": 0.2603265208333312,
          "durationTicks": 479,
          "midi": 80,
          "name": "G#5",
          "ticks": 154560,
          "time": 93.33347099999999,
          "velocity": 0.7401574803149606
        },
        {
          "duration": 0.12989152083333977,
          "durationTicks": 239,
          "midi": 78,
          "name": "F#5",
          "ticks": 155040,
          "time": 93.59434099999999,
          "velocity": 0.7401574803149606
        },
        {
          "duration": 0.12989152083333977,
          "durationTicks": 239,
          "midi": 68,
          "name": "G#4",
          "ticks": 155040,
          "time": 93.59434099999999,
          "velocity": 0.7401574803149606
        },
        {
          "duration": 0.12989152083333977,
          "durationTicks": 239,
          "midi": 71,
          "name": "B4",
          "ticks": 155040,
          "time": 93.59434099999999,
          "velocity": 0.7401574803149606
        },
        {
          "duration": 0.49510952083332427,
          "durationTicks": 911,
          "midi": 76,
          "name": "E5",
          "ticks": 155520,
          "time": 93.855211,
          "velocity": 0.7401574803149606
        },
        {
          "duration": 0.12989152083332556,
          "durationTicks": 239,
          "midi": 68,
          "name": "G#4",
          "ticks": 156000,
          "time": 94.116081,
          "velocity": 0.7401574803149606
        },
        {
          "duration": 0.12989152083332556,
          "durationTicks": 239,
          "midi": 73,
          "name": "C#5",
          "ticks": 156000,
          "time": 94.116081,
          "velocity": 0.7401574803149606
        },
        {
          "duration": 0.12989152083333977,
          "durationTicks": 239,
          "midi": 68,
          "name": "G#4",
          "ticks": 156960,
          "time": 94.63782099999999,
          "velocity": 0.7401574803149606
        },
        {
          "duration": 0.12989152083333977,
          "durationTicks": 239,
          "midi": 73,
          "name": "C#5",
          "ticks": 156960,
          "time": 94.63782099999999,
          "velocity": 0.7401574803149606
        },
        {
          "duration": 0.2603265208333312,
          "durationTicks": 479,
          "midi": 83,
          "name": "B5",
          "ticks": 157440,
          "time": 94.898691,
          "velocity": 0.7401574803149606
        },
        {
          "duration": 0.12989152083332556,
          "durationTicks": 239,
          "midi": 80,
          "name": "G#5",
          "ticks": 157920,
          "time": 95.159561,
          "velocity": 0.7401574803149606
        },
        {
          "duration": 0.12989152083332556,
          "durationTicks": 239,
          "midi": 68,
          "name": "G#4",
          "ticks": 157920,
          "time": 95.159561,
          "velocity": 0.7401574803149606
        },
        {
          "duration": 0.12989152083332556,
          "durationTicks": 239,
          "midi": 74,
          "name": "D5",
          "ticks": 157920,
          "time": 95.159561,
          "velocity": 0.7401574803149606
        },
        {
          "duration": 0.2603265208333312,
          "durationTicks": 479,
          "midi": 80,
          "name": "G#5",
          "ticks": 158400,
          "time": 95.420431,
          "velocity": 0.7401574803149606
        },
        {
          "duration": 0.12989152083333977,
          "durationTicks": 239,
          "midi": 78,
          "name": "F#5",
          "ticks": 158880,
          "time": 95.68130099999999,
          "velocity": 0.7401574803149606
        },
        {
          "duration": 0.12989152083333977,
          "durationTicks": 239,
          "midi": 68,
          "name": "G#4",
          "ticks": 158880,
          "time": 95.68130099999999,
          "velocity": 0.7401574803149606
        },
        {
          "duration": 0.12989152083333977,
          "durationTicks": 239,
          "midi": 74,
          "name": "D5",
          "ticks": 158880,
          "time": 95.68130099999999,
          "velocity": 0.7401574803149606
        },
        {
          "duration": 0.12989152083332556,
          "durationTicks": 239,
          "midi": 79,
          "name": "G5",
          "ticks": 159120,
          "time": 95.811736,
          "velocity": 0.7401574803149606
        },
        {
          "duration": 0.4951095208333385,
          "durationTicks": 911,
          "midi": 80,
          "name": "G#5",
          "ticks": 159360,
          "time": 95.94217099999999,
          "velocity": 0.7401574803149606
        },
        {
          "duration": 0.12989152083332556,
          "durationTicks": 239,
          "midi": 69,
          "name": "A4",
          "ticks": 159840,
          "time": 96.203041,
          "velocity": 0.7401574803149606
        },
        {
          "duration": 0.12989152083332556,
          "durationTicks": 239,
          "midi": 73,
          "name": "C#5",
          "ticks": 159840,
          "time": 96.203041,
          "velocity": 0.7401574803149606
        },
        {
          "duration": 0.12989152083333977,
          "durationTicks": 239,
          "midi": 69,
          "name": "A4",
          "ticks": 160800,
          "time": 96.724781,
          "velocity": 0.7401574803149606
        },
        {
          "duration": 0.12989152083333977,
          "durationTicks": 239,
          "midi": 73,
          "name": "C#5",
          "ticks": 160800,
          "time": 96.724781,
          "velocity": 0.7401574803149606
        },
        {
          "duration": 0.2603265208333312,
          "durationTicks": 479,
          "midi": 83,
          "name": "B5",
          "ticks": 161280,
          "time": 96.98565099999999,
          "velocity": 0.7401574803149606
        },
        {
          "duration": 0.12989152083333977,
          "durationTicks": 239,
          "midi": 80,
          "name": "G#5",
          "ticks": 161760,
          "time": 97.24652099999999,
          "velocity": 0.7401574803149606
        },
        {
          "duration": 0.12989152083333977,
          "durationTicks": 239,
          "midi": 68,
          "name": "G#4",
          "ticks": 161760,
          "time": 97.24652099999999,
          "velocity": 0.7401574803149606
        },
        {
          "duration": 0.12989152083333977,
          "durationTicks": 239,
          "midi": 73,
          "name": "C#5",
          "ticks": 161760,
          "time": 97.24652099999999,
          "velocity": 0.7401574803149606
        },
        {
          "duration": 0.2603265208333312,
          "durationTicks": 479,
          "midi": 80,
          "name": "G#5",
          "ticks": 162240,
          "time": 97.507391,
          "velocity": 0.7401574803149606
        },
        {
          "duration": 0.2603265208333312,
          "durationTicks": 479,
          "midi": 78,
          "name": "F#5",
          "ticks": 162720,
          "time": 97.768261,
          "velocity": 0.7401574803149606
        },
        {
          "duration": 0.12989152083332556,
          "durationTicks": 239,
          "midi": 68,
          "name": "G#4",
          "ticks": 162720,
          "time": 97.768261,
          "velocity": 0.7401574803149606
        },
        {
          "duration": 0.12989152083332556,
          "durationTicks": 239,
          "midi": 73,
          "name": "C#5",
          "ticks": 162720,
          "time": 97.768261,
          "velocity": 0.7401574803149606
        },
        {
          "duration": 0.12989152083333977,
          "durationTicks": 239,
          "midi": 76,
          "name": "E5",
          "ticks": 163200,
          "time": 98.02913099999999,
          "velocity": 0.7401574803149606
        },
        {
          "duration": 0.12989152083333977,
          "durationTicks": 239,
          "midi": 73,
          "name": "C#5",
          "ticks": 163680,
          "time": 98.29000099999999,
          "velocity": 0.7401574803149606
        },
        {
          "duration": 0.12989152083333977,
          "durationTicks": 239,
          "midi": 66,
          "name": "F#4",
          "ticks": 163680,
          "time": 98.29000099999999,
          "velocity": 0.7401574803149606
        },
        {
          "duration": 0.12989152083333977,
          "durationTicks": 239,
          "midi": 69,
          "name": "A4",
          "ticks": 163680,
          "time": 98.29000099999999,
          "velocity": 0.7401574803149606
        },
        {
          "duration": 0.12989152083332556,
          "durationTicks": 239,
          "midi": 76,
          "name": "E5",
          "ticks": 164160,
          "time": 98.550871,
          "velocity": 0.7401574803149606
        },
        {
          "duration": 0.12989152083332556,
          "durationTicks": 239,
          "midi": 78,
          "name": "F#5",
          "ticks": 164640,
          "time": 98.811741,
          "velocity": 0.7401574803149606
        },
        {
          "duration": 0.12989152083332556,
          "durationTicks": 239,
          "midi": 66,
          "name": "F#4",
          "ticks": 164640,
          "time": 98.811741,
          "velocity": 0.7401574803149606
        },
        {
          "duration": 0.12989152083332556,
          "durationTicks": 239,
          "midi": 69,
          "name": "A4",
          "ticks": 164640,
          "time": 98.811741,
          "velocity": 0.7401574803149606
        },
        {
          "duration": 0.2472830208333363,
          "durationTicks": 455,
          "midi": 83,
          "name": "B5",
          "ticks": 165120,
          "time": 99.072611,
          "velocity": 0.7401574803149606
        },
        {
          "duration": 0.12989152083333977,
          "durationTicks": 239,
          "midi": 73,
          "name": "C#5",
          "ticks": 165600,
          "time": 99.33348099999999,
          "velocity": 0.7401574803149606
        },
        {
          "duration": 0.12989152083333977,
          "durationTicks": 239,
          "midi": 66,
          "name": "F#4",
          "ticks": 165600,
          "time": 99.33348099999999,
          "velocity": 0.7401574803149606
        },
        {
          "duration": 0.12989152083333977,
          "durationTicks": 239,
          "midi": 71,
          "name": "B4",
          "ticks": 165600,
          "time": 99.33348099999999,
          "velocity": 0.7401574803149606
        },
        {
          "duration": 0.12989152083333977,
          "durationTicks": 239,
          "midi": 76,
          "name": "E5",
          "ticks": 166080,
          "time": 99.59435099999999,
          "velocity": 0.7401574803149606
        },
        {
          "duration": 0.12989152083332556,
          "durationTicks": 239,
          "midi": 78,
          "name": "F#5",
          "ticks": 166560,
          "time": 99.855221,
          "velocity": 0.7401574803149606
        },
        {
          "duration": 0.12989152083332556,
          "durationTicks": 239,
          "midi": 66,
          "name": "F#4",
          "ticks": 166560,
          "time": 99.855221,
          "velocity": 0.7401574803149606
        },
        {
          "duration": 0.12989152083332556,
          "durationTicks": 239,
          "midi": 71,
          "name": "B4",
          "ticks": 166560,
          "time": 99.855221,
          "velocity": 0.7401574803149606
        },
        {
          "duration": 0.12989152083332556,
          "durationTicks": 239,
          "midi": 64,
          "name": "E4",
          "ticks": 167040,
          "time": 100.116091,
          "velocity": 0.7401574803149606
        },
        {
          "duration": 0.12989152083332556,
          "durationTicks": 239,
          "midi": 61,
          "name": "C#4",
          "ticks": 167520,
          "time": 100.376961,
          "velocity": 0.7401574803149606
        },
        {
          "duration": 0.12989152083333977,
          "durationTicks": 239,
          "midi": 64,
          "name": "E4",
          "ticks": 168000,
          "time": 100.63783099999999,
          "velocity": 0.7401574803149606
        },
        {
          "duration": 0.12989152083333977,
          "durationTicks": 239,
          "midi": 66,
          "name": "F#4",
          "ticks": 168480,
          "time": 100.89870099999999,
          "velocity": 0.7401574803149606
        },
        {
          "duration": 0.12989152083332556,
          "durationTicks": 239,
          "midi": 71,
          "name": "B4",
          "ticks": 168960,
          "time": 101.159571,
          "velocity": 0.7401574803149606
        },
        {
          "duration": 0.12989152083332556,
          "durationTicks": 239,
          "midi": 61,
          "name": "C#4",
          "ticks": 169440,
          "time": 101.420441,
          "velocity": 0.7401574803149606
        },
        {
          "duration": 0.12989152083332556,
          "durationTicks": 239,
          "midi": 64,
          "name": "E4",
          "ticks": 169920,
          "time": 101.681311,
          "velocity": 0.7401574803149606
        },
        {
          "duration": 0.12989152083333977,
          "durationTicks": 239,
          "midi": 66,
          "name": "F#4",
          "ticks": 170400,
          "time": 101.94218099999999,
          "velocity": 0.7401574803149606
        },
        {
          "duration": 0.4951095208333385,
          "durationTicks": 911,
          "midi": 76,
          "name": "E5",
          "ticks": 170880,
          "time": 102.20305099999999,
          "velocity": 0.7401574803149606
        },
        {
          "duration": 0.4951095208333385,
          "durationTicks": 911,
          "midi": 80,
          "name": "G#5",
          "ticks": 170880,
          "time": 102.20305099999999,
          "velocity": 0.7401574803149606
        },
        {
          "duration": 0.9907625208333428,
          "durationTicks": 1823,
          "midi": 71,
          "name": "B4",
          "ticks": 170880,
          "time": 102.20305099999999,
          "velocity": 0.7401574803149606
        },
        {
          "duration": 0.12989152083332556,
          "durationTicks": 239,
          "midi": 76,
          "name": "E5",
          "ticks": 171840,
          "time": 102.724791,
          "velocity": 0.7401574803149606
        },
        {
          "duration": 0.12989152083332556,
          "durationTicks": 239,
          "midi": 78,
          "name": "F#5",
          "ticks": 172320,
          "time": 102.985661,
          "velocity": 0.7401574803149606
        },
        {
          "duration": 0.4951095208333385,
          "durationTicks": 911,
          "midi": 80,
          "name": "G#5",
          "ticks": 172800,
          "time": 103.24653099999999,
          "velocity": 0.7401574803149606
        },
        {
          "duration": 0.9907625208333428,
          "durationTicks": 1823,
          "midi": 71,
          "name": "B4",
          "ticks": 172800,
          "time": 103.24653099999999,
          "velocity": 0.7401574803149606
        },
        {
          "duration": 0.9907625208333428,
          "durationTicks": 1823,
          "midi": 75,
          "name": "D#5",
          "ticks": 172800,
          "time": 103.24653099999999,
          "velocity": 0.7401574803149606
        },
        {
          "duration": 0.12989152083332556,
          "durationTicks": 239,
          "midi": 79,
          "name": "G5",
          "ticks": 173760,
          "time": 103.768271,
          "velocity": 0.7401574803149606
        },
        {
          "duration": 0.12989152083332556,
          "durationTicks": 239,
          "midi": 78,
          "name": "F#5",
          "ticks": 174240,
          "time": 104.029141,
          "velocity": 0.7401574803149606
        },
        {
          "duration": 1.9820685208333373,
          "durationTicks": 3647,
          "midi": 68,
          "name": "G#4",
          "ticks": 174720,
          "time": 104.29001099999999,
          "velocity": 0.7401574803149606
        },
        {
          "duration": 0.9907625208333286,
          "durationTicks": 1823,
          "midi": 71,
          "name": "B4",
          "ticks": 174720,
          "time": 104.29001099999999,
          "velocity": 0.7401574803149606
        },
        {
          "duration": 1.9820685208333373,
          "durationTicks": 3647,
          "midi": 76,
          "name": "E5",
          "ticks": 174720,
          "time": 104.29001099999999,
          "velocity": 0.7401574803149606
        },
        {
          "duration": 0.9907625208333286,
          "durationTicks": 1823,
          "midi": 72,
          "name": "C5",
          "ticks": 176640,
          "time": 105.333491,
          "velocity": 0.7401574803149606
        },
        {
          "duration": 0.49510952083332427,
          "durationTicks": 911,
          "midi": 65,
          "name": "F4",
          "ticks": 178560,
          "time": 106.376971,
          "velocity": 0.7401574803149606
        },
        {
          "duration": 0.49510952083332427,
          "durationTicks": 911,
          "midi": 69,
          "name": "A4",
          "ticks": 178560,
          "time": 106.376971,
          "velocity": 0.7401574803149606
        },
        {
          "duration": 0.49510952083332427,
          "durationTicks": 911,
          "midi": 77,
          "name": "F5",
          "ticks": 178560,
          "time": 106.376971,
          "velocity": 0.7401574803149606
        },
        {
          "duration": 0.16467418749999752,
          "durationTicks": 303,
          "midi": 65,
          "name": "F4",
          "ticks": 179520,
          "time": 106.89871099999999,
          "velocity": 0.7401574803149606
        },
        {
          "duration": 0.16467418749999752,
          "durationTicks": 303,
          "midi": 69,
          "name": "A4",
          "ticks": 179520,
          "time": 106.89871099999999,
          "velocity": 0.7401574803149606
        },
        {
          "duration": 0.16467418749999752,
          "durationTicks": 303,
          "midi": 77,
          "name": "F5",
          "ticks": 179520,
          "time": 106.89871099999999,
          "velocity": 0.7401574803149606
        },
        {
          "duration": 0.16467418749999752,
          "durationTicks": 303,
          "midi": 65,
          "name": "F4",
          "ticks": 179840,
          "time": 107.07262433333332,
          "velocity": 0.7401574803149606
        },
        {
          "duration": 0.16467418749999752,
          "durationTicks": 303,
          "midi": 69,
          "name": "A4",
          "ticks": 179840,
          "time": 107.07262433333332,
          "velocity": 0.7401574803149606
        },
        {
          "duration": 0.16467418749999752,
          "durationTicks": 303,
          "midi": 79,
          "name": "G5",
          "ticks": 179840,
          "time": 107.07262433333332,
          "velocity": 0.7401574803149606
        },
        {
          "duration": 0.16467418749999752,
          "durationTicks": 303,
          "midi": 67,
          "name": "G4",
          "ticks": 180160,
          "time": 107.24653766666665,
          "velocity": 0.7401574803149606
        },
        {
          "duration": 0.16467418749999752,
          "durationTicks": 303,
          "midi": 71,
          "name": "B4",
          "ticks": 180160,
          "time": 107.24653766666665,
          "velocity": 0.7401574803149606
        },
        {
          "duration": 0.16467418749999752,
          "durationTicks": 303,
          "midi": 81,
          "name": "A5",
          "ticks": 180160,
          "time": 107.24653766666665,
          "velocity": 0.7401574803149606
        },
        {
          "duration": 0.2603265208333454,
          "durationTicks": 479,
          "midi": 71,
          "name": "B4",
          "ticks": 180480,
          "time": 107.42045099999999,
          "velocity": 0.7401574803149606
        },
        {
          "duration": 0.2603265208333454,
          "durationTicks": 479,
          "midi": 75,
          "name": "D#5",
          "ticks": 180480,
          "time": 107.42045099999999,
          "velocity": 0.7401574803149606
        },
        {
          "duration": 0.2603265208333454,
          "durationTicks": 479,
          "midi": 83,
          "name": "B5",
          "ticks": 180480,
          "time": 107.42045099999999,
          "velocity": 0.7401574803149606
        },
        {
          "duration": 0.12989152083332556,
          "durationTicks": 239,
          "midi": 82,
          "name": "A#5",
          "ticks": 180960,
          "time": 107.681321,
          "velocity": 0.7401574803149606
        },
        {
          "duration": 0.2603265208333312,
          "durationTicks": 479,
          "midi": 75,
          "name": "D#5",
          "ticks": 181440,
          "time": 107.942191,
          "velocity": 0.7401574803149606
        },
        {
          "duration": 0.2603265208333312,
          "durationTicks": 479,
          "midi": 78,
          "name": "F#5",
          "ticks": 181440,
          "time": 107.942191,
          "velocity": 0.7401574803149606
        },
        {
          "duration": 0.2603265208333312,
          "durationTicks": 479,
          "midi": 82,
          "name": "A#5",
          "ticks": 181440,
          "time": 107.942191,
          "velocity": 0.7401574803149606
        },
        {
          "duration": 0.12989152083333977,
          "durationTicks": 239,
          "midi": 81,
          "name": "A5",
          "ticks": 181920,
          "time": 108.20306099999999,
          "velocity": 0.7401574803149606
        },
        {
          "duration": 1.4864155208333472,
          "durationTicks": 2735,
          "midi": 71,
          "name": "B4",
          "ticks": 182400,
          "time": 108.46393099999999,
          "velocity": 0.7401574803149606
        },
        {
          "duration": 1.4864155208333472,
          "durationTicks": 2735,
          "midi": 76,
          "name": "E5",
          "ticks": 182400,
          "time": 108.46393099999999,
          "velocity": 0.7401574803149606
        },
        {
          "duration": 1.4864155208333472,
          "durationTicks": 2735,
          "midi": 80,
          "name": "G#5",
          "ticks": 182400,
          "time": 108.46393099999999,
          "velocity": 0.7401574803149606
        }
      ],
      "endOfTrackTicks": 185136
    },
    {
      "channel": 0,
      "controlChanges": {},
      "pitchBends": [],
      "instrument": {
        "family": "piano",
        "number": 0,
        "name": "acoustic grand piano"
      },
      "name": "Piano",
      "notes": [
        {
          "duration": 2.5319457104166667,
          "durationTicks": 1823,
          "midi": 51,
          "name": "D#3",
          "ticks": 0,
          "time": 0,
          "velocity": 0.3858267716535433
        },
        {
          "duration": 2.5319457104166667,
          "durationTicks": 1823,
          "midi": 55,
          "name": "G3",
          "ticks": 0,
          "time": 0,
          "velocity": 0.3858267716535433
        },
        {
          "duration": 0.6319447604166668,
          "durationTicks": 455,
          "midi": 47,
          "name": "B2",
          "ticks": 1920,
          "time": 2.666668,
          "velocity": 0.4409448818897638
        },
        {
          "duration": 0.6319447604166668,
          "durationTicks": 455,
          "midi": 59,
          "name": "B3",
          "ticks": 1920,
          "time": 2.666668,
          "velocity": 0.4409448818897638
        },
        {
          "duration": 0.6319447604166668,
          "durationTicks": 455,
          "midi": 48,
          "name": "C3",
          "ticks": 2400,
          "time": 3.333335,
          "velocity": 0.47244094488188976
        },
        {
          "duration": 0.6319447604166668,
          "durationTicks": 455,
          "midi": 60,
          "name": "C4",
          "ticks": 2400,
          "time": 3.333335,
          "velocity": 0.47244094488188976
        },
        {
          "duration": 0.6319447604166664,
          "durationTicks": 455,
          "midi": 59,
          "name": "B3",
          "ticks": 2880,
          "time": 4.000002,
          "velocity": 0.5039370078740157
        },
        {
          "duration": 1.2652784104166663,
          "durationTicks": 911,
          "midi": 55,
          "name": "G3",
          "ticks": 2880,
          "time": 4.000002,
          "velocity": 0.5039370078740157
        },
        {
          "duration": 0.6319447604166673,
          "durationTicks": 455,
          "midi": 60,
          "name": "C4",
          "ticks": 3360,
          "time": 4.666669,
          "velocity": 0.5354330708661418
        },
        {
          "duration": 2.665279110416667,
          "durationTicks": 1919,
          "midi": 41,
          "name": "F2",
          "ticks": 3840,
          "time": 5.333336,
          "velocity": 0.5669291338582677
        },
        {
          "duration": 2.6000012999999997,
          "durationTicks": 1872,
          "midi": 48,
          "name": "C3",
          "ticks": 3886,
          "time": 5.397224920833334,
          "velocity": 0.5669291338582677
        },
        {
          "duration": 2.5333346,
          "durationTicks": 1824,
          "midi": 53,
          "name": "F3",
          "ticks": 3934,
          "time": 5.4638916208333335,
          "velocity": 0.5748031496062992
        },
        {
          "duration": 2.4652790104166664,
          "durationTicks": 1775,
          "midi": 56,
          "name": "G#3",
          "ticks": 3984,
          "time": 5.5333361000000005,
          "velocity": 0.5748031496062992
        },
        {
          "duration": 2.5319457104166663,
          "durationTicks": 1823,
          "midi": 46,
          "name": "A#2",
          "ticks": 5760,
          "time": 8.000004,
          "velocity": 0.6929133858267716
        },
        {
          "duration": 2.5319457104166663,
          "durationTicks": 1823,
          "midi": 51,
          "name": "D#3",
          "ticks": 5760,
          "time": 8.000004,
          "velocity": 0.6929133858267716
        },
        {
          "duration": 2.5319457104166663,
          "durationTicks": 1823,
          "midi": 56,
          "name": "G#3",
          "ticks": 5760,
          "time": 8.000004,
          "velocity": 0.6929133858267716
        },
        {
          "duration": 0.22083344375000102,
          "durationTicks": 159,
          "midi": 46,
          "name": "A#2",
          "ticks": 7680,
          "time": 10.666672,
          "velocity": 1
        },
        {
          "duration": 0.22083344375000102,
          "durationTicks": 159,
          "midi": 53,
          "name": "F3",
          "ticks": 7680,
          "time": 10.666672,
          "velocity": 1
        },
        {
          "duration": 0.22083344375000102,
          "durationTicks": 159,
          "midi": 58,
          "name": "A#3",
          "ticks": 7680,
          "time": 10.666672,
          "velocity": 1
        },
        {
          "duration": 0.24728302083333276,
          "durationTicks": 455,
          "midi": 39,
          "name": "D#2",
          "ticks": 11520,
          "time": 15.594211000000001,
          "velocity": 0.7401574803149606
        },
        {
          "duration": 0.24728302083333276,
          "durationTicks": 455,
          "midi": 46,
          "name": "A#2",
          "ticks": 12480,
          "time": 16.115951000000003,
          "velocity": 0.7401574803149606
        },
        {
          "duration": 0.24728302083333276,
          "durationTicks": 455,
          "midi": 44,
          "name": "G#2",
          "ticks": 13440,
          "time": 16.637691,
          "velocity": 0.7401574803149606
        },
        {
          "duration": 0.24728302083333276,
          "durationTicks": 455,
          "midi": 51,
          "name": "D#3",
          "ticks": 14400,
          "time": 17.159431,
          "velocity": 0.7401574803149606
        },
        {
          "duration": 0.2472830208333363,
          "durationTicks": 455,
          "midi": 48,
          "name": "C3",
          "ticks": 15360,
          "time": 17.681171,
          "velocity": 0.7401574803149606
        },
        {
          "duration": 0.24728302083333276,
          "durationTicks": 455,
          "midi": 43,
          "name": "G2",
          "ticks": 16320,
          "time": 18.202911,
          "velocity": 0.7401574803149606
        },
        {
          "duration": 0.24728302083333276,
          "durationTicks": 455,
          "midi": 46,
          "name": "A#2",
          "ticks": 17280,
          "time": 18.724651,
          "velocity": 0.7401574803149606
        },
        {
          "duration": 0.24728302083333276,
          "durationTicks": 455,
          "midi": 51,
          "name": "D#3",
          "ticks": 18240,
          "time": 19.246391,
          "velocity": 0.7401574803149606
        },
        {
          "duration": 0.2472830208333363,
          "durationTicks": 455,
          "midi": 45,
          "name": "A2",
          "ticks": 18720,
          "time": 19.507261,
          "velocity": 0.7401574803149606
        },
        {
          "duration": 0.24728302083333276,
          "durationTicks": 455,
          "midi": 44,
          "name": "G#2",
          "ticks": 19200,
          "time": 19.768131,
          "velocity": 0.7401574803149606
        },
        {
          "duration": 0.24728302083333276,
          "durationTicks": 455,
          "midi": 51,
          "name": "D#3",
          "ticks": 20160,
          "time": 20.289871,
          "velocity": 0.7401574803149606
        },
        {
          "duration": 0.2472830208333363,
          "durationTicks": 455,
          "midi": 43,
          "name": "G2",
          "ticks": 21120,
          "time": 20.811611,
          "velocity": 0.7401574803149606
        },
        {
          "duration": 0.24728302083333276,
          "durationTicks": 455,
          "midi": 48,
          "name": "C3",
          "ticks": 22080,
          "time": 21.333351,
          "velocity": 0.7401574803149606
        },
        {
          "duration": 0.24728302083333276,
          "durationTicks": 455,
          "midi": 42,
          "name": "F#2",
          "ticks": 22560,
          "time": 21.594221,
          "velocity": 0.7401574803149606
        },
        {
          "duration": 0.24728302083333276,
          "durationTicks": 455,
          "midi": 41,
          "name": "F2",
          "ticks": 23040,
          "time": 21.855091,
          "velocity": 0.7401574803149606
        },
        {
          "duration": 0.24728302083333276,
          "durationTicks": 455,
          "midi": 48,
          "name": "C3",
          "ticks": 24000,
          "time": 22.376831,
          "velocity": 0.7401574803149606
        },
        {
          "duration": 0.24728302083333276,
          "durationTicks": 455,
          "midi": 46,
          "name": "A#2",
          "ticks": 24960,
          "time": 22.898571,
          "velocity": 0.7401574803149606
        },
        {
          "duration": 0.2472830208333363,
          "durationTicks": 455,
          "midi": 34,
          "name": "A#1",
          "ticks": 25920,
          "time": 23.420310999999998,
          "velocity": 0.7401574803149606
        },
        {
          "duration": 0.24728302083333276,
          "durationTicks": 455,
          "midi": 39,
          "name": "D#2",
          "ticks": 26880,
          "time": 23.942051,
          "velocity": 0.7401574803149606
        },
        {
          "duration": 0.24728302083333276,
          "durationTicks": 455,
          "midi": 46,
          "name": "A#2",
          "ticks": 27840,
          "time": 24.463791,
          "velocity": 0.7401574803149606
        },
        {
          "duration": 0.24728302083333276,
          "durationTicks": 455,
          "midi": 44,
          "name": "G#2",
          "ticks": 28800,
          "time": 24.985531,
          "velocity": 0.7401574803149606
        },
        {
          "duration": 0.24728302083333276,
          "durationTicks": 455,
          "midi": 51,
          "name": "D#3",
          "ticks": 29760,
          "time": 25.507271,
          "velocity": 0.7401574803149606
        },
        {
          "duration": 0.24728302083333276,
          "durationTicks": 455,
          "midi": 48,
          "name": "C3",
          "ticks": 30720,
          "time": 26.029011,
          "velocity": 0.7401574803149606
        },
        {
          "duration": 0.2472830208333363,
          "durationTicks": 455,
          "midi": 43,
          "name": "G2",
          "ticks": 31680,
          "time": 26.550750999999998,
          "velocity": 0.7401574803149606
        },
        {
          "duration": 0.24728302083333276,
          "durationTicks": 455,
          "midi": 46,
          "name": "A#2",
          "ticks": 32640,
          "time": 27.072491,
          "velocity": 0.7401574803149606
        },
        {
          "duration": 0.24728302083333276,
          "durationTicks": 455,
          "midi": 51,
          "name": "D#3",
          "ticks": 33600,
          "time": 27.594231,
          "velocity": 0.7401574803149606
        },
        {
          "duration": 0.24728302083333276,
          "durationTicks": 455,
          "midi": 45,
          "name": "A2",
          "ticks": 34080,
          "time": 27.855101,
          "velocity": 0.7401574803149606
        },
        {
          "duration": 0.2472830208333292,
          "durationTicks": 455,
          "midi": 44,
          "name": "G#2",
          "ticks": 34560,
          "time": 28.115971000000002,
          "velocity": 0.7401574803149606
        },
        {
          "duration": 0.24728302083333276,
          "durationTicks": 455,
          "midi": 51,
          "name": "D#3",
          "ticks": 35520,
          "time": 28.637711,
          "velocity": 0.7401574803149606
        },
        {
          "duration": 0.24728302083333276,
          "durationTicks": 455,
          "midi": 43,
          "name": "G2",
          "ticks": 36480,
          "time": 29.159451,
          "velocity": 0.7401574803149606
        },
        {
          "duration": 0.2472830208333363,
          "durationTicks": 455,
          "midi": 48,
          "name": "C3",
          "ticks": 37440,
          "time": 29.681191,
          "velocity": 0.7401574803149606
        },
        {
          "duration": 0.2472830208333292,
          "durationTicks": 455,
          "midi": 42,
          "name": "F#2",
          "ticks": 37920,
          "time": 29.942061000000002,
          "velocity": 0.7401574803149606
        },
        {
          "duration": 0.24728302083333276,
          "durationTicks": 455,
          "midi": 41,
          "name": "F2",
          "ticks": 38400,
          "time": 30.202931,
          "velocity": 0.7401574803149606
        },
        {
          "duration": 0.24728302083333276,
          "durationTicks": 455,
          "midi": 48,
          "name": "C3",
          "ticks": 39360,
          "time": 30.724671,
          "velocity": 0.7401574803149606
        },
        {
          "duration": 0.2472830208333292,
          "durationTicks": 455,
          "midi": 46,
          "name": "A#2",
          "ticks": 40320,
          "time": 31.246411000000002,
          "velocity": 0.7401574803149606
        },
        {
          "duration": 0.24728302083333276,
          "durationTicks": 455,
          "midi": 41,
          "name": "F2",
          "ticks": 41280,
          "time": 31.768151,
          "velocity": 0.7401574803149606
        },
        {
          "duration": 0.2472830208333363,
          "durationTicks": 455,
          "midi": 44,
          "name": "G#2",
          "ticks": 42240,
          "time": 32.289891,
          "velocity": 0.7401574803149606
        },
        {
          "duration": 0.12989152083333266,
          "durationTicks": 239,
          "midi": 56,
          "name": "G#3",
          "ticks": 42720,
          "time": 32.550761,
          "velocity": 0.7401574803149606
        },
        {
          "duration": 0.12989152083333266,
          "durationTicks": 239,
          "midi": 60,
          "name": "C4",
          "ticks": 42720,
          "time": 32.550761,
          "velocity": 0.7401574803149606
        },
        {
          "duration": 0.2472830208333363,
          "durationTicks": 455,
          "midi": 51,
          "name": "D#3",
          "ticks": 43200,
          "time": 32.811631,
          "velocity": 0.7401574803149606
        },
        {
          "duration": 0.12989152083333266,
          "durationTicks": 239,
          "midi": 56,
          "name": "G#3",
          "ticks": 43680,
          "time": 33.072501,
          "velocity": 0.7401574803149606
        },
        {
          "duration": 0.12989152083333266,
          "durationTicks": 239,
          "midi": 60,
          "name": "C4",
          "ticks": 43680,
          "time": 33.072501,
          "velocity": 0.7401574803149606
        },
        {
          "duration": 0.2472830208333363,
          "durationTicks": 455,
          "midi": 43,
          "name": "G2",
          "ticks": 44160,
          "time": 33.333371,
          "velocity": 0.7401574803149606
        },
        {
          "duration": 0.12989152083333977,
          "durationTicks": 239,
          "midi": 55,
          "name": "G3",
          "ticks": 44640,
          "time": 33.594241,
          "velocity": 0.7401574803149606
        },
        {
          "duration": 0.12989152083333977,
          "durationTicks": 239,
          "midi": 58,
          "name": "A#3",
          "ticks": 44640,
          "time": 33.594241,
          "velocity": 0.7401574803149606
        },
        {
          "duration": 0.2472830208333292,
          "durationTicks": 455,
          "midi": 51,
          "name": "D#3",
          "ticks": 45120,
          "time": 33.855111,
          "velocity": 0.7401574803149606
        },
        {
          "duration": 0.12989152083333266,
          "durationTicks": 239,
          "midi": 55,
          "name": "G3",
          "ticks": 45600,
          "time": 34.115981,
          "velocity": 0.7401574803149606
        },
        {
          "duration": 0.12989152083333266,
          "durationTicks": 239,
          "midi": 58,
          "name": "A#3",
          "ticks": 45600,
          "time": 34.115981,
          "velocity": 0.7401574803149606
        },
        {
          "duration": 0.2472830208333292,
          "durationTicks": 455,
          "midi": 45,
          "name": "A2",
          "ticks": 46080,
          "time": 34.376851,
          "velocity": 0.7401574803149606
        },
        {
          "duration": 0.12989152083333266,
          "durationTicks": 239,
          "midi": 56,
          "name": "G#3",
          "ticks": 46560,
          "time": 34.637721,
          "velocity": 0.7401574803149606
        },
        {
          "duration": 0.12989152083333266,
          "durationTicks": 239,
          "midi": 60,
          "name": "C4",
          "ticks": 46560,
          "time": 34.637721,
          "velocity": 0.7401574803149606
        },
        {
          "duration": 0.2472830208333363,
          "durationTicks": 455,
          "midi": 44,
          "name": "G#2",
          "ticks": 47040,
          "time": 34.898590999999996,
          "velocity": 0.7401574803149606
        },
        {
          "duration": 0.12989152083333266,
          "durationTicks": 239,
          "midi": 55,
          "name": "G3",
          "ticks": 47520,
          "time": 35.159461,
          "velocity": 0.7401574803149606
        },
        {
          "duration": 0.12989152083333266,
          "durationTicks": 239,
          "midi": 58,
          "name": "A#3",
          "ticks": 47520,
          "time": 35.159461,
          "velocity": 0.7401574803149606
        },
        {
          "duration": 0.2472830208333363,
          "durationTicks": 455,
          "midi": 43,
          "name": "G2",
          "ticks": 48000,
          "time": 35.420331,
          "velocity": 0.7401574803149606
        },
        {
          "duration": 0.12989152083333266,
          "durationTicks": 239,
          "midi": 55,
          "name": "G3",
          "ticks": 48480,
          "time": 35.681201,
          "velocity": 0.7401574803149606
        },
        {
          "duration": 0.12989152083333266,
          "durationTicks": 239,
          "midi": 58,
          "name": "A#3",
          "ticks": 48480,
          "time": 35.681201,
          "velocity": 0.7401574803149606
        },
        {
          "duration": 0.2472830208333363,
          "durationTicks": 455,
          "midi": 51,
          "name": "D#3",
          "ticks": 48960,
          "time": 35.942071,
          "velocity": 0.7401574803149606
        },
        {
          "duration": 0.2472830208333363,
          "durationTicks": 455,
          "midi": 45,
          "name": "A2",
          "ticks": 49440,
          "time": 36.202940999999996,
          "velocity": 0.7401574803149606
        },
        {
          "duration": 0.2472830208333363,
          "durationTicks": 455,
          "midi": 44,
          "name": "G#2",
          "ticks": 49920,
          "time": 36.463811,
          "velocity": 0.7401574803149606
        },
        {
          "duration": 0.12989152083333266,
          "durationTicks": 239,
          "midi": 56,
          "name": "G#3",
          "ticks": 50400,
          "time": 36.724681,
          "velocity": 0.7401574803149606
        },
        {
          "duration": 0.12989152083333266,
          "durationTicks": 239,
          "midi": 60,
          "name": "C4",
          "ticks": 50400,
          "time": 36.724681,
          "velocity": 0.7401574803149606
        },
        {
          "duration": 0.2472830208333363,
          "durationTicks": 455,
          "midi": 51,
          "name": "D#3",
          "ticks": 50880,
          "time": 36.985551,
          "velocity": 0.7401574803149606
        },
        {
          "duration": 0.12989152083333266,
          "durationTicks": 239,
          "midi": 56,
          "name": "G#3",
          "ticks": 51360,
          "time": 37.246421,
          "velocity": 0.7401574803149606
        },
        {
          "duration": 0.12989152083333266,
          "durationTicks": 239,
          "midi": 60,
          "name": "C4",
          "ticks": 51360,
          "time": 37.246421,
          "velocity": 0.7401574803149606
        },
        {
          "duration": 0.2472830208333363,
          "durationTicks": 455,
          "midi": 43,
          "name": "G2",
          "ticks": 51840,
          "time": 37.507290999999995,
          "velocity": 0.7401574803149606
        },
        {
          "duration": 0.12989152083333266,
          "durationTicks": 239,
          "midi": 55,
          "name": "G3",
          "ticks": 52320,
          "time": 37.768161,
          "velocity": 0.7401574803149606
        },
        {
          "duration": 0.12989152083333266,
          "durationTicks": 239,
          "midi": 58,
          "name": "A#3",
          "ticks": 52320,
          "time": 37.768161,
          "velocity": 0.7401574803149606
        },
        {
          "duration": 0.2472830208333292,
          "durationTicks": 455,
          "midi": 51,
          "name": "D#3",
          "ticks": 52800,
          "time": 38.029031,
          "velocity": 0.7401574803149606
        },
        {
          "duration": 0.12989152083333266,
          "durationTicks": 239,
          "midi": 55,
          "name": "G3",
          "ticks": 53280,
          "time": 38.289901,
          "velocity": 0.7401574803149606
        },
        {
          "duration": 0.12989152083333266,
          "durationTicks": 239,
          "midi": 58,
          "name": "A#3",
          "ticks": 53280,
          "time": 38.289901,
          "velocity": 0.7401574803149606
        },
        {
          "duration": 0.2472830208333363,
          "durationTicks": 455,
          "midi": 41,
          "name": "F2",
          "ticks": 53760,
          "time": 38.550771,
          "velocity": 0.7401574803149606
        },
        {
          "duration": 0.12989152083333266,
          "durationTicks": 239,
          "midi": 53,
          "name": "F3",
          "ticks": 54240,
          "time": 38.811641,
          "velocity": 0.7401574803149606
        },
        {
          "duration": 0.12989152083333266,
          "durationTicks": 239,
          "midi": 56,
          "name": "G#3",
          "ticks": 54240,
          "time": 38.811641,
          "velocity": 0.7401574803149606
        },
        {
          "duration": 0.2472830208333363,
          "durationTicks": 455,
          "midi": 41,
          "name": "F2",
          "ticks": 54720,
          "time": 39.072511,
          "velocity": 0.7401574803149606
        },
        {
          "duration": 0.12989152083333266,
          "durationTicks": 239,
          "midi": 53,
          "name": "F3",
          "ticks": 55200,
          "time": 39.333381,
          "velocity": 0.7401574803149606
        },
        {
          "duration": 0.12989152083333266,
          "durationTicks": 239,
          "midi": 56,
          "name": "G#3",
          "ticks": 55200,
          "time": 39.333381,
          "velocity": 0.7401574803149606
        },
        {
          "duration": 0.2472830208333363,
          "durationTicks": 455,
          "midi": 46,
          "name": "A#2",
          "ticks": 55680,
          "time": 39.594251,
          "velocity": 0.7401574803149606
        },
        {
          "duration": 0.12989152083333977,
          "durationTicks": 239,
          "midi": 58,
          "name": "A#3",
          "ticks": 56160,
          "time": 39.855121,
          "velocity": 0.7401574803149606
        },
        {
          "duration": 0.12989152083333977,
          "durationTicks": 239,
          "midi": 61,
          "name": "C#4",
          "ticks": 56160,
          "time": 39.855121,
          "velocity": 0.7401574803149606
        },
        {
          "duration": 0.2472830208333363,
          "durationTicks": 455,
          "midi": 39,
          "name": "D#2",
          "ticks": 56640,
          "time": 40.115990999999994,
          "velocity": 0.7401574803149606
        },
        {
          "duration": 0.12989152083333266,
          "durationTicks": 239,
          "midi": 55,
          "name": "G3",
          "ticks": 57120,
          "time": 40.376861,
          "velocity": 0.7401574803149606
        },
        {
          "duration": 0.12989152083333266,
          "durationTicks": 239,
          "midi": 63,
          "name": "D#4",
          "ticks": 57120,
          "time": 40.376861,
          "velocity": 0.7401574803149606
        },
        {
          "duration": 0.2472830208333363,
          "durationTicks": 455,
          "midi": 44,
          "name": "G#2",
          "ticks": 57600,
          "time": 40.637731,
          "velocity": 0.7401574803149606
        },
        {
          "duration": 0.12989152083333266,
          "durationTicks": 239,
          "midi": 56,
          "name": "G#3",
          "ticks": 58080,
          "time": 40.898601,
          "velocity": 0.7401574803149606
        },
        {
          "duration": 0.12989152083333266,
          "durationTicks": 239,
          "midi": 60,
          "name": "C4",
          "ticks": 58080,
          "time": 40.898601,
          "velocity": 0.7401574803149606
        },
        {
          "duration": 0.2472830208333363,
          "durationTicks": 455,
          "midi": 51,
          "name": "D#3",
          "ticks": 58560,
          "time": 41.159470999999996,
          "velocity": 0.7401574803149606
        },
        {
          "duration": 0.12989152083333266,
          "durationTicks": 239,
          "midi": 56,
          "name": "G#3",
          "ticks": 59040,
          "time": 41.420341,
          "velocity": 0.7401574803149606
        },
        {
          "duration": 0.12989152083333266,
          "durationTicks": 239,
          "midi": 60,
          "name": "C4",
          "ticks": 59040,
          "time": 41.420341,
          "velocity": 0.7401574803149606
        },
        {
          "duration": 0.2472830208333363,
          "durationTicks": 455,
          "midi": 43,
          "name": "G2",
          "ticks": 59520,
          "time": 41.681211,
          "velocity": 0.7401574803149606
        },
        {
          "duration": 0.12989152083333266,
          "durationTicks": 239,
          "midi": 55,
          "name": "G3",
          "ticks": 60000,
          "time": 41.942081,
          "velocity": 0.7401574803149606
        },
        {
          "duration": 0.12989152083333266,
          "durationTicks": 239,
          "midi": 58,
          "name": "A#3",
          "ticks": 60000,
          "time": 41.942081,
          "velocity": 0.7401574803149606
        },
        {
          "duration": 0.2472830208333363,
          "durationTicks": 455,
          "midi": 51,
          "name": "D#3",
          "ticks": 60480,
          "time": 42.202951,
          "velocity": 0.7401574803149606
        },
        {
          "duration": 0.12989152083333977,
          "durationTicks": 239,
          "midi": 55,
          "name": "G3",
          "ticks": 60960,
          "time": 42.463820999999996,
          "velocity": 0.7401574803149606
        },
        {
          "duration": 0.12989152083333977,
          "durationTicks": 239,
          "midi": 58,
          "name": "A#3",
          "ticks": 60960,
          "time": 42.463820999999996,
          "velocity": 0.7401574803149606
        },
        {
          "duration": 0.2472830208333292,
          "durationTicks": 455,
          "midi": 45,
          "name": "A2",
          "ticks": 61440,
          "time": 42.724691,
          "velocity": 0.7401574803149606
        },
        {
          "duration": 0.12989152083332556,
          "durationTicks": 239,
          "midi": 56,
          "name": "G#3",
          "ticks": 61920,
          "time": 42.985561000000004,
          "velocity": 0.7401574803149606
        },
        {
          "duration": 0.12989152083332556,
          "durationTicks": 239,
          "midi": 60,
          "name": "C4",
          "ticks": 61920,
          "time": 42.985561000000004,
          "velocity": 0.7401574803149606
        },
        {
          "duration": 0.2472830208333363,
          "durationTicks": 455,
          "midi": 44,
          "name": "G#2",
          "ticks": 62400,
          "time": 43.246431,
          "velocity": 0.7401574803149606
        },
        {
          "duration": 0.12989152083333977,
          "durationTicks": 239,
          "midi": 55,
          "name": "G3",
          "ticks": 62880,
          "time": 43.507301,
          "velocity": 0.7401574803149606
        },
        {
          "duration": 0.12989152083333977,
          "durationTicks": 239,
          "midi": 58,
          "name": "A#3",
          "ticks": 62880,
          "time": 43.507301,
          "velocity": 0.7401574803149606
        },
        {
          "duration": 0.2472830208333363,
          "durationTicks": 455,
          "midi": 43,
          "name": "G2",
          "ticks": 63360,
          "time": 43.768170999999995,
          "velocity": 0.7401574803149606
        },
        {
          "duration": 0.12989152083333266,
          "durationTicks": 239,
          "midi": 55,
          "name": "G3",
          "ticks": 63840,
          "time": 44.029041,
          "velocity": 0.7401574803149606
        },
        {
          "duration": 0.12989152083333266,
          "durationTicks": 239,
          "midi": 58,
          "name": "A#3",
          "ticks": 63840,
          "time": 44.029041,
          "velocity": 0.7401574803149606
        },
        {
          "duration": 0.2472830208333292,
          "durationTicks": 455,
          "midi": 51,
          "name": "D#3",
          "ticks": 64320,
          "time": 44.289911000000004,
          "velocity": 0.7401574803149606
        },
        {
          "duration": 0.2472830208333363,
          "durationTicks": 455,
          "midi": 45,
          "name": "A2",
          "ticks": 64800,
          "time": 44.550781,
          "velocity": 0.7401574803149606
        },
        {
          "duration": 0.2472830208333363,
          "durationTicks": 455,
          "midi": 44,
          "name": "G#2",
          "ticks": 65280,
          "time": 44.811651,
          "velocity": 0.7401574803149606
        },
        {
          "duration": 0.12989152083333977,
          "durationTicks": 239,
          "midi": 56,
          "name": "G#3",
          "ticks": 65760,
          "time": 45.072520999999995,
          "velocity": 0.7401574803149606
        },
        {
          "duration": 0.12989152083333977,
          "durationTicks": 239,
          "midi": 60,
          "name": "C4",
          "ticks": 65760,
          "time": 45.072520999999995,
          "velocity": 0.7401574803149606
        },
        {
          "duration": 0.2472830208333363,
          "durationTicks": 455,
          "midi": 51,
          "name": "D#3",
          "ticks": 66240,
          "time": 45.333391,
          "velocity": 0.7401574803149606
        },
        {
          "duration": 0.12989152083332556,
          "durationTicks": 239,
          "midi": 56,
          "name": "G#3",
          "ticks": 66720,
          "time": 45.594261,
          "velocity": 0.7401574803149606
        },
        {
          "duration": 0.12989152083332556,
          "durationTicks": 239,
          "midi": 60,
          "name": "C4",
          "ticks": 66720,
          "time": 45.594261,
          "velocity": 0.7401574803149606
        },
        {
          "duration": 0.2472830208333363,
          "durationTicks": 455,
          "midi": 43,
          "name": "G2",
          "ticks": 67200,
          "time": 45.855131,
          "velocity": 0.7401574803149606
        },
        {
          "duration": 0.12989152083333977,
          "durationTicks": 239,
          "midi": 55,
          "name": "G3",
          "ticks": 67680,
          "time": 46.116001,
          "velocity": 0.7401574803149606
        },
        {
          "duration": 0.12989152083333977,
          "durationTicks": 239,
          "midi": 58,
          "name": "A#3",
          "ticks": 67680,
          "time": 46.116001,
          "velocity": 0.7401574803149606
        },
        {
          "duration": 0.2472830208333363,
          "durationTicks": 455,
          "midi": 51,
          "name": "D#3",
          "ticks": 68160,
          "time": 46.376870999999994,
          "velocity": 0.7401574803149606
        },
        {
          "duration": 0.12989152083333266,
          "durationTicks": 239,
          "midi": 55,
          "name": "G3",
          "ticks": 68640,
          "time": 46.637741,
          "velocity": 0.7401574803149606
        },
        {
          "duration": 0.12989152083333266,
          "durationTicks": 239,
          "midi": 58,
          "name": "A#3",
          "ticks": 68640,
          "time": 46.637741,
          "velocity": 0.7401574803149606
        },
        {
          "duration": 0.2472830208333292,
          "durationTicks": 455,
          "midi": 41,
          "name": "F2",
          "ticks": 69120,
          "time": 46.898611,
          "velocity": 0.7401574803149606
        },
        {
          "duration": 0.12989152083333266,
          "durationTicks": 239,
          "midi": 56,
          "name": "G#3",
          "ticks": 69600,
          "time": 47.159481,
          "velocity": 0.7401574803149606
        },
        {
          "duration": 0.12989152083333266,
          "durationTicks": 239,
          "midi": 60,
          "name": "C4",
          "ticks": 69600,
          "time": 47.159481,
          "velocity": 0.7401574803149606
        },
        {
          "duration": 0.2472830208333363,
          "durationTicks": 455,
          "midi": 41,
          "name": "F2",
          "ticks": 70080,
          "time": 47.420351,
          "velocity": 0.7401574803149606
        },
        {
          "duration": 1.2385890208333379,
          "durationTicks": 2279,
          "midi": 46,
          "name": "A#2",
          "ticks": 70560,
          "time": 47.681220999999994,
          "velocity": 0.7401574803149606
        },
        {
          "duration": 1.2385890208333379,
          "durationTicks": 2279,
          "midi": 50,
          "name": "D3",
          "ticks": 70560,
          "time": 47.681220999999994,
          "velocity": 0.7401574803149606
        },
        {
          "duration": 1.2385890208333379,
          "durationTicks": 2279,
          "midi": 58,
          "name": "A#3",
          "ticks": 70560,
          "time": 47.681220999999994,
          "velocity": 0.7401574803149606
        },
        {
          "duration": 0.2472830208333292,
          "durationTicks": 455,
          "midi": 39,
          "name": "D#2",
          "ticks": 72960,
          "time": 48.985571,
          "velocity": 0.7401574803149606
        },
        {
          "duration": 0.2472830208333363,
          "durationTicks": 455,
          "midi": 46,
          "name": "A#2",
          "ticks": 73920,
          "time": 49.507311,
          "velocity": 0.7401574803149606
        },
        {
          "duration": 0.2472830208333363,
          "durationTicks": 455,
          "midi": 44,
          "name": "G#2",
          "ticks": 74880,
          "time": 50.029050999999995,
          "velocity": 0.7401574803149606
        },
        {
          "duration": 0.2472830208333292,
          "durationTicks": 455,
          "midi": 51,
          "name": "D#3",
          "ticks": 75840,
          "time": 50.550791000000004,
          "velocity": 0.7401574803149606
        },
        {
          "duration": 0.2472830208333363,
          "durationTicks": 455,
          "midi": 48,
          "name": "C3",
          "ticks": 76800,
          "time": 51.072531,
          "velocity": 0.7401574803149606
        },
        {
          "duration": 0.2472830208333292,
          "durationTicks": 455,
          "midi": 43,
          "name": "G2",
          "ticks": 77760,
          "time": 51.594271,
          "velocity": 0.7401574803149606
        },
        {
          "duration": 0.2472830208333363,
          "durationTicks": 455,
          "midi": 46,
          "name": "A#2",
          "ticks": 78720,
          "time": 52.116011,
          "velocity": 0.7401574803149606
        },
        {
          "duration": 0.2472830208333363,
          "durationTicks": 455,
          "midi": 51,
          "name": "D#3",
          "ticks": 79680,
          "time": 52.637750999999994,
          "velocity": 0.7401574803149606
        },
        {
          "duration": 0.2472830208333363,
          "durationTicks": 455,
          "midi": 45,
          "name": "A2",
          "ticks": 80160,
          "time": 52.898621,
          "velocity": 0.7401574803149606
        },
        {
          "duration": 0.2472830208333292,
          "durationTicks": 455,
          "midi": 44,
          "name": "G#2",
          "ticks": 80640,
          "time": 53.159491,
          "velocity": 0.7401574803149606
        },
        {
          "duration": 0.2472830208333363,
          "durationTicks": 455,
          "midi": 51,
          "name": "D#3",
          "ticks": 81600,
          "time": 53.681231,
          "velocity": 0.7401574803149606
        },
        {
          "duration": 0.2472830208333363,
          "durationTicks": 455,
          "midi": 43,
          "name": "G2",
          "ticks": 82560,
          "time": 54.202971,
          "velocity": 0.7401574803149606
        },
        {
          "duration": 0.2472830208333363,
          "durationTicks": 455,
          "midi": 48,
          "name": "C3",
          "ticks": 83520,
          "time": 54.724711,
          "velocity": 0.7401574803149606
        },
        {
          "duration": 0.2472830208333363,
          "durationTicks": 455,
          "midi": 42,
          "name": "F#2",
          "ticks": 84000,
          "time": 54.985580999999996,
          "velocity": 0.7401574803149606
        },
        {
          "duration": 0.2472830208333363,
          "durationTicks": 455,
          "midi": 41,
          "name": "F2",
          "ticks": 84480,
          "time": 55.24645099999999,
          "velocity": 0.7401574803149606
        },
        {
          "duration": 0.2472830208333292,
          "durationTicks": 455,
          "midi": 48,
          "name": "C3",
          "ticks": 85440,
          "time": 55.768191,
          "velocity": 0.7401574803149606
        },
        {
          "duration": 0.2472830208333363,
          "durationTicks": 455,
          "midi": 46,
          "name": "A#2",
          "ticks": 86400,
          "time": 56.289930999999996,
          "velocity": 0.7401574803149606
        },
        {
          "duration": 0.2472830208333363,
          "durationTicks": 455,
          "midi": 34,
          "name": "A#1",
          "ticks": 87360,
          "time": 56.811671,
          "velocity": 0.7401574803149606
        },
        {
          "duration": 0.2472830208333363,
          "durationTicks": 455,
          "midi": 39,
          "name": "D#2",
          "ticks": 88320,
          "time": 57.333411,
          "velocity": 0.7401574803149606
        },
        {
          "duration": 0.2472830208333363,
          "durationTicks": 455,
          "midi": 46,
          "name": "A#2",
          "ticks": 89280,
          "time": 57.855151,
          "velocity": 0.7401574803149606
        },
        {
          "duration": 0.2472830208333292,
          "durationTicks": 455,
          "midi": 44,
          "name": "G#2",
          "ticks": 90240,
          "time": 58.376891,
          "velocity": 0.7401574803149606
        },
        {
          "duration": 0.2472830208333292,
          "durationTicks": 455,
          "midi": 51,
          "name": "D#3",
          "ticks": 91200,
          "time": 58.898631,
          "velocity": 0.7401574803149606
        },
        {
          "duration": 0.2472830208333363,
          "durationTicks": 455,
          "midi": 48,
          "name": "C3",
          "ticks": 92160,
          "time": 59.420370999999996,
          "velocity": 0.7401574803149606
        },
        {
          "duration": 0.2472830208333363,
          "durationTicks": 455,
          "midi": 43,
          "name": "G2",
          "ticks": 93120,
          "time": 59.942111,
          "velocity": 0.7401574803149606
        },
        {
          "duration": 0.2472830208333363,
          "durationTicks": 455,
          "midi": 46,
          "name": "A#2",
          "ticks": 94080,
          "time": 60.463851,
          "velocity": 0.7401574803149606
        },
        {
          "duration": 0.2472830208333292,
          "durationTicks": 455,
          "midi": 51,
          "name": "D#3",
          "ticks": 95040,
          "time": 60.985591,
          "velocity": 0.7401574803149606
        },
        {
          "duration": 0.2472830208333363,
          "durationTicks": 455,
          "midi": 45,
          "name": "A2",
          "ticks": 95520,
          "time": 61.246461,
          "velocity": 0.7401574803149606
        },
        {
          "duration": 0.2472830208333292,
          "durationTicks": 455,
          "midi": 44,
          "name": "G#2",
          "ticks": 96000,
          "time": 61.507331,
          "velocity": 0.7401574803149606
        },
        {
          "duration": 0.2472830208333292,
          "durationTicks": 455,
          "midi": 51,
          "name": "D#3",
          "ticks": 96960,
          "time": 62.029071,
          "velocity": 0.7401574803149606
        },
        {
          "duration": 0.2472830208333363,
          "durationTicks": 455,
          "midi": 43,
          "name": "G2",
          "ticks": 97920,
          "time": 62.550810999999996,
          "velocity": 0.7401574803149606
        },
        {
          "duration": 0.2472830208333363,
          "durationTicks": 455,
          "midi": 48,
          "name": "C3",
          "ticks": 98880,
          "time": 63.072551,
          "velocity": 0.7401574803149606
        },
        {
          "duration": 0.2472830208333292,
          "durationTicks": 455,
          "midi": 42,
          "name": "F#2",
          "ticks": 99360,
          "time": 63.333421,
          "velocity": 0.7401574803149606
        },
        {
          "duration": 0.2472830208333363,
          "durationTicks": 455,
          "midi": 41,
          "name": "F2",
          "ticks": 99840,
          "time": 63.594291,
          "velocity": 0.7401574803149606
        },
        {
          "duration": 0.2472830208333363,
          "durationTicks": 455,
          "midi": 48,
          "name": "C3",
          "ticks": 100800,
          "time": 64.11603099999999,
          "velocity": 0.7401574803149606
        },
        {
          "duration": 0.2472830208333363,
          "durationTicks": 455,
          "midi": 46,
          "name": "A#2",
          "ticks": 101760,
          "time": 64.637771,
          "velocity": 0.7401574803149606
        },
        {
          "duration": 0.2472830208333363,
          "durationTicks": 455,
          "midi": 41,
          "name": "F2",
          "ticks": 102720,
          "time": 65.159511,
          "velocity": 0.7401574803149606
        },
        {
          "duration": 0.2472830208333221,
          "durationTicks": 455,
          "midi": 44,
          "name": "G#2",
          "ticks": 103680,
          "time": 65.681251,
          "velocity": 0.7401574803149606
        },
        {
          "duration": 0.12989152083332556,
          "durationTicks": 239,
          "midi": 56,
          "name": "G#3",
          "ticks": 104160,
          "time": 65.942121,
          "velocity": 0.7401574803149606
        },
        {
          "duration": 0.12989152083332556,
          "durationTicks": 239,
          "midi": 60,
          "name": "C4",
          "ticks": 104160,
          "time": 65.942121,
          "velocity": 0.7401574803149606
        },
        {
          "duration": 0.2472830208333363,
          "durationTicks": 455,
          "midi": 51,
          "name": "D#3",
          "ticks": 104640,
          "time": 66.202991,
          "velocity": 0.7401574803149606
        },
        {
          "duration": 0.12989152083333977,
          "durationTicks": 239,
          "midi": 56,
          "name": "G#3",
          "ticks": 105120,
          "time": 66.463861,
          "velocity": 0.7401574803149606
        },
        {
          "duration": 0.12989152083333977,
          "durationTicks": 239,
          "midi": 60,
          "name": "C4",
          "ticks": 105120,
          "time": 66.463861,
          "velocity": 0.7401574803149606
        },
        {
          "duration": 0.2472830208333363,
          "durationTicks": 455,
          "midi": 43,
          "name": "G2",
          "ticks": 105600,
          "time": 66.72473099999999,
          "velocity": 0.7401574803149606
        },
        {
          "duration": 0.12989152083332556,
          "durationTicks": 239,
          "midi": 55,
          "name": "G3",
          "ticks": 106080,
          "time": 66.985601,
          "velocity": 0.7401574803149606
        },
        {
          "duration": 0.12989152083332556,
          "durationTicks": 239,
          "midi": 58,
          "name": "A#3",
          "ticks": 106080,
          "time": 66.985601,
          "velocity": 0.7401574803149606
        },
        {
          "duration": 0.2472830208333363,
          "durationTicks": 455,
          "midi": 51,
          "name": "D#3",
          "ticks": 106560,
          "time": 67.246471,
          "velocity": 0.7401574803149606
        },
        {
          "duration": 0.12989152083333977,
          "durationTicks": 239,
          "midi": 55,
          "name": "G3",
          "ticks": 107040,
          "time": 67.507341,
          "velocity": 0.7401574803149606
        },
        {
          "duration": 0.12989152083333977,
          "durationTicks": 239,
          "midi": 58,
          "name": "A#3",
          "ticks": 107040,
          "time": 67.507341,
          "velocity": 0.7401574803149606
        },
        {
          "duration": 0.2472830208333363,
          "durationTicks": 455,
          "midi": 45,
          "name": "A2",
          "ticks": 107520,
          "time": 67.768211,
          "velocity": 0.7401574803149606
        },
        {
          "duration": 0.12989152083333977,
          "durationTicks": 239,
          "midi": 56,
          "name": "G#3",
          "ticks": 108000,
          "time": 68.02908099999999,
          "velocity": 0.7401574803149606
        },
        {
          "duration": 0.12989152083333977,
          "durationTicks": 239,
          "midi": 60,
          "name": "C4",
          "ticks": 108000,
          "time": 68.02908099999999,
          "velocity": 0.7401574803149606
        },
        {
          "duration": 0.2472830208333363,
          "durationTicks": 455,
          "midi": 44,
          "name": "G#2",
          "ticks": 108480,
          "time": 68.289951,
          "velocity": 0.7401574803149606
        },
        {
          "duration": 0.12989152083333977,
          "durationTicks": 239,
          "midi": 55,
          "name": "G3",
          "ticks": 108960,
          "time": 68.550821,
          "velocity": 0.7401574803149606
        },
        {
          "duration": 0.12989152083333977,
          "durationTicks": 239,
          "midi": 58,
          "name": "A#3",
          "ticks": 108960,
          "time": 68.550821,
          "velocity": 0.7401574803149606
        },
        {
          "duration": 0.2472830208333363,
          "durationTicks": 455,
          "midi": 43,
          "name": "G2",
          "ticks": 109440,
          "time": 68.811691,
          "velocity": 0.7401574803149606
        },
        {
          "duration": 0.12989152083333977,
          "durationTicks": 239,
          "midi": 55,
          "name": "G3",
          "ticks": 109920,
          "time": 69.072561,
          "velocity": 0.7401574803149606
        },
        {
          "duration": 0.12989152083333977,
          "durationTicks": 239,
          "midi": 58,
          "name": "A#3",
          "ticks": 109920,
          "time": 69.072561,
          "velocity": 0.7401574803149606
        },
        {
          "duration": 0.2472830208333363,
          "durationTicks": 455,
          "midi": 51,
          "name": "D#3",
          "ticks": 110400,
          "time": 69.33343099999999,
          "velocity": 0.7401574803149606
        },
        {
          "duration": 0.2472830208333363,
          "durationTicks": 455,
          "midi": 45,
          "name": "A2",
          "ticks": 110880,
          "time": 69.594301,
          "velocity": 0.7401574803149606
        },
        {
          "duration": 0.2472830208333363,
          "durationTicks": 455,
          "midi": 44,
          "name": "G#2",
          "ticks": 111360,
          "time": 69.855171,
          "velocity": 0.7401574803149606
        },
        {
          "duration": 0.12989152083333977,
          "durationTicks": 239,
          "midi": 56,
          "name": "G#3",
          "ticks": 111840,
          "time": 70.116041,
          "velocity": 0.7401574803149606
        },
        {
          "duration": 0.12989152083333977,
          "durationTicks": 239,
          "midi": 60,
          "name": "C4",
          "ticks": 111840,
          "time": 70.116041,
          "velocity": 0.7401574803149606
        },
        {
          "duration": 0.2472830208333363,
          "durationTicks": 455,
          "midi": 51,
          "name": "D#3",
          "ticks": 112320,
          "time": 70.37691099999999,
          "velocity": 0.7401574803149606
        },
        {
          "duration": 0.12989152083332556,
          "durationTicks": 239,
          "midi": 56,
          "name": "G#3",
          "ticks": 112800,
          "time": 70.637781,
          "velocity": 0.7401574803149606
        },
        {
          "duration": 0.12989152083332556,
          "durationTicks": 239,
          "midi": 60,
          "name": "C4",
          "ticks": 112800,
          "time": 70.637781,
          "velocity": 0.7401574803149606
        },
        {
          "duration": 0.2472830208333363,
          "durationTicks": 455,
          "midi": 43,
          "name": "G2",
          "ticks": 113280,
          "time": 70.898651,
          "velocity": 0.7401574803149606
        },
        {
          "duration": 0.12989152083333977,
          "durationTicks": 239,
          "midi": 55,
          "name": "G3",
          "ticks": 113760,
          "time": 71.159521,
          "velocity": 0.7401574803149606
        },
        {
          "duration": 0.12989152083333977,
          "durationTicks": 239,
          "midi": 58,
          "name": "A#3",
          "ticks": 113760,
          "time": 71.159521,
          "velocity": 0.7401574803149606
        },
        {
          "duration": 0.2472830208333363,
          "durationTicks": 455,
          "midi": 51,
          "name": "D#3",
          "ticks": 114240,
          "time": 71.420391,
          "velocity": 0.7401574803149606
        },
        {
          "duration": 0.12989152083333977,
          "durationTicks": 239,
          "midi": 55,
          "name": "G3",
          "ticks": 114720,
          "time": 71.68126099999999,
          "velocity": 0.7401574803149606
        },
        {
          "duration": 0.12989152083333977,
          "durationTicks": 239,
          "midi": 58,
          "name": "A#3",
          "ticks": 114720,
          "time": 71.68126099999999,
          "velocity": 0.7401574803149606
        },
        {
          "duration": 0.2472830208333363,
          "durationTicks": 455,
          "midi": 41,
          "name": "F2",
          "ticks": 115200,
          "time": 71.942131,
          "velocity": 0.7401574803149606
        },
        {
          "duration": 0.12989152083332556,
          "durationTicks": 239,
          "midi": 53,
          "name": "F3",
          "ticks": 115680,
          "time": 72.203001,
          "velocity": 0.7401574803149606
        },
        {
          "duration": 0.12989152083332556,
          "durationTicks": 239,
          "midi": 56,
          "name": "G#3",
          "ticks": 115680,
          "time": 72.203001,
          "velocity": 0.7401574803149606
        },
        {
          "duration": 0.2472830208333363,
          "durationTicks": 455,
          "midi": 41,
          "name": "F2",
          "ticks": 116160,
          "time": 72.463871,
          "velocity": 0.7401574803149606
        },
        {
          "duration": 0.12989152083333977,
          "durationTicks": 239,
          "midi": 53,
          "name": "F3",
          "ticks": 116640,
          "time": 72.724741,
          "velocity": 0.7401574803149606
        },
        {
          "duration": 0.12989152083333977,
          "durationTicks": 239,
          "midi": 56,
          "name": "G#3",
          "ticks": 116640,
          "time": 72.724741,
          "velocity": 0.7401574803149606
        },
        {
          "duration": 0.2472830208333221,
          "durationTicks": 455,
          "midi": 46,
          "name": "A#2",
          "ticks": 117120,
          "time": 72.985611,
          "velocity": 0.7401574803149606
        },
        {
          "duration": 0.12989152083332556,
          "durationTicks": 239,
          "midi": 58,
          "name": "A#3",
          "ticks": 117600,
          "time": 73.246481,
          "velocity": 0.7401574803149606
        },
        {
          "duration": 0.12989152083332556,
          "durationTicks": 239,
          "midi": 61,
          "name": "C#4",
          "ticks": 117600,
          "time": 73.246481,
          "velocity": 0.7401574803149606
        },
        {
          "duration": 0.2472830208333363,
          "durationTicks": 455,
          "midi": 39,
          "name": "D#2",
          "ticks": 118080,
          "time": 73.507351,
          "velocity": 0.7401574803149606
        },
        {
          "duration": 0.12989152083333977,
          "durationTicks": 239,
          "midi": 55,
          "name": "G3",
          "ticks": 118560,
          "time": 73.768221,
          "velocity": 0.7401574803149606
        },
        {
          "duration": 0.12989152083333977,
          "durationTicks": 239,
          "midi": 63,
          "name": "D#4",
          "ticks": 118560,
          "time": 73.768221,
          "velocity": 0.7401574803149606
        },
        {
          "duration": 0.2472830208333363,
          "durationTicks": 455,
          "midi": 44,
          "name": "G#2",
          "ticks": 119040,
          "time": 74.029091,
          "velocity": 0.7401574803149606
        },
        {
          "duration": 0.12989152083332556,
          "durationTicks": 239,
          "midi": 56,
          "name": "G#3",
          "ticks": 119520,
          "time": 74.289961,
          "velocity": 0.7401574803149606
        },
        {
          "duration": 0.12989152083332556,
          "durationTicks": 239,
          "midi": 60,
          "name": "C4",
          "ticks": 119520,
          "time": 74.289961,
          "velocity": 0.7401574803149606
        },
        {
          "duration": 0.2472830208333363,
          "durationTicks": 455,
          "midi": 51,
          "name": "D#3",
          "ticks": 120000,
          "time": 74.550831,
          "velocity": 0.7401574803149606
        },
        {
          "duration": 0.12989152083332556,
          "durationTicks": 239,
          "midi": 56,
          "name": "G#3",
          "ticks": 120480,
          "time": 74.811701,
          "velocity": 0.7401574803149606
        },
        {
          "duration": 0.12989152083332556,
          "durationTicks": 239,
          "midi": 60,
          "name": "C4",
          "ticks": 120480,
          "time": 74.811701,
          "velocity": 0.7401574803149606
        },
        {
          "duration": 0.2472830208333363,
          "durationTicks": 455,
          "midi": 43,
          "name": "G2",
          "ticks": 120960,
          "time": 75.072571,
          "velocity": 0.7401574803149606
        },
        {
          "duration": 0.12989152083333977,
          "durationTicks": 239,
          "midi": 55,
          "name": "G3",
          "ticks": 121440,
          "time": 75.333441,
          "velocity": 0.7401574803149606
        },
        {
          "duration": 0.12989152083333977,
          "durationTicks": 239,
          "midi": 58,
          "name": "A#3",
          "ticks": 121440,
          "time": 75.333441,
          "velocity": 0.7401574803149606
        },
        {
          "duration": 0.2472830208333221,
          "durationTicks": 455,
          "midi": 51,
          "name": "D#3",
          "ticks": 121920,
          "time": 75.594311,
          "velocity": 0.7401574803149606
        },
        {
          "duration": 0.12989152083332556,
          "durationTicks": 239,
          "midi": 55,
          "name": "G3",
          "ticks": 122400,
          "time": 75.855181,
          "velocity": 0.7401574803149606
        },
        {
          "duration": 0.12989152083332556,
          "durationTicks": 239,
          "midi": 58,
          "name": "A#3",
          "ticks": 122400,
          "time": 75.855181,
          "velocity": 0.7401574803149606
        },
        {
          "duration": 0.2472830208333363,
          "durationTicks": 455,
          "midi": 45,
          "name": "A2",
          "ticks": 122880,
          "time": 76.116051,
          "velocity": 0.7401574803149606
        },
        {
          "duration": 0.12989152083333977,
          "durationTicks": 239,
          "midi": 56,
          "name": "G#3",
          "ticks": 123360,
          "time": 76.376921,
          "velocity": 0.7401574803149606
        },
        {
          "duration": 0.12989152083333977,
          "durationTicks": 239,
          "midi": 60,
          "name": "C4",
          "ticks": 123360,
          "time": 76.376921,
          "velocity": 0.7401574803149606
        },
        {
          "duration": 0.2472830208333363,
          "durationTicks": 455,
          "midi": 44,
          "name": "G#2",
          "ticks": 123840,
          "time": 76.63779099999999,
          "velocity": 0.7401574803149606
        },
        {
          "duration": 0.12989152083332556,
          "durationTicks": 239,
          "midi": 55,
          "name": "G3",
          "ticks": 124320,
          "time": 76.898661,
          "velocity": 0.7401574803149606
        },
        {
          "duration": 0.12989152083332556,
          "durationTicks": 239,
          "midi": 58,
          "name": "A#3",
          "ticks": 124320,
          "time": 76.898661,
          "velocity": 0.7401574803149606
        },
        {
          "duration": 0.2472830208333363,
          "durationTicks": 455,
          "midi": 43,
          "name": "G2",
          "ticks": 124800,
          "time": 77.159531,
          "velocity": 0.7401574803149606
        },
        {
          "duration": 0.12989152083332556,
          "durationTicks": 239,
          "midi": 55,
          "name": "G3",
          "ticks": 125280,
          "time": 77.420401,
          "velocity": 0.7401574803149606
        },
        {
          "duration": 0.12989152083332556,
          "durationTicks": 239,
          "midi": 58,
          "name": "A#3",
          "ticks": 125280,
          "time": 77.420401,
          "velocity": 0.7401574803149606
        },
        {
          "duration": 0.2472830208333363,
          "durationTicks": 455,
          "midi": 51,
          "name": "D#3",
          "ticks": 125760,
          "time": 77.681271,
          "velocity": 0.7401574803149606
        },
        {
          "duration": 0.2472830208333363,
          "durationTicks": 455,
          "midi": 45,
          "name": "A2",
          "ticks": 126240,
          "time": 77.94214099999999,
          "velocity": 0.7401574803149606
        },
        {
          "duration": 0.2472830208333221,
          "durationTicks": 455,
          "midi": 44,
          "name": "G#2",
          "ticks": 126720,
          "time": 78.203011,
          "velocity": 0.7401574803149606
        },
        {
          "duration": 0.12989152083332556,
          "durationTicks": 239,
          "midi": 56,
          "name": "G#3",
          "ticks": 127200,
          "time": 78.463881,
          "velocity": 0.7401574803149606
        },
        {
          "duration": 0.12989152083332556,
          "durationTicks": 239,
          "midi": 60,
          "name": "C4",
          "ticks": 127200,
          "time": 78.463881,
          "velocity": 0.7401574803149606
        },
        {
          "duration": 0.2472830208333363,
          "durationTicks": 455,
          "midi": 51,
          "name": "D#3",
          "ticks": 127680,
          "time": 78.724751,
          "velocity": 0.7401574803149606
        },
        {
          "duration": 0.12989152083333977,
          "durationTicks": 239,
          "midi": 56,
          "name": "G#3",
          "ticks": 128160,
          "time": 78.985621,
          "velocity": 0.7401574803149606
        },
        {
          "duration": 0.12989152083333977,
          "durationTicks": 239,
          "midi": 60,
          "name": "C4",
          "ticks": 128160,
          "time": 78.985621,
          "velocity": 0.7401574803149606
        },
        {
          "duration": 0.2472830208333363,
          "durationTicks": 455,
          "midi": 43,
          "name": "G2",
          "ticks": 128640,
          "time": 79.24649099999999,
          "velocity": 0.7401574803149606
        },
        {
          "duration": 0.12989152083332556,
          "durationTicks": 239,
          "midi": 55,
          "name": "G3",
          "ticks": 129120,
          "time": 79.507361,
          "velocity": 0.7401574803149606
        },
        {
          "duration": 0.12989152083332556,
          "durationTicks": 239,
          "midi": 58,
          "name": "A#3",
          "ticks": 129120,
          "time": 79.507361,
          "velocity": 0.7401574803149606
        },
        {
          "duration": 0.2472830208333363,
          "durationTicks": 455,
          "midi": 51,
          "name": "D#3",
          "ticks": 129600,
          "time": 79.768231,
          "velocity": 0.7401574803149606
        },
        {
          "duration": 0.12989152083332556,
          "durationTicks": 239,
          "midi": 55,
          "name": "G3",
          "ticks": 130080,
          "time": 80.029101,
          "velocity": 0.7401574803149606
        },
        {
          "duration": 0.12989152083332556,
          "durationTicks": 239,
          "midi": 58,
          "name": "A#3",
          "ticks": 130080,
          "time": 80.029101,
          "velocity": 0.7401574803149606
        },
        {
          "duration": 0.2472830208333363,
          "durationTicks": 455,
          "midi": 41,
          "name": "F2",
          "ticks": 130560,
          "time": 80.289971,
          "velocity": 0.7401574803149606
        },
        {
          "duration": 0.12989152083333977,
          "durationTicks": 239,
          "midi": 56,
          "name": "G#3",
          "ticks": 131040,
          "time": 80.55084099999999,
          "velocity": 0.7401574803149606
        },
        {
          "duration": 0.12989152083333977,
          "durationTicks": 239,
          "midi": 60,
          "name": "C4",
          "ticks": 131040,
          "time": 80.55084099999999,
          "velocity": 0.7401574803149606
        },
        {
          "duration": 0.2472830208333221,
          "durationTicks": 455,
          "midi": 41,
          "name": "F2",
          "ticks": 131520,
          "time": 80.811711,
          "velocity": 0.7401574803149606
        },
        {
          "duration": 0.4951095208333385,
          "durationTicks": 911,
          "midi": 46,
          "name": "A#2",
          "ticks": 132480,
          "time": 81.333451,
          "velocity": 0.7401574803149606
        },
        {
          "duration": 0.4951095208333385,
          "durationTicks": 911,
          "midi": 51,
          "name": "D#3",
          "ticks": 132480,
          "time": 81.333451,
          "velocity": 0.7401574803149606
        },
        {
          "duration": 0.4951095208333385,
          "durationTicks": 911,
          "midi": 58,
          "name": "A#3",
          "ticks": 132480,
          "time": 81.333451,
          "velocity": 0.7401574803149606
        },
        {
          "duration": 0.4951095208333385,
          "durationTicks": 911,
          "midi": 50,
          "name": "D3",
          "ticks": 133440,
          "time": 81.85519099999999,
          "velocity": 0.7401574803149606
        },
        {
          "duration": 0.4951095208333385,
          "durationTicks": 911,
          "midi": 53,
          "name": "F3",
          "ticks": 133440,
          "time": 81.85519099999999,
          "velocity": 0.7401574803149606
        },
        {
          "duration": 0.4951095208333385,
          "durationTicks": 911,
          "midi": 58,
          "name": "A#3",
          "ticks": 133440,
          "time": 81.85519099999999,
          "velocity": 0.7401574803149606
        },
        {
          "duration": 0.4951095208333385,
          "durationTicks": 911,
          "midi": 51,
          "name": "D#3",
          "ticks": 134400,
          "time": 82.376931,
          "velocity": 0.7401574803149606
        },
        {
          "duration": 0.4951095208333385,
          "durationTicks": 911,
          "midi": 54,
          "name": "F#3",
          "ticks": 134400,
          "time": 82.376931,
          "velocity": 0.7401574803149606
        },
        {
          "duration": 0.4951095208333385,
          "durationTicks": 911,
          "midi": 59,
          "name": "B3",
          "ticks": 134400,
          "time": 82.376931,
          "velocity": 0.7401574803149606
        },
        {
          "duration": 0.4951095208333385,
          "durationTicks": 911,
          "midi": 51,
          "name": "D#3",
          "ticks": 135360,
          "time": 82.898671,
          "velocity": 0.7401574803149606
        },
        {
          "duration": 0.4951095208333385,
          "durationTicks": 911,
          "midi": 54,
          "name": "F#3",
          "ticks": 135360,
          "time": 82.898671,
          "velocity": 0.7401574803149606
        },
        {
          "duration": 0.4951095208333385,
          "durationTicks": 911,
          "midi": 59,
          "name": "B3",
          "ticks": 135360,
          "time": 82.898671,
          "velocity": 0.7401574803149606
        },
        {
          "duration": 0.2472830208333221,
          "durationTicks": 455,
          "midi": 40,
          "name": "E2",
          "ticks": 136320,
          "time": 83.420411,
          "velocity": 0.7401574803149606
        },
        {
          "duration": 0.2472830208333363,
          "durationTicks": 455,
          "midi": 47,
          "name": "B2",
          "ticks": 137280,
          "time": 83.942151,
          "velocity": 0.7401574803149606
        },
        {
          "duration": 0.24728302083335052,
          "durationTicks": 455,
          "midi": 45,
          "name": "A2",
          "ticks": 138240,
          "time": 84.46389099999999,
          "velocity": 0.7401574803149606
        },
        {
          "duration": 0.2472830208333363,
          "durationTicks": 455,
          "midi": 52,
          "name": "E3",
          "ticks": 139200,
          "time": 84.985631,
          "velocity": 0.7401574803149606
        },
        {
          "duration": 0.2472830208333221,
          "durationTicks": 455,
          "midi": 49,
          "name": "C#3",
          "ticks": 140160,
          "time": 85.507371,
          "velocity": 0.7401574803149606
        },
        {
          "duration": 0.2472830208333363,
          "durationTicks": 455,
          "midi": 44,
          "name": "G#2",
          "ticks": 141120,
          "time": 86.029111,
          "velocity": 0.7401574803149606
        },
        {
          "duration": 0.2472830208333363,
          "durationTicks": 455,
          "midi": 47,
          "name": "B2",
          "ticks": 142080,
          "time": 86.550851,
          "velocity": 0.7401574803149606
        },
        {
          "duration": 0.24728302083335052,
          "durationTicks": 455,
          "midi": 52,
          "name": "E3",
          "ticks": 143040,
          "time": 87.07259099999999,
          "velocity": 0.7401574803149606
        },
        {
          "duration": 0.2472830208333363,
          "durationTicks": 455,
          "midi": 46,
          "name": "A#2",
          "ticks": 143520,
          "time": 87.333461,
          "velocity": 0.7401574803149606
        },
        {
          "duration": 0.2472830208333363,
          "durationTicks": 455,
          "midi": 45,
          "name": "A2",
          "ticks": 144000,
          "time": 87.594331,
          "velocity": 0.7401574803149606
        },
        {
          "duration": 0.2472830208333221,
          "durationTicks": 455,
          "midi": 52,
          "name": "E3",
          "ticks": 144960,
          "time": 88.116071,
          "velocity": 0.7401574803149606
        },
        {
          "duration": 0.2472830208333363,
          "durationTicks": 455,
          "midi": 44,
          "name": "G#2",
          "ticks": 145920,
          "time": 88.637811,
          "velocity": 0.7401574803149606
        },
        {
          "duration": 0.2472830208333363,
          "durationTicks": 455,
          "midi": 49,
          "name": "C#3",
          "ticks": 146880,
          "time": 89.159551,
          "velocity": 0.7401574803149606
        },
        {
          "duration": 0.2472830208333221,
          "durationTicks": 455,
          "midi": 43,
          "name": "G2",
          "ticks": 147360,
          "time": 89.420421,
          "velocity": 0.7401574803149606
        },
        {
          "duration": 0.24728302083335052,
          "durationTicks": 455,
          "midi": 42,
          "name": "F#2",
          "ticks": 147840,
          "time": 89.68129099999999,
          "velocity": 0.7401574803149606
        },
        {
          "duration": 0.2472830208333363,
          "durationTicks": 455,
          "midi": 49,
          "name": "C#3",
          "ticks": 148800,
          "time": 90.203031,
          "velocity": 0.7401574803149606
        },
        {
          "duration": 0.2472830208333221,
          "durationTicks": 455,
          "midi": 47,
          "name": "B2",
          "ticks": 149760,
          "time": 90.724771,
          "velocity": 0.7401574803149606
        },
        {
          "duration": 0.2472830208333221,
          "durationTicks": 455,
          "midi": 35,
          "name": "B1",
          "ticks": 150720,
          "time": 91.246511,
          "velocity": 0.7401574803149606
        },
        {
          "duration": 0.2472830208333363,
          "durationTicks": 455,
          "midi": 40,
          "name": "E2",
          "ticks": 151680,
          "time": 91.76825099999999,
          "velocity": 0.7401574803149606
        },
        {
          "duration": 0.2472830208333363,
          "durationTicks": 455,
          "midi": 47,
          "name": "B2",
          "ticks": 152640,
          "time": 92.28999099999999,
          "velocity": 0.7401574803149606
        },
        {
          "duration": 0.2472830208333363,
          "durationTicks": 455,
          "midi": 45,
          "name": "A2",
          "ticks": 153600,
          "time": 92.811731,
          "velocity": 0.7401574803149606
        },
        {
          "duration": 0.2472830208333363,
          "durationTicks": 455,
          "midi": 52,
          "name": "E3",
          "ticks": 154560,
          "time": 93.33347099999999,
          "velocity": 0.7401574803149606
        },
        {
          "duration": 0.2472830208333221,
          "durationTicks": 455,
          "midi": 49,
          "name": "C#3",
          "ticks": 155520,
          "time": 93.855211,
          "velocity": 0.7401574803149606
        },
        {
          "duration": 0.2472830208333363,
          "durationTicks": 455,
          "midi": 44,
          "name": "G#2",
          "ticks": 156480,
          "time": 94.37695099999999,
          "velocity": 0.7401574803149606
        },
        {
          "duration": 0.2472830208333221,
          "durationTicks": 455,
          "midi": 47,
          "name": "B2",
          "ticks": 157440,
          "time": 94.898691,
          "velocity": 0.7401574803149606
        },
        {
          "duration": 0.2472830208333363,
          "durationTicks": 455,
          "midi": 52,
          "name": "E3",
          "ticks": 158400,
          "time": 95.420431,
          "velocity": 0.7401574803149606
        },
        {
          "duration": 0.2472830208333363,
          "durationTicks": 455,
          "midi": 46,
          "name": "A#2",
          "ticks": 158880,
          "time": 95.68130099999999,
          "velocity": 0.7401574803149606
        },
        {
          "duration": 0.2472830208333363,
          "durationTicks": 455,
          "midi": 45,
          "name": "A2",
          "ticks": 159360,
          "time": 95.94217099999999,
          "velocity": 0.7401574803149606
        },
        {
          "duration": 0.2472830208333363,
          "durationTicks": 455,
          "midi": 52,
          "name": "E3",
          "ticks": 160320,
          "time": 96.463911,
          "velocity": 0.7401574803149606
        },
        {
          "duration": 0.2472830208333363,
          "durationTicks": 455,
          "midi": 44,
          "name": "G#2",
          "ticks": 161280,
          "time": 96.98565099999999,
          "velocity": 0.7401574803149606
        },
        {
          "duration": 0.2472830208333221,
          "durationTicks": 455,
          "midi": 49,
          "name": "C#3",
          "ticks": 162240,
          "time": 97.507391,
          "velocity": 0.7401574803149606
        },
        {
          "duration": 0.2472830208333363,
          "durationTicks": 455,
          "midi": 43,
          "name": "G2",
          "ticks": 162720,
          "time": 97.768261,
          "velocity": 0.7401574803149606
        },
        {
          "duration": 0.2472830208333363,
          "durationTicks": 455,
          "midi": 42,
          "name": "F#2",
          "ticks": 163200,
          "time": 98.02913099999999,
          "velocity": 0.7401574803149606
        },
        {
          "duration": 0.2472830208333221,
          "durationTicks": 455,
          "midi": 49,
          "name": "C#3",
          "ticks": 164160,
          "time": 98.550871,
          "velocity": 0.7401574803149606
        },
        {
          "duration": 0.2472830208333363,
          "durationTicks": 455,
          "midi": 47,
          "name": "B2",
          "ticks": 165120,
          "time": 99.072611,
          "velocity": 0.7401574803149606
        },
        {
          "duration": 0.2472830208333363,
          "durationTicks": 455,
          "midi": 42,
          "name": "F#2",
          "ticks": 166080,
          "time": 99.59435099999999,
          "velocity": 0.7401574803149606
        },
        {
          "duration": 0.2472830208333363,
          "durationTicks": 455,
          "midi": 42,
          "name": "F#2",
          "ticks": 167040,
          "time": 100.116091,
          "velocity": 0.7401574803149606
        },
        {
          "duration": 0.12989152083332556,
          "durationTicks": 239,
          "midi": 57,
          "name": "A3",
          "ticks": 167520,
          "time": 100.376961,
          "velocity": 0.7401574803149606
        },
        {
          "duration": 0.2472830208333363,
          "durationTicks": 455,
          "midi": 49,
          "name": "C#3",
          "ticks": 168000,
          "time": 100.63783099999999,
          "velocity": 0.7401574803149606
        },
        {
          "duration": 0.12989152083333977,
          "durationTicks": 239,
          "midi": 57,
          "name": "A3",
          "ticks": 168480,
          "time": 100.89870099999999,
          "velocity": 0.7401574803149606
        },
        {
          "duration": 0.2472830208333221,
          "durationTicks": 455,
          "midi": 47,
          "name": "B2",
          "ticks": 168960,
          "time": 101.159571,
          "velocity": 0.7401574803149606
        },
        {
          "duration": 0.12989152083332556,
          "durationTicks": 239,
          "midi": 59,
          "name": "B3",
          "ticks": 169440,
          "time": 101.420441,
          "velocity": 0.7401574803149606
        },
        {
          "duration": 0.2472830208333363,
          "durationTicks": 455,
          "midi": 42,
          "name": "F#2",
          "ticks": 169920,
          "time": 101.681311,
          "velocity": 0.7401574803149606
        },
        {
          "duration": 0.12989152083333977,
          "durationTicks": 239,
          "midi": 59,
          "name": "B3",
          "ticks": 170400,
          "time": 101.94218099999999,
          "velocity": 0.7401574803149606
        },
        {
          "duration": 0.2472830208333363,
          "durationTicks": 455,
          "midi": 42,
          "name": "F#2",
          "ticks": 170880,
          "time": 102.20305099999999,
          "velocity": 0.7401574803149606
        },
        {
          "duration": 0.12989152083332556,
          "durationTicks": 239,
          "midi": 57,
          "name": "A3",
          "ticks": 171360,
          "time": 102.463921,
          "velocity": 0.7401574803149606
        },
        {
          "duration": 0.12989152083332556,
          "durationTicks": 239,
          "midi": 61,
          "name": "C#4",
          "ticks": 171360,
          "time": 102.463921,
          "velocity": 0.7401574803149606
        },
        {
          "duration": 0.2472830208333363,
          "durationTicks": 455,
          "midi": 42,
          "name": "F#2",
          "ticks": 171840,
          "time": 102.724791,
          "velocity": 0.7401574803149606
        },
        {
          "duration": 0.12989152083332556,
          "durationTicks": 239,
          "midi": 57,
          "name": "A3",
          "ticks": 172320,
          "time": 102.985661,
          "velocity": 0.7401574803149606
        },
        {
          "duration": 0.12989152083332556,
          "durationTicks": 239,
          "midi": 61,
          "name": "C#4",
          "ticks": 172320,
          "time": 102.985661,
          "velocity": 0.7401574803149606
        },
        {
          "duration": 0.2472830208333363,
          "durationTicks": 455,
          "midi": 47,
          "name": "B2",
          "ticks": 172800,
          "time": 103.24653099999999,
          "velocity": 0.7401574803149606
        },
        {
          "duration": 0.12989152083333977,
          "durationTicks": 239,
          "midi": 57,
          "name": "A3",
          "ticks": 173280,
          "time": 103.50740099999999,
          "velocity": 0.7401574803149606
        },
        {
          "duration": 0.12989152083333977,
          "durationTicks": 239,
          "midi": 63,
          "name": "D#4",
          "ticks": 173280,
          "time": 103.50740099999999,
          "velocity": 0.7401574803149606
        },
        {
          "duration": 0.2472830208333221,
          "durationTicks": 455,
          "midi": 47,
          "name": "B2",
          "ticks": 173760,
          "time": 103.768271,
          "velocity": 0.7401574803149606
        },
        {
          "duration": 0.12989152083332556,
          "durationTicks": 239,
          "midi": 57,
          "name": "A3",
          "ticks": 174240,
          "time": 104.029141,
          "velocity": 0.7401574803149606
        },
        {
          "duration": 0.12989152083332556,
          "durationTicks": 239,
          "midi": 63,
          "name": "D#4",
          "ticks": 174240,
          "time": 104.029141,
          "velocity": 0.7401574803149606
        },
        {
          "duration": 0.2472830208333363,
          "durationTicks": 455,
          "midi": 52,
          "name": "E3",
          "ticks": 174720,
          "time": 104.29001099999999,
          "velocity": 0.7401574803149606
        },
        {
          "duration": 0.12989152083333977,
          "durationTicks": 239,
          "midi": 59,
          "name": "B3",
          "ticks": 175200,
          "time": 104.55088099999999,
          "velocity": 0.7401574803149606
        },
        {
          "duration": 0.12989152083333977,
          "durationTicks": 239,
          "midi": 64,
          "name": "E4",
          "ticks": 175200,
          "time": 104.55088099999999,
          "velocity": 0.7401574803149606
        },
        {
          "duration": 0.2472830208333363,
          "durationTicks": 455,
          "midi": 47,
          "name": "B2",
          "ticks": 175680,
          "time": 104.81175099999999,
          "velocity": 0.7401574803149606
        },
        {
          "duration": 0.12989152083332556,
          "durationTicks": 239,
          "midi": 56,
          "name": "G#3",
          "ticks": 176160,
          "time": 105.072621,
          "velocity": 0.7401574803149606
        },
        {
          "duration": 0.12989152083332556,
          "durationTicks": 239,
          "midi": 59,
          "name": "B3",
          "ticks": 176160,
          "time": 105.072621,
          "velocity": 0.7401574803149606
        },
        {
          "duration": 0.2472830208333363,
          "durationTicks": 455,
          "midi": 48,
          "name": "C3",
          "ticks": 176640,
          "time": 105.333491,
          "velocity": 0.7401574803149606
        },
        {
          "duration": 0.12989152083333977,
          "durationTicks": 239,
          "midi": 60,
          "name": "C4",
          "ticks": 177120,
          "time": 105.59436099999999,
          "velocity": 0.7401574803149606
        },
        {
          "duration": 0.12989152083333977,
          "durationTicks": 239,
          "midi": 64,
          "name": "E4",
          "ticks": 177120,
          "time": 105.59436099999999,
          "velocity": 0.7401574803149606
        },
        {
          "duration": 0.2472830208333363,
          "durationTicks": 455,
          "midi": 43,
          "name": "G2",
          "ticks": 177600,
          "time": 105.85523099999999,
          "velocity": 0.7401574803149606
        },
        {
          "duration": 0.12989152083333977,
          "durationTicks": 239,
          "midi": 55,
          "name": "G3",
          "ticks": 178080,
          "time": 106.11610099999999,
          "velocity": 0.7401574803149606
        },
        {
          "duration": 0.12989152083333977,
          "durationTicks": 239,
          "midi": 60,
          "name": "C4",
          "ticks": 178080,
          "time": 106.11610099999999,
          "velocity": 0.7401574803149606
        },
        {
          "duration": 0.2472830208333221,
          "durationTicks": 455,
          "midi": 41,
          "name": "F2",
          "ticks": 178560,
          "time": 106.376971,
          "velocity": 0.7401574803149606
        },
        {
          "duration": 0.2472830208333221,
          "durationTicks": 455,
          "midi": 53,
          "name": "F3",
          "ticks": 178560,
          "time": 106.376971,
          "velocity": 0.7401574803149606
        },
        {
          "duration": 0.16467418749999752,
          "durationTicks": 303,
          "midi": 41,
          "name": "F2",
          "ticks": 179520,
          "time": 106.89871099999999,
          "velocity": 0.7401574803149606
        },
        {
          "duration": 0.16467418749999752,
          "durationTicks": 303,
          "midi": 43,
          "name": "G2",
          "ticks": 179840,
          "time": 107.07262433333332,
          "velocity": 0.7401574803149606
        },
        {
          "duration": 0.16467418749999752,
          "durationTicks": 303,
          "midi": 45,
          "name": "A2",
          "ticks": 180160,
          "time": 107.24653766666665,
          "velocity": 0.7401574803149606
        },
        {
          "duration": 0.2472830208333363,
          "durationTicks": 455,
          "midi": 47,
          "name": "B2",
          "ticks": 180480,
          "time": 107.42045099999999,
          "velocity": 0.7401574803149606
        },
        {
          "duration": 0.2472830208333363,
          "durationTicks": 455,
          "midi": 54,
          "name": "F#3",
          "ticks": 180480,
          "time": 107.42045099999999,
          "velocity": 0.7401574803149606
        },
        {
          "duration": 0.2472830208333363,
          "durationTicks": 455,
          "midi": 35,
          "name": "B1",
          "ticks": 181440,
          "time": 107.942191,
          "velocity": 0.7401574803149606
        },
        {
          "duration": 0.2472830208333363,
          "durationTicks": 455,
          "midi": 47,
          "name": "B2",
          "ticks": 181440,
          "time": 107.942191,
          "velocity": 0.7401574803149606
        },
        {
          "duration": 1.4864155208333472,
          "durationTicks": 2735,
          "midi": 40,
          "name": "E2",
          "ticks": 182400,
          "time": 108.46393099999999,
          "velocity": 0.7401574803149606
        },
        {
          "duration": 1.4864155208333472,
          "durationTicks": 2735,
          "midi": 52,
          "name": "E3",
          "ticks": 182400,
          "time": 108.46393099999999,
          "velocity": 0.7401574803149606
        },
        {
          "duration": 0.06467402083333695,
          "durationTicks": 119,
          "midi": 40,
          "name": "E2",
          "ticks": 185280,
          "time": 110.02915099999998,
          "velocity": 0.7401574803149606
        },
        {
          "duration": 0.06467402083333695,
          "durationTicks": 119,
          "midi": 52,
          "name": "E3",
          "ticks": 185280,
          "time": 110.02915099999998,
          "velocity": 0.7401574803149606
        }
      ],
      "endOfTrackTicks": 185400
    }
  ]
}
