{
  "header": {
    "keySignatures": [],
    "meta": [],
    "name": "Smooth Synth (Classic)",
    "ppq": 384,
    "tempos": [
      {
        "bpm": 150,
        "ticks": 0
      }
    ],
    "timeSignatures": [
      {
        "ticks": 0,
        "timeSignature": [4, 4],
        "measures": 0
      }
    ]
  },
  "tracks": [
    {
      "channel": 0,
      "controlChanges": {},
      "pitchBends": [],
      "instrument": {
        "family": "synth lead",
        "number": 80,
        "name": "lead 1 (square)"
      },
      "name": "Smooth Synth (Classic)",
      "notes": [
        {
          "duration": 1.5,
          "durationTicks": 1440,
          "midi": 76,
          "name": "E5",
          "ticks": 0,
          "time": 0,
          "velocity": 0.33858267716535434
        },
        {
          "duration": 0.30000000000000004,
          "durationTicks": 288,
          "midi": 76,
          "name": "E5",
          "ticks": 1536,
          "time": 1.6,
          "velocity": 0.3937007874015748
        },
        {
          "duration": 0.20000000000000018,
          "durationTicks": 192,
          "midi": 71,
          "name": "B4",
          "ticks": 1920,
          "time": 2,
          "velocity": 0.33858267716535434
        },
        {
          "duration": 0.20000000000000018,
          "durationTicks": 192,
          "midi": 72,
          "name": "C5",
          "ticks": 2112,
          "time": 2.2,
          "velocity": 0.33858267716535434
        },
        {
          "duration": 0.09999999999999964,
          "durationTicks": 96,
          "midi": 74,
          "name": "D5",
          "ticks": 2304,
          "time": 2.4000000000000004,
          "velocity": 0.3937007874015748
        },
        {
          "duration": 0.10000000000000009,
          "durationTicks": 96,
          "midi": 76,
          "name": "E5",
          "ticks": 2496,
          "time": 2.6,
          "velocity": 0.33858267716535434
        },
        {
          "duration": 0.10000000000000009,
          "durationTicks": 96,
          "midi": 74,
          "name": "D5",
          "ticks": 2592,
          "time": 2.7,
          "velocity": 0.33858267716535434
        },
        {
          "duration": 0.10000000000000009,
          "durationTicks": 96,
          "midi": 72,
          "name": "C5",
          "ticks": 2688,
          "time": 2.8000000000000003,
          "velocity": 0.33858267716535434
        },
        {
          "duration": 0.10000000000000009,
          "durationTicks": 96,
          "midi": 71,
          "name": "B4",
          "ticks": 2880,
          "time": 3,
          "velocity": 0.33858267716535434
        },
        {
          "duration": 0.2999999999999998,
          "durationTicks": 288,
          "midi": 69,
          "name": "A4",
          "ticks": 3072,
          "time": 3.2,
          "velocity": 0.3937007874015748
        },
        {
          "duration": 0.2999999999999998,
          "durationTicks": 288,
          "midi": 76,
          "name": "E5",
          "ticks": 3072,
          "time": 3.2,
          "velocity": 0.3937007874015748
        },
        {
          "duration": 0.20000000000000018,
          "durationTicks": 192,
          "midi": 69,
          "name": "A4",
          "ticks": 3456,
          "time": 3.6,
          "velocity": 0.33858267716535434
        },
        {
          "duration": 0.19999999999999973,
          "durationTicks": 192,
          "midi": 72,
          "name": "C5",
          "ticks": 3648,
          "time": 3.8000000000000003,
          "velocity": 0.33858267716535434
        },
        {
          "duration": 0.2999999999999998,
          "durationTicks": 288,
          "midi": 60,
          "name": "C4",
          "ticks": 3840,
          "time": 4,
          "velocity": 0.3937007874015748
        },
        {
          "duration": 0.2999999999999998,
          "durationTicks": 288,
          "midi": 76,
          "name": "E5",
          "ticks": 3840,
          "time": 4,
          "velocity": 0.3937007874015748
        },
        {
          "duration": 0.20000000000000018,
          "durationTicks": 192,
          "midi": 65,
          "name": "F4",
          "ticks": 4224,
          "time": 4.4,
          "velocity": 0.33858267716535434
        },
        {
          "duration": 0.20000000000000018,
          "durationTicks": 192,
          "midi": 74,
          "name": "D5",
          "ticks": 4224,
          "time": 4.4,
          "velocity": 0.33858267716535434
        },
        {
          "duration": 0.20000000000000018,
          "durationTicks": 192,
          "midi": 64,
          "name": "E4",
          "ticks": 4416,
          "time": 4.6000000000000005,
          "velocity": 0.3937007874015748
        },
        {
          "duration": 0.1999999999999993,
          "durationTicks": 192,
          "midi": 60,
          "name": "C4",
          "ticks": 4608,
          "time": 4.800000000000001,
          "velocity": 0.33858267716535434
        },
        {
          "duration": 0.1999999999999993,
          "durationTicks": 192,
          "midi": 72,
          "name": "C5",
          "ticks": 4608,
          "time": 4.800000000000001,
          "velocity": 0.33858267716535434
        },
        {
          "duration": 0.5,
          "durationTicks": 480,
          "midi": 59,
          "name": "B3",
          "ticks": 4800,
          "time": 5,
          "velocity": 0.33858267716535434
        },
        {
          "duration": 0.5,
          "durationTicks": 480,
          "midi": 71,
          "name": "B4",
          "ticks": 4800,
          "time": 5,
          "velocity": 0.33858267716535434
        },
        {
          "duration": 0.2999999999999998,
          "durationTicks": 288,
          "midi": 60,
          "name": "C4",
          "ticks": 5376,
          "time": 5.6000000000000005,
          "velocity": 0.3937007874015748
        },
        {
          "duration": 0.2999999999999998,
          "durationTicks": 288,
          "midi": 72,
          "name": "C5",
          "ticks": 5376,
          "time": 5.6000000000000005,
          "velocity": 0.3937007874015748
        },
        {
          "duration": 0.3000000000000007,
          "durationTicks": 288,
          "midi": 60,
          "name": "C4",
          "ticks": 5760,
          "time": 6,
          "velocity": 0.33858267716535434
        },
        {
          "duration": 0.3000000000000007,
          "durationTicks": 288,
          "midi": 76,
          "name": "E5",
          "ticks": 5760,
          "time": 6,
          "velocity": 0.33858267716535434
        },
        {
          "duration": 0.2999999999999998,
          "durationTicks": 288,
          "midi": 60,
          "name": "C4",
          "ticks": 6144,
          "time": 6.4,
          "velocity": 0.33858267716535434
        },
        {
          "duration": 0.2999999999999998,
          "durationTicks": 288,
          "midi": 72,
          "name": "C5",
          "ticks": 6144,
          "time": 6.4,
          "velocity": 0.33858267716535434
        },
        {
          "duration": 0.2999999999999998,
          "durationTicks": 288,
          "midi": 57,
          "name": "A3",
          "ticks": 6528,
          "time": 6.800000000000001,
          "velocity": 0.33858267716535434
        },
        {
          "duration": 0.2999999999999998,
          "durationTicks": 288,
          "midi": 69,
          "name": "A4",
          "ticks": 6528,
          "time": 6.800000000000001,
          "velocity": 0.33858267716535434
        },
        {
          "duration": 0.7000000000000002,
          "durationTicks": 672,
          "midi": 45,
          "name": "A2",
          "ticks": 6912,
          "time": 7.2,
          "velocity": 0.33858267716535434
        },
        {
          "duration": 0.7000000000000002,
          "durationTicks": 672,
          "midi": 69,
          "name": "A4",
          "ticks": 6912,
          "time": 7.2,
          "velocity": 0.33858267716535434
        },
        {
          "duration": 0.3999999999999986,
          "durationTicks": 384,
          "midi": 74,
          "name": "D5",
          "ticks": 7872,
          "time": 8.200000000000001,
          "velocity": 0.33858267716535434
        },
        {
          "duration": 0.20000000000000107,
          "durationTicks": 192,
          "midi": 77,
          "name": "F5",
          "ticks": 8256,
          "time": 8.6,
          "velocity": 0.33858267716535434
        },
        {
          "duration": 0.29999999999999893,
          "durationTicks": 288,
          "midi": 81,
          "name": "A5",
          "ticks": 8448,
          "time": 8.8,
          "velocity": 0.3937007874015748
        },
        {
          "duration": 0.1999999999999993,
          "durationTicks": 192,
          "midi": 79,
          "name": "G5",
          "ticks": 8832,
          "time": 9.200000000000001,
          "velocity": 0.33858267716535434
        },
        {
          "duration": 0.20000000000000107,
          "durationTicks": 192,
          "midi": 77,
          "name": "F5",
          "ticks": 9024,
          "time": 9.4,
          "velocity": 0.33858267716535434
        },
        {
          "duration": 0.5,
          "durationTicks": 480,
          "midi": 79,
          "name": "G5",
          "ticks": 9216,
          "time": 9.600000000000001,
          "velocity": 0.3937007874015748
        },
        {
          "duration": 0.1999999999999993,
          "durationTicks": 192,
          "midi": 72,
          "name": "C5",
          "ticks": 9792,
          "time": 10.200000000000001,
          "velocity": 0.33858267716535434
        },
        {
          "duration": 0.3000000000000007,
          "durationTicks": 288,
          "midi": 76,
          "name": "E5",
          "ticks": 9984,
          "time": 10.4,
          "velocity": 0.3937007874015748
        },
        {
          "duration": 0.1999999999999993,
          "durationTicks": 192,
          "midi": 74,
          "name": "D5",
          "ticks": 10368,
          "time": 10.8,
          "velocity": 0.33858267716535434
        },
        {
          "duration": 0.20000000000000107,
          "durationTicks": 192,
          "midi": 72,
          "name": "C5",
          "ticks": 10560,
          "time": 11,
          "velocity": 0.33858267716535434
        },
        {
          "duration": 0.29999999999999893,
          "durationTicks": 288,
          "midi": 76,
          "name": "E5",
          "ticks": 10752,
          "time": 11.200000000000001,
          "velocity": 0.3937007874015748
        },
        {
          "duration": 0.1999999999999993,
          "durationTicks": 192,
          "midi": 71,
          "name": "B4",
          "ticks": 11136,
          "time": 11.600000000000001,
          "velocity": 0.33858267716535434
        },
        {
          "duration": 0.1999999999999993,
          "durationTicks": 192,
          "midi": 72,
          "name": "C5",
          "ticks": 11328,
          "time": 11.8,
          "velocity": 0.33858267716535434
        },
        {
          "duration": 0.3000000000000007,
          "durationTicks": 288,
          "midi": 74,
          "name": "D5",
          "ticks": 11520,
          "time": 12,
          "velocity": 0.33858267716535434
        },
        {
          "duration": 0.3000000000000007,
          "durationTicks": 288,
          "midi": 76,
          "name": "E5",
          "ticks": 11904,
          "time": 12.4,
          "velocity": 0.33858267716535434
        },
        {
          "duration": 1.5,
          "durationTicks": 1440,
          "midi": 81,
          "name": "A5",
          "ticks": 12288,
          "time": 12.8,
          "velocity": 0.33858267716535434
        },
        {
          "duration": 0.29999999999999893,
          "durationTicks": 288,
          "midi": 64,
          "name": "E4",
          "ticks": 14976,
          "time": 15.600000000000001,
          "velocity": 0.33858267716535434
        },
        {
          "duration": 0.29999999999999893,
          "durationTicks": 288,
          "midi": 71,
          "name": "B4",
          "ticks": 14976,
          "time": 15.600000000000001,
          "velocity": 0.33858267716535434
        },
        {
          "duration": 0.6999999999999993,
          "durationTicks": 672,
          "midi": 64,
          "name": "E4",
          "ticks": 15360,
          "time": 16,
          "velocity": 0.33858267716535434
        },
        {
          "duration": 1.5,
          "durationTicks": 1440,
          "midi": 72,
          "name": "C5",
          "ticks": 15360,
          "time": 16,
          "velocity": 0.33858267716535434
        },
        {
          "duration": 0.6999999999999993,
          "durationTicks": 672,
          "midi": 60,
          "name": "C4",
          "ticks": 16128,
          "time": 16.8,
          "velocity": 0.33858267716535434
        },
        {
          "duration": 0.6999999999999993,
          "durationTicks": 672,
          "midi": 76,
          "name": "E5",
          "ticks": 16128,
          "time": 16.8,
          "velocity": 0.33858267716535434
        },
        {
          "duration": 0.6999999999999993,
          "durationTicks": 672,
          "midi": 62,
          "name": "D4",
          "ticks": 16896,
          "time": 17.6,
          "velocity": 0.33858267716535434
        },
        {
          "duration": 1.5,
          "durationTicks": 1440,
          "midi": 71,
          "name": "B4",
          "ticks": 16896,
          "time": 17.6,
          "velocity": 0.33858267716535434
        },
        {
          "duration": 0.6999999999999993,
          "durationTicks": 672,
          "midi": 59,
          "name": "B3",
          "ticks": 17664,
          "time": 18.400000000000002,
          "velocity": 0.33858267716535434
        },
        {
          "duration": 0.6999999999999993,
          "durationTicks": 672,
          "midi": 76,
          "name": "E5",
          "ticks": 17664,
          "time": 18.400000000000002,
          "velocity": 0.33858267716535434
        },
        {
          "duration": 0.6999999999999993,
          "durationTicks": 672,
          "midi": 60,
          "name": "C4",
          "ticks": 18432,
          "time": 19.200000000000003,
          "velocity": 0.33858267716535434
        },
        {
          "duration": 1.5,
          "durationTicks": 1440,
          "midi": 69,
          "name": "A4",
          "ticks": 18432,
          "time": 19.200000000000003,
          "velocity": 0.33858267716535434
        },
        {
          "duration": 0.7000000000000028,
          "durationTicks": 672,
          "midi": 57,
          "name": "A3",
          "ticks": 19200,
          "time": 20,
          "velocity": 0.33858267716535434
        },
        {
          "duration": 0.7000000000000028,
          "durationTicks": 672,
          "midi": 76,
          "name": "E5",
          "ticks": 19200,
          "time": 20,
          "velocity": 0.33858267716535434
        },
        {
          "duration": 0.6999999999999993,
          "durationTicks": 672,
          "midi": 56,
          "name": "G#3",
          "ticks": 19968,
          "time": 20.8,
          "velocity": 0.33858267716535434
        },
        {
          "duration": 1.1000000000000014,
          "durationTicks": 1056,
          "midi": 68,
          "name": "G#4",
          "ticks": 19968,
          "time": 20.8,
          "velocity": 0.33858267716535434
        },
        {
          "duration": 0.3000000000000007,
          "durationTicks": 288,
          "midi": 59,
          "name": "B3",
          "ticks": 20736,
          "time": 21.6,
          "velocity": 0.33858267716535434
        },
        {
          "duration": 0.6999999999999993,
          "durationTicks": 672,
          "midi": 64,
          "name": "E4",
          "ticks": 21504,
          "time": 22.400000000000002,
          "velocity": 0.33858267716535434
        },
        {
          "duration": 1.5,
          "durationTicks": 1440,
          "midi": 72,
          "name": "C5",
          "ticks": 21504,
          "time": 22.400000000000002,
          "velocity": 0.33858267716535434
        },
        {
          "duration": 0.6999999999999993,
          "durationTicks": 672,
          "midi": 60,
          "name": "C4",
          "ticks": 22272,
          "time": 23.200000000000003,
          "velocity": 0.33858267716535434
        },
        {
          "duration": 0.7000000000000028,
          "durationTicks": 672,
          "midi": 62,
          "name": "D4",
          "ticks": 23040,
          "time": 24,
          "velocity": 0.33858267716535434
        },
        {
          "duration": 1.5,
          "durationTicks": 1440,
          "midi": 71,
          "name": "B4",
          "ticks": 23040,
          "time": 24,
          "velocity": 0.33858267716535434
        },
        {
          "duration": 0.6999999999999993,
          "durationTicks": 672,
          "midi": 59,
          "name": "B3",
          "ticks": 23808,
          "time": 24.8,
          "velocity": 0.33858267716535434
        },
        {
          "duration": 0.3000000000000007,
          "durationTicks": 288,
          "midi": 60,
          "name": "C4",
          "ticks": 24576,
          "time": 25.6,
          "velocity": 0.3937007874015748
        },
        {
          "duration": 0.3000000000000007,
          "durationTicks": 288,
          "midi": 72,
          "name": "C5",
          "ticks": 24576,
          "time": 25.6,
          "velocity": 0.3937007874015748
        },
        {
          "duration": 0.3000000000000007,
          "durationTicks": 288,
          "midi": 64,
          "name": "E4",
          "ticks": 24960,
          "time": 26,
          "velocity": 0.3937007874015748
        },
        {
          "duration": 0.3000000000000007,
          "durationTicks": 288,
          "midi": 76,
          "name": "E5",
          "ticks": 24960,
          "time": 26,
          "velocity": 0.3937007874015748
        },
        {
          "duration": 0.3000000000000007,
          "durationTicks": 288,
          "midi": 81,
          "name": "A5",
          "ticks": 25344,
          "time": 26.400000000000002,
          "velocity": 0.3937007874015748
        },
        {
          "duration": 0.6999999999999993,
          "durationTicks": 672,
          "midi": 69,
          "name": "A4",
          "ticks": 25344,
          "time": 26.400000000000002,
          "velocity": 0.33858267716535434
        },
        {
          "duration": 0.3000000000000007,
          "durationTicks": 288,
          "midi": 84,
          "name": "C6",
          "ticks": 25728,
          "time": 26.8,
          "velocity": 0.33858267716535434
        },
        {
          "duration": 0.6999999999999993,
          "durationTicks": 672,
          "midi": 68,
          "name": "G#4",
          "ticks": 26112,
          "time": 27.200000000000003,
          "velocity": 0.33858267716535434
        },
        {
          "duration": 0.6999999999999993,
          "durationTicks": 672,
          "midi": 83,
          "name": "B5",
          "ticks": 26112,
          "time": 27.200000000000003,
          "velocity": 0.33858267716535434
        },
        {
          "duration": 0.3000000000000007,
          "durationTicks": 288,
          "midi": 76,
          "name": "E5",
          "ticks": 27648,
          "time": 28.8,
          "velocity": 0.3937007874015748
        },
        {
          "duration": 0.1999999999999993,
          "durationTicks": 192,
          "midi": 71,
          "name": "B4",
          "ticks": 28032,
          "time": 29.200000000000003,
          "velocity": 0.33858267716535434
        },
        {
          "duration": 0.1999999999999993,
          "durationTicks": 192,
          "midi": 72,
          "name": "C5",
          "ticks": 28224,
          "time": 29.400000000000002,
          "velocity": 0.33858267716535434
        },
        {
          "duration": 0.1999999999999993,
          "durationTicks": 192,
          "midi": 74,
          "name": "D5",
          "ticks": 28416,
          "time": 29.6,
          "velocity": 0.3937007874015748
        },
        {
          "duration": 0.10000000000000142,
          "durationTicks": 96,
          "midi": 76,
          "name": "E5",
          "ticks": 28608,
          "time": 29.8,
          "velocity": 0.33858267716535434
        },
        {
          "duration": 0.09999999999999787,
          "durationTicks": 96,
          "midi": 74,
          "name": "D5",
          "ticks": 28704,
          "time": 29.900000000000002,
          "velocity": 0.33858267716535434
        },
        {
          "duration": 0.10000000000000142,
          "durationTicks": 96,
          "midi": 72,
          "name": "C5",
          "ticks": 28800,
          "time": 30,
          "velocity": 0.33858267716535434
        },
        {
          "duration": 0.1999999999999993,
          "durationTicks": 192,
          "midi": 71,
          "name": "B4",
          "ticks": 28992,
          "time": 30.200000000000003,
          "velocity": 0.33858267716535434
        },
        {
          "duration": 0.3999999999999986,
          "durationTicks": 384,
          "midi": 69,
          "name": "A4",
          "ticks": 29184,
          "time": 30.400000000000002,
          "velocity": 0.3937007874015748
        },
        {
          "duration": 0.1999999999999993,
          "durationTicks": 192,
          "midi": 69,
          "name": "A4",
          "ticks": 29568,
          "time": 30.8,
          "velocity": 0.33858267716535434
        },
        {
          "duration": 0.10000000000000142,
          "durationTicks": 96,
          "midi": 72,
          "name": "C5",
          "ticks": 29760,
          "time": 31,
          "velocity": 0.33858267716535434
        },
        {
          "duration": 0.3999999999999986,
          "durationTicks": 384,
          "midi": 76,
          "name": "E5",
          "ticks": 29952,
          "time": 31.200000000000003,
          "velocity": 0.3937007874015748
        },
        {
          "duration": 0.1999999999999993,
          "durationTicks": 192,
          "midi": 74,
          "name": "D5",
          "ticks": 30336,
          "time": 31.6,
          "velocity": 0.33858267716535434
        },
        {
          "duration": 0.1999999999999993,
          "durationTicks": 192,
          "midi": 72,
          "name": "C5",
          "ticks": 30528,
          "time": 31.8,
          "velocity": 0.33858267716535434
        },
        {
          "duration": 0.5,
          "durationTicks": 480,
          "midi": 71,
          "name": "B4",
          "ticks": 30720,
          "time": 32,
          "velocity": 0.33858267716535434
        },
        {
          "duration": 0.10000000000000142,
          "durationTicks": 96,
          "midi": 72,
          "name": "C5",
          "ticks": 31296,
          "time": 32.6,
          "velocity": 0.33858267716535434
        },
        {
          "duration": 0.29999999999999716,
          "durationTicks": 288,
          "midi": 74,
          "name": "D5",
          "ticks": 31488,
          "time": 32.800000000000004,
          "velocity": 0.33858267716535434
        },
        {
          "duration": 0.29999999999999716,
          "durationTicks": 288,
          "midi": 76,
          "name": "E5",
          "ticks": 31872,
          "time": 33.2,
          "velocity": 0.33858267716535434
        },
        {
          "duration": 0.29999999999999716,
          "durationTicks": 288,
          "midi": 72,
          "name": "C5",
          "ticks": 32256,
          "time": 33.6,
          "velocity": 0.33858267716535434
        },
        {
          "duration": 0.30000000000000426,
          "durationTicks": 288,
          "midi": 69,
          "name": "A4",
          "ticks": 32640,
          "time": 34,
          "velocity": 0.33858267716535434
        },
        {
          "duration": 0.7000000000000028,
          "durationTicks": 672,
          "midi": 69,
          "name": "A4",
          "ticks": 33024,
          "time": 34.4,
          "velocity": 0.33858267716535434
        },
        {
          "duration": 0.4000000000000057,
          "durationTicks": 384,
          "midi": 74,
          "name": "D5",
          "ticks": 33984,
          "time": 35.4,
          "velocity": 0.3937007874015748
        },
        {
          "duration": 0.19999999999999574,
          "durationTicks": 192,
          "midi": 77,
          "name": "F5",
          "ticks": 34368,
          "time": 35.800000000000004,
          "velocity": 0.33858267716535434
        },
        {
          "duration": 0.30000000000000426,
          "durationTicks": 288,
          "midi": 81,
          "name": "A5",
          "ticks": 34560,
          "time": 36,
          "velocity": 0.3937007874015748
        },
        {
          "duration": 0.10000000000000142,
          "durationTicks": 96,
          "midi": 79,
          "name": "G5",
          "ticks": 34944,
          "time": 36.4,
          "velocity": 0.33858267716535434
        },
        {
          "duration": 0.10000000000000142,
          "durationTicks": 96,
          "midi": 77,
          "name": "F5",
          "ticks": 35136,
          "time": 36.6,
          "velocity": 0.33858267716535434
        },
        {
          "duration": 0.5,
          "durationTicks": 480,
          "midi": 76,
          "name": "E5",
          "ticks": 35328,
          "time": 36.800000000000004,
          "velocity": 0.33858267716535434
        },
        {
          "duration": 0.20000000000000284,
          "durationTicks": 192,
          "midi": 72,
          "name": "C5",
          "ticks": 35904,
          "time": 37.4,
          "velocity": 0.33858267716535434
        },
        {
          "duration": 0.29999999999999716,
          "durationTicks": 288,
          "midi": 76,
          "name": "E5",
          "ticks": 36096,
          "time": 37.6,
          "velocity": 0.33858267716535434
        },
        {
          "duration": 0.20000000000000284,
          "durationTicks": 192,
          "midi": 74,
          "name": "D5",
          "ticks": 36480,
          "time": 38,
          "velocity": 0.33858267716535434
        },
        {
          "duration": 0.20000000000000284,
          "durationTicks": 192,
          "midi": 72,
          "name": "C5",
          "ticks": 36672,
          "time": 38.2,
          "velocity": 0.33858267716535434
        },
        {
          "duration": 0.29999999999999716,
          "durationTicks": 288,
          "midi": 71,
          "name": "B4",
          "ticks": 36864,
          "time": 38.400000000000006,
          "velocity": 0.33858267716535434
        },
        {
          "duration": 0.19999999999999574,
          "durationTicks": 192,
          "midi": 71,
          "name": "B4",
          "ticks": 37248,
          "time": 38.800000000000004,
          "velocity": 0.33858267716535434
        },
        {
          "duration": 0.20000000000000284,
          "durationTicks": 192,
          "midi": 72,
          "name": "C5",
          "ticks": 37440,
          "time": 39,
          "velocity": 0.33858267716535434
        },
        {
          "duration": 0.29999999999999716,
          "durationTicks": 288,
          "midi": 74,
          "name": "D5",
          "ticks": 37632,
          "time": 39.2,
          "velocity": 0.33858267716535434
        },
        {
          "duration": 0.30000000000000426,
          "durationTicks": 288,
          "midi": 76,
          "name": "E5",
          "ticks": 38016,
          "time": 39.6,
          "velocity": 0.33858267716535434
        },
        {
          "duration": 0.30000000000000426,
          "durationTicks": 288,
          "midi": 72,
          "name": "C5",
          "ticks": 38400,
          "time": 40,
          "velocity": 0.33858267716535434
        },
        {
          "duration": 0.29999999999999716,
          "durationTicks": 288,
          "midi": 69,
          "name": "A4",
          "ticks": 38784,
          "time": 40.400000000000006,
          "velocity": 0.33858267716535434
        },
        {
          "duration": 0.29999999999999716,
          "durationTicks": 288,
          "midi": 69,
          "name": "A4",
          "ticks": 39168,
          "time": 40.800000000000004,
          "velocity": 0.33858267716535434
        },
        {
          "duration": 0.30000000000000426,
          "durationTicks": 288,
          "midi": 76,
          "name": "E5",
          "ticks": 39936,
          "time": 41.6,
          "velocity": 0.3937007874015748
        },
        {
          "duration": 0.20000000000000284,
          "durationTicks": 192,
          "midi": 71,
          "name": "B4",
          "ticks": 40320,
          "time": 42,
          "velocity": 0.33858267716535434
        },
        {
          "duration": 0.20000000000000284,
          "durationTicks": 192,
          "midi": 72,
          "name": "C5",
          "ticks": 40512,
          "time": 42.2,
          "velocity": 0.33858267716535434
        },
        {
          "duration": 0.19999999999999574,
          "durationTicks": 192,
          "midi": 74,
          "name": "D5",
          "ticks": 40704,
          "time": 42.400000000000006,
          "velocity": 0.3937007874015748
        },
        {
          "duration": 0.10000000000000142,
          "durationTicks": 96,
          "midi": 76,
          "name": "E5",
          "ticks": 40896,
          "time": 42.6,
          "velocity": 0.33858267716535434
        },
        {
          "duration": 0.10000000000000142,
          "durationTicks": 96,
          "midi": 74,
          "name": "D5",
          "ticks": 40992,
          "time": 42.7,
          "velocity": 0.33858267716535434
        },
        {
          "duration": 0.10000000000000142,
          "durationTicks": 96,
          "midi": 72,
          "name": "C5",
          "ticks": 41088,
          "time": 42.800000000000004,
          "velocity": 0.33858267716535434
        },
        {
          "duration": 0.20000000000000284,
          "durationTicks": 192,
          "midi": 71,
          "name": "B4",
          "ticks": 41280,
          "time": 43,
          "velocity": 0.33858267716535434
        },
        {
          "duration": 0.29999999999999716,
          "durationTicks": 288,
          "midi": 69,
          "name": "A4",
          "ticks": 41472,
          "time": 43.2,
          "velocity": 0.3937007874015748
        },
        {
          "duration": 0.20000000000000284,
          "durationTicks": 192,
          "midi": 69,
          "name": "A4",
          "ticks": 41856,
          "time": 43.6,
          "velocity": 0.33858267716535434
        },
        {
          "duration": 0.19999999999999574,
          "durationTicks": 192,
          "midi": 72,
          "name": "C5",
          "ticks": 42048,
          "time": 43.800000000000004,
          "velocity": 0.33858267716535434
        },
        {
          "duration": 0.30000000000000426,
          "durationTicks": 288,
          "midi": 76,
          "name": "E5",
          "ticks": 42240,
          "time": 44,
          "velocity": 0.33858267716535434
        },
        {
          "duration": 0.19999999999999574,
          "durationTicks": 192,
          "midi": 74,
          "name": "D5",
          "ticks": 42624,
          "time": 44.400000000000006,
          "velocity": 0.33858267716535434
        },
        {
          "duration": 0.20000000000000284,
          "durationTicks": 192,
          "midi": 72,
          "name": "C5",
          "ticks": 42816,
          "time": 44.6,
          "velocity": 0.33858267716535434
        },
        {
          "duration": 0.5,
          "durationTicks": 480,
          "midi": 71,
          "name": "B4",
          "ticks": 43008,
          "time": 44.800000000000004,
          "velocity": 0.33858267716535434
        },
        {
          "duration": 0.19999999999999574,
          "durationTicks": 192,
          "midi": 72,
          "name": "C5",
          "ticks": 43584,
          "time": 45.400000000000006,
          "velocity": 0.33858267716535434
        },
        {
          "duration": 0.30000000000000426,
          "durationTicks": 288,
          "midi": 74,
          "name": "D5",
          "ticks": 43776,
          "time": 45.6,
          "velocity": 0.33858267716535434
        },
        {
          "duration": 0.30000000000000426,
          "durationTicks": 288,
          "midi": 76,
          "name": "E5",
          "ticks": 44160,
          "time": 46,
          "velocity": 0.33858267716535434
        },
        {
          "duration": 0.29999999999999716,
          "durationTicks": 288,
          "midi": 72,
          "name": "C5",
          "ticks": 44544,
          "time": 46.400000000000006,
          "velocity": 0.33858267716535434
        },
        {
          "duration": 0.29999999999999716,
          "durationTicks": 288,
          "midi": 69,
          "name": "A4",
          "ticks": 44928,
          "time": 46.800000000000004,
          "velocity": 0.33858267716535434
        },
        {
          "duration": 0.7000000000000028,
          "durationTicks": 672,
          "midi": 69,
          "name": "A4",
          "ticks": 45312,
          "time": 47.2,
          "velocity": 0.33858267716535434
        },
        {
          "duration": 0.3999999999999986,
          "durationTicks": 384,
          "midi": 74,
          "name": "D5",
          "ticks": 46272,
          "time": 48.2,
          "velocity": 0.33858267716535434
        },
        {
          "duration": 0.20000000000000284,
          "durationTicks": 192,
          "midi": 77,
          "name": "F5",
          "ticks": 46656,
          "time": 48.6,
          "velocity": 0.33858267716535434
        },
        {
          "duration": 0.29999999999999716,
          "durationTicks": 288,
          "midi": 81,
          "name": "A5",
          "ticks": 46848,
          "time": 48.800000000000004,
          "velocity": 0.33858267716535434
        },
        {
          "duration": 0.20000000000000284,
          "durationTicks": 192,
          "midi": 79,
          "name": "G5",
          "ticks": 47232,
          "time": 49.2,
          "velocity": 0.33858267716535434
        },
        {
          "duration": 0.19999999999999574,
          "durationTicks": 192,
          "midi": 77,
          "name": "F5",
          "ticks": 47424,
          "time": 49.400000000000006,
          "velocity": 0.33858267716535434
        },
        {
          "duration": 0.5,
          "durationTicks": 480,
          "midi": 79,
          "name": "G5",
          "ticks": 47616,
          "time": 49.6,
          "velocity": 0.33858267716535434
        },
        {
          "duration": 0.20000000000000284,
          "durationTicks": 192,
          "midi": 72,
          "name": "C5",
          "ticks": 48192,
          "time": 50.2,
          "velocity": 0.33858267716535434
        },
        {
          "duration": 0.29999999999999716,
          "durationTicks": 288,
          "midi": 76,
          "name": "E5",
          "ticks": 48384,
          "time": 50.400000000000006,
          "velocity": 0.33858267716535434
        },
        {
          "duration": 0.19999999999999574,
          "durationTicks": 192,
          "midi": 74,
          "name": "D5",
          "ticks": 48768,
          "time": 50.800000000000004,
          "velocity": 0.33858267716535434
        },
        {
          "duration": 0.20000000000000284,
          "durationTicks": 192,
          "midi": 72,
          "name": "C5",
          "ticks": 48960,
          "time": 51,
          "velocity": 0.33858267716535434
        },
        {
          "duration": 0.29999999999999716,
          "durationTicks": 288,
          "midi": 71,
          "name": "B4",
          "ticks": 49152,
          "time": 51.2,
          "velocity": 0.33858267716535434
        },
        {
          "duration": 0.20000000000000284,
          "durationTicks": 192,
          "midi": 71,
          "name": "B4",
          "ticks": 49536,
          "time": 51.6,
          "velocity": 0.33858267716535434
        },
        {
          "duration": 0.19999999999999574,
          "durationTicks": 192,
          "midi": 72,
          "name": "C5",
          "ticks": 49728,
          "time": 51.800000000000004,
          "velocity": 0.33858267716535434
        },
        {
          "duration": 0.30000000000000426,
          "durationTicks": 288,
          "midi": 74,
          "name": "D5",
          "ticks": 49920,
          "time": 52,
          "velocity": 0.33858267716535434
        },
        {
          "duration": 0.29999999999999716,
          "durationTicks": 288,
          "midi": 76,
          "name": "E5",
          "ticks": 50304,
          "time": 52.400000000000006,
          "velocity": 0.33858267716535434
        },
        {
          "duration": 0.29999999999999716,
          "durationTicks": 288,
          "midi": 72,
          "name": "C5",
          "ticks": 50688,
          "time": 52.800000000000004,
          "velocity": 0.33858267716535434
        },
        {
          "duration": 0.29999999999999716,
          "durationTicks": 288,
          "midi": 69,
          "name": "A4",
          "ticks": 51072,
          "time": 53.2,
          "velocity": 0.33858267716535434
        },
        {
          "duration": 0.30000000000000426,
          "durationTicks": 288,
          "midi": 69,
          "name": "A4",
          "ticks": 51456,
          "time": 53.6,
          "velocity": 0.33858267716535434
        },
        {
          "duration": 0.6999999999999957,
          "durationTicks": 672,
          "midi": 72,
          "name": "C5",
          "ticks": 52224,
          "time": 54.400000000000006,
          "velocity": 0.33858267716535434
        },
        {
          "duration": 0.20000000000000284,
          "durationTicks": 192,
          "midi": 76,
          "name": "E5",
          "ticks": 52992,
          "time": 55.2,
          "velocity": 0.33858267716535434
        },
        {
          "duration": 0.19999999999999574,
          "durationTicks": 192,
          "midi": 69,
          "name": "A4",
          "ticks": 53184,
          "time": 55.400000000000006,
          "velocity": 0.33858267716535434
        },
        {
          "duration": 0.20000000000000284,
          "durationTicks": 192,
          "midi": 76,
          "name": "E5",
          "ticks": 53376,
          "time": 55.6,
          "velocity": 0.33858267716535434
        },
        {
          "duration": 0.19999999999999574,
          "durationTicks": 192,
          "midi": 69,
          "name": "A4",
          "ticks": 53568,
          "time": 55.800000000000004,
          "velocity": 0.33858267716535434
        },
        {
          "duration": 0.20000000000000284,
          "durationTicks": 192,
          "midi": 76,
          "name": "E5",
          "ticks": 53760,
          "time": 56,
          "velocity": 0.33858267716535434
        },
        {
          "duration": 0.20000000000000284,
          "durationTicks": 192,
          "midi": 68,
          "name": "G#4",
          "ticks": 53952,
          "time": 56.2,
          "velocity": 0.33858267716535434
        },
        {
          "duration": 0.19999999999999574,
          "durationTicks": 192,
          "midi": 76,
          "name": "E5",
          "ticks": 54144,
          "time": 56.400000000000006,
          "velocity": 0.33858267716535434
        },
        {
          "duration": 0.20000000000000284,
          "durationTicks": 192,
          "midi": 68,
          "name": "G#4",
          "ticks": 54336,
          "time": 56.6,
          "velocity": 0.33858267716535434
        },
        {
          "duration": 0.6999999999999957,
          "durationTicks": 672,
          "midi": 76,
          "name": "E5",
          "ticks": 54528,
          "time": 56.800000000000004,
          "velocity": 0.33858267716535434
        },
        {
          "duration": 0.7000000000000028,
          "durationTicks": 672,
          "midi": 69,
          "name": "A4",
          "ticks": 55296,
          "time": 57.6,
          "velocity": 0.33858267716535434
        },
        {
          "duration": 0.29999999999999716,
          "durationTicks": 288,
          "midi": 64,
          "name": "E4",
          "ticks": 56064,
          "time": 58.400000000000006,
          "velocity": 0.33858267716535434
        },
        {
          "duration": 0.29999999999999716,
          "durationTicks": 288,
          "midi": 60,
          "name": "C4",
          "ticks": 56448,
          "time": 58.800000000000004,
          "velocity": 0.33858267716535434
        },
        {
          "duration": 0.10000000000000142,
          "durationTicks": 96,
          "midi": 59,
          "name": "B3",
          "ticks": 56832,
          "time": 59.2,
          "velocity": 0.33858267716535434
        },
        {
          "duration": 0.10000000000000142,
          "durationTicks": 96,
          "midi": 64,
          "name": "E4",
          "ticks": 56928,
          "time": 59.300000000000004,
          "velocity": 0.33858267716535434
        },
        {
          "duration": 0.09999999999999432,
          "durationTicks": 96,
          "midi": 59,
          "name": "B3",
          "ticks": 57024,
          "time": 59.400000000000006,
          "velocity": 0.33858267716535434
        },
        {
          "duration": 0.10000000000000142,
          "durationTicks": 96,
          "midi": 64,
          "name": "E4",
          "ticks": 57120,
          "time": 59.5,
          "velocity": 0.33858267716535434
        },
        {
          "duration": 0.10000000000000142,
          "durationTicks": 96,
          "midi": 59,
          "name": "B3",
          "ticks": 57216,
          "time": 59.6,
          "velocity": 0.33858267716535434
        },
        {
          "duration": 0.10000000000000142,
          "durationTicks": 96,
          "midi": 64,
          "name": "E4",
          "ticks": 57312,
          "time": 59.7,
          "velocity": 0.33858267716535434
        },
        {
          "duration": 0.10000000000000142,
          "durationTicks": 96,
          "midi": 59,
          "name": "B3",
          "ticks": 57408,
          "time": 59.800000000000004,
          "velocity": 0.33858267716535434
        },
        {
          "duration": 0.09999999999999432,
          "durationTicks": 96,
          "midi": 64,
          "name": "E4",
          "ticks": 57504,
          "time": 59.900000000000006,
          "velocity": 0.33858267716535434
        },
        {
          "duration": 0.7000000000000028,
          "durationTicks": 672,
          "midi": 64,
          "name": "E4",
          "ticks": 57600,
          "time": 60,
          "velocity": 0.33858267716535434
        },
        {
          "duration": 1.5,
          "durationTicks": 1440,
          "midi": 64,
          "name": "E4",
          "ticks": 58368,
          "time": 60.800000000000004,
          "velocity": 0.33858267716535434
        },
        {
          "duration": 1.5,
          "durationTicks": 1440,
          "midi": 64,
          "name": "E4",
          "ticks": 59904,
          "time": 62.400000000000006,
          "velocity": 0.33858267716535434
        },
        {
          "duration": 1.5,
          "durationTicks": 1440,
          "midi": 64,
          "name": "E4",
          "ticks": 61440,
          "time": 64,
          "velocity": 0.33858267716535434
        },
        {
          "duration": 1.5,
          "durationTicks": 1440,
          "midi": 64,
          "name": "E4",
          "ticks": 62976,
          "time": 65.60000000000001,
          "velocity": 0.33858267716535434
        },
        {
          "duration": 0.29999999999999716,
          "durationTicks": 288,
          "midi": 76,
          "name": "E5",
          "ticks": 64512,
          "time": 67.2,
          "velocity": 0.3937007874015748
        },
        {
          "duration": 0.19999999999998863,
          "durationTicks": 192,
          "midi": 71,
          "name": "B4",
          "ticks": 64896,
          "time": 67.60000000000001,
          "velocity": 0.33858267716535434
        },
        {
          "duration": 0.20000000000000284,
          "durationTicks": 192,
          "midi": 72,
          "name": "C5",
          "ticks": 65088,
          "time": 67.8,
          "velocity": 0.33858267716535434
        },
        {
          "duration": 0.20000000000000284,
          "durationTicks": 192,
          "midi": 74,
          "name": "D5",
          "ticks": 65280,
          "time": 68,
          "velocity": 0.3937007874015748
        },
        {
          "duration": 0.09999999999999432,
          "durationTicks": 96,
          "midi": 76,
          "name": "E5",
          "ticks": 65472,
          "time": 68.2,
          "velocity": 0.33858267716535434
        },
        {
          "duration": 0.10000000000000853,
          "durationTicks": 96,
          "midi": 74,
          "name": "D5",
          "ticks": 65568,
          "time": 68.3,
          "velocity": 0.33858267716535434
        },
        {
          "duration": 0.20000000000000284,
          "durationTicks": 192,
          "midi": 71,
          "name": "B4",
          "ticks": 65664,
          "time": 68.4,
          "velocity": 0.33858267716535434
        },
        {
          "duration": 0.19999999999998863,
          "durationTicks": 192,
          "midi": 72,
          "name": "C5",
          "ticks": 65856,
          "time": 68.60000000000001,
          "velocity": 0.33858267716535434
        },
        {
          "duration": 0.4000000000000057,
          "durationTicks": 384,
          "midi": 69,
          "name": "A4",
          "ticks": 66048,
          "time": 68.8,
          "velocity": 0.3937007874015748
        },
        {
          "duration": 0.20000000000000284,
          "durationTicks": 192,
          "midi": 69,
          "name": "A4",
          "ticks": 66432,
          "time": 69.2,
          "velocity": 0.33858267716535434
        },
        {
          "duration": 0.09999999999999432,
          "durationTicks": 96,
          "midi": 72,
          "name": "C5",
          "ticks": 66624,
          "time": 69.4,
          "velocity": 0.33858267716535434
        },
        {
          "duration": 0.3999999999999915,
          "durationTicks": 384,
          "midi": 76,
          "name": "E5",
          "ticks": 66816,
          "time": 69.60000000000001,
          "velocity": 0.3937007874015748
        },
        {
          "duration": 0.20000000000000284,
          "durationTicks": 192,
          "midi": 69,
          "name": "A4",
          "ticks": 67200,
          "time": 70,
          "velocity": 0.33858267716535434
        },
        {
          "duration": 0.09999999999999432,
          "durationTicks": 96,
          "midi": 72,
          "name": "C5",
          "ticks": 67392,
          "time": 70.2,
          "velocity": 0.33858267716535434
        },
        {
          "duration": 0.5,
          "durationTicks": 480,
          "midi": 76,
          "name": "E5",
          "ticks": 67584,
          "time": 70.4,
          "velocity": 0.33858267716535434
        },
        {
          "duration": 0.20000000000000284,
          "durationTicks": 192,
          "midi": 72,
          "name": "C5",
          "ticks": 68160,
          "time": 71,
          "velocity": 0.33858267716535434
        },
        {
          "duration": 0.29999999999999716,
          "durationTicks": 288,
          "midi": 71,
          "name": "B4",
          "ticks": 68352,
          "time": 71.2,
          "velocity": 0.33858267716535434
        },
        {
          "duration": 0.29999999999999716,
          "durationTicks": 288,
          "midi": 76,
          "name": "E5",
          "ticks": 68736,
          "time": 71.60000000000001,
          "velocity": 0.33858267716535434
        },
        {
          "duration": 0.29999999999999716,
          "durationTicks": 288,
          "midi": 69,
          "name": "A4",
          "ticks": 69120,
          "time": 72,
          "velocity": 0.33858267716535434
        },
        {
          "duration": 0.29999999999999716,
          "durationTicks": 288,
          "midi": 72,
          "name": "C5",
          "ticks": 69504,
          "time": 72.4,
          "velocity": 0.33858267716535434
        },
        {
          "duration": 0.7000000000000028,
          "durationTicks": 672,
          "midi": 69,
          "name": "A4",
          "ticks": 69888,
          "time": 72.8,
          "velocity": 0.33858267716535434
        },
        {
          "duration": 0.4000000000000057,
          "durationTicks": 384,
          "midi": 74,
          "name": "D5",
          "ticks": 70848,
          "time": 73.8,
          "velocity": 0.3937007874015748
        },
        {
          "duration": 0.20000000000000284,
          "durationTicks": 192,
          "midi": 77,
          "name": "F5",
          "ticks": 71232,
          "time": 74.2,
          "velocity": 0.33858267716535434
        },
        {
          "duration": 0.29999999999999716,
          "durationTicks": 288,
          "midi": 81,
          "name": "A5",
          "ticks": 71424,
          "time": 74.4,
          "velocity": 0.3937007874015748
        },
        {
          "duration": 0.10000000000000853,
          "durationTicks": 96,
          "midi": 79,
          "name": "G5",
          "ticks": 71808,
          "time": 74.8,
          "velocity": 0.33858267716535434
        },
        {
          "duration": 0.10000000000000853,
          "durationTicks": 96,
          "midi": 77,
          "name": "F5",
          "ticks": 72000,
          "time": 75,
          "velocity": 0.33858267716535434
        },
        {
          "duration": 0.5,
          "durationTicks": 480,
          "midi": 76,
          "name": "E5",
          "ticks": 72192,
          "time": 75.2,
          "velocity": 0.33858267716535434
        },
        {
          "duration": 0.20000000000000284,
          "durationTicks": 192,
          "midi": 72,
          "name": "C5",
          "ticks": 72768,
          "time": 75.8,
          "velocity": 0.33858267716535434
        },
        {
          "duration": 0.29999999999999716,
          "durationTicks": 288,
          "midi": 76,
          "name": "E5",
          "ticks": 72960,
          "time": 76,
          "velocity": 0.33858267716535434
        },
        {
          "duration": 0.20000000000000284,
          "durationTicks": 192,
          "midi": 74,
          "name": "D5",
          "ticks": 73344,
          "time": 76.4,
          "velocity": 0.33858267716535434
        },
        {
          "duration": 0.20000000000000284,
          "durationTicks": 192,
          "midi": 72,
          "name": "C5",
          "ticks": 73536,
          "time": 76.60000000000001,
          "velocity": 0.33858267716535434
        },
        {
          "duration": 0.29999999999999716,
          "durationTicks": 288,
          "midi": 76,
          "name": "E5",
          "ticks": 73728,
          "time": 76.80000000000001,
          "velocity": 0.33858267716535434
        },
        {
          "duration": 0.20000000000000284,
          "durationTicks": 192,
          "midi": 71,
          "name": "B4",
          "ticks": 74112,
          "time": 77.2,
          "velocity": 0.33858267716535434
        },
        {
          "duration": 0.20000000000000284,
          "durationTicks": 192,
          "midi": 72,
          "name": "C5",
          "ticks": 74304,
          "time": 77.4,
          "velocity": 0.33858267716535434
        },
        {
          "duration": 0.29999999999999716,
          "durationTicks": 288,
          "midi": 74,
          "name": "D5",
          "ticks": 74496,
          "time": 77.60000000000001,
          "velocity": 0.33858267716535434
        },
        {
          "duration": 0.30000000000001137,
          "durationTicks": 288,
          "midi": 76,
          "name": "E5",
          "ticks": 74880,
          "time": 78,
          "velocity": 0.33858267716535434
        },
        {
          "duration": 1.5,
          "durationTicks": 1440,
          "midi": 72,
          "name": "C5",
          "ticks": 75264,
          "time": 78.4,
          "velocity": 0.33858267716535434
        },
        {
          "duration": 0.29999999999999716,
          "durationTicks": 288,
          "midi": 74,
          "name": "D5",
          "ticks": 77952,
          "time": 81.2,
          "velocity": 0.33858267716535434
        },
        {
          "duration": 0.7000000000000028,
          "durationTicks": 672,
          "midi": 76,
          "name": "E5",
          "ticks": 78336,
          "time": 81.60000000000001,
          "velocity": 0.33858267716535434
        },
        {
          "duration": 0.29999999999999716,
          "durationTicks": 288,
          "midi": 77,
          "name": "F5",
          "ticks": 79104,
          "time": 82.4,
          "velocity": 0.33858267716535434
        },
        {
          "duration": 0.29999999999999716,
          "durationTicks": 288,
          "midi": 79,
          "name": "G5",
          "ticks": 79488,
          "time": 82.80000000000001,
          "velocity": 0.33858267716535434
        },
        {
          "duration": 0.5,
          "durationTicks": 480,
          "midi": 77,
          "name": "F5",
          "ticks": 79872,
          "time": 83.2,
          "velocity": 0.33858267716535434
        },
        {
          "duration": 0.19999999999998863,
          "durationTicks": 192,
          "midi": 72,
          "name": "C5",
          "ticks": 80448,
          "time": 83.80000000000001,
          "velocity": 0.33858267716535434
        },
        {
          "duration": 0.7000000000000028,
          "durationTicks": 672,
          "midi": 76,
          "name": "E5",
          "ticks": 80640,
          "time": 84,
          "velocity": 0.33858267716535434
        },
        {
          "duration": 0.6999999999999886,
          "durationTicks": 672,
          "midi": 76,
          "name": "E5",
          "ticks": 81408,
          "time": 84.80000000000001,
          "velocity": 0.33858267716535434
        },
        {
          "duration": 0.29999999999999716,
          "durationTicks": 288,
          "midi": 74,
          "name": "D5",
          "ticks": 82176,
          "time": 85.60000000000001,
          "velocity": 0.33858267716535434
        },
        {
          "duration": 0.30000000000001137,
          "durationTicks": 288,
          "midi": 72,
          "name": "C5",
          "ticks": 82560,
          "time": 86,
          "velocity": 0.33858267716535434
        },
        {
          "duration": 0.20000000000000284,
          "durationTicks": 192,
          "midi": 71,
          "name": "B4",
          "ticks": 82944,
          "time": 86.4,
          "velocity": 0.33858267716535434
        },
        {
          "duration": 0.20000000000000284,
          "durationTicks": 192,
          "midi": 68,
          "name": "G#4",
          "ticks": 83136,
          "time": 86.60000000000001,
          "velocity": 0.33858267716535434
        },
        {
          "duration": 0.19999999999998863,
          "durationTicks": 192,
          "midi": 71,
          "name": "B4",
          "ticks": 83328,
          "time": 86.80000000000001,
          "velocity": 0.33858267716535434
        },
        {
          "duration": 0.20000000000000284,
          "durationTicks": 192,
          "midi": 68,
          "name": "G#4",
          "ticks": 83520,
          "time": 87,
          "velocity": 0.33858267716535434
        },
        {
          "duration": 0.29999999999999716,
          "durationTicks": 288,
          "midi": 71,
          "name": "B4",
          "ticks": 83712,
          "time": 87.2,
          "velocity": 0.33858267716535434
        },
        {
          "duration": 0.29999999999999716,
          "durationTicks": 288,
          "midi": 74,
          "name": "D5",
          "ticks": 84096,
          "time": 87.60000000000001,
          "velocity": 0.33858267716535434
        },
        {
          "duration": 0.7000000000000028,
          "durationTicks": 672,
          "midi": 76,
          "name": "E5",
          "ticks": 84480,
          "time": 88,
          "velocity": 0.33858267716535434
        },
        {
          "duration": 0.29999999999999716,
          "durationTicks": 288,
          "midi": 77,
          "name": "F5",
          "ticks": 85248,
          "time": 88.80000000000001,
          "velocity": 0.33858267716535434
        },
        {
          "duration": 0.29999999999999716,
          "durationTicks": 288,
          "midi": 79,
          "name": "G5",
          "ticks": 85632,
          "time": 89.2,
          "velocity": 0.33858267716535434
        },
        {
          "duration": 0.5,
          "durationTicks": 480,
          "midi": 80,
          "name": "G#5",
          "ticks": 86016,
          "time": 89.60000000000001,
          "velocity": 0.33858267716535434
        },
        {
          "duration": 0.20000000000000284,
          "durationTicks": 192,
          "midi": 72,
          "name": "C5",
          "ticks": 86592,
          "time": 90.2,
          "velocity": 0.33858267716535434
        },
        {
          "duration": 0.7000000000000028,
          "durationTicks": 672,
          "midi": 76,
          "name": "E5",
          "ticks": 86784,
          "time": 90.4,
          "velocity": 0.33858267716535434
        },
        {
          "duration": 0.7000000000000028,
          "durationTicks": 672,
          "midi": 81,
          "name": "A5",
          "ticks": 87552,
          "time": 91.2,
          "velocity": 0.33858267716535434
        },
        {
          "duration": 0.30000000000001137,
          "durationTicks": 288,
          "midi": 74,
          "name": "D5",
          "ticks": 88320,
          "time": 92,
          "velocity": 0.33858267716535434
        },
        {
          "duration": 0.29999999999999716,
          "durationTicks": 288,
          "midi": 72,
          "name": "C5",
          "ticks": 88704,
          "time": 92.4,
          "velocity": 0.33858267716535434
        },
        {
          "duration": 0.29999999999999716,
          "durationTicks": 288,
          "midi": 80,
          "name": "G#5",
          "ticks": 89088,
          "time": 92.80000000000001,
          "velocity": 0.33858267716535434
        },
        {
          "duration": 0.20000000000000284,
          "durationTicks": 192,
          "midi": 76,
          "name": "E5",
          "ticks": 89472,
          "time": 93.2,
          "velocity": 0.33858267716535434
        },
        {
          "duration": 0.20000000000000284,
          "durationTicks": 192,
          "midi": 71,
          "name": "B4",
          "ticks": 89664,
          "time": 93.4,
          "velocity": 0.33858267716535434
        },
        {
          "duration": 0.20000000000000284,
          "durationTicks": 192,
          "midi": 71,
          "name": "B4",
          "ticks": 89856,
          "time": 93.60000000000001,
          "velocity": 0.33858267716535434
        },
        {
          "duration": 0.19999999999998863,
          "durationTicks": 192,
          "midi": 74,
          "name": "D5",
          "ticks": 90048,
          "time": 93.80000000000001,
          "velocity": 0.33858267716535434
        },
        {
          "duration": 0.30000000000001137,
          "durationTicks": 288,
          "midi": 71,
          "name": "B4",
          "ticks": 90240,
          "time": 94,
          "velocity": 0.33858267716535434
        },
        {
          "duration": 1.5,
          "durationTicks": 1440,
          "midi": 71,
          "name": "B4",
          "ticks": 90624,
          "time": 94.4,
          "velocity": 0.33858267716535434
        },
        {
          "duration": 1.5,
          "durationTicks": 1440,
          "midi": 69,
          "name": "A4",
          "ticks": 92160,
          "time": 96,
          "velocity": 0.33858267716535434
        },
        {
          "duration": 0.29999999999999716,
          "durationTicks": 288,
          "midi": 71,
          "name": "B4",
          "ticks": 94848,
          "time": 98.80000000000001,
          "velocity": 0.33858267716535434
        },
        {
          "duration": 0.7000000000000028,
          "durationTicks": 672,
          "midi": 69,
          "name": "A4",
          "ticks": 95232,
          "time": 99.2,
          "velocity": 0.33858267716535434
        },
        {
          "duration": 0.20000000000000284,
          "durationTicks": 192,
          "midi": 64,
          "name": "E4",
          "ticks": 96000,
          "time": 100,
          "velocity": 0.33858267716535434
        },
        {
          "duration": 0.20000000000000284,
          "durationTicks": 192,
          "midi": 69,
          "name": "A4",
          "ticks": 96000,
          "time": 100,
          "velocity": 0.33858267716535434
        },
        {
          "duration": 0.20000000000000284,
          "durationTicks": 192,
          "midi": 64,
          "name": "E4",
          "ticks": 96192,
          "time": 100.2,
          "velocity": 0.33858267716535434
        },
        {
          "duration": 0.20000000000000284,
          "durationTicks": 192,
          "midi": 69,
          "name": "A4",
          "ticks": 96192,
          "time": 100.2,
          "velocity": 0.33858267716535434
        },
        {
          "duration": 0.20000000000000284,
          "durationTicks": 192,
          "midi": 64,
          "name": "E4",
          "ticks": 96384,
          "time": 100.4,
          "velocity": 0.33858267716535434
        },
        {
          "duration": 0.20000000000000284,
          "durationTicks": 192,
          "midi": 69,
          "name": "A4",
          "ticks": 96384,
          "time": 100.4,
          "velocity": 0.33858267716535434
        },
        {
          "duration": 0.20000000000000284,
          "durationTicks": 192,
          "midi": 64,
          "name": "E4",
          "ticks": 96576,
          "time": 100.60000000000001,
          "velocity": 0.33858267716535434
        },
        {
          "duration": 0.20000000000000284,
          "durationTicks": 192,
          "midi": 69,
          "name": "A4",
          "ticks": 96576,
          "time": 100.60000000000001,
          "velocity": 0.33858267716535434
        },
        {
          "duration": 0.19999999999998863,
          "durationTicks": 192,
          "midi": 64,
          "name": "E4",
          "ticks": 96768,
          "time": 100.80000000000001,
          "velocity": 0.33858267716535434
        },
        {
          "duration": 0.19999999999998863,
          "durationTicks": 192,
          "midi": 68,
          "name": "G#4",
          "ticks": 96768,
          "time": 100.80000000000001,
          "velocity": 0.33858267716535434
        },
        {
          "duration": 0.20000000000000284,
          "durationTicks": 192,
          "midi": 64,
          "name": "E4",
          "ticks": 96960,
          "time": 101,
          "velocity": 0.33858267716535434
        },
        {
          "duration": 0.20000000000000284,
          "durationTicks": 192,
          "midi": 68,
          "name": "G#4",
          "ticks": 96960,
          "time": 101,
          "velocity": 0.33858267716535434
        },
        {
          "duration": 0.20000000000000284,
          "durationTicks": 192,
          "midi": 64,
          "name": "E4",
          "ticks": 97152,
          "time": 101.2,
          "velocity": 0.33858267716535434
        },
        {
          "duration": 0.20000000000000284,
          "durationTicks": 192,
          "midi": 68,
          "name": "G#4",
          "ticks": 97152,
          "time": 101.2,
          "velocity": 0.33858267716535434
        },
        {
          "duration": 0.20000000000000284,
          "durationTicks": 192,
          "midi": 64,
          "name": "E4",
          "ticks": 97344,
          "time": 101.4,
          "velocity": 0.33858267716535434
        },
        {
          "duration": 0.20000000000000284,
          "durationTicks": 192,
          "midi": 68,
          "name": "G#4",
          "ticks": 97344,
          "time": 101.4,
          "velocity": 0.33858267716535434
        },
        {
          "duration": 0.20000000000000284,
          "durationTicks": 192,
          "midi": 64,
          "name": "E4",
          "ticks": 97536,
          "time": 101.60000000000001,
          "velocity": 0.33858267716535434
        },
        {
          "duration": 0.20000000000000284,
          "durationTicks": 192,
          "midi": 68,
          "name": "G#4",
          "ticks": 97536,
          "time": 101.60000000000001,
          "velocity": 0.33858267716535434
        },
        {
          "duration": 0.19999999999998863,
          "durationTicks": 192,
          "midi": 64,
          "name": "E4",
          "ticks": 97728,
          "time": 101.80000000000001,
          "velocity": 0.33858267716535434
        },
        {
          "duration": 0.19999999999998863,
          "durationTicks": 192,
          "midi": 68,
          "name": "G#4",
          "ticks": 97728,
          "time": 101.80000000000001,
          "velocity": 0.33858267716535434
        },
        {
          "duration": 0.20000000000000284,
          "durationTicks": 192,
          "midi": 64,
          "name": "E4",
          "ticks": 97920,
          "time": 102,
          "velocity": 0.33858267716535434
        },
        {
          "duration": 0.20000000000000284,
          "durationTicks": 192,
          "midi": 68,
          "name": "G#4",
          "ticks": 97920,
          "time": 102,
          "velocity": 0.33858267716535434
        },
        {
          "duration": 0.20000000000000284,
          "durationTicks": 192,
          "midi": 64,
          "name": "E4",
          "ticks": 98112,
          "time": 102.2,
          "velocity": 0.33858267716535434
        },
        {
          "duration": 0.20000000000000284,
          "durationTicks": 192,
          "midi": 68,
          "name": "G#4",
          "ticks": 98112,
          "time": 102.2,
          "velocity": 0.33858267716535434
        },
        {
          "duration": 0.7000000000000028,
          "durationTicks": 672,
          "midi": 69,
          "name": "A4",
          "ticks": 98304,
          "time": 102.4,
          "velocity": 0.33858267716535434
        },
        {
          "duration": 0.20000000000000284,
          "durationTicks": 192,
          "midi": 64,
          "name": "E4",
          "ticks": 99072,
          "time": 103.2,
          "velocity": 0.33858267716535434
        },
        {
          "duration": 0.20000000000000284,
          "durationTicks": 192,
          "midi": 69,
          "name": "A4",
          "ticks": 99072,
          "time": 103.2,
          "velocity": 0.33858267716535434
        },
        {
          "duration": 0.20000000000000284,
          "durationTicks": 192,
          "midi": 64,
          "name": "E4",
          "ticks": 99264,
          "time": 103.4,
          "velocity": 0.33858267716535434
        },
        {
          "duration": 0.20000000000000284,
          "durationTicks": 192,
          "midi": 69,
          "name": "A4",
          "ticks": 99264,
          "time": 103.4,
          "velocity": 0.33858267716535434
        },
        {
          "duration": 0.20000000000000284,
          "durationTicks": 192,
          "midi": 64,
          "name": "E4",
          "ticks": 99456,
          "time": 103.60000000000001,
          "velocity": 0.33858267716535434
        },
        {
          "duration": 0.20000000000000284,
          "durationTicks": 192,
          "midi": 69,
          "name": "A4",
          "ticks": 99456,
          "time": 103.60000000000001,
          "velocity": 0.33858267716535434
        },
        {
          "duration": 0.19999999999998863,
          "durationTicks": 192,
          "midi": 64,
          "name": "E4",
          "ticks": 99648,
          "time": 103.80000000000001,
          "velocity": 0.33858267716535434
        },
        {
          "duration": 0.19999999999998863,
          "durationTicks": 192,
          "midi": 69,
          "name": "A4",
          "ticks": 99648,
          "time": 103.80000000000001,
          "velocity": 0.33858267716535434
        },
        {
          "duration": 0.20000000000000284,
          "durationTicks": 192,
          "midi": 64,
          "name": "E4",
          "ticks": 99840,
          "time": 104,
          "velocity": 0.33858267716535434
        },
        {
          "duration": 0.20000000000000284,
          "durationTicks": 192,
          "midi": 68,
          "name": "G#4",
          "ticks": 99840,
          "time": 104,
          "velocity": 0.33858267716535434
        },
        {
          "duration": 0.20000000000000284,
          "durationTicks": 192,
          "midi": 64,
          "name": "E4",
          "ticks": 100032,
          "time": 104.2,
          "velocity": 0.33858267716535434
        },
        {
          "duration": 0.20000000000000284,
          "durationTicks": 192,
          "midi": 68,
          "name": "G#4",
          "ticks": 100032,
          "time": 104.2,
          "velocity": 0.33858267716535434
        },
        {
          "duration": 0.20000000000000284,
          "durationTicks": 192,
          "midi": 64,
          "name": "E4",
          "ticks": 100224,
          "time": 104.4,
          "velocity": 0.33858267716535434
        },
        {
          "duration": 0.20000000000000284,
          "durationTicks": 192,
          "midi": 68,
          "name": "G#4",
          "ticks": 100224,
          "time": 104.4,
          "velocity": 0.33858267716535434
        },
        {
          "duration": 0.20000000000000284,
          "durationTicks": 192,
          "midi": 64,
          "name": "E4",
          "ticks": 100416,
          "time": 104.60000000000001,
          "velocity": 0.33858267716535434
        },
        {
          "duration": 0.20000000000000284,
          "durationTicks": 192,
          "midi": 68,
          "name": "G#4",
          "ticks": 100416,
          "time": 104.60000000000001,
          "velocity": 0.33858267716535434
        },
        {
          "duration": 0.19999999999998863,
          "durationTicks": 192,
          "midi": 64,
          "name": "E4",
          "ticks": 100608,
          "time": 104.80000000000001,
          "velocity": 0.33858267716535434
        },
        {
          "duration": 0.19999999999998863,
          "durationTicks": 192,
          "midi": 68,
          "name": "G#4",
          "ticks": 100608,
          "time": 104.80000000000001,
          "velocity": 0.33858267716535434
        },
        {
          "duration": 0.20000000000000284,
          "durationTicks": 192,
          "midi": 64,
          "name": "E4",
          "ticks": 100800,
          "time": 105,
          "velocity": 0.33858267716535434
        },
        {
          "duration": 0.20000000000000284,
          "durationTicks": 192,
          "midi": 68,
          "name": "G#4",
          "ticks": 100800,
          "time": 105,
          "velocity": 0.33858267716535434
        },
        {
          "duration": 0.20000000000000284,
          "durationTicks": 192,
          "midi": 64,
          "name": "E4",
          "ticks": 100992,
          "time": 105.2,
          "velocity": 0.33858267716535434
        },
        {
          "duration": 0.20000000000000284,
          "durationTicks": 192,
          "midi": 68,
          "name": "G#4",
          "ticks": 100992,
          "time": 105.2,
          "velocity": 0.33858267716535434
        },
        {
          "duration": 0.20000000000000284,
          "durationTicks": 192,
          "midi": 64,
          "name": "E4",
          "ticks": 101184,
          "time": 105.4,
          "velocity": 0.33858267716535434
        },
        {
          "duration": 0.20000000000000284,
          "durationTicks": 192,
          "midi": 68,
          "name": "G#4",
          "ticks": 101184,
          "time": 105.4,
          "velocity": 0.33858267716535434
        },
        {
          "duration": 0.7000000000000028,
          "durationTicks": 672,
          "midi": 60,
          "name": "C4",
          "ticks": 101376,
          "time": 105.60000000000001,
          "velocity": 0.33858267716535434
        },
        {
          "duration": 0.20000000000000284,
          "durationTicks": 192,
          "midi": 64,
          "name": "E4",
          "ticks": 102144,
          "time": 106.4,
          "velocity": 0.33858267716535434
        },
        {
          "duration": 0.20000000000000284,
          "durationTicks": 192,
          "midi": 69,
          "name": "A4",
          "ticks": 102144,
          "time": 106.4,
          "velocity": 0.33858267716535434
        },
        {
          "duration": 0.20000000000000284,
          "durationTicks": 192,
          "midi": 64,
          "name": "E4",
          "ticks": 102336,
          "time": 106.60000000000001,
          "velocity": 0.33858267716535434
        },
        {
          "duration": 0.20000000000000284,
          "durationTicks": 192,
          "midi": 69,
          "name": "A4",
          "ticks": 102336,
          "time": 106.60000000000001,
          "velocity": 0.33858267716535434
        },
        {
          "duration": 0.19999999999998863,
          "durationTicks": 192,
          "midi": 64,
          "name": "E4",
          "ticks": 102528,
          "time": 106.80000000000001,
          "velocity": 0.33858267716535434
        },
        {
          "duration": 0.19999999999998863,
          "durationTicks": 192,
          "midi": 69,
          "name": "A4",
          "ticks": 102528,
          "time": 106.80000000000001,
          "velocity": 0.33858267716535434
        },
        {
          "duration": 0.20000000000000284,
          "durationTicks": 192,
          "midi": 64,
          "name": "E4",
          "ticks": 102720,
          "time": 107,
          "velocity": 0.33858267716535434
        },
        {
          "duration": 0.20000000000000284,
          "durationTicks": 192,
          "midi": 69,
          "name": "A4",
          "ticks": 102720,
          "time": 107,
          "velocity": 0.33858267716535434
        },
        {
          "duration": 0.20000000000000284,
          "durationTicks": 192,
          "midi": 64,
          "name": "E4",
          "ticks": 103296,
          "time": 107.60000000000001,
          "velocity": 0.33858267716535434
        },
        {
          "duration": 0.20000000000000284,
          "durationTicks": 192,
          "midi": 68,
          "name": "G#4",
          "ticks": 103296,
          "time": 107.60000000000001,
          "velocity": 0.33858267716535434
        },
        {
          "duration": 0.19999999999998863,
          "durationTicks": 192,
          "midi": 64,
          "name": "E4",
          "ticks": 103488,
          "time": 107.80000000000001,
          "velocity": 0.33858267716535434
        },
        {
          "duration": 0.19999999999998863,
          "durationTicks": 192,
          "midi": 68,
          "name": "G#4",
          "ticks": 103488,
          "time": 107.80000000000001,
          "velocity": 0.33858267716535434
        },
        {
          "duration": 0.20000000000000284,
          "durationTicks": 192,
          "midi": 64,
          "name": "E4",
          "ticks": 103680,
          "time": 108,
          "velocity": 0.33858267716535434
        },
        {
          "duration": 0.20000000000000284,
          "durationTicks": 192,
          "midi": 68,
          "name": "G#4",
          "ticks": 103680,
          "time": 108,
          "velocity": 0.33858267716535434
        },
        {
          "duration": 0.20000000000000284,
          "durationTicks": 192,
          "midi": 64,
          "name": "E4",
          "ticks": 103872,
          "time": 108.2,
          "velocity": 0.33858267716535434
        },
        {
          "duration": 0.20000000000000284,
          "durationTicks": 192,
          "midi": 68,
          "name": "G#4",
          "ticks": 103872,
          "time": 108.2,
          "velocity": 0.33858267716535434
        },
        {
          "duration": 0.20000000000000284,
          "durationTicks": 192,
          "midi": 64,
          "name": "E4",
          "ticks": 104064,
          "time": 108.4,
          "velocity": 0.33858267716535434
        },
        {
          "duration": 0.20000000000000284,
          "durationTicks": 192,
          "midi": 68,
          "name": "G#4",
          "ticks": 104064,
          "time": 108.4,
          "velocity": 0.33858267716535434
        },
        {
          "duration": 0.20000000000000284,
          "durationTicks": 192,
          "midi": 64,
          "name": "E4",
          "ticks": 104256,
          "time": 108.60000000000001,
          "velocity": 0.33858267716535434
        },
        {
          "duration": 0.20000000000000284,
          "durationTicks": 192,
          "midi": 68,
          "name": "G#4",
          "ticks": 104256,
          "time": 108.60000000000001,
          "velocity": 0.33858267716535434
        },
        {
          "duration": 0.6999999999999886,
          "durationTicks": 672,
          "midi": 72,
          "name": "C5",
          "ticks": 104448,
          "time": 108.80000000000001,
          "velocity": 0.33858267716535434
        },
        {
          "duration": 0.20000000000000284,
          "durationTicks": 192,
          "midi": 76,
          "name": "E5",
          "ticks": 105216,
          "time": 109.60000000000001,
          "velocity": 0.33858267716535434
        },
        {
          "duration": 0.20000000000000284,
          "durationTicks": 192,
          "midi": 81,
          "name": "A5",
          "ticks": 105216,
          "time": 109.60000000000001,
          "velocity": 0.33858267716535434
        },
        {
          "duration": 0.19999999999998863,
          "durationTicks": 192,
          "midi": 76,
          "name": "E5",
          "ticks": 105408,
          "time": 109.80000000000001,
          "velocity": 0.33858267716535434
        },
        {
          "duration": 0.19999999999998863,
          "durationTicks": 192,
          "midi": 81,
          "name": "A5",
          "ticks": 105408,
          "time": 109.80000000000001,
          "velocity": 0.33858267716535434
        },
        {
          "duration": 0.20000000000000284,
          "durationTicks": 192,
          "midi": 76,
          "name": "E5",
          "ticks": 105600,
          "time": 110,
          "velocity": 0.33858267716535434
        },
        {
          "duration": 0.20000000000000284,
          "durationTicks": 192,
          "midi": 81,
          "name": "A5",
          "ticks": 105600,
          "time": 110,
          "velocity": 0.33858267716535434
        },
        {
          "duration": 0.20000000000000284,
          "durationTicks": 192,
          "midi": 76,
          "name": "E5",
          "ticks": 105792,
          "time": 110.2,
          "velocity": 0.33858267716535434
        },
        {
          "duration": 0.20000000000000284,
          "durationTicks": 192,
          "midi": 81,
          "name": "A5",
          "ticks": 105792,
          "time": 110.2,
          "velocity": 0.33858267716535434
        },
        {
          "duration": 0.19999999999998863,
          "durationTicks": 192,
          "midi": 76,
          "name": "E5",
          "ticks": 106368,
          "time": 110.80000000000001,
          "velocity": 0.33858267716535434
        },
        {
          "duration": 0.19999999999998863,
          "durationTicks": 192,
          "midi": 80,
          "name": "G#5",
          "ticks": 106368,
          "time": 110.80000000000001,
          "velocity": 0.33858267716535434
        },
        {
          "duration": 0.20000000000000284,
          "durationTicks": 192,
          "midi": 76,
          "name": "E5",
          "ticks": 106560,
          "time": 111,
          "velocity": 0.33858267716535434
        },
        {
          "duration": 0.20000000000000284,
          "durationTicks": 192,
          "midi": 80,
          "name": "G#5",
          "ticks": 106560,
          "time": 111,
          "velocity": 0.33858267716535434
        },
        {
          "duration": 0.7000000000000028,
          "durationTicks": 672,
          "midi": 76,
          "name": "E5",
          "ticks": 106752,
          "time": 111.2,
          "velocity": 0.33858267716535434
        },
        {
          "duration": 0.7000000000000028,
          "durationTicks": 672,
          "midi": 80,
          "name": "G#5",
          "ticks": 106752,
          "time": 111.2,
          "velocity": 0.33858267716535434
        },
        {
          "duration": 0.4000000000000057,
          "durationTicks": 384,
          "midi": 74,
          "name": "D5",
          "ticks": 107712,
          "time": 112.2,
          "velocity": 0.33858267716535434
        },
        {
          "duration": 0.20000000000000284,
          "durationTicks": 192,
          "midi": 77,
          "name": "F5",
          "ticks": 108096,
          "time": 112.60000000000001,
          "velocity": 0.33858267716535434
        },
        {
          "duration": 0.29999999999999716,
          "durationTicks": 288,
          "midi": 81,
          "name": "A5",
          "ticks": 108288,
          "time": 112.80000000000001,
          "velocity": 0.3937007874015748
        },
        {
          "duration": 0.20000000000000284,
          "durationTicks": 192,
          "midi": 79,
          "name": "G5",
          "ticks": 108672,
          "time": 113.2,
          "velocity": 0.33858267716535434
        },
        {
          "duration": 0.20000000000000284,
          "durationTicks": 192,
          "midi": 77,
          "name": "F5",
          "ticks": 108864,
          "time": 113.4,
          "velocity": 0.33858267716535434
        },
        {
          "duration": 0.5,
          "durationTicks": 480,
          "midi": 79,
          "name": "G5",
          "ticks": 109056,
          "time": 113.60000000000001,
          "velocity": 0.3937007874015748
        },
        {
          "duration": 0.20000000000000284,
          "durationTicks": 192,
          "midi": 72,
          "name": "C5",
          "ticks": 109632,
          "time": 114.2,
          "velocity": 0.33858267716535434
        },
        {
          "duration": 0.29999999999999716,
          "durationTicks": 288,
          "midi": 76,
          "name": "E5",
          "ticks": 109824,
          "time": 114.4,
          "velocity": 0.3937007874015748
        },
        {
          "duration": 0.19999999999998863,
          "durationTicks": 192,
          "midi": 74,
          "name": "D5",
          "ticks": 110208,
          "time": 114.80000000000001,
          "velocity": 0.33858267716535434
        },
        {
          "duration": 0.20000000000000284,
          "durationTicks": 192,
          "midi": 72,
          "name": "C5",
          "ticks": 110400,
          "time": 115,
          "velocity": 0.33858267716535434
        },
        {
          "duration": 0.29999999999999716,
          "durationTicks": 288,
          "midi": 76,
          "name": "E5",
          "ticks": 110592,
          "time": 115.2,
          "velocity": 0.3937007874015748
        },
        {
          "duration": 0.20000000000000284,
          "durationTicks": 192,
          "midi": 71,
          "name": "B4",
          "ticks": 110976,
          "time": 115.60000000000001,
          "velocity": 0.33858267716535434
        },
        {
          "duration": 0.19999999999998863,
          "durationTicks": 192,
          "midi": 72,
          "name": "C5",
          "ticks": 111168,
          "time": 115.80000000000001,
          "velocity": 0.33858267716535434
        },
        {
          "duration": 0.30000000000001137,
          "durationTicks": 288,
          "midi": 74,
          "name": "D5",
          "ticks": 111360,
          "time": 116,
          "velocity": 0.33858267716535434
        },
        {
          "duration": 0.29999999999999716,
          "durationTicks": 288,
          "midi": 76,
          "name": "E5",
          "ticks": 111744,
          "time": 116.4,
          "velocity": 0.33858267716535434
        },
        {
          "duration": 1.5,
          "durationTicks": 1440,
          "midi": 81,
          "name": "A5",
          "ticks": 112128,
          "time": 116.80000000000001,
          "velocity": 0.33858267716535434
        },
        {
          "duration": 0.29999999999999716,
          "durationTicks": 288,
          "midi": 64,
          "name": "E4",
          "ticks": 114816,
          "time": 119.60000000000001,
          "velocity": 0.33858267716535434
        },
        {
          "duration": 0.29999999999999716,
          "durationTicks": 288,
          "midi": 71,
          "name": "B4",
          "ticks": 114816,
          "time": 119.60000000000001,
          "velocity": 0.33858267716535434
        },
        {
          "duration": 0.7000000000000028,
          "durationTicks": 672,
          "midi": 64,
          "name": "E4",
          "ticks": 115200,
          "time": 120,
          "velocity": 0.33858267716535434
        },
        {
          "duration": 1.5,
          "durationTicks": 1440,
          "midi": 72,
          "name": "C5",
          "ticks": 115200,
          "time": 120,
          "velocity": 0.33858267716535434
        },
        {
          "duration": 0.6999999999999886,
          "durationTicks": 672,
          "midi": 60,
          "name": "C4",
          "ticks": 115968,
          "time": 120.80000000000001,
          "velocity": 0.33858267716535434
        },
        {
          "duration": 0.6999999999999886,
          "durationTicks": 672,
          "midi": 76,
          "name": "E5",
          "ticks": 115968,
          "time": 120.80000000000001,
          "velocity": 0.33858267716535434
        },
        {
          "duration": 0.7000000000000028,
          "durationTicks": 672,
          "midi": 62,
          "name": "D4",
          "ticks": 116736,
          "time": 121.60000000000001,
          "velocity": 0.33858267716535434
        },
        {
          "duration": 1.5,
          "durationTicks": 1440,
          "midi": 71,
          "name": "B4",
          "ticks": 116736,
          "time": 121.60000000000001,
          "velocity": 0.33858267716535434
        },
        {
          "duration": 0.7000000000000028,
          "durationTicks": 672,
          "midi": 59,
          "name": "B3",
          "ticks": 117504,
          "time": 122.4,
          "velocity": 0.33858267716535434
        },
        {
          "duration": 0.7000000000000028,
          "durationTicks": 672,
          "midi": 76,
          "name": "E5",
          "ticks": 117504,
          "time": 122.4,
          "velocity": 0.33858267716535434
        },
        {
          "duration": 0.7000000000000028,
          "durationTicks": 672,
          "midi": 60,
          "name": "C4",
          "ticks": 118272,
          "time": 123.2,
          "velocity": 0.33858267716535434
        },
        {
          "duration": 1.5,
          "durationTicks": 1440,
          "midi": 69,
          "name": "A4",
          "ticks": 118272,
          "time": 123.2,
          "velocity": 0.33858267716535434
        },
        {
          "duration": 0.7000000000000028,
          "durationTicks": 672,
          "midi": 57,
          "name": "A3",
          "ticks": 119040,
          "time": 124,
          "velocity": 0.33858267716535434
        },
        {
          "duration": 0.7000000000000028,
          "durationTicks": 672,
          "midi": 76,
          "name": "E5",
          "ticks": 119040,
          "time": 124,
          "velocity": 0.33858267716535434
        },
        {
          "duration": 0.6999999999999886,
          "durationTicks": 672,
          "midi": 56,
          "name": "G#3",
          "ticks": 119808,
          "time": 124.80000000000001,
          "velocity": 0.33858267716535434
        },
        {
          "duration": 1.0999999999999943,
          "durationTicks": 1056,
          "midi": 68,
          "name": "G#4",
          "ticks": 119808,
          "time": 124.80000000000001,
          "velocity": 0.33858267716535434
        },
        {
          "duration": 0.29999999999999716,
          "durationTicks": 288,
          "midi": 59,
          "name": "B3",
          "ticks": 120576,
          "time": 125.60000000000001,
          "velocity": 0.33858267716535434
        },
        {
          "duration": 0.7000000000000028,
          "durationTicks": 672,
          "midi": 64,
          "name": "E4",
          "ticks": 121344,
          "time": 126.4,
          "velocity": 0.33858267716535434
        },
        {
          "duration": 1.5,
          "durationTicks": 1440,
          "midi": 72,
          "name": "C5",
          "ticks": 121344,
          "time": 126.4,
          "velocity": 0.33858267716535434
        },
        {
          "duration": 0.7000000000000028,
          "durationTicks": 672,
          "midi": 60,
          "name": "C4",
          "ticks": 122112,
          "time": 127.2,
          "velocity": 0.33858267716535434
        },
        {
          "duration": 0.700000000000017,
          "durationTicks": 672,
          "midi": 62,
          "name": "D4",
          "ticks": 122880,
          "time": 128,
          "velocity": 0.33858267716535434
        },
        {
          "duration": 1.5,
          "durationTicks": 1440,
          "midi": 71,
          "name": "B4",
          "ticks": 122880,
          "time": 128,
          "velocity": 0.33858267716535434
        },
        {
          "duration": 0.6999999999999886,
          "durationTicks": 672,
          "midi": 59,
          "name": "B3",
          "ticks": 123648,
          "time": 128.8,
          "velocity": 0.33858267716535434
        },
        {
          "duration": 0.30000000000001137,
          "durationTicks": 288,
          "midi": 60,
          "name": "C4",
          "ticks": 124416,
          "time": 129.6,
          "velocity": 0.3937007874015748
        },
        {
          "duration": 0.30000000000001137,
          "durationTicks": 288,
          "midi": 72,
          "name": "C5",
          "ticks": 124416,
          "time": 129.6,
          "velocity": 0.3937007874015748
        },
        {
          "duration": 0.30000000000001137,
          "durationTicks": 288,
          "midi": 64,
          "name": "E4",
          "ticks": 124800,
          "time": 130,
          "velocity": 0.3937007874015748
        },
        {
          "duration": 0.30000000000001137,
          "durationTicks": 288,
          "midi": 76,
          "name": "E5",
          "ticks": 124800,
          "time": 130,
          "velocity": 0.3937007874015748
        },
        {
          "duration": 0.30000000000001137,
          "durationTicks": 288,
          "midi": 81,
          "name": "A5",
          "ticks": 125184,
          "time": 130.4,
          "velocity": 0.3937007874015748
        },
        {
          "duration": 0.6999999999999886,
          "durationTicks": 672,
          "midi": 69,
          "name": "A4",
          "ticks": 125184,
          "time": 130.4,
          "velocity": 0.33858267716535434
        },
        {
          "duration": 0.29999999999998295,
          "durationTicks": 288,
          "midi": 84,
          "name": "C6",
          "ticks": 125568,
          "time": 130.8,
          "velocity": 0.33858267716535434
        },
        {
          "duration": 0.6999999999999886,
          "durationTicks": 672,
          "midi": 68,
          "name": "G#4",
          "ticks": 125952,
          "time": 131.20000000000002,
          "velocity": 0.33858267716535434
        },
        {
          "duration": 0.6999999999999886,
          "durationTicks": 672,
          "midi": 83,
          "name": "B5",
          "ticks": 125952,
          "time": 131.20000000000002,
          "velocity": 0.33858267716535434
        },
        {
          "duration": 0.29999999999998295,
          "durationTicks": 288,
          "midi": 76,
          "name": "E5",
          "ticks": 127488,
          "time": 132.8,
          "velocity": 0.3937007874015748
        },
        {
          "duration": 0.19999999999998863,
          "durationTicks": 192,
          "midi": 71,
          "name": "B4",
          "ticks": 127872,
          "time": 133.20000000000002,
          "velocity": 0.33858267716535434
        },
        {
          "duration": 0.19999999999998863,
          "durationTicks": 192,
          "midi": 72,
          "name": "C5",
          "ticks": 128064,
          "time": 133.4,
          "velocity": 0.33858267716535434
        },
        {
          "duration": 0.20000000000001705,
          "durationTicks": 192,
          "midi": 74,
          "name": "D5",
          "ticks": 128256,
          "time": 133.6,
          "velocity": 0.3937007874015748
        },
        {
          "duration": 0.09999999999999432,
          "durationTicks": 96,
          "midi": 76,
          "name": "E5",
          "ticks": 128448,
          "time": 133.8,
          "velocity": 0.33858267716535434
        },
        {
          "duration": 0.09999999999999432,
          "durationTicks": 96,
          "midi": 74,
          "name": "D5",
          "ticks": 128544,
          "time": 133.9,
          "velocity": 0.33858267716535434
        },
        {
          "duration": 0.09999999999999432,
          "durationTicks": 96,
          "midi": 72,
          "name": "C5",
          "ticks": 128640,
          "time": 134,
          "velocity": 0.33858267716535434
        },
        {
          "duration": 0.19999999999998863,
          "durationTicks": 192,
          "midi": 71,
          "name": "B4",
          "ticks": 128832,
          "time": 134.20000000000002,
          "velocity": 0.33858267716535434
        },
        {
          "duration": 0.4000000000000057,
          "durationTicks": 384,
          "midi": 69,
          "name": "A4",
          "ticks": 129024,
          "time": 134.4,
          "velocity": 0.3937007874015748
        },
        {
          "duration": 0.19999999999998863,
          "durationTicks": 192,
          "midi": 69,
          "name": "A4",
          "ticks": 129408,
          "time": 134.8,
          "velocity": 0.33858267716535434
        },
        {
          "duration": 0.09999999999999432,
          "durationTicks": 96,
          "midi": 72,
          "name": "C5",
          "ticks": 129600,
          "time": 135,
          "velocity": 0.33858267716535434
        },
        {
          "duration": 0.39999999999997726,
          "durationTicks": 384,
          "midi": 76,
          "name": "E5",
          "ticks": 129792,
          "time": 135.20000000000002,
          "velocity": 0.3937007874015748
        },
        {
          "duration": 0.20000000000001705,
          "durationTicks": 192,
          "midi": 74,
          "name": "D5",
          "ticks": 130176,
          "time": 135.6,
          "velocity": 0.33858267716535434
        },
        {
          "duration": 0.19999999999998863,
          "durationTicks": 192,
          "midi": 72,
          "name": "C5",
          "ticks": 130368,
          "time": 135.8,
          "velocity": 0.33858267716535434
        },
        {
          "duration": 0.5,
          "durationTicks": 480,
          "midi": 71,
          "name": "B4",
          "ticks": 130560,
          "time": 136,
          "velocity": 0.33858267716535434
        },
        {
          "duration": 0.10000000000002274,
          "durationTicks": 96,
          "midi": 72,
          "name": "C5",
          "ticks": 131136,
          "time": 136.6,
          "velocity": 0.33858267716535434
        },
        {
          "duration": 0.29999999999998295,
          "durationTicks": 288,
          "midi": 74,
          "name": "D5",
          "ticks": 131328,
          "time": 136.8,
          "velocity": 0.33858267716535434
        },
        {
          "duration": 0.29999999999998295,
          "durationTicks": 288,
          "midi": 76,
          "name": "E5",
          "ticks": 131712,
          "time": 137.20000000000002,
          "velocity": 0.33858267716535434
        },
        {
          "duration": 0.30000000000001137,
          "durationTicks": 288,
          "midi": 72,
          "name": "C5",
          "ticks": 132096,
          "time": 137.6,
          "velocity": 0.33858267716535434
        },
        {
          "duration": 0.30000000000001137,
          "durationTicks": 288,
          "midi": 69,
          "name": "A4",
          "ticks": 132480,
          "time": 138,
          "velocity": 0.33858267716535434
        },
        {
          "duration": 0.6999999999999886,
          "durationTicks": 672,
          "midi": 69,
          "name": "A4",
          "ticks": 132864,
          "time": 138.4,
          "velocity": 0.33858267716535434
        },
        {
          "duration": 0.4000000000000057,
          "durationTicks": 384,
          "midi": 74,
          "name": "D5",
          "ticks": 133824,
          "time": 139.4,
          "velocity": 0.3937007874015748
        },
        {
          "duration": 0.19999999999998863,
          "durationTicks": 192,
          "midi": 77,
          "name": "F5",
          "ticks": 134208,
          "time": 139.8,
          "velocity": 0.33858267716535434
        },
        {
          "duration": 0.30000000000001137,
          "durationTicks": 288,
          "midi": 81,
          "name": "A5",
          "ticks": 134400,
          "time": 140,
          "velocity": 0.3937007874015748
        },
        {
          "duration": 0.09999999999999432,
          "durationTicks": 96,
          "midi": 79,
          "name": "G5",
          "ticks": 134784,
          "time": 140.4,
          "velocity": 0.33858267716535434
        },
        {
          "duration": 0.10000000000002274,
          "durationTicks": 96,
          "midi": 77,
          "name": "F5",
          "ticks": 134976,
          "time": 140.6,
          "velocity": 0.33858267716535434
        },
        {
          "duration": 0.5,
          "durationTicks": 480,
          "midi": 76,
          "name": "E5",
          "ticks": 135168,
          "time": 140.8,
          "velocity": 0.33858267716535434
        },
        {
          "duration": 0.19999999999998863,
          "durationTicks": 192,
          "midi": 72,
          "name": "C5",
          "ticks": 135744,
          "time": 141.4,
          "velocity": 0.33858267716535434
        },
        {
          "duration": 0.30000000000001137,
          "durationTicks": 288,
          "midi": 76,
          "name": "E5",
          "ticks": 135936,
          "time": 141.6,
          "velocity": 0.33858267716535434
        },
        {
          "duration": 0.20000000000001705,
          "durationTicks": 192,
          "midi": 74,
          "name": "D5",
          "ticks": 136320,
          "time": 142,
          "velocity": 0.33858267716535434
        },
        {
          "duration": 0.19999999999998863,
          "durationTicks": 192,
          "midi": 72,
          "name": "C5",
          "ticks": 136512,
          "time": 142.20000000000002,
          "velocity": 0.33858267716535434
        },
        {
          "duration": 0.30000000000001137,
          "durationTicks": 288,
          "midi": 71,
          "name": "B4",
          "ticks": 136704,
          "time": 142.4,
          "velocity": 0.33858267716535434
        },
        {
          "duration": 0.19999999999998863,
          "durationTicks": 192,
          "midi": 71,
          "name": "B4",
          "ticks": 137088,
          "time": 142.8,
          "velocity": 0.33858267716535434
        },
        {
          "duration": 0.20000000000001705,
          "durationTicks": 192,
          "midi": 72,
          "name": "C5",
          "ticks": 137280,
          "time": 143,
          "velocity": 0.33858267716535434
        },
        {
          "duration": 0.29999999999998295,
          "durationTicks": 288,
          "midi": 74,
          "name": "D5",
          "ticks": 137472,
          "time": 143.20000000000002,
          "velocity": 0.33858267716535434
        },
        {
          "duration": 0.30000000000001137,
          "durationTicks": 288,
          "midi": 76,
          "name": "E5",
          "ticks": 137856,
          "time": 143.6,
          "velocity": 0.33858267716535434
        },
        {
          "duration": 0.30000000000001137,
          "durationTicks": 288,
          "midi": 72,
          "name": "C5",
          "ticks": 138240,
          "time": 144,
          "velocity": 0.33858267716535434
        },
        {
          "duration": 0.30000000000001137,
          "durationTicks": 288,
          "midi": 69,
          "name": "A4",
          "ticks": 138624,
          "time": 144.4,
          "velocity": 0.33858267716535434
        },
        {
          "duration": 0.29999999999998295,
          "durationTicks": 288,
          "midi": 69,
          "name": "A4",
          "ticks": 139008,
          "time": 144.8,
          "velocity": 0.33858267716535434
        },
        {
          "duration": 0.30000000000001137,
          "durationTicks": 288,
          "midi": 76,
          "name": "E5",
          "ticks": 139776,
          "time": 145.6,
          "velocity": 0.3937007874015748
        },
        {
          "duration": 0.20000000000001705,
          "durationTicks": 192,
          "midi": 71,
          "name": "B4",
          "ticks": 140160,
          "time": 146,
          "velocity": 0.33858267716535434
        },
        {
          "duration": 0.19999999999998863,
          "durationTicks": 192,
          "midi": 72,
          "name": "C5",
          "ticks": 140352,
          "time": 146.20000000000002,
          "velocity": 0.33858267716535434
        },
        {
          "duration": 0.19999999999998863,
          "durationTicks": 192,
          "midi": 74,
          "name": "D5",
          "ticks": 140544,
          "time": 146.4,
          "velocity": 0.3937007874015748
        },
        {
          "duration": 0.10000000000002274,
          "durationTicks": 96,
          "midi": 76,
          "name": "E5",
          "ticks": 140736,
          "time": 146.6,
          "velocity": 0.33858267716535434
        },
        {
          "duration": 0.09999999999999432,
          "durationTicks": 96,
          "midi": 74,
          "name": "D5",
          "ticks": 140832,
          "time": 146.70000000000002,
          "velocity": 0.33858267716535434
        },
        {
          "duration": 0.09999999999999432,
          "durationTicks": 96,
          "midi": 72,
          "name": "C5",
          "ticks": 140928,
          "time": 146.8,
          "velocity": 0.33858267716535434
        },
        {
          "duration": 0.20000000000001705,
          "durationTicks": 192,
          "midi": 71,
          "name": "B4",
          "ticks": 141120,
          "time": 147,
          "velocity": 0.33858267716535434
        },
        {
          "duration": 0.29999999999998295,
          "durationTicks": 288,
          "midi": 69,
          "name": "A4",
          "ticks": 141312,
          "time": 147.20000000000002,
          "velocity": 0.3937007874015748
        },
        {
          "duration": 0.20000000000001705,
          "durationTicks": 192,
          "midi": 69,
          "name": "A4",
          "ticks": 141696,
          "time": 147.6,
          "velocity": 0.33858267716535434
        },
        {
          "duration": 0.19999999999998863,
          "durationTicks": 192,
          "midi": 72,
          "name": "C5",
          "ticks": 141888,
          "time": 147.8,
          "velocity": 0.33858267716535434
        },
        {
          "duration": 0.30000000000001137,
          "durationTicks": 288,
          "midi": 76,
          "name": "E5",
          "ticks": 142080,
          "time": 148,
          "velocity": 0.33858267716535434
        },
        {
          "duration": 0.19999999999998863,
          "durationTicks": 192,
          "midi": 74,
          "name": "D5",
          "ticks": 142464,
          "time": 148.4,
          "velocity": 0.33858267716535434
        },
        {
          "duration": 0.20000000000001705,
          "durationTicks": 192,
          "midi": 72,
          "name": "C5",
          "ticks": 142656,
          "time": 148.6,
          "velocity": 0.33858267716535434
        },
        {
          "duration": 0.5,
          "durationTicks": 480,
          "midi": 71,
          "name": "B4",
          "ticks": 142848,
          "time": 148.8,
          "velocity": 0.33858267716535434
        },
        {
          "duration": 0.19999999999998863,
          "durationTicks": 192,
          "midi": 72,
          "name": "C5",
          "ticks": 143424,
          "time": 149.4,
          "velocity": 0.33858267716535434
        },
        {
          "duration": 0.30000000000001137,
          "durationTicks": 288,
          "midi": 74,
          "name": "D5",
          "ticks": 143616,
          "time": 149.6,
          "velocity": 0.33858267716535434
        },
        {
          "duration": 0.30000000000001137,
          "durationTicks": 288,
          "midi": 76,
          "name": "E5",
          "ticks": 144000,
          "time": 150,
          "velocity": 0.33858267716535434
        },
        {
          "duration": 0.30000000000001137,
          "durationTicks": 288,
          "midi": 72,
          "name": "C5",
          "ticks": 144384,
          "time": 150.4,
          "velocity": 0.33858267716535434
        },
        {
          "duration": 0.29999999999998295,
          "durationTicks": 288,
          "midi": 69,
          "name": "A4",
          "ticks": 144768,
          "time": 150.8,
          "velocity": 0.33858267716535434
        },
        {
          "duration": 0.6999999999999886,
          "durationTicks": 672,
          "midi": 69,
          "name": "A4",
          "ticks": 145152,
          "time": 151.20000000000002,
          "velocity": 0.33858267716535434
        },
        {
          "duration": 0.39999999999997726,
          "durationTicks": 384,
          "midi": 74,
          "name": "D5",
          "ticks": 146112,
          "time": 152.20000000000002,
          "velocity": 0.33858267716535434
        },
        {
          "duration": 0.20000000000001705,
          "durationTicks": 192,
          "midi": 77,
          "name": "F5",
          "ticks": 146496,
          "time": 152.6,
          "velocity": 0.33858267716535434
        },
        {
          "duration": 0.29999999999998295,
          "durationTicks": 288,
          "midi": 81,
          "name": "A5",
          "ticks": 146688,
          "time": 152.8,
          "velocity": 0.33858267716535434
        },
        {
          "duration": 0.19999999999998863,
          "durationTicks": 192,
          "midi": 79,
          "name": "G5",
          "ticks": 147072,
          "time": 153.20000000000002,
          "velocity": 0.33858267716535434
        },
        {
          "duration": 0.20000000000001705,
          "durationTicks": 192,
          "midi": 77,
          "name": "F5",
          "ticks": 147264,
          "time": 153.4,
          "velocity": 0.33858267716535434
        },
        {
          "duration": 0.5,
          "durationTicks": 480,
          "midi": 79,
          "name": "G5",
          "ticks": 147456,
          "time": 153.60000000000002,
          "velocity": 0.33858267716535434
        },
        {
          "duration": 0.19999999999998863,
          "durationTicks": 192,
          "midi": 72,
          "name": "C5",
          "ticks": 148032,
          "time": 154.20000000000002,
          "velocity": 0.33858267716535434
        },
        {
          "duration": 0.30000000000001137,
          "durationTicks": 288,
          "midi": 76,
          "name": "E5",
          "ticks": 148224,
          "time": 154.4,
          "velocity": 0.33858267716535434
        },
        {
          "duration": 0.19999999999998863,
          "durationTicks": 192,
          "midi": 74,
          "name": "D5",
          "ticks": 148608,
          "time": 154.8,
          "velocity": 0.33858267716535434
        },
        {
          "duration": 0.20000000000001705,
          "durationTicks": 192,
          "midi": 72,
          "name": "C5",
          "ticks": 148800,
          "time": 155,
          "velocity": 0.33858267716535434
        },
        {
          "duration": 0.29999999999998295,
          "durationTicks": 288,
          "midi": 71,
          "name": "B4",
          "ticks": 148992,
          "time": 155.20000000000002,
          "velocity": 0.33858267716535434
        },
        {
          "duration": 0.19999999999998863,
          "durationTicks": 192,
          "midi": 71,
          "name": "B4",
          "ticks": 149376,
          "time": 155.60000000000002,
          "velocity": 0.33858267716535434
        },
        {
          "duration": 0.19999999999998863,
          "durationTicks": 192,
          "midi": 72,
          "name": "C5",
          "ticks": 149568,
          "time": 155.8,
          "velocity": 0.33858267716535434
        },
        {
          "duration": 0.30000000000001137,
          "durationTicks": 288,
          "midi": 74,
          "name": "D5",
          "ticks": 149760,
          "time": 156,
          "velocity": 0.33858267716535434
        },
        {
          "duration": 0.30000000000001137,
          "durationTicks": 288,
          "midi": 76,
          "name": "E5",
          "ticks": 150144,
          "time": 156.4,
          "velocity": 0.33858267716535434
        },
        {
          "duration": 0.30000000000001137,
          "durationTicks": 288,
          "midi": 72,
          "name": "C5",
          "ticks": 150528,
          "time": 156.8,
          "velocity": 0.33858267716535434
        },
        {
          "duration": 0.29999999999998295,
          "durationTicks": 288,
          "midi": 69,
          "name": "A4",
          "ticks": 150912,
          "time": 157.20000000000002,
          "velocity": 0.33858267716535434
        },
        {
          "duration": 0.29999999999998295,
          "durationTicks": 288,
          "midi": 69,
          "name": "A4",
          "ticks": 151296,
          "time": 157.60000000000002,
          "velocity": 0.33858267716535434
        },
        {
          "duration": 0.700000000000017,
          "durationTicks": 672,
          "midi": 72,
          "name": "C5",
          "ticks": 152064,
          "time": 158.4,
          "velocity": 0.33858267716535434
        },
        {
          "duration": 0.19999999999998863,
          "durationTicks": 192,
          "midi": 76,
          "name": "E5",
          "ticks": 152832,
          "time": 159.20000000000002,
          "velocity": 0.33858267716535434
        },
        {
          "duration": 0.20000000000001705,
          "durationTicks": 192,
          "midi": 69,
          "name": "A4",
          "ticks": 153024,
          "time": 159.4,
          "velocity": 0.33858267716535434
        },
        {
          "duration": 0.19999999999998863,
          "durationTicks": 192,
          "midi": 76,
          "name": "E5",
          "ticks": 153216,
          "time": 159.60000000000002,
          "velocity": 0.33858267716535434
        },
        {
          "duration": 0.19999999999998863,
          "durationTicks": 192,
          "midi": 69,
          "name": "A4",
          "ticks": 153408,
          "time": 159.8,
          "velocity": 0.33858267716535434
        },
        {
          "duration": 0.20000000000001705,
          "durationTicks": 192,
          "midi": 76,
          "name": "E5",
          "ticks": 153600,
          "time": 160,
          "velocity": 0.33858267716535434
        },
        {
          "duration": 0.19999999999998863,
          "durationTicks": 192,
          "midi": 68,
          "name": "G#4",
          "ticks": 153792,
          "time": 160.20000000000002,
          "velocity": 0.33858267716535434
        },
        {
          "duration": 0.20000000000001705,
          "durationTicks": 192,
          "midi": 76,
          "name": "E5",
          "ticks": 153984,
          "time": 160.4,
          "velocity": 0.33858267716535434
        },
        {
          "duration": 0.19999999999998863,
          "durationTicks": 192,
          "midi": 68,
          "name": "G#4",
          "ticks": 154176,
          "time": 160.60000000000002,
          "velocity": 0.33858267716535434
        },
        {
          "duration": 0.6999999999999886,
          "durationTicks": 672,
          "midi": 76,
          "name": "E5",
          "ticks": 154368,
          "time": 160.8,
          "velocity": 0.33858267716535434
        },
        {
          "duration": 0.6999999999999886,
          "durationTicks": 672,
          "midi": 69,
          "name": "A4",
          "ticks": 155136,
          "time": 161.60000000000002,
          "velocity": 0.33858267716535434
        },
        {
          "duration": 0.30000000000001137,
          "durationTicks": 288,
          "midi": 64,
          "name": "E4",
          "ticks": 155904,
          "time": 162.4,
          "velocity": 0.33858267716535434
        },
        {
          "duration": 0.30000000000001137,
          "durationTicks": 288,
          "midi": 60,
          "name": "C4",
          "ticks": 156288,
          "time": 162.8,
          "velocity": 0.33858267716535434
        },
        {
          "duration": 0.09999999999999432,
          "durationTicks": 96,
          "midi": 59,
          "name": "B3",
          "ticks": 156672,
          "time": 163.20000000000002,
          "velocity": 0.33858267716535434
        },
        {
          "duration": 0.09999999999999432,
          "durationTicks": 96,
          "midi": 64,
          "name": "E4",
          "ticks": 156768,
          "time": 163.3,
          "velocity": 0.33858267716535434
        },
        {
          "duration": 0.09999999999999432,
          "durationTicks": 96,
          "midi": 59,
          "name": "B3",
          "ticks": 156864,
          "time": 163.4,
          "velocity": 0.33858267716535434
        },
        {
          "duration": 0.10000000000002274,
          "durationTicks": 96,
          "midi": 64,
          "name": "E4",
          "ticks": 156960,
          "time": 163.5,
          "velocity": 0.33858267716535434
        },
        {
          "duration": 0.09999999999999432,
          "durationTicks": 96,
          "midi": 59,
          "name": "B3",
          "ticks": 157056,
          "time": 163.60000000000002,
          "velocity": 0.33858267716535434
        },
        {
          "duration": 0.09999999999999432,
          "durationTicks": 96,
          "midi": 64,
          "name": "E4",
          "ticks": 157152,
          "time": 163.70000000000002,
          "velocity": 0.33858267716535434
        },
        {
          "duration": 0.09999999999999432,
          "durationTicks": 96,
          "midi": 59,
          "name": "B3",
          "ticks": 157248,
          "time": 163.8,
          "velocity": 0.33858267716535434
        },
        {
          "duration": 0.09999999999999432,
          "durationTicks": 96,
          "midi": 64,
          "name": "E4",
          "ticks": 157344,
          "time": 163.9,
          "velocity": 0.33858267716535434
        },
        {
          "duration": 0.700000000000017,
          "durationTicks": 672,
          "midi": 64,
          "name": "E4",
          "ticks": 157440,
          "time": 164,
          "velocity": 0.33858267716535434
        },
        {
          "duration": 1.5,
          "durationTicks": 1440,
          "midi": 64,
          "name": "E4",
          "ticks": 158208,
          "time": 164.8,
          "velocity": 0.33858267716535434
        },
        {
          "duration": 1.5,
          "durationTicks": 1440,
          "midi": 64,
          "name": "E4",
          "ticks": 159744,
          "time": 166.4,
          "velocity": 0.33858267716535434
        },
        {
          "duration": 1.5,
          "durationTicks": 1440,
          "midi": 64,
          "name": "E4",
          "ticks": 161280,
          "time": 168,
          "velocity": 0.33858267716535434
        },
        {
          "duration": 1.5,
          "durationTicks": 1440,
          "midi": 64,
          "name": "E4",
          "ticks": 162816,
          "time": 169.60000000000002,
          "velocity": 0.33858267716535434
        },
        {
          "duration": 0.29999999999998295,
          "durationTicks": 288,
          "midi": 76,
          "name": "E5",
          "ticks": 164352,
          "time": 171.20000000000002,
          "velocity": 0.3937007874015748
        },
        {
          "duration": 0.19999999999998863,
          "durationTicks": 192,
          "midi": 71,
          "name": "B4",
          "ticks": 164736,
          "time": 171.60000000000002,
          "velocity": 0.33858267716535434
        },
        {
          "duration": 0.19999999999998863,
          "durationTicks": 192,
          "midi": 72,
          "name": "C5",
          "ticks": 164928,
          "time": 171.8,
          "velocity": 0.33858267716535434
        },
        {
          "duration": 0.20000000000001705,
          "durationTicks": 192,
          "midi": 74,
          "name": "D5",
          "ticks": 165120,
          "time": 172,
          "velocity": 0.3937007874015748
        },
        {
          "duration": 0.09999999999999432,
          "durationTicks": 96,
          "midi": 76,
          "name": "E5",
          "ticks": 165312,
          "time": 172.20000000000002,
          "velocity": 0.33858267716535434
        },
        {
          "duration": 0.09999999999999432,
          "durationTicks": 96,
          "midi": 74,
          "name": "D5",
          "ticks": 165408,
          "time": 172.3,
          "velocity": 0.33858267716535434
        },
        {
          "duration": 0.20000000000001705,
          "durationTicks": 192,
          "midi": 71,
          "name": "B4",
          "ticks": 165504,
          "time": 172.4,
          "velocity": 0.33858267716535434
        },
        {
          "duration": 0.19999999999998863,
          "durationTicks": 192,
          "midi": 72,
          "name": "C5",
          "ticks": 165696,
          "time": 172.60000000000002,
          "velocity": 0.33858267716535434
        },
        {
          "duration": 0.4000000000000057,
          "durationTicks": 384,
          "midi": 69,
          "name": "A4",
          "ticks": 165888,
          "time": 172.8,
          "velocity": 0.3937007874015748
        },
        {
          "duration": 0.19999999999998863,
          "durationTicks": 192,
          "midi": 69,
          "name": "A4",
          "ticks": 166272,
          "time": 173.20000000000002,
          "velocity": 0.33858267716535434
        },
        {
          "duration": 0.09999999999999432,
          "durationTicks": 96,
          "midi": 72,
          "name": "C5",
          "ticks": 166464,
          "time": 173.4,
          "velocity": 0.33858267716535434
        },
        {
          "duration": 0.39999999999997726,
          "durationTicks": 384,
          "midi": 76,
          "name": "E5",
          "ticks": 166656,
          "time": 173.60000000000002,
          "velocity": 0.3937007874015748
        },
        {
          "duration": 0.20000000000001705,
          "durationTicks": 192,
          "midi": 69,
          "name": "A4",
          "ticks": 167040,
          "time": 174,
          "velocity": 0.33858267716535434
        },
        {
          "duration": 0.09999999999999432,
          "durationTicks": 96,
          "midi": 72,
          "name": "C5",
          "ticks": 167232,
          "time": 174.20000000000002,
          "velocity": 0.33858267716535434
        },
        {
          "duration": 0.5,
          "durationTicks": 480,
          "midi": 76,
          "name": "E5",
          "ticks": 167424,
          "time": 174.4,
          "velocity": 0.33858267716535434
        },
        {
          "duration": 0.20000000000001705,
          "durationTicks": 192,
          "midi": 72,
          "name": "C5",
          "ticks": 168000,
          "time": 175,
          "velocity": 0.33858267716535434
        },
        {
          "duration": 0.29999999999998295,
          "durationTicks": 288,
          "midi": 71,
          "name": "B4",
          "ticks": 168192,
          "time": 175.20000000000002,
          "velocity": 0.33858267716535434
        },
        {
          "duration": 0.29999999999998295,
          "durationTicks": 288,
          "midi": 76,
          "name": "E5",
          "ticks": 168576,
          "time": 175.60000000000002,
          "velocity": 0.33858267716535434
        },
        {
          "duration": 0.30000000000001137,
          "durationTicks": 288,
          "midi": 69,
          "name": "A4",
          "ticks": 168960,
          "time": 176,
          "velocity": 0.33858267716535434
        },
        {
          "duration": 0.30000000000001137,
          "durationTicks": 288,
          "midi": 72,
          "name": "C5",
          "ticks": 169344,
          "time": 176.4,
          "velocity": 0.33858267716535434
        },
        {
          "duration": 0.6999999999999886,
          "durationTicks": 672,
          "midi": 69,
          "name": "A4",
          "ticks": 169728,
          "time": 176.8,
          "velocity": 0.33858267716535434
        },
        {
          "duration": 0.4000000000000057,
          "durationTicks": 384,
          "midi": 74,
          "name": "D5",
          "ticks": 170688,
          "time": 177.8,
          "velocity": 0.3937007874015748
        },
        {
          "duration": 0.19999999999998863,
          "durationTicks": 192,
          "midi": 77,
          "name": "F5",
          "ticks": 171072,
          "time": 178.20000000000002,
          "velocity": 0.33858267716535434
        },
        {
          "duration": 0.30000000000001137,
          "durationTicks": 288,
          "midi": 81,
          "name": "A5",
          "ticks": 171264,
          "time": 178.4,
          "velocity": 0.3937007874015748
        },
        {
          "duration": 0.09999999999999432,
          "durationTicks": 96,
          "midi": 79,
          "name": "G5",
          "ticks": 171648,
          "time": 178.8,
          "velocity": 0.33858267716535434
        },
        {
          "duration": 0.10000000000002274,
          "durationTicks": 96,
          "midi": 77,
          "name": "F5",
          "ticks": 171840,
          "time": 179,
          "velocity": 0.33858267716535434
        },
        {
          "duration": 0.5,
          "durationTicks": 480,
          "midi": 76,
          "name": "E5",
          "ticks": 172032,
          "time": 179.20000000000002,
          "velocity": 0.33858267716535434
        },
        {
          "duration": 0.19999999999998863,
          "durationTicks": 192,
          "midi": 72,
          "name": "C5",
          "ticks": 172608,
          "time": 179.8,
          "velocity": 0.33858267716535434
        },
        {
          "duration": 0.30000000000001137,
          "durationTicks": 288,
          "midi": 76,
          "name": "E5",
          "ticks": 172800,
          "time": 180,
          "velocity": 0.33858267716535434
        },
        {
          "duration": 0.20000000000001705,
          "durationTicks": 192,
          "midi": 74,
          "name": "D5",
          "ticks": 173184,
          "time": 180.4,
          "velocity": 0.33858267716535434
        },
        {
          "duration": 0.19999999999998863,
          "durationTicks": 192,
          "midi": 72,
          "name": "C5",
          "ticks": 173376,
          "time": 180.60000000000002,
          "velocity": 0.33858267716535434
        },
        {
          "duration": 0.30000000000001137,
          "durationTicks": 288,
          "midi": 76,
          "name": "E5",
          "ticks": 173568,
          "time": 180.8,
          "velocity": 0.33858267716535434
        },
        {
          "duration": 0.19999999999998863,
          "durationTicks": 192,
          "midi": 71,
          "name": "B4",
          "ticks": 173952,
          "time": 181.20000000000002,
          "velocity": 0.33858267716535434
        },
        {
          "duration": 0.20000000000001705,
          "durationTicks": 192,
          "midi": 72,
          "name": "C5",
          "ticks": 174144,
          "time": 181.4,
          "velocity": 0.33858267716535434
        },
        {
          "duration": 0.29999999999998295,
          "durationTicks": 288,
          "midi": 74,
          "name": "D5",
          "ticks": 174336,
          "time": 181.60000000000002,
          "velocity": 0.33858267716535434
        },
        {
          "duration": 0.30000000000001137,
          "durationTicks": 288,
          "midi": 76,
          "name": "E5",
          "ticks": 174720,
          "time": 182,
          "velocity": 0.33858267716535434
        },
        {
          "duration": 1.5,
          "durationTicks": 1440,
          "midi": 72,
          "name": "C5",
          "ticks": 175104,
          "time": 182.4,
          "velocity": 0.33858267716535434
        },
        {
          "duration": 0.29999999999998295,
          "durationTicks": 288,
          "midi": 74,
          "name": "D5",
          "ticks": 177792,
          "time": 185.20000000000002,
          "velocity": 0.33858267716535434
        },
        {
          "duration": 0.6999999999999886,
          "durationTicks": 672,
          "midi": 76,
          "name": "E5",
          "ticks": 178176,
          "time": 185.60000000000002,
          "velocity": 0.33858267716535434
        },
        {
          "duration": 0.30000000000001137,
          "durationTicks": 288,
          "midi": 77,
          "name": "F5",
          "ticks": 178944,
          "time": 186.4,
          "velocity": 0.33858267716535434
        },
        {
          "duration": 0.30000000000001137,
          "durationTicks": 288,
          "midi": 79,
          "name": "G5",
          "ticks": 179328,
          "time": 186.8,
          "velocity": 0.33858267716535434
        },
        {
          "duration": 0.5,
          "durationTicks": 480,
          "midi": 77,
          "name": "F5",
          "ticks": 179712,
          "time": 187.20000000000002,
          "velocity": 0.33858267716535434
        },
        {
          "duration": 0.19999999999998863,
          "durationTicks": 192,
          "midi": 72,
          "name": "C5",
          "ticks": 180288,
          "time": 187.8,
          "velocity": 0.33858267716535434
        },
        {
          "duration": 0.700000000000017,
          "durationTicks": 672,
          "midi": 76,
          "name": "E5",
          "ticks": 180480,
          "time": 188,
          "velocity": 0.33858267716535434
        },
        {
          "duration": 0.6999999999999886,
          "durationTicks": 672,
          "midi": 76,
          "name": "E5",
          "ticks": 181248,
          "time": 188.8,
          "velocity": 0.33858267716535434
        },
        {
          "duration": 0.29999999999998295,
          "durationTicks": 288,
          "midi": 74,
          "name": "D5",
          "ticks": 182016,
          "time": 189.60000000000002,
          "velocity": 0.33858267716535434
        },
        {
          "duration": 0.30000000000001137,
          "durationTicks": 288,
          "midi": 72,
          "name": "C5",
          "ticks": 182400,
          "time": 190,
          "velocity": 0.33858267716535434
        },
        {
          "duration": 0.20000000000001705,
          "durationTicks": 192,
          "midi": 71,
          "name": "B4",
          "ticks": 182784,
          "time": 190.4,
          "velocity": 0.33858267716535434
        },
        {
          "duration": 0.19999999999998863,
          "durationTicks": 192,
          "midi": 68,
          "name": "G#4",
          "ticks": 182976,
          "time": 190.60000000000002,
          "velocity": 0.33858267716535434
        },
        {
          "duration": 0.19999999999998863,
          "durationTicks": 192,
          "midi": 71,
          "name": "B4",
          "ticks": 183168,
          "time": 190.8,
          "velocity": 0.33858267716535434
        },
        {
          "duration": 0.20000000000001705,
          "durationTicks": 192,
          "midi": 68,
          "name": "G#4",
          "ticks": 183360,
          "time": 191,
          "velocity": 0.33858267716535434
        },
        {
          "duration": 0.29999999999998295,
          "durationTicks": 288,
          "midi": 71,
          "name": "B4",
          "ticks": 183552,
          "time": 191.20000000000002,
          "velocity": 0.33858267716535434
        },
        {
          "duration": 0.29999999999998295,
          "durationTicks": 288,
          "midi": 74,
          "name": "D5",
          "ticks": 183936,
          "time": 191.60000000000002,
          "velocity": 0.33858267716535434
        },
        {
          "duration": 0.700000000000017,
          "durationTicks": 672,
          "midi": 76,
          "name": "E5",
          "ticks": 184320,
          "time": 192,
          "velocity": 0.33858267716535434
        },
        {
          "duration": 0.30000000000001137,
          "durationTicks": 288,
          "midi": 77,
          "name": "F5",
          "ticks": 185088,
          "time": 192.8,
          "velocity": 0.33858267716535434
        },
        {
          "duration": 0.29999999999998295,
          "durationTicks": 288,
          "midi": 79,
          "name": "G5",
          "ticks": 185472,
          "time": 193.20000000000002,
          "velocity": 0.33858267716535434
        },
        {
          "duration": 0.5,
          "durationTicks": 480,
          "midi": 80,
          "name": "G#5",
          "ticks": 185856,
          "time": 193.60000000000002,
          "velocity": 0.33858267716535434
        },
        {
          "duration": 0.19999999999998863,
          "durationTicks": 192,
          "midi": 72,
          "name": "C5",
          "ticks": 186432,
          "time": 194.20000000000002,
          "velocity": 0.33858267716535434
        },
        {
          "duration": 0.700000000000017,
          "durationTicks": 672,
          "midi": 76,
          "name": "E5",
          "ticks": 186624,
          "time": 194.4,
          "velocity": 0.33858267716535434
        },
        {
          "duration": 0.6999999999999886,
          "durationTicks": 672,
          "midi": 81,
          "name": "A5",
          "ticks": 187392,
          "time": 195.20000000000002,
          "velocity": 0.33858267716535434
        },
        {
          "duration": 0.30000000000001137,
          "durationTicks": 288,
          "midi": 74,
          "name": "D5",
          "ticks": 188160,
          "time": 196,
          "velocity": 0.33858267716535434
        },
        {
          "duration": 0.30000000000001137,
          "durationTicks": 288,
          "midi": 72,
          "name": "C5",
          "ticks": 188544,
          "time": 196.4,
          "velocity": 0.33858267716535434
        },
        {
          "duration": 0.30000000000001137,
          "durationTicks": 288,
          "midi": 80,
          "name": "G#5",
          "ticks": 188928,
          "time": 196.8,
          "velocity": 0.33858267716535434
        },
        {
          "duration": 0.19999999999998863,
          "durationTicks": 192,
          "midi": 76,
          "name": "E5",
          "ticks": 189312,
          "time": 197.20000000000002,
          "velocity": 0.33858267716535434
        },
        {
          "duration": 0.20000000000001705,
          "durationTicks": 192,
          "midi": 71,
          "name": "B4",
          "ticks": 189504,
          "time": 197.4,
          "velocity": 0.33858267716535434
        },
        {
          "duration": 0.19999999999998863,
          "durationTicks": 192,
          "midi": 71,
          "name": "B4",
          "ticks": 189696,
          "time": 197.60000000000002,
          "velocity": 0.33858267716535434
        },
        {
          "duration": 0.19999999999998863,
          "durationTicks": 192,
          "midi": 74,
          "name": "D5",
          "ticks": 189888,
          "time": 197.8,
          "velocity": 0.33858267716535434
        },
        {
          "duration": 0.30000000000001137,
          "durationTicks": 288,
          "midi": 71,
          "name": "B4",
          "ticks": 190080,
          "time": 198,
          "velocity": 0.33858267716535434
        },
        {
          "duration": 1.5,
          "durationTicks": 1440,
          "midi": 71,
          "name": "B4",
          "ticks": 190464,
          "time": 198.4,
          "velocity": 0.33858267716535434
        },
        {
          "duration": 1.5,
          "durationTicks": 1440,
          "midi": 69,
          "name": "A4",
          "ticks": 192000,
          "time": 200,
          "velocity": 0.33858267716535434
        },
        {
          "duration": 0.30000000000001137,
          "durationTicks": 288,
          "midi": 71,
          "name": "B4",
          "ticks": 194688,
          "time": 202.8,
          "velocity": 0.33858267716535434
        },
        {
          "duration": 0.6999999999999886,
          "durationTicks": 672,
          "midi": 69,
          "name": "A4",
          "ticks": 195072,
          "time": 203.20000000000002,
          "velocity": 0.33858267716535434
        },
        {
          "duration": 0.20000000000001705,
          "durationTicks": 192,
          "midi": 64,
          "name": "E4",
          "ticks": 195840,
          "time": 204,
          "velocity": 0.33858267716535434
        },
        {
          "duration": 0.20000000000001705,
          "durationTicks": 192,
          "midi": 69,
          "name": "A4",
          "ticks": 195840,
          "time": 204,
          "velocity": 0.33858267716535434
        },
        {
          "duration": 0.19999999999998863,
          "durationTicks": 192,
          "midi": 64,
          "name": "E4",
          "ticks": 196032,
          "time": 204.20000000000002,
          "velocity": 0.33858267716535434
        },
        {
          "duration": 0.19999999999998863,
          "durationTicks": 192,
          "midi": 69,
          "name": "A4",
          "ticks": 196032,
          "time": 204.20000000000002,
          "velocity": 0.33858267716535434
        },
        {
          "duration": 0.20000000000001705,
          "durationTicks": 192,
          "midi": 64,
          "name": "E4",
          "ticks": 196224,
          "time": 204.4,
          "velocity": 0.33858267716535434
        },
        {
          "duration": 0.20000000000001705,
          "durationTicks": 192,
          "midi": 69,
          "name": "A4",
          "ticks": 196224,
          "time": 204.4,
          "velocity": 0.33858267716535434
        },
        {
          "duration": 0.19999999999998863,
          "durationTicks": 192,
          "midi": 64,
          "name": "E4",
          "ticks": 196416,
          "time": 204.60000000000002,
          "velocity": 0.33858267716535434
        },
        {
          "duration": 0.19999999999998863,
          "durationTicks": 192,
          "midi": 69,
          "name": "A4",
          "ticks": 196416,
          "time": 204.60000000000002,
          "velocity": 0.33858267716535434
        },
        {
          "duration": 0.19999999999998863,
          "durationTicks": 192,
          "midi": 64,
          "name": "E4",
          "ticks": 196608,
          "time": 204.8,
          "velocity": 0.33858267716535434
        },
        {
          "duration": 0.19999999999998863,
          "durationTicks": 192,
          "midi": 68,
          "name": "G#4",
          "ticks": 196608,
          "time": 204.8,
          "velocity": 0.33858267716535434
        },
        {
          "duration": 0.20000000000001705,
          "durationTicks": 192,
          "midi": 64,
          "name": "E4",
          "ticks": 196800,
          "time": 205,
          "velocity": 0.33858267716535434
        },
        {
          "duration": 0.20000000000001705,
          "durationTicks": 192,
          "midi": 68,
          "name": "G#4",
          "ticks": 196800,
          "time": 205,
          "velocity": 0.33858267716535434
        },
        {
          "duration": 0.19999999999998863,
          "durationTicks": 192,
          "midi": 64,
          "name": "E4",
          "ticks": 196992,
          "time": 205.20000000000002,
          "velocity": 0.33858267716535434
        },
        {
          "duration": 0.19999999999998863,
          "durationTicks": 192,
          "midi": 68,
          "name": "G#4",
          "ticks": 196992,
          "time": 205.20000000000002,
          "velocity": 0.33858267716535434
        },
        {
          "duration": 0.20000000000001705,
          "durationTicks": 192,
          "midi": 64,
          "name": "E4",
          "ticks": 197184,
          "time": 205.4,
          "velocity": 0.33858267716535434
        },
        {
          "duration": 0.20000000000001705,
          "durationTicks": 192,
          "midi": 68,
          "name": "G#4",
          "ticks": 197184,
          "time": 205.4,
          "velocity": 0.33858267716535434
        },
        {
          "duration": 0.19999999999998863,
          "durationTicks": 192,
          "midi": 64,
          "name": "E4",
          "ticks": 197376,
          "time": 205.60000000000002,
          "velocity": 0.33858267716535434
        },
        {
          "duration": 0.19999999999998863,
          "durationTicks": 192,
          "midi": 68,
          "name": "G#4",
          "ticks": 197376,
          "time": 205.60000000000002,
          "velocity": 0.33858267716535434
        },
        {
          "duration": 0.19999999999998863,
          "durationTicks": 192,
          "midi": 64,
          "name": "E4",
          "ticks": 197568,
          "time": 205.8,
          "velocity": 0.33858267716535434
        },
        {
          "duration": 0.19999999999998863,
          "durationTicks": 192,
          "midi": 68,
          "name": "G#4",
          "ticks": 197568,
          "time": 205.8,
          "velocity": 0.33858267716535434
        },
        {
          "duration": 0.20000000000001705,
          "durationTicks": 192,
          "midi": 64,
          "name": "E4",
          "ticks": 197760,
          "time": 206,
          "velocity": 0.33858267716535434
        },
        {
          "duration": 0.20000000000001705,
          "durationTicks": 192,
          "midi": 68,
          "name": "G#4",
          "ticks": 197760,
          "time": 206,
          "velocity": 0.33858267716535434
        },
        {
          "duration": 0.19999999999998863,
          "durationTicks": 192,
          "midi": 64,
          "name": "E4",
          "ticks": 197952,
          "time": 206.20000000000002,
          "velocity": 0.33858267716535434
        },
        {
          "duration": 0.19999999999998863,
          "durationTicks": 192,
          "midi": 68,
          "name": "G#4",
          "ticks": 197952,
          "time": 206.20000000000002,
          "velocity": 0.33858267716535434
        },
        {
          "duration": 0.700000000000017,
          "durationTicks": 672,
          "midi": 69,
          "name": "A4",
          "ticks": 198144,
          "time": 206.4,
          "velocity": 0.33858267716535434
        },
        {
          "duration": 0.19999999999998863,
          "durationTicks": 192,
          "midi": 64,
          "name": "E4",
          "ticks": 198912,
          "time": 207.20000000000002,
          "velocity": 0.33858267716535434
        },
        {
          "duration": 0.19999999999998863,
          "durationTicks": 192,
          "midi": 69,
          "name": "A4",
          "ticks": 198912,
          "time": 207.20000000000002,
          "velocity": 0.33858267716535434
        },
        {
          "duration": 0.20000000000001705,
          "durationTicks": 192,
          "midi": 64,
          "name": "E4",
          "ticks": 199104,
          "time": 207.4,
          "velocity": 0.33858267716535434
        },
        {
          "duration": 0.20000000000001705,
          "durationTicks": 192,
          "midi": 69,
          "name": "A4",
          "ticks": 199104,
          "time": 207.4,
          "velocity": 0.33858267716535434
        },
        {
          "duration": 0.19999999999998863,
          "durationTicks": 192,
          "midi": 64,
          "name": "E4",
          "ticks": 199296,
          "time": 207.60000000000002,
          "velocity": 0.33858267716535434
        },
        {
          "duration": 0.19999999999998863,
          "durationTicks": 192,
          "midi": 69,
          "name": "A4",
          "ticks": 199296,
          "time": 207.60000000000002,
          "velocity": 0.33858267716535434
        },
        {
          "duration": 0.19999999999998863,
          "durationTicks": 192,
          "midi": 64,
          "name": "E4",
          "ticks": 199488,
          "time": 207.8,
          "velocity": 0.33858267716535434
        },
        {
          "duration": 0.19999999999998863,
          "durationTicks": 192,
          "midi": 69,
          "name": "A4",
          "ticks": 199488,
          "time": 207.8,
          "velocity": 0.33858267716535434
        },
        {
          "duration": 0.20000000000001705,
          "durationTicks": 192,
          "midi": 64,
          "name": "E4",
          "ticks": 199680,
          "time": 208,
          "velocity": 0.33858267716535434
        },
        {
          "duration": 0.20000000000001705,
          "durationTicks": 192,
          "midi": 68,
          "name": "G#4",
          "ticks": 199680,
          "time": 208,
          "velocity": 0.33858267716535434
        },
        {
          "duration": 0.19999999999998863,
          "durationTicks": 192,
          "midi": 64,
          "name": "E4",
          "ticks": 199872,
          "time": 208.20000000000002,
          "velocity": 0.33858267716535434
        },
        {
          "duration": 0.19999999999998863,
          "durationTicks": 192,
          "midi": 68,
          "name": "G#4",
          "ticks": 199872,
          "time": 208.20000000000002,
          "velocity": 0.33858267716535434
        },
        {
          "duration": 0.20000000000001705,
          "durationTicks": 192,
          "midi": 64,
          "name": "E4",
          "ticks": 200064,
          "time": 208.4,
          "velocity": 0.33858267716535434
        },
        {
          "duration": 0.20000000000001705,
          "durationTicks": 192,
          "midi": 68,
          "name": "G#4",
          "ticks": 200064,
          "time": 208.4,
          "velocity": 0.33858267716535434
        },
        {
          "duration": 0.19999999999998863,
          "durationTicks": 192,
          "midi": 64,
          "name": "E4",
          "ticks": 200256,
          "time": 208.60000000000002,
          "velocity": 0.33858267716535434
        },
        {
          "duration": 0.19999999999998863,
          "durationTicks": 192,
          "midi": 68,
          "name": "G#4",
          "ticks": 200256,
          "time": 208.60000000000002,
          "velocity": 0.33858267716535434
        },
        {
          "duration": 0.19999999999998863,
          "durationTicks": 192,
          "midi": 64,
          "name": "E4",
          "ticks": 200448,
          "time": 208.8,
          "velocity": 0.33858267716535434
        },
        {
          "duration": 0.19999999999998863,
          "durationTicks": 192,
          "midi": 68,
          "name": "G#4",
          "ticks": 200448,
          "time": 208.8,
          "velocity": 0.33858267716535434
        },
        {
          "duration": 0.20000000000001705,
          "durationTicks": 192,
          "midi": 64,
          "name": "E4",
          "ticks": 200640,
          "time": 209,
          "velocity": 0.33858267716535434
        },
        {
          "duration": 0.20000000000001705,
          "durationTicks": 192,
          "midi": 68,
          "name": "G#4",
          "ticks": 200640,
          "time": 209,
          "velocity": 0.33858267716535434
        },
        {
          "duration": 0.19999999999998863,
          "durationTicks": 192,
          "midi": 64,
          "name": "E4",
          "ticks": 200832,
          "time": 209.20000000000002,
          "velocity": 0.33858267716535434
        },
        {
          "duration": 0.19999999999998863,
          "durationTicks": 192,
          "midi": 68,
          "name": "G#4",
          "ticks": 200832,
          "time": 209.20000000000002,
          "velocity": 0.33858267716535434
        },
        {
          "duration": 0.20000000000001705,
          "durationTicks": 192,
          "midi": 64,
          "name": "E4",
          "ticks": 201024,
          "time": 209.4,
          "velocity": 0.33858267716535434
        },
        {
          "duration": 0.20000000000001705,
          "durationTicks": 192,
          "midi": 68,
          "name": "G#4",
          "ticks": 201024,
          "time": 209.4,
          "velocity": 0.33858267716535434
        },
        {
          "duration": 0.6999999999999886,
          "durationTicks": 672,
          "midi": 60,
          "name": "C4",
          "ticks": 201216,
          "time": 209.60000000000002,
          "velocity": 0.33858267716535434
        },
        {
          "duration": 0.20000000000001705,
          "durationTicks": 192,
          "midi": 64,
          "name": "E4",
          "ticks": 201984,
          "time": 210.4,
          "velocity": 0.33858267716535434
        },
        {
          "duration": 0.20000000000001705,
          "durationTicks": 192,
          "midi": 69,
          "name": "A4",
          "ticks": 201984,
          "time": 210.4,
          "velocity": 0.33858267716535434
        },
        {
          "duration": 0.19999999999998863,
          "durationTicks": 192,
          "midi": 64,
          "name": "E4",
          "ticks": 202176,
          "time": 210.60000000000002,
          "velocity": 0.33858267716535434
        },
        {
          "duration": 0.19999999999998863,
          "durationTicks": 192,
          "midi": 69,
          "name": "A4",
          "ticks": 202176,
          "time": 210.60000000000002,
          "velocity": 0.33858267716535434
        },
        {
          "duration": 0.19999999999998863,
          "durationTicks": 192,
          "midi": 64,
          "name": "E4",
          "ticks": 202368,
          "time": 210.8,
          "velocity": 0.33858267716535434
        },
        {
          "duration": 0.19999999999998863,
          "durationTicks": 192,
          "midi": 69,
          "name": "A4",
          "ticks": 202368,
          "time": 210.8,
          "velocity": 0.33858267716535434
        },
        {
          "duration": 0.20000000000001705,
          "durationTicks": 192,
          "midi": 64,
          "name": "E4",
          "ticks": 202560,
          "time": 211,
          "velocity": 0.33858267716535434
        },
        {
          "duration": 0.20000000000001705,
          "durationTicks": 192,
          "midi": 69,
          "name": "A4",
          "ticks": 202560,
          "time": 211,
          "velocity": 0.33858267716535434
        },
        {
          "duration": 0.19999999999998863,
          "durationTicks": 192,
          "midi": 64,
          "name": "E4",
          "ticks": 203136,
          "time": 211.60000000000002,
          "velocity": 0.33858267716535434
        },
        {
          "duration": 0.19999999999998863,
          "durationTicks": 192,
          "midi": 68,
          "name": "G#4",
          "ticks": 203136,
          "time": 211.60000000000002,
          "velocity": 0.33858267716535434
        },
        {
          "duration": 0.19999999999998863,
          "durationTicks": 192,
          "midi": 64,
          "name": "E4",
          "ticks": 203328,
          "time": 211.8,
          "velocity": 0.33858267716535434
        },
        {
          "duration": 0.19999999999998863,
          "durationTicks": 192,
          "midi": 68,
          "name": "G#4",
          "ticks": 203328,
          "time": 211.8,
          "velocity": 0.33858267716535434
        },
        {
          "duration": 0.20000000000001705,
          "durationTicks": 192,
          "midi": 64,
          "name": "E4",
          "ticks": 203520,
          "time": 212,
          "velocity": 0.33858267716535434
        },
        {
          "duration": 0.20000000000001705,
          "durationTicks": 192,
          "midi": 68,
          "name": "G#4",
          "ticks": 203520,
          "time": 212,
          "velocity": 0.33858267716535434
        },
        {
          "duration": 0.19999999999998863,
          "durationTicks": 192,
          "midi": 64,
          "name": "E4",
          "ticks": 203712,
          "time": 212.20000000000002,
          "velocity": 0.33858267716535434
        },
        {
          "duration": 0.19999999999998863,
          "durationTicks": 192,
          "midi": 68,
          "name": "G#4",
          "ticks": 203712,
          "time": 212.20000000000002,
          "velocity": 0.33858267716535434
        },
        {
          "duration": 0.20000000000001705,
          "durationTicks": 192,
          "midi": 64,
          "name": "E4",
          "ticks": 203904,
          "time": 212.4,
          "velocity": 0.33858267716535434
        },
        {
          "duration": 0.20000000000001705,
          "durationTicks": 192,
          "midi": 68,
          "name": "G#4",
          "ticks": 203904,
          "time": 212.4,
          "velocity": 0.33858267716535434
        },
        {
          "duration": 0.19999999999998863,
          "durationTicks": 192,
          "midi": 64,
          "name": "E4",
          "ticks": 204096,
          "time": 212.60000000000002,
          "velocity": 0.33858267716535434
        },
        {
          "duration": 0.19999999999998863,
          "durationTicks": 192,
          "midi": 68,
          "name": "G#4",
          "ticks": 204096,
          "time": 212.60000000000002,
          "velocity": 0.33858267716535434
        },
        {
          "duration": 0.6999999999999886,
          "durationTicks": 672,
          "midi": 72,
          "name": "C5",
          "ticks": 204288,
          "time": 212.8,
          "velocity": 0.33858267716535434
        },
        {
          "duration": 0.19999999999998863,
          "durationTicks": 192,
          "midi": 76,
          "name": "E5",
          "ticks": 205056,
          "time": 213.60000000000002,
          "velocity": 0.33858267716535434
        },
        {
          "duration": 0.19999999999998863,
          "durationTicks": 192,
          "midi": 81,
          "name": "A5",
          "ticks": 205056,
          "time": 213.60000000000002,
          "velocity": 0.33858267716535434
        },
        {
          "duration": 0.19999999999998863,
          "durationTicks": 192,
          "midi": 76,
          "name": "E5",
          "ticks": 205248,
          "time": 213.8,
          "velocity": 0.33858267716535434
        },
        {
          "duration": 0.19999999999998863,
          "durationTicks": 192,
          "midi": 81,
          "name": "A5",
          "ticks": 205248,
          "time": 213.8,
          "velocity": 0.33858267716535434
        },
        {
          "duration": 0.20000000000001705,
          "durationTicks": 192,
          "midi": 76,
          "name": "E5",
          "ticks": 205440,
          "time": 214,
          "velocity": 0.33858267716535434
        },
        {
          "duration": 0.20000000000001705,
          "durationTicks": 192,
          "midi": 81,
          "name": "A5",
          "ticks": 205440,
          "time": 214,
          "velocity": 0.33858267716535434
        },
        {
          "duration": 0.19999999999998863,
          "durationTicks": 192,
          "midi": 76,
          "name": "E5",
          "ticks": 205632,
          "time": 214.20000000000002,
          "velocity": 0.33858267716535434
        },
        {
          "duration": 0.19999999999998863,
          "durationTicks": 192,
          "midi": 81,
          "name": "A5",
          "ticks": 205632,
          "time": 214.20000000000002,
          "velocity": 0.33858267716535434
        },
        {
          "duration": 0.19999999999998863,
          "durationTicks": 192,
          "midi": 76,
          "name": "E5",
          "ticks": 206208,
          "time": 214.8,
          "velocity": 0.33858267716535434
        },
        {
          "duration": 0.19999999999998863,
          "durationTicks": 192,
          "midi": 80,
          "name": "G#5",
          "ticks": 206208,
          "time": 214.8,
          "velocity": 0.33858267716535434
        },
        {
          "duration": 0.20000000000001705,
          "durationTicks": 192,
          "midi": 76,
          "name": "E5",
          "ticks": 206400,
          "time": 215,
          "velocity": 0.33858267716535434
        },
        {
          "duration": 0.20000000000001705,
          "durationTicks": 192,
          "midi": 80,
          "name": "G#5",
          "ticks": 206400,
          "time": 215,
          "velocity": 0.33858267716535434
        },
        {
          "duration": 0.6999999999999886,
          "durationTicks": 672,
          "midi": 76,
          "name": "E5",
          "ticks": 206592,
          "time": 215.20000000000002,
          "velocity": 0.33858267716535434
        },
        {
          "duration": 0.6999999999999886,
          "durationTicks": 672,
          "midi": 80,
          "name": "G#5",
          "ticks": 206592,
          "time": 215.20000000000002,
          "velocity": 0.33858267716535434
        },
        {
          "duration": 1.5,
          "durationTicks": 1440,
          "midi": 69,
          "name": "A4",
          "ticks": 207360,
          "time": 216,
          "velocity": 0.33858267716535434
        }
      ],
      "endOfTrackTicks": 208800
    },
    {
      "channel": 1,
      "controlChanges": {},
      "pitchBends": [],
      "instrument": {
        "family": "strings",
        "number": 40,
        "name": "violin"
      },
      "name": "Violin",
      "notes": [
        {
          "duration": 0.29999999999999893,
          "durationTicks": 288,
          "midi": 71,
          "name": "B4",
          "ticks": 14976,
          "time": 15.600000000000001,
          "velocity": 0.6771653543307087
        },
        {
          "duration": 0.5,
          "durationTicks": 480,
          "midi": 72,
          "name": "C5",
          "ticks": 15360,
          "time": 16,
          "velocity": 0.6771653543307087
        },
        {
          "duration": 0.1999999999999993,
          "durationTicks": 192,
          "midi": 64,
          "name": "E4",
          "ticks": 15936,
          "time": 16.6,
          "velocity": 0.6771653543307087
        },
        {
          "duration": 0.1999999999999993,
          "durationTicks": 192,
          "midi": 72,
          "name": "C5",
          "ticks": 16128,
          "time": 16.8,
          "velocity": 0.6771653543307087
        },
        {
          "duration": 0.1999999999999993,
          "durationTicks": 192,
          "midi": 69,
          "name": "A4",
          "ticks": 16320,
          "time": 17,
          "velocity": 0.6771653543307087
        },
        {
          "duration": 0.3000000000000007,
          "durationTicks": 288,
          "midi": 64,
          "name": "E4",
          "ticks": 16512,
          "time": 17.2,
          "velocity": 0.6771653543307087
        },
        {
          "duration": 0.5,
          "durationTicks": 480,
          "midi": 71,
          "name": "B4",
          "ticks": 16896,
          "time": 17.6,
          "velocity": 0.6771653543307087
        },
        {
          "duration": 0.20000000000000284,
          "durationTicks": 192,
          "midi": 64,
          "name": "E4",
          "ticks": 17472,
          "time": 18.2,
          "velocity": 0.6771653543307087
        },
        {
          "duration": 0.1999999999999993,
          "durationTicks": 192,
          "midi": 71,
          "name": "B4",
          "ticks": 17664,
          "time": 18.400000000000002,
          "velocity": 0.6771653543307087
        },
        {
          "duration": 0.1999999999999993,
          "durationTicks": 192,
          "midi": 68,
          "name": "G#4",
          "ticks": 17856,
          "time": 18.6,
          "velocity": 0.6771653543307087
        },
        {
          "duration": 0.3000000000000007,
          "durationTicks": 288,
          "midi": 64,
          "name": "E4",
          "ticks": 18048,
          "time": 18.8,
          "velocity": 0.6771653543307087
        },
        {
          "duration": 0.5,
          "durationTicks": 480,
          "midi": 69,
          "name": "A4",
          "ticks": 18432,
          "time": 19.200000000000003,
          "velocity": 0.6771653543307087
        },
        {
          "duration": 0.1999999999999993,
          "durationTicks": 192,
          "midi": 64,
          "name": "E4",
          "ticks": 19008,
          "time": 19.8,
          "velocity": 0.6771653543307087
        },
        {
          "duration": 0.20000000000000284,
          "durationTicks": 192,
          "midi": 69,
          "name": "A4",
          "ticks": 19200,
          "time": 20,
          "velocity": 0.6771653543307087
        },
        {
          "duration": 0.1999999999999993,
          "durationTicks": 192,
          "midi": 64,
          "name": "E4",
          "ticks": 19392,
          "time": 20.200000000000003,
          "velocity": 0.6771653543307087
        },
        {
          "duration": 0.3000000000000007,
          "durationTicks": 288,
          "midi": 69,
          "name": "A4",
          "ticks": 19584,
          "time": 20.400000000000002,
          "velocity": 0.6771653543307087
        },
        {
          "duration": 0.3000000000000007,
          "durationTicks": 288,
          "midi": 68,
          "name": "G#4",
          "ticks": 19968,
          "time": 20.8,
          "velocity": 0.6771653543307087
        },
        {
          "duration": 0.1999999999999993,
          "durationTicks": 192,
          "midi": 64,
          "name": "E4",
          "ticks": 20352,
          "time": 21.200000000000003,
          "velocity": 0.6771653543307087
        },
        {
          "duration": 0.1999999999999993,
          "durationTicks": 192,
          "midi": 59,
          "name": "B3",
          "ticks": 20544,
          "time": 21.400000000000002,
          "velocity": 0.6771653543307087
        },
        {
          "duration": 0.1999999999999993,
          "durationTicks": 192,
          "midi": 71,
          "name": "B4",
          "ticks": 20736,
          "time": 21.6,
          "velocity": 0.6771653543307087
        },
        {
          "duration": 0.1999999999999993,
          "durationTicks": 192,
          "midi": 68,
          "name": "G#4",
          "ticks": 20928,
          "time": 21.8,
          "velocity": 0.6771653543307087
        },
        {
          "duration": 0.3000000000000007,
          "durationTicks": 288,
          "midi": 64,
          "name": "E4",
          "ticks": 21120,
          "time": 22,
          "velocity": 0.6771653543307087
        },
        {
          "duration": 0.6999999999999993,
          "durationTicks": 672,
          "midi": 72,
          "name": "C5",
          "ticks": 21504,
          "time": 22.400000000000002,
          "velocity": 0.6771653543307087
        },
        {
          "duration": 0.6999999999999993,
          "durationTicks": 672,
          "midi": 69,
          "name": "A4",
          "ticks": 22272,
          "time": 23.200000000000003,
          "velocity": 0.6771653543307087
        },
        {
          "duration": 0.7000000000000028,
          "durationTicks": 672,
          "midi": 71,
          "name": "B4",
          "ticks": 23040,
          "time": 24,
          "velocity": 0.6771653543307087
        },
        {
          "duration": 0.6999999999999993,
          "durationTicks": 672,
          "midi": 68,
          "name": "G#4",
          "ticks": 23808,
          "time": 24.8,
          "velocity": 0.6771653543307087
        },
        {
          "duration": 0.3000000000000007,
          "durationTicks": 288,
          "midi": 69,
          "name": "A4",
          "ticks": 24576,
          "time": 25.6,
          "velocity": 0.6771653543307087
        },
        {
          "duration": 0.3000000000000007,
          "durationTicks": 288,
          "midi": 72,
          "name": "C5",
          "ticks": 24960,
          "time": 26,
          "velocity": 0.6771653543307087
        },
        {
          "duration": 0.6999999999999993,
          "durationTicks": 672,
          "midi": 76,
          "name": "E5",
          "ticks": 25344,
          "time": 26.400000000000002,
          "velocity": 0.6771653543307087
        },
        {
          "duration": 0.6999999999999993,
          "durationTicks": 672,
          "midi": 74,
          "name": "D5",
          "ticks": 26112,
          "time": 27.200000000000003,
          "velocity": 0.6771653543307087
        },
        {
          "duration": 0.3000000000000007,
          "durationTicks": 288,
          "midi": 71,
          "name": "B4",
          "ticks": 27648,
          "time": 28.8,
          "velocity": 0.7874015748031497
        },
        {
          "duration": 0.1999999999999993,
          "durationTicks": 192,
          "midi": 68,
          "name": "G#4",
          "ticks": 28032,
          "time": 29.200000000000003,
          "velocity": 0.6771653543307087
        },
        {
          "duration": 0.1999999999999993,
          "durationTicks": 192,
          "midi": 69,
          "name": "A4",
          "ticks": 28224,
          "time": 29.400000000000002,
          "velocity": 0.6771653543307087
        },
        {
          "duration": 0.3000000000000007,
          "durationTicks": 288,
          "midi": 71,
          "name": "B4",
          "ticks": 28416,
          "time": 29.6,
          "velocity": 0.7874015748031497
        },
        {
          "duration": 0.20000000000000284,
          "durationTicks": 192,
          "midi": 69,
          "name": "A4",
          "ticks": 28800,
          "time": 30,
          "velocity": 0.6771653543307087
        },
        {
          "duration": 0.1999999999999993,
          "durationTicks": 192,
          "midi": 68,
          "name": "G#4",
          "ticks": 28992,
          "time": 30.200000000000003,
          "velocity": 0.6771653543307087
        },
        {
          "duration": 0.3000000000000007,
          "durationTicks": 288,
          "midi": 64,
          "name": "E4",
          "ticks": 29184,
          "time": 30.400000000000002,
          "velocity": 0.6771653543307087
        },
        {
          "duration": 0.1999999999999993,
          "durationTicks": 192,
          "midi": 64,
          "name": "E4",
          "ticks": 29568,
          "time": 30.8,
          "velocity": 0.6771653543307087
        },
        {
          "duration": 0.20000000000000284,
          "durationTicks": 192,
          "midi": 69,
          "name": "A4",
          "ticks": 29760,
          "time": 31,
          "velocity": 0.6771653543307087
        },
        {
          "duration": 0.29999999999999716,
          "durationTicks": 288,
          "midi": 72,
          "name": "C5",
          "ticks": 29952,
          "time": 31.200000000000003,
          "velocity": 0.6771653543307087
        },
        {
          "duration": 0.1999999999999993,
          "durationTicks": 192,
          "midi": 71,
          "name": "B4",
          "ticks": 30336,
          "time": 31.6,
          "velocity": 0.6771653543307087
        },
        {
          "duration": 0.1999999999999993,
          "durationTicks": 192,
          "midi": 69,
          "name": "A4",
          "ticks": 30528,
          "time": 31.8,
          "velocity": 0.6771653543307087
        },
        {
          "duration": 0.20000000000000284,
          "durationTicks": 192,
          "midi": 68,
          "name": "G#4",
          "ticks": 30720,
          "time": 32,
          "velocity": 0.6771653543307087
        },
        {
          "duration": 0.19999999999999574,
          "durationTicks": 192,
          "midi": 64,
          "name": "E4",
          "ticks": 30912,
          "time": 32.2,
          "velocity": 0.6771653543307087
        },
        {
          "duration": 0.20000000000000284,
          "durationTicks": 192,
          "midi": 68,
          "name": "G#4",
          "ticks": 31104,
          "time": 32.4,
          "velocity": 0.6771653543307087
        },
        {
          "duration": 0.10000000000000142,
          "durationTicks": 96,
          "midi": 69,
          "name": "A4",
          "ticks": 31296,
          "time": 32.6,
          "velocity": 0.6771653543307087
        },
        {
          "duration": 0.29999999999999716,
          "durationTicks": 288,
          "midi": 71,
          "name": "B4",
          "ticks": 31488,
          "time": 32.800000000000004,
          "velocity": 0.6771653543307087
        },
        {
          "duration": 0.29999999999999716,
          "durationTicks": 288,
          "midi": 72,
          "name": "C5",
          "ticks": 31872,
          "time": 33.2,
          "velocity": 0.6771653543307087
        },
        {
          "duration": 0.29999999999999716,
          "durationTicks": 288,
          "midi": 69,
          "name": "A4",
          "ticks": 32256,
          "time": 33.6,
          "velocity": 0.6771653543307087
        },
        {
          "duration": 0.30000000000000426,
          "durationTicks": 288,
          "midi": 64,
          "name": "E4",
          "ticks": 32640,
          "time": 34,
          "velocity": 0.6771653543307087
        },
        {
          "duration": 0.7000000000000028,
          "durationTicks": 672,
          "midi": 64,
          "name": "E4",
          "ticks": 33024,
          "time": 34.4,
          "velocity": 0.6771653543307087
        },
        {
          "duration": 0.4000000000000057,
          "durationTicks": 384,
          "midi": 65,
          "name": "F4",
          "ticks": 33984,
          "time": 35.4,
          "velocity": 0.6771653543307087
        },
        {
          "duration": 0.19999999999999574,
          "durationTicks": 192,
          "midi": 69,
          "name": "A4",
          "ticks": 34368,
          "time": 35.800000000000004,
          "velocity": 0.6771653543307087
        },
        {
          "duration": 0.20000000000000284,
          "durationTicks": 192,
          "midi": 72,
          "name": "C5",
          "ticks": 34560,
          "time": 36,
          "velocity": 0.6771653543307087
        },
        {
          "duration": 0.10000000000000142,
          "durationTicks": 96,
          "midi": 72,
          "name": "C5",
          "ticks": 34752,
          "time": 36.2,
          "velocity": 0.6771653543307087
        },
        {
          "duration": 0.09999999999999432,
          "durationTicks": 96,
          "midi": 72,
          "name": "C5",
          "ticks": 34848,
          "time": 36.300000000000004,
          "velocity": 0.6771653543307087
        },
        {
          "duration": 0.20000000000000284,
          "durationTicks": 192,
          "midi": 71,
          "name": "B4",
          "ticks": 34944,
          "time": 36.4,
          "velocity": 0.6771653543307087
        },
        {
          "duration": 0.20000000000000284,
          "durationTicks": 192,
          "midi": 69,
          "name": "A4",
          "ticks": 35136,
          "time": 36.6,
          "velocity": 0.6771653543307087
        },
        {
          "duration": 0.5,
          "durationTicks": 480,
          "midi": 67,
          "name": "G4",
          "ticks": 35328,
          "time": 36.800000000000004,
          "velocity": 0.6771653543307087
        },
        {
          "duration": 0.20000000000000284,
          "durationTicks": 192,
          "midi": 64,
          "name": "E4",
          "ticks": 35904,
          "time": 37.4,
          "velocity": 0.6771653543307087
        },
        {
          "duration": 0.20000000000000284,
          "durationTicks": 192,
          "midi": 67,
          "name": "G4",
          "ticks": 36096,
          "time": 37.6,
          "velocity": 0.6771653543307087
        },
        {
          "duration": 0.09999999999999432,
          "durationTicks": 96,
          "midi": 69,
          "name": "A4",
          "ticks": 36288,
          "time": 37.800000000000004,
          "velocity": 0.6771653543307087
        },
        {
          "duration": 0.10000000000000142,
          "durationTicks": 96,
          "midi": 67,
          "name": "G4",
          "ticks": 36384,
          "time": 37.9,
          "velocity": 0.6771653543307087
        },
        {
          "duration": 0.20000000000000284,
          "durationTicks": 192,
          "midi": 65,
          "name": "F4",
          "ticks": 36480,
          "time": 38,
          "velocity": 0.6771653543307087
        },
        {
          "duration": 0.20000000000000284,
          "durationTicks": 192,
          "midi": 64,
          "name": "E4",
          "ticks": 36672,
          "time": 38.2,
          "velocity": 0.6771653543307087
        },
        {
          "duration": 0.19999999999999574,
          "durationTicks": 192,
          "midi": 80,
          "name": "G#5",
          "ticks": 36864,
          "time": 38.400000000000006,
          "velocity": 0.6771653543307087
        },
        {
          "duration": 0.20000000000000284,
          "durationTicks": 192,
          "midi": 76,
          "name": "E5",
          "ticks": 37056,
          "time": 38.6,
          "velocity": 0.6771653543307087
        },
        {
          "duration": 0.19999999999999574,
          "durationTicks": 192,
          "midi": 80,
          "name": "G#5",
          "ticks": 37248,
          "time": 38.800000000000004,
          "velocity": 0.6771653543307087
        },
        {
          "duration": 0.20000000000000284,
          "durationTicks": 192,
          "midi": 81,
          "name": "A5",
          "ticks": 37440,
          "time": 39,
          "velocity": 0.6771653543307087
        },
        {
          "duration": 0.20000000000000284,
          "durationTicks": 192,
          "midi": 83,
          "name": "B5",
          "ticks": 37632,
          "time": 39.2,
          "velocity": 0.6771653543307087
        },
        {
          "duration": 0.19999999999999574,
          "durationTicks": 192,
          "midi": 80,
          "name": "G#5",
          "ticks": 37824,
          "time": 39.400000000000006,
          "velocity": 0.6771653543307087
        },
        {
          "duration": 0.20000000000000284,
          "durationTicks": 192,
          "midi": 84,
          "name": "C6",
          "ticks": 38016,
          "time": 39.6,
          "velocity": 0.6771653543307087
        },
        {
          "duration": 0.19999999999999574,
          "durationTicks": 192,
          "midi": 80,
          "name": "G#5",
          "ticks": 38208,
          "time": 39.800000000000004,
          "velocity": 0.6771653543307087
        },
        {
          "duration": 0.20000000000000284,
          "durationTicks": 192,
          "midi": 81,
          "name": "A5",
          "ticks": 38400,
          "time": 40,
          "velocity": 0.6771653543307087
        },
        {
          "duration": 0.20000000000000284,
          "durationTicks": 192,
          "midi": 76,
          "name": "E5",
          "ticks": 38592,
          "time": 40.2,
          "velocity": 0.6771653543307087
        },
        {
          "duration": 0.29999999999999716,
          "durationTicks": 288,
          "midi": 76,
          "name": "E5",
          "ticks": 38784,
          "time": 40.400000000000006,
          "velocity": 0.6771653543307087
        },
        {
          "duration": 0.29999999999999716,
          "durationTicks": 288,
          "midi": 76,
          "name": "E5",
          "ticks": 39168,
          "time": 40.800000000000004,
          "velocity": 0.6771653543307087
        },
        {
          "duration": 0.30000000000000426,
          "durationTicks": 288,
          "midi": 71,
          "name": "B4",
          "ticks": 39936,
          "time": 41.6,
          "velocity": 0.7874015748031497
        },
        {
          "duration": 0.20000000000000284,
          "durationTicks": 192,
          "midi": 68,
          "name": "G#4",
          "ticks": 40320,
          "time": 42,
          "velocity": 0.6771653543307087
        },
        {
          "duration": 0.20000000000000284,
          "durationTicks": 192,
          "midi": 69,
          "name": "A4",
          "ticks": 40512,
          "time": 42.2,
          "velocity": 0.6771653543307087
        },
        {
          "duration": 0.29999999999999716,
          "durationTicks": 288,
          "midi": 71,
          "name": "B4",
          "ticks": 40704,
          "time": 42.400000000000006,
          "velocity": 0.7874015748031497
        },
        {
          "duration": 0.19999999999999574,
          "durationTicks": 192,
          "midi": 69,
          "name": "A4",
          "ticks": 41088,
          "time": 42.800000000000004,
          "velocity": 0.6771653543307087
        },
        {
          "duration": 0.20000000000000284,
          "durationTicks": 192,
          "midi": 68,
          "name": "G#4",
          "ticks": 41280,
          "time": 43,
          "velocity": 0.6771653543307087
        },
        {
          "duration": 0.29999999999999716,
          "durationTicks": 288,
          "midi": 64,
          "name": "E4",
          "ticks": 41472,
          "time": 43.2,
          "velocity": 0.7874015748031497
        },
        {
          "duration": 0.20000000000000284,
          "durationTicks": 192,
          "midi": 64,
          "name": "E4",
          "ticks": 41856,
          "time": 43.6,
          "velocity": 0.6771653543307087
        },
        {
          "duration": 0.19999999999999574,
          "durationTicks": 192,
          "midi": 69,
          "name": "A4",
          "ticks": 42048,
          "time": 43.800000000000004,
          "velocity": 0.6771653543307087
        },
        {
          "duration": 0.30000000000000426,
          "durationTicks": 288,
          "midi": 72,
          "name": "C5",
          "ticks": 42240,
          "time": 44,
          "velocity": 0.6771653543307087
        },
        {
          "duration": 0.19999999999999574,
          "durationTicks": 192,
          "midi": 71,
          "name": "B4",
          "ticks": 42624,
          "time": 44.400000000000006,
          "velocity": 0.6771653543307087
        },
        {
          "duration": 0.20000000000000284,
          "durationTicks": 192,
          "midi": 69,
          "name": "A4",
          "ticks": 42816,
          "time": 44.6,
          "velocity": 0.6771653543307087
        },
        {
          "duration": 0.19999999999999574,
          "durationTicks": 192,
          "midi": 68,
          "name": "G#4",
          "ticks": 43008,
          "time": 44.800000000000004,
          "velocity": 0.6771653543307087
        },
        {
          "duration": 0.20000000000000284,
          "durationTicks": 192,
          "midi": 64,
          "name": "E4",
          "ticks": 43200,
          "time": 45,
          "velocity": 0.6771653543307087
        },
        {
          "duration": 0.20000000000000284,
          "durationTicks": 192,
          "midi": 68,
          "name": "G#4",
          "ticks": 43392,
          "time": 45.2,
          "velocity": 0.6771653543307087
        },
        {
          "duration": 0.19999999999999574,
          "durationTicks": 192,
          "midi": 69,
          "name": "A4",
          "ticks": 43584,
          "time": 45.400000000000006,
          "velocity": 0.6771653543307087
        },
        {
          "duration": 0.30000000000000426,
          "durationTicks": 288,
          "midi": 71,
          "name": "B4",
          "ticks": 43776,
          "time": 45.6,
          "velocity": 0.6771653543307087
        },
        {
          "duration": 0.30000000000000426,
          "durationTicks": 288,
          "midi": 72,
          "name": "C5",
          "ticks": 44160,
          "time": 46,
          "velocity": 0.6771653543307087
        },
        {
          "duration": 0.29999999999999716,
          "durationTicks": 288,
          "midi": 69,
          "name": "A4",
          "ticks": 44544,
          "time": 46.400000000000006,
          "velocity": 0.6771653543307087
        },
        {
          "duration": 0.29999999999999716,
          "durationTicks": 288,
          "midi": 64,
          "name": "E4",
          "ticks": 44928,
          "time": 46.800000000000004,
          "velocity": 0.6771653543307087
        },
        {
          "duration": 0.7000000000000028,
          "durationTicks": 672,
          "midi": 64,
          "name": "E4",
          "ticks": 45312,
          "time": 47.2,
          "velocity": 0.6771653543307087
        },
        {
          "duration": 0.3999999999999986,
          "durationTicks": 384,
          "midi": 65,
          "name": "F4",
          "ticks": 46272,
          "time": 48.2,
          "velocity": 0.6771653543307087
        },
        {
          "duration": 0.20000000000000284,
          "durationTicks": 192,
          "midi": 69,
          "name": "A4",
          "ticks": 46656,
          "time": 48.6,
          "velocity": 0.6771653543307087
        },
        {
          "duration": 0.19999999999999574,
          "durationTicks": 192,
          "midi": 72,
          "name": "C5",
          "ticks": 46848,
          "time": 48.800000000000004,
          "velocity": 0.6771653543307087
        },
        {
          "duration": 0.10000000000000142,
          "durationTicks": 96,
          "midi": 72,
          "name": "C5",
          "ticks": 47040,
          "time": 49,
          "velocity": 0.6771653543307087
        },
        {
          "duration": 0.10000000000000142,
          "durationTicks": 96,
          "midi": 72,
          "name": "C5",
          "ticks": 47136,
          "time": 49.1,
          "velocity": 0.6771653543307087
        },
        {
          "duration": 0.20000000000000284,
          "durationTicks": 192,
          "midi": 71,
          "name": "B4",
          "ticks": 47232,
          "time": 49.2,
          "velocity": 0.6771653543307087
        },
        {
          "duration": 0.19999999999999574,
          "durationTicks": 192,
          "midi": 69,
          "name": "A4",
          "ticks": 47424,
          "time": 49.400000000000006,
          "velocity": 0.6771653543307087
        },
        {
          "duration": 0.5,
          "durationTicks": 480,
          "midi": 67,
          "name": "G4",
          "ticks": 47616,
          "time": 49.6,
          "velocity": 0.6771653543307087
        },
        {
          "duration": 0.20000000000000284,
          "durationTicks": 192,
          "midi": 64,
          "name": "E4",
          "ticks": 48192,
          "time": 50.2,
          "velocity": 0.6771653543307087
        },
        {
          "duration": 0.19999999999999574,
          "durationTicks": 192,
          "midi": 67,
          "name": "G4",
          "ticks": 48384,
          "time": 50.400000000000006,
          "velocity": 0.6771653543307087
        },
        {
          "duration": 0.10000000000000142,
          "durationTicks": 96,
          "midi": 69,
          "name": "A4",
          "ticks": 48576,
          "time": 50.6,
          "velocity": 0.6771653543307087
        },
        {
          "duration": 0.10000000000000142,
          "durationTicks": 96,
          "midi": 67,
          "name": "G4",
          "ticks": 48672,
          "time": 50.7,
          "velocity": 0.6771653543307087
        },
        {
          "duration": 0.19999999999999574,
          "durationTicks": 192,
          "midi": 65,
          "name": "F4",
          "ticks": 48768,
          "time": 50.800000000000004,
          "velocity": 0.6771653543307087
        },
        {
          "duration": 0.20000000000000284,
          "durationTicks": 192,
          "midi": 64,
          "name": "E4",
          "ticks": 48960,
          "time": 51,
          "velocity": 0.6771653543307087
        },
        {
          "duration": 0.20000000000000284,
          "durationTicks": 192,
          "midi": 68,
          "name": "G#4",
          "ticks": 49152,
          "time": 51.2,
          "velocity": 0.6771653543307087
        },
        {
          "duration": 0.19999999999999574,
          "durationTicks": 192,
          "midi": 64,
          "name": "E4",
          "ticks": 49344,
          "time": 51.400000000000006,
          "velocity": 0.6771653543307087
        },
        {
          "duration": 0.20000000000000284,
          "durationTicks": 192,
          "midi": 68,
          "name": "G#4",
          "ticks": 49536,
          "time": 51.6,
          "velocity": 0.6771653543307087
        },
        {
          "duration": 0.19999999999999574,
          "durationTicks": 192,
          "midi": 69,
          "name": "A4",
          "ticks": 49728,
          "time": 51.800000000000004,
          "velocity": 0.6771653543307087
        },
        {
          "duration": 0.20000000000000284,
          "durationTicks": 192,
          "midi": 71,
          "name": "B4",
          "ticks": 49920,
          "time": 52,
          "velocity": 0.6771653543307087
        },
        {
          "duration": 0.20000000000000284,
          "durationTicks": 192,
          "midi": 68,
          "name": "G#4",
          "ticks": 50112,
          "time": 52.2,
          "velocity": 0.6771653543307087
        },
        {
          "duration": 0.19999999999999574,
          "durationTicks": 192,
          "midi": 72,
          "name": "C5",
          "ticks": 50304,
          "time": 52.400000000000006,
          "velocity": 0.6771653543307087
        },
        {
          "duration": 0.20000000000000284,
          "durationTicks": 192,
          "midi": 68,
          "name": "G#4",
          "ticks": 50496,
          "time": 52.6,
          "velocity": 0.6771653543307087
        },
        {
          "duration": 0.19999999999999574,
          "durationTicks": 192,
          "midi": 69,
          "name": "A4",
          "ticks": 50688,
          "time": 52.800000000000004,
          "velocity": 0.6771653543307087
        },
        {
          "duration": 0.20000000000000284,
          "durationTicks": 192,
          "midi": 64,
          "name": "E4",
          "ticks": 50880,
          "time": 53,
          "velocity": 0.6771653543307087
        },
        {
          "duration": 0.29999999999999716,
          "durationTicks": 288,
          "midi": 64,
          "name": "E4",
          "ticks": 51072,
          "time": 53.2,
          "velocity": 0.6771653543307087
        },
        {
          "duration": 0.30000000000000426,
          "durationTicks": 288,
          "midi": 64,
          "name": "E4",
          "ticks": 51456,
          "time": 53.6,
          "velocity": 0.6771653543307087
        },
        {
          "duration": 0.6999999999999957,
          "durationTicks": 672,
          "midi": 69,
          "name": "A4",
          "ticks": 52224,
          "time": 54.400000000000006,
          "velocity": 0.6771653543307087
        },
        {
          "duration": 0.20000000000000284,
          "durationTicks": 192,
          "midi": 64,
          "name": "E4",
          "ticks": 52992,
          "time": 55.2,
          "velocity": 0.6771653543307087
        },
        {
          "duration": 0.20000000000000284,
          "durationTicks": 192,
          "midi": 69,
          "name": "A4",
          "ticks": 52992,
          "time": 55.2,
          "velocity": 0.6771653543307087
        },
        {
          "duration": 0.19999999999999574,
          "durationTicks": 192,
          "midi": 64,
          "name": "E4",
          "ticks": 53184,
          "time": 55.400000000000006,
          "velocity": 0.6771653543307087
        },
        {
          "duration": 0.19999999999999574,
          "durationTicks": 192,
          "midi": 69,
          "name": "A4",
          "ticks": 53184,
          "time": 55.400000000000006,
          "velocity": 0.6771653543307087
        },
        {
          "duration": 0.20000000000000284,
          "durationTicks": 192,
          "midi": 64,
          "name": "E4",
          "ticks": 53376,
          "time": 55.6,
          "velocity": 0.6771653543307087
        },
        {
          "duration": 0.20000000000000284,
          "durationTicks": 192,
          "midi": 69,
          "name": "A4",
          "ticks": 53376,
          "time": 55.6,
          "velocity": 0.6771653543307087
        },
        {
          "duration": 0.19999999999999574,
          "durationTicks": 192,
          "midi": 64,
          "name": "E4",
          "ticks": 53568,
          "time": 55.800000000000004,
          "velocity": 0.6771653543307087
        },
        {
          "duration": 0.19999999999999574,
          "durationTicks": 192,
          "midi": 69,
          "name": "A4",
          "ticks": 53568,
          "time": 55.800000000000004,
          "velocity": 0.6771653543307087
        },
        {
          "duration": 0.20000000000000284,
          "durationTicks": 192,
          "midi": 64,
          "name": "E4",
          "ticks": 53760,
          "time": 56,
          "velocity": 0.6771653543307087
        },
        {
          "duration": 0.20000000000000284,
          "durationTicks": 192,
          "midi": 68,
          "name": "G#4",
          "ticks": 53760,
          "time": 56,
          "velocity": 0.6771653543307087
        },
        {
          "duration": 0.20000000000000284,
          "durationTicks": 192,
          "midi": 64,
          "name": "E4",
          "ticks": 53952,
          "time": 56.2,
          "velocity": 0.6771653543307087
        },
        {
          "duration": 0.20000000000000284,
          "durationTicks": 192,
          "midi": 68,
          "name": "G#4",
          "ticks": 53952,
          "time": 56.2,
          "velocity": 0.6771653543307087
        },
        {
          "duration": 0.19999999999999574,
          "durationTicks": 192,
          "midi": 64,
          "name": "E4",
          "ticks": 54144,
          "time": 56.400000000000006,
          "velocity": 0.6771653543307087
        },
        {
          "duration": 0.19999999999999574,
          "durationTicks": 192,
          "midi": 68,
          "name": "G#4",
          "ticks": 54144,
          "time": 56.400000000000006,
          "velocity": 0.6771653543307087
        },
        {
          "duration": 0.20000000000000284,
          "durationTicks": 192,
          "midi": 64,
          "name": "E4",
          "ticks": 54336,
          "time": 56.6,
          "velocity": 0.6771653543307087
        },
        {
          "duration": 0.20000000000000284,
          "durationTicks": 192,
          "midi": 68,
          "name": "G#4",
          "ticks": 54336,
          "time": 56.6,
          "velocity": 0.6771653543307087
        },
        {
          "duration": 0.6999999999999957,
          "durationTicks": 672,
          "midi": 64,
          "name": "E4",
          "ticks": 54528,
          "time": 56.800000000000004,
          "velocity": 0.6771653543307087
        },
        {
          "duration": 0.6999999999999957,
          "durationTicks": 672,
          "midi": 68,
          "name": "G#4",
          "ticks": 54528,
          "time": 56.800000000000004,
          "velocity": 0.6771653543307087
        },
        {
          "duration": 0.7000000000000028,
          "durationTicks": 672,
          "midi": 69,
          "name": "A4",
          "ticks": 55296,
          "time": 57.6,
          "velocity": 0.6771653543307087
        },
        {
          "duration": 0.19999999999999574,
          "durationTicks": 192,
          "midi": 64,
          "name": "E4",
          "ticks": 56064,
          "time": 58.400000000000006,
          "velocity": 0.6771653543307087
        },
        {
          "duration": 0.19999999999999574,
          "durationTicks": 192,
          "midi": 69,
          "name": "A4",
          "ticks": 56064,
          "time": 58.400000000000006,
          "velocity": 0.6771653543307087
        },
        {
          "duration": 0.20000000000000284,
          "durationTicks": 192,
          "midi": 64,
          "name": "E4",
          "ticks": 56256,
          "time": 58.6,
          "velocity": 0.6771653543307087
        },
        {
          "duration": 0.20000000000000284,
          "durationTicks": 192,
          "midi": 69,
          "name": "A4",
          "ticks": 56256,
          "time": 58.6,
          "velocity": 0.6771653543307087
        },
        {
          "duration": 0.19999999999999574,
          "durationTicks": 192,
          "midi": 64,
          "name": "E4",
          "ticks": 56448,
          "time": 58.800000000000004,
          "velocity": 0.6771653543307087
        },
        {
          "duration": 0.19999999999999574,
          "durationTicks": 192,
          "midi": 69,
          "name": "A4",
          "ticks": 56448,
          "time": 58.800000000000004,
          "velocity": 0.6771653543307087
        },
        {
          "duration": 0.20000000000000284,
          "durationTicks": 192,
          "midi": 64,
          "name": "E4",
          "ticks": 56640,
          "time": 59,
          "velocity": 0.6771653543307087
        },
        {
          "duration": 0.20000000000000284,
          "durationTicks": 192,
          "midi": 69,
          "name": "A4",
          "ticks": 56640,
          "time": 59,
          "velocity": 0.6771653543307087
        },
        {
          "duration": 0.20000000000000284,
          "durationTicks": 192,
          "midi": 64,
          "name": "E4",
          "ticks": 56832,
          "time": 59.2,
          "velocity": 0.6771653543307087
        },
        {
          "duration": 0.20000000000000284,
          "durationTicks": 192,
          "midi": 68,
          "name": "G#4",
          "ticks": 56832,
          "time": 59.2,
          "velocity": 0.6771653543307087
        },
        {
          "duration": 0.19999999999999574,
          "durationTicks": 192,
          "midi": 64,
          "name": "E4",
          "ticks": 57024,
          "time": 59.400000000000006,
          "velocity": 0.6771653543307087
        },
        {
          "duration": 0.19999999999999574,
          "durationTicks": 192,
          "midi": 68,
          "name": "G#4",
          "ticks": 57024,
          "time": 59.400000000000006,
          "velocity": 0.6771653543307087
        },
        {
          "duration": 0.20000000000000284,
          "durationTicks": 192,
          "midi": 64,
          "name": "E4",
          "ticks": 57216,
          "time": 59.6,
          "velocity": 0.6771653543307087
        },
        {
          "duration": 0.20000000000000284,
          "durationTicks": 192,
          "midi": 68,
          "name": "G#4",
          "ticks": 57216,
          "time": 59.6,
          "velocity": 0.6771653543307087
        },
        {
          "duration": 0.19999999999999574,
          "durationTicks": 192,
          "midi": 64,
          "name": "E4",
          "ticks": 57408,
          "time": 59.800000000000004,
          "velocity": 0.6771653543307087
        },
        {
          "duration": 0.19999999999999574,
          "durationTicks": 192,
          "midi": 68,
          "name": "G#4",
          "ticks": 57408,
          "time": 59.800000000000004,
          "velocity": 0.6771653543307087
        },
        {
          "duration": 0.7000000000000028,
          "durationTicks": 672,
          "midi": 64,
          "name": "E4",
          "ticks": 57600,
          "time": 60,
          "velocity": 0.6771653543307087
        },
        {
          "duration": 0.7000000000000028,
          "durationTicks": 672,
          "midi": 68,
          "name": "G#4",
          "ticks": 57600,
          "time": 60,
          "velocity": 0.6771653543307087
        },
        {
          "duration": 0.6999999999999957,
          "durationTicks": 672,
          "midi": 60,
          "name": "C4",
          "ticks": 58368,
          "time": 60.800000000000004,
          "velocity": 0.6771653543307087
        },
        {
          "duration": 0.20000000000000284,
          "durationTicks": 192,
          "midi": 64,
          "name": "E4",
          "ticks": 59136,
          "time": 61.6,
          "velocity": 0.6771653543307087
        },
        {
          "duration": 0.20000000000000284,
          "durationTicks": 192,
          "midi": 69,
          "name": "A4",
          "ticks": 59136,
          "time": 61.6,
          "velocity": 0.6771653543307087
        },
        {
          "duration": 0.19999999999999574,
          "durationTicks": 192,
          "midi": 64,
          "name": "E4",
          "ticks": 59328,
          "time": 61.800000000000004,
          "velocity": 0.6771653543307087
        },
        {
          "duration": 0.19999999999999574,
          "durationTicks": 192,
          "midi": 69,
          "name": "A4",
          "ticks": 59328,
          "time": 61.800000000000004,
          "velocity": 0.6771653543307087
        },
        {
          "duration": 0.20000000000000284,
          "durationTicks": 192,
          "midi": 64,
          "name": "E4",
          "ticks": 59520,
          "time": 62,
          "velocity": 0.6771653543307087
        },
        {
          "duration": 0.20000000000000284,
          "durationTicks": 192,
          "midi": 69,
          "name": "A4",
          "ticks": 59520,
          "time": 62,
          "velocity": 0.6771653543307087
        },
        {
          "duration": 0.20000000000000284,
          "durationTicks": 192,
          "midi": 64,
          "name": "E4",
          "ticks": 59712,
          "time": 62.2,
          "velocity": 0.6771653543307087
        },
        {
          "duration": 0.20000000000000284,
          "durationTicks": 192,
          "midi": 69,
          "name": "A4",
          "ticks": 59712,
          "time": 62.2,
          "velocity": 0.6771653543307087
        },
        {
          "duration": 0.19999999999999574,
          "durationTicks": 192,
          "midi": 64,
          "name": "E4",
          "ticks": 60288,
          "time": 62.800000000000004,
          "velocity": 0.6771653543307087
        },
        {
          "duration": 0.19999999999999574,
          "durationTicks": 192,
          "midi": 68,
          "name": "G#4",
          "ticks": 60288,
          "time": 62.800000000000004,
          "velocity": 0.6771653543307087
        },
        {
          "duration": 0.20000000000000284,
          "durationTicks": 192,
          "midi": 64,
          "name": "E4",
          "ticks": 60480,
          "time": 63,
          "velocity": 0.6771653543307087
        },
        {
          "duration": 0.20000000000000284,
          "durationTicks": 192,
          "midi": 68,
          "name": "G#4",
          "ticks": 60480,
          "time": 63,
          "velocity": 0.6771653543307087
        },
        {
          "duration": 0.20000000000000284,
          "durationTicks": 192,
          "midi": 64,
          "name": "E4",
          "ticks": 60672,
          "time": 63.2,
          "velocity": 0.6771653543307087
        },
        {
          "duration": 0.20000000000000284,
          "durationTicks": 192,
          "midi": 68,
          "name": "G#4",
          "ticks": 60672,
          "time": 63.2,
          "velocity": 0.6771653543307087
        },
        {
          "duration": 0.19999999999999574,
          "durationTicks": 192,
          "midi": 64,
          "name": "E4",
          "ticks": 60864,
          "time": 63.400000000000006,
          "velocity": 0.6771653543307087
        },
        {
          "duration": 0.19999999999999574,
          "durationTicks": 192,
          "midi": 68,
          "name": "G#4",
          "ticks": 60864,
          "time": 63.400000000000006,
          "velocity": 0.6771653543307087
        },
        {
          "duration": 0.20000000000000284,
          "durationTicks": 192,
          "midi": 64,
          "name": "E4",
          "ticks": 61056,
          "time": 63.6,
          "velocity": 0.6771653543307087
        },
        {
          "duration": 0.20000000000000284,
          "durationTicks": 192,
          "midi": 68,
          "name": "G#4",
          "ticks": 61056,
          "time": 63.6,
          "velocity": 0.6771653543307087
        },
        {
          "duration": 0.19999999999999574,
          "durationTicks": 192,
          "midi": 64,
          "name": "E4",
          "ticks": 61248,
          "time": 63.800000000000004,
          "velocity": 0.6771653543307087
        },
        {
          "duration": 0.19999999999999574,
          "durationTicks": 192,
          "midi": 68,
          "name": "G#4",
          "ticks": 61248,
          "time": 63.800000000000004,
          "velocity": 0.6771653543307087
        },
        {
          "duration": 0.7000000000000028,
          "durationTicks": 672,
          "midi": 60,
          "name": "C4",
          "ticks": 61440,
          "time": 64,
          "velocity": 0.6771653543307087
        },
        {
          "duration": 0.20000000000000284,
          "durationTicks": 192,
          "midi": 64,
          "name": "E4",
          "ticks": 62208,
          "time": 64.8,
          "velocity": 0.6771653543307087
        },
        {
          "duration": 0.20000000000000284,
          "durationTicks": 192,
          "midi": 69,
          "name": "A4",
          "ticks": 62208,
          "time": 64.8,
          "velocity": 0.6771653543307087
        },
        {
          "duration": 0.20000000000000284,
          "durationTicks": 192,
          "midi": 64,
          "name": "E4",
          "ticks": 62400,
          "time": 65,
          "velocity": 0.6771653543307087
        },
        {
          "duration": 0.20000000000000284,
          "durationTicks": 192,
          "midi": 69,
          "name": "A4",
          "ticks": 62400,
          "time": 65,
          "velocity": 0.6771653543307087
        },
        {
          "duration": 0.20000000000000284,
          "durationTicks": 192,
          "midi": 64,
          "name": "E4",
          "ticks": 62592,
          "time": 65.2,
          "velocity": 0.6771653543307087
        },
        {
          "duration": 0.20000000000000284,
          "durationTicks": 192,
          "midi": 69,
          "name": "A4",
          "ticks": 62592,
          "time": 65.2,
          "velocity": 0.6771653543307087
        },
        {
          "duration": 0.20000000000000284,
          "durationTicks": 192,
          "midi": 64,
          "name": "E4",
          "ticks": 62784,
          "time": 65.4,
          "velocity": 0.6771653543307087
        },
        {
          "duration": 0.20000000000000284,
          "durationTicks": 192,
          "midi": 69,
          "name": "A4",
          "ticks": 62784,
          "time": 65.4,
          "velocity": 0.6771653543307087
        },
        {
          "duration": 0.20000000000000284,
          "durationTicks": 192,
          "midi": 64,
          "name": "E4",
          "ticks": 63360,
          "time": 66,
          "velocity": 0.6771653543307087
        },
        {
          "duration": 0.20000000000000284,
          "durationTicks": 192,
          "midi": 68,
          "name": "G#4",
          "ticks": 63360,
          "time": 66,
          "velocity": 0.6771653543307087
        },
        {
          "duration": 0.20000000000000284,
          "durationTicks": 192,
          "midi": 64,
          "name": "E4",
          "ticks": 63552,
          "time": 66.2,
          "velocity": 0.6771653543307087
        },
        {
          "duration": 0.20000000000000284,
          "durationTicks": 192,
          "midi": 68,
          "name": "G#4",
          "ticks": 63552,
          "time": 66.2,
          "velocity": 0.6771653543307087
        },
        {
          "duration": 0.7000000000000028,
          "durationTicks": 672,
          "midi": 64,
          "name": "E4",
          "ticks": 63744,
          "time": 66.4,
          "velocity": 0.6771653543307087
        },
        {
          "duration": 0.7000000000000028,
          "durationTicks": 672,
          "midi": 68,
          "name": "G#4",
          "ticks": 63744,
          "time": 66.4,
          "velocity": 0.6771653543307087
        },
        {
          "duration": 0.29999999999999716,
          "durationTicks": 288,
          "midi": 71,
          "name": "B4",
          "ticks": 64512,
          "time": 67.2,
          "velocity": 0.7874015748031497
        },
        {
          "duration": 0.19999999999998863,
          "durationTicks": 192,
          "midi": 68,
          "name": "G#4",
          "ticks": 64896,
          "time": 67.60000000000001,
          "velocity": 0.6771653543307087
        },
        {
          "duration": 0.20000000000000284,
          "durationTicks": 192,
          "midi": 69,
          "name": "A4",
          "ticks": 65088,
          "time": 67.8,
          "velocity": 0.6771653543307087
        },
        {
          "duration": 0.29999999999999716,
          "durationTicks": 288,
          "midi": 71,
          "name": "B4",
          "ticks": 65280,
          "time": 68,
          "velocity": 0.7874015748031497
        },
        {
          "duration": 0.20000000000000284,
          "durationTicks": 192,
          "midi": 68,
          "name": "G#4",
          "ticks": 65664,
          "time": 68.4,
          "velocity": 0.6771653543307087
        },
        {
          "duration": 0.19999999999998863,
          "durationTicks": 192,
          "midi": 69,
          "name": "A4",
          "ticks": 65856,
          "time": 68.60000000000001,
          "velocity": 0.6771653543307087
        },
        {
          "duration": 0.30000000000001137,
          "durationTicks": 288,
          "midi": 64,
          "name": "E4",
          "ticks": 66048,
          "time": 68.8,
          "velocity": 0.6771653543307087
        },
        {
          "duration": 0.20000000000000284,
          "durationTicks": 192,
          "midi": 64,
          "name": "E4",
          "ticks": 66432,
          "time": 69.2,
          "velocity": 0.6771653543307087
        },
        {
          "duration": 0.20000000000000284,
          "durationTicks": 192,
          "midi": 69,
          "name": "A4",
          "ticks": 66624,
          "time": 69.4,
          "velocity": 0.6771653543307087
        },
        {
          "duration": 0.29999999999999716,
          "durationTicks": 288,
          "midi": 72,
          "name": "C5",
          "ticks": 66816,
          "time": 69.60000000000001,
          "velocity": 0.6771653543307087
        },
        {
          "duration": 0.20000000000000284,
          "durationTicks": 192,
          "midi": 64,
          "name": "E4",
          "ticks": 67200,
          "time": 70,
          "velocity": 0.6771653543307087
        },
        {
          "duration": 0.20000000000000284,
          "durationTicks": 192,
          "midi": 69,
          "name": "A4",
          "ticks": 67392,
          "time": 70.2,
          "velocity": 0.6771653543307087
        },
        {
          "duration": 0.20000000000000284,
          "durationTicks": 192,
          "midi": 68,
          "name": "G#4",
          "ticks": 67584,
          "time": 70.4,
          "velocity": 0.7874015748031497
        },
        {
          "duration": 0.19999999999998863,
          "durationTicks": 192,
          "midi": 64,
          "name": "E4",
          "ticks": 67776,
          "time": 70.60000000000001,
          "velocity": 0.7874015748031497
        },
        {
          "duration": 0.20000000000000284,
          "durationTicks": 192,
          "midi": 68,
          "name": "G#4",
          "ticks": 67968,
          "time": 70.8,
          "velocity": 0.7874015748031497
        },
        {
          "duration": 0.20000000000000284,
          "durationTicks": 192,
          "midi": 69,
          "name": "A4",
          "ticks": 68160,
          "time": 71,
          "velocity": 0.7874015748031497
        },
        {
          "duration": 0.29999999999999716,
          "durationTicks": 288,
          "midi": 68,
          "name": "G#4",
          "ticks": 68352,
          "time": 71.2,
          "velocity": 0.7874015748031497
        },
        {
          "duration": 0.29999999999999716,
          "durationTicks": 288,
          "midi": 72,
          "name": "C5",
          "ticks": 68736,
          "time": 71.60000000000001,
          "velocity": 0.7874015748031497
        },
        {
          "duration": 0.29999999999999716,
          "durationTicks": 288,
          "midi": 64,
          "name": "E4",
          "ticks": 69120,
          "time": 72,
          "velocity": 0.6771653543307087
        },
        {
          "duration": 0.29999999999999716,
          "durationTicks": 288,
          "midi": 69,
          "name": "A4",
          "ticks": 69504,
          "time": 72.4,
          "velocity": 0.6771653543307087
        },
        {
          "duration": 0.7000000000000028,
          "durationTicks": 672,
          "midi": 64,
          "name": "E4",
          "ticks": 69888,
          "time": 72.8,
          "velocity": 0.6771653543307087
        },
        {
          "duration": 0.4000000000000057,
          "durationTicks": 384,
          "midi": 65,
          "name": "F4",
          "ticks": 70848,
          "time": 73.8,
          "velocity": 0.6771653543307087
        },
        {
          "duration": 0.20000000000000284,
          "durationTicks": 192,
          "midi": 65,
          "name": "F4",
          "ticks": 71232,
          "time": 74.2,
          "velocity": 0.6771653543307087
        },
        {
          "duration": 0.20000000000000284,
          "durationTicks": 192,
          "midi": 69,
          "name": "A4",
          "ticks": 71232,
          "time": 74.2,
          "velocity": 0.6771653543307087
        },
        {
          "duration": 0.20000000000000284,
          "durationTicks": 192,
          "midi": 65,
          "name": "F4",
          "ticks": 71424,
          "time": 74.4,
          "velocity": 0.6771653543307087
        },
        {
          "duration": 0.20000000000000284,
          "durationTicks": 192,
          "midi": 72,
          "name": "C5",
          "ticks": 71424,
          "time": 74.4,
          "velocity": 0.6771653543307087
        },
        {
          "duration": 0.09999999999999432,
          "durationTicks": 96,
          "midi": 65,
          "name": "F4",
          "ticks": 71616,
          "time": 74.60000000000001,
          "velocity": 0.6771653543307087
        },
        {
          "duration": 0.09999999999999432,
          "durationTicks": 96,
          "midi": 72,
          "name": "C5",
          "ticks": 71616,
          "time": 74.60000000000001,
          "velocity": 0.6771653543307087
        },
        {
          "duration": 0.09999999999999432,
          "durationTicks": 96,
          "midi": 65,
          "name": "F4",
          "ticks": 71712,
          "time": 74.7,
          "velocity": 0.6771653543307087
        },
        {
          "duration": 0.09999999999999432,
          "durationTicks": 96,
          "midi": 72,
          "name": "C5",
          "ticks": 71712,
          "time": 74.7,
          "velocity": 0.6771653543307087
        },
        {
          "duration": 0.20000000000000284,
          "durationTicks": 192,
          "midi": 64,
          "name": "E4",
          "ticks": 71808,
          "time": 74.8,
          "velocity": 0.6771653543307087
        },
        {
          "duration": 0.20000000000000284,
          "durationTicks": 192,
          "midi": 71,
          "name": "B4",
          "ticks": 71808,
          "time": 74.8,
          "velocity": 0.6771653543307087
        },
        {
          "duration": 0.20000000000000284,
          "durationTicks": 192,
          "midi": 62,
          "name": "D4",
          "ticks": 72000,
          "time": 75,
          "velocity": 0.6771653543307087
        },
        {
          "duration": 0.20000000000000284,
          "durationTicks": 192,
          "midi": 69,
          "name": "A4",
          "ticks": 72000,
          "time": 75,
          "velocity": 0.6771653543307087
        },
        {
          "duration": 0.5,
          "durationTicks": 480,
          "midi": 60,
          "name": "C4",
          "ticks": 72192,
          "time": 75.2,
          "velocity": 0.6771653543307087
        },
        {
          "duration": 0.5,
          "durationTicks": 480,
          "midi": 67,
          "name": "G4",
          "ticks": 72192,
          "time": 75.2,
          "velocity": 0.6771653543307087
        },
        {
          "duration": 0.20000000000000284,
          "durationTicks": 192,
          "midi": 64,
          "name": "E4",
          "ticks": 72768,
          "time": 75.8,
          "velocity": 0.6771653543307087
        },
        {
          "duration": 0.20000000000000284,
          "durationTicks": 192,
          "midi": 67,
          "name": "G4",
          "ticks": 72960,
          "time": 76,
          "velocity": 0.6771653543307087
        },
        {
          "duration": 0.09999999999999432,
          "durationTicks": 96,
          "midi": 69,
          "name": "A4",
          "ticks": 73152,
          "time": 76.2,
          "velocity": 0.6771653543307087
        },
        {
          "duration": 0.10000000000000853,
          "durationTicks": 96,
          "midi": 67,
          "name": "G4",
          "ticks": 73248,
          "time": 76.3,
          "velocity": 0.6771653543307087
        },
        {
          "duration": 0.20000000000000284,
          "durationTicks": 192,
          "midi": 65,
          "name": "F4",
          "ticks": 73344,
          "time": 76.4,
          "velocity": 0.6771653543307087
        },
        {
          "duration": 0.20000000000000284,
          "durationTicks": 192,
          "midi": 64,
          "name": "E4",
          "ticks": 73536,
          "time": 76.60000000000001,
          "velocity": 0.6771653543307087
        },
        {
          "duration": 0.19999999999998863,
          "durationTicks": 192,
          "midi": 80,
          "name": "G#5",
          "ticks": 73728,
          "time": 76.80000000000001,
          "velocity": 0.6771653543307087
        },
        {
          "duration": 0.20000000000000284,
          "durationTicks": 192,
          "midi": 76,
          "name": "E5",
          "ticks": 73920,
          "time": 77,
          "velocity": 0.6771653543307087
        },
        {
          "duration": 0.20000000000000284,
          "durationTicks": 192,
          "midi": 80,
          "name": "G#5",
          "ticks": 74112,
          "time": 77.2,
          "velocity": 0.6771653543307087
        },
        {
          "duration": 0.20000000000000284,
          "durationTicks": 192,
          "midi": 81,
          "name": "A5",
          "ticks": 74304,
          "time": 77.4,
          "velocity": 0.6771653543307087
        },
        {
          "duration": 0.20000000000000284,
          "durationTicks": 192,
          "midi": 83,
          "name": "B5",
          "ticks": 74496,
          "time": 77.60000000000001,
          "velocity": 0.6771653543307087
        },
        {
          "duration": 0.19999999999998863,
          "durationTicks": 192,
          "midi": 80,
          "name": "G#5",
          "ticks": 74688,
          "time": 77.80000000000001,
          "velocity": 0.6771653543307087
        },
        {
          "duration": 0.20000000000000284,
          "durationTicks": 192,
          "midi": 84,
          "name": "C6",
          "ticks": 74880,
          "time": 78,
          "velocity": 0.6771653543307087
        },
        {
          "duration": 0.20000000000000284,
          "durationTicks": 192,
          "midi": 80,
          "name": "G#5",
          "ticks": 75072,
          "time": 78.2,
          "velocity": 0.6771653543307087
        },
        {
          "duration": 1.5,
          "durationTicks": 1440,
          "midi": 81,
          "name": "A5",
          "ticks": 75264,
          "time": 78.4,
          "velocity": 0.6771653543307087
        },
        {
          "duration": 0.29999999999999716,
          "durationTicks": 288,
          "midi": 71,
          "name": "B4",
          "ticks": 77952,
          "time": 81.2,
          "velocity": 0.6771653543307087
        },
        {
          "duration": 0.5,
          "durationTicks": 480,
          "midi": 72,
          "name": "C5",
          "ticks": 78336,
          "time": 81.60000000000001,
          "velocity": 0.6771653543307087
        },
        {
          "duration": 0.20000000000000284,
          "durationTicks": 192,
          "midi": 64,
          "name": "E4",
          "ticks": 78912,
          "time": 82.2,
          "velocity": 0.6771653543307087
        },
        {
          "duration": 0.20000000000000284,
          "durationTicks": 192,
          "midi": 72,
          "name": "C5",
          "ticks": 79104,
          "time": 82.4,
          "velocity": 0.6771653543307087
        },
        {
          "duration": 0.20000000000000284,
          "durationTicks": 192,
          "midi": 69,
          "name": "A4",
          "ticks": 79296,
          "time": 82.60000000000001,
          "velocity": 0.6771653543307087
        },
        {
          "duration": 0.29999999999999716,
          "durationTicks": 288,
          "midi": 64,
          "name": "E4",
          "ticks": 79488,
          "time": 82.80000000000001,
          "velocity": 0.6771653543307087
        },
        {
          "duration": 0.5,
          "durationTicks": 480,
          "midi": 71,
          "name": "B4",
          "ticks": 79872,
          "time": 83.2,
          "velocity": 0.6771653543307087
        },
        {
          "duration": 0.19999999999998863,
          "durationTicks": 192,
          "midi": 64,
          "name": "E4",
          "ticks": 80448,
          "time": 83.80000000000001,
          "velocity": 0.6771653543307087
        },
        {
          "duration": 0.20000000000000284,
          "durationTicks": 192,
          "midi": 71,
          "name": "B4",
          "ticks": 80640,
          "time": 84,
          "velocity": 0.6771653543307087
        },
        {
          "duration": 0.20000000000000284,
          "durationTicks": 192,
          "midi": 68,
          "name": "G#4",
          "ticks": 80832,
          "time": 84.2,
          "velocity": 0.6771653543307087
        },
        {
          "duration": 0.29999999999999716,
          "durationTicks": 288,
          "midi": 64,
          "name": "E4",
          "ticks": 81024,
          "time": 84.4,
          "velocity": 0.6771653543307087
        },
        {
          "duration": 0.5,
          "durationTicks": 480,
          "midi": 69,
          "name": "A4",
          "ticks": 81408,
          "time": 84.80000000000001,
          "velocity": 0.6771653543307087
        },
        {
          "duration": 0.20000000000000284,
          "durationTicks": 192,
          "midi": 64,
          "name": "E4",
          "ticks": 81984,
          "time": 85.4,
          "velocity": 0.6771653543307087
        },
        {
          "duration": 0.20000000000000284,
          "durationTicks": 192,
          "midi": 69,
          "name": "A4",
          "ticks": 82176,
          "time": 85.60000000000001,
          "velocity": 0.6771653543307087
        },
        {
          "duration": 0.19999999999998863,
          "durationTicks": 192,
          "midi": 64,
          "name": "E4",
          "ticks": 82368,
          "time": 85.80000000000001,
          "velocity": 0.6771653543307087
        },
        {
          "duration": 0.30000000000001137,
          "durationTicks": 288,
          "midi": 69,
          "name": "A4",
          "ticks": 82560,
          "time": 86,
          "velocity": 0.6771653543307087
        },
        {
          "duration": 0.29999999999999716,
          "durationTicks": 288,
          "midi": 68,
          "name": "G#4",
          "ticks": 82944,
          "time": 86.4,
          "velocity": 0.6771653543307087
        },
        {
          "duration": 0.19999999999998863,
          "durationTicks": 192,
          "midi": 64,
          "name": "E4",
          "ticks": 83328,
          "time": 86.80000000000001,
          "velocity": 0.6771653543307087
        },
        {
          "duration": 0.20000000000000284,
          "durationTicks": 192,
          "midi": 59,
          "name": "B3",
          "ticks": 83520,
          "time": 87,
          "velocity": 0.6771653543307087
        },
        {
          "duration": 0.20000000000000284,
          "durationTicks": 192,
          "midi": 71,
          "name": "B4",
          "ticks": 83712,
          "time": 87.2,
          "velocity": 0.6771653543307087
        },
        {
          "duration": 0.20000000000000284,
          "durationTicks": 192,
          "midi": 68,
          "name": "G#4",
          "ticks": 83904,
          "time": 87.4,
          "velocity": 0.6771653543307087
        },
        {
          "duration": 0.29999999999999716,
          "durationTicks": 288,
          "midi": 64,
          "name": "E4",
          "ticks": 84096,
          "time": 87.60000000000001,
          "velocity": 0.6771653543307087
        },
        {
          "duration": 0.5,
          "durationTicks": 480,
          "midi": 72,
          "name": "C5",
          "ticks": 84480,
          "time": 88,
          "velocity": 0.6771653543307087
        },
        {
          "duration": 0.20000000000000284,
          "durationTicks": 192,
          "midi": 64,
          "name": "E4",
          "ticks": 85056,
          "time": 88.60000000000001,
          "velocity": 0.6771653543307087
        },
        {
          "duration": 0.19999999999998863,
          "durationTicks": 192,
          "midi": 72,
          "name": "C5",
          "ticks": 85248,
          "time": 88.80000000000001,
          "velocity": 0.6771653543307087
        },
        {
          "duration": 0.20000000000000284,
          "durationTicks": 192,
          "midi": 69,
          "name": "A4",
          "ticks": 85440,
          "time": 89,
          "velocity": 0.6771653543307087
        },
        {
          "duration": 0.29999999999999716,
          "durationTicks": 288,
          "midi": 64,
          "name": "E4",
          "ticks": 85632,
          "time": 89.2,
          "velocity": 0.6771653543307087
        },
        {
          "duration": 0.5,
          "durationTicks": 480,
          "midi": 71,
          "name": "B4",
          "ticks": 86016,
          "time": 89.60000000000001,
          "velocity": 0.6771653543307087
        },
        {
          "duration": 0.20000000000000284,
          "durationTicks": 192,
          "midi": 64,
          "name": "E4",
          "ticks": 86592,
          "time": 90.2,
          "velocity": 0.6771653543307087
        },
        {
          "duration": 0.20000000000000284,
          "durationTicks": 192,
          "midi": 71,
          "name": "B4",
          "ticks": 86784,
          "time": 90.4,
          "velocity": 0.6771653543307087
        },
        {
          "duration": 0.20000000000000284,
          "durationTicks": 192,
          "midi": 68,
          "name": "G#4",
          "ticks": 86976,
          "time": 90.60000000000001,
          "velocity": 0.6771653543307087
        },
        {
          "duration": 0.29999999999999716,
          "durationTicks": 288,
          "midi": 64,
          "name": "E4",
          "ticks": 87168,
          "time": 90.80000000000001,
          "velocity": 0.6771653543307087
        },
        {
          "duration": 0.5,
          "durationTicks": 480,
          "midi": 69,
          "name": "A4",
          "ticks": 87552,
          "time": 91.2,
          "velocity": 0.6771653543307087
        },
        {
          "duration": 0.19999999999998863,
          "durationTicks": 192,
          "midi": 64,
          "name": "E4",
          "ticks": 88128,
          "time": 91.80000000000001,
          "velocity": 0.6771653543307087
        },
        {
          "duration": 0.20000000000000284,
          "durationTicks": 192,
          "midi": 69,
          "name": "A4",
          "ticks": 88320,
          "time": 92,
          "velocity": 0.6771653543307087
        },
        {
          "duration": 0.20000000000000284,
          "durationTicks": 192,
          "midi": 64,
          "name": "E4",
          "ticks": 88512,
          "time": 92.2,
          "velocity": 0.6771653543307087
        },
        {
          "duration": 0.29999999999999716,
          "durationTicks": 288,
          "midi": 69,
          "name": "A4",
          "ticks": 88704,
          "time": 92.4,
          "velocity": 0.6771653543307087
        },
        {
          "duration": 0.29999999999999716,
          "durationTicks": 288,
          "midi": 68,
          "name": "G#4",
          "ticks": 89088,
          "time": 92.80000000000001,
          "velocity": 0.6771653543307087
        },
        {
          "duration": 0.20000000000000284,
          "durationTicks": 192,
          "midi": 64,
          "name": "E4",
          "ticks": 89472,
          "time": 93.2,
          "velocity": 0.6771653543307087
        },
        {
          "duration": 0.20000000000000284,
          "durationTicks": 192,
          "midi": 59,
          "name": "B3",
          "ticks": 89664,
          "time": 93.4,
          "velocity": 0.6771653543307087
        },
        {
          "duration": 0.19999999999998863,
          "durationTicks": 192,
          "midi": 68,
          "name": "G#4",
          "ticks": 90048,
          "time": 93.80000000000001,
          "velocity": 0.6771653543307087
        },
        {
          "duration": 0.30000000000001137,
          "durationTicks": 288,
          "midi": 64,
          "name": "E4",
          "ticks": 90240,
          "time": 94,
          "velocity": 0.6771653543307087
        },
        {
          "duration": 1.5,
          "durationTicks": 1440,
          "midi": 64,
          "name": "E4",
          "ticks": 90624,
          "time": 94.4,
          "velocity": 0.6771653543307087
        },
        {
          "duration": 1.5,
          "durationTicks": 1440,
          "midi": 64,
          "name": "E4",
          "ticks": 92160,
          "time": 96,
          "velocity": 0.6771653543307087
        },
        {
          "duration": 0.29999999999999716,
          "durationTicks": 288,
          "midi": 71,
          "name": "B4",
          "ticks": 94848,
          "time": 98.80000000000001,
          "velocity": 0.6771653543307087
        },
        {
          "duration": 0.7000000000000028,
          "durationTicks": 672,
          "midi": 72,
          "name": "C5",
          "ticks": 95232,
          "time": 99.2,
          "velocity": 0.6771653543307087
        },
        {
          "duration": 0.20000000000000284,
          "durationTicks": 192,
          "midi": 76,
          "name": "E5",
          "ticks": 96000,
          "time": 100,
          "velocity": 0.6771653543307087
        },
        {
          "duration": 0.20000000000000284,
          "durationTicks": 192,
          "midi": 69,
          "name": "A4",
          "ticks": 96192,
          "time": 100.2,
          "velocity": 0.6771653543307087
        },
        {
          "duration": 0.20000000000000284,
          "durationTicks": 192,
          "midi": 76,
          "name": "E5",
          "ticks": 96384,
          "time": 100.4,
          "velocity": 0.6771653543307087
        },
        {
          "duration": 0.20000000000000284,
          "durationTicks": 192,
          "midi": 69,
          "name": "A4",
          "ticks": 96576,
          "time": 100.60000000000001,
          "velocity": 0.6771653543307087
        },
        {
          "duration": 0.19999999999998863,
          "durationTicks": 192,
          "midi": 76,
          "name": "E5",
          "ticks": 96768,
          "time": 100.80000000000001,
          "velocity": 0.6771653543307087
        },
        {
          "duration": 0.20000000000000284,
          "durationTicks": 192,
          "midi": 68,
          "name": "G#4",
          "ticks": 96960,
          "time": 101,
          "velocity": 0.6771653543307087
        },
        {
          "duration": 0.20000000000000284,
          "durationTicks": 192,
          "midi": 76,
          "name": "E5",
          "ticks": 97152,
          "time": 101.2,
          "velocity": 0.6771653543307087
        },
        {
          "duration": 0.20000000000000284,
          "durationTicks": 192,
          "midi": 68,
          "name": "G#4",
          "ticks": 97344,
          "time": 101.4,
          "velocity": 0.6771653543307087
        },
        {
          "duration": 0.7000000000000028,
          "durationTicks": 672,
          "midi": 76,
          "name": "E5",
          "ticks": 97536,
          "time": 101.60000000000001,
          "velocity": 0.6771653543307087
        },
        {
          "duration": 0.7000000000000028,
          "durationTicks": 672,
          "midi": 69,
          "name": "A4",
          "ticks": 98304,
          "time": 102.4,
          "velocity": 0.6771653543307087
        },
        {
          "duration": 0.7000000000000028,
          "durationTicks": 672,
          "midi": 81,
          "name": "A5",
          "ticks": 98304,
          "time": 102.4,
          "velocity": 0.6771653543307087
        },
        {
          "duration": 0.29999999999999716,
          "durationTicks": 288,
          "midi": 64,
          "name": "E4",
          "ticks": 99072,
          "time": 103.2,
          "velocity": 0.6771653543307087
        },
        {
          "duration": 0.29999999999999716,
          "durationTicks": 288,
          "midi": 76,
          "name": "E5",
          "ticks": 99072,
          "time": 103.2,
          "velocity": 0.6771653543307087
        },
        {
          "duration": 0.29999999999999716,
          "durationTicks": 288,
          "midi": 60,
          "name": "C4",
          "ticks": 99456,
          "time": 103.60000000000001,
          "velocity": 0.6771653543307087
        },
        {
          "duration": 0.29999999999999716,
          "durationTicks": 288,
          "midi": 72,
          "name": "C5",
          "ticks": 99456,
          "time": 103.60000000000001,
          "velocity": 0.6771653543307087
        },
        {
          "duration": 0.10000000000000853,
          "durationTicks": 96,
          "midi": 59,
          "name": "B3",
          "ticks": 99840,
          "time": 104,
          "velocity": 0.6771653543307087
        },
        {
          "duration": 0.09999999999999432,
          "durationTicks": 96,
          "midi": 64,
          "name": "E4",
          "ticks": 99936,
          "time": 104.10000000000001,
          "velocity": 0.6771653543307087
        },
        {
          "duration": 0.10000000000000853,
          "durationTicks": 96,
          "midi": 59,
          "name": "B3",
          "ticks": 100032,
          "time": 104.2,
          "velocity": 0.6771653543307087
        },
        {
          "duration": 0.09999999999999432,
          "durationTicks": 96,
          "midi": 64,
          "name": "E4",
          "ticks": 100128,
          "time": 104.30000000000001,
          "velocity": 0.6771653543307087
        },
        {
          "duration": 0.09999999999999432,
          "durationTicks": 96,
          "midi": 59,
          "name": "B3",
          "ticks": 100224,
          "time": 104.4,
          "velocity": 0.6771653543307087
        },
        {
          "duration": 0.10000000000000853,
          "durationTicks": 96,
          "midi": 64,
          "name": "E4",
          "ticks": 100320,
          "time": 104.5,
          "velocity": 0.6771653543307087
        },
        {
          "duration": 0.09999999999999432,
          "durationTicks": 96,
          "midi": 59,
          "name": "B3",
          "ticks": 100416,
          "time": 104.60000000000001,
          "velocity": 0.6771653543307087
        },
        {
          "duration": 0.10000000000000853,
          "durationTicks": 96,
          "midi": 64,
          "name": "E4",
          "ticks": 100512,
          "time": 104.7,
          "velocity": 0.6771653543307087
        },
        {
          "duration": 0.6999999999999886,
          "durationTicks": 672,
          "midi": 64,
          "name": "E4",
          "ticks": 100608,
          "time": 104.80000000000001,
          "velocity": 0.6771653543307087
        },
        {
          "duration": 1.5,
          "durationTicks": 1440,
          "midi": 64,
          "name": "E4",
          "ticks": 101376,
          "time": 105.60000000000001,
          "velocity": 0.6771653543307087
        },
        {
          "duration": 1.5,
          "durationTicks": 1440,
          "midi": 64,
          "name": "E4",
          "ticks": 102912,
          "time": 107.2,
          "velocity": 0.6771653543307087
        },
        {
          "duration": 1.5,
          "durationTicks": 1440,
          "midi": 76,
          "name": "E5",
          "ticks": 104448,
          "time": 108.80000000000001,
          "velocity": 0.6771653543307087
        },
        {
          "duration": 1.5,
          "durationTicks": 1440,
          "midi": 76,
          "name": "E5",
          "ticks": 105984,
          "time": 110.4,
          "velocity": 0.6771653543307087
        },
        {
          "duration": 0.29999999999999716,
          "durationTicks": 288,
          "midi": 71,
          "name": "B4",
          "ticks": 114816,
          "time": 119.60000000000001,
          "velocity": 0.6771653543307087
        },
        {
          "duration": 0.5,
          "durationTicks": 480,
          "midi": 72,
          "name": "C5",
          "ticks": 115200,
          "time": 120,
          "velocity": 0.6771653543307087
        },
        {
          "duration": 0.20000000000000284,
          "durationTicks": 192,
          "midi": 64,
          "name": "E4",
          "ticks": 115776,
          "time": 120.60000000000001,
          "velocity": 0.6771653543307087
        },
        {
          "duration": 0.19999999999998863,
          "durationTicks": 192,
          "midi": 72,
          "name": "C5",
          "ticks": 115968,
          "time": 120.80000000000001,
          "velocity": 0.6771653543307087
        },
        {
          "duration": 0.20000000000000284,
          "durationTicks": 192,
          "midi": 69,
          "name": "A4",
          "ticks": 116160,
          "time": 121,
          "velocity": 0.6771653543307087
        },
        {
          "duration": 0.29999999999999716,
          "durationTicks": 288,
          "midi": 64,
          "name": "E4",
          "ticks": 116352,
          "time": 121.2,
          "velocity": 0.6771653543307087
        },
        {
          "duration": 0.5,
          "durationTicks": 480,
          "midi": 71,
          "name": "B4",
          "ticks": 116736,
          "time": 121.60000000000001,
          "velocity": 0.6771653543307087
        },
        {
          "duration": 0.20000000000000284,
          "durationTicks": 192,
          "midi": 64,
          "name": "E4",
          "ticks": 117312,
          "time": 122.2,
          "velocity": 0.6771653543307087
        },
        {
          "duration": 0.20000000000000284,
          "durationTicks": 192,
          "midi": 71,
          "name": "B4",
          "ticks": 117504,
          "time": 122.4,
          "velocity": 0.6771653543307087
        },
        {
          "duration": 0.20000000000000284,
          "durationTicks": 192,
          "midi": 68,
          "name": "G#4",
          "ticks": 117696,
          "time": 122.60000000000001,
          "velocity": 0.6771653543307087
        },
        {
          "duration": 0.29999999999999716,
          "durationTicks": 288,
          "midi": 64,
          "name": "E4",
          "ticks": 117888,
          "time": 122.80000000000001,
          "velocity": 0.6771653543307087
        },
        {
          "duration": 0.5,
          "durationTicks": 480,
          "midi": 69,
          "name": "A4",
          "ticks": 118272,
          "time": 123.2,
          "velocity": 0.6771653543307087
        },
        {
          "duration": 0.19999999999998863,
          "durationTicks": 192,
          "midi": 64,
          "name": "E4",
          "ticks": 118848,
          "time": 123.80000000000001,
          "velocity": 0.6771653543307087
        },
        {
          "duration": 0.20000000000000284,
          "durationTicks": 192,
          "midi": 69,
          "name": "A4",
          "ticks": 119040,
          "time": 124,
          "velocity": 0.6771653543307087
        },
        {
          "duration": 0.20000000000000284,
          "durationTicks": 192,
          "midi": 64,
          "name": "E4",
          "ticks": 119232,
          "time": 124.2,
          "velocity": 0.6771653543307087
        },
        {
          "duration": 0.29999999999999716,
          "durationTicks": 288,
          "midi": 69,
          "name": "A4",
          "ticks": 119424,
          "time": 124.4,
          "velocity": 0.6771653543307087
        },
        {
          "duration": 0.29999999999999716,
          "durationTicks": 288,
          "midi": 68,
          "name": "G#4",
          "ticks": 119808,
          "time": 124.80000000000001,
          "velocity": 0.6771653543307087
        },
        {
          "duration": 0.20000000000000284,
          "durationTicks": 192,
          "midi": 64,
          "name": "E4",
          "ticks": 120192,
          "time": 125.2,
          "velocity": 0.6771653543307087
        },
        {
          "duration": 0.20000000000000284,
          "durationTicks": 192,
          "midi": 59,
          "name": "B3",
          "ticks": 120384,
          "time": 125.4,
          "velocity": 0.6771653543307087
        },
        {
          "duration": 0.20000000000000284,
          "durationTicks": 192,
          "midi": 71,
          "name": "B4",
          "ticks": 120576,
          "time": 125.60000000000001,
          "velocity": 0.6771653543307087
        },
        {
          "duration": 0.19999999999998863,
          "durationTicks": 192,
          "midi": 68,
          "name": "G#4",
          "ticks": 120768,
          "time": 125.80000000000001,
          "velocity": 0.6771653543307087
        },
        {
          "duration": 0.30000000000001137,
          "durationTicks": 288,
          "midi": 64,
          "name": "E4",
          "ticks": 120960,
          "time": 126,
          "velocity": 0.6771653543307087
        },
        {
          "duration": 0.7000000000000028,
          "durationTicks": 672,
          "midi": 72,
          "name": "C5",
          "ticks": 121344,
          "time": 126.4,
          "velocity": 0.6771653543307087
        },
        {
          "duration": 0.7000000000000028,
          "durationTicks": 672,
          "midi": 69,
          "name": "A4",
          "ticks": 122112,
          "time": 127.2,
          "velocity": 0.6771653543307087
        },
        {
          "duration": 0.700000000000017,
          "durationTicks": 672,
          "midi": 71,
          "name": "B4",
          "ticks": 122880,
          "time": 128,
          "velocity": 0.6771653543307087
        },
        {
          "duration": 0.6999999999999886,
          "durationTicks": 672,
          "midi": 68,
          "name": "G#4",
          "ticks": 123648,
          "time": 128.8,
          "velocity": 0.6771653543307087
        },
        {
          "duration": 0.30000000000001137,
          "durationTicks": 288,
          "midi": 69,
          "name": "A4",
          "ticks": 124416,
          "time": 129.6,
          "velocity": 0.6771653543307087
        },
        {
          "duration": 0.30000000000001137,
          "durationTicks": 288,
          "midi": 72,
          "name": "C5",
          "ticks": 124800,
          "time": 130,
          "velocity": 0.6771653543307087
        },
        {
          "duration": 0.6999999999999886,
          "durationTicks": 672,
          "midi": 76,
          "name": "E5",
          "ticks": 125184,
          "time": 130.4,
          "velocity": 0.6771653543307087
        },
        {
          "duration": 0.6999999999999886,
          "durationTicks": 672,
          "midi": 74,
          "name": "D5",
          "ticks": 125952,
          "time": 131.20000000000002,
          "velocity": 0.6771653543307087
        },
        {
          "duration": 0.29999999999998295,
          "durationTicks": 288,
          "midi": 71,
          "name": "B4",
          "ticks": 127488,
          "time": 132.8,
          "velocity": 0.7874015748031497
        },
        {
          "duration": 0.19999999999998863,
          "durationTicks": 192,
          "midi": 68,
          "name": "G#4",
          "ticks": 127872,
          "time": 133.20000000000002,
          "velocity": 0.6771653543307087
        },
        {
          "duration": 0.19999999999998863,
          "durationTicks": 192,
          "midi": 69,
          "name": "A4",
          "ticks": 128064,
          "time": 133.4,
          "velocity": 0.6771653543307087
        },
        {
          "duration": 0.30000000000001137,
          "durationTicks": 288,
          "midi": 71,
          "name": "B4",
          "ticks": 128256,
          "time": 133.6,
          "velocity": 0.7874015748031497
        },
        {
          "duration": 0.20000000000001705,
          "durationTicks": 192,
          "midi": 69,
          "name": "A4",
          "ticks": 128640,
          "time": 134,
          "velocity": 0.6771653543307087
        },
        {
          "duration": 0.19999999999998863,
          "durationTicks": 192,
          "midi": 68,
          "name": "G#4",
          "ticks": 128832,
          "time": 134.20000000000002,
          "velocity": 0.6771653543307087
        },
        {
          "duration": 0.30000000000001137,
          "durationTicks": 288,
          "midi": 64,
          "name": "E4",
          "ticks": 129024,
          "time": 134.4,
          "velocity": 0.6771653543307087
        },
        {
          "duration": 0.19999999999998863,
          "durationTicks": 192,
          "midi": 64,
          "name": "E4",
          "ticks": 129408,
          "time": 134.8,
          "velocity": 0.6771653543307087
        },
        {
          "duration": 0.20000000000001705,
          "durationTicks": 192,
          "midi": 69,
          "name": "A4",
          "ticks": 129600,
          "time": 135,
          "velocity": 0.6771653543307087
        },
        {
          "duration": 0.29999999999998295,
          "durationTicks": 288,
          "midi": 72,
          "name": "C5",
          "ticks": 129792,
          "time": 135.20000000000002,
          "velocity": 0.6771653543307087
        },
        {
          "duration": 0.20000000000001705,
          "durationTicks": 192,
          "midi": 71,
          "name": "B4",
          "ticks": 130176,
          "time": 135.6,
          "velocity": 0.6771653543307087
        },
        {
          "duration": 0.19999999999998863,
          "durationTicks": 192,
          "midi": 69,
          "name": "A4",
          "ticks": 130368,
          "time": 135.8,
          "velocity": 0.6771653543307087
        },
        {
          "duration": 0.20000000000001705,
          "durationTicks": 192,
          "midi": 68,
          "name": "G#4",
          "ticks": 130560,
          "time": 136,
          "velocity": 0.6771653543307087
        },
        {
          "duration": 0.19999999999998863,
          "durationTicks": 192,
          "midi": 64,
          "name": "E4",
          "ticks": 130752,
          "time": 136.20000000000002,
          "velocity": 0.6771653543307087
        },
        {
          "duration": 0.19999999999998863,
          "durationTicks": 192,
          "midi": 68,
          "name": "G#4",
          "ticks": 130944,
          "time": 136.4,
          "velocity": 0.6771653543307087
        },
        {
          "duration": 0.10000000000002274,
          "durationTicks": 96,
          "midi": 69,
          "name": "A4",
          "ticks": 131136,
          "time": 136.6,
          "velocity": 0.6771653543307087
        },
        {
          "duration": 0.29999999999998295,
          "durationTicks": 288,
          "midi": 71,
          "name": "B4",
          "ticks": 131328,
          "time": 136.8,
          "velocity": 0.6771653543307087
        },
        {
          "duration": 0.29999999999998295,
          "durationTicks": 288,
          "midi": 72,
          "name": "C5",
          "ticks": 131712,
          "time": 137.20000000000002,
          "velocity": 0.6771653543307087
        },
        {
          "duration": 0.30000000000001137,
          "durationTicks": 288,
          "midi": 69,
          "name": "A4",
          "ticks": 132096,
          "time": 137.6,
          "velocity": 0.6771653543307087
        },
        {
          "duration": 0.30000000000001137,
          "durationTicks": 288,
          "midi": 64,
          "name": "E4",
          "ticks": 132480,
          "time": 138,
          "velocity": 0.6771653543307087
        },
        {
          "duration": 0.6999999999999886,
          "durationTicks": 672,
          "midi": 64,
          "name": "E4",
          "ticks": 132864,
          "time": 138.4,
          "velocity": 0.6771653543307087
        },
        {
          "duration": 0.4000000000000057,
          "durationTicks": 384,
          "midi": 65,
          "name": "F4",
          "ticks": 133824,
          "time": 139.4,
          "velocity": 0.6771653543307087
        },
        {
          "duration": 0.19999999999998863,
          "durationTicks": 192,
          "midi": 69,
          "name": "A4",
          "ticks": 134208,
          "time": 139.8,
          "velocity": 0.6771653543307087
        },
        {
          "duration": 0.20000000000001705,
          "durationTicks": 192,
          "midi": 72,
          "name": "C5",
          "ticks": 134400,
          "time": 140,
          "velocity": 0.6771653543307087
        },
        {
          "duration": 0.09999999999999432,
          "durationTicks": 96,
          "midi": 72,
          "name": "C5",
          "ticks": 134592,
          "time": 140.20000000000002,
          "velocity": 0.6771653543307087
        },
        {
          "duration": 0.09999999999999432,
          "durationTicks": 96,
          "midi": 72,
          "name": "C5",
          "ticks": 134688,
          "time": 140.3,
          "velocity": 0.6771653543307087
        },
        {
          "duration": 0.19999999999998863,
          "durationTicks": 192,
          "midi": 71,
          "name": "B4",
          "ticks": 134784,
          "time": 140.4,
          "velocity": 0.6771653543307087
        },
        {
          "duration": 0.20000000000001705,
          "durationTicks": 192,
          "midi": 69,
          "name": "A4",
          "ticks": 134976,
          "time": 140.6,
          "velocity": 0.6771653543307087
        },
        {
          "duration": 0.5,
          "durationTicks": 480,
          "midi": 67,
          "name": "G4",
          "ticks": 135168,
          "time": 140.8,
          "velocity": 0.6771653543307087
        },
        {
          "duration": 0.19999999999998863,
          "durationTicks": 192,
          "midi": 64,
          "name": "E4",
          "ticks": 135744,
          "time": 141.4,
          "velocity": 0.6771653543307087
        },
        {
          "duration": 0.20000000000001705,
          "durationTicks": 192,
          "midi": 67,
          "name": "G4",
          "ticks": 135936,
          "time": 141.6,
          "velocity": 0.6771653543307087
        },
        {
          "duration": 0.09999999999999432,
          "durationTicks": 96,
          "midi": 69,
          "name": "A4",
          "ticks": 136128,
          "time": 141.8,
          "velocity": 0.6771653543307087
        },
        {
          "duration": 0.09999999999999432,
          "durationTicks": 96,
          "midi": 67,
          "name": "G4",
          "ticks": 136224,
          "time": 141.9,
          "velocity": 0.6771653543307087
        },
        {
          "duration": 0.20000000000001705,
          "durationTicks": 192,
          "midi": 65,
          "name": "F4",
          "ticks": 136320,
          "time": 142,
          "velocity": 0.6771653543307087
        },
        {
          "duration": 0.19999999999998863,
          "durationTicks": 192,
          "midi": 64,
          "name": "E4",
          "ticks": 136512,
          "time": 142.20000000000002,
          "velocity": 0.6771653543307087
        },
        {
          "duration": 0.19999999999998863,
          "durationTicks": 192,
          "midi": 80,
          "name": "G#5",
          "ticks": 136704,
          "time": 142.4,
          "velocity": 0.6771653543307087
        },
        {
          "duration": 0.20000000000001705,
          "durationTicks": 192,
          "midi": 76,
          "name": "E5",
          "ticks": 136896,
          "time": 142.6,
          "velocity": 0.6771653543307087
        },
        {
          "duration": 0.19999999999998863,
          "durationTicks": 192,
          "midi": 80,
          "name": "G#5",
          "ticks": 137088,
          "time": 142.8,
          "velocity": 0.6771653543307087
        },
        {
          "duration": 0.20000000000001705,
          "durationTicks": 192,
          "midi": 81,
          "name": "A5",
          "ticks": 137280,
          "time": 143,
          "velocity": 0.6771653543307087
        },
        {
          "duration": 0.19999999999998863,
          "durationTicks": 192,
          "midi": 83,
          "name": "B5",
          "ticks": 137472,
          "time": 143.20000000000002,
          "velocity": 0.6771653543307087
        },
        {
          "duration": 0.19999999999998863,
          "durationTicks": 192,
          "midi": 80,
          "name": "G#5",
          "ticks": 137664,
          "time": 143.4,
          "velocity": 0.6771653543307087
        },
        {
          "duration": 0.20000000000001705,
          "durationTicks": 192,
          "midi": 84,
          "name": "C6",
          "ticks": 137856,
          "time": 143.6,
          "velocity": 0.6771653543307087
        },
        {
          "duration": 0.19999999999998863,
          "durationTicks": 192,
          "midi": 80,
          "name": "G#5",
          "ticks": 138048,
          "time": 143.8,
          "velocity": 0.6771653543307087
        },
        {
          "duration": 0.20000000000001705,
          "durationTicks": 192,
          "midi": 81,
          "name": "A5",
          "ticks": 138240,
          "time": 144,
          "velocity": 0.6771653543307087
        },
        {
          "duration": 0.19999999999998863,
          "durationTicks": 192,
          "midi": 76,
          "name": "E5",
          "ticks": 138432,
          "time": 144.20000000000002,
          "velocity": 0.6771653543307087
        },
        {
          "duration": 0.30000000000001137,
          "durationTicks": 288,
          "midi": 76,
          "name": "E5",
          "ticks": 138624,
          "time": 144.4,
          "velocity": 0.6771653543307087
        },
        {
          "duration": 0.29999999999998295,
          "durationTicks": 288,
          "midi": 76,
          "name": "E5",
          "ticks": 139008,
          "time": 144.8,
          "velocity": 0.6771653543307087
        },
        {
          "duration": 0.30000000000001137,
          "durationTicks": 288,
          "midi": 71,
          "name": "B4",
          "ticks": 139776,
          "time": 145.6,
          "velocity": 0.7874015748031497
        },
        {
          "duration": 0.20000000000001705,
          "durationTicks": 192,
          "midi": 68,
          "name": "G#4",
          "ticks": 140160,
          "time": 146,
          "velocity": 0.6771653543307087
        },
        {
          "duration": 0.19999999999998863,
          "durationTicks": 192,
          "midi": 69,
          "name": "A4",
          "ticks": 140352,
          "time": 146.20000000000002,
          "velocity": 0.6771653543307087
        },
        {
          "duration": 0.30000000000001137,
          "durationTicks": 288,
          "midi": 71,
          "name": "B4",
          "ticks": 140544,
          "time": 146.4,
          "velocity": 0.7874015748031497
        },
        {
          "duration": 0.19999999999998863,
          "durationTicks": 192,
          "midi": 69,
          "name": "A4",
          "ticks": 140928,
          "time": 146.8,
          "velocity": 0.6771653543307087
        },
        {
          "duration": 0.20000000000001705,
          "durationTicks": 192,
          "midi": 68,
          "name": "G#4",
          "ticks": 141120,
          "time": 147,
          "velocity": 0.6771653543307087
        },
        {
          "duration": 0.29999999999998295,
          "durationTicks": 288,
          "midi": 64,
          "name": "E4",
          "ticks": 141312,
          "time": 147.20000000000002,
          "velocity": 0.7874015748031497
        },
        {
          "duration": 0.20000000000001705,
          "durationTicks": 192,
          "midi": 64,
          "name": "E4",
          "ticks": 141696,
          "time": 147.6,
          "velocity": 0.6771653543307087
        },
        {
          "duration": 0.19999999999998863,
          "durationTicks": 192,
          "midi": 69,
          "name": "A4",
          "ticks": 141888,
          "time": 147.8,
          "velocity": 0.6771653543307087
        },
        {
          "duration": 0.30000000000001137,
          "durationTicks": 288,
          "midi": 72,
          "name": "C5",
          "ticks": 142080,
          "time": 148,
          "velocity": 0.6771653543307087
        },
        {
          "duration": 0.19999999999998863,
          "durationTicks": 192,
          "midi": 71,
          "name": "B4",
          "ticks": 142464,
          "time": 148.4,
          "velocity": 0.6771653543307087
        },
        {
          "duration": 0.20000000000001705,
          "durationTicks": 192,
          "midi": 69,
          "name": "A4",
          "ticks": 142656,
          "time": 148.6,
          "velocity": 0.6771653543307087
        },
        {
          "duration": 0.19999999999998863,
          "durationTicks": 192,
          "midi": 68,
          "name": "G#4",
          "ticks": 142848,
          "time": 148.8,
          "velocity": 0.6771653543307087
        },
        {
          "duration": 0.20000000000001705,
          "durationTicks": 192,
          "midi": 64,
          "name": "E4",
          "ticks": 143040,
          "time": 149,
          "velocity": 0.6771653543307087
        },
        {
          "duration": 0.19999999999998863,
          "durationTicks": 192,
          "midi": 68,
          "name": "G#4",
          "ticks": 143232,
          "time": 149.20000000000002,
          "velocity": 0.6771653543307087
        },
        {
          "duration": 0.19999999999998863,
          "durationTicks": 192,
          "midi": 69,
          "name": "A4",
          "ticks": 143424,
          "time": 149.4,
          "velocity": 0.6771653543307087
        },
        {
          "duration": 0.30000000000001137,
          "durationTicks": 288,
          "midi": 71,
          "name": "B4",
          "ticks": 143616,
          "time": 149.6,
          "velocity": 0.6771653543307087
        },
        {
          "duration": 0.30000000000001137,
          "durationTicks": 288,
          "midi": 72,
          "name": "C5",
          "ticks": 144000,
          "time": 150,
          "velocity": 0.6771653543307087
        },
        {
          "duration": 0.30000000000001137,
          "durationTicks": 288,
          "midi": 69,
          "name": "A4",
          "ticks": 144384,
          "time": 150.4,
          "velocity": 0.6771653543307087
        },
        {
          "duration": 0.29999999999998295,
          "durationTicks": 288,
          "midi": 64,
          "name": "E4",
          "ticks": 144768,
          "time": 150.8,
          "velocity": 0.6771653543307087
        },
        {
          "duration": 0.6999999999999886,
          "durationTicks": 672,
          "midi": 64,
          "name": "E4",
          "ticks": 145152,
          "time": 151.20000000000002,
          "velocity": 0.6771653543307087
        },
        {
          "duration": 0.39999999999997726,
          "durationTicks": 384,
          "midi": 65,
          "name": "F4",
          "ticks": 146112,
          "time": 152.20000000000002,
          "velocity": 0.6771653543307087
        },
        {
          "duration": 0.20000000000001705,
          "durationTicks": 192,
          "midi": 69,
          "name": "A4",
          "ticks": 146496,
          "time": 152.6,
          "velocity": 0.6771653543307087
        },
        {
          "duration": 0.19999999999998863,
          "durationTicks": 192,
          "midi": 72,
          "name": "C5",
          "ticks": 146688,
          "time": 152.8,
          "velocity": 0.6771653543307087
        },
        {
          "duration": 0.09999999999999432,
          "durationTicks": 96,
          "midi": 72,
          "name": "C5",
          "ticks": 146880,
          "time": 153,
          "velocity": 0.6771653543307087
        },
        {
          "duration": 0.10000000000002274,
          "durationTicks": 96,
          "midi": 72,
          "name": "C5",
          "ticks": 146976,
          "time": 153.1,
          "velocity": 0.6771653543307087
        },
        {
          "duration": 0.19999999999998863,
          "durationTicks": 192,
          "midi": 71,
          "name": "B4",
          "ticks": 147072,
          "time": 153.20000000000002,
          "velocity": 0.6771653543307087
        },
        {
          "duration": 0.20000000000001705,
          "durationTicks": 192,
          "midi": 69,
          "name": "A4",
          "ticks": 147264,
          "time": 153.4,
          "velocity": 0.6771653543307087
        },
        {
          "duration": 0.5,
          "durationTicks": 480,
          "midi": 67,
          "name": "G4",
          "ticks": 147456,
          "time": 153.60000000000002,
          "velocity": 0.6771653543307087
        },
        {
          "duration": 0.19999999999998863,
          "durationTicks": 192,
          "midi": 64,
          "name": "E4",
          "ticks": 148032,
          "time": 154.20000000000002,
          "velocity": 0.6771653543307087
        },
        {
          "duration": 0.20000000000001705,
          "durationTicks": 192,
          "midi": 67,
          "name": "G4",
          "ticks": 148224,
          "time": 154.4,
          "velocity": 0.6771653543307087
        },
        {
          "duration": 0.09999999999999432,
          "durationTicks": 96,
          "midi": 69,
          "name": "A4",
          "ticks": 148416,
          "time": 154.60000000000002,
          "velocity": 0.6771653543307087
        },
        {
          "duration": 0.09999999999999432,
          "durationTicks": 96,
          "midi": 67,
          "name": "G4",
          "ticks": 148512,
          "time": 154.70000000000002,
          "velocity": 0.6771653543307087
        },
        {
          "duration": 0.19999999999998863,
          "durationTicks": 192,
          "midi": 65,
          "name": "F4",
          "ticks": 148608,
          "time": 154.8,
          "velocity": 0.6771653543307087
        },
        {
          "duration": 0.20000000000001705,
          "durationTicks": 192,
          "midi": 64,
          "name": "E4",
          "ticks": 148800,
          "time": 155,
          "velocity": 0.6771653543307087
        },
        {
          "duration": 0.19999999999998863,
          "durationTicks": 192,
          "midi": 68,
          "name": "G#4",
          "ticks": 148992,
          "time": 155.20000000000002,
          "velocity": 0.6771653543307087
        },
        {
          "duration": 0.20000000000001705,
          "durationTicks": 192,
          "midi": 64,
          "name": "E4",
          "ticks": 149184,
          "time": 155.4,
          "velocity": 0.6771653543307087
        },
        {
          "duration": 0.19999999999998863,
          "durationTicks": 192,
          "midi": 68,
          "name": "G#4",
          "ticks": 149376,
          "time": 155.60000000000002,
          "velocity": 0.6771653543307087
        },
        {
          "duration": 0.19999999999998863,
          "durationTicks": 192,
          "midi": 69,
          "name": "A4",
          "ticks": 149568,
          "time": 155.8,
          "velocity": 0.6771653543307087
        },
        {
          "duration": 0.20000000000001705,
          "durationTicks": 192,
          "midi": 71,
          "name": "B4",
          "ticks": 149760,
          "time": 156,
          "velocity": 0.6771653543307087
        },
        {
          "duration": 0.19999999999998863,
          "durationTicks": 192,
          "midi": 68,
          "name": "G#4",
          "ticks": 149952,
          "time": 156.20000000000002,
          "velocity": 0.6771653543307087
        },
        {
          "duration": 0.20000000000001705,
          "durationTicks": 192,
          "midi": 72,
          "name": "C5",
          "ticks": 150144,
          "time": 156.4,
          "velocity": 0.6771653543307087
        },
        {
          "duration": 0.19999999999998863,
          "durationTicks": 192,
          "midi": 68,
          "name": "G#4",
          "ticks": 150336,
          "time": 156.60000000000002,
          "velocity": 0.6771653543307087
        },
        {
          "duration": 0.19999999999998863,
          "durationTicks": 192,
          "midi": 69,
          "name": "A4",
          "ticks": 150528,
          "time": 156.8,
          "velocity": 0.6771653543307087
        },
        {
          "duration": 0.20000000000001705,
          "durationTicks": 192,
          "midi": 64,
          "name": "E4",
          "ticks": 150720,
          "time": 157,
          "velocity": 0.6771653543307087
        },
        {
          "duration": 0.29999999999998295,
          "durationTicks": 288,
          "midi": 64,
          "name": "E4",
          "ticks": 150912,
          "time": 157.20000000000002,
          "velocity": 0.6771653543307087
        },
        {
          "duration": 0.29999999999998295,
          "durationTicks": 288,
          "midi": 64,
          "name": "E4",
          "ticks": 151296,
          "time": 157.60000000000002,
          "velocity": 0.6771653543307087
        },
        {
          "duration": 0.700000000000017,
          "durationTicks": 672,
          "midi": 69,
          "name": "A4",
          "ticks": 152064,
          "time": 158.4,
          "velocity": 0.6771653543307087
        },
        {
          "duration": 0.19999999999998863,
          "durationTicks": 192,
          "midi": 64,
          "name": "E4",
          "ticks": 152832,
          "time": 159.20000000000002,
          "velocity": 0.6771653543307087
        },
        {
          "duration": 0.19999999999998863,
          "durationTicks": 192,
          "midi": 69,
          "name": "A4",
          "ticks": 152832,
          "time": 159.20000000000002,
          "velocity": 0.6771653543307087
        },
        {
          "duration": 0.20000000000001705,
          "durationTicks": 192,
          "midi": 64,
          "name": "E4",
          "ticks": 153024,
          "time": 159.4,
          "velocity": 0.6771653543307087
        },
        {
          "duration": 0.20000000000001705,
          "durationTicks": 192,
          "midi": 69,
          "name": "A4",
          "ticks": 153024,
          "time": 159.4,
          "velocity": 0.6771653543307087
        },
        {
          "duration": 0.19999999999998863,
          "durationTicks": 192,
          "midi": 64,
          "name": "E4",
          "ticks": 153216,
          "time": 159.60000000000002,
          "velocity": 0.6771653543307087
        },
        {
          "duration": 0.19999999999998863,
          "durationTicks": 192,
          "midi": 69,
          "name": "A4",
          "ticks": 153216,
          "time": 159.60000000000002,
          "velocity": 0.6771653543307087
        },
        {
          "duration": 0.19999999999998863,
          "durationTicks": 192,
          "midi": 64,
          "name": "E4",
          "ticks": 153408,
          "time": 159.8,
          "velocity": 0.6771653543307087
        },
        {
          "duration": 0.19999999999998863,
          "durationTicks": 192,
          "midi": 69,
          "name": "A4",
          "ticks": 153408,
          "time": 159.8,
          "velocity": 0.6771653543307087
        },
        {
          "duration": 0.20000000000001705,
          "durationTicks": 192,
          "midi": 64,
          "name": "E4",
          "ticks": 153600,
          "time": 160,
          "velocity": 0.6771653543307087
        },
        {
          "duration": 0.20000000000001705,
          "durationTicks": 192,
          "midi": 68,
          "name": "G#4",
          "ticks": 153600,
          "time": 160,
          "velocity": 0.6771653543307087
        },
        {
          "duration": 0.19999999999998863,
          "durationTicks": 192,
          "midi": 64,
          "name": "E4",
          "ticks": 153792,
          "time": 160.20000000000002,
          "velocity": 0.6771653543307087
        },
        {
          "duration": 0.19999999999998863,
          "durationTicks": 192,
          "midi": 68,
          "name": "G#4",
          "ticks": 153792,
          "time": 160.20000000000002,
          "velocity": 0.6771653543307087
        },
        {
          "duration": 0.20000000000001705,
          "durationTicks": 192,
          "midi": 64,
          "name": "E4",
          "ticks": 153984,
          "time": 160.4,
          "velocity": 0.6771653543307087
        },
        {
          "duration": 0.20000000000001705,
          "durationTicks": 192,
          "midi": 68,
          "name": "G#4",
          "ticks": 153984,
          "time": 160.4,
          "velocity": 0.6771653543307087
        },
        {
          "duration": 0.19999999999998863,
          "durationTicks": 192,
          "midi": 64,
          "name": "E4",
          "ticks": 154176,
          "time": 160.60000000000002,
          "velocity": 0.6771653543307087
        },
        {
          "duration": 0.19999999999998863,
          "durationTicks": 192,
          "midi": 68,
          "name": "G#4",
          "ticks": 154176,
          "time": 160.60000000000002,
          "velocity": 0.6771653543307087
        },
        {
          "duration": 0.6999999999999886,
          "durationTicks": 672,
          "midi": 64,
          "name": "E4",
          "ticks": 154368,
          "time": 160.8,
          "velocity": 0.6771653543307087
        },
        {
          "duration": 0.6999999999999886,
          "durationTicks": 672,
          "midi": 68,
          "name": "G#4",
          "ticks": 154368,
          "time": 160.8,
          "velocity": 0.6771653543307087
        },
        {
          "duration": 0.6999999999999886,
          "durationTicks": 672,
          "midi": 69,
          "name": "A4",
          "ticks": 155136,
          "time": 161.60000000000002,
          "velocity": 0.6771653543307087
        },
        {
          "duration": 0.20000000000001705,
          "durationTicks": 192,
          "midi": 64,
          "name": "E4",
          "ticks": 155904,
          "time": 162.4,
          "velocity": 0.6771653543307087
        },
        {
          "duration": 0.20000000000001705,
          "durationTicks": 192,
          "midi": 69,
          "name": "A4",
          "ticks": 155904,
          "time": 162.4,
          "velocity": 0.6771653543307087
        },
        {
          "duration": 0.19999999999998863,
          "durationTicks": 192,
          "midi": 64,
          "name": "E4",
          "ticks": 156096,
          "time": 162.60000000000002,
          "velocity": 0.6771653543307087
        },
        {
          "duration": 0.19999999999998863,
          "durationTicks": 192,
          "midi": 69,
          "name": "A4",
          "ticks": 156096,
          "time": 162.60000000000002,
          "velocity": 0.6771653543307087
        },
        {
          "duration": 0.19999999999998863,
          "durationTicks": 192,
          "midi": 64,
          "name": "E4",
          "ticks": 156288,
          "time": 162.8,
          "velocity": 0.6771653543307087
        },
        {
          "duration": 0.19999999999998863,
          "durationTicks": 192,
          "midi": 69,
          "name": "A4",
          "ticks": 156288,
          "time": 162.8,
          "velocity": 0.6771653543307087
        },
        {
          "duration": 0.20000000000001705,
          "durationTicks": 192,
          "midi": 64,
          "name": "E4",
          "ticks": 156480,
          "time": 163,
          "velocity": 0.6771653543307087
        },
        {
          "duration": 0.20000000000001705,
          "durationTicks": 192,
          "midi": 69,
          "name": "A4",
          "ticks": 156480,
          "time": 163,
          "velocity": 0.6771653543307087
        },
        {
          "duration": 0.19999999999998863,
          "durationTicks": 192,
          "midi": 64,
          "name": "E4",
          "ticks": 156672,
          "time": 163.20000000000002,
          "velocity": 0.6771653543307087
        },
        {
          "duration": 0.19999999999998863,
          "durationTicks": 192,
          "midi": 68,
          "name": "G#4",
          "ticks": 156672,
          "time": 163.20000000000002,
          "velocity": 0.6771653543307087
        },
        {
          "duration": 0.20000000000001705,
          "durationTicks": 192,
          "midi": 64,
          "name": "E4",
          "ticks": 156864,
          "time": 163.4,
          "velocity": 0.6771653543307087
        },
        {
          "duration": 0.20000000000001705,
          "durationTicks": 192,
          "midi": 68,
          "name": "G#4",
          "ticks": 156864,
          "time": 163.4,
          "velocity": 0.6771653543307087
        },
        {
          "duration": 0.19999999999998863,
          "durationTicks": 192,
          "midi": 64,
          "name": "E4",
          "ticks": 157056,
          "time": 163.60000000000002,
          "velocity": 0.6771653543307087
        },
        {
          "duration": 0.19999999999998863,
          "durationTicks": 192,
          "midi": 68,
          "name": "G#4",
          "ticks": 157056,
          "time": 163.60000000000002,
          "velocity": 0.6771653543307087
        },
        {
          "duration": 0.19999999999998863,
          "durationTicks": 192,
          "midi": 64,
          "name": "E4",
          "ticks": 157248,
          "time": 163.8,
          "velocity": 0.6771653543307087
        },
        {
          "duration": 0.19999999999998863,
          "durationTicks": 192,
          "midi": 68,
          "name": "G#4",
          "ticks": 157248,
          "time": 163.8,
          "velocity": 0.6771653543307087
        },
        {
          "duration": 0.700000000000017,
          "durationTicks": 672,
          "midi": 64,
          "name": "E4",
          "ticks": 157440,
          "time": 164,
          "velocity": 0.6771653543307087
        },
        {
          "duration": 0.700000000000017,
          "durationTicks": 672,
          "midi": 68,
          "name": "G#4",
          "ticks": 157440,
          "time": 164,
          "velocity": 0.6771653543307087
        },
        {
          "duration": 0.6999999999999886,
          "durationTicks": 672,
          "midi": 60,
          "name": "C4",
          "ticks": 158208,
          "time": 164.8,
          "velocity": 0.6771653543307087
        },
        {
          "duration": 0.19999999999998863,
          "durationTicks": 192,
          "midi": 64,
          "name": "E4",
          "ticks": 158976,
          "time": 165.60000000000002,
          "velocity": 0.6771653543307087
        },
        {
          "duration": 0.19999999999998863,
          "durationTicks": 192,
          "midi": 69,
          "name": "A4",
          "ticks": 158976,
          "time": 165.60000000000002,
          "velocity": 0.6771653543307087
        },
        {
          "duration": 0.19999999999998863,
          "durationTicks": 192,
          "midi": 64,
          "name": "E4",
          "ticks": 159168,
          "time": 165.8,
          "velocity": 0.6771653543307087
        },
        {
          "duration": 0.19999999999998863,
          "durationTicks": 192,
          "midi": 69,
          "name": "A4",
          "ticks": 159168,
          "time": 165.8,
          "velocity": 0.6771653543307087
        },
        {
          "duration": 0.20000000000001705,
          "durationTicks": 192,
          "midi": 64,
          "name": "E4",
          "ticks": 159360,
          "time": 166,
          "velocity": 0.6771653543307087
        },
        {
          "duration": 0.20000000000001705,
          "durationTicks": 192,
          "midi": 69,
          "name": "A4",
          "ticks": 159360,
          "time": 166,
          "velocity": 0.6771653543307087
        },
        {
          "duration": 0.19999999999998863,
          "durationTicks": 192,
          "midi": 64,
          "name": "E4",
          "ticks": 159552,
          "time": 166.20000000000002,
          "velocity": 0.6771653543307087
        },
        {
          "duration": 0.19999999999998863,
          "durationTicks": 192,
          "midi": 69,
          "name": "A4",
          "ticks": 159552,
          "time": 166.20000000000002,
          "velocity": 0.6771653543307087
        },
        {
          "duration": 0.19999999999998863,
          "durationTicks": 192,
          "midi": 64,
          "name": "E4",
          "ticks": 160128,
          "time": 166.8,
          "velocity": 0.6771653543307087
        },
        {
          "duration": 0.19999999999998863,
          "durationTicks": 192,
          "midi": 68,
          "name": "G#4",
          "ticks": 160128,
          "time": 166.8,
          "velocity": 0.6771653543307087
        },
        {
          "duration": 0.20000000000001705,
          "durationTicks": 192,
          "midi": 64,
          "name": "E4",
          "ticks": 160320,
          "time": 167,
          "velocity": 0.6771653543307087
        },
        {
          "duration": 0.20000000000001705,
          "durationTicks": 192,
          "midi": 68,
          "name": "G#4",
          "ticks": 160320,
          "time": 167,
          "velocity": 0.6771653543307087
        },
        {
          "duration": 0.19999999999998863,
          "durationTicks": 192,
          "midi": 64,
          "name": "E4",
          "ticks": 160512,
          "time": 167.20000000000002,
          "velocity": 0.6771653543307087
        },
        {
          "duration": 0.19999999999998863,
          "durationTicks": 192,
          "midi": 68,
          "name": "G#4",
          "ticks": 160512,
          "time": 167.20000000000002,
          "velocity": 0.6771653543307087
        },
        {
          "duration": 0.20000000000001705,
          "durationTicks": 192,
          "midi": 64,
          "name": "E4",
          "ticks": 160704,
          "time": 167.4,
          "velocity": 0.6771653543307087
        },
        {
          "duration": 0.20000000000001705,
          "durationTicks": 192,
          "midi": 68,
          "name": "G#4",
          "ticks": 160704,
          "time": 167.4,
          "velocity": 0.6771653543307087
        },
        {
          "duration": 0.19999999999998863,
          "durationTicks": 192,
          "midi": 64,
          "name": "E4",
          "ticks": 160896,
          "time": 167.60000000000002,
          "velocity": 0.6771653543307087
        },
        {
          "duration": 0.19999999999998863,
          "durationTicks": 192,
          "midi": 68,
          "name": "G#4",
          "ticks": 160896,
          "time": 167.60000000000002,
          "velocity": 0.6771653543307087
        },
        {
          "duration": 0.19999999999998863,
          "durationTicks": 192,
          "midi": 64,
          "name": "E4",
          "ticks": 161088,
          "time": 167.8,
          "velocity": 0.6771653543307087
        },
        {
          "duration": 0.19999999999998863,
          "durationTicks": 192,
          "midi": 68,
          "name": "G#4",
          "ticks": 161088,
          "time": 167.8,
          "velocity": 0.6771653543307087
        },
        {
          "duration": 0.700000000000017,
          "durationTicks": 672,
          "midi": 60,
          "name": "C4",
          "ticks": 161280,
          "time": 168,
          "velocity": 0.6771653543307087
        },
        {
          "duration": 0.19999999999998863,
          "durationTicks": 192,
          "midi": 64,
          "name": "E4",
          "ticks": 162048,
          "time": 168.8,
          "velocity": 0.6771653543307087
        },
        {
          "duration": 0.19999999999998863,
          "durationTicks": 192,
          "midi": 69,
          "name": "A4",
          "ticks": 162048,
          "time": 168.8,
          "velocity": 0.6771653543307087
        },
        {
          "duration": 0.20000000000001705,
          "durationTicks": 192,
          "midi": 64,
          "name": "E4",
          "ticks": 162240,
          "time": 169,
          "velocity": 0.6771653543307087
        },
        {
          "duration": 0.20000000000001705,
          "durationTicks": 192,
          "midi": 69,
          "name": "A4",
          "ticks": 162240,
          "time": 169,
          "velocity": 0.6771653543307087
        },
        {
          "duration": 0.19999999999998863,
          "durationTicks": 192,
          "midi": 64,
          "name": "E4",
          "ticks": 162432,
          "time": 169.20000000000002,
          "velocity": 0.6771653543307087
        },
        {
          "duration": 0.19999999999998863,
          "durationTicks": 192,
          "midi": 69,
          "name": "A4",
          "ticks": 162432,
          "time": 169.20000000000002,
          "velocity": 0.6771653543307087
        },
        {
          "duration": 0.20000000000001705,
          "durationTicks": 192,
          "midi": 64,
          "name": "E4",
          "ticks": 162624,
          "time": 169.4,
          "velocity": 0.6771653543307087
        },
        {
          "duration": 0.20000000000001705,
          "durationTicks": 192,
          "midi": 69,
          "name": "A4",
          "ticks": 162624,
          "time": 169.4,
          "velocity": 0.6771653543307087
        },
        {
          "duration": 0.20000000000001705,
          "durationTicks": 192,
          "midi": 64,
          "name": "E4",
          "ticks": 163200,
          "time": 170,
          "velocity": 0.6771653543307087
        },
        {
          "duration": 0.20000000000001705,
          "durationTicks": 192,
          "midi": 68,
          "name": "G#4",
          "ticks": 163200,
          "time": 170,
          "velocity": 0.6771653543307087
        },
        {
          "duration": 0.19999999999998863,
          "durationTicks": 192,
          "midi": 64,
          "name": "E4",
          "ticks": 163392,
          "time": 170.20000000000002,
          "velocity": 0.6771653543307087
        },
        {
          "duration": 0.19999999999998863,
          "durationTicks": 192,
          "midi": 68,
          "name": "G#4",
          "ticks": 163392,
          "time": 170.20000000000002,
          "velocity": 0.6771653543307087
        },
        {
          "duration": 0.700000000000017,
          "durationTicks": 672,
          "midi": 64,
          "name": "E4",
          "ticks": 163584,
          "time": 170.4,
          "velocity": 0.6771653543307087
        },
        {
          "duration": 0.700000000000017,
          "durationTicks": 672,
          "midi": 68,
          "name": "G#4",
          "ticks": 163584,
          "time": 170.4,
          "velocity": 0.6771653543307087
        },
        {
          "duration": 0.29999999999998295,
          "durationTicks": 288,
          "midi": 71,
          "name": "B4",
          "ticks": 164352,
          "time": 171.20000000000002,
          "velocity": 0.7874015748031497
        },
        {
          "duration": 0.19999999999998863,
          "durationTicks": 192,
          "midi": 68,
          "name": "G#4",
          "ticks": 164736,
          "time": 171.60000000000002,
          "velocity": 0.6771653543307087
        },
        {
          "duration": 0.19999999999998863,
          "durationTicks": 192,
          "midi": 69,
          "name": "A4",
          "ticks": 164928,
          "time": 171.8,
          "velocity": 0.6771653543307087
        },
        {
          "duration": 0.30000000000001137,
          "durationTicks": 288,
          "midi": 71,
          "name": "B4",
          "ticks": 165120,
          "time": 172,
          "velocity": 0.7874015748031497
        },
        {
          "duration": 0.20000000000001705,
          "durationTicks": 192,
          "midi": 68,
          "name": "G#4",
          "ticks": 165504,
          "time": 172.4,
          "velocity": 0.6771653543307087
        },
        {
          "duration": 0.19999999999998863,
          "durationTicks": 192,
          "midi": 69,
          "name": "A4",
          "ticks": 165696,
          "time": 172.60000000000002,
          "velocity": 0.6771653543307087
        },
        {
          "duration": 0.30000000000001137,
          "durationTicks": 288,
          "midi": 64,
          "name": "E4",
          "ticks": 165888,
          "time": 172.8,
          "velocity": 0.6771653543307087
        },
        {
          "duration": 0.19999999999998863,
          "durationTicks": 192,
          "midi": 64,
          "name": "E4",
          "ticks": 166272,
          "time": 173.20000000000002,
          "velocity": 0.6771653543307087
        },
        {
          "duration": 0.20000000000001705,
          "durationTicks": 192,
          "midi": 69,
          "name": "A4",
          "ticks": 166464,
          "time": 173.4,
          "velocity": 0.6771653543307087
        },
        {
          "duration": 0.29999999999998295,
          "durationTicks": 288,
          "midi": 72,
          "name": "C5",
          "ticks": 166656,
          "time": 173.60000000000002,
          "velocity": 0.6771653543307087
        },
        {
          "duration": 0.20000000000001705,
          "durationTicks": 192,
          "midi": 64,
          "name": "E4",
          "ticks": 167040,
          "time": 174,
          "velocity": 0.6771653543307087
        },
        {
          "duration": 0.19999999999998863,
          "durationTicks": 192,
          "midi": 69,
          "name": "A4",
          "ticks": 167232,
          "time": 174.20000000000002,
          "velocity": 0.6771653543307087
        },
        {
          "duration": 0.20000000000001705,
          "durationTicks": 192,
          "midi": 68,
          "name": "G#4",
          "ticks": 167424,
          "time": 174.4,
          "velocity": 0.7874015748031497
        },
        {
          "duration": 0.19999999999998863,
          "durationTicks": 192,
          "midi": 64,
          "name": "E4",
          "ticks": 167616,
          "time": 174.60000000000002,
          "velocity": 0.7874015748031497
        },
        {
          "duration": 0.19999999999998863,
          "durationTicks": 192,
          "midi": 68,
          "name": "G#4",
          "ticks": 167808,
          "time": 174.8,
          "velocity": 0.7874015748031497
        },
        {
          "duration": 0.20000000000001705,
          "durationTicks": 192,
          "midi": 69,
          "name": "A4",
          "ticks": 168000,
          "time": 175,
          "velocity": 0.7874015748031497
        },
        {
          "duration": 0.29999999999998295,
          "durationTicks": 288,
          "midi": 68,
          "name": "G#4",
          "ticks": 168192,
          "time": 175.20000000000002,
          "velocity": 0.7874015748031497
        },
        {
          "duration": 0.29999999999998295,
          "durationTicks": 288,
          "midi": 72,
          "name": "C5",
          "ticks": 168576,
          "time": 175.60000000000002,
          "velocity": 0.7874015748031497
        },
        {
          "duration": 0.30000000000001137,
          "durationTicks": 288,
          "midi": 64,
          "name": "E4",
          "ticks": 168960,
          "time": 176,
          "velocity": 0.6771653543307087
        },
        {
          "duration": 0.30000000000001137,
          "durationTicks": 288,
          "midi": 69,
          "name": "A4",
          "ticks": 169344,
          "time": 176.4,
          "velocity": 0.6771653543307087
        },
        {
          "duration": 0.6999999999999886,
          "durationTicks": 672,
          "midi": 64,
          "name": "E4",
          "ticks": 169728,
          "time": 176.8,
          "velocity": 0.6771653543307087
        },
        {
          "duration": 0.4000000000000057,
          "durationTicks": 384,
          "midi": 65,
          "name": "F4",
          "ticks": 170688,
          "time": 177.8,
          "velocity": 0.6771653543307087
        },
        {
          "duration": 0.19999999999998863,
          "durationTicks": 192,
          "midi": 65,
          "name": "F4",
          "ticks": 171072,
          "time": 178.20000000000002,
          "velocity": 0.6771653543307087
        },
        {
          "duration": 0.19999999999998863,
          "durationTicks": 192,
          "midi": 69,
          "name": "A4",
          "ticks": 171072,
          "time": 178.20000000000002,
          "velocity": 0.6771653543307087
        },
        {
          "duration": 0.20000000000001705,
          "durationTicks": 192,
          "midi": 65,
          "name": "F4",
          "ticks": 171264,
          "time": 178.4,
          "velocity": 0.6771653543307087
        },
        {
          "duration": 0.20000000000001705,
          "durationTicks": 192,
          "midi": 72,
          "name": "C5",
          "ticks": 171264,
          "time": 178.4,
          "velocity": 0.6771653543307087
        },
        {
          "duration": 0.09999999999999432,
          "durationTicks": 96,
          "midi": 65,
          "name": "F4",
          "ticks": 171456,
          "time": 178.60000000000002,
          "velocity": 0.6771653543307087
        },
        {
          "duration": 0.09999999999999432,
          "durationTicks": 96,
          "midi": 72,
          "name": "C5",
          "ticks": 171456,
          "time": 178.60000000000002,
          "velocity": 0.6771653543307087
        },
        {
          "duration": 0.09999999999999432,
          "durationTicks": 96,
          "midi": 65,
          "name": "F4",
          "ticks": 171552,
          "time": 178.70000000000002,
          "velocity": 0.6771653543307087
        },
        {
          "duration": 0.09999999999999432,
          "durationTicks": 96,
          "midi": 72,
          "name": "C5",
          "ticks": 171552,
          "time": 178.70000000000002,
          "velocity": 0.6771653543307087
        },
        {
          "duration": 0.19999999999998863,
          "durationTicks": 192,
          "midi": 64,
          "name": "E4",
          "ticks": 171648,
          "time": 178.8,
          "velocity": 0.6771653543307087
        },
        {
          "duration": 0.19999999999998863,
          "durationTicks": 192,
          "midi": 71,
          "name": "B4",
          "ticks": 171648,
          "time": 178.8,
          "velocity": 0.6771653543307087
        },
        {
          "duration": 0.20000000000001705,
          "durationTicks": 192,
          "midi": 62,
          "name": "D4",
          "ticks": 171840,
          "time": 179,
          "velocity": 0.6771653543307087
        },
        {
          "duration": 0.20000000000001705,
          "durationTicks": 192,
          "midi": 69,
          "name": "A4",
          "ticks": 171840,
          "time": 179,
          "velocity": 0.6771653543307087
        },
        {
          "duration": 0.5,
          "durationTicks": 480,
          "midi": 60,
          "name": "C4",
          "ticks": 172032,
          "time": 179.20000000000002,
          "velocity": 0.6771653543307087
        },
        {
          "duration": 0.5,
          "durationTicks": 480,
          "midi": 67,
          "name": "G4",
          "ticks": 172032,
          "time": 179.20000000000002,
          "velocity": 0.6771653543307087
        },
        {
          "duration": 0.19999999999998863,
          "durationTicks": 192,
          "midi": 64,
          "name": "E4",
          "ticks": 172608,
          "time": 179.8,
          "velocity": 0.6771653543307087
        },
        {
          "duration": 0.20000000000001705,
          "durationTicks": 192,
          "midi": 67,
          "name": "G4",
          "ticks": 172800,
          "time": 180,
          "velocity": 0.6771653543307087
        },
        {
          "duration": 0.09999999999999432,
          "durationTicks": 96,
          "midi": 69,
          "name": "A4",
          "ticks": 172992,
          "time": 180.20000000000002,
          "velocity": 0.6771653543307087
        },
        {
          "duration": 0.09999999999999432,
          "durationTicks": 96,
          "midi": 67,
          "name": "G4",
          "ticks": 173088,
          "time": 180.3,
          "velocity": 0.6771653543307087
        },
        {
          "duration": 0.20000000000001705,
          "durationTicks": 192,
          "midi": 65,
          "name": "F4",
          "ticks": 173184,
          "time": 180.4,
          "velocity": 0.6771653543307087
        },
        {
          "duration": 0.19999999999998863,
          "durationTicks": 192,
          "midi": 64,
          "name": "E4",
          "ticks": 173376,
          "time": 180.60000000000002,
          "velocity": 0.6771653543307087
        },
        {
          "duration": 0.19999999999998863,
          "durationTicks": 192,
          "midi": 80,
          "name": "G#5",
          "ticks": 173568,
          "time": 180.8,
          "velocity": 0.6771653543307087
        },
        {
          "duration": 0.20000000000001705,
          "durationTicks": 192,
          "midi": 76,
          "name": "E5",
          "ticks": 173760,
          "time": 181,
          "velocity": 0.6771653543307087
        },
        {
          "duration": 0.19999999999998863,
          "durationTicks": 192,
          "midi": 80,
          "name": "G#5",
          "ticks": 173952,
          "time": 181.20000000000002,
          "velocity": 0.6771653543307087
        },
        {
          "duration": 0.20000000000001705,
          "durationTicks": 192,
          "midi": 81,
          "name": "A5",
          "ticks": 174144,
          "time": 181.4,
          "velocity": 0.6771653543307087
        },
        {
          "duration": 0.19999999999998863,
          "durationTicks": 192,
          "midi": 83,
          "name": "B5",
          "ticks": 174336,
          "time": 181.60000000000002,
          "velocity": 0.6771653543307087
        },
        {
          "duration": 0.19999999999998863,
          "durationTicks": 192,
          "midi": 80,
          "name": "G#5",
          "ticks": 174528,
          "time": 181.8,
          "velocity": 0.6771653543307087
        },
        {
          "duration": 0.20000000000001705,
          "durationTicks": 192,
          "midi": 84,
          "name": "C6",
          "ticks": 174720,
          "time": 182,
          "velocity": 0.6771653543307087
        },
        {
          "duration": 0.19999999999998863,
          "durationTicks": 192,
          "midi": 80,
          "name": "G#5",
          "ticks": 174912,
          "time": 182.20000000000002,
          "velocity": 0.6771653543307087
        },
        {
          "duration": 1.5,
          "durationTicks": 1440,
          "midi": 81,
          "name": "A5",
          "ticks": 175104,
          "time": 182.4,
          "velocity": 0.6771653543307087
        },
        {
          "duration": 0.29999999999998295,
          "durationTicks": 288,
          "midi": 71,
          "name": "B4",
          "ticks": 177792,
          "time": 185.20000000000002,
          "velocity": 0.6771653543307087
        },
        {
          "duration": 0.5,
          "durationTicks": 480,
          "midi": 72,
          "name": "C5",
          "ticks": 178176,
          "time": 185.60000000000002,
          "velocity": 0.6771653543307087
        },
        {
          "duration": 0.19999999999998863,
          "durationTicks": 192,
          "midi": 64,
          "name": "E4",
          "ticks": 178752,
          "time": 186.20000000000002,
          "velocity": 0.6771653543307087
        },
        {
          "duration": 0.20000000000001705,
          "durationTicks": 192,
          "midi": 72,
          "name": "C5",
          "ticks": 178944,
          "time": 186.4,
          "velocity": 0.6771653543307087
        },
        {
          "duration": 0.19999999999998863,
          "durationTicks": 192,
          "midi": 69,
          "name": "A4",
          "ticks": 179136,
          "time": 186.60000000000002,
          "velocity": 0.6771653543307087
        },
        {
          "duration": 0.30000000000001137,
          "durationTicks": 288,
          "midi": 64,
          "name": "E4",
          "ticks": 179328,
          "time": 186.8,
          "velocity": 0.6771653543307087
        },
        {
          "duration": 0.5,
          "durationTicks": 480,
          "midi": 71,
          "name": "B4",
          "ticks": 179712,
          "time": 187.20000000000002,
          "velocity": 0.6771653543307087
        },
        {
          "duration": 0.19999999999998863,
          "durationTicks": 192,
          "midi": 64,
          "name": "E4",
          "ticks": 180288,
          "time": 187.8,
          "velocity": 0.6771653543307087
        },
        {
          "duration": 0.20000000000001705,
          "durationTicks": 192,
          "midi": 71,
          "name": "B4",
          "ticks": 180480,
          "time": 188,
          "velocity": 0.6771653543307087
        },
        {
          "duration": 0.19999999999998863,
          "durationTicks": 192,
          "midi": 68,
          "name": "G#4",
          "ticks": 180672,
          "time": 188.20000000000002,
          "velocity": 0.6771653543307087
        },
        {
          "duration": 0.30000000000001137,
          "durationTicks": 288,
          "midi": 64,
          "name": "E4",
          "ticks": 180864,
          "time": 188.4,
          "velocity": 0.6771653543307087
        },
        {
          "duration": 0.5,
          "durationTicks": 480,
          "midi": 69,
          "name": "A4",
          "ticks": 181248,
          "time": 188.8,
          "velocity": 0.6771653543307087
        },
        {
          "duration": 0.20000000000001705,
          "durationTicks": 192,
          "midi": 64,
          "name": "E4",
          "ticks": 181824,
          "time": 189.4,
          "velocity": 0.6771653543307087
        },
        {
          "duration": 0.19999999999998863,
          "durationTicks": 192,
          "midi": 69,
          "name": "A4",
          "ticks": 182016,
          "time": 189.60000000000002,
          "velocity": 0.6771653543307087
        },
        {
          "duration": 0.19999999999998863,
          "durationTicks": 192,
          "midi": 64,
          "name": "E4",
          "ticks": 182208,
          "time": 189.8,
          "velocity": 0.6771653543307087
        },
        {
          "duration": 0.30000000000001137,
          "durationTicks": 288,
          "midi": 69,
          "name": "A4",
          "ticks": 182400,
          "time": 190,
          "velocity": 0.6771653543307087
        },
        {
          "duration": 0.30000000000001137,
          "durationTicks": 288,
          "midi": 68,
          "name": "G#4",
          "ticks": 182784,
          "time": 190.4,
          "velocity": 0.6771653543307087
        },
        {
          "duration": 0.19999999999998863,
          "durationTicks": 192,
          "midi": 64,
          "name": "E4",
          "ticks": 183168,
          "time": 190.8,
          "velocity": 0.6771653543307087
        },
        {
          "duration": 0.20000000000001705,
          "durationTicks": 192,
          "midi": 59,
          "name": "B3",
          "ticks": 183360,
          "time": 191,
          "velocity": 0.6771653543307087
        },
        {
          "duration": 0.19999999999998863,
          "durationTicks": 192,
          "midi": 71,
          "name": "B4",
          "ticks": 183552,
          "time": 191.20000000000002,
          "velocity": 0.6771653543307087
        },
        {
          "duration": 0.20000000000001705,
          "durationTicks": 192,
          "midi": 68,
          "name": "G#4",
          "ticks": 183744,
          "time": 191.4,
          "velocity": 0.6771653543307087
        },
        {
          "duration": 0.29999999999998295,
          "durationTicks": 288,
          "midi": 64,
          "name": "E4",
          "ticks": 183936,
          "time": 191.60000000000002,
          "velocity": 0.6771653543307087
        },
        {
          "duration": 0.5,
          "durationTicks": 480,
          "midi": 72,
          "name": "C5",
          "ticks": 184320,
          "time": 192,
          "velocity": 0.6771653543307087
        },
        {
          "duration": 0.19999999999998863,
          "durationTicks": 192,
          "midi": 64,
          "name": "E4",
          "ticks": 184896,
          "time": 192.60000000000002,
          "velocity": 0.6771653543307087
        },
        {
          "duration": 0.19999999999998863,
          "durationTicks": 192,
          "midi": 72,
          "name": "C5",
          "ticks": 185088,
          "time": 192.8,
          "velocity": 0.6771653543307087
        },
        {
          "duration": 0.20000000000001705,
          "durationTicks": 192,
          "midi": 69,
          "name": "A4",
          "ticks": 185280,
          "time": 193,
          "velocity": 0.6771653543307087
        },
        {
          "duration": 0.29999999999998295,
          "durationTicks": 288,
          "midi": 64,
          "name": "E4",
          "ticks": 185472,
          "time": 193.20000000000002,
          "velocity": 0.6771653543307087
        },
        {
          "duration": 0.5,
          "durationTicks": 480,
          "midi": 71,
          "name": "B4",
          "ticks": 185856,
          "time": 193.60000000000002,
          "velocity": 0.6771653543307087
        },
        {
          "duration": 0.19999999999998863,
          "durationTicks": 192,
          "midi": 64,
          "name": "E4",
          "ticks": 186432,
          "time": 194.20000000000002,
          "velocity": 0.6771653543307087
        },
        {
          "duration": 0.20000000000001705,
          "durationTicks": 192,
          "midi": 71,
          "name": "B4",
          "ticks": 186624,
          "time": 194.4,
          "velocity": 0.6771653543307087
        },
        {
          "duration": 0.19999999999998863,
          "durationTicks": 192,
          "midi": 68,
          "name": "G#4",
          "ticks": 186816,
          "time": 194.60000000000002,
          "velocity": 0.6771653543307087
        },
        {
          "duration": 0.30000000000001137,
          "durationTicks": 288,
          "midi": 64,
          "name": "E4",
          "ticks": 187008,
          "time": 194.8,
          "velocity": 0.6771653543307087
        },
        {
          "duration": 0.5,
          "durationTicks": 480,
          "midi": 69,
          "name": "A4",
          "ticks": 187392,
          "time": 195.20000000000002,
          "velocity": 0.6771653543307087
        },
        {
          "duration": 0.19999999999998863,
          "durationTicks": 192,
          "midi": 64,
          "name": "E4",
          "ticks": 187968,
          "time": 195.8,
          "velocity": 0.6771653543307087
        },
        {
          "duration": 0.20000000000001705,
          "durationTicks": 192,
          "midi": 69,
          "name": "A4",
          "ticks": 188160,
          "time": 196,
          "velocity": 0.6771653543307087
        },
        {
          "duration": 0.19999999999998863,
          "durationTicks": 192,
          "midi": 64,
          "name": "E4",
          "ticks": 188352,
          "time": 196.20000000000002,
          "velocity": 0.6771653543307087
        },
        {
          "duration": 0.30000000000001137,
          "durationTicks": 288,
          "midi": 69,
          "name": "A4",
          "ticks": 188544,
          "time": 196.4,
          "velocity": 0.6771653543307087
        },
        {
          "duration": 0.30000000000001137,
          "durationTicks": 288,
          "midi": 68,
          "name": "G#4",
          "ticks": 188928,
          "time": 196.8,
          "velocity": 0.6771653543307087
        },
        {
          "duration": 0.19999999999998863,
          "durationTicks": 192,
          "midi": 64,
          "name": "E4",
          "ticks": 189312,
          "time": 197.20000000000002,
          "velocity": 0.6771653543307087
        },
        {
          "duration": 0.20000000000001705,
          "durationTicks": 192,
          "midi": 59,
          "name": "B3",
          "ticks": 189504,
          "time": 197.4,
          "velocity": 0.6771653543307087
        },
        {
          "duration": 0.19999999999998863,
          "durationTicks": 192,
          "midi": 68,
          "name": "G#4",
          "ticks": 189888,
          "time": 197.8,
          "velocity": 0.6771653543307087
        },
        {
          "duration": 0.30000000000001137,
          "durationTicks": 288,
          "midi": 64,
          "name": "E4",
          "ticks": 190080,
          "time": 198,
          "velocity": 0.6771653543307087
        },
        {
          "duration": 1.5,
          "durationTicks": 1440,
          "midi": 64,
          "name": "E4",
          "ticks": 190464,
          "time": 198.4,
          "velocity": 0.6771653543307087
        },
        {
          "duration": 1.5,
          "durationTicks": 1440,
          "midi": 64,
          "name": "E4",
          "ticks": 192000,
          "time": 200,
          "velocity": 0.6771653543307087
        },
        {
          "duration": 0.30000000000001137,
          "durationTicks": 288,
          "midi": 71,
          "name": "B4",
          "ticks": 194688,
          "time": 202.8,
          "velocity": 0.6771653543307087
        },
        {
          "duration": 0.6999999999999886,
          "durationTicks": 672,
          "midi": 72,
          "name": "C5",
          "ticks": 195072,
          "time": 203.20000000000002,
          "velocity": 0.6771653543307087
        },
        {
          "duration": 0.20000000000001705,
          "durationTicks": 192,
          "midi": 76,
          "name": "E5",
          "ticks": 195840,
          "time": 204,
          "velocity": 0.6771653543307087
        },
        {
          "duration": 0.19999999999998863,
          "durationTicks": 192,
          "midi": 69,
          "name": "A4",
          "ticks": 196032,
          "time": 204.20000000000002,
          "velocity": 0.6771653543307087
        },
        {
          "duration": 0.20000000000001705,
          "durationTicks": 192,
          "midi": 76,
          "name": "E5",
          "ticks": 196224,
          "time": 204.4,
          "velocity": 0.6771653543307087
        },
        {
          "duration": 0.19999999999998863,
          "durationTicks": 192,
          "midi": 69,
          "name": "A4",
          "ticks": 196416,
          "time": 204.60000000000002,
          "velocity": 0.6771653543307087
        },
        {
          "duration": 0.19999999999998863,
          "durationTicks": 192,
          "midi": 76,
          "name": "E5",
          "ticks": 196608,
          "time": 204.8,
          "velocity": 0.6771653543307087
        },
        {
          "duration": 0.20000000000001705,
          "durationTicks": 192,
          "midi": 68,
          "name": "G#4",
          "ticks": 196800,
          "time": 205,
          "velocity": 0.6771653543307087
        },
        {
          "duration": 0.19999999999998863,
          "durationTicks": 192,
          "midi": 76,
          "name": "E5",
          "ticks": 196992,
          "time": 205.20000000000002,
          "velocity": 0.6771653543307087
        },
        {
          "duration": 0.20000000000001705,
          "durationTicks": 192,
          "midi": 68,
          "name": "G#4",
          "ticks": 197184,
          "time": 205.4,
          "velocity": 0.6771653543307087
        },
        {
          "duration": 0.6999999999999886,
          "durationTicks": 672,
          "midi": 76,
          "name": "E5",
          "ticks": 197376,
          "time": 205.60000000000002,
          "velocity": 0.6771653543307087
        },
        {
          "duration": 0.700000000000017,
          "durationTicks": 672,
          "midi": 69,
          "name": "A4",
          "ticks": 198144,
          "time": 206.4,
          "velocity": 0.6771653543307087
        },
        {
          "duration": 0.700000000000017,
          "durationTicks": 672,
          "midi": 81,
          "name": "A5",
          "ticks": 198144,
          "time": 206.4,
          "velocity": 0.6771653543307087
        },
        {
          "duration": 0.29999999999998295,
          "durationTicks": 288,
          "midi": 64,
          "name": "E4",
          "ticks": 198912,
          "time": 207.20000000000002,
          "velocity": 0.6771653543307087
        },
        {
          "duration": 0.29999999999998295,
          "durationTicks": 288,
          "midi": 76,
          "name": "E5",
          "ticks": 198912,
          "time": 207.20000000000002,
          "velocity": 0.6771653543307087
        },
        {
          "duration": 0.29999999999998295,
          "durationTicks": 288,
          "midi": 60,
          "name": "C4",
          "ticks": 199296,
          "time": 207.60000000000002,
          "velocity": 0.6771653543307087
        },
        {
          "duration": 0.29999999999998295,
          "durationTicks": 288,
          "midi": 72,
          "name": "C5",
          "ticks": 199296,
          "time": 207.60000000000002,
          "velocity": 0.6771653543307087
        },
        {
          "duration": 0.10000000000002274,
          "durationTicks": 96,
          "midi": 59,
          "name": "B3",
          "ticks": 199680,
          "time": 208,
          "velocity": 0.6771653543307087
        },
        {
          "duration": 0.09999999999999432,
          "durationTicks": 96,
          "midi": 64,
          "name": "E4",
          "ticks": 199776,
          "time": 208.10000000000002,
          "velocity": 0.6771653543307087
        },
        {
          "duration": 0.09999999999999432,
          "durationTicks": 96,
          "midi": 59,
          "name": "B3",
          "ticks": 199872,
          "time": 208.20000000000002,
          "velocity": 0.6771653543307087
        },
        {
          "duration": 0.09999999999999432,
          "durationTicks": 96,
          "midi": 64,
          "name": "E4",
          "ticks": 199968,
          "time": 208.3,
          "velocity": 0.6771653543307087
        },
        {
          "duration": 0.09999999999999432,
          "durationTicks": 96,
          "midi": 59,
          "name": "B3",
          "ticks": 200064,
          "time": 208.4,
          "velocity": 0.6771653543307087
        },
        {
          "duration": 0.10000000000002274,
          "durationTicks": 96,
          "midi": 64,
          "name": "E4",
          "ticks": 200160,
          "time": 208.5,
          "velocity": 0.6771653543307087
        },
        {
          "duration": 0.09999999999999432,
          "durationTicks": 96,
          "midi": 59,
          "name": "B3",
          "ticks": 200256,
          "time": 208.60000000000002,
          "velocity": 0.6771653543307087
        },
        {
          "duration": 0.09999999999999432,
          "durationTicks": 96,
          "midi": 64,
          "name": "E4",
          "ticks": 200352,
          "time": 208.70000000000002,
          "velocity": 0.6771653543307087
        },
        {
          "duration": 0.6999999999999886,
          "durationTicks": 672,
          "midi": 64,
          "name": "E4",
          "ticks": 200448,
          "time": 208.8,
          "velocity": 0.6771653543307087
        },
        {
          "duration": 1.5,
          "durationTicks": 1440,
          "midi": 64,
          "name": "E4",
          "ticks": 201216,
          "time": 209.60000000000002,
          "velocity": 0.6771653543307087
        },
        {
          "duration": 1.5,
          "durationTicks": 1440,
          "midi": 64,
          "name": "E4",
          "ticks": 202752,
          "time": 211.20000000000002,
          "velocity": 0.6771653543307087
        },
        {
          "duration": 1.5,
          "durationTicks": 1440,
          "midi": 76,
          "name": "E5",
          "ticks": 204288,
          "time": 212.8,
          "velocity": 0.6771653543307087
        },
        {
          "duration": 1.5,
          "durationTicks": 1440,
          "midi": 76,
          "name": "E5",
          "ticks": 205824,
          "time": 214.4,
          "velocity": 0.6771653543307087
        },
        {
          "duration": 1.5,
          "durationTicks": 1440,
          "midi": 64,
          "name": "E4",
          "ticks": 207360,
          "time": 216,
          "velocity": 0.6771653543307087
        }
      ],
      "endOfTrackTicks": 208800
    },
    {
      "channel": 2,
      "controlChanges": {},
      "pitchBends": [],
      "instrument": {
        "family": "synth lead",
        "number": 87,
        "name": "lead 8 (bass + lead)"
      },
      "name": "8-Bit Triangle",
      "notes": [
        {
          "duration": 3.1,
          "durationTicks": 2976,
          "midi": 52,
          "name": "E3",
          "ticks": 0,
          "time": 0,
          "velocity": 0.3937007874015748
        },
        {
          "duration": 3.1,
          "durationTicks": 2976,
          "midi": 64,
          "name": "E4",
          "ticks": 0,
          "time": 0,
          "velocity": 0.3937007874015748
        },
        {
          "duration": 1.7999999999999998,
          "durationTicks": 1728,
          "midi": 57,
          "name": "A3",
          "ticks": 3072,
          "time": 3.2,
          "velocity": 0.3937007874015748
        },
        {
          "duration": 1.7999999999999998,
          "durationTicks": 1728,
          "midi": 69,
          "name": "A4",
          "ticks": 3072,
          "time": 3.2,
          "velocity": 0.3937007874015748
        },
        {
          "duration": 0.5,
          "durationTicks": 480,
          "midi": 56,
          "name": "G#3",
          "ticks": 4800,
          "time": 5,
          "velocity": 0.33858267716535434
        },
        {
          "duration": 0.5,
          "durationTicks": 480,
          "midi": 68,
          "name": "G#4",
          "ticks": 4800,
          "time": 5,
          "velocity": 0.33858267716535434
        },
        {
          "duration": 0.2999999999999998,
          "durationTicks": 288,
          "midi": 52,
          "name": "E3",
          "ticks": 5376,
          "time": 5.6000000000000005,
          "velocity": 0.33858267716535434
        },
        {
          "duration": 0.2999999999999998,
          "durationTicks": 288,
          "midi": 64,
          "name": "E4",
          "ticks": 5376,
          "time": 5.6000000000000005,
          "velocity": 0.33858267716535434
        },
        {
          "duration": 0.3000000000000007,
          "durationTicks": 288,
          "midi": 52,
          "name": "E3",
          "ticks": 5760,
          "time": 6,
          "velocity": 0.33858267716535434
        },
        {
          "duration": 0.3000000000000007,
          "durationTicks": 288,
          "midi": 64,
          "name": "E4",
          "ticks": 5760,
          "time": 6,
          "velocity": 0.33858267716535434
        },
        {
          "duration": 1.0999999999999996,
          "durationTicks": 1056,
          "midi": 45,
          "name": "A2",
          "ticks": 6144,
          "time": 6.4,
          "velocity": 0.33858267716535434
        },
        {
          "duration": 1.0999999999999996,
          "durationTicks": 1056,
          "midi": 57,
          "name": "A3",
          "ticks": 6144,
          "time": 6.4,
          "velocity": 0.33858267716535434
        },
        {
          "duration": 0.20000000000000018,
          "durationTicks": 192,
          "midi": 59,
          "name": "B3",
          "ticks": 7296,
          "time": 7.6000000000000005,
          "velocity": 0.33858267716535434
        },
        {
          "duration": 0.20000000000000018,
          "durationTicks": 192,
          "midi": 71,
          "name": "B4",
          "ticks": 7296,
          "time": 7.6000000000000005,
          "velocity": 0.33858267716535434
        },
        {
          "duration": 0.1999999999999993,
          "durationTicks": 192,
          "midi": 60,
          "name": "C4",
          "ticks": 7488,
          "time": 7.800000000000001,
          "velocity": 0.33858267716535434
        },
        {
          "duration": 0.1999999999999993,
          "durationTicks": 192,
          "midi": 72,
          "name": "C5",
          "ticks": 7488,
          "time": 7.800000000000001,
          "velocity": 0.33858267716535434
        },
        {
          "duration": 0.20000000000000107,
          "durationTicks": 192,
          "midi": 62,
          "name": "D4",
          "ticks": 7680,
          "time": 8,
          "velocity": 0.33858267716535434
        },
        {
          "duration": 0.20000000000000107,
          "durationTicks": 192,
          "midi": 74,
          "name": "D5",
          "ticks": 7680,
          "time": 8,
          "velocity": 0.33858267716535434
        },
        {
          "duration": 0.1999999999999993,
          "durationTicks": 192,
          "midi": 62,
          "name": "D4",
          "ticks": 7872,
          "time": 8.200000000000001,
          "velocity": 0.33858267716535434
        },
        {
          "duration": 0.1999999999999993,
          "durationTicks": 192,
          "midi": 74,
          "name": "D5",
          "ticks": 7872,
          "time": 8.200000000000001,
          "velocity": 0.33858267716535434
        },
        {
          "duration": 0.20000000000000107,
          "durationTicks": 192,
          "midi": 62,
          "name": "D4",
          "ticks": 8256,
          "time": 8.6,
          "velocity": 0.33858267716535434
        },
        {
          "duration": 0.20000000000000107,
          "durationTicks": 192,
          "midi": 74,
          "name": "D5",
          "ticks": 8256,
          "time": 8.6,
          "velocity": 0.33858267716535434
        },
        {
          "duration": 0.20000000000000107,
          "durationTicks": 192,
          "midi": 65,
          "name": "F4",
          "ticks": 8640,
          "time": 9,
          "velocity": 0.33858267716535434
        },
        {
          "duration": 0.20000000000000107,
          "durationTicks": 192,
          "midi": 77,
          "name": "F5",
          "ticks": 8640,
          "time": 9,
          "velocity": 0.33858267716535434
        },
        {
          "duration": 0.20000000000000107,
          "durationTicks": 192,
          "midi": 62,
          "name": "D4",
          "ticks": 9024,
          "time": 9.4,
          "velocity": 0.33858267716535434
        },
        {
          "duration": 0.20000000000000107,
          "durationTicks": 192,
          "midi": 74,
          "name": "D5",
          "ticks": 9024,
          "time": 9.4,
          "velocity": 0.33858267716535434
        },
        {
          "duration": 0.1999999999999993,
          "durationTicks": 192,
          "midi": 60,
          "name": "C4",
          "ticks": 9216,
          "time": 9.600000000000001,
          "velocity": 0.33858267716535434
        },
        {
          "duration": 0.1999999999999993,
          "durationTicks": 192,
          "midi": 72,
          "name": "C5",
          "ticks": 9216,
          "time": 9.600000000000001,
          "velocity": 0.33858267716535434
        },
        {
          "duration": 0.1999999999999993,
          "durationTicks": 192,
          "midi": 60,
          "name": "C4",
          "ticks": 9408,
          "time": 9.8,
          "velocity": 0.33858267716535434
        },
        {
          "duration": 0.1999999999999993,
          "durationTicks": 192,
          "midi": 72,
          "name": "C5",
          "ticks": 9408,
          "time": 9.8,
          "velocity": 0.33858267716535434
        },
        {
          "duration": 0.1999999999999993,
          "durationTicks": 192,
          "midi": 60,
          "name": "C4",
          "ticks": 9792,
          "time": 10.200000000000001,
          "velocity": 0.33858267716535434
        },
        {
          "duration": 0.1999999999999993,
          "durationTicks": 192,
          "midi": 72,
          "name": "C5",
          "ticks": 9792,
          "time": 10.200000000000001,
          "velocity": 0.33858267716535434
        },
        {
          "duration": 0.20000000000000107,
          "durationTicks": 192,
          "midi": 60,
          "name": "C4",
          "ticks": 9984,
          "time": 10.4,
          "velocity": 0.33858267716535434
        },
        {
          "duration": 0.20000000000000107,
          "durationTicks": 192,
          "midi": 72,
          "name": "C5",
          "ticks": 9984,
          "time": 10.4,
          "velocity": 0.33858267716535434
        },
        {
          "duration": 0.1999999999999993,
          "durationTicks": 192,
          "midi": 55,
          "name": "G3",
          "ticks": 10176,
          "time": 10.600000000000001,
          "velocity": 0.33858267716535434
        },
        {
          "duration": 0.1999999999999993,
          "durationTicks": 192,
          "midi": 67,
          "name": "G4",
          "ticks": 10176,
          "time": 10.600000000000001,
          "velocity": 0.33858267716535434
        },
        {
          "duration": 0.3000000000000007,
          "durationTicks": 288,
          "midi": 55,
          "name": "G3",
          "ticks": 10368,
          "time": 10.8,
          "velocity": 0.33858267716535434
        },
        {
          "duration": 0.3000000000000007,
          "durationTicks": 288,
          "midi": 67,
          "name": "G4",
          "ticks": 10368,
          "time": 10.8,
          "velocity": 0.33858267716535434
        },
        {
          "duration": 0.1999999999999993,
          "durationTicks": 192,
          "midi": 59,
          "name": "B3",
          "ticks": 10752,
          "time": 11.200000000000001,
          "velocity": 0.33858267716535434
        },
        {
          "duration": 0.1999999999999993,
          "durationTicks": 192,
          "midi": 71,
          "name": "B4",
          "ticks": 10752,
          "time": 11.200000000000001,
          "velocity": 0.33858267716535434
        },
        {
          "duration": 0.20000000000000107,
          "durationTicks": 192,
          "midi": 59,
          "name": "B3",
          "ticks": 10944,
          "time": 11.4,
          "velocity": 0.33858267716535434
        },
        {
          "duration": 0.20000000000000107,
          "durationTicks": 192,
          "midi": 71,
          "name": "B4",
          "ticks": 10944,
          "time": 11.4,
          "velocity": 0.33858267716535434
        },
        {
          "duration": 0.1999999999999993,
          "durationTicks": 192,
          "midi": 60,
          "name": "C4",
          "ticks": 11328,
          "time": 11.8,
          "velocity": 0.33858267716535434
        },
        {
          "duration": 0.1999999999999993,
          "durationTicks": 192,
          "midi": 72,
          "name": "C5",
          "ticks": 11328,
          "time": 11.8,
          "velocity": 0.33858267716535434
        },
        {
          "duration": 0.1999999999999993,
          "durationTicks": 192,
          "midi": 64,
          "name": "E4",
          "ticks": 11712,
          "time": 12.200000000000001,
          "velocity": 0.33858267716535434
        },
        {
          "duration": 0.1999999999999993,
          "durationTicks": 192,
          "midi": 76,
          "name": "E5",
          "ticks": 11712,
          "time": 12.200000000000001,
          "velocity": 0.33858267716535434
        },
        {
          "duration": 0.1999999999999993,
          "durationTicks": 192,
          "midi": 68,
          "name": "G#4",
          "ticks": 12096,
          "time": 12.600000000000001,
          "velocity": 0.33858267716535434
        },
        {
          "duration": 0.1999999999999993,
          "durationTicks": 192,
          "midi": 80,
          "name": "G#5",
          "ticks": 12096,
          "time": 12.600000000000001,
          "velocity": 0.33858267716535434
        },
        {
          "duration": 1.5,
          "durationTicks": 1440,
          "midi": 64,
          "name": "E4",
          "ticks": 12288,
          "time": 12.8,
          "velocity": 0.33858267716535434
        },
        {
          "duration": 1.5,
          "durationTicks": 1440,
          "midi": 76,
          "name": "E5",
          "ticks": 12288,
          "time": 12.8,
          "velocity": 0.33858267716535434
        },
        {
          "duration": 1.5,
          "durationTicks": 1440,
          "midi": 81,
          "name": "A5",
          "ticks": 12288,
          "time": 12.8,
          "velocity": 0.33858267716535434
        },
        {
          "duration": 1.5,
          "durationTicks": 1440,
          "midi": 64,
          "name": "E4",
          "ticks": 64512,
          "time": 67.2,
          "velocity": 0.33858267716535434
        },
        {
          "duration": 1.5,
          "durationTicks": 1440,
          "midi": 76,
          "name": "E5",
          "ticks": 64512,
          "time": 67.2,
          "velocity": 0.33858267716535434
        },
        {
          "duration": 1.5,
          "durationTicks": 1440,
          "midi": 69,
          "name": "A4",
          "ticks": 66048,
          "time": 68.8,
          "velocity": 0.33858267716535434
        },
        {
          "duration": 1.5,
          "durationTicks": 1440,
          "midi": 81,
          "name": "A5",
          "ticks": 66048,
          "time": 68.8,
          "velocity": 0.33858267716535434
        },
        {
          "duration": 0.7000000000000028,
          "durationTicks": 672,
          "midi": 68,
          "name": "G#4",
          "ticks": 67584,
          "time": 70.4,
          "velocity": 0.33858267716535434
        },
        {
          "duration": 0.7000000000000028,
          "durationTicks": 672,
          "midi": 80,
          "name": "G#5",
          "ticks": 67584,
          "time": 70.4,
          "velocity": 0.33858267716535434
        },
        {
          "duration": 0.7000000000000028,
          "durationTicks": 672,
          "midi": 64,
          "name": "E4",
          "ticks": 68352,
          "time": 71.2,
          "velocity": 0.33858267716535434
        },
        {
          "duration": 0.7000000000000028,
          "durationTicks": 672,
          "midi": 76,
          "name": "E5",
          "ticks": 68352,
          "time": 71.2,
          "velocity": 0.33858267716535434
        },
        {
          "duration": 1.5,
          "durationTicks": 1440,
          "midi": 69,
          "name": "A4",
          "ticks": 69120,
          "time": 72,
          "velocity": 0.33858267716535434
        },
        {
          "duration": 1.5,
          "durationTicks": 1440,
          "midi": 81,
          "name": "A5",
          "ticks": 69120,
          "time": 72,
          "velocity": 0.33858267716535434
        },
        {
          "duration": 0.19999999999998863,
          "durationTicks": 192,
          "midi": 62,
          "name": "D4",
          "ticks": 70656,
          "time": 73.60000000000001,
          "velocity": 0.3937007874015748
        },
        {
          "duration": 0.19999999999998863,
          "durationTicks": 192,
          "midi": 74,
          "name": "D5",
          "ticks": 70656,
          "time": 73.60000000000001,
          "velocity": 0.3937007874015748
        },
        {
          "duration": 0.20000000000000284,
          "durationTicks": 192,
          "midi": 62,
          "name": "D4",
          "ticks": 70848,
          "time": 73.8,
          "velocity": 0.3937007874015748
        },
        {
          "duration": 0.20000000000000284,
          "durationTicks": 192,
          "midi": 74,
          "name": "D5",
          "ticks": 70848,
          "time": 73.8,
          "velocity": 0.3937007874015748
        },
        {
          "duration": 0.20000000000000284,
          "durationTicks": 192,
          "midi": 62,
          "name": "D4",
          "ticks": 71232,
          "time": 74.2,
          "velocity": 0.3937007874015748
        },
        {
          "duration": 0.20000000000000284,
          "durationTicks": 192,
          "midi": 74,
          "name": "D5",
          "ticks": 71232,
          "time": 74.2,
          "velocity": 0.3937007874015748
        },
        {
          "duration": 0.19999999999998863,
          "durationTicks": 192,
          "midi": 65,
          "name": "F4",
          "ticks": 71616,
          "time": 74.60000000000001,
          "velocity": 0.3937007874015748
        },
        {
          "duration": 0.19999999999998863,
          "durationTicks": 192,
          "midi": 77,
          "name": "F5",
          "ticks": 71616,
          "time": 74.60000000000001,
          "velocity": 0.3937007874015748
        },
        {
          "duration": 0.20000000000000284,
          "durationTicks": 192,
          "midi": 62,
          "name": "D4",
          "ticks": 72000,
          "time": 75,
          "velocity": 0.3937007874015748
        },
        {
          "duration": 0.20000000000000284,
          "durationTicks": 192,
          "midi": 74,
          "name": "D5",
          "ticks": 72000,
          "time": 75,
          "velocity": 0.3937007874015748
        },
        {
          "duration": 0.20000000000000284,
          "durationTicks": 192,
          "midi": 60,
          "name": "C4",
          "ticks": 72192,
          "time": 75.2,
          "velocity": 0.3937007874015748
        },
        {
          "duration": 0.20000000000000284,
          "durationTicks": 192,
          "midi": 72,
          "name": "C5",
          "ticks": 72192,
          "time": 75.2,
          "velocity": 0.3937007874015748
        },
        {
          "duration": 0.20000000000000284,
          "durationTicks": 192,
          "midi": 60,
          "name": "C4",
          "ticks": 72384,
          "time": 75.4,
          "velocity": 0.3937007874015748
        },
        {
          "duration": 0.20000000000000284,
          "durationTicks": 192,
          "midi": 72,
          "name": "C5",
          "ticks": 72384,
          "time": 75.4,
          "velocity": 0.3937007874015748
        },
        {
          "duration": 0.20000000000000284,
          "durationTicks": 192,
          "midi": 60,
          "name": "C4",
          "ticks": 72768,
          "time": 75.8,
          "velocity": 0.3937007874015748
        },
        {
          "duration": 0.20000000000000284,
          "durationTicks": 192,
          "midi": 72,
          "name": "C5",
          "ticks": 72768,
          "time": 75.8,
          "velocity": 0.3937007874015748
        },
        {
          "duration": 0.20000000000000284,
          "durationTicks": 192,
          "midi": 60,
          "name": "C4",
          "ticks": 72960,
          "time": 76,
          "velocity": 0.3937007874015748
        },
        {
          "duration": 0.20000000000000284,
          "durationTicks": 192,
          "midi": 72,
          "name": "C5",
          "ticks": 72960,
          "time": 76,
          "velocity": 0.3937007874015748
        },
        {
          "duration": 0.20000000000000284,
          "durationTicks": 192,
          "midi": 55,
          "name": "G3",
          "ticks": 73152,
          "time": 76.2,
          "velocity": 0.3937007874015748
        },
        {
          "duration": 0.20000000000000284,
          "durationTicks": 192,
          "midi": 67,
          "name": "G4",
          "ticks": 73152,
          "time": 76.2,
          "velocity": 0.3937007874015748
        },
        {
          "duration": 0.29999999999999716,
          "durationTicks": 288,
          "midi": 55,
          "name": "G3",
          "ticks": 73344,
          "time": 76.4,
          "velocity": 0.3937007874015748
        },
        {
          "duration": 0.29999999999999716,
          "durationTicks": 288,
          "midi": 67,
          "name": "G4",
          "ticks": 73344,
          "time": 76.4,
          "velocity": 0.3937007874015748
        },
        {
          "duration": 0.19999999999998863,
          "durationTicks": 192,
          "midi": 59,
          "name": "B3",
          "ticks": 73728,
          "time": 76.80000000000001,
          "velocity": 0.3937007874015748
        },
        {
          "duration": 0.19999999999998863,
          "durationTicks": 192,
          "midi": 71,
          "name": "B4",
          "ticks": 73728,
          "time": 76.80000000000001,
          "velocity": 0.3937007874015748
        },
        {
          "duration": 0.20000000000000284,
          "durationTicks": 192,
          "midi": 59,
          "name": "B3",
          "ticks": 73920,
          "time": 77,
          "velocity": 0.3937007874015748
        },
        {
          "duration": 0.20000000000000284,
          "durationTicks": 192,
          "midi": 71,
          "name": "B4",
          "ticks": 73920,
          "time": 77,
          "velocity": 0.3937007874015748
        },
        {
          "duration": 0.20000000000000284,
          "durationTicks": 192,
          "midi": 60,
          "name": "C4",
          "ticks": 74304,
          "time": 77.4,
          "velocity": 0.3937007874015748
        },
        {
          "duration": 0.20000000000000284,
          "durationTicks": 192,
          "midi": 72,
          "name": "C5",
          "ticks": 74304,
          "time": 77.4,
          "velocity": 0.3937007874015748
        },
        {
          "duration": 0.19999999999998863,
          "durationTicks": 192,
          "midi": 64,
          "name": "E4",
          "ticks": 74688,
          "time": 77.80000000000001,
          "velocity": 0.3937007874015748
        },
        {
          "duration": 0.19999999999998863,
          "durationTicks": 192,
          "midi": 76,
          "name": "E5",
          "ticks": 74688,
          "time": 77.80000000000001,
          "velocity": 0.3937007874015748
        },
        {
          "duration": 0.20000000000000284,
          "durationTicks": 192,
          "midi": 68,
          "name": "G#4",
          "ticks": 75072,
          "time": 78.2,
          "velocity": 0.3937007874015748
        },
        {
          "duration": 0.20000000000000284,
          "durationTicks": 192,
          "midi": 80,
          "name": "G#5",
          "ticks": 75072,
          "time": 78.2,
          "velocity": 0.3937007874015748
        },
        {
          "duration": 1.5,
          "durationTicks": 1440,
          "midi": 64,
          "name": "E4",
          "ticks": 75264,
          "time": 78.4,
          "velocity": 0.3937007874015748
        },
        {
          "duration": 1.5,
          "durationTicks": 1440,
          "midi": 76,
          "name": "E5",
          "ticks": 75264,
          "time": 78.4,
          "velocity": 0.3937007874015748
        },
        {
          "duration": 1.5,
          "durationTicks": 1440,
          "midi": 81,
          "name": "A5",
          "ticks": 75264,
          "time": 78.4,
          "velocity": 0.3937007874015748
        },
        {
          "duration": 0.29999999999999716,
          "durationTicks": 288,
          "midi": 74,
          "name": "D5",
          "ticks": 77952,
          "time": 81.2,
          "velocity": 0.33858267716535434
        },
        {
          "duration": 0.7000000000000028,
          "durationTicks": 672,
          "midi": 76,
          "name": "E5",
          "ticks": 78336,
          "time": 81.60000000000001,
          "velocity": 0.33858267716535434
        },
        {
          "duration": 0.29999999999999716,
          "durationTicks": 288,
          "midi": 77,
          "name": "F5",
          "ticks": 79104,
          "time": 82.4,
          "velocity": 0.33858267716535434
        },
        {
          "duration": 0.29999999999999716,
          "durationTicks": 288,
          "midi": 79,
          "name": "G5",
          "ticks": 79488,
          "time": 82.80000000000001,
          "velocity": 0.33858267716535434
        },
        {
          "duration": 0.5,
          "durationTicks": 480,
          "midi": 77,
          "name": "F5",
          "ticks": 79872,
          "time": 83.2,
          "velocity": 0.33858267716535434
        },
        {
          "duration": 0.19999999999998863,
          "durationTicks": 192,
          "midi": 72,
          "name": "C5",
          "ticks": 80448,
          "time": 83.80000000000001,
          "velocity": 0.33858267716535434
        },
        {
          "duration": 0.7000000000000028,
          "durationTicks": 672,
          "midi": 76,
          "name": "E5",
          "ticks": 80640,
          "time": 84,
          "velocity": 0.33858267716535434
        },
        {
          "duration": 0.6999999999999886,
          "durationTicks": 672,
          "midi": 76,
          "name": "E5",
          "ticks": 81408,
          "time": 84.80000000000001,
          "velocity": 0.33858267716535434
        },
        {
          "duration": 0.29999999999999716,
          "durationTicks": 288,
          "midi": 74,
          "name": "D5",
          "ticks": 82176,
          "time": 85.60000000000001,
          "velocity": 0.33858267716535434
        },
        {
          "duration": 0.30000000000001137,
          "durationTicks": 288,
          "midi": 72,
          "name": "C5",
          "ticks": 82560,
          "time": 86,
          "velocity": 0.33858267716535434
        },
        {
          "duration": 0.20000000000000284,
          "durationTicks": 192,
          "midi": 71,
          "name": "B4",
          "ticks": 82944,
          "time": 86.4,
          "velocity": 0.33858267716535434
        },
        {
          "duration": 0.20000000000000284,
          "durationTicks": 192,
          "midi": 68,
          "name": "G#4",
          "ticks": 83136,
          "time": 86.60000000000001,
          "velocity": 0.33858267716535434
        },
        {
          "duration": 0.19999999999998863,
          "durationTicks": 192,
          "midi": 71,
          "name": "B4",
          "ticks": 83328,
          "time": 86.80000000000001,
          "velocity": 0.33858267716535434
        },
        {
          "duration": 0.20000000000000284,
          "durationTicks": 192,
          "midi": 68,
          "name": "G#4",
          "ticks": 83520,
          "time": 87,
          "velocity": 0.33858267716535434
        },
        {
          "duration": 0.29999999999999716,
          "durationTicks": 288,
          "midi": 71,
          "name": "B4",
          "ticks": 83712,
          "time": 87.2,
          "velocity": 0.33858267716535434
        },
        {
          "duration": 0.29999999999999716,
          "durationTicks": 288,
          "midi": 74,
          "name": "D5",
          "ticks": 84096,
          "time": 87.60000000000001,
          "velocity": 0.33858267716535434
        },
        {
          "duration": 0.7000000000000028,
          "durationTicks": 672,
          "midi": 76,
          "name": "E5",
          "ticks": 84480,
          "time": 88,
          "velocity": 0.33858267716535434
        },
        {
          "duration": 0.29999999999999716,
          "durationTicks": 288,
          "midi": 77,
          "name": "F5",
          "ticks": 85248,
          "time": 88.80000000000001,
          "velocity": 0.33858267716535434
        },
        {
          "duration": 0.29999999999999716,
          "durationTicks": 288,
          "midi": 79,
          "name": "G5",
          "ticks": 85632,
          "time": 89.2,
          "velocity": 0.33858267716535434
        },
        {
          "duration": 0.5,
          "durationTicks": 480,
          "midi": 80,
          "name": "G#5",
          "ticks": 86016,
          "time": 89.60000000000001,
          "velocity": 0.33858267716535434
        },
        {
          "duration": 0.20000000000000284,
          "durationTicks": 192,
          "midi": 72,
          "name": "C5",
          "ticks": 86592,
          "time": 90.2,
          "velocity": 0.33858267716535434
        },
        {
          "duration": 0.7000000000000028,
          "durationTicks": 672,
          "midi": 76,
          "name": "E5",
          "ticks": 86784,
          "time": 90.4,
          "velocity": 0.33858267716535434
        },
        {
          "duration": 0.7000000000000028,
          "durationTicks": 672,
          "midi": 81,
          "name": "A5",
          "ticks": 87552,
          "time": 91.2,
          "velocity": 0.33858267716535434
        },
        {
          "duration": 0.30000000000001137,
          "durationTicks": 288,
          "midi": 74,
          "name": "D5",
          "ticks": 88320,
          "time": 92,
          "velocity": 0.33858267716535434
        },
        {
          "duration": 0.29999999999999716,
          "durationTicks": 288,
          "midi": 72,
          "name": "C5",
          "ticks": 88704,
          "time": 92.4,
          "velocity": 0.33858267716535434
        },
        {
          "duration": 0.29999999999999716,
          "durationTicks": 288,
          "midi": 80,
          "name": "G#5",
          "ticks": 89088,
          "time": 92.80000000000001,
          "velocity": 0.33858267716535434
        },
        {
          "duration": 0.20000000000000284,
          "durationTicks": 192,
          "midi": 76,
          "name": "E5",
          "ticks": 89472,
          "time": 93.2,
          "velocity": 0.33858267716535434
        },
        {
          "duration": 0.20000000000000284,
          "durationTicks": 192,
          "midi": 71,
          "name": "B4",
          "ticks": 89664,
          "time": 93.4,
          "velocity": 0.33858267716535434
        },
        {
          "duration": 0.20000000000000284,
          "durationTicks": 192,
          "midi": 71,
          "name": "B4",
          "ticks": 89856,
          "time": 93.60000000000001,
          "velocity": 0.33858267716535434
        },
        {
          "duration": 0.19999999999998863,
          "durationTicks": 192,
          "midi": 74,
          "name": "D5",
          "ticks": 90048,
          "time": 93.80000000000001,
          "velocity": 0.33858267716535434
        },
        {
          "duration": 0.30000000000001137,
          "durationTicks": 288,
          "midi": 71,
          "name": "B4",
          "ticks": 90240,
          "time": 94,
          "velocity": 0.33858267716535434
        },
        {
          "duration": 1.5,
          "durationTicks": 1440,
          "midi": 71,
          "name": "B4",
          "ticks": 90624,
          "time": 94.4,
          "velocity": 0.33858267716535434
        },
        {
          "duration": 1.5,
          "durationTicks": 1440,
          "midi": 69,
          "name": "A4",
          "ticks": 92160,
          "time": 96,
          "velocity": 0.33858267716535434
        },
        {
          "duration": 0.20000000000000284,
          "durationTicks": 192,
          "midi": 69,
          "name": "A4",
          "ticks": 95232,
          "time": 99.2,
          "velocity": 0.33858267716535434
        },
        {
          "duration": 0.20000000000000284,
          "durationTicks": 192,
          "midi": 76,
          "name": "E5",
          "ticks": 95424,
          "time": 99.4,
          "velocity": 0.33858267716535434
        },
        {
          "duration": 0.20000000000000284,
          "durationTicks": 192,
          "midi": 69,
          "name": "A4",
          "ticks": 95616,
          "time": 99.60000000000001,
          "velocity": 0.33858267716535434
        },
        {
          "duration": 0.19999999999998863,
          "durationTicks": 192,
          "midi": 76,
          "name": "E5",
          "ticks": 95808,
          "time": 99.80000000000001,
          "velocity": 0.33858267716535434
        },
        {
          "duration": 0.20000000000000284,
          "durationTicks": 192,
          "midi": 69,
          "name": "A4",
          "ticks": 96000,
          "time": 100,
          "velocity": 0.33858267716535434
        },
        {
          "duration": 0.20000000000000284,
          "durationTicks": 192,
          "midi": 76,
          "name": "E5",
          "ticks": 96192,
          "time": 100.2,
          "velocity": 0.33858267716535434
        },
        {
          "duration": 0.20000000000000284,
          "durationTicks": 192,
          "midi": 69,
          "name": "A4",
          "ticks": 96384,
          "time": 100.4,
          "velocity": 0.33858267716535434
        },
        {
          "duration": 0.20000000000000284,
          "durationTicks": 192,
          "midi": 76,
          "name": "E5",
          "ticks": 96576,
          "time": 100.60000000000001,
          "velocity": 0.33858267716535434
        },
        {
          "duration": 0.19999999999998863,
          "durationTicks": 192,
          "midi": 68,
          "name": "G#4",
          "ticks": 96768,
          "time": 100.80000000000001,
          "velocity": 0.33858267716535434
        },
        {
          "duration": 0.20000000000000284,
          "durationTicks": 192,
          "midi": 76,
          "name": "E5",
          "ticks": 96960,
          "time": 101,
          "velocity": 0.33858267716535434
        },
        {
          "duration": 0.20000000000000284,
          "durationTicks": 192,
          "midi": 68,
          "name": "G#4",
          "ticks": 97152,
          "time": 101.2,
          "velocity": 0.33858267716535434
        },
        {
          "duration": 0.20000000000000284,
          "durationTicks": 192,
          "midi": 76,
          "name": "E5",
          "ticks": 97344,
          "time": 101.4,
          "velocity": 0.33858267716535434
        },
        {
          "duration": 0.20000000000000284,
          "durationTicks": 192,
          "midi": 68,
          "name": "G#4",
          "ticks": 97536,
          "time": 101.60000000000001,
          "velocity": 0.33858267716535434
        },
        {
          "duration": 0.19999999999998863,
          "durationTicks": 192,
          "midi": 76,
          "name": "E5",
          "ticks": 97728,
          "time": 101.80000000000001,
          "velocity": 0.33858267716535434
        },
        {
          "duration": 0.20000000000000284,
          "durationTicks": 192,
          "midi": 68,
          "name": "G#4",
          "ticks": 97920,
          "time": 102,
          "velocity": 0.33858267716535434
        },
        {
          "duration": 0.20000000000000284,
          "durationTicks": 192,
          "midi": 76,
          "name": "E5",
          "ticks": 98112,
          "time": 102.2,
          "velocity": 0.33858267716535434
        },
        {
          "duration": 0.20000000000000284,
          "durationTicks": 192,
          "midi": 69,
          "name": "A4",
          "ticks": 98304,
          "time": 102.4,
          "velocity": 0.33858267716535434
        },
        {
          "duration": 0.20000000000000284,
          "durationTicks": 192,
          "midi": 76,
          "name": "E5",
          "ticks": 98496,
          "time": 102.60000000000001,
          "velocity": 0.33858267716535434
        },
        {
          "duration": 0.19999999999998863,
          "durationTicks": 192,
          "midi": 69,
          "name": "A4",
          "ticks": 98688,
          "time": 102.80000000000001,
          "velocity": 0.33858267716535434
        },
        {
          "duration": 0.20000000000000284,
          "durationTicks": 192,
          "midi": 76,
          "name": "E5",
          "ticks": 98880,
          "time": 103,
          "velocity": 0.33858267716535434
        },
        {
          "duration": 0.20000000000000284,
          "durationTicks": 192,
          "midi": 69,
          "name": "A4",
          "ticks": 99072,
          "time": 103.2,
          "velocity": 0.33858267716535434
        },
        {
          "duration": 0.20000000000000284,
          "durationTicks": 192,
          "midi": 76,
          "name": "E5",
          "ticks": 99264,
          "time": 103.4,
          "velocity": 0.33858267716535434
        },
        {
          "duration": 0.20000000000000284,
          "durationTicks": 192,
          "midi": 69,
          "name": "A4",
          "ticks": 99456,
          "time": 103.60000000000001,
          "velocity": 0.33858267716535434
        },
        {
          "duration": 0.19999999999998863,
          "durationTicks": 192,
          "midi": 76,
          "name": "E5",
          "ticks": 99648,
          "time": 103.80000000000001,
          "velocity": 0.33858267716535434
        },
        {
          "duration": 0.20000000000000284,
          "durationTicks": 192,
          "midi": 68,
          "name": "G#4",
          "ticks": 99840,
          "time": 104,
          "velocity": 0.33858267716535434
        },
        {
          "duration": 0.20000000000000284,
          "durationTicks": 192,
          "midi": 76,
          "name": "E5",
          "ticks": 100032,
          "time": 104.2,
          "velocity": 0.33858267716535434
        },
        {
          "duration": 0.20000000000000284,
          "durationTicks": 192,
          "midi": 68,
          "name": "G#4",
          "ticks": 100224,
          "time": 104.4,
          "velocity": 0.33858267716535434
        },
        {
          "duration": 0.20000000000000284,
          "durationTicks": 192,
          "midi": 76,
          "name": "E5",
          "ticks": 100416,
          "time": 104.60000000000001,
          "velocity": 0.33858267716535434
        },
        {
          "duration": 0.19999999999998863,
          "durationTicks": 192,
          "midi": 68,
          "name": "G#4",
          "ticks": 100608,
          "time": 104.80000000000001,
          "velocity": 0.33858267716535434
        },
        {
          "duration": 0.20000000000000284,
          "durationTicks": 192,
          "midi": 76,
          "name": "E5",
          "ticks": 100800,
          "time": 105,
          "velocity": 0.33858267716535434
        },
        {
          "duration": 0.20000000000000284,
          "durationTicks": 192,
          "midi": 68,
          "name": "G#4",
          "ticks": 100992,
          "time": 105.2,
          "velocity": 0.33858267716535434
        },
        {
          "duration": 0.20000000000000284,
          "durationTicks": 192,
          "midi": 76,
          "name": "E5",
          "ticks": 101184,
          "time": 105.4,
          "velocity": 0.33858267716535434
        },
        {
          "duration": 0.20000000000000284,
          "durationTicks": 192,
          "midi": 69,
          "name": "A4",
          "ticks": 101376,
          "time": 105.60000000000001,
          "velocity": 0.33858267716535434
        },
        {
          "duration": 0.19999999999998863,
          "durationTicks": 192,
          "midi": 76,
          "name": "E5",
          "ticks": 101568,
          "time": 105.80000000000001,
          "velocity": 0.33858267716535434
        },
        {
          "duration": 0.20000000000000284,
          "durationTicks": 192,
          "midi": 69,
          "name": "A4",
          "ticks": 101760,
          "time": 106,
          "velocity": 0.33858267716535434
        },
        {
          "duration": 0.20000000000000284,
          "durationTicks": 192,
          "midi": 76,
          "name": "E5",
          "ticks": 101952,
          "time": 106.2,
          "velocity": 0.33858267716535434
        },
        {
          "duration": 0.20000000000000284,
          "durationTicks": 192,
          "midi": 69,
          "name": "A4",
          "ticks": 102144,
          "time": 106.4,
          "velocity": 0.33858267716535434
        },
        {
          "duration": 0.20000000000000284,
          "durationTicks": 192,
          "midi": 76,
          "name": "E5",
          "ticks": 102336,
          "time": 106.60000000000001,
          "velocity": 0.33858267716535434
        },
        {
          "duration": 0.19999999999998863,
          "durationTicks": 192,
          "midi": 69,
          "name": "A4",
          "ticks": 102528,
          "time": 106.80000000000001,
          "velocity": 0.33858267716535434
        },
        {
          "duration": 0.20000000000000284,
          "durationTicks": 192,
          "midi": 76,
          "name": "E5",
          "ticks": 102720,
          "time": 107,
          "velocity": 0.33858267716535434
        },
        {
          "duration": 0.20000000000000284,
          "durationTicks": 192,
          "midi": 68,
          "name": "G#4",
          "ticks": 102912,
          "time": 107.2,
          "velocity": 0.33858267716535434
        },
        {
          "duration": 0.20000000000000284,
          "durationTicks": 192,
          "midi": 76,
          "name": "E5",
          "ticks": 103104,
          "time": 107.4,
          "velocity": 0.33858267716535434
        },
        {
          "duration": 0.20000000000000284,
          "durationTicks": 192,
          "midi": 68,
          "name": "G#4",
          "ticks": 103296,
          "time": 107.60000000000001,
          "velocity": 0.33858267716535434
        },
        {
          "duration": 0.19999999999998863,
          "durationTicks": 192,
          "midi": 76,
          "name": "E5",
          "ticks": 103488,
          "time": 107.80000000000001,
          "velocity": 0.33858267716535434
        },
        {
          "duration": 0.20000000000000284,
          "durationTicks": 192,
          "midi": 68,
          "name": "G#4",
          "ticks": 103680,
          "time": 108,
          "velocity": 0.33858267716535434
        },
        {
          "duration": 0.20000000000000284,
          "durationTicks": 192,
          "midi": 76,
          "name": "E5",
          "ticks": 103872,
          "time": 108.2,
          "velocity": 0.33858267716535434
        },
        {
          "duration": 0.20000000000000284,
          "durationTicks": 192,
          "midi": 68,
          "name": "G#4",
          "ticks": 104064,
          "time": 108.4,
          "velocity": 0.33858267716535434
        },
        {
          "duration": 0.20000000000000284,
          "durationTicks": 192,
          "midi": 76,
          "name": "E5",
          "ticks": 104256,
          "time": 108.60000000000001,
          "velocity": 0.33858267716535434
        },
        {
          "duration": 0.19999999999998863,
          "durationTicks": 192,
          "midi": 69,
          "name": "A4",
          "ticks": 104448,
          "time": 108.80000000000001,
          "velocity": 0.33858267716535434
        },
        {
          "duration": 0.20000000000000284,
          "durationTicks": 192,
          "midi": 76,
          "name": "E5",
          "ticks": 104640,
          "time": 109,
          "velocity": 0.33858267716535434
        },
        {
          "duration": 0.20000000000000284,
          "durationTicks": 192,
          "midi": 69,
          "name": "A4",
          "ticks": 104832,
          "time": 109.2,
          "velocity": 0.33858267716535434
        },
        {
          "duration": 0.20000000000000284,
          "durationTicks": 192,
          "midi": 76,
          "name": "E5",
          "ticks": 105024,
          "time": 109.4,
          "velocity": 0.33858267716535434
        },
        {
          "duration": 0.20000000000000284,
          "durationTicks": 192,
          "midi": 69,
          "name": "A4",
          "ticks": 105216,
          "time": 109.60000000000001,
          "velocity": 0.33858267716535434
        },
        {
          "duration": 0.19999999999998863,
          "durationTicks": 192,
          "midi": 76,
          "name": "E5",
          "ticks": 105408,
          "time": 109.80000000000001,
          "velocity": 0.33858267716535434
        },
        {
          "duration": 0.20000000000000284,
          "durationTicks": 192,
          "midi": 69,
          "name": "A4",
          "ticks": 105600,
          "time": 110,
          "velocity": 0.33858267716535434
        },
        {
          "duration": 0.20000000000000284,
          "durationTicks": 192,
          "midi": 76,
          "name": "E5",
          "ticks": 105792,
          "time": 110.2,
          "velocity": 0.33858267716535434
        },
        {
          "duration": 0.20000000000000284,
          "durationTicks": 192,
          "midi": 68,
          "name": "G#4",
          "ticks": 105984,
          "time": 110.4,
          "velocity": 0.33858267716535434
        },
        {
          "duration": 0.20000000000000284,
          "durationTicks": 192,
          "midi": 76,
          "name": "E5",
          "ticks": 106176,
          "time": 110.60000000000001,
          "velocity": 0.33858267716535434
        },
        {
          "duration": 0.19999999999998863,
          "durationTicks": 192,
          "midi": 68,
          "name": "G#4",
          "ticks": 106368,
          "time": 110.80000000000001,
          "velocity": 0.33858267716535434
        },
        {
          "duration": 0.20000000000000284,
          "durationTicks": 192,
          "midi": 76,
          "name": "E5",
          "ticks": 106560,
          "time": 111,
          "velocity": 0.33858267716535434
        },
        {
          "duration": 0.20000000000000284,
          "durationTicks": 192,
          "midi": 68,
          "name": "G#4",
          "ticks": 106752,
          "time": 111.2,
          "velocity": 0.33858267716535434
        },
        {
          "duration": 0.20000000000000284,
          "durationTicks": 192,
          "midi": 76,
          "name": "E5",
          "ticks": 106944,
          "time": 111.4,
          "velocity": 0.33858267716535434
        },
        {
          "duration": 0.20000000000000284,
          "durationTicks": 192,
          "midi": 59,
          "name": "B3",
          "ticks": 107136,
          "time": 111.60000000000001,
          "velocity": 0.33858267716535434
        },
        {
          "duration": 0.20000000000000284,
          "durationTicks": 192,
          "midi": 71,
          "name": "B4",
          "ticks": 107136,
          "time": 111.60000000000001,
          "velocity": 0.33858267716535434
        },
        {
          "duration": 0.19999999999998863,
          "durationTicks": 192,
          "midi": 60,
          "name": "C4",
          "ticks": 107328,
          "time": 111.80000000000001,
          "velocity": 0.33858267716535434
        },
        {
          "duration": 0.19999999999998863,
          "durationTicks": 192,
          "midi": 72,
          "name": "C5",
          "ticks": 107328,
          "time": 111.80000000000001,
          "velocity": 0.33858267716535434
        },
        {
          "duration": 0.20000000000000284,
          "durationTicks": 192,
          "midi": 62,
          "name": "D4",
          "ticks": 107520,
          "time": 112,
          "velocity": 0.33858267716535434
        },
        {
          "duration": 0.20000000000000284,
          "durationTicks": 192,
          "midi": 74,
          "name": "D5",
          "ticks": 107520,
          "time": 112,
          "velocity": 0.33858267716535434
        },
        {
          "duration": 0.20000000000000284,
          "durationTicks": 192,
          "midi": 62,
          "name": "D4",
          "ticks": 107712,
          "time": 112.2,
          "velocity": 0.33858267716535434
        },
        {
          "duration": 0.20000000000000284,
          "durationTicks": 192,
          "midi": 74,
          "name": "D5",
          "ticks": 107712,
          "time": 112.2,
          "velocity": 0.33858267716535434
        },
        {
          "duration": 0.20000000000000284,
          "durationTicks": 192,
          "midi": 62,
          "name": "D4",
          "ticks": 108096,
          "time": 112.60000000000001,
          "velocity": 0.33858267716535434
        },
        {
          "duration": 0.20000000000000284,
          "durationTicks": 192,
          "midi": 74,
          "name": "D5",
          "ticks": 108096,
          "time": 112.60000000000001,
          "velocity": 0.33858267716535434
        },
        {
          "duration": 0.20000000000000284,
          "durationTicks": 192,
          "midi": 65,
          "name": "F4",
          "ticks": 108480,
          "time": 113,
          "velocity": 0.33858267716535434
        },
        {
          "duration": 0.20000000000000284,
          "durationTicks": 192,
          "midi": 77,
          "name": "F5",
          "ticks": 108480,
          "time": 113,
          "velocity": 0.33858267716535434
        },
        {
          "duration": 0.20000000000000284,
          "durationTicks": 192,
          "midi": 62,
          "name": "D4",
          "ticks": 108864,
          "time": 113.4,
          "velocity": 0.33858267716535434
        },
        {
          "duration": 0.20000000000000284,
          "durationTicks": 192,
          "midi": 74,
          "name": "D5",
          "ticks": 108864,
          "time": 113.4,
          "velocity": 0.33858267716535434
        },
        {
          "duration": 0.20000000000000284,
          "durationTicks": 192,
          "midi": 60,
          "name": "C4",
          "ticks": 109056,
          "time": 113.60000000000001,
          "velocity": 0.33858267716535434
        },
        {
          "duration": 0.20000000000000284,
          "durationTicks": 192,
          "midi": 72,
          "name": "C5",
          "ticks": 109056,
          "time": 113.60000000000001,
          "velocity": 0.33858267716535434
        },
        {
          "duration": 0.19999999999998863,
          "durationTicks": 192,
          "midi": 60,
          "name": "C4",
          "ticks": 109248,
          "time": 113.80000000000001,
          "velocity": 0.33858267716535434
        },
        {
          "duration": 0.19999999999998863,
          "durationTicks": 192,
          "midi": 72,
          "name": "C5",
          "ticks": 109248,
          "time": 113.80000000000001,
          "velocity": 0.33858267716535434
        },
        {
          "duration": 0.20000000000000284,
          "durationTicks": 192,
          "midi": 60,
          "name": "C4",
          "ticks": 109632,
          "time": 114.2,
          "velocity": 0.33858267716535434
        },
        {
          "duration": 0.20000000000000284,
          "durationTicks": 192,
          "midi": 72,
          "name": "C5",
          "ticks": 109632,
          "time": 114.2,
          "velocity": 0.33858267716535434
        },
        {
          "duration": 0.20000000000000284,
          "durationTicks": 192,
          "midi": 60,
          "name": "C4",
          "ticks": 109824,
          "time": 114.4,
          "velocity": 0.33858267716535434
        },
        {
          "duration": 0.20000000000000284,
          "durationTicks": 192,
          "midi": 72,
          "name": "C5",
          "ticks": 109824,
          "time": 114.4,
          "velocity": 0.33858267716535434
        },
        {
          "duration": 0.20000000000000284,
          "durationTicks": 192,
          "midi": 55,
          "name": "G3",
          "ticks": 110016,
          "time": 114.60000000000001,
          "velocity": 0.33858267716535434
        },
        {
          "duration": 0.20000000000000284,
          "durationTicks": 192,
          "midi": 67,
          "name": "G4",
          "ticks": 110016,
          "time": 114.60000000000001,
          "velocity": 0.33858267716535434
        },
        {
          "duration": 0.29999999999999716,
          "durationTicks": 288,
          "midi": 55,
          "name": "G3",
          "ticks": 110208,
          "time": 114.80000000000001,
          "velocity": 0.33858267716535434
        },
        {
          "duration": 0.29999999999999716,
          "durationTicks": 288,
          "midi": 67,
          "name": "G4",
          "ticks": 110208,
          "time": 114.80000000000001,
          "velocity": 0.33858267716535434
        },
        {
          "duration": 0.20000000000000284,
          "durationTicks": 192,
          "midi": 59,
          "name": "B3",
          "ticks": 110592,
          "time": 115.2,
          "velocity": 0.33858267716535434
        },
        {
          "duration": 0.20000000000000284,
          "durationTicks": 192,
          "midi": 71,
          "name": "B4",
          "ticks": 110592,
          "time": 115.2,
          "velocity": 0.33858267716535434
        },
        {
          "duration": 0.20000000000000284,
          "durationTicks": 192,
          "midi": 59,
          "name": "B3",
          "ticks": 110784,
          "time": 115.4,
          "velocity": 0.33858267716535434
        },
        {
          "duration": 0.20000000000000284,
          "durationTicks": 192,
          "midi": 71,
          "name": "B4",
          "ticks": 110784,
          "time": 115.4,
          "velocity": 0.33858267716535434
        },
        {
          "duration": 0.19999999999998863,
          "durationTicks": 192,
          "midi": 60,
          "name": "C4",
          "ticks": 111168,
          "time": 115.80000000000001,
          "velocity": 0.33858267716535434
        },
        {
          "duration": 0.19999999999998863,
          "durationTicks": 192,
          "midi": 72,
          "name": "C5",
          "ticks": 111168,
          "time": 115.80000000000001,
          "velocity": 0.33858267716535434
        },
        {
          "duration": 0.20000000000000284,
          "durationTicks": 192,
          "midi": 64,
          "name": "E4",
          "ticks": 111552,
          "time": 116.2,
          "velocity": 0.33858267716535434
        },
        {
          "duration": 0.20000000000000284,
          "durationTicks": 192,
          "midi": 76,
          "name": "E5",
          "ticks": 111552,
          "time": 116.2,
          "velocity": 0.33858267716535434
        },
        {
          "duration": 0.20000000000000284,
          "durationTicks": 192,
          "midi": 68,
          "name": "G#4",
          "ticks": 111936,
          "time": 116.60000000000001,
          "velocity": 0.33858267716535434
        },
        {
          "duration": 0.20000000000000284,
          "durationTicks": 192,
          "midi": 80,
          "name": "G#5",
          "ticks": 111936,
          "time": 116.60000000000001,
          "velocity": 0.33858267716535434
        },
        {
          "duration": 1.5,
          "durationTicks": 1440,
          "midi": 64,
          "name": "E4",
          "ticks": 112128,
          "time": 116.80000000000001,
          "velocity": 0.33858267716535434
        },
        {
          "duration": 1.5,
          "durationTicks": 1440,
          "midi": 76,
          "name": "E5",
          "ticks": 112128,
          "time": 116.80000000000001,
          "velocity": 0.33858267716535434
        },
        {
          "duration": 1.5,
          "durationTicks": 1440,
          "midi": 81,
          "name": "A5",
          "ticks": 112128,
          "time": 116.80000000000001,
          "velocity": 0.33858267716535434
        },
        {
          "duration": 1.5,
          "durationTicks": 1440,
          "midi": 64,
          "name": "E4",
          "ticks": 164352,
          "time": 171.20000000000002,
          "velocity": 0.33858267716535434
        },
        {
          "duration": 1.5,
          "durationTicks": 1440,
          "midi": 76,
          "name": "E5",
          "ticks": 164352,
          "time": 171.20000000000002,
          "velocity": 0.33858267716535434
        },
        {
          "duration": 1.5,
          "durationTicks": 1440,
          "midi": 69,
          "name": "A4",
          "ticks": 165888,
          "time": 172.8,
          "velocity": 0.33858267716535434
        },
        {
          "duration": 1.5,
          "durationTicks": 1440,
          "midi": 81,
          "name": "A5",
          "ticks": 165888,
          "time": 172.8,
          "velocity": 0.33858267716535434
        },
        {
          "duration": 0.700000000000017,
          "durationTicks": 672,
          "midi": 68,
          "name": "G#4",
          "ticks": 167424,
          "time": 174.4,
          "velocity": 0.33858267716535434
        },
        {
          "duration": 0.700000000000017,
          "durationTicks": 672,
          "midi": 80,
          "name": "G#5",
          "ticks": 167424,
          "time": 174.4,
          "velocity": 0.33858267716535434
        },
        {
          "duration": 0.6999999999999886,
          "durationTicks": 672,
          "midi": 64,
          "name": "E4",
          "ticks": 168192,
          "time": 175.20000000000002,
          "velocity": 0.33858267716535434
        },
        {
          "duration": 0.6999999999999886,
          "durationTicks": 672,
          "midi": 76,
          "name": "E5",
          "ticks": 168192,
          "time": 175.20000000000002,
          "velocity": 0.33858267716535434
        },
        {
          "duration": 1.5,
          "durationTicks": 1440,
          "midi": 69,
          "name": "A4",
          "ticks": 168960,
          "time": 176,
          "velocity": 0.33858267716535434
        },
        {
          "duration": 1.5,
          "durationTicks": 1440,
          "midi": 81,
          "name": "A5",
          "ticks": 168960,
          "time": 176,
          "velocity": 0.33858267716535434
        },
        {
          "duration": 0.19999999999998863,
          "durationTicks": 192,
          "midi": 62,
          "name": "D4",
          "ticks": 170496,
          "time": 177.60000000000002,
          "velocity": 0.3937007874015748
        },
        {
          "duration": 0.19999999999998863,
          "durationTicks": 192,
          "midi": 74,
          "name": "D5",
          "ticks": 170496,
          "time": 177.60000000000002,
          "velocity": 0.3937007874015748
        },
        {
          "duration": 0.19999999999998863,
          "durationTicks": 192,
          "midi": 62,
          "name": "D4",
          "ticks": 170688,
          "time": 177.8,
          "velocity": 0.3937007874015748
        },
        {
          "duration": 0.19999999999998863,
          "durationTicks": 192,
          "midi": 74,
          "name": "D5",
          "ticks": 170688,
          "time": 177.8,
          "velocity": 0.3937007874015748
        },
        {
          "duration": 0.19999999999998863,
          "durationTicks": 192,
          "midi": 62,
          "name": "D4",
          "ticks": 171072,
          "time": 178.20000000000002,
          "velocity": 0.3937007874015748
        },
        {
          "duration": 0.19999999999998863,
          "durationTicks": 192,
          "midi": 74,
          "name": "D5",
          "ticks": 171072,
          "time": 178.20000000000002,
          "velocity": 0.3937007874015748
        },
        {
          "duration": 0.19999999999998863,
          "durationTicks": 192,
          "midi": 65,
          "name": "F4",
          "ticks": 171456,
          "time": 178.60000000000002,
          "velocity": 0.3937007874015748
        },
        {
          "duration": 0.19999999999998863,
          "durationTicks": 192,
          "midi": 77,
          "name": "F5",
          "ticks": 171456,
          "time": 178.60000000000002,
          "velocity": 0.3937007874015748
        },
        {
          "duration": 0.20000000000001705,
          "durationTicks": 192,
          "midi": 62,
          "name": "D4",
          "ticks": 171840,
          "time": 179,
          "velocity": 0.3937007874015748
        },
        {
          "duration": 0.20000000000001705,
          "durationTicks": 192,
          "midi": 74,
          "name": "D5",
          "ticks": 171840,
          "time": 179,
          "velocity": 0.3937007874015748
        },
        {
          "duration": 0.19999999999998863,
          "durationTicks": 192,
          "midi": 60,
          "name": "C4",
          "ticks": 172032,
          "time": 179.20000000000002,
          "velocity": 0.3937007874015748
        },
        {
          "duration": 0.19999999999998863,
          "durationTicks": 192,
          "midi": 72,
          "name": "C5",
          "ticks": 172032,
          "time": 179.20000000000002,
          "velocity": 0.3937007874015748
        },
        {
          "duration": 0.20000000000001705,
          "durationTicks": 192,
          "midi": 60,
          "name": "C4",
          "ticks": 172224,
          "time": 179.4,
          "velocity": 0.3937007874015748
        },
        {
          "duration": 0.20000000000001705,
          "durationTicks": 192,
          "midi": 72,
          "name": "C5",
          "ticks": 172224,
          "time": 179.4,
          "velocity": 0.3937007874015748
        },
        {
          "duration": 0.19999999999998863,
          "durationTicks": 192,
          "midi": 60,
          "name": "C4",
          "ticks": 172608,
          "time": 179.8,
          "velocity": 0.3937007874015748
        },
        {
          "duration": 0.19999999999998863,
          "durationTicks": 192,
          "midi": 72,
          "name": "C5",
          "ticks": 172608,
          "time": 179.8,
          "velocity": 0.3937007874015748
        },
        {
          "duration": 0.20000000000001705,
          "durationTicks": 192,
          "midi": 60,
          "name": "C4",
          "ticks": 172800,
          "time": 180,
          "velocity": 0.3937007874015748
        },
        {
          "duration": 0.20000000000001705,
          "durationTicks": 192,
          "midi": 72,
          "name": "C5",
          "ticks": 172800,
          "time": 180,
          "velocity": 0.3937007874015748
        },
        {
          "duration": 0.19999999999998863,
          "durationTicks": 192,
          "midi": 55,
          "name": "G3",
          "ticks": 172992,
          "time": 180.20000000000002,
          "velocity": 0.3937007874015748
        },
        {
          "duration": 0.19999999999998863,
          "durationTicks": 192,
          "midi": 67,
          "name": "G4",
          "ticks": 172992,
          "time": 180.20000000000002,
          "velocity": 0.3937007874015748
        },
        {
          "duration": 0.30000000000001137,
          "durationTicks": 288,
          "midi": 55,
          "name": "G3",
          "ticks": 173184,
          "time": 180.4,
          "velocity": 0.3937007874015748
        },
        {
          "duration": 0.30000000000001137,
          "durationTicks": 288,
          "midi": 67,
          "name": "G4",
          "ticks": 173184,
          "time": 180.4,
          "velocity": 0.3937007874015748
        },
        {
          "duration": 0.19999999999998863,
          "durationTicks": 192,
          "midi": 59,
          "name": "B3",
          "ticks": 173568,
          "time": 180.8,
          "velocity": 0.3937007874015748
        },
        {
          "duration": 0.19999999999998863,
          "durationTicks": 192,
          "midi": 71,
          "name": "B4",
          "ticks": 173568,
          "time": 180.8,
          "velocity": 0.3937007874015748
        },
        {
          "duration": 0.20000000000001705,
          "durationTicks": 192,
          "midi": 59,
          "name": "B3",
          "ticks": 173760,
          "time": 181,
          "velocity": 0.3937007874015748
        },
        {
          "duration": 0.20000000000001705,
          "durationTicks": 192,
          "midi": 71,
          "name": "B4",
          "ticks": 173760,
          "time": 181,
          "velocity": 0.3937007874015748
        },
        {
          "duration": 0.20000000000001705,
          "durationTicks": 192,
          "midi": 60,
          "name": "C4",
          "ticks": 174144,
          "time": 181.4,
          "velocity": 0.3937007874015748
        },
        {
          "duration": 0.20000000000001705,
          "durationTicks": 192,
          "midi": 72,
          "name": "C5",
          "ticks": 174144,
          "time": 181.4,
          "velocity": 0.3937007874015748
        },
        {
          "duration": 0.19999999999998863,
          "durationTicks": 192,
          "midi": 64,
          "name": "E4",
          "ticks": 174528,
          "time": 181.8,
          "velocity": 0.3937007874015748
        },
        {
          "duration": 0.19999999999998863,
          "durationTicks": 192,
          "midi": 76,
          "name": "E5",
          "ticks": 174528,
          "time": 181.8,
          "velocity": 0.3937007874015748
        },
        {
          "duration": 0.19999999999998863,
          "durationTicks": 192,
          "midi": 68,
          "name": "G#4",
          "ticks": 174912,
          "time": 182.20000000000002,
          "velocity": 0.3937007874015748
        },
        {
          "duration": 0.19999999999998863,
          "durationTicks": 192,
          "midi": 80,
          "name": "G#5",
          "ticks": 174912,
          "time": 182.20000000000002,
          "velocity": 0.3937007874015748
        },
        {
          "duration": 1.5,
          "durationTicks": 1440,
          "midi": 64,
          "name": "E4",
          "ticks": 175104,
          "time": 182.4,
          "velocity": 0.3937007874015748
        },
        {
          "duration": 1.5,
          "durationTicks": 1440,
          "midi": 76,
          "name": "E5",
          "ticks": 175104,
          "time": 182.4,
          "velocity": 0.3937007874015748
        },
        {
          "duration": 1.5,
          "durationTicks": 1440,
          "midi": 81,
          "name": "A5",
          "ticks": 175104,
          "time": 182.4,
          "velocity": 0.3937007874015748
        },
        {
          "duration": 0.29999999999998295,
          "durationTicks": 288,
          "midi": 74,
          "name": "D5",
          "ticks": 177792,
          "time": 185.20000000000002,
          "velocity": 0.33858267716535434
        },
        {
          "duration": 0.6999999999999886,
          "durationTicks": 672,
          "midi": 76,
          "name": "E5",
          "ticks": 178176,
          "time": 185.60000000000002,
          "velocity": 0.33858267716535434
        },
        {
          "duration": 0.30000000000001137,
          "durationTicks": 288,
          "midi": 77,
          "name": "F5",
          "ticks": 178944,
          "time": 186.4,
          "velocity": 0.33858267716535434
        },
        {
          "duration": 0.30000000000001137,
          "durationTicks": 288,
          "midi": 79,
          "name": "G5",
          "ticks": 179328,
          "time": 186.8,
          "velocity": 0.33858267716535434
        },
        {
          "duration": 0.5,
          "durationTicks": 480,
          "midi": 77,
          "name": "F5",
          "ticks": 179712,
          "time": 187.20000000000002,
          "velocity": 0.33858267716535434
        },
        {
          "duration": 0.19999999999998863,
          "durationTicks": 192,
          "midi": 72,
          "name": "C5",
          "ticks": 180288,
          "time": 187.8,
          "velocity": 0.33858267716535434
        },
        {
          "duration": 0.700000000000017,
          "durationTicks": 672,
          "midi": 76,
          "name": "E5",
          "ticks": 180480,
          "time": 188,
          "velocity": 0.33858267716535434
        },
        {
          "duration": 0.6999999999999886,
          "durationTicks": 672,
          "midi": 76,
          "name": "E5",
          "ticks": 181248,
          "time": 188.8,
          "velocity": 0.33858267716535434
        },
        {
          "duration": 0.29999999999998295,
          "durationTicks": 288,
          "midi": 74,
          "name": "D5",
          "ticks": 182016,
          "time": 189.60000000000002,
          "velocity": 0.33858267716535434
        },
        {
          "duration": 0.30000000000001137,
          "durationTicks": 288,
          "midi": 72,
          "name": "C5",
          "ticks": 182400,
          "time": 190,
          "velocity": 0.33858267716535434
        },
        {
          "duration": 0.20000000000001705,
          "durationTicks": 192,
          "midi": 71,
          "name": "B4",
          "ticks": 182784,
          "time": 190.4,
          "velocity": 0.33858267716535434
        },
        {
          "duration": 0.19999999999998863,
          "durationTicks": 192,
          "midi": 68,
          "name": "G#4",
          "ticks": 182976,
          "time": 190.60000000000002,
          "velocity": 0.33858267716535434
        },
        {
          "duration": 0.19999999999998863,
          "durationTicks": 192,
          "midi": 71,
          "name": "B4",
          "ticks": 183168,
          "time": 190.8,
          "velocity": 0.33858267716535434
        },
        {
          "duration": 0.20000000000001705,
          "durationTicks": 192,
          "midi": 68,
          "name": "G#4",
          "ticks": 183360,
          "time": 191,
          "velocity": 0.33858267716535434
        },
        {
          "duration": 0.29999999999998295,
          "durationTicks": 288,
          "midi": 71,
          "name": "B4",
          "ticks": 183552,
          "time": 191.20000000000002,
          "velocity": 0.33858267716535434
        },
        {
          "duration": 0.29999999999998295,
          "durationTicks": 288,
          "midi": 74,
          "name": "D5",
          "ticks": 183936,
          "time": 191.60000000000002,
          "velocity": 0.33858267716535434
        },
        {
          "duration": 0.700000000000017,
          "durationTicks": 672,
          "midi": 76,
          "name": "E5",
          "ticks": 184320,
          "time": 192,
          "velocity": 0.33858267716535434
        },
        {
          "duration": 0.30000000000001137,
          "durationTicks": 288,
          "midi": 77,
          "name": "F5",
          "ticks": 185088,
          "time": 192.8,
          "velocity": 0.33858267716535434
        },
        {
          "duration": 0.29999999999998295,
          "durationTicks": 288,
          "midi": 79,
          "name": "G5",
          "ticks": 185472,
          "time": 193.20000000000002,
          "velocity": 0.33858267716535434
        },
        {
          "duration": 0.5,
          "durationTicks": 480,
          "midi": 80,
          "name": "G#5",
          "ticks": 185856,
          "time": 193.60000000000002,
          "velocity": 0.33858267716535434
        },
        {
          "duration": 0.19999999999998863,
          "durationTicks": 192,
          "midi": 72,
          "name": "C5",
          "ticks": 186432,
          "time": 194.20000000000002,
          "velocity": 0.33858267716535434
        },
        {
          "duration": 0.700000000000017,
          "durationTicks": 672,
          "midi": 76,
          "name": "E5",
          "ticks": 186624,
          "time": 194.4,
          "velocity": 0.33858267716535434
        },
        {
          "duration": 0.6999999999999886,
          "durationTicks": 672,
          "midi": 81,
          "name": "A5",
          "ticks": 187392,
          "time": 195.20000000000002,
          "velocity": 0.33858267716535434
        },
        {
          "duration": 0.30000000000001137,
          "durationTicks": 288,
          "midi": 74,
          "name": "D5",
          "ticks": 188160,
          "time": 196,
          "velocity": 0.33858267716535434
        },
        {
          "duration": 0.30000000000001137,
          "durationTicks": 288,
          "midi": 72,
          "name": "C5",
          "ticks": 188544,
          "time": 196.4,
          "velocity": 0.33858267716535434
        },
        {
          "duration": 0.30000000000001137,
          "durationTicks": 288,
          "midi": 80,
          "name": "G#5",
          "ticks": 188928,
          "time": 196.8,
          "velocity": 0.33858267716535434
        },
        {
          "duration": 0.19999999999998863,
          "durationTicks": 192,
          "midi": 76,
          "name": "E5",
          "ticks": 189312,
          "time": 197.20000000000002,
          "velocity": 0.33858267716535434
        },
        {
          "duration": 0.20000000000001705,
          "durationTicks": 192,
          "midi": 71,
          "name": "B4",
          "ticks": 189504,
          "time": 197.4,
          "velocity": 0.33858267716535434
        },
        {
          "duration": 0.19999999999998863,
          "durationTicks": 192,
          "midi": 71,
          "name": "B4",
          "ticks": 189696,
          "time": 197.60000000000002,
          "velocity": 0.33858267716535434
        },
        {
          "duration": 0.19999999999998863,
          "durationTicks": 192,
          "midi": 74,
          "name": "D5",
          "ticks": 189888,
          "time": 197.8,
          "velocity": 0.33858267716535434
        },
        {
          "duration": 0.30000000000001137,
          "durationTicks": 288,
          "midi": 71,
          "name": "B4",
          "ticks": 190080,
          "time": 198,
          "velocity": 0.33858267716535434
        },
        {
          "duration": 1.5,
          "durationTicks": 1440,
          "midi": 71,
          "name": "B4",
          "ticks": 190464,
          "time": 198.4,
          "velocity": 0.33858267716535434
        },
        {
          "duration": 1.5,
          "durationTicks": 1440,
          "midi": 69,
          "name": "A4",
          "ticks": 192000,
          "time": 200,
          "velocity": 0.33858267716535434
        },
        {
          "duration": 0.19999999999998863,
          "durationTicks": 192,
          "midi": 69,
          "name": "A4",
          "ticks": 195072,
          "time": 203.20000000000002,
          "velocity": 0.33858267716535434
        },
        {
          "duration": 0.20000000000001705,
          "durationTicks": 192,
          "midi": 76,
          "name": "E5",
          "ticks": 195264,
          "time": 203.4,
          "velocity": 0.33858267716535434
        },
        {
          "duration": 0.19999999999998863,
          "durationTicks": 192,
          "midi": 69,
          "name": "A4",
          "ticks": 195456,
          "time": 203.60000000000002,
          "velocity": 0.33858267716535434
        },
        {
          "duration": 0.19999999999998863,
          "durationTicks": 192,
          "midi": 76,
          "name": "E5",
          "ticks": 195648,
          "time": 203.8,
          "velocity": 0.33858267716535434
        },
        {
          "duration": 0.20000000000001705,
          "durationTicks": 192,
          "midi": 69,
          "name": "A4",
          "ticks": 195840,
          "time": 204,
          "velocity": 0.33858267716535434
        },
        {
          "duration": 0.19999999999998863,
          "durationTicks": 192,
          "midi": 76,
          "name": "E5",
          "ticks": 196032,
          "time": 204.20000000000002,
          "velocity": 0.33858267716535434
        },
        {
          "duration": 0.20000000000001705,
          "durationTicks": 192,
          "midi": 69,
          "name": "A4",
          "ticks": 196224,
          "time": 204.4,
          "velocity": 0.33858267716535434
        },
        {
          "duration": 0.19999999999998863,
          "durationTicks": 192,
          "midi": 76,
          "name": "E5",
          "ticks": 196416,
          "time": 204.60000000000002,
          "velocity": 0.33858267716535434
        },
        {
          "duration": 0.19999999999998863,
          "durationTicks": 192,
          "midi": 68,
          "name": "G#4",
          "ticks": 196608,
          "time": 204.8,
          "velocity": 0.33858267716535434
        },
        {
          "duration": 0.20000000000001705,
          "durationTicks": 192,
          "midi": 76,
          "name": "E5",
          "ticks": 196800,
          "time": 205,
          "velocity": 0.33858267716535434
        },
        {
          "duration": 0.19999999999998863,
          "durationTicks": 192,
          "midi": 68,
          "name": "G#4",
          "ticks": 196992,
          "time": 205.20000000000002,
          "velocity": 0.33858267716535434
        },
        {
          "duration": 0.20000000000001705,
          "durationTicks": 192,
          "midi": 76,
          "name": "E5",
          "ticks": 197184,
          "time": 205.4,
          "velocity": 0.33858267716535434
        },
        {
          "duration": 0.19999999999998863,
          "durationTicks": 192,
          "midi": 68,
          "name": "G#4",
          "ticks": 197376,
          "time": 205.60000000000002,
          "velocity": 0.33858267716535434
        },
        {
          "duration": 0.19999999999998863,
          "durationTicks": 192,
          "midi": 76,
          "name": "E5",
          "ticks": 197568,
          "time": 205.8,
          "velocity": 0.33858267716535434
        },
        {
          "duration": 0.20000000000001705,
          "durationTicks": 192,
          "midi": 68,
          "name": "G#4",
          "ticks": 197760,
          "time": 206,
          "velocity": 0.33858267716535434
        },
        {
          "duration": 0.19999999999998863,
          "durationTicks": 192,
          "midi": 76,
          "name": "E5",
          "ticks": 197952,
          "time": 206.20000000000002,
          "velocity": 0.33858267716535434
        },
        {
          "duration": 0.20000000000001705,
          "durationTicks": 192,
          "midi": 69,
          "name": "A4",
          "ticks": 198144,
          "time": 206.4,
          "velocity": 0.33858267716535434
        },
        {
          "duration": 0.19999999999998863,
          "durationTicks": 192,
          "midi": 76,
          "name": "E5",
          "ticks": 198336,
          "time": 206.60000000000002,
          "velocity": 0.33858267716535434
        },
        {
          "duration": 0.19999999999998863,
          "durationTicks": 192,
          "midi": 69,
          "name": "A4",
          "ticks": 198528,
          "time": 206.8,
          "velocity": 0.33858267716535434
        },
        {
          "duration": 0.20000000000001705,
          "durationTicks": 192,
          "midi": 76,
          "name": "E5",
          "ticks": 198720,
          "time": 207,
          "velocity": 0.33858267716535434
        },
        {
          "duration": 0.19999999999998863,
          "durationTicks": 192,
          "midi": 69,
          "name": "A4",
          "ticks": 198912,
          "time": 207.20000000000002,
          "velocity": 0.33858267716535434
        },
        {
          "duration": 0.20000000000001705,
          "durationTicks": 192,
          "midi": 76,
          "name": "E5",
          "ticks": 199104,
          "time": 207.4,
          "velocity": 0.33858267716535434
        },
        {
          "duration": 0.19999999999998863,
          "durationTicks": 192,
          "midi": 69,
          "name": "A4",
          "ticks": 199296,
          "time": 207.60000000000002,
          "velocity": 0.33858267716535434
        },
        {
          "duration": 0.19999999999998863,
          "durationTicks": 192,
          "midi": 76,
          "name": "E5",
          "ticks": 199488,
          "time": 207.8,
          "velocity": 0.33858267716535434
        },
        {
          "duration": 0.20000000000001705,
          "durationTicks": 192,
          "midi": 68,
          "name": "G#4",
          "ticks": 199680,
          "time": 208,
          "velocity": 0.33858267716535434
        },
        {
          "duration": 0.19999999999998863,
          "durationTicks": 192,
          "midi": 76,
          "name": "E5",
          "ticks": 199872,
          "time": 208.20000000000002,
          "velocity": 0.33858267716535434
        },
        {
          "duration": 0.20000000000001705,
          "durationTicks": 192,
          "midi": 68,
          "name": "G#4",
          "ticks": 200064,
          "time": 208.4,
          "velocity": 0.33858267716535434
        },
        {
          "duration": 0.19999999999998863,
          "durationTicks": 192,
          "midi": 76,
          "name": "E5",
          "ticks": 200256,
          "time": 208.60000000000002,
          "velocity": 0.33858267716535434
        },
        {
          "duration": 0.19999999999998863,
          "durationTicks": 192,
          "midi": 68,
          "name": "G#4",
          "ticks": 200448,
          "time": 208.8,
          "velocity": 0.33858267716535434
        },
        {
          "duration": 0.20000000000001705,
          "durationTicks": 192,
          "midi": 76,
          "name": "E5",
          "ticks": 200640,
          "time": 209,
          "velocity": 0.33858267716535434
        },
        {
          "duration": 0.19999999999998863,
          "durationTicks": 192,
          "midi": 68,
          "name": "G#4",
          "ticks": 200832,
          "time": 209.20000000000002,
          "velocity": 0.33858267716535434
        },
        {
          "duration": 0.20000000000001705,
          "durationTicks": 192,
          "midi": 76,
          "name": "E5",
          "ticks": 201024,
          "time": 209.4,
          "velocity": 0.33858267716535434
        },
        {
          "duration": 0.19999999999998863,
          "durationTicks": 192,
          "midi": 69,
          "name": "A4",
          "ticks": 201216,
          "time": 209.60000000000002,
          "velocity": 0.33858267716535434
        },
        {
          "duration": 0.19999999999998863,
          "durationTicks": 192,
          "midi": 76,
          "name": "E5",
          "ticks": 201408,
          "time": 209.8,
          "velocity": 0.33858267716535434
        },
        {
          "duration": 0.20000000000001705,
          "durationTicks": 192,
          "midi": 69,
          "name": "A4",
          "ticks": 201600,
          "time": 210,
          "velocity": 0.33858267716535434
        },
        {
          "duration": 0.19999999999998863,
          "durationTicks": 192,
          "midi": 76,
          "name": "E5",
          "ticks": 201792,
          "time": 210.20000000000002,
          "velocity": 0.33858267716535434
        },
        {
          "duration": 0.20000000000001705,
          "durationTicks": 192,
          "midi": 69,
          "name": "A4",
          "ticks": 201984,
          "time": 210.4,
          "velocity": 0.33858267716535434
        },
        {
          "duration": 0.19999999999998863,
          "durationTicks": 192,
          "midi": 76,
          "name": "E5",
          "ticks": 202176,
          "time": 210.60000000000002,
          "velocity": 0.33858267716535434
        },
        {
          "duration": 0.19999999999998863,
          "durationTicks": 192,
          "midi": 69,
          "name": "A4",
          "ticks": 202368,
          "time": 210.8,
          "velocity": 0.33858267716535434
        },
        {
          "duration": 0.20000000000001705,
          "durationTicks": 192,
          "midi": 76,
          "name": "E5",
          "ticks": 202560,
          "time": 211,
          "velocity": 0.33858267716535434
        },
        {
          "duration": 0.19999999999998863,
          "durationTicks": 192,
          "midi": 68,
          "name": "G#4",
          "ticks": 202752,
          "time": 211.20000000000002,
          "velocity": 0.33858267716535434
        },
        {
          "duration": 0.20000000000001705,
          "durationTicks": 192,
          "midi": 76,
          "name": "E5",
          "ticks": 202944,
          "time": 211.4,
          "velocity": 0.33858267716535434
        },
        {
          "duration": 0.19999999999998863,
          "durationTicks": 192,
          "midi": 68,
          "name": "G#4",
          "ticks": 203136,
          "time": 211.60000000000002,
          "velocity": 0.33858267716535434
        },
        {
          "duration": 0.19999999999998863,
          "durationTicks": 192,
          "midi": 76,
          "name": "E5",
          "ticks": 203328,
          "time": 211.8,
          "velocity": 0.33858267716535434
        },
        {
          "duration": 0.20000000000001705,
          "durationTicks": 192,
          "midi": 68,
          "name": "G#4",
          "ticks": 203520,
          "time": 212,
          "velocity": 0.33858267716535434
        },
        {
          "duration": 0.19999999999998863,
          "durationTicks": 192,
          "midi": 76,
          "name": "E5",
          "ticks": 203712,
          "time": 212.20000000000002,
          "velocity": 0.33858267716535434
        },
        {
          "duration": 0.20000000000001705,
          "durationTicks": 192,
          "midi": 68,
          "name": "G#4",
          "ticks": 203904,
          "time": 212.4,
          "velocity": 0.33858267716535434
        },
        {
          "duration": 0.19999999999998863,
          "durationTicks": 192,
          "midi": 76,
          "name": "E5",
          "ticks": 204096,
          "time": 212.60000000000002,
          "velocity": 0.33858267716535434
        },
        {
          "duration": 0.19999999999998863,
          "durationTicks": 192,
          "midi": 69,
          "name": "A4",
          "ticks": 204288,
          "time": 212.8,
          "velocity": 0.33858267716535434
        },
        {
          "duration": 0.20000000000001705,
          "durationTicks": 192,
          "midi": 76,
          "name": "E5",
          "ticks": 204480,
          "time": 213,
          "velocity": 0.33858267716535434
        },
        {
          "duration": 0.19999999999998863,
          "durationTicks": 192,
          "midi": 69,
          "name": "A4",
          "ticks": 204672,
          "time": 213.20000000000002,
          "velocity": 0.33858267716535434
        },
        {
          "duration": 0.20000000000001705,
          "durationTicks": 192,
          "midi": 76,
          "name": "E5",
          "ticks": 204864,
          "time": 213.4,
          "velocity": 0.33858267716535434
        },
        {
          "duration": 0.19999999999998863,
          "durationTicks": 192,
          "midi": 69,
          "name": "A4",
          "ticks": 205056,
          "time": 213.60000000000002,
          "velocity": 0.33858267716535434
        },
        {
          "duration": 0.19999999999998863,
          "durationTicks": 192,
          "midi": 76,
          "name": "E5",
          "ticks": 205248,
          "time": 213.8,
          "velocity": 0.33858267716535434
        },
        {
          "duration": 0.20000000000001705,
          "durationTicks": 192,
          "midi": 69,
          "name": "A4",
          "ticks": 205440,
          "time": 214,
          "velocity": 0.33858267716535434
        },
        {
          "duration": 0.19999999999998863,
          "durationTicks": 192,
          "midi": 76,
          "name": "E5",
          "ticks": 205632,
          "time": 214.20000000000002,
          "velocity": 0.33858267716535434
        },
        {
          "duration": 0.20000000000001705,
          "durationTicks": 192,
          "midi": 68,
          "name": "G#4",
          "ticks": 205824,
          "time": 214.4,
          "velocity": 0.33858267716535434
        },
        {
          "duration": 0.19999999999998863,
          "durationTicks": 192,
          "midi": 76,
          "name": "E5",
          "ticks": 206016,
          "time": 214.60000000000002,
          "velocity": 0.33858267716535434
        },
        {
          "duration": 0.19999999999998863,
          "durationTicks": 192,
          "midi": 68,
          "name": "G#4",
          "ticks": 206208,
          "time": 214.8,
          "velocity": 0.33858267716535434
        },
        {
          "duration": 0.20000000000001705,
          "durationTicks": 192,
          "midi": 76,
          "name": "E5",
          "ticks": 206400,
          "time": 215,
          "velocity": 0.33858267716535434
        },
        {
          "duration": 0.19999999999998863,
          "durationTicks": 192,
          "midi": 68,
          "name": "G#4",
          "ticks": 206592,
          "time": 215.20000000000002,
          "velocity": 0.33858267716535434
        },
        {
          "duration": 0.20000000000001705,
          "durationTicks": 192,
          "midi": 76,
          "name": "E5",
          "ticks": 206784,
          "time": 215.4,
          "velocity": 0.33858267716535434
        },
        {
          "duration": 0.19999999999998863,
          "durationTicks": 192,
          "midi": 59,
          "name": "B3",
          "ticks": 206976,
          "time": 215.60000000000002,
          "velocity": 0.33858267716535434
        },
        {
          "duration": 0.19999999999998863,
          "durationTicks": 192,
          "midi": 71,
          "name": "B4",
          "ticks": 206976,
          "time": 215.60000000000002,
          "velocity": 0.33858267716535434
        },
        {
          "duration": 0.19999999999998863,
          "durationTicks": 192,
          "midi": 60,
          "name": "C4",
          "ticks": 207168,
          "time": 215.8,
          "velocity": 0.33858267716535434
        },
        {
          "duration": 0.19999999999998863,
          "durationTicks": 192,
          "midi": 72,
          "name": "C5",
          "ticks": 207168,
          "time": 215.8,
          "velocity": 0.33858267716535434
        },
        {
          "duration": 1.5,
          "durationTicks": 1440,
          "midi": 57,
          "name": "A3",
          "ticks": 207360,
          "time": 216,
          "velocity": 0.33858267716535434
        },
        {
          "duration": 1.5,
          "durationTicks": 1440,
          "midi": 69,
          "name": "A4",
          "ticks": 207360,
          "time": 216,
          "velocity": 0.33858267716535434
        }
      ],
      "endOfTrackTicks": 208800
    },
    {
      "channel": 3,
      "controlChanges": {},
      "pitchBends": [],
      "instrument": {
        "family": "piano",
        "number": 0,
        "name": "acoustic grand piano"
      },
      "name": "Elec. Piano (Classic)",
      "notes": [
        {
          "duration": 0.1999999999999993,
          "durationTicks": 192,
          "midi": 45,
          "name": "A2",
          "ticks": 12288,
          "time": 12.8,
          "velocity": 0.33858267716535434
        },
        {
          "duration": 0.20000000000000107,
          "durationTicks": 192,
          "midi": 52,
          "name": "E3",
          "ticks": 12480,
          "time": 13,
          "velocity": 0.33858267716535434
        },
        {
          "duration": 0.1999999999999993,
          "durationTicks": 192,
          "midi": 45,
          "name": "A2",
          "ticks": 12672,
          "time": 13.200000000000001,
          "velocity": 0.33858267716535434
        },
        {
          "duration": 0.20000000000000107,
          "durationTicks": 192,
          "midi": 52,
          "name": "E3",
          "ticks": 12864,
          "time": 13.4,
          "velocity": 0.33858267716535434
        },
        {
          "duration": 0.1999999999999993,
          "durationTicks": 192,
          "midi": 45,
          "name": "A2",
          "ticks": 13056,
          "time": 13.600000000000001,
          "velocity": 0.33858267716535434
        },
        {
          "duration": 0.1999999999999993,
          "durationTicks": 192,
          "midi": 52,
          "name": "E3",
          "ticks": 13248,
          "time": 13.8,
          "velocity": 0.33858267716535434
        },
        {
          "duration": 0.20000000000000107,
          "durationTicks": 192,
          "midi": 45,
          "name": "A2",
          "ticks": 13440,
          "time": 14,
          "velocity": 0.33858267716535434
        },
        {
          "duration": 0.1999999999999993,
          "durationTicks": 192,
          "midi": 52,
          "name": "E3",
          "ticks": 13632,
          "time": 14.200000000000001,
          "velocity": 0.33858267716535434
        },
        {
          "duration": 0.20000000000000107,
          "durationTicks": 192,
          "midi": 45,
          "name": "A2",
          "ticks": 13824,
          "time": 14.4,
          "velocity": 0.33858267716535434
        },
        {
          "duration": 0.1999999999999993,
          "durationTicks": 192,
          "midi": 52,
          "name": "E3",
          "ticks": 14016,
          "time": 14.600000000000001,
          "velocity": 0.33858267716535434
        },
        {
          "duration": 0.1999999999999993,
          "durationTicks": 192,
          "midi": 45,
          "name": "A2",
          "ticks": 14208,
          "time": 14.8,
          "velocity": 0.33858267716535434
        },
        {
          "duration": 0.20000000000000107,
          "durationTicks": 192,
          "midi": 52,
          "name": "E3",
          "ticks": 14400,
          "time": 15,
          "velocity": 0.33858267716535434
        },
        {
          "duration": 0.1999999999999993,
          "durationTicks": 192,
          "midi": 45,
          "name": "A2",
          "ticks": 14592,
          "time": 15.200000000000001,
          "velocity": 0.33858267716535434
        },
        {
          "duration": 0.20000000000000107,
          "durationTicks": 192,
          "midi": 52,
          "name": "E3",
          "ticks": 14784,
          "time": 15.4,
          "velocity": 0.33858267716535434
        },
        {
          "duration": 0.1999999999999993,
          "durationTicks": 192,
          "midi": 45,
          "name": "A2",
          "ticks": 14976,
          "time": 15.600000000000001,
          "velocity": 0.33858267716535434
        },
        {
          "duration": 0.1999999999999993,
          "durationTicks": 192,
          "midi": 52,
          "name": "E3",
          "ticks": 15168,
          "time": 15.8,
          "velocity": 0.33858267716535434
        },
        {
          "duration": 0.1999999999999993,
          "durationTicks": 192,
          "midi": 45,
          "name": "A2",
          "ticks": 15360,
          "time": 16,
          "velocity": 0.33858267716535434
        },
        {
          "duration": 0.20000000000000284,
          "durationTicks": 192,
          "midi": 52,
          "name": "E3",
          "ticks": 15552,
          "time": 16.2,
          "velocity": 0.33858267716535434
        },
        {
          "duration": 0.1999999999999993,
          "durationTicks": 192,
          "midi": 45,
          "name": "A2",
          "ticks": 15744,
          "time": 16.400000000000002,
          "velocity": 0.33858267716535434
        },
        {
          "duration": 0.1999999999999993,
          "durationTicks": 192,
          "midi": 52,
          "name": "E3",
          "ticks": 15936,
          "time": 16.6,
          "velocity": 0.33858267716535434
        },
        {
          "duration": 0.1999999999999993,
          "durationTicks": 192,
          "midi": 45,
          "name": "A2",
          "ticks": 16128,
          "time": 16.8,
          "velocity": 0.33858267716535434
        },
        {
          "duration": 0.1999999999999993,
          "durationTicks": 192,
          "midi": 52,
          "name": "E3",
          "ticks": 16320,
          "time": 17,
          "velocity": 0.33858267716535434
        },
        {
          "duration": 0.20000000000000284,
          "durationTicks": 192,
          "midi": 45,
          "name": "A2",
          "ticks": 16512,
          "time": 17.2,
          "velocity": 0.33858267716535434
        },
        {
          "duration": 0.1999999999999993,
          "durationTicks": 192,
          "midi": 52,
          "name": "E3",
          "ticks": 16704,
          "time": 17.400000000000002,
          "velocity": 0.33858267716535434
        },
        {
          "duration": 0.1999999999999993,
          "durationTicks": 192,
          "midi": 44,
          "name": "G#2",
          "ticks": 16896,
          "time": 17.6,
          "velocity": 0.33858267716535434
        },
        {
          "duration": 0.1999999999999993,
          "durationTicks": 192,
          "midi": 52,
          "name": "E3",
          "ticks": 17088,
          "time": 17.8,
          "velocity": 0.33858267716535434
        },
        {
          "duration": 0.1999999999999993,
          "durationTicks": 192,
          "midi": 44,
          "name": "G#2",
          "ticks": 17280,
          "time": 18,
          "velocity": 0.33858267716535434
        },
        {
          "duration": 0.20000000000000284,
          "durationTicks": 192,
          "midi": 52,
          "name": "E3",
          "ticks": 17472,
          "time": 18.2,
          "velocity": 0.33858267716535434
        },
        {
          "duration": 0.1999999999999993,
          "durationTicks": 192,
          "midi": 44,
          "name": "G#2",
          "ticks": 17664,
          "time": 18.400000000000002,
          "velocity": 0.33858267716535434
        },
        {
          "duration": 0.1999999999999993,
          "durationTicks": 192,
          "midi": 52,
          "name": "E3",
          "ticks": 17856,
          "time": 18.6,
          "velocity": 0.33858267716535434
        },
        {
          "duration": 0.1999999999999993,
          "durationTicks": 192,
          "midi": 44,
          "name": "G#2",
          "ticks": 18048,
          "time": 18.8,
          "velocity": 0.33858267716535434
        },
        {
          "duration": 0.20000000000000284,
          "durationTicks": 192,
          "midi": 52,
          "name": "E3",
          "ticks": 18240,
          "time": 19,
          "velocity": 0.33858267716535434
        },
        {
          "duration": 0.1999999999999993,
          "durationTicks": 192,
          "midi": 45,
          "name": "A2",
          "ticks": 18432,
          "time": 19.200000000000003,
          "velocity": 0.33858267716535434
        },
        {
          "duration": 0.1999999999999993,
          "durationTicks": 192,
          "midi": 52,
          "name": "E3",
          "ticks": 18624,
          "time": 19.400000000000002,
          "velocity": 0.33858267716535434
        },
        {
          "duration": 0.1999999999999993,
          "durationTicks": 192,
          "midi": 45,
          "name": "A2",
          "ticks": 18816,
          "time": 19.6,
          "velocity": 0.33858267716535434
        },
        {
          "duration": 0.1999999999999993,
          "durationTicks": 192,
          "midi": 52,
          "name": "E3",
          "ticks": 19008,
          "time": 19.8,
          "velocity": 0.33858267716535434
        },
        {
          "duration": 0.20000000000000284,
          "durationTicks": 192,
          "midi": 45,
          "name": "A2",
          "ticks": 19200,
          "time": 20,
          "velocity": 0.33858267716535434
        },
        {
          "duration": 0.1999999999999993,
          "durationTicks": 192,
          "midi": 52,
          "name": "E3",
          "ticks": 19392,
          "time": 20.200000000000003,
          "velocity": 0.33858267716535434
        },
        {
          "duration": 0.1999999999999993,
          "durationTicks": 192,
          "midi": 45,
          "name": "A2",
          "ticks": 19584,
          "time": 20.400000000000002,
          "velocity": 0.33858267716535434
        },
        {
          "duration": 0.1999999999999993,
          "durationTicks": 192,
          "midi": 52,
          "name": "E3",
          "ticks": 19776,
          "time": 20.6,
          "velocity": 0.33858267716535434
        },
        {
          "duration": 0.1999999999999993,
          "durationTicks": 192,
          "midi": 44,
          "name": "G#2",
          "ticks": 19968,
          "time": 20.8,
          "velocity": 0.33858267716535434
        },
        {
          "duration": 0.20000000000000284,
          "durationTicks": 192,
          "midi": 52,
          "name": "E3",
          "ticks": 20160,
          "time": 21,
          "velocity": 0.33858267716535434
        },
        {
          "duration": 0.1999999999999993,
          "durationTicks": 192,
          "midi": 44,
          "name": "G#2",
          "ticks": 20352,
          "time": 21.200000000000003,
          "velocity": 0.33858267716535434
        },
        {
          "duration": 0.1999999999999993,
          "durationTicks": 192,
          "midi": 52,
          "name": "E3",
          "ticks": 20544,
          "time": 21.400000000000002,
          "velocity": 0.33858267716535434
        },
        {
          "duration": 0.1999999999999993,
          "durationTicks": 192,
          "midi": 44,
          "name": "G#2",
          "ticks": 20736,
          "time": 21.6,
          "velocity": 0.33858267716535434
        },
        {
          "duration": 0.1999999999999993,
          "durationTicks": 192,
          "midi": 52,
          "name": "E3",
          "ticks": 20928,
          "time": 21.8,
          "velocity": 0.33858267716535434
        },
        {
          "duration": 0.20000000000000284,
          "durationTicks": 192,
          "midi": 44,
          "name": "G#2",
          "ticks": 21120,
          "time": 22,
          "velocity": 0.33858267716535434
        },
        {
          "duration": 0.1999999999999993,
          "durationTicks": 192,
          "midi": 52,
          "name": "E3",
          "ticks": 21312,
          "time": 22.200000000000003,
          "velocity": 0.33858267716535434
        },
        {
          "duration": 0.1999999999999993,
          "durationTicks": 192,
          "midi": 45,
          "name": "A2",
          "ticks": 21504,
          "time": 22.400000000000002,
          "velocity": 0.33858267716535434
        },
        {
          "duration": 0.1999999999999993,
          "durationTicks": 192,
          "midi": 52,
          "name": "E3",
          "ticks": 21696,
          "time": 22.6,
          "velocity": 0.33858267716535434
        },
        {
          "duration": 0.1999999999999993,
          "durationTicks": 192,
          "midi": 45,
          "name": "A2",
          "ticks": 21888,
          "time": 22.8,
          "velocity": 0.33858267716535434
        },
        {
          "duration": 0.20000000000000284,
          "durationTicks": 192,
          "midi": 52,
          "name": "E3",
          "ticks": 22080,
          "time": 23,
          "velocity": 0.33858267716535434
        },
        {
          "duration": 0.1999999999999993,
          "durationTicks": 192,
          "midi": 45,
          "name": "A2",
          "ticks": 22272,
          "time": 23.200000000000003,
          "velocity": 0.33858267716535434
        },
        {
          "duration": 0.1999999999999993,
          "durationTicks": 192,
          "midi": 52,
          "name": "E3",
          "ticks": 22464,
          "time": 23.400000000000002,
          "velocity": 0.33858267716535434
        },
        {
          "duration": 0.1999999999999993,
          "durationTicks": 192,
          "midi": 45,
          "name": "A2",
          "ticks": 22656,
          "time": 23.6,
          "velocity": 0.33858267716535434
        },
        {
          "duration": 0.1999999999999993,
          "durationTicks": 192,
          "midi": 52,
          "name": "E3",
          "ticks": 22848,
          "time": 23.8,
          "velocity": 0.33858267716535434
        },
        {
          "duration": 0.20000000000000284,
          "durationTicks": 192,
          "midi": 44,
          "name": "G#2",
          "ticks": 23040,
          "time": 24,
          "velocity": 0.33858267716535434
        },
        {
          "duration": 0.1999999999999993,
          "durationTicks": 192,
          "midi": 52,
          "name": "E3",
          "ticks": 23232,
          "time": 24.200000000000003,
          "velocity": 0.33858267716535434
        },
        {
          "duration": 0.1999999999999993,
          "durationTicks": 192,
          "midi": 44,
          "name": "G#2",
          "ticks": 23424,
          "time": 24.400000000000002,
          "velocity": 0.33858267716535434
        },
        {
          "duration": 0.1999999999999993,
          "durationTicks": 192,
          "midi": 52,
          "name": "E3",
          "ticks": 23616,
          "time": 24.6,
          "velocity": 0.33858267716535434
        },
        {
          "duration": 0.1999999999999993,
          "durationTicks": 192,
          "midi": 44,
          "name": "G#2",
          "ticks": 23808,
          "time": 24.8,
          "velocity": 0.33858267716535434
        },
        {
          "duration": 0.20000000000000284,
          "durationTicks": 192,
          "midi": 52,
          "name": "E3",
          "ticks": 24000,
          "time": 25,
          "velocity": 0.33858267716535434
        },
        {
          "duration": 0.1999999999999993,
          "durationTicks": 192,
          "midi": 44,
          "name": "G#2",
          "ticks": 24192,
          "time": 25.200000000000003,
          "velocity": 0.33858267716535434
        },
        {
          "duration": 0.1999999999999993,
          "durationTicks": 192,
          "midi": 52,
          "name": "E3",
          "ticks": 24384,
          "time": 25.400000000000002,
          "velocity": 0.33858267716535434
        },
        {
          "duration": 0.1999999999999993,
          "durationTicks": 192,
          "midi": 45,
          "name": "A2",
          "ticks": 24576,
          "time": 25.6,
          "velocity": 0.33858267716535434
        },
        {
          "duration": 0.1999999999999993,
          "durationTicks": 192,
          "midi": 52,
          "name": "E3",
          "ticks": 24768,
          "time": 25.8,
          "velocity": 0.33858267716535434
        },
        {
          "duration": 0.20000000000000284,
          "durationTicks": 192,
          "midi": 45,
          "name": "A2",
          "ticks": 24960,
          "time": 26,
          "velocity": 0.33858267716535434
        },
        {
          "duration": 0.1999999999999993,
          "durationTicks": 192,
          "midi": 52,
          "name": "E3",
          "ticks": 25152,
          "time": 26.200000000000003,
          "velocity": 0.33858267716535434
        },
        {
          "duration": 0.1999999999999993,
          "durationTicks": 192,
          "midi": 45,
          "name": "A2",
          "ticks": 25344,
          "time": 26.400000000000002,
          "velocity": 0.33858267716535434
        },
        {
          "duration": 0.1999999999999993,
          "durationTicks": 192,
          "midi": 52,
          "name": "E3",
          "ticks": 25536,
          "time": 26.6,
          "velocity": 0.33858267716535434
        },
        {
          "duration": 0.1999999999999993,
          "durationTicks": 192,
          "midi": 45,
          "name": "A2",
          "ticks": 25728,
          "time": 26.8,
          "velocity": 0.33858267716535434
        },
        {
          "duration": 0.20000000000000284,
          "durationTicks": 192,
          "midi": 52,
          "name": "E3",
          "ticks": 25920,
          "time": 27,
          "velocity": 0.33858267716535434
        },
        {
          "duration": 0.1999999999999993,
          "durationTicks": 192,
          "midi": 44,
          "name": "G#2",
          "ticks": 26112,
          "time": 27.200000000000003,
          "velocity": 0.33858267716535434
        },
        {
          "duration": 0.1999999999999993,
          "durationTicks": 192,
          "midi": 52,
          "name": "E3",
          "ticks": 26304,
          "time": 27.400000000000002,
          "velocity": 0.33858267716535434
        },
        {
          "duration": 0.1999999999999993,
          "durationTicks": 192,
          "midi": 44,
          "name": "G#2",
          "ticks": 26496,
          "time": 27.6,
          "velocity": 0.33858267716535434
        },
        {
          "duration": 0.1999999999999993,
          "durationTicks": 192,
          "midi": 52,
          "name": "E3",
          "ticks": 26688,
          "time": 27.8,
          "velocity": 0.33858267716535434
        },
        {
          "duration": 0.1999999999999993,
          "durationTicks": 192,
          "midi": 40,
          "name": "E2",
          "ticks": 27648,
          "time": 28.8,
          "velocity": 0.33858267716535434
        },
        {
          "duration": 0.20000000000000284,
          "durationTicks": 192,
          "midi": 52,
          "name": "E3",
          "ticks": 27840,
          "time": 29,
          "velocity": 0.33858267716535434
        },
        {
          "duration": 0.1999999999999993,
          "durationTicks": 192,
          "midi": 40,
          "name": "E2",
          "ticks": 28032,
          "time": 29.200000000000003,
          "velocity": 0.33858267716535434
        },
        {
          "duration": 0.1999999999999993,
          "durationTicks": 192,
          "midi": 52,
          "name": "E3",
          "ticks": 28224,
          "time": 29.400000000000002,
          "velocity": 0.33858267716535434
        },
        {
          "duration": 0.1999999999999993,
          "durationTicks": 192,
          "midi": 40,
          "name": "E2",
          "ticks": 28416,
          "time": 29.6,
          "velocity": 0.33858267716535434
        },
        {
          "duration": 0.1999999999999993,
          "durationTicks": 192,
          "midi": 52,
          "name": "E3",
          "ticks": 28608,
          "time": 29.8,
          "velocity": 0.33858267716535434
        },
        {
          "duration": 0.20000000000000284,
          "durationTicks": 192,
          "midi": 40,
          "name": "E2",
          "ticks": 28800,
          "time": 30,
          "velocity": 0.33858267716535434
        },
        {
          "duration": 0.1999999999999993,
          "durationTicks": 192,
          "midi": 52,
          "name": "E3",
          "ticks": 28992,
          "time": 30.200000000000003,
          "velocity": 0.33858267716535434
        },
        {
          "duration": 0.1999999999999993,
          "durationTicks": 192,
          "midi": 45,
          "name": "A2",
          "ticks": 29184,
          "time": 30.400000000000002,
          "velocity": 0.33858267716535434
        },
        {
          "duration": 0.1999999999999993,
          "durationTicks": 192,
          "midi": 57,
          "name": "A3",
          "ticks": 29376,
          "time": 30.6,
          "velocity": 0.33858267716535434
        },
        {
          "duration": 0.1999999999999993,
          "durationTicks": 192,
          "midi": 45,
          "name": "A2",
          "ticks": 29568,
          "time": 30.8,
          "velocity": 0.33858267716535434
        },
        {
          "duration": 0.20000000000000284,
          "durationTicks": 192,
          "midi": 57,
          "name": "A3",
          "ticks": 29760,
          "time": 31,
          "velocity": 0.33858267716535434
        },
        {
          "duration": 0.1999999999999993,
          "durationTicks": 192,
          "midi": 45,
          "name": "A2",
          "ticks": 29952,
          "time": 31.200000000000003,
          "velocity": 0.33858267716535434
        },
        {
          "duration": 0.1999999999999993,
          "durationTicks": 192,
          "midi": 57,
          "name": "A3",
          "ticks": 30144,
          "time": 31.400000000000002,
          "velocity": 0.33858267716535434
        },
        {
          "duration": 0.1999999999999993,
          "durationTicks": 192,
          "midi": 45,
          "name": "A2",
          "ticks": 30336,
          "time": 31.6,
          "velocity": 0.33858267716535434
        },
        {
          "duration": 0.1999999999999993,
          "durationTicks": 192,
          "midi": 57,
          "name": "A3",
          "ticks": 30528,
          "time": 31.8,
          "velocity": 0.33858267716535434
        },
        {
          "duration": 0.20000000000000284,
          "durationTicks": 192,
          "midi": 44,
          "name": "G#2",
          "ticks": 30720,
          "time": 32,
          "velocity": 0.33858267716535434
        },
        {
          "duration": 0.19999999999999574,
          "durationTicks": 192,
          "midi": 56,
          "name": "G#3",
          "ticks": 30912,
          "time": 32.2,
          "velocity": 0.33858267716535434
        },
        {
          "duration": 0.20000000000000284,
          "durationTicks": 192,
          "midi": 44,
          "name": "G#2",
          "ticks": 31104,
          "time": 32.4,
          "velocity": 0.33858267716535434
        },
        {
          "duration": 0.20000000000000284,
          "durationTicks": 192,
          "midi": 56,
          "name": "G#3",
          "ticks": 31296,
          "time": 32.6,
          "velocity": 0.33858267716535434
        },
        {
          "duration": 0.19999999999999574,
          "durationTicks": 192,
          "midi": 40,
          "name": "E2",
          "ticks": 31488,
          "time": 32.800000000000004,
          "velocity": 0.33858267716535434
        },
        {
          "duration": 0.20000000000000284,
          "durationTicks": 192,
          "midi": 52,
          "name": "E3",
          "ticks": 31680,
          "time": 33,
          "velocity": 0.33858267716535434
        },
        {
          "duration": 0.19999999999999574,
          "durationTicks": 192,
          "midi": 40,
          "name": "E2",
          "ticks": 31872,
          "time": 33.2,
          "velocity": 0.33858267716535434
        },
        {
          "duration": 0.20000000000000284,
          "durationTicks": 192,
          "midi": 52,
          "name": "E3",
          "ticks": 32064,
          "time": 33.4,
          "velocity": 0.33858267716535434
        },
        {
          "duration": 0.20000000000000284,
          "durationTicks": 192,
          "midi": 45,
          "name": "A2",
          "ticks": 32256,
          "time": 33.6,
          "velocity": 0.33858267716535434
        },
        {
          "duration": 0.19999999999999574,
          "durationTicks": 192,
          "midi": 57,
          "name": "A3",
          "ticks": 32448,
          "time": 33.800000000000004,
          "velocity": 0.33858267716535434
        },
        {
          "duration": 0.20000000000000284,
          "durationTicks": 192,
          "midi": 45,
          "name": "A2",
          "ticks": 32640,
          "time": 34,
          "velocity": 0.33858267716535434
        },
        {
          "duration": 0.19999999999999574,
          "durationTicks": 192,
          "midi": 57,
          "name": "A3",
          "ticks": 32832,
          "time": 34.2,
          "velocity": 0.33858267716535434
        },
        {
          "duration": 0.20000000000000284,
          "durationTicks": 192,
          "midi": 45,
          "name": "A2",
          "ticks": 33024,
          "time": 34.4,
          "velocity": 0.33858267716535434
        },
        {
          "duration": 0.20000000000000284,
          "durationTicks": 192,
          "midi": 57,
          "name": "A3",
          "ticks": 33216,
          "time": 34.6,
          "velocity": 0.33858267716535434
        },
        {
          "duration": 0.19999999999999574,
          "durationTicks": 192,
          "midi": 47,
          "name": "B2",
          "ticks": 33408,
          "time": 34.800000000000004,
          "velocity": 0.33858267716535434
        },
        {
          "duration": 0.20000000000000284,
          "durationTicks": 192,
          "midi": 48,
          "name": "C3",
          "ticks": 33600,
          "time": 35,
          "velocity": 0.33858267716535434
        },
        {
          "duration": 0.19999999999999574,
          "durationTicks": 192,
          "midi": 50,
          "name": "D3",
          "ticks": 33792,
          "time": 35.2,
          "velocity": 0.33858267716535434
        },
        {
          "duration": 0.20000000000000284,
          "durationTicks": 192,
          "midi": 38,
          "name": "D2",
          "ticks": 33984,
          "time": 35.4,
          "velocity": 0.33858267716535434
        },
        {
          "duration": 0.19999999999999574,
          "durationTicks": 192,
          "midi": 38,
          "name": "D2",
          "ticks": 34368,
          "time": 35.800000000000004,
          "velocity": 0.33858267716535434
        },
        {
          "duration": 0.19999999999999574,
          "durationTicks": 192,
          "midi": 38,
          "name": "D2",
          "ticks": 34752,
          "time": 36.2,
          "velocity": 0.33858267716535434
        },
        {
          "duration": 0.20000000000000284,
          "durationTicks": 192,
          "midi": 45,
          "name": "A2",
          "ticks": 34944,
          "time": 36.4,
          "velocity": 0.33858267716535434
        },
        {
          "duration": 0.20000000000000284,
          "durationTicks": 192,
          "midi": 41,
          "name": "F2",
          "ticks": 35136,
          "time": 36.6,
          "velocity": 0.33858267716535434
        },
        {
          "duration": 0.19999999999999574,
          "durationTicks": 192,
          "midi": 36,
          "name": "C2",
          "ticks": 35328,
          "time": 36.800000000000004,
          "velocity": 0.33858267716535434
        },
        {
          "duration": 0.20000000000000284,
          "durationTicks": 192,
          "midi": 48,
          "name": "C3",
          "ticks": 35520,
          "time": 37,
          "velocity": 0.33858267716535434
        },
        {
          "duration": 0.20000000000000284,
          "durationTicks": 192,
          "midi": 48,
          "name": "C3",
          "ticks": 35904,
          "time": 37.4,
          "velocity": 0.33858267716535434
        },
        {
          "duration": 0.20000000000000284,
          "durationTicks": 192,
          "midi": 36,
          "name": "C2",
          "ticks": 36096,
          "time": 37.6,
          "velocity": 0.33858267716535434
        },
        {
          "duration": 0.19999999999999574,
          "durationTicks": 192,
          "midi": 43,
          "name": "G2",
          "ticks": 36288,
          "time": 37.800000000000004,
          "velocity": 0.33858267716535434
        },
        {
          "duration": 0.30000000000000426,
          "durationTicks": 288,
          "midi": 43,
          "name": "G2",
          "ticks": 36480,
          "time": 38,
          "velocity": 0.33858267716535434
        },
        {
          "duration": 0.19999999999999574,
          "durationTicks": 192,
          "midi": 47,
          "name": "B2",
          "ticks": 36864,
          "time": 38.400000000000006,
          "velocity": 0.33858267716535434
        },
        {
          "duration": 0.20000000000000284,
          "durationTicks": 192,
          "midi": 59,
          "name": "B3",
          "ticks": 37056,
          "time": 38.6,
          "velocity": 0.33858267716535434
        },
        {
          "duration": 0.20000000000000284,
          "durationTicks": 192,
          "midi": 59,
          "name": "B3",
          "ticks": 37440,
          "time": 39,
          "velocity": 0.33858267716535434
        },
        {
          "duration": 0.19999999999999574,
          "durationTicks": 192,
          "midi": 52,
          "name": "E3",
          "ticks": 37824,
          "time": 39.400000000000006,
          "velocity": 0.33858267716535434
        },
        {
          "duration": 0.19999999999999574,
          "durationTicks": 192,
          "midi": 56,
          "name": "G#3",
          "ticks": 38208,
          "time": 39.800000000000004,
          "velocity": 0.33858267716535434
        },
        {
          "duration": 0.20000000000000284,
          "durationTicks": 192,
          "midi": 45,
          "name": "A2",
          "ticks": 38400,
          "time": 40,
          "velocity": 0.33858267716535434
        },
        {
          "duration": 0.20000000000000284,
          "durationTicks": 192,
          "midi": 52,
          "name": "E3",
          "ticks": 38592,
          "time": 40.2,
          "velocity": 0.33858267716535434
        },
        {
          "duration": 0.19999999999999574,
          "durationTicks": 192,
          "midi": 45,
          "name": "A2",
          "ticks": 38784,
          "time": 40.400000000000006,
          "velocity": 0.33858267716535434
        },
        {
          "duration": 0.20000000000000284,
          "durationTicks": 192,
          "midi": 52,
          "name": "E3",
          "ticks": 38976,
          "time": 40.6,
          "velocity": 0.33858267716535434
        },
        {
          "duration": 0.29999999999999716,
          "durationTicks": 288,
          "midi": 45,
          "name": "A2",
          "ticks": 39168,
          "time": 40.800000000000004,
          "velocity": 0.33858267716535434
        },
        {
          "duration": 0.20000000000000284,
          "durationTicks": 192,
          "midi": 40,
          "name": "E2",
          "ticks": 39936,
          "time": 41.6,
          "velocity": 0.33858267716535434
        },
        {
          "duration": 0.19999999999999574,
          "durationTicks": 192,
          "midi": 52,
          "name": "E3",
          "ticks": 40128,
          "time": 41.800000000000004,
          "velocity": 0.33858267716535434
        },
        {
          "duration": 0.20000000000000284,
          "durationTicks": 192,
          "midi": 40,
          "name": "E2",
          "ticks": 40320,
          "time": 42,
          "velocity": 0.33858267716535434
        },
        {
          "duration": 0.20000000000000284,
          "durationTicks": 192,
          "midi": 52,
          "name": "E3",
          "ticks": 40512,
          "time": 42.2,
          "velocity": 0.33858267716535434
        },
        {
          "duration": 0.19999999999999574,
          "durationTicks": 192,
          "midi": 40,
          "name": "E2",
          "ticks": 40704,
          "time": 42.400000000000006,
          "velocity": 0.33858267716535434
        },
        {
          "duration": 0.20000000000000284,
          "durationTicks": 192,
          "midi": 52,
          "name": "E3",
          "ticks": 40896,
          "time": 42.6,
          "velocity": 0.33858267716535434
        },
        {
          "duration": 0.19999999999999574,
          "durationTicks": 192,
          "midi": 40,
          "name": "E2",
          "ticks": 41088,
          "time": 42.800000000000004,
          "velocity": 0.33858267716535434
        },
        {
          "duration": 0.20000000000000284,
          "durationTicks": 192,
          "midi": 52,
          "name": "E3",
          "ticks": 41280,
          "time": 43,
          "velocity": 0.33858267716535434
        },
        {
          "duration": 0.20000000000000284,
          "durationTicks": 192,
          "midi": 45,
          "name": "A2",
          "ticks": 41472,
          "time": 43.2,
          "velocity": 0.33858267716535434
        },
        {
          "duration": 0.19999999999999574,
          "durationTicks": 192,
          "midi": 57,
          "name": "A3",
          "ticks": 41664,
          "time": 43.400000000000006,
          "velocity": 0.33858267716535434
        },
        {
          "duration": 0.20000000000000284,
          "durationTicks": 192,
          "midi": 45,
          "name": "A2",
          "ticks": 41856,
          "time": 43.6,
          "velocity": 0.33858267716535434
        },
        {
          "duration": 0.19999999999999574,
          "durationTicks": 192,
          "midi": 57,
          "name": "A3",
          "ticks": 42048,
          "time": 43.800000000000004,
          "velocity": 0.33858267716535434
        },
        {
          "duration": 0.20000000000000284,
          "durationTicks": 192,
          "midi": 45,
          "name": "A2",
          "ticks": 42240,
          "time": 44,
          "velocity": 0.33858267716535434
        },
        {
          "duration": 0.20000000000000284,
          "durationTicks": 192,
          "midi": 57,
          "name": "A3",
          "ticks": 42432,
          "time": 44.2,
          "velocity": 0.33858267716535434
        },
        {
          "duration": 0.19999999999999574,
          "durationTicks": 192,
          "midi": 45,
          "name": "A2",
          "ticks": 42624,
          "time": 44.400000000000006,
          "velocity": 0.33858267716535434
        },
        {
          "duration": 0.20000000000000284,
          "durationTicks": 192,
          "midi": 57,
          "name": "A3",
          "ticks": 42816,
          "time": 44.6,
          "velocity": 0.33858267716535434
        },
        {
          "duration": 0.19999999999999574,
          "durationTicks": 192,
          "midi": 44,
          "name": "G#2",
          "ticks": 43008,
          "time": 44.800000000000004,
          "velocity": 0.33858267716535434
        },
        {
          "duration": 0.20000000000000284,
          "durationTicks": 192,
          "midi": 56,
          "name": "G#3",
          "ticks": 43200,
          "time": 45,
          "velocity": 0.33858267716535434
        },
        {
          "duration": 0.20000000000000284,
          "durationTicks": 192,
          "midi": 44,
          "name": "G#2",
          "ticks": 43392,
          "time": 45.2,
          "velocity": 0.33858267716535434
        },
        {
          "duration": 0.19999999999999574,
          "durationTicks": 192,
          "midi": 56,
          "name": "G#3",
          "ticks": 43584,
          "time": 45.400000000000006,
          "velocity": 0.33858267716535434
        },
        {
          "duration": 0.20000000000000284,
          "durationTicks": 192,
          "midi": 40,
          "name": "E2",
          "ticks": 43776,
          "time": 45.6,
          "velocity": 0.33858267716535434
        },
        {
          "duration": 0.19999999999999574,
          "durationTicks": 192,
          "midi": 52,
          "name": "E3",
          "ticks": 43968,
          "time": 45.800000000000004,
          "velocity": 0.33858267716535434
        },
        {
          "duration": 0.20000000000000284,
          "durationTicks": 192,
          "midi": 40,
          "name": "E2",
          "ticks": 44160,
          "time": 46,
          "velocity": 0.33858267716535434
        },
        {
          "duration": 0.20000000000000284,
          "durationTicks": 192,
          "midi": 52,
          "name": "E3",
          "ticks": 44352,
          "time": 46.2,
          "velocity": 0.33858267716535434
        },
        {
          "duration": 0.19999999999999574,
          "durationTicks": 192,
          "midi": 45,
          "name": "A2",
          "ticks": 44544,
          "time": 46.400000000000006,
          "velocity": 0.33858267716535434
        },
        {
          "duration": 0.20000000000000284,
          "durationTicks": 192,
          "midi": 57,
          "name": "A3",
          "ticks": 44736,
          "time": 46.6,
          "velocity": 0.33858267716535434
        },
        {
          "duration": 0.19999999999999574,
          "durationTicks": 192,
          "midi": 45,
          "name": "A2",
          "ticks": 44928,
          "time": 46.800000000000004,
          "velocity": 0.33858267716535434
        },
        {
          "duration": 0.20000000000000284,
          "durationTicks": 192,
          "midi": 57,
          "name": "A3",
          "ticks": 45120,
          "time": 47,
          "velocity": 0.33858267716535434
        },
        {
          "duration": 0.20000000000000284,
          "durationTicks": 192,
          "midi": 45,
          "name": "A2",
          "ticks": 45312,
          "time": 47.2,
          "velocity": 0.33858267716535434
        },
        {
          "duration": 0.19999999999999574,
          "durationTicks": 192,
          "midi": 57,
          "name": "A3",
          "ticks": 45504,
          "time": 47.400000000000006,
          "velocity": 0.33858267716535434
        },
        {
          "duration": 0.20000000000000284,
          "durationTicks": 192,
          "midi": 47,
          "name": "B2",
          "ticks": 45696,
          "time": 47.6,
          "velocity": 0.33858267716535434
        },
        {
          "duration": 0.19999999999999574,
          "durationTicks": 192,
          "midi": 48,
          "name": "C3",
          "ticks": 45888,
          "time": 47.800000000000004,
          "velocity": 0.33858267716535434
        },
        {
          "duration": 0.20000000000000284,
          "durationTicks": 192,
          "midi": 50,
          "name": "D3",
          "ticks": 46080,
          "time": 48,
          "velocity": 0.33858267716535434
        },
        {
          "duration": 0.20000000000000284,
          "durationTicks": 192,
          "midi": 38,
          "name": "D2",
          "ticks": 46272,
          "time": 48.2,
          "velocity": 0.33858267716535434
        },
        {
          "duration": 0.20000000000000284,
          "durationTicks": 192,
          "midi": 38,
          "name": "D2",
          "ticks": 46656,
          "time": 48.6,
          "velocity": 0.33858267716535434
        },
        {
          "duration": 0.20000000000000284,
          "durationTicks": 192,
          "midi": 38,
          "name": "D2",
          "ticks": 47040,
          "time": 49,
          "velocity": 0.33858267716535434
        },
        {
          "duration": 0.20000000000000284,
          "durationTicks": 192,
          "midi": 45,
          "name": "A2",
          "ticks": 47232,
          "time": 49.2,
          "velocity": 0.33858267716535434
        },
        {
          "duration": 0.19999999999999574,
          "durationTicks": 192,
          "midi": 41,
          "name": "F2",
          "ticks": 47424,
          "time": 49.400000000000006,
          "velocity": 0.33858267716535434
        },
        {
          "duration": 0.20000000000000284,
          "durationTicks": 192,
          "midi": 36,
          "name": "C2",
          "ticks": 47616,
          "time": 49.6,
          "velocity": 0.33858267716535434
        },
        {
          "duration": 0.19999999999999574,
          "durationTicks": 192,
          "midi": 48,
          "name": "C3",
          "ticks": 47808,
          "time": 49.800000000000004,
          "velocity": 0.33858267716535434
        },
        {
          "duration": 0.20000000000000284,
          "durationTicks": 192,
          "midi": 48,
          "name": "C3",
          "ticks": 48192,
          "time": 50.2,
          "velocity": 0.33858267716535434
        },
        {
          "duration": 0.19999999999999574,
          "durationTicks": 192,
          "midi": 36,
          "name": "C2",
          "ticks": 48384,
          "time": 50.400000000000006,
          "velocity": 0.33858267716535434
        },
        {
          "duration": 0.20000000000000284,
          "durationTicks": 192,
          "midi": 43,
          "name": "G2",
          "ticks": 48576,
          "time": 50.6,
          "velocity": 0.33858267716535434
        },
        {
          "duration": 0.29999999999999716,
          "durationTicks": 288,
          "midi": 43,
          "name": "G2",
          "ticks": 48768,
          "time": 50.800000000000004,
          "velocity": 0.33858267716535434
        },
        {
          "duration": 0.20000000000000284,
          "durationTicks": 192,
          "midi": 47,
          "name": "B2",
          "ticks": 49152,
          "time": 51.2,
          "velocity": 0.33858267716535434
        },
        {
          "duration": 0.19999999999999574,
          "durationTicks": 192,
          "midi": 59,
          "name": "B3",
          "ticks": 49344,
          "time": 51.400000000000006,
          "velocity": 0.33858267716535434
        },
        {
          "duration": 0.19999999999999574,
          "durationTicks": 192,
          "midi": 59,
          "name": "B3",
          "ticks": 49728,
          "time": 51.800000000000004,
          "velocity": 0.33858267716535434
        },
        {
          "duration": 0.20000000000000284,
          "durationTicks": 192,
          "midi": 52,
          "name": "E3",
          "ticks": 50112,
          "time": 52.2,
          "velocity": 0.33858267716535434
        },
        {
          "duration": 0.20000000000000284,
          "durationTicks": 192,
          "midi": 56,
          "name": "G#3",
          "ticks": 50496,
          "time": 52.6,
          "velocity": 0.33858267716535434
        },
        {
          "duration": 0.19999999999999574,
          "durationTicks": 192,
          "midi": 45,
          "name": "A2",
          "ticks": 50688,
          "time": 52.800000000000004,
          "velocity": 0.33858267716535434
        },
        {
          "duration": 0.20000000000000284,
          "durationTicks": 192,
          "midi": 52,
          "name": "E3",
          "ticks": 50880,
          "time": 53,
          "velocity": 0.33858267716535434
        },
        {
          "duration": 0.20000000000000284,
          "durationTicks": 192,
          "midi": 45,
          "name": "A2",
          "ticks": 51072,
          "time": 53.2,
          "velocity": 0.33858267716535434
        },
        {
          "duration": 0.19999999999999574,
          "durationTicks": 192,
          "midi": 52,
          "name": "E3",
          "ticks": 51264,
          "time": 53.400000000000006,
          "velocity": 0.33858267716535434
        },
        {
          "duration": 0.30000000000000426,
          "durationTicks": 288,
          "midi": 45,
          "name": "A2",
          "ticks": 51456,
          "time": 53.6,
          "velocity": 0.33858267716535434
        },
        {
          "duration": 0.19999999999999574,
          "durationTicks": 192,
          "midi": 45,
          "name": "A2",
          "ticks": 52224,
          "time": 54.400000000000006,
          "velocity": 0.33858267716535434
        },
        {
          "duration": 0.20000000000000284,
          "durationTicks": 192,
          "midi": 52,
          "name": "E3",
          "ticks": 52416,
          "time": 54.6,
          "velocity": 0.33858267716535434
        },
        {
          "duration": 0.19999999999999574,
          "durationTicks": 192,
          "midi": 45,
          "name": "A2",
          "ticks": 52608,
          "time": 54.800000000000004,
          "velocity": 0.33858267716535434
        },
        {
          "duration": 0.20000000000000284,
          "durationTicks": 192,
          "midi": 52,
          "name": "E3",
          "ticks": 52800,
          "time": 55,
          "velocity": 0.33858267716535434
        },
        {
          "duration": 0.20000000000000284,
          "durationTicks": 192,
          "midi": 45,
          "name": "A2",
          "ticks": 52992,
          "time": 55.2,
          "velocity": 0.33858267716535434
        },
        {
          "duration": 0.19999999999999574,
          "durationTicks": 192,
          "midi": 52,
          "name": "E3",
          "ticks": 53184,
          "time": 55.400000000000006,
          "velocity": 0.33858267716535434
        },
        {
          "duration": 0.20000000000000284,
          "durationTicks": 192,
          "midi": 45,
          "name": "A2",
          "ticks": 53376,
          "time": 55.6,
          "velocity": 0.33858267716535434
        },
        {
          "duration": 0.19999999999999574,
          "durationTicks": 192,
          "midi": 52,
          "name": "E3",
          "ticks": 53568,
          "time": 55.800000000000004,
          "velocity": 0.33858267716535434
        },
        {
          "duration": 0.20000000000000284,
          "durationTicks": 192,
          "midi": 44,
          "name": "G#2",
          "ticks": 53760,
          "time": 56,
          "velocity": 0.33858267716535434
        },
        {
          "duration": 0.20000000000000284,
          "durationTicks": 192,
          "midi": 52,
          "name": "E3",
          "ticks": 53952,
          "time": 56.2,
          "velocity": 0.33858267716535434
        },
        {
          "duration": 0.19999999999999574,
          "durationTicks": 192,
          "midi": 44,
          "name": "G#2",
          "ticks": 54144,
          "time": 56.400000000000006,
          "velocity": 0.33858267716535434
        },
        {
          "duration": 0.20000000000000284,
          "durationTicks": 192,
          "midi": 52,
          "name": "E3",
          "ticks": 54336,
          "time": 56.6,
          "velocity": 0.33858267716535434
        },
        {
          "duration": 0.19999999999999574,
          "durationTicks": 192,
          "midi": 44,
          "name": "G#2",
          "ticks": 54528,
          "time": 56.800000000000004,
          "velocity": 0.33858267716535434
        },
        {
          "duration": 0.20000000000000284,
          "durationTicks": 192,
          "midi": 52,
          "name": "E3",
          "ticks": 54720,
          "time": 57,
          "velocity": 0.33858267716535434
        },
        {
          "duration": 0.20000000000000284,
          "durationTicks": 192,
          "midi": 44,
          "name": "G#2",
          "ticks": 54912,
          "time": 57.2,
          "velocity": 0.33858267716535434
        },
        {
          "duration": 0.19999999999999574,
          "durationTicks": 192,
          "midi": 52,
          "name": "E3",
          "ticks": 55104,
          "time": 57.400000000000006,
          "velocity": 0.33858267716535434
        },
        {
          "duration": 0.20000000000000284,
          "durationTicks": 192,
          "midi": 45,
          "name": "A2",
          "ticks": 55296,
          "time": 57.6,
          "velocity": 0.33858267716535434
        },
        {
          "duration": 0.19999999999999574,
          "durationTicks": 192,
          "midi": 52,
          "name": "E3",
          "ticks": 55488,
          "time": 57.800000000000004,
          "velocity": 0.33858267716535434
        },
        {
          "duration": 0.20000000000000284,
          "durationTicks": 192,
          "midi": 45,
          "name": "A2",
          "ticks": 55680,
          "time": 58,
          "velocity": 0.33858267716535434
        },
        {
          "duration": 0.20000000000000284,
          "durationTicks": 192,
          "midi": 52,
          "name": "E3",
          "ticks": 55872,
          "time": 58.2,
          "velocity": 0.33858267716535434
        },
        {
          "duration": 0.19999999999999574,
          "durationTicks": 192,
          "midi": 45,
          "name": "A2",
          "ticks": 56064,
          "time": 58.400000000000006,
          "velocity": 0.33858267716535434
        },
        {
          "duration": 0.20000000000000284,
          "durationTicks": 192,
          "midi": 52,
          "name": "E3",
          "ticks": 56256,
          "time": 58.6,
          "velocity": 0.33858267716535434
        },
        {
          "duration": 0.19999999999999574,
          "durationTicks": 192,
          "midi": 45,
          "name": "A2",
          "ticks": 56448,
          "time": 58.800000000000004,
          "velocity": 0.33858267716535434
        },
        {
          "duration": 0.20000000000000284,
          "durationTicks": 192,
          "midi": 52,
          "name": "E3",
          "ticks": 56640,
          "time": 59,
          "velocity": 0.33858267716535434
        },
        {
          "duration": 0.20000000000000284,
          "durationTicks": 192,
          "midi": 44,
          "name": "G#2",
          "ticks": 56832,
          "time": 59.2,
          "velocity": 0.33858267716535434
        },
        {
          "duration": 0.19999999999999574,
          "durationTicks": 192,
          "midi": 52,
          "name": "E3",
          "ticks": 57024,
          "time": 59.400000000000006,
          "velocity": 0.33858267716535434
        },
        {
          "duration": 0.20000000000000284,
          "durationTicks": 192,
          "midi": 44,
          "name": "G#2",
          "ticks": 57216,
          "time": 59.6,
          "velocity": 0.33858267716535434
        },
        {
          "duration": 0.19999999999999574,
          "durationTicks": 192,
          "midi": 52,
          "name": "E3",
          "ticks": 57408,
          "time": 59.800000000000004,
          "velocity": 0.33858267716535434
        },
        {
          "duration": 0.20000000000000284,
          "durationTicks": 192,
          "midi": 44,
          "name": "G#2",
          "ticks": 57600,
          "time": 60,
          "velocity": 0.33858267716535434
        },
        {
          "duration": 0.20000000000000284,
          "durationTicks": 192,
          "midi": 52,
          "name": "E3",
          "ticks": 57792,
          "time": 60.2,
          "velocity": 0.33858267716535434
        },
        {
          "duration": 0.19999999999999574,
          "durationTicks": 192,
          "midi": 44,
          "name": "G#2",
          "ticks": 57984,
          "time": 60.400000000000006,
          "velocity": 0.33858267716535434
        },
        {
          "duration": 0.20000000000000284,
          "durationTicks": 192,
          "midi": 52,
          "name": "E3",
          "ticks": 58176,
          "time": 60.6,
          "velocity": 0.33858267716535434
        },
        {
          "duration": 0.19999999999999574,
          "durationTicks": 192,
          "midi": 45,
          "name": "A2",
          "ticks": 58368,
          "time": 60.800000000000004,
          "velocity": 0.33858267716535434
        },
        {
          "duration": 0.20000000000000284,
          "durationTicks": 192,
          "midi": 52,
          "name": "E3",
          "ticks": 58560,
          "time": 61,
          "velocity": 0.33858267716535434
        },
        {
          "duration": 0.20000000000000284,
          "durationTicks": 192,
          "midi": 45,
          "name": "A2",
          "ticks": 58752,
          "time": 61.2,
          "velocity": 0.33858267716535434
        },
        {
          "duration": 0.19999999999999574,
          "durationTicks": 192,
          "midi": 52,
          "name": "E3",
          "ticks": 58944,
          "time": 61.400000000000006,
          "velocity": 0.33858267716535434
        },
        {
          "duration": 0.20000000000000284,
          "durationTicks": 192,
          "midi": 45,
          "name": "A2",
          "ticks": 59136,
          "time": 61.6,
          "velocity": 0.33858267716535434
        },
        {
          "duration": 0.19999999999999574,
          "durationTicks": 192,
          "midi": 52,
          "name": "E3",
          "ticks": 59328,
          "time": 61.800000000000004,
          "velocity": 0.33858267716535434
        },
        {
          "duration": 0.20000000000000284,
          "durationTicks": 192,
          "midi": 45,
          "name": "A2",
          "ticks": 59520,
          "time": 62,
          "velocity": 0.33858267716535434
        },
        {
          "duration": 0.20000000000000284,
          "durationTicks": 192,
          "midi": 52,
          "name": "E3",
          "ticks": 59712,
          "time": 62.2,
          "velocity": 0.33858267716535434
        },
        {
          "duration": 0.19999999999999574,
          "durationTicks": 192,
          "midi": 44,
          "name": "G#2",
          "ticks": 59904,
          "time": 62.400000000000006,
          "velocity": 0.33858267716535434
        },
        {
          "duration": 0.20000000000000284,
          "durationTicks": 192,
          "midi": 52,
          "name": "E3",
          "ticks": 60096,
          "time": 62.6,
          "velocity": 0.33858267716535434
        },
        {
          "duration": 0.19999999999999574,
          "durationTicks": 192,
          "midi": 44,
          "name": "G#2",
          "ticks": 60288,
          "time": 62.800000000000004,
          "velocity": 0.33858267716535434
        },
        {
          "duration": 0.20000000000000284,
          "durationTicks": 192,
          "midi": 52,
          "name": "E3",
          "ticks": 60480,
          "time": 63,
          "velocity": 0.33858267716535434
        },
        {
          "duration": 0.20000000000000284,
          "durationTicks": 192,
          "midi": 44,
          "name": "G#2",
          "ticks": 60672,
          "time": 63.2,
          "velocity": 0.33858267716535434
        },
        {
          "duration": 0.19999999999999574,
          "durationTicks": 192,
          "midi": 52,
          "name": "E3",
          "ticks": 60864,
          "time": 63.400000000000006,
          "velocity": 0.33858267716535434
        },
        {
          "duration": 0.20000000000000284,
          "durationTicks": 192,
          "midi": 44,
          "name": "G#2",
          "ticks": 61056,
          "time": 63.6,
          "velocity": 0.33858267716535434
        },
        {
          "duration": 0.19999999999999574,
          "durationTicks": 192,
          "midi": 52,
          "name": "E3",
          "ticks": 61248,
          "time": 63.800000000000004,
          "velocity": 0.33858267716535434
        },
        {
          "duration": 0.20000000000000284,
          "durationTicks": 192,
          "midi": 45,
          "name": "A2",
          "ticks": 61440,
          "time": 64,
          "velocity": 0.33858267716535434
        },
        {
          "duration": 0.20000000000000284,
          "durationTicks": 192,
          "midi": 52,
          "name": "E3",
          "ticks": 61632,
          "time": 64.2,
          "velocity": 0.33858267716535434
        },
        {
          "duration": 0.20000000000000284,
          "durationTicks": 192,
          "midi": 45,
          "name": "A2",
          "ticks": 61824,
          "time": 64.4,
          "velocity": 0.33858267716535434
        },
        {
          "duration": 0.19999999999998863,
          "durationTicks": 192,
          "midi": 52,
          "name": "E3",
          "ticks": 62016,
          "time": 64.60000000000001,
          "velocity": 0.33858267716535434
        },
        {
          "duration": 0.20000000000000284,
          "durationTicks": 192,
          "midi": 45,
          "name": "A2",
          "ticks": 62208,
          "time": 64.8,
          "velocity": 0.33858267716535434
        },
        {
          "duration": 0.20000000000000284,
          "durationTicks": 192,
          "midi": 52,
          "name": "E3",
          "ticks": 62400,
          "time": 65,
          "velocity": 0.33858267716535434
        },
        {
          "duration": 0.20000000000000284,
          "durationTicks": 192,
          "midi": 45,
          "name": "A2",
          "ticks": 62592,
          "time": 65.2,
          "velocity": 0.33858267716535434
        },
        {
          "duration": 0.20000000000000284,
          "durationTicks": 192,
          "midi": 52,
          "name": "E3",
          "ticks": 62784,
          "time": 65.4,
          "velocity": 0.33858267716535434
        },
        {
          "duration": 0.19999999999998863,
          "durationTicks": 192,
          "midi": 44,
          "name": "G#2",
          "ticks": 62976,
          "time": 65.60000000000001,
          "velocity": 0.33858267716535434
        },
        {
          "duration": 0.20000000000000284,
          "durationTicks": 192,
          "midi": 52,
          "name": "E3",
          "ticks": 63168,
          "time": 65.8,
          "velocity": 0.33858267716535434
        },
        {
          "duration": 0.20000000000000284,
          "durationTicks": 192,
          "midi": 44,
          "name": "G#2",
          "ticks": 63360,
          "time": 66,
          "velocity": 0.33858267716535434
        },
        {
          "duration": 0.20000000000000284,
          "durationTicks": 192,
          "midi": 52,
          "name": "E3",
          "ticks": 63552,
          "time": 66.2,
          "velocity": 0.33858267716535434
        },
        {
          "duration": 0.20000000000000284,
          "durationTicks": 192,
          "midi": 44,
          "name": "G#2",
          "ticks": 63744,
          "time": 66.4,
          "velocity": 0.3937007874015748
        },
        {
          "duration": 0.20000000000000284,
          "durationTicks": 192,
          "midi": 40,
          "name": "E2",
          "ticks": 64512,
          "time": 67.2,
          "velocity": 0.33858267716535434
        },
        {
          "duration": 0.20000000000000284,
          "durationTicks": 192,
          "midi": 52,
          "name": "E3",
          "ticks": 64704,
          "time": 67.4,
          "velocity": 0.33858267716535434
        },
        {
          "duration": 0.19999999999998863,
          "durationTicks": 192,
          "midi": 40,
          "name": "E2",
          "ticks": 64896,
          "time": 67.60000000000001,
          "velocity": 0.33858267716535434
        },
        {
          "duration": 0.20000000000000284,
          "durationTicks": 192,
          "midi": 52,
          "name": "E3",
          "ticks": 65088,
          "time": 67.8,
          "velocity": 0.33858267716535434
        },
        {
          "duration": 0.20000000000000284,
          "durationTicks": 192,
          "midi": 40,
          "name": "E2",
          "ticks": 65280,
          "time": 68,
          "velocity": 0.33858267716535434
        },
        {
          "duration": 0.20000000000000284,
          "durationTicks": 192,
          "midi": 52,
          "name": "E3",
          "ticks": 65472,
          "time": 68.2,
          "velocity": 0.33858267716535434
        },
        {
          "duration": 0.20000000000000284,
          "durationTicks": 192,
          "midi": 40,
          "name": "E2",
          "ticks": 65664,
          "time": 68.4,
          "velocity": 0.33858267716535434
        },
        {
          "duration": 0.19999999999998863,
          "durationTicks": 192,
          "midi": 52,
          "name": "E3",
          "ticks": 65856,
          "time": 68.60000000000001,
          "velocity": 0.33858267716535434
        },
        {
          "duration": 0.20000000000000284,
          "durationTicks": 192,
          "midi": 45,
          "name": "A2",
          "ticks": 66048,
          "time": 68.8,
          "velocity": 0.33858267716535434
        },
        {
          "duration": 0.20000000000000284,
          "durationTicks": 192,
          "midi": 57,
          "name": "A3",
          "ticks": 66240,
          "time": 69,
          "velocity": 0.33858267716535434
        },
        {
          "duration": 0.20000000000000284,
          "durationTicks": 192,
          "midi": 45,
          "name": "A2",
          "ticks": 66432,
          "time": 69.2,
          "velocity": 0.33858267716535434
        },
        {
          "duration": 0.20000000000000284,
          "durationTicks": 192,
          "midi": 57,
          "name": "A3",
          "ticks": 66624,
          "time": 69.4,
          "velocity": 0.33858267716535434
        },
        {
          "duration": 0.19999999999998863,
          "durationTicks": 192,
          "midi": 45,
          "name": "A2",
          "ticks": 66816,
          "time": 69.60000000000001,
          "velocity": 0.33858267716535434
        },
        {
          "duration": 0.20000000000000284,
          "durationTicks": 192,
          "midi": 57,
          "name": "A3",
          "ticks": 67008,
          "time": 69.8,
          "velocity": 0.33858267716535434
        },
        {
          "duration": 0.20000000000000284,
          "durationTicks": 192,
          "midi": 45,
          "name": "A2",
          "ticks": 67200,
          "time": 70,
          "velocity": 0.33858267716535434
        },
        {
          "duration": 0.20000000000000284,
          "durationTicks": 192,
          "midi": 57,
          "name": "A3",
          "ticks": 67392,
          "time": 70.2,
          "velocity": 0.33858267716535434
        },
        {
          "duration": 0.20000000000000284,
          "durationTicks": 192,
          "midi": 44,
          "name": "G#2",
          "ticks": 67584,
          "time": 70.4,
          "velocity": 0.33858267716535434
        },
        {
          "duration": 0.19999999999998863,
          "durationTicks": 192,
          "midi": 56,
          "name": "G#3",
          "ticks": 67776,
          "time": 70.60000000000001,
          "velocity": 0.33858267716535434
        },
        {
          "duration": 0.20000000000000284,
          "durationTicks": 192,
          "midi": 44,
          "name": "G#2",
          "ticks": 67968,
          "time": 70.8,
          "velocity": 0.33858267716535434
        },
        {
          "duration": 0.20000000000000284,
          "durationTicks": 192,
          "midi": 56,
          "name": "G#3",
          "ticks": 68160,
          "time": 71,
          "velocity": 0.33858267716535434
        },
        {
          "duration": 0.20000000000000284,
          "durationTicks": 192,
          "midi": 40,
          "name": "E2",
          "ticks": 68352,
          "time": 71.2,
          "velocity": 0.33858267716535434
        },
        {
          "duration": 0.20000000000000284,
          "durationTicks": 192,
          "midi": 52,
          "name": "E3",
          "ticks": 68544,
          "time": 71.4,
          "velocity": 0.33858267716535434
        },
        {
          "duration": 0.19999999999998863,
          "durationTicks": 192,
          "midi": 40,
          "name": "E2",
          "ticks": 68736,
          "time": 71.60000000000001,
          "velocity": 0.33858267716535434
        },
        {
          "duration": 0.20000000000000284,
          "durationTicks": 192,
          "midi": 52,
          "name": "E3",
          "ticks": 68928,
          "time": 71.8,
          "velocity": 0.33858267716535434
        },
        {
          "duration": 0.20000000000000284,
          "durationTicks": 192,
          "midi": 45,
          "name": "A2",
          "ticks": 69120,
          "time": 72,
          "velocity": 0.33858267716535434
        },
        {
          "duration": 0.20000000000000284,
          "durationTicks": 192,
          "midi": 57,
          "name": "A3",
          "ticks": 69312,
          "time": 72.2,
          "velocity": 0.33858267716535434
        },
        {
          "duration": 0.20000000000000284,
          "durationTicks": 192,
          "midi": 45,
          "name": "A2",
          "ticks": 69504,
          "time": 72.4,
          "velocity": 0.33858267716535434
        },
        {
          "duration": 0.19999999999998863,
          "durationTicks": 192,
          "midi": 57,
          "name": "A3",
          "ticks": 69696,
          "time": 72.60000000000001,
          "velocity": 0.33858267716535434
        },
        {
          "duration": 0.20000000000000284,
          "durationTicks": 192,
          "midi": 45,
          "name": "A2",
          "ticks": 69888,
          "time": 72.8,
          "velocity": 0.33858267716535434
        },
        {
          "duration": 0.20000000000000284,
          "durationTicks": 192,
          "midi": 57,
          "name": "A3",
          "ticks": 70080,
          "time": 73,
          "velocity": 0.33858267716535434
        },
        {
          "duration": 0.20000000000000284,
          "durationTicks": 192,
          "midi": 47,
          "name": "B2",
          "ticks": 70272,
          "time": 73.2,
          "velocity": 0.33858267716535434
        },
        {
          "duration": 0.20000000000000284,
          "durationTicks": 192,
          "midi": 48,
          "name": "C3",
          "ticks": 70464,
          "time": 73.4,
          "velocity": 0.33858267716535434
        },
        {
          "duration": 0.19999999999998863,
          "durationTicks": 192,
          "midi": 50,
          "name": "D3",
          "ticks": 70656,
          "time": 73.60000000000001,
          "velocity": 0.33858267716535434
        },
        {
          "duration": 0.20000000000000284,
          "durationTicks": 192,
          "midi": 38,
          "name": "D2",
          "ticks": 70848,
          "time": 73.8,
          "velocity": 0.33858267716535434
        },
        {
          "duration": 0.20000000000000284,
          "durationTicks": 192,
          "midi": 38,
          "name": "D2",
          "ticks": 71232,
          "time": 74.2,
          "velocity": 0.33858267716535434
        },
        {
          "duration": 0.19999999999998863,
          "durationTicks": 192,
          "midi": 38,
          "name": "D2",
          "ticks": 71616,
          "time": 74.60000000000001,
          "velocity": 0.33858267716535434
        },
        {
          "duration": 0.20000000000000284,
          "durationTicks": 192,
          "midi": 45,
          "name": "A2",
          "ticks": 71808,
          "time": 74.8,
          "velocity": 0.33858267716535434
        },
        {
          "duration": 0.20000000000000284,
          "durationTicks": 192,
          "midi": 41,
          "name": "F2",
          "ticks": 72000,
          "time": 75,
          "velocity": 0.33858267716535434
        },
        {
          "duration": 0.20000000000000284,
          "durationTicks": 192,
          "midi": 36,
          "name": "C2",
          "ticks": 72192,
          "time": 75.2,
          "velocity": 0.33858267716535434
        },
        {
          "duration": 0.20000000000000284,
          "durationTicks": 192,
          "midi": 48,
          "name": "C3",
          "ticks": 72384,
          "time": 75.4,
          "velocity": 0.33858267716535434
        },
        {
          "duration": 0.20000000000000284,
          "durationTicks": 192,
          "midi": 48,
          "name": "C3",
          "ticks": 72768,
          "time": 75.8,
          "velocity": 0.33858267716535434
        },
        {
          "duration": 0.20000000000000284,
          "durationTicks": 192,
          "midi": 36,
          "name": "C2",
          "ticks": 72960,
          "time": 76,
          "velocity": 0.33858267716535434
        },
        {
          "duration": 0.20000000000000284,
          "durationTicks": 192,
          "midi": 43,
          "name": "G2",
          "ticks": 73152,
          "time": 76.2,
          "velocity": 0.33858267716535434
        },
        {
          "duration": 0.29999999999999716,
          "durationTicks": 288,
          "midi": 43,
          "name": "G2",
          "ticks": 73344,
          "time": 76.4,
          "velocity": 0.33858267716535434
        },
        {
          "duration": 0.19999999999998863,
          "durationTicks": 192,
          "midi": 47,
          "name": "B2",
          "ticks": 73728,
          "time": 76.80000000000001,
          "velocity": 0.33858267716535434
        },
        {
          "duration": 0.20000000000000284,
          "durationTicks": 192,
          "midi": 59,
          "name": "B3",
          "ticks": 73920,
          "time": 77,
          "velocity": 0.33858267716535434
        },
        {
          "duration": 0.20000000000000284,
          "durationTicks": 192,
          "midi": 59,
          "name": "B3",
          "ticks": 74304,
          "time": 77.4,
          "velocity": 0.33858267716535434
        },
        {
          "duration": 0.19999999999998863,
          "durationTicks": 192,
          "midi": 52,
          "name": "E3",
          "ticks": 74688,
          "time": 77.80000000000001,
          "velocity": 0.33858267716535434
        },
        {
          "duration": 0.20000000000000284,
          "durationTicks": 192,
          "midi": 56,
          "name": "G#3",
          "ticks": 75072,
          "time": 78.2,
          "velocity": 0.33858267716535434
        },
        {
          "duration": 0.20000000000000284,
          "durationTicks": 192,
          "midi": 45,
          "name": "A2",
          "ticks": 75264,
          "time": 78.4,
          "velocity": 0.33858267716535434
        },
        {
          "duration": 0.20000000000000284,
          "durationTicks": 192,
          "midi": 52,
          "name": "E3",
          "ticks": 75456,
          "time": 78.60000000000001,
          "velocity": 0.33858267716535434
        },
        {
          "duration": 0.19999999999998863,
          "durationTicks": 192,
          "midi": 45,
          "name": "A2",
          "ticks": 75648,
          "time": 78.80000000000001,
          "velocity": 0.33858267716535434
        },
        {
          "duration": 0.20000000000000284,
          "durationTicks": 192,
          "midi": 52,
          "name": "E3",
          "ticks": 75840,
          "time": 79,
          "velocity": 0.33858267716535434
        },
        {
          "duration": 0.20000000000000284,
          "durationTicks": 192,
          "midi": 45,
          "name": "A2",
          "ticks": 76032,
          "time": 79.2,
          "velocity": 0.33858267716535434
        },
        {
          "duration": 0.20000000000000284,
          "durationTicks": 192,
          "midi": 52,
          "name": "E3",
          "ticks": 76224,
          "time": 79.4,
          "velocity": 0.33858267716535434
        },
        {
          "duration": 0.20000000000000284,
          "durationTicks": 192,
          "midi": 45,
          "name": "A2",
          "ticks": 76416,
          "time": 79.60000000000001,
          "velocity": 0.33858267716535434
        },
        {
          "duration": 0.19999999999998863,
          "durationTicks": 192,
          "midi": 52,
          "name": "E3",
          "ticks": 76608,
          "time": 79.80000000000001,
          "velocity": 0.33858267716535434
        },
        {
          "duration": 0.20000000000000284,
          "durationTicks": 192,
          "midi": 45,
          "name": "A2",
          "ticks": 76800,
          "time": 80,
          "velocity": 0.33858267716535434
        },
        {
          "duration": 0.20000000000000284,
          "durationTicks": 192,
          "midi": 52,
          "name": "E3",
          "ticks": 76992,
          "time": 80.2,
          "velocity": 0.33858267716535434
        },
        {
          "duration": 0.20000000000000284,
          "durationTicks": 192,
          "midi": 45,
          "name": "A2",
          "ticks": 77184,
          "time": 80.4,
          "velocity": 0.33858267716535434
        },
        {
          "duration": 0.20000000000000284,
          "durationTicks": 192,
          "midi": 52,
          "name": "E3",
          "ticks": 77376,
          "time": 80.60000000000001,
          "velocity": 0.33858267716535434
        },
        {
          "duration": 0.19999999999998863,
          "durationTicks": 192,
          "midi": 45,
          "name": "A2",
          "ticks": 77568,
          "time": 80.80000000000001,
          "velocity": 0.33858267716535434
        },
        {
          "duration": 0.20000000000000284,
          "durationTicks": 192,
          "midi": 52,
          "name": "E3",
          "ticks": 77760,
          "time": 81,
          "velocity": 0.33858267716535434
        },
        {
          "duration": 0.20000000000000284,
          "durationTicks": 192,
          "midi": 45,
          "name": "A2",
          "ticks": 77952,
          "time": 81.2,
          "velocity": 0.33858267716535434
        },
        {
          "duration": 0.20000000000000284,
          "durationTicks": 192,
          "midi": 52,
          "name": "E3",
          "ticks": 78144,
          "time": 81.4,
          "velocity": 0.33858267716535434
        },
        {
          "duration": 0.20000000000000284,
          "durationTicks": 192,
          "midi": 45,
          "name": "A2",
          "ticks": 78336,
          "time": 81.60000000000001,
          "velocity": 0.33858267716535434
        },
        {
          "duration": 0.19999999999998863,
          "durationTicks": 192,
          "midi": 52,
          "name": "E3",
          "ticks": 78528,
          "time": 81.80000000000001,
          "velocity": 0.33858267716535434
        },
        {
          "duration": 0.20000000000000284,
          "durationTicks": 192,
          "midi": 45,
          "name": "A2",
          "ticks": 78720,
          "time": 82,
          "velocity": 0.33858267716535434
        },
        {
          "duration": 0.20000000000000284,
          "durationTicks": 192,
          "midi": 52,
          "name": "E3",
          "ticks": 78912,
          "time": 82.2,
          "velocity": 0.33858267716535434
        },
        {
          "duration": 0.20000000000000284,
          "durationTicks": 192,
          "midi": 45,
          "name": "A2",
          "ticks": 79104,
          "time": 82.4,
          "velocity": 0.33858267716535434
        },
        {
          "duration": 0.20000000000000284,
          "durationTicks": 192,
          "midi": 52,
          "name": "E3",
          "ticks": 79296,
          "time": 82.60000000000001,
          "velocity": 0.33858267716535434
        },
        {
          "duration": 0.19999999999998863,
          "durationTicks": 192,
          "midi": 45,
          "name": "A2",
          "ticks": 79488,
          "time": 82.80000000000001,
          "velocity": 0.33858267716535434
        },
        {
          "duration": 0.20000000000000284,
          "durationTicks": 192,
          "midi": 52,
          "name": "E3",
          "ticks": 79680,
          "time": 83,
          "velocity": 0.33858267716535434
        },
        {
          "duration": 0.20000000000000284,
          "durationTicks": 192,
          "midi": 44,
          "name": "G#2",
          "ticks": 79872,
          "time": 83.2,
          "velocity": 0.33858267716535434
        },
        {
          "duration": 0.20000000000000284,
          "durationTicks": 192,
          "midi": 52,
          "name": "E3",
          "ticks": 80064,
          "time": 83.4,
          "velocity": 0.33858267716535434
        },
        {
          "duration": 0.20000000000000284,
          "durationTicks": 192,
          "midi": 44,
          "name": "G#2",
          "ticks": 80256,
          "time": 83.60000000000001,
          "velocity": 0.33858267716535434
        },
        {
          "duration": 0.19999999999998863,
          "durationTicks": 192,
          "midi": 52,
          "name": "E3",
          "ticks": 80448,
          "time": 83.80000000000001,
          "velocity": 0.33858267716535434
        },
        {
          "duration": 0.20000000000000284,
          "durationTicks": 192,
          "midi": 44,
          "name": "G#2",
          "ticks": 80640,
          "time": 84,
          "velocity": 0.33858267716535434
        },
        {
          "duration": 0.20000000000000284,
          "durationTicks": 192,
          "midi": 52,
          "name": "E3",
          "ticks": 80832,
          "time": 84.2,
          "velocity": 0.33858267716535434
        },
        {
          "duration": 0.20000000000000284,
          "durationTicks": 192,
          "midi": 44,
          "name": "G#2",
          "ticks": 81024,
          "time": 84.4,
          "velocity": 0.33858267716535434
        },
        {
          "duration": 0.20000000000000284,
          "durationTicks": 192,
          "midi": 52,
          "name": "E3",
          "ticks": 81216,
          "time": 84.60000000000001,
          "velocity": 0.33858267716535434
        },
        {
          "duration": 0.19999999999998863,
          "durationTicks": 192,
          "midi": 45,
          "name": "A2",
          "ticks": 81408,
          "time": 84.80000000000001,
          "velocity": 0.33858267716535434
        },
        {
          "duration": 0.20000000000000284,
          "durationTicks": 192,
          "midi": 52,
          "name": "E3",
          "ticks": 81600,
          "time": 85,
          "velocity": 0.33858267716535434
        },
        {
          "duration": 0.20000000000000284,
          "durationTicks": 192,
          "midi": 45,
          "name": "A2",
          "ticks": 81792,
          "time": 85.2,
          "velocity": 0.33858267716535434
        },
        {
          "duration": 0.20000000000000284,
          "durationTicks": 192,
          "midi": 52,
          "name": "E3",
          "ticks": 81984,
          "time": 85.4,
          "velocity": 0.33858267716535434
        },
        {
          "duration": 0.20000000000000284,
          "durationTicks": 192,
          "midi": 45,
          "name": "A2",
          "ticks": 82176,
          "time": 85.60000000000001,
          "velocity": 0.33858267716535434
        },
        {
          "duration": 0.19999999999998863,
          "durationTicks": 192,
          "midi": 52,
          "name": "E3",
          "ticks": 82368,
          "time": 85.80000000000001,
          "velocity": 0.33858267716535434
        },
        {
          "duration": 0.20000000000000284,
          "durationTicks": 192,
          "midi": 45,
          "name": "A2",
          "ticks": 82560,
          "time": 86,
          "velocity": 0.33858267716535434
        },
        {
          "duration": 0.20000000000000284,
          "durationTicks": 192,
          "midi": 52,
          "name": "E3",
          "ticks": 82752,
          "time": 86.2,
          "velocity": 0.33858267716535434
        },
        {
          "duration": 0.20000000000000284,
          "durationTicks": 192,
          "midi": 44,
          "name": "G#2",
          "ticks": 82944,
          "time": 86.4,
          "velocity": 0.33858267716535434
        },
        {
          "duration": 0.20000000000000284,
          "durationTicks": 192,
          "midi": 52,
          "name": "E3",
          "ticks": 83136,
          "time": 86.60000000000001,
          "velocity": 0.33858267716535434
        },
        {
          "duration": 0.19999999999998863,
          "durationTicks": 192,
          "midi": 44,
          "name": "G#2",
          "ticks": 83328,
          "time": 86.80000000000001,
          "velocity": 0.33858267716535434
        },
        {
          "duration": 0.20000000000000284,
          "durationTicks": 192,
          "midi": 52,
          "name": "E3",
          "ticks": 83520,
          "time": 87,
          "velocity": 0.33858267716535434
        },
        {
          "duration": 0.20000000000000284,
          "durationTicks": 192,
          "midi": 44,
          "name": "G#2",
          "ticks": 83712,
          "time": 87.2,
          "velocity": 0.33858267716535434
        },
        {
          "duration": 0.20000000000000284,
          "durationTicks": 192,
          "midi": 52,
          "name": "E3",
          "ticks": 83904,
          "time": 87.4,
          "velocity": 0.33858267716535434
        },
        {
          "duration": 0.20000000000000284,
          "durationTicks": 192,
          "midi": 44,
          "name": "G#2",
          "ticks": 84096,
          "time": 87.60000000000001,
          "velocity": 0.33858267716535434
        },
        {
          "duration": 0.19999999999998863,
          "durationTicks": 192,
          "midi": 52,
          "name": "E3",
          "ticks": 84288,
          "time": 87.80000000000001,
          "velocity": 0.33858267716535434
        },
        {
          "duration": 0.20000000000000284,
          "durationTicks": 192,
          "midi": 45,
          "name": "A2",
          "ticks": 84480,
          "time": 88,
          "velocity": 0.33858267716535434
        },
        {
          "duration": 0.20000000000000284,
          "durationTicks": 192,
          "midi": 52,
          "name": "E3",
          "ticks": 84672,
          "time": 88.2,
          "velocity": 0.33858267716535434
        },
        {
          "duration": 0.20000000000000284,
          "durationTicks": 192,
          "midi": 45,
          "name": "A2",
          "ticks": 84864,
          "time": 88.4,
          "velocity": 0.33858267716535434
        },
        {
          "duration": 0.20000000000000284,
          "durationTicks": 192,
          "midi": 52,
          "name": "E3",
          "ticks": 85056,
          "time": 88.60000000000001,
          "velocity": 0.33858267716535434
        },
        {
          "duration": 0.19999999999998863,
          "durationTicks": 192,
          "midi": 45,
          "name": "A2",
          "ticks": 85248,
          "time": 88.80000000000001,
          "velocity": 0.33858267716535434
        },
        {
          "duration": 0.20000000000000284,
          "durationTicks": 192,
          "midi": 52,
          "name": "E3",
          "ticks": 85440,
          "time": 89,
          "velocity": 0.33858267716535434
        },
        {
          "duration": 0.20000000000000284,
          "durationTicks": 192,
          "midi": 45,
          "name": "A2",
          "ticks": 85632,
          "time": 89.2,
          "velocity": 0.33858267716535434
        },
        {
          "duration": 0.20000000000000284,
          "durationTicks": 192,
          "midi": 52,
          "name": "E3",
          "ticks": 85824,
          "time": 89.4,
          "velocity": 0.33858267716535434
        },
        {
          "duration": 0.20000000000000284,
          "durationTicks": 192,
          "midi": 44,
          "name": "G#2",
          "ticks": 86016,
          "time": 89.60000000000001,
          "velocity": 0.33858267716535434
        },
        {
          "duration": 0.19999999999998863,
          "durationTicks": 192,
          "midi": 52,
          "name": "E3",
          "ticks": 86208,
          "time": 89.80000000000001,
          "velocity": 0.33858267716535434
        },
        {
          "duration": 0.20000000000000284,
          "durationTicks": 192,
          "midi": 44,
          "name": "G#2",
          "ticks": 86400,
          "time": 90,
          "velocity": 0.33858267716535434
        },
        {
          "duration": 0.20000000000000284,
          "durationTicks": 192,
          "midi": 52,
          "name": "E3",
          "ticks": 86592,
          "time": 90.2,
          "velocity": 0.33858267716535434
        },
        {
          "duration": 0.20000000000000284,
          "durationTicks": 192,
          "midi": 44,
          "name": "G#2",
          "ticks": 86784,
          "time": 90.4,
          "velocity": 0.33858267716535434
        },
        {
          "duration": 0.20000000000000284,
          "durationTicks": 192,
          "midi": 52,
          "name": "E3",
          "ticks": 86976,
          "time": 90.60000000000001,
          "velocity": 0.33858267716535434
        },
        {
          "duration": 0.19999999999998863,
          "durationTicks": 192,
          "midi": 44,
          "name": "G#2",
          "ticks": 87168,
          "time": 90.80000000000001,
          "velocity": 0.33858267716535434
        },
        {
          "duration": 0.20000000000000284,
          "durationTicks": 192,
          "midi": 52,
          "name": "E3",
          "ticks": 87360,
          "time": 91,
          "velocity": 0.33858267716535434
        },
        {
          "duration": 0.20000000000000284,
          "durationTicks": 192,
          "midi": 45,
          "name": "A2",
          "ticks": 87552,
          "time": 91.2,
          "velocity": 0.33858267716535434
        },
        {
          "duration": 0.20000000000000284,
          "durationTicks": 192,
          "midi": 52,
          "name": "E3",
          "ticks": 87744,
          "time": 91.4,
          "velocity": 0.33858267716535434
        },
        {
          "duration": 0.20000000000000284,
          "durationTicks": 192,
          "midi": 45,
          "name": "A2",
          "ticks": 87936,
          "time": 91.60000000000001,
          "velocity": 0.33858267716535434
        },
        {
          "duration": 0.19999999999998863,
          "durationTicks": 192,
          "midi": 52,
          "name": "E3",
          "ticks": 88128,
          "time": 91.80000000000001,
          "velocity": 0.33858267716535434
        },
        {
          "duration": 0.20000000000000284,
          "durationTicks": 192,
          "midi": 45,
          "name": "A2",
          "ticks": 88320,
          "time": 92,
          "velocity": 0.33858267716535434
        },
        {
          "duration": 0.20000000000000284,
          "durationTicks": 192,
          "midi": 52,
          "name": "E3",
          "ticks": 88512,
          "time": 92.2,
          "velocity": 0.33858267716535434
        },
        {
          "duration": 0.20000000000000284,
          "durationTicks": 192,
          "midi": 45,
          "name": "A2",
          "ticks": 88704,
          "time": 92.4,
          "velocity": 0.33858267716535434
        },
        {
          "duration": 0.20000000000000284,
          "durationTicks": 192,
          "midi": 52,
          "name": "E3",
          "ticks": 88896,
          "time": 92.60000000000001,
          "velocity": 0.33858267716535434
        },
        {
          "duration": 0.19999999999998863,
          "durationTicks": 192,
          "midi": 44,
          "name": "G#2",
          "ticks": 89088,
          "time": 92.80000000000001,
          "velocity": 0.33858267716535434
        },
        {
          "duration": 0.20000000000000284,
          "durationTicks": 192,
          "midi": 52,
          "name": "E3",
          "ticks": 89280,
          "time": 93,
          "velocity": 0.33858267716535434
        },
        {
          "duration": 0.20000000000000284,
          "durationTicks": 192,
          "midi": 44,
          "name": "G#2",
          "ticks": 89472,
          "time": 93.2,
          "velocity": 0.33858267716535434
        },
        {
          "duration": 0.20000000000000284,
          "durationTicks": 192,
          "midi": 52,
          "name": "E3",
          "ticks": 89664,
          "time": 93.4,
          "velocity": 0.33858267716535434
        },
        {
          "duration": 0.20000000000000284,
          "durationTicks": 192,
          "midi": 44,
          "name": "G#2",
          "ticks": 89856,
          "time": 93.60000000000001,
          "velocity": 0.33858267716535434
        },
        {
          "duration": 0.19999999999998863,
          "durationTicks": 192,
          "midi": 52,
          "name": "E3",
          "ticks": 90048,
          "time": 93.80000000000001,
          "velocity": 0.33858267716535434
        },
        {
          "duration": 0.20000000000000284,
          "durationTicks": 192,
          "midi": 44,
          "name": "G#2",
          "ticks": 90240,
          "time": 94,
          "velocity": 0.33858267716535434
        },
        {
          "duration": 0.20000000000000284,
          "durationTicks": 192,
          "midi": 52,
          "name": "E3",
          "ticks": 90432,
          "time": 94.2,
          "velocity": 0.33858267716535434
        },
        {
          "duration": 0.20000000000000284,
          "durationTicks": 192,
          "midi": 45,
          "name": "A2",
          "ticks": 90624,
          "time": 94.4,
          "velocity": 0.33858267716535434
        },
        {
          "duration": 0.20000000000000284,
          "durationTicks": 192,
          "midi": 52,
          "name": "E3",
          "ticks": 90816,
          "time": 94.60000000000001,
          "velocity": 0.33858267716535434
        },
        {
          "duration": 0.19999999999998863,
          "durationTicks": 192,
          "midi": 45,
          "name": "A2",
          "ticks": 91008,
          "time": 94.80000000000001,
          "velocity": 0.33858267716535434
        },
        {
          "duration": 0.20000000000000284,
          "durationTicks": 192,
          "midi": 52,
          "name": "E3",
          "ticks": 91200,
          "time": 95,
          "velocity": 0.33858267716535434
        },
        {
          "duration": 0.20000000000000284,
          "durationTicks": 192,
          "midi": 45,
          "name": "A2",
          "ticks": 91392,
          "time": 95.2,
          "velocity": 0.33858267716535434
        },
        {
          "duration": 0.20000000000000284,
          "durationTicks": 192,
          "midi": 52,
          "name": "E3",
          "ticks": 91584,
          "time": 95.4,
          "velocity": 0.33858267716535434
        },
        {
          "duration": 0.20000000000000284,
          "durationTicks": 192,
          "midi": 45,
          "name": "A2",
          "ticks": 91776,
          "time": 95.60000000000001,
          "velocity": 0.33858267716535434
        },
        {
          "duration": 0.19999999999998863,
          "durationTicks": 192,
          "midi": 52,
          "name": "E3",
          "ticks": 91968,
          "time": 95.80000000000001,
          "velocity": 0.33858267716535434
        },
        {
          "duration": 0.20000000000000284,
          "durationTicks": 192,
          "midi": 45,
          "name": "A2",
          "ticks": 92160,
          "time": 96,
          "velocity": 0.33858267716535434
        },
        {
          "duration": 0.20000000000000284,
          "durationTicks": 192,
          "midi": 52,
          "name": "E3",
          "ticks": 92352,
          "time": 96.2,
          "velocity": 0.33858267716535434
        },
        {
          "duration": 0.20000000000000284,
          "durationTicks": 192,
          "midi": 45,
          "name": "A2",
          "ticks": 92544,
          "time": 96.4,
          "velocity": 0.33858267716535434
        },
        {
          "duration": 0.20000000000000284,
          "durationTicks": 192,
          "midi": 52,
          "name": "E3",
          "ticks": 92736,
          "time": 96.60000000000001,
          "velocity": 0.33858267716535434
        },
        {
          "duration": 0.19999999999998863,
          "durationTicks": 192,
          "midi": 45,
          "name": "A2",
          "ticks": 92928,
          "time": 96.80000000000001,
          "velocity": 0.33858267716535434
        },
        {
          "duration": 0.20000000000000284,
          "durationTicks": 192,
          "midi": 52,
          "name": "E3",
          "ticks": 93120,
          "time": 97,
          "velocity": 0.33858267716535434
        },
        {
          "duration": 0.20000000000000284,
          "durationTicks": 192,
          "midi": 45,
          "name": "A2",
          "ticks": 93312,
          "time": 97.2,
          "velocity": 0.33858267716535434
        },
        {
          "duration": 0.20000000000000284,
          "durationTicks": 192,
          "midi": 52,
          "name": "E3",
          "ticks": 93504,
          "time": 97.4,
          "velocity": 0.33858267716535434
        },
        {
          "duration": 0.20000000000000284,
          "durationTicks": 192,
          "midi": 45,
          "name": "A2",
          "ticks": 93696,
          "time": 97.60000000000001,
          "velocity": 0.33858267716535434
        },
        {
          "duration": 0.19999999999998863,
          "durationTicks": 192,
          "midi": 52,
          "name": "E3",
          "ticks": 93888,
          "time": 97.80000000000001,
          "velocity": 0.33858267716535434
        },
        {
          "duration": 0.20000000000000284,
          "durationTicks": 192,
          "midi": 45,
          "name": "A2",
          "ticks": 94080,
          "time": 98,
          "velocity": 0.33858267716535434
        },
        {
          "duration": 0.20000000000000284,
          "durationTicks": 192,
          "midi": 52,
          "name": "E3",
          "ticks": 94272,
          "time": 98.2,
          "velocity": 0.33858267716535434
        },
        {
          "duration": 0.20000000000000284,
          "durationTicks": 192,
          "midi": 45,
          "name": "A2",
          "ticks": 94464,
          "time": 98.4,
          "velocity": 0.33858267716535434
        },
        {
          "duration": 0.20000000000000284,
          "durationTicks": 192,
          "midi": 52,
          "name": "E3",
          "ticks": 94656,
          "time": 98.60000000000001,
          "velocity": 0.33858267716535434
        },
        {
          "duration": 0.19999999999998863,
          "durationTicks": 192,
          "midi": 45,
          "name": "A2",
          "ticks": 94848,
          "time": 98.80000000000001,
          "velocity": 0.33858267716535434
        },
        {
          "duration": 0.20000000000000284,
          "durationTicks": 192,
          "midi": 52,
          "name": "E3",
          "ticks": 95040,
          "time": 99,
          "velocity": 0.33858267716535434
        },
        {
          "duration": 0.20000000000000284,
          "durationTicks": 192,
          "midi": 45,
          "name": "A2",
          "ticks": 95232,
          "time": 99.2,
          "velocity": 0.33858267716535434
        },
        {
          "duration": 0.20000000000000284,
          "durationTicks": 192,
          "midi": 52,
          "name": "E3",
          "ticks": 95424,
          "time": 99.4,
          "velocity": 0.33858267716535434
        },
        {
          "duration": 0.20000000000000284,
          "durationTicks": 192,
          "midi": 45,
          "name": "A2",
          "ticks": 95616,
          "time": 99.60000000000001,
          "velocity": 0.33858267716535434
        },
        {
          "duration": 0.19999999999998863,
          "durationTicks": 192,
          "midi": 52,
          "name": "E3",
          "ticks": 95808,
          "time": 99.80000000000001,
          "velocity": 0.33858267716535434
        },
        {
          "duration": 0.20000000000000284,
          "durationTicks": 192,
          "midi": 45,
          "name": "A2",
          "ticks": 96000,
          "time": 100,
          "velocity": 0.33858267716535434
        },
        {
          "duration": 0.20000000000000284,
          "durationTicks": 192,
          "midi": 52,
          "name": "E3",
          "ticks": 96192,
          "time": 100.2,
          "velocity": 0.33858267716535434
        },
        {
          "duration": 0.20000000000000284,
          "durationTicks": 192,
          "midi": 45,
          "name": "A2",
          "ticks": 96384,
          "time": 100.4,
          "velocity": 0.33858267716535434
        },
        {
          "duration": 0.20000000000000284,
          "durationTicks": 192,
          "midi": 52,
          "name": "E3",
          "ticks": 96576,
          "time": 100.60000000000001,
          "velocity": 0.33858267716535434
        },
        {
          "duration": 0.19999999999998863,
          "durationTicks": 192,
          "midi": 44,
          "name": "G#2",
          "ticks": 96768,
          "time": 100.80000000000001,
          "velocity": 0.33858267716535434
        },
        {
          "duration": 0.20000000000000284,
          "durationTicks": 192,
          "midi": 52,
          "name": "E3",
          "ticks": 96960,
          "time": 101,
          "velocity": 0.33858267716535434
        },
        {
          "duration": 0.20000000000000284,
          "durationTicks": 192,
          "midi": 44,
          "name": "G#2",
          "ticks": 97152,
          "time": 101.2,
          "velocity": 0.33858267716535434
        },
        {
          "duration": 0.20000000000000284,
          "durationTicks": 192,
          "midi": 52,
          "name": "E3",
          "ticks": 97344,
          "time": 101.4,
          "velocity": 0.33858267716535434
        },
        {
          "duration": 0.20000000000000284,
          "durationTicks": 192,
          "midi": 44,
          "name": "G#2",
          "ticks": 97536,
          "time": 101.60000000000001,
          "velocity": 0.33858267716535434
        },
        {
          "duration": 0.19999999999998863,
          "durationTicks": 192,
          "midi": 52,
          "name": "E3",
          "ticks": 97728,
          "time": 101.80000000000001,
          "velocity": 0.33858267716535434
        },
        {
          "duration": 0.20000000000000284,
          "durationTicks": 192,
          "midi": 44,
          "name": "G#2",
          "ticks": 97920,
          "time": 102,
          "velocity": 0.33858267716535434
        },
        {
          "duration": 0.20000000000000284,
          "durationTicks": 192,
          "midi": 52,
          "name": "E3",
          "ticks": 98112,
          "time": 102.2,
          "velocity": 0.33858267716535434
        },
        {
          "duration": 0.20000000000000284,
          "durationTicks": 192,
          "midi": 45,
          "name": "A2",
          "ticks": 98304,
          "time": 102.4,
          "velocity": 0.33858267716535434
        },
        {
          "duration": 0.20000000000000284,
          "durationTicks": 192,
          "midi": 52,
          "name": "E3",
          "ticks": 98496,
          "time": 102.60000000000001,
          "velocity": 0.33858267716535434
        },
        {
          "duration": 0.19999999999998863,
          "durationTicks": 192,
          "midi": 45,
          "name": "A2",
          "ticks": 98688,
          "time": 102.80000000000001,
          "velocity": 0.33858267716535434
        },
        {
          "duration": 0.20000000000000284,
          "durationTicks": 192,
          "midi": 52,
          "name": "E3",
          "ticks": 98880,
          "time": 103,
          "velocity": 0.33858267716535434
        },
        {
          "duration": 0.20000000000000284,
          "durationTicks": 192,
          "midi": 45,
          "name": "A2",
          "ticks": 99072,
          "time": 103.2,
          "velocity": 0.33858267716535434
        },
        {
          "duration": 0.20000000000000284,
          "durationTicks": 192,
          "midi": 52,
          "name": "E3",
          "ticks": 99264,
          "time": 103.4,
          "velocity": 0.33858267716535434
        },
        {
          "duration": 0.20000000000000284,
          "durationTicks": 192,
          "midi": 45,
          "name": "A2",
          "ticks": 99456,
          "time": 103.60000000000001,
          "velocity": 0.33858267716535434
        },
        {
          "duration": 0.19999999999998863,
          "durationTicks": 192,
          "midi": 52,
          "name": "E3",
          "ticks": 99648,
          "time": 103.80000000000001,
          "velocity": 0.33858267716535434
        },
        {
          "duration": 0.20000000000000284,
          "durationTicks": 192,
          "midi": 44,
          "name": "G#2",
          "ticks": 99840,
          "time": 104,
          "velocity": 0.33858267716535434
        },
        {
          "duration": 0.20000000000000284,
          "durationTicks": 192,
          "midi": 52,
          "name": "E3",
          "ticks": 100032,
          "time": 104.2,
          "velocity": 0.33858267716535434
        },
        {
          "duration": 0.20000000000000284,
          "durationTicks": 192,
          "midi": 44,
          "name": "G#2",
          "ticks": 100224,
          "time": 104.4,
          "velocity": 0.33858267716535434
        },
        {
          "duration": 0.20000000000000284,
          "durationTicks": 192,
          "midi": 52,
          "name": "E3",
          "ticks": 100416,
          "time": 104.60000000000001,
          "velocity": 0.33858267716535434
        },
        {
          "duration": 0.19999999999998863,
          "durationTicks": 192,
          "midi": 44,
          "name": "G#2",
          "ticks": 100608,
          "time": 104.80000000000001,
          "velocity": 0.33858267716535434
        },
        {
          "duration": 0.20000000000000284,
          "durationTicks": 192,
          "midi": 52,
          "name": "E3",
          "ticks": 100800,
          "time": 105,
          "velocity": 0.33858267716535434
        },
        {
          "duration": 0.20000000000000284,
          "durationTicks": 192,
          "midi": 44,
          "name": "G#2",
          "ticks": 100992,
          "time": 105.2,
          "velocity": 0.33858267716535434
        },
        {
          "duration": 0.20000000000000284,
          "durationTicks": 192,
          "midi": 52,
          "name": "E3",
          "ticks": 101184,
          "time": 105.4,
          "velocity": 0.33858267716535434
        },
        {
          "duration": 0.20000000000000284,
          "durationTicks": 192,
          "midi": 45,
          "name": "A2",
          "ticks": 101376,
          "time": 105.60000000000001,
          "velocity": 0.33858267716535434
        },
        {
          "duration": 0.19999999999998863,
          "durationTicks": 192,
          "midi": 52,
          "name": "E3",
          "ticks": 101568,
          "time": 105.80000000000001,
          "velocity": 0.33858267716535434
        },
        {
          "duration": 0.20000000000000284,
          "durationTicks": 192,
          "midi": 45,
          "name": "A2",
          "ticks": 101760,
          "time": 106,
          "velocity": 0.33858267716535434
        },
        {
          "duration": 0.20000000000000284,
          "durationTicks": 192,
          "midi": 52,
          "name": "E3",
          "ticks": 101952,
          "time": 106.2,
          "velocity": 0.33858267716535434
        },
        {
          "duration": 0.20000000000000284,
          "durationTicks": 192,
          "midi": 45,
          "name": "A2",
          "ticks": 102144,
          "time": 106.4,
          "velocity": 0.33858267716535434
        },
        {
          "duration": 0.20000000000000284,
          "durationTicks": 192,
          "midi": 52,
          "name": "E3",
          "ticks": 102336,
          "time": 106.60000000000001,
          "velocity": 0.33858267716535434
        },
        {
          "duration": 0.19999999999998863,
          "durationTicks": 192,
          "midi": 45,
          "name": "A2",
          "ticks": 102528,
          "time": 106.80000000000001,
          "velocity": 0.33858267716535434
        },
        {
          "duration": 0.20000000000000284,
          "durationTicks": 192,
          "midi": 52,
          "name": "E3",
          "ticks": 102720,
          "time": 107,
          "velocity": 0.33858267716535434
        },
        {
          "duration": 0.20000000000000284,
          "durationTicks": 192,
          "midi": 44,
          "name": "G#2",
          "ticks": 102912,
          "time": 107.2,
          "velocity": 0.33858267716535434
        },
        {
          "duration": 0.20000000000000284,
          "durationTicks": 192,
          "midi": 52,
          "name": "E3",
          "ticks": 103104,
          "time": 107.4,
          "velocity": 0.33858267716535434
        },
        {
          "duration": 0.20000000000000284,
          "durationTicks": 192,
          "midi": 44,
          "name": "G#2",
          "ticks": 103296,
          "time": 107.60000000000001,
          "velocity": 0.33858267716535434
        },
        {
          "duration": 0.19999999999998863,
          "durationTicks": 192,
          "midi": 52,
          "name": "E3",
          "ticks": 103488,
          "time": 107.80000000000001,
          "velocity": 0.33858267716535434
        },
        {
          "duration": 0.20000000000000284,
          "durationTicks": 192,
          "midi": 44,
          "name": "G#2",
          "ticks": 103680,
          "time": 108,
          "velocity": 0.33858267716535434
        },
        {
          "duration": 0.20000000000000284,
          "durationTicks": 192,
          "midi": 52,
          "name": "E3",
          "ticks": 103872,
          "time": 108.2,
          "velocity": 0.33858267716535434
        },
        {
          "duration": 0.20000000000000284,
          "durationTicks": 192,
          "midi": 44,
          "name": "G#2",
          "ticks": 104064,
          "time": 108.4,
          "velocity": 0.33858267716535434
        },
        {
          "duration": 0.20000000000000284,
          "durationTicks": 192,
          "midi": 52,
          "name": "E3",
          "ticks": 104256,
          "time": 108.60000000000001,
          "velocity": 0.33858267716535434
        },
        {
          "duration": 0.19999999999998863,
          "durationTicks": 192,
          "midi": 45,
          "name": "A2",
          "ticks": 104448,
          "time": 108.80000000000001,
          "velocity": 0.33858267716535434
        },
        {
          "duration": 0.20000000000000284,
          "durationTicks": 192,
          "midi": 52,
          "name": "E3",
          "ticks": 104640,
          "time": 109,
          "velocity": 0.33858267716535434
        },
        {
          "duration": 0.20000000000000284,
          "durationTicks": 192,
          "midi": 45,
          "name": "A2",
          "ticks": 104832,
          "time": 109.2,
          "velocity": 0.33858267716535434
        },
        {
          "duration": 0.20000000000000284,
          "durationTicks": 192,
          "midi": 52,
          "name": "E3",
          "ticks": 105024,
          "time": 109.4,
          "velocity": 0.33858267716535434
        },
        {
          "duration": 0.20000000000000284,
          "durationTicks": 192,
          "midi": 45,
          "name": "A2",
          "ticks": 105216,
          "time": 109.60000000000001,
          "velocity": 0.33858267716535434
        },
        {
          "duration": 0.19999999999998863,
          "durationTicks": 192,
          "midi": 52,
          "name": "E3",
          "ticks": 105408,
          "time": 109.80000000000001,
          "velocity": 0.33858267716535434
        },
        {
          "duration": 0.20000000000000284,
          "durationTicks": 192,
          "midi": 45,
          "name": "A2",
          "ticks": 105600,
          "time": 110,
          "velocity": 0.33858267716535434
        },
        {
          "duration": 0.20000000000000284,
          "durationTicks": 192,
          "midi": 52,
          "name": "E3",
          "ticks": 105792,
          "time": 110.2,
          "velocity": 0.33858267716535434
        },
        {
          "duration": 0.20000000000000284,
          "durationTicks": 192,
          "midi": 44,
          "name": "G#2",
          "ticks": 105984,
          "time": 110.4,
          "velocity": 0.33858267716535434
        },
        {
          "duration": 0.20000000000000284,
          "durationTicks": 192,
          "midi": 52,
          "name": "E3",
          "ticks": 106176,
          "time": 110.60000000000001,
          "velocity": 0.33858267716535434
        },
        {
          "duration": 0.19999999999998863,
          "durationTicks": 192,
          "midi": 44,
          "name": "G#2",
          "ticks": 106368,
          "time": 110.80000000000001,
          "velocity": 0.33858267716535434
        },
        {
          "duration": 0.20000000000000284,
          "durationTicks": 192,
          "midi": 52,
          "name": "E3",
          "ticks": 106560,
          "time": 111,
          "velocity": 0.33858267716535434
        },
        {
          "duration": 0.20000000000000284,
          "durationTicks": 192,
          "midi": 44,
          "name": "G#2",
          "ticks": 106752,
          "time": 111.2,
          "velocity": 0.33858267716535434
        },
        {
          "duration": 0.20000000000000284,
          "durationTicks": 192,
          "midi": 52,
          "name": "E3",
          "ticks": 106944,
          "time": 111.4,
          "velocity": 0.33858267716535434
        },
        {
          "duration": 0.20000000000000284,
          "durationTicks": 192,
          "midi": 44,
          "name": "G#2",
          "ticks": 107136,
          "time": 111.60000000000001,
          "velocity": 0.33858267716535434
        },
        {
          "duration": 0.19999999999998863,
          "durationTicks": 192,
          "midi": 52,
          "name": "E3",
          "ticks": 107328,
          "time": 111.80000000000001,
          "velocity": 0.33858267716535434
        },
        {
          "duration": 0.19999999999998863,
          "durationTicks": 192,
          "midi": 45,
          "name": "A2",
          "ticks": 112128,
          "time": 116.80000000000001,
          "velocity": 0.33858267716535434
        },
        {
          "duration": 0.20000000000000284,
          "durationTicks": 192,
          "midi": 52,
          "name": "E3",
          "ticks": 112320,
          "time": 117,
          "velocity": 0.33858267716535434
        },
        {
          "duration": 0.20000000000000284,
          "durationTicks": 192,
          "midi": 45,
          "name": "A2",
          "ticks": 112512,
          "time": 117.2,
          "velocity": 0.33858267716535434
        },
        {
          "duration": 0.20000000000000284,
          "durationTicks": 192,
          "midi": 52,
          "name": "E3",
          "ticks": 112704,
          "time": 117.4,
          "velocity": 0.33858267716535434
        },
        {
          "duration": 0.20000000000000284,
          "durationTicks": 192,
          "midi": 45,
          "name": "A2",
          "ticks": 112896,
          "time": 117.60000000000001,
          "velocity": 0.33858267716535434
        },
        {
          "duration": 0.19999999999998863,
          "durationTicks": 192,
          "midi": 52,
          "name": "E3",
          "ticks": 113088,
          "time": 117.80000000000001,
          "velocity": 0.33858267716535434
        },
        {
          "duration": 0.20000000000000284,
          "durationTicks": 192,
          "midi": 45,
          "name": "A2",
          "ticks": 113280,
          "time": 118,
          "velocity": 0.33858267716535434
        },
        {
          "duration": 0.20000000000000284,
          "durationTicks": 192,
          "midi": 52,
          "name": "E3",
          "ticks": 113472,
          "time": 118.2,
          "velocity": 0.33858267716535434
        },
        {
          "duration": 0.20000000000000284,
          "durationTicks": 192,
          "midi": 45,
          "name": "A2",
          "ticks": 113664,
          "time": 118.4,
          "velocity": 0.33858267716535434
        },
        {
          "duration": 0.20000000000000284,
          "durationTicks": 192,
          "midi": 52,
          "name": "E3",
          "ticks": 113856,
          "time": 118.60000000000001,
          "velocity": 0.33858267716535434
        },
        {
          "duration": 0.19999999999998863,
          "durationTicks": 192,
          "midi": 45,
          "name": "A2",
          "ticks": 114048,
          "time": 118.80000000000001,
          "velocity": 0.33858267716535434
        },
        {
          "duration": 0.20000000000000284,
          "durationTicks": 192,
          "midi": 52,
          "name": "E3",
          "ticks": 114240,
          "time": 119,
          "velocity": 0.33858267716535434
        },
        {
          "duration": 0.20000000000000284,
          "durationTicks": 192,
          "midi": 45,
          "name": "A2",
          "ticks": 114432,
          "time": 119.2,
          "velocity": 0.33858267716535434
        },
        {
          "duration": 0.20000000000000284,
          "durationTicks": 192,
          "midi": 52,
          "name": "E3",
          "ticks": 114624,
          "time": 119.4,
          "velocity": 0.33858267716535434
        },
        {
          "duration": 0.20000000000000284,
          "durationTicks": 192,
          "midi": 45,
          "name": "A2",
          "ticks": 114816,
          "time": 119.60000000000001,
          "velocity": 0.33858267716535434
        },
        {
          "duration": 0.19999999999998863,
          "durationTicks": 192,
          "midi": 52,
          "name": "E3",
          "ticks": 115008,
          "time": 119.80000000000001,
          "velocity": 0.33858267716535434
        },
        {
          "duration": 0.20000000000000284,
          "durationTicks": 192,
          "midi": 45,
          "name": "A2",
          "ticks": 115200,
          "time": 120,
          "velocity": 0.33858267716535434
        },
        {
          "duration": 0.20000000000000284,
          "durationTicks": 192,
          "midi": 52,
          "name": "E3",
          "ticks": 115392,
          "time": 120.2,
          "velocity": 0.33858267716535434
        },
        {
          "duration": 0.20000000000000284,
          "durationTicks": 192,
          "midi": 45,
          "name": "A2",
          "ticks": 115584,
          "time": 120.4,
          "velocity": 0.33858267716535434
        },
        {
          "duration": 0.20000000000000284,
          "durationTicks": 192,
          "midi": 52,
          "name": "E3",
          "ticks": 115776,
          "time": 120.60000000000001,
          "velocity": 0.33858267716535434
        },
        {
          "duration": 0.19999999999998863,
          "durationTicks": 192,
          "midi": 45,
          "name": "A2",
          "ticks": 115968,
          "time": 120.80000000000001,
          "velocity": 0.33858267716535434
        },
        {
          "duration": 0.20000000000000284,
          "durationTicks": 192,
          "midi": 52,
          "name": "E3",
          "ticks": 116160,
          "time": 121,
          "velocity": 0.33858267716535434
        },
        {
          "duration": 0.20000000000000284,
          "durationTicks": 192,
          "midi": 45,
          "name": "A2",
          "ticks": 116352,
          "time": 121.2,
          "velocity": 0.33858267716535434
        },
        {
          "duration": 0.20000000000000284,
          "durationTicks": 192,
          "midi": 52,
          "name": "E3",
          "ticks": 116544,
          "time": 121.4,
          "velocity": 0.33858267716535434
        },
        {
          "duration": 0.20000000000000284,
          "durationTicks": 192,
          "midi": 44,
          "name": "G#2",
          "ticks": 116736,
          "time": 121.60000000000001,
          "velocity": 0.33858267716535434
        },
        {
          "duration": 0.19999999999998863,
          "durationTicks": 192,
          "midi": 52,
          "name": "E3",
          "ticks": 116928,
          "time": 121.80000000000001,
          "velocity": 0.33858267716535434
        },
        {
          "duration": 0.20000000000000284,
          "durationTicks": 192,
          "midi": 44,
          "name": "G#2",
          "ticks": 117120,
          "time": 122,
          "velocity": 0.33858267716535434
        },
        {
          "duration": 0.20000000000000284,
          "durationTicks": 192,
          "midi": 52,
          "name": "E3",
          "ticks": 117312,
          "time": 122.2,
          "velocity": 0.33858267716535434
        },
        {
          "duration": 0.20000000000000284,
          "durationTicks": 192,
          "midi": 44,
          "name": "G#2",
          "ticks": 117504,
          "time": 122.4,
          "velocity": 0.33858267716535434
        },
        {
          "duration": 0.20000000000000284,
          "durationTicks": 192,
          "midi": 52,
          "name": "E3",
          "ticks": 117696,
          "time": 122.60000000000001,
          "velocity": 0.33858267716535434
        },
        {
          "duration": 0.19999999999998863,
          "durationTicks": 192,
          "midi": 44,
          "name": "G#2",
          "ticks": 117888,
          "time": 122.80000000000001,
          "velocity": 0.33858267716535434
        },
        {
          "duration": 0.20000000000000284,
          "durationTicks": 192,
          "midi": 52,
          "name": "E3",
          "ticks": 118080,
          "time": 123,
          "velocity": 0.33858267716535434
        },
        {
          "duration": 0.20000000000000284,
          "durationTicks": 192,
          "midi": 45,
          "name": "A2",
          "ticks": 118272,
          "time": 123.2,
          "velocity": 0.33858267716535434
        },
        {
          "duration": 0.20000000000000284,
          "durationTicks": 192,
          "midi": 52,
          "name": "E3",
          "ticks": 118464,
          "time": 123.4,
          "velocity": 0.33858267716535434
        },
        {
          "duration": 0.20000000000000284,
          "durationTicks": 192,
          "midi": 45,
          "name": "A2",
          "ticks": 118656,
          "time": 123.60000000000001,
          "velocity": 0.33858267716535434
        },
        {
          "duration": 0.19999999999998863,
          "durationTicks": 192,
          "midi": 52,
          "name": "E3",
          "ticks": 118848,
          "time": 123.80000000000001,
          "velocity": 0.33858267716535434
        },
        {
          "duration": 0.20000000000000284,
          "durationTicks": 192,
          "midi": 45,
          "name": "A2",
          "ticks": 119040,
          "time": 124,
          "velocity": 0.33858267716535434
        },
        {
          "duration": 0.20000000000000284,
          "durationTicks": 192,
          "midi": 52,
          "name": "E3",
          "ticks": 119232,
          "time": 124.2,
          "velocity": 0.33858267716535434
        },
        {
          "duration": 0.20000000000000284,
          "durationTicks": 192,
          "midi": 45,
          "name": "A2",
          "ticks": 119424,
          "time": 124.4,
          "velocity": 0.33858267716535434
        },
        {
          "duration": 0.20000000000000284,
          "durationTicks": 192,
          "midi": 52,
          "name": "E3",
          "ticks": 119616,
          "time": 124.60000000000001,
          "velocity": 0.33858267716535434
        },
        {
          "duration": 0.19999999999998863,
          "durationTicks": 192,
          "midi": 44,
          "name": "G#2",
          "ticks": 119808,
          "time": 124.80000000000001,
          "velocity": 0.33858267716535434
        },
        {
          "duration": 0.20000000000000284,
          "durationTicks": 192,
          "midi": 52,
          "name": "E3",
          "ticks": 120000,
          "time": 125,
          "velocity": 0.33858267716535434
        },
        {
          "duration": 0.20000000000000284,
          "durationTicks": 192,
          "midi": 44,
          "name": "G#2",
          "ticks": 120192,
          "time": 125.2,
          "velocity": 0.33858267716535434
        },
        {
          "duration": 0.20000000000000284,
          "durationTicks": 192,
          "midi": 52,
          "name": "E3",
          "ticks": 120384,
          "time": 125.4,
          "velocity": 0.33858267716535434
        },
        {
          "duration": 0.20000000000000284,
          "durationTicks": 192,
          "midi": 44,
          "name": "G#2",
          "ticks": 120576,
          "time": 125.60000000000001,
          "velocity": 0.33858267716535434
        },
        {
          "duration": 0.19999999999998863,
          "durationTicks": 192,
          "midi": 52,
          "name": "E3",
          "ticks": 120768,
          "time": 125.80000000000001,
          "velocity": 0.33858267716535434
        },
        {
          "duration": 0.20000000000000284,
          "durationTicks": 192,
          "midi": 44,
          "name": "G#2",
          "ticks": 120960,
          "time": 126,
          "velocity": 0.33858267716535434
        },
        {
          "duration": 0.20000000000000284,
          "durationTicks": 192,
          "midi": 52,
          "name": "E3",
          "ticks": 121152,
          "time": 126.2,
          "velocity": 0.33858267716535434
        },
        {
          "duration": 0.20000000000000284,
          "durationTicks": 192,
          "midi": 45,
          "name": "A2",
          "ticks": 121344,
          "time": 126.4,
          "velocity": 0.33858267716535434
        },
        {
          "duration": 0.20000000000000284,
          "durationTicks": 192,
          "midi": 52,
          "name": "E3",
          "ticks": 121536,
          "time": 126.60000000000001,
          "velocity": 0.33858267716535434
        },
        {
          "duration": 0.19999999999998863,
          "durationTicks": 192,
          "midi": 45,
          "name": "A2",
          "ticks": 121728,
          "time": 126.80000000000001,
          "velocity": 0.33858267716535434
        },
        {
          "duration": 0.20000000000000284,
          "durationTicks": 192,
          "midi": 52,
          "name": "E3",
          "ticks": 121920,
          "time": 127,
          "velocity": 0.33858267716535434
        },
        {
          "duration": 0.20000000000000284,
          "durationTicks": 192,
          "midi": 45,
          "name": "A2",
          "ticks": 122112,
          "time": 127.2,
          "velocity": 0.33858267716535434
        },
        {
          "duration": 0.20000000000000284,
          "durationTicks": 192,
          "midi": 52,
          "name": "E3",
          "ticks": 122304,
          "time": 127.4,
          "velocity": 0.33858267716535434
        },
        {
          "duration": 0.20000000000000284,
          "durationTicks": 192,
          "midi": 45,
          "name": "A2",
          "ticks": 122496,
          "time": 127.60000000000001,
          "velocity": 0.33858267716535434
        },
        {
          "duration": 0.19999999999998863,
          "durationTicks": 192,
          "midi": 52,
          "name": "E3",
          "ticks": 122688,
          "time": 127.80000000000001,
          "velocity": 0.33858267716535434
        },
        {
          "duration": 0.20000000000001705,
          "durationTicks": 192,
          "midi": 44,
          "name": "G#2",
          "ticks": 122880,
          "time": 128,
          "velocity": 0.33858267716535434
        },
        {
          "duration": 0.19999999999998863,
          "durationTicks": 192,
          "midi": 52,
          "name": "E3",
          "ticks": 123072,
          "time": 128.20000000000002,
          "velocity": 0.33858267716535434
        },
        {
          "duration": 0.19999999999998863,
          "durationTicks": 192,
          "midi": 44,
          "name": "G#2",
          "ticks": 123264,
          "time": 128.4,
          "velocity": 0.33858267716535434
        },
        {
          "duration": 0.20000000000001705,
          "durationTicks": 192,
          "midi": 52,
          "name": "E3",
          "ticks": 123456,
          "time": 128.6,
          "velocity": 0.33858267716535434
        },
        {
          "duration": 0.19999999999998863,
          "durationTicks": 192,
          "midi": 44,
          "name": "G#2",
          "ticks": 123648,
          "time": 128.8,
          "velocity": 0.33858267716535434
        },
        {
          "duration": 0.20000000000001705,
          "durationTicks": 192,
          "midi": 52,
          "name": "E3",
          "ticks": 123840,
          "time": 129,
          "velocity": 0.33858267716535434
        },
        {
          "duration": 0.19999999999998863,
          "durationTicks": 192,
          "midi": 44,
          "name": "G#2",
          "ticks": 124032,
          "time": 129.20000000000002,
          "velocity": 0.33858267716535434
        },
        {
          "duration": 0.19999999999998863,
          "durationTicks": 192,
          "midi": 52,
          "name": "E3",
          "ticks": 124224,
          "time": 129.4,
          "velocity": 0.33858267716535434
        },
        {
          "duration": 0.20000000000001705,
          "durationTicks": 192,
          "midi": 45,
          "name": "A2",
          "ticks": 124416,
          "time": 129.6,
          "velocity": 0.33858267716535434
        },
        {
          "duration": 0.19999999999998863,
          "durationTicks": 192,
          "midi": 52,
          "name": "E3",
          "ticks": 124608,
          "time": 129.8,
          "velocity": 0.33858267716535434
        },
        {
          "duration": 0.20000000000001705,
          "durationTicks": 192,
          "midi": 45,
          "name": "A2",
          "ticks": 124800,
          "time": 130,
          "velocity": 0.33858267716535434
        },
        {
          "duration": 0.19999999999998863,
          "durationTicks": 192,
          "midi": 52,
          "name": "E3",
          "ticks": 124992,
          "time": 130.20000000000002,
          "velocity": 0.33858267716535434
        },
        {
          "duration": 0.19999999999998863,
          "durationTicks": 192,
          "midi": 45,
          "name": "A2",
          "ticks": 125184,
          "time": 130.4,
          "velocity": 0.33858267716535434
        },
        {
          "duration": 0.20000000000001705,
          "durationTicks": 192,
          "midi": 52,
          "name": "E3",
          "ticks": 125376,
          "time": 130.6,
          "velocity": 0.33858267716535434
        },
        {
          "duration": 0.19999999999998863,
          "durationTicks": 192,
          "midi": 45,
          "name": "A2",
          "ticks": 125568,
          "time": 130.8,
          "velocity": 0.33858267716535434
        },
        {
          "duration": 0.20000000000001705,
          "durationTicks": 192,
          "midi": 52,
          "name": "E3",
          "ticks": 125760,
          "time": 131,
          "velocity": 0.33858267716535434
        },
        {
          "duration": 0.19999999999998863,
          "durationTicks": 192,
          "midi": 44,
          "name": "G#2",
          "ticks": 125952,
          "time": 131.20000000000002,
          "velocity": 0.33858267716535434
        },
        {
          "duration": 0.19999999999998863,
          "durationTicks": 192,
          "midi": 52,
          "name": "E3",
          "ticks": 126144,
          "time": 131.4,
          "velocity": 0.33858267716535434
        },
        {
          "duration": 0.20000000000001705,
          "durationTicks": 192,
          "midi": 44,
          "name": "G#2",
          "ticks": 126336,
          "time": 131.6,
          "velocity": 0.33858267716535434
        },
        {
          "duration": 0.19999999999998863,
          "durationTicks": 192,
          "midi": 52,
          "name": "E3",
          "ticks": 126528,
          "time": 131.8,
          "velocity": 0.33858267716535434
        },
        {
          "duration": 0.19999999999998863,
          "durationTicks": 192,
          "midi": 40,
          "name": "E2",
          "ticks": 127488,
          "time": 132.8,
          "velocity": 0.33858267716535434
        },
        {
          "duration": 0.20000000000001705,
          "durationTicks": 192,
          "midi": 52,
          "name": "E3",
          "ticks": 127680,
          "time": 133,
          "velocity": 0.33858267716535434
        },
        {
          "duration": 0.19999999999998863,
          "durationTicks": 192,
          "midi": 40,
          "name": "E2",
          "ticks": 127872,
          "time": 133.20000000000002,
          "velocity": 0.33858267716535434
        },
        {
          "duration": 0.19999999999998863,
          "durationTicks": 192,
          "midi": 52,
          "name": "E3",
          "ticks": 128064,
          "time": 133.4,
          "velocity": 0.33858267716535434
        },
        {
          "duration": 0.20000000000001705,
          "durationTicks": 192,
          "midi": 40,
          "name": "E2",
          "ticks": 128256,
          "time": 133.6,
          "velocity": 0.33858267716535434
        },
        {
          "duration": 0.19999999999998863,
          "durationTicks": 192,
          "midi": 52,
          "name": "E3",
          "ticks": 128448,
          "time": 133.8,
          "velocity": 0.33858267716535434
        },
        {
          "duration": 0.20000000000001705,
          "durationTicks": 192,
          "midi": 40,
          "name": "E2",
          "ticks": 128640,
          "time": 134,
          "velocity": 0.33858267716535434
        },
        {
          "duration": 0.19999999999998863,
          "durationTicks": 192,
          "midi": 52,
          "name": "E3",
          "ticks": 128832,
          "time": 134.20000000000002,
          "velocity": 0.33858267716535434
        },
        {
          "duration": 0.19999999999998863,
          "durationTicks": 192,
          "midi": 45,
          "name": "A2",
          "ticks": 129024,
          "time": 134.4,
          "velocity": 0.33858267716535434
        },
        {
          "duration": 0.20000000000001705,
          "durationTicks": 192,
          "midi": 57,
          "name": "A3",
          "ticks": 129216,
          "time": 134.6,
          "velocity": 0.33858267716535434
        },
        {
          "duration": 0.19999999999998863,
          "durationTicks": 192,
          "midi": 45,
          "name": "A2",
          "ticks": 129408,
          "time": 134.8,
          "velocity": 0.33858267716535434
        },
        {
          "duration": 0.20000000000001705,
          "durationTicks": 192,
          "midi": 57,
          "name": "A3",
          "ticks": 129600,
          "time": 135,
          "velocity": 0.33858267716535434
        },
        {
          "duration": 0.19999999999998863,
          "durationTicks": 192,
          "midi": 45,
          "name": "A2",
          "ticks": 129792,
          "time": 135.20000000000002,
          "velocity": 0.33858267716535434
        },
        {
          "duration": 0.19999999999998863,
          "durationTicks": 192,
          "midi": 57,
          "name": "A3",
          "ticks": 129984,
          "time": 135.4,
          "velocity": 0.33858267716535434
        },
        {
          "duration": 0.20000000000001705,
          "durationTicks": 192,
          "midi": 45,
          "name": "A2",
          "ticks": 130176,
          "time": 135.6,
          "velocity": 0.33858267716535434
        },
        {
          "duration": 0.19999999999998863,
          "durationTicks": 192,
          "midi": 57,
          "name": "A3",
          "ticks": 130368,
          "time": 135.8,
          "velocity": 0.33858267716535434
        },
        {
          "duration": 0.20000000000001705,
          "durationTicks": 192,
          "midi": 44,
          "name": "G#2",
          "ticks": 130560,
          "time": 136,
          "velocity": 0.33858267716535434
        },
        {
          "duration": 0.19999999999998863,
          "durationTicks": 192,
          "midi": 56,
          "name": "G#3",
          "ticks": 130752,
          "time": 136.20000000000002,
          "velocity": 0.33858267716535434
        },
        {
          "duration": 0.19999999999998863,
          "durationTicks": 192,
          "midi": 44,
          "name": "G#2",
          "ticks": 130944,
          "time": 136.4,
          "velocity": 0.33858267716535434
        },
        {
          "duration": 0.20000000000001705,
          "durationTicks": 192,
          "midi": 56,
          "name": "G#3",
          "ticks": 131136,
          "time": 136.6,
          "velocity": 0.33858267716535434
        },
        {
          "duration": 0.19999999999998863,
          "durationTicks": 192,
          "midi": 40,
          "name": "E2",
          "ticks": 131328,
          "time": 136.8,
          "velocity": 0.33858267716535434
        },
        {
          "duration": 0.20000000000001705,
          "durationTicks": 192,
          "midi": 52,
          "name": "E3",
          "ticks": 131520,
          "time": 137,
          "velocity": 0.33858267716535434
        },
        {
          "duration": 0.19999999999998863,
          "durationTicks": 192,
          "midi": 40,
          "name": "E2",
          "ticks": 131712,
          "time": 137.20000000000002,
          "velocity": 0.33858267716535434
        },
        {
          "duration": 0.19999999999998863,
          "durationTicks": 192,
          "midi": 52,
          "name": "E3",
          "ticks": 131904,
          "time": 137.4,
          "velocity": 0.33858267716535434
        },
        {
          "duration": 0.20000000000001705,
          "durationTicks": 192,
          "midi": 45,
          "name": "A2",
          "ticks": 132096,
          "time": 137.6,
          "velocity": 0.33858267716535434
        },
        {
          "duration": 0.19999999999998863,
          "durationTicks": 192,
          "midi": 57,
          "name": "A3",
          "ticks": 132288,
          "time": 137.8,
          "velocity": 0.33858267716535434
        },
        {
          "duration": 0.20000000000001705,
          "durationTicks": 192,
          "midi": 45,
          "name": "A2",
          "ticks": 132480,
          "time": 138,
          "velocity": 0.33858267716535434
        },
        {
          "duration": 0.19999999999998863,
          "durationTicks": 192,
          "midi": 57,
          "name": "A3",
          "ticks": 132672,
          "time": 138.20000000000002,
          "velocity": 0.33858267716535434
        },
        {
          "duration": 0.19999999999998863,
          "durationTicks": 192,
          "midi": 45,
          "name": "A2",
          "ticks": 132864,
          "time": 138.4,
          "velocity": 0.33858267716535434
        },
        {
          "duration": 0.20000000000001705,
          "durationTicks": 192,
          "midi": 57,
          "name": "A3",
          "ticks": 133056,
          "time": 138.6,
          "velocity": 0.33858267716535434
        },
        {
          "duration": 0.19999999999998863,
          "durationTicks": 192,
          "midi": 47,
          "name": "B2",
          "ticks": 133248,
          "time": 138.8,
          "velocity": 0.33858267716535434
        },
        {
          "duration": 0.20000000000001705,
          "durationTicks": 192,
          "midi": 48,
          "name": "C3",
          "ticks": 133440,
          "time": 139,
          "velocity": 0.33858267716535434
        },
        {
          "duration": 0.19999999999998863,
          "durationTicks": 192,
          "midi": 50,
          "name": "D3",
          "ticks": 133632,
          "time": 139.20000000000002,
          "velocity": 0.33858267716535434
        },
        {
          "duration": 0.19999999999998863,
          "durationTicks": 192,
          "midi": 38,
          "name": "D2",
          "ticks": 133824,
          "time": 139.4,
          "velocity": 0.33858267716535434
        },
        {
          "duration": 0.19999999999998863,
          "durationTicks": 192,
          "midi": 38,
          "name": "D2",
          "ticks": 134208,
          "time": 139.8,
          "velocity": 0.33858267716535434
        },
        {
          "duration": 0.19999999999998863,
          "durationTicks": 192,
          "midi": 38,
          "name": "D2",
          "ticks": 134592,
          "time": 140.20000000000002,
          "velocity": 0.33858267716535434
        },
        {
          "duration": 0.19999999999998863,
          "durationTicks": 192,
          "midi": 45,
          "name": "A2",
          "ticks": 134784,
          "time": 140.4,
          "velocity": 0.33858267716535434
        },
        {
          "duration": 0.20000000000001705,
          "durationTicks": 192,
          "midi": 41,
          "name": "F2",
          "ticks": 134976,
          "time": 140.6,
          "velocity": 0.33858267716535434
        },
        {
          "duration": 0.19999999999998863,
          "durationTicks": 192,
          "midi": 36,
          "name": "C2",
          "ticks": 135168,
          "time": 140.8,
          "velocity": 0.33858267716535434
        },
        {
          "duration": 0.20000000000001705,
          "durationTicks": 192,
          "midi": 48,
          "name": "C3",
          "ticks": 135360,
          "time": 141,
          "velocity": 0.33858267716535434
        },
        {
          "duration": 0.19999999999998863,
          "durationTicks": 192,
          "midi": 48,
          "name": "C3",
          "ticks": 135744,
          "time": 141.4,
          "velocity": 0.33858267716535434
        },
        {
          "duration": 0.20000000000001705,
          "durationTicks": 192,
          "midi": 36,
          "name": "C2",
          "ticks": 135936,
          "time": 141.6,
          "velocity": 0.33858267716535434
        },
        {
          "duration": 0.19999999999998863,
          "durationTicks": 192,
          "midi": 43,
          "name": "G2",
          "ticks": 136128,
          "time": 141.8,
          "velocity": 0.33858267716535434
        },
        {
          "duration": 0.30000000000001137,
          "durationTicks": 288,
          "midi": 43,
          "name": "G2",
          "ticks": 136320,
          "time": 142,
          "velocity": 0.33858267716535434
        },
        {
          "duration": 0.19999999999998863,
          "durationTicks": 192,
          "midi": 47,
          "name": "B2",
          "ticks": 136704,
          "time": 142.4,
          "velocity": 0.33858267716535434
        },
        {
          "duration": 0.20000000000001705,
          "durationTicks": 192,
          "midi": 59,
          "name": "B3",
          "ticks": 136896,
          "time": 142.6,
          "velocity": 0.33858267716535434
        },
        {
          "duration": 0.20000000000001705,
          "durationTicks": 192,
          "midi": 59,
          "name": "B3",
          "ticks": 137280,
          "time": 143,
          "velocity": 0.33858267716535434
        },
        {
          "duration": 0.19999999999998863,
          "durationTicks": 192,
          "midi": 52,
          "name": "E3",
          "ticks": 137664,
          "time": 143.4,
          "velocity": 0.33858267716535434
        },
        {
          "duration": 0.19999999999998863,
          "durationTicks": 192,
          "midi": 56,
          "name": "G#3",
          "ticks": 138048,
          "time": 143.8,
          "velocity": 0.33858267716535434
        },
        {
          "duration": 0.20000000000001705,
          "durationTicks": 192,
          "midi": 45,
          "name": "A2",
          "ticks": 138240,
          "time": 144,
          "velocity": 0.33858267716535434
        },
        {
          "duration": 0.19999999999998863,
          "durationTicks": 192,
          "midi": 52,
          "name": "E3",
          "ticks": 138432,
          "time": 144.20000000000002,
          "velocity": 0.33858267716535434
        },
        {
          "duration": 0.19999999999998863,
          "durationTicks": 192,
          "midi": 45,
          "name": "A2",
          "ticks": 138624,
          "time": 144.4,
          "velocity": 0.33858267716535434
        },
        {
          "duration": 0.20000000000001705,
          "durationTicks": 192,
          "midi": 52,
          "name": "E3",
          "ticks": 138816,
          "time": 144.6,
          "velocity": 0.33858267716535434
        },
        {
          "duration": 0.29999999999998295,
          "durationTicks": 288,
          "midi": 45,
          "name": "A2",
          "ticks": 139008,
          "time": 144.8,
          "velocity": 0.33858267716535434
        },
        {
          "duration": 0.20000000000001705,
          "durationTicks": 192,
          "midi": 40,
          "name": "E2",
          "ticks": 139776,
          "time": 145.6,
          "velocity": 0.33858267716535434
        },
        {
          "duration": 0.19999999999998863,
          "durationTicks": 192,
          "midi": 52,
          "name": "E3",
          "ticks": 139968,
          "time": 145.8,
          "velocity": 0.33858267716535434
        },
        {
          "duration": 0.20000000000001705,
          "durationTicks": 192,
          "midi": 40,
          "name": "E2",
          "ticks": 140160,
          "time": 146,
          "velocity": 0.33858267716535434
        },
        {
          "duration": 0.19999999999998863,
          "durationTicks": 192,
          "midi": 52,
          "name": "E3",
          "ticks": 140352,
          "time": 146.20000000000002,
          "velocity": 0.33858267716535434
        },
        {
          "duration": 0.19999999999998863,
          "durationTicks": 192,
          "midi": 40,
          "name": "E2",
          "ticks": 140544,
          "time": 146.4,
          "velocity": 0.33858267716535434
        },
        {
          "duration": 0.20000000000001705,
          "durationTicks": 192,
          "midi": 52,
          "name": "E3",
          "ticks": 140736,
          "time": 146.6,
          "velocity": 0.33858267716535434
        },
        {
          "duration": 0.19999999999998863,
          "durationTicks": 192,
          "midi": 40,
          "name": "E2",
          "ticks": 140928,
          "time": 146.8,
          "velocity": 0.33858267716535434
        },
        {
          "duration": 0.20000000000001705,
          "durationTicks": 192,
          "midi": 52,
          "name": "E3",
          "ticks": 141120,
          "time": 147,
          "velocity": 0.33858267716535434
        },
        {
          "duration": 0.19999999999998863,
          "durationTicks": 192,
          "midi": 45,
          "name": "A2",
          "ticks": 141312,
          "time": 147.20000000000002,
          "velocity": 0.33858267716535434
        },
        {
          "duration": 0.19999999999998863,
          "durationTicks": 192,
          "midi": 57,
          "name": "A3",
          "ticks": 141504,
          "time": 147.4,
          "velocity": 0.33858267716535434
        },
        {
          "duration": 0.20000000000001705,
          "durationTicks": 192,
          "midi": 45,
          "name": "A2",
          "ticks": 141696,
          "time": 147.6,
          "velocity": 0.33858267716535434
        },
        {
          "duration": 0.19999999999998863,
          "durationTicks": 192,
          "midi": 57,
          "name": "A3",
          "ticks": 141888,
          "time": 147.8,
          "velocity": 0.33858267716535434
        },
        {
          "duration": 0.20000000000001705,
          "durationTicks": 192,
          "midi": 45,
          "name": "A2",
          "ticks": 142080,
          "time": 148,
          "velocity": 0.33858267716535434
        },
        {
          "duration": 0.19999999999998863,
          "durationTicks": 192,
          "midi": 57,
          "name": "A3",
          "ticks": 142272,
          "time": 148.20000000000002,
          "velocity": 0.33858267716535434
        },
        {
          "duration": 0.19999999999998863,
          "durationTicks": 192,
          "midi": 45,
          "name": "A2",
          "ticks": 142464,
          "time": 148.4,
          "velocity": 0.33858267716535434
        },
        {
          "duration": 0.20000000000001705,
          "durationTicks": 192,
          "midi": 57,
          "name": "A3",
          "ticks": 142656,
          "time": 148.6,
          "velocity": 0.33858267716535434
        },
        {
          "duration": 0.19999999999998863,
          "durationTicks": 192,
          "midi": 44,
          "name": "G#2",
          "ticks": 142848,
          "time": 148.8,
          "velocity": 0.33858267716535434
        },
        {
          "duration": 0.20000000000001705,
          "durationTicks": 192,
          "midi": 56,
          "name": "G#3",
          "ticks": 143040,
          "time": 149,
          "velocity": 0.33858267716535434
        },
        {
          "duration": 0.19999999999998863,
          "durationTicks": 192,
          "midi": 44,
          "name": "G#2",
          "ticks": 143232,
          "time": 149.20000000000002,
          "velocity": 0.33858267716535434
        },
        {
          "duration": 0.19999999999998863,
          "durationTicks": 192,
          "midi": 56,
          "name": "G#3",
          "ticks": 143424,
          "time": 149.4,
          "velocity": 0.33858267716535434
        },
        {
          "duration": 0.20000000000001705,
          "durationTicks": 192,
          "midi": 40,
          "name": "E2",
          "ticks": 143616,
          "time": 149.6,
          "velocity": 0.33858267716535434
        },
        {
          "duration": 0.19999999999998863,
          "durationTicks": 192,
          "midi": 52,
          "name": "E3",
          "ticks": 143808,
          "time": 149.8,
          "velocity": 0.33858267716535434
        },
        {
          "duration": 0.20000000000001705,
          "durationTicks": 192,
          "midi": 40,
          "name": "E2",
          "ticks": 144000,
          "time": 150,
          "velocity": 0.33858267716535434
        },
        {
          "duration": 0.19999999999998863,
          "durationTicks": 192,
          "midi": 52,
          "name": "E3",
          "ticks": 144192,
          "time": 150.20000000000002,
          "velocity": 0.33858267716535434
        },
        {
          "duration": 0.19999999999998863,
          "durationTicks": 192,
          "midi": 45,
          "name": "A2",
          "ticks": 144384,
          "time": 150.4,
          "velocity": 0.33858267716535434
        },
        {
          "duration": 0.20000000000001705,
          "durationTicks": 192,
          "midi": 57,
          "name": "A3",
          "ticks": 144576,
          "time": 150.6,
          "velocity": 0.33858267716535434
        },
        {
          "duration": 0.19999999999998863,
          "durationTicks": 192,
          "midi": 45,
          "name": "A2",
          "ticks": 144768,
          "time": 150.8,
          "velocity": 0.33858267716535434
        },
        {
          "duration": 0.20000000000001705,
          "durationTicks": 192,
          "midi": 57,
          "name": "A3",
          "ticks": 144960,
          "time": 151,
          "velocity": 0.33858267716535434
        },
        {
          "duration": 0.19999999999998863,
          "durationTicks": 192,
          "midi": 45,
          "name": "A2",
          "ticks": 145152,
          "time": 151.20000000000002,
          "velocity": 0.33858267716535434
        },
        {
          "duration": 0.19999999999998863,
          "durationTicks": 192,
          "midi": 57,
          "name": "A3",
          "ticks": 145344,
          "time": 151.4,
          "velocity": 0.33858267716535434
        },
        {
          "duration": 0.20000000000001705,
          "durationTicks": 192,
          "midi": 47,
          "name": "B2",
          "ticks": 145536,
          "time": 151.6,
          "velocity": 0.33858267716535434
        },
        {
          "duration": 0.19999999999998863,
          "durationTicks": 192,
          "midi": 48,
          "name": "C3",
          "ticks": 145728,
          "time": 151.8,
          "velocity": 0.33858267716535434
        },
        {
          "duration": 0.20000000000001705,
          "durationTicks": 192,
          "midi": 50,
          "name": "D3",
          "ticks": 145920,
          "time": 152,
          "velocity": 0.33858267716535434
        },
        {
          "duration": 0.19999999999998863,
          "durationTicks": 192,
          "midi": 38,
          "name": "D2",
          "ticks": 146112,
          "time": 152.20000000000002,
          "velocity": 0.33858267716535434
        },
        {
          "duration": 0.20000000000001705,
          "durationTicks": 192,
          "midi": 38,
          "name": "D2",
          "ticks": 146496,
          "time": 152.6,
          "velocity": 0.33858267716535434
        },
        {
          "duration": 0.20000000000001705,
          "durationTicks": 192,
          "midi": 38,
          "name": "D2",
          "ticks": 146880,
          "time": 153,
          "velocity": 0.33858267716535434
        },
        {
          "duration": 0.19999999999998863,
          "durationTicks": 192,
          "midi": 45,
          "name": "A2",
          "ticks": 147072,
          "time": 153.20000000000002,
          "velocity": 0.33858267716535434
        },
        {
          "duration": 0.20000000000001705,
          "durationTicks": 192,
          "midi": 41,
          "name": "F2",
          "ticks": 147264,
          "time": 153.4,
          "velocity": 0.33858267716535434
        },
        {
          "duration": 0.19999999999998863,
          "durationTicks": 192,
          "midi": 36,
          "name": "C2",
          "ticks": 147456,
          "time": 153.60000000000002,
          "velocity": 0.33858267716535434
        },
        {
          "duration": 0.19999999999998863,
          "durationTicks": 192,
          "midi": 48,
          "name": "C3",
          "ticks": 147648,
          "time": 153.8,
          "velocity": 0.33858267716535434
        },
        {
          "duration": 0.19999999999998863,
          "durationTicks": 192,
          "midi": 48,
          "name": "C3",
          "ticks": 148032,
          "time": 154.20000000000002,
          "velocity": 0.33858267716535434
        },
        {
          "duration": 0.20000000000001705,
          "durationTicks": 192,
          "midi": 36,
          "name": "C2",
          "ticks": 148224,
          "time": 154.4,
          "velocity": 0.33858267716535434
        },
        {
          "duration": 0.19999999999998863,
          "durationTicks": 192,
          "midi": 43,
          "name": "G2",
          "ticks": 148416,
          "time": 154.60000000000002,
          "velocity": 0.33858267716535434
        },
        {
          "duration": 0.30000000000001137,
          "durationTicks": 288,
          "midi": 43,
          "name": "G2",
          "ticks": 148608,
          "time": 154.8,
          "velocity": 0.33858267716535434
        },
        {
          "duration": 0.19999999999998863,
          "durationTicks": 192,
          "midi": 47,
          "name": "B2",
          "ticks": 148992,
          "time": 155.20000000000002,
          "velocity": 0.33858267716535434
        },
        {
          "duration": 0.20000000000001705,
          "durationTicks": 192,
          "midi": 59,
          "name": "B3",
          "ticks": 149184,
          "time": 155.4,
          "velocity": 0.33858267716535434
        },
        {
          "duration": 0.19999999999998863,
          "durationTicks": 192,
          "midi": 59,
          "name": "B3",
          "ticks": 149568,
          "time": 155.8,
          "velocity": 0.33858267716535434
        },
        {
          "duration": 0.19999999999998863,
          "durationTicks": 192,
          "midi": 52,
          "name": "E3",
          "ticks": 149952,
          "time": 156.20000000000002,
          "velocity": 0.33858267716535434
        },
        {
          "duration": 0.19999999999998863,
          "durationTicks": 192,
          "midi": 56,
          "name": "G#3",
          "ticks": 150336,
          "time": 156.60000000000002,
          "velocity": 0.33858267716535434
        },
        {
          "duration": 0.19999999999998863,
          "durationTicks": 192,
          "midi": 45,
          "name": "A2",
          "ticks": 150528,
          "time": 156.8,
          "velocity": 0.33858267716535434
        },
        {
          "duration": 0.20000000000001705,
          "durationTicks": 192,
          "midi": 52,
          "name": "E3",
          "ticks": 150720,
          "time": 157,
          "velocity": 0.33858267716535434
        },
        {
          "duration": 0.19999999999998863,
          "durationTicks": 192,
          "midi": 45,
          "name": "A2",
          "ticks": 150912,
          "time": 157.20000000000002,
          "velocity": 0.33858267716535434
        },
        {
          "duration": 0.20000000000001705,
          "durationTicks": 192,
          "midi": 52,
          "name": "E3",
          "ticks": 151104,
          "time": 157.4,
          "velocity": 0.33858267716535434
        },
        {
          "duration": 0.29999999999998295,
          "durationTicks": 288,
          "midi": 45,
          "name": "A2",
          "ticks": 151296,
          "time": 157.60000000000002,
          "velocity": 0.33858267716535434
        },
        {
          "duration": 0.20000000000001705,
          "durationTicks": 192,
          "midi": 45,
          "name": "A2",
          "ticks": 152064,
          "time": 158.4,
          "velocity": 0.33858267716535434
        },
        {
          "duration": 0.19999999999998863,
          "durationTicks": 192,
          "midi": 52,
          "name": "E3",
          "ticks": 152256,
          "time": 158.60000000000002,
          "velocity": 0.33858267716535434
        },
        {
          "duration": 0.19999999999998863,
          "durationTicks": 192,
          "midi": 45,
          "name": "A2",
          "ticks": 152448,
          "time": 158.8,
          "velocity": 0.33858267716535434
        },
        {
          "duration": 0.20000000000001705,
          "durationTicks": 192,
          "midi": 52,
          "name": "E3",
          "ticks": 152640,
          "time": 159,
          "velocity": 0.33858267716535434
        },
        {
          "duration": 0.19999999999998863,
          "durationTicks": 192,
          "midi": 45,
          "name": "A2",
          "ticks": 152832,
          "time": 159.20000000000002,
          "velocity": 0.33858267716535434
        },
        {
          "duration": 0.20000000000001705,
          "durationTicks": 192,
          "midi": 52,
          "name": "E3",
          "ticks": 153024,
          "time": 159.4,
          "velocity": 0.33858267716535434
        },
        {
          "duration": 0.19999999999998863,
          "durationTicks": 192,
          "midi": 45,
          "name": "A2",
          "ticks": 153216,
          "time": 159.60000000000002,
          "velocity": 0.33858267716535434
        },
        {
          "duration": 0.19999999999998863,
          "durationTicks": 192,
          "midi": 52,
          "name": "E3",
          "ticks": 153408,
          "time": 159.8,
          "velocity": 0.33858267716535434
        },
        {
          "duration": 0.20000000000001705,
          "durationTicks": 192,
          "midi": 44,
          "name": "G#2",
          "ticks": 153600,
          "time": 160,
          "velocity": 0.33858267716535434
        },
        {
          "duration": 0.19999999999998863,
          "durationTicks": 192,
          "midi": 52,
          "name": "E3",
          "ticks": 153792,
          "time": 160.20000000000002,
          "velocity": 0.33858267716535434
        },
        {
          "duration": 0.20000000000001705,
          "durationTicks": 192,
          "midi": 44,
          "name": "G#2",
          "ticks": 153984,
          "time": 160.4,
          "velocity": 0.33858267716535434
        },
        {
          "duration": 0.19999999999998863,
          "durationTicks": 192,
          "midi": 52,
          "name": "E3",
          "ticks": 154176,
          "time": 160.60000000000002,
          "velocity": 0.33858267716535434
        },
        {
          "duration": 0.19999999999998863,
          "durationTicks": 192,
          "midi": 44,
          "name": "G#2",
          "ticks": 154368,
          "time": 160.8,
          "velocity": 0.33858267716535434
        },
        {
          "duration": 0.20000000000001705,
          "durationTicks": 192,
          "midi": 52,
          "name": "E3",
          "ticks": 154560,
          "time": 161,
          "velocity": 0.33858267716535434
        },
        {
          "duration": 0.19999999999998863,
          "durationTicks": 192,
          "midi": 44,
          "name": "G#2",
          "ticks": 154752,
          "time": 161.20000000000002,
          "velocity": 0.33858267716535434
        },
        {
          "duration": 0.20000000000001705,
          "durationTicks": 192,
          "midi": 52,
          "name": "E3",
          "ticks": 154944,
          "time": 161.4,
          "velocity": 0.33858267716535434
        },
        {
          "duration": 0.19999999999998863,
          "durationTicks": 192,
          "midi": 45,
          "name": "A2",
          "ticks": 155136,
          "time": 161.60000000000002,
          "velocity": 0.33858267716535434
        },
        {
          "duration": 0.19999999999998863,
          "durationTicks": 192,
          "midi": 52,
          "name": "E3",
          "ticks": 155328,
          "time": 161.8,
          "velocity": 0.33858267716535434
        },
        {
          "duration": 0.20000000000001705,
          "durationTicks": 192,
          "midi": 45,
          "name": "A2",
          "ticks": 155520,
          "time": 162,
          "velocity": 0.33858267716535434
        },
        {
          "duration": 0.19999999999998863,
          "durationTicks": 192,
          "midi": 52,
          "name": "E3",
          "ticks": 155712,
          "time": 162.20000000000002,
          "velocity": 0.33858267716535434
        },
        {
          "duration": 0.20000000000001705,
          "durationTicks": 192,
          "midi": 45,
          "name": "A2",
          "ticks": 155904,
          "time": 162.4,
          "velocity": 0.33858267716535434
        },
        {
          "duration": 0.19999999999998863,
          "durationTicks": 192,
          "midi": 52,
          "name": "E3",
          "ticks": 156096,
          "time": 162.60000000000002,
          "velocity": 0.33858267716535434
        },
        {
          "duration": 0.19999999999998863,
          "durationTicks": 192,
          "midi": 45,
          "name": "A2",
          "ticks": 156288,
          "time": 162.8,
          "velocity": 0.33858267716535434
        },
        {
          "duration": 0.20000000000001705,
          "durationTicks": 192,
          "midi": 52,
          "name": "E3",
          "ticks": 156480,
          "time": 163,
          "velocity": 0.33858267716535434
        },
        {
          "duration": 0.19999999999998863,
          "durationTicks": 192,
          "midi": 44,
          "name": "G#2",
          "ticks": 156672,
          "time": 163.20000000000002,
          "velocity": 0.33858267716535434
        },
        {
          "duration": 0.20000000000001705,
          "durationTicks": 192,
          "midi": 52,
          "name": "E3",
          "ticks": 156864,
          "time": 163.4,
          "velocity": 0.33858267716535434
        },
        {
          "duration": 0.19999999999998863,
          "durationTicks": 192,
          "midi": 44,
          "name": "G#2",
          "ticks": 157056,
          "time": 163.60000000000002,
          "velocity": 0.33858267716535434
        },
        {
          "duration": 0.19999999999998863,
          "durationTicks": 192,
          "midi": 52,
          "name": "E3",
          "ticks": 157248,
          "time": 163.8,
          "velocity": 0.33858267716535434
        },
        {
          "duration": 0.20000000000001705,
          "durationTicks": 192,
          "midi": 44,
          "name": "G#2",
          "ticks": 157440,
          "time": 164,
          "velocity": 0.33858267716535434
        },
        {
          "duration": 0.19999999999998863,
          "durationTicks": 192,
          "midi": 52,
          "name": "E3",
          "ticks": 157632,
          "time": 164.20000000000002,
          "velocity": 0.33858267716535434
        },
        {
          "duration": 0.20000000000001705,
          "durationTicks": 192,
          "midi": 44,
          "name": "G#2",
          "ticks": 157824,
          "time": 164.4,
          "velocity": 0.33858267716535434
        },
        {
          "duration": 0.19999999999998863,
          "durationTicks": 192,
          "midi": 52,
          "name": "E3",
          "ticks": 158016,
          "time": 164.60000000000002,
          "velocity": 0.33858267716535434
        },
        {
          "duration": 0.19999999999998863,
          "durationTicks": 192,
          "midi": 45,
          "name": "A2",
          "ticks": 158208,
          "time": 164.8,
          "velocity": 0.33858267716535434
        },
        {
          "duration": 0.20000000000001705,
          "durationTicks": 192,
          "midi": 52,
          "name": "E3",
          "ticks": 158400,
          "time": 165,
          "velocity": 0.33858267716535434
        },
        {
          "duration": 0.19999999999998863,
          "durationTicks": 192,
          "midi": 45,
          "name": "A2",
          "ticks": 158592,
          "time": 165.20000000000002,
          "velocity": 0.33858267716535434
        },
        {
          "duration": 0.20000000000001705,
          "durationTicks": 192,
          "midi": 52,
          "name": "E3",
          "ticks": 158784,
          "time": 165.4,
          "velocity": 0.33858267716535434
        },
        {
          "duration": 0.19999999999998863,
          "durationTicks": 192,
          "midi": 45,
          "name": "A2",
          "ticks": 158976,
          "time": 165.60000000000002,
          "velocity": 0.33858267716535434
        },
        {
          "duration": 0.19999999999998863,
          "durationTicks": 192,
          "midi": 52,
          "name": "E3",
          "ticks": 159168,
          "time": 165.8,
          "velocity": 0.33858267716535434
        },
        {
          "duration": 0.20000000000001705,
          "durationTicks": 192,
          "midi": 45,
          "name": "A2",
          "ticks": 159360,
          "time": 166,
          "velocity": 0.33858267716535434
        },
        {
          "duration": 0.19999999999998863,
          "durationTicks": 192,
          "midi": 52,
          "name": "E3",
          "ticks": 159552,
          "time": 166.20000000000002,
          "velocity": 0.33858267716535434
        },
        {
          "duration": 0.20000000000001705,
          "durationTicks": 192,
          "midi": 44,
          "name": "G#2",
          "ticks": 159744,
          "time": 166.4,
          "velocity": 0.33858267716535434
        },
        {
          "duration": 0.19999999999998863,
          "durationTicks": 192,
          "midi": 52,
          "name": "E3",
          "ticks": 159936,
          "time": 166.60000000000002,
          "velocity": 0.33858267716535434
        },
        {
          "duration": 0.19999999999998863,
          "durationTicks": 192,
          "midi": 44,
          "name": "G#2",
          "ticks": 160128,
          "time": 166.8,
          "velocity": 0.33858267716535434
        },
        {
          "duration": 0.20000000000001705,
          "durationTicks": 192,
          "midi": 52,
          "name": "E3",
          "ticks": 160320,
          "time": 167,
          "velocity": 0.33858267716535434
        },
        {
          "duration": 0.19999999999998863,
          "durationTicks": 192,
          "midi": 44,
          "name": "G#2",
          "ticks": 160512,
          "time": 167.20000000000002,
          "velocity": 0.33858267716535434
        },
        {
          "duration": 0.20000000000001705,
          "durationTicks": 192,
          "midi": 52,
          "name": "E3",
          "ticks": 160704,
          "time": 167.4,
          "velocity": 0.33858267716535434
        },
        {
          "duration": 0.19999999999998863,
          "durationTicks": 192,
          "midi": 44,
          "name": "G#2",
          "ticks": 160896,
          "time": 167.60000000000002,
          "velocity": 0.33858267716535434
        },
        {
          "duration": 0.19999999999998863,
          "durationTicks": 192,
          "midi": 52,
          "name": "E3",
          "ticks": 161088,
          "time": 167.8,
          "velocity": 0.33858267716535434
        },
        {
          "duration": 0.20000000000001705,
          "durationTicks": 192,
          "midi": 45,
          "name": "A2",
          "ticks": 161280,
          "time": 168,
          "velocity": 0.33858267716535434
        },
        {
          "duration": 0.19999999999998863,
          "durationTicks": 192,
          "midi": 52,
          "name": "E3",
          "ticks": 161472,
          "time": 168.20000000000002,
          "velocity": 0.33858267716535434
        },
        {
          "duration": 0.20000000000001705,
          "durationTicks": 192,
          "midi": 45,
          "name": "A2",
          "ticks": 161664,
          "time": 168.4,
          "velocity": 0.33858267716535434
        },
        {
          "duration": 0.19999999999998863,
          "durationTicks": 192,
          "midi": 52,
          "name": "E3",
          "ticks": 161856,
          "time": 168.60000000000002,
          "velocity": 0.33858267716535434
        },
        {
          "duration": 0.19999999999998863,
          "durationTicks": 192,
          "midi": 45,
          "name": "A2",
          "ticks": 162048,
          "time": 168.8,
          "velocity": 0.33858267716535434
        },
        {
          "duration": 0.20000000000001705,
          "durationTicks": 192,
          "midi": 52,
          "name": "E3",
          "ticks": 162240,
          "time": 169,
          "velocity": 0.33858267716535434
        },
        {
          "duration": 0.19999999999998863,
          "durationTicks": 192,
          "midi": 45,
          "name": "A2",
          "ticks": 162432,
          "time": 169.20000000000002,
          "velocity": 0.33858267716535434
        },
        {
          "duration": 0.20000000000001705,
          "durationTicks": 192,
          "midi": 52,
          "name": "E3",
          "ticks": 162624,
          "time": 169.4,
          "velocity": 0.33858267716535434
        },
        {
          "duration": 0.19999999999998863,
          "durationTicks": 192,
          "midi": 44,
          "name": "G#2",
          "ticks": 162816,
          "time": 169.60000000000002,
          "velocity": 0.33858267716535434
        },
        {
          "duration": 0.19999999999998863,
          "durationTicks": 192,
          "midi": 52,
          "name": "E3",
          "ticks": 163008,
          "time": 169.8,
          "velocity": 0.33858267716535434
        },
        {
          "duration": 0.20000000000001705,
          "durationTicks": 192,
          "midi": 44,
          "name": "G#2",
          "ticks": 163200,
          "time": 170,
          "velocity": 0.33858267716535434
        },
        {
          "duration": 0.19999999999998863,
          "durationTicks": 192,
          "midi": 52,
          "name": "E3",
          "ticks": 163392,
          "time": 170.20000000000002,
          "velocity": 0.33858267716535434
        },
        {
          "duration": 0.20000000000001705,
          "durationTicks": 192,
          "midi": 44,
          "name": "G#2",
          "ticks": 163584,
          "time": 170.4,
          "velocity": 0.3937007874015748
        },
        {
          "duration": 0.19999999999998863,
          "durationTicks": 192,
          "midi": 40,
          "name": "E2",
          "ticks": 164352,
          "time": 171.20000000000002,
          "velocity": 0.33858267716535434
        },
        {
          "duration": 0.20000000000001705,
          "durationTicks": 192,
          "midi": 52,
          "name": "E3",
          "ticks": 164544,
          "time": 171.4,
          "velocity": 0.33858267716535434
        },
        {
          "duration": 0.19999999999998863,
          "durationTicks": 192,
          "midi": 40,
          "name": "E2",
          "ticks": 164736,
          "time": 171.60000000000002,
          "velocity": 0.33858267716535434
        },
        {
          "duration": 0.19999999999998863,
          "durationTicks": 192,
          "midi": 52,
          "name": "E3",
          "ticks": 164928,
          "time": 171.8,
          "velocity": 0.33858267716535434
        },
        {
          "duration": 0.20000000000001705,
          "durationTicks": 192,
          "midi": 40,
          "name": "E2",
          "ticks": 165120,
          "time": 172,
          "velocity": 0.33858267716535434
        },
        {
          "duration": 0.19999999999998863,
          "durationTicks": 192,
          "midi": 52,
          "name": "E3",
          "ticks": 165312,
          "time": 172.20000000000002,
          "velocity": 0.33858267716535434
        },
        {
          "duration": 0.20000000000001705,
          "durationTicks": 192,
          "midi": 40,
          "name": "E2",
          "ticks": 165504,
          "time": 172.4,
          "velocity": 0.33858267716535434
        },
        {
          "duration": 0.19999999999998863,
          "durationTicks": 192,
          "midi": 52,
          "name": "E3",
          "ticks": 165696,
          "time": 172.60000000000002,
          "velocity": 0.33858267716535434
        },
        {
          "duration": 0.19999999999998863,
          "durationTicks": 192,
          "midi": 45,
          "name": "A2",
          "ticks": 165888,
          "time": 172.8,
          "velocity": 0.33858267716535434
        },
        {
          "duration": 0.20000000000001705,
          "durationTicks": 192,
          "midi": 57,
          "name": "A3",
          "ticks": 166080,
          "time": 173,
          "velocity": 0.33858267716535434
        },
        {
          "duration": 0.19999999999998863,
          "durationTicks": 192,
          "midi": 45,
          "name": "A2",
          "ticks": 166272,
          "time": 173.20000000000002,
          "velocity": 0.33858267716535434
        },
        {
          "duration": 0.20000000000001705,
          "durationTicks": 192,
          "midi": 57,
          "name": "A3",
          "ticks": 166464,
          "time": 173.4,
          "velocity": 0.33858267716535434
        },
        {
          "duration": 0.19999999999998863,
          "durationTicks": 192,
          "midi": 45,
          "name": "A2",
          "ticks": 166656,
          "time": 173.60000000000002,
          "velocity": 0.33858267716535434
        },
        {
          "duration": 0.19999999999998863,
          "durationTicks": 192,
          "midi": 57,
          "name": "A3",
          "ticks": 166848,
          "time": 173.8,
          "velocity": 0.33858267716535434
        },
        {
          "duration": 0.20000000000001705,
          "durationTicks": 192,
          "midi": 45,
          "name": "A2",
          "ticks": 167040,
          "time": 174,
          "velocity": 0.33858267716535434
        },
        {
          "duration": 0.19999999999998863,
          "durationTicks": 192,
          "midi": 57,
          "name": "A3",
          "ticks": 167232,
          "time": 174.20000000000002,
          "velocity": 0.33858267716535434
        },
        {
          "duration": 0.20000000000001705,
          "durationTicks": 192,
          "midi": 44,
          "name": "G#2",
          "ticks": 167424,
          "time": 174.4,
          "velocity": 0.33858267716535434
        },
        {
          "duration": 0.19999999999998863,
          "durationTicks": 192,
          "midi": 56,
          "name": "G#3",
          "ticks": 167616,
          "time": 174.60000000000002,
          "velocity": 0.33858267716535434
        },
        {
          "duration": 0.19999999999998863,
          "durationTicks": 192,
          "midi": 44,
          "name": "G#2",
          "ticks": 167808,
          "time": 174.8,
          "velocity": 0.33858267716535434
        },
        {
          "duration": 0.20000000000001705,
          "durationTicks": 192,
          "midi": 56,
          "name": "G#3",
          "ticks": 168000,
          "time": 175,
          "velocity": 0.33858267716535434
        },
        {
          "duration": 0.19999999999998863,
          "durationTicks": 192,
          "midi": 40,
          "name": "E2",
          "ticks": 168192,
          "time": 175.20000000000002,
          "velocity": 0.33858267716535434
        },
        {
          "duration": 0.20000000000001705,
          "durationTicks": 192,
          "midi": 52,
          "name": "E3",
          "ticks": 168384,
          "time": 175.4,
          "velocity": 0.33858267716535434
        },
        {
          "duration": 0.19999999999998863,
          "durationTicks": 192,
          "midi": 40,
          "name": "E2",
          "ticks": 168576,
          "time": 175.60000000000002,
          "velocity": 0.33858267716535434
        },
        {
          "duration": 0.19999999999998863,
          "durationTicks": 192,
          "midi": 52,
          "name": "E3",
          "ticks": 168768,
          "time": 175.8,
          "velocity": 0.33858267716535434
        },
        {
          "duration": 0.20000000000001705,
          "durationTicks": 192,
          "midi": 45,
          "name": "A2",
          "ticks": 168960,
          "time": 176,
          "velocity": 0.33858267716535434
        },
        {
          "duration": 0.19999999999998863,
          "durationTicks": 192,
          "midi": 57,
          "name": "A3",
          "ticks": 169152,
          "time": 176.20000000000002,
          "velocity": 0.33858267716535434
        },
        {
          "duration": 0.20000000000001705,
          "durationTicks": 192,
          "midi": 45,
          "name": "A2",
          "ticks": 169344,
          "time": 176.4,
          "velocity": 0.33858267716535434
        },
        {
          "duration": 0.19999999999998863,
          "durationTicks": 192,
          "midi": 57,
          "name": "A3",
          "ticks": 169536,
          "time": 176.60000000000002,
          "velocity": 0.33858267716535434
        },
        {
          "duration": 0.19999999999998863,
          "durationTicks": 192,
          "midi": 45,
          "name": "A2",
          "ticks": 169728,
          "time": 176.8,
          "velocity": 0.33858267716535434
        },
        {
          "duration": 0.20000000000001705,
          "durationTicks": 192,
          "midi": 57,
          "name": "A3",
          "ticks": 169920,
          "time": 177,
          "velocity": 0.33858267716535434
        },
        {
          "duration": 0.19999999999998863,
          "durationTicks": 192,
          "midi": 47,
          "name": "B2",
          "ticks": 170112,
          "time": 177.20000000000002,
          "velocity": 0.33858267716535434
        },
        {
          "duration": 0.20000000000001705,
          "durationTicks": 192,
          "midi": 48,
          "name": "C3",
          "ticks": 170304,
          "time": 177.4,
          "velocity": 0.33858267716535434
        },
        {
          "duration": 0.19999999999998863,
          "durationTicks": 192,
          "midi": 50,
          "name": "D3",
          "ticks": 170496,
          "time": 177.60000000000002,
          "velocity": 0.33858267716535434
        },
        {
          "duration": 0.19999999999998863,
          "durationTicks": 192,
          "midi": 38,
          "name": "D2",
          "ticks": 170688,
          "time": 177.8,
          "velocity": 0.33858267716535434
        },
        {
          "duration": 0.19999999999998863,
          "durationTicks": 192,
          "midi": 38,
          "name": "D2",
          "ticks": 171072,
          "time": 178.20000000000002,
          "velocity": 0.33858267716535434
        },
        {
          "duration": 0.19999999999998863,
          "durationTicks": 192,
          "midi": 38,
          "name": "D2",
          "ticks": 171456,
          "time": 178.60000000000002,
          "velocity": 0.33858267716535434
        },
        {
          "duration": 0.19999999999998863,
          "durationTicks": 192,
          "midi": 45,
          "name": "A2",
          "ticks": 171648,
          "time": 178.8,
          "velocity": 0.33858267716535434
        },
        {
          "duration": 0.20000000000001705,
          "durationTicks": 192,
          "midi": 41,
          "name": "F2",
          "ticks": 171840,
          "time": 179,
          "velocity": 0.33858267716535434
        },
        {
          "duration": 0.19999999999998863,
          "durationTicks": 192,
          "midi": 36,
          "name": "C2",
          "ticks": 172032,
          "time": 179.20000000000002,
          "velocity": 0.33858267716535434
        },
        {
          "duration": 0.20000000000001705,
          "durationTicks": 192,
          "midi": 48,
          "name": "C3",
          "ticks": 172224,
          "time": 179.4,
          "velocity": 0.33858267716535434
        },
        {
          "duration": 0.19999999999998863,
          "durationTicks": 192,
          "midi": 48,
          "name": "C3",
          "ticks": 172608,
          "time": 179.8,
          "velocity": 0.33858267716535434
        },
        {
          "duration": 0.20000000000001705,
          "durationTicks": 192,
          "midi": 36,
          "name": "C2",
          "ticks": 172800,
          "time": 180,
          "velocity": 0.33858267716535434
        },
        {
          "duration": 0.19999999999998863,
          "durationTicks": 192,
          "midi": 43,
          "name": "G2",
          "ticks": 172992,
          "time": 180.20000000000002,
          "velocity": 0.33858267716535434
        },
        {
          "duration": 0.30000000000001137,
          "durationTicks": 288,
          "midi": 43,
          "name": "G2",
          "ticks": 173184,
          "time": 180.4,
          "velocity": 0.33858267716535434
        },
        {
          "duration": 0.19999999999998863,
          "durationTicks": 192,
          "midi": 47,
          "name": "B2",
          "ticks": 173568,
          "time": 180.8,
          "velocity": 0.33858267716535434
        },
        {
          "duration": 0.20000000000001705,
          "durationTicks": 192,
          "midi": 59,
          "name": "B3",
          "ticks": 173760,
          "time": 181,
          "velocity": 0.33858267716535434
        },
        {
          "duration": 0.20000000000001705,
          "durationTicks": 192,
          "midi": 59,
          "name": "B3",
          "ticks": 174144,
          "time": 181.4,
          "velocity": 0.33858267716535434
        },
        {
          "duration": 0.19999999999998863,
          "durationTicks": 192,
          "midi": 52,
          "name": "E3",
          "ticks": 174528,
          "time": 181.8,
          "velocity": 0.33858267716535434
        },
        {
          "duration": 0.19999999999998863,
          "durationTicks": 192,
          "midi": 56,
          "name": "G#3",
          "ticks": 174912,
          "time": 182.20000000000002,
          "velocity": 0.33858267716535434
        },
        {
          "duration": 0.20000000000001705,
          "durationTicks": 192,
          "midi": 45,
          "name": "A2",
          "ticks": 175104,
          "time": 182.4,
          "velocity": 0.33858267716535434
        },
        {
          "duration": 0.19999999999998863,
          "durationTicks": 192,
          "midi": 52,
          "name": "E3",
          "ticks": 175296,
          "time": 182.60000000000002,
          "velocity": 0.33858267716535434
        },
        {
          "duration": 0.19999999999998863,
          "durationTicks": 192,
          "midi": 45,
          "name": "A2",
          "ticks": 175488,
          "time": 182.8,
          "velocity": 0.33858267716535434
        },
        {
          "duration": 0.20000000000001705,
          "durationTicks": 192,
          "midi": 52,
          "name": "E3",
          "ticks": 175680,
          "time": 183,
          "velocity": 0.33858267716535434
        },
        {
          "duration": 0.19999999999998863,
          "durationTicks": 192,
          "midi": 45,
          "name": "A2",
          "ticks": 175872,
          "time": 183.20000000000002,
          "velocity": 0.33858267716535434
        },
        {
          "duration": 0.20000000000001705,
          "durationTicks": 192,
          "midi": 52,
          "name": "E3",
          "ticks": 176064,
          "time": 183.4,
          "velocity": 0.33858267716535434
        },
        {
          "duration": 0.19999999999998863,
          "durationTicks": 192,
          "midi": 45,
          "name": "A2",
          "ticks": 176256,
          "time": 183.60000000000002,
          "velocity": 0.33858267716535434
        },
        {
          "duration": 0.19999999999998863,
          "durationTicks": 192,
          "midi": 52,
          "name": "E3",
          "ticks": 176448,
          "time": 183.8,
          "velocity": 0.33858267716535434
        },
        {
          "duration": 0.20000000000001705,
          "durationTicks": 192,
          "midi": 45,
          "name": "A2",
          "ticks": 176640,
          "time": 184,
          "velocity": 0.33858267716535434
        },
        {
          "duration": 0.19999999999998863,
          "durationTicks": 192,
          "midi": 52,
          "name": "E3",
          "ticks": 176832,
          "time": 184.20000000000002,
          "velocity": 0.33858267716535434
        },
        {
          "duration": 0.20000000000001705,
          "durationTicks": 192,
          "midi": 45,
          "name": "A2",
          "ticks": 177024,
          "time": 184.4,
          "velocity": 0.33858267716535434
        },
        {
          "duration": 0.19999999999998863,
          "durationTicks": 192,
          "midi": 52,
          "name": "E3",
          "ticks": 177216,
          "time": 184.60000000000002,
          "velocity": 0.33858267716535434
        },
        {
          "duration": 0.19999999999998863,
          "durationTicks": 192,
          "midi": 45,
          "name": "A2",
          "ticks": 177408,
          "time": 184.8,
          "velocity": 0.33858267716535434
        },
        {
          "duration": 0.20000000000001705,
          "durationTicks": 192,
          "midi": 52,
          "name": "E3",
          "ticks": 177600,
          "time": 185,
          "velocity": 0.33858267716535434
        },
        {
          "duration": 0.19999999999998863,
          "durationTicks": 192,
          "midi": 45,
          "name": "A2",
          "ticks": 177792,
          "time": 185.20000000000002,
          "velocity": 0.33858267716535434
        },
        {
          "duration": 0.20000000000001705,
          "durationTicks": 192,
          "midi": 52,
          "name": "E3",
          "ticks": 177984,
          "time": 185.4,
          "velocity": 0.33858267716535434
        },
        {
          "duration": 0.19999999999998863,
          "durationTicks": 192,
          "midi": 45,
          "name": "A2",
          "ticks": 178176,
          "time": 185.60000000000002,
          "velocity": 0.33858267716535434
        },
        {
          "duration": 0.19999999999998863,
          "durationTicks": 192,
          "midi": 52,
          "name": "E3",
          "ticks": 178368,
          "time": 185.8,
          "velocity": 0.33858267716535434
        },
        {
          "duration": 0.20000000000001705,
          "durationTicks": 192,
          "midi": 45,
          "name": "A2",
          "ticks": 178560,
          "time": 186,
          "velocity": 0.33858267716535434
        },
        {
          "duration": 0.19999999999998863,
          "durationTicks": 192,
          "midi": 52,
          "name": "E3",
          "ticks": 178752,
          "time": 186.20000000000002,
          "velocity": 0.33858267716535434
        },
        {
          "duration": 0.20000000000001705,
          "durationTicks": 192,
          "midi": 45,
          "name": "A2",
          "ticks": 178944,
          "time": 186.4,
          "velocity": 0.33858267716535434
        },
        {
          "duration": 0.19999999999998863,
          "durationTicks": 192,
          "midi": 52,
          "name": "E3",
          "ticks": 179136,
          "time": 186.60000000000002,
          "velocity": 0.33858267716535434
        },
        {
          "duration": 0.19999999999998863,
          "durationTicks": 192,
          "midi": 45,
          "name": "A2",
          "ticks": 179328,
          "time": 186.8,
          "velocity": 0.33858267716535434
        },
        {
          "duration": 0.20000000000001705,
          "durationTicks": 192,
          "midi": 52,
          "name": "E3",
          "ticks": 179520,
          "time": 187,
          "velocity": 0.33858267716535434
        },
        {
          "duration": 0.19999999999998863,
          "durationTicks": 192,
          "midi": 44,
          "name": "G#2",
          "ticks": 179712,
          "time": 187.20000000000002,
          "velocity": 0.33858267716535434
        },
        {
          "duration": 0.20000000000001705,
          "durationTicks": 192,
          "midi": 52,
          "name": "E3",
          "ticks": 179904,
          "time": 187.4,
          "velocity": 0.33858267716535434
        },
        {
          "duration": 0.19999999999998863,
          "durationTicks": 192,
          "midi": 44,
          "name": "G#2",
          "ticks": 180096,
          "time": 187.60000000000002,
          "velocity": 0.33858267716535434
        },
        {
          "duration": 0.19999999999998863,
          "durationTicks": 192,
          "midi": 52,
          "name": "E3",
          "ticks": 180288,
          "time": 187.8,
          "velocity": 0.33858267716535434
        },
        {
          "duration": 0.20000000000001705,
          "durationTicks": 192,
          "midi": 44,
          "name": "G#2",
          "ticks": 180480,
          "time": 188,
          "velocity": 0.33858267716535434
        },
        {
          "duration": 0.19999999999998863,
          "durationTicks": 192,
          "midi": 52,
          "name": "E3",
          "ticks": 180672,
          "time": 188.20000000000002,
          "velocity": 0.33858267716535434
        },
        {
          "duration": 0.20000000000001705,
          "durationTicks": 192,
          "midi": 44,
          "name": "G#2",
          "ticks": 180864,
          "time": 188.4,
          "velocity": 0.33858267716535434
        },
        {
          "duration": 0.19999999999998863,
          "durationTicks": 192,
          "midi": 52,
          "name": "E3",
          "ticks": 181056,
          "time": 188.60000000000002,
          "velocity": 0.33858267716535434
        },
        {
          "duration": 0.19999999999998863,
          "durationTicks": 192,
          "midi": 45,
          "name": "A2",
          "ticks": 181248,
          "time": 188.8,
          "velocity": 0.33858267716535434
        },
        {
          "duration": 0.20000000000001705,
          "durationTicks": 192,
          "midi": 52,
          "name": "E3",
          "ticks": 181440,
          "time": 189,
          "velocity": 0.33858267716535434
        },
        {
          "duration": 0.19999999999998863,
          "durationTicks": 192,
          "midi": 45,
          "name": "A2",
          "ticks": 181632,
          "time": 189.20000000000002,
          "velocity": 0.33858267716535434
        },
        {
          "duration": 0.20000000000001705,
          "durationTicks": 192,
          "midi": 52,
          "name": "E3",
          "ticks": 181824,
          "time": 189.4,
          "velocity": 0.33858267716535434
        },
        {
          "duration": 0.19999999999998863,
          "durationTicks": 192,
          "midi": 45,
          "name": "A2",
          "ticks": 182016,
          "time": 189.60000000000002,
          "velocity": 0.33858267716535434
        },
        {
          "duration": 0.19999999999998863,
          "durationTicks": 192,
          "midi": 52,
          "name": "E3",
          "ticks": 182208,
          "time": 189.8,
          "velocity": 0.33858267716535434
        },
        {
          "duration": 0.20000000000001705,
          "durationTicks": 192,
          "midi": 45,
          "name": "A2",
          "ticks": 182400,
          "time": 190,
          "velocity": 0.33858267716535434
        },
        {
          "duration": 0.19999999999998863,
          "durationTicks": 192,
          "midi": 52,
          "name": "E3",
          "ticks": 182592,
          "time": 190.20000000000002,
          "velocity": 0.33858267716535434
        },
        {
          "duration": 0.20000000000001705,
          "durationTicks": 192,
          "midi": 44,
          "name": "G#2",
          "ticks": 182784,
          "time": 190.4,
          "velocity": 0.33858267716535434
        },
        {
          "duration": 0.19999999999998863,
          "durationTicks": 192,
          "midi": 52,
          "name": "E3",
          "ticks": 182976,
          "time": 190.60000000000002,
          "velocity": 0.33858267716535434
        },
        {
          "duration": 0.19999999999998863,
          "durationTicks": 192,
          "midi": 44,
          "name": "G#2",
          "ticks": 183168,
          "time": 190.8,
          "velocity": 0.33858267716535434
        },
        {
          "duration": 0.20000000000001705,
          "durationTicks": 192,
          "midi": 52,
          "name": "E3",
          "ticks": 183360,
          "time": 191,
          "velocity": 0.33858267716535434
        },
        {
          "duration": 0.19999999999998863,
          "durationTicks": 192,
          "midi": 44,
          "name": "G#2",
          "ticks": 183552,
          "time": 191.20000000000002,
          "velocity": 0.33858267716535434
        },
        {
          "duration": 0.20000000000001705,
          "durationTicks": 192,
          "midi": 52,
          "name": "E3",
          "ticks": 183744,
          "time": 191.4,
          "velocity": 0.33858267716535434
        },
        {
          "duration": 0.19999999999998863,
          "durationTicks": 192,
          "midi": 44,
          "name": "G#2",
          "ticks": 183936,
          "time": 191.60000000000002,
          "velocity": 0.33858267716535434
        },
        {
          "duration": 0.19999999999998863,
          "durationTicks": 192,
          "midi": 52,
          "name": "E3",
          "ticks": 184128,
          "time": 191.8,
          "velocity": 0.33858267716535434
        },
        {
          "duration": 0.20000000000001705,
          "durationTicks": 192,
          "midi": 45,
          "name": "A2",
          "ticks": 184320,
          "time": 192,
          "velocity": 0.33858267716535434
        },
        {
          "duration": 0.19999999999998863,
          "durationTicks": 192,
          "midi": 52,
          "name": "E3",
          "ticks": 184512,
          "time": 192.20000000000002,
          "velocity": 0.33858267716535434
        },
        {
          "duration": 0.20000000000001705,
          "durationTicks": 192,
          "midi": 45,
          "name": "A2",
          "ticks": 184704,
          "time": 192.4,
          "velocity": 0.33858267716535434
        },
        {
          "duration": 0.19999999999998863,
          "durationTicks": 192,
          "midi": 52,
          "name": "E3",
          "ticks": 184896,
          "time": 192.60000000000002,
          "velocity": 0.33858267716535434
        },
        {
          "duration": 0.19999999999998863,
          "durationTicks": 192,
          "midi": 45,
          "name": "A2",
          "ticks": 185088,
          "time": 192.8,
          "velocity": 0.33858267716535434
        },
        {
          "duration": 0.20000000000001705,
          "durationTicks": 192,
          "midi": 52,
          "name": "E3",
          "ticks": 185280,
          "time": 193,
          "velocity": 0.33858267716535434
        },
        {
          "duration": 0.19999999999998863,
          "durationTicks": 192,
          "midi": 45,
          "name": "A2",
          "ticks": 185472,
          "time": 193.20000000000002,
          "velocity": 0.33858267716535434
        },
        {
          "duration": 0.20000000000001705,
          "durationTicks": 192,
          "midi": 52,
          "name": "E3",
          "ticks": 185664,
          "time": 193.4,
          "velocity": 0.33858267716535434
        },
        {
          "duration": 0.19999999999998863,
          "durationTicks": 192,
          "midi": 44,
          "name": "G#2",
          "ticks": 185856,
          "time": 193.60000000000002,
          "velocity": 0.33858267716535434
        },
        {
          "duration": 0.19999999999998863,
          "durationTicks": 192,
          "midi": 52,
          "name": "E3",
          "ticks": 186048,
          "time": 193.8,
          "velocity": 0.33858267716535434
        },
        {
          "duration": 0.20000000000001705,
          "durationTicks": 192,
          "midi": 44,
          "name": "G#2",
          "ticks": 186240,
          "time": 194,
          "velocity": 0.33858267716535434
        },
        {
          "duration": 0.19999999999998863,
          "durationTicks": 192,
          "midi": 52,
          "name": "E3",
          "ticks": 186432,
          "time": 194.20000000000002,
          "velocity": 0.33858267716535434
        },
        {
          "duration": 0.20000000000001705,
          "durationTicks": 192,
          "midi": 44,
          "name": "G#2",
          "ticks": 186624,
          "time": 194.4,
          "velocity": 0.33858267716535434
        },
        {
          "duration": 0.19999999999998863,
          "durationTicks": 192,
          "midi": 52,
          "name": "E3",
          "ticks": 186816,
          "time": 194.60000000000002,
          "velocity": 0.33858267716535434
        },
        {
          "duration": 0.19999999999998863,
          "durationTicks": 192,
          "midi": 44,
          "name": "G#2",
          "ticks": 187008,
          "time": 194.8,
          "velocity": 0.33858267716535434
        },
        {
          "duration": 0.20000000000001705,
          "durationTicks": 192,
          "midi": 52,
          "name": "E3",
          "ticks": 187200,
          "time": 195,
          "velocity": 0.33858267716535434
        },
        {
          "duration": 0.19999999999998863,
          "durationTicks": 192,
          "midi": 45,
          "name": "A2",
          "ticks": 187392,
          "time": 195.20000000000002,
          "velocity": 0.33858267716535434
        },
        {
          "duration": 0.20000000000001705,
          "durationTicks": 192,
          "midi": 52,
          "name": "E3",
          "ticks": 187584,
          "time": 195.4,
          "velocity": 0.33858267716535434
        },
        {
          "duration": 0.19999999999998863,
          "durationTicks": 192,
          "midi": 45,
          "name": "A2",
          "ticks": 187776,
          "time": 195.60000000000002,
          "velocity": 0.33858267716535434
        },
        {
          "duration": 0.19999999999998863,
          "durationTicks": 192,
          "midi": 52,
          "name": "E3",
          "ticks": 187968,
          "time": 195.8,
          "velocity": 0.33858267716535434
        },
        {
          "duration": 0.20000000000001705,
          "durationTicks": 192,
          "midi": 45,
          "name": "A2",
          "ticks": 188160,
          "time": 196,
          "velocity": 0.33858267716535434
        },
        {
          "duration": 0.19999999999998863,
          "durationTicks": 192,
          "midi": 52,
          "name": "E3",
          "ticks": 188352,
          "time": 196.20000000000002,
          "velocity": 0.33858267716535434
        },
        {
          "duration": 0.20000000000001705,
          "durationTicks": 192,
          "midi": 45,
          "name": "A2",
          "ticks": 188544,
          "time": 196.4,
          "velocity": 0.33858267716535434
        },
        {
          "duration": 0.19999999999998863,
          "durationTicks": 192,
          "midi": 52,
          "name": "E3",
          "ticks": 188736,
          "time": 196.60000000000002,
          "velocity": 0.33858267716535434
        },
        {
          "duration": 0.19999999999998863,
          "durationTicks": 192,
          "midi": 44,
          "name": "G#2",
          "ticks": 188928,
          "time": 196.8,
          "velocity": 0.33858267716535434
        },
        {
          "duration": 0.20000000000001705,
          "durationTicks": 192,
          "midi": 52,
          "name": "E3",
          "ticks": 189120,
          "time": 197,
          "velocity": 0.33858267716535434
        },
        {
          "duration": 0.19999999999998863,
          "durationTicks": 192,
          "midi": 44,
          "name": "G#2",
          "ticks": 189312,
          "time": 197.20000000000002,
          "velocity": 0.33858267716535434
        },
        {
          "duration": 0.20000000000001705,
          "durationTicks": 192,
          "midi": 52,
          "name": "E3",
          "ticks": 189504,
          "time": 197.4,
          "velocity": 0.33858267716535434
        },
        {
          "duration": 0.19999999999998863,
          "durationTicks": 192,
          "midi": 44,
          "name": "G#2",
          "ticks": 189696,
          "time": 197.60000000000002,
          "velocity": 0.33858267716535434
        },
        {
          "duration": 0.19999999999998863,
          "durationTicks": 192,
          "midi": 52,
          "name": "E3",
          "ticks": 189888,
          "time": 197.8,
          "velocity": 0.33858267716535434
        },
        {
          "duration": 0.20000000000001705,
          "durationTicks": 192,
          "midi": 44,
          "name": "G#2",
          "ticks": 190080,
          "time": 198,
          "velocity": 0.33858267716535434
        },
        {
          "duration": 0.19999999999998863,
          "durationTicks": 192,
          "midi": 52,
          "name": "E3",
          "ticks": 190272,
          "time": 198.20000000000002,
          "velocity": 0.33858267716535434
        },
        {
          "duration": 0.20000000000001705,
          "durationTicks": 192,
          "midi": 45,
          "name": "A2",
          "ticks": 190464,
          "time": 198.4,
          "velocity": 0.33858267716535434
        },
        {
          "duration": 0.19999999999998863,
          "durationTicks": 192,
          "midi": 52,
          "name": "E3",
          "ticks": 190656,
          "time": 198.60000000000002,
          "velocity": 0.33858267716535434
        },
        {
          "duration": 0.19999999999998863,
          "durationTicks": 192,
          "midi": 45,
          "name": "A2",
          "ticks": 190848,
          "time": 198.8,
          "velocity": 0.33858267716535434
        },
        {
          "duration": 0.20000000000001705,
          "durationTicks": 192,
          "midi": 52,
          "name": "E3",
          "ticks": 191040,
          "time": 199,
          "velocity": 0.33858267716535434
        },
        {
          "duration": 0.19999999999998863,
          "durationTicks": 192,
          "midi": 45,
          "name": "A2",
          "ticks": 191232,
          "time": 199.20000000000002,
          "velocity": 0.33858267716535434
        },
        {
          "duration": 0.20000000000001705,
          "durationTicks": 192,
          "midi": 52,
          "name": "E3",
          "ticks": 191424,
          "time": 199.4,
          "velocity": 0.33858267716535434
        },
        {
          "duration": 0.19999999999998863,
          "durationTicks": 192,
          "midi": 45,
          "name": "A2",
          "ticks": 191616,
          "time": 199.60000000000002,
          "velocity": 0.33858267716535434
        },
        {
          "duration": 0.19999999999998863,
          "durationTicks": 192,
          "midi": 52,
          "name": "E3",
          "ticks": 191808,
          "time": 199.8,
          "velocity": 0.33858267716535434
        },
        {
          "duration": 0.20000000000001705,
          "durationTicks": 192,
          "midi": 45,
          "name": "A2",
          "ticks": 192000,
          "time": 200,
          "velocity": 0.33858267716535434
        },
        {
          "duration": 0.19999999999998863,
          "durationTicks": 192,
          "midi": 52,
          "name": "E3",
          "ticks": 192192,
          "time": 200.20000000000002,
          "velocity": 0.33858267716535434
        },
        {
          "duration": 0.20000000000001705,
          "durationTicks": 192,
          "midi": 45,
          "name": "A2",
          "ticks": 192384,
          "time": 200.4,
          "velocity": 0.33858267716535434
        },
        {
          "duration": 0.19999999999998863,
          "durationTicks": 192,
          "midi": 52,
          "name": "E3",
          "ticks": 192576,
          "time": 200.60000000000002,
          "velocity": 0.33858267716535434
        },
        {
          "duration": 0.19999999999998863,
          "durationTicks": 192,
          "midi": 45,
          "name": "A2",
          "ticks": 192768,
          "time": 200.8,
          "velocity": 0.33858267716535434
        },
        {
          "duration": 0.20000000000001705,
          "durationTicks": 192,
          "midi": 52,
          "name": "E3",
          "ticks": 192960,
          "time": 201,
          "velocity": 0.33858267716535434
        },
        {
          "duration": 0.19999999999998863,
          "durationTicks": 192,
          "midi": 45,
          "name": "A2",
          "ticks": 193152,
          "time": 201.20000000000002,
          "velocity": 0.33858267716535434
        },
        {
          "duration": 0.20000000000001705,
          "durationTicks": 192,
          "midi": 52,
          "name": "E3",
          "ticks": 193344,
          "time": 201.4,
          "velocity": 0.33858267716535434
        },
        {
          "duration": 0.19999999999998863,
          "durationTicks": 192,
          "midi": 45,
          "name": "A2",
          "ticks": 193536,
          "time": 201.60000000000002,
          "velocity": 0.33858267716535434
        },
        {
          "duration": 0.19999999999998863,
          "durationTicks": 192,
          "midi": 52,
          "name": "E3",
          "ticks": 193728,
          "time": 201.8,
          "velocity": 0.33858267716535434
        },
        {
          "duration": 0.20000000000001705,
          "durationTicks": 192,
          "midi": 45,
          "name": "A2",
          "ticks": 193920,
          "time": 202,
          "velocity": 0.33858267716535434
        },
        {
          "duration": 0.19999999999998863,
          "durationTicks": 192,
          "midi": 52,
          "name": "E3",
          "ticks": 194112,
          "time": 202.20000000000002,
          "velocity": 0.33858267716535434
        },
        {
          "duration": 0.20000000000001705,
          "durationTicks": 192,
          "midi": 45,
          "name": "A2",
          "ticks": 194304,
          "time": 202.4,
          "velocity": 0.33858267716535434
        },
        {
          "duration": 0.19999999999998863,
          "durationTicks": 192,
          "midi": 52,
          "name": "E3",
          "ticks": 194496,
          "time": 202.60000000000002,
          "velocity": 0.33858267716535434
        },
        {
          "duration": 0.19999999999998863,
          "durationTicks": 192,
          "midi": 45,
          "name": "A2",
          "ticks": 194688,
          "time": 202.8,
          "velocity": 0.33858267716535434
        },
        {
          "duration": 0.20000000000001705,
          "durationTicks": 192,
          "midi": 52,
          "name": "E3",
          "ticks": 194880,
          "time": 203,
          "velocity": 0.33858267716535434
        },
        {
          "duration": 0.19999999999998863,
          "durationTicks": 192,
          "midi": 45,
          "name": "A2",
          "ticks": 195072,
          "time": 203.20000000000002,
          "velocity": 0.33858267716535434
        },
        {
          "duration": 0.20000000000001705,
          "durationTicks": 192,
          "midi": 52,
          "name": "E3",
          "ticks": 195264,
          "time": 203.4,
          "velocity": 0.33858267716535434
        },
        {
          "duration": 0.19999999999998863,
          "durationTicks": 192,
          "midi": 45,
          "name": "A2",
          "ticks": 195456,
          "time": 203.60000000000002,
          "velocity": 0.33858267716535434
        },
        {
          "duration": 0.19999999999998863,
          "durationTicks": 192,
          "midi": 52,
          "name": "E3",
          "ticks": 195648,
          "time": 203.8,
          "velocity": 0.33858267716535434
        },
        {
          "duration": 0.20000000000001705,
          "durationTicks": 192,
          "midi": 45,
          "name": "A2",
          "ticks": 195840,
          "time": 204,
          "velocity": 0.33858267716535434
        },
        {
          "duration": 0.19999999999998863,
          "durationTicks": 192,
          "midi": 52,
          "name": "E3",
          "ticks": 196032,
          "time": 204.20000000000002,
          "velocity": 0.33858267716535434
        },
        {
          "duration": 0.20000000000001705,
          "durationTicks": 192,
          "midi": 45,
          "name": "A2",
          "ticks": 196224,
          "time": 204.4,
          "velocity": 0.33858267716535434
        },
        {
          "duration": 0.19999999999998863,
          "durationTicks": 192,
          "midi": 52,
          "name": "E3",
          "ticks": 196416,
          "time": 204.60000000000002,
          "velocity": 0.33858267716535434
        },
        {
          "duration": 0.19999999999998863,
          "durationTicks": 192,
          "midi": 44,
          "name": "G#2",
          "ticks": 196608,
          "time": 204.8,
          "velocity": 0.33858267716535434
        },
        {
          "duration": 0.20000000000001705,
          "durationTicks": 192,
          "midi": 52,
          "name": "E3",
          "ticks": 196800,
          "time": 205,
          "velocity": 0.33858267716535434
        },
        {
          "duration": 0.19999999999998863,
          "durationTicks": 192,
          "midi": 44,
          "name": "G#2",
          "ticks": 196992,
          "time": 205.20000000000002,
          "velocity": 0.33858267716535434
        },
        {
          "duration": 0.20000000000001705,
          "durationTicks": 192,
          "midi": 52,
          "name": "E3",
          "ticks": 197184,
          "time": 205.4,
          "velocity": 0.33858267716535434
        },
        {
          "duration": 0.19999999999998863,
          "durationTicks": 192,
          "midi": 44,
          "name": "G#2",
          "ticks": 197376,
          "time": 205.60000000000002,
          "velocity": 0.33858267716535434
        },
        {
          "duration": 0.19999999999998863,
          "durationTicks": 192,
          "midi": 52,
          "name": "E3",
          "ticks": 197568,
          "time": 205.8,
          "velocity": 0.33858267716535434
        },
        {
          "duration": 0.20000000000001705,
          "durationTicks": 192,
          "midi": 44,
          "name": "G#2",
          "ticks": 197760,
          "time": 206,
          "velocity": 0.33858267716535434
        },
        {
          "duration": 0.19999999999998863,
          "durationTicks": 192,
          "midi": 52,
          "name": "E3",
          "ticks": 197952,
          "time": 206.20000000000002,
          "velocity": 0.33858267716535434
        },
        {
          "duration": 0.20000000000001705,
          "durationTicks": 192,
          "midi": 45,
          "name": "A2",
          "ticks": 198144,
          "time": 206.4,
          "velocity": 0.33858267716535434
        },
        {
          "duration": 0.19999999999998863,
          "durationTicks": 192,
          "midi": 52,
          "name": "E3",
          "ticks": 198336,
          "time": 206.60000000000002,
          "velocity": 0.33858267716535434
        },
        {
          "duration": 0.19999999999998863,
          "durationTicks": 192,
          "midi": 45,
          "name": "A2",
          "ticks": 198528,
          "time": 206.8,
          "velocity": 0.33858267716535434
        },
        {
          "duration": 0.20000000000001705,
          "durationTicks": 192,
          "midi": 52,
          "name": "E3",
          "ticks": 198720,
          "time": 207,
          "velocity": 0.33858267716535434
        },
        {
          "duration": 0.19999999999998863,
          "durationTicks": 192,
          "midi": 45,
          "name": "A2",
          "ticks": 198912,
          "time": 207.20000000000002,
          "velocity": 0.33858267716535434
        },
        {
          "duration": 0.20000000000001705,
          "durationTicks": 192,
          "midi": 52,
          "name": "E3",
          "ticks": 199104,
          "time": 207.4,
          "velocity": 0.33858267716535434
        },
        {
          "duration": 0.19999999999998863,
          "durationTicks": 192,
          "midi": 45,
          "name": "A2",
          "ticks": 199296,
          "time": 207.60000000000002,
          "velocity": 0.33858267716535434
        },
        {
          "duration": 0.19999999999998863,
          "durationTicks": 192,
          "midi": 52,
          "name": "E3",
          "ticks": 199488,
          "time": 207.8,
          "velocity": 0.33858267716535434
        },
        {
          "duration": 0.20000000000001705,
          "durationTicks": 192,
          "midi": 44,
          "name": "G#2",
          "ticks": 199680,
          "time": 208,
          "velocity": 0.33858267716535434
        },
        {
          "duration": 0.19999999999998863,
          "durationTicks": 192,
          "midi": 52,
          "name": "E3",
          "ticks": 199872,
          "time": 208.20000000000002,
          "velocity": 0.33858267716535434
        },
        {
          "duration": 0.20000000000001705,
          "durationTicks": 192,
          "midi": 44,
          "name": "G#2",
          "ticks": 200064,
          "time": 208.4,
          "velocity": 0.33858267716535434
        },
        {
          "duration": 0.19999999999998863,
          "durationTicks": 192,
          "midi": 52,
          "name": "E3",
          "ticks": 200256,
          "time": 208.60000000000002,
          "velocity": 0.33858267716535434
        },
        {
          "duration": 0.19999999999998863,
          "durationTicks": 192,
          "midi": 44,
          "name": "G#2",
          "ticks": 200448,
          "time": 208.8,
          "velocity": 0.33858267716535434
        },
        {
          "duration": 0.20000000000001705,
          "durationTicks": 192,
          "midi": 52,
          "name": "E3",
          "ticks": 200640,
          "time": 209,
          "velocity": 0.33858267716535434
        },
        {
          "duration": 0.19999999999998863,
          "durationTicks": 192,
          "midi": 44,
          "name": "G#2",
          "ticks": 200832,
          "time": 209.20000000000002,
          "velocity": 0.33858267716535434
        },
        {
          "duration": 0.20000000000001705,
          "durationTicks": 192,
          "midi": 52,
          "name": "E3",
          "ticks": 201024,
          "time": 209.4,
          "velocity": 0.33858267716535434
        },
        {
          "duration": 0.19999999999998863,
          "durationTicks": 192,
          "midi": 45,
          "name": "A2",
          "ticks": 201216,
          "time": 209.60000000000002,
          "velocity": 0.33858267716535434
        },
        {
          "duration": 0.19999999999998863,
          "durationTicks": 192,
          "midi": 52,
          "name": "E3",
          "ticks": 201408,
          "time": 209.8,
          "velocity": 0.33858267716535434
        },
        {
          "duration": 0.20000000000001705,
          "durationTicks": 192,
          "midi": 45,
          "name": "A2",
          "ticks": 201600,
          "time": 210,
          "velocity": 0.33858267716535434
        },
        {
          "duration": 0.19999999999998863,
          "durationTicks": 192,
          "midi": 52,
          "name": "E3",
          "ticks": 201792,
          "time": 210.20000000000002,
          "velocity": 0.33858267716535434
        },
        {
          "duration": 0.20000000000001705,
          "durationTicks": 192,
          "midi": 45,
          "name": "A2",
          "ticks": 201984,
          "time": 210.4,
          "velocity": 0.33858267716535434
        },
        {
          "duration": 0.19999999999998863,
          "durationTicks": 192,
          "midi": 52,
          "name": "E3",
          "ticks": 202176,
          "time": 210.60000000000002,
          "velocity": 0.33858267716535434
        },
        {
          "duration": 0.19999999999998863,
          "durationTicks": 192,
          "midi": 45,
          "name": "A2",
          "ticks": 202368,
          "time": 210.8,
          "velocity": 0.33858267716535434
        },
        {
          "duration": 0.20000000000001705,
          "durationTicks": 192,
          "midi": 52,
          "name": "E3",
          "ticks": 202560,
          "time": 211,
          "velocity": 0.33858267716535434
        },
        {
          "duration": 0.19999999999998863,
          "durationTicks": 192,
          "midi": 44,
          "name": "G#2",
          "ticks": 202752,
          "time": 211.20000000000002,
          "velocity": 0.33858267716535434
        },
        {
          "duration": 0.20000000000001705,
          "durationTicks": 192,
          "midi": 52,
          "name": "E3",
          "ticks": 202944,
          "time": 211.4,
          "velocity": 0.33858267716535434
        },
        {
          "duration": 0.19999999999998863,
          "durationTicks": 192,
          "midi": 44,
          "name": "G#2",
          "ticks": 203136,
          "time": 211.60000000000002,
          "velocity": 0.33858267716535434
        },
        {
          "duration": 0.19999999999998863,
          "durationTicks": 192,
          "midi": 52,
          "name": "E3",
          "ticks": 203328,
          "time": 211.8,
          "velocity": 0.33858267716535434
        },
        {
          "duration": 0.20000000000001705,
          "durationTicks": 192,
          "midi": 44,
          "name": "G#2",
          "ticks": 203520,
          "time": 212,
          "velocity": 0.33858267716535434
        },
        {
          "duration": 0.19999999999998863,
          "durationTicks": 192,
          "midi": 52,
          "name": "E3",
          "ticks": 203712,
          "time": 212.20000000000002,
          "velocity": 0.33858267716535434
        },
        {
          "duration": 0.20000000000001705,
          "durationTicks": 192,
          "midi": 44,
          "name": "G#2",
          "ticks": 203904,
          "time": 212.4,
          "velocity": 0.33858267716535434
        },
        {
          "duration": 0.19999999999998863,
          "durationTicks": 192,
          "midi": 52,
          "name": "E3",
          "ticks": 204096,
          "time": 212.60000000000002,
          "velocity": 0.33858267716535434
        },
        {
          "duration": 0.19999999999998863,
          "durationTicks": 192,
          "midi": 45,
          "name": "A2",
          "ticks": 204288,
          "time": 212.8,
          "velocity": 0.33858267716535434
        },
        {
          "duration": 0.20000000000001705,
          "durationTicks": 192,
          "midi": 52,
          "name": "E3",
          "ticks": 204480,
          "time": 213,
          "velocity": 0.33858267716535434
        },
        {
          "duration": 0.19999999999998863,
          "durationTicks": 192,
          "midi": 45,
          "name": "A2",
          "ticks": 204672,
          "time": 213.20000000000002,
          "velocity": 0.33858267716535434
        },
        {
          "duration": 0.20000000000001705,
          "durationTicks": 192,
          "midi": 52,
          "name": "E3",
          "ticks": 204864,
          "time": 213.4,
          "velocity": 0.33858267716535434
        },
        {
          "duration": 0.19999999999998863,
          "durationTicks": 192,
          "midi": 45,
          "name": "A2",
          "ticks": 205056,
          "time": 213.60000000000002,
          "velocity": 0.33858267716535434
        },
        {
          "duration": 0.19999999999998863,
          "durationTicks": 192,
          "midi": 52,
          "name": "E3",
          "ticks": 205248,
          "time": 213.8,
          "velocity": 0.33858267716535434
        },
        {
          "duration": 0.20000000000001705,
          "durationTicks": 192,
          "midi": 45,
          "name": "A2",
          "ticks": 205440,
          "time": 214,
          "velocity": 0.33858267716535434
        },
        {
          "duration": 0.19999999999998863,
          "durationTicks": 192,
          "midi": 52,
          "name": "E3",
          "ticks": 205632,
          "time": 214.20000000000002,
          "velocity": 0.33858267716535434
        },
        {
          "duration": 0.20000000000001705,
          "durationTicks": 192,
          "midi": 44,
          "name": "G#2",
          "ticks": 205824,
          "time": 214.4,
          "velocity": 0.33858267716535434
        },
        {
          "duration": 0.19999999999998863,
          "durationTicks": 192,
          "midi": 52,
          "name": "E3",
          "ticks": 206016,
          "time": 214.60000000000002,
          "velocity": 0.33858267716535434
        },
        {
          "duration": 0.19999999999998863,
          "durationTicks": 192,
          "midi": 44,
          "name": "G#2",
          "ticks": 206208,
          "time": 214.8,
          "velocity": 0.33858267716535434
        },
        {
          "duration": 0.20000000000001705,
          "durationTicks": 192,
          "midi": 52,
          "name": "E3",
          "ticks": 206400,
          "time": 215,
          "velocity": 0.33858267716535434
        },
        {
          "duration": 0.19999999999998863,
          "durationTicks": 192,
          "midi": 44,
          "name": "G#2",
          "ticks": 206592,
          "time": 215.20000000000002,
          "velocity": 0.33858267716535434
        },
        {
          "duration": 0.20000000000001705,
          "durationTicks": 192,
          "midi": 52,
          "name": "E3",
          "ticks": 206784,
          "time": 215.4,
          "velocity": 0.33858267716535434
        },
        {
          "duration": 0.19999999999998863,
          "durationTicks": 192,
          "midi": 44,
          "name": "G#2",
          "ticks": 206976,
          "time": 215.60000000000002,
          "velocity": 0.33858267716535434
        },
        {
          "duration": 0.19999999999998863,
          "durationTicks": 192,
          "midi": 52,
          "name": "E3",
          "ticks": 207168,
          "time": 215.8,
          "velocity": 0.33858267716535434
        },
        {
          "duration": 1.5,
          "durationTicks": 1440,
          "midi": 52,
          "name": "E3",
          "ticks": 207360,
          "time": 216,
          "velocity": 0.33858267716535434
        }
      ],
      "endOfTrackTicks": 208800
    },
    {
      "channel": 4,
      "controlChanges": {},
      "pitchBends": [],
      "instrument": {
        "family": "world",
        "number": 107,
        "name": "koto"
      },
      "name": "Koto",
      "notes": [
        {
          "duration": 1.5,
          "durationTicks": 1440,
          "midi": 76,
          "name": "E5",
          "ticks": 0,
          "time": 0,
          "velocity": 0.6771653543307087
        },
        {
          "duration": 0.30000000000000004,
          "durationTicks": 288,
          "midi": 76,
          "name": "E5",
          "ticks": 1536,
          "time": 1.6,
          "velocity": 0.7874015748031497
        },
        {
          "duration": 0.20000000000000018,
          "durationTicks": 192,
          "midi": 71,
          "name": "B4",
          "ticks": 1920,
          "time": 2,
          "velocity": 0.6771653543307087
        },
        {
          "duration": 0.20000000000000018,
          "durationTicks": 192,
          "midi": 72,
          "name": "C5",
          "ticks": 2112,
          "time": 2.2,
          "velocity": 0.6771653543307087
        },
        {
          "duration": 0.09999999999999964,
          "durationTicks": 96,
          "midi": 74,
          "name": "D5",
          "ticks": 2304,
          "time": 2.4000000000000004,
          "velocity": 0.7874015748031497
        },
        {
          "duration": 0.10000000000000009,
          "durationTicks": 96,
          "midi": 76,
          "name": "E5",
          "ticks": 2496,
          "time": 2.6,
          "velocity": 0.6771653543307087
        },
        {
          "duration": 0.10000000000000009,
          "durationTicks": 96,
          "midi": 74,
          "name": "D5",
          "ticks": 2592,
          "time": 2.7,
          "velocity": 0.6771653543307087
        },
        {
          "duration": 0.10000000000000009,
          "durationTicks": 96,
          "midi": 72,
          "name": "C5",
          "ticks": 2688,
          "time": 2.8000000000000003,
          "velocity": 0.6771653543307087
        },
        {
          "duration": 0.10000000000000009,
          "durationTicks": 96,
          "midi": 71,
          "name": "B4",
          "ticks": 2880,
          "time": 3,
          "velocity": 0.6771653543307087
        },
        {
          "duration": 0.2999999999999998,
          "durationTicks": 288,
          "midi": 69,
          "name": "A4",
          "ticks": 3072,
          "time": 3.2,
          "velocity": 0.7874015748031497
        },
        {
          "duration": 0.2999999999999998,
          "durationTicks": 288,
          "midi": 76,
          "name": "E5",
          "ticks": 3072,
          "time": 3.2,
          "velocity": 0.7874015748031497
        },
        {
          "duration": 0.20000000000000018,
          "durationTicks": 192,
          "midi": 69,
          "name": "A4",
          "ticks": 3456,
          "time": 3.6,
          "velocity": 0.6771653543307087
        },
        {
          "duration": 0.19999999999999973,
          "durationTicks": 192,
          "midi": 72,
          "name": "C5",
          "ticks": 3648,
          "time": 3.8000000000000003,
          "velocity": 0.6771653543307087
        },
        {
          "duration": 0.2999999999999998,
          "durationTicks": 288,
          "midi": 60,
          "name": "C4",
          "ticks": 3840,
          "time": 4,
          "velocity": 0.7874015748031497
        },
        {
          "duration": 0.2999999999999998,
          "durationTicks": 288,
          "midi": 76,
          "name": "E5",
          "ticks": 3840,
          "time": 4,
          "velocity": 0.7874015748031497
        },
        {
          "duration": 0.20000000000000018,
          "durationTicks": 192,
          "midi": 65,
          "name": "F4",
          "ticks": 4224,
          "time": 4.4,
          "velocity": 0.6771653543307087
        },
        {
          "duration": 0.20000000000000018,
          "durationTicks": 192,
          "midi": 74,
          "name": "D5",
          "ticks": 4224,
          "time": 4.4,
          "velocity": 0.6771653543307087
        },
        {
          "duration": 0.20000000000000018,
          "durationTicks": 192,
          "midi": 64,
          "name": "E4",
          "ticks": 4416,
          "time": 4.6000000000000005,
          "velocity": 0.7874015748031497
        },
        {
          "duration": 0.1999999999999993,
          "durationTicks": 192,
          "midi": 60,
          "name": "C4",
          "ticks": 4608,
          "time": 4.800000000000001,
          "velocity": 0.6771653543307087
        },
        {
          "duration": 0.1999999999999993,
          "durationTicks": 192,
          "midi": 72,
          "name": "C5",
          "ticks": 4608,
          "time": 4.800000000000001,
          "velocity": 0.6771653543307087
        },
        {
          "duration": 0.5,
          "durationTicks": 480,
          "midi": 59,
          "name": "B3",
          "ticks": 4800,
          "time": 5,
          "velocity": 0.6771653543307087
        },
        {
          "duration": 0.5,
          "durationTicks": 480,
          "midi": 71,
          "name": "B4",
          "ticks": 4800,
          "time": 5,
          "velocity": 0.6771653543307087
        },
        {
          "duration": 0.2999999999999998,
          "durationTicks": 288,
          "midi": 60,
          "name": "C4",
          "ticks": 5376,
          "time": 5.6000000000000005,
          "velocity": 0.7874015748031497
        },
        {
          "duration": 0.2999999999999998,
          "durationTicks": 288,
          "midi": 72,
          "name": "C5",
          "ticks": 5376,
          "time": 5.6000000000000005,
          "velocity": 0.7874015748031497
        },
        {
          "duration": 0.3000000000000007,
          "durationTicks": 288,
          "midi": 60,
          "name": "C4",
          "ticks": 5760,
          "time": 6,
          "velocity": 0.6771653543307087
        },
        {
          "duration": 0.3000000000000007,
          "durationTicks": 288,
          "midi": 76,
          "name": "E5",
          "ticks": 5760,
          "time": 6,
          "velocity": 0.6771653543307087
        },
        {
          "duration": 0.2999999999999998,
          "durationTicks": 288,
          "midi": 60,
          "name": "C4",
          "ticks": 6144,
          "time": 6.4,
          "velocity": 0.6771653543307087
        },
        {
          "duration": 0.2999999999999998,
          "durationTicks": 288,
          "midi": 72,
          "name": "C5",
          "ticks": 6144,
          "time": 6.4,
          "velocity": 0.6771653543307087
        },
        {
          "duration": 0.2999999999999998,
          "durationTicks": 288,
          "midi": 57,
          "name": "A3",
          "ticks": 6528,
          "time": 6.800000000000001,
          "velocity": 0.6771653543307087
        },
        {
          "duration": 0.2999999999999998,
          "durationTicks": 288,
          "midi": 69,
          "name": "A4",
          "ticks": 6528,
          "time": 6.800000000000001,
          "velocity": 0.6771653543307087
        },
        {
          "duration": 0.7000000000000002,
          "durationTicks": 672,
          "midi": 45,
          "name": "A2",
          "ticks": 6912,
          "time": 7.2,
          "velocity": 0.6771653543307087
        },
        {
          "duration": 0.7000000000000002,
          "durationTicks": 672,
          "midi": 69,
          "name": "A4",
          "ticks": 6912,
          "time": 7.2,
          "velocity": 0.6771653543307087
        },
        {
          "duration": 0.3999999999999986,
          "durationTicks": 384,
          "midi": 74,
          "name": "D5",
          "ticks": 7872,
          "time": 8.200000000000001,
          "velocity": 0.6771653543307087
        },
        {
          "duration": 0.20000000000000107,
          "durationTicks": 192,
          "midi": 77,
          "name": "F5",
          "ticks": 8256,
          "time": 8.6,
          "velocity": 0.6771653543307087
        },
        {
          "duration": 0.29999999999999893,
          "durationTicks": 288,
          "midi": 81,
          "name": "A5",
          "ticks": 8448,
          "time": 8.8,
          "velocity": 0.7874015748031497
        },
        {
          "duration": 0.1999999999999993,
          "durationTicks": 192,
          "midi": 79,
          "name": "G5",
          "ticks": 8832,
          "time": 9.200000000000001,
          "velocity": 0.6771653543307087
        },
        {
          "duration": 0.20000000000000107,
          "durationTicks": 192,
          "midi": 77,
          "name": "F5",
          "ticks": 9024,
          "time": 9.4,
          "velocity": 0.6771653543307087
        },
        {
          "duration": 0.5,
          "durationTicks": 480,
          "midi": 79,
          "name": "G5",
          "ticks": 9216,
          "time": 9.600000000000001,
          "velocity": 0.7874015748031497
        },
        {
          "duration": 0.1999999999999993,
          "durationTicks": 192,
          "midi": 72,
          "name": "C5",
          "ticks": 9792,
          "time": 10.200000000000001,
          "velocity": 0.6771653543307087
        },
        {
          "duration": 0.3000000000000007,
          "durationTicks": 288,
          "midi": 76,
          "name": "E5",
          "ticks": 9984,
          "time": 10.4,
          "velocity": 0.7874015748031497
        },
        {
          "duration": 0.1999999999999993,
          "durationTicks": 192,
          "midi": 74,
          "name": "D5",
          "ticks": 10368,
          "time": 10.8,
          "velocity": 0.6771653543307087
        },
        {
          "duration": 0.20000000000000107,
          "durationTicks": 192,
          "midi": 72,
          "name": "C5",
          "ticks": 10560,
          "time": 11,
          "velocity": 0.6771653543307087
        },
        {
          "duration": 0.29999999999999893,
          "durationTicks": 288,
          "midi": 76,
          "name": "E5",
          "ticks": 10752,
          "time": 11.200000000000001,
          "velocity": 0.7874015748031497
        },
        {
          "duration": 0.1999999999999993,
          "durationTicks": 192,
          "midi": 71,
          "name": "B4",
          "ticks": 11136,
          "time": 11.600000000000001,
          "velocity": 0.6771653543307087
        },
        {
          "duration": 0.1999999999999993,
          "durationTicks": 192,
          "midi": 72,
          "name": "C5",
          "ticks": 11328,
          "time": 11.8,
          "velocity": 0.6771653543307087
        },
        {
          "duration": 0.3000000000000007,
          "durationTicks": 288,
          "midi": 74,
          "name": "D5",
          "ticks": 11520,
          "time": 12,
          "velocity": 0.6771653543307087
        },
        {
          "duration": 0.3000000000000007,
          "durationTicks": 288,
          "midi": 76,
          "name": "E5",
          "ticks": 11904,
          "time": 12.4,
          "velocity": 0.6771653543307087
        },
        {
          "duration": 1.5,
          "durationTicks": 1440,
          "midi": 81,
          "name": "A5",
          "ticks": 12288,
          "time": 12.8,
          "velocity": 0.6771653543307087
        },
        {
          "duration": 1.5,
          "durationTicks": 1440,
          "midi": 72,
          "name": "C5",
          "ticks": 15360,
          "time": 16,
          "velocity": 0.6771653543307087
        },
        {
          "duration": 0.6999999999999993,
          "durationTicks": 672,
          "midi": 76,
          "name": "E5",
          "ticks": 16128,
          "time": 16.8,
          "velocity": 0.6771653543307087
        },
        {
          "duration": 1.5,
          "durationTicks": 1440,
          "midi": 71,
          "name": "B4",
          "ticks": 16896,
          "time": 17.6,
          "velocity": 0.6771653543307087
        },
        {
          "duration": 0.6999999999999993,
          "durationTicks": 672,
          "midi": 76,
          "name": "E5",
          "ticks": 17664,
          "time": 18.400000000000002,
          "velocity": 0.6771653543307087
        },
        {
          "duration": 1.5,
          "durationTicks": 1440,
          "midi": 69,
          "name": "A4",
          "ticks": 18432,
          "time": 19.200000000000003,
          "velocity": 0.6771653543307087
        },
        {
          "duration": 0.7000000000000028,
          "durationTicks": 672,
          "midi": 76,
          "name": "E5",
          "ticks": 19200,
          "time": 20,
          "velocity": 0.6771653543307087
        },
        {
          "duration": 1.1000000000000014,
          "durationTicks": 1056,
          "midi": 68,
          "name": "G#4",
          "ticks": 19968,
          "time": 20.8,
          "velocity": 0.6771653543307087
        },
        {
          "duration": 1.1000000000000014,
          "durationTicks": 1056,
          "midi": 76,
          "name": "E5",
          "ticks": 19968,
          "time": 20.8,
          "velocity": 0.6771653543307087
        },
        {
          "duration": 0.3000000000000007,
          "durationTicks": 288,
          "midi": 59,
          "name": "B3",
          "ticks": 20736,
          "time": 21.6,
          "velocity": 0.6771653543307087
        },
        {
          "duration": 0.6999999999999993,
          "durationTicks": 672,
          "midi": 64,
          "name": "E4",
          "ticks": 21504,
          "time": 22.400000000000002,
          "velocity": 0.6771653543307087
        },
        {
          "duration": 1.5,
          "durationTicks": 1440,
          "midi": 72,
          "name": "C5",
          "ticks": 21504,
          "time": 22.400000000000002,
          "velocity": 0.6771653543307087
        },
        {
          "duration": 0.6999999999999993,
          "durationTicks": 672,
          "midi": 60,
          "name": "C4",
          "ticks": 22272,
          "time": 23.200000000000003,
          "velocity": 0.6771653543307087
        },
        {
          "duration": 0.7000000000000028,
          "durationTicks": 672,
          "midi": 62,
          "name": "D4",
          "ticks": 23040,
          "time": 24,
          "velocity": 0.6771653543307087
        },
        {
          "duration": 1.5,
          "durationTicks": 1440,
          "midi": 71,
          "name": "B4",
          "ticks": 23040,
          "time": 24,
          "velocity": 0.6771653543307087
        },
        {
          "duration": 0.6999999999999993,
          "durationTicks": 672,
          "midi": 59,
          "name": "B3",
          "ticks": 23808,
          "time": 24.8,
          "velocity": 0.6771653543307087
        },
        {
          "duration": 0.3000000000000007,
          "durationTicks": 288,
          "midi": 60,
          "name": "C4",
          "ticks": 24576,
          "time": 25.6,
          "velocity": 0.7874015748031497
        },
        {
          "duration": 0.3000000000000007,
          "durationTicks": 288,
          "midi": 72,
          "name": "C5",
          "ticks": 24576,
          "time": 25.6,
          "velocity": 0.7874015748031497
        },
        {
          "duration": 0.3000000000000007,
          "durationTicks": 288,
          "midi": 64,
          "name": "E4",
          "ticks": 24960,
          "time": 26,
          "velocity": 0.7874015748031497
        },
        {
          "duration": 0.3000000000000007,
          "durationTicks": 288,
          "midi": 76,
          "name": "E5",
          "ticks": 24960,
          "time": 26,
          "velocity": 0.7874015748031497
        },
        {
          "duration": 0.3000000000000007,
          "durationTicks": 288,
          "midi": 81,
          "name": "A5",
          "ticks": 25344,
          "time": 26.400000000000002,
          "velocity": 0.7874015748031497
        },
        {
          "duration": 0.6999999999999993,
          "durationTicks": 672,
          "midi": 69,
          "name": "A4",
          "ticks": 25344,
          "time": 26.400000000000002,
          "velocity": 0.6771653543307087
        },
        {
          "duration": 0.3000000000000007,
          "durationTicks": 288,
          "midi": 84,
          "name": "C6",
          "ticks": 25728,
          "time": 26.8,
          "velocity": 0.6771653543307087
        },
        {
          "duration": 0.6999999999999993,
          "durationTicks": 672,
          "midi": 68,
          "name": "G#4",
          "ticks": 26112,
          "time": 27.200000000000003,
          "velocity": 0.6771653543307087
        },
        {
          "duration": 0.6999999999999993,
          "durationTicks": 672,
          "midi": 83,
          "name": "B5",
          "ticks": 26112,
          "time": 27.200000000000003,
          "velocity": 0.6771653543307087
        },
        {
          "duration": 0.3000000000000007,
          "durationTicks": 288,
          "midi": 76,
          "name": "E5",
          "ticks": 27648,
          "time": 28.8,
          "velocity": 0.7874015748031497
        },
        {
          "duration": 0.1999999999999993,
          "durationTicks": 192,
          "midi": 71,
          "name": "B4",
          "ticks": 28032,
          "time": 29.200000000000003,
          "velocity": 0.6771653543307087
        },
        {
          "duration": 0.1999999999999993,
          "durationTicks": 192,
          "midi": 72,
          "name": "C5",
          "ticks": 28224,
          "time": 29.400000000000002,
          "velocity": 0.6771653543307087
        },
        {
          "duration": 0.1999999999999993,
          "durationTicks": 192,
          "midi": 74,
          "name": "D5",
          "ticks": 28416,
          "time": 29.6,
          "velocity": 0.7874015748031497
        },
        {
          "duration": 0.10000000000000142,
          "durationTicks": 96,
          "midi": 76,
          "name": "E5",
          "ticks": 28608,
          "time": 29.8,
          "velocity": 0.6771653543307087
        },
        {
          "duration": 0.09999999999999787,
          "durationTicks": 96,
          "midi": 74,
          "name": "D5",
          "ticks": 28704,
          "time": 29.900000000000002,
          "velocity": 0.6771653543307087
        },
        {
          "duration": 0.10000000000000142,
          "durationTicks": 96,
          "midi": 72,
          "name": "C5",
          "ticks": 28800,
          "time": 30,
          "velocity": 0.6771653543307087
        },
        {
          "duration": 0.1999999999999993,
          "durationTicks": 192,
          "midi": 71,
          "name": "B4",
          "ticks": 28992,
          "time": 30.200000000000003,
          "velocity": 0.6771653543307087
        },
        {
          "duration": 0.3999999999999986,
          "durationTicks": 384,
          "midi": 69,
          "name": "A4",
          "ticks": 29184,
          "time": 30.400000000000002,
          "velocity": 0.7874015748031497
        },
        {
          "duration": 0.1999999999999993,
          "durationTicks": 192,
          "midi": 69,
          "name": "A4",
          "ticks": 29568,
          "time": 30.8,
          "velocity": 0.6771653543307087
        },
        {
          "duration": 0.10000000000000142,
          "durationTicks": 96,
          "midi": 72,
          "name": "C5",
          "ticks": 29760,
          "time": 31,
          "velocity": 0.6771653543307087
        },
        {
          "duration": 0.3999999999999986,
          "durationTicks": 384,
          "midi": 76,
          "name": "E5",
          "ticks": 29952,
          "time": 31.200000000000003,
          "velocity": 0.7874015748031497
        },
        {
          "duration": 0.1999999999999993,
          "durationTicks": 192,
          "midi": 74,
          "name": "D5",
          "ticks": 30336,
          "time": 31.6,
          "velocity": 0.6771653543307087
        },
        {
          "duration": 0.1999999999999993,
          "durationTicks": 192,
          "midi": 72,
          "name": "C5",
          "ticks": 30528,
          "time": 31.8,
          "velocity": 0.6771653543307087
        },
        {
          "duration": 0.5,
          "durationTicks": 480,
          "midi": 71,
          "name": "B4",
          "ticks": 30720,
          "time": 32,
          "velocity": 0.6771653543307087
        },
        {
          "duration": 0.10000000000000142,
          "durationTicks": 96,
          "midi": 72,
          "name": "C5",
          "ticks": 31296,
          "time": 32.6,
          "velocity": 0.6771653543307087
        },
        {
          "duration": 0.29999999999999716,
          "durationTicks": 288,
          "midi": 74,
          "name": "D5",
          "ticks": 31488,
          "time": 32.800000000000004,
          "velocity": 0.6771653543307087
        },
        {
          "duration": 0.29999999999999716,
          "durationTicks": 288,
          "midi": 76,
          "name": "E5",
          "ticks": 31872,
          "time": 33.2,
          "velocity": 0.6771653543307087
        },
        {
          "duration": 0.29999999999999716,
          "durationTicks": 288,
          "midi": 72,
          "name": "C5",
          "ticks": 32256,
          "time": 33.6,
          "velocity": 0.6771653543307087
        },
        {
          "duration": 0.30000000000000426,
          "durationTicks": 288,
          "midi": 69,
          "name": "A4",
          "ticks": 32640,
          "time": 34,
          "velocity": 0.6771653543307087
        },
        {
          "duration": 0.7000000000000028,
          "durationTicks": 672,
          "midi": 69,
          "name": "A4",
          "ticks": 33024,
          "time": 34.4,
          "velocity": 0.6771653543307087
        },
        {
          "duration": 0.4000000000000057,
          "durationTicks": 384,
          "midi": 74,
          "name": "D5",
          "ticks": 33984,
          "time": 35.4,
          "velocity": 0.7874015748031497
        },
        {
          "duration": 0.19999999999999574,
          "durationTicks": 192,
          "midi": 77,
          "name": "F5",
          "ticks": 34368,
          "time": 35.800000000000004,
          "velocity": 0.6771653543307087
        },
        {
          "duration": 0.30000000000000426,
          "durationTicks": 288,
          "midi": 81,
          "name": "A5",
          "ticks": 34560,
          "time": 36,
          "velocity": 0.7874015748031497
        },
        {
          "duration": 0.10000000000000142,
          "durationTicks": 96,
          "midi": 79,
          "name": "G5",
          "ticks": 34944,
          "time": 36.4,
          "velocity": 0.6771653543307087
        },
        {
          "duration": 0.10000000000000142,
          "durationTicks": 96,
          "midi": 77,
          "name": "F5",
          "ticks": 35136,
          "time": 36.6,
          "velocity": 0.6771653543307087
        },
        {
          "duration": 0.5,
          "durationTicks": 480,
          "midi": 76,
          "name": "E5",
          "ticks": 35328,
          "time": 36.800000000000004,
          "velocity": 0.6771653543307087
        },
        {
          "duration": 0.20000000000000284,
          "durationTicks": 192,
          "midi": 72,
          "name": "C5",
          "ticks": 35904,
          "time": 37.4,
          "velocity": 0.6771653543307087
        },
        {
          "duration": 0.29999999999999716,
          "durationTicks": 288,
          "midi": 76,
          "name": "E5",
          "ticks": 36096,
          "time": 37.6,
          "velocity": 0.6771653543307087
        },
        {
          "duration": 0.20000000000000284,
          "durationTicks": 192,
          "midi": 74,
          "name": "D5",
          "ticks": 36480,
          "time": 38,
          "velocity": 0.6771653543307087
        },
        {
          "duration": 0.20000000000000284,
          "durationTicks": 192,
          "midi": 72,
          "name": "C5",
          "ticks": 36672,
          "time": 38.2,
          "velocity": 0.6771653543307087
        },
        {
          "duration": 0.29999999999999716,
          "durationTicks": 288,
          "midi": 71,
          "name": "B4",
          "ticks": 36864,
          "time": 38.400000000000006,
          "velocity": 0.6771653543307087
        },
        {
          "duration": 0.19999999999999574,
          "durationTicks": 192,
          "midi": 71,
          "name": "B4",
          "ticks": 37248,
          "time": 38.800000000000004,
          "velocity": 0.6771653543307087
        },
        {
          "duration": 0.20000000000000284,
          "durationTicks": 192,
          "midi": 72,
          "name": "C5",
          "ticks": 37440,
          "time": 39,
          "velocity": 0.6771653543307087
        },
        {
          "duration": 0.29999999999999716,
          "durationTicks": 288,
          "midi": 74,
          "name": "D5",
          "ticks": 37632,
          "time": 39.2,
          "velocity": 0.6771653543307087
        },
        {
          "duration": 0.30000000000000426,
          "durationTicks": 288,
          "midi": 76,
          "name": "E5",
          "ticks": 38016,
          "time": 39.6,
          "velocity": 0.6771653543307087
        },
        {
          "duration": 0.30000000000000426,
          "durationTicks": 288,
          "midi": 72,
          "name": "C5",
          "ticks": 38400,
          "time": 40,
          "velocity": 0.6771653543307087
        },
        {
          "duration": 0.29999999999999716,
          "durationTicks": 288,
          "midi": 69,
          "name": "A4",
          "ticks": 38784,
          "time": 40.400000000000006,
          "velocity": 0.6771653543307087
        },
        {
          "duration": 0.29999999999999716,
          "durationTicks": 288,
          "midi": 69,
          "name": "A4",
          "ticks": 39168,
          "time": 40.800000000000004,
          "velocity": 0.6771653543307087
        },
        {
          "duration": 0.30000000000000426,
          "durationTicks": 288,
          "midi": 76,
          "name": "E5",
          "ticks": 39936,
          "time": 41.6,
          "velocity": 0.7874015748031497
        },
        {
          "duration": 0.20000000000000284,
          "durationTicks": 192,
          "midi": 71,
          "name": "B4",
          "ticks": 40320,
          "time": 42,
          "velocity": 0.6771653543307087
        },
        {
          "duration": 0.20000000000000284,
          "durationTicks": 192,
          "midi": 72,
          "name": "C5",
          "ticks": 40512,
          "time": 42.2,
          "velocity": 0.6771653543307087
        },
        {
          "duration": 0.19999999999999574,
          "durationTicks": 192,
          "midi": 74,
          "name": "D5",
          "ticks": 40704,
          "time": 42.400000000000006,
          "velocity": 0.7874015748031497
        },
        {
          "duration": 0.10000000000000142,
          "durationTicks": 96,
          "midi": 76,
          "name": "E5",
          "ticks": 40896,
          "time": 42.6,
          "velocity": 0.6771653543307087
        },
        {
          "duration": 0.10000000000000142,
          "durationTicks": 96,
          "midi": 74,
          "name": "D5",
          "ticks": 40992,
          "time": 42.7,
          "velocity": 0.6771653543307087
        },
        {
          "duration": 0.10000000000000142,
          "durationTicks": 96,
          "midi": 72,
          "name": "C5",
          "ticks": 41088,
          "time": 42.800000000000004,
          "velocity": 0.6771653543307087
        },
        {
          "duration": 0.20000000000000284,
          "durationTicks": 192,
          "midi": 71,
          "name": "B4",
          "ticks": 41280,
          "time": 43,
          "velocity": 0.6771653543307087
        },
        {
          "duration": 0.29999999999999716,
          "durationTicks": 288,
          "midi": 69,
          "name": "A4",
          "ticks": 41472,
          "time": 43.2,
          "velocity": 0.7874015748031497
        },
        {
          "duration": 0.20000000000000284,
          "durationTicks": 192,
          "midi": 69,
          "name": "A4",
          "ticks": 41856,
          "time": 43.6,
          "velocity": 0.6771653543307087
        },
        {
          "duration": 0.19999999999999574,
          "durationTicks": 192,
          "midi": 72,
          "name": "C5",
          "ticks": 42048,
          "time": 43.800000000000004,
          "velocity": 0.6771653543307087
        },
        {
          "duration": 0.30000000000000426,
          "durationTicks": 288,
          "midi": 76,
          "name": "E5",
          "ticks": 42240,
          "time": 44,
          "velocity": 0.6771653543307087
        },
        {
          "duration": 0.19999999999999574,
          "durationTicks": 192,
          "midi": 74,
          "name": "D5",
          "ticks": 42624,
          "time": 44.400000000000006,
          "velocity": 0.6771653543307087
        },
        {
          "duration": 0.20000000000000284,
          "durationTicks": 192,
          "midi": 72,
          "name": "C5",
          "ticks": 42816,
          "time": 44.6,
          "velocity": 0.6771653543307087
        },
        {
          "duration": 0.5,
          "durationTicks": 480,
          "midi": 71,
          "name": "B4",
          "ticks": 43008,
          "time": 44.800000000000004,
          "velocity": 0.6771653543307087
        },
        {
          "duration": 0.19999999999999574,
          "durationTicks": 192,
          "midi": 72,
          "name": "C5",
          "ticks": 43584,
          "time": 45.400000000000006,
          "velocity": 0.6771653543307087
        },
        {
          "duration": 0.30000000000000426,
          "durationTicks": 288,
          "midi": 74,
          "name": "D5",
          "ticks": 43776,
          "time": 45.6,
          "velocity": 0.6771653543307087
        },
        {
          "duration": 0.30000000000000426,
          "durationTicks": 288,
          "midi": 76,
          "name": "E5",
          "ticks": 44160,
          "time": 46,
          "velocity": 0.6771653543307087
        },
        {
          "duration": 0.29999999999999716,
          "durationTicks": 288,
          "midi": 72,
          "name": "C5",
          "ticks": 44544,
          "time": 46.400000000000006,
          "velocity": 0.6771653543307087
        },
        {
          "duration": 0.29999999999999716,
          "durationTicks": 288,
          "midi": 69,
          "name": "A4",
          "ticks": 44928,
          "time": 46.800000000000004,
          "velocity": 0.6771653543307087
        },
        {
          "duration": 0.7000000000000028,
          "durationTicks": 672,
          "midi": 69,
          "name": "A4",
          "ticks": 45312,
          "time": 47.2,
          "velocity": 0.6771653543307087
        },
        {
          "duration": 0.3999999999999986,
          "durationTicks": 384,
          "midi": 74,
          "name": "D5",
          "ticks": 46272,
          "time": 48.2,
          "velocity": 0.6771653543307087
        },
        {
          "duration": 0.20000000000000284,
          "durationTicks": 192,
          "midi": 77,
          "name": "F5",
          "ticks": 46656,
          "time": 48.6,
          "velocity": 0.6771653543307087
        },
        {
          "duration": 0.29999999999999716,
          "durationTicks": 288,
          "midi": 81,
          "name": "A5",
          "ticks": 46848,
          "time": 48.800000000000004,
          "velocity": 0.6771653543307087
        },
        {
          "duration": 0.20000000000000284,
          "durationTicks": 192,
          "midi": 79,
          "name": "G5",
          "ticks": 47232,
          "time": 49.2,
          "velocity": 0.6771653543307087
        },
        {
          "duration": 0.19999999999999574,
          "durationTicks": 192,
          "midi": 77,
          "name": "F5",
          "ticks": 47424,
          "time": 49.400000000000006,
          "velocity": 0.6771653543307087
        },
        {
          "duration": 0.5,
          "durationTicks": 480,
          "midi": 79,
          "name": "G5",
          "ticks": 47616,
          "time": 49.6,
          "velocity": 0.6771653543307087
        },
        {
          "duration": 0.20000000000000284,
          "durationTicks": 192,
          "midi": 72,
          "name": "C5",
          "ticks": 48192,
          "time": 50.2,
          "velocity": 0.6771653543307087
        },
        {
          "duration": 0.29999999999999716,
          "durationTicks": 288,
          "midi": 76,
          "name": "E5",
          "ticks": 48384,
          "time": 50.400000000000006,
          "velocity": 0.6771653543307087
        },
        {
          "duration": 0.19999999999999574,
          "durationTicks": 192,
          "midi": 74,
          "name": "D5",
          "ticks": 48768,
          "time": 50.800000000000004,
          "velocity": 0.6771653543307087
        },
        {
          "duration": 0.20000000000000284,
          "durationTicks": 192,
          "midi": 72,
          "name": "C5",
          "ticks": 48960,
          "time": 51,
          "velocity": 0.6771653543307087
        },
        {
          "duration": 0.29999999999999716,
          "durationTicks": 288,
          "midi": 71,
          "name": "B4",
          "ticks": 49152,
          "time": 51.2,
          "velocity": 0.6771653543307087
        },
        {
          "duration": 0.20000000000000284,
          "durationTicks": 192,
          "midi": 71,
          "name": "B4",
          "ticks": 49536,
          "time": 51.6,
          "velocity": 0.6771653543307087
        },
        {
          "duration": 0.19999999999999574,
          "durationTicks": 192,
          "midi": 72,
          "name": "C5",
          "ticks": 49728,
          "time": 51.800000000000004,
          "velocity": 0.6771653543307087
        },
        {
          "duration": 0.30000000000000426,
          "durationTicks": 288,
          "midi": 74,
          "name": "D5",
          "ticks": 49920,
          "time": 52,
          "velocity": 0.6771653543307087
        },
        {
          "duration": 0.29999999999999716,
          "durationTicks": 288,
          "midi": 76,
          "name": "E5",
          "ticks": 50304,
          "time": 52.400000000000006,
          "velocity": 0.6771653543307087
        },
        {
          "duration": 0.29999999999999716,
          "durationTicks": 288,
          "midi": 72,
          "name": "C5",
          "ticks": 50688,
          "time": 52.800000000000004,
          "velocity": 0.6771653543307087
        },
        {
          "duration": 0.29999999999999716,
          "durationTicks": 288,
          "midi": 69,
          "name": "A4",
          "ticks": 51072,
          "time": 53.2,
          "velocity": 0.6771653543307087
        },
        {
          "duration": 0.30000000000000426,
          "durationTicks": 288,
          "midi": 69,
          "name": "A4",
          "ticks": 51456,
          "time": 53.6,
          "velocity": 0.6771653543307087
        },
        {
          "duration": 0.6999999999999957,
          "durationTicks": 672,
          "midi": 72,
          "name": "C5",
          "ticks": 52224,
          "time": 54.400000000000006,
          "velocity": 0.6771653543307087
        },
        {
          "duration": 0.20000000000000284,
          "durationTicks": 192,
          "midi": 76,
          "name": "E5",
          "ticks": 52992,
          "time": 55.2,
          "velocity": 0.6771653543307087
        },
        {
          "duration": 0.19999999999999574,
          "durationTicks": 192,
          "midi": 69,
          "name": "A4",
          "ticks": 53184,
          "time": 55.400000000000006,
          "velocity": 0.6771653543307087
        },
        {
          "duration": 0.20000000000000284,
          "durationTicks": 192,
          "midi": 76,
          "name": "E5",
          "ticks": 53376,
          "time": 55.6,
          "velocity": 0.6771653543307087
        },
        {
          "duration": 0.19999999999999574,
          "durationTicks": 192,
          "midi": 69,
          "name": "A4",
          "ticks": 53568,
          "time": 55.800000000000004,
          "velocity": 0.6771653543307087
        },
        {
          "duration": 0.20000000000000284,
          "durationTicks": 192,
          "midi": 76,
          "name": "E5",
          "ticks": 53760,
          "time": 56,
          "velocity": 0.6771653543307087
        },
        {
          "duration": 0.20000000000000284,
          "durationTicks": 192,
          "midi": 68,
          "name": "G#4",
          "ticks": 53952,
          "time": 56.2,
          "velocity": 0.6771653543307087
        },
        {
          "duration": 0.19999999999999574,
          "durationTicks": 192,
          "midi": 76,
          "name": "E5",
          "ticks": 54144,
          "time": 56.400000000000006,
          "velocity": 0.6771653543307087
        },
        {
          "duration": 0.20000000000000284,
          "durationTicks": 192,
          "midi": 68,
          "name": "G#4",
          "ticks": 54336,
          "time": 56.6,
          "velocity": 0.6771653543307087
        },
        {
          "duration": 0.6999999999999957,
          "durationTicks": 672,
          "midi": 76,
          "name": "E5",
          "ticks": 54528,
          "time": 56.800000000000004,
          "velocity": 0.6771653543307087
        },
        {
          "duration": 0.7000000000000028,
          "durationTicks": 672,
          "midi": 69,
          "name": "A4",
          "ticks": 55296,
          "time": 57.6,
          "velocity": 0.6771653543307087
        },
        {
          "duration": 0.29999999999999716,
          "durationTicks": 288,
          "midi": 64,
          "name": "E4",
          "ticks": 56064,
          "time": 58.400000000000006,
          "velocity": 0.6771653543307087
        },
        {
          "duration": 0.29999999999999716,
          "durationTicks": 288,
          "midi": 60,
          "name": "C4",
          "ticks": 56448,
          "time": 58.800000000000004,
          "velocity": 0.6771653543307087
        },
        {
          "duration": 0.10000000000000142,
          "durationTicks": 96,
          "midi": 59,
          "name": "B3",
          "ticks": 56832,
          "time": 59.2,
          "velocity": 0.6771653543307087
        },
        {
          "duration": 0.10000000000000142,
          "durationTicks": 96,
          "midi": 64,
          "name": "E4",
          "ticks": 56928,
          "time": 59.300000000000004,
          "velocity": 0.6771653543307087
        },
        {
          "duration": 0.09999999999999432,
          "durationTicks": 96,
          "midi": 59,
          "name": "B3",
          "ticks": 57024,
          "time": 59.400000000000006,
          "velocity": 0.6771653543307087
        },
        {
          "duration": 0.10000000000000142,
          "durationTicks": 96,
          "midi": 64,
          "name": "E4",
          "ticks": 57120,
          "time": 59.5,
          "velocity": 0.6771653543307087
        },
        {
          "duration": 0.10000000000000142,
          "durationTicks": 96,
          "midi": 59,
          "name": "B3",
          "ticks": 57216,
          "time": 59.6,
          "velocity": 0.6771653543307087
        },
        {
          "duration": 0.10000000000000142,
          "durationTicks": 96,
          "midi": 64,
          "name": "E4",
          "ticks": 57312,
          "time": 59.7,
          "velocity": 0.6771653543307087
        },
        {
          "duration": 0.10000000000000142,
          "durationTicks": 96,
          "midi": 59,
          "name": "B3",
          "ticks": 57408,
          "time": 59.800000000000004,
          "velocity": 0.6771653543307087
        },
        {
          "duration": 0.09999999999999432,
          "durationTicks": 96,
          "midi": 64,
          "name": "E4",
          "ticks": 57504,
          "time": 59.900000000000006,
          "velocity": 0.6771653543307087
        },
        {
          "duration": 0.7000000000000028,
          "durationTicks": 672,
          "midi": 64,
          "name": "E4",
          "ticks": 57600,
          "time": 60,
          "velocity": 0.6771653543307087
        },
        {
          "duration": 1.5,
          "durationTicks": 1440,
          "midi": 64,
          "name": "E4",
          "ticks": 58368,
          "time": 60.800000000000004,
          "velocity": 0.6771653543307087
        },
        {
          "duration": 1.5,
          "durationTicks": 1440,
          "midi": 64,
          "name": "E4",
          "ticks": 59904,
          "time": 62.400000000000006,
          "velocity": 0.6771653543307087
        },
        {
          "duration": 1.5,
          "durationTicks": 1440,
          "midi": 64,
          "name": "E4",
          "ticks": 61440,
          "time": 64,
          "velocity": 0.6771653543307087
        },
        {
          "duration": 1.5,
          "durationTicks": 1440,
          "midi": 64,
          "name": "E4",
          "ticks": 62976,
          "time": 65.60000000000001,
          "velocity": 0.6771653543307087
        },
        {
          "duration": 0.29999999999999716,
          "durationTicks": 288,
          "midi": 76,
          "name": "E5",
          "ticks": 64512,
          "time": 67.2,
          "velocity": 0.7874015748031497
        },
        {
          "duration": 0.19999999999998863,
          "durationTicks": 192,
          "midi": 71,
          "name": "B4",
          "ticks": 64896,
          "time": 67.60000000000001,
          "velocity": 0.6771653543307087
        },
        {
          "duration": 0.20000000000000284,
          "durationTicks": 192,
          "midi": 72,
          "name": "C5",
          "ticks": 65088,
          "time": 67.8,
          "velocity": 0.6771653543307087
        },
        {
          "duration": 0.20000000000000284,
          "durationTicks": 192,
          "midi": 74,
          "name": "D5",
          "ticks": 65280,
          "time": 68,
          "velocity": 0.7874015748031497
        },
        {
          "duration": 0.09999999999999432,
          "durationTicks": 96,
          "midi": 76,
          "name": "E5",
          "ticks": 65472,
          "time": 68.2,
          "velocity": 0.6771653543307087
        },
        {
          "duration": 0.10000000000000853,
          "durationTicks": 96,
          "midi": 74,
          "name": "D5",
          "ticks": 65568,
          "time": 68.3,
          "velocity": 0.6771653543307087
        },
        {
          "duration": 0.20000000000000284,
          "durationTicks": 192,
          "midi": 71,
          "name": "B4",
          "ticks": 65664,
          "time": 68.4,
          "velocity": 0.6771653543307087
        },
        {
          "duration": 0.19999999999998863,
          "durationTicks": 192,
          "midi": 72,
          "name": "C5",
          "ticks": 65856,
          "time": 68.60000000000001,
          "velocity": 0.6771653543307087
        },
        {
          "duration": 0.4000000000000057,
          "durationTicks": 384,
          "midi": 69,
          "name": "A4",
          "ticks": 66048,
          "time": 68.8,
          "velocity": 0.7874015748031497
        },
        {
          "duration": 0.20000000000000284,
          "durationTicks": 192,
          "midi": 69,
          "name": "A4",
          "ticks": 66432,
          "time": 69.2,
          "velocity": 0.6771653543307087
        },
        {
          "duration": 0.09999999999999432,
          "durationTicks": 96,
          "midi": 72,
          "name": "C5",
          "ticks": 66624,
          "time": 69.4,
          "velocity": 0.6771653543307087
        },
        {
          "duration": 0.3999999999999915,
          "durationTicks": 384,
          "midi": 76,
          "name": "E5",
          "ticks": 66816,
          "time": 69.60000000000001,
          "velocity": 0.7874015748031497
        },
        {
          "duration": 0.20000000000000284,
          "durationTicks": 192,
          "midi": 69,
          "name": "A4",
          "ticks": 67200,
          "time": 70,
          "velocity": 0.6771653543307087
        },
        {
          "duration": 0.09999999999999432,
          "durationTicks": 96,
          "midi": 72,
          "name": "C5",
          "ticks": 67392,
          "time": 70.2,
          "velocity": 0.6771653543307087
        },
        {
          "duration": 0.5,
          "durationTicks": 480,
          "midi": 76,
          "name": "E5",
          "ticks": 67584,
          "time": 70.4,
          "velocity": 0.6771653543307087
        },
        {
          "duration": 0.20000000000000284,
          "durationTicks": 192,
          "midi": 72,
          "name": "C5",
          "ticks": 68160,
          "time": 71,
          "velocity": 0.6771653543307087
        },
        {
          "duration": 0.29999999999999716,
          "durationTicks": 288,
          "midi": 71,
          "name": "B4",
          "ticks": 68352,
          "time": 71.2,
          "velocity": 0.6771653543307087
        },
        {
          "duration": 0.29999999999999716,
          "durationTicks": 288,
          "midi": 76,
          "name": "E5",
          "ticks": 68736,
          "time": 71.60000000000001,
          "velocity": 0.6771653543307087
        },
        {
          "duration": 0.29999999999999716,
          "durationTicks": 288,
          "midi": 69,
          "name": "A4",
          "ticks": 69120,
          "time": 72,
          "velocity": 0.6771653543307087
        },
        {
          "duration": 0.29999999999999716,
          "durationTicks": 288,
          "midi": 72,
          "name": "C5",
          "ticks": 69504,
          "time": 72.4,
          "velocity": 0.6771653543307087
        },
        {
          "duration": 0.7000000000000028,
          "durationTicks": 672,
          "midi": 69,
          "name": "A4",
          "ticks": 69888,
          "time": 72.8,
          "velocity": 0.6771653543307087
        },
        {
          "duration": 0.4000000000000057,
          "durationTicks": 384,
          "midi": 74,
          "name": "D5",
          "ticks": 70848,
          "time": 73.8,
          "velocity": 0.7874015748031497
        },
        {
          "duration": 0.20000000000000284,
          "durationTicks": 192,
          "midi": 77,
          "name": "F5",
          "ticks": 71232,
          "time": 74.2,
          "velocity": 0.6771653543307087
        },
        {
          "duration": 0.29999999999999716,
          "durationTicks": 288,
          "midi": 81,
          "name": "A5",
          "ticks": 71424,
          "time": 74.4,
          "velocity": 0.7874015748031497
        },
        {
          "duration": 0.10000000000000853,
          "durationTicks": 96,
          "midi": 79,
          "name": "G5",
          "ticks": 71808,
          "time": 74.8,
          "velocity": 0.6771653543307087
        },
        {
          "duration": 0.10000000000000853,
          "durationTicks": 96,
          "midi": 77,
          "name": "F5",
          "ticks": 72000,
          "time": 75,
          "velocity": 0.6771653543307087
        },
        {
          "duration": 0.5,
          "durationTicks": 480,
          "midi": 76,
          "name": "E5",
          "ticks": 72192,
          "time": 75.2,
          "velocity": 0.6771653543307087
        },
        {
          "duration": 0.20000000000000284,
          "durationTicks": 192,
          "midi": 72,
          "name": "C5",
          "ticks": 72768,
          "time": 75.8,
          "velocity": 0.6771653543307087
        },
        {
          "duration": 0.29999999999999716,
          "durationTicks": 288,
          "midi": 76,
          "name": "E5",
          "ticks": 72960,
          "time": 76,
          "velocity": 0.6771653543307087
        },
        {
          "duration": 0.20000000000000284,
          "durationTicks": 192,
          "midi": 74,
          "name": "D5",
          "ticks": 73344,
          "time": 76.4,
          "velocity": 0.6771653543307087
        },
        {
          "duration": 0.20000000000000284,
          "durationTicks": 192,
          "midi": 72,
          "name": "C5",
          "ticks": 73536,
          "time": 76.60000000000001,
          "velocity": 0.6771653543307087
        },
        {
          "duration": 0.29999999999999716,
          "durationTicks": 288,
          "midi": 76,
          "name": "E5",
          "ticks": 73728,
          "time": 76.80000000000001,
          "velocity": 0.6771653543307087
        },
        {
          "duration": 0.20000000000000284,
          "durationTicks": 192,
          "midi": 71,
          "name": "B4",
          "ticks": 74112,
          "time": 77.2,
          "velocity": 0.6771653543307087
        },
        {
          "duration": 0.20000000000000284,
          "durationTicks": 192,
          "midi": 72,
          "name": "C5",
          "ticks": 74304,
          "time": 77.4,
          "velocity": 0.6771653543307087
        },
        {
          "duration": 0.29999999999999716,
          "durationTicks": 288,
          "midi": 74,
          "name": "D5",
          "ticks": 74496,
          "time": 77.60000000000001,
          "velocity": 0.6771653543307087
        },
        {
          "duration": 0.30000000000001137,
          "durationTicks": 288,
          "midi": 76,
          "name": "E5",
          "ticks": 74880,
          "time": 78,
          "velocity": 0.6771653543307087
        },
        {
          "duration": 1.5,
          "durationTicks": 1440,
          "midi": 72,
          "name": "C5",
          "ticks": 75264,
          "time": 78.4,
          "velocity": 0.6771653543307087
        },
        {
          "duration": 0.29999999999999716,
          "durationTicks": 288,
          "midi": 74,
          "name": "D5",
          "ticks": 77952,
          "time": 81.2,
          "velocity": 0.6771653543307087
        },
        {
          "duration": 0.7000000000000028,
          "durationTicks": 672,
          "midi": 76,
          "name": "E5",
          "ticks": 78336,
          "time": 81.60000000000001,
          "velocity": 0.6771653543307087
        },
        {
          "duration": 0.29999999999999716,
          "durationTicks": 288,
          "midi": 77,
          "name": "F5",
          "ticks": 79104,
          "time": 82.4,
          "velocity": 0.6771653543307087
        },
        {
          "duration": 0.29999999999999716,
          "durationTicks": 288,
          "midi": 79,
          "name": "G5",
          "ticks": 79488,
          "time": 82.80000000000001,
          "velocity": 0.6771653543307087
        },
        {
          "duration": 0.5,
          "durationTicks": 480,
          "midi": 77,
          "name": "F5",
          "ticks": 79872,
          "time": 83.2,
          "velocity": 0.6771653543307087
        },
        {
          "duration": 0.19999999999998863,
          "durationTicks": 192,
          "midi": 72,
          "name": "C5",
          "ticks": 80448,
          "time": 83.80000000000001,
          "velocity": 0.6771653543307087
        },
        {
          "duration": 0.7000000000000028,
          "durationTicks": 672,
          "midi": 76,
          "name": "E5",
          "ticks": 80640,
          "time": 84,
          "velocity": 0.6771653543307087
        },
        {
          "duration": 0.6999999999999886,
          "durationTicks": 672,
          "midi": 76,
          "name": "E5",
          "ticks": 81408,
          "time": 84.80000000000001,
          "velocity": 0.6771653543307087
        },
        {
          "duration": 0.29999999999999716,
          "durationTicks": 288,
          "midi": 74,
          "name": "D5",
          "ticks": 82176,
          "time": 85.60000000000001,
          "velocity": 0.6771653543307087
        },
        {
          "duration": 0.30000000000001137,
          "durationTicks": 288,
          "midi": 72,
          "name": "C5",
          "ticks": 82560,
          "time": 86,
          "velocity": 0.6771653543307087
        },
        {
          "duration": 0.20000000000000284,
          "durationTicks": 192,
          "midi": 71,
          "name": "B4",
          "ticks": 82944,
          "time": 86.4,
          "velocity": 0.6771653543307087
        },
        {
          "duration": 0.20000000000000284,
          "durationTicks": 192,
          "midi": 68,
          "name": "G#4",
          "ticks": 83136,
          "time": 86.60000000000001,
          "velocity": 0.6771653543307087
        },
        {
          "duration": 0.19999999999998863,
          "durationTicks": 192,
          "midi": 71,
          "name": "B4",
          "ticks": 83328,
          "time": 86.80000000000001,
          "velocity": 0.6771653543307087
        },
        {
          "duration": 0.20000000000000284,
          "durationTicks": 192,
          "midi": 68,
          "name": "G#4",
          "ticks": 83520,
          "time": 87,
          "velocity": 0.6771653543307087
        },
        {
          "duration": 0.29999999999999716,
          "durationTicks": 288,
          "midi": 71,
          "name": "B4",
          "ticks": 83712,
          "time": 87.2,
          "velocity": 0.6771653543307087
        },
        {
          "duration": 0.29999999999999716,
          "durationTicks": 288,
          "midi": 74,
          "name": "D5",
          "ticks": 84096,
          "time": 87.60000000000001,
          "velocity": 0.6771653543307087
        },
        {
          "duration": 0.7000000000000028,
          "durationTicks": 672,
          "midi": 76,
          "name": "E5",
          "ticks": 84480,
          "time": 88,
          "velocity": 0.6771653543307087
        },
        {
          "duration": 0.29999999999999716,
          "durationTicks": 288,
          "midi": 77,
          "name": "F5",
          "ticks": 85248,
          "time": 88.80000000000001,
          "velocity": 0.6771653543307087
        },
        {
          "duration": 0.29999999999999716,
          "durationTicks": 288,
          "midi": 79,
          "name": "G5",
          "ticks": 85632,
          "time": 89.2,
          "velocity": 0.6771653543307087
        },
        {
          "duration": 0.5,
          "durationTicks": 480,
          "midi": 80,
          "name": "G#5",
          "ticks": 86016,
          "time": 89.60000000000001,
          "velocity": 0.6771653543307087
        },
        {
          "duration": 0.20000000000000284,
          "durationTicks": 192,
          "midi": 72,
          "name": "C5",
          "ticks": 86592,
          "time": 90.2,
          "velocity": 0.6771653543307087
        },
        {
          "duration": 0.7000000000000028,
          "durationTicks": 672,
          "midi": 76,
          "name": "E5",
          "ticks": 86784,
          "time": 90.4,
          "velocity": 0.6771653543307087
        },
        {
          "duration": 0.7000000000000028,
          "durationTicks": 672,
          "midi": 81,
          "name": "A5",
          "ticks": 87552,
          "time": 91.2,
          "velocity": 0.6771653543307087
        },
        {
          "duration": 0.30000000000001137,
          "durationTicks": 288,
          "midi": 74,
          "name": "D5",
          "ticks": 88320,
          "time": 92,
          "velocity": 0.6771653543307087
        },
        {
          "duration": 0.29999999999999716,
          "durationTicks": 288,
          "midi": 72,
          "name": "C5",
          "ticks": 88704,
          "time": 92.4,
          "velocity": 0.6771653543307087
        },
        {
          "duration": 0.29999999999999716,
          "durationTicks": 288,
          "midi": 80,
          "name": "G#5",
          "ticks": 89088,
          "time": 92.80000000000001,
          "velocity": 0.6771653543307087
        },
        {
          "duration": 0.20000000000000284,
          "durationTicks": 192,
          "midi": 76,
          "name": "E5",
          "ticks": 89472,
          "time": 93.2,
          "velocity": 0.6771653543307087
        },
        {
          "duration": 0.20000000000000284,
          "durationTicks": 192,
          "midi": 71,
          "name": "B4",
          "ticks": 89664,
          "time": 93.4,
          "velocity": 0.6771653543307087
        },
        {
          "duration": 0.20000000000000284,
          "durationTicks": 192,
          "midi": 71,
          "name": "B4",
          "ticks": 89856,
          "time": 93.60000000000001,
          "velocity": 0.6771653543307087
        },
        {
          "duration": 0.19999999999998863,
          "durationTicks": 192,
          "midi": 74,
          "name": "D5",
          "ticks": 90048,
          "time": 93.80000000000001,
          "velocity": 0.6771653543307087
        },
        {
          "duration": 0.30000000000001137,
          "durationTicks": 288,
          "midi": 71,
          "name": "B4",
          "ticks": 90240,
          "time": 94,
          "velocity": 0.6771653543307087
        },
        {
          "duration": 1.5,
          "durationTicks": 1440,
          "midi": 71,
          "name": "B4",
          "ticks": 90624,
          "time": 94.4,
          "velocity": 0.6771653543307087
        },
        {
          "duration": 1.5,
          "durationTicks": 1440,
          "midi": 69,
          "name": "A4",
          "ticks": 92160,
          "time": 96,
          "velocity": 0.6771653543307087
        },
        {
          "duration": 0.29999999999999716,
          "durationTicks": 288,
          "midi": 71,
          "name": "B4",
          "ticks": 94848,
          "time": 98.80000000000001,
          "velocity": 0.6771653543307087
        },
        {
          "duration": 0.7000000000000028,
          "durationTicks": 672,
          "midi": 69,
          "name": "A4",
          "ticks": 95232,
          "time": 99.2,
          "velocity": 0.6771653543307087
        },
        {
          "duration": 0.20000000000000284,
          "durationTicks": 192,
          "midi": 64,
          "name": "E4",
          "ticks": 96000,
          "time": 100,
          "velocity": 0.6771653543307087
        },
        {
          "duration": 0.20000000000000284,
          "durationTicks": 192,
          "midi": 69,
          "name": "A4",
          "ticks": 96000,
          "time": 100,
          "velocity": 0.6771653543307087
        },
        {
          "duration": 0.20000000000000284,
          "durationTicks": 192,
          "midi": 64,
          "name": "E4",
          "ticks": 96192,
          "time": 100.2,
          "velocity": 0.6771653543307087
        },
        {
          "duration": 0.20000000000000284,
          "durationTicks": 192,
          "midi": 69,
          "name": "A4",
          "ticks": 96192,
          "time": 100.2,
          "velocity": 0.6771653543307087
        },
        {
          "duration": 0.20000000000000284,
          "durationTicks": 192,
          "midi": 64,
          "name": "E4",
          "ticks": 96384,
          "time": 100.4,
          "velocity": 0.6771653543307087
        },
        {
          "duration": 0.20000000000000284,
          "durationTicks": 192,
          "midi": 69,
          "name": "A4",
          "ticks": 96384,
          "time": 100.4,
          "velocity": 0.6771653543307087
        },
        {
          "duration": 0.20000000000000284,
          "durationTicks": 192,
          "midi": 64,
          "name": "E4",
          "ticks": 96576,
          "time": 100.60000000000001,
          "velocity": 0.6771653543307087
        },
        {
          "duration": 0.20000000000000284,
          "durationTicks": 192,
          "midi": 69,
          "name": "A4",
          "ticks": 96576,
          "time": 100.60000000000001,
          "velocity": 0.6771653543307087
        },
        {
          "duration": 0.19999999999998863,
          "durationTicks": 192,
          "midi": 64,
          "name": "E4",
          "ticks": 96768,
          "time": 100.80000000000001,
          "velocity": 0.6771653543307087
        },
        {
          "duration": 0.19999999999998863,
          "durationTicks": 192,
          "midi": 68,
          "name": "G#4",
          "ticks": 96768,
          "time": 100.80000000000001,
          "velocity": 0.6771653543307087
        },
        {
          "duration": 0.20000000000000284,
          "durationTicks": 192,
          "midi": 64,
          "name": "E4",
          "ticks": 96960,
          "time": 101,
          "velocity": 0.6771653543307087
        },
        {
          "duration": 0.20000000000000284,
          "durationTicks": 192,
          "midi": 68,
          "name": "G#4",
          "ticks": 96960,
          "time": 101,
          "velocity": 0.6771653543307087
        },
        {
          "duration": 0.20000000000000284,
          "durationTicks": 192,
          "midi": 64,
          "name": "E4",
          "ticks": 97152,
          "time": 101.2,
          "velocity": 0.6771653543307087
        },
        {
          "duration": 0.20000000000000284,
          "durationTicks": 192,
          "midi": 68,
          "name": "G#4",
          "ticks": 97152,
          "time": 101.2,
          "velocity": 0.6771653543307087
        },
        {
          "duration": 0.20000000000000284,
          "durationTicks": 192,
          "midi": 64,
          "name": "E4",
          "ticks": 97344,
          "time": 101.4,
          "velocity": 0.6771653543307087
        },
        {
          "duration": 0.20000000000000284,
          "durationTicks": 192,
          "midi": 68,
          "name": "G#4",
          "ticks": 97344,
          "time": 101.4,
          "velocity": 0.6771653543307087
        },
        {
          "duration": 0.7000000000000028,
          "durationTicks": 672,
          "midi": 64,
          "name": "E4",
          "ticks": 97536,
          "time": 101.60000000000001,
          "velocity": 0.6771653543307087
        },
        {
          "duration": 0.7000000000000028,
          "durationTicks": 672,
          "midi": 68,
          "name": "G#4",
          "ticks": 97536,
          "time": 101.60000000000001,
          "velocity": 0.6771653543307087
        },
        {
          "duration": 0.7000000000000028,
          "durationTicks": 672,
          "midi": 69,
          "name": "A4",
          "ticks": 98304,
          "time": 102.4,
          "velocity": 0.6771653543307087
        },
        {
          "duration": 0.20000000000000284,
          "durationTicks": 192,
          "midi": 64,
          "name": "E4",
          "ticks": 99072,
          "time": 103.2,
          "velocity": 0.6771653543307087
        },
        {
          "duration": 0.20000000000000284,
          "durationTicks": 192,
          "midi": 69,
          "name": "A4",
          "ticks": 99072,
          "time": 103.2,
          "velocity": 0.6771653543307087
        },
        {
          "duration": 0.20000000000000284,
          "durationTicks": 192,
          "midi": 64,
          "name": "E4",
          "ticks": 99264,
          "time": 103.4,
          "velocity": 0.6771653543307087
        },
        {
          "duration": 0.20000000000000284,
          "durationTicks": 192,
          "midi": 69,
          "name": "A4",
          "ticks": 99264,
          "time": 103.4,
          "velocity": 0.6771653543307087
        },
        {
          "duration": 0.20000000000000284,
          "durationTicks": 192,
          "midi": 64,
          "name": "E4",
          "ticks": 99456,
          "time": 103.60000000000001,
          "velocity": 0.6771653543307087
        },
        {
          "duration": 0.20000000000000284,
          "durationTicks": 192,
          "midi": 69,
          "name": "A4",
          "ticks": 99456,
          "time": 103.60000000000001,
          "velocity": 0.6771653543307087
        },
        {
          "duration": 0.19999999999998863,
          "durationTicks": 192,
          "midi": 64,
          "name": "E4",
          "ticks": 99648,
          "time": 103.80000000000001,
          "velocity": 0.6771653543307087
        },
        {
          "duration": 0.19999999999998863,
          "durationTicks": 192,
          "midi": 69,
          "name": "A4",
          "ticks": 99648,
          "time": 103.80000000000001,
          "velocity": 0.6771653543307087
        },
        {
          "duration": 0.20000000000000284,
          "durationTicks": 192,
          "midi": 64,
          "name": "E4",
          "ticks": 99840,
          "time": 104,
          "velocity": 0.6771653543307087
        },
        {
          "duration": 0.20000000000000284,
          "durationTicks": 192,
          "midi": 68,
          "name": "G#4",
          "ticks": 99840,
          "time": 104,
          "velocity": 0.6771653543307087
        },
        {
          "duration": 0.20000000000000284,
          "durationTicks": 192,
          "midi": 64,
          "name": "E4",
          "ticks": 100032,
          "time": 104.2,
          "velocity": 0.6771653543307087
        },
        {
          "duration": 0.20000000000000284,
          "durationTicks": 192,
          "midi": 68,
          "name": "G#4",
          "ticks": 100032,
          "time": 104.2,
          "velocity": 0.6771653543307087
        },
        {
          "duration": 0.20000000000000284,
          "durationTicks": 192,
          "midi": 64,
          "name": "E4",
          "ticks": 100224,
          "time": 104.4,
          "velocity": 0.6771653543307087
        },
        {
          "duration": 0.20000000000000284,
          "durationTicks": 192,
          "midi": 68,
          "name": "G#4",
          "ticks": 100224,
          "time": 104.4,
          "velocity": 0.6771653543307087
        },
        {
          "duration": 0.20000000000000284,
          "durationTicks": 192,
          "midi": 64,
          "name": "E4",
          "ticks": 100416,
          "time": 104.60000000000001,
          "velocity": 0.6771653543307087
        },
        {
          "duration": 0.20000000000000284,
          "durationTicks": 192,
          "midi": 68,
          "name": "G#4",
          "ticks": 100416,
          "time": 104.60000000000001,
          "velocity": 0.6771653543307087
        },
        {
          "duration": 0.6999999999999886,
          "durationTicks": 672,
          "midi": 64,
          "name": "E4",
          "ticks": 100608,
          "time": 104.80000000000001,
          "velocity": 0.6771653543307087
        },
        {
          "duration": 0.6999999999999886,
          "durationTicks": 672,
          "midi": 68,
          "name": "G#4",
          "ticks": 100608,
          "time": 104.80000000000001,
          "velocity": 0.6771653543307087
        },
        {
          "duration": 0.7000000000000028,
          "durationTicks": 672,
          "midi": 60,
          "name": "C4",
          "ticks": 101376,
          "time": 105.60000000000001,
          "velocity": 0.6771653543307087
        },
        {
          "duration": 0.20000000000000284,
          "durationTicks": 192,
          "midi": 64,
          "name": "E4",
          "ticks": 102144,
          "time": 106.4,
          "velocity": 0.6771653543307087
        },
        {
          "duration": 0.20000000000000284,
          "durationTicks": 192,
          "midi": 69,
          "name": "A4",
          "ticks": 102144,
          "time": 106.4,
          "velocity": 0.6771653543307087
        },
        {
          "duration": 0.20000000000000284,
          "durationTicks": 192,
          "midi": 64,
          "name": "E4",
          "ticks": 102336,
          "time": 106.60000000000001,
          "velocity": 0.6771653543307087
        },
        {
          "duration": 0.20000000000000284,
          "durationTicks": 192,
          "midi": 69,
          "name": "A4",
          "ticks": 102336,
          "time": 106.60000000000001,
          "velocity": 0.6771653543307087
        },
        {
          "duration": 0.19999999999998863,
          "durationTicks": 192,
          "midi": 64,
          "name": "E4",
          "ticks": 102528,
          "time": 106.80000000000001,
          "velocity": 0.6771653543307087
        },
        {
          "duration": 0.19999999999998863,
          "durationTicks": 192,
          "midi": 69,
          "name": "A4",
          "ticks": 102528,
          "time": 106.80000000000001,
          "velocity": 0.6771653543307087
        },
        {
          "duration": 0.20000000000000284,
          "durationTicks": 192,
          "midi": 64,
          "name": "E4",
          "ticks": 102720,
          "time": 107,
          "velocity": 0.6771653543307087
        },
        {
          "duration": 0.20000000000000284,
          "durationTicks": 192,
          "midi": 69,
          "name": "A4",
          "ticks": 102720,
          "time": 107,
          "velocity": 0.6771653543307087
        },
        {
          "duration": 0.20000000000000284,
          "durationTicks": 192,
          "midi": 64,
          "name": "E4",
          "ticks": 103296,
          "time": 107.60000000000001,
          "velocity": 0.6771653543307087
        },
        {
          "duration": 0.20000000000000284,
          "durationTicks": 192,
          "midi": 68,
          "name": "G#4",
          "ticks": 103296,
          "time": 107.60000000000001,
          "velocity": 0.6771653543307087
        },
        {
          "duration": 0.19999999999998863,
          "durationTicks": 192,
          "midi": 64,
          "name": "E4",
          "ticks": 103488,
          "time": 107.80000000000001,
          "velocity": 0.6771653543307087
        },
        {
          "duration": 0.19999999999998863,
          "durationTicks": 192,
          "midi": 68,
          "name": "G#4",
          "ticks": 103488,
          "time": 107.80000000000001,
          "velocity": 0.6771653543307087
        },
        {
          "duration": 0.20000000000000284,
          "durationTicks": 192,
          "midi": 64,
          "name": "E4",
          "ticks": 103680,
          "time": 108,
          "velocity": 0.6771653543307087
        },
        {
          "duration": 0.20000000000000284,
          "durationTicks": 192,
          "midi": 68,
          "name": "G#4",
          "ticks": 103680,
          "time": 108,
          "velocity": 0.6771653543307087
        },
        {
          "duration": 0.20000000000000284,
          "durationTicks": 192,
          "midi": 64,
          "name": "E4",
          "ticks": 103872,
          "time": 108.2,
          "velocity": 0.6771653543307087
        },
        {
          "duration": 0.20000000000000284,
          "durationTicks": 192,
          "midi": 68,
          "name": "G#4",
          "ticks": 103872,
          "time": 108.2,
          "velocity": 0.6771653543307087
        },
        {
          "duration": 0.20000000000000284,
          "durationTicks": 192,
          "midi": 64,
          "name": "E4",
          "ticks": 104064,
          "time": 108.4,
          "velocity": 0.6771653543307087
        },
        {
          "duration": 0.20000000000000284,
          "durationTicks": 192,
          "midi": 68,
          "name": "G#4",
          "ticks": 104064,
          "time": 108.4,
          "velocity": 0.6771653543307087
        },
        {
          "duration": 0.20000000000000284,
          "durationTicks": 192,
          "midi": 64,
          "name": "E4",
          "ticks": 104256,
          "time": 108.60000000000001,
          "velocity": 0.6771653543307087
        },
        {
          "duration": 0.20000000000000284,
          "durationTicks": 192,
          "midi": 68,
          "name": "G#4",
          "ticks": 104256,
          "time": 108.60000000000001,
          "velocity": 0.6771653543307087
        },
        {
          "duration": 0.6999999999999886,
          "durationTicks": 672,
          "midi": 72,
          "name": "C5",
          "ticks": 104448,
          "time": 108.80000000000001,
          "velocity": 0.6771653543307087
        },
        {
          "duration": 0.20000000000000284,
          "durationTicks": 192,
          "midi": 76,
          "name": "E5",
          "ticks": 105216,
          "time": 109.60000000000001,
          "velocity": 0.6771653543307087
        },
        {
          "duration": 0.20000000000000284,
          "durationTicks": 192,
          "midi": 81,
          "name": "A5",
          "ticks": 105216,
          "time": 109.60000000000001,
          "velocity": 0.6771653543307087
        },
        {
          "duration": 0.19999999999998863,
          "durationTicks": 192,
          "midi": 76,
          "name": "E5",
          "ticks": 105408,
          "time": 109.80000000000001,
          "velocity": 0.6771653543307087
        },
        {
          "duration": 0.19999999999998863,
          "durationTicks": 192,
          "midi": 81,
          "name": "A5",
          "ticks": 105408,
          "time": 109.80000000000001,
          "velocity": 0.6771653543307087
        },
        {
          "duration": 0.20000000000000284,
          "durationTicks": 192,
          "midi": 76,
          "name": "E5",
          "ticks": 105600,
          "time": 110,
          "velocity": 0.6771653543307087
        },
        {
          "duration": 0.20000000000000284,
          "durationTicks": 192,
          "midi": 81,
          "name": "A5",
          "ticks": 105600,
          "time": 110,
          "velocity": 0.6771653543307087
        },
        {
          "duration": 0.20000000000000284,
          "durationTicks": 192,
          "midi": 76,
          "name": "E5",
          "ticks": 105792,
          "time": 110.2,
          "velocity": 0.6771653543307087
        },
        {
          "duration": 0.20000000000000284,
          "durationTicks": 192,
          "midi": 81,
          "name": "A5",
          "ticks": 105792,
          "time": 110.2,
          "velocity": 0.6771653543307087
        },
        {
          "duration": 0.19999999999998863,
          "durationTicks": 192,
          "midi": 76,
          "name": "E5",
          "ticks": 106368,
          "time": 110.80000000000001,
          "velocity": 0.6771653543307087
        },
        {
          "duration": 0.19999999999998863,
          "durationTicks": 192,
          "midi": 80,
          "name": "G#5",
          "ticks": 106368,
          "time": 110.80000000000001,
          "velocity": 0.6771653543307087
        },
        {
          "duration": 0.20000000000000284,
          "durationTicks": 192,
          "midi": 76,
          "name": "E5",
          "ticks": 106560,
          "time": 111,
          "velocity": 0.6771653543307087
        },
        {
          "duration": 0.20000000000000284,
          "durationTicks": 192,
          "midi": 80,
          "name": "G#5",
          "ticks": 106560,
          "time": 111,
          "velocity": 0.6771653543307087
        },
        {
          "duration": 0.7000000000000028,
          "durationTicks": 672,
          "midi": 76,
          "name": "E5",
          "ticks": 106752,
          "time": 111.2,
          "velocity": 0.6771653543307087
        },
        {
          "duration": 0.7000000000000028,
          "durationTicks": 672,
          "midi": 80,
          "name": "G#5",
          "ticks": 106752,
          "time": 111.2,
          "velocity": 0.6771653543307087
        },
        {
          "duration": 0.4000000000000057,
          "durationTicks": 384,
          "midi": 74,
          "name": "D5",
          "ticks": 107712,
          "time": 112.2,
          "velocity": 0.6771653543307087
        },
        {
          "duration": 0.20000000000000284,
          "durationTicks": 192,
          "midi": 77,
          "name": "F5",
          "ticks": 108096,
          "time": 112.60000000000001,
          "velocity": 0.6771653543307087
        },
        {
          "duration": 0.29999999999999716,
          "durationTicks": 288,
          "midi": 81,
          "name": "A5",
          "ticks": 108288,
          "time": 112.80000000000001,
          "velocity": 0.7874015748031497
        },
        {
          "duration": 0.20000000000000284,
          "durationTicks": 192,
          "midi": 79,
          "name": "G5",
          "ticks": 108672,
          "time": 113.2,
          "velocity": 0.6771653543307087
        },
        {
          "duration": 0.20000000000000284,
          "durationTicks": 192,
          "midi": 77,
          "name": "F5",
          "ticks": 108864,
          "time": 113.4,
          "velocity": 0.6771653543307087
        },
        {
          "duration": 0.5,
          "durationTicks": 480,
          "midi": 79,
          "name": "G5",
          "ticks": 109056,
          "time": 113.60000000000001,
          "velocity": 0.7874015748031497
        },
        {
          "duration": 0.20000000000000284,
          "durationTicks": 192,
          "midi": 72,
          "name": "C5",
          "ticks": 109632,
          "time": 114.2,
          "velocity": 0.6771653543307087
        },
        {
          "duration": 0.29999999999999716,
          "durationTicks": 288,
          "midi": 76,
          "name": "E5",
          "ticks": 109824,
          "time": 114.4,
          "velocity": 0.7874015748031497
        },
        {
          "duration": 0.19999999999998863,
          "durationTicks": 192,
          "midi": 74,
          "name": "D5",
          "ticks": 110208,
          "time": 114.80000000000001,
          "velocity": 0.6771653543307087
        },
        {
          "duration": 0.20000000000000284,
          "durationTicks": 192,
          "midi": 72,
          "name": "C5",
          "ticks": 110400,
          "time": 115,
          "velocity": 0.6771653543307087
        },
        {
          "duration": 0.29999999999999716,
          "durationTicks": 288,
          "midi": 76,
          "name": "E5",
          "ticks": 110592,
          "time": 115.2,
          "velocity": 0.7874015748031497
        },
        {
          "duration": 0.20000000000000284,
          "durationTicks": 192,
          "midi": 71,
          "name": "B4",
          "ticks": 110976,
          "time": 115.60000000000001,
          "velocity": 0.6771653543307087
        },
        {
          "duration": 0.19999999999998863,
          "durationTicks": 192,
          "midi": 72,
          "name": "C5",
          "ticks": 111168,
          "time": 115.80000000000001,
          "velocity": 0.6771653543307087
        },
        {
          "duration": 0.30000000000001137,
          "durationTicks": 288,
          "midi": 74,
          "name": "D5",
          "ticks": 111360,
          "time": 116,
          "velocity": 0.6771653543307087
        },
        {
          "duration": 0.29999999999999716,
          "durationTicks": 288,
          "midi": 76,
          "name": "E5",
          "ticks": 111744,
          "time": 116.4,
          "velocity": 0.6771653543307087
        },
        {
          "duration": 1.5,
          "durationTicks": 1440,
          "midi": 81,
          "name": "A5",
          "ticks": 112128,
          "time": 116.80000000000001,
          "velocity": 0.6771653543307087
        },
        {
          "duration": 1.5,
          "durationTicks": 1440,
          "midi": 72,
          "name": "C5",
          "ticks": 115200,
          "time": 120,
          "velocity": 0.6771653543307087
        },
        {
          "duration": 0.6999999999999886,
          "durationTicks": 672,
          "midi": 76,
          "name": "E5",
          "ticks": 115968,
          "time": 120.80000000000001,
          "velocity": 0.6771653543307087
        },
        {
          "duration": 1.5,
          "durationTicks": 1440,
          "midi": 71,
          "name": "B4",
          "ticks": 116736,
          "time": 121.60000000000001,
          "velocity": 0.6771653543307087
        },
        {
          "duration": 0.7000000000000028,
          "durationTicks": 672,
          "midi": 76,
          "name": "E5",
          "ticks": 117504,
          "time": 122.4,
          "velocity": 0.6771653543307087
        },
        {
          "duration": 1.5,
          "durationTicks": 1440,
          "midi": 69,
          "name": "A4",
          "ticks": 118272,
          "time": 123.2,
          "velocity": 0.6771653543307087
        },
        {
          "duration": 0.7000000000000028,
          "durationTicks": 672,
          "midi": 76,
          "name": "E5",
          "ticks": 119040,
          "time": 124,
          "velocity": 0.6771653543307087
        },
        {
          "duration": 1.0999999999999943,
          "durationTicks": 1056,
          "midi": 68,
          "name": "G#4",
          "ticks": 119808,
          "time": 124.80000000000001,
          "velocity": 0.6771653543307087
        },
        {
          "duration": 1.0999999999999943,
          "durationTicks": 1056,
          "midi": 76,
          "name": "E5",
          "ticks": 119808,
          "time": 124.80000000000001,
          "velocity": 0.6771653543307087
        },
        {
          "duration": 0.29999999999999716,
          "durationTicks": 288,
          "midi": 59,
          "name": "B3",
          "ticks": 120576,
          "time": 125.60000000000001,
          "velocity": 0.6771653543307087
        },
        {
          "duration": 0.7000000000000028,
          "durationTicks": 672,
          "midi": 64,
          "name": "E4",
          "ticks": 121344,
          "time": 126.4,
          "velocity": 0.6771653543307087
        },
        {
          "duration": 1.5,
          "durationTicks": 1440,
          "midi": 72,
          "name": "C5",
          "ticks": 121344,
          "time": 126.4,
          "velocity": 0.6771653543307087
        },
        {
          "duration": 0.7000000000000028,
          "durationTicks": 672,
          "midi": 60,
          "name": "C4",
          "ticks": 122112,
          "time": 127.2,
          "velocity": 0.6771653543307087
        },
        {
          "duration": 0.700000000000017,
          "durationTicks": 672,
          "midi": 62,
          "name": "D4",
          "ticks": 122880,
          "time": 128,
          "velocity": 0.6771653543307087
        },
        {
          "duration": 1.5,
          "durationTicks": 1440,
          "midi": 71,
          "name": "B4",
          "ticks": 122880,
          "time": 128,
          "velocity": 0.6771653543307087
        },
        {
          "duration": 0.6999999999999886,
          "durationTicks": 672,
          "midi": 59,
          "name": "B3",
          "ticks": 123648,
          "time": 128.8,
          "velocity": 0.6771653543307087
        },
        {
          "duration": 0.30000000000001137,
          "durationTicks": 288,
          "midi": 60,
          "name": "C4",
          "ticks": 124416,
          "time": 129.6,
          "velocity": 0.7874015748031497
        },
        {
          "duration": 0.30000000000001137,
          "durationTicks": 288,
          "midi": 72,
          "name": "C5",
          "ticks": 124416,
          "time": 129.6,
          "velocity": 0.7874015748031497
        },
        {
          "duration": 0.30000000000001137,
          "durationTicks": 288,
          "midi": 64,
          "name": "E4",
          "ticks": 124800,
          "time": 130,
          "velocity": 0.7874015748031497
        },
        {
          "duration": 0.30000000000001137,
          "durationTicks": 288,
          "midi": 76,
          "name": "E5",
          "ticks": 124800,
          "time": 130,
          "velocity": 0.7874015748031497
        },
        {
          "duration": 0.30000000000001137,
          "durationTicks": 288,
          "midi": 81,
          "name": "A5",
          "ticks": 125184,
          "time": 130.4,
          "velocity": 0.7874015748031497
        },
        {
          "duration": 0.6999999999999886,
          "durationTicks": 672,
          "midi": 69,
          "name": "A4",
          "ticks": 125184,
          "time": 130.4,
          "velocity": 0.6771653543307087
        },
        {
          "duration": 0.29999999999998295,
          "durationTicks": 288,
          "midi": 84,
          "name": "C6",
          "ticks": 125568,
          "time": 130.8,
          "velocity": 0.6771653543307087
        },
        {
          "duration": 0.6999999999999886,
          "durationTicks": 672,
          "midi": 68,
          "name": "G#4",
          "ticks": 125952,
          "time": 131.20000000000002,
          "velocity": 0.6771653543307087
        },
        {
          "duration": 0.6999999999999886,
          "durationTicks": 672,
          "midi": 83,
          "name": "B5",
          "ticks": 125952,
          "time": 131.20000000000002,
          "velocity": 0.6771653543307087
        },
        {
          "duration": 0.29999999999998295,
          "durationTicks": 288,
          "midi": 76,
          "name": "E5",
          "ticks": 127488,
          "time": 132.8,
          "velocity": 0.7874015748031497
        },
        {
          "duration": 0.19999999999998863,
          "durationTicks": 192,
          "midi": 71,
          "name": "B4",
          "ticks": 127872,
          "time": 133.20000000000002,
          "velocity": 0.6771653543307087
        },
        {
          "duration": 0.19999999999998863,
          "durationTicks": 192,
          "midi": 72,
          "name": "C5",
          "ticks": 128064,
          "time": 133.4,
          "velocity": 0.6771653543307087
        },
        {
          "duration": 0.20000000000001705,
          "durationTicks": 192,
          "midi": 74,
          "name": "D5",
          "ticks": 128256,
          "time": 133.6,
          "velocity": 0.7874015748031497
        },
        {
          "duration": 0.09999999999999432,
          "durationTicks": 96,
          "midi": 76,
          "name": "E5",
          "ticks": 128448,
          "time": 133.8,
          "velocity": 0.6771653543307087
        },
        {
          "duration": 0.09999999999999432,
          "durationTicks": 96,
          "midi": 74,
          "name": "D5",
          "ticks": 128544,
          "time": 133.9,
          "velocity": 0.6771653543307087
        },
        {
          "duration": 0.09999999999999432,
          "durationTicks": 96,
          "midi": 72,
          "name": "C5",
          "ticks": 128640,
          "time": 134,
          "velocity": 0.6771653543307087
        },
        {
          "duration": 0.19999999999998863,
          "durationTicks": 192,
          "midi": 71,
          "name": "B4",
          "ticks": 128832,
          "time": 134.20000000000002,
          "velocity": 0.6771653543307087
        },
        {
          "duration": 0.4000000000000057,
          "durationTicks": 384,
          "midi": 69,
          "name": "A4",
          "ticks": 129024,
          "time": 134.4,
          "velocity": 0.7874015748031497
        },
        {
          "duration": 0.19999999999998863,
          "durationTicks": 192,
          "midi": 69,
          "name": "A4",
          "ticks": 129408,
          "time": 134.8,
          "velocity": 0.6771653543307087
        },
        {
          "duration": 0.09999999999999432,
          "durationTicks": 96,
          "midi": 72,
          "name": "C5",
          "ticks": 129600,
          "time": 135,
          "velocity": 0.6771653543307087
        },
        {
          "duration": 0.39999999999997726,
          "durationTicks": 384,
          "midi": 76,
          "name": "E5",
          "ticks": 129792,
          "time": 135.20000000000002,
          "velocity": 0.7874015748031497
        },
        {
          "duration": 0.20000000000001705,
          "durationTicks": 192,
          "midi": 74,
          "name": "D5",
          "ticks": 130176,
          "time": 135.6,
          "velocity": 0.6771653543307087
        },
        {
          "duration": 0.19999999999998863,
          "durationTicks": 192,
          "midi": 72,
          "name": "C5",
          "ticks": 130368,
          "time": 135.8,
          "velocity": 0.6771653543307087
        },
        {
          "duration": 0.5,
          "durationTicks": 480,
          "midi": 71,
          "name": "B4",
          "ticks": 130560,
          "time": 136,
          "velocity": 0.6771653543307087
        },
        {
          "duration": 0.10000000000002274,
          "durationTicks": 96,
          "midi": 72,
          "name": "C5",
          "ticks": 131136,
          "time": 136.6,
          "velocity": 0.6771653543307087
        },
        {
          "duration": 0.29999999999998295,
          "durationTicks": 288,
          "midi": 74,
          "name": "D5",
          "ticks": 131328,
          "time": 136.8,
          "velocity": 0.6771653543307087
        },
        {
          "duration": 0.29999999999998295,
          "durationTicks": 288,
          "midi": 76,
          "name": "E5",
          "ticks": 131712,
          "time": 137.20000000000002,
          "velocity": 0.6771653543307087
        },
        {
          "duration": 0.30000000000001137,
          "durationTicks": 288,
          "midi": 72,
          "name": "C5",
          "ticks": 132096,
          "time": 137.6,
          "velocity": 0.6771653543307087
        },
        {
          "duration": 0.30000000000001137,
          "durationTicks": 288,
          "midi": 69,
          "name": "A4",
          "ticks": 132480,
          "time": 138,
          "velocity": 0.6771653543307087
        },
        {
          "duration": 0.6999999999999886,
          "durationTicks": 672,
          "midi": 69,
          "name": "A4",
          "ticks": 132864,
          "time": 138.4,
          "velocity": 0.6771653543307087
        },
        {
          "duration": 0.4000000000000057,
          "durationTicks": 384,
          "midi": 74,
          "name": "D5",
          "ticks": 133824,
          "time": 139.4,
          "velocity": 0.7874015748031497
        },
        {
          "duration": 0.19999999999998863,
          "durationTicks": 192,
          "midi": 77,
          "name": "F5",
          "ticks": 134208,
          "time": 139.8,
          "velocity": 0.6771653543307087
        },
        {
          "duration": 0.30000000000001137,
          "durationTicks": 288,
          "midi": 81,
          "name": "A5",
          "ticks": 134400,
          "time": 140,
          "velocity": 0.7874015748031497
        },
        {
          "duration": 0.09999999999999432,
          "durationTicks": 96,
          "midi": 79,
          "name": "G5",
          "ticks": 134784,
          "time": 140.4,
          "velocity": 0.6771653543307087
        },
        {
          "duration": 0.10000000000002274,
          "durationTicks": 96,
          "midi": 77,
          "name": "F5",
          "ticks": 134976,
          "time": 140.6,
          "velocity": 0.6771653543307087
        },
        {
          "duration": 0.5,
          "durationTicks": 480,
          "midi": 76,
          "name": "E5",
          "ticks": 135168,
          "time": 140.8,
          "velocity": 0.6771653543307087
        },
        {
          "duration": 0.19999999999998863,
          "durationTicks": 192,
          "midi": 72,
          "name": "C5",
          "ticks": 135744,
          "time": 141.4,
          "velocity": 0.6771653543307087
        },
        {
          "duration": 0.30000000000001137,
          "durationTicks": 288,
          "midi": 76,
          "name": "E5",
          "ticks": 135936,
          "time": 141.6,
          "velocity": 0.6771653543307087
        },
        {
          "duration": 0.20000000000001705,
          "durationTicks": 192,
          "midi": 74,
          "name": "D5",
          "ticks": 136320,
          "time": 142,
          "velocity": 0.6771653543307087
        },
        {
          "duration": 0.19999999999998863,
          "durationTicks": 192,
          "midi": 72,
          "name": "C5",
          "ticks": 136512,
          "time": 142.20000000000002,
          "velocity": 0.6771653543307087
        },
        {
          "duration": 0.30000000000001137,
          "durationTicks": 288,
          "midi": 71,
          "name": "B4",
          "ticks": 136704,
          "time": 142.4,
          "velocity": 0.6771653543307087
        },
        {
          "duration": 0.19999999999998863,
          "durationTicks": 192,
          "midi": 71,
          "name": "B4",
          "ticks": 137088,
          "time": 142.8,
          "velocity": 0.6771653543307087
        },
        {
          "duration": 0.20000000000001705,
          "durationTicks": 192,
          "midi": 72,
          "name": "C5",
          "ticks": 137280,
          "time": 143,
          "velocity": 0.6771653543307087
        },
        {
          "duration": 0.29999999999998295,
          "durationTicks": 288,
          "midi": 74,
          "name": "D5",
          "ticks": 137472,
          "time": 143.20000000000002,
          "velocity": 0.6771653543307087
        },
        {
          "duration": 0.30000000000001137,
          "durationTicks": 288,
          "midi": 76,
          "name": "E5",
          "ticks": 137856,
          "time": 143.6,
          "velocity": 0.6771653543307087
        },
        {
          "duration": 0.30000000000001137,
          "durationTicks": 288,
          "midi": 72,
          "name": "C5",
          "ticks": 138240,
          "time": 144,
          "velocity": 0.6771653543307087
        },
        {
          "duration": 0.30000000000001137,
          "durationTicks": 288,
          "midi": 69,
          "name": "A4",
          "ticks": 138624,
          "time": 144.4,
          "velocity": 0.6771653543307087
        },
        {
          "duration": 0.29999999999998295,
          "durationTicks": 288,
          "midi": 69,
          "name": "A4",
          "ticks": 139008,
          "time": 144.8,
          "velocity": 0.6771653543307087
        },
        {
          "duration": 0.30000000000001137,
          "durationTicks": 288,
          "midi": 76,
          "name": "E5",
          "ticks": 139776,
          "time": 145.6,
          "velocity": 0.7874015748031497
        },
        {
          "duration": 0.20000000000001705,
          "durationTicks": 192,
          "midi": 71,
          "name": "B4",
          "ticks": 140160,
          "time": 146,
          "velocity": 0.6771653543307087
        },
        {
          "duration": 0.19999999999998863,
          "durationTicks": 192,
          "midi": 72,
          "name": "C5",
          "ticks": 140352,
          "time": 146.20000000000002,
          "velocity": 0.6771653543307087
        },
        {
          "duration": 0.19999999999998863,
          "durationTicks": 192,
          "midi": 74,
          "name": "D5",
          "ticks": 140544,
          "time": 146.4,
          "velocity": 0.7874015748031497
        },
        {
          "duration": 0.10000000000002274,
          "durationTicks": 96,
          "midi": 76,
          "name": "E5",
          "ticks": 140736,
          "time": 146.6,
          "velocity": 0.6771653543307087
        },
        {
          "duration": 0.09999999999999432,
          "durationTicks": 96,
          "midi": 74,
          "name": "D5",
          "ticks": 140832,
          "time": 146.70000000000002,
          "velocity": 0.6771653543307087
        },
        {
          "duration": 0.09999999999999432,
          "durationTicks": 96,
          "midi": 72,
          "name": "C5",
          "ticks": 140928,
          "time": 146.8,
          "velocity": 0.6771653543307087
        },
        {
          "duration": 0.20000000000001705,
          "durationTicks": 192,
          "midi": 71,
          "name": "B4",
          "ticks": 141120,
          "time": 147,
          "velocity": 0.6771653543307087
        },
        {
          "duration": 0.29999999999998295,
          "durationTicks": 288,
          "midi": 69,
          "name": "A4",
          "ticks": 141312,
          "time": 147.20000000000002,
          "velocity": 0.7874015748031497
        },
        {
          "duration": 0.20000000000001705,
          "durationTicks": 192,
          "midi": 69,
          "name": "A4",
          "ticks": 141696,
          "time": 147.6,
          "velocity": 0.6771653543307087
        },
        {
          "duration": 0.19999999999998863,
          "durationTicks": 192,
          "midi": 72,
          "name": "C5",
          "ticks": 141888,
          "time": 147.8,
          "velocity": 0.6771653543307087
        },
        {
          "duration": 0.30000000000001137,
          "durationTicks": 288,
          "midi": 76,
          "name": "E5",
          "ticks": 142080,
          "time": 148,
          "velocity": 0.6771653543307087
        },
        {
          "duration": 0.19999999999998863,
          "durationTicks": 192,
          "midi": 74,
          "name": "D5",
          "ticks": 142464,
          "time": 148.4,
          "velocity": 0.6771653543307087
        },
        {
          "duration": 0.20000000000001705,
          "durationTicks": 192,
          "midi": 72,
          "name": "C5",
          "ticks": 142656,
          "time": 148.6,
          "velocity": 0.6771653543307087
        },
        {
          "duration": 0.5,
          "durationTicks": 480,
          "midi": 71,
          "name": "B4",
          "ticks": 142848,
          "time": 148.8,
          "velocity": 0.6771653543307087
        },
        {
          "duration": 0.19999999999998863,
          "durationTicks": 192,
          "midi": 72,
          "name": "C5",
          "ticks": 143424,
          "time": 149.4,
          "velocity": 0.6771653543307087
        },
        {
          "duration": 0.30000000000001137,
          "durationTicks": 288,
          "midi": 74,
          "name": "D5",
          "ticks": 143616,
          "time": 149.6,
          "velocity": 0.6771653543307087
        },
        {
          "duration": 0.30000000000001137,
          "durationTicks": 288,
          "midi": 76,
          "name": "E5",
          "ticks": 144000,
          "time": 150,
          "velocity": 0.6771653543307087
        },
        {
          "duration": 0.30000000000001137,
          "durationTicks": 288,
          "midi": 72,
          "name": "C5",
          "ticks": 144384,
          "time": 150.4,
          "velocity": 0.6771653543307087
        },
        {
          "duration": 0.29999999999998295,
          "durationTicks": 288,
          "midi": 69,
          "name": "A4",
          "ticks": 144768,
          "time": 150.8,
          "velocity": 0.6771653543307087
        },
        {
          "duration": 0.6999999999999886,
          "durationTicks": 672,
          "midi": 69,
          "name": "A4",
          "ticks": 145152,
          "time": 151.20000000000002,
          "velocity": 0.6771653543307087
        },
        {
          "duration": 0.39999999999997726,
          "durationTicks": 384,
          "midi": 74,
          "name": "D5",
          "ticks": 146112,
          "time": 152.20000000000002,
          "velocity": 0.6771653543307087
        },
        {
          "duration": 0.20000000000001705,
          "durationTicks": 192,
          "midi": 77,
          "name": "F5",
          "ticks": 146496,
          "time": 152.6,
          "velocity": 0.6771653543307087
        },
        {
          "duration": 0.29999999999998295,
          "durationTicks": 288,
          "midi": 81,
          "name": "A5",
          "ticks": 146688,
          "time": 152.8,
          "velocity": 0.6771653543307087
        },
        {
          "duration": 0.19999999999998863,
          "durationTicks": 192,
          "midi": 79,
          "name": "G5",
          "ticks": 147072,
          "time": 153.20000000000002,
          "velocity": 0.6771653543307087
        },
        {
          "duration": 0.20000000000001705,
          "durationTicks": 192,
          "midi": 77,
          "name": "F5",
          "ticks": 147264,
          "time": 153.4,
          "velocity": 0.6771653543307087
        },
        {
          "duration": 0.5,
          "durationTicks": 480,
          "midi": 79,
          "name": "G5",
          "ticks": 147456,
          "time": 153.60000000000002,
          "velocity": 0.6771653543307087
        },
        {
          "duration": 0.19999999999998863,
          "durationTicks": 192,
          "midi": 72,
          "name": "C5",
          "ticks": 148032,
          "time": 154.20000000000002,
          "velocity": 0.6771653543307087
        },
        {
          "duration": 0.30000000000001137,
          "durationTicks": 288,
          "midi": 76,
          "name": "E5",
          "ticks": 148224,
          "time": 154.4,
          "velocity": 0.6771653543307087
        },
        {
          "duration": 0.19999999999998863,
          "durationTicks": 192,
          "midi": 74,
          "name": "D5",
          "ticks": 148608,
          "time": 154.8,
          "velocity": 0.6771653543307087
        },
        {
          "duration": 0.20000000000001705,
          "durationTicks": 192,
          "midi": 72,
          "name": "C5",
          "ticks": 148800,
          "time": 155,
          "velocity": 0.6771653543307087
        },
        {
          "duration": 0.29999999999998295,
          "durationTicks": 288,
          "midi": 71,
          "name": "B4",
          "ticks": 148992,
          "time": 155.20000000000002,
          "velocity": 0.6771653543307087
        },
        {
          "duration": 0.19999999999998863,
          "durationTicks": 192,
          "midi": 71,
          "name": "B4",
          "ticks": 149376,
          "time": 155.60000000000002,
          "velocity": 0.6771653543307087
        },
        {
          "duration": 0.19999999999998863,
          "durationTicks": 192,
          "midi": 72,
          "name": "C5",
          "ticks": 149568,
          "time": 155.8,
          "velocity": 0.6771653543307087
        },
        {
          "duration": 0.30000000000001137,
          "durationTicks": 288,
          "midi": 74,
          "name": "D5",
          "ticks": 149760,
          "time": 156,
          "velocity": 0.6771653543307087
        },
        {
          "duration": 0.30000000000001137,
          "durationTicks": 288,
          "midi": 76,
          "name": "E5",
          "ticks": 150144,
          "time": 156.4,
          "velocity": 0.6771653543307087
        },
        {
          "duration": 0.30000000000001137,
          "durationTicks": 288,
          "midi": 72,
          "name": "C5",
          "ticks": 150528,
          "time": 156.8,
          "velocity": 0.6771653543307087
        },
        {
          "duration": 0.29999999999998295,
          "durationTicks": 288,
          "midi": 69,
          "name": "A4",
          "ticks": 150912,
          "time": 157.20000000000002,
          "velocity": 0.6771653543307087
        },
        {
          "duration": 0.29999999999998295,
          "durationTicks": 288,
          "midi": 69,
          "name": "A4",
          "ticks": 151296,
          "time": 157.60000000000002,
          "velocity": 0.6771653543307087
        },
        {
          "duration": 0.700000000000017,
          "durationTicks": 672,
          "midi": 72,
          "name": "C5",
          "ticks": 152064,
          "time": 158.4,
          "velocity": 0.6771653543307087
        },
        {
          "duration": 0.19999999999998863,
          "durationTicks": 192,
          "midi": 76,
          "name": "E5",
          "ticks": 152832,
          "time": 159.20000000000002,
          "velocity": 0.6771653543307087
        },
        {
          "duration": 0.20000000000001705,
          "durationTicks": 192,
          "midi": 69,
          "name": "A4",
          "ticks": 153024,
          "time": 159.4,
          "velocity": 0.6771653543307087
        },
        {
          "duration": 0.19999999999998863,
          "durationTicks": 192,
          "midi": 76,
          "name": "E5",
          "ticks": 153216,
          "time": 159.60000000000002,
          "velocity": 0.6771653543307087
        },
        {
          "duration": 0.19999999999998863,
          "durationTicks": 192,
          "midi": 69,
          "name": "A4",
          "ticks": 153408,
          "time": 159.8,
          "velocity": 0.6771653543307087
        },
        {
          "duration": 0.20000000000001705,
          "durationTicks": 192,
          "midi": 76,
          "name": "E5",
          "ticks": 153600,
          "time": 160,
          "velocity": 0.6771653543307087
        },
        {
          "duration": 0.19999999999998863,
          "durationTicks": 192,
          "midi": 68,
          "name": "G#4",
          "ticks": 153792,
          "time": 160.20000000000002,
          "velocity": 0.6771653543307087
        },
        {
          "duration": 0.20000000000001705,
          "durationTicks": 192,
          "midi": 76,
          "name": "E5",
          "ticks": 153984,
          "time": 160.4,
          "velocity": 0.6771653543307087
        },
        {
          "duration": 0.19999999999998863,
          "durationTicks": 192,
          "midi": 68,
          "name": "G#4",
          "ticks": 154176,
          "time": 160.60000000000002,
          "velocity": 0.6771653543307087
        },
        {
          "duration": 0.6999999999999886,
          "durationTicks": 672,
          "midi": 76,
          "name": "E5",
          "ticks": 154368,
          "time": 160.8,
          "velocity": 0.6771653543307087
        },
        {
          "duration": 0.6999999999999886,
          "durationTicks": 672,
          "midi": 69,
          "name": "A4",
          "ticks": 155136,
          "time": 161.60000000000002,
          "velocity": 0.6771653543307087
        },
        {
          "duration": 0.30000000000001137,
          "durationTicks": 288,
          "midi": 64,
          "name": "E4",
          "ticks": 155904,
          "time": 162.4,
          "velocity": 0.6771653543307087
        },
        {
          "duration": 0.30000000000001137,
          "durationTicks": 288,
          "midi": 60,
          "name": "C4",
          "ticks": 156288,
          "time": 162.8,
          "velocity": 0.6771653543307087
        },
        {
          "duration": 0.09999999999999432,
          "durationTicks": 96,
          "midi": 59,
          "name": "B3",
          "ticks": 156672,
          "time": 163.20000000000002,
          "velocity": 0.6771653543307087
        },
        {
          "duration": 0.09999999999999432,
          "durationTicks": 96,
          "midi": 64,
          "name": "E4",
          "ticks": 156768,
          "time": 163.3,
          "velocity": 0.6771653543307087
        },
        {
          "duration": 0.09999999999999432,
          "durationTicks": 96,
          "midi": 59,
          "name": "B3",
          "ticks": 156864,
          "time": 163.4,
          "velocity": 0.6771653543307087
        },
        {
          "duration": 0.10000000000002274,
          "durationTicks": 96,
          "midi": 64,
          "name": "E4",
          "ticks": 156960,
          "time": 163.5,
          "velocity": 0.6771653543307087
        },
        {
          "duration": 0.09999999999999432,
          "durationTicks": 96,
          "midi": 59,
          "name": "B3",
          "ticks": 157056,
          "time": 163.60000000000002,
          "velocity": 0.6771653543307087
        },
        {
          "duration": 0.09999999999999432,
          "durationTicks": 96,
          "midi": 64,
          "name": "E4",
          "ticks": 157152,
          "time": 163.70000000000002,
          "velocity": 0.6771653543307087
        },
        {
          "duration": 0.09999999999999432,
          "durationTicks": 96,
          "midi": 59,
          "name": "B3",
          "ticks": 157248,
          "time": 163.8,
          "velocity": 0.6771653543307087
        },
        {
          "duration": 0.09999999999999432,
          "durationTicks": 96,
          "midi": 64,
          "name": "E4",
          "ticks": 157344,
          "time": 163.9,
          "velocity": 0.6771653543307087
        },
        {
          "duration": 0.700000000000017,
          "durationTicks": 672,
          "midi": 64,
          "name": "E4",
          "ticks": 157440,
          "time": 164,
          "velocity": 0.6771653543307087
        },
        {
          "duration": 1.5,
          "durationTicks": 1440,
          "midi": 64,
          "name": "E4",
          "ticks": 158208,
          "time": 164.8,
          "velocity": 0.6771653543307087
        },
        {
          "duration": 1.5,
          "durationTicks": 1440,
          "midi": 64,
          "name": "E4",
          "ticks": 159744,
          "time": 166.4,
          "velocity": 0.6771653543307087
        },
        {
          "duration": 1.5,
          "durationTicks": 1440,
          "midi": 64,
          "name": "E4",
          "ticks": 161280,
          "time": 168,
          "velocity": 0.6771653543307087
        },
        {
          "duration": 1.5,
          "durationTicks": 1440,
          "midi": 64,
          "name": "E4",
          "ticks": 162816,
          "time": 169.60000000000002,
          "velocity": 0.6771653543307087
        },
        {
          "duration": 0.29999999999998295,
          "durationTicks": 288,
          "midi": 76,
          "name": "E5",
          "ticks": 164352,
          "time": 171.20000000000002,
          "velocity": 0.7874015748031497
        },
        {
          "duration": 0.19999999999998863,
          "durationTicks": 192,
          "midi": 71,
          "name": "B4",
          "ticks": 164736,
          "time": 171.60000000000002,
          "velocity": 0.6771653543307087
        },
        {
          "duration": 0.19999999999998863,
          "durationTicks": 192,
          "midi": 72,
          "name": "C5",
          "ticks": 164928,
          "time": 171.8,
          "velocity": 0.6771653543307087
        },
        {
          "duration": 0.20000000000001705,
          "durationTicks": 192,
          "midi": 74,
          "name": "D5",
          "ticks": 165120,
          "time": 172,
          "velocity": 0.7874015748031497
        },
        {
          "duration": 0.09999999999999432,
          "durationTicks": 96,
          "midi": 76,
          "name": "E5",
          "ticks": 165312,
          "time": 172.20000000000002,
          "velocity": 0.6771653543307087
        },
        {
          "duration": 0.09999999999999432,
          "durationTicks": 96,
          "midi": 74,
          "name": "D5",
          "ticks": 165408,
          "time": 172.3,
          "velocity": 0.6771653543307087
        },
        {
          "duration": 0.20000000000001705,
          "durationTicks": 192,
          "midi": 71,
          "name": "B4",
          "ticks": 165504,
          "time": 172.4,
          "velocity": 0.6771653543307087
        },
        {
          "duration": 0.19999999999998863,
          "durationTicks": 192,
          "midi": 72,
          "name": "C5",
          "ticks": 165696,
          "time": 172.60000000000002,
          "velocity": 0.6771653543307087
        },
        {
          "duration": 0.4000000000000057,
          "durationTicks": 384,
          "midi": 69,
          "name": "A4",
          "ticks": 165888,
          "time": 172.8,
          "velocity": 0.7874015748031497
        },
        {
          "duration": 0.19999999999998863,
          "durationTicks": 192,
          "midi": 69,
          "name": "A4",
          "ticks": 166272,
          "time": 173.20000000000002,
          "velocity": 0.6771653543307087
        },
        {
          "duration": 0.09999999999999432,
          "durationTicks": 96,
          "midi": 72,
          "name": "C5",
          "ticks": 166464,
          "time": 173.4,
          "velocity": 0.6771653543307087
        },
        {
          "duration": 0.39999999999997726,
          "durationTicks": 384,
          "midi": 76,
          "name": "E5",
          "ticks": 166656,
          "time": 173.60000000000002,
          "velocity": 0.7874015748031497
        },
        {
          "duration": 0.20000000000001705,
          "durationTicks": 192,
          "midi": 69,
          "name": "A4",
          "ticks": 167040,
          "time": 174,
          "velocity": 0.6771653543307087
        },
        {
          "duration": 0.09999999999999432,
          "durationTicks": 96,
          "midi": 72,
          "name": "C5",
          "ticks": 167232,
          "time": 174.20000000000002,
          "velocity": 0.6771653543307087
        },
        {
          "duration": 0.5,
          "durationTicks": 480,
          "midi": 76,
          "name": "E5",
          "ticks": 167424,
          "time": 174.4,
          "velocity": 0.6771653543307087
        },
        {
          "duration": 0.20000000000001705,
          "durationTicks": 192,
          "midi": 72,
          "name": "C5",
          "ticks": 168000,
          "time": 175,
          "velocity": 0.6771653543307087
        },
        {
          "duration": 0.29999999999998295,
          "durationTicks": 288,
          "midi": 71,
          "name": "B4",
          "ticks": 168192,
          "time": 175.20000000000002,
          "velocity": 0.6771653543307087
        },
        {
          "duration": 0.29999999999998295,
          "durationTicks": 288,
          "midi": 76,
          "name": "E5",
          "ticks": 168576,
          "time": 175.60000000000002,
          "velocity": 0.6771653543307087
        },
        {
          "duration": 0.30000000000001137,
          "durationTicks": 288,
          "midi": 69,
          "name": "A4",
          "ticks": 168960,
          "time": 176,
          "velocity": 0.6771653543307087
        },
        {
          "duration": 0.30000000000001137,
          "durationTicks": 288,
          "midi": 72,
          "name": "C5",
          "ticks": 169344,
          "time": 176.4,
          "velocity": 0.6771653543307087
        },
        {
          "duration": 0.6999999999999886,
          "durationTicks": 672,
          "midi": 69,
          "name": "A4",
          "ticks": 169728,
          "time": 176.8,
          "velocity": 0.6771653543307087
        },
        {
          "duration": 0.4000000000000057,
          "durationTicks": 384,
          "midi": 74,
          "name": "D5",
          "ticks": 170688,
          "time": 177.8,
          "velocity": 0.7874015748031497
        },
        {
          "duration": 0.19999999999998863,
          "durationTicks": 192,
          "midi": 77,
          "name": "F5",
          "ticks": 171072,
          "time": 178.20000000000002,
          "velocity": 0.6771653543307087
        },
        {
          "duration": 0.30000000000001137,
          "durationTicks": 288,
          "midi": 81,
          "name": "A5",
          "ticks": 171264,
          "time": 178.4,
          "velocity": 0.7874015748031497
        },
        {
          "duration": 0.09999999999999432,
          "durationTicks": 96,
          "midi": 79,
          "name": "G5",
          "ticks": 171648,
          "time": 178.8,
          "velocity": 0.6771653543307087
        },
        {
          "duration": 0.10000000000002274,
          "durationTicks": 96,
          "midi": 77,
          "name": "F5",
          "ticks": 171840,
          "time": 179,
          "velocity": 0.6771653543307087
        },
        {
          "duration": 0.5,
          "durationTicks": 480,
          "midi": 76,
          "name": "E5",
          "ticks": 172032,
          "time": 179.20000000000002,
          "velocity": 0.6771653543307087
        },
        {
          "duration": 0.19999999999998863,
          "durationTicks": 192,
          "midi": 72,
          "name": "C5",
          "ticks": 172608,
          "time": 179.8,
          "velocity": 0.6771653543307087
        },
        {
          "duration": 0.30000000000001137,
          "durationTicks": 288,
          "midi": 76,
          "name": "E5",
          "ticks": 172800,
          "time": 180,
          "velocity": 0.6771653543307087
        },
        {
          "duration": 0.20000000000001705,
          "durationTicks": 192,
          "midi": 74,
          "name": "D5",
          "ticks": 173184,
          "time": 180.4,
          "velocity": 0.6771653543307087
        },
        {
          "duration": 0.19999999999998863,
          "durationTicks": 192,
          "midi": 72,
          "name": "C5",
          "ticks": 173376,
          "time": 180.60000000000002,
          "velocity": 0.6771653543307087
        },
        {
          "duration": 0.30000000000001137,
          "durationTicks": 288,
          "midi": 76,
          "name": "E5",
          "ticks": 173568,
          "time": 180.8,
          "velocity": 0.6771653543307087
        },
        {
          "duration": 0.19999999999998863,
          "durationTicks": 192,
          "midi": 71,
          "name": "B4",
          "ticks": 173952,
          "time": 181.20000000000002,
          "velocity": 0.6771653543307087
        },
        {
          "duration": 0.20000000000001705,
          "durationTicks": 192,
          "midi": 72,
          "name": "C5",
          "ticks": 174144,
          "time": 181.4,
          "velocity": 0.6771653543307087
        },
        {
          "duration": 0.29999999999998295,
          "durationTicks": 288,
          "midi": 74,
          "name": "D5",
          "ticks": 174336,
          "time": 181.60000000000002,
          "velocity": 0.6771653543307087
        },
        {
          "duration": 0.30000000000001137,
          "durationTicks": 288,
          "midi": 76,
          "name": "E5",
          "ticks": 174720,
          "time": 182,
          "velocity": 0.6771653543307087
        },
        {
          "duration": 1.5,
          "durationTicks": 1440,
          "midi": 72,
          "name": "C5",
          "ticks": 175104,
          "time": 182.4,
          "velocity": 0.6771653543307087
        },
        {
          "duration": 0.29999999999998295,
          "durationTicks": 288,
          "midi": 74,
          "name": "D5",
          "ticks": 177792,
          "time": 185.20000000000002,
          "velocity": 0.6771653543307087
        },
        {
          "duration": 0.6999999999999886,
          "durationTicks": 672,
          "midi": 76,
          "name": "E5",
          "ticks": 178176,
          "time": 185.60000000000002,
          "velocity": 0.6771653543307087
        },
        {
          "duration": 0.30000000000001137,
          "durationTicks": 288,
          "midi": 77,
          "name": "F5",
          "ticks": 178944,
          "time": 186.4,
          "velocity": 0.6771653543307087
        },
        {
          "duration": 0.30000000000001137,
          "durationTicks": 288,
          "midi": 79,
          "name": "G5",
          "ticks": 179328,
          "time": 186.8,
          "velocity": 0.6771653543307087
        },
        {
          "duration": 0.5,
          "durationTicks": 480,
          "midi": 77,
          "name": "F5",
          "ticks": 179712,
          "time": 187.20000000000002,
          "velocity": 0.6771653543307087
        },
        {
          "duration": 0.19999999999998863,
          "durationTicks": 192,
          "midi": 72,
          "name": "C5",
          "ticks": 180288,
          "time": 187.8,
          "velocity": 0.6771653543307087
        },
        {
          "duration": 0.700000000000017,
          "durationTicks": 672,
          "midi": 76,
          "name": "E5",
          "ticks": 180480,
          "time": 188,
          "velocity": 0.6771653543307087
        },
        {
          "duration": 0.6999999999999886,
          "durationTicks": 672,
          "midi": 76,
          "name": "E5",
          "ticks": 181248,
          "time": 188.8,
          "velocity": 0.6771653543307087
        },
        {
          "duration": 0.29999999999998295,
          "durationTicks": 288,
          "midi": 74,
          "name": "D5",
          "ticks": 182016,
          "time": 189.60000000000002,
          "velocity": 0.6771653543307087
        },
        {
          "duration": 0.30000000000001137,
          "durationTicks": 288,
          "midi": 72,
          "name": "C5",
          "ticks": 182400,
          "time": 190,
          "velocity": 0.6771653543307087
        },
        {
          "duration": 0.20000000000001705,
          "durationTicks": 192,
          "midi": 71,
          "name": "B4",
          "ticks": 182784,
          "time": 190.4,
          "velocity": 0.6771653543307087
        },
        {
          "duration": 0.19999999999998863,
          "durationTicks": 192,
          "midi": 68,
          "name": "G#4",
          "ticks": 182976,
          "time": 190.60000000000002,
          "velocity": 0.6771653543307087
        },
        {
          "duration": 0.19999999999998863,
          "durationTicks": 192,
          "midi": 71,
          "name": "B4",
          "ticks": 183168,
          "time": 190.8,
          "velocity": 0.6771653543307087
        },
        {
          "duration": 0.20000000000001705,
          "durationTicks": 192,
          "midi": 68,
          "name": "G#4",
          "ticks": 183360,
          "time": 191,
          "velocity": 0.6771653543307087
        },
        {
          "duration": 0.29999999999998295,
          "durationTicks": 288,
          "midi": 71,
          "name": "B4",
          "ticks": 183552,
          "time": 191.20000000000002,
          "velocity": 0.6771653543307087
        },
        {
          "duration": 0.29999999999998295,
          "durationTicks": 288,
          "midi": 74,
          "name": "D5",
          "ticks": 183936,
          "time": 191.60000000000002,
          "velocity": 0.6771653543307087
        },
        {
          "duration": 0.700000000000017,
          "durationTicks": 672,
          "midi": 76,
          "name": "E5",
          "ticks": 184320,
          "time": 192,
          "velocity": 0.6771653543307087
        },
        {
          "duration": 0.30000000000001137,
          "durationTicks": 288,
          "midi": 77,
          "name": "F5",
          "ticks": 185088,
          "time": 192.8,
          "velocity": 0.6771653543307087
        },
        {
          "duration": 0.29999999999998295,
          "durationTicks": 288,
          "midi": 79,
          "name": "G5",
          "ticks": 185472,
          "time": 193.20000000000002,
          "velocity": 0.6771653543307087
        },
        {
          "duration": 0.5,
          "durationTicks": 480,
          "midi": 80,
          "name": "G#5",
          "ticks": 185856,
          "time": 193.60000000000002,
          "velocity": 0.6771653543307087
        },
        {
          "duration": 0.19999999999998863,
          "durationTicks": 192,
          "midi": 72,
          "name": "C5",
          "ticks": 186432,
          "time": 194.20000000000002,
          "velocity": 0.6771653543307087
        },
        {
          "duration": 0.700000000000017,
          "durationTicks": 672,
          "midi": 76,
          "name": "E5",
          "ticks": 186624,
          "time": 194.4,
          "velocity": 0.6771653543307087
        },
        {
          "duration": 0.6999999999999886,
          "durationTicks": 672,
          "midi": 81,
          "name": "A5",
          "ticks": 187392,
          "time": 195.20000000000002,
          "velocity": 0.6771653543307087
        },
        {
          "duration": 0.30000000000001137,
          "durationTicks": 288,
          "midi": 74,
          "name": "D5",
          "ticks": 188160,
          "time": 196,
          "velocity": 0.6771653543307087
        },
        {
          "duration": 0.30000000000001137,
          "durationTicks": 288,
          "midi": 72,
          "name": "C5",
          "ticks": 188544,
          "time": 196.4,
          "velocity": 0.6771653543307087
        },
        {
          "duration": 0.30000000000001137,
          "durationTicks": 288,
          "midi": 80,
          "name": "G#5",
          "ticks": 188928,
          "time": 196.8,
          "velocity": 0.6771653543307087
        },
        {
          "duration": 0.19999999999998863,
          "durationTicks": 192,
          "midi": 76,
          "name": "E5",
          "ticks": 189312,
          "time": 197.20000000000002,
          "velocity": 0.6771653543307087
        },
        {
          "duration": 0.20000000000001705,
          "durationTicks": 192,
          "midi": 71,
          "name": "B4",
          "ticks": 189504,
          "time": 197.4,
          "velocity": 0.6771653543307087
        },
        {
          "duration": 0.19999999999998863,
          "durationTicks": 192,
          "midi": 71,
          "name": "B4",
          "ticks": 189696,
          "time": 197.60000000000002,
          "velocity": 0.6771653543307087
        },
        {
          "duration": 0.19999999999998863,
          "durationTicks": 192,
          "midi": 74,
          "name": "D5",
          "ticks": 189888,
          "time": 197.8,
          "velocity": 0.6771653543307087
        },
        {
          "duration": 0.30000000000001137,
          "durationTicks": 288,
          "midi": 71,
          "name": "B4",
          "ticks": 190080,
          "time": 198,
          "velocity": 0.6771653543307087
        },
        {
          "duration": 1.5,
          "durationTicks": 1440,
          "midi": 71,
          "name": "B4",
          "ticks": 190464,
          "time": 198.4,
          "velocity": 0.6771653543307087
        },
        {
          "duration": 1.5,
          "durationTicks": 1440,
          "midi": 69,
          "name": "A4",
          "ticks": 192000,
          "time": 200,
          "velocity": 0.6771653543307087
        },
        {
          "duration": 0.30000000000001137,
          "durationTicks": 288,
          "midi": 71,
          "name": "B4",
          "ticks": 194688,
          "time": 202.8,
          "velocity": 0.6771653543307087
        },
        {
          "duration": 0.6999999999999886,
          "durationTicks": 672,
          "midi": 69,
          "name": "A4",
          "ticks": 195072,
          "time": 203.20000000000002,
          "velocity": 0.6771653543307087
        },
        {
          "duration": 0.20000000000001705,
          "durationTicks": 192,
          "midi": 64,
          "name": "E4",
          "ticks": 195840,
          "time": 204,
          "velocity": 0.6771653543307087
        },
        {
          "duration": 0.20000000000001705,
          "durationTicks": 192,
          "midi": 69,
          "name": "A4",
          "ticks": 195840,
          "time": 204,
          "velocity": 0.6771653543307087
        },
        {
          "duration": 0.19999999999998863,
          "durationTicks": 192,
          "midi": 64,
          "name": "E4",
          "ticks": 196032,
          "time": 204.20000000000002,
          "velocity": 0.6771653543307087
        },
        {
          "duration": 0.19999999999998863,
          "durationTicks": 192,
          "midi": 69,
          "name": "A4",
          "ticks": 196032,
          "time": 204.20000000000002,
          "velocity": 0.6771653543307087
        },
        {
          "duration": 0.20000000000001705,
          "durationTicks": 192,
          "midi": 64,
          "name": "E4",
          "ticks": 196224,
          "time": 204.4,
          "velocity": 0.6771653543307087
        },
        {
          "duration": 0.20000000000001705,
          "durationTicks": 192,
          "midi": 69,
          "name": "A4",
          "ticks": 196224,
          "time": 204.4,
          "velocity": 0.6771653543307087
        },
        {
          "duration": 0.19999999999998863,
          "durationTicks": 192,
          "midi": 64,
          "name": "E4",
          "ticks": 196416,
          "time": 204.60000000000002,
          "velocity": 0.6771653543307087
        },
        {
          "duration": 0.19999999999998863,
          "durationTicks": 192,
          "midi": 69,
          "name": "A4",
          "ticks": 196416,
          "time": 204.60000000000002,
          "velocity": 0.6771653543307087
        },
        {
          "duration": 0.19999999999998863,
          "durationTicks": 192,
          "midi": 64,
          "name": "E4",
          "ticks": 196608,
          "time": 204.8,
          "velocity": 0.6771653543307087
        },
        {
          "duration": 0.19999999999998863,
          "durationTicks": 192,
          "midi": 68,
          "name": "G#4",
          "ticks": 196608,
          "time": 204.8,
          "velocity": 0.6771653543307087
        },
        {
          "duration": 0.20000000000001705,
          "durationTicks": 192,
          "midi": 64,
          "name": "E4",
          "ticks": 196800,
          "time": 205,
          "velocity": 0.6771653543307087
        },
        {
          "duration": 0.20000000000001705,
          "durationTicks": 192,
          "midi": 68,
          "name": "G#4",
          "ticks": 196800,
          "time": 205,
          "velocity": 0.6771653543307087
        },
        {
          "duration": 0.19999999999998863,
          "durationTicks": 192,
          "midi": 64,
          "name": "E4",
          "ticks": 196992,
          "time": 205.20000000000002,
          "velocity": 0.6771653543307087
        },
        {
          "duration": 0.19999999999998863,
          "durationTicks": 192,
          "midi": 68,
          "name": "G#4",
          "ticks": 196992,
          "time": 205.20000000000002,
          "velocity": 0.6771653543307087
        },
        {
          "duration": 0.20000000000001705,
          "durationTicks": 192,
          "midi": 64,
          "name": "E4",
          "ticks": 197184,
          "time": 205.4,
          "velocity": 0.6771653543307087
        },
        {
          "duration": 0.20000000000001705,
          "durationTicks": 192,
          "midi": 68,
          "name": "G#4",
          "ticks": 197184,
          "time": 205.4,
          "velocity": 0.6771653543307087
        },
        {
          "duration": 0.6999999999999886,
          "durationTicks": 672,
          "midi": 64,
          "name": "E4",
          "ticks": 197376,
          "time": 205.60000000000002,
          "velocity": 0.6771653543307087
        },
        {
          "duration": 0.6999999999999886,
          "durationTicks": 672,
          "midi": 68,
          "name": "G#4",
          "ticks": 197376,
          "time": 205.60000000000002,
          "velocity": 0.6771653543307087
        },
        {
          "duration": 0.700000000000017,
          "durationTicks": 672,
          "midi": 69,
          "name": "A4",
          "ticks": 198144,
          "time": 206.4,
          "velocity": 0.6771653543307087
        },
        {
          "duration": 0.19999999999998863,
          "durationTicks": 192,
          "midi": 64,
          "name": "E4",
          "ticks": 198912,
          "time": 207.20000000000002,
          "velocity": 0.6771653543307087
        },
        {
          "duration": 0.19999999999998863,
          "durationTicks": 192,
          "midi": 69,
          "name": "A4",
          "ticks": 198912,
          "time": 207.20000000000002,
          "velocity": 0.6771653543307087
        },
        {
          "duration": 0.20000000000001705,
          "durationTicks": 192,
          "midi": 64,
          "name": "E4",
          "ticks": 199104,
          "time": 207.4,
          "velocity": 0.6771653543307087
        },
        {
          "duration": 0.20000000000001705,
          "durationTicks": 192,
          "midi": 69,
          "name": "A4",
          "ticks": 199104,
          "time": 207.4,
          "velocity": 0.6771653543307087
        },
        {
          "duration": 0.19999999999998863,
          "durationTicks": 192,
          "midi": 64,
          "name": "E4",
          "ticks": 199296,
          "time": 207.60000000000002,
          "velocity": 0.6771653543307087
        },
        {
          "duration": 0.19999999999998863,
          "durationTicks": 192,
          "midi": 69,
          "name": "A4",
          "ticks": 199296,
          "time": 207.60000000000002,
          "velocity": 0.6771653543307087
        },
        {
          "duration": 0.19999999999998863,
          "durationTicks": 192,
          "midi": 64,
          "name": "E4",
          "ticks": 199488,
          "time": 207.8,
          "velocity": 0.6771653543307087
        },
        {
          "duration": 0.19999999999998863,
          "durationTicks": 192,
          "midi": 69,
          "name": "A4",
          "ticks": 199488,
          "time": 207.8,
          "velocity": 0.6771653543307087
        },
        {
          "duration": 0.20000000000001705,
          "durationTicks": 192,
          "midi": 64,
          "name": "E4",
          "ticks": 199680,
          "time": 208,
          "velocity": 0.6771653543307087
        },
        {
          "duration": 0.20000000000001705,
          "durationTicks": 192,
          "midi": 68,
          "name": "G#4",
          "ticks": 199680,
          "time": 208,
          "velocity": 0.6771653543307087
        },
        {
          "duration": 0.19999999999998863,
          "durationTicks": 192,
          "midi": 64,
          "name": "E4",
          "ticks": 199872,
          "time": 208.20000000000002,
          "velocity": 0.6771653543307087
        },
        {
          "duration": 0.19999999999998863,
          "durationTicks": 192,
          "midi": 68,
          "name": "G#4",
          "ticks": 199872,
          "time": 208.20000000000002,
          "velocity": 0.6771653543307087
        },
        {
          "duration": 0.20000000000001705,
          "durationTicks": 192,
          "midi": 64,
          "name": "E4",
          "ticks": 200064,
          "time": 208.4,
          "velocity": 0.6771653543307087
        },
        {
          "duration": 0.20000000000001705,
          "durationTicks": 192,
          "midi": 68,
          "name": "G#4",
          "ticks": 200064,
          "time": 208.4,
          "velocity": 0.6771653543307087
        },
        {
          "duration": 0.19999999999998863,
          "durationTicks": 192,
          "midi": 64,
          "name": "E4",
          "ticks": 200256,
          "time": 208.60000000000002,
          "velocity": 0.6771653543307087
        },
        {
          "duration": 0.19999999999998863,
          "durationTicks": 192,
          "midi": 68,
          "name": "G#4",
          "ticks": 200256,
          "time": 208.60000000000002,
          "velocity": 0.6771653543307087
        },
        {
          "duration": 0.6999999999999886,
          "durationTicks": 672,
          "midi": 64,
          "name": "E4",
          "ticks": 200448,
          "time": 208.8,
          "velocity": 0.6771653543307087
        },
        {
          "duration": 0.6999999999999886,
          "durationTicks": 672,
          "midi": 68,
          "name": "G#4",
          "ticks": 200448,
          "time": 208.8,
          "velocity": 0.6771653543307087
        },
        {
          "duration": 0.6999999999999886,
          "durationTicks": 672,
          "midi": 60,
          "name": "C4",
          "ticks": 201216,
          "time": 209.60000000000002,
          "velocity": 0.6771653543307087
        },
        {
          "duration": 0.20000000000001705,
          "durationTicks": 192,
          "midi": 64,
          "name": "E4",
          "ticks": 201984,
          "time": 210.4,
          "velocity": 0.6771653543307087
        },
        {
          "duration": 0.20000000000001705,
          "durationTicks": 192,
          "midi": 69,
          "name": "A4",
          "ticks": 201984,
          "time": 210.4,
          "velocity": 0.6771653543307087
        },
        {
          "duration": 0.19999999999998863,
          "durationTicks": 192,
          "midi": 64,
          "name": "E4",
          "ticks": 202176,
          "time": 210.60000000000002,
          "velocity": 0.6771653543307087
        },
        {
          "duration": 0.19999999999998863,
          "durationTicks": 192,
          "midi": 69,
          "name": "A4",
          "ticks": 202176,
          "time": 210.60000000000002,
          "velocity": 0.6771653543307087
        },
        {
          "duration": 0.19999999999998863,
          "durationTicks": 192,
          "midi": 64,
          "name": "E4",
          "ticks": 202368,
          "time": 210.8,
          "velocity": 0.6771653543307087
        },
        {
          "duration": 0.19999999999998863,
          "durationTicks": 192,
          "midi": 69,
          "name": "A4",
          "ticks": 202368,
          "time": 210.8,
          "velocity": 0.6771653543307087
        },
        {
          "duration": 0.20000000000001705,
          "durationTicks": 192,
          "midi": 64,
          "name": "E4",
          "ticks": 202560,
          "time": 211,
          "velocity": 0.6771653543307087
        },
        {
          "duration": 0.20000000000001705,
          "durationTicks": 192,
          "midi": 69,
          "name": "A4",
          "ticks": 202560,
          "time": 211,
          "velocity": 0.6771653543307087
        },
        {
          "duration": 0.19999999999998863,
          "durationTicks": 192,
          "midi": 64,
          "name": "E4",
          "ticks": 203136,
          "time": 211.60000000000002,
          "velocity": 0.6771653543307087
        },
        {
          "duration": 0.19999999999998863,
          "durationTicks": 192,
          "midi": 68,
          "name": "G#4",
          "ticks": 203136,
          "time": 211.60000000000002,
          "velocity": 0.6771653543307087
        },
        {
          "duration": 0.19999999999998863,
          "durationTicks": 192,
          "midi": 64,
          "name": "E4",
          "ticks": 203328,
          "time": 211.8,
          "velocity": 0.6771653543307087
        },
        {
          "duration": 0.19999999999998863,
          "durationTicks": 192,
          "midi": 68,
          "name": "G#4",
          "ticks": 203328,
          "time": 211.8,
          "velocity": 0.6771653543307087
        },
        {
          "duration": 0.20000000000001705,
          "durationTicks": 192,
          "midi": 64,
          "name": "E4",
          "ticks": 203520,
          "time": 212,
          "velocity": 0.6771653543307087
        },
        {
          "duration": 0.20000000000001705,
          "durationTicks": 192,
          "midi": 68,
          "name": "G#4",
          "ticks": 203520,
          "time": 212,
          "velocity": 0.6771653543307087
        },
        {
          "duration": 0.19999999999998863,
          "durationTicks": 192,
          "midi": 64,
          "name": "E4",
          "ticks": 203712,
          "time": 212.20000000000002,
          "velocity": 0.6771653543307087
        },
        {
          "duration": 0.19999999999998863,
          "durationTicks": 192,
          "midi": 68,
          "name": "G#4",
          "ticks": 203712,
          "time": 212.20000000000002,
          "velocity": 0.6771653543307087
        },
        {
          "duration": 0.20000000000001705,
          "durationTicks": 192,
          "midi": 64,
          "name": "E4",
          "ticks": 203904,
          "time": 212.4,
          "velocity": 0.6771653543307087
        },
        {
          "duration": 0.20000000000001705,
          "durationTicks": 192,
          "midi": 68,
          "name": "G#4",
          "ticks": 203904,
          "time": 212.4,
          "velocity": 0.6771653543307087
        },
        {
          "duration": 0.19999999999998863,
          "durationTicks": 192,
          "midi": 64,
          "name": "E4",
          "ticks": 204096,
          "time": 212.60000000000002,
          "velocity": 0.6771653543307087
        },
        {
          "duration": 0.19999999999998863,
          "durationTicks": 192,
          "midi": 68,
          "name": "G#4",
          "ticks": 204096,
          "time": 212.60000000000002,
          "velocity": 0.6771653543307087
        },
        {
          "duration": 0.6999999999999886,
          "durationTicks": 672,
          "midi": 72,
          "name": "C5",
          "ticks": 204288,
          "time": 212.8,
          "velocity": 0.6771653543307087
        },
        {
          "duration": 0.19999999999998863,
          "durationTicks": 192,
          "midi": 76,
          "name": "E5",
          "ticks": 205056,
          "time": 213.60000000000002,
          "velocity": 0.6771653543307087
        },
        {
          "duration": 0.19999999999998863,
          "durationTicks": 192,
          "midi": 81,
          "name": "A5",
          "ticks": 205056,
          "time": 213.60000000000002,
          "velocity": 0.6771653543307087
        },
        {
          "duration": 0.19999999999998863,
          "durationTicks": 192,
          "midi": 76,
          "name": "E5",
          "ticks": 205248,
          "time": 213.8,
          "velocity": 0.6771653543307087
        },
        {
          "duration": 0.19999999999998863,
          "durationTicks": 192,
          "midi": 81,
          "name": "A5",
          "ticks": 205248,
          "time": 213.8,
          "velocity": 0.6771653543307087
        },
        {
          "duration": 0.20000000000001705,
          "durationTicks": 192,
          "midi": 76,
          "name": "E5",
          "ticks": 205440,
          "time": 214,
          "velocity": 0.6771653543307087
        },
        {
          "duration": 0.20000000000001705,
          "durationTicks": 192,
          "midi": 81,
          "name": "A5",
          "ticks": 205440,
          "time": 214,
          "velocity": 0.6771653543307087
        },
        {
          "duration": 0.19999999999998863,
          "durationTicks": 192,
          "midi": 76,
          "name": "E5",
          "ticks": 205632,
          "time": 214.20000000000002,
          "velocity": 0.6771653543307087
        },
        {
          "duration": 0.19999999999998863,
          "durationTicks": 192,
          "midi": 81,
          "name": "A5",
          "ticks": 205632,
          "time": 214.20000000000002,
          "velocity": 0.6771653543307087
        },
        {
          "duration": 0.19999999999998863,
          "durationTicks": 192,
          "midi": 76,
          "name": "E5",
          "ticks": 206208,
          "time": 214.8,
          "velocity": 0.6771653543307087
        },
        {
          "duration": 0.19999999999998863,
          "durationTicks": 192,
          "midi": 80,
          "name": "G#5",
          "ticks": 206208,
          "time": 214.8,
          "velocity": 0.6771653543307087
        },
        {
          "duration": 0.20000000000001705,
          "durationTicks": 192,
          "midi": 76,
          "name": "E5",
          "ticks": 206400,
          "time": 215,
          "velocity": 0.6771653543307087
        },
        {
          "duration": 0.20000000000001705,
          "durationTicks": 192,
          "midi": 80,
          "name": "G#5",
          "ticks": 206400,
          "time": 215,
          "velocity": 0.6771653543307087
        },
        {
          "duration": 0.6999999999999886,
          "durationTicks": 672,
          "midi": 76,
          "name": "E5",
          "ticks": 206592,
          "time": 215.20000000000002,
          "velocity": 0.6771653543307087
        },
        {
          "duration": 0.6999999999999886,
          "durationTicks": 672,
          "midi": 80,
          "name": "G#5",
          "ticks": 206592,
          "time": 215.20000000000002,
          "velocity": 0.6771653543307087
        },
        {
          "duration": 1.5,
          "durationTicks": 1440,
          "midi": 64,
          "name": "E4",
          "ticks": 207360,
          "time": 216,
          "velocity": 0.6771653543307087
        }
      ],
      "endOfTrackTicks": 208800
    },
    {
      "channel": 5,
      "controlChanges": {},
      "pitchBends": [],
      "instrument": {
        "family": "synth effects",
        "number": 99,
        "name": "fx 4 (atmosphere)"
      },
      "name": "Scifi",
      "notes": [
        {
          "duration": 0.5,
          "durationTicks": 480,
          "midi": 72,
          "name": "C5",
          "ticks": 21504,
          "time": 22.400000000000002,
          "velocity": 0.6771653543307087
        },
        {
          "duration": 0.20000000000000284,
          "durationTicks": 192,
          "midi": 64,
          "name": "E4",
          "ticks": 22080,
          "time": 23,
          "velocity": 0.6771653543307087
        },
        {
          "duration": 0.1999999999999993,
          "durationTicks": 192,
          "midi": 72,
          "name": "C5",
          "ticks": 22272,
          "time": 23.200000000000003,
          "velocity": 0.6771653543307087
        },
        {
          "duration": 0.1999999999999993,
          "durationTicks": 192,
          "midi": 69,
          "name": "A4",
          "ticks": 22464,
          "time": 23.400000000000002,
          "velocity": 0.6771653543307087
        },
        {
          "duration": 0.3000000000000007,
          "durationTicks": 288,
          "midi": 64,
          "name": "E4",
          "ticks": 22656,
          "time": 23.6,
          "velocity": 0.6771653543307087
        },
        {
          "duration": 0.5,
          "durationTicks": 480,
          "midi": 71,
          "name": "B4",
          "ticks": 23040,
          "time": 24,
          "velocity": 0.6771653543307087
        },
        {
          "duration": 0.1999999999999993,
          "durationTicks": 192,
          "midi": 64,
          "name": "E4",
          "ticks": 23616,
          "time": 24.6,
          "velocity": 0.6771653543307087
        },
        {
          "duration": 0.1999999999999993,
          "durationTicks": 192,
          "midi": 71,
          "name": "B4",
          "ticks": 23808,
          "time": 24.8,
          "velocity": 0.6771653543307087
        },
        {
          "duration": 0.20000000000000284,
          "durationTicks": 192,
          "midi": 68,
          "name": "G#4",
          "ticks": 24000,
          "time": 25,
          "velocity": 0.6771653543307087
        },
        {
          "duration": 0.29999999999999716,
          "durationTicks": 288,
          "midi": 64,
          "name": "E4",
          "ticks": 24192,
          "time": 25.200000000000003,
          "velocity": 0.6771653543307087
        },
        {
          "duration": 0.5,
          "durationTicks": 480,
          "midi": 69,
          "name": "A4",
          "ticks": 24576,
          "time": 25.6,
          "velocity": 0.6771653543307087
        },
        {
          "duration": 0.1999999999999993,
          "durationTicks": 192,
          "midi": 64,
          "name": "E4",
          "ticks": 25152,
          "time": 26.200000000000003,
          "velocity": 0.6771653543307087
        },
        {
          "duration": 0.1999999999999993,
          "durationTicks": 192,
          "midi": 69,
          "name": "A4",
          "ticks": 25344,
          "time": 26.400000000000002,
          "velocity": 0.6771653543307087
        },
        {
          "duration": 0.1999999999999993,
          "durationTicks": 192,
          "midi": 64,
          "name": "E4",
          "ticks": 25536,
          "time": 26.6,
          "velocity": 0.6771653543307087
        },
        {
          "duration": 0.3000000000000007,
          "durationTicks": 288,
          "midi": 69,
          "name": "A4",
          "ticks": 25728,
          "time": 26.8,
          "velocity": 0.6771653543307087
        },
        {
          "duration": 0.29999999999999716,
          "durationTicks": 288,
          "midi": 68,
          "name": "G#4",
          "ticks": 26112,
          "time": 27.200000000000003,
          "velocity": 0.6771653543307087
        },
        {
          "duration": 0.1999999999999993,
          "durationTicks": 192,
          "midi": 64,
          "name": "E4",
          "ticks": 26496,
          "time": 27.6,
          "velocity": 0.6771653543307087
        },
        {
          "duration": 0.1999999999999993,
          "durationTicks": 192,
          "midi": 59,
          "name": "B3",
          "ticks": 26688,
          "time": 27.8,
          "velocity": 0.6771653543307087
        },
        {
          "duration": 0.20000000000000284,
          "durationTicks": 192,
          "midi": 71,
          "name": "B4",
          "ticks": 26880,
          "time": 28,
          "velocity": 0.6771653543307087
        },
        {
          "duration": 0.1999999999999993,
          "durationTicks": 192,
          "midi": 68,
          "name": "G#4",
          "ticks": 27072,
          "time": 28.200000000000003,
          "velocity": 0.6771653543307087
        },
        {
          "duration": 0.3000000000000007,
          "durationTicks": 288,
          "midi": 64,
          "name": "E4",
          "ticks": 27264,
          "time": 28.400000000000002,
          "velocity": 0.6771653543307087
        },
        {
          "duration": 0.3000000000000007,
          "durationTicks": 288,
          "midi": 71,
          "name": "B4",
          "ticks": 27648,
          "time": 28.8,
          "velocity": 0.7874015748031497
        },
        {
          "duration": 0.1999999999999993,
          "durationTicks": 192,
          "midi": 68,
          "name": "G#4",
          "ticks": 28032,
          "time": 29.200000000000003,
          "velocity": 0.6771653543307087
        },
        {
          "duration": 0.1999999999999993,
          "durationTicks": 192,
          "midi": 69,
          "name": "A4",
          "ticks": 28224,
          "time": 29.400000000000002,
          "velocity": 0.6771653543307087
        },
        {
          "duration": 0.3000000000000007,
          "durationTicks": 288,
          "midi": 71,
          "name": "B4",
          "ticks": 28416,
          "time": 29.6,
          "velocity": 0.7874015748031497
        },
        {
          "duration": 0.20000000000000284,
          "durationTicks": 192,
          "midi": 69,
          "name": "A4",
          "ticks": 28800,
          "time": 30,
          "velocity": 0.6771653543307087
        },
        {
          "duration": 0.1999999999999993,
          "durationTicks": 192,
          "midi": 68,
          "name": "G#4",
          "ticks": 28992,
          "time": 30.200000000000003,
          "velocity": 0.6771653543307087
        },
        {
          "duration": 0.3000000000000007,
          "durationTicks": 288,
          "midi": 64,
          "name": "E4",
          "ticks": 29184,
          "time": 30.400000000000002,
          "velocity": 0.6771653543307087
        },
        {
          "duration": 0.1999999999999993,
          "durationTicks": 192,
          "midi": 64,
          "name": "E4",
          "ticks": 29568,
          "time": 30.8,
          "velocity": 0.6771653543307087
        },
        {
          "duration": 0.20000000000000284,
          "durationTicks": 192,
          "midi": 69,
          "name": "A4",
          "ticks": 29760,
          "time": 31,
          "velocity": 0.6771653543307087
        },
        {
          "duration": 0.29999999999999716,
          "durationTicks": 288,
          "midi": 72,
          "name": "C5",
          "ticks": 29952,
          "time": 31.200000000000003,
          "velocity": 0.6771653543307087
        },
        {
          "duration": 0.1999999999999993,
          "durationTicks": 192,
          "midi": 71,
          "name": "B4",
          "ticks": 30336,
          "time": 31.6,
          "velocity": 0.6771653543307087
        },
        {
          "duration": 0.1999999999999993,
          "durationTicks": 192,
          "midi": 69,
          "name": "A4",
          "ticks": 30528,
          "time": 31.8,
          "velocity": 0.6771653543307087
        },
        {
          "duration": 0.20000000000000284,
          "durationTicks": 192,
          "midi": 68,
          "name": "G#4",
          "ticks": 30720,
          "time": 32,
          "velocity": 0.6771653543307087
        },
        {
          "duration": 0.19999999999999574,
          "durationTicks": 192,
          "midi": 64,
          "name": "E4",
          "ticks": 30912,
          "time": 32.2,
          "velocity": 0.6771653543307087
        },
        {
          "duration": 0.20000000000000284,
          "durationTicks": 192,
          "midi": 68,
          "name": "G#4",
          "ticks": 31104,
          "time": 32.4,
          "velocity": 0.6771653543307087
        },
        {
          "duration": 0.10000000000000142,
          "durationTicks": 96,
          "midi": 69,
          "name": "A4",
          "ticks": 31296,
          "time": 32.6,
          "velocity": 0.6771653543307087
        },
        {
          "duration": 0.29999999999999716,
          "durationTicks": 288,
          "midi": 71,
          "name": "B4",
          "ticks": 31488,
          "time": 32.800000000000004,
          "velocity": 0.6771653543307087
        },
        {
          "duration": 0.29999999999999716,
          "durationTicks": 288,
          "midi": 72,
          "name": "C5",
          "ticks": 31872,
          "time": 33.2,
          "velocity": 0.6771653543307087
        },
        {
          "duration": 0.29999999999999716,
          "durationTicks": 288,
          "midi": 69,
          "name": "A4",
          "ticks": 32256,
          "time": 33.6,
          "velocity": 0.6771653543307087
        },
        {
          "duration": 0.30000000000000426,
          "durationTicks": 288,
          "midi": 64,
          "name": "E4",
          "ticks": 32640,
          "time": 34,
          "velocity": 0.6771653543307087
        },
        {
          "duration": 0.7000000000000028,
          "durationTicks": 672,
          "midi": 64,
          "name": "E4",
          "ticks": 33024,
          "time": 34.4,
          "velocity": 0.6771653543307087
        },
        {
          "duration": 0.4000000000000057,
          "durationTicks": 384,
          "midi": 65,
          "name": "F4",
          "ticks": 33984,
          "time": 35.4,
          "velocity": 0.6771653543307087
        },
        {
          "duration": 0.19999999999999574,
          "durationTicks": 192,
          "midi": 69,
          "name": "A4",
          "ticks": 34368,
          "time": 35.800000000000004,
          "velocity": 0.6771653543307087
        },
        {
          "duration": 0.20000000000000284,
          "durationTicks": 192,
          "midi": 72,
          "name": "C5",
          "ticks": 34560,
          "time": 36,
          "velocity": 0.6771653543307087
        },
        {
          "duration": 0.10000000000000142,
          "durationTicks": 96,
          "midi": 72,
          "name": "C5",
          "ticks": 34752,
          "time": 36.2,
          "velocity": 0.6771653543307087
        },
        {
          "duration": 0.09999999999999432,
          "durationTicks": 96,
          "midi": 72,
          "name": "C5",
          "ticks": 34848,
          "time": 36.300000000000004,
          "velocity": 0.6771653543307087
        },
        {
          "duration": 0.20000000000000284,
          "durationTicks": 192,
          "midi": 71,
          "name": "B4",
          "ticks": 34944,
          "time": 36.4,
          "velocity": 0.6771653543307087
        },
        {
          "duration": 0.20000000000000284,
          "durationTicks": 192,
          "midi": 69,
          "name": "A4",
          "ticks": 35136,
          "time": 36.6,
          "velocity": 0.6771653543307087
        },
        {
          "duration": 0.5,
          "durationTicks": 480,
          "midi": 67,
          "name": "G4",
          "ticks": 35328,
          "time": 36.800000000000004,
          "velocity": 0.6771653543307087
        },
        {
          "duration": 0.20000000000000284,
          "durationTicks": 192,
          "midi": 64,
          "name": "E4",
          "ticks": 35904,
          "time": 37.4,
          "velocity": 0.6771653543307087
        },
        {
          "duration": 0.20000000000000284,
          "durationTicks": 192,
          "midi": 67,
          "name": "G4",
          "ticks": 36096,
          "time": 37.6,
          "velocity": 0.6771653543307087
        },
        {
          "duration": 0.09999999999999432,
          "durationTicks": 96,
          "midi": 69,
          "name": "A4",
          "ticks": 36288,
          "time": 37.800000000000004,
          "velocity": 0.6771653543307087
        },
        {
          "duration": 0.10000000000000142,
          "durationTicks": 96,
          "midi": 67,
          "name": "G4",
          "ticks": 36384,
          "time": 37.9,
          "velocity": 0.6771653543307087
        },
        {
          "duration": 0.20000000000000284,
          "durationTicks": 192,
          "midi": 65,
          "name": "F4",
          "ticks": 36480,
          "time": 38,
          "velocity": 0.6771653543307087
        },
        {
          "duration": 0.20000000000000284,
          "durationTicks": 192,
          "midi": 64,
          "name": "E4",
          "ticks": 36672,
          "time": 38.2,
          "velocity": 0.6771653543307087
        },
        {
          "duration": 0.19999999999999574,
          "durationTicks": 192,
          "midi": 80,
          "name": "G#5",
          "ticks": 36864,
          "time": 38.400000000000006,
          "velocity": 0.6771653543307087
        },
        {
          "duration": 0.20000000000000284,
          "durationTicks": 192,
          "midi": 76,
          "name": "E5",
          "ticks": 37056,
          "time": 38.6,
          "velocity": 0.6771653543307087
        },
        {
          "duration": 0.19999999999999574,
          "durationTicks": 192,
          "midi": 80,
          "name": "G#5",
          "ticks": 37248,
          "time": 38.800000000000004,
          "velocity": 0.6771653543307087
        },
        {
          "duration": 0.20000000000000284,
          "durationTicks": 192,
          "midi": 81,
          "name": "A5",
          "ticks": 37440,
          "time": 39,
          "velocity": 0.6771653543307087
        },
        {
          "duration": 0.20000000000000284,
          "durationTicks": 192,
          "midi": 83,
          "name": "B5",
          "ticks": 37632,
          "time": 39.2,
          "velocity": 0.6771653543307087
        },
        {
          "duration": 0.19999999999999574,
          "durationTicks": 192,
          "midi": 80,
          "name": "G#5",
          "ticks": 37824,
          "time": 39.400000000000006,
          "velocity": 0.6771653543307087
        },
        {
          "duration": 0.20000000000000284,
          "durationTicks": 192,
          "midi": 84,
          "name": "C6",
          "ticks": 38016,
          "time": 39.6,
          "velocity": 0.6771653543307087
        },
        {
          "duration": 0.19999999999999574,
          "durationTicks": 192,
          "midi": 80,
          "name": "G#5",
          "ticks": 38208,
          "time": 39.800000000000004,
          "velocity": 0.6771653543307087
        },
        {
          "duration": 0.20000000000000284,
          "durationTicks": 192,
          "midi": 81,
          "name": "A5",
          "ticks": 38400,
          "time": 40,
          "velocity": 0.6771653543307087
        },
        {
          "duration": 0.20000000000000284,
          "durationTicks": 192,
          "midi": 76,
          "name": "E5",
          "ticks": 38592,
          "time": 40.2,
          "velocity": 0.6771653543307087
        },
        {
          "duration": 0.29999999999999716,
          "durationTicks": 288,
          "midi": 76,
          "name": "E5",
          "ticks": 38784,
          "time": 40.400000000000006,
          "velocity": 0.6771653543307087
        },
        {
          "duration": 0.29999999999999716,
          "durationTicks": 288,
          "midi": 76,
          "name": "E5",
          "ticks": 39168,
          "time": 40.800000000000004,
          "velocity": 0.6771653543307087
        },
        {
          "duration": 0.30000000000000426,
          "durationTicks": 288,
          "midi": 71,
          "name": "B4",
          "ticks": 39936,
          "time": 41.6,
          "velocity": 0.7874015748031497
        },
        {
          "duration": 0.20000000000000284,
          "durationTicks": 192,
          "midi": 68,
          "name": "G#4",
          "ticks": 40320,
          "time": 42,
          "velocity": 0.6771653543307087
        },
        {
          "duration": 0.20000000000000284,
          "durationTicks": 192,
          "midi": 69,
          "name": "A4",
          "ticks": 40512,
          "time": 42.2,
          "velocity": 0.6771653543307087
        },
        {
          "duration": 0.29999999999999716,
          "durationTicks": 288,
          "midi": 71,
          "name": "B4",
          "ticks": 40704,
          "time": 42.400000000000006,
          "velocity": 0.7874015748031497
        },
        {
          "duration": 0.19999999999999574,
          "durationTicks": 192,
          "midi": 69,
          "name": "A4",
          "ticks": 41088,
          "time": 42.800000000000004,
          "velocity": 0.6771653543307087
        },
        {
          "duration": 0.20000000000000284,
          "durationTicks": 192,
          "midi": 68,
          "name": "G#4",
          "ticks": 41280,
          "time": 43,
          "velocity": 0.6771653543307087
        },
        {
          "duration": 0.29999999999999716,
          "durationTicks": 288,
          "midi": 64,
          "name": "E4",
          "ticks": 41472,
          "time": 43.2,
          "velocity": 0.7874015748031497
        },
        {
          "duration": 0.20000000000000284,
          "durationTicks": 192,
          "midi": 64,
          "name": "E4",
          "ticks": 41856,
          "time": 43.6,
          "velocity": 0.6771653543307087
        },
        {
          "duration": 0.19999999999999574,
          "durationTicks": 192,
          "midi": 69,
          "name": "A4",
          "ticks": 42048,
          "time": 43.800000000000004,
          "velocity": 0.6771653543307087
        },
        {
          "duration": 0.30000000000000426,
          "durationTicks": 288,
          "midi": 72,
          "name": "C5",
          "ticks": 42240,
          "time": 44,
          "velocity": 0.6771653543307087
        },
        {
          "duration": 0.19999999999999574,
          "durationTicks": 192,
          "midi": 71,
          "name": "B4",
          "ticks": 42624,
          "time": 44.400000000000006,
          "velocity": 0.6771653543307087
        },
        {
          "duration": 0.20000000000000284,
          "durationTicks": 192,
          "midi": 69,
          "name": "A4",
          "ticks": 42816,
          "time": 44.6,
          "velocity": 0.6771653543307087
        },
        {
          "duration": 0.19999999999999574,
          "durationTicks": 192,
          "midi": 68,
          "name": "G#4",
          "ticks": 43008,
          "time": 44.800000000000004,
          "velocity": 0.6771653543307087
        },
        {
          "duration": 0.20000000000000284,
          "durationTicks": 192,
          "midi": 64,
          "name": "E4",
          "ticks": 43200,
          "time": 45,
          "velocity": 0.6771653543307087
        },
        {
          "duration": 0.20000000000000284,
          "durationTicks": 192,
          "midi": 68,
          "name": "G#4",
          "ticks": 43392,
          "time": 45.2,
          "velocity": 0.6771653543307087
        },
        {
          "duration": 0.19999999999999574,
          "durationTicks": 192,
          "midi": 69,
          "name": "A4",
          "ticks": 43584,
          "time": 45.400000000000006,
          "velocity": 0.6771653543307087
        },
        {
          "duration": 0.30000000000000426,
          "durationTicks": 288,
          "midi": 71,
          "name": "B4",
          "ticks": 43776,
          "time": 45.6,
          "velocity": 0.6771653543307087
        },
        {
          "duration": 0.30000000000000426,
          "durationTicks": 288,
          "midi": 72,
          "name": "C5",
          "ticks": 44160,
          "time": 46,
          "velocity": 0.6771653543307087
        },
        {
          "duration": 0.29999999999999716,
          "durationTicks": 288,
          "midi": 69,
          "name": "A4",
          "ticks": 44544,
          "time": 46.400000000000006,
          "velocity": 0.6771653543307087
        },
        {
          "duration": 0.29999999999999716,
          "durationTicks": 288,
          "midi": 64,
          "name": "E4",
          "ticks": 44928,
          "time": 46.800000000000004,
          "velocity": 0.6771653543307087
        },
        {
          "duration": 0.7000000000000028,
          "durationTicks": 672,
          "midi": 64,
          "name": "E4",
          "ticks": 45312,
          "time": 47.2,
          "velocity": 0.6771653543307087
        },
        {
          "duration": 0.3999999999999986,
          "durationTicks": 384,
          "midi": 65,
          "name": "F4",
          "ticks": 46272,
          "time": 48.2,
          "velocity": 0.6771653543307087
        },
        {
          "duration": 0.20000000000000284,
          "durationTicks": 192,
          "midi": 69,
          "name": "A4",
          "ticks": 46656,
          "time": 48.6,
          "velocity": 0.6771653543307087
        },
        {
          "duration": 0.19999999999999574,
          "durationTicks": 192,
          "midi": 72,
          "name": "C5",
          "ticks": 46848,
          "time": 48.800000000000004,
          "velocity": 0.6771653543307087
        },
        {
          "duration": 0.10000000000000142,
          "durationTicks": 96,
          "midi": 72,
          "name": "C5",
          "ticks": 47040,
          "time": 49,
          "velocity": 0.6771653543307087
        },
        {
          "duration": 0.10000000000000142,
          "durationTicks": 96,
          "midi": 72,
          "name": "C5",
          "ticks": 47136,
          "time": 49.1,
          "velocity": 0.6771653543307087
        },
        {
          "duration": 0.20000000000000284,
          "durationTicks": 192,
          "midi": 71,
          "name": "B4",
          "ticks": 47232,
          "time": 49.2,
          "velocity": 0.6771653543307087
        },
        {
          "duration": 0.19999999999999574,
          "durationTicks": 192,
          "midi": 69,
          "name": "A4",
          "ticks": 47424,
          "time": 49.400000000000006,
          "velocity": 0.6771653543307087
        },
        {
          "duration": 0.5,
          "durationTicks": 480,
          "midi": 67,
          "name": "G4",
          "ticks": 47616,
          "time": 49.6,
          "velocity": 0.6771653543307087
        },
        {
          "duration": 0.20000000000000284,
          "durationTicks": 192,
          "midi": 64,
          "name": "E4",
          "ticks": 48192,
          "time": 50.2,
          "velocity": 0.6771653543307087
        },
        {
          "duration": 0.19999999999999574,
          "durationTicks": 192,
          "midi": 67,
          "name": "G4",
          "ticks": 48384,
          "time": 50.400000000000006,
          "velocity": 0.6771653543307087
        },
        {
          "duration": 0.10000000000000142,
          "durationTicks": 96,
          "midi": 69,
          "name": "A4",
          "ticks": 48576,
          "time": 50.6,
          "velocity": 0.6771653543307087
        },
        {
          "duration": 0.10000000000000142,
          "durationTicks": 96,
          "midi": 67,
          "name": "G4",
          "ticks": 48672,
          "time": 50.7,
          "velocity": 0.6771653543307087
        },
        {
          "duration": 0.19999999999999574,
          "durationTicks": 192,
          "midi": 65,
          "name": "F4",
          "ticks": 48768,
          "time": 50.800000000000004,
          "velocity": 0.6771653543307087
        },
        {
          "duration": 0.20000000000000284,
          "durationTicks": 192,
          "midi": 64,
          "name": "E4",
          "ticks": 48960,
          "time": 51,
          "velocity": 0.6771653543307087
        },
        {
          "duration": 0.20000000000000284,
          "durationTicks": 192,
          "midi": 68,
          "name": "G#4",
          "ticks": 49152,
          "time": 51.2,
          "velocity": 0.6771653543307087
        },
        {
          "duration": 0.19999999999999574,
          "durationTicks": 192,
          "midi": 64,
          "name": "E4",
          "ticks": 49344,
          "time": 51.400000000000006,
          "velocity": 0.6771653543307087
        },
        {
          "duration": 0.20000000000000284,
          "durationTicks": 192,
          "midi": 68,
          "name": "G#4",
          "ticks": 49536,
          "time": 51.6,
          "velocity": 0.6771653543307087
        },
        {
          "duration": 0.19999999999999574,
          "durationTicks": 192,
          "midi": 69,
          "name": "A4",
          "ticks": 49728,
          "time": 51.800000000000004,
          "velocity": 0.6771653543307087
        },
        {
          "duration": 0.20000000000000284,
          "durationTicks": 192,
          "midi": 71,
          "name": "B4",
          "ticks": 49920,
          "time": 52,
          "velocity": 0.6771653543307087
        },
        {
          "duration": 0.20000000000000284,
          "durationTicks": 192,
          "midi": 68,
          "name": "G#4",
          "ticks": 50112,
          "time": 52.2,
          "velocity": 0.6771653543307087
        },
        {
          "duration": 0.19999999999999574,
          "durationTicks": 192,
          "midi": 72,
          "name": "C5",
          "ticks": 50304,
          "time": 52.400000000000006,
          "velocity": 0.6771653543307087
        },
        {
          "duration": 0.20000000000000284,
          "durationTicks": 192,
          "midi": 68,
          "name": "G#4",
          "ticks": 50496,
          "time": 52.6,
          "velocity": 0.6771653543307087
        },
        {
          "duration": 0.19999999999999574,
          "durationTicks": 192,
          "midi": 69,
          "name": "A4",
          "ticks": 50688,
          "time": 52.800000000000004,
          "velocity": 0.6771653543307087
        },
        {
          "duration": 0.20000000000000284,
          "durationTicks": 192,
          "midi": 64,
          "name": "E4",
          "ticks": 50880,
          "time": 53,
          "velocity": 0.6771653543307087
        },
        {
          "duration": 0.29999999999999716,
          "durationTicks": 288,
          "midi": 64,
          "name": "E4",
          "ticks": 51072,
          "time": 53.2,
          "velocity": 0.6771653543307087
        },
        {
          "duration": 0.30000000000000426,
          "durationTicks": 288,
          "midi": 64,
          "name": "E4",
          "ticks": 51456,
          "time": 53.6,
          "velocity": 0.6771653543307087
        },
        {
          "duration": 0.6999999999999957,
          "durationTicks": 672,
          "midi": 69,
          "name": "A4",
          "ticks": 52224,
          "time": 54.400000000000006,
          "velocity": 0.6771653543307087
        },
        {
          "duration": 0.20000000000000284,
          "durationTicks": 192,
          "midi": 64,
          "name": "E4",
          "ticks": 52992,
          "time": 55.2,
          "velocity": 0.6771653543307087
        },
        {
          "duration": 0.20000000000000284,
          "durationTicks": 192,
          "midi": 69,
          "name": "A4",
          "ticks": 52992,
          "time": 55.2,
          "velocity": 0.6771653543307087
        },
        {
          "duration": 0.19999999999999574,
          "durationTicks": 192,
          "midi": 64,
          "name": "E4",
          "ticks": 53184,
          "time": 55.400000000000006,
          "velocity": 0.6771653543307087
        },
        {
          "duration": 0.19999999999999574,
          "durationTicks": 192,
          "midi": 69,
          "name": "A4",
          "ticks": 53184,
          "time": 55.400000000000006,
          "velocity": 0.6771653543307087
        },
        {
          "duration": 0.20000000000000284,
          "durationTicks": 192,
          "midi": 64,
          "name": "E4",
          "ticks": 53376,
          "time": 55.6,
          "velocity": 0.6771653543307087
        },
        {
          "duration": 0.20000000000000284,
          "durationTicks": 192,
          "midi": 69,
          "name": "A4",
          "ticks": 53376,
          "time": 55.6,
          "velocity": 0.6771653543307087
        },
        {
          "duration": 0.19999999999999574,
          "durationTicks": 192,
          "midi": 64,
          "name": "E4",
          "ticks": 53568,
          "time": 55.800000000000004,
          "velocity": 0.6771653543307087
        },
        {
          "duration": 0.19999999999999574,
          "durationTicks": 192,
          "midi": 69,
          "name": "A4",
          "ticks": 53568,
          "time": 55.800000000000004,
          "velocity": 0.6771653543307087
        },
        {
          "duration": 0.20000000000000284,
          "durationTicks": 192,
          "midi": 64,
          "name": "E4",
          "ticks": 53760,
          "time": 56,
          "velocity": 0.6771653543307087
        },
        {
          "duration": 0.20000000000000284,
          "durationTicks": 192,
          "midi": 68,
          "name": "G#4",
          "ticks": 53760,
          "time": 56,
          "velocity": 0.6771653543307087
        },
        {
          "duration": 0.20000000000000284,
          "durationTicks": 192,
          "midi": 64,
          "name": "E4",
          "ticks": 53952,
          "time": 56.2,
          "velocity": 0.6771653543307087
        },
        {
          "duration": 0.20000000000000284,
          "durationTicks": 192,
          "midi": 68,
          "name": "G#4",
          "ticks": 53952,
          "time": 56.2,
          "velocity": 0.6771653543307087
        },
        {
          "duration": 0.19999999999999574,
          "durationTicks": 192,
          "midi": 64,
          "name": "E4",
          "ticks": 54144,
          "time": 56.400000000000006,
          "velocity": 0.6771653543307087
        },
        {
          "duration": 0.19999999999999574,
          "durationTicks": 192,
          "midi": 68,
          "name": "G#4",
          "ticks": 54144,
          "time": 56.400000000000006,
          "velocity": 0.6771653543307087
        },
        {
          "duration": 0.20000000000000284,
          "durationTicks": 192,
          "midi": 64,
          "name": "E4",
          "ticks": 54336,
          "time": 56.6,
          "velocity": 0.6771653543307087
        },
        {
          "duration": 0.20000000000000284,
          "durationTicks": 192,
          "midi": 68,
          "name": "G#4",
          "ticks": 54336,
          "time": 56.6,
          "velocity": 0.6771653543307087
        },
        {
          "duration": 0.6999999999999957,
          "durationTicks": 672,
          "midi": 64,
          "name": "E4",
          "ticks": 54528,
          "time": 56.800000000000004,
          "velocity": 0.6771653543307087
        },
        {
          "duration": 0.6999999999999957,
          "durationTicks": 672,
          "midi": 68,
          "name": "G#4",
          "ticks": 54528,
          "time": 56.800000000000004,
          "velocity": 0.6771653543307087
        },
        {
          "duration": 0.7000000000000028,
          "durationTicks": 672,
          "midi": 69,
          "name": "A4",
          "ticks": 55296,
          "time": 57.6,
          "velocity": 0.6771653543307087
        },
        {
          "duration": 0.19999999999999574,
          "durationTicks": 192,
          "midi": 64,
          "name": "E4",
          "ticks": 56064,
          "time": 58.400000000000006,
          "velocity": 0.6771653543307087
        },
        {
          "duration": 0.19999999999999574,
          "durationTicks": 192,
          "midi": 69,
          "name": "A4",
          "ticks": 56064,
          "time": 58.400000000000006,
          "velocity": 0.6771653543307087
        },
        {
          "duration": 0.20000000000000284,
          "durationTicks": 192,
          "midi": 64,
          "name": "E4",
          "ticks": 56256,
          "time": 58.6,
          "velocity": 0.6771653543307087
        },
        {
          "duration": 0.20000000000000284,
          "durationTicks": 192,
          "midi": 69,
          "name": "A4",
          "ticks": 56256,
          "time": 58.6,
          "velocity": 0.6771653543307087
        },
        {
          "duration": 0.19999999999999574,
          "durationTicks": 192,
          "midi": 64,
          "name": "E4",
          "ticks": 56448,
          "time": 58.800000000000004,
          "velocity": 0.6771653543307087
        },
        {
          "duration": 0.19999999999999574,
          "durationTicks": 192,
          "midi": 69,
          "name": "A4",
          "ticks": 56448,
          "time": 58.800000000000004,
          "velocity": 0.6771653543307087
        },
        {
          "duration": 0.20000000000000284,
          "durationTicks": 192,
          "midi": 64,
          "name": "E4",
          "ticks": 56640,
          "time": 59,
          "velocity": 0.6771653543307087
        },
        {
          "duration": 0.20000000000000284,
          "durationTicks": 192,
          "midi": 69,
          "name": "A4",
          "ticks": 56640,
          "time": 59,
          "velocity": 0.6771653543307087
        },
        {
          "duration": 0.20000000000000284,
          "durationTicks": 192,
          "midi": 64,
          "name": "E4",
          "ticks": 56832,
          "time": 59.2,
          "velocity": 0.6771653543307087
        },
        {
          "duration": 0.20000000000000284,
          "durationTicks": 192,
          "midi": 68,
          "name": "G#4",
          "ticks": 56832,
          "time": 59.2,
          "velocity": 0.6771653543307087
        },
        {
          "duration": 0.19999999999999574,
          "durationTicks": 192,
          "midi": 64,
          "name": "E4",
          "ticks": 57024,
          "time": 59.400000000000006,
          "velocity": 0.6771653543307087
        },
        {
          "duration": 0.19999999999999574,
          "durationTicks": 192,
          "midi": 68,
          "name": "G#4",
          "ticks": 57024,
          "time": 59.400000000000006,
          "velocity": 0.6771653543307087
        },
        {
          "duration": 0.20000000000000284,
          "durationTicks": 192,
          "midi": 64,
          "name": "E4",
          "ticks": 57216,
          "time": 59.6,
          "velocity": 0.6771653543307087
        },
        {
          "duration": 0.20000000000000284,
          "durationTicks": 192,
          "midi": 68,
          "name": "G#4",
          "ticks": 57216,
          "time": 59.6,
          "velocity": 0.6771653543307087
        },
        {
          "duration": 0.19999999999999574,
          "durationTicks": 192,
          "midi": 64,
          "name": "E4",
          "ticks": 57408,
          "time": 59.800000000000004,
          "velocity": 0.6771653543307087
        },
        {
          "duration": 0.19999999999999574,
          "durationTicks": 192,
          "midi": 68,
          "name": "G#4",
          "ticks": 57408,
          "time": 59.800000000000004,
          "velocity": 0.6771653543307087
        },
        {
          "duration": 0.7000000000000028,
          "durationTicks": 672,
          "midi": 64,
          "name": "E4",
          "ticks": 57600,
          "time": 60,
          "velocity": 0.6771653543307087
        },
        {
          "duration": 0.7000000000000028,
          "durationTicks": 672,
          "midi": 68,
          "name": "G#4",
          "ticks": 57600,
          "time": 60,
          "velocity": 0.6771653543307087
        },
        {
          "duration": 0.6999999999999957,
          "durationTicks": 672,
          "midi": 60,
          "name": "C4",
          "ticks": 58368,
          "time": 60.800000000000004,
          "velocity": 0.6771653543307087
        },
        {
          "duration": 0.20000000000000284,
          "durationTicks": 192,
          "midi": 64,
          "name": "E4",
          "ticks": 59136,
          "time": 61.6,
          "velocity": 0.6771653543307087
        },
        {
          "duration": 0.20000000000000284,
          "durationTicks": 192,
          "midi": 69,
          "name": "A4",
          "ticks": 59136,
          "time": 61.6,
          "velocity": 0.6771653543307087
        },
        {
          "duration": 0.19999999999999574,
          "durationTicks": 192,
          "midi": 64,
          "name": "E4",
          "ticks": 59328,
          "time": 61.800000000000004,
          "velocity": 0.6771653543307087
        },
        {
          "duration": 0.19999999999999574,
          "durationTicks": 192,
          "midi": 69,
          "name": "A4",
          "ticks": 59328,
          "time": 61.800000000000004,
          "velocity": 0.6771653543307087
        },
        {
          "duration": 0.20000000000000284,
          "durationTicks": 192,
          "midi": 64,
          "name": "E4",
          "ticks": 59520,
          "time": 62,
          "velocity": 0.6771653543307087
        },
        {
          "duration": 0.20000000000000284,
          "durationTicks": 192,
          "midi": 69,
          "name": "A4",
          "ticks": 59520,
          "time": 62,
          "velocity": 0.6771653543307087
        },
        {
          "duration": 0.20000000000000284,
          "durationTicks": 192,
          "midi": 64,
          "name": "E4",
          "ticks": 59712,
          "time": 62.2,
          "velocity": 0.6771653543307087
        },
        {
          "duration": 0.20000000000000284,
          "durationTicks": 192,
          "midi": 69,
          "name": "A4",
          "ticks": 59712,
          "time": 62.2,
          "velocity": 0.6771653543307087
        },
        {
          "duration": 0.19999999999999574,
          "durationTicks": 192,
          "midi": 64,
          "name": "E4",
          "ticks": 60288,
          "time": 62.800000000000004,
          "velocity": 0.6771653543307087
        },
        {
          "duration": 0.19999999999999574,
          "durationTicks": 192,
          "midi": 68,
          "name": "G#4",
          "ticks": 60288,
          "time": 62.800000000000004,
          "velocity": 0.6771653543307087
        },
        {
          "duration": 0.20000000000000284,
          "durationTicks": 192,
          "midi": 64,
          "name": "E4",
          "ticks": 60480,
          "time": 63,
          "velocity": 0.6771653543307087
        },
        {
          "duration": 0.20000000000000284,
          "durationTicks": 192,
          "midi": 68,
          "name": "G#4",
          "ticks": 60480,
          "time": 63,
          "velocity": 0.6771653543307087
        },
        {
          "duration": 0.20000000000000284,
          "durationTicks": 192,
          "midi": 64,
          "name": "E4",
          "ticks": 60672,
          "time": 63.2,
          "velocity": 0.6771653543307087
        },
        {
          "duration": 0.20000000000000284,
          "durationTicks": 192,
          "midi": 68,
          "name": "G#4",
          "ticks": 60672,
          "time": 63.2,
          "velocity": 0.6771653543307087
        },
        {
          "duration": 0.19999999999999574,
          "durationTicks": 192,
          "midi": 64,
          "name": "E4",
          "ticks": 60864,
          "time": 63.400000000000006,
          "velocity": 0.6771653543307087
        },
        {
          "duration": 0.19999999999999574,
          "durationTicks": 192,
          "midi": 68,
          "name": "G#4",
          "ticks": 60864,
          "time": 63.400000000000006,
          "velocity": 0.6771653543307087
        },
        {
          "duration": 0.20000000000000284,
          "durationTicks": 192,
          "midi": 64,
          "name": "E4",
          "ticks": 61056,
          "time": 63.6,
          "velocity": 0.6771653543307087
        },
        {
          "duration": 0.20000000000000284,
          "durationTicks": 192,
          "midi": 68,
          "name": "G#4",
          "ticks": 61056,
          "time": 63.6,
          "velocity": 0.6771653543307087
        },
        {
          "duration": 0.19999999999999574,
          "durationTicks": 192,
          "midi": 64,
          "name": "E4",
          "ticks": 61248,
          "time": 63.800000000000004,
          "velocity": 0.6771653543307087
        },
        {
          "duration": 0.19999999999999574,
          "durationTicks": 192,
          "midi": 68,
          "name": "G#4",
          "ticks": 61248,
          "time": 63.800000000000004,
          "velocity": 0.6771653543307087
        },
        {
          "duration": 0.7000000000000028,
          "durationTicks": 672,
          "midi": 60,
          "name": "C4",
          "ticks": 61440,
          "time": 64,
          "velocity": 0.6771653543307087
        },
        {
          "duration": 0.20000000000000284,
          "durationTicks": 192,
          "midi": 64,
          "name": "E4",
          "ticks": 62208,
          "time": 64.8,
          "velocity": 0.6771653543307087
        },
        {
          "duration": 0.20000000000000284,
          "durationTicks": 192,
          "midi": 69,
          "name": "A4",
          "ticks": 62208,
          "time": 64.8,
          "velocity": 0.6771653543307087
        },
        {
          "duration": 0.20000000000000284,
          "durationTicks": 192,
          "midi": 64,
          "name": "E4",
          "ticks": 62400,
          "time": 65,
          "velocity": 0.6771653543307087
        },
        {
          "duration": 0.20000000000000284,
          "durationTicks": 192,
          "midi": 69,
          "name": "A4",
          "ticks": 62400,
          "time": 65,
          "velocity": 0.6771653543307087
        },
        {
          "duration": 0.20000000000000284,
          "durationTicks": 192,
          "midi": 64,
          "name": "E4",
          "ticks": 62592,
          "time": 65.2,
          "velocity": 0.6771653543307087
        },
        {
          "duration": 0.20000000000000284,
          "durationTicks": 192,
          "midi": 69,
          "name": "A4",
          "ticks": 62592,
          "time": 65.2,
          "velocity": 0.6771653543307087
        },
        {
          "duration": 0.20000000000000284,
          "durationTicks": 192,
          "midi": 64,
          "name": "E4",
          "ticks": 62784,
          "time": 65.4,
          "velocity": 0.6771653543307087
        },
        {
          "duration": 0.20000000000000284,
          "durationTicks": 192,
          "midi": 69,
          "name": "A4",
          "ticks": 62784,
          "time": 65.4,
          "velocity": 0.6771653543307087
        },
        {
          "duration": 0.20000000000000284,
          "durationTicks": 192,
          "midi": 64,
          "name": "E4",
          "ticks": 63360,
          "time": 66,
          "velocity": 0.6771653543307087
        },
        {
          "duration": 0.20000000000000284,
          "durationTicks": 192,
          "midi": 68,
          "name": "G#4",
          "ticks": 63360,
          "time": 66,
          "velocity": 0.6771653543307087
        },
        {
          "duration": 0.20000000000000284,
          "durationTicks": 192,
          "midi": 64,
          "name": "E4",
          "ticks": 63552,
          "time": 66.2,
          "velocity": 0.6771653543307087
        },
        {
          "duration": 0.20000000000000284,
          "durationTicks": 192,
          "midi": 68,
          "name": "G#4",
          "ticks": 63552,
          "time": 66.2,
          "velocity": 0.6771653543307087
        },
        {
          "duration": 0.7000000000000028,
          "durationTicks": 672,
          "midi": 64,
          "name": "E4",
          "ticks": 63744,
          "time": 66.4,
          "velocity": 0.6771653543307087
        },
        {
          "duration": 0.7000000000000028,
          "durationTicks": 672,
          "midi": 68,
          "name": "G#4",
          "ticks": 63744,
          "time": 66.4,
          "velocity": 0.6771653543307087
        },
        {
          "duration": 0.29999999999999716,
          "durationTicks": 288,
          "midi": 71,
          "name": "B4",
          "ticks": 64512,
          "time": 67.2,
          "velocity": 0.7874015748031497
        },
        {
          "duration": 0.19999999999998863,
          "durationTicks": 192,
          "midi": 68,
          "name": "G#4",
          "ticks": 64896,
          "time": 67.60000000000001,
          "velocity": 0.6771653543307087
        },
        {
          "duration": 0.20000000000000284,
          "durationTicks": 192,
          "midi": 69,
          "name": "A4",
          "ticks": 65088,
          "time": 67.8,
          "velocity": 0.6771653543307087
        },
        {
          "duration": 0.29999999999999716,
          "durationTicks": 288,
          "midi": 71,
          "name": "B4",
          "ticks": 65280,
          "time": 68,
          "velocity": 0.7874015748031497
        },
        {
          "duration": 0.20000000000000284,
          "durationTicks": 192,
          "midi": 68,
          "name": "G#4",
          "ticks": 65664,
          "time": 68.4,
          "velocity": 0.6771653543307087
        },
        {
          "duration": 0.19999999999998863,
          "durationTicks": 192,
          "midi": 69,
          "name": "A4",
          "ticks": 65856,
          "time": 68.60000000000001,
          "velocity": 0.6771653543307087
        },
        {
          "duration": 0.30000000000001137,
          "durationTicks": 288,
          "midi": 64,
          "name": "E4",
          "ticks": 66048,
          "time": 68.8,
          "velocity": 0.6771653543307087
        },
        {
          "duration": 0.20000000000000284,
          "durationTicks": 192,
          "midi": 64,
          "name": "E4",
          "ticks": 66432,
          "time": 69.2,
          "velocity": 0.6771653543307087
        },
        {
          "duration": 0.20000000000000284,
          "durationTicks": 192,
          "midi": 69,
          "name": "A4",
          "ticks": 66624,
          "time": 69.4,
          "velocity": 0.6771653543307087
        },
        {
          "duration": 0.29999999999999716,
          "durationTicks": 288,
          "midi": 72,
          "name": "C5",
          "ticks": 66816,
          "time": 69.60000000000001,
          "velocity": 0.6771653543307087
        },
        {
          "duration": 0.20000000000000284,
          "durationTicks": 192,
          "midi": 64,
          "name": "E4",
          "ticks": 67200,
          "time": 70,
          "velocity": 0.6771653543307087
        },
        {
          "duration": 0.20000000000000284,
          "durationTicks": 192,
          "midi": 69,
          "name": "A4",
          "ticks": 67392,
          "time": 70.2,
          "velocity": 0.6771653543307087
        },
        {
          "duration": 0.20000000000000284,
          "durationTicks": 192,
          "midi": 68,
          "name": "G#4",
          "ticks": 67584,
          "time": 70.4,
          "velocity": 0.7874015748031497
        },
        {
          "duration": 0.19999999999998863,
          "durationTicks": 192,
          "midi": 64,
          "name": "E4",
          "ticks": 67776,
          "time": 70.60000000000001,
          "velocity": 0.7874015748031497
        },
        {
          "duration": 0.20000000000000284,
          "durationTicks": 192,
          "midi": 68,
          "name": "G#4",
          "ticks": 67968,
          "time": 70.8,
          "velocity": 0.7874015748031497
        },
        {
          "duration": 0.20000000000000284,
          "durationTicks": 192,
          "midi": 69,
          "name": "A4",
          "ticks": 68160,
          "time": 71,
          "velocity": 0.7874015748031497
        },
        {
          "duration": 0.29999999999999716,
          "durationTicks": 288,
          "midi": 68,
          "name": "G#4",
          "ticks": 68352,
          "time": 71.2,
          "velocity": 0.7874015748031497
        },
        {
          "duration": 0.29999999999999716,
          "durationTicks": 288,
          "midi": 72,
          "name": "C5",
          "ticks": 68736,
          "time": 71.60000000000001,
          "velocity": 0.7874015748031497
        },
        {
          "duration": 0.29999999999999716,
          "durationTicks": 288,
          "midi": 64,
          "name": "E4",
          "ticks": 69120,
          "time": 72,
          "velocity": 0.6771653543307087
        },
        {
          "duration": 0.29999999999999716,
          "durationTicks": 288,
          "midi": 69,
          "name": "A4",
          "ticks": 69504,
          "time": 72.4,
          "velocity": 0.6771653543307087
        },
        {
          "duration": 0.7000000000000028,
          "durationTicks": 672,
          "midi": 64,
          "name": "E4",
          "ticks": 69888,
          "time": 72.8,
          "velocity": 0.6771653543307087
        },
        {
          "duration": 0.4000000000000057,
          "durationTicks": 384,
          "midi": 65,
          "name": "F4",
          "ticks": 70848,
          "time": 73.8,
          "velocity": 0.6771653543307087
        },
        {
          "duration": 0.20000000000000284,
          "durationTicks": 192,
          "midi": 65,
          "name": "F4",
          "ticks": 71232,
          "time": 74.2,
          "velocity": 0.6771653543307087
        },
        {
          "duration": 0.20000000000000284,
          "durationTicks": 192,
          "midi": 69,
          "name": "A4",
          "ticks": 71232,
          "time": 74.2,
          "velocity": 0.6771653543307087
        },
        {
          "duration": 0.20000000000000284,
          "durationTicks": 192,
          "midi": 65,
          "name": "F4",
          "ticks": 71424,
          "time": 74.4,
          "velocity": 0.6771653543307087
        },
        {
          "duration": 0.20000000000000284,
          "durationTicks": 192,
          "midi": 72,
          "name": "C5",
          "ticks": 71424,
          "time": 74.4,
          "velocity": 0.6771653543307087
        },
        {
          "duration": 0.09999999999999432,
          "durationTicks": 96,
          "midi": 65,
          "name": "F4",
          "ticks": 71616,
          "time": 74.60000000000001,
          "velocity": 0.6771653543307087
        },
        {
          "duration": 0.09999999999999432,
          "durationTicks": 96,
          "midi": 72,
          "name": "C5",
          "ticks": 71616,
          "time": 74.60000000000001,
          "velocity": 0.6771653543307087
        },
        {
          "duration": 0.09999999999999432,
          "durationTicks": 96,
          "midi": 65,
          "name": "F4",
          "ticks": 71712,
          "time": 74.7,
          "velocity": 0.6771653543307087
        },
        {
          "duration": 0.09999999999999432,
          "durationTicks": 96,
          "midi": 72,
          "name": "C5",
          "ticks": 71712,
          "time": 74.7,
          "velocity": 0.6771653543307087
        },
        {
          "duration": 0.20000000000000284,
          "durationTicks": 192,
          "midi": 64,
          "name": "E4",
          "ticks": 71808,
          "time": 74.8,
          "velocity": 0.6771653543307087
        },
        {
          "duration": 0.20000000000000284,
          "durationTicks": 192,
          "midi": 71,
          "name": "B4",
          "ticks": 71808,
          "time": 74.8,
          "velocity": 0.6771653543307087
        },
        {
          "duration": 0.20000000000000284,
          "durationTicks": 192,
          "midi": 62,
          "name": "D4",
          "ticks": 72000,
          "time": 75,
          "velocity": 0.6771653543307087
        },
        {
          "duration": 0.20000000000000284,
          "durationTicks": 192,
          "midi": 69,
          "name": "A4",
          "ticks": 72000,
          "time": 75,
          "velocity": 0.6771653543307087
        },
        {
          "duration": 0.5,
          "durationTicks": 480,
          "midi": 60,
          "name": "C4",
          "ticks": 72192,
          "time": 75.2,
          "velocity": 0.6771653543307087
        },
        {
          "duration": 0.5,
          "durationTicks": 480,
          "midi": 67,
          "name": "G4",
          "ticks": 72192,
          "time": 75.2,
          "velocity": 0.6771653543307087
        },
        {
          "duration": 0.20000000000000284,
          "durationTicks": 192,
          "midi": 64,
          "name": "E4",
          "ticks": 72768,
          "time": 75.8,
          "velocity": 0.6771653543307087
        },
        {
          "duration": 0.20000000000000284,
          "durationTicks": 192,
          "midi": 67,
          "name": "G4",
          "ticks": 72960,
          "time": 76,
          "velocity": 0.6771653543307087
        },
        {
          "duration": 0.09999999999999432,
          "durationTicks": 96,
          "midi": 69,
          "name": "A4",
          "ticks": 73152,
          "time": 76.2,
          "velocity": 0.6771653543307087
        },
        {
          "duration": 0.10000000000000853,
          "durationTicks": 96,
          "midi": 67,
          "name": "G4",
          "ticks": 73248,
          "time": 76.3,
          "velocity": 0.6771653543307087
        },
        {
          "duration": 0.20000000000000284,
          "durationTicks": 192,
          "midi": 65,
          "name": "F4",
          "ticks": 73344,
          "time": 76.4,
          "velocity": 0.6771653543307087
        },
        {
          "duration": 0.20000000000000284,
          "durationTicks": 192,
          "midi": 64,
          "name": "E4",
          "ticks": 73536,
          "time": 76.60000000000001,
          "velocity": 0.6771653543307087
        },
        {
          "duration": 0.19999999999998863,
          "durationTicks": 192,
          "midi": 80,
          "name": "G#5",
          "ticks": 73728,
          "time": 76.80000000000001,
          "velocity": 0.6771653543307087
        },
        {
          "duration": 0.20000000000000284,
          "durationTicks": 192,
          "midi": 76,
          "name": "E5",
          "ticks": 73920,
          "time": 77,
          "velocity": 0.6771653543307087
        },
        {
          "duration": 0.20000000000000284,
          "durationTicks": 192,
          "midi": 80,
          "name": "G#5",
          "ticks": 74112,
          "time": 77.2,
          "velocity": 0.6771653543307087
        },
        {
          "duration": 0.20000000000000284,
          "durationTicks": 192,
          "midi": 81,
          "name": "A5",
          "ticks": 74304,
          "time": 77.4,
          "velocity": 0.6771653543307087
        },
        {
          "duration": 0.20000000000000284,
          "durationTicks": 192,
          "midi": 83,
          "name": "B5",
          "ticks": 74496,
          "time": 77.60000000000001,
          "velocity": 0.6771653543307087
        },
        {
          "duration": 0.19999999999998863,
          "durationTicks": 192,
          "midi": 80,
          "name": "G#5",
          "ticks": 74688,
          "time": 77.80000000000001,
          "velocity": 0.6771653543307087
        },
        {
          "duration": 0.20000000000000284,
          "durationTicks": 192,
          "midi": 84,
          "name": "C6",
          "ticks": 74880,
          "time": 78,
          "velocity": 0.6771653543307087
        },
        {
          "duration": 0.20000000000000284,
          "durationTicks": 192,
          "midi": 80,
          "name": "G#5",
          "ticks": 75072,
          "time": 78.2,
          "velocity": 0.6771653543307087
        },
        {
          "duration": 1.5,
          "durationTicks": 1440,
          "midi": 81,
          "name": "A5",
          "ticks": 75264,
          "time": 78.4,
          "velocity": 0.6771653543307087
        },
        {
          "duration": 0.29999999999999716,
          "durationTicks": 288,
          "midi": 71,
          "name": "B4",
          "ticks": 77952,
          "time": 81.2,
          "velocity": 0.6771653543307087
        },
        {
          "duration": 0.5,
          "durationTicks": 480,
          "midi": 72,
          "name": "C5",
          "ticks": 78336,
          "time": 81.60000000000001,
          "velocity": 0.6771653543307087
        },
        {
          "duration": 0.20000000000000284,
          "durationTicks": 192,
          "midi": 64,
          "name": "E4",
          "ticks": 78912,
          "time": 82.2,
          "velocity": 0.6771653543307087
        },
        {
          "duration": 0.20000000000000284,
          "durationTicks": 192,
          "midi": 72,
          "name": "C5",
          "ticks": 79104,
          "time": 82.4,
          "velocity": 0.6771653543307087
        },
        {
          "duration": 0.20000000000000284,
          "durationTicks": 192,
          "midi": 69,
          "name": "A4",
          "ticks": 79296,
          "time": 82.60000000000001,
          "velocity": 0.6771653543307087
        },
        {
          "duration": 0.29999999999999716,
          "durationTicks": 288,
          "midi": 64,
          "name": "E4",
          "ticks": 79488,
          "time": 82.80000000000001,
          "velocity": 0.6771653543307087
        },
        {
          "duration": 0.5,
          "durationTicks": 480,
          "midi": 71,
          "name": "B4",
          "ticks": 79872,
          "time": 83.2,
          "velocity": 0.6771653543307087
        },
        {
          "duration": 0.19999999999998863,
          "durationTicks": 192,
          "midi": 64,
          "name": "E4",
          "ticks": 80448,
          "time": 83.80000000000001,
          "velocity": 0.6771653543307087
        },
        {
          "duration": 0.20000000000000284,
          "durationTicks": 192,
          "midi": 71,
          "name": "B4",
          "ticks": 80640,
          "time": 84,
          "velocity": 0.6771653543307087
        },
        {
          "duration": 0.20000000000000284,
          "durationTicks": 192,
          "midi": 68,
          "name": "G#4",
          "ticks": 80832,
          "time": 84.2,
          "velocity": 0.6771653543307087
        },
        {
          "duration": 0.29999999999999716,
          "durationTicks": 288,
          "midi": 64,
          "name": "E4",
          "ticks": 81024,
          "time": 84.4,
          "velocity": 0.6771653543307087
        },
        {
          "duration": 0.5,
          "durationTicks": 480,
          "midi": 69,
          "name": "A4",
          "ticks": 81408,
          "time": 84.80000000000001,
          "velocity": 0.6771653543307087
        },
        {
          "duration": 0.20000000000000284,
          "durationTicks": 192,
          "midi": 64,
          "name": "E4",
          "ticks": 81984,
          "time": 85.4,
          "velocity": 0.6771653543307087
        },
        {
          "duration": 0.20000000000000284,
          "durationTicks": 192,
          "midi": 69,
          "name": "A4",
          "ticks": 82176,
          "time": 85.60000000000001,
          "velocity": 0.6771653543307087
        },
        {
          "duration": 0.19999999999998863,
          "durationTicks": 192,
          "midi": 64,
          "name": "E4",
          "ticks": 82368,
          "time": 85.80000000000001,
          "velocity": 0.6771653543307087
        },
        {
          "duration": 0.30000000000001137,
          "durationTicks": 288,
          "midi": 69,
          "name": "A4",
          "ticks": 82560,
          "time": 86,
          "velocity": 0.6771653543307087
        },
        {
          "duration": 0.29999999999999716,
          "durationTicks": 288,
          "midi": 68,
          "name": "G#4",
          "ticks": 82944,
          "time": 86.4,
          "velocity": 0.6771653543307087
        },
        {
          "duration": 0.19999999999998863,
          "durationTicks": 192,
          "midi": 64,
          "name": "E4",
          "ticks": 83328,
          "time": 86.80000000000001,
          "velocity": 0.6771653543307087
        },
        {
          "duration": 0.20000000000000284,
          "durationTicks": 192,
          "midi": 59,
          "name": "B3",
          "ticks": 83520,
          "time": 87,
          "velocity": 0.6771653543307087
        },
        {
          "duration": 0.20000000000000284,
          "durationTicks": 192,
          "midi": 71,
          "name": "B4",
          "ticks": 83712,
          "time": 87.2,
          "velocity": 0.6771653543307087
        },
        {
          "duration": 0.20000000000000284,
          "durationTicks": 192,
          "midi": 68,
          "name": "G#4",
          "ticks": 83904,
          "time": 87.4,
          "velocity": 0.6771653543307087
        },
        {
          "duration": 0.29999999999999716,
          "durationTicks": 288,
          "midi": 64,
          "name": "E4",
          "ticks": 84096,
          "time": 87.60000000000001,
          "velocity": 0.6771653543307087
        },
        {
          "duration": 0.5,
          "durationTicks": 480,
          "midi": 72,
          "name": "C5",
          "ticks": 84480,
          "time": 88,
          "velocity": 0.6771653543307087
        },
        {
          "duration": 0.20000000000000284,
          "durationTicks": 192,
          "midi": 64,
          "name": "E4",
          "ticks": 85056,
          "time": 88.60000000000001,
          "velocity": 0.6771653543307087
        },
        {
          "duration": 0.19999999999998863,
          "durationTicks": 192,
          "midi": 72,
          "name": "C5",
          "ticks": 85248,
          "time": 88.80000000000001,
          "velocity": 0.6771653543307087
        },
        {
          "duration": 0.20000000000000284,
          "durationTicks": 192,
          "midi": 69,
          "name": "A4",
          "ticks": 85440,
          "time": 89,
          "velocity": 0.6771653543307087
        },
        {
          "duration": 0.29999999999999716,
          "durationTicks": 288,
          "midi": 64,
          "name": "E4",
          "ticks": 85632,
          "time": 89.2,
          "velocity": 0.6771653543307087
        },
        {
          "duration": 0.5,
          "durationTicks": 480,
          "midi": 71,
          "name": "B4",
          "ticks": 86016,
          "time": 89.60000000000001,
          "velocity": 0.6771653543307087
        },
        {
          "duration": 0.20000000000000284,
          "durationTicks": 192,
          "midi": 64,
          "name": "E4",
          "ticks": 86592,
          "time": 90.2,
          "velocity": 0.6771653543307087
        },
        {
          "duration": 0.20000000000000284,
          "durationTicks": 192,
          "midi": 71,
          "name": "B4",
          "ticks": 86784,
          "time": 90.4,
          "velocity": 0.6771653543307087
        },
        {
          "duration": 0.20000000000000284,
          "durationTicks": 192,
          "midi": 68,
          "name": "G#4",
          "ticks": 86976,
          "time": 90.60000000000001,
          "velocity": 0.6771653543307087
        },
        {
          "duration": 0.29999999999999716,
          "durationTicks": 288,
          "midi": 64,
          "name": "E4",
          "ticks": 87168,
          "time": 90.80000000000001,
          "velocity": 0.6771653543307087
        },
        {
          "duration": 0.5,
          "durationTicks": 480,
          "midi": 69,
          "name": "A4",
          "ticks": 87552,
          "time": 91.2,
          "velocity": 0.6771653543307087
        },
        {
          "duration": 0.19999999999998863,
          "durationTicks": 192,
          "midi": 64,
          "name": "E4",
          "ticks": 88128,
          "time": 91.80000000000001,
          "velocity": 0.6771653543307087
        },
        {
          "duration": 0.20000000000000284,
          "durationTicks": 192,
          "midi": 69,
          "name": "A4",
          "ticks": 88320,
          "time": 92,
          "velocity": 0.6771653543307087
        },
        {
          "duration": 0.20000000000000284,
          "durationTicks": 192,
          "midi": 64,
          "name": "E4",
          "ticks": 88512,
          "time": 92.2,
          "velocity": 0.6771653543307087
        },
        {
          "duration": 0.29999999999999716,
          "durationTicks": 288,
          "midi": 69,
          "name": "A4",
          "ticks": 88704,
          "time": 92.4,
          "velocity": 0.6771653543307087
        },
        {
          "duration": 0.29999999999999716,
          "durationTicks": 288,
          "midi": 68,
          "name": "G#4",
          "ticks": 89088,
          "time": 92.80000000000001,
          "velocity": 0.6771653543307087
        },
        {
          "duration": 0.20000000000000284,
          "durationTicks": 192,
          "midi": 64,
          "name": "E4",
          "ticks": 89472,
          "time": 93.2,
          "velocity": 0.6771653543307087
        },
        {
          "duration": 0.20000000000000284,
          "durationTicks": 192,
          "midi": 59,
          "name": "B3",
          "ticks": 89664,
          "time": 93.4,
          "velocity": 0.6771653543307087
        },
        {
          "duration": 0.19999999999998863,
          "durationTicks": 192,
          "midi": 68,
          "name": "G#4",
          "ticks": 90048,
          "time": 93.80000000000001,
          "velocity": 0.6771653543307087
        },
        {
          "duration": 0.30000000000001137,
          "durationTicks": 288,
          "midi": 64,
          "name": "E4",
          "ticks": 90240,
          "time": 94,
          "velocity": 0.6771653543307087
        },
        {
          "duration": 1.5,
          "durationTicks": 1440,
          "midi": 64,
          "name": "E4",
          "ticks": 90624,
          "time": 94.4,
          "velocity": 0.6771653543307087
        },
        {
          "duration": 1.5,
          "durationTicks": 1440,
          "midi": 64,
          "name": "E4",
          "ticks": 92160,
          "time": 96,
          "velocity": 0.6771653543307087
        },
        {
          "duration": 0.29999999999999716,
          "durationTicks": 288,
          "midi": 71,
          "name": "B4",
          "ticks": 94848,
          "time": 98.80000000000001,
          "velocity": 0.6771653543307087
        },
        {
          "duration": 0.7000000000000028,
          "durationTicks": 672,
          "midi": 72,
          "name": "C5",
          "ticks": 95232,
          "time": 99.2,
          "velocity": 0.6771653543307087
        },
        {
          "duration": 0.20000000000000284,
          "durationTicks": 192,
          "midi": 76,
          "name": "E5",
          "ticks": 96000,
          "time": 100,
          "velocity": 0.6771653543307087
        },
        {
          "duration": 0.20000000000000284,
          "durationTicks": 192,
          "midi": 69,
          "name": "A4",
          "ticks": 96192,
          "time": 100.2,
          "velocity": 0.6771653543307087
        },
        {
          "duration": 0.20000000000000284,
          "durationTicks": 192,
          "midi": 76,
          "name": "E5",
          "ticks": 96384,
          "time": 100.4,
          "velocity": 0.6771653543307087
        },
        {
          "duration": 0.20000000000000284,
          "durationTicks": 192,
          "midi": 69,
          "name": "A4",
          "ticks": 96576,
          "time": 100.60000000000001,
          "velocity": 0.6771653543307087
        },
        {
          "duration": 0.19999999999998863,
          "durationTicks": 192,
          "midi": 76,
          "name": "E5",
          "ticks": 96768,
          "time": 100.80000000000001,
          "velocity": 0.6771653543307087
        },
        {
          "duration": 0.20000000000000284,
          "durationTicks": 192,
          "midi": 68,
          "name": "G#4",
          "ticks": 96960,
          "time": 101,
          "velocity": 0.6771653543307087
        },
        {
          "duration": 0.20000000000000284,
          "durationTicks": 192,
          "midi": 76,
          "name": "E5",
          "ticks": 97152,
          "time": 101.2,
          "velocity": 0.6771653543307087
        },
        {
          "duration": 0.20000000000000284,
          "durationTicks": 192,
          "midi": 68,
          "name": "G#4",
          "ticks": 97344,
          "time": 101.4,
          "velocity": 0.6771653543307087
        },
        {
          "duration": 0.7000000000000028,
          "durationTicks": 672,
          "midi": 76,
          "name": "E5",
          "ticks": 97536,
          "time": 101.60000000000001,
          "velocity": 0.6771653543307087
        },
        {
          "duration": 0.7000000000000028,
          "durationTicks": 672,
          "midi": 69,
          "name": "A4",
          "ticks": 98304,
          "time": 102.4,
          "velocity": 0.6771653543307087
        },
        {
          "duration": 0.29999999999999716,
          "durationTicks": 288,
          "midi": 64,
          "name": "E4",
          "ticks": 99072,
          "time": 103.2,
          "velocity": 0.6771653543307087
        },
        {
          "duration": 0.29999999999999716,
          "durationTicks": 288,
          "midi": 60,
          "name": "C4",
          "ticks": 99456,
          "time": 103.60000000000001,
          "velocity": 0.6771653543307087
        },
        {
          "duration": 0.10000000000000853,
          "durationTicks": 96,
          "midi": 59,
          "name": "B3",
          "ticks": 99840,
          "time": 104,
          "velocity": 0.6771653543307087
        },
        {
          "duration": 0.09999999999999432,
          "durationTicks": 96,
          "midi": 64,
          "name": "E4",
          "ticks": 99936,
          "time": 104.10000000000001,
          "velocity": 0.6771653543307087
        },
        {
          "duration": 0.10000000000000853,
          "durationTicks": 96,
          "midi": 59,
          "name": "B3",
          "ticks": 100032,
          "time": 104.2,
          "velocity": 0.6771653543307087
        },
        {
          "duration": 0.09999999999999432,
          "durationTicks": 96,
          "midi": 64,
          "name": "E4",
          "ticks": 100128,
          "time": 104.30000000000001,
          "velocity": 0.6771653543307087
        },
        {
          "duration": 0.09999999999999432,
          "durationTicks": 96,
          "midi": 59,
          "name": "B3",
          "ticks": 100224,
          "time": 104.4,
          "velocity": 0.6771653543307087
        },
        {
          "duration": 0.10000000000000853,
          "durationTicks": 96,
          "midi": 64,
          "name": "E4",
          "ticks": 100320,
          "time": 104.5,
          "velocity": 0.6771653543307087
        },
        {
          "duration": 0.09999999999999432,
          "durationTicks": 96,
          "midi": 59,
          "name": "B3",
          "ticks": 100416,
          "time": 104.60000000000001,
          "velocity": 0.6771653543307087
        },
        {
          "duration": 0.10000000000000853,
          "durationTicks": 96,
          "midi": 64,
          "name": "E4",
          "ticks": 100512,
          "time": 104.7,
          "velocity": 0.6771653543307087
        },
        {
          "duration": 0.6999999999999886,
          "durationTicks": 672,
          "midi": 64,
          "name": "E4",
          "ticks": 100608,
          "time": 104.80000000000001,
          "velocity": 0.6771653543307087
        },
        {
          "duration": 1.5,
          "durationTicks": 1440,
          "midi": 64,
          "name": "E4",
          "ticks": 101376,
          "time": 105.60000000000001,
          "velocity": 0.6771653543307087
        },
        {
          "duration": 1.5,
          "durationTicks": 1440,
          "midi": 64,
          "name": "E4",
          "ticks": 102912,
          "time": 107.2,
          "velocity": 0.6771653543307087
        },
        {
          "duration": 1.5,
          "durationTicks": 1440,
          "midi": 76,
          "name": "E5",
          "ticks": 104448,
          "time": 108.80000000000001,
          "velocity": 0.6771653543307087
        },
        {
          "duration": 1.5,
          "durationTicks": 1440,
          "midi": 76,
          "name": "E5",
          "ticks": 105984,
          "time": 110.4,
          "velocity": 0.6771653543307087
        },
        {
          "duration": 0.5,
          "durationTicks": 480,
          "midi": 72,
          "name": "C5",
          "ticks": 121344,
          "time": 126.4,
          "velocity": 0.6771653543307087
        },
        {
          "duration": 0.20000000000000284,
          "durationTicks": 192,
          "midi": 64,
          "name": "E4",
          "ticks": 121920,
          "time": 127,
          "velocity": 0.6771653543307087
        },
        {
          "duration": 0.20000000000000284,
          "durationTicks": 192,
          "midi": 72,
          "name": "C5",
          "ticks": 122112,
          "time": 127.2,
          "velocity": 0.6771653543307087
        },
        {
          "duration": 0.20000000000000284,
          "durationTicks": 192,
          "midi": 69,
          "name": "A4",
          "ticks": 122304,
          "time": 127.4,
          "velocity": 0.6771653543307087
        },
        {
          "duration": 0.29999999999999716,
          "durationTicks": 288,
          "midi": 64,
          "name": "E4",
          "ticks": 122496,
          "time": 127.60000000000001,
          "velocity": 0.6771653543307087
        },
        {
          "duration": 0.5,
          "durationTicks": 480,
          "midi": 71,
          "name": "B4",
          "ticks": 122880,
          "time": 128,
          "velocity": 0.6771653543307087
        },
        {
          "duration": 0.20000000000001705,
          "durationTicks": 192,
          "midi": 64,
          "name": "E4",
          "ticks": 123456,
          "time": 128.6,
          "velocity": 0.6771653543307087
        },
        {
          "duration": 0.19999999999998863,
          "durationTicks": 192,
          "midi": 71,
          "name": "B4",
          "ticks": 123648,
          "time": 128.8,
          "velocity": 0.6771653543307087
        },
        {
          "duration": 0.20000000000001705,
          "durationTicks": 192,
          "midi": 68,
          "name": "G#4",
          "ticks": 123840,
          "time": 129,
          "velocity": 0.6771653543307087
        },
        {
          "duration": 0.29999999999998295,
          "durationTicks": 288,
          "midi": 64,
          "name": "E4",
          "ticks": 124032,
          "time": 129.20000000000002,
          "velocity": 0.6771653543307087
        },
        {
          "duration": 0.5,
          "durationTicks": 480,
          "midi": 69,
          "name": "A4",
          "ticks": 124416,
          "time": 129.6,
          "velocity": 0.6771653543307087
        },
        {
          "duration": 0.19999999999998863,
          "durationTicks": 192,
          "midi": 64,
          "name": "E4",
          "ticks": 124992,
          "time": 130.20000000000002,
          "velocity": 0.6771653543307087
        },
        {
          "duration": 0.19999999999998863,
          "durationTicks": 192,
          "midi": 69,
          "name": "A4",
          "ticks": 125184,
          "time": 130.4,
          "velocity": 0.6771653543307087
        },
        {
          "duration": 0.20000000000001705,
          "durationTicks": 192,
          "midi": 64,
          "name": "E4",
          "ticks": 125376,
          "time": 130.6,
          "velocity": 0.6771653543307087
        },
        {
          "duration": 0.29999999999998295,
          "durationTicks": 288,
          "midi": 69,
          "name": "A4",
          "ticks": 125568,
          "time": 130.8,
          "velocity": 0.6771653543307087
        },
        {
          "duration": 0.29999999999998295,
          "durationTicks": 288,
          "midi": 68,
          "name": "G#4",
          "ticks": 125952,
          "time": 131.20000000000002,
          "velocity": 0.6771653543307087
        },
        {
          "duration": 0.20000000000001705,
          "durationTicks": 192,
          "midi": 64,
          "name": "E4",
          "ticks": 126336,
          "time": 131.6,
          "velocity": 0.6771653543307087
        },
        {
          "duration": 0.19999999999998863,
          "durationTicks": 192,
          "midi": 59,
          "name": "B3",
          "ticks": 126528,
          "time": 131.8,
          "velocity": 0.6771653543307087
        },
        {
          "duration": 0.20000000000001705,
          "durationTicks": 192,
          "midi": 71,
          "name": "B4",
          "ticks": 126720,
          "time": 132,
          "velocity": 0.6771653543307087
        },
        {
          "duration": 0.19999999999998863,
          "durationTicks": 192,
          "midi": 68,
          "name": "G#4",
          "ticks": 126912,
          "time": 132.20000000000002,
          "velocity": 0.6771653543307087
        },
        {
          "duration": 0.30000000000001137,
          "durationTicks": 288,
          "midi": 64,
          "name": "E4",
          "ticks": 127104,
          "time": 132.4,
          "velocity": 0.6771653543307087
        },
        {
          "duration": 0.29999999999998295,
          "durationTicks": 288,
          "midi": 71,
          "name": "B4",
          "ticks": 127488,
          "time": 132.8,
          "velocity": 0.7874015748031497
        },
        {
          "duration": 0.19999999999998863,
          "durationTicks": 192,
          "midi": 68,
          "name": "G#4",
          "ticks": 127872,
          "time": 133.20000000000002,
          "velocity": 0.6771653543307087
        },
        {
          "duration": 0.19999999999998863,
          "durationTicks": 192,
          "midi": 69,
          "name": "A4",
          "ticks": 128064,
          "time": 133.4,
          "velocity": 0.6771653543307087
        },
        {
          "duration": 0.30000000000001137,
          "durationTicks": 288,
          "midi": 71,
          "name": "B4",
          "ticks": 128256,
          "time": 133.6,
          "velocity": 0.7874015748031497
        },
        {
          "duration": 0.20000000000001705,
          "durationTicks": 192,
          "midi": 69,
          "name": "A4",
          "ticks": 128640,
          "time": 134,
          "velocity": 0.6771653543307087
        },
        {
          "duration": 0.19999999999998863,
          "durationTicks": 192,
          "midi": 68,
          "name": "G#4",
          "ticks": 128832,
          "time": 134.20000000000002,
          "velocity": 0.6771653543307087
        },
        {
          "duration": 0.30000000000001137,
          "durationTicks": 288,
          "midi": 64,
          "name": "E4",
          "ticks": 129024,
          "time": 134.4,
          "velocity": 0.6771653543307087
        },
        {
          "duration": 0.19999999999998863,
          "durationTicks": 192,
          "midi": 64,
          "name": "E4",
          "ticks": 129408,
          "time": 134.8,
          "velocity": 0.6771653543307087
        },
        {
          "duration": 0.20000000000001705,
          "durationTicks": 192,
          "midi": 69,
          "name": "A4",
          "ticks": 129600,
          "time": 135,
          "velocity": 0.6771653543307087
        },
        {
          "duration": 0.29999999999998295,
          "durationTicks": 288,
          "midi": 72,
          "name": "C5",
          "ticks": 129792,
          "time": 135.20000000000002,
          "velocity": 0.6771653543307087
        },
        {
          "duration": 0.20000000000001705,
          "durationTicks": 192,
          "midi": 71,
          "name": "B4",
          "ticks": 130176,
          "time": 135.6,
          "velocity": 0.6771653543307087
        },
        {
          "duration": 0.19999999999998863,
          "durationTicks": 192,
          "midi": 69,
          "name": "A4",
          "ticks": 130368,
          "time": 135.8,
          "velocity": 0.6771653543307087
        },
        {
          "duration": 0.20000000000001705,
          "durationTicks": 192,
          "midi": 68,
          "name": "G#4",
          "ticks": 130560,
          "time": 136,
          "velocity": 0.6771653543307087
        },
        {
          "duration": 0.19999999999998863,
          "durationTicks": 192,
          "midi": 64,
          "name": "E4",
          "ticks": 130752,
          "time": 136.20000000000002,
          "velocity": 0.6771653543307087
        },
        {
          "duration": 0.19999999999998863,
          "durationTicks": 192,
          "midi": 68,
          "name": "G#4",
          "ticks": 130944,
          "time": 136.4,
          "velocity": 0.6771653543307087
        },
        {
          "duration": 0.10000000000002274,
          "durationTicks": 96,
          "midi": 69,
          "name": "A4",
          "ticks": 131136,
          "time": 136.6,
          "velocity": 0.6771653543307087
        },
        {
          "duration": 0.29999999999998295,
          "durationTicks": 288,
          "midi": 71,
          "name": "B4",
          "ticks": 131328,
          "time": 136.8,
          "velocity": 0.6771653543307087
        },
        {
          "duration": 0.29999999999998295,
          "durationTicks": 288,
          "midi": 72,
          "name": "C5",
          "ticks": 131712,
          "time": 137.20000000000002,
          "velocity": 0.6771653543307087
        },
        {
          "duration": 0.30000000000001137,
          "durationTicks": 288,
          "midi": 69,
          "name": "A4",
          "ticks": 132096,
          "time": 137.6,
          "velocity": 0.6771653543307087
        },
        {
          "duration": 0.30000000000001137,
          "durationTicks": 288,
          "midi": 64,
          "name": "E4",
          "ticks": 132480,
          "time": 138,
          "velocity": 0.6771653543307087
        },
        {
          "duration": 0.6999999999999886,
          "durationTicks": 672,
          "midi": 64,
          "name": "E4",
          "ticks": 132864,
          "time": 138.4,
          "velocity": 0.6771653543307087
        },
        {
          "duration": 0.4000000000000057,
          "durationTicks": 384,
          "midi": 65,
          "name": "F4",
          "ticks": 133824,
          "time": 139.4,
          "velocity": 0.6771653543307087
        },
        {
          "duration": 0.19999999999998863,
          "durationTicks": 192,
          "midi": 69,
          "name": "A4",
          "ticks": 134208,
          "time": 139.8,
          "velocity": 0.6771653543307087
        },
        {
          "duration": 0.20000000000001705,
          "durationTicks": 192,
          "midi": 72,
          "name": "C5",
          "ticks": 134400,
          "time": 140,
          "velocity": 0.6771653543307087
        },
        {
          "duration": 0.09999999999999432,
          "durationTicks": 96,
          "midi": 72,
          "name": "C5",
          "ticks": 134592,
          "time": 140.20000000000002,
          "velocity": 0.6771653543307087
        },
        {
          "duration": 0.09999999999999432,
          "durationTicks": 96,
          "midi": 72,
          "name": "C5",
          "ticks": 134688,
          "time": 140.3,
          "velocity": 0.6771653543307087
        },
        {
          "duration": 0.19999999999998863,
          "durationTicks": 192,
          "midi": 71,
          "name": "B4",
          "ticks": 134784,
          "time": 140.4,
          "velocity": 0.6771653543307087
        },
        {
          "duration": 0.20000000000001705,
          "durationTicks": 192,
          "midi": 69,
          "name": "A4",
          "ticks": 134976,
          "time": 140.6,
          "velocity": 0.6771653543307087
        },
        {
          "duration": 0.5,
          "durationTicks": 480,
          "midi": 67,
          "name": "G4",
          "ticks": 135168,
          "time": 140.8,
          "velocity": 0.6771653543307087
        },
        {
          "duration": 0.19999999999998863,
          "durationTicks": 192,
          "midi": 64,
          "name": "E4",
          "ticks": 135744,
          "time": 141.4,
          "velocity": 0.6771653543307087
        },
        {
          "duration": 0.20000000000001705,
          "durationTicks": 192,
          "midi": 67,
          "name": "G4",
          "ticks": 135936,
          "time": 141.6,
          "velocity": 0.6771653543307087
        },
        {
          "duration": 0.09999999999999432,
          "durationTicks": 96,
          "midi": 69,
          "name": "A4",
          "ticks": 136128,
          "time": 141.8,
          "velocity": 0.6771653543307087
        },
        {
          "duration": 0.09999999999999432,
          "durationTicks": 96,
          "midi": 67,
          "name": "G4",
          "ticks": 136224,
          "time": 141.9,
          "velocity": 0.6771653543307087
        },
        {
          "duration": 0.20000000000001705,
          "durationTicks": 192,
          "midi": 65,
          "name": "F4",
          "ticks": 136320,
          "time": 142,
          "velocity": 0.6771653543307087
        },
        {
          "duration": 0.19999999999998863,
          "durationTicks": 192,
          "midi": 64,
          "name": "E4",
          "ticks": 136512,
          "time": 142.20000000000002,
          "velocity": 0.6771653543307087
        },
        {
          "duration": 0.19999999999998863,
          "durationTicks": 192,
          "midi": 80,
          "name": "G#5",
          "ticks": 136704,
          "time": 142.4,
          "velocity": 0.6771653543307087
        },
        {
          "duration": 0.20000000000001705,
          "durationTicks": 192,
          "midi": 76,
          "name": "E5",
          "ticks": 136896,
          "time": 142.6,
          "velocity": 0.6771653543307087
        },
        {
          "duration": 0.19999999999998863,
          "durationTicks": 192,
          "midi": 80,
          "name": "G#5",
          "ticks": 137088,
          "time": 142.8,
          "velocity": 0.6771653543307087
        },
        {
          "duration": 0.20000000000001705,
          "durationTicks": 192,
          "midi": 81,
          "name": "A5",
          "ticks": 137280,
          "time": 143,
          "velocity": 0.6771653543307087
        },
        {
          "duration": 0.19999999999998863,
          "durationTicks": 192,
          "midi": 83,
          "name": "B5",
          "ticks": 137472,
          "time": 143.20000000000002,
          "velocity": 0.6771653543307087
        },
        {
          "duration": 0.19999999999998863,
          "durationTicks": 192,
          "midi": 80,
          "name": "G#5",
          "ticks": 137664,
          "time": 143.4,
          "velocity": 0.6771653543307087
        },
        {
          "duration": 0.20000000000001705,
          "durationTicks": 192,
          "midi": 84,
          "name": "C6",
          "ticks": 137856,
          "time": 143.6,
          "velocity": 0.6771653543307087
        },
        {
          "duration": 0.19999999999998863,
          "durationTicks": 192,
          "midi": 80,
          "name": "G#5",
          "ticks": 138048,
          "time": 143.8,
          "velocity": 0.6771653543307087
        },
        {
          "duration": 0.20000000000001705,
          "durationTicks": 192,
          "midi": 81,
          "name": "A5",
          "ticks": 138240,
          "time": 144,
          "velocity": 0.6771653543307087
        },
        {
          "duration": 0.19999999999998863,
          "durationTicks": 192,
          "midi": 76,
          "name": "E5",
          "ticks": 138432,
          "time": 144.20000000000002,
          "velocity": 0.6771653543307087
        },
        {
          "duration": 0.30000000000001137,
          "durationTicks": 288,
          "midi": 76,
          "name": "E5",
          "ticks": 138624,
          "time": 144.4,
          "velocity": 0.6771653543307087
        },
        {
          "duration": 0.29999999999998295,
          "durationTicks": 288,
          "midi": 76,
          "name": "E5",
          "ticks": 139008,
          "time": 144.8,
          "velocity": 0.6771653543307087
        },
        {
          "duration": 0.30000000000001137,
          "durationTicks": 288,
          "midi": 71,
          "name": "B4",
          "ticks": 139776,
          "time": 145.6,
          "velocity": 0.7874015748031497
        },
        {
          "duration": 0.20000000000001705,
          "durationTicks": 192,
          "midi": 68,
          "name": "G#4",
          "ticks": 140160,
          "time": 146,
          "velocity": 0.6771653543307087
        },
        {
          "duration": 0.19999999999998863,
          "durationTicks": 192,
          "midi": 69,
          "name": "A4",
          "ticks": 140352,
          "time": 146.20000000000002,
          "velocity": 0.6771653543307087
        },
        {
          "duration": 0.30000000000001137,
          "durationTicks": 288,
          "midi": 71,
          "name": "B4",
          "ticks": 140544,
          "time": 146.4,
          "velocity": 0.7874015748031497
        },
        {
          "duration": 0.19999999999998863,
          "durationTicks": 192,
          "midi": 69,
          "name": "A4",
          "ticks": 140928,
          "time": 146.8,
          "velocity": 0.6771653543307087
        },
        {
          "duration": 0.20000000000001705,
          "durationTicks": 192,
          "midi": 68,
          "name": "G#4",
          "ticks": 141120,
          "time": 147,
          "velocity": 0.6771653543307087
        },
        {
          "duration": 0.29999999999998295,
          "durationTicks": 288,
          "midi": 64,
          "name": "E4",
          "ticks": 141312,
          "time": 147.20000000000002,
          "velocity": 0.7874015748031497
        },
        {
          "duration": 0.20000000000001705,
          "durationTicks": 192,
          "midi": 64,
          "name": "E4",
          "ticks": 141696,
          "time": 147.6,
          "velocity": 0.6771653543307087
        },
        {
          "duration": 0.19999999999998863,
          "durationTicks": 192,
          "midi": 69,
          "name": "A4",
          "ticks": 141888,
          "time": 147.8,
          "velocity": 0.6771653543307087
        },
        {
          "duration": 0.30000000000001137,
          "durationTicks": 288,
          "midi": 72,
          "name": "C5",
          "ticks": 142080,
          "time": 148,
          "velocity": 0.6771653543307087
        },
        {
          "duration": 0.19999999999998863,
          "durationTicks": 192,
          "midi": 71,
          "name": "B4",
          "ticks": 142464,
          "time": 148.4,
          "velocity": 0.6771653543307087
        },
        {
          "duration": 0.20000000000001705,
          "durationTicks": 192,
          "midi": 69,
          "name": "A4",
          "ticks": 142656,
          "time": 148.6,
          "velocity": 0.6771653543307087
        },
        {
          "duration": 0.19999999999998863,
          "durationTicks": 192,
          "midi": 68,
          "name": "G#4",
          "ticks": 142848,
          "time": 148.8,
          "velocity": 0.6771653543307087
        },
        {
          "duration": 0.20000000000001705,
          "durationTicks": 192,
          "midi": 64,
          "name": "E4",
          "ticks": 143040,
          "time": 149,
          "velocity": 0.6771653543307087
        },
        {
          "duration": 0.19999999999998863,
          "durationTicks": 192,
          "midi": 68,
          "name": "G#4",
          "ticks": 143232,
          "time": 149.20000000000002,
          "velocity": 0.6771653543307087
        },
        {
          "duration": 0.19999999999998863,
          "durationTicks": 192,
          "midi": 69,
          "name": "A4",
          "ticks": 143424,
          "time": 149.4,
          "velocity": 0.6771653543307087
        },
        {
          "duration": 0.30000000000001137,
          "durationTicks": 288,
          "midi": 71,
          "name": "B4",
          "ticks": 143616,
          "time": 149.6,
          "velocity": 0.6771653543307087
        },
        {
          "duration": 0.30000000000001137,
          "durationTicks": 288,
          "midi": 72,
          "name": "C5",
          "ticks": 144000,
          "time": 150,
          "velocity": 0.6771653543307087
        },
        {
          "duration": 0.30000000000001137,
          "durationTicks": 288,
          "midi": 69,
          "name": "A4",
          "ticks": 144384,
          "time": 150.4,
          "velocity": 0.6771653543307087
        },
        {
          "duration": 0.29999999999998295,
          "durationTicks": 288,
          "midi": 64,
          "name": "E4",
          "ticks": 144768,
          "time": 150.8,
          "velocity": 0.6771653543307087
        },
        {
          "duration": 0.6999999999999886,
          "durationTicks": 672,
          "midi": 64,
          "name": "E4",
          "ticks": 145152,
          "time": 151.20000000000002,
          "velocity": 0.6771653543307087
        },
        {
          "duration": 0.39999999999997726,
          "durationTicks": 384,
          "midi": 65,
          "name": "F4",
          "ticks": 146112,
          "time": 152.20000000000002,
          "velocity": 0.6771653543307087
        },
        {
          "duration": 0.20000000000001705,
          "durationTicks": 192,
          "midi": 69,
          "name": "A4",
          "ticks": 146496,
          "time": 152.6,
          "velocity": 0.6771653543307087
        },
        {
          "duration": 0.19999999999998863,
          "durationTicks": 192,
          "midi": 72,
          "name": "C5",
          "ticks": 146688,
          "time": 152.8,
          "velocity": 0.6771653543307087
        },
        {
          "duration": 0.09999999999999432,
          "durationTicks": 96,
          "midi": 72,
          "name": "C5",
          "ticks": 146880,
          "time": 153,
          "velocity": 0.6771653543307087
        },
        {
          "duration": 0.10000000000002274,
          "durationTicks": 96,
          "midi": 72,
          "name": "C5",
          "ticks": 146976,
          "time": 153.1,
          "velocity": 0.6771653543307087
        },
        {
          "duration": 0.19999999999998863,
          "durationTicks": 192,
          "midi": 71,
          "name": "B4",
          "ticks": 147072,
          "time": 153.20000000000002,
          "velocity": 0.6771653543307087
        },
        {
          "duration": 0.20000000000001705,
          "durationTicks": 192,
          "midi": 69,
          "name": "A4",
          "ticks": 147264,
          "time": 153.4,
          "velocity": 0.6771653543307087
        },
        {
          "duration": 0.5,
          "durationTicks": 480,
          "midi": 67,
          "name": "G4",
          "ticks": 147456,
          "time": 153.60000000000002,
          "velocity": 0.6771653543307087
        },
        {
          "duration": 0.19999999999998863,
          "durationTicks": 192,
          "midi": 64,
          "name": "E4",
          "ticks": 148032,
          "time": 154.20000000000002,
          "velocity": 0.6771653543307087
        },
        {
          "duration": 0.20000000000001705,
          "durationTicks": 192,
          "midi": 67,
          "name": "G4",
          "ticks": 148224,
          "time": 154.4,
          "velocity": 0.6771653543307087
        },
        {
          "duration": 0.09999999999999432,
          "durationTicks": 96,
          "midi": 69,
          "name": "A4",
          "ticks": 148416,
          "time": 154.60000000000002,
          "velocity": 0.6771653543307087
        },
        {
          "duration": 0.09999999999999432,
          "durationTicks": 96,
          "midi": 67,
          "name": "G4",
          "ticks": 148512,
          "time": 154.70000000000002,
          "velocity": 0.6771653543307087
        },
        {
          "duration": 0.19999999999998863,
          "durationTicks": 192,
          "midi": 65,
          "name": "F4",
          "ticks": 148608,
          "time": 154.8,
          "velocity": 0.6771653543307087
        },
        {
          "duration": 0.20000000000001705,
          "durationTicks": 192,
          "midi": 64,
          "name": "E4",
          "ticks": 148800,
          "time": 155,
          "velocity": 0.6771653543307087
        },
        {
          "duration": 0.19999999999998863,
          "durationTicks": 192,
          "midi": 68,
          "name": "G#4",
          "ticks": 148992,
          "time": 155.20000000000002,
          "velocity": 0.6771653543307087
        },
        {
          "duration": 0.20000000000001705,
          "durationTicks": 192,
          "midi": 64,
          "name": "E4",
          "ticks": 149184,
          "time": 155.4,
          "velocity": 0.6771653543307087
        },
        {
          "duration": 0.19999999999998863,
          "durationTicks": 192,
          "midi": 68,
          "name": "G#4",
          "ticks": 149376,
          "time": 155.60000000000002,
          "velocity": 0.6771653543307087
        },
        {
          "duration": 0.19999999999998863,
          "durationTicks": 192,
          "midi": 69,
          "name": "A4",
          "ticks": 149568,
          "time": 155.8,
          "velocity": 0.6771653543307087
        },
        {
          "duration": 0.20000000000001705,
          "durationTicks": 192,
          "midi": 71,
          "name": "B4",
          "ticks": 149760,
          "time": 156,
          "velocity": 0.6771653543307087
        },
        {
          "duration": 0.19999999999998863,
          "durationTicks": 192,
          "midi": 68,
          "name": "G#4",
          "ticks": 149952,
          "time": 156.20000000000002,
          "velocity": 0.6771653543307087
        },
        {
          "duration": 0.20000000000001705,
          "durationTicks": 192,
          "midi": 72,
          "name": "C5",
          "ticks": 150144,
          "time": 156.4,
          "velocity": 0.6771653543307087
        },
        {
          "duration": 0.19999999999998863,
          "durationTicks": 192,
          "midi": 68,
          "name": "G#4",
          "ticks": 150336,
          "time": 156.60000000000002,
          "velocity": 0.6771653543307087
        },
        {
          "duration": 0.19999999999998863,
          "durationTicks": 192,
          "midi": 69,
          "name": "A4",
          "ticks": 150528,
          "time": 156.8,
          "velocity": 0.6771653543307087
        },
        {
          "duration": 0.20000000000001705,
          "durationTicks": 192,
          "midi": 64,
          "name": "E4",
          "ticks": 150720,
          "time": 157,
          "velocity": 0.6771653543307087
        },
        {
          "duration": 0.29999999999998295,
          "durationTicks": 288,
          "midi": 64,
          "name": "E4",
          "ticks": 150912,
          "time": 157.20000000000002,
          "velocity": 0.6771653543307087
        },
        {
          "duration": 0.29999999999998295,
          "durationTicks": 288,
          "midi": 64,
          "name": "E4",
          "ticks": 151296,
          "time": 157.60000000000002,
          "velocity": 0.6771653543307087
        },
        {
          "duration": 0.700000000000017,
          "durationTicks": 672,
          "midi": 69,
          "name": "A4",
          "ticks": 152064,
          "time": 158.4,
          "velocity": 0.6771653543307087
        },
        {
          "duration": 0.19999999999998863,
          "durationTicks": 192,
          "midi": 64,
          "name": "E4",
          "ticks": 152832,
          "time": 159.20000000000002,
          "velocity": 0.6771653543307087
        },
        {
          "duration": 0.19999999999998863,
          "durationTicks": 192,
          "midi": 69,
          "name": "A4",
          "ticks": 152832,
          "time": 159.20000000000002,
          "velocity": 0.6771653543307087
        },
        {
          "duration": 0.20000000000001705,
          "durationTicks": 192,
          "midi": 64,
          "name": "E4",
          "ticks": 153024,
          "time": 159.4,
          "velocity": 0.6771653543307087
        },
        {
          "duration": 0.20000000000001705,
          "durationTicks": 192,
          "midi": 69,
          "name": "A4",
          "ticks": 153024,
          "time": 159.4,
          "velocity": 0.6771653543307087
        },
        {
          "duration": 0.19999999999998863,
          "durationTicks": 192,
          "midi": 64,
          "name": "E4",
          "ticks": 153216,
          "time": 159.60000000000002,
          "velocity": 0.6771653543307087
        },
        {
          "duration": 0.19999999999998863,
          "durationTicks": 192,
          "midi": 69,
          "name": "A4",
          "ticks": 153216,
          "time": 159.60000000000002,
          "velocity": 0.6771653543307087
        },
        {
          "duration": 0.19999999999998863,
          "durationTicks": 192,
          "midi": 64,
          "name": "E4",
          "ticks": 153408,
          "time": 159.8,
          "velocity": 0.6771653543307087
        },
        {
          "duration": 0.19999999999998863,
          "durationTicks": 192,
          "midi": 69,
          "name": "A4",
          "ticks": 153408,
          "time": 159.8,
          "velocity": 0.6771653543307087
        },
        {
          "duration": 0.20000000000001705,
          "durationTicks": 192,
          "midi": 64,
          "name": "E4",
          "ticks": 153600,
          "time": 160,
          "velocity": 0.6771653543307087
        },
        {
          "duration": 0.20000000000001705,
          "durationTicks": 192,
          "midi": 68,
          "name": "G#4",
          "ticks": 153600,
          "time": 160,
          "velocity": 0.6771653543307087
        },
        {
          "duration": 0.19999999999998863,
          "durationTicks": 192,
          "midi": 64,
          "name": "E4",
          "ticks": 153792,
          "time": 160.20000000000002,
          "velocity": 0.6771653543307087
        },
        {
          "duration": 0.19999999999998863,
          "durationTicks": 192,
          "midi": 68,
          "name": "G#4",
          "ticks": 153792,
          "time": 160.20000000000002,
          "velocity": 0.6771653543307087
        },
        {
          "duration": 0.20000000000001705,
          "durationTicks": 192,
          "midi": 64,
          "name": "E4",
          "ticks": 153984,
          "time": 160.4,
          "velocity": 0.6771653543307087
        },
        {
          "duration": 0.20000000000001705,
          "durationTicks": 192,
          "midi": 68,
          "name": "G#4",
          "ticks": 153984,
          "time": 160.4,
          "velocity": 0.6771653543307087
        },
        {
          "duration": 0.19999999999998863,
          "durationTicks": 192,
          "midi": 64,
          "name": "E4",
          "ticks": 154176,
          "time": 160.60000000000002,
          "velocity": 0.6771653543307087
        },
        {
          "duration": 0.19999999999998863,
          "durationTicks": 192,
          "midi": 68,
          "name": "G#4",
          "ticks": 154176,
          "time": 160.60000000000002,
          "velocity": 0.6771653543307087
        },
        {
          "duration": 0.6999999999999886,
          "durationTicks": 672,
          "midi": 64,
          "name": "E4",
          "ticks": 154368,
          "time": 160.8,
          "velocity": 0.6771653543307087
        },
        {
          "duration": 0.6999999999999886,
          "durationTicks": 672,
          "midi": 68,
          "name": "G#4",
          "ticks": 154368,
          "time": 160.8,
          "velocity": 0.6771653543307087
        },
        {
          "duration": 0.6999999999999886,
          "durationTicks": 672,
          "midi": 69,
          "name": "A4",
          "ticks": 155136,
          "time": 161.60000000000002,
          "velocity": 0.6771653543307087
        },
        {
          "duration": 0.20000000000001705,
          "durationTicks": 192,
          "midi": 64,
          "name": "E4",
          "ticks": 155904,
          "time": 162.4,
          "velocity": 0.6771653543307087
        },
        {
          "duration": 0.20000000000001705,
          "durationTicks": 192,
          "midi": 69,
          "name": "A4",
          "ticks": 155904,
          "time": 162.4,
          "velocity": 0.6771653543307087
        },
        {
          "duration": 0.19999999999998863,
          "durationTicks": 192,
          "midi": 64,
          "name": "E4",
          "ticks": 156096,
          "time": 162.60000000000002,
          "velocity": 0.6771653543307087
        },
        {
          "duration": 0.19999999999998863,
          "durationTicks": 192,
          "midi": 69,
          "name": "A4",
          "ticks": 156096,
          "time": 162.60000000000002,
          "velocity": 0.6771653543307087
        },
        {
          "duration": 0.19999999999998863,
          "durationTicks": 192,
          "midi": 64,
          "name": "E4",
          "ticks": 156288,
          "time": 162.8,
          "velocity": 0.6771653543307087
        },
        {
          "duration": 0.19999999999998863,
          "durationTicks": 192,
          "midi": 69,
          "name": "A4",
          "ticks": 156288,
          "time": 162.8,
          "velocity": 0.6771653543307087
        },
        {
          "duration": 0.20000000000001705,
          "durationTicks": 192,
          "midi": 64,
          "name": "E4",
          "ticks": 156480,
          "time": 163,
          "velocity": 0.6771653543307087
        },
        {
          "duration": 0.20000000000001705,
          "durationTicks": 192,
          "midi": 69,
          "name": "A4",
          "ticks": 156480,
          "time": 163,
          "velocity": 0.6771653543307087
        },
        {
          "duration": 0.19999999999998863,
          "durationTicks": 192,
          "midi": 64,
          "name": "E4",
          "ticks": 156672,
          "time": 163.20000000000002,
          "velocity": 0.6771653543307087
        },
        {
          "duration": 0.19999999999998863,
          "durationTicks": 192,
          "midi": 68,
          "name": "G#4",
          "ticks": 156672,
          "time": 163.20000000000002,
          "velocity": 0.6771653543307087
        },
        {
          "duration": 0.20000000000001705,
          "durationTicks": 192,
          "midi": 64,
          "name": "E4",
          "ticks": 156864,
          "time": 163.4,
          "velocity": 0.6771653543307087
        },
        {
          "duration": 0.20000000000001705,
          "durationTicks": 192,
          "midi": 68,
          "name": "G#4",
          "ticks": 156864,
          "time": 163.4,
          "velocity": 0.6771653543307087
        },
        {
          "duration": 0.19999999999998863,
          "durationTicks": 192,
          "midi": 64,
          "name": "E4",
          "ticks": 157056,
          "time": 163.60000000000002,
          "velocity": 0.6771653543307087
        },
        {
          "duration": 0.19999999999998863,
          "durationTicks": 192,
          "midi": 68,
          "name": "G#4",
          "ticks": 157056,
          "time": 163.60000000000002,
          "velocity": 0.6771653543307087
        },
        {
          "duration": 0.19999999999998863,
          "durationTicks": 192,
          "midi": 64,
          "name": "E4",
          "ticks": 157248,
          "time": 163.8,
          "velocity": 0.6771653543307087
        },
        {
          "duration": 0.19999999999998863,
          "durationTicks": 192,
          "midi": 68,
          "name": "G#4",
          "ticks": 157248,
          "time": 163.8,
          "velocity": 0.6771653543307087
        },
        {
          "duration": 0.700000000000017,
          "durationTicks": 672,
          "midi": 64,
          "name": "E4",
          "ticks": 157440,
          "time": 164,
          "velocity": 0.6771653543307087
        },
        {
          "duration": 0.700000000000017,
          "durationTicks": 672,
          "midi": 68,
          "name": "G#4",
          "ticks": 157440,
          "time": 164,
          "velocity": 0.6771653543307087
        },
        {
          "duration": 0.6999999999999886,
          "durationTicks": 672,
          "midi": 60,
          "name": "C4",
          "ticks": 158208,
          "time": 164.8,
          "velocity": 0.6771653543307087
        },
        {
          "duration": 0.19999999999998863,
          "durationTicks": 192,
          "midi": 64,
          "name": "E4",
          "ticks": 158976,
          "time": 165.60000000000002,
          "velocity": 0.6771653543307087
        },
        {
          "duration": 0.19999999999998863,
          "durationTicks": 192,
          "midi": 69,
          "name": "A4",
          "ticks": 158976,
          "time": 165.60000000000002,
          "velocity": 0.6771653543307087
        },
        {
          "duration": 0.19999999999998863,
          "durationTicks": 192,
          "midi": 64,
          "name": "E4",
          "ticks": 159168,
          "time": 165.8,
          "velocity": 0.6771653543307087
        },
        {
          "duration": 0.19999999999998863,
          "durationTicks": 192,
          "midi": 69,
          "name": "A4",
          "ticks": 159168,
          "time": 165.8,
          "velocity": 0.6771653543307087
        },
        {
          "duration": 0.20000000000001705,
          "durationTicks": 192,
          "midi": 64,
          "name": "E4",
          "ticks": 159360,
          "time": 166,
          "velocity": 0.6771653543307087
        },
        {
          "duration": 0.20000000000001705,
          "durationTicks": 192,
          "midi": 69,
          "name": "A4",
          "ticks": 159360,
          "time": 166,
          "velocity": 0.6771653543307087
        },
        {
          "duration": 0.19999999999998863,
          "durationTicks": 192,
          "midi": 64,
          "name": "E4",
          "ticks": 159552,
          "time": 166.20000000000002,
          "velocity": 0.6771653543307087
        },
        {
          "duration": 0.19999999999998863,
          "durationTicks": 192,
          "midi": 69,
          "name": "A4",
          "ticks": 159552,
          "time": 166.20000000000002,
          "velocity": 0.6771653543307087
        },
        {
          "duration": 0.19999999999998863,
          "durationTicks": 192,
          "midi": 64,
          "name": "E4",
          "ticks": 160128,
          "time": 166.8,
          "velocity": 0.6771653543307087
        },
        {
          "duration": 0.19999999999998863,
          "durationTicks": 192,
          "midi": 68,
          "name": "G#4",
          "ticks": 160128,
          "time": 166.8,
          "velocity": 0.6771653543307087
        },
        {
          "duration": 0.20000000000001705,
          "durationTicks": 192,
          "midi": 64,
          "name": "E4",
          "ticks": 160320,
          "time": 167,
          "velocity": 0.6771653543307087
        },
        {
          "duration": 0.20000000000001705,
          "durationTicks": 192,
          "midi": 68,
          "name": "G#4",
          "ticks": 160320,
          "time": 167,
          "velocity": 0.6771653543307087
        },
        {
          "duration": 0.19999999999998863,
          "durationTicks": 192,
          "midi": 64,
          "name": "E4",
          "ticks": 160512,
          "time": 167.20000000000002,
          "velocity": 0.6771653543307087
        },
        {
          "duration": 0.19999999999998863,
          "durationTicks": 192,
          "midi": 68,
          "name": "G#4",
          "ticks": 160512,
          "time": 167.20000000000002,
          "velocity": 0.6771653543307087
        },
        {
          "duration": 0.20000000000001705,
          "durationTicks": 192,
          "midi": 64,
          "name": "E4",
          "ticks": 160704,
          "time": 167.4,
          "velocity": 0.6771653543307087
        },
        {
          "duration": 0.20000000000001705,
          "durationTicks": 192,
          "midi": 68,
          "name": "G#4",
          "ticks": 160704,
          "time": 167.4,
          "velocity": 0.6771653543307087
        },
        {
          "duration": 0.19999999999998863,
          "durationTicks": 192,
          "midi": 64,
          "name": "E4",
          "ticks": 160896,
          "time": 167.60000000000002,
          "velocity": 0.6771653543307087
        },
        {
          "duration": 0.19999999999998863,
          "durationTicks": 192,
          "midi": 68,
          "name": "G#4",
          "ticks": 160896,
          "time": 167.60000000000002,
          "velocity": 0.6771653543307087
        },
        {
          "duration": 0.19999999999998863,
          "durationTicks": 192,
          "midi": 64,
          "name": "E4",
          "ticks": 161088,
          "time": 167.8,
          "velocity": 0.6771653543307087
        },
        {
          "duration": 0.19999999999998863,
          "durationTicks": 192,
          "midi": 68,
          "name": "G#4",
          "ticks": 161088,
          "time": 167.8,
          "velocity": 0.6771653543307087
        },
        {
          "duration": 0.700000000000017,
          "durationTicks": 672,
          "midi": 60,
          "name": "C4",
          "ticks": 161280,
          "time": 168,
          "velocity": 0.6771653543307087
        },
        {
          "duration": 0.19999999999998863,
          "durationTicks": 192,
          "midi": 64,
          "name": "E4",
          "ticks": 162048,
          "time": 168.8,
          "velocity": 0.6771653543307087
        },
        {
          "duration": 0.19999999999998863,
          "durationTicks": 192,
          "midi": 69,
          "name": "A4",
          "ticks": 162048,
          "time": 168.8,
          "velocity": 0.6771653543307087
        },
        {
          "duration": 0.20000000000001705,
          "durationTicks": 192,
          "midi": 64,
          "name": "E4",
          "ticks": 162240,
          "time": 169,
          "velocity": 0.6771653543307087
        },
        {
          "duration": 0.20000000000001705,
          "durationTicks": 192,
          "midi": 69,
          "name": "A4",
          "ticks": 162240,
          "time": 169,
          "velocity": 0.6771653543307087
        },
        {
          "duration": 0.19999999999998863,
          "durationTicks": 192,
          "midi": 64,
          "name": "E4",
          "ticks": 162432,
          "time": 169.20000000000002,
          "velocity": 0.6771653543307087
        },
        {
          "duration": 0.19999999999998863,
          "durationTicks": 192,
          "midi": 69,
          "name": "A4",
          "ticks": 162432,
          "time": 169.20000000000002,
          "velocity": 0.6771653543307087
        },
        {
          "duration": 0.20000000000001705,
          "durationTicks": 192,
          "midi": 64,
          "name": "E4",
          "ticks": 162624,
          "time": 169.4,
          "velocity": 0.6771653543307087
        },
        {
          "duration": 0.20000000000001705,
          "durationTicks": 192,
          "midi": 69,
          "name": "A4",
          "ticks": 162624,
          "time": 169.4,
          "velocity": 0.6771653543307087
        },
        {
          "duration": 0.20000000000001705,
          "durationTicks": 192,
          "midi": 64,
          "name": "E4",
          "ticks": 163200,
          "time": 170,
          "velocity": 0.6771653543307087
        },
        {
          "duration": 0.20000000000001705,
          "durationTicks": 192,
          "midi": 68,
          "name": "G#4",
          "ticks": 163200,
          "time": 170,
          "velocity": 0.6771653543307087
        },
        {
          "duration": 0.19999999999998863,
          "durationTicks": 192,
          "midi": 64,
          "name": "E4",
          "ticks": 163392,
          "time": 170.20000000000002,
          "velocity": 0.6771653543307087
        },
        {
          "duration": 0.19999999999998863,
          "durationTicks": 192,
          "midi": 68,
          "name": "G#4",
          "ticks": 163392,
          "time": 170.20000000000002,
          "velocity": 0.6771653543307087
        },
        {
          "duration": 0.700000000000017,
          "durationTicks": 672,
          "midi": 64,
          "name": "E4",
          "ticks": 163584,
          "time": 170.4,
          "velocity": 0.6771653543307087
        },
        {
          "duration": 0.700000000000017,
          "durationTicks": 672,
          "midi": 68,
          "name": "G#4",
          "ticks": 163584,
          "time": 170.4,
          "velocity": 0.6771653543307087
        },
        {
          "duration": 0.29999999999998295,
          "durationTicks": 288,
          "midi": 71,
          "name": "B4",
          "ticks": 164352,
          "time": 171.20000000000002,
          "velocity": 0.7874015748031497
        },
        {
          "duration": 0.19999999999998863,
          "durationTicks": 192,
          "midi": 68,
          "name": "G#4",
          "ticks": 164736,
          "time": 171.60000000000002,
          "velocity": 0.6771653543307087
        },
        {
          "duration": 0.19999999999998863,
          "durationTicks": 192,
          "midi": 69,
          "name": "A4",
          "ticks": 164928,
          "time": 171.8,
          "velocity": 0.6771653543307087
        },
        {
          "duration": 0.30000000000001137,
          "durationTicks": 288,
          "midi": 71,
          "name": "B4",
          "ticks": 165120,
          "time": 172,
          "velocity": 0.7874015748031497
        },
        {
          "duration": 0.20000000000001705,
          "durationTicks": 192,
          "midi": 68,
          "name": "G#4",
          "ticks": 165504,
          "time": 172.4,
          "velocity": 0.6771653543307087
        },
        {
          "duration": 0.19999999999998863,
          "durationTicks": 192,
          "midi": 69,
          "name": "A4",
          "ticks": 165696,
          "time": 172.60000000000002,
          "velocity": 0.6771653543307087
        },
        {
          "duration": 0.30000000000001137,
          "durationTicks": 288,
          "midi": 64,
          "name": "E4",
          "ticks": 165888,
          "time": 172.8,
          "velocity": 0.6771653543307087
        },
        {
          "duration": 0.19999999999998863,
          "durationTicks": 192,
          "midi": 64,
          "name": "E4",
          "ticks": 166272,
          "time": 173.20000000000002,
          "velocity": 0.6771653543307087
        },
        {
          "duration": 0.20000000000001705,
          "durationTicks": 192,
          "midi": 69,
          "name": "A4",
          "ticks": 166464,
          "time": 173.4,
          "velocity": 0.6771653543307087
        },
        {
          "duration": 0.29999999999998295,
          "durationTicks": 288,
          "midi": 72,
          "name": "C5",
          "ticks": 166656,
          "time": 173.60000000000002,
          "velocity": 0.6771653543307087
        },
        {
          "duration": 0.20000000000001705,
          "durationTicks": 192,
          "midi": 64,
          "name": "E4",
          "ticks": 167040,
          "time": 174,
          "velocity": 0.6771653543307087
        },
        {
          "duration": 0.19999999999998863,
          "durationTicks": 192,
          "midi": 69,
          "name": "A4",
          "ticks": 167232,
          "time": 174.20000000000002,
          "velocity": 0.6771653543307087
        },
        {
          "duration": 0.20000000000001705,
          "durationTicks": 192,
          "midi": 68,
          "name": "G#4",
          "ticks": 167424,
          "time": 174.4,
          "velocity": 0.7874015748031497
        },
        {
          "duration": 0.19999999999998863,
          "durationTicks": 192,
          "midi": 64,
          "name": "E4",
          "ticks": 167616,
          "time": 174.60000000000002,
          "velocity": 0.7874015748031497
        },
        {
          "duration": 0.19999999999998863,
          "durationTicks": 192,
          "midi": 68,
          "name": "G#4",
          "ticks": 167808,
          "time": 174.8,
          "velocity": 0.7874015748031497
        },
        {
          "duration": 0.20000000000001705,
          "durationTicks": 192,
          "midi": 69,
          "name": "A4",
          "ticks": 168000,
          "time": 175,
          "velocity": 0.7874015748031497
        },
        {
          "duration": 0.29999999999998295,
          "durationTicks": 288,
          "midi": 68,
          "name": "G#4",
          "ticks": 168192,
          "time": 175.20000000000002,
          "velocity": 0.7874015748031497
        },
        {
          "duration": 0.29999999999998295,
          "durationTicks": 288,
          "midi": 72,
          "name": "C5",
          "ticks": 168576,
          "time": 175.60000000000002,
          "velocity": 0.7874015748031497
        },
        {
          "duration": 0.30000000000001137,
          "durationTicks": 288,
          "midi": 64,
          "name": "E4",
          "ticks": 168960,
          "time": 176,
          "velocity": 0.6771653543307087
        },
        {
          "duration": 0.30000000000001137,
          "durationTicks": 288,
          "midi": 69,
          "name": "A4",
          "ticks": 169344,
          "time": 176.4,
          "velocity": 0.6771653543307087
        },
        {
          "duration": 0.6999999999999886,
          "durationTicks": 672,
          "midi": 64,
          "name": "E4",
          "ticks": 169728,
          "time": 176.8,
          "velocity": 0.6771653543307087
        },
        {
          "duration": 0.4000000000000057,
          "durationTicks": 384,
          "midi": 65,
          "name": "F4",
          "ticks": 170688,
          "time": 177.8,
          "velocity": 0.6771653543307087
        },
        {
          "duration": 0.19999999999998863,
          "durationTicks": 192,
          "midi": 65,
          "name": "F4",
          "ticks": 171072,
          "time": 178.20000000000002,
          "velocity": 0.6771653543307087
        },
        {
          "duration": 0.19999999999998863,
          "durationTicks": 192,
          "midi": 69,
          "name": "A4",
          "ticks": 171072,
          "time": 178.20000000000002,
          "velocity": 0.6771653543307087
        },
        {
          "duration": 0.20000000000001705,
          "durationTicks": 192,
          "midi": 65,
          "name": "F4",
          "ticks": 171264,
          "time": 178.4,
          "velocity": 0.6771653543307087
        },
        {
          "duration": 0.20000000000001705,
          "durationTicks": 192,
          "midi": 72,
          "name": "C5",
          "ticks": 171264,
          "time": 178.4,
          "velocity": 0.6771653543307087
        },
        {
          "duration": 0.09999999999999432,
          "durationTicks": 96,
          "midi": 65,
          "name": "F4",
          "ticks": 171456,
          "time": 178.60000000000002,
          "velocity": 0.6771653543307087
        },
        {
          "duration": 0.09999999999999432,
          "durationTicks": 96,
          "midi": 72,
          "name": "C5",
          "ticks": 171456,
          "time": 178.60000000000002,
          "velocity": 0.6771653543307087
        },
        {
          "duration": 0.09999999999999432,
          "durationTicks": 96,
          "midi": 65,
          "name": "F4",
          "ticks": 171552,
          "time": 178.70000000000002,
          "velocity": 0.6771653543307087
        },
        {
          "duration": 0.09999999999999432,
          "durationTicks": 96,
          "midi": 72,
          "name": "C5",
          "ticks": 171552,
          "time": 178.70000000000002,
          "velocity": 0.6771653543307087
        },
        {
          "duration": 0.19999999999998863,
          "durationTicks": 192,
          "midi": 64,
          "name": "E4",
          "ticks": 171648,
          "time": 178.8,
          "velocity": 0.6771653543307087
        },
        {
          "duration": 0.19999999999998863,
          "durationTicks": 192,
          "midi": 71,
          "name": "B4",
          "ticks": 171648,
          "time": 178.8,
          "velocity": 0.6771653543307087
        },
        {
          "duration": 0.20000000000001705,
          "durationTicks": 192,
          "midi": 62,
          "name": "D4",
          "ticks": 171840,
          "time": 179,
          "velocity": 0.6771653543307087
        },
        {
          "duration": 0.20000000000001705,
          "durationTicks": 192,
          "midi": 69,
          "name": "A4",
          "ticks": 171840,
          "time": 179,
          "velocity": 0.6771653543307087
        },
        {
          "duration": 0.5,
          "durationTicks": 480,
          "midi": 60,
          "name": "C4",
          "ticks": 172032,
          "time": 179.20000000000002,
          "velocity": 0.6771653543307087
        },
        {
          "duration": 0.5,
          "durationTicks": 480,
          "midi": 67,
          "name": "G4",
          "ticks": 172032,
          "time": 179.20000000000002,
          "velocity": 0.6771653543307087
        },
        {
          "duration": 0.19999999999998863,
          "durationTicks": 192,
          "midi": 64,
          "name": "E4",
          "ticks": 172608,
          "time": 179.8,
          "velocity": 0.6771653543307087
        },
        {
          "duration": 0.20000000000001705,
          "durationTicks": 192,
          "midi": 67,
          "name": "G4",
          "ticks": 172800,
          "time": 180,
          "velocity": 0.6771653543307087
        },
        {
          "duration": 0.09999999999999432,
          "durationTicks": 96,
          "midi": 69,
          "name": "A4",
          "ticks": 172992,
          "time": 180.20000000000002,
          "velocity": 0.6771653543307087
        },
        {
          "duration": 0.09999999999999432,
          "durationTicks": 96,
          "midi": 67,
          "name": "G4",
          "ticks": 173088,
          "time": 180.3,
          "velocity": 0.6771653543307087
        },
        {
          "duration": 0.20000000000001705,
          "durationTicks": 192,
          "midi": 65,
          "name": "F4",
          "ticks": 173184,
          "time": 180.4,
          "velocity": 0.6771653543307087
        },
        {
          "duration": 0.19999999999998863,
          "durationTicks": 192,
          "midi": 64,
          "name": "E4",
          "ticks": 173376,
          "time": 180.60000000000002,
          "velocity": 0.6771653543307087
        },
        {
          "duration": 0.19999999999998863,
          "durationTicks": 192,
          "midi": 80,
          "name": "G#5",
          "ticks": 173568,
          "time": 180.8,
          "velocity": 0.6771653543307087
        },
        {
          "duration": 0.20000000000001705,
          "durationTicks": 192,
          "midi": 76,
          "name": "E5",
          "ticks": 173760,
          "time": 181,
          "velocity": 0.6771653543307087
        },
        {
          "duration": 0.19999999999998863,
          "durationTicks": 192,
          "midi": 80,
          "name": "G#5",
          "ticks": 173952,
          "time": 181.20000000000002,
          "velocity": 0.6771653543307087
        },
        {
          "duration": 0.20000000000001705,
          "durationTicks": 192,
          "midi": 81,
          "name": "A5",
          "ticks": 174144,
          "time": 181.4,
          "velocity": 0.6771653543307087
        },
        {
          "duration": 0.19999999999998863,
          "durationTicks": 192,
          "midi": 83,
          "name": "B5",
          "ticks": 174336,
          "time": 181.60000000000002,
          "velocity": 0.6771653543307087
        },
        {
          "duration": 0.19999999999998863,
          "durationTicks": 192,
          "midi": 80,
          "name": "G#5",
          "ticks": 174528,
          "time": 181.8,
          "velocity": 0.6771653543307087
        },
        {
          "duration": 0.20000000000001705,
          "durationTicks": 192,
          "midi": 84,
          "name": "C6",
          "ticks": 174720,
          "time": 182,
          "velocity": 0.6771653543307087
        },
        {
          "duration": 0.19999999999998863,
          "durationTicks": 192,
          "midi": 80,
          "name": "G#5",
          "ticks": 174912,
          "time": 182.20000000000002,
          "velocity": 0.6771653543307087
        },
        {
          "duration": 1.5,
          "durationTicks": 1440,
          "midi": 81,
          "name": "A5",
          "ticks": 175104,
          "time": 182.4,
          "velocity": 0.6771653543307087
        },
        {
          "duration": 0.29999999999998295,
          "durationTicks": 288,
          "midi": 71,
          "name": "B4",
          "ticks": 177792,
          "time": 185.20000000000002,
          "velocity": 0.6771653543307087
        },
        {
          "duration": 0.5,
          "durationTicks": 480,
          "midi": 72,
          "name": "C5",
          "ticks": 178176,
          "time": 185.60000000000002,
          "velocity": 0.6771653543307087
        },
        {
          "duration": 0.19999999999998863,
          "durationTicks": 192,
          "midi": 64,
          "name": "E4",
          "ticks": 178752,
          "time": 186.20000000000002,
          "velocity": 0.6771653543307087
        },
        {
          "duration": 0.20000000000001705,
          "durationTicks": 192,
          "midi": 72,
          "name": "C5",
          "ticks": 178944,
          "time": 186.4,
          "velocity": 0.6771653543307087
        },
        {
          "duration": 0.19999999999998863,
          "durationTicks": 192,
          "midi": 69,
          "name": "A4",
          "ticks": 179136,
          "time": 186.60000000000002,
          "velocity": 0.6771653543307087
        },
        {
          "duration": 0.30000000000001137,
          "durationTicks": 288,
          "midi": 64,
          "name": "E4",
          "ticks": 179328,
          "time": 186.8,
          "velocity": 0.6771653543307087
        },
        {
          "duration": 0.5,
          "durationTicks": 480,
          "midi": 71,
          "name": "B4",
          "ticks": 179712,
          "time": 187.20000000000002,
          "velocity": 0.6771653543307087
        },
        {
          "duration": 0.19999999999998863,
          "durationTicks": 192,
          "midi": 64,
          "name": "E4",
          "ticks": 180288,
          "time": 187.8,
          "velocity": 0.6771653543307087
        },
        {
          "duration": 0.20000000000001705,
          "durationTicks": 192,
          "midi": 71,
          "name": "B4",
          "ticks": 180480,
          "time": 188,
          "velocity": 0.6771653543307087
        },
        {
          "duration": 0.19999999999998863,
          "durationTicks": 192,
          "midi": 68,
          "name": "G#4",
          "ticks": 180672,
          "time": 188.20000000000002,
          "velocity": 0.6771653543307087
        },
        {
          "duration": 0.30000000000001137,
          "durationTicks": 288,
          "midi": 64,
          "name": "E4",
          "ticks": 180864,
          "time": 188.4,
          "velocity": 0.6771653543307087
        },
        {
          "duration": 0.5,
          "durationTicks": 480,
          "midi": 69,
          "name": "A4",
          "ticks": 181248,
          "time": 188.8,
          "velocity": 0.6771653543307087
        },
        {
          "duration": 0.20000000000001705,
          "durationTicks": 192,
          "midi": 64,
          "name": "E4",
          "ticks": 181824,
          "time": 189.4,
          "velocity": 0.6771653543307087
        },
        {
          "duration": 0.19999999999998863,
          "durationTicks": 192,
          "midi": 69,
          "name": "A4",
          "ticks": 182016,
          "time": 189.60000000000002,
          "velocity": 0.6771653543307087
        },
        {
          "duration": 0.19999999999998863,
          "durationTicks": 192,
          "midi": 64,
          "name": "E4",
          "ticks": 182208,
          "time": 189.8,
          "velocity": 0.6771653543307087
        },
        {
          "duration": 0.30000000000001137,
          "durationTicks": 288,
          "midi": 69,
          "name": "A4",
          "ticks": 182400,
          "time": 190,
          "velocity": 0.6771653543307087
        },
        {
          "duration": 0.30000000000001137,
          "durationTicks": 288,
          "midi": 68,
          "name": "G#4",
          "ticks": 182784,
          "time": 190.4,
          "velocity": 0.6771653543307087
        },
        {
          "duration": 0.19999999999998863,
          "durationTicks": 192,
          "midi": 64,
          "name": "E4",
          "ticks": 183168,
          "time": 190.8,
          "velocity": 0.6771653543307087
        },
        {
          "duration": 0.20000000000001705,
          "durationTicks": 192,
          "midi": 59,
          "name": "B3",
          "ticks": 183360,
          "time": 191,
          "velocity": 0.6771653543307087
        },
        {
          "duration": 0.19999999999998863,
          "durationTicks": 192,
          "midi": 71,
          "name": "B4",
          "ticks": 183552,
          "time": 191.20000000000002,
          "velocity": 0.6771653543307087
        },
        {
          "duration": 0.20000000000001705,
          "durationTicks": 192,
          "midi": 68,
          "name": "G#4",
          "ticks": 183744,
          "time": 191.4,
          "velocity": 0.6771653543307087
        },
        {
          "duration": 0.29999999999998295,
          "durationTicks": 288,
          "midi": 64,
          "name": "E4",
          "ticks": 183936,
          "time": 191.60000000000002,
          "velocity": 0.6771653543307087
        },
        {
          "duration": 0.5,
          "durationTicks": 480,
          "midi": 72,
          "name": "C5",
          "ticks": 184320,
          "time": 192,
          "velocity": 0.6771653543307087
        },
        {
          "duration": 0.19999999999998863,
          "durationTicks": 192,
          "midi": 64,
          "name": "E4",
          "ticks": 184896,
          "time": 192.60000000000002,
          "velocity": 0.6771653543307087
        },
        {
          "duration": 0.19999999999998863,
          "durationTicks": 192,
          "midi": 72,
          "name": "C5",
          "ticks": 185088,
          "time": 192.8,
          "velocity": 0.6771653543307087
        },
        {
          "duration": 0.20000000000001705,
          "durationTicks": 192,
          "midi": 69,
          "name": "A4",
          "ticks": 185280,
          "time": 193,
          "velocity": 0.6771653543307087
        },
        {
          "duration": 0.29999999999998295,
          "durationTicks": 288,
          "midi": 64,
          "name": "E4",
          "ticks": 185472,
          "time": 193.20000000000002,
          "velocity": 0.6771653543307087
        },
        {
          "duration": 0.5,
          "durationTicks": 480,
          "midi": 71,
          "name": "B4",
          "ticks": 185856,
          "time": 193.60000000000002,
          "velocity": 0.6771653543307087
        },
        {
          "duration": 0.19999999999998863,
          "durationTicks": 192,
          "midi": 64,
          "name": "E4",
          "ticks": 186432,
          "time": 194.20000000000002,
          "velocity": 0.6771653543307087
        },
        {
          "duration": 0.20000000000001705,
          "durationTicks": 192,
          "midi": 71,
          "name": "B4",
          "ticks": 186624,
          "time": 194.4,
          "velocity": 0.6771653543307087
        },
        {
          "duration": 0.19999999999998863,
          "durationTicks": 192,
          "midi": 68,
          "name": "G#4",
          "ticks": 186816,
          "time": 194.60000000000002,
          "velocity": 0.6771653543307087
        },
        {
          "duration": 0.30000000000001137,
          "durationTicks": 288,
          "midi": 64,
          "name": "E4",
          "ticks": 187008,
          "time": 194.8,
          "velocity": 0.6771653543307087
        },
        {
          "duration": 0.5,
          "durationTicks": 480,
          "midi": 69,
          "name": "A4",
          "ticks": 187392,
          "time": 195.20000000000002,
          "velocity": 0.6771653543307087
        },
        {
          "duration": 0.19999999999998863,
          "durationTicks": 192,
          "midi": 64,
          "name": "E4",
          "ticks": 187968,
          "time": 195.8,
          "velocity": 0.6771653543307087
        },
        {
          "duration": 0.20000000000001705,
          "durationTicks": 192,
          "midi": 69,
          "name": "A4",
          "ticks": 188160,
          "time": 196,
          "velocity": 0.6771653543307087
        },
        {
          "duration": 0.19999999999998863,
          "durationTicks": 192,
          "midi": 64,
          "name": "E4",
          "ticks": 188352,
          "time": 196.20000000000002,
          "velocity": 0.6771653543307087
        },
        {
          "duration": 0.30000000000001137,
          "durationTicks": 288,
          "midi": 69,
          "name": "A4",
          "ticks": 188544,
          "time": 196.4,
          "velocity": 0.6771653543307087
        },
        {
          "duration": 0.30000000000001137,
          "durationTicks": 288,
          "midi": 68,
          "name": "G#4",
          "ticks": 188928,
          "time": 196.8,
          "velocity": 0.6771653543307087
        },
        {
          "duration": 0.19999999999998863,
          "durationTicks": 192,
          "midi": 64,
          "name": "E4",
          "ticks": 189312,
          "time": 197.20000000000002,
          "velocity": 0.6771653543307087
        },
        {
          "duration": 0.20000000000001705,
          "durationTicks": 192,
          "midi": 59,
          "name": "B3",
          "ticks": 189504,
          "time": 197.4,
          "velocity": 0.6771653543307087
        },
        {
          "duration": 0.19999999999998863,
          "durationTicks": 192,
          "midi": 68,
          "name": "G#4",
          "ticks": 189888,
          "time": 197.8,
          "velocity": 0.6771653543307087
        },
        {
          "duration": 0.30000000000001137,
          "durationTicks": 288,
          "midi": 64,
          "name": "E4",
          "ticks": 190080,
          "time": 198,
          "velocity": 0.6771653543307087
        },
        {
          "duration": 1.5,
          "durationTicks": 1440,
          "midi": 64,
          "name": "E4",
          "ticks": 190464,
          "time": 198.4,
          "velocity": 0.6771653543307087
        },
        {
          "duration": 1.5,
          "durationTicks": 1440,
          "midi": 64,
          "name": "E4",
          "ticks": 192000,
          "time": 200,
          "velocity": 0.6771653543307087
        },
        {
          "duration": 0.30000000000001137,
          "durationTicks": 288,
          "midi": 71,
          "name": "B4",
          "ticks": 194688,
          "time": 202.8,
          "velocity": 0.6771653543307087
        },
        {
          "duration": 0.6999999999999886,
          "durationTicks": 672,
          "midi": 72,
          "name": "C5",
          "ticks": 195072,
          "time": 203.20000000000002,
          "velocity": 0.6771653543307087
        },
        {
          "duration": 0.20000000000001705,
          "durationTicks": 192,
          "midi": 76,
          "name": "E5",
          "ticks": 195840,
          "time": 204,
          "velocity": 0.6771653543307087
        },
        {
          "duration": 0.19999999999998863,
          "durationTicks": 192,
          "midi": 69,
          "name": "A4",
          "ticks": 196032,
          "time": 204.20000000000002,
          "velocity": 0.6771653543307087
        },
        {
          "duration": 0.20000000000001705,
          "durationTicks": 192,
          "midi": 76,
          "name": "E5",
          "ticks": 196224,
          "time": 204.4,
          "velocity": 0.6771653543307087
        },
        {
          "duration": 0.19999999999998863,
          "durationTicks": 192,
          "midi": 69,
          "name": "A4",
          "ticks": 196416,
          "time": 204.60000000000002,
          "velocity": 0.6771653543307087
        },
        {
          "duration": 0.19999999999998863,
          "durationTicks": 192,
          "midi": 76,
          "name": "E5",
          "ticks": 196608,
          "time": 204.8,
          "velocity": 0.6771653543307087
        },
        {
          "duration": 0.20000000000001705,
          "durationTicks": 192,
          "midi": 68,
          "name": "G#4",
          "ticks": 196800,
          "time": 205,
          "velocity": 0.6771653543307087
        },
        {
          "duration": 0.19999999999998863,
          "durationTicks": 192,
          "midi": 76,
          "name": "E5",
          "ticks": 196992,
          "time": 205.20000000000002,
          "velocity": 0.6771653543307087
        },
        {
          "duration": 0.20000000000001705,
          "durationTicks": 192,
          "midi": 68,
          "name": "G#4",
          "ticks": 197184,
          "time": 205.4,
          "velocity": 0.6771653543307087
        },
        {
          "duration": 0.6999999999999886,
          "durationTicks": 672,
          "midi": 76,
          "name": "E5",
          "ticks": 197376,
          "time": 205.60000000000002,
          "velocity": 0.6771653543307087
        },
        {
          "duration": 0.700000000000017,
          "durationTicks": 672,
          "midi": 69,
          "name": "A4",
          "ticks": 198144,
          "time": 206.4,
          "velocity": 0.6771653543307087
        },
        {
          "duration": 0.29999999999998295,
          "durationTicks": 288,
          "midi": 64,
          "name": "E4",
          "ticks": 198912,
          "time": 207.20000000000002,
          "velocity": 0.6771653543307087
        },
        {
          "duration": 0.29999999999998295,
          "durationTicks": 288,
          "midi": 60,
          "name": "C4",
          "ticks": 199296,
          "time": 207.60000000000002,
          "velocity": 0.6771653543307087
        },
        {
          "duration": 0.10000000000002274,
          "durationTicks": 96,
          "midi": 59,
          "name": "B3",
          "ticks": 199680,
          "time": 208,
          "velocity": 0.6771653543307087
        },
        {
          "duration": 0.09999999999999432,
          "durationTicks": 96,
          "midi": 64,
          "name": "E4",
          "ticks": 199776,
          "time": 208.10000000000002,
          "velocity": 0.6771653543307087
        },
        {
          "duration": 0.09999999999999432,
          "durationTicks": 96,
          "midi": 59,
          "name": "B3",
          "ticks": 199872,
          "time": 208.20000000000002,
          "velocity": 0.6771653543307087
        },
        {
          "duration": 0.09999999999999432,
          "durationTicks": 96,
          "midi": 64,
          "name": "E4",
          "ticks": 199968,
          "time": 208.3,
          "velocity": 0.6771653543307087
        },
        {
          "duration": 0.09999999999999432,
          "durationTicks": 96,
          "midi": 59,
          "name": "B3",
          "ticks": 200064,
          "time": 208.4,
          "velocity": 0.6771653543307087
        },
        {
          "duration": 0.10000000000002274,
          "durationTicks": 96,
          "midi": 64,
          "name": "E4",
          "ticks": 200160,
          "time": 208.5,
          "velocity": 0.6771653543307087
        },
        {
          "duration": 0.09999999999999432,
          "durationTicks": 96,
          "midi": 59,
          "name": "B3",
          "ticks": 200256,
          "time": 208.60000000000002,
          "velocity": 0.6771653543307087
        },
        {
          "duration": 0.09999999999999432,
          "durationTicks": 96,
          "midi": 64,
          "name": "E4",
          "ticks": 200352,
          "time": 208.70000000000002,
          "velocity": 0.6771653543307087
        },
        {
          "duration": 0.6999999999999886,
          "durationTicks": 672,
          "midi": 64,
          "name": "E4",
          "ticks": 200448,
          "time": 208.8,
          "velocity": 0.6771653543307087
        },
        {
          "duration": 1.5,
          "durationTicks": 1440,
          "midi": 64,
          "name": "E4",
          "ticks": 201216,
          "time": 209.60000000000002,
          "velocity": 0.6771653543307087
        },
        {
          "duration": 1.5,
          "durationTicks": 1440,
          "midi": 64,
          "name": "E4",
          "ticks": 202752,
          "time": 211.20000000000002,
          "velocity": 0.6771653543307087
        },
        {
          "duration": 1.5,
          "durationTicks": 1440,
          "midi": 76,
          "name": "E5",
          "ticks": 204288,
          "time": 212.8,
          "velocity": 0.6771653543307087
        },
        {
          "duration": 1.5,
          "durationTicks": 1440,
          "midi": 76,
          "name": "E5",
          "ticks": 205824,
          "time": 214.4,
          "velocity": 0.6771653543307087
        },
        {
          "duration": 1.5,
          "durationTicks": 1440,
          "midi": 64,
          "name": "E4",
          "ticks": 207360,
          "time": 216,
          "velocity": 0.6771653543307087
        }
      ],
      "endOfTrackTicks": 208800
    },
    {
      "channel": 6,
      "controlChanges": {},
      "pitchBends": [],
      "instrument": {
        "family": "bass",
        "number": 36,
        "name": "slap bass 1"
      },
      "name": "Slap Bass",
      "notes": [
        {
          "duration": 0.1999999999999993,
          "durationTicks": 192,
          "midi": 45,
          "name": "A2",
          "ticks": 12288,
          "time": 12.8,
          "velocity": 0.6771653543307087
        },
        {
          "duration": 0.20000000000000107,
          "durationTicks": 192,
          "midi": 52,
          "name": "E3",
          "ticks": 12480,
          "time": 13,
          "velocity": 0.6771653543307087
        },
        {
          "duration": 0.1999999999999993,
          "durationTicks": 192,
          "midi": 45,
          "name": "A2",
          "ticks": 12672,
          "time": 13.200000000000001,
          "velocity": 0.6771653543307087
        },
        {
          "duration": 0.20000000000000107,
          "durationTicks": 192,
          "midi": 52,
          "name": "E3",
          "ticks": 12864,
          "time": 13.4,
          "velocity": 0.6771653543307087
        },
        {
          "duration": 0.1999999999999993,
          "durationTicks": 192,
          "midi": 45,
          "name": "A2",
          "ticks": 13056,
          "time": 13.600000000000001,
          "velocity": 0.6771653543307087
        },
        {
          "duration": 0.1999999999999993,
          "durationTicks": 192,
          "midi": 52,
          "name": "E3",
          "ticks": 13248,
          "time": 13.8,
          "velocity": 0.6771653543307087
        },
        {
          "duration": 0.20000000000000107,
          "durationTicks": 192,
          "midi": 45,
          "name": "A2",
          "ticks": 13440,
          "time": 14,
          "velocity": 0.6771653543307087
        },
        {
          "duration": 0.1999999999999993,
          "durationTicks": 192,
          "midi": 52,
          "name": "E3",
          "ticks": 13632,
          "time": 14.200000000000001,
          "velocity": 0.6771653543307087
        },
        {
          "duration": 0.20000000000000107,
          "durationTicks": 192,
          "midi": 45,
          "name": "A2",
          "ticks": 13824,
          "time": 14.4,
          "velocity": 0.6771653543307087
        },
        {
          "duration": 0.1999999999999993,
          "durationTicks": 192,
          "midi": 52,
          "name": "E3",
          "ticks": 14016,
          "time": 14.600000000000001,
          "velocity": 0.6771653543307087
        },
        {
          "duration": 0.1999999999999993,
          "durationTicks": 192,
          "midi": 45,
          "name": "A2",
          "ticks": 14208,
          "time": 14.8,
          "velocity": 0.6771653543307087
        },
        {
          "duration": 0.20000000000000107,
          "durationTicks": 192,
          "midi": 52,
          "name": "E3",
          "ticks": 14400,
          "time": 15,
          "velocity": 0.6771653543307087
        },
        {
          "duration": 0.1999999999999993,
          "durationTicks": 192,
          "midi": 45,
          "name": "A2",
          "ticks": 14592,
          "time": 15.200000000000001,
          "velocity": 0.6771653543307087
        },
        {
          "duration": 0.20000000000000107,
          "durationTicks": 192,
          "midi": 52,
          "name": "E3",
          "ticks": 14784,
          "time": 15.4,
          "velocity": 0.6771653543307087
        },
        {
          "duration": 0.1999999999999993,
          "durationTicks": 192,
          "midi": 45,
          "name": "A2",
          "ticks": 14976,
          "time": 15.600000000000001,
          "velocity": 0.6771653543307087
        },
        {
          "duration": 0.1999999999999993,
          "durationTicks": 192,
          "midi": 52,
          "name": "E3",
          "ticks": 15168,
          "time": 15.8,
          "velocity": 0.6771653543307087
        },
        {
          "duration": 0.1999999999999993,
          "durationTicks": 192,
          "midi": 45,
          "name": "A2",
          "ticks": 15360,
          "time": 16,
          "velocity": 0.6771653543307087
        },
        {
          "duration": 0.20000000000000284,
          "durationTicks": 192,
          "midi": 52,
          "name": "E3",
          "ticks": 15552,
          "time": 16.2,
          "velocity": 0.6771653543307087
        },
        {
          "duration": 0.1999999999999993,
          "durationTicks": 192,
          "midi": 45,
          "name": "A2",
          "ticks": 15744,
          "time": 16.400000000000002,
          "velocity": 0.6771653543307087
        },
        {
          "duration": 0.1999999999999993,
          "durationTicks": 192,
          "midi": 52,
          "name": "E3",
          "ticks": 15936,
          "time": 16.6,
          "velocity": 0.6771653543307087
        },
        {
          "duration": 0.1999999999999993,
          "durationTicks": 192,
          "midi": 45,
          "name": "A2",
          "ticks": 16128,
          "time": 16.8,
          "velocity": 0.6771653543307087
        },
        {
          "duration": 0.1999999999999993,
          "durationTicks": 192,
          "midi": 52,
          "name": "E3",
          "ticks": 16320,
          "time": 17,
          "velocity": 0.6771653543307087
        },
        {
          "duration": 0.20000000000000284,
          "durationTicks": 192,
          "midi": 45,
          "name": "A2",
          "ticks": 16512,
          "time": 17.2,
          "velocity": 0.6771653543307087
        },
        {
          "duration": 0.1999999999999993,
          "durationTicks": 192,
          "midi": 52,
          "name": "E3",
          "ticks": 16704,
          "time": 17.400000000000002,
          "velocity": 0.6771653543307087
        },
        {
          "duration": 0.1999999999999993,
          "durationTicks": 192,
          "midi": 44,
          "name": "G#2",
          "ticks": 16896,
          "time": 17.6,
          "velocity": 0.6771653543307087
        },
        {
          "duration": 0.1999999999999993,
          "durationTicks": 192,
          "midi": 52,
          "name": "E3",
          "ticks": 17088,
          "time": 17.8,
          "velocity": 0.6771653543307087
        },
        {
          "duration": 0.1999999999999993,
          "durationTicks": 192,
          "midi": 44,
          "name": "G#2",
          "ticks": 17280,
          "time": 18,
          "velocity": 0.6771653543307087
        },
        {
          "duration": 0.20000000000000284,
          "durationTicks": 192,
          "midi": 52,
          "name": "E3",
          "ticks": 17472,
          "time": 18.2,
          "velocity": 0.6771653543307087
        },
        {
          "duration": 0.1999999999999993,
          "durationTicks": 192,
          "midi": 44,
          "name": "G#2",
          "ticks": 17664,
          "time": 18.400000000000002,
          "velocity": 0.6771653543307087
        },
        {
          "duration": 0.1999999999999993,
          "durationTicks": 192,
          "midi": 52,
          "name": "E3",
          "ticks": 17856,
          "time": 18.6,
          "velocity": 0.6771653543307087
        },
        {
          "duration": 0.1999999999999993,
          "durationTicks": 192,
          "midi": 44,
          "name": "G#2",
          "ticks": 18048,
          "time": 18.8,
          "velocity": 0.6771653543307087
        },
        {
          "duration": 0.20000000000000284,
          "durationTicks": 192,
          "midi": 52,
          "name": "E3",
          "ticks": 18240,
          "time": 19,
          "velocity": 0.6771653543307087
        },
        {
          "duration": 0.1999999999999993,
          "durationTicks": 192,
          "midi": 45,
          "name": "A2",
          "ticks": 18432,
          "time": 19.200000000000003,
          "velocity": 0.6771653543307087
        },
        {
          "duration": 0.1999999999999993,
          "durationTicks": 192,
          "midi": 52,
          "name": "E3",
          "ticks": 18624,
          "time": 19.400000000000002,
          "velocity": 0.6771653543307087
        },
        {
          "duration": 0.1999999999999993,
          "durationTicks": 192,
          "midi": 45,
          "name": "A2",
          "ticks": 18816,
          "time": 19.6,
          "velocity": 0.6771653543307087
        },
        {
          "duration": 0.1999999999999993,
          "durationTicks": 192,
          "midi": 52,
          "name": "E3",
          "ticks": 19008,
          "time": 19.8,
          "velocity": 0.6771653543307087
        },
        {
          "duration": 0.20000000000000284,
          "durationTicks": 192,
          "midi": 45,
          "name": "A2",
          "ticks": 19200,
          "time": 20,
          "velocity": 0.6771653543307087
        },
        {
          "duration": 0.1999999999999993,
          "durationTicks": 192,
          "midi": 52,
          "name": "E3",
          "ticks": 19392,
          "time": 20.200000000000003,
          "velocity": 0.6771653543307087
        },
        {
          "duration": 0.1999999999999993,
          "durationTicks": 192,
          "midi": 45,
          "name": "A2",
          "ticks": 19584,
          "time": 20.400000000000002,
          "velocity": 0.6771653543307087
        },
        {
          "duration": 0.1999999999999993,
          "durationTicks": 192,
          "midi": 52,
          "name": "E3",
          "ticks": 19776,
          "time": 20.6,
          "velocity": 0.6771653543307087
        },
        {
          "duration": 0.1999999999999993,
          "durationTicks": 192,
          "midi": 44,
          "name": "G#2",
          "ticks": 19968,
          "time": 20.8,
          "velocity": 0.6771653543307087
        },
        {
          "duration": 0.20000000000000284,
          "durationTicks": 192,
          "midi": 52,
          "name": "E3",
          "ticks": 20160,
          "time": 21,
          "velocity": 0.6771653543307087
        },
        {
          "duration": 0.1999999999999993,
          "durationTicks": 192,
          "midi": 44,
          "name": "G#2",
          "ticks": 20352,
          "time": 21.200000000000003,
          "velocity": 0.6771653543307087
        },
        {
          "duration": 0.1999999999999993,
          "durationTicks": 192,
          "midi": 52,
          "name": "E3",
          "ticks": 20544,
          "time": 21.400000000000002,
          "velocity": 0.6771653543307087
        },
        {
          "duration": 0.1999999999999993,
          "durationTicks": 192,
          "midi": 44,
          "name": "G#2",
          "ticks": 20736,
          "time": 21.6,
          "velocity": 0.6771653543307087
        },
        {
          "duration": 0.1999999999999993,
          "durationTicks": 192,
          "midi": 52,
          "name": "E3",
          "ticks": 20928,
          "time": 21.8,
          "velocity": 0.6771653543307087
        },
        {
          "duration": 0.20000000000000284,
          "durationTicks": 192,
          "midi": 44,
          "name": "G#2",
          "ticks": 21120,
          "time": 22,
          "velocity": 0.6771653543307087
        },
        {
          "duration": 0.1999999999999993,
          "durationTicks": 192,
          "midi": 52,
          "name": "E3",
          "ticks": 21312,
          "time": 22.200000000000003,
          "velocity": 0.6771653543307087
        },
        {
          "duration": 0.1999999999999993,
          "durationTicks": 192,
          "midi": 45,
          "name": "A2",
          "ticks": 21504,
          "time": 22.400000000000002,
          "velocity": 0.6771653543307087
        },
        {
          "duration": 0.1999999999999993,
          "durationTicks": 192,
          "midi": 52,
          "name": "E3",
          "ticks": 21696,
          "time": 22.6,
          "velocity": 0.6771653543307087
        },
        {
          "duration": 0.1999999999999993,
          "durationTicks": 192,
          "midi": 45,
          "name": "A2",
          "ticks": 21888,
          "time": 22.8,
          "velocity": 0.6771653543307087
        },
        {
          "duration": 0.20000000000000284,
          "durationTicks": 192,
          "midi": 52,
          "name": "E3",
          "ticks": 22080,
          "time": 23,
          "velocity": 0.6771653543307087
        },
        {
          "duration": 0.1999999999999993,
          "durationTicks": 192,
          "midi": 45,
          "name": "A2",
          "ticks": 22272,
          "time": 23.200000000000003,
          "velocity": 0.6771653543307087
        },
        {
          "duration": 0.1999999999999993,
          "durationTicks": 192,
          "midi": 52,
          "name": "E3",
          "ticks": 22464,
          "time": 23.400000000000002,
          "velocity": 0.6771653543307087
        },
        {
          "duration": 0.1999999999999993,
          "durationTicks": 192,
          "midi": 45,
          "name": "A2",
          "ticks": 22656,
          "time": 23.6,
          "velocity": 0.6771653543307087
        },
        {
          "duration": 0.1999999999999993,
          "durationTicks": 192,
          "midi": 52,
          "name": "E3",
          "ticks": 22848,
          "time": 23.8,
          "velocity": 0.6771653543307087
        },
        {
          "duration": 0.20000000000000284,
          "durationTicks": 192,
          "midi": 44,
          "name": "G#2",
          "ticks": 23040,
          "time": 24,
          "velocity": 0.6771653543307087
        },
        {
          "duration": 0.1999999999999993,
          "durationTicks": 192,
          "midi": 52,
          "name": "E3",
          "ticks": 23232,
          "time": 24.200000000000003,
          "velocity": 0.6771653543307087
        },
        {
          "duration": 0.1999999999999993,
          "durationTicks": 192,
          "midi": 44,
          "name": "G#2",
          "ticks": 23424,
          "time": 24.400000000000002,
          "velocity": 0.6771653543307087
        },
        {
          "duration": 0.1999999999999993,
          "durationTicks": 192,
          "midi": 52,
          "name": "E3",
          "ticks": 23616,
          "time": 24.6,
          "velocity": 0.6771653543307087
        },
        {
          "duration": 0.1999999999999993,
          "durationTicks": 192,
          "midi": 44,
          "name": "G#2",
          "ticks": 23808,
          "time": 24.8,
          "velocity": 0.6771653543307087
        },
        {
          "duration": 0.20000000000000284,
          "durationTicks": 192,
          "midi": 52,
          "name": "E3",
          "ticks": 24000,
          "time": 25,
          "velocity": 0.6771653543307087
        },
        {
          "duration": 0.1999999999999993,
          "durationTicks": 192,
          "midi": 44,
          "name": "G#2",
          "ticks": 24192,
          "time": 25.200000000000003,
          "velocity": 0.6771653543307087
        },
        {
          "duration": 0.1999999999999993,
          "durationTicks": 192,
          "midi": 52,
          "name": "E3",
          "ticks": 24384,
          "time": 25.400000000000002,
          "velocity": 0.6771653543307087
        },
        {
          "duration": 0.1999999999999993,
          "durationTicks": 192,
          "midi": 45,
          "name": "A2",
          "ticks": 24576,
          "time": 25.6,
          "velocity": 0.6771653543307087
        },
        {
          "duration": 0.1999999999999993,
          "durationTicks": 192,
          "midi": 52,
          "name": "E3",
          "ticks": 24768,
          "time": 25.8,
          "velocity": 0.6771653543307087
        },
        {
          "duration": 0.20000000000000284,
          "durationTicks": 192,
          "midi": 45,
          "name": "A2",
          "ticks": 24960,
          "time": 26,
          "velocity": 0.6771653543307087
        },
        {
          "duration": 0.1999999999999993,
          "durationTicks": 192,
          "midi": 52,
          "name": "E3",
          "ticks": 25152,
          "time": 26.200000000000003,
          "velocity": 0.6771653543307087
        },
        {
          "duration": 0.1999999999999993,
          "durationTicks": 192,
          "midi": 45,
          "name": "A2",
          "ticks": 25344,
          "time": 26.400000000000002,
          "velocity": 0.6771653543307087
        },
        {
          "duration": 0.1999999999999993,
          "durationTicks": 192,
          "midi": 52,
          "name": "E3",
          "ticks": 25536,
          "time": 26.6,
          "velocity": 0.6771653543307087
        },
        {
          "duration": 0.1999999999999993,
          "durationTicks": 192,
          "midi": 45,
          "name": "A2",
          "ticks": 25728,
          "time": 26.8,
          "velocity": 0.6771653543307087
        },
        {
          "duration": 0.20000000000000284,
          "durationTicks": 192,
          "midi": 52,
          "name": "E3",
          "ticks": 25920,
          "time": 27,
          "velocity": 0.6771653543307087
        },
        {
          "duration": 0.1999999999999993,
          "durationTicks": 192,
          "midi": 44,
          "name": "G#2",
          "ticks": 26112,
          "time": 27.200000000000003,
          "velocity": 0.6771653543307087
        },
        {
          "duration": 0.1999999999999993,
          "durationTicks": 192,
          "midi": 52,
          "name": "E3",
          "ticks": 26304,
          "time": 27.400000000000002,
          "velocity": 0.6771653543307087
        },
        {
          "duration": 0.1999999999999993,
          "durationTicks": 192,
          "midi": 44,
          "name": "G#2",
          "ticks": 26496,
          "time": 27.6,
          "velocity": 0.6771653543307087
        },
        {
          "duration": 0.1999999999999993,
          "durationTicks": 192,
          "midi": 52,
          "name": "E3",
          "ticks": 26688,
          "time": 27.8,
          "velocity": 0.6771653543307087
        },
        {
          "duration": 0.1999999999999993,
          "durationTicks": 192,
          "midi": 40,
          "name": "E2",
          "ticks": 27648,
          "time": 28.8,
          "velocity": 0.6771653543307087
        },
        {
          "duration": 0.20000000000000284,
          "durationTicks": 192,
          "midi": 52,
          "name": "E3",
          "ticks": 27840,
          "time": 29,
          "velocity": 0.6771653543307087
        },
        {
          "duration": 0.1999999999999993,
          "durationTicks": 192,
          "midi": 40,
          "name": "E2",
          "ticks": 28032,
          "time": 29.200000000000003,
          "velocity": 0.6771653543307087
        },
        {
          "duration": 0.1999999999999993,
          "durationTicks": 192,
          "midi": 52,
          "name": "E3",
          "ticks": 28224,
          "time": 29.400000000000002,
          "velocity": 0.6771653543307087
        },
        {
          "duration": 0.1999999999999993,
          "durationTicks": 192,
          "midi": 40,
          "name": "E2",
          "ticks": 28416,
          "time": 29.6,
          "velocity": 0.6771653543307087
        },
        {
          "duration": 0.1999999999999993,
          "durationTicks": 192,
          "midi": 52,
          "name": "E3",
          "ticks": 28608,
          "time": 29.8,
          "velocity": 0.6771653543307087
        },
        {
          "duration": 0.20000000000000284,
          "durationTicks": 192,
          "midi": 40,
          "name": "E2",
          "ticks": 28800,
          "time": 30,
          "velocity": 0.6771653543307087
        },
        {
          "duration": 0.1999999999999993,
          "durationTicks": 192,
          "midi": 52,
          "name": "E3",
          "ticks": 28992,
          "time": 30.200000000000003,
          "velocity": 0.6771653543307087
        },
        {
          "duration": 0.1999999999999993,
          "durationTicks": 192,
          "midi": 45,
          "name": "A2",
          "ticks": 29184,
          "time": 30.400000000000002,
          "velocity": 0.6771653543307087
        },
        {
          "duration": 0.1999999999999993,
          "durationTicks": 192,
          "midi": 57,
          "name": "A3",
          "ticks": 29376,
          "time": 30.6,
          "velocity": 0.6771653543307087
        },
        {
          "duration": 0.1999999999999993,
          "durationTicks": 192,
          "midi": 45,
          "name": "A2",
          "ticks": 29568,
          "time": 30.8,
          "velocity": 0.6771653543307087
        },
        {
          "duration": 0.20000000000000284,
          "durationTicks": 192,
          "midi": 57,
          "name": "A3",
          "ticks": 29760,
          "time": 31,
          "velocity": 0.6771653543307087
        },
        {
          "duration": 0.1999999999999993,
          "durationTicks": 192,
          "midi": 45,
          "name": "A2",
          "ticks": 29952,
          "time": 31.200000000000003,
          "velocity": 0.6771653543307087
        },
        {
          "duration": 0.1999999999999993,
          "durationTicks": 192,
          "midi": 57,
          "name": "A3",
          "ticks": 30144,
          "time": 31.400000000000002,
          "velocity": 0.6771653543307087
        },
        {
          "duration": 0.1999999999999993,
          "durationTicks": 192,
          "midi": 45,
          "name": "A2",
          "ticks": 30336,
          "time": 31.6,
          "velocity": 0.6771653543307087
        },
        {
          "duration": 0.1999999999999993,
          "durationTicks": 192,
          "midi": 57,
          "name": "A3",
          "ticks": 30528,
          "time": 31.8,
          "velocity": 0.6771653543307087
        },
        {
          "duration": 0.20000000000000284,
          "durationTicks": 192,
          "midi": 44,
          "name": "G#2",
          "ticks": 30720,
          "time": 32,
          "velocity": 0.6771653543307087
        },
        {
          "duration": 0.19999999999999574,
          "durationTicks": 192,
          "midi": 56,
          "name": "G#3",
          "ticks": 30912,
          "time": 32.2,
          "velocity": 0.6771653543307087
        },
        {
          "duration": 0.20000000000000284,
          "durationTicks": 192,
          "midi": 44,
          "name": "G#2",
          "ticks": 31104,
          "time": 32.4,
          "velocity": 0.6771653543307087
        },
        {
          "duration": 0.20000000000000284,
          "durationTicks": 192,
          "midi": 56,
          "name": "G#3",
          "ticks": 31296,
          "time": 32.6,
          "velocity": 0.6771653543307087
        },
        {
          "duration": 0.19999999999999574,
          "durationTicks": 192,
          "midi": 40,
          "name": "E2",
          "ticks": 31488,
          "time": 32.800000000000004,
          "velocity": 0.6771653543307087
        },
        {
          "duration": 0.20000000000000284,
          "durationTicks": 192,
          "midi": 52,
          "name": "E3",
          "ticks": 31680,
          "time": 33,
          "velocity": 0.6771653543307087
        },
        {
          "duration": 0.19999999999999574,
          "durationTicks": 192,
          "midi": 40,
          "name": "E2",
          "ticks": 31872,
          "time": 33.2,
          "velocity": 0.6771653543307087
        },
        {
          "duration": 0.20000000000000284,
          "durationTicks": 192,
          "midi": 52,
          "name": "E3",
          "ticks": 32064,
          "time": 33.4,
          "velocity": 0.6771653543307087
        },
        {
          "duration": 0.20000000000000284,
          "durationTicks": 192,
          "midi": 45,
          "name": "A2",
          "ticks": 32256,
          "time": 33.6,
          "velocity": 0.6771653543307087
        },
        {
          "duration": 0.19999999999999574,
          "durationTicks": 192,
          "midi": 57,
          "name": "A3",
          "ticks": 32448,
          "time": 33.800000000000004,
          "velocity": 0.6771653543307087
        },
        {
          "duration": 0.20000000000000284,
          "durationTicks": 192,
          "midi": 45,
          "name": "A2",
          "ticks": 32640,
          "time": 34,
          "velocity": 0.6771653543307087
        },
        {
          "duration": 0.19999999999999574,
          "durationTicks": 192,
          "midi": 57,
          "name": "A3",
          "ticks": 32832,
          "time": 34.2,
          "velocity": 0.6771653543307087
        },
        {
          "duration": 0.20000000000000284,
          "durationTicks": 192,
          "midi": 45,
          "name": "A2",
          "ticks": 33024,
          "time": 34.4,
          "velocity": 0.6771653543307087
        },
        {
          "duration": 0.20000000000000284,
          "durationTicks": 192,
          "midi": 57,
          "name": "A3",
          "ticks": 33216,
          "time": 34.6,
          "velocity": 0.6771653543307087
        },
        {
          "duration": 0.19999999999999574,
          "durationTicks": 192,
          "midi": 47,
          "name": "B2",
          "ticks": 33408,
          "time": 34.800000000000004,
          "velocity": 0.6771653543307087
        },
        {
          "duration": 0.20000000000000284,
          "durationTicks": 192,
          "midi": 48,
          "name": "C3",
          "ticks": 33600,
          "time": 35,
          "velocity": 0.6771653543307087
        },
        {
          "duration": 0.19999999999999574,
          "durationTicks": 192,
          "midi": 50,
          "name": "D3",
          "ticks": 33792,
          "time": 35.2,
          "velocity": 0.6771653543307087
        },
        {
          "duration": 0.20000000000000284,
          "durationTicks": 192,
          "midi": 38,
          "name": "D2",
          "ticks": 33984,
          "time": 35.4,
          "velocity": 0.6771653543307087
        },
        {
          "duration": 0.19999999999999574,
          "durationTicks": 192,
          "midi": 38,
          "name": "D2",
          "ticks": 34368,
          "time": 35.800000000000004,
          "velocity": 0.6771653543307087
        },
        {
          "duration": 0.19999999999999574,
          "durationTicks": 192,
          "midi": 38,
          "name": "D2",
          "ticks": 34752,
          "time": 36.2,
          "velocity": 0.6771653543307087
        },
        {
          "duration": 0.20000000000000284,
          "durationTicks": 192,
          "midi": 45,
          "name": "A2",
          "ticks": 34944,
          "time": 36.4,
          "velocity": 0.6771653543307087
        },
        {
          "duration": 0.20000000000000284,
          "durationTicks": 192,
          "midi": 41,
          "name": "F2",
          "ticks": 35136,
          "time": 36.6,
          "velocity": 0.6771653543307087
        },
        {
          "duration": 0.19999999999999574,
          "durationTicks": 192,
          "midi": 36,
          "name": "C2",
          "ticks": 35328,
          "time": 36.800000000000004,
          "velocity": 0.6771653543307087
        },
        {
          "duration": 0.20000000000000284,
          "durationTicks": 192,
          "midi": 48,
          "name": "C3",
          "ticks": 35520,
          "time": 37,
          "velocity": 0.6771653543307087
        },
        {
          "duration": 0.20000000000000284,
          "durationTicks": 192,
          "midi": 48,
          "name": "C3",
          "ticks": 35904,
          "time": 37.4,
          "velocity": 0.6771653543307087
        },
        {
          "duration": 0.20000000000000284,
          "durationTicks": 192,
          "midi": 36,
          "name": "C2",
          "ticks": 36096,
          "time": 37.6,
          "velocity": 0.6771653543307087
        },
        {
          "duration": 0.19999999999999574,
          "durationTicks": 192,
          "midi": 43,
          "name": "G2",
          "ticks": 36288,
          "time": 37.800000000000004,
          "velocity": 0.6771653543307087
        },
        {
          "duration": 0.30000000000000426,
          "durationTicks": 288,
          "midi": 43,
          "name": "G2",
          "ticks": 36480,
          "time": 38,
          "velocity": 0.6771653543307087
        },
        {
          "duration": 0.19999999999999574,
          "durationTicks": 192,
          "midi": 47,
          "name": "B2",
          "ticks": 36864,
          "time": 38.400000000000006,
          "velocity": 0.6771653543307087
        },
        {
          "duration": 0.20000000000000284,
          "durationTicks": 192,
          "midi": 59,
          "name": "B3",
          "ticks": 37056,
          "time": 38.6,
          "velocity": 0.6771653543307087
        },
        {
          "duration": 0.20000000000000284,
          "durationTicks": 192,
          "midi": 59,
          "name": "B3",
          "ticks": 37440,
          "time": 39,
          "velocity": 0.6771653543307087
        },
        {
          "duration": 0.19999999999999574,
          "durationTicks": 192,
          "midi": 52,
          "name": "E3",
          "ticks": 37824,
          "time": 39.400000000000006,
          "velocity": 0.6771653543307087
        },
        {
          "duration": 0.19999999999999574,
          "durationTicks": 192,
          "midi": 56,
          "name": "G#3",
          "ticks": 38208,
          "time": 39.800000000000004,
          "velocity": 0.6771653543307087
        },
        {
          "duration": 0.20000000000000284,
          "durationTicks": 192,
          "midi": 45,
          "name": "A2",
          "ticks": 38400,
          "time": 40,
          "velocity": 0.6771653543307087
        },
        {
          "duration": 0.20000000000000284,
          "durationTicks": 192,
          "midi": 52,
          "name": "E3",
          "ticks": 38592,
          "time": 40.2,
          "velocity": 0.6771653543307087
        },
        {
          "duration": 0.19999999999999574,
          "durationTicks": 192,
          "midi": 45,
          "name": "A2",
          "ticks": 38784,
          "time": 40.400000000000006,
          "velocity": 0.6771653543307087
        },
        {
          "duration": 0.20000000000000284,
          "durationTicks": 192,
          "midi": 52,
          "name": "E3",
          "ticks": 38976,
          "time": 40.6,
          "velocity": 0.6771653543307087
        },
        {
          "duration": 0.29999999999999716,
          "durationTicks": 288,
          "midi": 45,
          "name": "A2",
          "ticks": 39168,
          "time": 40.800000000000004,
          "velocity": 0.6771653543307087
        },
        {
          "duration": 0.20000000000000284,
          "durationTicks": 192,
          "midi": 40,
          "name": "E2",
          "ticks": 39936,
          "time": 41.6,
          "velocity": 0.6771653543307087
        },
        {
          "duration": 0.19999999999999574,
          "durationTicks": 192,
          "midi": 52,
          "name": "E3",
          "ticks": 40128,
          "time": 41.800000000000004,
          "velocity": 0.6771653543307087
        },
        {
          "duration": 0.20000000000000284,
          "durationTicks": 192,
          "midi": 40,
          "name": "E2",
          "ticks": 40320,
          "time": 42,
          "velocity": 0.6771653543307087
        },
        {
          "duration": 0.20000000000000284,
          "durationTicks": 192,
          "midi": 52,
          "name": "E3",
          "ticks": 40512,
          "time": 42.2,
          "velocity": 0.6771653543307087
        },
        {
          "duration": 0.19999999999999574,
          "durationTicks": 192,
          "midi": 40,
          "name": "E2",
          "ticks": 40704,
          "time": 42.400000000000006,
          "velocity": 0.6771653543307087
        },
        {
          "duration": 0.20000000000000284,
          "durationTicks": 192,
          "midi": 52,
          "name": "E3",
          "ticks": 40896,
          "time": 42.6,
          "velocity": 0.6771653543307087
        },
        {
          "duration": 0.19999999999999574,
          "durationTicks": 192,
          "midi": 40,
          "name": "E2",
          "ticks": 41088,
          "time": 42.800000000000004,
          "velocity": 0.6771653543307087
        },
        {
          "duration": 0.20000000000000284,
          "durationTicks": 192,
          "midi": 52,
          "name": "E3",
          "ticks": 41280,
          "time": 43,
          "velocity": 0.6771653543307087
        },
        {
          "duration": 0.20000000000000284,
          "durationTicks": 192,
          "midi": 45,
          "name": "A2",
          "ticks": 41472,
          "time": 43.2,
          "velocity": 0.6771653543307087
        },
        {
          "duration": 0.19999999999999574,
          "durationTicks": 192,
          "midi": 57,
          "name": "A3",
          "ticks": 41664,
          "time": 43.400000000000006,
          "velocity": 0.6771653543307087
        },
        {
          "duration": 0.20000000000000284,
          "durationTicks": 192,
          "midi": 45,
          "name": "A2",
          "ticks": 41856,
          "time": 43.6,
          "velocity": 0.6771653543307087
        },
        {
          "duration": 0.19999999999999574,
          "durationTicks": 192,
          "midi": 57,
          "name": "A3",
          "ticks": 42048,
          "time": 43.800000000000004,
          "velocity": 0.6771653543307087
        },
        {
          "duration": 0.20000000000000284,
          "durationTicks": 192,
          "midi": 45,
          "name": "A2",
          "ticks": 42240,
          "time": 44,
          "velocity": 0.6771653543307087
        },
        {
          "duration": 0.20000000000000284,
          "durationTicks": 192,
          "midi": 57,
          "name": "A3",
          "ticks": 42432,
          "time": 44.2,
          "velocity": 0.6771653543307087
        },
        {
          "duration": 0.19999999999999574,
          "durationTicks": 192,
          "midi": 45,
          "name": "A2",
          "ticks": 42624,
          "time": 44.400000000000006,
          "velocity": 0.6771653543307087
        },
        {
          "duration": 0.20000000000000284,
          "durationTicks": 192,
          "midi": 57,
          "name": "A3",
          "ticks": 42816,
          "time": 44.6,
          "velocity": 0.6771653543307087
        },
        {
          "duration": 0.19999999999999574,
          "durationTicks": 192,
          "midi": 44,
          "name": "G#2",
          "ticks": 43008,
          "time": 44.800000000000004,
          "velocity": 0.6771653543307087
        },
        {
          "duration": 0.20000000000000284,
          "durationTicks": 192,
          "midi": 56,
          "name": "G#3",
          "ticks": 43200,
          "time": 45,
          "velocity": 0.6771653543307087
        },
        {
          "duration": 0.20000000000000284,
          "durationTicks": 192,
          "midi": 44,
          "name": "G#2",
          "ticks": 43392,
          "time": 45.2,
          "velocity": 0.6771653543307087
        },
        {
          "duration": 0.19999999999999574,
          "durationTicks": 192,
          "midi": 56,
          "name": "G#3",
          "ticks": 43584,
          "time": 45.400000000000006,
          "velocity": 0.6771653543307087
        },
        {
          "duration": 0.20000000000000284,
          "durationTicks": 192,
          "midi": 40,
          "name": "E2",
          "ticks": 43776,
          "time": 45.6,
          "velocity": 0.6771653543307087
        },
        {
          "duration": 0.19999999999999574,
          "durationTicks": 192,
          "midi": 52,
          "name": "E3",
          "ticks": 43968,
          "time": 45.800000000000004,
          "velocity": 0.6771653543307087
        },
        {
          "duration": 0.20000000000000284,
          "durationTicks": 192,
          "midi": 40,
          "name": "E2",
          "ticks": 44160,
          "time": 46,
          "velocity": 0.6771653543307087
        },
        {
          "duration": 0.20000000000000284,
          "durationTicks": 192,
          "midi": 52,
          "name": "E3",
          "ticks": 44352,
          "time": 46.2,
          "velocity": 0.6771653543307087
        },
        {
          "duration": 0.19999999999999574,
          "durationTicks": 192,
          "midi": 45,
          "name": "A2",
          "ticks": 44544,
          "time": 46.400000000000006,
          "velocity": 0.6771653543307087
        },
        {
          "duration": 0.20000000000000284,
          "durationTicks": 192,
          "midi": 57,
          "name": "A3",
          "ticks": 44736,
          "time": 46.6,
          "velocity": 0.6771653543307087
        },
        {
          "duration": 0.19999999999999574,
          "durationTicks": 192,
          "midi": 45,
          "name": "A2",
          "ticks": 44928,
          "time": 46.800000000000004,
          "velocity": 0.6771653543307087
        },
        {
          "duration": 0.20000000000000284,
          "durationTicks": 192,
          "midi": 57,
          "name": "A3",
          "ticks": 45120,
          "time": 47,
          "velocity": 0.6771653543307087
        },
        {
          "duration": 0.20000000000000284,
          "durationTicks": 192,
          "midi": 45,
          "name": "A2",
          "ticks": 45312,
          "time": 47.2,
          "velocity": 0.6771653543307087
        },
        {
          "duration": 0.19999999999999574,
          "durationTicks": 192,
          "midi": 57,
          "name": "A3",
          "ticks": 45504,
          "time": 47.400000000000006,
          "velocity": 0.6771653543307087
        },
        {
          "duration": 0.20000000000000284,
          "durationTicks": 192,
          "midi": 47,
          "name": "B2",
          "ticks": 45696,
          "time": 47.6,
          "velocity": 0.6771653543307087
        },
        {
          "duration": 0.19999999999999574,
          "durationTicks": 192,
          "midi": 48,
          "name": "C3",
          "ticks": 45888,
          "time": 47.800000000000004,
          "velocity": 0.6771653543307087
        },
        {
          "duration": 0.20000000000000284,
          "durationTicks": 192,
          "midi": 50,
          "name": "D3",
          "ticks": 46080,
          "time": 48,
          "velocity": 0.6771653543307087
        },
        {
          "duration": 0.20000000000000284,
          "durationTicks": 192,
          "midi": 38,
          "name": "D2",
          "ticks": 46272,
          "time": 48.2,
          "velocity": 0.6771653543307087
        },
        {
          "duration": 0.20000000000000284,
          "durationTicks": 192,
          "midi": 38,
          "name": "D2",
          "ticks": 46656,
          "time": 48.6,
          "velocity": 0.6771653543307087
        },
        {
          "duration": 0.20000000000000284,
          "durationTicks": 192,
          "midi": 38,
          "name": "D2",
          "ticks": 47040,
          "time": 49,
          "velocity": 0.6771653543307087
        },
        {
          "duration": 0.20000000000000284,
          "durationTicks": 192,
          "midi": 45,
          "name": "A2",
          "ticks": 47232,
          "time": 49.2,
          "velocity": 0.6771653543307087
        },
        {
          "duration": 0.19999999999999574,
          "durationTicks": 192,
          "midi": 41,
          "name": "F2",
          "ticks": 47424,
          "time": 49.400000000000006,
          "velocity": 0.6771653543307087
        },
        {
          "duration": 0.20000000000000284,
          "durationTicks": 192,
          "midi": 36,
          "name": "C2",
          "ticks": 47616,
          "time": 49.6,
          "velocity": 0.6771653543307087
        },
        {
          "duration": 0.19999999999999574,
          "durationTicks": 192,
          "midi": 48,
          "name": "C3",
          "ticks": 47808,
          "time": 49.800000000000004,
          "velocity": 0.6771653543307087
        },
        {
          "duration": 0.20000000000000284,
          "durationTicks": 192,
          "midi": 48,
          "name": "C3",
          "ticks": 48192,
          "time": 50.2,
          "velocity": 0.6771653543307087
        },
        {
          "duration": 0.19999999999999574,
          "durationTicks": 192,
          "midi": 36,
          "name": "C2",
          "ticks": 48384,
          "time": 50.400000000000006,
          "velocity": 0.6771653543307087
        },
        {
          "duration": 0.20000000000000284,
          "durationTicks": 192,
          "midi": 43,
          "name": "G2",
          "ticks": 48576,
          "time": 50.6,
          "velocity": 0.6771653543307087
        },
        {
          "duration": 0.29999999999999716,
          "durationTicks": 288,
          "midi": 43,
          "name": "G2",
          "ticks": 48768,
          "time": 50.800000000000004,
          "velocity": 0.6771653543307087
        },
        {
          "duration": 0.20000000000000284,
          "durationTicks": 192,
          "midi": 47,
          "name": "B2",
          "ticks": 49152,
          "time": 51.2,
          "velocity": 0.6771653543307087
        },
        {
          "duration": 0.19999999999999574,
          "durationTicks": 192,
          "midi": 59,
          "name": "B3",
          "ticks": 49344,
          "time": 51.400000000000006,
          "velocity": 0.6771653543307087
        },
        {
          "duration": 0.19999999999999574,
          "durationTicks": 192,
          "midi": 59,
          "name": "B3",
          "ticks": 49728,
          "time": 51.800000000000004,
          "velocity": 0.6771653543307087
        },
        {
          "duration": 0.20000000000000284,
          "durationTicks": 192,
          "midi": 52,
          "name": "E3",
          "ticks": 50112,
          "time": 52.2,
          "velocity": 0.6771653543307087
        },
        {
          "duration": 0.20000000000000284,
          "durationTicks": 192,
          "midi": 56,
          "name": "G#3",
          "ticks": 50496,
          "time": 52.6,
          "velocity": 0.6771653543307087
        },
        {
          "duration": 0.19999999999999574,
          "durationTicks": 192,
          "midi": 45,
          "name": "A2",
          "ticks": 50688,
          "time": 52.800000000000004,
          "velocity": 0.6771653543307087
        },
        {
          "duration": 0.20000000000000284,
          "durationTicks": 192,
          "midi": 52,
          "name": "E3",
          "ticks": 50880,
          "time": 53,
          "velocity": 0.6771653543307087
        },
        {
          "duration": 0.20000000000000284,
          "durationTicks": 192,
          "midi": 45,
          "name": "A2",
          "ticks": 51072,
          "time": 53.2,
          "velocity": 0.6771653543307087
        },
        {
          "duration": 0.19999999999999574,
          "durationTicks": 192,
          "midi": 52,
          "name": "E3",
          "ticks": 51264,
          "time": 53.400000000000006,
          "velocity": 0.6771653543307087
        },
        {
          "duration": 0.30000000000000426,
          "durationTicks": 288,
          "midi": 45,
          "name": "A2",
          "ticks": 51456,
          "time": 53.6,
          "velocity": 0.6771653543307087
        },
        {
          "duration": 0.19999999999999574,
          "durationTicks": 192,
          "midi": 45,
          "name": "A2",
          "ticks": 52224,
          "time": 54.400000000000006,
          "velocity": 0.6771653543307087
        },
        {
          "duration": 0.20000000000000284,
          "durationTicks": 192,
          "midi": 52,
          "name": "E3",
          "ticks": 52416,
          "time": 54.6,
          "velocity": 0.6771653543307087
        },
        {
          "duration": 0.19999999999999574,
          "durationTicks": 192,
          "midi": 45,
          "name": "A2",
          "ticks": 52608,
          "time": 54.800000000000004,
          "velocity": 0.6771653543307087
        },
        {
          "duration": 0.20000000000000284,
          "durationTicks": 192,
          "midi": 52,
          "name": "E3",
          "ticks": 52800,
          "time": 55,
          "velocity": 0.6771653543307087
        },
        {
          "duration": 0.20000000000000284,
          "durationTicks": 192,
          "midi": 45,
          "name": "A2",
          "ticks": 52992,
          "time": 55.2,
          "velocity": 0.6771653543307087
        },
        {
          "duration": 0.19999999999999574,
          "durationTicks": 192,
          "midi": 52,
          "name": "E3",
          "ticks": 53184,
          "time": 55.400000000000006,
          "velocity": 0.6771653543307087
        },
        {
          "duration": 0.20000000000000284,
          "durationTicks": 192,
          "midi": 45,
          "name": "A2",
          "ticks": 53376,
          "time": 55.6,
          "velocity": 0.6771653543307087
        },
        {
          "duration": 0.19999999999999574,
          "durationTicks": 192,
          "midi": 52,
          "name": "E3",
          "ticks": 53568,
          "time": 55.800000000000004,
          "velocity": 0.6771653543307087
        },
        {
          "duration": 0.20000000000000284,
          "durationTicks": 192,
          "midi": 44,
          "name": "G#2",
          "ticks": 53760,
          "time": 56,
          "velocity": 0.6771653543307087
        },
        {
          "duration": 0.20000000000000284,
          "durationTicks": 192,
          "midi": 52,
          "name": "E3",
          "ticks": 53952,
          "time": 56.2,
          "velocity": 0.6771653543307087
        },
        {
          "duration": 0.19999999999999574,
          "durationTicks": 192,
          "midi": 44,
          "name": "G#2",
          "ticks": 54144,
          "time": 56.400000000000006,
          "velocity": 0.6771653543307087
        },
        {
          "duration": 0.20000000000000284,
          "durationTicks": 192,
          "midi": 52,
          "name": "E3",
          "ticks": 54336,
          "time": 56.6,
          "velocity": 0.6771653543307087
        },
        {
          "duration": 0.19999999999999574,
          "durationTicks": 192,
          "midi": 44,
          "name": "G#2",
          "ticks": 54528,
          "time": 56.800000000000004,
          "velocity": 0.6771653543307087
        },
        {
          "duration": 0.20000000000000284,
          "durationTicks": 192,
          "midi": 52,
          "name": "E3",
          "ticks": 54720,
          "time": 57,
          "velocity": 0.6771653543307087
        },
        {
          "duration": 0.20000000000000284,
          "durationTicks": 192,
          "midi": 44,
          "name": "G#2",
          "ticks": 54912,
          "time": 57.2,
          "velocity": 0.6771653543307087
        },
        {
          "duration": 0.19999999999999574,
          "durationTicks": 192,
          "midi": 52,
          "name": "E3",
          "ticks": 55104,
          "time": 57.400000000000006,
          "velocity": 0.6771653543307087
        },
        {
          "duration": 0.20000000000000284,
          "durationTicks": 192,
          "midi": 45,
          "name": "A2",
          "ticks": 55296,
          "time": 57.6,
          "velocity": 0.6771653543307087
        },
        {
          "duration": 0.19999999999999574,
          "durationTicks": 192,
          "midi": 52,
          "name": "E3",
          "ticks": 55488,
          "time": 57.800000000000004,
          "velocity": 0.6771653543307087
        },
        {
          "duration": 0.20000000000000284,
          "durationTicks": 192,
          "midi": 45,
          "name": "A2",
          "ticks": 55680,
          "time": 58,
          "velocity": 0.6771653543307087
        },
        {
          "duration": 0.20000000000000284,
          "durationTicks": 192,
          "midi": 52,
          "name": "E3",
          "ticks": 55872,
          "time": 58.2,
          "velocity": 0.6771653543307087
        },
        {
          "duration": 0.19999999999999574,
          "durationTicks": 192,
          "midi": 45,
          "name": "A2",
          "ticks": 56064,
          "time": 58.400000000000006,
          "velocity": 0.6771653543307087
        },
        {
          "duration": 0.20000000000000284,
          "durationTicks": 192,
          "midi": 52,
          "name": "E3",
          "ticks": 56256,
          "time": 58.6,
          "velocity": 0.6771653543307087
        },
        {
          "duration": 0.19999999999999574,
          "durationTicks": 192,
          "midi": 45,
          "name": "A2",
          "ticks": 56448,
          "time": 58.800000000000004,
          "velocity": 0.6771653543307087
        },
        {
          "duration": 0.20000000000000284,
          "durationTicks": 192,
          "midi": 52,
          "name": "E3",
          "ticks": 56640,
          "time": 59,
          "velocity": 0.6771653543307087
        },
        {
          "duration": 0.20000000000000284,
          "durationTicks": 192,
          "midi": 44,
          "name": "G#2",
          "ticks": 56832,
          "time": 59.2,
          "velocity": 0.6771653543307087
        },
        {
          "duration": 0.19999999999999574,
          "durationTicks": 192,
          "midi": 52,
          "name": "E3",
          "ticks": 57024,
          "time": 59.400000000000006,
          "velocity": 0.6771653543307087
        },
        {
          "duration": 0.20000000000000284,
          "durationTicks": 192,
          "midi": 44,
          "name": "G#2",
          "ticks": 57216,
          "time": 59.6,
          "velocity": 0.6771653543307087
        },
        {
          "duration": 0.19999999999999574,
          "durationTicks": 192,
          "midi": 52,
          "name": "E3",
          "ticks": 57408,
          "time": 59.800000000000004,
          "velocity": 0.6771653543307087
        },
        {
          "duration": 0.20000000000000284,
          "durationTicks": 192,
          "midi": 44,
          "name": "G#2",
          "ticks": 57600,
          "time": 60,
          "velocity": 0.6771653543307087
        },
        {
          "duration": 0.20000000000000284,
          "durationTicks": 192,
          "midi": 52,
          "name": "E3",
          "ticks": 57792,
          "time": 60.2,
          "velocity": 0.6771653543307087
        },
        {
          "duration": 0.19999999999999574,
          "durationTicks": 192,
          "midi": 44,
          "name": "G#2",
          "ticks": 57984,
          "time": 60.400000000000006,
          "velocity": 0.6771653543307087
        },
        {
          "duration": 0.20000000000000284,
          "durationTicks": 192,
          "midi": 52,
          "name": "E3",
          "ticks": 58176,
          "time": 60.6,
          "velocity": 0.6771653543307087
        },
        {
          "duration": 0.19999999999999574,
          "durationTicks": 192,
          "midi": 45,
          "name": "A2",
          "ticks": 58368,
          "time": 60.800000000000004,
          "velocity": 0.6771653543307087
        },
        {
          "duration": 0.20000000000000284,
          "durationTicks": 192,
          "midi": 52,
          "name": "E3",
          "ticks": 58560,
          "time": 61,
          "velocity": 0.6771653543307087
        },
        {
          "duration": 0.20000000000000284,
          "durationTicks": 192,
          "midi": 45,
          "name": "A2",
          "ticks": 58752,
          "time": 61.2,
          "velocity": 0.6771653543307087
        },
        {
          "duration": 0.19999999999999574,
          "durationTicks": 192,
          "midi": 52,
          "name": "E3",
          "ticks": 58944,
          "time": 61.400000000000006,
          "velocity": 0.6771653543307087
        },
        {
          "duration": 0.20000000000000284,
          "durationTicks": 192,
          "midi": 45,
          "name": "A2",
          "ticks": 59136,
          "time": 61.6,
          "velocity": 0.6771653543307087
        },
        {
          "duration": 0.19999999999999574,
          "durationTicks": 192,
          "midi": 52,
          "name": "E3",
          "ticks": 59328,
          "time": 61.800000000000004,
          "velocity": 0.6771653543307087
        },
        {
          "duration": 0.20000000000000284,
          "durationTicks": 192,
          "midi": 45,
          "name": "A2",
          "ticks": 59520,
          "time": 62,
          "velocity": 0.6771653543307087
        },
        {
          "duration": 0.20000000000000284,
          "durationTicks": 192,
          "midi": 52,
          "name": "E3",
          "ticks": 59712,
          "time": 62.2,
          "velocity": 0.6771653543307087
        },
        {
          "duration": 0.19999999999999574,
          "durationTicks": 192,
          "midi": 44,
          "name": "G#2",
          "ticks": 59904,
          "time": 62.400000000000006,
          "velocity": 0.6771653543307087
        },
        {
          "duration": 0.20000000000000284,
          "durationTicks": 192,
          "midi": 52,
          "name": "E3",
          "ticks": 60096,
          "time": 62.6,
          "velocity": 0.6771653543307087
        },
        {
          "duration": 0.19999999999999574,
          "durationTicks": 192,
          "midi": 44,
          "name": "G#2",
          "ticks": 60288,
          "time": 62.800000000000004,
          "velocity": 0.6771653543307087
        },
        {
          "duration": 0.20000000000000284,
          "durationTicks": 192,
          "midi": 52,
          "name": "E3",
          "ticks": 60480,
          "time": 63,
          "velocity": 0.6771653543307087
        },
        {
          "duration": 0.20000000000000284,
          "durationTicks": 192,
          "midi": 44,
          "name": "G#2",
          "ticks": 60672,
          "time": 63.2,
          "velocity": 0.6771653543307087
        },
        {
          "duration": 0.19999999999999574,
          "durationTicks": 192,
          "midi": 52,
          "name": "E3",
          "ticks": 60864,
          "time": 63.400000000000006,
          "velocity": 0.6771653543307087
        },
        {
          "duration": 0.20000000000000284,
          "durationTicks": 192,
          "midi": 44,
          "name": "G#2",
          "ticks": 61056,
          "time": 63.6,
          "velocity": 0.6771653543307087
        },
        {
          "duration": 0.19999999999999574,
          "durationTicks": 192,
          "midi": 52,
          "name": "E3",
          "ticks": 61248,
          "time": 63.800000000000004,
          "velocity": 0.6771653543307087
        },
        {
          "duration": 0.20000000000000284,
          "durationTicks": 192,
          "midi": 45,
          "name": "A2",
          "ticks": 61440,
          "time": 64,
          "velocity": 0.6771653543307087
        },
        {
          "duration": 0.20000000000000284,
          "durationTicks": 192,
          "midi": 52,
          "name": "E3",
          "ticks": 61632,
          "time": 64.2,
          "velocity": 0.6771653543307087
        },
        {
          "duration": 0.20000000000000284,
          "durationTicks": 192,
          "midi": 45,
          "name": "A2",
          "ticks": 61824,
          "time": 64.4,
          "velocity": 0.6771653543307087
        },
        {
          "duration": 0.19999999999998863,
          "durationTicks": 192,
          "midi": 52,
          "name": "E3",
          "ticks": 62016,
          "time": 64.60000000000001,
          "velocity": 0.6771653543307087
        },
        {
          "duration": 0.20000000000000284,
          "durationTicks": 192,
          "midi": 45,
          "name": "A2",
          "ticks": 62208,
          "time": 64.8,
          "velocity": 0.6771653543307087
        },
        {
          "duration": 0.20000000000000284,
          "durationTicks": 192,
          "midi": 52,
          "name": "E3",
          "ticks": 62400,
          "time": 65,
          "velocity": 0.6771653543307087
        },
        {
          "duration": 0.20000000000000284,
          "durationTicks": 192,
          "midi": 45,
          "name": "A2",
          "ticks": 62592,
          "time": 65.2,
          "velocity": 0.6771653543307087
        },
        {
          "duration": 0.20000000000000284,
          "durationTicks": 192,
          "midi": 52,
          "name": "E3",
          "ticks": 62784,
          "time": 65.4,
          "velocity": 0.6771653543307087
        },
        {
          "duration": 0.19999999999998863,
          "durationTicks": 192,
          "midi": 44,
          "name": "G#2",
          "ticks": 62976,
          "time": 65.60000000000001,
          "velocity": 0.6771653543307087
        },
        {
          "duration": 0.20000000000000284,
          "durationTicks": 192,
          "midi": 52,
          "name": "E3",
          "ticks": 63168,
          "time": 65.8,
          "velocity": 0.6771653543307087
        },
        {
          "duration": 0.20000000000000284,
          "durationTicks": 192,
          "midi": 44,
          "name": "G#2",
          "ticks": 63360,
          "time": 66,
          "velocity": 0.6771653543307087
        },
        {
          "duration": 0.20000000000000284,
          "durationTicks": 192,
          "midi": 52,
          "name": "E3",
          "ticks": 63552,
          "time": 66.2,
          "velocity": 0.6771653543307087
        },
        {
          "duration": 0.20000000000000284,
          "durationTicks": 192,
          "midi": 44,
          "name": "G#2",
          "ticks": 63744,
          "time": 66.4,
          "velocity": 0.7874015748031497
        },
        {
          "duration": 0.20000000000000284,
          "durationTicks": 192,
          "midi": 40,
          "name": "E2",
          "ticks": 64512,
          "time": 67.2,
          "velocity": 0.6771653543307087
        },
        {
          "duration": 0.20000000000000284,
          "durationTicks": 192,
          "midi": 52,
          "name": "E3",
          "ticks": 64704,
          "time": 67.4,
          "velocity": 0.6771653543307087
        },
        {
          "duration": 0.19999999999998863,
          "durationTicks": 192,
          "midi": 40,
          "name": "E2",
          "ticks": 64896,
          "time": 67.60000000000001,
          "velocity": 0.6771653543307087
        },
        {
          "duration": 0.20000000000000284,
          "durationTicks": 192,
          "midi": 52,
          "name": "E3",
          "ticks": 65088,
          "time": 67.8,
          "velocity": 0.6771653543307087
        },
        {
          "duration": 0.20000000000000284,
          "durationTicks": 192,
          "midi": 40,
          "name": "E2",
          "ticks": 65280,
          "time": 68,
          "velocity": 0.6771653543307087
        },
        {
          "duration": 0.20000000000000284,
          "durationTicks": 192,
          "midi": 52,
          "name": "E3",
          "ticks": 65472,
          "time": 68.2,
          "velocity": 0.6771653543307087
        },
        {
          "duration": 0.20000000000000284,
          "durationTicks": 192,
          "midi": 40,
          "name": "E2",
          "ticks": 65664,
          "time": 68.4,
          "velocity": 0.6771653543307087
        },
        {
          "duration": 0.19999999999998863,
          "durationTicks": 192,
          "midi": 52,
          "name": "E3",
          "ticks": 65856,
          "time": 68.60000000000001,
          "velocity": 0.6771653543307087
        },
        {
          "duration": 0.20000000000000284,
          "durationTicks": 192,
          "midi": 45,
          "name": "A2",
          "ticks": 66048,
          "time": 68.8,
          "velocity": 0.6771653543307087
        },
        {
          "duration": 0.20000000000000284,
          "durationTicks": 192,
          "midi": 57,
          "name": "A3",
          "ticks": 66240,
          "time": 69,
          "velocity": 0.6771653543307087
        },
        {
          "duration": 0.20000000000000284,
          "durationTicks": 192,
          "midi": 45,
          "name": "A2",
          "ticks": 66432,
          "time": 69.2,
          "velocity": 0.6771653543307087
        },
        {
          "duration": 0.20000000000000284,
          "durationTicks": 192,
          "midi": 57,
          "name": "A3",
          "ticks": 66624,
          "time": 69.4,
          "velocity": 0.6771653543307087
        },
        {
          "duration": 0.19999999999998863,
          "durationTicks": 192,
          "midi": 45,
          "name": "A2",
          "ticks": 66816,
          "time": 69.60000000000001,
          "velocity": 0.6771653543307087
        },
        {
          "duration": 0.20000000000000284,
          "durationTicks": 192,
          "midi": 57,
          "name": "A3",
          "ticks": 67008,
          "time": 69.8,
          "velocity": 0.6771653543307087
        },
        {
          "duration": 0.20000000000000284,
          "durationTicks": 192,
          "midi": 45,
          "name": "A2",
          "ticks": 67200,
          "time": 70,
          "velocity": 0.6771653543307087
        },
        {
          "duration": 0.20000000000000284,
          "durationTicks": 192,
          "midi": 57,
          "name": "A3",
          "ticks": 67392,
          "time": 70.2,
          "velocity": 0.6771653543307087
        },
        {
          "duration": 0.20000000000000284,
          "durationTicks": 192,
          "midi": 44,
          "name": "G#2",
          "ticks": 67584,
          "time": 70.4,
          "velocity": 0.6771653543307087
        },
        {
          "duration": 0.19999999999998863,
          "durationTicks": 192,
          "midi": 56,
          "name": "G#3",
          "ticks": 67776,
          "time": 70.60000000000001,
          "velocity": 0.6771653543307087
        },
        {
          "duration": 0.20000000000000284,
          "durationTicks": 192,
          "midi": 44,
          "name": "G#2",
          "ticks": 67968,
          "time": 70.8,
          "velocity": 0.6771653543307087
        },
        {
          "duration": 0.20000000000000284,
          "durationTicks": 192,
          "midi": 56,
          "name": "G#3",
          "ticks": 68160,
          "time": 71,
          "velocity": 0.6771653543307087
        },
        {
          "duration": 0.20000000000000284,
          "durationTicks": 192,
          "midi": 40,
          "name": "E2",
          "ticks": 68352,
          "time": 71.2,
          "velocity": 0.6771653543307087
        },
        {
          "duration": 0.20000000000000284,
          "durationTicks": 192,
          "midi": 52,
          "name": "E3",
          "ticks": 68544,
          "time": 71.4,
          "velocity": 0.6771653543307087
        },
        {
          "duration": 0.19999999999998863,
          "durationTicks": 192,
          "midi": 40,
          "name": "E2",
          "ticks": 68736,
          "time": 71.60000000000001,
          "velocity": 0.6771653543307087
        },
        {
          "duration": 0.20000000000000284,
          "durationTicks": 192,
          "midi": 52,
          "name": "E3",
          "ticks": 68928,
          "time": 71.8,
          "velocity": 0.6771653543307087
        },
        {
          "duration": 0.20000000000000284,
          "durationTicks": 192,
          "midi": 45,
          "name": "A2",
          "ticks": 69120,
          "time": 72,
          "velocity": 0.6771653543307087
        },
        {
          "duration": 0.20000000000000284,
          "durationTicks": 192,
          "midi": 57,
          "name": "A3",
          "ticks": 69312,
          "time": 72.2,
          "velocity": 0.6771653543307087
        },
        {
          "duration": 0.20000000000000284,
          "durationTicks": 192,
          "midi": 45,
          "name": "A2",
          "ticks": 69504,
          "time": 72.4,
          "velocity": 0.6771653543307087
        },
        {
          "duration": 0.19999999999998863,
          "durationTicks": 192,
          "midi": 57,
          "name": "A3",
          "ticks": 69696,
          "time": 72.60000000000001,
          "velocity": 0.6771653543307087
        },
        {
          "duration": 0.20000000000000284,
          "durationTicks": 192,
          "midi": 45,
          "name": "A2",
          "ticks": 69888,
          "time": 72.8,
          "velocity": 0.6771653543307087
        },
        {
          "duration": 0.20000000000000284,
          "durationTicks": 192,
          "midi": 57,
          "name": "A3",
          "ticks": 70080,
          "time": 73,
          "velocity": 0.6771653543307087
        },
        {
          "duration": 0.20000000000000284,
          "durationTicks": 192,
          "midi": 47,
          "name": "B2",
          "ticks": 70272,
          "time": 73.2,
          "velocity": 0.6771653543307087
        },
        {
          "duration": 0.20000000000000284,
          "durationTicks": 192,
          "midi": 48,
          "name": "C3",
          "ticks": 70464,
          "time": 73.4,
          "velocity": 0.6771653543307087
        },
        {
          "duration": 0.19999999999998863,
          "durationTicks": 192,
          "midi": 50,
          "name": "D3",
          "ticks": 70656,
          "time": 73.60000000000001,
          "velocity": 0.6771653543307087
        },
        {
          "duration": 0.20000000000000284,
          "durationTicks": 192,
          "midi": 38,
          "name": "D2",
          "ticks": 70848,
          "time": 73.8,
          "velocity": 0.6771653543307087
        },
        {
          "duration": 0.20000000000000284,
          "durationTicks": 192,
          "midi": 38,
          "name": "D2",
          "ticks": 71232,
          "time": 74.2,
          "velocity": 0.6771653543307087
        },
        {
          "duration": 0.19999999999998863,
          "durationTicks": 192,
          "midi": 38,
          "name": "D2",
          "ticks": 71616,
          "time": 74.60000000000001,
          "velocity": 0.6771653543307087
        },
        {
          "duration": 0.20000000000000284,
          "durationTicks": 192,
          "midi": 45,
          "name": "A2",
          "ticks": 71808,
          "time": 74.8,
          "velocity": 0.6771653543307087
        },
        {
          "duration": 0.20000000000000284,
          "durationTicks": 192,
          "midi": 41,
          "name": "F2",
          "ticks": 72000,
          "time": 75,
          "velocity": 0.6771653543307087
        },
        {
          "duration": 0.20000000000000284,
          "durationTicks": 192,
          "midi": 36,
          "name": "C2",
          "ticks": 72192,
          "time": 75.2,
          "velocity": 0.6771653543307087
        },
        {
          "duration": 0.20000000000000284,
          "durationTicks": 192,
          "midi": 48,
          "name": "C3",
          "ticks": 72384,
          "time": 75.4,
          "velocity": 0.6771653543307087
        },
        {
          "duration": 0.20000000000000284,
          "durationTicks": 192,
          "midi": 48,
          "name": "C3",
          "ticks": 72768,
          "time": 75.8,
          "velocity": 0.6771653543307087
        },
        {
          "duration": 0.20000000000000284,
          "durationTicks": 192,
          "midi": 36,
          "name": "C2",
          "ticks": 72960,
          "time": 76,
          "velocity": 0.6771653543307087
        },
        {
          "duration": 0.20000000000000284,
          "durationTicks": 192,
          "midi": 43,
          "name": "G2",
          "ticks": 73152,
          "time": 76.2,
          "velocity": 0.6771653543307087
        },
        {
          "duration": 0.29999999999999716,
          "durationTicks": 288,
          "midi": 43,
          "name": "G2",
          "ticks": 73344,
          "time": 76.4,
          "velocity": 0.6771653543307087
        },
        {
          "duration": 0.19999999999998863,
          "durationTicks": 192,
          "midi": 47,
          "name": "B2",
          "ticks": 73728,
          "time": 76.80000000000001,
          "velocity": 0.6771653543307087
        },
        {
          "duration": 0.20000000000000284,
          "durationTicks": 192,
          "midi": 59,
          "name": "B3",
          "ticks": 73920,
          "time": 77,
          "velocity": 0.6771653543307087
        },
        {
          "duration": 0.20000000000000284,
          "durationTicks": 192,
          "midi": 59,
          "name": "B3",
          "ticks": 74304,
          "time": 77.4,
          "velocity": 0.6771653543307087
        },
        {
          "duration": 0.19999999999998863,
          "durationTicks": 192,
          "midi": 52,
          "name": "E3",
          "ticks": 74688,
          "time": 77.80000000000001,
          "velocity": 0.6771653543307087
        },
        {
          "duration": 0.20000000000000284,
          "durationTicks": 192,
          "midi": 56,
          "name": "G#3",
          "ticks": 75072,
          "time": 78.2,
          "velocity": 0.6771653543307087
        },
        {
          "duration": 0.20000000000000284,
          "durationTicks": 192,
          "midi": 45,
          "name": "A2",
          "ticks": 75264,
          "time": 78.4,
          "velocity": 0.6771653543307087
        },
        {
          "duration": 0.20000000000000284,
          "durationTicks": 192,
          "midi": 52,
          "name": "E3",
          "ticks": 75456,
          "time": 78.60000000000001,
          "velocity": 0.6771653543307087
        },
        {
          "duration": 0.19999999999998863,
          "durationTicks": 192,
          "midi": 45,
          "name": "A2",
          "ticks": 75648,
          "time": 78.80000000000001,
          "velocity": 0.6771653543307087
        },
        {
          "duration": 0.20000000000000284,
          "durationTicks": 192,
          "midi": 52,
          "name": "E3",
          "ticks": 75840,
          "time": 79,
          "velocity": 0.6771653543307087
        },
        {
          "duration": 0.20000000000000284,
          "durationTicks": 192,
          "midi": 45,
          "name": "A2",
          "ticks": 76032,
          "time": 79.2,
          "velocity": 0.6771653543307087
        },
        {
          "duration": 0.20000000000000284,
          "durationTicks": 192,
          "midi": 52,
          "name": "E3",
          "ticks": 76224,
          "time": 79.4,
          "velocity": 0.6771653543307087
        },
        {
          "duration": 0.20000000000000284,
          "durationTicks": 192,
          "midi": 45,
          "name": "A2",
          "ticks": 76416,
          "time": 79.60000000000001,
          "velocity": 0.6771653543307087
        },
        {
          "duration": 0.19999999999998863,
          "durationTicks": 192,
          "midi": 52,
          "name": "E3",
          "ticks": 76608,
          "time": 79.80000000000001,
          "velocity": 0.6771653543307087
        },
        {
          "duration": 0.20000000000000284,
          "durationTicks": 192,
          "midi": 45,
          "name": "A2",
          "ticks": 76800,
          "time": 80,
          "velocity": 0.6771653543307087
        },
        {
          "duration": 0.20000000000000284,
          "durationTicks": 192,
          "midi": 52,
          "name": "E3",
          "ticks": 76992,
          "time": 80.2,
          "velocity": 0.6771653543307087
        },
        {
          "duration": 0.20000000000000284,
          "durationTicks": 192,
          "midi": 45,
          "name": "A2",
          "ticks": 77184,
          "time": 80.4,
          "velocity": 0.6771653543307087
        },
        {
          "duration": 0.20000000000000284,
          "durationTicks": 192,
          "midi": 52,
          "name": "E3",
          "ticks": 77376,
          "time": 80.60000000000001,
          "velocity": 0.6771653543307087
        },
        {
          "duration": 0.19999999999998863,
          "durationTicks": 192,
          "midi": 45,
          "name": "A2",
          "ticks": 77568,
          "time": 80.80000000000001,
          "velocity": 0.6771653543307087
        },
        {
          "duration": 0.20000000000000284,
          "durationTicks": 192,
          "midi": 52,
          "name": "E3",
          "ticks": 77760,
          "time": 81,
          "velocity": 0.6771653543307087
        },
        {
          "duration": 0.20000000000000284,
          "durationTicks": 192,
          "midi": 45,
          "name": "A2",
          "ticks": 77952,
          "time": 81.2,
          "velocity": 0.6771653543307087
        },
        {
          "duration": 0.20000000000000284,
          "durationTicks": 192,
          "midi": 52,
          "name": "E3",
          "ticks": 78144,
          "time": 81.4,
          "velocity": 0.6771653543307087
        },
        {
          "duration": 0.20000000000000284,
          "durationTicks": 192,
          "midi": 45,
          "name": "A2",
          "ticks": 78336,
          "time": 81.60000000000001,
          "velocity": 0.6771653543307087
        },
        {
          "duration": 0.19999999999998863,
          "durationTicks": 192,
          "midi": 52,
          "name": "E3",
          "ticks": 78528,
          "time": 81.80000000000001,
          "velocity": 0.6771653543307087
        },
        {
          "duration": 0.20000000000000284,
          "durationTicks": 192,
          "midi": 45,
          "name": "A2",
          "ticks": 78720,
          "time": 82,
          "velocity": 0.6771653543307087
        },
        {
          "duration": 0.20000000000000284,
          "durationTicks": 192,
          "midi": 52,
          "name": "E3",
          "ticks": 78912,
          "time": 82.2,
          "velocity": 0.6771653543307087
        },
        {
          "duration": 0.20000000000000284,
          "durationTicks": 192,
          "midi": 45,
          "name": "A2",
          "ticks": 79104,
          "time": 82.4,
          "velocity": 0.6771653543307087
        },
        {
          "duration": 0.20000000000000284,
          "durationTicks": 192,
          "midi": 52,
          "name": "E3",
          "ticks": 79296,
          "time": 82.60000000000001,
          "velocity": 0.6771653543307087
        },
        {
          "duration": 0.19999999999998863,
          "durationTicks": 192,
          "midi": 45,
          "name": "A2",
          "ticks": 79488,
          "time": 82.80000000000001,
          "velocity": 0.6771653543307087
        },
        {
          "duration": 0.20000000000000284,
          "durationTicks": 192,
          "midi": 52,
          "name": "E3",
          "ticks": 79680,
          "time": 83,
          "velocity": 0.6771653543307087
        },
        {
          "duration": 0.20000000000000284,
          "durationTicks": 192,
          "midi": 44,
          "name": "G#2",
          "ticks": 79872,
          "time": 83.2,
          "velocity": 0.6771653543307087
        },
        {
          "duration": 0.20000000000000284,
          "durationTicks": 192,
          "midi": 52,
          "name": "E3",
          "ticks": 80064,
          "time": 83.4,
          "velocity": 0.6771653543307087
        },
        {
          "duration": 0.20000000000000284,
          "durationTicks": 192,
          "midi": 44,
          "name": "G#2",
          "ticks": 80256,
          "time": 83.60000000000001,
          "velocity": 0.6771653543307087
        },
        {
          "duration": 0.19999999999998863,
          "durationTicks": 192,
          "midi": 52,
          "name": "E3",
          "ticks": 80448,
          "time": 83.80000000000001,
          "velocity": 0.6771653543307087
        },
        {
          "duration": 0.20000000000000284,
          "durationTicks": 192,
          "midi": 44,
          "name": "G#2",
          "ticks": 80640,
          "time": 84,
          "velocity": 0.6771653543307087
        },
        {
          "duration": 0.20000000000000284,
          "durationTicks": 192,
          "midi": 52,
          "name": "E3",
          "ticks": 80832,
          "time": 84.2,
          "velocity": 0.6771653543307087
        },
        {
          "duration": 0.20000000000000284,
          "durationTicks": 192,
          "midi": 44,
          "name": "G#2",
          "ticks": 81024,
          "time": 84.4,
          "velocity": 0.6771653543307087
        },
        {
          "duration": 0.20000000000000284,
          "durationTicks": 192,
          "midi": 52,
          "name": "E3",
          "ticks": 81216,
          "time": 84.60000000000001,
          "velocity": 0.6771653543307087
        },
        {
          "duration": 0.19999999999998863,
          "durationTicks": 192,
          "midi": 45,
          "name": "A2",
          "ticks": 81408,
          "time": 84.80000000000001,
          "velocity": 0.6771653543307087
        },
        {
          "duration": 0.20000000000000284,
          "durationTicks": 192,
          "midi": 52,
          "name": "E3",
          "ticks": 81600,
          "time": 85,
          "velocity": 0.6771653543307087
        },
        {
          "duration": 0.20000000000000284,
          "durationTicks": 192,
          "midi": 45,
          "name": "A2",
          "ticks": 81792,
          "time": 85.2,
          "velocity": 0.6771653543307087
        },
        {
          "duration": 0.20000000000000284,
          "durationTicks": 192,
          "midi": 52,
          "name": "E3",
          "ticks": 81984,
          "time": 85.4,
          "velocity": 0.6771653543307087
        },
        {
          "duration": 0.20000000000000284,
          "durationTicks": 192,
          "midi": 45,
          "name": "A2",
          "ticks": 82176,
          "time": 85.60000000000001,
          "velocity": 0.6771653543307087
        },
        {
          "duration": 0.19999999999998863,
          "durationTicks": 192,
          "midi": 52,
          "name": "E3",
          "ticks": 82368,
          "time": 85.80000000000001,
          "velocity": 0.6771653543307087
        },
        {
          "duration": 0.20000000000000284,
          "durationTicks": 192,
          "midi": 45,
          "name": "A2",
          "ticks": 82560,
          "time": 86,
          "velocity": 0.6771653543307087
        },
        {
          "duration": 0.20000000000000284,
          "durationTicks": 192,
          "midi": 52,
          "name": "E3",
          "ticks": 82752,
          "time": 86.2,
          "velocity": 0.6771653543307087
        },
        {
          "duration": 0.20000000000000284,
          "durationTicks": 192,
          "midi": 44,
          "name": "G#2",
          "ticks": 82944,
          "time": 86.4,
          "velocity": 0.6771653543307087
        },
        {
          "duration": 0.20000000000000284,
          "durationTicks": 192,
          "midi": 52,
          "name": "E3",
          "ticks": 83136,
          "time": 86.60000000000001,
          "velocity": 0.6771653543307087
        },
        {
          "duration": 0.19999999999998863,
          "durationTicks": 192,
          "midi": 44,
          "name": "G#2",
          "ticks": 83328,
          "time": 86.80000000000001,
          "velocity": 0.6771653543307087
        },
        {
          "duration": 0.20000000000000284,
          "durationTicks": 192,
          "midi": 52,
          "name": "E3",
          "ticks": 83520,
          "time": 87,
          "velocity": 0.6771653543307087
        },
        {
          "duration": 0.20000000000000284,
          "durationTicks": 192,
          "midi": 44,
          "name": "G#2",
          "ticks": 83712,
          "time": 87.2,
          "velocity": 0.6771653543307087
        },
        {
          "duration": 0.20000000000000284,
          "durationTicks": 192,
          "midi": 52,
          "name": "E3",
          "ticks": 83904,
          "time": 87.4,
          "velocity": 0.6771653543307087
        },
        {
          "duration": 0.20000000000000284,
          "durationTicks": 192,
          "midi": 44,
          "name": "G#2",
          "ticks": 84096,
          "time": 87.60000000000001,
          "velocity": 0.6771653543307087
        },
        {
          "duration": 0.19999999999998863,
          "durationTicks": 192,
          "midi": 52,
          "name": "E3",
          "ticks": 84288,
          "time": 87.80000000000001,
          "velocity": 0.6771653543307087
        },
        {
          "duration": 0.20000000000000284,
          "durationTicks": 192,
          "midi": 45,
          "name": "A2",
          "ticks": 84480,
          "time": 88,
          "velocity": 0.6771653543307087
        },
        {
          "duration": 0.20000000000000284,
          "durationTicks": 192,
          "midi": 52,
          "name": "E3",
          "ticks": 84672,
          "time": 88.2,
          "velocity": 0.6771653543307087
        },
        {
          "duration": 0.20000000000000284,
          "durationTicks": 192,
          "midi": 45,
          "name": "A2",
          "ticks": 84864,
          "time": 88.4,
          "velocity": 0.6771653543307087
        },
        {
          "duration": 0.20000000000000284,
          "durationTicks": 192,
          "midi": 52,
          "name": "E3",
          "ticks": 85056,
          "time": 88.60000000000001,
          "velocity": 0.6771653543307087
        },
        {
          "duration": 0.19999999999998863,
          "durationTicks": 192,
          "midi": 45,
          "name": "A2",
          "ticks": 85248,
          "time": 88.80000000000001,
          "velocity": 0.6771653543307087
        },
        {
          "duration": 0.20000000000000284,
          "durationTicks": 192,
          "midi": 52,
          "name": "E3",
          "ticks": 85440,
          "time": 89,
          "velocity": 0.6771653543307087
        },
        {
          "duration": 0.20000000000000284,
          "durationTicks": 192,
          "midi": 45,
          "name": "A2",
          "ticks": 85632,
          "time": 89.2,
          "velocity": 0.6771653543307087
        },
        {
          "duration": 0.20000000000000284,
          "durationTicks": 192,
          "midi": 52,
          "name": "E3",
          "ticks": 85824,
          "time": 89.4,
          "velocity": 0.6771653543307087
        },
        {
          "duration": 0.20000000000000284,
          "durationTicks": 192,
          "midi": 44,
          "name": "G#2",
          "ticks": 86016,
          "time": 89.60000000000001,
          "velocity": 0.6771653543307087
        },
        {
          "duration": 0.19999999999998863,
          "durationTicks": 192,
          "midi": 52,
          "name": "E3",
          "ticks": 86208,
          "time": 89.80000000000001,
          "velocity": 0.6771653543307087
        },
        {
          "duration": 0.20000000000000284,
          "durationTicks": 192,
          "midi": 44,
          "name": "G#2",
          "ticks": 86400,
          "time": 90,
          "velocity": 0.6771653543307087
        },
        {
          "duration": 0.20000000000000284,
          "durationTicks": 192,
          "midi": 52,
          "name": "E3",
          "ticks": 86592,
          "time": 90.2,
          "velocity": 0.6771653543307087
        },
        {
          "duration": 0.20000000000000284,
          "durationTicks": 192,
          "midi": 44,
          "name": "G#2",
          "ticks": 86784,
          "time": 90.4,
          "velocity": 0.6771653543307087
        },
        {
          "duration": 0.20000000000000284,
          "durationTicks": 192,
          "midi": 52,
          "name": "E3",
          "ticks": 86976,
          "time": 90.60000000000001,
          "velocity": 0.6771653543307087
        },
        {
          "duration": 0.19999999999998863,
          "durationTicks": 192,
          "midi": 44,
          "name": "G#2",
          "ticks": 87168,
          "time": 90.80000000000001,
          "velocity": 0.6771653543307087
        },
        {
          "duration": 0.20000000000000284,
          "durationTicks": 192,
          "midi": 52,
          "name": "E3",
          "ticks": 87360,
          "time": 91,
          "velocity": 0.6771653543307087
        },
        {
          "duration": 0.20000000000000284,
          "durationTicks": 192,
          "midi": 45,
          "name": "A2",
          "ticks": 87552,
          "time": 91.2,
          "velocity": 0.6771653543307087
        },
        {
          "duration": 0.20000000000000284,
          "durationTicks": 192,
          "midi": 52,
          "name": "E3",
          "ticks": 87744,
          "time": 91.4,
          "velocity": 0.6771653543307087
        },
        {
          "duration": 0.20000000000000284,
          "durationTicks": 192,
          "midi": 45,
          "name": "A2",
          "ticks": 87936,
          "time": 91.60000000000001,
          "velocity": 0.6771653543307087
        },
        {
          "duration": 0.19999999999998863,
          "durationTicks": 192,
          "midi": 52,
          "name": "E3",
          "ticks": 88128,
          "time": 91.80000000000001,
          "velocity": 0.6771653543307087
        },
        {
          "duration": 0.20000000000000284,
          "durationTicks": 192,
          "midi": 45,
          "name": "A2",
          "ticks": 88320,
          "time": 92,
          "velocity": 0.6771653543307087
        },
        {
          "duration": 0.20000000000000284,
          "durationTicks": 192,
          "midi": 52,
          "name": "E3",
          "ticks": 88512,
          "time": 92.2,
          "velocity": 0.6771653543307087
        },
        {
          "duration": 0.20000000000000284,
          "durationTicks": 192,
          "midi": 45,
          "name": "A2",
          "ticks": 88704,
          "time": 92.4,
          "velocity": 0.6771653543307087
        },
        {
          "duration": 0.20000000000000284,
          "durationTicks": 192,
          "midi": 52,
          "name": "E3",
          "ticks": 88896,
          "time": 92.60000000000001,
          "velocity": 0.6771653543307087
        },
        {
          "duration": 0.19999999999998863,
          "durationTicks": 192,
          "midi": 44,
          "name": "G#2",
          "ticks": 89088,
          "time": 92.80000000000001,
          "velocity": 0.6771653543307087
        },
        {
          "duration": 0.20000000000000284,
          "durationTicks": 192,
          "midi": 52,
          "name": "E3",
          "ticks": 89280,
          "time": 93,
          "velocity": 0.6771653543307087
        },
        {
          "duration": 0.20000000000000284,
          "durationTicks": 192,
          "midi": 44,
          "name": "G#2",
          "ticks": 89472,
          "time": 93.2,
          "velocity": 0.6771653543307087
        },
        {
          "duration": 0.20000000000000284,
          "durationTicks": 192,
          "midi": 52,
          "name": "E3",
          "ticks": 89664,
          "time": 93.4,
          "velocity": 0.6771653543307087
        },
        {
          "duration": 0.20000000000000284,
          "durationTicks": 192,
          "midi": 44,
          "name": "G#2",
          "ticks": 89856,
          "time": 93.60000000000001,
          "velocity": 0.6771653543307087
        },
        {
          "duration": 0.19999999999998863,
          "durationTicks": 192,
          "midi": 52,
          "name": "E3",
          "ticks": 90048,
          "time": 93.80000000000001,
          "velocity": 0.6771653543307087
        },
        {
          "duration": 0.20000000000000284,
          "durationTicks": 192,
          "midi": 44,
          "name": "G#2",
          "ticks": 90240,
          "time": 94,
          "velocity": 0.6771653543307087
        },
        {
          "duration": 0.20000000000000284,
          "durationTicks": 192,
          "midi": 52,
          "name": "E3",
          "ticks": 90432,
          "time": 94.2,
          "velocity": 0.6771653543307087
        },
        {
          "duration": 0.20000000000000284,
          "durationTicks": 192,
          "midi": 45,
          "name": "A2",
          "ticks": 90624,
          "time": 94.4,
          "velocity": 0.6771653543307087
        },
        {
          "duration": 0.20000000000000284,
          "durationTicks": 192,
          "midi": 52,
          "name": "E3",
          "ticks": 90816,
          "time": 94.60000000000001,
          "velocity": 0.6771653543307087
        },
        {
          "duration": 0.19999999999998863,
          "durationTicks": 192,
          "midi": 45,
          "name": "A2",
          "ticks": 91008,
          "time": 94.80000000000001,
          "velocity": 0.6771653543307087
        },
        {
          "duration": 0.20000000000000284,
          "durationTicks": 192,
          "midi": 52,
          "name": "E3",
          "ticks": 91200,
          "time": 95,
          "velocity": 0.6771653543307087
        },
        {
          "duration": 0.20000000000000284,
          "durationTicks": 192,
          "midi": 45,
          "name": "A2",
          "ticks": 91392,
          "time": 95.2,
          "velocity": 0.6771653543307087
        },
        {
          "duration": 0.20000000000000284,
          "durationTicks": 192,
          "midi": 52,
          "name": "E3",
          "ticks": 91584,
          "time": 95.4,
          "velocity": 0.6771653543307087
        },
        {
          "duration": 0.20000000000000284,
          "durationTicks": 192,
          "midi": 45,
          "name": "A2",
          "ticks": 91776,
          "time": 95.60000000000001,
          "velocity": 0.6771653543307087
        },
        {
          "duration": 0.19999999999998863,
          "durationTicks": 192,
          "midi": 52,
          "name": "E3",
          "ticks": 91968,
          "time": 95.80000000000001,
          "velocity": 0.6771653543307087
        },
        {
          "duration": 0.20000000000000284,
          "durationTicks": 192,
          "midi": 45,
          "name": "A2",
          "ticks": 92160,
          "time": 96,
          "velocity": 0.6771653543307087
        },
        {
          "duration": 0.20000000000000284,
          "durationTicks": 192,
          "midi": 52,
          "name": "E3",
          "ticks": 92352,
          "time": 96.2,
          "velocity": 0.6771653543307087
        },
        {
          "duration": 0.20000000000000284,
          "durationTicks": 192,
          "midi": 45,
          "name": "A2",
          "ticks": 92544,
          "time": 96.4,
          "velocity": 0.6771653543307087
        },
        {
          "duration": 0.20000000000000284,
          "durationTicks": 192,
          "midi": 52,
          "name": "E3",
          "ticks": 92736,
          "time": 96.60000000000001,
          "velocity": 0.6771653543307087
        },
        {
          "duration": 0.19999999999998863,
          "durationTicks": 192,
          "midi": 45,
          "name": "A2",
          "ticks": 92928,
          "time": 96.80000000000001,
          "velocity": 0.6771653543307087
        },
        {
          "duration": 0.20000000000000284,
          "durationTicks": 192,
          "midi": 52,
          "name": "E3",
          "ticks": 93120,
          "time": 97,
          "velocity": 0.6771653543307087
        },
        {
          "duration": 0.20000000000000284,
          "durationTicks": 192,
          "midi": 45,
          "name": "A2",
          "ticks": 93312,
          "time": 97.2,
          "velocity": 0.6771653543307087
        },
        {
          "duration": 0.20000000000000284,
          "durationTicks": 192,
          "midi": 52,
          "name": "E3",
          "ticks": 93504,
          "time": 97.4,
          "velocity": 0.6771653543307087
        },
        {
          "duration": 0.20000000000000284,
          "durationTicks": 192,
          "midi": 45,
          "name": "A2",
          "ticks": 93696,
          "time": 97.60000000000001,
          "velocity": 0.6771653543307087
        },
        {
          "duration": 0.19999999999998863,
          "durationTicks": 192,
          "midi": 52,
          "name": "E3",
          "ticks": 93888,
          "time": 97.80000000000001,
          "velocity": 0.6771653543307087
        },
        {
          "duration": 0.20000000000000284,
          "durationTicks": 192,
          "midi": 45,
          "name": "A2",
          "ticks": 94080,
          "time": 98,
          "velocity": 0.6771653543307087
        },
        {
          "duration": 0.20000000000000284,
          "durationTicks": 192,
          "midi": 52,
          "name": "E3",
          "ticks": 94272,
          "time": 98.2,
          "velocity": 0.6771653543307087
        },
        {
          "duration": 0.20000000000000284,
          "durationTicks": 192,
          "midi": 45,
          "name": "A2",
          "ticks": 94464,
          "time": 98.4,
          "velocity": 0.6771653543307087
        },
        {
          "duration": 0.20000000000000284,
          "durationTicks": 192,
          "midi": 52,
          "name": "E3",
          "ticks": 94656,
          "time": 98.60000000000001,
          "velocity": 0.6771653543307087
        },
        {
          "duration": 0.19999999999998863,
          "durationTicks": 192,
          "midi": 45,
          "name": "A2",
          "ticks": 94848,
          "time": 98.80000000000001,
          "velocity": 0.6771653543307087
        },
        {
          "duration": 0.20000000000000284,
          "durationTicks": 192,
          "midi": 52,
          "name": "E3",
          "ticks": 95040,
          "time": 99,
          "velocity": 0.6771653543307087
        },
        {
          "duration": 0.20000000000000284,
          "durationTicks": 192,
          "midi": 45,
          "name": "A2",
          "ticks": 95232,
          "time": 99.2,
          "velocity": 0.6771653543307087
        },
        {
          "duration": 0.20000000000000284,
          "durationTicks": 192,
          "midi": 52,
          "name": "E3",
          "ticks": 95424,
          "time": 99.4,
          "velocity": 0.6771653543307087
        },
        {
          "duration": 0.20000000000000284,
          "durationTicks": 192,
          "midi": 45,
          "name": "A2",
          "ticks": 95616,
          "time": 99.60000000000001,
          "velocity": 0.6771653543307087
        },
        {
          "duration": 0.19999999999998863,
          "durationTicks": 192,
          "midi": 52,
          "name": "E3",
          "ticks": 95808,
          "time": 99.80000000000001,
          "velocity": 0.6771653543307087
        },
        {
          "duration": 0.20000000000000284,
          "durationTicks": 192,
          "midi": 45,
          "name": "A2",
          "ticks": 96000,
          "time": 100,
          "velocity": 0.6771653543307087
        },
        {
          "duration": 0.20000000000000284,
          "durationTicks": 192,
          "midi": 52,
          "name": "E3",
          "ticks": 96192,
          "time": 100.2,
          "velocity": 0.6771653543307087
        },
        {
          "duration": 0.20000000000000284,
          "durationTicks": 192,
          "midi": 45,
          "name": "A2",
          "ticks": 96384,
          "time": 100.4,
          "velocity": 0.6771653543307087
        },
        {
          "duration": 0.20000000000000284,
          "durationTicks": 192,
          "midi": 52,
          "name": "E3",
          "ticks": 96576,
          "time": 100.60000000000001,
          "velocity": 0.6771653543307087
        },
        {
          "duration": 0.19999999999998863,
          "durationTicks": 192,
          "midi": 44,
          "name": "G#2",
          "ticks": 96768,
          "time": 100.80000000000001,
          "velocity": 0.6771653543307087
        },
        {
          "duration": 0.20000000000000284,
          "durationTicks": 192,
          "midi": 52,
          "name": "E3",
          "ticks": 96960,
          "time": 101,
          "velocity": 0.6771653543307087
        },
        {
          "duration": 0.20000000000000284,
          "durationTicks": 192,
          "midi": 44,
          "name": "G#2",
          "ticks": 97152,
          "time": 101.2,
          "velocity": 0.6771653543307087
        },
        {
          "duration": 0.20000000000000284,
          "durationTicks": 192,
          "midi": 52,
          "name": "E3",
          "ticks": 97344,
          "time": 101.4,
          "velocity": 0.6771653543307087
        },
        {
          "duration": 0.20000000000000284,
          "durationTicks": 192,
          "midi": 44,
          "name": "G#2",
          "ticks": 97536,
          "time": 101.60000000000001,
          "velocity": 0.6771653543307087
        },
        {
          "duration": 0.19999999999998863,
          "durationTicks": 192,
          "midi": 52,
          "name": "E3",
          "ticks": 97728,
          "time": 101.80000000000001,
          "velocity": 0.6771653543307087
        },
        {
          "duration": 0.20000000000000284,
          "durationTicks": 192,
          "midi": 44,
          "name": "G#2",
          "ticks": 97920,
          "time": 102,
          "velocity": 0.6771653543307087
        },
        {
          "duration": 0.20000000000000284,
          "durationTicks": 192,
          "midi": 52,
          "name": "E3",
          "ticks": 98112,
          "time": 102.2,
          "velocity": 0.6771653543307087
        },
        {
          "duration": 0.20000000000000284,
          "durationTicks": 192,
          "midi": 45,
          "name": "A2",
          "ticks": 98304,
          "time": 102.4,
          "velocity": 0.6771653543307087
        },
        {
          "duration": 0.20000000000000284,
          "durationTicks": 192,
          "midi": 52,
          "name": "E3",
          "ticks": 98496,
          "time": 102.60000000000001,
          "velocity": 0.6771653543307087
        },
        {
          "duration": 0.19999999999998863,
          "durationTicks": 192,
          "midi": 45,
          "name": "A2",
          "ticks": 98688,
          "time": 102.80000000000001,
          "velocity": 0.6771653543307087
        },
        {
          "duration": 0.20000000000000284,
          "durationTicks": 192,
          "midi": 52,
          "name": "E3",
          "ticks": 98880,
          "time": 103,
          "velocity": 0.6771653543307087
        },
        {
          "duration": 0.20000000000000284,
          "durationTicks": 192,
          "midi": 45,
          "name": "A2",
          "ticks": 99072,
          "time": 103.2,
          "velocity": 0.6771653543307087
        },
        {
          "duration": 0.20000000000000284,
          "durationTicks": 192,
          "midi": 52,
          "name": "E3",
          "ticks": 99264,
          "time": 103.4,
          "velocity": 0.6771653543307087
        },
        {
          "duration": 0.20000000000000284,
          "durationTicks": 192,
          "midi": 45,
          "name": "A2",
          "ticks": 99456,
          "time": 103.60000000000001,
          "velocity": 0.6771653543307087
        },
        {
          "duration": 0.19999999999998863,
          "durationTicks": 192,
          "midi": 52,
          "name": "E3",
          "ticks": 99648,
          "time": 103.80000000000001,
          "velocity": 0.6771653543307087
        },
        {
          "duration": 0.20000000000000284,
          "durationTicks": 192,
          "midi": 44,
          "name": "G#2",
          "ticks": 99840,
          "time": 104,
          "velocity": 0.6771653543307087
        },
        {
          "duration": 0.20000000000000284,
          "durationTicks": 192,
          "midi": 52,
          "name": "E3",
          "ticks": 100032,
          "time": 104.2,
          "velocity": 0.6771653543307087
        },
        {
          "duration": 0.20000000000000284,
          "durationTicks": 192,
          "midi": 44,
          "name": "G#2",
          "ticks": 100224,
          "time": 104.4,
          "velocity": 0.6771653543307087
        },
        {
          "duration": 0.20000000000000284,
          "durationTicks": 192,
          "midi": 52,
          "name": "E3",
          "ticks": 100416,
          "time": 104.60000000000001,
          "velocity": 0.6771653543307087
        },
        {
          "duration": 0.19999999999998863,
          "durationTicks": 192,
          "midi": 44,
          "name": "G#2",
          "ticks": 100608,
          "time": 104.80000000000001,
          "velocity": 0.6771653543307087
        },
        {
          "duration": 0.20000000000000284,
          "durationTicks": 192,
          "midi": 52,
          "name": "E3",
          "ticks": 100800,
          "time": 105,
          "velocity": 0.6771653543307087
        },
        {
          "duration": 0.20000000000000284,
          "durationTicks": 192,
          "midi": 44,
          "name": "G#2",
          "ticks": 100992,
          "time": 105.2,
          "velocity": 0.6771653543307087
        },
        {
          "duration": 0.20000000000000284,
          "durationTicks": 192,
          "midi": 52,
          "name": "E3",
          "ticks": 101184,
          "time": 105.4,
          "velocity": 0.6771653543307087
        },
        {
          "duration": 0.20000000000000284,
          "durationTicks": 192,
          "midi": 45,
          "name": "A2",
          "ticks": 101376,
          "time": 105.60000000000001,
          "velocity": 0.6771653543307087
        },
        {
          "duration": 0.19999999999998863,
          "durationTicks": 192,
          "midi": 52,
          "name": "E3",
          "ticks": 101568,
          "time": 105.80000000000001,
          "velocity": 0.6771653543307087
        },
        {
          "duration": 0.20000000000000284,
          "durationTicks": 192,
          "midi": 45,
          "name": "A2",
          "ticks": 101760,
          "time": 106,
          "velocity": 0.6771653543307087
        },
        {
          "duration": 0.20000000000000284,
          "durationTicks": 192,
          "midi": 52,
          "name": "E3",
          "ticks": 101952,
          "time": 106.2,
          "velocity": 0.6771653543307087
        },
        {
          "duration": 0.20000000000000284,
          "durationTicks": 192,
          "midi": 45,
          "name": "A2",
          "ticks": 102144,
          "time": 106.4,
          "velocity": 0.6771653543307087
        },
        {
          "duration": 0.20000000000000284,
          "durationTicks": 192,
          "midi": 52,
          "name": "E3",
          "ticks": 102336,
          "time": 106.60000000000001,
          "velocity": 0.6771653543307087
        },
        {
          "duration": 0.19999999999998863,
          "durationTicks": 192,
          "midi": 45,
          "name": "A2",
          "ticks": 102528,
          "time": 106.80000000000001,
          "velocity": 0.6771653543307087
        },
        {
          "duration": 0.20000000000000284,
          "durationTicks": 192,
          "midi": 52,
          "name": "E3",
          "ticks": 102720,
          "time": 107,
          "velocity": 0.6771653543307087
        },
        {
          "duration": 0.20000000000000284,
          "durationTicks": 192,
          "midi": 44,
          "name": "G#2",
          "ticks": 102912,
          "time": 107.2,
          "velocity": 0.6771653543307087
        },
        {
          "duration": 0.20000000000000284,
          "durationTicks": 192,
          "midi": 52,
          "name": "E3",
          "ticks": 103104,
          "time": 107.4,
          "velocity": 0.6771653543307087
        },
        {
          "duration": 0.20000000000000284,
          "durationTicks": 192,
          "midi": 44,
          "name": "G#2",
          "ticks": 103296,
          "time": 107.60000000000001,
          "velocity": 0.6771653543307087
        },
        {
          "duration": 0.19999999999998863,
          "durationTicks": 192,
          "midi": 52,
          "name": "E3",
          "ticks": 103488,
          "time": 107.80000000000001,
          "velocity": 0.6771653543307087
        },
        {
          "duration": 0.20000000000000284,
          "durationTicks": 192,
          "midi": 44,
          "name": "G#2",
          "ticks": 103680,
          "time": 108,
          "velocity": 0.6771653543307087
        },
        {
          "duration": 0.20000000000000284,
          "durationTicks": 192,
          "midi": 52,
          "name": "E3",
          "ticks": 103872,
          "time": 108.2,
          "velocity": 0.6771653543307087
        },
        {
          "duration": 0.20000000000000284,
          "durationTicks": 192,
          "midi": 44,
          "name": "G#2",
          "ticks": 104064,
          "time": 108.4,
          "velocity": 0.6771653543307087
        },
        {
          "duration": 0.20000000000000284,
          "durationTicks": 192,
          "midi": 52,
          "name": "E3",
          "ticks": 104256,
          "time": 108.60000000000001,
          "velocity": 0.6771653543307087
        },
        {
          "duration": 0.19999999999998863,
          "durationTicks": 192,
          "midi": 45,
          "name": "A2",
          "ticks": 104448,
          "time": 108.80000000000001,
          "velocity": 0.6771653543307087
        },
        {
          "duration": 0.20000000000000284,
          "durationTicks": 192,
          "midi": 52,
          "name": "E3",
          "ticks": 104640,
          "time": 109,
          "velocity": 0.6771653543307087
        },
        {
          "duration": 0.20000000000000284,
          "durationTicks": 192,
          "midi": 45,
          "name": "A2",
          "ticks": 104832,
          "time": 109.2,
          "velocity": 0.6771653543307087
        },
        {
          "duration": 0.20000000000000284,
          "durationTicks": 192,
          "midi": 52,
          "name": "E3",
          "ticks": 105024,
          "time": 109.4,
          "velocity": 0.6771653543307087
        },
        {
          "duration": 0.20000000000000284,
          "durationTicks": 192,
          "midi": 45,
          "name": "A2",
          "ticks": 105216,
          "time": 109.60000000000001,
          "velocity": 0.6771653543307087
        },
        {
          "duration": 0.19999999999998863,
          "durationTicks": 192,
          "midi": 52,
          "name": "E3",
          "ticks": 105408,
          "time": 109.80000000000001,
          "velocity": 0.6771653543307087
        },
        {
          "duration": 0.20000000000000284,
          "durationTicks": 192,
          "midi": 45,
          "name": "A2",
          "ticks": 105600,
          "time": 110,
          "velocity": 0.6771653543307087
        },
        {
          "duration": 0.20000000000000284,
          "durationTicks": 192,
          "midi": 52,
          "name": "E3",
          "ticks": 105792,
          "time": 110.2,
          "velocity": 0.6771653543307087
        },
        {
          "duration": 0.20000000000000284,
          "durationTicks": 192,
          "midi": 44,
          "name": "G#2",
          "ticks": 105984,
          "time": 110.4,
          "velocity": 0.6771653543307087
        },
        {
          "duration": 0.20000000000000284,
          "durationTicks": 192,
          "midi": 52,
          "name": "E3",
          "ticks": 106176,
          "time": 110.60000000000001,
          "velocity": 0.6771653543307087
        },
        {
          "duration": 0.19999999999998863,
          "durationTicks": 192,
          "midi": 44,
          "name": "G#2",
          "ticks": 106368,
          "time": 110.80000000000001,
          "velocity": 0.6771653543307087
        },
        {
          "duration": 0.20000000000000284,
          "durationTicks": 192,
          "midi": 52,
          "name": "E3",
          "ticks": 106560,
          "time": 111,
          "velocity": 0.6771653543307087
        },
        {
          "duration": 0.20000000000000284,
          "durationTicks": 192,
          "midi": 44,
          "name": "G#2",
          "ticks": 106752,
          "time": 111.2,
          "velocity": 0.6771653543307087
        },
        {
          "duration": 0.20000000000000284,
          "durationTicks": 192,
          "midi": 52,
          "name": "E3",
          "ticks": 106944,
          "time": 111.4,
          "velocity": 0.6771653543307087
        },
        {
          "duration": 0.20000000000000284,
          "durationTicks": 192,
          "midi": 44,
          "name": "G#2",
          "ticks": 107136,
          "time": 111.60000000000001,
          "velocity": 0.6771653543307087
        },
        {
          "duration": 0.19999999999998863,
          "durationTicks": 192,
          "midi": 52,
          "name": "E3",
          "ticks": 107328,
          "time": 111.80000000000001,
          "velocity": 0.6771653543307087
        },
        {
          "duration": 0.19999999999998863,
          "durationTicks": 192,
          "midi": 45,
          "name": "A2",
          "ticks": 112128,
          "time": 116.80000000000001,
          "velocity": 0.6771653543307087
        },
        {
          "duration": 0.20000000000000284,
          "durationTicks": 192,
          "midi": 52,
          "name": "E3",
          "ticks": 112320,
          "time": 117,
          "velocity": 0.6771653543307087
        },
        {
          "duration": 0.20000000000000284,
          "durationTicks": 192,
          "midi": 45,
          "name": "A2",
          "ticks": 112512,
          "time": 117.2,
          "velocity": 0.6771653543307087
        },
        {
          "duration": 0.20000000000000284,
          "durationTicks": 192,
          "midi": 52,
          "name": "E3",
          "ticks": 112704,
          "time": 117.4,
          "velocity": 0.6771653543307087
        },
        {
          "duration": 0.20000000000000284,
          "durationTicks": 192,
          "midi": 45,
          "name": "A2",
          "ticks": 112896,
          "time": 117.60000000000001,
          "velocity": 0.6771653543307087
        },
        {
          "duration": 0.19999999999998863,
          "durationTicks": 192,
          "midi": 52,
          "name": "E3",
          "ticks": 113088,
          "time": 117.80000000000001,
          "velocity": 0.6771653543307087
        },
        {
          "duration": 0.20000000000000284,
          "durationTicks": 192,
          "midi": 45,
          "name": "A2",
          "ticks": 113280,
          "time": 118,
          "velocity": 0.6771653543307087
        },
        {
          "duration": 0.20000000000000284,
          "durationTicks": 192,
          "midi": 52,
          "name": "E3",
          "ticks": 113472,
          "time": 118.2,
          "velocity": 0.6771653543307087
        },
        {
          "duration": 0.20000000000000284,
          "durationTicks": 192,
          "midi": 45,
          "name": "A2",
          "ticks": 113664,
          "time": 118.4,
          "velocity": 0.6771653543307087
        },
        {
          "duration": 0.20000000000000284,
          "durationTicks": 192,
          "midi": 52,
          "name": "E3",
          "ticks": 113856,
          "time": 118.60000000000001,
          "velocity": 0.6771653543307087
        },
        {
          "duration": 0.19999999999998863,
          "durationTicks": 192,
          "midi": 45,
          "name": "A2",
          "ticks": 114048,
          "time": 118.80000000000001,
          "velocity": 0.6771653543307087
        },
        {
          "duration": 0.20000000000000284,
          "durationTicks": 192,
          "midi": 52,
          "name": "E3",
          "ticks": 114240,
          "time": 119,
          "velocity": 0.6771653543307087
        },
        {
          "duration": 0.20000000000000284,
          "durationTicks": 192,
          "midi": 45,
          "name": "A2",
          "ticks": 114432,
          "time": 119.2,
          "velocity": 0.6771653543307087
        },
        {
          "duration": 0.20000000000000284,
          "durationTicks": 192,
          "midi": 52,
          "name": "E3",
          "ticks": 114624,
          "time": 119.4,
          "velocity": 0.6771653543307087
        },
        {
          "duration": 0.20000000000000284,
          "durationTicks": 192,
          "midi": 45,
          "name": "A2",
          "ticks": 114816,
          "time": 119.60000000000001,
          "velocity": 0.6771653543307087
        },
        {
          "duration": 0.19999999999998863,
          "durationTicks": 192,
          "midi": 52,
          "name": "E3",
          "ticks": 115008,
          "time": 119.80000000000001,
          "velocity": 0.6771653543307087
        },
        {
          "duration": 0.20000000000000284,
          "durationTicks": 192,
          "midi": 45,
          "name": "A2",
          "ticks": 115200,
          "time": 120,
          "velocity": 0.6771653543307087
        },
        {
          "duration": 0.20000000000000284,
          "durationTicks": 192,
          "midi": 52,
          "name": "E3",
          "ticks": 115392,
          "time": 120.2,
          "velocity": 0.6771653543307087
        },
        {
          "duration": 0.20000000000000284,
          "durationTicks": 192,
          "midi": 45,
          "name": "A2",
          "ticks": 115584,
          "time": 120.4,
          "velocity": 0.6771653543307087
        },
        {
          "duration": 0.20000000000000284,
          "durationTicks": 192,
          "midi": 52,
          "name": "E3",
          "ticks": 115776,
          "time": 120.60000000000001,
          "velocity": 0.6771653543307087
        },
        {
          "duration": 0.19999999999998863,
          "durationTicks": 192,
          "midi": 45,
          "name": "A2",
          "ticks": 115968,
          "time": 120.80000000000001,
          "velocity": 0.6771653543307087
        },
        {
          "duration": 0.20000000000000284,
          "durationTicks": 192,
          "midi": 52,
          "name": "E3",
          "ticks": 116160,
          "time": 121,
          "velocity": 0.6771653543307087
        },
        {
          "duration": 0.20000000000000284,
          "durationTicks": 192,
          "midi": 45,
          "name": "A2",
          "ticks": 116352,
          "time": 121.2,
          "velocity": 0.6771653543307087
        },
        {
          "duration": 0.20000000000000284,
          "durationTicks": 192,
          "midi": 52,
          "name": "E3",
          "ticks": 116544,
          "time": 121.4,
          "velocity": 0.6771653543307087
        },
        {
          "duration": 0.20000000000000284,
          "durationTicks": 192,
          "midi": 44,
          "name": "G#2",
          "ticks": 116736,
          "time": 121.60000000000001,
          "velocity": 0.6771653543307087
        },
        {
          "duration": 0.19999999999998863,
          "durationTicks": 192,
          "midi": 52,
          "name": "E3",
          "ticks": 116928,
          "time": 121.80000000000001,
          "velocity": 0.6771653543307087
        },
        {
          "duration": 0.20000000000000284,
          "durationTicks": 192,
          "midi": 44,
          "name": "G#2",
          "ticks": 117120,
          "time": 122,
          "velocity": 0.6771653543307087
        },
        {
          "duration": 0.20000000000000284,
          "durationTicks": 192,
          "midi": 52,
          "name": "E3",
          "ticks": 117312,
          "time": 122.2,
          "velocity": 0.6771653543307087
        },
        {
          "duration": 0.20000000000000284,
          "durationTicks": 192,
          "midi": 44,
          "name": "G#2",
          "ticks": 117504,
          "time": 122.4,
          "velocity": 0.6771653543307087
        },
        {
          "duration": 0.20000000000000284,
          "durationTicks": 192,
          "midi": 52,
          "name": "E3",
          "ticks": 117696,
          "time": 122.60000000000001,
          "velocity": 0.6771653543307087
        },
        {
          "duration": 0.19999999999998863,
          "durationTicks": 192,
          "midi": 44,
          "name": "G#2",
          "ticks": 117888,
          "time": 122.80000000000001,
          "velocity": 0.6771653543307087
        },
        {
          "duration": 0.20000000000000284,
          "durationTicks": 192,
          "midi": 52,
          "name": "E3",
          "ticks": 118080,
          "time": 123,
          "velocity": 0.6771653543307087
        },
        {
          "duration": 0.20000000000000284,
          "durationTicks": 192,
          "midi": 45,
          "name": "A2",
          "ticks": 118272,
          "time": 123.2,
          "velocity": 0.6771653543307087
        },
        {
          "duration": 0.20000000000000284,
          "durationTicks": 192,
          "midi": 52,
          "name": "E3",
          "ticks": 118464,
          "time": 123.4,
          "velocity": 0.6771653543307087
        },
        {
          "duration": 0.20000000000000284,
          "durationTicks": 192,
          "midi": 45,
          "name": "A2",
          "ticks": 118656,
          "time": 123.60000000000001,
          "velocity": 0.6771653543307087
        },
        {
          "duration": 0.19999999999998863,
          "durationTicks": 192,
          "midi": 52,
          "name": "E3",
          "ticks": 118848,
          "time": 123.80000000000001,
          "velocity": 0.6771653543307087
        },
        {
          "duration": 0.20000000000000284,
          "durationTicks": 192,
          "midi": 45,
          "name": "A2",
          "ticks": 119040,
          "time": 124,
          "velocity": 0.6771653543307087
        },
        {
          "duration": 0.20000000000000284,
          "durationTicks": 192,
          "midi": 52,
          "name": "E3",
          "ticks": 119232,
          "time": 124.2,
          "velocity": 0.6771653543307087
        },
        {
          "duration": 0.20000000000000284,
          "durationTicks": 192,
          "midi": 45,
          "name": "A2",
          "ticks": 119424,
          "time": 124.4,
          "velocity": 0.6771653543307087
        },
        {
          "duration": 0.20000000000000284,
          "durationTicks": 192,
          "midi": 52,
          "name": "E3",
          "ticks": 119616,
          "time": 124.60000000000001,
          "velocity": 0.6771653543307087
        },
        {
          "duration": 0.19999999999998863,
          "durationTicks": 192,
          "midi": 44,
          "name": "G#2",
          "ticks": 119808,
          "time": 124.80000000000001,
          "velocity": 0.6771653543307087
        },
        {
          "duration": 0.20000000000000284,
          "durationTicks": 192,
          "midi": 52,
          "name": "E3",
          "ticks": 120000,
          "time": 125,
          "velocity": 0.6771653543307087
        },
        {
          "duration": 0.20000000000000284,
          "durationTicks": 192,
          "midi": 44,
          "name": "G#2",
          "ticks": 120192,
          "time": 125.2,
          "velocity": 0.6771653543307087
        },
        {
          "duration": 0.20000000000000284,
          "durationTicks": 192,
          "midi": 52,
          "name": "E3",
          "ticks": 120384,
          "time": 125.4,
          "velocity": 0.6771653543307087
        },
        {
          "duration": 0.20000000000000284,
          "durationTicks": 192,
          "midi": 44,
          "name": "G#2",
          "ticks": 120576,
          "time": 125.60000000000001,
          "velocity": 0.6771653543307087
        },
        {
          "duration": 0.19999999999998863,
          "durationTicks": 192,
          "midi": 52,
          "name": "E3",
          "ticks": 120768,
          "time": 125.80000000000001,
          "velocity": 0.6771653543307087
        },
        {
          "duration": 0.20000000000000284,
          "durationTicks": 192,
          "midi": 44,
          "name": "G#2",
          "ticks": 120960,
          "time": 126,
          "velocity": 0.6771653543307087
        },
        {
          "duration": 0.20000000000000284,
          "durationTicks": 192,
          "midi": 52,
          "name": "E3",
          "ticks": 121152,
          "time": 126.2,
          "velocity": 0.6771653543307087
        },
        {
          "duration": 0.20000000000000284,
          "durationTicks": 192,
          "midi": 45,
          "name": "A2",
          "ticks": 121344,
          "time": 126.4,
          "velocity": 0.6771653543307087
        },
        {
          "duration": 0.20000000000000284,
          "durationTicks": 192,
          "midi": 52,
          "name": "E3",
          "ticks": 121536,
          "time": 126.60000000000001,
          "velocity": 0.6771653543307087
        },
        {
          "duration": 0.19999999999998863,
          "durationTicks": 192,
          "midi": 45,
          "name": "A2",
          "ticks": 121728,
          "time": 126.80000000000001,
          "velocity": 0.6771653543307087
        },
        {
          "duration": 0.20000000000000284,
          "durationTicks": 192,
          "midi": 52,
          "name": "E3",
          "ticks": 121920,
          "time": 127,
          "velocity": 0.6771653543307087
        },
        {
          "duration": 0.20000000000000284,
          "durationTicks": 192,
          "midi": 45,
          "name": "A2",
          "ticks": 122112,
          "time": 127.2,
          "velocity": 0.6771653543307087
        },
        {
          "duration": 0.20000000000000284,
          "durationTicks": 192,
          "midi": 52,
          "name": "E3",
          "ticks": 122304,
          "time": 127.4,
          "velocity": 0.6771653543307087
        },
        {
          "duration": 0.20000000000000284,
          "durationTicks": 192,
          "midi": 45,
          "name": "A2",
          "ticks": 122496,
          "time": 127.60000000000001,
          "velocity": 0.6771653543307087
        },
        {
          "duration": 0.19999999999998863,
          "durationTicks": 192,
          "midi": 52,
          "name": "E3",
          "ticks": 122688,
          "time": 127.80000000000001,
          "velocity": 0.6771653543307087
        },
        {
          "duration": 0.20000000000001705,
          "durationTicks": 192,
          "midi": 44,
          "name": "G#2",
          "ticks": 122880,
          "time": 128,
          "velocity": 0.6771653543307087
        },
        {
          "duration": 0.19999999999998863,
          "durationTicks": 192,
          "midi": 52,
          "name": "E3",
          "ticks": 123072,
          "time": 128.20000000000002,
          "velocity": 0.6771653543307087
        },
        {
          "duration": 0.19999999999998863,
          "durationTicks": 192,
          "midi": 44,
          "name": "G#2",
          "ticks": 123264,
          "time": 128.4,
          "velocity": 0.6771653543307087
        },
        {
          "duration": 0.20000000000001705,
          "durationTicks": 192,
          "midi": 52,
          "name": "E3",
          "ticks": 123456,
          "time": 128.6,
          "velocity": 0.6771653543307087
        },
        {
          "duration": 0.19999999999998863,
          "durationTicks": 192,
          "midi": 44,
          "name": "G#2",
          "ticks": 123648,
          "time": 128.8,
          "velocity": 0.6771653543307087
        },
        {
          "duration": 0.20000000000001705,
          "durationTicks": 192,
          "midi": 52,
          "name": "E3",
          "ticks": 123840,
          "time": 129,
          "velocity": 0.6771653543307087
        },
        {
          "duration": 0.19999999999998863,
          "durationTicks": 192,
          "midi": 44,
          "name": "G#2",
          "ticks": 124032,
          "time": 129.20000000000002,
          "velocity": 0.6771653543307087
        },
        {
          "duration": 0.19999999999998863,
          "durationTicks": 192,
          "midi": 52,
          "name": "E3",
          "ticks": 124224,
          "time": 129.4,
          "velocity": 0.6771653543307087
        },
        {
          "duration": 0.20000000000001705,
          "durationTicks": 192,
          "midi": 45,
          "name": "A2",
          "ticks": 124416,
          "time": 129.6,
          "velocity": 0.6771653543307087
        },
        {
          "duration": 0.19999999999998863,
          "durationTicks": 192,
          "midi": 52,
          "name": "E3",
          "ticks": 124608,
          "time": 129.8,
          "velocity": 0.6771653543307087
        },
        {
          "duration": 0.20000000000001705,
          "durationTicks": 192,
          "midi": 45,
          "name": "A2",
          "ticks": 124800,
          "time": 130,
          "velocity": 0.6771653543307087
        },
        {
          "duration": 0.19999999999998863,
          "durationTicks": 192,
          "midi": 52,
          "name": "E3",
          "ticks": 124992,
          "time": 130.20000000000002,
          "velocity": 0.6771653543307087
        },
        {
          "duration": 0.19999999999998863,
          "durationTicks": 192,
          "midi": 45,
          "name": "A2",
          "ticks": 125184,
          "time": 130.4,
          "velocity": 0.6771653543307087
        },
        {
          "duration": 0.20000000000001705,
          "durationTicks": 192,
          "midi": 52,
          "name": "E3",
          "ticks": 125376,
          "time": 130.6,
          "velocity": 0.6771653543307087
        },
        {
          "duration": 0.19999999999998863,
          "durationTicks": 192,
          "midi": 45,
          "name": "A2",
          "ticks": 125568,
          "time": 130.8,
          "velocity": 0.6771653543307087
        },
        {
          "duration": 0.20000000000001705,
          "durationTicks": 192,
          "midi": 52,
          "name": "E3",
          "ticks": 125760,
          "time": 131,
          "velocity": 0.6771653543307087
        },
        {
          "duration": 0.19999999999998863,
          "durationTicks": 192,
          "midi": 44,
          "name": "G#2",
          "ticks": 125952,
          "time": 131.20000000000002,
          "velocity": 0.6771653543307087
        },
        {
          "duration": 0.19999999999998863,
          "durationTicks": 192,
          "midi": 52,
          "name": "E3",
          "ticks": 126144,
          "time": 131.4,
          "velocity": 0.6771653543307087
        },
        {
          "duration": 0.20000000000001705,
          "durationTicks": 192,
          "midi": 44,
          "name": "G#2",
          "ticks": 126336,
          "time": 131.6,
          "velocity": 0.6771653543307087
        },
        {
          "duration": 0.19999999999998863,
          "durationTicks": 192,
          "midi": 52,
          "name": "E3",
          "ticks": 126528,
          "time": 131.8,
          "velocity": 0.6771653543307087
        },
        {
          "duration": 0.19999999999998863,
          "durationTicks": 192,
          "midi": 40,
          "name": "E2",
          "ticks": 127488,
          "time": 132.8,
          "velocity": 0.6771653543307087
        },
        {
          "duration": 0.20000000000001705,
          "durationTicks": 192,
          "midi": 52,
          "name": "E3",
          "ticks": 127680,
          "time": 133,
          "velocity": 0.6771653543307087
        },
        {
          "duration": 0.19999999999998863,
          "durationTicks": 192,
          "midi": 40,
          "name": "E2",
          "ticks": 127872,
          "time": 133.20000000000002,
          "velocity": 0.6771653543307087
        },
        {
          "duration": 0.19999999999998863,
          "durationTicks": 192,
          "midi": 52,
          "name": "E3",
          "ticks": 128064,
          "time": 133.4,
          "velocity": 0.6771653543307087
        },
        {
          "duration": 0.20000000000001705,
          "durationTicks": 192,
          "midi": 40,
          "name": "E2",
          "ticks": 128256,
          "time": 133.6,
          "velocity": 0.6771653543307087
        },
        {
          "duration": 0.19999999999998863,
          "durationTicks": 192,
          "midi": 52,
          "name": "E3",
          "ticks": 128448,
          "time": 133.8,
          "velocity": 0.6771653543307087
        },
        {
          "duration": 0.20000000000001705,
          "durationTicks": 192,
          "midi": 40,
          "name": "E2",
          "ticks": 128640,
          "time": 134,
          "velocity": 0.6771653543307087
        },
        {
          "duration": 0.19999999999998863,
          "durationTicks": 192,
          "midi": 52,
          "name": "E3",
          "ticks": 128832,
          "time": 134.20000000000002,
          "velocity": 0.6771653543307087
        },
        {
          "duration": 0.19999999999998863,
          "durationTicks": 192,
          "midi": 45,
          "name": "A2",
          "ticks": 129024,
          "time": 134.4,
          "velocity": 0.6771653543307087
        },
        {
          "duration": 0.20000000000001705,
          "durationTicks": 192,
          "midi": 57,
          "name": "A3",
          "ticks": 129216,
          "time": 134.6,
          "velocity": 0.6771653543307087
        },
        {
          "duration": 0.19999999999998863,
          "durationTicks": 192,
          "midi": 45,
          "name": "A2",
          "ticks": 129408,
          "time": 134.8,
          "velocity": 0.6771653543307087
        },
        {
          "duration": 0.20000000000001705,
          "durationTicks": 192,
          "midi": 57,
          "name": "A3",
          "ticks": 129600,
          "time": 135,
          "velocity": 0.6771653543307087
        },
        {
          "duration": 0.19999999999998863,
          "durationTicks": 192,
          "midi": 45,
          "name": "A2",
          "ticks": 129792,
          "time": 135.20000000000002,
          "velocity": 0.6771653543307087
        },
        {
          "duration": 0.19999999999998863,
          "durationTicks": 192,
          "midi": 57,
          "name": "A3",
          "ticks": 129984,
          "time": 135.4,
          "velocity": 0.6771653543307087
        },
        {
          "duration": 0.20000000000001705,
          "durationTicks": 192,
          "midi": 45,
          "name": "A2",
          "ticks": 130176,
          "time": 135.6,
          "velocity": 0.6771653543307087
        },
        {
          "duration": 0.19999999999998863,
          "durationTicks": 192,
          "midi": 57,
          "name": "A3",
          "ticks": 130368,
          "time": 135.8,
          "velocity": 0.6771653543307087
        },
        {
          "duration": 0.20000000000001705,
          "durationTicks": 192,
          "midi": 44,
          "name": "G#2",
          "ticks": 130560,
          "time": 136,
          "velocity": 0.6771653543307087
        },
        {
          "duration": 0.19999999999998863,
          "durationTicks": 192,
          "midi": 56,
          "name": "G#3",
          "ticks": 130752,
          "time": 136.20000000000002,
          "velocity": 0.6771653543307087
        },
        {
          "duration": 0.19999999999998863,
          "durationTicks": 192,
          "midi": 44,
          "name": "G#2",
          "ticks": 130944,
          "time": 136.4,
          "velocity": 0.6771653543307087
        },
        {
          "duration": 0.20000000000001705,
          "durationTicks": 192,
          "midi": 56,
          "name": "G#3",
          "ticks": 131136,
          "time": 136.6,
          "velocity": 0.6771653543307087
        },
        {
          "duration": 0.19999999999998863,
          "durationTicks": 192,
          "midi": 40,
          "name": "E2",
          "ticks": 131328,
          "time": 136.8,
          "velocity": 0.6771653543307087
        },
        {
          "duration": 0.20000000000001705,
          "durationTicks": 192,
          "midi": 52,
          "name": "E3",
          "ticks": 131520,
          "time": 137,
          "velocity": 0.6771653543307087
        },
        {
          "duration": 0.19999999999998863,
          "durationTicks": 192,
          "midi": 40,
          "name": "E2",
          "ticks": 131712,
          "time": 137.20000000000002,
          "velocity": 0.6771653543307087
        },
        {
          "duration": 0.19999999999998863,
          "durationTicks": 192,
          "midi": 52,
          "name": "E3",
          "ticks": 131904,
          "time": 137.4,
          "velocity": 0.6771653543307087
        },
        {
          "duration": 0.20000000000001705,
          "durationTicks": 192,
          "midi": 45,
          "name": "A2",
          "ticks": 132096,
          "time": 137.6,
          "velocity": 0.6771653543307087
        },
        {
          "duration": 0.19999999999998863,
          "durationTicks": 192,
          "midi": 57,
          "name": "A3",
          "ticks": 132288,
          "time": 137.8,
          "velocity": 0.6771653543307087
        },
        {
          "duration": 0.20000000000001705,
          "durationTicks": 192,
          "midi": 45,
          "name": "A2",
          "ticks": 132480,
          "time": 138,
          "velocity": 0.6771653543307087
        },
        {
          "duration": 0.19999999999998863,
          "durationTicks": 192,
          "midi": 57,
          "name": "A3",
          "ticks": 132672,
          "time": 138.20000000000002,
          "velocity": 0.6771653543307087
        },
        {
          "duration": 0.19999999999998863,
          "durationTicks": 192,
          "midi": 45,
          "name": "A2",
          "ticks": 132864,
          "time": 138.4,
          "velocity": 0.6771653543307087
        },
        {
          "duration": 0.20000000000001705,
          "durationTicks": 192,
          "midi": 57,
          "name": "A3",
          "ticks": 133056,
          "time": 138.6,
          "velocity": 0.6771653543307087
        },
        {
          "duration": 0.19999999999998863,
          "durationTicks": 192,
          "midi": 47,
          "name": "B2",
          "ticks": 133248,
          "time": 138.8,
          "velocity": 0.6771653543307087
        },
        {
          "duration": 0.20000000000001705,
          "durationTicks": 192,
          "midi": 48,
          "name": "C3",
          "ticks": 133440,
          "time": 139,
          "velocity": 0.6771653543307087
        },
        {
          "duration": 0.19999999999998863,
          "durationTicks": 192,
          "midi": 50,
          "name": "D3",
          "ticks": 133632,
          "time": 139.20000000000002,
          "velocity": 0.6771653543307087
        },
        {
          "duration": 0.19999999999998863,
          "durationTicks": 192,
          "midi": 38,
          "name": "D2",
          "ticks": 133824,
          "time": 139.4,
          "velocity": 0.6771653543307087
        },
        {
          "duration": 0.19999999999998863,
          "durationTicks": 192,
          "midi": 38,
          "name": "D2",
          "ticks": 134208,
          "time": 139.8,
          "velocity": 0.6771653543307087
        },
        {
          "duration": 0.19999999999998863,
          "durationTicks": 192,
          "midi": 38,
          "name": "D2",
          "ticks": 134592,
          "time": 140.20000000000002,
          "velocity": 0.6771653543307087
        },
        {
          "duration": 0.19999999999998863,
          "durationTicks": 192,
          "midi": 45,
          "name": "A2",
          "ticks": 134784,
          "time": 140.4,
          "velocity": 0.6771653543307087
        },
        {
          "duration": 0.20000000000001705,
          "durationTicks": 192,
          "midi": 41,
          "name": "F2",
          "ticks": 134976,
          "time": 140.6,
          "velocity": 0.6771653543307087
        },
        {
          "duration": 0.19999999999998863,
          "durationTicks": 192,
          "midi": 36,
          "name": "C2",
          "ticks": 135168,
          "time": 140.8,
          "velocity": 0.6771653543307087
        },
        {
          "duration": 0.20000000000001705,
          "durationTicks": 192,
          "midi": 48,
          "name": "C3",
          "ticks": 135360,
          "time": 141,
          "velocity": 0.6771653543307087
        },
        {
          "duration": 0.19999999999998863,
          "durationTicks": 192,
          "midi": 48,
          "name": "C3",
          "ticks": 135744,
          "time": 141.4,
          "velocity": 0.6771653543307087
        },
        {
          "duration": 0.20000000000001705,
          "durationTicks": 192,
          "midi": 36,
          "name": "C2",
          "ticks": 135936,
          "time": 141.6,
          "velocity": 0.6771653543307087
        },
        {
          "duration": 0.19999999999998863,
          "durationTicks": 192,
          "midi": 43,
          "name": "G2",
          "ticks": 136128,
          "time": 141.8,
          "velocity": 0.6771653543307087
        },
        {
          "duration": 0.30000000000001137,
          "durationTicks": 288,
          "midi": 43,
          "name": "G2",
          "ticks": 136320,
          "time": 142,
          "velocity": 0.6771653543307087
        },
        {
          "duration": 0.19999999999998863,
          "durationTicks": 192,
          "midi": 47,
          "name": "B2",
          "ticks": 136704,
          "time": 142.4,
          "velocity": 0.6771653543307087
        },
        {
          "duration": 0.20000000000001705,
          "durationTicks": 192,
          "midi": 59,
          "name": "B3",
          "ticks": 136896,
          "time": 142.6,
          "velocity": 0.6771653543307087
        },
        {
          "duration": 0.20000000000001705,
          "durationTicks": 192,
          "midi": 59,
          "name": "B3",
          "ticks": 137280,
          "time": 143,
          "velocity": 0.6771653543307087
        },
        {
          "duration": 0.19999999999998863,
          "durationTicks": 192,
          "midi": 52,
          "name": "E3",
          "ticks": 137664,
          "time": 143.4,
          "velocity": 0.6771653543307087
        },
        {
          "duration": 0.19999999999998863,
          "durationTicks": 192,
          "midi": 56,
          "name": "G#3",
          "ticks": 138048,
          "time": 143.8,
          "velocity": 0.6771653543307087
        },
        {
          "duration": 0.20000000000001705,
          "durationTicks": 192,
          "midi": 45,
          "name": "A2",
          "ticks": 138240,
          "time": 144,
          "velocity": 0.6771653543307087
        },
        {
          "duration": 0.19999999999998863,
          "durationTicks": 192,
          "midi": 52,
          "name": "E3",
          "ticks": 138432,
          "time": 144.20000000000002,
          "velocity": 0.6771653543307087
        },
        {
          "duration": 0.19999999999998863,
          "durationTicks": 192,
          "midi": 45,
          "name": "A2",
          "ticks": 138624,
          "time": 144.4,
          "velocity": 0.6771653543307087
        },
        {
          "duration": 0.20000000000001705,
          "durationTicks": 192,
          "midi": 52,
          "name": "E3",
          "ticks": 138816,
          "time": 144.6,
          "velocity": 0.6771653543307087
        },
        {
          "duration": 0.29999999999998295,
          "durationTicks": 288,
          "midi": 45,
          "name": "A2",
          "ticks": 139008,
          "time": 144.8,
          "velocity": 0.6771653543307087
        },
        {
          "duration": 0.20000000000001705,
          "durationTicks": 192,
          "midi": 40,
          "name": "E2",
          "ticks": 139776,
          "time": 145.6,
          "velocity": 0.6771653543307087
        },
        {
          "duration": 0.19999999999998863,
          "durationTicks": 192,
          "midi": 52,
          "name": "E3",
          "ticks": 139968,
          "time": 145.8,
          "velocity": 0.6771653543307087
        },
        {
          "duration": 0.20000000000001705,
          "durationTicks": 192,
          "midi": 40,
          "name": "E2",
          "ticks": 140160,
          "time": 146,
          "velocity": 0.6771653543307087
        },
        {
          "duration": 0.19999999999998863,
          "durationTicks": 192,
          "midi": 52,
          "name": "E3",
          "ticks": 140352,
          "time": 146.20000000000002,
          "velocity": 0.6771653543307087
        },
        {
          "duration": 0.19999999999998863,
          "durationTicks": 192,
          "midi": 40,
          "name": "E2",
          "ticks": 140544,
          "time": 146.4,
          "velocity": 0.6771653543307087
        },
        {
          "duration": 0.20000000000001705,
          "durationTicks": 192,
          "midi": 52,
          "name": "E3",
          "ticks": 140736,
          "time": 146.6,
          "velocity": 0.6771653543307087
        },
        {
          "duration": 0.19999999999998863,
          "durationTicks": 192,
          "midi": 40,
          "name": "E2",
          "ticks": 140928,
          "time": 146.8,
          "velocity": 0.6771653543307087
        },
        {
          "duration": 0.20000000000001705,
          "durationTicks": 192,
          "midi": 52,
          "name": "E3",
          "ticks": 141120,
          "time": 147,
          "velocity": 0.6771653543307087
        },
        {
          "duration": 0.19999999999998863,
          "durationTicks": 192,
          "midi": 45,
          "name": "A2",
          "ticks": 141312,
          "time": 147.20000000000002,
          "velocity": 0.6771653543307087
        },
        {
          "duration": 0.19999999999998863,
          "durationTicks": 192,
          "midi": 57,
          "name": "A3",
          "ticks": 141504,
          "time": 147.4,
          "velocity": 0.6771653543307087
        },
        {
          "duration": 0.20000000000001705,
          "durationTicks": 192,
          "midi": 45,
          "name": "A2",
          "ticks": 141696,
          "time": 147.6,
          "velocity": 0.6771653543307087
        },
        {
          "duration": 0.19999999999998863,
          "durationTicks": 192,
          "midi": 57,
          "name": "A3",
          "ticks": 141888,
          "time": 147.8,
          "velocity": 0.6771653543307087
        },
        {
          "duration": 0.20000000000001705,
          "durationTicks": 192,
          "midi": 45,
          "name": "A2",
          "ticks": 142080,
          "time": 148,
          "velocity": 0.6771653543307087
        },
        {
          "duration": 0.19999999999998863,
          "durationTicks": 192,
          "midi": 57,
          "name": "A3",
          "ticks": 142272,
          "time": 148.20000000000002,
          "velocity": 0.6771653543307087
        },
        {
          "duration": 0.19999999999998863,
          "durationTicks": 192,
          "midi": 45,
          "name": "A2",
          "ticks": 142464,
          "time": 148.4,
          "velocity": 0.6771653543307087
        },
        {
          "duration": 0.20000000000001705,
          "durationTicks": 192,
          "midi": 57,
          "name": "A3",
          "ticks": 142656,
          "time": 148.6,
          "velocity": 0.6771653543307087
        },
        {
          "duration": 0.19999999999998863,
          "durationTicks": 192,
          "midi": 44,
          "name": "G#2",
          "ticks": 142848,
          "time": 148.8,
          "velocity": 0.6771653543307087
        },
        {
          "duration": 0.20000000000001705,
          "durationTicks": 192,
          "midi": 56,
          "name": "G#3",
          "ticks": 143040,
          "time": 149,
          "velocity": 0.6771653543307087
        },
        {
          "duration": 0.19999999999998863,
          "durationTicks": 192,
          "midi": 44,
          "name": "G#2",
          "ticks": 143232,
          "time": 149.20000000000002,
          "velocity": 0.6771653543307087
        },
        {
          "duration": 0.19999999999998863,
          "durationTicks": 192,
          "midi": 56,
          "name": "G#3",
          "ticks": 143424,
          "time": 149.4,
          "velocity": 0.6771653543307087
        },
        {
          "duration": 0.20000000000001705,
          "durationTicks": 192,
          "midi": 40,
          "name": "E2",
          "ticks": 143616,
          "time": 149.6,
          "velocity": 0.6771653543307087
        },
        {
          "duration": 0.19999999999998863,
          "durationTicks": 192,
          "midi": 52,
          "name": "E3",
          "ticks": 143808,
          "time": 149.8,
          "velocity": 0.6771653543307087
        },
        {
          "duration": 0.20000000000001705,
          "durationTicks": 192,
          "midi": 40,
          "name": "E2",
          "ticks": 144000,
          "time": 150,
          "velocity": 0.6771653543307087
        },
        {
          "duration": 0.19999999999998863,
          "durationTicks": 192,
          "midi": 52,
          "name": "E3",
          "ticks": 144192,
          "time": 150.20000000000002,
          "velocity": 0.6771653543307087
        },
        {
          "duration": 0.19999999999998863,
          "durationTicks": 192,
          "midi": 45,
          "name": "A2",
          "ticks": 144384,
          "time": 150.4,
          "velocity": 0.6771653543307087
        },
        {
          "duration": 0.20000000000001705,
          "durationTicks": 192,
          "midi": 57,
          "name": "A3",
          "ticks": 144576,
          "time": 150.6,
          "velocity": 0.6771653543307087
        },
        {
          "duration": 0.19999999999998863,
          "durationTicks": 192,
          "midi": 45,
          "name": "A2",
          "ticks": 144768,
          "time": 150.8,
          "velocity": 0.6771653543307087
        },
        {
          "duration": 0.20000000000001705,
          "durationTicks": 192,
          "midi": 57,
          "name": "A3",
          "ticks": 144960,
          "time": 151,
          "velocity": 0.6771653543307087
        },
        {
          "duration": 0.19999999999998863,
          "durationTicks": 192,
          "midi": 45,
          "name": "A2",
          "ticks": 145152,
          "time": 151.20000000000002,
          "velocity": 0.6771653543307087
        },
        {
          "duration": 0.19999999999998863,
          "durationTicks": 192,
          "midi": 57,
          "name": "A3",
          "ticks": 145344,
          "time": 151.4,
          "velocity": 0.6771653543307087
        },
        {
          "duration": 0.20000000000001705,
          "durationTicks": 192,
          "midi": 47,
          "name": "B2",
          "ticks": 145536,
          "time": 151.6,
          "velocity": 0.6771653543307087
        },
        {
          "duration": 0.19999999999998863,
          "durationTicks": 192,
          "midi": 48,
          "name": "C3",
          "ticks": 145728,
          "time": 151.8,
          "velocity": 0.6771653543307087
        },
        {
          "duration": 0.20000000000001705,
          "durationTicks": 192,
          "midi": 50,
          "name": "D3",
          "ticks": 145920,
          "time": 152,
          "velocity": 0.6771653543307087
        },
        {
          "duration": 0.19999999999998863,
          "durationTicks": 192,
          "midi": 38,
          "name": "D2",
          "ticks": 146112,
          "time": 152.20000000000002,
          "velocity": 0.6771653543307087
        },
        {
          "duration": 0.20000000000001705,
          "durationTicks": 192,
          "midi": 38,
          "name": "D2",
          "ticks": 146496,
          "time": 152.6,
          "velocity": 0.6771653543307087
        },
        {
          "duration": 0.20000000000001705,
          "durationTicks": 192,
          "midi": 38,
          "name": "D2",
          "ticks": 146880,
          "time": 153,
          "velocity": 0.6771653543307087
        },
        {
          "duration": 0.19999999999998863,
          "durationTicks": 192,
          "midi": 45,
          "name": "A2",
          "ticks": 147072,
          "time": 153.20000000000002,
          "velocity": 0.6771653543307087
        },
        {
          "duration": 0.20000000000001705,
          "durationTicks": 192,
          "midi": 41,
          "name": "F2",
          "ticks": 147264,
          "time": 153.4,
          "velocity": 0.6771653543307087
        },
        {
          "duration": 0.19999999999998863,
          "durationTicks": 192,
          "midi": 36,
          "name": "C2",
          "ticks": 147456,
          "time": 153.60000000000002,
          "velocity": 0.6771653543307087
        },
        {
          "duration": 0.19999999999998863,
          "durationTicks": 192,
          "midi": 48,
          "name": "C3",
          "ticks": 147648,
          "time": 153.8,
          "velocity": 0.6771653543307087
        },
        {
          "duration": 0.19999999999998863,
          "durationTicks": 192,
          "midi": 48,
          "name": "C3",
          "ticks": 148032,
          "time": 154.20000000000002,
          "velocity": 0.6771653543307087
        },
        {
          "duration": 0.20000000000001705,
          "durationTicks": 192,
          "midi": 36,
          "name": "C2",
          "ticks": 148224,
          "time": 154.4,
          "velocity": 0.6771653543307087
        },
        {
          "duration": 0.19999999999998863,
          "durationTicks": 192,
          "midi": 43,
          "name": "G2",
          "ticks": 148416,
          "time": 154.60000000000002,
          "velocity": 0.6771653543307087
        },
        {
          "duration": 0.30000000000001137,
          "durationTicks": 288,
          "midi": 43,
          "name": "G2",
          "ticks": 148608,
          "time": 154.8,
          "velocity": 0.6771653543307087
        },
        {
          "duration": 0.19999999999998863,
          "durationTicks": 192,
          "midi": 47,
          "name": "B2",
          "ticks": 148992,
          "time": 155.20000000000002,
          "velocity": 0.6771653543307087
        },
        {
          "duration": 0.20000000000001705,
          "durationTicks": 192,
          "midi": 59,
          "name": "B3",
          "ticks": 149184,
          "time": 155.4,
          "velocity": 0.6771653543307087
        },
        {
          "duration": 0.19999999999998863,
          "durationTicks": 192,
          "midi": 59,
          "name": "B3",
          "ticks": 149568,
          "time": 155.8,
          "velocity": 0.6771653543307087
        },
        {
          "duration": 0.19999999999998863,
          "durationTicks": 192,
          "midi": 52,
          "name": "E3",
          "ticks": 149952,
          "time": 156.20000000000002,
          "velocity": 0.6771653543307087
        },
        {
          "duration": 0.19999999999998863,
          "durationTicks": 192,
          "midi": 56,
          "name": "G#3",
          "ticks": 150336,
          "time": 156.60000000000002,
          "velocity": 0.6771653543307087
        },
        {
          "duration": 0.19999999999998863,
          "durationTicks": 192,
          "midi": 45,
          "name": "A2",
          "ticks": 150528,
          "time": 156.8,
          "velocity": 0.6771653543307087
        },
        {
          "duration": 0.20000000000001705,
          "durationTicks": 192,
          "midi": 52,
          "name": "E3",
          "ticks": 150720,
          "time": 157,
          "velocity": 0.6771653543307087
        },
        {
          "duration": 0.19999999999998863,
          "durationTicks": 192,
          "midi": 45,
          "name": "A2",
          "ticks": 150912,
          "time": 157.20000000000002,
          "velocity": 0.6771653543307087
        },
        {
          "duration": 0.20000000000001705,
          "durationTicks": 192,
          "midi": 52,
          "name": "E3",
          "ticks": 151104,
          "time": 157.4,
          "velocity": 0.6771653543307087
        },
        {
          "duration": 0.29999999999998295,
          "durationTicks": 288,
          "midi": 45,
          "name": "A2",
          "ticks": 151296,
          "time": 157.60000000000002,
          "velocity": 0.6771653543307087
        },
        {
          "duration": 0.20000000000001705,
          "durationTicks": 192,
          "midi": 45,
          "name": "A2",
          "ticks": 152064,
          "time": 158.4,
          "velocity": 0.6771653543307087
        },
        {
          "duration": 0.19999999999998863,
          "durationTicks": 192,
          "midi": 52,
          "name": "E3",
          "ticks": 152256,
          "time": 158.60000000000002,
          "velocity": 0.6771653543307087
        },
        {
          "duration": 0.19999999999998863,
          "durationTicks": 192,
          "midi": 45,
          "name": "A2",
          "ticks": 152448,
          "time": 158.8,
          "velocity": 0.6771653543307087
        },
        {
          "duration": 0.20000000000001705,
          "durationTicks": 192,
          "midi": 52,
          "name": "E3",
          "ticks": 152640,
          "time": 159,
          "velocity": 0.6771653543307087
        },
        {
          "duration": 0.19999999999998863,
          "durationTicks": 192,
          "midi": 45,
          "name": "A2",
          "ticks": 152832,
          "time": 159.20000000000002,
          "velocity": 0.6771653543307087
        },
        {
          "duration": 0.20000000000001705,
          "durationTicks": 192,
          "midi": 52,
          "name": "E3",
          "ticks": 153024,
          "time": 159.4,
          "velocity": 0.6771653543307087
        },
        {
          "duration": 0.19999999999998863,
          "durationTicks": 192,
          "midi": 45,
          "name": "A2",
          "ticks": 153216,
          "time": 159.60000000000002,
          "velocity": 0.6771653543307087
        },
        {
          "duration": 0.19999999999998863,
          "durationTicks": 192,
          "midi": 52,
          "name": "E3",
          "ticks": 153408,
          "time": 159.8,
          "velocity": 0.6771653543307087
        },
        {
          "duration": 0.20000000000001705,
          "durationTicks": 192,
          "midi": 44,
          "name": "G#2",
          "ticks": 153600,
          "time": 160,
          "velocity": 0.6771653543307087
        },
        {
          "duration": 0.19999999999998863,
          "durationTicks": 192,
          "midi": 52,
          "name": "E3",
          "ticks": 153792,
          "time": 160.20000000000002,
          "velocity": 0.6771653543307087
        },
        {
          "duration": 0.20000000000001705,
          "durationTicks": 192,
          "midi": 44,
          "name": "G#2",
          "ticks": 153984,
          "time": 160.4,
          "velocity": 0.6771653543307087
        },
        {
          "duration": 0.19999999999998863,
          "durationTicks": 192,
          "midi": 52,
          "name": "E3",
          "ticks": 154176,
          "time": 160.60000000000002,
          "velocity": 0.6771653543307087
        },
        {
          "duration": 0.19999999999998863,
          "durationTicks": 192,
          "midi": 44,
          "name": "G#2",
          "ticks": 154368,
          "time": 160.8,
          "velocity": 0.6771653543307087
        },
        {
          "duration": 0.20000000000001705,
          "durationTicks": 192,
          "midi": 52,
          "name": "E3",
          "ticks": 154560,
          "time": 161,
          "velocity": 0.6771653543307087
        },
        {
          "duration": 0.19999999999998863,
          "durationTicks": 192,
          "midi": 44,
          "name": "G#2",
          "ticks": 154752,
          "time": 161.20000000000002,
          "velocity": 0.6771653543307087
        },
        {
          "duration": 0.20000000000001705,
          "durationTicks": 192,
          "midi": 52,
          "name": "E3",
          "ticks": 154944,
          "time": 161.4,
          "velocity": 0.6771653543307087
        },
        {
          "duration": 0.19999999999998863,
          "durationTicks": 192,
          "midi": 45,
          "name": "A2",
          "ticks": 155136,
          "time": 161.60000000000002,
          "velocity": 0.6771653543307087
        },
        {
          "duration": 0.19999999999998863,
          "durationTicks": 192,
          "midi": 52,
          "name": "E3",
          "ticks": 155328,
          "time": 161.8,
          "velocity": 0.6771653543307087
        },
        {
          "duration": 0.20000000000001705,
          "durationTicks": 192,
          "midi": 45,
          "name": "A2",
          "ticks": 155520,
          "time": 162,
          "velocity": 0.6771653543307087
        },
        {
          "duration": 0.19999999999998863,
          "durationTicks": 192,
          "midi": 52,
          "name": "E3",
          "ticks": 155712,
          "time": 162.20000000000002,
          "velocity": 0.6771653543307087
        },
        {
          "duration": 0.20000000000001705,
          "durationTicks": 192,
          "midi": 45,
          "name": "A2",
          "ticks": 155904,
          "time": 162.4,
          "velocity": 0.6771653543307087
        },
        {
          "duration": 0.19999999999998863,
          "durationTicks": 192,
          "midi": 52,
          "name": "E3",
          "ticks": 156096,
          "time": 162.60000000000002,
          "velocity": 0.6771653543307087
        },
        {
          "duration": 0.19999999999998863,
          "durationTicks": 192,
          "midi": 45,
          "name": "A2",
          "ticks": 156288,
          "time": 162.8,
          "velocity": 0.6771653543307087
        },
        {
          "duration": 0.20000000000001705,
          "durationTicks": 192,
          "midi": 52,
          "name": "E3",
          "ticks": 156480,
          "time": 163,
          "velocity": 0.6771653543307087
        },
        {
          "duration": 0.19999999999998863,
          "durationTicks": 192,
          "midi": 44,
          "name": "G#2",
          "ticks": 156672,
          "time": 163.20000000000002,
          "velocity": 0.6771653543307087
        },
        {
          "duration": 0.20000000000001705,
          "durationTicks": 192,
          "midi": 52,
          "name": "E3",
          "ticks": 156864,
          "time": 163.4,
          "velocity": 0.6771653543307087
        },
        {
          "duration": 0.19999999999998863,
          "durationTicks": 192,
          "midi": 44,
          "name": "G#2",
          "ticks": 157056,
          "time": 163.60000000000002,
          "velocity": 0.6771653543307087
        },
        {
          "duration": 0.19999999999998863,
          "durationTicks": 192,
          "midi": 52,
          "name": "E3",
          "ticks": 157248,
          "time": 163.8,
          "velocity": 0.6771653543307087
        },
        {
          "duration": 0.20000000000001705,
          "durationTicks": 192,
          "midi": 44,
          "name": "G#2",
          "ticks": 157440,
          "time": 164,
          "velocity": 0.6771653543307087
        },
        {
          "duration": 0.19999999999998863,
          "durationTicks": 192,
          "midi": 52,
          "name": "E3",
          "ticks": 157632,
          "time": 164.20000000000002,
          "velocity": 0.6771653543307087
        },
        {
          "duration": 0.20000000000001705,
          "durationTicks": 192,
          "midi": 44,
          "name": "G#2",
          "ticks": 157824,
          "time": 164.4,
          "velocity": 0.6771653543307087
        },
        {
          "duration": 0.19999999999998863,
          "durationTicks": 192,
          "midi": 52,
          "name": "E3",
          "ticks": 158016,
          "time": 164.60000000000002,
          "velocity": 0.6771653543307087
        },
        {
          "duration": 0.19999999999998863,
          "durationTicks": 192,
          "midi": 45,
          "name": "A2",
          "ticks": 158208,
          "time": 164.8,
          "velocity": 0.6771653543307087
        },
        {
          "duration": 0.20000000000001705,
          "durationTicks": 192,
          "midi": 52,
          "name": "E3",
          "ticks": 158400,
          "time": 165,
          "velocity": 0.6771653543307087
        },
        {
          "duration": 0.19999999999998863,
          "durationTicks": 192,
          "midi": 45,
          "name": "A2",
          "ticks": 158592,
          "time": 165.20000000000002,
          "velocity": 0.6771653543307087
        },
        {
          "duration": 0.20000000000001705,
          "durationTicks": 192,
          "midi": 52,
          "name": "E3",
          "ticks": 158784,
          "time": 165.4,
          "velocity": 0.6771653543307087
        },
        {
          "duration": 0.19999999999998863,
          "durationTicks": 192,
          "midi": 45,
          "name": "A2",
          "ticks": 158976,
          "time": 165.60000000000002,
          "velocity": 0.6771653543307087
        },
        {
          "duration": 0.19999999999998863,
          "durationTicks": 192,
          "midi": 52,
          "name": "E3",
          "ticks": 159168,
          "time": 165.8,
          "velocity": 0.6771653543307087
        },
        {
          "duration": 0.20000000000001705,
          "durationTicks": 192,
          "midi": 45,
          "name": "A2",
          "ticks": 159360,
          "time": 166,
          "velocity": 0.6771653543307087
        },
        {
          "duration": 0.19999999999998863,
          "durationTicks": 192,
          "midi": 52,
          "name": "E3",
          "ticks": 159552,
          "time": 166.20000000000002,
          "velocity": 0.6771653543307087
        },
        {
          "duration": 0.20000000000001705,
          "durationTicks": 192,
          "midi": 44,
          "name": "G#2",
          "ticks": 159744,
          "time": 166.4,
          "velocity": 0.6771653543307087
        },
        {
          "duration": 0.19999999999998863,
          "durationTicks": 192,
          "midi": 52,
          "name": "E3",
          "ticks": 159936,
          "time": 166.60000000000002,
          "velocity": 0.6771653543307087
        },
        {
          "duration": 0.19999999999998863,
          "durationTicks": 192,
          "midi": 44,
          "name": "G#2",
          "ticks": 160128,
          "time": 166.8,
          "velocity": 0.6771653543307087
        },
        {
          "duration": 0.20000000000001705,
          "durationTicks": 192,
          "midi": 52,
          "name": "E3",
          "ticks": 160320,
          "time": 167,
          "velocity": 0.6771653543307087
        },
        {
          "duration": 0.19999999999998863,
          "durationTicks": 192,
          "midi": 44,
          "name": "G#2",
          "ticks": 160512,
          "time": 167.20000000000002,
          "velocity": 0.6771653543307087
        },
        {
          "duration": 0.20000000000001705,
          "durationTicks": 192,
          "midi": 52,
          "name": "E3",
          "ticks": 160704,
          "time": 167.4,
          "velocity": 0.6771653543307087
        },
        {
          "duration": 0.19999999999998863,
          "durationTicks": 192,
          "midi": 44,
          "name": "G#2",
          "ticks": 160896,
          "time": 167.60000000000002,
          "velocity": 0.6771653543307087
        },
        {
          "duration": 0.19999999999998863,
          "durationTicks": 192,
          "midi": 52,
          "name": "E3",
          "ticks": 161088,
          "time": 167.8,
          "velocity": 0.6771653543307087
        },
        {
          "duration": 0.20000000000001705,
          "durationTicks": 192,
          "midi": 45,
          "name": "A2",
          "ticks": 161280,
          "time": 168,
          "velocity": 0.6771653543307087
        },
        {
          "duration": 0.19999999999998863,
          "durationTicks": 192,
          "midi": 52,
          "name": "E3",
          "ticks": 161472,
          "time": 168.20000000000002,
          "velocity": 0.6771653543307087
        },
        {
          "duration": 0.20000000000001705,
          "durationTicks": 192,
          "midi": 45,
          "name": "A2",
          "ticks": 161664,
          "time": 168.4,
          "velocity": 0.6771653543307087
        },
        {
          "duration": 0.19999999999998863,
          "durationTicks": 192,
          "midi": 52,
          "name": "E3",
          "ticks": 161856,
          "time": 168.60000000000002,
          "velocity": 0.6771653543307087
        },
        {
          "duration": 0.19999999999998863,
          "durationTicks": 192,
          "midi": 45,
          "name": "A2",
          "ticks": 162048,
          "time": 168.8,
          "velocity": 0.6771653543307087
        },
        {
          "duration": 0.20000000000001705,
          "durationTicks": 192,
          "midi": 52,
          "name": "E3",
          "ticks": 162240,
          "time": 169,
          "velocity": 0.6771653543307087
        },
        {
          "duration": 0.19999999999998863,
          "durationTicks": 192,
          "midi": 45,
          "name": "A2",
          "ticks": 162432,
          "time": 169.20000000000002,
          "velocity": 0.6771653543307087
        },
        {
          "duration": 0.20000000000001705,
          "durationTicks": 192,
          "midi": 52,
          "name": "E3",
          "ticks": 162624,
          "time": 169.4,
          "velocity": 0.6771653543307087
        },
        {
          "duration": 0.19999999999998863,
          "durationTicks": 192,
          "midi": 44,
          "name": "G#2",
          "ticks": 162816,
          "time": 169.60000000000002,
          "velocity": 0.6771653543307087
        },
        {
          "duration": 0.19999999999998863,
          "durationTicks": 192,
          "midi": 52,
          "name": "E3",
          "ticks": 163008,
          "time": 169.8,
          "velocity": 0.6771653543307087
        },
        {
          "duration": 0.20000000000001705,
          "durationTicks": 192,
          "midi": 44,
          "name": "G#2",
          "ticks": 163200,
          "time": 170,
          "velocity": 0.6771653543307087
        },
        {
          "duration": 0.19999999999998863,
          "durationTicks": 192,
          "midi": 52,
          "name": "E3",
          "ticks": 163392,
          "time": 170.20000000000002,
          "velocity": 0.6771653543307087
        },
        {
          "duration": 0.20000000000001705,
          "durationTicks": 192,
          "midi": 44,
          "name": "G#2",
          "ticks": 163584,
          "time": 170.4,
          "velocity": 0.7874015748031497
        },
        {
          "duration": 0.19999999999998863,
          "durationTicks": 192,
          "midi": 40,
          "name": "E2",
          "ticks": 164352,
          "time": 171.20000000000002,
          "velocity": 0.6771653543307087
        },
        {
          "duration": 0.20000000000001705,
          "durationTicks": 192,
          "midi": 52,
          "name": "E3",
          "ticks": 164544,
          "time": 171.4,
          "velocity": 0.6771653543307087
        },
        {
          "duration": 0.19999999999998863,
          "durationTicks": 192,
          "midi": 40,
          "name": "E2",
          "ticks": 164736,
          "time": 171.60000000000002,
          "velocity": 0.6771653543307087
        },
        {
          "duration": 0.19999999999998863,
          "durationTicks": 192,
          "midi": 52,
          "name": "E3",
          "ticks": 164928,
          "time": 171.8,
          "velocity": 0.6771653543307087
        },
        {
          "duration": 0.20000000000001705,
          "durationTicks": 192,
          "midi": 40,
          "name": "E2",
          "ticks": 165120,
          "time": 172,
          "velocity": 0.6771653543307087
        },
        {
          "duration": 0.19999999999998863,
          "durationTicks": 192,
          "midi": 52,
          "name": "E3",
          "ticks": 165312,
          "time": 172.20000000000002,
          "velocity": 0.6771653543307087
        },
        {
          "duration": 0.20000000000001705,
          "durationTicks": 192,
          "midi": 40,
          "name": "E2",
          "ticks": 165504,
          "time": 172.4,
          "velocity": 0.6771653543307087
        },
        {
          "duration": 0.19999999999998863,
          "durationTicks": 192,
          "midi": 52,
          "name": "E3",
          "ticks": 165696,
          "time": 172.60000000000002,
          "velocity": 0.6771653543307087
        },
        {
          "duration": 0.19999999999998863,
          "durationTicks": 192,
          "midi": 45,
          "name": "A2",
          "ticks": 165888,
          "time": 172.8,
          "velocity": 0.6771653543307087
        },
        {
          "duration": 0.20000000000001705,
          "durationTicks": 192,
          "midi": 57,
          "name": "A3",
          "ticks": 166080,
          "time": 173,
          "velocity": 0.6771653543307087
        },
        {
          "duration": 0.19999999999998863,
          "durationTicks": 192,
          "midi": 45,
          "name": "A2",
          "ticks": 166272,
          "time": 173.20000000000002,
          "velocity": 0.6771653543307087
        },
        {
          "duration": 0.20000000000001705,
          "durationTicks": 192,
          "midi": 57,
          "name": "A3",
          "ticks": 166464,
          "time": 173.4,
          "velocity": 0.6771653543307087
        },
        {
          "duration": 0.19999999999998863,
          "durationTicks": 192,
          "midi": 45,
          "name": "A2",
          "ticks": 166656,
          "time": 173.60000000000002,
          "velocity": 0.6771653543307087
        },
        {
          "duration": 0.19999999999998863,
          "durationTicks": 192,
          "midi": 57,
          "name": "A3",
          "ticks": 166848,
          "time": 173.8,
          "velocity": 0.6771653543307087
        },
        {
          "duration": 0.20000000000001705,
          "durationTicks": 192,
          "midi": 45,
          "name": "A2",
          "ticks": 167040,
          "time": 174,
          "velocity": 0.6771653543307087
        },
        {
          "duration": 0.19999999999998863,
          "durationTicks": 192,
          "midi": 57,
          "name": "A3",
          "ticks": 167232,
          "time": 174.20000000000002,
          "velocity": 0.6771653543307087
        },
        {
          "duration": 0.20000000000001705,
          "durationTicks": 192,
          "midi": 44,
          "name": "G#2",
          "ticks": 167424,
          "time": 174.4,
          "velocity": 0.6771653543307087
        },
        {
          "duration": 0.19999999999998863,
          "durationTicks": 192,
          "midi": 56,
          "name": "G#3",
          "ticks": 167616,
          "time": 174.60000000000002,
          "velocity": 0.6771653543307087
        },
        {
          "duration": 0.19999999999998863,
          "durationTicks": 192,
          "midi": 44,
          "name": "G#2",
          "ticks": 167808,
          "time": 174.8,
          "velocity": 0.6771653543307087
        },
        {
          "duration": 0.20000000000001705,
          "durationTicks": 192,
          "midi": 56,
          "name": "G#3",
          "ticks": 168000,
          "time": 175,
          "velocity": 0.6771653543307087
        },
        {
          "duration": 0.19999999999998863,
          "durationTicks": 192,
          "midi": 40,
          "name": "E2",
          "ticks": 168192,
          "time": 175.20000000000002,
          "velocity": 0.6771653543307087
        },
        {
          "duration": 0.20000000000001705,
          "durationTicks": 192,
          "midi": 52,
          "name": "E3",
          "ticks": 168384,
          "time": 175.4,
          "velocity": 0.6771653543307087
        },
        {
          "duration": 0.19999999999998863,
          "durationTicks": 192,
          "midi": 40,
          "name": "E2",
          "ticks": 168576,
          "time": 175.60000000000002,
          "velocity": 0.6771653543307087
        },
        {
          "duration": 0.19999999999998863,
          "durationTicks": 192,
          "midi": 52,
          "name": "E3",
          "ticks": 168768,
          "time": 175.8,
          "velocity": 0.6771653543307087
        },
        {
          "duration": 0.20000000000001705,
          "durationTicks": 192,
          "midi": 45,
          "name": "A2",
          "ticks": 168960,
          "time": 176,
          "velocity": 0.6771653543307087
        },
        {
          "duration": 0.19999999999998863,
          "durationTicks": 192,
          "midi": 57,
          "name": "A3",
          "ticks": 169152,
          "time": 176.20000000000002,
          "velocity": 0.6771653543307087
        },
        {
          "duration": 0.20000000000001705,
          "durationTicks": 192,
          "midi": 45,
          "name": "A2",
          "ticks": 169344,
          "time": 176.4,
          "velocity": 0.6771653543307087
        },
        {
          "duration": 0.19999999999998863,
          "durationTicks": 192,
          "midi": 57,
          "name": "A3",
          "ticks": 169536,
          "time": 176.60000000000002,
          "velocity": 0.6771653543307087
        },
        {
          "duration": 0.19999999999998863,
          "durationTicks": 192,
          "midi": 45,
          "name": "A2",
          "ticks": 169728,
          "time": 176.8,
          "velocity": 0.6771653543307087
        },
        {
          "duration": 0.20000000000001705,
          "durationTicks": 192,
          "midi": 57,
          "name": "A3",
          "ticks": 169920,
          "time": 177,
          "velocity": 0.6771653543307087
        },
        {
          "duration": 0.19999999999998863,
          "durationTicks": 192,
          "midi": 47,
          "name": "B2",
          "ticks": 170112,
          "time": 177.20000000000002,
          "velocity": 0.6771653543307087
        },
        {
          "duration": 0.20000000000001705,
          "durationTicks": 192,
          "midi": 48,
          "name": "C3",
          "ticks": 170304,
          "time": 177.4,
          "velocity": 0.6771653543307087
        },
        {
          "duration": 0.19999999999998863,
          "durationTicks": 192,
          "midi": 50,
          "name": "D3",
          "ticks": 170496,
          "time": 177.60000000000002,
          "velocity": 0.6771653543307087
        },
        {
          "duration": 0.19999999999998863,
          "durationTicks": 192,
          "midi": 38,
          "name": "D2",
          "ticks": 170688,
          "time": 177.8,
          "velocity": 0.6771653543307087
        },
        {
          "duration": 0.19999999999998863,
          "durationTicks": 192,
          "midi": 38,
          "name": "D2",
          "ticks": 171072,
          "time": 178.20000000000002,
          "velocity": 0.6771653543307087
        },
        {
          "duration": 0.19999999999998863,
          "durationTicks": 192,
          "midi": 38,
          "name": "D2",
          "ticks": 171456,
          "time": 178.60000000000002,
          "velocity": 0.6771653543307087
        },
        {
          "duration": 0.19999999999998863,
          "durationTicks": 192,
          "midi": 45,
          "name": "A2",
          "ticks": 171648,
          "time": 178.8,
          "velocity": 0.6771653543307087
        },
        {
          "duration": 0.20000000000001705,
          "durationTicks": 192,
          "midi": 41,
          "name": "F2",
          "ticks": 171840,
          "time": 179,
          "velocity": 0.6771653543307087
        },
        {
          "duration": 0.19999999999998863,
          "durationTicks": 192,
          "midi": 36,
          "name": "C2",
          "ticks": 172032,
          "time": 179.20000000000002,
          "velocity": 0.6771653543307087
        },
        {
          "duration": 0.20000000000001705,
          "durationTicks": 192,
          "midi": 48,
          "name": "C3",
          "ticks": 172224,
          "time": 179.4,
          "velocity": 0.6771653543307087
        },
        {
          "duration": 0.19999999999998863,
          "durationTicks": 192,
          "midi": 48,
          "name": "C3",
          "ticks": 172608,
          "time": 179.8,
          "velocity": 0.6771653543307087
        },
        {
          "duration": 0.20000000000001705,
          "durationTicks": 192,
          "midi": 36,
          "name": "C2",
          "ticks": 172800,
          "time": 180,
          "velocity": 0.6771653543307087
        },
        {
          "duration": 0.19999999999998863,
          "durationTicks": 192,
          "midi": 43,
          "name": "G2",
          "ticks": 172992,
          "time": 180.20000000000002,
          "velocity": 0.6771653543307087
        },
        {
          "duration": 0.30000000000001137,
          "durationTicks": 288,
          "midi": 43,
          "name": "G2",
          "ticks": 173184,
          "time": 180.4,
          "velocity": 0.6771653543307087
        },
        {
          "duration": 0.19999999999998863,
          "durationTicks": 192,
          "midi": 47,
          "name": "B2",
          "ticks": 173568,
          "time": 180.8,
          "velocity": 0.6771653543307087
        },
        {
          "duration": 0.20000000000001705,
          "durationTicks": 192,
          "midi": 59,
          "name": "B3",
          "ticks": 173760,
          "time": 181,
          "velocity": 0.6771653543307087
        },
        {
          "duration": 0.20000000000001705,
          "durationTicks": 192,
          "midi": 59,
          "name": "B3",
          "ticks": 174144,
          "time": 181.4,
          "velocity": 0.6771653543307087
        },
        {
          "duration": 0.19999999999998863,
          "durationTicks": 192,
          "midi": 52,
          "name": "E3",
          "ticks": 174528,
          "time": 181.8,
          "velocity": 0.6771653543307087
        },
        {
          "duration": 0.19999999999998863,
          "durationTicks": 192,
          "midi": 56,
          "name": "G#3",
          "ticks": 174912,
          "time": 182.20000000000002,
          "velocity": 0.6771653543307087
        },
        {
          "duration": 0.20000000000001705,
          "durationTicks": 192,
          "midi": 45,
          "name": "A2",
          "ticks": 175104,
          "time": 182.4,
          "velocity": 0.6771653543307087
        },
        {
          "duration": 0.19999999999998863,
          "durationTicks": 192,
          "midi": 52,
          "name": "E3",
          "ticks": 175296,
          "time": 182.60000000000002,
          "velocity": 0.6771653543307087
        },
        {
          "duration": 0.19999999999998863,
          "durationTicks": 192,
          "midi": 45,
          "name": "A2",
          "ticks": 175488,
          "time": 182.8,
          "velocity": 0.6771653543307087
        },
        {
          "duration": 0.20000000000001705,
          "durationTicks": 192,
          "midi": 52,
          "name": "E3",
          "ticks": 175680,
          "time": 183,
          "velocity": 0.6771653543307087
        },
        {
          "duration": 0.19999999999998863,
          "durationTicks": 192,
          "midi": 45,
          "name": "A2",
          "ticks": 175872,
          "time": 183.20000000000002,
          "velocity": 0.6771653543307087
        },
        {
          "duration": 0.20000000000001705,
          "durationTicks": 192,
          "midi": 52,
          "name": "E3",
          "ticks": 176064,
          "time": 183.4,
          "velocity": 0.6771653543307087
        },
        {
          "duration": 0.19999999999998863,
          "durationTicks": 192,
          "midi": 45,
          "name": "A2",
          "ticks": 176256,
          "time": 183.60000000000002,
          "velocity": 0.6771653543307087
        },
        {
          "duration": 0.19999999999998863,
          "durationTicks": 192,
          "midi": 52,
          "name": "E3",
          "ticks": 176448,
          "time": 183.8,
          "velocity": 0.6771653543307087
        },
        {
          "duration": 0.20000000000001705,
          "durationTicks": 192,
          "midi": 45,
          "name": "A2",
          "ticks": 176640,
          "time": 184,
          "velocity": 0.6771653543307087
        },
        {
          "duration": 0.19999999999998863,
          "durationTicks": 192,
          "midi": 52,
          "name": "E3",
          "ticks": 176832,
          "time": 184.20000000000002,
          "velocity": 0.6771653543307087
        },
        {
          "duration": 0.20000000000001705,
          "durationTicks": 192,
          "midi": 45,
          "name": "A2",
          "ticks": 177024,
          "time": 184.4,
          "velocity": 0.6771653543307087
        },
        {
          "duration": 0.19999999999998863,
          "durationTicks": 192,
          "midi": 52,
          "name": "E3",
          "ticks": 177216,
          "time": 184.60000000000002,
          "velocity": 0.6771653543307087
        },
        {
          "duration": 0.19999999999998863,
          "durationTicks": 192,
          "midi": 45,
          "name": "A2",
          "ticks": 177408,
          "time": 184.8,
          "velocity": 0.6771653543307087
        },
        {
          "duration": 0.20000000000001705,
          "durationTicks": 192,
          "midi": 52,
          "name": "E3",
          "ticks": 177600,
          "time": 185,
          "velocity": 0.6771653543307087
        },
        {
          "duration": 0.19999999999998863,
          "durationTicks": 192,
          "midi": 45,
          "name": "A2",
          "ticks": 177792,
          "time": 185.20000000000002,
          "velocity": 0.6771653543307087
        },
        {
          "duration": 0.20000000000001705,
          "durationTicks": 192,
          "midi": 52,
          "name": "E3",
          "ticks": 177984,
          "time": 185.4,
          "velocity": 0.6771653543307087
        },
        {
          "duration": 0.19999999999998863,
          "durationTicks": 192,
          "midi": 45,
          "name": "A2",
          "ticks": 178176,
          "time": 185.60000000000002,
          "velocity": 0.6771653543307087
        },
        {
          "duration": 0.19999999999998863,
          "durationTicks": 192,
          "midi": 52,
          "name": "E3",
          "ticks": 178368,
          "time": 185.8,
          "velocity": 0.6771653543307087
        },
        {
          "duration": 0.20000000000001705,
          "durationTicks": 192,
          "midi": 45,
          "name": "A2",
          "ticks": 178560,
          "time": 186,
          "velocity": 0.6771653543307087
        },
        {
          "duration": 0.19999999999998863,
          "durationTicks": 192,
          "midi": 52,
          "name": "E3",
          "ticks": 178752,
          "time": 186.20000000000002,
          "velocity": 0.6771653543307087
        },
        {
          "duration": 0.20000000000001705,
          "durationTicks": 192,
          "midi": 45,
          "name": "A2",
          "ticks": 178944,
          "time": 186.4,
          "velocity": 0.6771653543307087
        },
        {
          "duration": 0.19999999999998863,
          "durationTicks": 192,
          "midi": 52,
          "name": "E3",
          "ticks": 179136,
          "time": 186.60000000000002,
          "velocity": 0.6771653543307087
        },
        {
          "duration": 0.19999999999998863,
          "durationTicks": 192,
          "midi": 45,
          "name": "A2",
          "ticks": 179328,
          "time": 186.8,
          "velocity": 0.6771653543307087
        },
        {
          "duration": 0.20000000000001705,
          "durationTicks": 192,
          "midi": 52,
          "name": "E3",
          "ticks": 179520,
          "time": 187,
          "velocity": 0.6771653543307087
        },
        {
          "duration": 0.19999999999998863,
          "durationTicks": 192,
          "midi": 44,
          "name": "G#2",
          "ticks": 179712,
          "time": 187.20000000000002,
          "velocity": 0.6771653543307087
        },
        {
          "duration": 0.20000000000001705,
          "durationTicks": 192,
          "midi": 52,
          "name": "E3",
          "ticks": 179904,
          "time": 187.4,
          "velocity": 0.6771653543307087
        },
        {
          "duration": 0.19999999999998863,
          "durationTicks": 192,
          "midi": 44,
          "name": "G#2",
          "ticks": 180096,
          "time": 187.60000000000002,
          "velocity": 0.6771653543307087
        },
        {
          "duration": 0.19999999999998863,
          "durationTicks": 192,
          "midi": 52,
          "name": "E3",
          "ticks": 180288,
          "time": 187.8,
          "velocity": 0.6771653543307087
        },
        {
          "duration": 0.20000000000001705,
          "durationTicks": 192,
          "midi": 44,
          "name": "G#2",
          "ticks": 180480,
          "time": 188,
          "velocity": 0.6771653543307087
        },
        {
          "duration": 0.19999999999998863,
          "durationTicks": 192,
          "midi": 52,
          "name": "E3",
          "ticks": 180672,
          "time": 188.20000000000002,
          "velocity": 0.6771653543307087
        },
        {
          "duration": 0.20000000000001705,
          "durationTicks": 192,
          "midi": 44,
          "name": "G#2",
          "ticks": 180864,
          "time": 188.4,
          "velocity": 0.6771653543307087
        },
        {
          "duration": 0.19999999999998863,
          "durationTicks": 192,
          "midi": 52,
          "name": "E3",
          "ticks": 181056,
          "time": 188.60000000000002,
          "velocity": 0.6771653543307087
        },
        {
          "duration": 0.19999999999998863,
          "durationTicks": 192,
          "midi": 45,
          "name": "A2",
          "ticks": 181248,
          "time": 188.8,
          "velocity": 0.6771653543307087
        },
        {
          "duration": 0.20000000000001705,
          "durationTicks": 192,
          "midi": 52,
          "name": "E3",
          "ticks": 181440,
          "time": 189,
          "velocity": 0.6771653543307087
        },
        {
          "duration": 0.19999999999998863,
          "durationTicks": 192,
          "midi": 45,
          "name": "A2",
          "ticks": 181632,
          "time": 189.20000000000002,
          "velocity": 0.6771653543307087
        },
        {
          "duration": 0.20000000000001705,
          "durationTicks": 192,
          "midi": 52,
          "name": "E3",
          "ticks": 181824,
          "time": 189.4,
          "velocity": 0.6771653543307087
        },
        {
          "duration": 0.19999999999998863,
          "durationTicks": 192,
          "midi": 45,
          "name": "A2",
          "ticks": 182016,
          "time": 189.60000000000002,
          "velocity": 0.6771653543307087
        },
        {
          "duration": 0.19999999999998863,
          "durationTicks": 192,
          "midi": 52,
          "name": "E3",
          "ticks": 182208,
          "time": 189.8,
          "velocity": 0.6771653543307087
        },
        {
          "duration": 0.20000000000001705,
          "durationTicks": 192,
          "midi": 45,
          "name": "A2",
          "ticks": 182400,
          "time": 190,
          "velocity": 0.6771653543307087
        },
        {
          "duration": 0.19999999999998863,
          "durationTicks": 192,
          "midi": 52,
          "name": "E3",
          "ticks": 182592,
          "time": 190.20000000000002,
          "velocity": 0.6771653543307087
        },
        {
          "duration": 0.20000000000001705,
          "durationTicks": 192,
          "midi": 44,
          "name": "G#2",
          "ticks": 182784,
          "time": 190.4,
          "velocity": 0.6771653543307087
        },
        {
          "duration": 0.19999999999998863,
          "durationTicks": 192,
          "midi": 52,
          "name": "E3",
          "ticks": 182976,
          "time": 190.60000000000002,
          "velocity": 0.6771653543307087
        },
        {
          "duration": 0.19999999999998863,
          "durationTicks": 192,
          "midi": 44,
          "name": "G#2",
          "ticks": 183168,
          "time": 190.8,
          "velocity": 0.6771653543307087
        },
        {
          "duration": 0.20000000000001705,
          "durationTicks": 192,
          "midi": 52,
          "name": "E3",
          "ticks": 183360,
          "time": 191,
          "velocity": 0.6771653543307087
        },
        {
          "duration": 0.19999999999998863,
          "durationTicks": 192,
          "midi": 44,
          "name": "G#2",
          "ticks": 183552,
          "time": 191.20000000000002,
          "velocity": 0.6771653543307087
        },
        {
          "duration": 0.20000000000001705,
          "durationTicks": 192,
          "midi": 52,
          "name": "E3",
          "ticks": 183744,
          "time": 191.4,
          "velocity": 0.6771653543307087
        },
        {
          "duration": 0.19999999999998863,
          "durationTicks": 192,
          "midi": 44,
          "name": "G#2",
          "ticks": 183936,
          "time": 191.60000000000002,
          "velocity": 0.6771653543307087
        },
        {
          "duration": 0.19999999999998863,
          "durationTicks": 192,
          "midi": 52,
          "name": "E3",
          "ticks": 184128,
          "time": 191.8,
          "velocity": 0.6771653543307087
        },
        {
          "duration": 0.20000000000001705,
          "durationTicks": 192,
          "midi": 45,
          "name": "A2",
          "ticks": 184320,
          "time": 192,
          "velocity": 0.6771653543307087
        },
        {
          "duration": 0.19999999999998863,
          "durationTicks": 192,
          "midi": 52,
          "name": "E3",
          "ticks": 184512,
          "time": 192.20000000000002,
          "velocity": 0.6771653543307087
        },
        {
          "duration": 0.20000000000001705,
          "durationTicks": 192,
          "midi": 45,
          "name": "A2",
          "ticks": 184704,
          "time": 192.4,
          "velocity": 0.6771653543307087
        },
        {
          "duration": 0.19999999999998863,
          "durationTicks": 192,
          "midi": 52,
          "name": "E3",
          "ticks": 184896,
          "time": 192.60000000000002,
          "velocity": 0.6771653543307087
        },
        {
          "duration": 0.19999999999998863,
          "durationTicks": 192,
          "midi": 45,
          "name": "A2",
          "ticks": 185088,
          "time": 192.8,
          "velocity": 0.6771653543307087
        },
        {
          "duration": 0.20000000000001705,
          "durationTicks": 192,
          "midi": 52,
          "name": "E3",
          "ticks": 185280,
          "time": 193,
          "velocity": 0.6771653543307087
        },
        {
          "duration": 0.19999999999998863,
          "durationTicks": 192,
          "midi": 45,
          "name": "A2",
          "ticks": 185472,
          "time": 193.20000000000002,
          "velocity": 0.6771653543307087
        },
        {
          "duration": 0.20000000000001705,
          "durationTicks": 192,
          "midi": 52,
          "name": "E3",
          "ticks": 185664,
          "time": 193.4,
          "velocity": 0.6771653543307087
        },
        {
          "duration": 0.19999999999998863,
          "durationTicks": 192,
          "midi": 44,
          "name": "G#2",
          "ticks": 185856,
          "time": 193.60000000000002,
          "velocity": 0.6771653543307087
        },
        {
          "duration": 0.19999999999998863,
          "durationTicks": 192,
          "midi": 52,
          "name": "E3",
          "ticks": 186048,
          "time": 193.8,
          "velocity": 0.6771653543307087
        },
        {
          "duration": 0.20000000000001705,
          "durationTicks": 192,
          "midi": 44,
          "name": "G#2",
          "ticks": 186240,
          "time": 194,
          "velocity": 0.6771653543307087
        },
        {
          "duration": 0.19999999999998863,
          "durationTicks": 192,
          "midi": 52,
          "name": "E3",
          "ticks": 186432,
          "time": 194.20000000000002,
          "velocity": 0.6771653543307087
        },
        {
          "duration": 0.20000000000001705,
          "durationTicks": 192,
          "midi": 44,
          "name": "G#2",
          "ticks": 186624,
          "time": 194.4,
          "velocity": 0.6771653543307087
        },
        {
          "duration": 0.19999999999998863,
          "durationTicks": 192,
          "midi": 52,
          "name": "E3",
          "ticks": 186816,
          "time": 194.60000000000002,
          "velocity": 0.6771653543307087
        },
        {
          "duration": 0.19999999999998863,
          "durationTicks": 192,
          "midi": 44,
          "name": "G#2",
          "ticks": 187008,
          "time": 194.8,
          "velocity": 0.6771653543307087
        },
        {
          "duration": 0.20000000000001705,
          "durationTicks": 192,
          "midi": 52,
          "name": "E3",
          "ticks": 187200,
          "time": 195,
          "velocity": 0.6771653543307087
        },
        {
          "duration": 0.19999999999998863,
          "durationTicks": 192,
          "midi": 45,
          "name": "A2",
          "ticks": 187392,
          "time": 195.20000000000002,
          "velocity": 0.6771653543307087
        },
        {
          "duration": 0.20000000000001705,
          "durationTicks": 192,
          "midi": 52,
          "name": "E3",
          "ticks": 187584,
          "time": 195.4,
          "velocity": 0.6771653543307087
        },
        {
          "duration": 0.19999999999998863,
          "durationTicks": 192,
          "midi": 45,
          "name": "A2",
          "ticks": 187776,
          "time": 195.60000000000002,
          "velocity": 0.6771653543307087
        },
        {
          "duration": 0.19999999999998863,
          "durationTicks": 192,
          "midi": 52,
          "name": "E3",
          "ticks": 187968,
          "time": 195.8,
          "velocity": 0.6771653543307087
        },
        {
          "duration": 0.20000000000001705,
          "durationTicks": 192,
          "midi": 45,
          "name": "A2",
          "ticks": 188160,
          "time": 196,
          "velocity": 0.6771653543307087
        },
        {
          "duration": 0.19999999999998863,
          "durationTicks": 192,
          "midi": 52,
          "name": "E3",
          "ticks": 188352,
          "time": 196.20000000000002,
          "velocity": 0.6771653543307087
        },
        {
          "duration": 0.20000000000001705,
          "durationTicks": 192,
          "midi": 45,
          "name": "A2",
          "ticks": 188544,
          "time": 196.4,
          "velocity": 0.6771653543307087
        },
        {
          "duration": 0.19999999999998863,
          "durationTicks": 192,
          "midi": 52,
          "name": "E3",
          "ticks": 188736,
          "time": 196.60000000000002,
          "velocity": 0.6771653543307087
        },
        {
          "duration": 0.19999999999998863,
          "durationTicks": 192,
          "midi": 44,
          "name": "G#2",
          "ticks": 188928,
          "time": 196.8,
          "velocity": 0.6771653543307087
        },
        {
          "duration": 0.20000000000001705,
          "durationTicks": 192,
          "midi": 52,
          "name": "E3",
          "ticks": 189120,
          "time": 197,
          "velocity": 0.6771653543307087
        },
        {
          "duration": 0.19999999999998863,
          "durationTicks": 192,
          "midi": 44,
          "name": "G#2",
          "ticks": 189312,
          "time": 197.20000000000002,
          "velocity": 0.6771653543307087
        },
        {
          "duration": 0.20000000000001705,
          "durationTicks": 192,
          "midi": 52,
          "name": "E3",
          "ticks": 189504,
          "time": 197.4,
          "velocity": 0.6771653543307087
        },
        {
          "duration": 0.19999999999998863,
          "durationTicks": 192,
          "midi": 44,
          "name": "G#2",
          "ticks": 189696,
          "time": 197.60000000000002,
          "velocity": 0.6771653543307087
        },
        {
          "duration": 0.19999999999998863,
          "durationTicks": 192,
          "midi": 52,
          "name": "E3",
          "ticks": 189888,
          "time": 197.8,
          "velocity": 0.6771653543307087
        },
        {
          "duration": 0.20000000000001705,
          "durationTicks": 192,
          "midi": 44,
          "name": "G#2",
          "ticks": 190080,
          "time": 198,
          "velocity": 0.6771653543307087
        },
        {
          "duration": 0.19999999999998863,
          "durationTicks": 192,
          "midi": 52,
          "name": "E3",
          "ticks": 190272,
          "time": 198.20000000000002,
          "velocity": 0.6771653543307087
        },
        {
          "duration": 0.20000000000001705,
          "durationTicks": 192,
          "midi": 45,
          "name": "A2",
          "ticks": 190464,
          "time": 198.4,
          "velocity": 0.6771653543307087
        },
        {
          "duration": 0.19999999999998863,
          "durationTicks": 192,
          "midi": 52,
          "name": "E3",
          "ticks": 190656,
          "time": 198.60000000000002,
          "velocity": 0.6771653543307087
        },
        {
          "duration": 0.19999999999998863,
          "durationTicks": 192,
          "midi": 45,
          "name": "A2",
          "ticks": 190848,
          "time": 198.8,
          "velocity": 0.6771653543307087
        },
        {
          "duration": 0.20000000000001705,
          "durationTicks": 192,
          "midi": 52,
          "name": "E3",
          "ticks": 191040,
          "time": 199,
          "velocity": 0.6771653543307087
        },
        {
          "duration": 0.19999999999998863,
          "durationTicks": 192,
          "midi": 45,
          "name": "A2",
          "ticks": 191232,
          "time": 199.20000000000002,
          "velocity": 0.6771653543307087
        },
        {
          "duration": 0.20000000000001705,
          "durationTicks": 192,
          "midi": 52,
          "name": "E3",
          "ticks": 191424,
          "time": 199.4,
          "velocity": 0.6771653543307087
        },
        {
          "duration": 0.19999999999998863,
          "durationTicks": 192,
          "midi": 45,
          "name": "A2",
          "ticks": 191616,
          "time": 199.60000000000002,
          "velocity": 0.6771653543307087
        },
        {
          "duration": 0.19999999999998863,
          "durationTicks": 192,
          "midi": 52,
          "name": "E3",
          "ticks": 191808,
          "time": 199.8,
          "velocity": 0.6771653543307087
        },
        {
          "duration": 0.20000000000001705,
          "durationTicks": 192,
          "midi": 45,
          "name": "A2",
          "ticks": 192000,
          "time": 200,
          "velocity": 0.6771653543307087
        },
        {
          "duration": 0.19999999999998863,
          "durationTicks": 192,
          "midi": 52,
          "name": "E3",
          "ticks": 192192,
          "time": 200.20000000000002,
          "velocity": 0.6771653543307087
        },
        {
          "duration": 0.20000000000001705,
          "durationTicks": 192,
          "midi": 45,
          "name": "A2",
          "ticks": 192384,
          "time": 200.4,
          "velocity": 0.6771653543307087
        },
        {
          "duration": 0.19999999999998863,
          "durationTicks": 192,
          "midi": 52,
          "name": "E3",
          "ticks": 192576,
          "time": 200.60000000000002,
          "velocity": 0.6771653543307087
        },
        {
          "duration": 0.19999999999998863,
          "durationTicks": 192,
          "midi": 45,
          "name": "A2",
          "ticks": 192768,
          "time": 200.8,
          "velocity": 0.6771653543307087
        },
        {
          "duration": 0.20000000000001705,
          "durationTicks": 192,
          "midi": 52,
          "name": "E3",
          "ticks": 192960,
          "time": 201,
          "velocity": 0.6771653543307087
        },
        {
          "duration": 0.19999999999998863,
          "durationTicks": 192,
          "midi": 45,
          "name": "A2",
          "ticks": 193152,
          "time": 201.20000000000002,
          "velocity": 0.6771653543307087
        },
        {
          "duration": 0.20000000000001705,
          "durationTicks": 192,
          "midi": 52,
          "name": "E3",
          "ticks": 193344,
          "time": 201.4,
          "velocity": 0.6771653543307087
        },
        {
          "duration": 0.19999999999998863,
          "durationTicks": 192,
          "midi": 45,
          "name": "A2",
          "ticks": 193536,
          "time": 201.60000000000002,
          "velocity": 0.6771653543307087
        },
        {
          "duration": 0.19999999999998863,
          "durationTicks": 192,
          "midi": 52,
          "name": "E3",
          "ticks": 193728,
          "time": 201.8,
          "velocity": 0.6771653543307087
        },
        {
          "duration": 0.20000000000001705,
          "durationTicks": 192,
          "midi": 45,
          "name": "A2",
          "ticks": 193920,
          "time": 202,
          "velocity": 0.6771653543307087
        },
        {
          "duration": 0.19999999999998863,
          "durationTicks": 192,
          "midi": 52,
          "name": "E3",
          "ticks": 194112,
          "time": 202.20000000000002,
          "velocity": 0.6771653543307087
        },
        {
          "duration": 0.20000000000001705,
          "durationTicks": 192,
          "midi": 45,
          "name": "A2",
          "ticks": 194304,
          "time": 202.4,
          "velocity": 0.6771653543307087
        },
        {
          "duration": 0.19999999999998863,
          "durationTicks": 192,
          "midi": 52,
          "name": "E3",
          "ticks": 194496,
          "time": 202.60000000000002,
          "velocity": 0.6771653543307087
        },
        {
          "duration": 0.19999999999998863,
          "durationTicks": 192,
          "midi": 45,
          "name": "A2",
          "ticks": 194688,
          "time": 202.8,
          "velocity": 0.6771653543307087
        },
        {
          "duration": 0.20000000000001705,
          "durationTicks": 192,
          "midi": 52,
          "name": "E3",
          "ticks": 194880,
          "time": 203,
          "velocity": 0.6771653543307087
        },
        {
          "duration": 0.19999999999998863,
          "durationTicks": 192,
          "midi": 45,
          "name": "A2",
          "ticks": 195072,
          "time": 203.20000000000002,
          "velocity": 0.6771653543307087
        },
        {
          "duration": 0.20000000000001705,
          "durationTicks": 192,
          "midi": 52,
          "name": "E3",
          "ticks": 195264,
          "time": 203.4,
          "velocity": 0.6771653543307087
        },
        {
          "duration": 0.19999999999998863,
          "durationTicks": 192,
          "midi": 45,
          "name": "A2",
          "ticks": 195456,
          "time": 203.60000000000002,
          "velocity": 0.6771653543307087
        },
        {
          "duration": 0.19999999999998863,
          "durationTicks": 192,
          "midi": 52,
          "name": "E3",
          "ticks": 195648,
          "time": 203.8,
          "velocity": 0.6771653543307087
        },
        {
          "duration": 0.20000000000001705,
          "durationTicks": 192,
          "midi": 45,
          "name": "A2",
          "ticks": 195840,
          "time": 204,
          "velocity": 0.6771653543307087
        },
        {
          "duration": 0.19999999999998863,
          "durationTicks": 192,
          "midi": 52,
          "name": "E3",
          "ticks": 196032,
          "time": 204.20000000000002,
          "velocity": 0.6771653543307087
        },
        {
          "duration": 0.20000000000001705,
          "durationTicks": 192,
          "midi": 45,
          "name": "A2",
          "ticks": 196224,
          "time": 204.4,
          "velocity": 0.6771653543307087
        },
        {
          "duration": 0.19999999999998863,
          "durationTicks": 192,
          "midi": 52,
          "name": "E3",
          "ticks": 196416,
          "time": 204.60000000000002,
          "velocity": 0.6771653543307087
        },
        {
          "duration": 0.19999999999998863,
          "durationTicks": 192,
          "midi": 44,
          "name": "G#2",
          "ticks": 196608,
          "time": 204.8,
          "velocity": 0.6771653543307087
        },
        {
          "duration": 0.20000000000001705,
          "durationTicks": 192,
          "midi": 52,
          "name": "E3",
          "ticks": 196800,
          "time": 205,
          "velocity": 0.6771653543307087
        },
        {
          "duration": 0.19999999999998863,
          "durationTicks": 192,
          "midi": 44,
          "name": "G#2",
          "ticks": 196992,
          "time": 205.20000000000002,
          "velocity": 0.6771653543307087
        },
        {
          "duration": 0.20000000000001705,
          "durationTicks": 192,
          "midi": 52,
          "name": "E3",
          "ticks": 197184,
          "time": 205.4,
          "velocity": 0.6771653543307087
        },
        {
          "duration": 0.19999999999998863,
          "durationTicks": 192,
          "midi": 44,
          "name": "G#2",
          "ticks": 197376,
          "time": 205.60000000000002,
          "velocity": 0.6771653543307087
        },
        {
          "duration": 0.19999999999998863,
          "durationTicks": 192,
          "midi": 52,
          "name": "E3",
          "ticks": 197568,
          "time": 205.8,
          "velocity": 0.6771653543307087
        },
        {
          "duration": 0.20000000000001705,
          "durationTicks": 192,
          "midi": 44,
          "name": "G#2",
          "ticks": 197760,
          "time": 206,
          "velocity": 0.6771653543307087
        },
        {
          "duration": 0.19999999999998863,
          "durationTicks": 192,
          "midi": 52,
          "name": "E3",
          "ticks": 197952,
          "time": 206.20000000000002,
          "velocity": 0.6771653543307087
        },
        {
          "duration": 0.20000000000001705,
          "durationTicks": 192,
          "midi": 45,
          "name": "A2",
          "ticks": 198144,
          "time": 206.4,
          "velocity": 0.6771653543307087
        },
        {
          "duration": 0.19999999999998863,
          "durationTicks": 192,
          "midi": 52,
          "name": "E3",
          "ticks": 198336,
          "time": 206.60000000000002,
          "velocity": 0.6771653543307087
        },
        {
          "duration": 0.19999999999998863,
          "durationTicks": 192,
          "midi": 45,
          "name": "A2",
          "ticks": 198528,
          "time": 206.8,
          "velocity": 0.6771653543307087
        },
        {
          "duration": 0.20000000000001705,
          "durationTicks": 192,
          "midi": 52,
          "name": "E3",
          "ticks": 198720,
          "time": 207,
          "velocity": 0.6771653543307087
        },
        {
          "duration": 0.19999999999998863,
          "durationTicks": 192,
          "midi": 45,
          "name": "A2",
          "ticks": 198912,
          "time": 207.20000000000002,
          "velocity": 0.6771653543307087
        },
        {
          "duration": 0.20000000000001705,
          "durationTicks": 192,
          "midi": 52,
          "name": "E3",
          "ticks": 199104,
          "time": 207.4,
          "velocity": 0.6771653543307087
        },
        {
          "duration": 0.19999999999998863,
          "durationTicks": 192,
          "midi": 45,
          "name": "A2",
          "ticks": 199296,
          "time": 207.60000000000002,
          "velocity": 0.6771653543307087
        },
        {
          "duration": 0.19999999999998863,
          "durationTicks": 192,
          "midi": 52,
          "name": "E3",
          "ticks": 199488,
          "time": 207.8,
          "velocity": 0.6771653543307087
        },
        {
          "duration": 0.20000000000001705,
          "durationTicks": 192,
          "midi": 44,
          "name": "G#2",
          "ticks": 199680,
          "time": 208,
          "velocity": 0.6771653543307087
        },
        {
          "duration": 0.19999999999998863,
          "durationTicks": 192,
          "midi": 52,
          "name": "E3",
          "ticks": 199872,
          "time": 208.20000000000002,
          "velocity": 0.6771653543307087
        },
        {
          "duration": 0.20000000000001705,
          "durationTicks": 192,
          "midi": 44,
          "name": "G#2",
          "ticks": 200064,
          "time": 208.4,
          "velocity": 0.6771653543307087
        },
        {
          "duration": 0.19999999999998863,
          "durationTicks": 192,
          "midi": 52,
          "name": "E3",
          "ticks": 200256,
          "time": 208.60000000000002,
          "velocity": 0.6771653543307087
        },
        {
          "duration": 0.19999999999998863,
          "durationTicks": 192,
          "midi": 44,
          "name": "G#2",
          "ticks": 200448,
          "time": 208.8,
          "velocity": 0.6771653543307087
        },
        {
          "duration": 0.20000000000001705,
          "durationTicks": 192,
          "midi": 52,
          "name": "E3",
          "ticks": 200640,
          "time": 209,
          "velocity": 0.6771653543307087
        },
        {
          "duration": 0.19999999999998863,
          "durationTicks": 192,
          "midi": 44,
          "name": "G#2",
          "ticks": 200832,
          "time": 209.20000000000002,
          "velocity": 0.6771653543307087
        },
        {
          "duration": 0.20000000000001705,
          "durationTicks": 192,
          "midi": 52,
          "name": "E3",
          "ticks": 201024,
          "time": 209.4,
          "velocity": 0.6771653543307087
        },
        {
          "duration": 0.19999999999998863,
          "durationTicks": 192,
          "midi": 45,
          "name": "A2",
          "ticks": 201216,
          "time": 209.60000000000002,
          "velocity": 0.6771653543307087
        },
        {
          "duration": 0.19999999999998863,
          "durationTicks": 192,
          "midi": 52,
          "name": "E3",
          "ticks": 201408,
          "time": 209.8,
          "velocity": 0.6771653543307087
        },
        {
          "duration": 0.20000000000001705,
          "durationTicks": 192,
          "midi": 45,
          "name": "A2",
          "ticks": 201600,
          "time": 210,
          "velocity": 0.6771653543307087
        },
        {
          "duration": 0.19999999999998863,
          "durationTicks": 192,
          "midi": 52,
          "name": "E3",
          "ticks": 201792,
          "time": 210.20000000000002,
          "velocity": 0.6771653543307087
        },
        {
          "duration": 0.20000000000001705,
          "durationTicks": 192,
          "midi": 45,
          "name": "A2",
          "ticks": 201984,
          "time": 210.4,
          "velocity": 0.6771653543307087
        },
        {
          "duration": 0.19999999999998863,
          "durationTicks": 192,
          "midi": 52,
          "name": "E3",
          "ticks": 202176,
          "time": 210.60000000000002,
          "velocity": 0.6771653543307087
        },
        {
          "duration": 0.19999999999998863,
          "durationTicks": 192,
          "midi": 45,
          "name": "A2",
          "ticks": 202368,
          "time": 210.8,
          "velocity": 0.6771653543307087
        },
        {
          "duration": 0.20000000000001705,
          "durationTicks": 192,
          "midi": 52,
          "name": "E3",
          "ticks": 202560,
          "time": 211,
          "velocity": 0.6771653543307087
        },
        {
          "duration": 0.19999999999998863,
          "durationTicks": 192,
          "midi": 44,
          "name": "G#2",
          "ticks": 202752,
          "time": 211.20000000000002,
          "velocity": 0.6771653543307087
        },
        {
          "duration": 0.20000000000001705,
          "durationTicks": 192,
          "midi": 52,
          "name": "E3",
          "ticks": 202944,
          "time": 211.4,
          "velocity": 0.6771653543307087
        },
        {
          "duration": 0.19999999999998863,
          "durationTicks": 192,
          "midi": 44,
          "name": "G#2",
          "ticks": 203136,
          "time": 211.60000000000002,
          "velocity": 0.6771653543307087
        },
        {
          "duration": 0.19999999999998863,
          "durationTicks": 192,
          "midi": 52,
          "name": "E3",
          "ticks": 203328,
          "time": 211.8,
          "velocity": 0.6771653543307087
        },
        {
          "duration": 0.20000000000001705,
          "durationTicks": 192,
          "midi": 44,
          "name": "G#2",
          "ticks": 203520,
          "time": 212,
          "velocity": 0.6771653543307087
        },
        {
          "duration": 0.19999999999998863,
          "durationTicks": 192,
          "midi": 52,
          "name": "E3",
          "ticks": 203712,
          "time": 212.20000000000002,
          "velocity": 0.6771653543307087
        },
        {
          "duration": 0.20000000000001705,
          "durationTicks": 192,
          "midi": 44,
          "name": "G#2",
          "ticks": 203904,
          "time": 212.4,
          "velocity": 0.6771653543307087
        },
        {
          "duration": 0.19999999999998863,
          "durationTicks": 192,
          "midi": 52,
          "name": "E3",
          "ticks": 204096,
          "time": 212.60000000000002,
          "velocity": 0.6771653543307087
        },
        {
          "duration": 0.19999999999998863,
          "durationTicks": 192,
          "midi": 45,
          "name": "A2",
          "ticks": 204288,
          "time": 212.8,
          "velocity": 0.6771653543307087
        },
        {
          "duration": 0.20000000000001705,
          "durationTicks": 192,
          "midi": 52,
          "name": "E3",
          "ticks": 204480,
          "time": 213,
          "velocity": 0.6771653543307087
        },
        {
          "duration": 0.19999999999998863,
          "durationTicks": 192,
          "midi": 45,
          "name": "A2",
          "ticks": 204672,
          "time": 213.20000000000002,
          "velocity": 0.6771653543307087
        },
        {
          "duration": 0.20000000000001705,
          "durationTicks": 192,
          "midi": 52,
          "name": "E3",
          "ticks": 204864,
          "time": 213.4,
          "velocity": 0.6771653543307087
        },
        {
          "duration": 0.19999999999998863,
          "durationTicks": 192,
          "midi": 45,
          "name": "A2",
          "ticks": 205056,
          "time": 213.60000000000002,
          "velocity": 0.6771653543307087
        },
        {
          "duration": 0.19999999999998863,
          "durationTicks": 192,
          "midi": 52,
          "name": "E3",
          "ticks": 205248,
          "time": 213.8,
          "velocity": 0.6771653543307087
        },
        {
          "duration": 0.20000000000001705,
          "durationTicks": 192,
          "midi": 45,
          "name": "A2",
          "ticks": 205440,
          "time": 214,
          "velocity": 0.6771653543307087
        },
        {
          "duration": 0.19999999999998863,
          "durationTicks": 192,
          "midi": 52,
          "name": "E3",
          "ticks": 205632,
          "time": 214.20000000000002,
          "velocity": 0.6771653543307087
        },
        {
          "duration": 0.20000000000001705,
          "durationTicks": 192,
          "midi": 44,
          "name": "G#2",
          "ticks": 205824,
          "time": 214.4,
          "velocity": 0.6771653543307087
        },
        {
          "duration": 0.19999999999998863,
          "durationTicks": 192,
          "midi": 52,
          "name": "E3",
          "ticks": 206016,
          "time": 214.60000000000002,
          "velocity": 0.6771653543307087
        },
        {
          "duration": 0.19999999999998863,
          "durationTicks": 192,
          "midi": 44,
          "name": "G#2",
          "ticks": 206208,
          "time": 214.8,
          "velocity": 0.6771653543307087
        },
        {
          "duration": 0.20000000000001705,
          "durationTicks": 192,
          "midi": 52,
          "name": "E3",
          "ticks": 206400,
          "time": 215,
          "velocity": 0.6771653543307087
        },
        {
          "duration": 0.19999999999998863,
          "durationTicks": 192,
          "midi": 44,
          "name": "G#2",
          "ticks": 206592,
          "time": 215.20000000000002,
          "velocity": 0.6771653543307087
        },
        {
          "duration": 0.20000000000001705,
          "durationTicks": 192,
          "midi": 52,
          "name": "E3",
          "ticks": 206784,
          "time": 215.4,
          "velocity": 0.6771653543307087
        },
        {
          "duration": 0.19999999999998863,
          "durationTicks": 192,
          "midi": 44,
          "name": "G#2",
          "ticks": 206976,
          "time": 215.60000000000002,
          "velocity": 0.6771653543307087
        },
        {
          "duration": 0.19999999999998863,
          "durationTicks": 192,
          "midi": 52,
          "name": "E3",
          "ticks": 207168,
          "time": 215.8,
          "velocity": 0.6771653543307087
        },
        {
          "duration": 1.5,
          "durationTicks": 1440,
          "midi": 45,
          "name": "A2",
          "ticks": 207360,
          "time": 216,
          "velocity": 0.6771653543307087
        }
      ],
      "endOfTrackTicks": 208800
    },
    {
      "channel": 7,
      "controlChanges": {},
      "pitchBends": [],
      "instrument": {
        "family": "synth lead",
        "number": 80,
        "name": "lead 1 (square)"
      },
      "name": "8-Bit Square",
      "notes": [
        {
          "duration": 0.5,
          "durationTicks": 480,
          "midi": 72,
          "name": "C5",
          "ticks": 21504,
          "time": 22.400000000000002,
          "velocity": 0.33858267716535434
        },
        {
          "duration": 0.20000000000000284,
          "durationTicks": 192,
          "midi": 64,
          "name": "E4",
          "ticks": 22080,
          "time": 23,
          "velocity": 0.33858267716535434
        },
        {
          "duration": 0.1999999999999993,
          "durationTicks": 192,
          "midi": 72,
          "name": "C5",
          "ticks": 22272,
          "time": 23.200000000000003,
          "velocity": 0.33858267716535434
        },
        {
          "duration": 0.1999999999999993,
          "durationTicks": 192,
          "midi": 69,
          "name": "A4",
          "ticks": 22464,
          "time": 23.400000000000002,
          "velocity": 0.33858267716535434
        },
        {
          "duration": 0.3000000000000007,
          "durationTicks": 288,
          "midi": 64,
          "name": "E4",
          "ticks": 22656,
          "time": 23.6,
          "velocity": 0.33858267716535434
        },
        {
          "duration": 0.5,
          "durationTicks": 480,
          "midi": 71,
          "name": "B4",
          "ticks": 23040,
          "time": 24,
          "velocity": 0.33858267716535434
        },
        {
          "duration": 0.1999999999999993,
          "durationTicks": 192,
          "midi": 64,
          "name": "E4",
          "ticks": 23616,
          "time": 24.6,
          "velocity": 0.33858267716535434
        },
        {
          "duration": 0.1999999999999993,
          "durationTicks": 192,
          "midi": 71,
          "name": "B4",
          "ticks": 23808,
          "time": 24.8,
          "velocity": 0.33858267716535434
        },
        {
          "duration": 0.20000000000000284,
          "durationTicks": 192,
          "midi": 68,
          "name": "G#4",
          "ticks": 24000,
          "time": 25,
          "velocity": 0.33858267716535434
        },
        {
          "duration": 0.29999999999999716,
          "durationTicks": 288,
          "midi": 64,
          "name": "E4",
          "ticks": 24192,
          "time": 25.200000000000003,
          "velocity": 0.33858267716535434
        },
        {
          "duration": 0.5,
          "durationTicks": 480,
          "midi": 69,
          "name": "A4",
          "ticks": 24576,
          "time": 25.6,
          "velocity": 0.33858267716535434
        },
        {
          "duration": 0.1999999999999993,
          "durationTicks": 192,
          "midi": 64,
          "name": "E4",
          "ticks": 25152,
          "time": 26.200000000000003,
          "velocity": 0.33858267716535434
        },
        {
          "duration": 0.1999999999999993,
          "durationTicks": 192,
          "midi": 69,
          "name": "A4",
          "ticks": 25344,
          "time": 26.400000000000002,
          "velocity": 0.33858267716535434
        },
        {
          "duration": 0.1999999999999993,
          "durationTicks": 192,
          "midi": 64,
          "name": "E4",
          "ticks": 25536,
          "time": 26.6,
          "velocity": 0.33858267716535434
        },
        {
          "duration": 0.3000000000000007,
          "durationTicks": 288,
          "midi": 69,
          "name": "A4",
          "ticks": 25728,
          "time": 26.8,
          "velocity": 0.33858267716535434
        },
        {
          "duration": 0.29999999999999716,
          "durationTicks": 288,
          "midi": 68,
          "name": "G#4",
          "ticks": 26112,
          "time": 27.200000000000003,
          "velocity": 0.33858267716535434
        },
        {
          "duration": 0.1999999999999993,
          "durationTicks": 192,
          "midi": 64,
          "name": "E4",
          "ticks": 26496,
          "time": 27.6,
          "velocity": 0.33858267716535434
        },
        {
          "duration": 0.1999999999999993,
          "durationTicks": 192,
          "midi": 59,
          "name": "B3",
          "ticks": 26688,
          "time": 27.8,
          "velocity": 0.33858267716535434
        },
        {
          "duration": 0.20000000000000284,
          "durationTicks": 192,
          "midi": 71,
          "name": "B4",
          "ticks": 26880,
          "time": 28,
          "velocity": 0.33858267716535434
        },
        {
          "duration": 0.1999999999999993,
          "durationTicks": 192,
          "midi": 68,
          "name": "G#4",
          "ticks": 27072,
          "time": 28.200000000000003,
          "velocity": 0.33858267716535434
        },
        {
          "duration": 0.3000000000000007,
          "durationTicks": 288,
          "midi": 64,
          "name": "E4",
          "ticks": 27264,
          "time": 28.400000000000002,
          "velocity": 0.33858267716535434
        },
        {
          "duration": 0.3000000000000007,
          "durationTicks": 288,
          "midi": 71,
          "name": "B4",
          "ticks": 27648,
          "time": 28.8,
          "velocity": 0.3937007874015748
        },
        {
          "duration": 0.1999999999999993,
          "durationTicks": 192,
          "midi": 68,
          "name": "G#4",
          "ticks": 28032,
          "time": 29.200000000000003,
          "velocity": 0.33858267716535434
        },
        {
          "duration": 0.1999999999999993,
          "durationTicks": 192,
          "midi": 69,
          "name": "A4",
          "ticks": 28224,
          "time": 29.400000000000002,
          "velocity": 0.33858267716535434
        },
        {
          "duration": 0.3000000000000007,
          "durationTicks": 288,
          "midi": 71,
          "name": "B4",
          "ticks": 28416,
          "time": 29.6,
          "velocity": 0.3937007874015748
        },
        {
          "duration": 0.20000000000000284,
          "durationTicks": 192,
          "midi": 69,
          "name": "A4",
          "ticks": 28800,
          "time": 30,
          "velocity": 0.33858267716535434
        },
        {
          "duration": 0.1999999999999993,
          "durationTicks": 192,
          "midi": 68,
          "name": "G#4",
          "ticks": 28992,
          "time": 30.200000000000003,
          "velocity": 0.33858267716535434
        },
        {
          "duration": 0.3000000000000007,
          "durationTicks": 288,
          "midi": 64,
          "name": "E4",
          "ticks": 29184,
          "time": 30.400000000000002,
          "velocity": 0.33858267716535434
        },
        {
          "duration": 0.1999999999999993,
          "durationTicks": 192,
          "midi": 64,
          "name": "E4",
          "ticks": 29568,
          "time": 30.8,
          "velocity": 0.33858267716535434
        },
        {
          "duration": 0.20000000000000284,
          "durationTicks": 192,
          "midi": 69,
          "name": "A4",
          "ticks": 29760,
          "time": 31,
          "velocity": 0.33858267716535434
        },
        {
          "duration": 0.29999999999999716,
          "durationTicks": 288,
          "midi": 72,
          "name": "C5",
          "ticks": 29952,
          "time": 31.200000000000003,
          "velocity": 0.33858267716535434
        },
        {
          "duration": 0.1999999999999993,
          "durationTicks": 192,
          "midi": 71,
          "name": "B4",
          "ticks": 30336,
          "time": 31.6,
          "velocity": 0.33858267716535434
        },
        {
          "duration": 0.1999999999999993,
          "durationTicks": 192,
          "midi": 69,
          "name": "A4",
          "ticks": 30528,
          "time": 31.8,
          "velocity": 0.33858267716535434
        },
        {
          "duration": 0.20000000000000284,
          "durationTicks": 192,
          "midi": 68,
          "name": "G#4",
          "ticks": 30720,
          "time": 32,
          "velocity": 0.33858267716535434
        },
        {
          "duration": 0.19999999999999574,
          "durationTicks": 192,
          "midi": 64,
          "name": "E4",
          "ticks": 30912,
          "time": 32.2,
          "velocity": 0.33858267716535434
        },
        {
          "duration": 0.20000000000000284,
          "durationTicks": 192,
          "midi": 68,
          "name": "G#4",
          "ticks": 31104,
          "time": 32.4,
          "velocity": 0.33858267716535434
        },
        {
          "duration": 0.10000000000000142,
          "durationTicks": 96,
          "midi": 69,
          "name": "A4",
          "ticks": 31296,
          "time": 32.6,
          "velocity": 0.33858267716535434
        },
        {
          "duration": 0.29999999999999716,
          "durationTicks": 288,
          "midi": 71,
          "name": "B4",
          "ticks": 31488,
          "time": 32.800000000000004,
          "velocity": 0.33858267716535434
        },
        {
          "duration": 0.29999999999999716,
          "durationTicks": 288,
          "midi": 72,
          "name": "C5",
          "ticks": 31872,
          "time": 33.2,
          "velocity": 0.33858267716535434
        },
        {
          "duration": 0.29999999999999716,
          "durationTicks": 288,
          "midi": 69,
          "name": "A4",
          "ticks": 32256,
          "time": 33.6,
          "velocity": 0.33858267716535434
        },
        {
          "duration": 0.30000000000000426,
          "durationTicks": 288,
          "midi": 64,
          "name": "E4",
          "ticks": 32640,
          "time": 34,
          "velocity": 0.33858267716535434
        },
        {
          "duration": 0.7000000000000028,
          "durationTicks": 672,
          "midi": 64,
          "name": "E4",
          "ticks": 33024,
          "time": 34.4,
          "velocity": 0.33858267716535434
        },
        {
          "duration": 0.4000000000000057,
          "durationTicks": 384,
          "midi": 65,
          "name": "F4",
          "ticks": 33984,
          "time": 35.4,
          "velocity": 0.33858267716535434
        },
        {
          "duration": 0.19999999999999574,
          "durationTicks": 192,
          "midi": 69,
          "name": "A4",
          "ticks": 34368,
          "time": 35.800000000000004,
          "velocity": 0.33858267716535434
        },
        {
          "duration": 0.20000000000000284,
          "durationTicks": 192,
          "midi": 72,
          "name": "C5",
          "ticks": 34560,
          "time": 36,
          "velocity": 0.33858267716535434
        },
        {
          "duration": 0.10000000000000142,
          "durationTicks": 96,
          "midi": 72,
          "name": "C5",
          "ticks": 34752,
          "time": 36.2,
          "velocity": 0.33858267716535434
        },
        {
          "duration": 0.09999999999999432,
          "durationTicks": 96,
          "midi": 72,
          "name": "C5",
          "ticks": 34848,
          "time": 36.300000000000004,
          "velocity": 0.33858267716535434
        },
        {
          "duration": 0.20000000000000284,
          "durationTicks": 192,
          "midi": 71,
          "name": "B4",
          "ticks": 34944,
          "time": 36.4,
          "velocity": 0.33858267716535434
        },
        {
          "duration": 0.20000000000000284,
          "durationTicks": 192,
          "midi": 69,
          "name": "A4",
          "ticks": 35136,
          "time": 36.6,
          "velocity": 0.33858267716535434
        },
        {
          "duration": 0.5,
          "durationTicks": 480,
          "midi": 67,
          "name": "G4",
          "ticks": 35328,
          "time": 36.800000000000004,
          "velocity": 0.33858267716535434
        },
        {
          "duration": 0.20000000000000284,
          "durationTicks": 192,
          "midi": 64,
          "name": "E4",
          "ticks": 35904,
          "time": 37.4,
          "velocity": 0.33858267716535434
        },
        {
          "duration": 0.20000000000000284,
          "durationTicks": 192,
          "midi": 67,
          "name": "G4",
          "ticks": 36096,
          "time": 37.6,
          "velocity": 0.33858267716535434
        },
        {
          "duration": 0.09999999999999432,
          "durationTicks": 96,
          "midi": 69,
          "name": "A4",
          "ticks": 36288,
          "time": 37.800000000000004,
          "velocity": 0.33858267716535434
        },
        {
          "duration": 0.10000000000000142,
          "durationTicks": 96,
          "midi": 67,
          "name": "G4",
          "ticks": 36384,
          "time": 37.9,
          "velocity": 0.33858267716535434
        },
        {
          "duration": 0.20000000000000284,
          "durationTicks": 192,
          "midi": 65,
          "name": "F4",
          "ticks": 36480,
          "time": 38,
          "velocity": 0.33858267716535434
        },
        {
          "duration": 0.20000000000000284,
          "durationTicks": 192,
          "midi": 64,
          "name": "E4",
          "ticks": 36672,
          "time": 38.2,
          "velocity": 0.33858267716535434
        },
        {
          "duration": 0.19999999999999574,
          "durationTicks": 192,
          "midi": 80,
          "name": "G#5",
          "ticks": 36864,
          "time": 38.400000000000006,
          "velocity": 0.33858267716535434
        },
        {
          "duration": 0.20000000000000284,
          "durationTicks": 192,
          "midi": 76,
          "name": "E5",
          "ticks": 37056,
          "time": 38.6,
          "velocity": 0.33858267716535434
        },
        {
          "duration": 0.19999999999999574,
          "durationTicks": 192,
          "midi": 80,
          "name": "G#5",
          "ticks": 37248,
          "time": 38.800000000000004,
          "velocity": 0.33858267716535434
        },
        {
          "duration": 0.20000000000000284,
          "durationTicks": 192,
          "midi": 81,
          "name": "A5",
          "ticks": 37440,
          "time": 39,
          "velocity": 0.33858267716535434
        },
        {
          "duration": 0.20000000000000284,
          "durationTicks": 192,
          "midi": 83,
          "name": "B5",
          "ticks": 37632,
          "time": 39.2,
          "velocity": 0.33858267716535434
        },
        {
          "duration": 0.19999999999999574,
          "durationTicks": 192,
          "midi": 80,
          "name": "G#5",
          "ticks": 37824,
          "time": 39.400000000000006,
          "velocity": 0.33858267716535434
        },
        {
          "duration": 0.20000000000000284,
          "durationTicks": 192,
          "midi": 84,
          "name": "C6",
          "ticks": 38016,
          "time": 39.6,
          "velocity": 0.33858267716535434
        },
        {
          "duration": 0.19999999999999574,
          "durationTicks": 192,
          "midi": 80,
          "name": "G#5",
          "ticks": 38208,
          "time": 39.800000000000004,
          "velocity": 0.33858267716535434
        },
        {
          "duration": 0.20000000000000284,
          "durationTicks": 192,
          "midi": 81,
          "name": "A5",
          "ticks": 38400,
          "time": 40,
          "velocity": 0.33858267716535434
        },
        {
          "duration": 0.20000000000000284,
          "durationTicks": 192,
          "midi": 76,
          "name": "E5",
          "ticks": 38592,
          "time": 40.2,
          "velocity": 0.33858267716535434
        },
        {
          "duration": 0.29999999999999716,
          "durationTicks": 288,
          "midi": 76,
          "name": "E5",
          "ticks": 38784,
          "time": 40.400000000000006,
          "velocity": 0.33858267716535434
        },
        {
          "duration": 0.29999999999999716,
          "durationTicks": 288,
          "midi": 76,
          "name": "E5",
          "ticks": 39168,
          "time": 40.800000000000004,
          "velocity": 0.33858267716535434
        },
        {
          "duration": 0.30000000000000426,
          "durationTicks": 288,
          "midi": 71,
          "name": "B4",
          "ticks": 39936,
          "time": 41.6,
          "velocity": 0.3937007874015748
        },
        {
          "duration": 0.20000000000000284,
          "durationTicks": 192,
          "midi": 68,
          "name": "G#4",
          "ticks": 40320,
          "time": 42,
          "velocity": 0.33858267716535434
        },
        {
          "duration": 0.20000000000000284,
          "durationTicks": 192,
          "midi": 69,
          "name": "A4",
          "ticks": 40512,
          "time": 42.2,
          "velocity": 0.33858267716535434
        },
        {
          "duration": 0.29999999999999716,
          "durationTicks": 288,
          "midi": 71,
          "name": "B4",
          "ticks": 40704,
          "time": 42.400000000000006,
          "velocity": 0.3937007874015748
        },
        {
          "duration": 0.19999999999999574,
          "durationTicks": 192,
          "midi": 69,
          "name": "A4",
          "ticks": 41088,
          "time": 42.800000000000004,
          "velocity": 0.33858267716535434
        },
        {
          "duration": 0.20000000000000284,
          "durationTicks": 192,
          "midi": 68,
          "name": "G#4",
          "ticks": 41280,
          "time": 43,
          "velocity": 0.33858267716535434
        },
        {
          "duration": 0.29999999999999716,
          "durationTicks": 288,
          "midi": 64,
          "name": "E4",
          "ticks": 41472,
          "time": 43.2,
          "velocity": 0.3937007874015748
        },
        {
          "duration": 0.20000000000000284,
          "durationTicks": 192,
          "midi": 64,
          "name": "E4",
          "ticks": 41856,
          "time": 43.6,
          "velocity": 0.33858267716535434
        },
        {
          "duration": 0.19999999999999574,
          "durationTicks": 192,
          "midi": 69,
          "name": "A4",
          "ticks": 42048,
          "time": 43.800000000000004,
          "velocity": 0.33858267716535434
        },
        {
          "duration": 0.30000000000000426,
          "durationTicks": 288,
          "midi": 72,
          "name": "C5",
          "ticks": 42240,
          "time": 44,
          "velocity": 0.33858267716535434
        },
        {
          "duration": 0.19999999999999574,
          "durationTicks": 192,
          "midi": 71,
          "name": "B4",
          "ticks": 42624,
          "time": 44.400000000000006,
          "velocity": 0.33858267716535434
        },
        {
          "duration": 0.20000000000000284,
          "durationTicks": 192,
          "midi": 69,
          "name": "A4",
          "ticks": 42816,
          "time": 44.6,
          "velocity": 0.33858267716535434
        },
        {
          "duration": 0.19999999999999574,
          "durationTicks": 192,
          "midi": 68,
          "name": "G#4",
          "ticks": 43008,
          "time": 44.800000000000004,
          "velocity": 0.33858267716535434
        },
        {
          "duration": 0.20000000000000284,
          "durationTicks": 192,
          "midi": 64,
          "name": "E4",
          "ticks": 43200,
          "time": 45,
          "velocity": 0.33858267716535434
        },
        {
          "duration": 0.20000000000000284,
          "durationTicks": 192,
          "midi": 68,
          "name": "G#4",
          "ticks": 43392,
          "time": 45.2,
          "velocity": 0.33858267716535434
        },
        {
          "duration": 0.19999999999999574,
          "durationTicks": 192,
          "midi": 69,
          "name": "A4",
          "ticks": 43584,
          "time": 45.400000000000006,
          "velocity": 0.33858267716535434
        },
        {
          "duration": 0.30000000000000426,
          "durationTicks": 288,
          "midi": 71,
          "name": "B4",
          "ticks": 43776,
          "time": 45.6,
          "velocity": 0.33858267716535434
        },
        {
          "duration": 0.30000000000000426,
          "durationTicks": 288,
          "midi": 72,
          "name": "C5",
          "ticks": 44160,
          "time": 46,
          "velocity": 0.33858267716535434
        },
        {
          "duration": 0.29999999999999716,
          "durationTicks": 288,
          "midi": 69,
          "name": "A4",
          "ticks": 44544,
          "time": 46.400000000000006,
          "velocity": 0.33858267716535434
        },
        {
          "duration": 0.29999999999999716,
          "durationTicks": 288,
          "midi": 64,
          "name": "E4",
          "ticks": 44928,
          "time": 46.800000000000004,
          "velocity": 0.33858267716535434
        },
        {
          "duration": 0.7000000000000028,
          "durationTicks": 672,
          "midi": 64,
          "name": "E4",
          "ticks": 45312,
          "time": 47.2,
          "velocity": 0.33858267716535434
        },
        {
          "duration": 0.3999999999999986,
          "durationTicks": 384,
          "midi": 65,
          "name": "F4",
          "ticks": 46272,
          "time": 48.2,
          "velocity": 0.33858267716535434
        },
        {
          "duration": 0.20000000000000284,
          "durationTicks": 192,
          "midi": 69,
          "name": "A4",
          "ticks": 46656,
          "time": 48.6,
          "velocity": 0.33858267716535434
        },
        {
          "duration": 0.19999999999999574,
          "durationTicks": 192,
          "midi": 72,
          "name": "C5",
          "ticks": 46848,
          "time": 48.800000000000004,
          "velocity": 0.33858267716535434
        },
        {
          "duration": 0.10000000000000142,
          "durationTicks": 96,
          "midi": 72,
          "name": "C5",
          "ticks": 47040,
          "time": 49,
          "velocity": 0.33858267716535434
        },
        {
          "duration": 0.10000000000000142,
          "durationTicks": 96,
          "midi": 72,
          "name": "C5",
          "ticks": 47136,
          "time": 49.1,
          "velocity": 0.33858267716535434
        },
        {
          "duration": 0.20000000000000284,
          "durationTicks": 192,
          "midi": 71,
          "name": "B4",
          "ticks": 47232,
          "time": 49.2,
          "velocity": 0.33858267716535434
        },
        {
          "duration": 0.19999999999999574,
          "durationTicks": 192,
          "midi": 69,
          "name": "A4",
          "ticks": 47424,
          "time": 49.400000000000006,
          "velocity": 0.33858267716535434
        },
        {
          "duration": 0.5,
          "durationTicks": 480,
          "midi": 67,
          "name": "G4",
          "ticks": 47616,
          "time": 49.6,
          "velocity": 0.33858267716535434
        },
        {
          "duration": 0.20000000000000284,
          "durationTicks": 192,
          "midi": 64,
          "name": "E4",
          "ticks": 48192,
          "time": 50.2,
          "velocity": 0.33858267716535434
        },
        {
          "duration": 0.19999999999999574,
          "durationTicks": 192,
          "midi": 67,
          "name": "G4",
          "ticks": 48384,
          "time": 50.400000000000006,
          "velocity": 0.33858267716535434
        },
        {
          "duration": 0.10000000000000142,
          "durationTicks": 96,
          "midi": 69,
          "name": "A4",
          "ticks": 48576,
          "time": 50.6,
          "velocity": 0.33858267716535434
        },
        {
          "duration": 0.10000000000000142,
          "durationTicks": 96,
          "midi": 67,
          "name": "G4",
          "ticks": 48672,
          "time": 50.7,
          "velocity": 0.33858267716535434
        },
        {
          "duration": 0.19999999999999574,
          "durationTicks": 192,
          "midi": 65,
          "name": "F4",
          "ticks": 48768,
          "time": 50.800000000000004,
          "velocity": 0.33858267716535434
        },
        {
          "duration": 0.20000000000000284,
          "durationTicks": 192,
          "midi": 64,
          "name": "E4",
          "ticks": 48960,
          "time": 51,
          "velocity": 0.33858267716535434
        },
        {
          "duration": 0.20000000000000284,
          "durationTicks": 192,
          "midi": 68,
          "name": "G#4",
          "ticks": 49152,
          "time": 51.2,
          "velocity": 0.33858267716535434
        },
        {
          "duration": 0.19999999999999574,
          "durationTicks": 192,
          "midi": 64,
          "name": "E4",
          "ticks": 49344,
          "time": 51.400000000000006,
          "velocity": 0.33858267716535434
        },
        {
          "duration": 0.20000000000000284,
          "durationTicks": 192,
          "midi": 68,
          "name": "G#4",
          "ticks": 49536,
          "time": 51.6,
          "velocity": 0.33858267716535434
        },
        {
          "duration": 0.19999999999999574,
          "durationTicks": 192,
          "midi": 69,
          "name": "A4",
          "ticks": 49728,
          "time": 51.800000000000004,
          "velocity": 0.33858267716535434
        },
        {
          "duration": 0.20000000000000284,
          "durationTicks": 192,
          "midi": 71,
          "name": "B4",
          "ticks": 49920,
          "time": 52,
          "velocity": 0.33858267716535434
        },
        {
          "duration": 0.20000000000000284,
          "durationTicks": 192,
          "midi": 68,
          "name": "G#4",
          "ticks": 50112,
          "time": 52.2,
          "velocity": 0.33858267716535434
        },
        {
          "duration": 0.19999999999999574,
          "durationTicks": 192,
          "midi": 72,
          "name": "C5",
          "ticks": 50304,
          "time": 52.400000000000006,
          "velocity": 0.33858267716535434
        },
        {
          "duration": 0.20000000000000284,
          "durationTicks": 192,
          "midi": 68,
          "name": "G#4",
          "ticks": 50496,
          "time": 52.6,
          "velocity": 0.33858267716535434
        },
        {
          "duration": 0.19999999999999574,
          "durationTicks": 192,
          "midi": 69,
          "name": "A4",
          "ticks": 50688,
          "time": 52.800000000000004,
          "velocity": 0.33858267716535434
        },
        {
          "duration": 0.20000000000000284,
          "durationTicks": 192,
          "midi": 64,
          "name": "E4",
          "ticks": 50880,
          "time": 53,
          "velocity": 0.33858267716535434
        },
        {
          "duration": 0.29999999999999716,
          "durationTicks": 288,
          "midi": 64,
          "name": "E4",
          "ticks": 51072,
          "time": 53.2,
          "velocity": 0.33858267716535434
        },
        {
          "duration": 0.30000000000000426,
          "durationTicks": 288,
          "midi": 64,
          "name": "E4",
          "ticks": 51456,
          "time": 53.6,
          "velocity": 0.33858267716535434
        },
        {
          "duration": 0.6999999999999957,
          "durationTicks": 672,
          "midi": 69,
          "name": "A4",
          "ticks": 52224,
          "time": 54.400000000000006,
          "velocity": 0.33858267716535434
        },
        {
          "duration": 0.20000000000000284,
          "durationTicks": 192,
          "midi": 64,
          "name": "E4",
          "ticks": 52992,
          "time": 55.2,
          "velocity": 0.33858267716535434
        },
        {
          "duration": 0.20000000000000284,
          "durationTicks": 192,
          "midi": 69,
          "name": "A4",
          "ticks": 52992,
          "time": 55.2,
          "velocity": 0.33858267716535434
        },
        {
          "duration": 0.19999999999999574,
          "durationTicks": 192,
          "midi": 64,
          "name": "E4",
          "ticks": 53184,
          "time": 55.400000000000006,
          "velocity": 0.33858267716535434
        },
        {
          "duration": 0.19999999999999574,
          "durationTicks": 192,
          "midi": 69,
          "name": "A4",
          "ticks": 53184,
          "time": 55.400000000000006,
          "velocity": 0.33858267716535434
        },
        {
          "duration": 0.20000000000000284,
          "durationTicks": 192,
          "midi": 64,
          "name": "E4",
          "ticks": 53376,
          "time": 55.6,
          "velocity": 0.33858267716535434
        },
        {
          "duration": 0.20000000000000284,
          "durationTicks": 192,
          "midi": 69,
          "name": "A4",
          "ticks": 53376,
          "time": 55.6,
          "velocity": 0.33858267716535434
        },
        {
          "duration": 0.19999999999999574,
          "durationTicks": 192,
          "midi": 64,
          "name": "E4",
          "ticks": 53568,
          "time": 55.800000000000004,
          "velocity": 0.33858267716535434
        },
        {
          "duration": 0.19999999999999574,
          "durationTicks": 192,
          "midi": 69,
          "name": "A4",
          "ticks": 53568,
          "time": 55.800000000000004,
          "velocity": 0.33858267716535434
        },
        {
          "duration": 0.20000000000000284,
          "durationTicks": 192,
          "midi": 64,
          "name": "E4",
          "ticks": 53760,
          "time": 56,
          "velocity": 0.33858267716535434
        },
        {
          "duration": 0.20000000000000284,
          "durationTicks": 192,
          "midi": 68,
          "name": "G#4",
          "ticks": 53760,
          "time": 56,
          "velocity": 0.33858267716535434
        },
        {
          "duration": 0.20000000000000284,
          "durationTicks": 192,
          "midi": 64,
          "name": "E4",
          "ticks": 53952,
          "time": 56.2,
          "velocity": 0.33858267716535434
        },
        {
          "duration": 0.20000000000000284,
          "durationTicks": 192,
          "midi": 68,
          "name": "G#4",
          "ticks": 53952,
          "time": 56.2,
          "velocity": 0.33858267716535434
        },
        {
          "duration": 0.19999999999999574,
          "durationTicks": 192,
          "midi": 64,
          "name": "E4",
          "ticks": 54144,
          "time": 56.400000000000006,
          "velocity": 0.33858267716535434
        },
        {
          "duration": 0.19999999999999574,
          "durationTicks": 192,
          "midi": 68,
          "name": "G#4",
          "ticks": 54144,
          "time": 56.400000000000006,
          "velocity": 0.33858267716535434
        },
        {
          "duration": 0.20000000000000284,
          "durationTicks": 192,
          "midi": 64,
          "name": "E4",
          "ticks": 54336,
          "time": 56.6,
          "velocity": 0.33858267716535434
        },
        {
          "duration": 0.20000000000000284,
          "durationTicks": 192,
          "midi": 68,
          "name": "G#4",
          "ticks": 54336,
          "time": 56.6,
          "velocity": 0.33858267716535434
        },
        {
          "duration": 0.6999999999999957,
          "durationTicks": 672,
          "midi": 64,
          "name": "E4",
          "ticks": 54528,
          "time": 56.800000000000004,
          "velocity": 0.33858267716535434
        },
        {
          "duration": 0.6999999999999957,
          "durationTicks": 672,
          "midi": 68,
          "name": "G#4",
          "ticks": 54528,
          "time": 56.800000000000004,
          "velocity": 0.33858267716535434
        },
        {
          "duration": 0.7000000000000028,
          "durationTicks": 672,
          "midi": 69,
          "name": "A4",
          "ticks": 55296,
          "time": 57.6,
          "velocity": 0.33858267716535434
        },
        {
          "duration": 0.19999999999999574,
          "durationTicks": 192,
          "midi": 64,
          "name": "E4",
          "ticks": 56064,
          "time": 58.400000000000006,
          "velocity": 0.33858267716535434
        },
        {
          "duration": 0.19999999999999574,
          "durationTicks": 192,
          "midi": 69,
          "name": "A4",
          "ticks": 56064,
          "time": 58.400000000000006,
          "velocity": 0.33858267716535434
        },
        {
          "duration": 0.20000000000000284,
          "durationTicks": 192,
          "midi": 64,
          "name": "E4",
          "ticks": 56256,
          "time": 58.6,
          "velocity": 0.33858267716535434
        },
        {
          "duration": 0.20000000000000284,
          "durationTicks": 192,
          "midi": 69,
          "name": "A4",
          "ticks": 56256,
          "time": 58.6,
          "velocity": 0.33858267716535434
        },
        {
          "duration": 0.19999999999999574,
          "durationTicks": 192,
          "midi": 64,
          "name": "E4",
          "ticks": 56448,
          "time": 58.800000000000004,
          "velocity": 0.33858267716535434
        },
        {
          "duration": 0.19999999999999574,
          "durationTicks": 192,
          "midi": 69,
          "name": "A4",
          "ticks": 56448,
          "time": 58.800000000000004,
          "velocity": 0.33858267716535434
        },
        {
          "duration": 0.20000000000000284,
          "durationTicks": 192,
          "midi": 64,
          "name": "E4",
          "ticks": 56640,
          "time": 59,
          "velocity": 0.33858267716535434
        },
        {
          "duration": 0.20000000000000284,
          "durationTicks": 192,
          "midi": 69,
          "name": "A4",
          "ticks": 56640,
          "time": 59,
          "velocity": 0.33858267716535434
        },
        {
          "duration": 0.20000000000000284,
          "durationTicks": 192,
          "midi": 64,
          "name": "E4",
          "ticks": 56832,
          "time": 59.2,
          "velocity": 0.33858267716535434
        },
        {
          "duration": 0.20000000000000284,
          "durationTicks": 192,
          "midi": 68,
          "name": "G#4",
          "ticks": 56832,
          "time": 59.2,
          "velocity": 0.33858267716535434
        },
        {
          "duration": 0.19999999999999574,
          "durationTicks": 192,
          "midi": 64,
          "name": "E4",
          "ticks": 57024,
          "time": 59.400000000000006,
          "velocity": 0.33858267716535434
        },
        {
          "duration": 0.19999999999999574,
          "durationTicks": 192,
          "midi": 68,
          "name": "G#4",
          "ticks": 57024,
          "time": 59.400000000000006,
          "velocity": 0.33858267716535434
        },
        {
          "duration": 0.20000000000000284,
          "durationTicks": 192,
          "midi": 64,
          "name": "E4",
          "ticks": 57216,
          "time": 59.6,
          "velocity": 0.33858267716535434
        },
        {
          "duration": 0.20000000000000284,
          "durationTicks": 192,
          "midi": 68,
          "name": "G#4",
          "ticks": 57216,
          "time": 59.6,
          "velocity": 0.33858267716535434
        },
        {
          "duration": 0.19999999999999574,
          "durationTicks": 192,
          "midi": 64,
          "name": "E4",
          "ticks": 57408,
          "time": 59.800000000000004,
          "velocity": 0.33858267716535434
        },
        {
          "duration": 0.19999999999999574,
          "durationTicks": 192,
          "midi": 68,
          "name": "G#4",
          "ticks": 57408,
          "time": 59.800000000000004,
          "velocity": 0.33858267716535434
        },
        {
          "duration": 0.7000000000000028,
          "durationTicks": 672,
          "midi": 64,
          "name": "E4",
          "ticks": 57600,
          "time": 60,
          "velocity": 0.33858267716535434
        },
        {
          "duration": 0.7000000000000028,
          "durationTicks": 672,
          "midi": 68,
          "name": "G#4",
          "ticks": 57600,
          "time": 60,
          "velocity": 0.33858267716535434
        },
        {
          "duration": 0.6999999999999957,
          "durationTicks": 672,
          "midi": 60,
          "name": "C4",
          "ticks": 58368,
          "time": 60.800000000000004,
          "velocity": 0.33858267716535434
        },
        {
          "duration": 0.20000000000000284,
          "durationTicks": 192,
          "midi": 64,
          "name": "E4",
          "ticks": 59136,
          "time": 61.6,
          "velocity": 0.33858267716535434
        },
        {
          "duration": 0.20000000000000284,
          "durationTicks": 192,
          "midi": 69,
          "name": "A4",
          "ticks": 59136,
          "time": 61.6,
          "velocity": 0.33858267716535434
        },
        {
          "duration": 0.19999999999999574,
          "durationTicks": 192,
          "midi": 64,
          "name": "E4",
          "ticks": 59328,
          "time": 61.800000000000004,
          "velocity": 0.33858267716535434
        },
        {
          "duration": 0.19999999999999574,
          "durationTicks": 192,
          "midi": 69,
          "name": "A4",
          "ticks": 59328,
          "time": 61.800000000000004,
          "velocity": 0.33858267716535434
        },
        {
          "duration": 0.20000000000000284,
          "durationTicks": 192,
          "midi": 64,
          "name": "E4",
          "ticks": 59520,
          "time": 62,
          "velocity": 0.33858267716535434
        },
        {
          "duration": 0.20000000000000284,
          "durationTicks": 192,
          "midi": 69,
          "name": "A4",
          "ticks": 59520,
          "time": 62,
          "velocity": 0.33858267716535434
        },
        {
          "duration": 0.20000000000000284,
          "durationTicks": 192,
          "midi": 64,
          "name": "E4",
          "ticks": 59712,
          "time": 62.2,
          "velocity": 0.33858267716535434
        },
        {
          "duration": 0.20000000000000284,
          "durationTicks": 192,
          "midi": 69,
          "name": "A4",
          "ticks": 59712,
          "time": 62.2,
          "velocity": 0.33858267716535434
        },
        {
          "duration": 0.19999999999999574,
          "durationTicks": 192,
          "midi": 64,
          "name": "E4",
          "ticks": 60288,
          "time": 62.800000000000004,
          "velocity": 0.33858267716535434
        },
        {
          "duration": 0.19999999999999574,
          "durationTicks": 192,
          "midi": 68,
          "name": "G#4",
          "ticks": 60288,
          "time": 62.800000000000004,
          "velocity": 0.33858267716535434
        },
        {
          "duration": 0.20000000000000284,
          "durationTicks": 192,
          "midi": 64,
          "name": "E4",
          "ticks": 60480,
          "time": 63,
          "velocity": 0.33858267716535434
        },
        {
          "duration": 0.20000000000000284,
          "durationTicks": 192,
          "midi": 68,
          "name": "G#4",
          "ticks": 60480,
          "time": 63,
          "velocity": 0.33858267716535434
        },
        {
          "duration": 0.20000000000000284,
          "durationTicks": 192,
          "midi": 64,
          "name": "E4",
          "ticks": 60672,
          "time": 63.2,
          "velocity": 0.33858267716535434
        },
        {
          "duration": 0.20000000000000284,
          "durationTicks": 192,
          "midi": 68,
          "name": "G#4",
          "ticks": 60672,
          "time": 63.2,
          "velocity": 0.33858267716535434
        },
        {
          "duration": 0.19999999999999574,
          "durationTicks": 192,
          "midi": 64,
          "name": "E4",
          "ticks": 60864,
          "time": 63.400000000000006,
          "velocity": 0.33858267716535434
        },
        {
          "duration": 0.19999999999999574,
          "durationTicks": 192,
          "midi": 68,
          "name": "G#4",
          "ticks": 60864,
          "time": 63.400000000000006,
          "velocity": 0.33858267716535434
        },
        {
          "duration": 0.20000000000000284,
          "durationTicks": 192,
          "midi": 64,
          "name": "E4",
          "ticks": 61056,
          "time": 63.6,
          "velocity": 0.33858267716535434
        },
        {
          "duration": 0.20000000000000284,
          "durationTicks": 192,
          "midi": 68,
          "name": "G#4",
          "ticks": 61056,
          "time": 63.6,
          "velocity": 0.33858267716535434
        },
        {
          "duration": 0.19999999999999574,
          "durationTicks": 192,
          "midi": 64,
          "name": "E4",
          "ticks": 61248,
          "time": 63.800000000000004,
          "velocity": 0.33858267716535434
        },
        {
          "duration": 0.19999999999999574,
          "durationTicks": 192,
          "midi": 68,
          "name": "G#4",
          "ticks": 61248,
          "time": 63.800000000000004,
          "velocity": 0.33858267716535434
        },
        {
          "duration": 0.7000000000000028,
          "durationTicks": 672,
          "midi": 60,
          "name": "C4",
          "ticks": 61440,
          "time": 64,
          "velocity": 0.33858267716535434
        },
        {
          "duration": 0.20000000000000284,
          "durationTicks": 192,
          "midi": 64,
          "name": "E4",
          "ticks": 62208,
          "time": 64.8,
          "velocity": 0.33858267716535434
        },
        {
          "duration": 0.20000000000000284,
          "durationTicks": 192,
          "midi": 69,
          "name": "A4",
          "ticks": 62208,
          "time": 64.8,
          "velocity": 0.33858267716535434
        },
        {
          "duration": 0.20000000000000284,
          "durationTicks": 192,
          "midi": 64,
          "name": "E4",
          "ticks": 62400,
          "time": 65,
          "velocity": 0.33858267716535434
        },
        {
          "duration": 0.20000000000000284,
          "durationTicks": 192,
          "midi": 69,
          "name": "A4",
          "ticks": 62400,
          "time": 65,
          "velocity": 0.33858267716535434
        },
        {
          "duration": 0.20000000000000284,
          "durationTicks": 192,
          "midi": 64,
          "name": "E4",
          "ticks": 62592,
          "time": 65.2,
          "velocity": 0.33858267716535434
        },
        {
          "duration": 0.20000000000000284,
          "durationTicks": 192,
          "midi": 69,
          "name": "A4",
          "ticks": 62592,
          "time": 65.2,
          "velocity": 0.33858267716535434
        },
        {
          "duration": 0.20000000000000284,
          "durationTicks": 192,
          "midi": 64,
          "name": "E4",
          "ticks": 62784,
          "time": 65.4,
          "velocity": 0.33858267716535434
        },
        {
          "duration": 0.20000000000000284,
          "durationTicks": 192,
          "midi": 69,
          "name": "A4",
          "ticks": 62784,
          "time": 65.4,
          "velocity": 0.33858267716535434
        },
        {
          "duration": 0.20000000000000284,
          "durationTicks": 192,
          "midi": 64,
          "name": "E4",
          "ticks": 63360,
          "time": 66,
          "velocity": 0.33858267716535434
        },
        {
          "duration": 0.20000000000000284,
          "durationTicks": 192,
          "midi": 68,
          "name": "G#4",
          "ticks": 63360,
          "time": 66,
          "velocity": 0.33858267716535434
        },
        {
          "duration": 0.20000000000000284,
          "durationTicks": 192,
          "midi": 64,
          "name": "E4",
          "ticks": 63552,
          "time": 66.2,
          "velocity": 0.33858267716535434
        },
        {
          "duration": 0.20000000000000284,
          "durationTicks": 192,
          "midi": 68,
          "name": "G#4",
          "ticks": 63552,
          "time": 66.2,
          "velocity": 0.33858267716535434
        },
        {
          "duration": 0.7000000000000028,
          "durationTicks": 672,
          "midi": 64,
          "name": "E4",
          "ticks": 63744,
          "time": 66.4,
          "velocity": 0.33858267716535434
        },
        {
          "duration": 0.7000000000000028,
          "durationTicks": 672,
          "midi": 68,
          "name": "G#4",
          "ticks": 63744,
          "time": 66.4,
          "velocity": 0.33858267716535434
        },
        {
          "duration": 0.29999999999999716,
          "durationTicks": 288,
          "midi": 71,
          "name": "B4",
          "ticks": 64512,
          "time": 67.2,
          "velocity": 0.3937007874015748
        },
        {
          "duration": 0.19999999999998863,
          "durationTicks": 192,
          "midi": 68,
          "name": "G#4",
          "ticks": 64896,
          "time": 67.60000000000001,
          "velocity": 0.33858267716535434
        },
        {
          "duration": 0.20000000000000284,
          "durationTicks": 192,
          "midi": 69,
          "name": "A4",
          "ticks": 65088,
          "time": 67.8,
          "velocity": 0.33858267716535434
        },
        {
          "duration": 0.29999999999999716,
          "durationTicks": 288,
          "midi": 71,
          "name": "B4",
          "ticks": 65280,
          "time": 68,
          "velocity": 0.3937007874015748
        },
        {
          "duration": 0.20000000000000284,
          "durationTicks": 192,
          "midi": 68,
          "name": "G#4",
          "ticks": 65664,
          "time": 68.4,
          "velocity": 0.33858267716535434
        },
        {
          "duration": 0.19999999999998863,
          "durationTicks": 192,
          "midi": 69,
          "name": "A4",
          "ticks": 65856,
          "time": 68.60000000000001,
          "velocity": 0.33858267716535434
        },
        {
          "duration": 0.30000000000001137,
          "durationTicks": 288,
          "midi": 64,
          "name": "E4",
          "ticks": 66048,
          "time": 68.8,
          "velocity": 0.33858267716535434
        },
        {
          "duration": 0.20000000000000284,
          "durationTicks": 192,
          "midi": 64,
          "name": "E4",
          "ticks": 66432,
          "time": 69.2,
          "velocity": 0.33858267716535434
        },
        {
          "duration": 0.20000000000000284,
          "durationTicks": 192,
          "midi": 69,
          "name": "A4",
          "ticks": 66624,
          "time": 69.4,
          "velocity": 0.33858267716535434
        },
        {
          "duration": 0.29999999999999716,
          "durationTicks": 288,
          "midi": 72,
          "name": "C5",
          "ticks": 66816,
          "time": 69.60000000000001,
          "velocity": 0.33858267716535434
        },
        {
          "duration": 0.20000000000000284,
          "durationTicks": 192,
          "midi": 64,
          "name": "E4",
          "ticks": 67200,
          "time": 70,
          "velocity": 0.33858267716535434
        },
        {
          "duration": 0.20000000000000284,
          "durationTicks": 192,
          "midi": 69,
          "name": "A4",
          "ticks": 67392,
          "time": 70.2,
          "velocity": 0.33858267716535434
        },
        {
          "duration": 0.20000000000000284,
          "durationTicks": 192,
          "midi": 68,
          "name": "G#4",
          "ticks": 67584,
          "time": 70.4,
          "velocity": 0.3937007874015748
        },
        {
          "duration": 0.19999999999998863,
          "durationTicks": 192,
          "midi": 64,
          "name": "E4",
          "ticks": 67776,
          "time": 70.60000000000001,
          "velocity": 0.3937007874015748
        },
        {
          "duration": 0.20000000000000284,
          "durationTicks": 192,
          "midi": 68,
          "name": "G#4",
          "ticks": 67968,
          "time": 70.8,
          "velocity": 0.3937007874015748
        },
        {
          "duration": 0.20000000000000284,
          "durationTicks": 192,
          "midi": 69,
          "name": "A4",
          "ticks": 68160,
          "time": 71,
          "velocity": 0.3937007874015748
        },
        {
          "duration": 0.29999999999999716,
          "durationTicks": 288,
          "midi": 68,
          "name": "G#4",
          "ticks": 68352,
          "time": 71.2,
          "velocity": 0.3937007874015748
        },
        {
          "duration": 0.29999999999999716,
          "durationTicks": 288,
          "midi": 72,
          "name": "C5",
          "ticks": 68736,
          "time": 71.60000000000001,
          "velocity": 0.3937007874015748
        },
        {
          "duration": 0.29999999999999716,
          "durationTicks": 288,
          "midi": 64,
          "name": "E4",
          "ticks": 69120,
          "time": 72,
          "velocity": 0.33858267716535434
        },
        {
          "duration": 0.29999999999999716,
          "durationTicks": 288,
          "midi": 69,
          "name": "A4",
          "ticks": 69504,
          "time": 72.4,
          "velocity": 0.33858267716535434
        },
        {
          "duration": 0.7000000000000028,
          "durationTicks": 672,
          "midi": 64,
          "name": "E4",
          "ticks": 69888,
          "time": 72.8,
          "velocity": 0.33858267716535434
        },
        {
          "duration": 0.4000000000000057,
          "durationTicks": 384,
          "midi": 65,
          "name": "F4",
          "ticks": 70848,
          "time": 73.8,
          "velocity": 0.33858267716535434
        },
        {
          "duration": 0.20000000000000284,
          "durationTicks": 192,
          "midi": 65,
          "name": "F4",
          "ticks": 71232,
          "time": 74.2,
          "velocity": 0.33858267716535434
        },
        {
          "duration": 0.20000000000000284,
          "durationTicks": 192,
          "midi": 69,
          "name": "A4",
          "ticks": 71232,
          "time": 74.2,
          "velocity": 0.33858267716535434
        },
        {
          "duration": 0.20000000000000284,
          "durationTicks": 192,
          "midi": 65,
          "name": "F4",
          "ticks": 71424,
          "time": 74.4,
          "velocity": 0.33858267716535434
        },
        {
          "duration": 0.20000000000000284,
          "durationTicks": 192,
          "midi": 72,
          "name": "C5",
          "ticks": 71424,
          "time": 74.4,
          "velocity": 0.33858267716535434
        },
        {
          "duration": 0.09999999999999432,
          "durationTicks": 96,
          "midi": 65,
          "name": "F4",
          "ticks": 71616,
          "time": 74.60000000000001,
          "velocity": 0.33858267716535434
        },
        {
          "duration": 0.09999999999999432,
          "durationTicks": 96,
          "midi": 72,
          "name": "C5",
          "ticks": 71616,
          "time": 74.60000000000001,
          "velocity": 0.33858267716535434
        },
        {
          "duration": 0.09999999999999432,
          "durationTicks": 96,
          "midi": 65,
          "name": "F4",
          "ticks": 71712,
          "time": 74.7,
          "velocity": 0.33858267716535434
        },
        {
          "duration": 0.09999999999999432,
          "durationTicks": 96,
          "midi": 72,
          "name": "C5",
          "ticks": 71712,
          "time": 74.7,
          "velocity": 0.33858267716535434
        },
        {
          "duration": 0.20000000000000284,
          "durationTicks": 192,
          "midi": 64,
          "name": "E4",
          "ticks": 71808,
          "time": 74.8,
          "velocity": 0.33858267716535434
        },
        {
          "duration": 0.20000000000000284,
          "durationTicks": 192,
          "midi": 71,
          "name": "B4",
          "ticks": 71808,
          "time": 74.8,
          "velocity": 0.33858267716535434
        },
        {
          "duration": 0.20000000000000284,
          "durationTicks": 192,
          "midi": 62,
          "name": "D4",
          "ticks": 72000,
          "time": 75,
          "velocity": 0.33858267716535434
        },
        {
          "duration": 0.20000000000000284,
          "durationTicks": 192,
          "midi": 69,
          "name": "A4",
          "ticks": 72000,
          "time": 75,
          "velocity": 0.33858267716535434
        },
        {
          "duration": 0.5,
          "durationTicks": 480,
          "midi": 60,
          "name": "C4",
          "ticks": 72192,
          "time": 75.2,
          "velocity": 0.33858267716535434
        },
        {
          "duration": 0.5,
          "durationTicks": 480,
          "midi": 67,
          "name": "G4",
          "ticks": 72192,
          "time": 75.2,
          "velocity": 0.33858267716535434
        },
        {
          "duration": 0.20000000000000284,
          "durationTicks": 192,
          "midi": 64,
          "name": "E4",
          "ticks": 72768,
          "time": 75.8,
          "velocity": 0.33858267716535434
        },
        {
          "duration": 0.20000000000000284,
          "durationTicks": 192,
          "midi": 67,
          "name": "G4",
          "ticks": 72960,
          "time": 76,
          "velocity": 0.33858267716535434
        },
        {
          "duration": 0.09999999999999432,
          "durationTicks": 96,
          "midi": 69,
          "name": "A4",
          "ticks": 73152,
          "time": 76.2,
          "velocity": 0.33858267716535434
        },
        {
          "duration": 0.10000000000000853,
          "durationTicks": 96,
          "midi": 67,
          "name": "G4",
          "ticks": 73248,
          "time": 76.3,
          "velocity": 0.33858267716535434
        },
        {
          "duration": 0.20000000000000284,
          "durationTicks": 192,
          "midi": 65,
          "name": "F4",
          "ticks": 73344,
          "time": 76.4,
          "velocity": 0.33858267716535434
        },
        {
          "duration": 0.20000000000000284,
          "durationTicks": 192,
          "midi": 64,
          "name": "E4",
          "ticks": 73536,
          "time": 76.60000000000001,
          "velocity": 0.33858267716535434
        },
        {
          "duration": 0.19999999999998863,
          "durationTicks": 192,
          "midi": 80,
          "name": "G#5",
          "ticks": 73728,
          "time": 76.80000000000001,
          "velocity": 0.33858267716535434
        },
        {
          "duration": 0.20000000000000284,
          "durationTicks": 192,
          "midi": 76,
          "name": "E5",
          "ticks": 73920,
          "time": 77,
          "velocity": 0.33858267716535434
        },
        {
          "duration": 0.20000000000000284,
          "durationTicks": 192,
          "midi": 80,
          "name": "G#5",
          "ticks": 74112,
          "time": 77.2,
          "velocity": 0.33858267716535434
        },
        {
          "duration": 0.20000000000000284,
          "durationTicks": 192,
          "midi": 81,
          "name": "A5",
          "ticks": 74304,
          "time": 77.4,
          "velocity": 0.33858267716535434
        },
        {
          "duration": 0.20000000000000284,
          "durationTicks": 192,
          "midi": 83,
          "name": "B5",
          "ticks": 74496,
          "time": 77.60000000000001,
          "velocity": 0.33858267716535434
        },
        {
          "duration": 0.19999999999998863,
          "durationTicks": 192,
          "midi": 80,
          "name": "G#5",
          "ticks": 74688,
          "time": 77.80000000000001,
          "velocity": 0.33858267716535434
        },
        {
          "duration": 0.20000000000000284,
          "durationTicks": 192,
          "midi": 84,
          "name": "C6",
          "ticks": 74880,
          "time": 78,
          "velocity": 0.33858267716535434
        },
        {
          "duration": 0.20000000000000284,
          "durationTicks": 192,
          "midi": 80,
          "name": "G#5",
          "ticks": 75072,
          "time": 78.2,
          "velocity": 0.33858267716535434
        },
        {
          "duration": 1.5,
          "durationTicks": 1440,
          "midi": 81,
          "name": "A5",
          "ticks": 75264,
          "time": 78.4,
          "velocity": 0.33858267716535434
        },
        {
          "duration": 0.29999999999999716,
          "durationTicks": 288,
          "midi": 71,
          "name": "B4",
          "ticks": 77952,
          "time": 81.2,
          "velocity": 0.33858267716535434
        },
        {
          "duration": 0.5,
          "durationTicks": 480,
          "midi": 72,
          "name": "C5",
          "ticks": 78336,
          "time": 81.60000000000001,
          "velocity": 0.33858267716535434
        },
        {
          "duration": 0.20000000000000284,
          "durationTicks": 192,
          "midi": 64,
          "name": "E4",
          "ticks": 78912,
          "time": 82.2,
          "velocity": 0.33858267716535434
        },
        {
          "duration": 0.20000000000000284,
          "durationTicks": 192,
          "midi": 72,
          "name": "C5",
          "ticks": 79104,
          "time": 82.4,
          "velocity": 0.33858267716535434
        },
        {
          "duration": 0.20000000000000284,
          "durationTicks": 192,
          "midi": 69,
          "name": "A4",
          "ticks": 79296,
          "time": 82.60000000000001,
          "velocity": 0.33858267716535434
        },
        {
          "duration": 0.29999999999999716,
          "durationTicks": 288,
          "midi": 64,
          "name": "E4",
          "ticks": 79488,
          "time": 82.80000000000001,
          "velocity": 0.33858267716535434
        },
        {
          "duration": 0.5,
          "durationTicks": 480,
          "midi": 71,
          "name": "B4",
          "ticks": 79872,
          "time": 83.2,
          "velocity": 0.33858267716535434
        },
        {
          "duration": 0.19999999999998863,
          "durationTicks": 192,
          "midi": 64,
          "name": "E4",
          "ticks": 80448,
          "time": 83.80000000000001,
          "velocity": 0.33858267716535434
        },
        {
          "duration": 0.20000000000000284,
          "durationTicks": 192,
          "midi": 71,
          "name": "B4",
          "ticks": 80640,
          "time": 84,
          "velocity": 0.33858267716535434
        },
        {
          "duration": 0.20000000000000284,
          "durationTicks": 192,
          "midi": 68,
          "name": "G#4",
          "ticks": 80832,
          "time": 84.2,
          "velocity": 0.33858267716535434
        },
        {
          "duration": 0.29999999999999716,
          "durationTicks": 288,
          "midi": 64,
          "name": "E4",
          "ticks": 81024,
          "time": 84.4,
          "velocity": 0.33858267716535434
        },
        {
          "duration": 0.5,
          "durationTicks": 480,
          "midi": 69,
          "name": "A4",
          "ticks": 81408,
          "time": 84.80000000000001,
          "velocity": 0.33858267716535434
        },
        {
          "duration": 0.20000000000000284,
          "durationTicks": 192,
          "midi": 64,
          "name": "E4",
          "ticks": 81984,
          "time": 85.4,
          "velocity": 0.33858267716535434
        },
        {
          "duration": 0.20000000000000284,
          "durationTicks": 192,
          "midi": 69,
          "name": "A4",
          "ticks": 82176,
          "time": 85.60000000000001,
          "velocity": 0.33858267716535434
        },
        {
          "duration": 0.19999999999998863,
          "durationTicks": 192,
          "midi": 64,
          "name": "E4",
          "ticks": 82368,
          "time": 85.80000000000001,
          "velocity": 0.33858267716535434
        },
        {
          "duration": 0.30000000000001137,
          "durationTicks": 288,
          "midi": 69,
          "name": "A4",
          "ticks": 82560,
          "time": 86,
          "velocity": 0.33858267716535434
        },
        {
          "duration": 0.29999999999999716,
          "durationTicks": 288,
          "midi": 68,
          "name": "G#4",
          "ticks": 82944,
          "time": 86.4,
          "velocity": 0.33858267716535434
        },
        {
          "duration": 0.19999999999998863,
          "durationTicks": 192,
          "midi": 64,
          "name": "E4",
          "ticks": 83328,
          "time": 86.80000000000001,
          "velocity": 0.33858267716535434
        },
        {
          "duration": 0.20000000000000284,
          "durationTicks": 192,
          "midi": 59,
          "name": "B3",
          "ticks": 83520,
          "time": 87,
          "velocity": 0.33858267716535434
        },
        {
          "duration": 0.20000000000000284,
          "durationTicks": 192,
          "midi": 71,
          "name": "B4",
          "ticks": 83712,
          "time": 87.2,
          "velocity": 0.33858267716535434
        },
        {
          "duration": 0.20000000000000284,
          "durationTicks": 192,
          "midi": 68,
          "name": "G#4",
          "ticks": 83904,
          "time": 87.4,
          "velocity": 0.33858267716535434
        },
        {
          "duration": 0.29999999999999716,
          "durationTicks": 288,
          "midi": 64,
          "name": "E4",
          "ticks": 84096,
          "time": 87.60000000000001,
          "velocity": 0.33858267716535434
        },
        {
          "duration": 0.5,
          "durationTicks": 480,
          "midi": 72,
          "name": "C5",
          "ticks": 84480,
          "time": 88,
          "velocity": 0.33858267716535434
        },
        {
          "duration": 0.20000000000000284,
          "durationTicks": 192,
          "midi": 64,
          "name": "E4",
          "ticks": 85056,
          "time": 88.60000000000001,
          "velocity": 0.33858267716535434
        },
        {
          "duration": 0.19999999999998863,
          "durationTicks": 192,
          "midi": 72,
          "name": "C5",
          "ticks": 85248,
          "time": 88.80000000000001,
          "velocity": 0.33858267716535434
        },
        {
          "duration": 0.20000000000000284,
          "durationTicks": 192,
          "midi": 69,
          "name": "A4",
          "ticks": 85440,
          "time": 89,
          "velocity": 0.33858267716535434
        },
        {
          "duration": 0.29999999999999716,
          "durationTicks": 288,
          "midi": 64,
          "name": "E4",
          "ticks": 85632,
          "time": 89.2,
          "velocity": 0.33858267716535434
        },
        {
          "duration": 0.5,
          "durationTicks": 480,
          "midi": 71,
          "name": "B4",
          "ticks": 86016,
          "time": 89.60000000000001,
          "velocity": 0.33858267716535434
        },
        {
          "duration": 0.20000000000000284,
          "durationTicks": 192,
          "midi": 64,
          "name": "E4",
          "ticks": 86592,
          "time": 90.2,
          "velocity": 0.33858267716535434
        },
        {
          "duration": 0.20000000000000284,
          "durationTicks": 192,
          "midi": 71,
          "name": "B4",
          "ticks": 86784,
          "time": 90.4,
          "velocity": 0.33858267716535434
        },
        {
          "duration": 0.20000000000000284,
          "durationTicks": 192,
          "midi": 68,
          "name": "G#4",
          "ticks": 86976,
          "time": 90.60000000000001,
          "velocity": 0.33858267716535434
        },
        {
          "duration": 0.29999999999999716,
          "durationTicks": 288,
          "midi": 64,
          "name": "E4",
          "ticks": 87168,
          "time": 90.80000000000001,
          "velocity": 0.33858267716535434
        },
        {
          "duration": 0.5,
          "durationTicks": 480,
          "midi": 69,
          "name": "A4",
          "ticks": 87552,
          "time": 91.2,
          "velocity": 0.33858267716535434
        },
        {
          "duration": 0.19999999999998863,
          "durationTicks": 192,
          "midi": 64,
          "name": "E4",
          "ticks": 88128,
          "time": 91.80000000000001,
          "velocity": 0.33858267716535434
        },
        {
          "duration": 0.20000000000000284,
          "durationTicks": 192,
          "midi": 69,
          "name": "A4",
          "ticks": 88320,
          "time": 92,
          "velocity": 0.33858267716535434
        },
        {
          "duration": 0.20000000000000284,
          "durationTicks": 192,
          "midi": 64,
          "name": "E4",
          "ticks": 88512,
          "time": 92.2,
          "velocity": 0.33858267716535434
        },
        {
          "duration": 0.29999999999999716,
          "durationTicks": 288,
          "midi": 69,
          "name": "A4",
          "ticks": 88704,
          "time": 92.4,
          "velocity": 0.33858267716535434
        },
        {
          "duration": 0.29999999999999716,
          "durationTicks": 288,
          "midi": 68,
          "name": "G#4",
          "ticks": 89088,
          "time": 92.80000000000001,
          "velocity": 0.33858267716535434
        },
        {
          "duration": 0.20000000000000284,
          "durationTicks": 192,
          "midi": 64,
          "name": "E4",
          "ticks": 89472,
          "time": 93.2,
          "velocity": 0.33858267716535434
        },
        {
          "duration": 0.20000000000000284,
          "durationTicks": 192,
          "midi": 59,
          "name": "B3",
          "ticks": 89664,
          "time": 93.4,
          "velocity": 0.33858267716535434
        },
        {
          "duration": 0.19999999999998863,
          "durationTicks": 192,
          "midi": 68,
          "name": "G#4",
          "ticks": 90048,
          "time": 93.80000000000001,
          "velocity": 0.33858267716535434
        },
        {
          "duration": 0.30000000000001137,
          "durationTicks": 288,
          "midi": 64,
          "name": "E4",
          "ticks": 90240,
          "time": 94,
          "velocity": 0.33858267716535434
        },
        {
          "duration": 1.5,
          "durationTicks": 1440,
          "midi": 64,
          "name": "E4",
          "ticks": 90624,
          "time": 94.4,
          "velocity": 0.33858267716535434
        },
        {
          "duration": 1.5,
          "durationTicks": 1440,
          "midi": 64,
          "name": "E4",
          "ticks": 92160,
          "time": 96,
          "velocity": 0.33858267716535434
        },
        {
          "duration": 0.29999999999999716,
          "durationTicks": 288,
          "midi": 71,
          "name": "B4",
          "ticks": 94848,
          "time": 98.80000000000001,
          "velocity": 0.33858267716535434
        },
        {
          "duration": 0.7000000000000028,
          "durationTicks": 672,
          "midi": 72,
          "name": "C5",
          "ticks": 95232,
          "time": 99.2,
          "velocity": 0.33858267716535434
        },
        {
          "duration": 0.20000000000000284,
          "durationTicks": 192,
          "midi": 76,
          "name": "E5",
          "ticks": 96000,
          "time": 100,
          "velocity": 0.33858267716535434
        },
        {
          "duration": 0.20000000000000284,
          "durationTicks": 192,
          "midi": 69,
          "name": "A4",
          "ticks": 96192,
          "time": 100.2,
          "velocity": 0.33858267716535434
        },
        {
          "duration": 0.20000000000000284,
          "durationTicks": 192,
          "midi": 76,
          "name": "E5",
          "ticks": 96384,
          "time": 100.4,
          "velocity": 0.33858267716535434
        },
        {
          "duration": 0.20000000000000284,
          "durationTicks": 192,
          "midi": 69,
          "name": "A4",
          "ticks": 96576,
          "time": 100.60000000000001,
          "velocity": 0.33858267716535434
        },
        {
          "duration": 0.19999999999998863,
          "durationTicks": 192,
          "midi": 76,
          "name": "E5",
          "ticks": 96768,
          "time": 100.80000000000001,
          "velocity": 0.33858267716535434
        },
        {
          "duration": 0.20000000000000284,
          "durationTicks": 192,
          "midi": 68,
          "name": "G#4",
          "ticks": 96960,
          "time": 101,
          "velocity": 0.33858267716535434
        },
        {
          "duration": 0.20000000000000284,
          "durationTicks": 192,
          "midi": 76,
          "name": "E5",
          "ticks": 97152,
          "time": 101.2,
          "velocity": 0.33858267716535434
        },
        {
          "duration": 0.20000000000000284,
          "durationTicks": 192,
          "midi": 68,
          "name": "G#4",
          "ticks": 97344,
          "time": 101.4,
          "velocity": 0.33858267716535434
        },
        {
          "duration": 0.7000000000000028,
          "durationTicks": 672,
          "midi": 76,
          "name": "E5",
          "ticks": 97536,
          "time": 101.60000000000001,
          "velocity": 0.33858267716535434
        },
        {
          "duration": 0.7000000000000028,
          "durationTicks": 672,
          "midi": 69,
          "name": "A4",
          "ticks": 98304,
          "time": 102.4,
          "velocity": 0.33858267716535434
        },
        {
          "duration": 0.29999999999999716,
          "durationTicks": 288,
          "midi": 64,
          "name": "E4",
          "ticks": 99072,
          "time": 103.2,
          "velocity": 0.33858267716535434
        },
        {
          "duration": 0.29999999999999716,
          "durationTicks": 288,
          "midi": 60,
          "name": "C4",
          "ticks": 99456,
          "time": 103.60000000000001,
          "velocity": 0.33858267716535434
        },
        {
          "duration": 0.10000000000000853,
          "durationTicks": 96,
          "midi": 59,
          "name": "B3",
          "ticks": 99840,
          "time": 104,
          "velocity": 0.33858267716535434
        },
        {
          "duration": 0.09999999999999432,
          "durationTicks": 96,
          "midi": 64,
          "name": "E4",
          "ticks": 99936,
          "time": 104.10000000000001,
          "velocity": 0.33858267716535434
        },
        {
          "duration": 0.10000000000000853,
          "durationTicks": 96,
          "midi": 59,
          "name": "B3",
          "ticks": 100032,
          "time": 104.2,
          "velocity": 0.33858267716535434
        },
        {
          "duration": 0.09999999999999432,
          "durationTicks": 96,
          "midi": 64,
          "name": "E4",
          "ticks": 100128,
          "time": 104.30000000000001,
          "velocity": 0.33858267716535434
        },
        {
          "duration": 0.09999999999999432,
          "durationTicks": 96,
          "midi": 59,
          "name": "B3",
          "ticks": 100224,
          "time": 104.4,
          "velocity": 0.33858267716535434
        },
        {
          "duration": 0.10000000000000853,
          "durationTicks": 96,
          "midi": 64,
          "name": "E4",
          "ticks": 100320,
          "time": 104.5,
          "velocity": 0.33858267716535434
        },
        {
          "duration": 0.09999999999999432,
          "durationTicks": 96,
          "midi": 59,
          "name": "B3",
          "ticks": 100416,
          "time": 104.60000000000001,
          "velocity": 0.33858267716535434
        },
        {
          "duration": 0.10000000000000853,
          "durationTicks": 96,
          "midi": 64,
          "name": "E4",
          "ticks": 100512,
          "time": 104.7,
          "velocity": 0.33858267716535434
        },
        {
          "duration": 0.6999999999999886,
          "durationTicks": 672,
          "midi": 64,
          "name": "E4",
          "ticks": 100608,
          "time": 104.80000000000001,
          "velocity": 0.33858267716535434
        },
        {
          "duration": 1.5,
          "durationTicks": 1440,
          "midi": 64,
          "name": "E4",
          "ticks": 101376,
          "time": 105.60000000000001,
          "velocity": 0.33858267716535434
        },
        {
          "duration": 1.5,
          "durationTicks": 1440,
          "midi": 64,
          "name": "E4",
          "ticks": 102912,
          "time": 107.2,
          "velocity": 0.33858267716535434
        },
        {
          "duration": 1.5,
          "durationTicks": 1440,
          "midi": 76,
          "name": "E5",
          "ticks": 104448,
          "time": 108.80000000000001,
          "velocity": 0.33858267716535434
        },
        {
          "duration": 1.5,
          "durationTicks": 1440,
          "midi": 76,
          "name": "E5",
          "ticks": 105984,
          "time": 110.4,
          "velocity": 0.33858267716535434
        },
        {
          "duration": 0.5,
          "durationTicks": 480,
          "midi": 72,
          "name": "C5",
          "ticks": 121344,
          "time": 126.4,
          "velocity": 0.33858267716535434
        },
        {
          "duration": 0.20000000000000284,
          "durationTicks": 192,
          "midi": 64,
          "name": "E4",
          "ticks": 121920,
          "time": 127,
          "velocity": 0.33858267716535434
        },
        {
          "duration": 0.20000000000000284,
          "durationTicks": 192,
          "midi": 72,
          "name": "C5",
          "ticks": 122112,
          "time": 127.2,
          "velocity": 0.33858267716535434
        },
        {
          "duration": 0.20000000000000284,
          "durationTicks": 192,
          "midi": 69,
          "name": "A4",
          "ticks": 122304,
          "time": 127.4,
          "velocity": 0.33858267716535434
        },
        {
          "duration": 0.29999999999999716,
          "durationTicks": 288,
          "midi": 64,
          "name": "E4",
          "ticks": 122496,
          "time": 127.60000000000001,
          "velocity": 0.33858267716535434
        },
        {
          "duration": 0.5,
          "durationTicks": 480,
          "midi": 71,
          "name": "B4",
          "ticks": 122880,
          "time": 128,
          "velocity": 0.33858267716535434
        },
        {
          "duration": 0.20000000000001705,
          "durationTicks": 192,
          "midi": 64,
          "name": "E4",
          "ticks": 123456,
          "time": 128.6,
          "velocity": 0.33858267716535434
        },
        {
          "duration": 0.19999999999998863,
          "durationTicks": 192,
          "midi": 71,
          "name": "B4",
          "ticks": 123648,
          "time": 128.8,
          "velocity": 0.33858267716535434
        },
        {
          "duration": 0.20000000000001705,
          "durationTicks": 192,
          "midi": 68,
          "name": "G#4",
          "ticks": 123840,
          "time": 129,
          "velocity": 0.33858267716535434
        },
        {
          "duration": 0.29999999999998295,
          "durationTicks": 288,
          "midi": 64,
          "name": "E4",
          "ticks": 124032,
          "time": 129.20000000000002,
          "velocity": 0.33858267716535434
        },
        {
          "duration": 0.5,
          "durationTicks": 480,
          "midi": 69,
          "name": "A4",
          "ticks": 124416,
          "time": 129.6,
          "velocity": 0.33858267716535434
        },
        {
          "duration": 0.19999999999998863,
          "durationTicks": 192,
          "midi": 64,
          "name": "E4",
          "ticks": 124992,
          "time": 130.20000000000002,
          "velocity": 0.33858267716535434
        },
        {
          "duration": 0.19999999999998863,
          "durationTicks": 192,
          "midi": 69,
          "name": "A4",
          "ticks": 125184,
          "time": 130.4,
          "velocity": 0.33858267716535434
        },
        {
          "duration": 0.20000000000001705,
          "durationTicks": 192,
          "midi": 64,
          "name": "E4",
          "ticks": 125376,
          "time": 130.6,
          "velocity": 0.33858267716535434
        },
        {
          "duration": 0.29999999999998295,
          "durationTicks": 288,
          "midi": 69,
          "name": "A4",
          "ticks": 125568,
          "time": 130.8,
          "velocity": 0.33858267716535434
        },
        {
          "duration": 0.29999999999998295,
          "durationTicks": 288,
          "midi": 68,
          "name": "G#4",
          "ticks": 125952,
          "time": 131.20000000000002,
          "velocity": 0.33858267716535434
        },
        {
          "duration": 0.20000000000001705,
          "durationTicks": 192,
          "midi": 64,
          "name": "E4",
          "ticks": 126336,
          "time": 131.6,
          "velocity": 0.33858267716535434
        },
        {
          "duration": 0.19999999999998863,
          "durationTicks": 192,
          "midi": 59,
          "name": "B3",
          "ticks": 126528,
          "time": 131.8,
          "velocity": 0.33858267716535434
        },
        {
          "duration": 0.20000000000001705,
          "durationTicks": 192,
          "midi": 71,
          "name": "B4",
          "ticks": 126720,
          "time": 132,
          "velocity": 0.33858267716535434
        },
        {
          "duration": 0.19999999999998863,
          "durationTicks": 192,
          "midi": 68,
          "name": "G#4",
          "ticks": 126912,
          "time": 132.20000000000002,
          "velocity": 0.33858267716535434
        },
        {
          "duration": 0.30000000000001137,
          "durationTicks": 288,
          "midi": 64,
          "name": "E4",
          "ticks": 127104,
          "time": 132.4,
          "velocity": 0.33858267716535434
        },
        {
          "duration": 0.29999999999998295,
          "durationTicks": 288,
          "midi": 71,
          "name": "B4",
          "ticks": 127488,
          "time": 132.8,
          "velocity": 0.3937007874015748
        },
        {
          "duration": 0.19999999999998863,
          "durationTicks": 192,
          "midi": 68,
          "name": "G#4",
          "ticks": 127872,
          "time": 133.20000000000002,
          "velocity": 0.33858267716535434
        },
        {
          "duration": 0.19999999999998863,
          "durationTicks": 192,
          "midi": 69,
          "name": "A4",
          "ticks": 128064,
          "time": 133.4,
          "velocity": 0.33858267716535434
        },
        {
          "duration": 0.30000000000001137,
          "durationTicks": 288,
          "midi": 71,
          "name": "B4",
          "ticks": 128256,
          "time": 133.6,
          "velocity": 0.3937007874015748
        },
        {
          "duration": 0.20000000000001705,
          "durationTicks": 192,
          "midi": 69,
          "name": "A4",
          "ticks": 128640,
          "time": 134,
          "velocity": 0.33858267716535434
        },
        {
          "duration": 0.19999999999998863,
          "durationTicks": 192,
          "midi": 68,
          "name": "G#4",
          "ticks": 128832,
          "time": 134.20000000000002,
          "velocity": 0.33858267716535434
        },
        {
          "duration": 0.30000000000001137,
          "durationTicks": 288,
          "midi": 64,
          "name": "E4",
          "ticks": 129024,
          "time": 134.4,
          "velocity": 0.33858267716535434
        },
        {
          "duration": 0.19999999999998863,
          "durationTicks": 192,
          "midi": 64,
          "name": "E4",
          "ticks": 129408,
          "time": 134.8,
          "velocity": 0.33858267716535434
        },
        {
          "duration": 0.20000000000001705,
          "durationTicks": 192,
          "midi": 69,
          "name": "A4",
          "ticks": 129600,
          "time": 135,
          "velocity": 0.33858267716535434
        },
        {
          "duration": 0.29999999999998295,
          "durationTicks": 288,
          "midi": 72,
          "name": "C5",
          "ticks": 129792,
          "time": 135.20000000000002,
          "velocity": 0.33858267716535434
        },
        {
          "duration": 0.20000000000001705,
          "durationTicks": 192,
          "midi": 71,
          "name": "B4",
          "ticks": 130176,
          "time": 135.6,
          "velocity": 0.33858267716535434
        },
        {
          "duration": 0.19999999999998863,
          "durationTicks": 192,
          "midi": 69,
          "name": "A4",
          "ticks": 130368,
          "time": 135.8,
          "velocity": 0.33858267716535434
        },
        {
          "duration": 0.20000000000001705,
          "durationTicks": 192,
          "midi": 68,
          "name": "G#4",
          "ticks": 130560,
          "time": 136,
          "velocity": 0.33858267716535434
        },
        {
          "duration": 0.19999999999998863,
          "durationTicks": 192,
          "midi": 64,
          "name": "E4",
          "ticks": 130752,
          "time": 136.20000000000002,
          "velocity": 0.33858267716535434
        },
        {
          "duration": 0.19999999999998863,
          "durationTicks": 192,
          "midi": 68,
          "name": "G#4",
          "ticks": 130944,
          "time": 136.4,
          "velocity": 0.33858267716535434
        },
        {
          "duration": 0.10000000000002274,
          "durationTicks": 96,
          "midi": 69,
          "name": "A4",
          "ticks": 131136,
          "time": 136.6,
          "velocity": 0.33858267716535434
        },
        {
          "duration": 0.29999999999998295,
          "durationTicks": 288,
          "midi": 71,
          "name": "B4",
          "ticks": 131328,
          "time": 136.8,
          "velocity": 0.33858267716535434
        },
        {
          "duration": 0.29999999999998295,
          "durationTicks": 288,
          "midi": 72,
          "name": "C5",
          "ticks": 131712,
          "time": 137.20000000000002,
          "velocity": 0.33858267716535434
        },
        {
          "duration": 0.30000000000001137,
          "durationTicks": 288,
          "midi": 69,
          "name": "A4",
          "ticks": 132096,
          "time": 137.6,
          "velocity": 0.33858267716535434
        },
        {
          "duration": 0.30000000000001137,
          "durationTicks": 288,
          "midi": 64,
          "name": "E4",
          "ticks": 132480,
          "time": 138,
          "velocity": 0.33858267716535434
        },
        {
          "duration": 0.6999999999999886,
          "durationTicks": 672,
          "midi": 64,
          "name": "E4",
          "ticks": 132864,
          "time": 138.4,
          "velocity": 0.33858267716535434
        },
        {
          "duration": 0.4000000000000057,
          "durationTicks": 384,
          "midi": 65,
          "name": "F4",
          "ticks": 133824,
          "time": 139.4,
          "velocity": 0.33858267716535434
        },
        {
          "duration": 0.19999999999998863,
          "durationTicks": 192,
          "midi": 69,
          "name": "A4",
          "ticks": 134208,
          "time": 139.8,
          "velocity": 0.33858267716535434
        },
        {
          "duration": 0.20000000000001705,
          "durationTicks": 192,
          "midi": 72,
          "name": "C5",
          "ticks": 134400,
          "time": 140,
          "velocity": 0.33858267716535434
        },
        {
          "duration": 0.09999999999999432,
          "durationTicks": 96,
          "midi": 72,
          "name": "C5",
          "ticks": 134592,
          "time": 140.20000000000002,
          "velocity": 0.33858267716535434
        },
        {
          "duration": 0.09999999999999432,
          "durationTicks": 96,
          "midi": 72,
          "name": "C5",
          "ticks": 134688,
          "time": 140.3,
          "velocity": 0.33858267716535434
        },
        {
          "duration": 0.19999999999998863,
          "durationTicks": 192,
          "midi": 71,
          "name": "B4",
          "ticks": 134784,
          "time": 140.4,
          "velocity": 0.33858267716535434
        },
        {
          "duration": 0.20000000000001705,
          "durationTicks": 192,
          "midi": 69,
          "name": "A4",
          "ticks": 134976,
          "time": 140.6,
          "velocity": 0.33858267716535434
        },
        {
          "duration": 0.5,
          "durationTicks": 480,
          "midi": 67,
          "name": "G4",
          "ticks": 135168,
          "time": 140.8,
          "velocity": 0.33858267716535434
        },
        {
          "duration": 0.19999999999998863,
          "durationTicks": 192,
          "midi": 64,
          "name": "E4",
          "ticks": 135744,
          "time": 141.4,
          "velocity": 0.33858267716535434
        },
        {
          "duration": 0.20000000000001705,
          "durationTicks": 192,
          "midi": 67,
          "name": "G4",
          "ticks": 135936,
          "time": 141.6,
          "velocity": 0.33858267716535434
        },
        {
          "duration": 0.09999999999999432,
          "durationTicks": 96,
          "midi": 69,
          "name": "A4",
          "ticks": 136128,
          "time": 141.8,
          "velocity": 0.33858267716535434
        },
        {
          "duration": 0.09999999999999432,
          "durationTicks": 96,
          "midi": 67,
          "name": "G4",
          "ticks": 136224,
          "time": 141.9,
          "velocity": 0.33858267716535434
        },
        {
          "duration": 0.20000000000001705,
          "durationTicks": 192,
          "midi": 65,
          "name": "F4",
          "ticks": 136320,
          "time": 142,
          "velocity": 0.33858267716535434
        },
        {
          "duration": 0.19999999999998863,
          "durationTicks": 192,
          "midi": 64,
          "name": "E4",
          "ticks": 136512,
          "time": 142.20000000000002,
          "velocity": 0.33858267716535434
        },
        {
          "duration": 0.19999999999998863,
          "durationTicks": 192,
          "midi": 80,
          "name": "G#5",
          "ticks": 136704,
          "time": 142.4,
          "velocity": 0.33858267716535434
        },
        {
          "duration": 0.20000000000001705,
          "durationTicks": 192,
          "midi": 76,
          "name": "E5",
          "ticks": 136896,
          "time": 142.6,
          "velocity": 0.33858267716535434
        },
        {
          "duration": 0.19999999999998863,
          "durationTicks": 192,
          "midi": 80,
          "name": "G#5",
          "ticks": 137088,
          "time": 142.8,
          "velocity": 0.33858267716535434
        },
        {
          "duration": 0.20000000000001705,
          "durationTicks": 192,
          "midi": 81,
          "name": "A5",
          "ticks": 137280,
          "time": 143,
          "velocity": 0.33858267716535434
        },
        {
          "duration": 0.19999999999998863,
          "durationTicks": 192,
          "midi": 83,
          "name": "B5",
          "ticks": 137472,
          "time": 143.20000000000002,
          "velocity": 0.33858267716535434
        },
        {
          "duration": 0.19999999999998863,
          "durationTicks": 192,
          "midi": 80,
          "name": "G#5",
          "ticks": 137664,
          "time": 143.4,
          "velocity": 0.33858267716535434
        },
        {
          "duration": 0.20000000000001705,
          "durationTicks": 192,
          "midi": 84,
          "name": "C6",
          "ticks": 137856,
          "time": 143.6,
          "velocity": 0.33858267716535434
        },
        {
          "duration": 0.19999999999998863,
          "durationTicks": 192,
          "midi": 80,
          "name": "G#5",
          "ticks": 138048,
          "time": 143.8,
          "velocity": 0.33858267716535434
        },
        {
          "duration": 0.20000000000001705,
          "durationTicks": 192,
          "midi": 81,
          "name": "A5",
          "ticks": 138240,
          "time": 144,
          "velocity": 0.33858267716535434
        },
        {
          "duration": 0.19999999999998863,
          "durationTicks": 192,
          "midi": 76,
          "name": "E5",
          "ticks": 138432,
          "time": 144.20000000000002,
          "velocity": 0.33858267716535434
        },
        {
          "duration": 0.30000000000001137,
          "durationTicks": 288,
          "midi": 76,
          "name": "E5",
          "ticks": 138624,
          "time": 144.4,
          "velocity": 0.33858267716535434
        },
        {
          "duration": 0.29999999999998295,
          "durationTicks": 288,
          "midi": 76,
          "name": "E5",
          "ticks": 139008,
          "time": 144.8,
          "velocity": 0.33858267716535434
        },
        {
          "duration": 0.30000000000001137,
          "durationTicks": 288,
          "midi": 71,
          "name": "B4",
          "ticks": 139776,
          "time": 145.6,
          "velocity": 0.3937007874015748
        },
        {
          "duration": 0.20000000000001705,
          "durationTicks": 192,
          "midi": 68,
          "name": "G#4",
          "ticks": 140160,
          "time": 146,
          "velocity": 0.33858267716535434
        },
        {
          "duration": 0.19999999999998863,
          "durationTicks": 192,
          "midi": 69,
          "name": "A4",
          "ticks": 140352,
          "time": 146.20000000000002,
          "velocity": 0.33858267716535434
        },
        {
          "duration": 0.30000000000001137,
          "durationTicks": 288,
          "midi": 71,
          "name": "B4",
          "ticks": 140544,
          "time": 146.4,
          "velocity": 0.3937007874015748
        },
        {
          "duration": 0.19999999999998863,
          "durationTicks": 192,
          "midi": 69,
          "name": "A4",
          "ticks": 140928,
          "time": 146.8,
          "velocity": 0.33858267716535434
        },
        {
          "duration": 0.20000000000001705,
          "durationTicks": 192,
          "midi": 68,
          "name": "G#4",
          "ticks": 141120,
          "time": 147,
          "velocity": 0.33858267716535434
        },
        {
          "duration": 0.29999999999998295,
          "durationTicks": 288,
          "midi": 64,
          "name": "E4",
          "ticks": 141312,
          "time": 147.20000000000002,
          "velocity": 0.3937007874015748
        },
        {
          "duration": 0.20000000000001705,
          "durationTicks": 192,
          "midi": 64,
          "name": "E4",
          "ticks": 141696,
          "time": 147.6,
          "velocity": 0.33858267716535434
        },
        {
          "duration": 0.19999999999998863,
          "durationTicks": 192,
          "midi": 69,
          "name": "A4",
          "ticks": 141888,
          "time": 147.8,
          "velocity": 0.33858267716535434
        },
        {
          "duration": 0.30000000000001137,
          "durationTicks": 288,
          "midi": 72,
          "name": "C5",
          "ticks": 142080,
          "time": 148,
          "velocity": 0.33858267716535434
        },
        {
          "duration": 0.19999999999998863,
          "durationTicks": 192,
          "midi": 71,
          "name": "B4",
          "ticks": 142464,
          "time": 148.4,
          "velocity": 0.33858267716535434
        },
        {
          "duration": 0.20000000000001705,
          "durationTicks": 192,
          "midi": 69,
          "name": "A4",
          "ticks": 142656,
          "time": 148.6,
          "velocity": 0.33858267716535434
        },
        {
          "duration": 0.19999999999998863,
          "durationTicks": 192,
          "midi": 68,
          "name": "G#4",
          "ticks": 142848,
          "time": 148.8,
          "velocity": 0.33858267716535434
        },
        {
          "duration": 0.20000000000001705,
          "durationTicks": 192,
          "midi": 64,
          "name": "E4",
          "ticks": 143040,
          "time": 149,
          "velocity": 0.33858267716535434
        },
        {
          "duration": 0.19999999999998863,
          "durationTicks": 192,
          "midi": 68,
          "name": "G#4",
          "ticks": 143232,
          "time": 149.20000000000002,
          "velocity": 0.33858267716535434
        },
        {
          "duration": 0.19999999999998863,
          "durationTicks": 192,
          "midi": 69,
          "name": "A4",
          "ticks": 143424,
          "time": 149.4,
          "velocity": 0.33858267716535434
        },
        {
          "duration": 0.30000000000001137,
          "durationTicks": 288,
          "midi": 71,
          "name": "B4",
          "ticks": 143616,
          "time": 149.6,
          "velocity": 0.33858267716535434
        },
        {
          "duration": 0.30000000000001137,
          "durationTicks": 288,
          "midi": 72,
          "name": "C5",
          "ticks": 144000,
          "time": 150,
          "velocity": 0.33858267716535434
        },
        {
          "duration": 0.30000000000001137,
          "durationTicks": 288,
          "midi": 69,
          "name": "A4",
          "ticks": 144384,
          "time": 150.4,
          "velocity": 0.33858267716535434
        },
        {
          "duration": 0.29999999999998295,
          "durationTicks": 288,
          "midi": 64,
          "name": "E4",
          "ticks": 144768,
          "time": 150.8,
          "velocity": 0.33858267716535434
        },
        {
          "duration": 0.6999999999999886,
          "durationTicks": 672,
          "midi": 64,
          "name": "E4",
          "ticks": 145152,
          "time": 151.20000000000002,
          "velocity": 0.33858267716535434
        },
        {
          "duration": 0.39999999999997726,
          "durationTicks": 384,
          "midi": 65,
          "name": "F4",
          "ticks": 146112,
          "time": 152.20000000000002,
          "velocity": 0.33858267716535434
        },
        {
          "duration": 0.20000000000001705,
          "durationTicks": 192,
          "midi": 69,
          "name": "A4",
          "ticks": 146496,
          "time": 152.6,
          "velocity": 0.33858267716535434
        },
        {
          "duration": 0.19999999999998863,
          "durationTicks": 192,
          "midi": 72,
          "name": "C5",
          "ticks": 146688,
          "time": 152.8,
          "velocity": 0.33858267716535434
        },
        {
          "duration": 0.09999999999999432,
          "durationTicks": 96,
          "midi": 72,
          "name": "C5",
          "ticks": 146880,
          "time": 153,
          "velocity": 0.33858267716535434
        },
        {
          "duration": 0.10000000000002274,
          "durationTicks": 96,
          "midi": 72,
          "name": "C5",
          "ticks": 146976,
          "time": 153.1,
          "velocity": 0.33858267716535434
        },
        {
          "duration": 0.19999999999998863,
          "durationTicks": 192,
          "midi": 71,
          "name": "B4",
          "ticks": 147072,
          "time": 153.20000000000002,
          "velocity": 0.33858267716535434
        },
        {
          "duration": 0.20000000000001705,
          "durationTicks": 192,
          "midi": 69,
          "name": "A4",
          "ticks": 147264,
          "time": 153.4,
          "velocity": 0.33858267716535434
        },
        {
          "duration": 0.5,
          "durationTicks": 480,
          "midi": 67,
          "name": "G4",
          "ticks": 147456,
          "time": 153.60000000000002,
          "velocity": 0.33858267716535434
        },
        {
          "duration": 0.19999999999998863,
          "durationTicks": 192,
          "midi": 64,
          "name": "E4",
          "ticks": 148032,
          "time": 154.20000000000002,
          "velocity": 0.33858267716535434
        },
        {
          "duration": 0.20000000000001705,
          "durationTicks": 192,
          "midi": 67,
          "name": "G4",
          "ticks": 148224,
          "time": 154.4,
          "velocity": 0.33858267716535434
        },
        {
          "duration": 0.09999999999999432,
          "durationTicks": 96,
          "midi": 69,
          "name": "A4",
          "ticks": 148416,
          "time": 154.60000000000002,
          "velocity": 0.33858267716535434
        },
        {
          "duration": 0.09999999999999432,
          "durationTicks": 96,
          "midi": 67,
          "name": "G4",
          "ticks": 148512,
          "time": 154.70000000000002,
          "velocity": 0.33858267716535434
        },
        {
          "duration": 0.19999999999998863,
          "durationTicks": 192,
          "midi": 65,
          "name": "F4",
          "ticks": 148608,
          "time": 154.8,
          "velocity": 0.33858267716535434
        },
        {
          "duration": 0.20000000000001705,
          "durationTicks": 192,
          "midi": 64,
          "name": "E4",
          "ticks": 148800,
          "time": 155,
          "velocity": 0.33858267716535434
        },
        {
          "duration": 0.19999999999998863,
          "durationTicks": 192,
          "midi": 68,
          "name": "G#4",
          "ticks": 148992,
          "time": 155.20000000000002,
          "velocity": 0.33858267716535434
        },
        {
          "duration": 0.20000000000001705,
          "durationTicks": 192,
          "midi": 64,
          "name": "E4",
          "ticks": 149184,
          "time": 155.4,
          "velocity": 0.33858267716535434
        },
        {
          "duration": 0.19999999999998863,
          "durationTicks": 192,
          "midi": 68,
          "name": "G#4",
          "ticks": 149376,
          "time": 155.60000000000002,
          "velocity": 0.33858267716535434
        },
        {
          "duration": 0.19999999999998863,
          "durationTicks": 192,
          "midi": 69,
          "name": "A4",
          "ticks": 149568,
          "time": 155.8,
          "velocity": 0.33858267716535434
        },
        {
          "duration": 0.20000000000001705,
          "durationTicks": 192,
          "midi": 71,
          "name": "B4",
          "ticks": 149760,
          "time": 156,
          "velocity": 0.33858267716535434
        },
        {
          "duration": 0.19999999999998863,
          "durationTicks": 192,
          "midi": 68,
          "name": "G#4",
          "ticks": 149952,
          "time": 156.20000000000002,
          "velocity": 0.33858267716535434
        },
        {
          "duration": 0.20000000000001705,
          "durationTicks": 192,
          "midi": 72,
          "name": "C5",
          "ticks": 150144,
          "time": 156.4,
          "velocity": 0.33858267716535434
        },
        {
          "duration": 0.19999999999998863,
          "durationTicks": 192,
          "midi": 68,
          "name": "G#4",
          "ticks": 150336,
          "time": 156.60000000000002,
          "velocity": 0.33858267716535434
        },
        {
          "duration": 0.19999999999998863,
          "durationTicks": 192,
          "midi": 69,
          "name": "A4",
          "ticks": 150528,
          "time": 156.8,
          "velocity": 0.33858267716535434
        },
        {
          "duration": 0.20000000000001705,
          "durationTicks": 192,
          "midi": 64,
          "name": "E4",
          "ticks": 150720,
          "time": 157,
          "velocity": 0.33858267716535434
        },
        {
          "duration": 0.29999999999998295,
          "durationTicks": 288,
          "midi": 64,
          "name": "E4",
          "ticks": 150912,
          "time": 157.20000000000002,
          "velocity": 0.33858267716535434
        },
        {
          "duration": 0.29999999999998295,
          "durationTicks": 288,
          "midi": 64,
          "name": "E4",
          "ticks": 151296,
          "time": 157.60000000000002,
          "velocity": 0.33858267716535434
        },
        {
          "duration": 0.700000000000017,
          "durationTicks": 672,
          "midi": 69,
          "name": "A4",
          "ticks": 152064,
          "time": 158.4,
          "velocity": 0.33858267716535434
        },
        {
          "duration": 0.19999999999998863,
          "durationTicks": 192,
          "midi": 64,
          "name": "E4",
          "ticks": 152832,
          "time": 159.20000000000002,
          "velocity": 0.33858267716535434
        },
        {
          "duration": 0.19999999999998863,
          "durationTicks": 192,
          "midi": 69,
          "name": "A4",
          "ticks": 152832,
          "time": 159.20000000000002,
          "velocity": 0.33858267716535434
        },
        {
          "duration": 0.20000000000001705,
          "durationTicks": 192,
          "midi": 64,
          "name": "E4",
          "ticks": 153024,
          "time": 159.4,
          "velocity": 0.33858267716535434
        },
        {
          "duration": 0.20000000000001705,
          "durationTicks": 192,
          "midi": 69,
          "name": "A4",
          "ticks": 153024,
          "time": 159.4,
          "velocity": 0.33858267716535434
        },
        {
          "duration": 0.19999999999998863,
          "durationTicks": 192,
          "midi": 64,
          "name": "E4",
          "ticks": 153216,
          "time": 159.60000000000002,
          "velocity": 0.33858267716535434
        },
        {
          "duration": 0.19999999999998863,
          "durationTicks": 192,
          "midi": 69,
          "name": "A4",
          "ticks": 153216,
          "time": 159.60000000000002,
          "velocity": 0.33858267716535434
        },
        {
          "duration": 0.19999999999998863,
          "durationTicks": 192,
          "midi": 64,
          "name": "E4",
          "ticks": 153408,
          "time": 159.8,
          "velocity": 0.33858267716535434
        },
        {
          "duration": 0.19999999999998863,
          "durationTicks": 192,
          "midi": 69,
          "name": "A4",
          "ticks": 153408,
          "time": 159.8,
          "velocity": 0.33858267716535434
        },
        {
          "duration": 0.20000000000001705,
          "durationTicks": 192,
          "midi": 64,
          "name": "E4",
          "ticks": 153600,
          "time": 160,
          "velocity": 0.33858267716535434
        },
        {
          "duration": 0.20000000000001705,
          "durationTicks": 192,
          "midi": 68,
          "name": "G#4",
          "ticks": 153600,
          "time": 160,
          "velocity": 0.33858267716535434
        },
        {
          "duration": 0.19999999999998863,
          "durationTicks": 192,
          "midi": 64,
          "name": "E4",
          "ticks": 153792,
          "time": 160.20000000000002,
          "velocity": 0.33858267716535434
        },
        {
          "duration": 0.19999999999998863,
          "durationTicks": 192,
          "midi": 68,
          "name": "G#4",
          "ticks": 153792,
          "time": 160.20000000000002,
          "velocity": 0.33858267716535434
        },
        {
          "duration": 0.20000000000001705,
          "durationTicks": 192,
          "midi": 64,
          "name": "E4",
          "ticks": 153984,
          "time": 160.4,
          "velocity": 0.33858267716535434
        },
        {
          "duration": 0.20000000000001705,
          "durationTicks": 192,
          "midi": 68,
          "name": "G#4",
          "ticks": 153984,
          "time": 160.4,
          "velocity": 0.33858267716535434
        },
        {
          "duration": 0.19999999999998863,
          "durationTicks": 192,
          "midi": 64,
          "name": "E4",
          "ticks": 154176,
          "time": 160.60000000000002,
          "velocity": 0.33858267716535434
        },
        {
          "duration": 0.19999999999998863,
          "durationTicks": 192,
          "midi": 68,
          "name": "G#4",
          "ticks": 154176,
          "time": 160.60000000000002,
          "velocity": 0.33858267716535434
        },
        {
          "duration": 0.6999999999999886,
          "durationTicks": 672,
          "midi": 64,
          "name": "E4",
          "ticks": 154368,
          "time": 160.8,
          "velocity": 0.33858267716535434
        },
        {
          "duration": 0.6999999999999886,
          "durationTicks": 672,
          "midi": 68,
          "name": "G#4",
          "ticks": 154368,
          "time": 160.8,
          "velocity": 0.33858267716535434
        },
        {
          "duration": 0.6999999999999886,
          "durationTicks": 672,
          "midi": 69,
          "name": "A4",
          "ticks": 155136,
          "time": 161.60000000000002,
          "velocity": 0.33858267716535434
        },
        {
          "duration": 0.20000000000001705,
          "durationTicks": 192,
          "midi": 64,
          "name": "E4",
          "ticks": 155904,
          "time": 162.4,
          "velocity": 0.33858267716535434
        },
        {
          "duration": 0.20000000000001705,
          "durationTicks": 192,
          "midi": 69,
          "name": "A4",
          "ticks": 155904,
          "time": 162.4,
          "velocity": 0.33858267716535434
        },
        {
          "duration": 0.19999999999998863,
          "durationTicks": 192,
          "midi": 64,
          "name": "E4",
          "ticks": 156096,
          "time": 162.60000000000002,
          "velocity": 0.33858267716535434
        },
        {
          "duration": 0.19999999999998863,
          "durationTicks": 192,
          "midi": 69,
          "name": "A4",
          "ticks": 156096,
          "time": 162.60000000000002,
          "velocity": 0.33858267716535434
        },
        {
          "duration": 0.19999999999998863,
          "durationTicks": 192,
          "midi": 64,
          "name": "E4",
          "ticks": 156288,
          "time": 162.8,
          "velocity": 0.33858267716535434
        },
        {
          "duration": 0.19999999999998863,
          "durationTicks": 192,
          "midi": 69,
          "name": "A4",
          "ticks": 156288,
          "time": 162.8,
          "velocity": 0.33858267716535434
        },
        {
          "duration": 0.20000000000001705,
          "durationTicks": 192,
          "midi": 64,
          "name": "E4",
          "ticks": 156480,
          "time": 163,
          "velocity": 0.33858267716535434
        },
        {
          "duration": 0.20000000000001705,
          "durationTicks": 192,
          "midi": 69,
          "name": "A4",
          "ticks": 156480,
          "time": 163,
          "velocity": 0.33858267716535434
        },
        {
          "duration": 0.19999999999998863,
          "durationTicks": 192,
          "midi": 64,
          "name": "E4",
          "ticks": 156672,
          "time": 163.20000000000002,
          "velocity": 0.33858267716535434
        },
        {
          "duration": 0.19999999999998863,
          "durationTicks": 192,
          "midi": 68,
          "name": "G#4",
          "ticks": 156672,
          "time": 163.20000000000002,
          "velocity": 0.33858267716535434
        },
        {
          "duration": 0.20000000000001705,
          "durationTicks": 192,
          "midi": 64,
          "name": "E4",
          "ticks": 156864,
          "time": 163.4,
          "velocity": 0.33858267716535434
        },
        {
          "duration": 0.20000000000001705,
          "durationTicks": 192,
          "midi": 68,
          "name": "G#4",
          "ticks": 156864,
          "time": 163.4,
          "velocity": 0.33858267716535434
        },
        {
          "duration": 0.19999999999998863,
          "durationTicks": 192,
          "midi": 64,
          "name": "E4",
          "ticks": 157056,
          "time": 163.60000000000002,
          "velocity": 0.33858267716535434
        },
        {
          "duration": 0.19999999999998863,
          "durationTicks": 192,
          "midi": 68,
          "name": "G#4",
          "ticks": 157056,
          "time": 163.60000000000002,
          "velocity": 0.33858267716535434
        },
        {
          "duration": 0.19999999999998863,
          "durationTicks": 192,
          "midi": 64,
          "name": "E4",
          "ticks": 157248,
          "time": 163.8,
          "velocity": 0.33858267716535434
        },
        {
          "duration": 0.19999999999998863,
          "durationTicks": 192,
          "midi": 68,
          "name": "G#4",
          "ticks": 157248,
          "time": 163.8,
          "velocity": 0.33858267716535434
        },
        {
          "duration": 0.700000000000017,
          "durationTicks": 672,
          "midi": 64,
          "name": "E4",
          "ticks": 157440,
          "time": 164,
          "velocity": 0.33858267716535434
        },
        {
          "duration": 0.700000000000017,
          "durationTicks": 672,
          "midi": 68,
          "name": "G#4",
          "ticks": 157440,
          "time": 164,
          "velocity": 0.33858267716535434
        },
        {
          "duration": 0.6999999999999886,
          "durationTicks": 672,
          "midi": 60,
          "name": "C4",
          "ticks": 158208,
          "time": 164.8,
          "velocity": 0.33858267716535434
        },
        {
          "duration": 0.19999999999998863,
          "durationTicks": 192,
          "midi": 64,
          "name": "E4",
          "ticks": 158976,
          "time": 165.60000000000002,
          "velocity": 0.33858267716535434
        },
        {
          "duration": 0.19999999999998863,
          "durationTicks": 192,
          "midi": 69,
          "name": "A4",
          "ticks": 158976,
          "time": 165.60000000000002,
          "velocity": 0.33858267716535434
        },
        {
          "duration": 0.19999999999998863,
          "durationTicks": 192,
          "midi": 64,
          "name": "E4",
          "ticks": 159168,
          "time": 165.8,
          "velocity": 0.33858267716535434
        },
        {
          "duration": 0.19999999999998863,
          "durationTicks": 192,
          "midi": 69,
          "name": "A4",
          "ticks": 159168,
          "time": 165.8,
          "velocity": 0.33858267716535434
        },
        {
          "duration": 0.20000000000001705,
          "durationTicks": 192,
          "midi": 64,
          "name": "E4",
          "ticks": 159360,
          "time": 166,
          "velocity": 0.33858267716535434
        },
        {
          "duration": 0.20000000000001705,
          "durationTicks": 192,
          "midi": 69,
          "name": "A4",
          "ticks": 159360,
          "time": 166,
          "velocity": 0.33858267716535434
        },
        {
          "duration": 0.19999999999998863,
          "durationTicks": 192,
          "midi": 64,
          "name": "E4",
          "ticks": 159552,
          "time": 166.20000000000002,
          "velocity": 0.33858267716535434
        },
        {
          "duration": 0.19999999999998863,
          "durationTicks": 192,
          "midi": 69,
          "name": "A4",
          "ticks": 159552,
          "time": 166.20000000000002,
          "velocity": 0.33858267716535434
        },
        {
          "duration": 0.19999999999998863,
          "durationTicks": 192,
          "midi": 64,
          "name": "E4",
          "ticks": 160128,
          "time": 166.8,
          "velocity": 0.33858267716535434
        },
        {
          "duration": 0.19999999999998863,
          "durationTicks": 192,
          "midi": 68,
          "name": "G#4",
          "ticks": 160128,
          "time": 166.8,
          "velocity": 0.33858267716535434
        },
        {
          "duration": 0.20000000000001705,
          "durationTicks": 192,
          "midi": 64,
          "name": "E4",
          "ticks": 160320,
          "time": 167,
          "velocity": 0.33858267716535434
        },
        {
          "duration": 0.20000000000001705,
          "durationTicks": 192,
          "midi": 68,
          "name": "G#4",
          "ticks": 160320,
          "time": 167,
          "velocity": 0.33858267716535434
        },
        {
          "duration": 0.19999999999998863,
          "durationTicks": 192,
          "midi": 64,
          "name": "E4",
          "ticks": 160512,
          "time": 167.20000000000002,
          "velocity": 0.33858267716535434
        },
        {
          "duration": 0.19999999999998863,
          "durationTicks": 192,
          "midi": 68,
          "name": "G#4",
          "ticks": 160512,
          "time": 167.20000000000002,
          "velocity": 0.33858267716535434
        },
        {
          "duration": 0.20000000000001705,
          "durationTicks": 192,
          "midi": 64,
          "name": "E4",
          "ticks": 160704,
          "time": 167.4,
          "velocity": 0.33858267716535434
        },
        {
          "duration": 0.20000000000001705,
          "durationTicks": 192,
          "midi": 68,
          "name": "G#4",
          "ticks": 160704,
          "time": 167.4,
          "velocity": 0.33858267716535434
        },
        {
          "duration": 0.19999999999998863,
          "durationTicks": 192,
          "midi": 64,
          "name": "E4",
          "ticks": 160896,
          "time": 167.60000000000002,
          "velocity": 0.33858267716535434
        },
        {
          "duration": 0.19999999999998863,
          "durationTicks": 192,
          "midi": 68,
          "name": "G#4",
          "ticks": 160896,
          "time": 167.60000000000002,
          "velocity": 0.33858267716535434
        },
        {
          "duration": 0.19999999999998863,
          "durationTicks": 192,
          "midi": 64,
          "name": "E4",
          "ticks": 161088,
          "time": 167.8,
          "velocity": 0.33858267716535434
        },
        {
          "duration": 0.19999999999998863,
          "durationTicks": 192,
          "midi": 68,
          "name": "G#4",
          "ticks": 161088,
          "time": 167.8,
          "velocity": 0.33858267716535434
        },
        {
          "duration": 0.700000000000017,
          "durationTicks": 672,
          "midi": 60,
          "name": "C4",
          "ticks": 161280,
          "time": 168,
          "velocity": 0.33858267716535434
        },
        {
          "duration": 0.19999999999998863,
          "durationTicks": 192,
          "midi": 64,
          "name": "E4",
          "ticks": 162048,
          "time": 168.8,
          "velocity": 0.33858267716535434
        },
        {
          "duration": 0.19999999999998863,
          "durationTicks": 192,
          "midi": 69,
          "name": "A4",
          "ticks": 162048,
          "time": 168.8,
          "velocity": 0.33858267716535434
        },
        {
          "duration": 0.20000000000001705,
          "durationTicks": 192,
          "midi": 64,
          "name": "E4",
          "ticks": 162240,
          "time": 169,
          "velocity": 0.33858267716535434
        },
        {
          "duration": 0.20000000000001705,
          "durationTicks": 192,
          "midi": 69,
          "name": "A4",
          "ticks": 162240,
          "time": 169,
          "velocity": 0.33858267716535434
        },
        {
          "duration": 0.19999999999998863,
          "durationTicks": 192,
          "midi": 64,
          "name": "E4",
          "ticks": 162432,
          "time": 169.20000000000002,
          "velocity": 0.33858267716535434
        },
        {
          "duration": 0.19999999999998863,
          "durationTicks": 192,
          "midi": 69,
          "name": "A4",
          "ticks": 162432,
          "time": 169.20000000000002,
          "velocity": 0.33858267716535434
        },
        {
          "duration": 0.20000000000001705,
          "durationTicks": 192,
          "midi": 64,
          "name": "E4",
          "ticks": 162624,
          "time": 169.4,
          "velocity": 0.33858267716535434
        },
        {
          "duration": 0.20000000000001705,
          "durationTicks": 192,
          "midi": 69,
          "name": "A4",
          "ticks": 162624,
          "time": 169.4,
          "velocity": 0.33858267716535434
        },
        {
          "duration": 0.20000000000001705,
          "durationTicks": 192,
          "midi": 64,
          "name": "E4",
          "ticks": 163200,
          "time": 170,
          "velocity": 0.33858267716535434
        },
        {
          "duration": 0.20000000000001705,
          "durationTicks": 192,
          "midi": 68,
          "name": "G#4",
          "ticks": 163200,
          "time": 170,
          "velocity": 0.33858267716535434
        },
        {
          "duration": 0.19999999999998863,
          "durationTicks": 192,
          "midi": 64,
          "name": "E4",
          "ticks": 163392,
          "time": 170.20000000000002,
          "velocity": 0.33858267716535434
        },
        {
          "duration": 0.19999999999998863,
          "durationTicks": 192,
          "midi": 68,
          "name": "G#4",
          "ticks": 163392,
          "time": 170.20000000000002,
          "velocity": 0.33858267716535434
        },
        {
          "duration": 0.700000000000017,
          "durationTicks": 672,
          "midi": 64,
          "name": "E4",
          "ticks": 163584,
          "time": 170.4,
          "velocity": 0.33858267716535434
        },
        {
          "duration": 0.700000000000017,
          "durationTicks": 672,
          "midi": 68,
          "name": "G#4",
          "ticks": 163584,
          "time": 170.4,
          "velocity": 0.33858267716535434
        },
        {
          "duration": 0.29999999999998295,
          "durationTicks": 288,
          "midi": 71,
          "name": "B4",
          "ticks": 164352,
          "time": 171.20000000000002,
          "velocity": 0.3937007874015748
        },
        {
          "duration": 0.19999999999998863,
          "durationTicks": 192,
          "midi": 68,
          "name": "G#4",
          "ticks": 164736,
          "time": 171.60000000000002,
          "velocity": 0.33858267716535434
        },
        {
          "duration": 0.19999999999998863,
          "durationTicks": 192,
          "midi": 69,
          "name": "A4",
          "ticks": 164928,
          "time": 171.8,
          "velocity": 0.33858267716535434
        },
        {
          "duration": 0.30000000000001137,
          "durationTicks": 288,
          "midi": 71,
          "name": "B4",
          "ticks": 165120,
          "time": 172,
          "velocity": 0.3937007874015748
        },
        {
          "duration": 0.20000000000001705,
          "durationTicks": 192,
          "midi": 68,
          "name": "G#4",
          "ticks": 165504,
          "time": 172.4,
          "velocity": 0.33858267716535434
        },
        {
          "duration": 0.19999999999998863,
          "durationTicks": 192,
          "midi": 69,
          "name": "A4",
          "ticks": 165696,
          "time": 172.60000000000002,
          "velocity": 0.33858267716535434
        },
        {
          "duration": 0.30000000000001137,
          "durationTicks": 288,
          "midi": 64,
          "name": "E4",
          "ticks": 165888,
          "time": 172.8,
          "velocity": 0.33858267716535434
        },
        {
          "duration": 0.19999999999998863,
          "durationTicks": 192,
          "midi": 64,
          "name": "E4",
          "ticks": 166272,
          "time": 173.20000000000002,
          "velocity": 0.33858267716535434
        },
        {
          "duration": 0.20000000000001705,
          "durationTicks": 192,
          "midi": 69,
          "name": "A4",
          "ticks": 166464,
          "time": 173.4,
          "velocity": 0.33858267716535434
        },
        {
          "duration": 0.29999999999998295,
          "durationTicks": 288,
          "midi": 72,
          "name": "C5",
          "ticks": 166656,
          "time": 173.60000000000002,
          "velocity": 0.33858267716535434
        },
        {
          "duration": 0.20000000000001705,
          "durationTicks": 192,
          "midi": 64,
          "name": "E4",
          "ticks": 167040,
          "time": 174,
          "velocity": 0.33858267716535434
        },
        {
          "duration": 0.19999999999998863,
          "durationTicks": 192,
          "midi": 69,
          "name": "A4",
          "ticks": 167232,
          "time": 174.20000000000002,
          "velocity": 0.33858267716535434
        },
        {
          "duration": 0.20000000000001705,
          "durationTicks": 192,
          "midi": 68,
          "name": "G#4",
          "ticks": 167424,
          "time": 174.4,
          "velocity": 0.3937007874015748
        },
        {
          "duration": 0.19999999999998863,
          "durationTicks": 192,
          "midi": 64,
          "name": "E4",
          "ticks": 167616,
          "time": 174.60000000000002,
          "velocity": 0.3937007874015748
        },
        {
          "duration": 0.19999999999998863,
          "durationTicks": 192,
          "midi": 68,
          "name": "G#4",
          "ticks": 167808,
          "time": 174.8,
          "velocity": 0.3937007874015748
        },
        {
          "duration": 0.20000000000001705,
          "durationTicks": 192,
          "midi": 69,
          "name": "A4",
          "ticks": 168000,
          "time": 175,
          "velocity": 0.3937007874015748
        },
        {
          "duration": 0.29999999999998295,
          "durationTicks": 288,
          "midi": 68,
          "name": "G#4",
          "ticks": 168192,
          "time": 175.20000000000002,
          "velocity": 0.3937007874015748
        },
        {
          "duration": 0.29999999999998295,
          "durationTicks": 288,
          "midi": 72,
          "name": "C5",
          "ticks": 168576,
          "time": 175.60000000000002,
          "velocity": 0.3937007874015748
        },
        {
          "duration": 0.30000000000001137,
          "durationTicks": 288,
          "midi": 64,
          "name": "E4",
          "ticks": 168960,
          "time": 176,
          "velocity": 0.33858267716535434
        },
        {
          "duration": 0.30000000000001137,
          "durationTicks": 288,
          "midi": 69,
          "name": "A4",
          "ticks": 169344,
          "time": 176.4,
          "velocity": 0.33858267716535434
        },
        {
          "duration": 0.6999999999999886,
          "durationTicks": 672,
          "midi": 64,
          "name": "E4",
          "ticks": 169728,
          "time": 176.8,
          "velocity": 0.33858267716535434
        },
        {
          "duration": 0.4000000000000057,
          "durationTicks": 384,
          "midi": 65,
          "name": "F4",
          "ticks": 170688,
          "time": 177.8,
          "velocity": 0.33858267716535434
        },
        {
          "duration": 0.19999999999998863,
          "durationTicks": 192,
          "midi": 65,
          "name": "F4",
          "ticks": 171072,
          "time": 178.20000000000002,
          "velocity": 0.33858267716535434
        },
        {
          "duration": 0.19999999999998863,
          "durationTicks": 192,
          "midi": 69,
          "name": "A4",
          "ticks": 171072,
          "time": 178.20000000000002,
          "velocity": 0.33858267716535434
        },
        {
          "duration": 0.20000000000001705,
          "durationTicks": 192,
          "midi": 65,
          "name": "F4",
          "ticks": 171264,
          "time": 178.4,
          "velocity": 0.33858267716535434
        },
        {
          "duration": 0.20000000000001705,
          "durationTicks": 192,
          "midi": 72,
          "name": "C5",
          "ticks": 171264,
          "time": 178.4,
          "velocity": 0.33858267716535434
        },
        {
          "duration": 0.09999999999999432,
          "durationTicks": 96,
          "midi": 65,
          "name": "F4",
          "ticks": 171456,
          "time": 178.60000000000002,
          "velocity": 0.33858267716535434
        },
        {
          "duration": 0.09999999999999432,
          "durationTicks": 96,
          "midi": 72,
          "name": "C5",
          "ticks": 171456,
          "time": 178.60000000000002,
          "velocity": 0.33858267716535434
        },
        {
          "duration": 0.09999999999999432,
          "durationTicks": 96,
          "midi": 65,
          "name": "F4",
          "ticks": 171552,
          "time": 178.70000000000002,
          "velocity": 0.33858267716535434
        },
        {
          "duration": 0.09999999999999432,
          "durationTicks": 96,
          "midi": 72,
          "name": "C5",
          "ticks": 171552,
          "time": 178.70000000000002,
          "velocity": 0.33858267716535434
        },
        {
          "duration": 0.19999999999998863,
          "durationTicks": 192,
          "midi": 64,
          "name": "E4",
          "ticks": 171648,
          "time": 178.8,
          "velocity": 0.33858267716535434
        },
        {
          "duration": 0.19999999999998863,
          "durationTicks": 192,
          "midi": 71,
          "name": "B4",
          "ticks": 171648,
          "time": 178.8,
          "velocity": 0.33858267716535434
        },
        {
          "duration": 0.20000000000001705,
          "durationTicks": 192,
          "midi": 62,
          "name": "D4",
          "ticks": 171840,
          "time": 179,
          "velocity": 0.33858267716535434
        },
        {
          "duration": 0.20000000000001705,
          "durationTicks": 192,
          "midi": 69,
          "name": "A4",
          "ticks": 171840,
          "time": 179,
          "velocity": 0.33858267716535434
        },
        {
          "duration": 0.5,
          "durationTicks": 480,
          "midi": 60,
          "name": "C4",
          "ticks": 172032,
          "time": 179.20000000000002,
          "velocity": 0.33858267716535434
        },
        {
          "duration": 0.5,
          "durationTicks": 480,
          "midi": 67,
          "name": "G4",
          "ticks": 172032,
          "time": 179.20000000000002,
          "velocity": 0.33858267716535434
        },
        {
          "duration": 0.19999999999998863,
          "durationTicks": 192,
          "midi": 64,
          "name": "E4",
          "ticks": 172608,
          "time": 179.8,
          "velocity": 0.33858267716535434
        },
        {
          "duration": 0.20000000000001705,
          "durationTicks": 192,
          "midi": 67,
          "name": "G4",
          "ticks": 172800,
          "time": 180,
          "velocity": 0.33858267716535434
        },
        {
          "duration": 0.09999999999999432,
          "durationTicks": 96,
          "midi": 69,
          "name": "A4",
          "ticks": 172992,
          "time": 180.20000000000002,
          "velocity": 0.33858267716535434
        },
        {
          "duration": 0.09999999999999432,
          "durationTicks": 96,
          "midi": 67,
          "name": "G4",
          "ticks": 173088,
          "time": 180.3,
          "velocity": 0.33858267716535434
        },
        {
          "duration": 0.20000000000001705,
          "durationTicks": 192,
          "midi": 65,
          "name": "F4",
          "ticks": 173184,
          "time": 180.4,
          "velocity": 0.33858267716535434
        },
        {
          "duration": 0.19999999999998863,
          "durationTicks": 192,
          "midi": 64,
          "name": "E4",
          "ticks": 173376,
          "time": 180.60000000000002,
          "velocity": 0.33858267716535434
        },
        {
          "duration": 0.19999999999998863,
          "durationTicks": 192,
          "midi": 80,
          "name": "G#5",
          "ticks": 173568,
          "time": 180.8,
          "velocity": 0.33858267716535434
        },
        {
          "duration": 0.20000000000001705,
          "durationTicks": 192,
          "midi": 76,
          "name": "E5",
          "ticks": 173760,
          "time": 181,
          "velocity": 0.33858267716535434
        },
        {
          "duration": 0.19999999999998863,
          "durationTicks": 192,
          "midi": 80,
          "name": "G#5",
          "ticks": 173952,
          "time": 181.20000000000002,
          "velocity": 0.33858267716535434
        },
        {
          "duration": 0.20000000000001705,
          "durationTicks": 192,
          "midi": 81,
          "name": "A5",
          "ticks": 174144,
          "time": 181.4,
          "velocity": 0.33858267716535434
        },
        {
          "duration": 0.19999999999998863,
          "durationTicks": 192,
          "midi": 83,
          "name": "B5",
          "ticks": 174336,
          "time": 181.60000000000002,
          "velocity": 0.33858267716535434
        },
        {
          "duration": 0.19999999999998863,
          "durationTicks": 192,
          "midi": 80,
          "name": "G#5",
          "ticks": 174528,
          "time": 181.8,
          "velocity": 0.33858267716535434
        },
        {
          "duration": 0.20000000000001705,
          "durationTicks": 192,
          "midi": 84,
          "name": "C6",
          "ticks": 174720,
          "time": 182,
          "velocity": 0.33858267716535434
        },
        {
          "duration": 0.19999999999998863,
          "durationTicks": 192,
          "midi": 80,
          "name": "G#5",
          "ticks": 174912,
          "time": 182.20000000000002,
          "velocity": 0.33858267716535434
        },
        {
          "duration": 1.5,
          "durationTicks": 1440,
          "midi": 81,
          "name": "A5",
          "ticks": 175104,
          "time": 182.4,
          "velocity": 0.33858267716535434
        },
        {
          "duration": 0.29999999999998295,
          "durationTicks": 288,
          "midi": 71,
          "name": "B4",
          "ticks": 177792,
          "time": 185.20000000000002,
          "velocity": 0.33858267716535434
        },
        {
          "duration": 0.5,
          "durationTicks": 480,
          "midi": 72,
          "name": "C5",
          "ticks": 178176,
          "time": 185.60000000000002,
          "velocity": 0.33858267716535434
        },
        {
          "duration": 0.19999999999998863,
          "durationTicks": 192,
          "midi": 64,
          "name": "E4",
          "ticks": 178752,
          "time": 186.20000000000002,
          "velocity": 0.33858267716535434
        },
        {
          "duration": 0.20000000000001705,
          "durationTicks": 192,
          "midi": 72,
          "name": "C5",
          "ticks": 178944,
          "time": 186.4,
          "velocity": 0.33858267716535434
        },
        {
          "duration": 0.19999999999998863,
          "durationTicks": 192,
          "midi": 69,
          "name": "A4",
          "ticks": 179136,
          "time": 186.60000000000002,
          "velocity": 0.33858267716535434
        },
        {
          "duration": 0.30000000000001137,
          "durationTicks": 288,
          "midi": 64,
          "name": "E4",
          "ticks": 179328,
          "time": 186.8,
          "velocity": 0.33858267716535434
        },
        {
          "duration": 0.5,
          "durationTicks": 480,
          "midi": 71,
          "name": "B4",
          "ticks": 179712,
          "time": 187.20000000000002,
          "velocity": 0.33858267716535434
        },
        {
          "duration": 0.19999999999998863,
          "durationTicks": 192,
          "midi": 64,
          "name": "E4",
          "ticks": 180288,
          "time": 187.8,
          "velocity": 0.33858267716535434
        },
        {
          "duration": 0.20000000000001705,
          "durationTicks": 192,
          "midi": 71,
          "name": "B4",
          "ticks": 180480,
          "time": 188,
          "velocity": 0.33858267716535434
        },
        {
          "duration": 0.19999999999998863,
          "durationTicks": 192,
          "midi": 68,
          "name": "G#4",
          "ticks": 180672,
          "time": 188.20000000000002,
          "velocity": 0.33858267716535434
        },
        {
          "duration": 0.30000000000001137,
          "durationTicks": 288,
          "midi": 64,
          "name": "E4",
          "ticks": 180864,
          "time": 188.4,
          "velocity": 0.33858267716535434
        },
        {
          "duration": 0.5,
          "durationTicks": 480,
          "midi": 69,
          "name": "A4",
          "ticks": 181248,
          "time": 188.8,
          "velocity": 0.33858267716535434
        },
        {
          "duration": 0.20000000000001705,
          "durationTicks": 192,
          "midi": 64,
          "name": "E4",
          "ticks": 181824,
          "time": 189.4,
          "velocity": 0.33858267716535434
        },
        {
          "duration": 0.19999999999998863,
          "durationTicks": 192,
          "midi": 69,
          "name": "A4",
          "ticks": 182016,
          "time": 189.60000000000002,
          "velocity": 0.33858267716535434
        },
        {
          "duration": 0.19999999999998863,
          "durationTicks": 192,
          "midi": 64,
          "name": "E4",
          "ticks": 182208,
          "time": 189.8,
          "velocity": 0.33858267716535434
        },
        {
          "duration": 0.30000000000001137,
          "durationTicks": 288,
          "midi": 69,
          "name": "A4",
          "ticks": 182400,
          "time": 190,
          "velocity": 0.33858267716535434
        },
        {
          "duration": 0.30000000000001137,
          "durationTicks": 288,
          "midi": 68,
          "name": "G#4",
          "ticks": 182784,
          "time": 190.4,
          "velocity": 0.33858267716535434
        },
        {
          "duration": 0.19999999999998863,
          "durationTicks": 192,
          "midi": 64,
          "name": "E4",
          "ticks": 183168,
          "time": 190.8,
          "velocity": 0.33858267716535434
        },
        {
          "duration": 0.20000000000001705,
          "durationTicks": 192,
          "midi": 59,
          "name": "B3",
          "ticks": 183360,
          "time": 191,
          "velocity": 0.33858267716535434
        },
        {
          "duration": 0.19999999999998863,
          "durationTicks": 192,
          "midi": 71,
          "name": "B4",
          "ticks": 183552,
          "time": 191.20000000000002,
          "velocity": 0.33858267716535434
        },
        {
          "duration": 0.20000000000001705,
          "durationTicks": 192,
          "midi": 68,
          "name": "G#4",
          "ticks": 183744,
          "time": 191.4,
          "velocity": 0.33858267716535434
        },
        {
          "duration": 0.29999999999998295,
          "durationTicks": 288,
          "midi": 64,
          "name": "E4",
          "ticks": 183936,
          "time": 191.60000000000002,
          "velocity": 0.33858267716535434
        },
        {
          "duration": 0.5,
          "durationTicks": 480,
          "midi": 72,
          "name": "C5",
          "ticks": 184320,
          "time": 192,
          "velocity": 0.33858267716535434
        },
        {
          "duration": 0.19999999999998863,
          "durationTicks": 192,
          "midi": 64,
          "name": "E4",
          "ticks": 184896,
          "time": 192.60000000000002,
          "velocity": 0.33858267716535434
        },
        {
          "duration": 0.19999999999998863,
          "durationTicks": 192,
          "midi": 72,
          "name": "C5",
          "ticks": 185088,
          "time": 192.8,
          "velocity": 0.33858267716535434
        },
        {
          "duration": 0.20000000000001705,
          "durationTicks": 192,
          "midi": 69,
          "name": "A4",
          "ticks": 185280,
          "time": 193,
          "velocity": 0.33858267716535434
        },
        {
          "duration": 0.29999999999998295,
          "durationTicks": 288,
          "midi": 64,
          "name": "E4",
          "ticks": 185472,
          "time": 193.20000000000002,
          "velocity": 0.33858267716535434
        },
        {
          "duration": 0.5,
          "durationTicks": 480,
          "midi": 71,
          "name": "B4",
          "ticks": 185856,
          "time": 193.60000000000002,
          "velocity": 0.33858267716535434
        },
        {
          "duration": 0.19999999999998863,
          "durationTicks": 192,
          "midi": 64,
          "name": "E4",
          "ticks": 186432,
          "time": 194.20000000000002,
          "velocity": 0.33858267716535434
        },
        {
          "duration": 0.20000000000001705,
          "durationTicks": 192,
          "midi": 71,
          "name": "B4",
          "ticks": 186624,
          "time": 194.4,
          "velocity": 0.33858267716535434
        },
        {
          "duration": 0.19999999999998863,
          "durationTicks": 192,
          "midi": 68,
          "name": "G#4",
          "ticks": 186816,
          "time": 194.60000000000002,
          "velocity": 0.33858267716535434
        },
        {
          "duration": 0.30000000000001137,
          "durationTicks": 288,
          "midi": 64,
          "name": "E4",
          "ticks": 187008,
          "time": 194.8,
          "velocity": 0.33858267716535434
        },
        {
          "duration": 0.5,
          "durationTicks": 480,
          "midi": 69,
          "name": "A4",
          "ticks": 187392,
          "time": 195.20000000000002,
          "velocity": 0.33858267716535434
        },
        {
          "duration": 0.19999999999998863,
          "durationTicks": 192,
          "midi": 64,
          "name": "E4",
          "ticks": 187968,
          "time": 195.8,
          "velocity": 0.33858267716535434
        },
        {
          "duration": 0.20000000000001705,
          "durationTicks": 192,
          "midi": 69,
          "name": "A4",
          "ticks": 188160,
          "time": 196,
          "velocity": 0.33858267716535434
        },
        {
          "duration": 0.19999999999998863,
          "durationTicks": 192,
          "midi": 64,
          "name": "E4",
          "ticks": 188352,
          "time": 196.20000000000002,
          "velocity": 0.33858267716535434
        },
        {
          "duration": 0.30000000000001137,
          "durationTicks": 288,
          "midi": 69,
          "name": "A4",
          "ticks": 188544,
          "time": 196.4,
          "velocity": 0.33858267716535434
        },
        {
          "duration": 0.30000000000001137,
          "durationTicks": 288,
          "midi": 68,
          "name": "G#4",
          "ticks": 188928,
          "time": 196.8,
          "velocity": 0.33858267716535434
        },
        {
          "duration": 0.19999999999998863,
          "durationTicks": 192,
          "midi": 64,
          "name": "E4",
          "ticks": 189312,
          "time": 197.20000000000002,
          "velocity": 0.33858267716535434
        },
        {
          "duration": 0.20000000000001705,
          "durationTicks": 192,
          "midi": 59,
          "name": "B3",
          "ticks": 189504,
          "time": 197.4,
          "velocity": 0.33858267716535434
        },
        {
          "duration": 0.19999999999998863,
          "durationTicks": 192,
          "midi": 68,
          "name": "G#4",
          "ticks": 189888,
          "time": 197.8,
          "velocity": 0.33858267716535434
        },
        {
          "duration": 0.30000000000001137,
          "durationTicks": 288,
          "midi": 64,
          "name": "E4",
          "ticks": 190080,
          "time": 198,
          "velocity": 0.33858267716535434
        },
        {
          "duration": 1.5,
          "durationTicks": 1440,
          "midi": 64,
          "name": "E4",
          "ticks": 190464,
          "time": 198.4,
          "velocity": 0.33858267716535434
        },
        {
          "duration": 1.5,
          "durationTicks": 1440,
          "midi": 64,
          "name": "E4",
          "ticks": 192000,
          "time": 200,
          "velocity": 0.33858267716535434
        },
        {
          "duration": 0.30000000000001137,
          "durationTicks": 288,
          "midi": 71,
          "name": "B4",
          "ticks": 194688,
          "time": 202.8,
          "velocity": 0.33858267716535434
        },
        {
          "duration": 0.6999999999999886,
          "durationTicks": 672,
          "midi": 72,
          "name": "C5",
          "ticks": 195072,
          "time": 203.20000000000002,
          "velocity": 0.33858267716535434
        },
        {
          "duration": 0.20000000000001705,
          "durationTicks": 192,
          "midi": 76,
          "name": "E5",
          "ticks": 195840,
          "time": 204,
          "velocity": 0.33858267716535434
        },
        {
          "duration": 0.19999999999998863,
          "durationTicks": 192,
          "midi": 69,
          "name": "A4",
          "ticks": 196032,
          "time": 204.20000000000002,
          "velocity": 0.33858267716535434
        },
        {
          "duration": 0.20000000000001705,
          "durationTicks": 192,
          "midi": 76,
          "name": "E5",
          "ticks": 196224,
          "time": 204.4,
          "velocity": 0.33858267716535434
        },
        {
          "duration": 0.19999999999998863,
          "durationTicks": 192,
          "midi": 69,
          "name": "A4",
          "ticks": 196416,
          "time": 204.60000000000002,
          "velocity": 0.33858267716535434
        },
        {
          "duration": 0.19999999999998863,
          "durationTicks": 192,
          "midi": 76,
          "name": "E5",
          "ticks": 196608,
          "time": 204.8,
          "velocity": 0.33858267716535434
        },
        {
          "duration": 0.20000000000001705,
          "durationTicks": 192,
          "midi": 68,
          "name": "G#4",
          "ticks": 196800,
          "time": 205,
          "velocity": 0.33858267716535434
        },
        {
          "duration": 0.19999999999998863,
          "durationTicks": 192,
          "midi": 76,
          "name": "E5",
          "ticks": 196992,
          "time": 205.20000000000002,
          "velocity": 0.33858267716535434
        },
        {
          "duration": 0.20000000000001705,
          "durationTicks": 192,
          "midi": 68,
          "name": "G#4",
          "ticks": 197184,
          "time": 205.4,
          "velocity": 0.33858267716535434
        },
        {
          "duration": 0.6999999999999886,
          "durationTicks": 672,
          "midi": 76,
          "name": "E5",
          "ticks": 197376,
          "time": 205.60000000000002,
          "velocity": 0.33858267716535434
        },
        {
          "duration": 0.700000000000017,
          "durationTicks": 672,
          "midi": 69,
          "name": "A4",
          "ticks": 198144,
          "time": 206.4,
          "velocity": 0.33858267716535434
        },
        {
          "duration": 0.29999999999998295,
          "durationTicks": 288,
          "midi": 64,
          "name": "E4",
          "ticks": 198912,
          "time": 207.20000000000002,
          "velocity": 0.33858267716535434
        },
        {
          "duration": 0.29999999999998295,
          "durationTicks": 288,
          "midi": 60,
          "name": "C4",
          "ticks": 199296,
          "time": 207.60000000000002,
          "velocity": 0.33858267716535434
        },
        {
          "duration": 0.10000000000002274,
          "durationTicks": 96,
          "midi": 59,
          "name": "B3",
          "ticks": 199680,
          "time": 208,
          "velocity": 0.33858267716535434
        },
        {
          "duration": 0.09999999999999432,
          "durationTicks": 96,
          "midi": 64,
          "name": "E4",
          "ticks": 199776,
          "time": 208.10000000000002,
          "velocity": 0.33858267716535434
        },
        {
          "duration": 0.09999999999999432,
          "durationTicks": 96,
          "midi": 59,
          "name": "B3",
          "ticks": 199872,
          "time": 208.20000000000002,
          "velocity": 0.33858267716535434
        },
        {
          "duration": 0.09999999999999432,
          "durationTicks": 96,
          "midi": 64,
          "name": "E4",
          "ticks": 199968,
          "time": 208.3,
          "velocity": 0.33858267716535434
        },
        {
          "duration": 0.09999999999999432,
          "durationTicks": 96,
          "midi": 59,
          "name": "B3",
          "ticks": 200064,
          "time": 208.4,
          "velocity": 0.33858267716535434
        },
        {
          "duration": 0.10000000000002274,
          "durationTicks": 96,
          "midi": 64,
          "name": "E4",
          "ticks": 200160,
          "time": 208.5,
          "velocity": 0.33858267716535434
        },
        {
          "duration": 0.09999999999999432,
          "durationTicks": 96,
          "midi": 59,
          "name": "B3",
          "ticks": 200256,
          "time": 208.60000000000002,
          "velocity": 0.33858267716535434
        },
        {
          "duration": 0.09999999999999432,
          "durationTicks": 96,
          "midi": 64,
          "name": "E4",
          "ticks": 200352,
          "time": 208.70000000000002,
          "velocity": 0.33858267716535434
        },
        {
          "duration": 0.6999999999999886,
          "durationTicks": 672,
          "midi": 64,
          "name": "E4",
          "ticks": 200448,
          "time": 208.8,
          "velocity": 0.33858267716535434
        },
        {
          "duration": 1.5,
          "durationTicks": 1440,
          "midi": 64,
          "name": "E4",
          "ticks": 201216,
          "time": 209.60000000000002,
          "velocity": 0.33858267716535434
        },
        {
          "duration": 1.5,
          "durationTicks": 1440,
          "midi": 64,
          "name": "E4",
          "ticks": 202752,
          "time": 211.20000000000002,
          "velocity": 0.33858267716535434
        },
        {
          "duration": 1.5,
          "durationTicks": 1440,
          "midi": 76,
          "name": "E5",
          "ticks": 204288,
          "time": 212.8,
          "velocity": 0.33858267716535434
        },
        {
          "duration": 1.5,
          "durationTicks": 1440,
          "midi": 76,
          "name": "E5",
          "ticks": 205824,
          "time": 214.4,
          "velocity": 0.33858267716535434
        },
        {
          "duration": 1.5,
          "durationTicks": 1440,
          "midi": 64,
          "name": "E4",
          "ticks": 207360,
          "time": 216,
          "velocity": 0.33858267716535434
        }
      ],
      "endOfTrackTicks": 208800
    }
  ]
}
