{
  "header": {
    "PPQ": 480,
    "timeSignature": [4, 4],
    "bpm": 170.0000850000425,
    "name": ""
  },
  "tempo": [
    {
      "absoluteTime": 0,
      "seconds": 0,
      "bpm": 170.0000850000425
    }
  ],
  "timeSignature": [
    {
      "absoluteTime": 0,
      "seconds": 0,
      "numerator": 4,
      "denominator": 2,
      "click": 24,
      "notesQ": 8
    }
  ],
  "startTime": 0,
  "duration": 180.70432141250149,
  "tracks": [
    {
      "startTime": 0,
      "duration": 180.70432141250149,
      "length": 790,
      "notes": [
        {
          "name": "G#4",
          "midi": 68,
          "time": 0,
          "velocity": 0.7559055118110236,
          "duration": 0.33455865625
        },
        {
          "name": "C5",
          "midi": 72,
          "time": 0,
          "velocity": 0.7559055118110236,
          "duration": 0.33455865625
        },
        {
          "name": "F5",
          "midi": 77,
          "time": 0,
          "velocity": 0.7559055118110236,
          "duration": 0.33455865625
        },
        {
          "name": "G#4",
          "midi": 68,
          "time": 0.7058819999999999,
          "velocity": 0.7559055118110236,
          "duration": 0.5022056312499998
        },
        {
          "name": "C5",
          "midi": 72,
          "time": 0.7058819999999999,
          "velocity": 0.7559055118110236,
          "duration": 0.5022056312499998
        },
        {
          "name": "F5",
          "midi": 77,
          "time": 0.7058819999999999,
          "velocity": 0.7559055118110236,
          "duration": 0.5022056312499998
        },
        {
          "name": "G#4",
          "midi": 68,
          "time": 1.2352934999999998,
          "velocity": 0.7559055118110236,
          "duration": 0.16691168125
        },
        {
          "name": "C5",
          "midi": 72,
          "time": 1.2352934999999998,
          "velocity": 0.7559055118110236,
          "duration": 0.16691168125
        },
        {
          "name": "D#5",
          "midi": 75,
          "time": 1.2352934999999998,
          "velocity": 0.7559055118110236,
          "duration": 0.16691168125
        },
        {
          "name": "G#4",
          "midi": 68,
          "time": 1.4117639999999998,
          "velocity": 0.7559055118110236,
          "duration": 0.16691168125
        },
        {
          "name": "C5",
          "midi": 72,
          "time": 1.4117639999999998,
          "velocity": 0.7559055118110236,
          "duration": 0.16691168125
        },
        {
          "name": "F5",
          "midi": 77,
          "time": 1.4117639999999998,
          "velocity": 0.7559055118110236,
          "duration": 0.16691168125
        },
        {
          "name": "G#4",
          "midi": 68,
          "time": 1.5882344999999998,
          "velocity": 0.7559055118110236,
          "duration": 0.33455865625000003
        },
        {
          "name": "C5",
          "midi": 72,
          "time": 1.5882344999999998,
          "velocity": 0.7559055118110236,
          "duration": 0.33455865625000003
        },
        {
          "name": "G5",
          "midi": 79,
          "time": 1.5882344999999998,
          "velocity": 0.7559055118110236,
          "duration": 0.33455865625000003
        },
        {
          "name": "G#4",
          "midi": 68,
          "time": 1.9411754999999997,
          "velocity": 0.7559055118110236,
          "duration": 0.3345586562499998
        },
        {
          "name": "C5",
          "midi": 72,
          "time": 1.9411754999999997,
          "velocity": 0.7559055118110236,
          "duration": 0.3345586562499998
        },
        {
          "name": "G#4",
          "midi": 68,
          "time": 2.2941164999999994,
          "velocity": 0.7559055118110236,
          "duration": 0.5022056312499998
        },
        {
          "name": "C5",
          "midi": 72,
          "time": 2.2941164999999994,
          "velocity": 0.7559055118110236,
          "duration": 0.5022056312499998
        },
        {
          "name": "D#5",
          "midi": 75,
          "time": 2.2941164999999994,
          "velocity": 0.7559055118110236,
          "duration": 0.5022056312499998
        },
        {
          "name": "G4",
          "midi": 67,
          "time": 2.823527999999999,
          "velocity": 0.7559055118110236,
          "duration": 0.6698526062500001
        },
        {
          "name": "C5",
          "midi": 72,
          "time": 2.823527999999999,
          "velocity": 0.7559055118110236,
          "duration": 0.6698526062500001
        },
        {
          "name": "F5",
          "midi": 77,
          "time": 2.823527999999999,
          "velocity": 0.7559055118110236,
          "duration": 0.6698526062500001
        },
        {
          "name": "G4",
          "midi": 67,
          "time": 3.529409999999999,
          "velocity": 0.7559055118110236,
          "duration": 0.5022056312500003
        },
        {
          "name": "C5",
          "midi": 72,
          "time": 3.529409999999999,
          "velocity": 0.7559055118110236,
          "duration": 0.5022056312500003
        },
        {
          "name": "F5",
          "midi": 77,
          "time": 3.529409999999999,
          "velocity": 0.7559055118110236,
          "duration": 0.5022056312500003
        },
        {
          "name": "G4",
          "midi": 67,
          "time": 4.0588215,
          "velocity": 0.7559055118110236,
          "duration": 0.16691168125000022
        },
        {
          "name": "C5",
          "midi": 72,
          "time": 4.0588215,
          "velocity": 0.7559055118110236,
          "duration": 0.16691168125000022
        },
        {
          "name": "D#5",
          "midi": 75,
          "time": 4.0588215,
          "velocity": 0.7559055118110236,
          "duration": 0.16691168125000022
        },
        {
          "name": "G4",
          "midi": 67,
          "time": 4.235292,
          "velocity": 0.7559055118110236,
          "duration": 0.16691168125000022
        },
        {
          "name": "C5",
          "midi": 72,
          "time": 4.235292,
          "velocity": 0.7559055118110236,
          "duration": 0.16691168125000022
        },
        {
          "name": "F5",
          "midi": 77,
          "time": 4.235292,
          "velocity": 0.7559055118110236,
          "duration": 0.16691168125000022
        },
        {
          "name": "G4",
          "midi": 67,
          "time": 4.411762500000001,
          "velocity": 0.7559055118110236,
          "duration": 0.3345586562499996
        },
        {
          "name": "C5",
          "midi": 72,
          "time": 4.411762500000001,
          "velocity": 0.7559055118110236,
          "duration": 0.3345586562499996
        },
        {
          "name": "G5",
          "midi": 79,
          "time": 4.411762500000001,
          "velocity": 0.7559055118110236,
          "duration": 0.3345586562499996
        },
        {
          "name": "G4",
          "midi": 67,
          "time": 4.7647035,
          "velocity": 0.7559055118110236,
          "duration": 0.3345586562499996
        },
        {
          "name": "C5",
          "midi": 72,
          "time": 4.7647035,
          "velocity": 0.7559055118110236,
          "duration": 0.3345586562499996
        },
        {
          "name": "G4",
          "midi": 67,
          "time": 5.1176445,
          "velocity": 0.7559055118110236,
          "duration": 0.5022056312499998
        },
        {
          "name": "C5",
          "midi": 72,
          "time": 5.1176445,
          "velocity": 0.7559055118110236,
          "duration": 0.5022056312499998
        },
        {
          "name": "D#5",
          "midi": 75,
          "time": 5.1176445,
          "velocity": 0.7559055118110236,
          "duration": 0.5022056312499998
        },
        {
          "name": "A#4",
          "midi": 70,
          "time": 5.647056,
          "velocity": 0.7559055118110236,
          "duration": 0.16691168125000022
        },
        {
          "name": "D#5",
          "midi": 75,
          "time": 5.647056,
          "velocity": 0.7559055118110236,
          "duration": 0.16691168125000022
        },
        {
          "name": "A#5",
          "midi": 82,
          "time": 5.647056,
          "velocity": 0.7559055118110236,
          "duration": 0.16691168125000022
        },
        {
          "name": "A#4",
          "midi": 70,
          "time": 5.823526500000001,
          "velocity": 0.7559055118110236,
          "duration": 0.3345586562499996
        },
        {
          "name": "D#5",
          "midi": 75,
          "time": 5.823526500000001,
          "velocity": 0.7559055118110236,
          "duration": 0.3345586562499996
        },
        {
          "name": "G5",
          "midi": 79,
          "time": 5.823526500000001,
          "velocity": 0.7559055118110236,
          "duration": 0.3345586562499996
        },
        {
          "name": "A#4",
          "midi": 70,
          "time": 6.1764675,
          "velocity": 0.7559055118110236,
          "duration": 0.3345586562499996
        },
        {
          "name": "F5",
          "midi": 77,
          "time": 6.1764675,
          "velocity": 0.7559055118110236,
          "duration": 0.3345586562499996
        },
        {
          "name": "A#4",
          "midi": 70,
          "time": 6.5294085,
          "velocity": 0.7559055118110236,
          "duration": 0.5022056312499998
        },
        {
          "name": "D#5",
          "midi": 75,
          "time": 6.5294085,
          "velocity": 0.7559055118110236,
          "duration": 0.5022056312499998
        },
        {
          "name": "A#4",
          "midi": 70,
          "time": 7.05882,
          "velocity": 0.7559055118110236,
          "duration": 0.16691168125000022
        },
        {
          "name": "D#5",
          "midi": 75,
          "time": 7.05882,
          "velocity": 0.7559055118110236,
          "duration": 0.16691168125000022
        },
        {
          "name": "A#5",
          "midi": 82,
          "time": 7.05882,
          "velocity": 0.7559055118110236,
          "duration": 0.16691168125000022
        },
        {
          "name": "A#4",
          "midi": 70,
          "time": 7.2352905000000005,
          "velocity": 0.7559055118110236,
          "duration": 0.3345586562499996
        },
        {
          "name": "D#5",
          "midi": 75,
          "time": 7.2352905000000005,
          "velocity": 0.7559055118110236,
          "duration": 0.3345586562499996
        },
        {
          "name": "G5",
          "midi": 79,
          "time": 7.2352905000000005,
          "velocity": 0.7559055118110236,
          "duration": 0.3345586562499996
        },
        {
          "name": "A#4",
          "midi": 70,
          "time": 7.5882315,
          "velocity": 0.7559055118110236,
          "duration": 0.3345586562499996
        },
        {
          "name": "F5",
          "midi": 77,
          "time": 7.5882315,
          "velocity": 0.7559055118110236,
          "duration": 0.3345586562499996
        },
        {
          "name": "A#4",
          "midi": 70,
          "time": 7.9411724999999995,
          "velocity": 0.7559055118110236,
          "duration": 0.3345586562500005
        },
        {
          "name": "D#5",
          "midi": 75,
          "time": 7.9411724999999995,
          "velocity": 0.7559055118110236,
          "duration": 0.3345586562500005
        },
        {
          "name": "A#4",
          "midi": 70,
          "time": 8.2941135,
          "velocity": 0.7559055118110236,
          "duration": 2.1786753812500006
        },
        {
          "name": "D5",
          "midi": 74,
          "time": 8.2941135,
          "velocity": 0.7559055118110236,
          "duration": 2.1786753812500006
        },
        {
          "name": "F5",
          "midi": 77,
          "time": 8.2941135,
          "velocity": 0.7559055118110236,
          "duration": 2.1786753812500006
        },
        {
          "name": "C5",
          "midi": 72,
          "time": 10.588230000000001,
          "velocity": 0.7559055118110236,
          "duration": 0.16691168124999933
        },
        {
          "name": "A#4",
          "midi": 70,
          "time": 10.7647005,
          "velocity": 0.7559055118110236,
          "duration": 0.16691168124999933
        },
        {
          "name": "C5",
          "midi": 72,
          "time": 10.941170999999999,
          "velocity": 0.7559055118110236,
          "duration": 0.16691168124999933
        },
        {
          "name": "A#4",
          "midi": 70,
          "time": 11.117641499999998,
          "velocity": 0.7559055118110236,
          "duration": 0.16691168124999933
        },
        {
          "name": "F4",
          "midi": 65,
          "time": 11.294111999999997,
          "velocity": 0.5039370078740157,
          "duration": 2.0110284062500003
        },
        {
          "name": "G#4",
          "midi": 68,
          "time": 11.294111999999997,
          "velocity": 0.5039370078740157,
          "duration": 2.0110284062500003
        },
        {
          "name": "C5",
          "midi": 72,
          "time": 11.294111999999997,
          "velocity": 0.5039370078740157,
          "duration": 2.0110284062500003
        },
        {
          "name": "C5",
          "midi": 72,
          "time": 13.411757999999997,
          "velocity": 0.5039370078740157,
          "duration": 0.16691168124999933
        },
        {
          "name": "A#4",
          "midi": 70,
          "time": 13.588228499999996,
          "velocity": 0.5039370078740157,
          "duration": 0.16691168124999933
        },
        {
          "name": "C5",
          "midi": 72,
          "time": 13.764698999999995,
          "velocity": 0.5039370078740157,
          "duration": 0.16691168124999933
        },
        {
          "name": "A#4",
          "midi": 70,
          "time": 13.941169499999994,
          "velocity": 0.5039370078740157,
          "duration": 0.16691168124999933
        },
        {
          "name": "D5",
          "midi": 74,
          "time": 14.117639999999993,
          "velocity": 0.5039370078740157,
          "duration": 0.3345586562499996
        },
        {
          "name": "A#4",
          "midi": 70,
          "time": 14.470580999999992,
          "velocity": 0.5039370078740157,
          "duration": 0.16691168124999933
        },
        {
          "name": "A#4",
          "midi": 70,
          "time": 14.647051499999991,
          "velocity": 0.5039370078740157,
          "duration": 0.3345586562499996
        },
        {
          "name": "C5",
          "midi": 72,
          "time": 14.99999249999999,
          "velocity": 0.5039370078740157,
          "duration": 0.16691168124999933
        },
        {
          "name": "D#4",
          "midi": 63,
          "time": 15.17646299999999,
          "velocity": 0.5039370078740157,
          "duration": 1.0051465562499988
        },
        {
          "name": "G4",
          "midi": 67,
          "time": 15.17646299999999,
          "velocity": 0.5039370078740157,
          "duration": 1.0051465562499988
        },
        {
          "name": "C5",
          "midi": 72,
          "time": 16.235285999999988,
          "velocity": 0.5039370078740157,
          "duration": 0.16691168124999933
        },
        {
          "name": "A#4",
          "midi": 70,
          "time": 16.41175649999999,
          "velocity": 0.5039370078740157,
          "duration": 0.16691168124999933
        },
        {
          "name": "C5",
          "midi": 72,
          "time": 16.58822699999999,
          "velocity": 0.5039370078740157,
          "duration": 0.16691168124999933
        },
        {
          "name": "A#4",
          "midi": 70,
          "time": 16.76469749999999,
          "velocity": 0.5039370078740157,
          "duration": 0.16691168124999933
        },
        {
          "name": "D5",
          "midi": 74,
          "time": 16.94116799999999,
          "velocity": 0.5039370078740157,
          "duration": 0.3345586562499996
        },
        {
          "name": "A#4",
          "midi": 70,
          "time": 17.29410899999999,
          "velocity": 0.5039370078740157,
          "duration": 0.16691168124999933
        },
        {
          "name": "A#4",
          "midi": 70,
          "time": 17.470579499999992,
          "velocity": 0.5039370078740157,
          "duration": 0.3345586562499996
        },
        {
          "name": "C5",
          "midi": 72,
          "time": 17.823520499999994,
          "velocity": 0.5039370078740157,
          "duration": 0.16691168124999933
        },
        {
          "name": "D#4",
          "midi": 63,
          "time": 17.999990999999994,
          "velocity": 0.5039370078740157,
          "duration": 1.0051465562500006
        },
        {
          "name": "G4",
          "midi": 67,
          "time": 17.999990999999994,
          "velocity": 0.5039370078740157,
          "duration": 1.0051465562500006
        },
        {
          "name": "A#4",
          "midi": 70,
          "time": 19.058813999999995,
          "velocity": 0.5039370078740157,
          "duration": 0.3345586562499996
        },
        {
          "name": "C5",
          "midi": 72,
          "time": 19.411754999999996,
          "velocity": 0.5039370078740157,
          "duration": 0.3345586562499996
        },
        {
          "name": "D4",
          "midi": 62,
          "time": 19.764695999999997,
          "velocity": 0.5039370078740157,
          "duration": 0.16691168124999933
        },
        {
          "name": "G4",
          "midi": 67,
          "time": 19.764695999999997,
          "velocity": 0.5039370078740157,
          "duration": 0.16691168124999933
        },
        {
          "name": "F4",
          "midi": 65,
          "time": 19.941166499999998,
          "velocity": 0.5039370078740157,
          "duration": 1.6757344562500016
        },
        {
          "name": "A#4",
          "midi": 70,
          "time": 21.7058715,
          "velocity": 0.5039370078740157,
          "duration": 0.16691168124999933
        },
        {
          "name": "C5",
          "midi": 72,
          "time": 21.882342,
          "velocity": 0.5039370078740157,
          "duration": 0.16691168124999933
        },
        {
          "name": "A#4",
          "midi": 70,
          "time": 22.058812500000002,
          "velocity": 0.5039370078740157,
          "duration": 0.16691168124999933
        },
        {
          "name": "C5",
          "midi": 72,
          "time": 22.235283000000003,
          "velocity": 0.5039370078740157,
          "duration": 0.16691168124999933
        },
        {
          "name": "A#4",
          "midi": 70,
          "time": 22.411753500000003,
          "velocity": 0.5039370078740157,
          "duration": 0.16691168124999933
        },
        {
          "name": "F4",
          "midi": 65,
          "time": 22.588224000000004,
          "velocity": 0.5039370078740157,
          "duration": 2.0110284062499986
        },
        {
          "name": "G#4",
          "midi": 68,
          "time": 22.588224000000004,
          "velocity": 0.5039370078740157,
          "duration": 2.0110284062499986
        },
        {
          "name": "C5",
          "midi": 72,
          "time": 22.588224000000004,
          "velocity": 0.5039370078740157,
          "duration": 2.0110284062499986
        },
        {
          "name": "F4",
          "midi": 65,
          "time": 24.70587,
          "velocity": 0.5039370078740157,
          "duration": 0.16691168124999933
        },
        {
          "name": "C5",
          "midi": 72,
          "time": 24.70587,
          "velocity": 0.5039370078740157,
          "duration": 0.16691168124999933
        },
        {
          "name": "A#4",
          "midi": 70,
          "time": 24.8823405,
          "velocity": 0.5039370078740157,
          "duration": 0.16691168124999933
        },
        {
          "name": "C5",
          "midi": 72,
          "time": 25.058811000000002,
          "velocity": 0.5039370078740157,
          "duration": 0.16691168124999933
        },
        {
          "name": "A#4",
          "midi": 70,
          "time": 25.235281500000003,
          "velocity": 0.5039370078740157,
          "duration": 0.16691168124999933
        },
        {
          "name": "D#4",
          "midi": 63,
          "time": 25.411752000000003,
          "velocity": 0.5039370078740157,
          "duration": 0.3345586562499996
        },
        {
          "name": "G4",
          "midi": 67,
          "time": 25.411752000000003,
          "velocity": 0.5039370078740157,
          "duration": 0.3345586562499996
        },
        {
          "name": "D5",
          "midi": 74,
          "time": 25.411752000000003,
          "velocity": 0.5039370078740157,
          "duration": 0.3345586562499996
        },
        {
          "name": "A#4",
          "midi": 70,
          "time": 25.764693000000005,
          "velocity": 0.5039370078740157,
          "duration": 0.16691168124999933
        },
        {
          "name": "D#4",
          "midi": 63,
          "time": 25.941163500000005,
          "velocity": 0.5039370078740157,
          "duration": 0.3345586562499996
        },
        {
          "name": "A#4",
          "midi": 70,
          "time": 25.941163500000005,
          "velocity": 0.5039370078740157,
          "duration": 0.3345586562499996
        },
        {
          "name": "C5",
          "midi": 72,
          "time": 26.294104500000007,
          "velocity": 0.5039370078740157,
          "duration": 0.16691168124999933
        },
        {
          "name": "D#4",
          "midi": 63,
          "time": 26.470575000000007,
          "velocity": 0.5039370078740157,
          "duration": 1.0051465562500006
        },
        {
          "name": "G4",
          "midi": 67,
          "time": 26.470575000000007,
          "velocity": 0.5039370078740157,
          "duration": 1.0051465562500006
        },
        {
          "name": "C5",
          "midi": 72,
          "time": 27.529398000000008,
          "velocity": 0.5039370078740157,
          "duration": 0.16691168124999933
        },
        {
          "name": "A#4",
          "midi": 70,
          "time": 27.70586850000001,
          "velocity": 0.5039370078740157,
          "duration": 0.16691168124999933
        },
        {
          "name": "C5",
          "midi": 72,
          "time": 27.88233900000001,
          "velocity": 0.5039370078740157,
          "duration": 0.16691168124999933
        },
        {
          "name": "A#4",
          "midi": 70,
          "time": 28.05880950000001,
          "velocity": 0.5039370078740157,
          "duration": 0.16691168124999933
        },
        {
          "name": "D5",
          "midi": 74,
          "time": 28.23528000000001,
          "velocity": 0.5039370078740157,
          "duration": 0.3345586562499996
        },
        {
          "name": "A#4",
          "midi": 70,
          "time": 28.58822100000001,
          "velocity": 0.5039370078740157,
          "duration": 0.16691168124999933
        },
        {
          "name": "A#4",
          "midi": 70,
          "time": 28.764691500000012,
          "velocity": 0.5039370078740157,
          "duration": 0.3345586562499996
        },
        {
          "name": "C5",
          "midi": 72,
          "time": 29.117632500000013,
          "velocity": 0.5039370078740157,
          "duration": 0.16691168124999933
        },
        {
          "name": "D#4",
          "midi": 63,
          "time": 29.294103000000014,
          "velocity": 0.5039370078740157,
          "duration": 1.0051465562500006
        },
        {
          "name": "G4",
          "midi": 67,
          "time": 29.294103000000014,
          "velocity": 0.5039370078740157,
          "duration": 1.0051465562500006
        },
        {
          "name": "A#4",
          "midi": 70,
          "time": 30.352926000000014,
          "velocity": 0.5039370078740157,
          "duration": 0.3345586562499996
        },
        {
          "name": "C5",
          "midi": 72,
          "time": 30.705867000000016,
          "velocity": 0.5039370078740157,
          "duration": 0.3345586562499996
        },
        {
          "name": "D4",
          "midi": 62,
          "time": 31.058808000000017,
          "velocity": 0.5039370078740157,
          "duration": 0.16691168124999933
        },
        {
          "name": "G4",
          "midi": 67,
          "time": 31.058808000000017,
          "velocity": 0.5039370078740157,
          "duration": 0.16691168124999933
        },
        {
          "name": "F4",
          "midi": 65,
          "time": 31.235278500000017,
          "velocity": 0.5039370078740157,
          "duration": 1.6757344562500016
        },
        {
          "name": "A#4",
          "midi": 70,
          "time": 32.99998350000002,
          "velocity": 0.5039370078740157,
          "duration": 0.16691168124999933
        },
        {
          "name": "C5",
          "midi": 72,
          "time": 33.17645400000002,
          "velocity": 0.5039370078740157,
          "duration": 0.16691168124999933
        },
        {
          "name": "A#4",
          "midi": 70,
          "time": 33.35292450000002,
          "velocity": 0.5039370078740157,
          "duration": 0.16691168124999933
        },
        {
          "name": "C5",
          "midi": 72,
          "time": 33.52939500000002,
          "velocity": 0.5039370078740157,
          "duration": 0.16691168124999933
        },
        {
          "name": "A#4",
          "midi": 70,
          "time": 33.70586550000002,
          "velocity": 0.5039370078740157,
          "duration": 0.5022056312499998
        },
        {
          "name": "C5",
          "midi": 72,
          "time": 34.235277000000025,
          "velocity": 0.6299212598425197,
          "duration": 0.33455865625000314
        },
        {
          "name": "C5",
          "midi": 72,
          "time": 34.588218000000026,
          "velocity": 0.6299212598425197,
          "duration": 0.16691168124999933
        },
        {
          "name": "D#5",
          "midi": 75,
          "time": 34.588218000000026,
          "velocity": 0.6299212598425197,
          "duration": 0.16691168124999933
        },
        {
          "name": "C5",
          "midi": 72,
          "time": 34.76468850000003,
          "velocity": 0.6299212598425197,
          "duration": 0.33455865625000314
        },
        {
          "name": "F5",
          "midi": 77,
          "time": 34.76468850000003,
          "velocity": 0.6299212598425197,
          "duration": 0.33455865625000314
        },
        {
          "name": "C5",
          "midi": 72,
          "time": 35.11762950000003,
          "velocity": 0.6299212598425197,
          "duration": 0.33455865625000314
        },
        {
          "name": "G5",
          "midi": 79,
          "time": 35.11762950000003,
          "velocity": 0.6299212598425197,
          "duration": 0.33455865625000314
        },
        {
          "name": "C5",
          "midi": 72,
          "time": 35.47057050000003,
          "velocity": 0.6299212598425197,
          "duration": 0.33455865625000314
        },
        {
          "name": "C5",
          "midi": 72,
          "time": 35.82351150000003,
          "velocity": 0.6299212598425197,
          "duration": 0.33455865625000314
        },
        {
          "name": "D#5",
          "midi": 75,
          "time": 35.82351150000003,
          "velocity": 0.6299212598425197,
          "duration": 0.33455865625000314
        },
        {
          "name": "C5",
          "midi": 72,
          "time": 36.17645250000003,
          "velocity": 0.6299212598425197,
          "duration": 0.5022056312499998
        },
        {
          "name": "F5",
          "midi": 77,
          "time": 36.17645250000003,
          "velocity": 0.6299212598425197,
          "duration": 0.5022056312499998
        },
        {
          "name": "C5",
          "midi": 72,
          "time": 36.705864000000034,
          "velocity": 0.6299212598425197,
          "duration": 0.33455865625000314
        },
        {
          "name": "C5",
          "midi": 72,
          "time": 37.058805000000035,
          "velocity": 0.6299212598425197,
          "duration": 0.33455865625000314
        },
        {
          "name": "C5",
          "midi": 72,
          "time": 37.411746000000036,
          "velocity": 0.6299212598425197,
          "duration": 0.16691168124999933
        },
        {
          "name": "D#5",
          "midi": 75,
          "time": 37.411746000000036,
          "velocity": 0.6299212598425197,
          "duration": 0.16691168124999933
        },
        {
          "name": "C5",
          "midi": 72,
          "time": 37.58821650000004,
          "velocity": 0.6299212598425197,
          "duration": 0.33455865625000314
        },
        {
          "name": "F5",
          "midi": 77,
          "time": 37.58821650000004,
          "velocity": 0.6299212598425197,
          "duration": 0.33455865625000314
        },
        {
          "name": "C5",
          "midi": 72,
          "time": 37.94115750000004,
          "velocity": 0.6299212598425197,
          "duration": 0.33455865625000314
        },
        {
          "name": "G5",
          "midi": 79,
          "time": 37.94115750000004,
          "velocity": 0.6299212598425197,
          "duration": 0.33455865625000314
        },
        {
          "name": "C5",
          "midi": 72,
          "time": 38.29409850000004,
          "velocity": 0.6299212598425197,
          "duration": 0.33455865625000314
        },
        {
          "name": "C5",
          "midi": 72,
          "time": 38.64703950000004,
          "velocity": 0.6299212598425197,
          "duration": 0.33455865625000314
        },
        {
          "name": "D#5",
          "midi": 75,
          "time": 38.64703950000004,
          "velocity": 0.6299212598425197,
          "duration": 0.33455865625000314
        },
        {
          "name": "C5",
          "midi": 72,
          "time": 38.99998050000004,
          "velocity": 0.6299212598425197,
          "duration": 0.5022056312499998
        },
        {
          "name": "F5",
          "midi": 77,
          "time": 38.99998050000004,
          "velocity": 0.6299212598425197,
          "duration": 0.5022056312499998
        },
        {
          "name": "A#4",
          "midi": 70,
          "time": 39.529392000000044,
          "velocity": 0.6299212598425197,
          "duration": 0.33455865625000314
        },
        {
          "name": "C5",
          "midi": 72,
          "time": 39.882333000000045,
          "velocity": 0.6299212598425197,
          "duration": 0.33455865625000314
        },
        {
          "name": "D#5",
          "midi": 75,
          "time": 40.23527400000005,
          "velocity": 0.6299212598425197,
          "duration": 0.16691168124999933
        },
        {
          "name": "F5",
          "midi": 77,
          "time": 40.41174450000005,
          "velocity": 0.6299212598425197,
          "duration": 0.33455865625000314
        },
        {
          "name": "G5",
          "midi": 79,
          "time": 40.76468550000005,
          "velocity": 0.6299212598425197,
          "duration": 0.33455865625000314
        },
        {
          "name": "C5",
          "midi": 72,
          "time": 41.11762650000005,
          "velocity": 0.6299212598425197,
          "duration": 0.33455865625000314
        },
        {
          "name": "D#5",
          "midi": 75,
          "time": 41.47056750000005,
          "velocity": 0.6299212598425197,
          "duration": 0.33455865625000314
        },
        {
          "name": "F5",
          "midi": 77,
          "time": 41.82350850000005,
          "velocity": 0.6299212598425197,
          "duration": 0.33455865625000314
        },
        {
          "name": "D5",
          "midi": 74,
          "time": 42.176449500000054,
          "velocity": 0.6299212598425197,
          "duration": 0.16691168124999933
        },
        {
          "name": "A#4",
          "midi": 70,
          "time": 42.352920000000054,
          "velocity": 0.6299212598425197,
          "duration": 0.6698526062499965
        },
        {
          "name": "D5",
          "midi": 74,
          "time": 42.352920000000054,
          "velocity": 0.6299212598425197,
          "duration": 0.6698526062499965
        },
        {
          "name": "C5",
          "midi": 72,
          "time": 43.05880200000005,
          "velocity": 0.6299212598425197,
          "duration": 0.6698526062499965
        },
        {
          "name": "A#4",
          "midi": 70,
          "time": 43.764684000000045,
          "velocity": 0.6299212598425197,
          "duration": 0.5022056312499998
        },
        {
          "name": "A#4",
          "midi": 70,
          "time": 44.29409550000005,
          "velocity": 0.7559055118110236,
          "duration": 0.33455865625000314
        },
        {
          "name": "A#5",
          "midi": 82,
          "time": 44.29409550000005,
          "velocity": 0.7559055118110236,
          "duration": 0.33455865625000314
        },
        {
          "name": "D#5",
          "midi": 75,
          "time": 44.64703650000005,
          "velocity": 0.7559055118110236,
          "duration": 0.5022056312499998
        },
        {
          "name": "G#4",
          "midi": 68,
          "time": 45.17644800000005,
          "velocity": 0.7559055118110236,
          "duration": 2.1786753812500024
        },
        {
          "name": "C5",
          "midi": 72,
          "time": 45.17644800000005,
          "velocity": 0.7559055118110236,
          "duration": 2.1786753812500024
        },
        {
          "name": "F5",
          "midi": 77,
          "time": 45.17644800000005,
          "velocity": 0.7559055118110236,
          "duration": 2.1786753812500024
        },
        {
          "name": "G#4",
          "midi": 68,
          "time": 47.47056450000005,
          "velocity": 0.7559055118110236,
          "duration": 0.16691168124999933
        },
        {
          "name": "C5",
          "midi": 72,
          "time": 47.47056450000005,
          "velocity": 0.7559055118110236,
          "duration": 0.16691168124999933
        },
        {
          "name": "F5",
          "midi": 77,
          "time": 47.47056450000005,
          "velocity": 0.7559055118110236,
          "duration": 0.16691168124999933
        },
        {
          "name": "G#4",
          "midi": 68,
          "time": 47.64703500000005,
          "velocity": 0.7559055118110236,
          "duration": 0.33455865625000314
        },
        {
          "name": "C5",
          "midi": 72,
          "time": 47.64703500000005,
          "velocity": 0.7559055118110236,
          "duration": 0.33455865625000314
        },
        {
          "name": "G5",
          "midi": 79,
          "time": 47.64703500000005,
          "velocity": 0.7559055118110236,
          "duration": 0.33455865625000314
        },
        {
          "name": "G4",
          "midi": 67,
          "time": 47.99997600000005,
          "velocity": 0.7559055118110236,
          "duration": 0.33455865625000314
        },
        {
          "name": "C5",
          "midi": 72,
          "time": 47.99997600000005,
          "velocity": 0.7559055118110236,
          "duration": 0.33455865625000314
        },
        {
          "name": "F5",
          "midi": 77,
          "time": 47.99997600000005,
          "velocity": 0.7559055118110236,
          "duration": 0.33455865625000314
        },
        {
          "name": "G4",
          "midi": 67,
          "time": 48.352917000000055,
          "velocity": 0.7559055118110236,
          "duration": 0.16691168124999933
        },
        {
          "name": "C5",
          "midi": 72,
          "time": 48.352917000000055,
          "velocity": 0.7559055118110236,
          "duration": 0.16691168124999933
        },
        {
          "name": "D#5",
          "midi": 75,
          "time": 48.352917000000055,
          "velocity": 0.7559055118110236,
          "duration": 0.16691168124999933
        },
        {
          "name": "G4",
          "midi": 67,
          "time": 48.529387500000055,
          "velocity": 0.7559055118110236,
          "duration": 0.33455865625000314
        },
        {
          "name": "C5",
          "midi": 72,
          "time": 48.529387500000055,
          "velocity": 0.7559055118110236,
          "duration": 0.33455865625000314
        },
        {
          "name": "D#5",
          "midi": 75,
          "time": 48.529387500000055,
          "velocity": 0.7559055118110236,
          "duration": 0.33455865625000314
        },
        {
          "name": "G4",
          "midi": 67,
          "time": 48.88232850000006,
          "velocity": 0.7559055118110236,
          "duration": 0.33455865625000314
        },
        {
          "name": "C5",
          "midi": 72,
          "time": 48.88232850000006,
          "velocity": 0.7559055118110236,
          "duration": 0.33455865625000314
        },
        {
          "name": "G4",
          "midi": 67,
          "time": 49.23526950000006,
          "velocity": 0.7559055118110236,
          "duration": 0.33455865625000314
        },
        {
          "name": "C5",
          "midi": 72,
          "time": 49.23526950000006,
          "velocity": 0.7559055118110236,
          "duration": 0.33455865625000314
        },
        {
          "name": "D#5",
          "midi": 75,
          "time": 49.23526950000006,
          "velocity": 0.7559055118110236,
          "duration": 0.33455865625000314
        },
        {
          "name": "G4",
          "midi": 67,
          "time": 49.58821050000006,
          "velocity": 0.7559055118110236,
          "duration": 0.6698526062499965
        },
        {
          "name": "C5",
          "midi": 72,
          "time": 49.58821050000006,
          "velocity": 0.7559055118110236,
          "duration": 0.6698526062499965
        },
        {
          "name": "G4",
          "midi": 67,
          "time": 50.294092500000055,
          "velocity": 0.7559055118110236,
          "duration": 0.5022056312499998
        },
        {
          "name": "C5",
          "midi": 72,
          "time": 50.294092500000055,
          "velocity": 0.7559055118110236,
          "duration": 0.5022056312499998
        },
        {
          "name": "D#5",
          "midi": 75,
          "time": 50.294092500000055,
          "velocity": 0.7559055118110236,
          "duration": 0.5022056312499998
        },
        {
          "name": "A#4",
          "midi": 70,
          "time": 50.82350400000006,
          "velocity": 0.7559055118110236,
          "duration": 0.16691168124999933
        },
        {
          "name": "D#5",
          "midi": 75,
          "time": 50.82350400000006,
          "velocity": 0.7559055118110236,
          "duration": 0.16691168124999933
        },
        {
          "name": "A#5",
          "midi": 82,
          "time": 50.82350400000006,
          "velocity": 0.7559055118110236,
          "duration": 0.16691168124999933
        },
        {
          "name": "A#4",
          "midi": 70,
          "time": 50.99997450000006,
          "velocity": 0.7559055118110236,
          "duration": 0.33455865625000314
        },
        {
          "name": "D#5",
          "midi": 75,
          "time": 50.99997450000006,
          "velocity": 0.7559055118110236,
          "duration": 0.33455865625000314
        },
        {
          "name": "G5",
          "midi": 79,
          "time": 50.99997450000006,
          "velocity": 0.7559055118110236,
          "duration": 0.33455865625000314
        },
        {
          "name": "A#4",
          "midi": 70,
          "time": 51.35291550000006,
          "velocity": 0.7559055118110236,
          "duration": 0.33455865625000314
        },
        {
          "name": "F5",
          "midi": 77,
          "time": 51.35291550000006,
          "velocity": 0.7559055118110236,
          "duration": 0.33455865625000314
        },
        {
          "name": "A#4",
          "midi": 70,
          "time": 51.70585650000006,
          "velocity": 0.7559055118110236,
          "duration": 0.5022056312499998
        },
        {
          "name": "D#5",
          "midi": 75,
          "time": 51.70585650000006,
          "velocity": 0.7559055118110236,
          "duration": 0.5022056312499998
        },
        {
          "name": "A#4",
          "midi": 70,
          "time": 52.23526800000006,
          "velocity": 0.7559055118110236,
          "duration": 0.16691168124999933
        },
        {
          "name": "D#5",
          "midi": 75,
          "time": 52.23526800000006,
          "velocity": 0.7559055118110236,
          "duration": 0.16691168124999933
        },
        {
          "name": "A#5",
          "midi": 82,
          "time": 52.23526800000006,
          "velocity": 0.7559055118110236,
          "duration": 0.16691168124999933
        },
        {
          "name": "A#4",
          "midi": 70,
          "time": 52.41173850000006,
          "velocity": 0.7559055118110236,
          "duration": 0.33455865625000314
        },
        {
          "name": "D#5",
          "midi": 75,
          "time": 52.41173850000006,
          "velocity": 0.7559055118110236,
          "duration": 0.33455865625000314
        },
        {
          "name": "G5",
          "midi": 79,
          "time": 52.41173850000006,
          "velocity": 0.7559055118110236,
          "duration": 0.33455865625000314
        },
        {
          "name": "A#4",
          "midi": 70,
          "time": 52.764679500000064,
          "velocity": 0.7559055118110236,
          "duration": 0.33455865625000314
        },
        {
          "name": "F5",
          "midi": 77,
          "time": 52.764679500000064,
          "velocity": 0.7559055118110236,
          "duration": 0.33455865625000314
        },
        {
          "name": "A#4",
          "midi": 70,
          "time": 53.117620500000065,
          "velocity": 0.7559055118110236,
          "duration": 0.33455865625000314
        },
        {
          "name": "D#5",
          "midi": 75,
          "time": 53.117620500000065,
          "velocity": 0.7559055118110236,
          "duration": 0.33455865625000314
        },
        {
          "name": "A#4",
          "midi": 70,
          "time": 53.470561500000066,
          "velocity": 0.7559055118110236,
          "duration": 0.16691168124999933
        },
        {
          "name": "D5",
          "midi": 74,
          "time": 53.470561500000066,
          "velocity": 0.7559055118110236,
          "duration": 0.16691168124999933
        },
        {
          "name": "F5",
          "midi": 77,
          "time": 53.470561500000066,
          "velocity": 0.7559055118110236,
          "duration": 0.16691168124999933
        },
        {
          "name": "A#4",
          "midi": 70,
          "time": 53.99997300000007,
          "velocity": 0.7559055118110236,
          "duration": 1.5080874812500014
        },
        {
          "name": "D5",
          "midi": 74,
          "time": 53.99997300000007,
          "velocity": 0.7559055118110236,
          "duration": 1.5080874812500014
        },
        {
          "name": "F5",
          "midi": 77,
          "time": 53.99997300000007,
          "velocity": 0.7559055118110236,
          "duration": 1.5080874812500014
        },
        {
          "name": "A#4",
          "midi": 70,
          "time": 55.58820750000007,
          "velocity": 0.7559055118110236,
          "duration": 0.33455865625000314
        },
        {
          "name": "G5",
          "midi": 79,
          "time": 55.58820750000007,
          "velocity": 0.7559055118110236,
          "duration": 0.33455865625000314
        },
        {
          "name": "A#4",
          "midi": 70,
          "time": 55.94114850000007,
          "velocity": 0.7559055118110236,
          "duration": 0.33455865625000314
        },
        {
          "name": "D#5",
          "midi": 75,
          "time": 55.94114850000007,
          "velocity": 0.7559055118110236,
          "duration": 0.33455865625000314
        },
        {
          "name": "G#4",
          "midi": 68,
          "time": 56.47056000000007,
          "velocity": 0.7559055118110236,
          "duration": 2.1786753812500024
        },
        {
          "name": "C5",
          "midi": 72,
          "time": 56.47056000000007,
          "velocity": 0.7559055118110236,
          "duration": 2.1786753812500024
        },
        {
          "name": "F5",
          "midi": 77,
          "time": 56.47056000000007,
          "velocity": 0.7559055118110236,
          "duration": 2.1786753812500024
        },
        {
          "name": "G#4",
          "midi": 68,
          "time": 58.76467650000007,
          "velocity": 0.7559055118110236,
          "duration": 0.16691168124999933
        },
        {
          "name": "C5",
          "midi": 72,
          "time": 58.76467650000007,
          "velocity": 0.7559055118110236,
          "duration": 0.16691168124999933
        },
        {
          "name": "F5",
          "midi": 77,
          "time": 58.76467650000007,
          "velocity": 0.7559055118110236,
          "duration": 0.16691168124999933
        },
        {
          "name": "G#4",
          "midi": 68,
          "time": 58.94114700000007,
          "velocity": 0.7559055118110236,
          "duration": 0.33455865625000314
        },
        {
          "name": "C5",
          "midi": 72,
          "time": 58.94114700000007,
          "velocity": 0.7559055118110236,
          "duration": 0.33455865625000314
        },
        {
          "name": "G5",
          "midi": 79,
          "time": 58.94114700000007,
          "velocity": 0.7559055118110236,
          "duration": 0.33455865625000314
        },
        {
          "name": "G4",
          "midi": 67,
          "time": 59.29408800000007,
          "velocity": 0.7559055118110236,
          "duration": 0.33455865625000314
        },
        {
          "name": "C5",
          "midi": 72,
          "time": 59.29408800000007,
          "velocity": 0.7559055118110236,
          "duration": 0.33455865625000314
        },
        {
          "name": "F5",
          "midi": 77,
          "time": 59.29408800000007,
          "velocity": 0.7559055118110236,
          "duration": 0.33455865625000314
        },
        {
          "name": "G4",
          "midi": 67,
          "time": 59.647029000000074,
          "velocity": 0.7559055118110236,
          "duration": 0.16691168124999933
        },
        {
          "name": "C5",
          "midi": 72,
          "time": 59.647029000000074,
          "velocity": 0.7559055118110236,
          "duration": 0.16691168124999933
        },
        {
          "name": "D#5",
          "midi": 75,
          "time": 59.647029000000074,
          "velocity": 0.7559055118110236,
          "duration": 0.16691168124999933
        },
        {
          "name": "G4",
          "midi": 67,
          "time": 59.823499500000075,
          "velocity": 0.7559055118110236,
          "duration": 0.33455865625000314
        },
        {
          "name": "C5",
          "midi": 72,
          "time": 59.823499500000075,
          "velocity": 0.7559055118110236,
          "duration": 0.33455865625000314
        },
        {
          "name": "D#5",
          "midi": 75,
          "time": 59.823499500000075,
          "velocity": 0.7559055118110236,
          "duration": 0.33455865625000314
        },
        {
          "name": "G4",
          "midi": 67,
          "time": 60.176440500000076,
          "velocity": 0.7559055118110236,
          "duration": 0.33455865625000314
        },
        {
          "name": "C5",
          "midi": 72,
          "time": 60.176440500000076,
          "velocity": 0.7559055118110236,
          "duration": 0.33455865625000314
        },
        {
          "name": "G4",
          "midi": 67,
          "time": 60.52938150000008,
          "velocity": 0.7559055118110236,
          "duration": 0.33455865625000314
        },
        {
          "name": "C5",
          "midi": 72,
          "time": 60.52938150000008,
          "velocity": 0.7559055118110236,
          "duration": 0.33455865625000314
        },
        {
          "name": "D#5",
          "midi": 75,
          "time": 60.52938150000008,
          "velocity": 0.7559055118110236,
          "duration": 0.33455865625000314
        },
        {
          "name": "G4",
          "midi": 67,
          "time": 60.88232250000008,
          "velocity": 0.7559055118110236,
          "duration": 0.6698526062499965
        },
        {
          "name": "C5",
          "midi": 72,
          "time": 60.88232250000008,
          "velocity": 0.7559055118110236,
          "duration": 0.6698526062499965
        },
        {
          "name": "G4",
          "midi": 67,
          "time": 61.588204500000074,
          "velocity": 0.7559055118110236,
          "duration": 0.5022056312499998
        },
        {
          "name": "C5",
          "midi": 72,
          "time": 61.588204500000074,
          "velocity": 0.7559055118110236,
          "duration": 0.5022056312499998
        },
        {
          "name": "D#5",
          "midi": 75,
          "time": 61.588204500000074,
          "velocity": 0.7559055118110236,
          "duration": 0.5022056312499998
        },
        {
          "name": "A#4",
          "midi": 70,
          "time": 62.117616000000076,
          "velocity": 0.7559055118110236,
          "duration": 0.16691168124999933
        },
        {
          "name": "D#5",
          "midi": 75,
          "time": 62.117616000000076,
          "velocity": 0.7559055118110236,
          "duration": 0.16691168124999933
        },
        {
          "name": "A#5",
          "midi": 82,
          "time": 62.117616000000076,
          "velocity": 0.7559055118110236,
          "duration": 0.16691168124999933
        },
        {
          "name": "A#4",
          "midi": 70,
          "time": 62.29408650000008,
          "velocity": 0.7559055118110236,
          "duration": 0.33455865625000314
        },
        {
          "name": "D#5",
          "midi": 75,
          "time": 62.29408650000008,
          "velocity": 0.7559055118110236,
          "duration": 0.33455865625000314
        },
        {
          "name": "G5",
          "midi": 79,
          "time": 62.29408650000008,
          "velocity": 0.7559055118110236,
          "duration": 0.33455865625000314
        },
        {
          "name": "A#4",
          "midi": 70,
          "time": 62.64702750000008,
          "velocity": 0.7559055118110236,
          "duration": 0.33455865625000314
        },
        {
          "name": "F5",
          "midi": 77,
          "time": 62.64702750000008,
          "velocity": 0.7559055118110236,
          "duration": 0.33455865625000314
        },
        {
          "name": "A#4",
          "midi": 70,
          "time": 62.99996850000008,
          "velocity": 0.7559055118110236,
          "duration": 0.5022056312499998
        },
        {
          "name": "D#5",
          "midi": 75,
          "time": 62.99996850000008,
          "velocity": 0.7559055118110236,
          "duration": 0.5022056312499998
        },
        {
          "name": "A#4",
          "midi": 70,
          "time": 63.52938000000008,
          "velocity": 0.7559055118110236,
          "duration": 0.16691168124999933
        },
        {
          "name": "D#5",
          "midi": 75,
          "time": 63.52938000000008,
          "velocity": 0.7559055118110236,
          "duration": 0.16691168124999933
        },
        {
          "name": "A#5",
          "midi": 82,
          "time": 63.52938000000008,
          "velocity": 0.7559055118110236,
          "duration": 0.16691168124999933
        },
        {
          "name": "A#4",
          "midi": 70,
          "time": 63.70585050000008,
          "velocity": 0.7559055118110236,
          "duration": 0.33455865624999603
        },
        {
          "name": "D#5",
          "midi": 75,
          "time": 63.70585050000008,
          "velocity": 0.7559055118110236,
          "duration": 0.33455865624999603
        },
        {
          "name": "G5",
          "midi": 79,
          "time": 63.70585050000008,
          "velocity": 0.7559055118110236,
          "duration": 0.33455865624999603
        },
        {
          "name": "A#4",
          "midi": 70,
          "time": 64.05879150000008,
          "velocity": 0.7559055118110236,
          "duration": 0.33455865624999603
        },
        {
          "name": "F5",
          "midi": 77,
          "time": 64.05879150000008,
          "velocity": 0.7559055118110236,
          "duration": 0.33455865624999603
        },
        {
          "name": "A#4",
          "midi": 70,
          "time": 64.41173250000008,
          "velocity": 0.7559055118110236,
          "duration": 0.33455865624999603
        },
        {
          "name": "D#5",
          "midi": 75,
          "time": 64.41173250000008,
          "velocity": 0.7559055118110236,
          "duration": 0.33455865624999603
        },
        {
          "name": "A#4",
          "midi": 70,
          "time": 64.76467350000009,
          "velocity": 0.7559055118110236,
          "duration": 0.6698526062500036
        },
        {
          "name": "D5",
          "midi": 74,
          "time": 64.76467350000009,
          "velocity": 0.7559055118110236,
          "duration": 0.6698526062500036
        },
        {
          "name": "F5",
          "midi": 77,
          "time": 64.76467350000009,
          "velocity": 0.7559055118110236,
          "duration": 0.6698526062500036
        },
        {
          "name": "A#4",
          "midi": 70,
          "time": 65.47055550000009,
          "velocity": 0.7559055118110236,
          "duration": 2.1786753812500024
        },
        {
          "name": "D5",
          "midi": 74,
          "time": 65.47055550000009,
          "velocity": 0.7559055118110236,
          "duration": 2.1786753812500024
        },
        {
          "name": "F5",
          "midi": 77,
          "time": 65.47055550000009,
          "velocity": 0.7559055118110236,
          "duration": 2.1786753812500024
        },
        {
          "name": "G#4",
          "midi": 68,
          "time": 67.76467200000009,
          "velocity": 0.7559055118110236,
          "duration": 0.6698526062500036
        },
        {
          "name": "C5",
          "midi": 72,
          "time": 67.76467200000009,
          "velocity": 0.7559055118110236,
          "duration": 0.6698526062500036
        },
        {
          "name": "F5",
          "midi": 77,
          "time": 67.76467200000009,
          "velocity": 0.7559055118110236,
          "duration": 0.6698526062500036
        },
        {
          "name": "G#4",
          "midi": 68,
          "time": 68.47055400000009,
          "velocity": 0.7559055118110236,
          "duration": 0.502205631250007
        },
        {
          "name": "C5",
          "midi": 72,
          "time": 68.47055400000009,
          "velocity": 0.7559055118110236,
          "duration": 0.502205631250007
        },
        {
          "name": "F5",
          "midi": 77,
          "time": 68.47055400000009,
          "velocity": 0.7559055118110236,
          "duration": 0.502205631250007
        },
        {
          "name": "G#4",
          "midi": 68,
          "time": 68.9999655000001,
          "velocity": 0.7559055118110236,
          "duration": 0.16691168124999933
        },
        {
          "name": "C5",
          "midi": 72,
          "time": 68.9999655000001,
          "velocity": 0.7559055118110236,
          "duration": 0.16691168124999933
        },
        {
          "name": "D#5",
          "midi": 75,
          "time": 68.9999655000001,
          "velocity": 0.7559055118110236,
          "duration": 0.16691168124999933
        },
        {
          "name": "G#4",
          "midi": 68,
          "time": 69.1764360000001,
          "velocity": 0.7559055118110236,
          "duration": 0.16691168124999933
        },
        {
          "name": "C5",
          "midi": 72,
          "time": 69.1764360000001,
          "velocity": 0.7559055118110236,
          "duration": 0.16691168124999933
        },
        {
          "name": "F5",
          "midi": 77,
          "time": 69.1764360000001,
          "velocity": 0.7559055118110236,
          "duration": 0.16691168124999933
        },
        {
          "name": "G#4",
          "midi": 68,
          "time": 69.35290650000009,
          "velocity": 0.7559055118110236,
          "duration": 0.33455865624999603
        },
        {
          "name": "C5",
          "midi": 72,
          "time": 69.35290650000009,
          "velocity": 0.7559055118110236,
          "duration": 0.33455865624999603
        },
        {
          "name": "G5",
          "midi": 79,
          "time": 69.35290650000009,
          "velocity": 0.7559055118110236,
          "duration": 0.33455865624999603
        },
        {
          "name": "G#4",
          "midi": 68,
          "time": 69.70584750000009,
          "velocity": 0.7559055118110236,
          "duration": 0.33455865624999603
        },
        {
          "name": "C5",
          "midi": 72,
          "time": 69.70584750000009,
          "velocity": 0.7559055118110236,
          "duration": 0.33455865624999603
        },
        {
          "name": "G#4",
          "midi": 68,
          "time": 70.05878850000009,
          "velocity": 0.7559055118110236,
          "duration": 0.502205631250007
        },
        {
          "name": "C5",
          "midi": 72,
          "time": 70.05878850000009,
          "velocity": 0.7559055118110236,
          "duration": 0.502205631250007
        },
        {
          "name": "D#5",
          "midi": 75,
          "time": 70.05878850000009,
          "velocity": 0.7559055118110236,
          "duration": 0.502205631250007
        },
        {
          "name": "G4",
          "midi": 67,
          "time": 70.5882000000001,
          "velocity": 0.7559055118110236,
          "duration": 0.6698526062500036
        },
        {
          "name": "C5",
          "midi": 72,
          "time": 70.5882000000001,
          "velocity": 0.7559055118110236,
          "duration": 0.6698526062500036
        },
        {
          "name": "F5",
          "midi": 77,
          "time": 70.5882000000001,
          "velocity": 0.7559055118110236,
          "duration": 0.6698526062500036
        },
        {
          "name": "G4",
          "midi": 67,
          "time": 71.2940820000001,
          "velocity": 0.7559055118110236,
          "duration": 0.502205631250007
        },
        {
          "name": "C5",
          "midi": 72,
          "time": 71.2940820000001,
          "velocity": 0.7559055118110236,
          "duration": 0.502205631250007
        },
        {
          "name": "F5",
          "midi": 77,
          "time": 71.2940820000001,
          "velocity": 0.7559055118110236,
          "duration": 0.502205631250007
        },
        {
          "name": "G4",
          "midi": 67,
          "time": 71.82349350000011,
          "velocity": 0.7559055118110236,
          "duration": 0.16691168124999933
        },
        {
          "name": "C5",
          "midi": 72,
          "time": 71.82349350000011,
          "velocity": 0.7559055118110236,
          "duration": 0.16691168124999933
        },
        {
          "name": "D#5",
          "midi": 75,
          "time": 71.82349350000011,
          "velocity": 0.7559055118110236,
          "duration": 0.16691168124999933
        },
        {
          "name": "G4",
          "midi": 67,
          "time": 71.9999640000001,
          "velocity": 0.7559055118110236,
          "duration": 0.16691168124999933
        },
        {
          "name": "C5",
          "midi": 72,
          "time": 71.9999640000001,
          "velocity": 0.7559055118110236,
          "duration": 0.16691168124999933
        },
        {
          "name": "F5",
          "midi": 77,
          "time": 71.9999640000001,
          "velocity": 0.7559055118110236,
          "duration": 0.16691168124999933
        },
        {
          "name": "G4",
          "midi": 67,
          "time": 72.1764345000001,
          "velocity": 0.7559055118110236,
          "duration": 0.33455865624999603
        },
        {
          "name": "C5",
          "midi": 72,
          "time": 72.1764345000001,
          "velocity": 0.7559055118110236,
          "duration": 0.33455865624999603
        },
        {
          "name": "G5",
          "midi": 79,
          "time": 72.1764345000001,
          "velocity": 0.7559055118110236,
          "duration": 0.33455865624999603
        },
        {
          "name": "G4",
          "midi": 67,
          "time": 72.5293755000001,
          "velocity": 0.7559055118110236,
          "duration": 0.33455865624999603
        },
        {
          "name": "C5",
          "midi": 72,
          "time": 72.5293755000001,
          "velocity": 0.7559055118110236,
          "duration": 0.33455865624999603
        },
        {
          "name": "G4",
          "midi": 67,
          "time": 72.8823165000001,
          "velocity": 0.7559055118110236,
          "duration": 0.502205631250007
        },
        {
          "name": "C5",
          "midi": 72,
          "time": 72.8823165000001,
          "velocity": 0.7559055118110236,
          "duration": 0.502205631250007
        },
        {
          "name": "D#5",
          "midi": 75,
          "time": 72.8823165000001,
          "velocity": 0.7559055118110236,
          "duration": 0.502205631250007
        },
        {
          "name": "A#4",
          "midi": 70,
          "time": 73.41172800000011,
          "velocity": 0.7559055118110236,
          "duration": 0.16691168124999933
        },
        {
          "name": "D#5",
          "midi": 75,
          "time": 73.41172800000011,
          "velocity": 0.7559055118110236,
          "duration": 0.16691168124999933
        },
        {
          "name": "A#5",
          "midi": 82,
          "time": 73.41172800000011,
          "velocity": 0.7559055118110236,
          "duration": 0.16691168124999933
        },
        {
          "name": "A#4",
          "midi": 70,
          "time": 73.5881985000001,
          "velocity": 0.7559055118110236,
          "duration": 0.33455865624999603
        },
        {
          "name": "D#5",
          "midi": 75,
          "time": 73.5881985000001,
          "velocity": 0.7559055118110236,
          "duration": 0.33455865624999603
        },
        {
          "name": "G5",
          "midi": 79,
          "time": 73.5881985000001,
          "velocity": 0.7559055118110236,
          "duration": 0.33455865624999603
        },
        {
          "name": "A#4",
          "midi": 70,
          "time": 73.9411395000001,
          "velocity": 0.7559055118110236,
          "duration": 0.33455865624999603
        },
        {
          "name": "F5",
          "midi": 77,
          "time": 73.9411395000001,
          "velocity": 0.7559055118110236,
          "duration": 0.33455865624999603
        },
        {
          "name": "A#4",
          "midi": 70,
          "time": 74.2940805000001,
          "velocity": 0.7559055118110236,
          "duration": 0.502205631250007
        },
        {
          "name": "D#5",
          "midi": 75,
          "time": 74.2940805000001,
          "velocity": 0.7559055118110236,
          "duration": 0.502205631250007
        },
        {
          "name": "A#4",
          "midi": 70,
          "time": 74.82349200000012,
          "velocity": 0.7559055118110236,
          "duration": 0.16691168124999933
        },
        {
          "name": "D#5",
          "midi": 75,
          "time": 74.82349200000012,
          "velocity": 0.7559055118110236,
          "duration": 0.16691168124999933
        },
        {
          "name": "A#5",
          "midi": 82,
          "time": 74.82349200000012,
          "velocity": 0.7559055118110236,
          "duration": 0.16691168124999933
        },
        {
          "name": "A#4",
          "midi": 70,
          "time": 74.99996250000011,
          "velocity": 0.7559055118110236,
          "duration": 0.33455865624999603
        },
        {
          "name": "D#5",
          "midi": 75,
          "time": 74.99996250000011,
          "velocity": 0.7559055118110236,
          "duration": 0.33455865624999603
        },
        {
          "name": "G5",
          "midi": 79,
          "time": 74.99996250000011,
          "velocity": 0.7559055118110236,
          "duration": 0.33455865624999603
        },
        {
          "name": "A#4",
          "midi": 70,
          "time": 75.35290350000011,
          "velocity": 0.7559055118110236,
          "duration": 0.33455865624999603
        },
        {
          "name": "F5",
          "midi": 77,
          "time": 75.35290350000011,
          "velocity": 0.7559055118110236,
          "duration": 0.33455865624999603
        },
        {
          "name": "A#4",
          "midi": 70,
          "time": 75.70584450000011,
          "velocity": 0.7559055118110236,
          "duration": 0.33455865624999603
        },
        {
          "name": "D#5",
          "midi": 75,
          "time": 75.70584450000011,
          "velocity": 0.7559055118110236,
          "duration": 0.33455865624999603
        },
        {
          "name": "A#4",
          "midi": 70,
          "time": 76.05878550000011,
          "velocity": 0.7559055118110236,
          "duration": 0.16691168124999933
        },
        {
          "name": "D5",
          "midi": 74,
          "time": 76.05878550000011,
          "velocity": 0.7559055118110236,
          "duration": 0.16691168124999933
        },
        {
          "name": "F5",
          "midi": 77,
          "time": 76.05878550000011,
          "velocity": 0.7559055118110236,
          "duration": 0.16691168124999933
        },
        {
          "name": "A#4",
          "midi": 70,
          "time": 76.2352560000001,
          "velocity": 0.7559055118110236,
          "duration": 2.0110284062500057
        },
        {
          "name": "D5",
          "midi": 74,
          "time": 76.2352560000001,
          "velocity": 0.7559055118110236,
          "duration": 2.0110284062500057
        },
        {
          "name": "F5",
          "midi": 77,
          "time": 76.2352560000001,
          "velocity": 0.7559055118110236,
          "duration": 2.0110284062500057
        },
        {
          "name": "C5",
          "midi": 72,
          "time": 78.35290200000011,
          "velocity": 0.6299212598425197,
          "duration": 0.16691168124999933
        },
        {
          "name": "A#4",
          "midi": 70,
          "time": 78.52937250000011,
          "velocity": 0.6299212598425197,
          "duration": 0.16691168124999933
        },
        {
          "name": "C5",
          "midi": 72,
          "time": 78.7058430000001,
          "velocity": 0.6299212598425197,
          "duration": 0.16691168124999933
        },
        {
          "name": "A#4",
          "midi": 70,
          "time": 78.8823135000001,
          "velocity": 0.6299212598425197,
          "duration": 0.16691168124999933
        },
        {
          "name": "F4",
          "midi": 65,
          "time": 79.05878400000009,
          "velocity": 0.6299212598425197,
          "duration": 2.0110284062500057
        },
        {
          "name": "G#4",
          "midi": 68,
          "time": 79.05878400000009,
          "velocity": 0.6299212598425197,
          "duration": 2.0110284062500057
        },
        {
          "name": "C5",
          "midi": 72,
          "time": 79.05878400000009,
          "velocity": 0.6299212598425197,
          "duration": 2.0110284062500057
        },
        {
          "name": "C5",
          "midi": 72,
          "time": 81.1764300000001,
          "velocity": 0.6299212598425197,
          "duration": 0.16691168124999933
        },
        {
          "name": "A#4",
          "midi": 70,
          "time": 81.35290050000009,
          "velocity": 0.6299212598425197,
          "duration": 0.16691168124999933
        },
        {
          "name": "C5",
          "midi": 72,
          "time": 81.52937100000008,
          "velocity": 0.6299212598425197,
          "duration": 0.16691168124999933
        },
        {
          "name": "A#4",
          "midi": 70,
          "time": 81.70584150000008,
          "velocity": 0.6299212598425197,
          "duration": 0.16691168124999933
        },
        {
          "name": "D5",
          "midi": 74,
          "time": 81.88231200000007,
          "velocity": 0.6299212598425197,
          "duration": 0.33455865624999603
        },
        {
          "name": "A#4",
          "midi": 70,
          "time": 82.23525300000007,
          "velocity": 0.6299212598425197,
          "duration": 0.16691168124999933
        },
        {
          "name": "A#4",
          "midi": 70,
          "time": 82.41172350000006,
          "velocity": 0.6299212598425197,
          "duration": 0.33455865624999603
        },
        {
          "name": "C5",
          "midi": 72,
          "time": 82.76466450000007,
          "velocity": 0.6299212598425197,
          "duration": 0.16691168124999933
        },
        {
          "name": "D#4",
          "midi": 63,
          "time": 82.94113500000006,
          "velocity": 0.6299212598425197,
          "duration": 1.005146556249997
        },
        {
          "name": "G4",
          "midi": 67,
          "time": 82.94113500000006,
          "velocity": 0.6299212598425197,
          "duration": 1.005146556249997
        },
        {
          "name": "C5",
          "midi": 72,
          "time": 83.99995800000006,
          "velocity": 0.6299212598425197,
          "duration": 0.16691168124999933
        },
        {
          "name": "A#4",
          "midi": 70,
          "time": 84.17642850000006,
          "velocity": 0.6299212598425197,
          "duration": 0.16691168124999933
        },
        {
          "name": "C5",
          "midi": 72,
          "time": 84.35289900000005,
          "velocity": 0.6299212598425197,
          "duration": 0.16691168124999933
        },
        {
          "name": "A#4",
          "midi": 70,
          "time": 84.52936950000004,
          "velocity": 0.6299212598425197,
          "duration": 0.16691168124999933
        },
        {
          "name": "D5",
          "midi": 74,
          "time": 84.70584000000004,
          "velocity": 0.6299212598425197,
          "duration": 0.33455865624999603
        },
        {
          "name": "A#4",
          "midi": 70,
          "time": 85.05878100000004,
          "velocity": 0.6299212598425197,
          "duration": 0.16691168124999933
        },
        {
          "name": "A#4",
          "midi": 70,
          "time": 85.23525150000003,
          "velocity": 0.6299212598425197,
          "duration": 0.33455865624999603
        },
        {
          "name": "C5",
          "midi": 72,
          "time": 85.58819250000003,
          "velocity": 0.6299212598425197,
          "duration": 0.16691168124999933
        },
        {
          "name": "D#4",
          "midi": 63,
          "time": 85.76466300000003,
          "velocity": 0.6299212598425197,
          "duration": 1.005146556249997
        },
        {
          "name": "G4",
          "midi": 67,
          "time": 85.76466300000003,
          "velocity": 0.6299212598425197,
          "duration": 1.005146556249997
        },
        {
          "name": "A#4",
          "midi": 70,
          "time": 86.82348600000003,
          "velocity": 0.6299212598425197,
          "duration": 0.33455865624999603
        },
        {
          "name": "C5",
          "midi": 72,
          "time": 87.17642700000003,
          "velocity": 0.6299212598425197,
          "duration": 0.33455865624999603
        },
        {
          "name": "D4",
          "midi": 62,
          "time": 87.52936800000003,
          "velocity": 0.6299212598425197,
          "duration": 0.16691168124999933
        },
        {
          "name": "G4",
          "midi": 67,
          "time": 87.52936800000003,
          "velocity": 0.6299212598425197,
          "duration": 0.16691168124999933
        },
        {
          "name": "F4",
          "midi": 65,
          "time": 87.70583850000003,
          "velocity": 0.6299212598425197,
          "duration": 1.1727935312499937
        },
        {
          "name": "D#5",
          "midi": 75,
          "time": 88.94113200000002,
          "velocity": 0.6299212598425197,
          "duration": 0.33455865624999603
        },
        {
          "name": "D5",
          "midi": 74,
          "time": 89.29407300000003,
          "velocity": 0.6299212598425197,
          "duration": 0.33455865624999603
        },
        {
          "name": "C5",
          "midi": 72,
          "time": 89.64701400000003,
          "velocity": 0.6299212598425197,
          "duration": 0.33455865624999603
        },
        {
          "name": "A#4",
          "midi": 70,
          "time": 89.99995500000003,
          "velocity": 0.6299212598425197,
          "duration": 0.33455865624999603
        },
        {
          "name": "F4",
          "midi": 65,
          "time": 90.35289600000003,
          "velocity": 0.6299212598425197,
          "duration": 0.33455865624999603
        },
        {
          "name": "G#4",
          "midi": 68,
          "time": 90.35289600000003,
          "velocity": 0.6299212598425197,
          "duration": 0.33455865624999603
        },
        {
          "name": "C5",
          "midi": 72,
          "time": 90.35289600000003,
          "velocity": 0.6299212598425197,
          "duration": 0.33455865624999603
        },
        {
          "name": "C5",
          "midi": 72,
          "time": 90.70583700000003,
          "velocity": 0.6614173228346457,
          "duration": 0.33455865624999603
        },
        {
          "name": "C5",
          "midi": 72,
          "time": 91.05877800000003,
          "velocity": 0.6929133858267716,
          "duration": 0.16691168124999933
        },
        {
          "name": "D#5",
          "midi": 75,
          "time": 91.05877800000003,
          "velocity": 0.6929133858267716,
          "duration": 0.16691168124999933
        },
        {
          "name": "C5",
          "midi": 72,
          "time": 91.23524850000003,
          "velocity": 0.7086614173228346,
          "duration": 0.33455865624999603
        },
        {
          "name": "F5",
          "midi": 77,
          "time": 91.23524850000003,
          "velocity": 0.7086614173228346,
          "duration": 0.33455865624999603
        },
        {
          "name": "C5",
          "midi": 72,
          "time": 91.58818950000003,
          "velocity": 0.7401574803149606,
          "duration": 0.33455865624999603
        },
        {
          "name": "G5",
          "midi": 79,
          "time": 91.58818950000003,
          "velocity": 0.7401574803149606,
          "duration": 0.33455865624999603
        },
        {
          "name": "C5",
          "midi": 72,
          "time": 91.94113050000003,
          "velocity": 0.7559055118110236,
          "duration": 0.33455865624999603
        },
        {
          "name": "C5",
          "midi": 72,
          "time": 92.29407150000003,
          "velocity": 0.7559055118110236,
          "duration": 0.33455865624999603
        },
        {
          "name": "D#5",
          "midi": 75,
          "time": 92.29407150000003,
          "velocity": 0.7559055118110236,
          "duration": 0.33455865624999603
        },
        {
          "name": "C5",
          "midi": 72,
          "time": 92.64701250000003,
          "velocity": 0.7559055118110236,
          "duration": 0.502205631250007
        },
        {
          "name": "F5",
          "midi": 77,
          "time": 92.64701250000003,
          "velocity": 0.7559055118110236,
          "duration": 0.502205631250007
        },
        {
          "name": "C5",
          "midi": 72,
          "time": 93.17642400000004,
          "velocity": 0.7559055118110236,
          "duration": 0.33455865624999603
        },
        {
          "name": "C5",
          "midi": 72,
          "time": 93.52936500000004,
          "velocity": 0.7559055118110236,
          "duration": 0.33455865624999603
        },
        {
          "name": "C5",
          "midi": 72,
          "time": 93.88230600000004,
          "velocity": 0.7559055118110236,
          "duration": 0.16691168124999933
        },
        {
          "name": "D#5",
          "midi": 75,
          "time": 93.88230600000004,
          "velocity": 0.7559055118110236,
          "duration": 0.16691168124999933
        },
        {
          "name": "C5",
          "midi": 72,
          "time": 94.05877650000004,
          "velocity": 0.7559055118110236,
          "duration": 0.33455865624999603
        },
        {
          "name": "F5",
          "midi": 77,
          "time": 94.05877650000004,
          "velocity": 0.7559055118110236,
          "duration": 0.33455865624999603
        },
        {
          "name": "C5",
          "midi": 72,
          "time": 94.41171750000004,
          "velocity": 0.7559055118110236,
          "duration": 0.33455865624999603
        },
        {
          "name": "G5",
          "midi": 79,
          "time": 94.41171750000004,
          "velocity": 0.7559055118110236,
          "duration": 0.33455865624999603
        },
        {
          "name": "C5",
          "midi": 72,
          "time": 94.76465850000004,
          "velocity": 0.7559055118110236,
          "duration": 0.33455865624999603
        },
        {
          "name": "C5",
          "midi": 72,
          "time": 95.11759950000004,
          "velocity": 0.7559055118110236,
          "duration": 0.33455865624999603
        },
        {
          "name": "D#5",
          "midi": 75,
          "time": 95.11759950000004,
          "velocity": 0.7559055118110236,
          "duration": 0.33455865624999603
        },
        {
          "name": "C5",
          "midi": 72,
          "time": 95.47054050000004,
          "velocity": 0.7559055118110236,
          "duration": 0.502205631250007
        },
        {
          "name": "F5",
          "midi": 77,
          "time": 95.47054050000004,
          "velocity": 0.7559055118110236,
          "duration": 0.502205631250007
        },
        {
          "name": "A#4",
          "midi": 70,
          "time": 95.99995200000005,
          "velocity": 0.7559055118110236,
          "duration": 0.33455865624999603
        },
        {
          "name": "C5",
          "midi": 72,
          "time": 96.35289300000005,
          "velocity": 0.7559055118110236,
          "duration": 0.33455865624999603
        },
        {
          "name": "D#5",
          "midi": 75,
          "time": 96.70583400000005,
          "velocity": 0.7559055118110236,
          "duration": 0.16691168124999933
        },
        {
          "name": "F5",
          "midi": 77,
          "time": 96.88230450000005,
          "velocity": 0.7559055118110236,
          "duration": 0.33455865624999603
        },
        {
          "name": "G5",
          "midi": 79,
          "time": 97.23524550000005,
          "velocity": 0.7559055118110236,
          "duration": 0.33455865624999603
        },
        {
          "name": "C5",
          "midi": 72,
          "time": 97.58818650000005,
          "velocity": 0.7559055118110236,
          "duration": 0.33455865624999603
        },
        {
          "name": "D#5",
          "midi": 75,
          "time": 97.94112750000005,
          "velocity": 0.7559055118110236,
          "duration": 0.33455865624999603
        },
        {
          "name": "F5",
          "midi": 77,
          "time": 98.29406850000005,
          "velocity": 0.7559055118110236,
          "duration": 0.33455865624999603
        },
        {
          "name": "D5",
          "midi": 74,
          "time": 98.64700950000005,
          "velocity": 0.7559055118110236,
          "duration": 0.16691168124999933
        },
        {
          "name": "A#4",
          "midi": 70,
          "time": 98.82348000000005,
          "velocity": 0.7559055118110236,
          "duration": 0.6698526062500036
        },
        {
          "name": "D5",
          "midi": 74,
          "time": 98.82348000000005,
          "velocity": 0.7559055118110236,
          "duration": 0.6698526062500036
        },
        {
          "name": "C5",
          "midi": 72,
          "time": 99.52936200000005,
          "velocity": 0.7559055118110236,
          "duration": 0.6698526062500036
        },
        {
          "name": "A#4",
          "midi": 70,
          "time": 100.23524400000005,
          "velocity": 0.7559055118110236,
          "duration": 0.502205631250007
        },
        {
          "name": "A#4",
          "midi": 70,
          "time": 100.76465550000006,
          "velocity": 0.7559055118110236,
          "duration": 0.33455865624999603
        },
        {
          "name": "A#5",
          "midi": 82,
          "time": 100.76465550000006,
          "velocity": 0.7559055118110236,
          "duration": 0.33455865624999603
        },
        {
          "name": "A#4",
          "midi": 70,
          "time": 101.11759650000006,
          "velocity": 0.7559055118110236,
          "duration": 0.502205631250007
        },
        {
          "name": "D#5",
          "midi": 75,
          "time": 101.11759650000006,
          "velocity": 0.7559055118110236,
          "duration": 0.502205631250007
        },
        {
          "name": "G#4",
          "midi": 68,
          "time": 101.64700800000007,
          "velocity": 0.7559055118110236,
          "duration": 2.1786753812500024
        },
        {
          "name": "C5",
          "midi": 72,
          "time": 101.64700800000007,
          "velocity": 0.7559055118110236,
          "duration": 2.1786753812500024
        },
        {
          "name": "F5",
          "midi": 77,
          "time": 101.64700800000007,
          "velocity": 0.7559055118110236,
          "duration": 2.1786753812500024
        },
        {
          "name": "G#4",
          "midi": 68,
          "time": 103.94112450000007,
          "velocity": 0.7559055118110236,
          "duration": 0.16691168124999933
        },
        {
          "name": "C5",
          "midi": 72,
          "time": 103.94112450000007,
          "velocity": 0.7559055118110236,
          "duration": 0.16691168124999933
        },
        {
          "name": "F5",
          "midi": 77,
          "time": 103.94112450000007,
          "velocity": 0.7559055118110236,
          "duration": 0.16691168124999933
        },
        {
          "name": "G#4",
          "midi": 68,
          "time": 104.11759500000007,
          "velocity": 0.7559055118110236,
          "duration": 0.33455865624999603
        },
        {
          "name": "C5",
          "midi": 72,
          "time": 104.11759500000007,
          "velocity": 0.7559055118110236,
          "duration": 0.33455865624999603
        },
        {
          "name": "G5",
          "midi": 79,
          "time": 104.11759500000007,
          "velocity": 0.7559055118110236,
          "duration": 0.33455865624999603
        },
        {
          "name": "G4",
          "midi": 67,
          "time": 104.47053600000007,
          "velocity": 0.7559055118110236,
          "duration": 0.33455865624999603
        },
        {
          "name": "C5",
          "midi": 72,
          "time": 104.47053600000007,
          "velocity": 0.7559055118110236,
          "duration": 0.33455865624999603
        },
        {
          "name": "F5",
          "midi": 77,
          "time": 104.47053600000007,
          "velocity": 0.7559055118110236,
          "duration": 0.33455865624999603
        },
        {
          "name": "G4",
          "midi": 67,
          "time": 104.82347700000007,
          "velocity": 0.7559055118110236,
          "duration": 0.16691168124999933
        },
        {
          "name": "C5",
          "midi": 72,
          "time": 104.82347700000007,
          "velocity": 0.7559055118110236,
          "duration": 0.16691168124999933
        },
        {
          "name": "D#5",
          "midi": 75,
          "time": 104.82347700000007,
          "velocity": 0.7559055118110236,
          "duration": 0.16691168124999933
        },
        {
          "name": "G4",
          "midi": 67,
          "time": 104.99994750000006,
          "velocity": 0.7559055118110236,
          "duration": 0.33455865624999603
        },
        {
          "name": "C5",
          "midi": 72,
          "time": 104.99994750000006,
          "velocity": 0.7559055118110236,
          "duration": 0.33455865624999603
        },
        {
          "name": "D#5",
          "midi": 75,
          "time": 104.99994750000006,
          "velocity": 0.7559055118110236,
          "duration": 0.33455865624999603
        },
        {
          "name": "G4",
          "midi": 67,
          "time": 105.35288850000006,
          "velocity": 0.7559055118110236,
          "duration": 0.33455865624999603
        },
        {
          "name": "C5",
          "midi": 72,
          "time": 105.35288850000006,
          "velocity": 0.7559055118110236,
          "duration": 0.33455865624999603
        },
        {
          "name": "G4",
          "midi": 67,
          "time": 105.70582950000006,
          "velocity": 0.7559055118110236,
          "duration": 0.33455865624999603
        },
        {
          "name": "C5",
          "midi": 72,
          "time": 105.70582950000006,
          "velocity": 0.7559055118110236,
          "duration": 0.33455865624999603
        },
        {
          "name": "D#5",
          "midi": 75,
          "time": 105.70582950000006,
          "velocity": 0.7559055118110236,
          "duration": 0.33455865624999603
        },
        {
          "name": "G4",
          "midi": 67,
          "time": 106.05877050000007,
          "velocity": 0.7559055118110236,
          "duration": 0.6698526062500036
        },
        {
          "name": "C5",
          "midi": 72,
          "time": 106.05877050000007,
          "velocity": 0.7559055118110236,
          "duration": 0.6698526062500036
        },
        {
          "name": "G4",
          "midi": 67,
          "time": 106.76465250000007,
          "velocity": 0.7559055118110236,
          "duration": 0.502205631250007
        },
        {
          "name": "C5",
          "midi": 72,
          "time": 106.76465250000007,
          "velocity": 0.7559055118110236,
          "duration": 0.502205631250007
        },
        {
          "name": "D#5",
          "midi": 75,
          "time": 106.76465250000007,
          "velocity": 0.7559055118110236,
          "duration": 0.502205631250007
        },
        {
          "name": "A#4",
          "midi": 70,
          "time": 107.29406400000008,
          "velocity": 0.7559055118110236,
          "duration": 0.16691168124999933
        },
        {
          "name": "D#5",
          "midi": 75,
          "time": 107.29406400000008,
          "velocity": 0.7559055118110236,
          "duration": 0.16691168124999933
        },
        {
          "name": "A#5",
          "midi": 82,
          "time": 107.29406400000008,
          "velocity": 0.7559055118110236,
          "duration": 0.16691168124999933
        },
        {
          "name": "A#4",
          "midi": 70,
          "time": 107.47053450000007,
          "velocity": 0.7559055118110236,
          "duration": 0.33455865624999603
        },
        {
          "name": "D#5",
          "midi": 75,
          "time": 107.47053450000007,
          "velocity": 0.7559055118110236,
          "duration": 0.33455865624999603
        },
        {
          "name": "G5",
          "midi": 79,
          "time": 107.47053450000007,
          "velocity": 0.7559055118110236,
          "duration": 0.33455865624999603
        },
        {
          "name": "A#4",
          "midi": 70,
          "time": 107.82347550000007,
          "velocity": 0.7559055118110236,
          "duration": 0.33455865624999603
        },
        {
          "name": "F5",
          "midi": 77,
          "time": 107.82347550000007,
          "velocity": 0.7559055118110236,
          "duration": 0.33455865624999603
        },
        {
          "name": "A#4",
          "midi": 70,
          "time": 108.17641650000007,
          "velocity": 0.7559055118110236,
          "duration": 0.502205631250007
        },
        {
          "name": "D#5",
          "midi": 75,
          "time": 108.17641650000007,
          "velocity": 0.7559055118110236,
          "duration": 0.502205631250007
        },
        {
          "name": "A#4",
          "midi": 70,
          "time": 108.70582800000008,
          "velocity": 0.7559055118110236,
          "duration": 0.16691168124999933
        },
        {
          "name": "D#5",
          "midi": 75,
          "time": 108.70582800000008,
          "velocity": 0.7559055118110236,
          "duration": 0.16691168124999933
        },
        {
          "name": "A#5",
          "midi": 82,
          "time": 108.70582800000008,
          "velocity": 0.7559055118110236,
          "duration": 0.16691168124999933
        },
        {
          "name": "A#4",
          "midi": 70,
          "time": 108.88229850000008,
          "velocity": 0.7559055118110236,
          "duration": 0.33455865624999603
        },
        {
          "name": "D#5",
          "midi": 75,
          "time": 108.88229850000008,
          "velocity": 0.7559055118110236,
          "duration": 0.33455865624999603
        },
        {
          "name": "G5",
          "midi": 79,
          "time": 108.88229850000008,
          "velocity": 0.7559055118110236,
          "duration": 0.33455865624999603
        },
        {
          "name": "A#4",
          "midi": 70,
          "time": 109.23523950000008,
          "velocity": 0.7559055118110236,
          "duration": 0.33455865624999603
        },
        {
          "name": "F5",
          "midi": 77,
          "time": 109.23523950000008,
          "velocity": 0.7559055118110236,
          "duration": 0.33455865624999603
        },
        {
          "name": "A#4",
          "midi": 70,
          "time": 109.58818050000008,
          "velocity": 0.7559055118110236,
          "duration": 0.33455865624999603
        },
        {
          "name": "D#5",
          "midi": 75,
          "time": 109.58818050000008,
          "velocity": 0.7559055118110236,
          "duration": 0.33455865624999603
        },
        {
          "name": "A#4",
          "midi": 70,
          "time": 109.94112150000008,
          "velocity": 0.7559055118110236,
          "duration": 0.502205631250007
        },
        {
          "name": "D5",
          "midi": 74,
          "time": 109.94112150000008,
          "velocity": 0.7559055118110236,
          "duration": 0.502205631250007
        },
        {
          "name": "F5",
          "midi": 77,
          "time": 109.94112150000008,
          "velocity": 0.7559055118110236,
          "duration": 0.502205631250007
        },
        {
          "name": "A#4",
          "midi": 70,
          "time": 110.47053300000009,
          "velocity": 0.7559055118110236,
          "duration": 1.5080874812500014
        },
        {
          "name": "D5",
          "midi": 74,
          "time": 110.47053300000009,
          "velocity": 0.7559055118110236,
          "duration": 1.5080874812500014
        },
        {
          "name": "F5",
          "midi": 77,
          "time": 110.47053300000009,
          "velocity": 0.7559055118110236,
          "duration": 1.5080874812500014
        },
        {
          "name": "A#4",
          "midi": 70,
          "time": 112.05876750000009,
          "velocity": 0.7559055118110236,
          "duration": 0.33455865624999603
        },
        {
          "name": "G5",
          "midi": 79,
          "time": 112.05876750000009,
          "velocity": 0.7559055118110236,
          "duration": 0.33455865624999603
        },
        {
          "name": "A#4",
          "midi": 70,
          "time": 112.41170850000009,
          "velocity": 0.7559055118110236,
          "duration": 0.33455865624999603
        },
        {
          "name": "D#5",
          "midi": 75,
          "time": 112.41170850000009,
          "velocity": 0.7559055118110236,
          "duration": 0.33455865624999603
        },
        {
          "name": "G#4",
          "midi": 68,
          "time": 112.94112000000008,
          "velocity": 0.7559055118110236,
          "duration": 2.1786753812500024
        },
        {
          "name": "C5",
          "midi": 72,
          "time": 112.94112000000008,
          "velocity": 0.7559055118110236,
          "duration": 2.1786753812500024
        },
        {
          "name": "F5",
          "midi": 77,
          "time": 112.94112000000008,
          "velocity": 0.7559055118110236,
          "duration": 2.1786753812500024
        },
        {
          "name": "G#4",
          "midi": 68,
          "time": 115.23523650000008,
          "velocity": 0.7559055118110236,
          "duration": 0.16691168124999933
        },
        {
          "name": "C5",
          "midi": 72,
          "time": 115.23523650000008,
          "velocity": 0.7559055118110236,
          "duration": 0.16691168124999933
        },
        {
          "name": "F5",
          "midi": 77,
          "time": 115.23523650000008,
          "velocity": 0.7559055118110236,
          "duration": 0.16691168124999933
        },
        {
          "name": "G#4",
          "midi": 68,
          "time": 115.41170700000008,
          "velocity": 0.7559055118110236,
          "duration": 0.33455865624999603
        },
        {
          "name": "C5",
          "midi": 72,
          "time": 115.41170700000008,
          "velocity": 0.7559055118110236,
          "duration": 0.33455865624999603
        },
        {
          "name": "G5",
          "midi": 79,
          "time": 115.41170700000008,
          "velocity": 0.7559055118110236,
          "duration": 0.33455865624999603
        },
        {
          "name": "G4",
          "midi": 67,
          "time": 115.76464800000008,
          "velocity": 0.7559055118110236,
          "duration": 0.33455865624999603
        },
        {
          "name": "C5",
          "midi": 72,
          "time": 115.76464800000008,
          "velocity": 0.7559055118110236,
          "duration": 0.33455865624999603
        },
        {
          "name": "F5",
          "midi": 77,
          "time": 115.76464800000008,
          "velocity": 0.7559055118110236,
          "duration": 0.33455865624999603
        },
        {
          "name": "G4",
          "midi": 67,
          "time": 116.11758900000008,
          "velocity": 0.7559055118110236,
          "duration": 0.16691168124999933
        },
        {
          "name": "C5",
          "midi": 72,
          "time": 116.11758900000008,
          "velocity": 0.7559055118110236,
          "duration": 0.16691168124999933
        },
        {
          "name": "D#5",
          "midi": 75,
          "time": 116.11758900000008,
          "velocity": 0.7559055118110236,
          "duration": 0.16691168124999933
        },
        {
          "name": "G4",
          "midi": 67,
          "time": 116.29405950000007,
          "velocity": 0.7559055118110236,
          "duration": 0.33455865624999603
        },
        {
          "name": "C5",
          "midi": 72,
          "time": 116.29405950000007,
          "velocity": 0.7559055118110236,
          "duration": 0.33455865624999603
        },
        {
          "name": "D#5",
          "midi": 75,
          "time": 116.29405950000007,
          "velocity": 0.7559055118110236,
          "duration": 0.33455865624999603
        },
        {
          "name": "G4",
          "midi": 67,
          "time": 116.64700050000008,
          "velocity": 0.7559055118110236,
          "duration": 0.33455865624999603
        },
        {
          "name": "C5",
          "midi": 72,
          "time": 116.64700050000008,
          "velocity": 0.7559055118110236,
          "duration": 0.33455865624999603
        },
        {
          "name": "G4",
          "midi": 67,
          "time": 116.99994150000008,
          "velocity": 0.7559055118110236,
          "duration": 0.33455865624999603
        },
        {
          "name": "C5",
          "midi": 72,
          "time": 116.99994150000008,
          "velocity": 0.7559055118110236,
          "duration": 0.33455865624999603
        },
        {
          "name": "D#5",
          "midi": 75,
          "time": 116.99994150000008,
          "velocity": 0.7559055118110236,
          "duration": 0.33455865624999603
        },
        {
          "name": "G4",
          "midi": 67,
          "time": 117.35288250000008,
          "velocity": 0.7559055118110236,
          "duration": 0.6698526062500036
        },
        {
          "name": "C5",
          "midi": 72,
          "time": 117.35288250000008,
          "velocity": 0.7559055118110236,
          "duration": 0.6698526062500036
        },
        {
          "name": "G4",
          "midi": 67,
          "time": 118.05876450000008,
          "velocity": 0.7559055118110236,
          "duration": 0.502205631250007
        },
        {
          "name": "C5",
          "midi": 72,
          "time": 118.05876450000008,
          "velocity": 0.7559055118110236,
          "duration": 0.502205631250007
        },
        {
          "name": "D#5",
          "midi": 75,
          "time": 118.05876450000008,
          "velocity": 0.7559055118110236,
          "duration": 0.502205631250007
        },
        {
          "name": "A#4",
          "midi": 70,
          "time": 118.58817600000009,
          "velocity": 0.7559055118110236,
          "duration": 0.16691168124999933
        },
        {
          "name": "D#5",
          "midi": 75,
          "time": 118.58817600000009,
          "velocity": 0.7559055118110236,
          "duration": 0.16691168124999933
        },
        {
          "name": "A#5",
          "midi": 82,
          "time": 118.58817600000009,
          "velocity": 0.7559055118110236,
          "duration": 0.16691168124999933
        },
        {
          "name": "A#4",
          "midi": 70,
          "time": 118.76464650000008,
          "velocity": 0.7559055118110236,
          "duration": 0.33455865624999603
        },
        {
          "name": "D#5",
          "midi": 75,
          "time": 118.76464650000008,
          "velocity": 0.7559055118110236,
          "duration": 0.33455865624999603
        },
        {
          "name": "G5",
          "midi": 79,
          "time": 118.76464650000008,
          "velocity": 0.7559055118110236,
          "duration": 0.33455865624999603
        },
        {
          "name": "A#4",
          "midi": 70,
          "time": 119.11758750000008,
          "velocity": 0.7559055118110236,
          "duration": 0.33455865624999603
        },
        {
          "name": "F5",
          "midi": 77,
          "time": 119.11758750000008,
          "velocity": 0.7559055118110236,
          "duration": 0.33455865624999603
        },
        {
          "name": "A#4",
          "midi": 70,
          "time": 119.47052850000009,
          "velocity": 0.7559055118110236,
          "duration": 0.502205631250007
        },
        {
          "name": "D#5",
          "midi": 75,
          "time": 119.47052850000009,
          "velocity": 0.7559055118110236,
          "duration": 0.502205631250007
        },
        {
          "name": "A#4",
          "midi": 70,
          "time": 119.9999400000001,
          "velocity": 0.7559055118110236,
          "duration": 0.16691168124999933
        },
        {
          "name": "D#5",
          "midi": 75,
          "time": 119.9999400000001,
          "velocity": 0.7559055118110236,
          "duration": 0.16691168124999933
        },
        {
          "name": "A#5",
          "midi": 82,
          "time": 119.9999400000001,
          "velocity": 0.7559055118110236,
          "duration": 0.16691168124999933
        },
        {
          "name": "A#4",
          "midi": 70,
          "time": 120.17641050000009,
          "velocity": 0.7559055118110236,
          "duration": 0.33455865624999603
        },
        {
          "name": "D#5",
          "midi": 75,
          "time": 120.17641050000009,
          "velocity": 0.7559055118110236,
          "duration": 0.33455865624999603
        },
        {
          "name": "G5",
          "midi": 79,
          "time": 120.17641050000009,
          "velocity": 0.7559055118110236,
          "duration": 0.33455865624999603
        },
        {
          "name": "A#4",
          "midi": 70,
          "time": 120.52935150000009,
          "velocity": 0.7559055118110236,
          "duration": 0.33455865624999603
        },
        {
          "name": "F5",
          "midi": 77,
          "time": 120.52935150000009,
          "velocity": 0.7559055118110236,
          "duration": 0.33455865624999603
        },
        {
          "name": "A#4",
          "midi": 70,
          "time": 120.88229250000009,
          "velocity": 0.7559055118110236,
          "duration": 0.33455865624999603
        },
        {
          "name": "D#5",
          "midi": 75,
          "time": 120.88229250000009,
          "velocity": 0.7559055118110236,
          "duration": 0.33455865624999603
        },
        {
          "name": "A#4",
          "midi": 70,
          "time": 121.23523350000009,
          "velocity": 0.7559055118110236,
          "duration": 0.502205631250007
        },
        {
          "name": "D5",
          "midi": 74,
          "time": 121.23523350000009,
          "velocity": 0.7559055118110236,
          "duration": 0.502205631250007
        },
        {
          "name": "F5",
          "midi": 77,
          "time": 121.23523350000009,
          "velocity": 0.7559055118110236,
          "duration": 0.502205631250007
        },
        {
          "name": "A#4",
          "midi": 70,
          "time": 121.7646450000001,
          "velocity": 0.7559055118110236,
          "duration": 1.675734456249998
        },
        {
          "name": "D5",
          "midi": 74,
          "time": 121.7646450000001,
          "velocity": 0.7559055118110236,
          "duration": 1.675734456249998
        },
        {
          "name": "F5",
          "midi": 77,
          "time": 121.7646450000001,
          "velocity": 0.7559055118110236,
          "duration": 1.675734456249998
        },
        {
          "name": "A#5",
          "midi": 82,
          "time": 123.5293500000001,
          "velocity": 0.5039370078740157,
          "duration": 0.16691168124999933
        },
        {
          "name": "G5",
          "midi": 79,
          "time": 123.70582050000009,
          "velocity": 0.5039370078740157,
          "duration": 0.16691168124999933
        },
        {
          "name": "A#5",
          "midi": 82,
          "time": 123.88229100000008,
          "velocity": 0.5039370078740157,
          "duration": 0.16691168124999933
        },
        {
          "name": "G5",
          "midi": 79,
          "time": 124.05876150000007,
          "velocity": 0.5039370078740157,
          "duration": 0.16691168124999933
        },
        {
          "name": "C6",
          "midi": 84,
          "time": 124.23523200000007,
          "velocity": 0.5039370078740157,
          "duration": 0.33455865624999603
        },
        {
          "name": "G5",
          "midi": 79,
          "time": 124.58817300000007,
          "velocity": 0.5039370078740157,
          "duration": 0.16691168124999933
        },
        {
          "name": "G5",
          "midi": 79,
          "time": 124.76464350000006,
          "velocity": 0.5039370078740157,
          "duration": 0.33455865624999603
        },
        {
          "name": "F5",
          "midi": 77,
          "time": 125.11758450000006,
          "velocity": 0.5039370078740157,
          "duration": 0.16691168124999933
        },
        {
          "name": "F5",
          "midi": 77,
          "time": 125.29405500000006,
          "velocity": 0.5039370078740157,
          "duration": 1.005146556249997
        },
        {
          "name": "A#5",
          "midi": 82,
          "time": 126.35287800000006,
          "velocity": 0.5039370078740157,
          "duration": 0.16691168124999933
        },
        {
          "name": "G5",
          "midi": 79,
          "time": 126.52934850000005,
          "velocity": 0.5039370078740157,
          "duration": 0.16691168124999933
        },
        {
          "name": "A#5",
          "midi": 82,
          "time": 126.70581900000005,
          "velocity": 0.5039370078740157,
          "duration": 0.16691168124999933
        },
        {
          "name": "G5",
          "midi": 79,
          "time": 126.88228950000004,
          "velocity": 0.5039370078740157,
          "duration": 0.16691168124999933
        },
        {
          "name": "C6",
          "midi": 84,
          "time": 127.05876000000004,
          "velocity": 0.5039370078740157,
          "duration": 0.33455865624999603
        },
        {
          "name": "G5",
          "midi": 79,
          "time": 127.41170100000004,
          "velocity": 0.5039370078740157,
          "duration": 0.16691168124999933
        },
        {
          "name": "G5",
          "midi": 79,
          "time": 127.58817150000003,
          "velocity": 0.5039370078740157,
          "duration": 0.33455865624999603
        },
        {
          "name": "F5",
          "midi": 77,
          "time": 127.94111250000003,
          "velocity": 0.5039370078740157,
          "duration": 0.16691168125001354
        },
        {
          "name": "F5",
          "midi": 77,
          "time": 128.11758300000005,
          "velocity": 0.5039370078740157,
          "duration": 0.16691168125001354
        },
        {
          "name": "D#5",
          "midi": 75,
          "time": 128.29405350000008,
          "velocity": 0.5039370078740157,
          "duration": 0.33455865625001024
        },
        {
          "name": "C5",
          "midi": 72,
          "time": 128.6469945000001,
          "velocity": 0.5039370078740157,
          "duration": 0.8374995812500003
        },
        {
          "name": "A#5",
          "midi": 82,
          "time": 129.5293470000001,
          "velocity": 0.5039370078740157,
          "duration": 0.33455865625001024
        },
        {
          "name": "C6",
          "midi": 84,
          "time": 129.8822880000001,
          "velocity": 0.5039370078740157,
          "duration": 0.33455865625001024
        },
        {
          "name": "G5",
          "midi": 79,
          "time": 130.23522900000012,
          "velocity": 0.5039370078740157,
          "duration": 0.16691168125001354
        },
        {
          "name": "G5",
          "midi": 79,
          "time": 130.41169950000014,
          "velocity": 0.5039370078740157,
          "duration": 0.33455865625001024
        },
        {
          "name": "F5",
          "midi": 77,
          "time": 130.76464050000016,
          "velocity": 0.5039370078740157,
          "duration": 0.16691168125001354
        },
        {
          "name": "G5",
          "midi": 79,
          "time": 130.94111100000018,
          "velocity": 0.5039370078740157,
          "duration": 1.005146556249997
        },
        {
          "name": "A#5",
          "midi": 82,
          "time": 131.99993400000017,
          "velocity": 0.5039370078740157,
          "duration": 0.33455865625001024
        },
        {
          "name": "A#5",
          "midi": 82,
          "time": 132.35287500000018,
          "velocity": 0.5039370078740157,
          "duration": 0.502205631250007
        },
        {
          "name": "G#5",
          "midi": 80,
          "time": 132.8822865000002,
          "velocity": 0.5039370078740157,
          "duration": 0.16691168125001354
        },
        {
          "name": "G5",
          "midi": 79,
          "time": 133.0587570000002,
          "velocity": 0.5039370078740157,
          "duration": 0.16691168125001354
        },
        {
          "name": "F5",
          "midi": 77,
          "time": 133.23522750000024,
          "velocity": 0.5039370078740157,
          "duration": 0.502205631250007
        },
        {
          "name": "G5",
          "midi": 79,
          "time": 133.76463900000024,
          "velocity": 0.5039370078740157,
          "duration": 0.8374995812500003
        },
        {
          "name": "G5",
          "midi": 79,
          "time": 134.64699150000024,
          "velocity": 0.5039370078740157,
          "duration": 0.33455865625001024
        },
        {
          "name": "D#5",
          "midi": 75,
          "time": 134.99993250000026,
          "velocity": 0.5039370078740157,
          "duration": 0.502205631250007
        },
        {
          "name": "G#4",
          "midi": 68,
          "time": 135.52934400000026,
          "velocity": 0.6299212598425197,
          "duration": 2.1786753812500024
        },
        {
          "name": "C5",
          "midi": 72,
          "time": 135.52934400000026,
          "velocity": 0.6299212598425197,
          "duration": 2.1786753812500024
        },
        {
          "name": "F5",
          "midi": 77,
          "time": 135.52934400000026,
          "velocity": 0.6299212598425197,
          "duration": 2.1786753812500024
        },
        {
          "name": "G#4",
          "midi": 68,
          "time": 137.82346050000027,
          "velocity": 0.6299212598425197,
          "duration": 0.16691168125001354
        },
        {
          "name": "C5",
          "midi": 72,
          "time": 137.82346050000027,
          "velocity": 0.6299212598425197,
          "duration": 0.16691168125001354
        },
        {
          "name": "F5",
          "midi": 77,
          "time": 137.82346050000027,
          "velocity": 0.6299212598425197,
          "duration": 0.16691168125001354
        },
        {
          "name": "G#4",
          "midi": 68,
          "time": 137.9999310000003,
          "velocity": 0.6299212598425197,
          "duration": 0.33455865625001024
        },
        {
          "name": "C5",
          "midi": 72,
          "time": 137.9999310000003,
          "velocity": 0.6299212598425197,
          "duration": 0.33455865625001024
        },
        {
          "name": "G5",
          "midi": 79,
          "time": 137.9999310000003,
          "velocity": 0.6299212598425197,
          "duration": 0.33455865625001024
        },
        {
          "name": "G4",
          "midi": 67,
          "time": 138.3528720000003,
          "velocity": 0.6299212598425197,
          "duration": 0.33455865625001024
        },
        {
          "name": "C5",
          "midi": 72,
          "time": 138.3528720000003,
          "velocity": 0.6299212598425197,
          "duration": 0.33455865625001024
        },
        {
          "name": "F5",
          "midi": 77,
          "time": 138.3528720000003,
          "velocity": 0.6299212598425197,
          "duration": 0.33455865625001024
        },
        {
          "name": "G4",
          "midi": 67,
          "time": 138.70581300000032,
          "velocity": 0.6299212598425197,
          "duration": 0.16691168125001354
        },
        {
          "name": "C5",
          "midi": 72,
          "time": 138.70581300000032,
          "velocity": 0.6299212598425197,
          "duration": 0.16691168125001354
        },
        {
          "name": "D#5",
          "midi": 75,
          "time": 138.70581300000032,
          "velocity": 0.6299212598425197,
          "duration": 0.16691168125001354
        },
        {
          "name": "G4",
          "midi": 67,
          "time": 138.88228350000034,
          "velocity": 0.6299212598425197,
          "duration": 0.33455865625001024
        },
        {
          "name": "C5",
          "midi": 72,
          "time": 138.88228350000034,
          "velocity": 0.6299212598425197,
          "duration": 0.33455865625001024
        },
        {
          "name": "D#5",
          "midi": 75,
          "time": 138.88228350000034,
          "velocity": 0.6299212598425197,
          "duration": 0.33455865625001024
        },
        {
          "name": "G4",
          "midi": 67,
          "time": 139.23522450000036,
          "velocity": 0.6299212598425197,
          "duration": 0.33455865625001024
        },
        {
          "name": "C5",
          "midi": 72,
          "time": 139.23522450000036,
          "velocity": 0.6299212598425197,
          "duration": 0.33455865625001024
        },
        {
          "name": "G4",
          "midi": 67,
          "time": 139.58816550000037,
          "velocity": 0.6299212598425197,
          "duration": 0.33455865625001024
        },
        {
          "name": "C5",
          "midi": 72,
          "time": 139.58816550000037,
          "velocity": 0.6299212598425197,
          "duration": 0.33455865625001024
        },
        {
          "name": "D#5",
          "midi": 75,
          "time": 139.58816550000037,
          "velocity": 0.6299212598425197,
          "duration": 0.33455865625001024
        },
        {
          "name": "G4",
          "midi": 67,
          "time": 139.9411065000004,
          "velocity": 0.6299212598425197,
          "duration": 0.6698526062500036
        },
        {
          "name": "C5",
          "midi": 72,
          "time": 139.9411065000004,
          "velocity": 0.6299212598425197,
          "duration": 0.6698526062500036
        },
        {
          "name": "G4",
          "midi": 67,
          "time": 140.6469885000004,
          "velocity": 0.6299212598425197,
          "duration": 0.502205631250007
        },
        {
          "name": "C5",
          "midi": 72,
          "time": 140.6469885000004,
          "velocity": 0.6299212598425197,
          "duration": 0.502205631250007
        },
        {
          "name": "D#5",
          "midi": 75,
          "time": 140.6469885000004,
          "velocity": 0.6299212598425197,
          "duration": 0.502205631250007
        },
        {
          "name": "A#4",
          "midi": 70,
          "time": 141.1764000000004,
          "velocity": 0.6299212598425197,
          "duration": 0.16691168125001354
        },
        {
          "name": "D#5",
          "midi": 75,
          "time": 141.1764000000004,
          "velocity": 0.6299212598425197,
          "duration": 0.16691168125001354
        },
        {
          "name": "A#5",
          "midi": 82,
          "time": 141.1764000000004,
          "velocity": 0.6299212598425197,
          "duration": 0.16691168125001354
        },
        {
          "name": "A#4",
          "midi": 70,
          "time": 141.35287050000042,
          "velocity": 0.6299212598425197,
          "duration": 0.33455865625001024
        },
        {
          "name": "D#5",
          "midi": 75,
          "time": 141.35287050000042,
          "velocity": 0.6299212598425197,
          "duration": 0.33455865625001024
        },
        {
          "name": "G5",
          "midi": 79,
          "time": 141.35287050000042,
          "velocity": 0.6299212598425197,
          "duration": 0.33455865625001024
        },
        {
          "name": "A#4",
          "midi": 70,
          "time": 141.70581150000044,
          "velocity": 0.6299212598425197,
          "duration": 0.33455865625001024
        },
        {
          "name": "F5",
          "midi": 77,
          "time": 141.70581150000044,
          "velocity": 0.6299212598425197,
          "duration": 0.33455865625001024
        },
        {
          "name": "A#4",
          "midi": 70,
          "time": 142.05875250000045,
          "velocity": 0.6299212598425197,
          "duration": 0.502205631250007
        },
        {
          "name": "D#5",
          "midi": 75,
          "time": 142.05875250000045,
          "velocity": 0.6299212598425197,
          "duration": 0.502205631250007
        },
        {
          "name": "A#4",
          "midi": 70,
          "time": 142.58816400000046,
          "velocity": 0.6299212598425197,
          "duration": 0.16691168125001354
        },
        {
          "name": "D#5",
          "midi": 75,
          "time": 142.58816400000046,
          "velocity": 0.6299212598425197,
          "duration": 0.16691168125001354
        },
        {
          "name": "A#5",
          "midi": 82,
          "time": 142.58816400000046,
          "velocity": 0.6299212598425197,
          "duration": 0.16691168125001354
        },
        {
          "name": "A#4",
          "midi": 70,
          "time": 142.76463450000048,
          "velocity": 0.6299212598425197,
          "duration": 0.33455865625001024
        },
        {
          "name": "D#5",
          "midi": 75,
          "time": 142.76463450000048,
          "velocity": 0.6299212598425197,
          "duration": 0.33455865625001024
        },
        {
          "name": "G5",
          "midi": 79,
          "time": 142.76463450000048,
          "velocity": 0.6299212598425197,
          "duration": 0.33455865625001024
        },
        {
          "name": "A#4",
          "midi": 70,
          "time": 143.1175755000005,
          "velocity": 0.6299212598425197,
          "duration": 0.33455865625001024
        },
        {
          "name": "F5",
          "midi": 77,
          "time": 143.1175755000005,
          "velocity": 0.6299212598425197,
          "duration": 0.33455865625001024
        },
        {
          "name": "A#4",
          "midi": 70,
          "time": 143.4705165000005,
          "velocity": 0.6299212598425197,
          "duration": 0.33455865625001024
        },
        {
          "name": "D#5",
          "midi": 75,
          "time": 143.4705165000005,
          "velocity": 0.6299212598425197,
          "duration": 0.33455865625001024
        },
        {
          "name": "A#4",
          "midi": 70,
          "time": 143.82345750000053,
          "velocity": 0.6299212598425197,
          "duration": 0.502205631250007
        },
        {
          "name": "D5",
          "midi": 74,
          "time": 143.82345750000053,
          "velocity": 0.6299212598425197,
          "duration": 0.502205631250007
        },
        {
          "name": "F5",
          "midi": 77,
          "time": 143.82345750000053,
          "velocity": 0.6299212598425197,
          "duration": 0.502205631250007
        },
        {
          "name": "A#4",
          "midi": 70,
          "time": 144.35286900000054,
          "velocity": 0.6299212598425197,
          "duration": 2.346322356249999
        },
        {
          "name": "D5",
          "midi": 74,
          "time": 144.35286900000054,
          "velocity": 0.6299212598425197,
          "duration": 2.346322356249999
        },
        {
          "name": "F5",
          "midi": 77,
          "time": 144.35286900000054,
          "velocity": 0.6299212598425197,
          "duration": 2.346322356249999
        },
        {
          "name": "G#4",
          "midi": 68,
          "time": 146.82345600000053,
          "velocity": 0.7559055118110236,
          "duration": 0.6698526062500036
        },
        {
          "name": "C5",
          "midi": 72,
          "time": 146.82345600000053,
          "velocity": 0.7559055118110236,
          "duration": 0.6698526062500036
        },
        {
          "name": "F5",
          "midi": 77,
          "time": 146.82345600000053,
          "velocity": 0.7559055118110236,
          "duration": 0.6698526062500036
        },
        {
          "name": "G#4",
          "midi": 68,
          "time": 147.52933800000054,
          "velocity": 0.7559055118110236,
          "duration": 0.502205631250007
        },
        {
          "name": "C5",
          "midi": 72,
          "time": 147.52933800000054,
          "velocity": 0.7559055118110236,
          "duration": 0.502205631250007
        },
        {
          "name": "F5",
          "midi": 77,
          "time": 147.52933800000054,
          "velocity": 0.7559055118110236,
          "duration": 0.502205631250007
        },
        {
          "name": "G#4",
          "midi": 68,
          "time": 148.05874950000054,
          "velocity": 0.7559055118110236,
          "duration": 0.16691168125001354
        },
        {
          "name": "C5",
          "midi": 72,
          "time": 148.05874950000054,
          "velocity": 0.7559055118110236,
          "duration": 0.16691168125001354
        },
        {
          "name": "D#5",
          "midi": 75,
          "time": 148.05874950000054,
          "velocity": 0.7559055118110236,
          "duration": 0.16691168125001354
        },
        {
          "name": "G#4",
          "midi": 68,
          "time": 148.23522000000057,
          "velocity": 0.7559055118110236,
          "duration": 0.16691168125001354
        },
        {
          "name": "C5",
          "midi": 72,
          "time": 148.23522000000057,
          "velocity": 0.7559055118110236,
          "duration": 0.16691168125001354
        },
        {
          "name": "F5",
          "midi": 77,
          "time": 148.23522000000057,
          "velocity": 0.7559055118110236,
          "duration": 0.16691168125001354
        },
        {
          "name": "G#4",
          "midi": 68,
          "time": 148.4116905000006,
          "velocity": 0.7559055118110236,
          "duration": 0.33455865625001024
        },
        {
          "name": "C5",
          "midi": 72,
          "time": 148.4116905000006,
          "velocity": 0.7559055118110236,
          "duration": 0.33455865625001024
        },
        {
          "name": "G5",
          "midi": 79,
          "time": 148.4116905000006,
          "velocity": 0.7559055118110236,
          "duration": 0.33455865625001024
        },
        {
          "name": "G#4",
          "midi": 68,
          "time": 148.7646315000006,
          "velocity": 0.7559055118110236,
          "duration": 0.33455865625001024
        },
        {
          "name": "C5",
          "midi": 72,
          "time": 148.7646315000006,
          "velocity": 0.7559055118110236,
          "duration": 0.33455865625001024
        },
        {
          "name": "G#4",
          "midi": 68,
          "time": 149.11757250000062,
          "velocity": 0.7559055118110236,
          "duration": 0.502205631250007
        },
        {
          "name": "C5",
          "midi": 72,
          "time": 149.11757250000062,
          "velocity": 0.7559055118110236,
          "duration": 0.502205631250007
        },
        {
          "name": "D#5",
          "midi": 75,
          "time": 149.11757250000062,
          "velocity": 0.7559055118110236,
          "duration": 0.502205631250007
        },
        {
          "name": "G4",
          "midi": 67,
          "time": 149.64698400000063,
          "velocity": 0.7559055118110236,
          "duration": 0.6698526062500036
        },
        {
          "name": "C5",
          "midi": 72,
          "time": 149.64698400000063,
          "velocity": 0.7559055118110236,
          "duration": 0.6698526062500036
        },
        {
          "name": "F5",
          "midi": 77,
          "time": 149.64698400000063,
          "velocity": 0.7559055118110236,
          "duration": 0.6698526062500036
        },
        {
          "name": "G4",
          "midi": 67,
          "time": 150.35286600000063,
          "velocity": 0.7559055118110236,
          "duration": 0.502205631250007
        },
        {
          "name": "C5",
          "midi": 72,
          "time": 150.35286600000063,
          "velocity": 0.7559055118110236,
          "duration": 0.502205631250007
        },
        {
          "name": "F5",
          "midi": 77,
          "time": 150.35286600000063,
          "velocity": 0.7559055118110236,
          "duration": 0.502205631250007
        },
        {
          "name": "G4",
          "midi": 67,
          "time": 150.88227750000064,
          "velocity": 0.7559055118110236,
          "duration": 0.16691168125001354
        },
        {
          "name": "C5",
          "midi": 72,
          "time": 150.88227750000064,
          "velocity": 0.7559055118110236,
          "duration": 0.16691168125001354
        },
        {
          "name": "D#5",
          "midi": 75,
          "time": 150.88227750000064,
          "velocity": 0.7559055118110236,
          "duration": 0.16691168125001354
        },
        {
          "name": "G4",
          "midi": 67,
          "time": 151.05874800000066,
          "velocity": 0.7559055118110236,
          "duration": 0.16691168125001354
        },
        {
          "name": "C5",
          "midi": 72,
          "time": 151.05874800000066,
          "velocity": 0.7559055118110236,
          "duration": 0.16691168125001354
        },
        {
          "name": "F5",
          "midi": 77,
          "time": 151.05874800000066,
          "velocity": 0.7559055118110236,
          "duration": 0.16691168125001354
        },
        {
          "name": "G4",
          "midi": 67,
          "time": 151.23521850000068,
          "velocity": 0.7559055118110236,
          "duration": 0.33455865625001024
        },
        {
          "name": "C5",
          "midi": 72,
          "time": 151.23521850000068,
          "velocity": 0.7559055118110236,
          "duration": 0.33455865625001024
        },
        {
          "name": "G5",
          "midi": 79,
          "time": 151.23521850000068,
          "velocity": 0.7559055118110236,
          "duration": 0.33455865625001024
        },
        {
          "name": "G4",
          "midi": 67,
          "time": 151.5881595000007,
          "velocity": 0.7559055118110236,
          "duration": 0.33455865625001024
        },
        {
          "name": "C5",
          "midi": 72,
          "time": 151.5881595000007,
          "velocity": 0.7559055118110236,
          "duration": 0.33455865625001024
        },
        {
          "name": "G4",
          "midi": 67,
          "time": 151.94110050000072,
          "velocity": 0.7559055118110236,
          "duration": 0.502205631250007
        },
        {
          "name": "C5",
          "midi": 72,
          "time": 151.94110050000072,
          "velocity": 0.7559055118110236,
          "duration": 0.502205631250007
        },
        {
          "name": "D#5",
          "midi": 75,
          "time": 151.94110050000072,
          "velocity": 0.7559055118110236,
          "duration": 0.502205631250007
        },
        {
          "name": "A#4",
          "midi": 70,
          "time": 152.47051200000072,
          "velocity": 0.7559055118110236,
          "duration": 0.5022056312500354
        },
        {
          "name": "D#5",
          "midi": 75,
          "time": 152.47051200000072,
          "velocity": 0.7559055118110236,
          "duration": 0.16691168125001354
        },
        {
          "name": "A#5",
          "midi": 82,
          "time": 152.47051200000072,
          "velocity": 0.7559055118110236,
          "duration": 0.16691168125001354
        },
        {
          "name": "G5",
          "midi": 79,
          "time": 152.64698250000075,
          "velocity": 0.7559055118110236,
          "duration": 0.33455865625001024
        },
        {
          "name": "A#4",
          "midi": 70,
          "time": 152.99992350000076,
          "velocity": 0.7559055118110236,
          "duration": 0.8374995812500288
        },
        {
          "name": "F5",
          "midi": 77,
          "time": 152.99992350000076,
          "velocity": 0.7559055118110236,
          "duration": 0.33455865625001024
        },
        {
          "name": "D#5",
          "midi": 75,
          "time": 153.35286450000078,
          "velocity": 0.7559055118110236,
          "duration": 0.502205631250007
        },
        {
          "name": "A#4",
          "midi": 70,
          "time": 153.8822760000008,
          "velocity": 0.7559055118110236,
          "duration": 0.5022056312500354
        },
        {
          "name": "D#5",
          "midi": 75,
          "time": 153.8822760000008,
          "velocity": 0.7559055118110236,
          "duration": 0.16691168125001354
        },
        {
          "name": "A#5",
          "midi": 82,
          "time": 153.8822760000008,
          "velocity": 0.7559055118110236,
          "duration": 0.16691168125001354
        },
        {
          "name": "G5",
          "midi": 79,
          "time": 154.0587465000008,
          "velocity": 0.7559055118110236,
          "duration": 0.33455865625001024
        },
        {
          "name": "A#4",
          "midi": 70,
          "time": 154.41168750000082,
          "velocity": 0.7559055118110236,
          "duration": 0.6698526062500036
        },
        {
          "name": "F5",
          "midi": 77,
          "time": 154.41168750000082,
          "velocity": 0.7559055118110236,
          "duration": 0.33455865625001024
        },
        {
          "name": "D#5",
          "midi": 75,
          "time": 154.76462850000084,
          "velocity": 0.7559055118110236,
          "duration": 0.3345586562499818
        },
        {
          "name": "A#4",
          "midi": 70,
          "time": 155.11756950000083,
          "velocity": 0.7559055118110236,
          "duration": 2.849263281249989
        },
        {
          "name": "D5",
          "midi": 74,
          "time": 155.11756950000083,
          "velocity": 0.7559055118110236,
          "duration": 2.849263281249989
        },
        {
          "name": "F5",
          "midi": 77,
          "time": 155.11756950000083,
          "velocity": 0.7559055118110236,
          "duration": 2.849263281249989
        },
        {
          "name": "G#4",
          "midi": 68,
          "time": 158.1175680000008,
          "velocity": 0.8818897637795275,
          "duration": 0.6698526062500036
        },
        {
          "name": "C5",
          "midi": 72,
          "time": 158.1175680000008,
          "velocity": 0.8818897637795275,
          "duration": 0.6698526062500036
        },
        {
          "name": "F5",
          "midi": 77,
          "time": 158.1175680000008,
          "velocity": 0.8818897637795275,
          "duration": 0.6698526062500036
        },
        {
          "name": "G#4",
          "midi": 68,
          "time": 158.8234500000008,
          "velocity": 0.8818897637795275,
          "duration": 0.502205631250007
        },
        {
          "name": "C5",
          "midi": 72,
          "time": 158.8234500000008,
          "velocity": 0.8818897637795275,
          "duration": 0.502205631250007
        },
        {
          "name": "F5",
          "midi": 77,
          "time": 158.8234500000008,
          "velocity": 0.8818897637795275,
          "duration": 0.502205631250007
        },
        {
          "name": "G#4",
          "midi": 68,
          "time": 159.3528615000008,
          "velocity": 0.8818897637795275,
          "duration": 0.16691168125001354
        },
        {
          "name": "C5",
          "midi": 72,
          "time": 159.3528615000008,
          "velocity": 0.8818897637795275,
          "duration": 0.16691168125001354
        },
        {
          "name": "D#5",
          "midi": 75,
          "time": 159.3528615000008,
          "velocity": 0.8818897637795275,
          "duration": 0.16691168125001354
        },
        {
          "name": "G#4",
          "midi": 68,
          "time": 159.52933200000084,
          "velocity": 0.8818897637795275,
          "duration": 0.16691168125001354
        },
        {
          "name": "C5",
          "midi": 72,
          "time": 159.52933200000084,
          "velocity": 0.8818897637795275,
          "duration": 0.16691168125001354
        },
        {
          "name": "F5",
          "midi": 77,
          "time": 159.52933200000084,
          "velocity": 0.8818897637795275,
          "duration": 0.16691168125001354
        },
        {
          "name": "G#4",
          "midi": 68,
          "time": 159.70580250000086,
          "velocity": 0.8818897637795275,
          "duration": 0.33455865625001024
        },
        {
          "name": "C5",
          "midi": 72,
          "time": 159.70580250000086,
          "velocity": 0.8818897637795275,
          "duration": 0.33455865625001024
        },
        {
          "name": "G5",
          "midi": 79,
          "time": 159.70580250000086,
          "velocity": 0.8818897637795275,
          "duration": 0.33455865625001024
        },
        {
          "name": "G#4",
          "midi": 68,
          "time": 160.05874350000087,
          "velocity": 0.8818897637795275,
          "duration": 0.33455865625001024
        },
        {
          "name": "C5",
          "midi": 72,
          "time": 160.05874350000087,
          "velocity": 0.8818897637795275,
          "duration": 0.33455865625001024
        },
        {
          "name": "G#4",
          "midi": 68,
          "time": 160.4116845000009,
          "velocity": 0.8818897637795275,
          "duration": 0.502205631250007
        },
        {
          "name": "D#5",
          "midi": 75,
          "time": 160.4116845000009,
          "velocity": 0.8818897637795275,
          "duration": 0.502205631250007
        },
        {
          "name": "G4",
          "midi": 67,
          "time": 160.9410960000009,
          "velocity": 0.8818897637795275,
          "duration": 0.6698526062500036
        },
        {
          "name": "C5",
          "midi": 72,
          "time": 160.9410960000009,
          "velocity": 0.8818897637795275,
          "duration": 0.6698526062500036
        },
        {
          "name": "F5",
          "midi": 77,
          "time": 160.9410960000009,
          "velocity": 0.8818897637795275,
          "duration": 0.6698526062500036
        },
        {
          "name": "G4",
          "midi": 67,
          "time": 161.6469780000009,
          "velocity": 0.8818897637795275,
          "duration": 0.502205631250007
        },
        {
          "name": "C5",
          "midi": 72,
          "time": 161.6469780000009,
          "velocity": 0.8818897637795275,
          "duration": 0.502205631250007
        },
        {
          "name": "F5",
          "midi": 77,
          "time": 161.6469780000009,
          "velocity": 0.8818897637795275,
          "duration": 0.502205631250007
        },
        {
          "name": "G4",
          "midi": 67,
          "time": 162.1763895000009,
          "velocity": 0.8818897637795275,
          "duration": 0.16691168125001354
        },
        {
          "name": "C5",
          "midi": 72,
          "time": 162.1763895000009,
          "velocity": 0.8818897637795275,
          "duration": 0.16691168125001354
        },
        {
          "name": "D#5",
          "midi": 75,
          "time": 162.1763895000009,
          "velocity": 0.8818897637795275,
          "duration": 0.16691168125001354
        },
        {
          "name": "G4",
          "midi": 67,
          "time": 162.35286000000093,
          "velocity": 0.8818897637795275,
          "duration": 0.16691168125001354
        },
        {
          "name": "C5",
          "midi": 72,
          "time": 162.35286000000093,
          "velocity": 0.8818897637795275,
          "duration": 0.16691168125001354
        },
        {
          "name": "F5",
          "midi": 77,
          "time": 162.35286000000093,
          "velocity": 0.8818897637795275,
          "duration": 0.16691168125001354
        },
        {
          "name": "G4",
          "midi": 67,
          "time": 162.52933050000095,
          "velocity": 0.8818897637795275,
          "duration": 0.33455865625001024
        },
        {
          "name": "C5",
          "midi": 72,
          "time": 162.52933050000095,
          "velocity": 0.8818897637795275,
          "duration": 0.33455865625001024
        },
        {
          "name": "G5",
          "midi": 79,
          "time": 162.52933050000095,
          "velocity": 0.8818897637795275,
          "duration": 0.33455865625001024
        },
        {
          "name": "G4",
          "midi": 67,
          "time": 162.88227150000097,
          "velocity": 0.8818897637795275,
          "duration": 0.33455865625001024
        },
        {
          "name": "C5",
          "midi": 72,
          "time": 162.88227150000097,
          "velocity": 0.8818897637795275,
          "duration": 0.33455865625001024
        },
        {
          "name": "G4",
          "midi": 67,
          "time": 163.23521250000098,
          "velocity": 0.8818897637795275,
          "duration": 0.502205631250007
        },
        {
          "name": "C5",
          "midi": 72,
          "time": 163.23521250000098,
          "velocity": 0.8818897637795275,
          "duration": 0.502205631250007
        },
        {
          "name": "D#5",
          "midi": 75,
          "time": 163.23521250000098,
          "velocity": 0.8818897637795275,
          "duration": 0.502205631250007
        },
        {
          "name": "A#4",
          "midi": 70,
          "time": 163.764624000001,
          "velocity": 0.8818897637795275,
          "duration": 0.16691168125001354
        },
        {
          "name": "D#5",
          "midi": 75,
          "time": 163.764624000001,
          "velocity": 0.8818897637795275,
          "duration": 0.16691168125001354
        },
        {
          "name": "A#5",
          "midi": 82,
          "time": 163.764624000001,
          "velocity": 0.8818897637795275,
          "duration": 0.16691168125001354
        },
        {
          "name": "A#4",
          "midi": 70,
          "time": 163.94109450000101,
          "velocity": 0.8818897637795275,
          "duration": 0.33455865625001024
        },
        {
          "name": "D#5",
          "midi": 75,
          "time": 163.94109450000101,
          "velocity": 0.8818897637795275,
          "duration": 0.33455865625001024
        },
        {
          "name": "G5",
          "midi": 79,
          "time": 163.94109450000101,
          "velocity": 0.8818897637795275,
          "duration": 0.33455865625001024
        },
        {
          "name": "A#4",
          "midi": 70,
          "time": 164.29403550000103,
          "velocity": 0.8818897637795275,
          "duration": 0.33455865625001024
        },
        {
          "name": "F5",
          "midi": 77,
          "time": 164.29403550000103,
          "velocity": 0.8818897637795275,
          "duration": 0.33455865625001024
        },
        {
          "name": "A#4",
          "midi": 70,
          "time": 164.64697650000105,
          "velocity": 0.8818897637795275,
          "duration": 0.502205631250007
        },
        {
          "name": "D#5",
          "midi": 75,
          "time": 164.64697650000105,
          "velocity": 0.8818897637795275,
          "duration": 0.502205631250007
        },
        {
          "name": "A#4",
          "midi": 70,
          "time": 165.17638800000105,
          "velocity": 0.8818897637795275,
          "duration": 0.16691168125001354
        },
        {
          "name": "D#5",
          "midi": 75,
          "time": 165.17638800000105,
          "velocity": 0.8818897637795275,
          "duration": 0.16691168125001354
        },
        {
          "name": "A#5",
          "midi": 82,
          "time": 165.17638800000105,
          "velocity": 0.8818897637795275,
          "duration": 0.16691168125001354
        },
        {
          "name": "A#4",
          "midi": 70,
          "time": 165.35285850000108,
          "velocity": 0.8503937007874016,
          "duration": 0.33455865625001024
        },
        {
          "name": "D#5",
          "midi": 75,
          "time": 165.35285850000108,
          "velocity": 0.8503937007874016,
          "duration": 0.33455865625001024
        },
        {
          "name": "G5",
          "midi": 79,
          "time": 165.35285850000108,
          "velocity": 0.8503937007874016,
          "duration": 0.33455865625001024
        },
        {
          "name": "A#4",
          "midi": 70,
          "time": 165.7057995000011,
          "velocity": 0.7874015748031497,
          "duration": 0.33455865625001024
        },
        {
          "name": "F5",
          "midi": 77,
          "time": 165.7057995000011,
          "velocity": 0.7874015748031497,
          "duration": 0.33455865625001024
        },
        {
          "name": "A#4",
          "midi": 70,
          "time": 166.0587405000011,
          "velocity": 0.7244094488188977,
          "duration": 0.33455865625001024
        },
        {
          "name": "D#5",
          "midi": 75,
          "time": 166.0587405000011,
          "velocity": 0.7244094488188977,
          "duration": 0.33455865625001024
        },
        {
          "name": "A#4",
          "midi": 70,
          "time": 166.41168150000112,
          "velocity": 0.6614173228346457,
          "duration": 2.0110284062500057
        },
        {
          "name": "D5",
          "midi": 74,
          "time": 166.41168150000112,
          "velocity": 0.6614173228346457,
          "duration": 2.0110284062500057
        },
        {
          "name": "F5",
          "midi": 77,
          "time": 166.41168150000112,
          "velocity": 0.6614173228346457,
          "duration": 2.0110284062500057
        },
        {
          "name": "A#4",
          "midi": 70,
          "time": 168.52932750000113,
          "velocity": 0.6299212598425197,
          "duration": 0.33455865625001024
        },
        {
          "name": "G5",
          "midi": 79,
          "time": 168.52932750000113,
          "velocity": 0.6299212598425197,
          "duration": 0.33455865625001024
        },
        {
          "name": "A#4",
          "midi": 70,
          "time": 168.88226850000115,
          "velocity": 0.6299212598425197,
          "duration": 0.33455865625001024
        },
        {
          "name": "D#5",
          "midi": 75,
          "time": 168.88226850000115,
          "velocity": 0.6299212598425197,
          "duration": 0.33455865625001024
        },
        {
          "name": "G#4",
          "midi": 68,
          "time": 169.41168000000116,
          "velocity": 0.6299212598425197,
          "duration": 2.0110284062500057
        },
        {
          "name": "C5",
          "midi": 72,
          "time": 169.41168000000116,
          "velocity": 0.6299212598425197,
          "duration": 2.0110284062500057
        },
        {
          "name": "F5",
          "midi": 77,
          "time": 169.41168000000116,
          "velocity": 0.6299212598425197,
          "duration": 2.0110284062500057
        },
        {
          "name": "F5",
          "midi": 77,
          "time": 171.70579650000116,
          "velocity": 0.6299212598425197,
          "duration": 0.16691168125001354
        },
        {
          "name": "G5",
          "midi": 79,
          "time": 171.88226700000118,
          "velocity": 0.6299212598425197,
          "duration": 0.33455865625001024
        },
        {
          "name": "F5",
          "midi": 77,
          "time": 172.2352080000012,
          "velocity": 0.6299212598425197,
          "duration": 0.33455865625001024
        },
        {
          "name": "D#5",
          "midi": 75,
          "time": 172.5881490000012,
          "velocity": 0.6299212598425197,
          "duration": 0.16691168125001354
        },
        {
          "name": "D#5",
          "midi": 75,
          "time": 172.76461950000123,
          "velocity": 0.6299212598425197,
          "duration": 0.33455865625001024
        },
        {
          "name": "C5",
          "midi": 72,
          "time": 173.11756050000125,
          "velocity": 0.6299212598425197,
          "duration": 0.33455865625001024
        },
        {
          "name": "D#5",
          "midi": 75,
          "time": 173.47050150000126,
          "velocity": 0.6299212598425197,
          "duration": 0.33455865625001024
        },
        {
          "name": "C5",
          "midi": 72,
          "time": 173.82344250000128,
          "velocity": 0.6299212598425197,
          "duration": 0.6698526062500036
        },
        {
          "name": "D#5",
          "midi": 75,
          "time": 174.52932450000128,
          "velocity": 0.6299212598425197,
          "duration": 0.502205631250007
        },
        {
          "name": "A#5",
          "midi": 82,
          "time": 175.0587360000013,
          "velocity": 0.6299212598425197,
          "duration": 0.16691168125001354
        },
        {
          "name": "G5",
          "midi": 79,
          "time": 175.2352065000013,
          "velocity": 0.6299212598425197,
          "duration": 0.33455865625001024
        },
        {
          "name": "F5",
          "midi": 77,
          "time": 175.58814750000133,
          "velocity": 0.6299212598425197,
          "duration": 0.33455865625001024
        },
        {
          "name": "D#5",
          "midi": 75,
          "time": 175.94108850000134,
          "velocity": 0.6299212598425197,
          "duration": 0.502205631250007
        },
        {
          "name": "A#5",
          "midi": 82,
          "time": 176.47050000000135,
          "velocity": 0.6299212598425197,
          "duration": 0.16691168125001354
        },
        {
          "name": "G5",
          "midi": 79,
          "time": 176.64697050000137,
          "velocity": 0.6299212598425197,
          "duration": 0.33455865625001024
        },
        {
          "name": "F5",
          "midi": 77,
          "time": 176.9999115000014,
          "velocity": 0.6299212598425197,
          "duration": 0.33455865625001024
        },
        {
          "name": "D#5",
          "midi": 75,
          "time": 177.3528525000014,
          "velocity": 0.6299212598425197,
          "duration": 0.33455865625001024
        },
        {
          "name": "A#4",
          "midi": 70,
          "time": 177.70579350000142,
          "velocity": 0.6299212598425197,
          "duration": 0.33455865625001024
        },
        {
          "name": "F5",
          "midi": 77,
          "time": 177.70579350000142,
          "velocity": 0.6299212598425197,
          "duration": 0.33455865625001024
        },
        {
          "name": "A#4",
          "midi": 70,
          "time": 178.05873450000144,
          "velocity": 0.6141732283464567,
          "duration": 0.6698526062500036
        },
        {
          "name": "F5",
          "midi": 77,
          "time": 178.05873450000144,
          "velocity": 0.6141732283464567,
          "duration": 0.6698526062500036
        },
        {
          "name": "A#3",
          "midi": 58,
          "time": 178.76461650000144,
          "velocity": 0.5433070866141733,
          "duration": 0.16691168125001354
        },
        {
          "name": "D4",
          "midi": 62,
          "time": 178.94108700000146,
          "velocity": 0.5275590551181102,
          "duration": 0.16691168125001354
        },
        {
          "name": "F4",
          "midi": 65,
          "time": 179.11755750000148,
          "velocity": 0.5039370078740157,
          "duration": 0.16691168125001354
        },
        {
          "name": "A#4",
          "midi": 70,
          "time": 179.2940280000015,
          "velocity": 0.5039370078740157,
          "duration": 1.4110287062499935
        },
        {
          "name": "D5",
          "midi": 74,
          "time": 179.3587338500015,
          "velocity": 0.5039370078740157,
          "duration": 1.3455875624999862
        },
        {
          "name": "F5",
          "midi": 77,
          "time": 179.4249102875015,
          "velocity": 0.5039370078740157,
          "duration": 1.2794111249999958
        }
      ],
      "controlChanges": {
        "6": [
          {
            "number": 6,
            "time": 0,
            "value": 0.09448818897637795
          }
        ],
        "7": [
          {
            "number": 7,
            "time": 0,
            "value": 0.7874015748031497
          }
        ],
        "10": [
          {
            "number": 10,
            "time": 0,
            "value": 0.5039370078740157
          }
        ],
        "91": [
          {
            "number": 91,
            "time": 0,
            "value": 0
          }
        ],
        "93": [
          {
            "number": 93,
            "time": 0,
            "value": 0
          }
        ],
        "100": [
          {
            "number": 100,
            "time": 0,
            "value": 0
          },
          {
            "number": 100,
            "time": 0,
            "value": 1
          }
        ],
        "101": [
          {
            "number": 101,
            "time": 0,
            "value": 0
          },
          {
            "number": 101,
            "time": 0,
            "value": 1
          }
        ],
        "121": [
          {
            "number": 121,
            "time": 0,
            "value": 0
          }
        ]
      },
      "id": 0,
      "name": "Piano",
      "instrumentNumber": 0,
      "instrument": "acoustic grand piano",
      "instrumentFamily": "piano",
      "channelNumber": 0,
      "isPercussion": false
    },
    {
      "startTime": 0,
      "duration": 180.096233481252,
      "length": 842,
      "notes": [
        {
          "name": "F2",
          "midi": 41,
          "time": 0,
          "velocity": 0.7559055118110236,
          "duration": 0.33455865625000003
        },
        {
          "name": "F3",
          "midi": 53,
          "time": 0,
          "velocity": 0.7559055118110236,
          "duration": 0.33455865625000003
        },
        {
          "name": "F3",
          "midi": 53,
          "time": 0.35294100000000006,
          "velocity": 0.7559055118110236,
          "duration": 0.16691168125
        },
        {
          "name": "G#3",
          "midi": 56,
          "time": 0.5294115,
          "velocity": 0.7559055118110236,
          "duration": 0.3345586562499999
        },
        {
          "name": "C4",
          "midi": 60,
          "time": 0.5294115,
          "velocity": 0.7559055118110236,
          "duration": 0.3345586562499999
        },
        {
          "name": "F3",
          "midi": 53,
          "time": 0.8823525,
          "velocity": 0.7559055118110236,
          "duration": 0.1669116812499999
        },
        {
          "name": "G#3",
          "midi": 56,
          "time": 1.0588229999999998,
          "velocity": 0.7559055118110236,
          "duration": 0.33455865625000003
        },
        {
          "name": "C4",
          "midi": 60,
          "time": 1.0588229999999998,
          "velocity": 0.7559055118110236,
          "duration": 0.33455865625000003
        },
        {
          "name": "F2",
          "midi": 41,
          "time": 1.4117639999999998,
          "velocity": 0.7559055118110236,
          "duration": 0.33455865625000003
        },
        {
          "name": "F3",
          "midi": 53,
          "time": 1.4117639999999998,
          "velocity": 0.7559055118110236,
          "duration": 0.33455865625000003
        },
        {
          "name": "F3",
          "midi": 53,
          "time": 1.7647049999999997,
          "velocity": 0.7559055118110236,
          "duration": 0.16691168125
        },
        {
          "name": "G#3",
          "midi": 56,
          "time": 1.9411754999999997,
          "velocity": 0.7559055118110236,
          "duration": 0.3345586562499998
        },
        {
          "name": "C4",
          "midi": 60,
          "time": 1.9411754999999997,
          "velocity": 0.7559055118110236,
          "duration": 0.3345586562499998
        },
        {
          "name": "F3",
          "midi": 53,
          "time": 2.2941164999999994,
          "velocity": 0.7559055118110236,
          "duration": 0.16691168125000022
        },
        {
          "name": "G#3",
          "midi": 56,
          "time": 2.4705869999999996,
          "velocity": 0.7559055118110236,
          "duration": 0.33455865625000003
        },
        {
          "name": "C4",
          "midi": 60,
          "time": 2.4705869999999996,
          "velocity": 0.7559055118110236,
          "duration": 0.33455865625000003
        },
        {
          "name": "C2",
          "midi": 36,
          "time": 2.8235279999999996,
          "velocity": 0.7559055118110236,
          "duration": 0.33455865625000003
        },
        {
          "name": "C3",
          "midi": 48,
          "time": 2.8235279999999996,
          "velocity": 0.7559055118110236,
          "duration": 0.33455865625000003
        },
        {
          "name": "G3",
          "midi": 55,
          "time": 3.1764689999999995,
          "velocity": 0.7559055118110236,
          "duration": 0.16691168124999978
        },
        {
          "name": "C4",
          "midi": 60,
          "time": 3.3529394999999993,
          "velocity": 0.7559055118110236,
          "duration": 0.33455865625000003
        },
        {
          "name": "D#4",
          "midi": 63,
          "time": 3.3529394999999993,
          "velocity": 0.7559055118110236,
          "duration": 0.33455865625000003
        },
        {
          "name": "G3",
          "midi": 55,
          "time": 3.7058804999999992,
          "velocity": 0.7559055118110236,
          "duration": 0.16691168125000022
        },
        {
          "name": "C4",
          "midi": 60,
          "time": 3.8823509999999994,
          "velocity": 0.7559055118110236,
          "duration": 0.33455865625000003
        },
        {
          "name": "D#4",
          "midi": 63,
          "time": 3.8823509999999994,
          "velocity": 0.7559055118110236,
          "duration": 0.33455865625000003
        },
        {
          "name": "C2",
          "midi": 36,
          "time": 4.235291999999999,
          "velocity": 0.7559055118110236,
          "duration": 0.3345586562500005
        },
        {
          "name": "C3",
          "midi": 48,
          "time": 4.235291999999999,
          "velocity": 0.7559055118110236,
          "duration": 0.3345586562500005
        },
        {
          "name": "G3",
          "midi": 55,
          "time": 4.588233,
          "velocity": 0.7559055118110236,
          "duration": 0.16691168125000022
        },
        {
          "name": "C4",
          "midi": 60,
          "time": 4.7647035,
          "velocity": 0.7559055118110236,
          "duration": 0.3345586562499996
        },
        {
          "name": "D#4",
          "midi": 63,
          "time": 4.7647035,
          "velocity": 0.7559055118110236,
          "duration": 0.3345586562499996
        },
        {
          "name": "G3",
          "midi": 55,
          "time": 5.1176445,
          "velocity": 0.7559055118110236,
          "duration": 0.16691168125000022
        },
        {
          "name": "C4",
          "midi": 60,
          "time": 5.294115000000001,
          "velocity": 0.7559055118110236,
          "duration": 0.3345586562499996
        },
        {
          "name": "D#4",
          "midi": 63,
          "time": 5.294115000000001,
          "velocity": 0.7559055118110236,
          "duration": 0.3345586562499996
        },
        {
          "name": "D#2",
          "midi": 39,
          "time": 5.647056,
          "velocity": 0.7559055118110236,
          "duration": 0.3345586562500005
        },
        {
          "name": "D#3",
          "midi": 51,
          "time": 5.647056,
          "velocity": 0.7559055118110236,
          "duration": 0.3345586562500005
        },
        {
          "name": "D#3",
          "midi": 51,
          "time": 5.9999970000000005,
          "velocity": 0.7559055118110236,
          "duration": 0.16691168125000022
        },
        {
          "name": "G3",
          "midi": 55,
          "time": 6.176467500000001,
          "velocity": 0.7559055118110236,
          "duration": 0.3345586562499996
        },
        {
          "name": "A#3",
          "midi": 58,
          "time": 6.176467500000001,
          "velocity": 0.7559055118110236,
          "duration": 0.3345586562499996
        },
        {
          "name": "D#3",
          "midi": 51,
          "time": 6.529408500000001,
          "velocity": 0.7559055118110236,
          "duration": 0.16691168125000022
        },
        {
          "name": "G3",
          "midi": 55,
          "time": 6.705879000000001,
          "velocity": 0.7559055118110236,
          "duration": 0.3345586562499996
        },
        {
          "name": "A#3",
          "midi": 58,
          "time": 6.705879000000001,
          "velocity": 0.7559055118110236,
          "duration": 0.3345586562499996
        },
        {
          "name": "D#2",
          "midi": 39,
          "time": 7.058820000000001,
          "velocity": 0.7559055118110236,
          "duration": 0.3345586562500005
        },
        {
          "name": "D#3",
          "midi": 51,
          "time": 7.058820000000001,
          "velocity": 0.7559055118110236,
          "duration": 0.3345586562500005
        },
        {
          "name": "D#3",
          "midi": 51,
          "time": 7.411761000000001,
          "velocity": 0.7559055118110236,
          "duration": 0.16691168125000022
        },
        {
          "name": "G3",
          "midi": 55,
          "time": 7.588231500000002,
          "velocity": 0.7559055118110236,
          "duration": 0.3345586562499996
        },
        {
          "name": "A#3",
          "midi": 58,
          "time": 7.588231500000002,
          "velocity": 0.7559055118110236,
          "duration": 0.3345586562499996
        },
        {
          "name": "D#3",
          "midi": 51,
          "time": 7.941172500000001,
          "velocity": 0.7559055118110236,
          "duration": 0.16691168125000022
        },
        {
          "name": "G3",
          "midi": 55,
          "time": 8.117643000000001,
          "velocity": 0.7559055118110236,
          "duration": 0.3345586562499996
        },
        {
          "name": "A#3",
          "midi": 58,
          "time": 8.117643000000001,
          "velocity": 0.7559055118110236,
          "duration": 0.3345586562499996
        },
        {
          "name": "A#1",
          "midi": 34,
          "time": 8.470584,
          "velocity": 0.7559055118110236,
          "duration": 0.3345586562499978
        },
        {
          "name": "A#2",
          "midi": 46,
          "time": 8.470584,
          "velocity": 0.7559055118110236,
          "duration": 0.3345586562499978
        },
        {
          "name": "F3",
          "midi": 53,
          "time": 8.823524999999998,
          "velocity": 0.7559055118110236,
          "duration": 0.16691168124999933
        },
        {
          "name": "A#3",
          "midi": 58,
          "time": 8.999995499999997,
          "velocity": 0.7559055118110236,
          "duration": 0.3345586562499996
        },
        {
          "name": "D4",
          "midi": 62,
          "time": 8.999995499999997,
          "velocity": 0.7559055118110236,
          "duration": 0.3345586562499996
        },
        {
          "name": "F3",
          "midi": 53,
          "time": 9.352936499999997,
          "velocity": 0.7559055118110236,
          "duration": 0.16691168124999933
        },
        {
          "name": "A#3",
          "midi": 58,
          "time": 9.529406999999996,
          "velocity": 0.7559055118110236,
          "duration": 0.3345586562499996
        },
        {
          "name": "D4",
          "midi": 62,
          "time": 9.529406999999996,
          "velocity": 0.7559055118110236,
          "duration": 0.3345586562499996
        },
        {
          "name": "A#1",
          "midi": 34,
          "time": 9.882347999999995,
          "velocity": 0.7559055118110236,
          "duration": 0.3345586562499978
        },
        {
          "name": "A#2",
          "midi": 46,
          "time": 9.882347999999995,
          "velocity": 0.7559055118110236,
          "duration": 0.3345586562499978
        },
        {
          "name": "F3",
          "midi": 53,
          "time": 10.235288999999993,
          "velocity": 0.7559055118110236,
          "duration": 0.16691168124999933
        },
        {
          "name": "A#3",
          "midi": 58,
          "time": 10.411759499999992,
          "velocity": 0.7559055118110236,
          "duration": 0.3345586562499996
        },
        {
          "name": "D4",
          "midi": 62,
          "time": 10.411759499999992,
          "velocity": 0.7559055118110236,
          "duration": 0.3345586562499996
        },
        {
          "name": "F3",
          "midi": 53,
          "time": 10.764700499999991,
          "velocity": 0.7559055118110236,
          "duration": 0.16691168124999933
        },
        {
          "name": "A#3",
          "midi": 58,
          "time": 10.94117099999999,
          "velocity": 0.7559055118110236,
          "duration": 0.3345586562499996
        },
        {
          "name": "D4",
          "midi": 62,
          "time": 10.94117099999999,
          "velocity": 0.7559055118110236,
          "duration": 0.3345586562499996
        },
        {
          "name": "F2",
          "midi": 41,
          "time": 11.29411199999999,
          "velocity": 0.5039370078740157,
          "duration": 0.16691168124999756
        },
        {
          "name": "C3",
          "midi": 48,
          "time": 11.470582499999987,
          "velocity": 0.5039370078740157,
          "duration": 0.16691168124999933
        },
        {
          "name": "F3",
          "midi": 53,
          "time": 11.647052999999985,
          "velocity": 0.5039370078740157,
          "duration": 0.16691168124999933
        },
        {
          "name": "G#3",
          "midi": 56,
          "time": 11.823523499999984,
          "velocity": 0.5039370078740157,
          "duration": 0.8374995812500003
        },
        {
          "name": "F2",
          "midi": 41,
          "time": 12.705875999999984,
          "velocity": 0.5039370078740157,
          "duration": 0.16691168124999756
        },
        {
          "name": "C3",
          "midi": 48,
          "time": 12.882346499999981,
          "velocity": 0.5039370078740157,
          "duration": 0.16691168124999933
        },
        {
          "name": "F3",
          "midi": 53,
          "time": 13.05881699999998,
          "velocity": 0.5039370078740157,
          "duration": 0.16691168124999933
        },
        {
          "name": "G#3",
          "midi": 56,
          "time": 13.235287499999979,
          "velocity": 0.5039370078740157,
          "duration": 0.8374995812500003
        },
        {
          "name": "C2",
          "midi": 36,
          "time": 14.117639999999978,
          "velocity": 0.5039370078740157,
          "duration": 0.16691168124999756
        },
        {
          "name": "G2",
          "midi": 43,
          "time": 14.294110499999976,
          "velocity": 0.5039370078740157,
          "duration": 0.16691168124999933
        },
        {
          "name": "C3",
          "midi": 48,
          "time": 14.470580999999974,
          "velocity": 0.5039370078740157,
          "duration": 0.16691168124999933
        },
        {
          "name": "D#3",
          "midi": 51,
          "time": 14.647051499999973,
          "velocity": 0.5039370078740157,
          "duration": 0.8374995812500003
        },
        {
          "name": "C2",
          "midi": 36,
          "time": 15.529403999999973,
          "velocity": 0.5039370078740157,
          "duration": 0.16691168124999756
        },
        {
          "name": "G2",
          "midi": 43,
          "time": 15.70587449999997,
          "velocity": 0.5039370078740157,
          "duration": 0.16691168124999933
        },
        {
          "name": "C3",
          "midi": 48,
          "time": 15.882344999999969,
          "velocity": 0.5039370078740157,
          "duration": 0.16691168124999933
        },
        {
          "name": "D#3",
          "midi": 51,
          "time": 16.05881549999997,
          "velocity": 0.5039370078740157,
          "duration": 0.8374995812500003
        },
        {
          "name": "D#2",
          "midi": 39,
          "time": 16.94116799999997,
          "velocity": 0.5039370078740157,
          "duration": 0.16691168125000289
        },
        {
          "name": "A#2",
          "midi": 46,
          "time": 17.117638499999973,
          "velocity": 0.5039370078740157,
          "duration": 0.16691168124999933
        },
        {
          "name": "D#3",
          "midi": 51,
          "time": 17.294108999999974,
          "velocity": 0.5039370078740157,
          "duration": 0.16691168124999933
        },
        {
          "name": "G3",
          "midi": 55,
          "time": 17.470579499999975,
          "velocity": 0.5039370078740157,
          "duration": 0.8374995812500003
        },
        {
          "name": "D#2",
          "midi": 39,
          "time": 18.352931999999974,
          "velocity": 0.5039370078740157,
          "duration": 0.16691168125000289
        },
        {
          "name": "A#2",
          "midi": 46,
          "time": 18.52940249999998,
          "velocity": 0.5039370078740157,
          "duration": 0.16691168124999933
        },
        {
          "name": "D#3",
          "midi": 51,
          "time": 18.70587299999998,
          "velocity": 0.5039370078740157,
          "duration": 0.16691168124999933
        },
        {
          "name": "G3",
          "midi": 55,
          "time": 18.88234349999998,
          "velocity": 0.5039370078740157,
          "duration": 0.8374995812500003
        },
        {
          "name": "A#1",
          "midi": 34,
          "time": 19.76469599999998,
          "velocity": 0.5039370078740157,
          "duration": 0.16691168125000289
        },
        {
          "name": "F2",
          "midi": 41,
          "time": 19.941166499999984,
          "velocity": 0.5039370078740157,
          "duration": 0.16691168124999933
        },
        {
          "name": "A#2",
          "midi": 46,
          "time": 20.117636999999984,
          "velocity": 0.5039370078740157,
          "duration": 0.16691168124999933
        },
        {
          "name": "D3",
          "midi": 50,
          "time": 20.294107499999985,
          "velocity": 0.5039370078740157,
          "duration": 0.8374995812500003
        },
        {
          "name": "A#1",
          "midi": 34,
          "time": 21.176459999999985,
          "velocity": 0.5039370078740157,
          "duration": 0.16691168125000289
        },
        {
          "name": "F2",
          "midi": 41,
          "time": 21.35293049999999,
          "velocity": 0.5039370078740157,
          "duration": 0.16691168124999933
        },
        {
          "name": "A#2",
          "midi": 46,
          "time": 21.52940099999999,
          "velocity": 0.5039370078740157,
          "duration": 0.16691168124999933
        },
        {
          "name": "D3",
          "midi": 50,
          "time": 21.70587149999999,
          "velocity": 0.5039370078740157,
          "duration": 0.8374995812500003
        },
        {
          "name": "F2",
          "midi": 41,
          "time": 22.58822399999999,
          "velocity": 0.5039370078740157,
          "duration": 0.16691168125000289
        },
        {
          "name": "C3",
          "midi": 48,
          "time": 22.764694499999994,
          "velocity": 0.5039370078740157,
          "duration": 0.16691168124999933
        },
        {
          "name": "F3",
          "midi": 53,
          "time": 22.941164999999994,
          "velocity": 0.5039370078740157,
          "duration": 0.16691168124999933
        },
        {
          "name": "G#3",
          "midi": 56,
          "time": 23.117635499999995,
          "velocity": 0.5039370078740157,
          "duration": 0.8374995812500003
        },
        {
          "name": "F2",
          "midi": 41,
          "time": 23.999987999999995,
          "velocity": 0.5039370078740157,
          "duration": 0.16691168125000289
        },
        {
          "name": "C3",
          "midi": 48,
          "time": 24.1764585,
          "velocity": 0.5039370078740157,
          "duration": 0.16691168124999933
        },
        {
          "name": "F3",
          "midi": 53,
          "time": 24.352929,
          "velocity": 0.5039370078740157,
          "duration": 0.16691168124999933
        },
        {
          "name": "G#3",
          "midi": 56,
          "time": 24.5293995,
          "velocity": 0.5039370078740157,
          "duration": 0.8374995812500003
        },
        {
          "name": "C2",
          "midi": 36,
          "time": 25.411752,
          "velocity": 0.5039370078740157,
          "duration": 0.16691168125000289
        },
        {
          "name": "G2",
          "midi": 43,
          "time": 25.588222500000004,
          "velocity": 0.5039370078740157,
          "duration": 0.16691168124999933
        },
        {
          "name": "C3",
          "midi": 48,
          "time": 25.764693000000005,
          "velocity": 0.5039370078740157,
          "duration": 0.16691168124999933
        },
        {
          "name": "D#3",
          "midi": 51,
          "time": 25.941163500000005,
          "velocity": 0.5039370078740157,
          "duration": 0.8374995812500003
        },
        {
          "name": "C2",
          "midi": 36,
          "time": 26.823516000000005,
          "velocity": 0.5039370078740157,
          "duration": 0.16691168125000289
        },
        {
          "name": "G2",
          "midi": 43,
          "time": 26.99998650000001,
          "velocity": 0.5039370078740157,
          "duration": 0.16691168124999933
        },
        {
          "name": "C3",
          "midi": 48,
          "time": 27.17645700000001,
          "velocity": 0.5039370078740157,
          "duration": 0.16691168124999933
        },
        {
          "name": "D#3",
          "midi": 51,
          "time": 27.35292750000001,
          "velocity": 0.5039370078740157,
          "duration": 0.8374995812500003
        },
        {
          "name": "D#2",
          "midi": 39,
          "time": 28.23528000000001,
          "velocity": 0.5039370078740157,
          "duration": 0.16691168125000289
        },
        {
          "name": "A#2",
          "midi": 46,
          "time": 28.411750500000014,
          "velocity": 0.5039370078740157,
          "duration": 0.16691168124999933
        },
        {
          "name": "D#3",
          "midi": 51,
          "time": 28.588221000000015,
          "velocity": 0.5039370078740157,
          "duration": 0.16691168124999933
        },
        {
          "name": "G3",
          "midi": 55,
          "time": 28.764691500000016,
          "velocity": 0.5039370078740157,
          "duration": 0.8374995812500003
        },
        {
          "name": "D#2",
          "midi": 39,
          "time": 29.647044000000015,
          "velocity": 0.5039370078740157,
          "duration": 0.16691168125000289
        },
        {
          "name": "A#2",
          "midi": 46,
          "time": 29.82351450000002,
          "velocity": 0.5039370078740157,
          "duration": 0.16691168124999933
        },
        {
          "name": "D#3",
          "midi": 51,
          "time": 29.99998500000002,
          "velocity": 0.5039370078740157,
          "duration": 0.16691168124999933
        },
        {
          "name": "G3",
          "midi": 55,
          "time": 30.17645550000002,
          "velocity": 0.5039370078740157,
          "duration": 0.8374995812500003
        },
        {
          "name": "A#1",
          "midi": 34,
          "time": 31.05880800000002,
          "velocity": 0.5039370078740157,
          "duration": 0.16691168125000289
        },
        {
          "name": "F2",
          "midi": 41,
          "time": 31.235278500000025,
          "velocity": 0.5039370078740157,
          "duration": 0.16691168124999933
        },
        {
          "name": "A#2",
          "midi": 46,
          "time": 31.411749000000025,
          "velocity": 0.5039370078740157,
          "duration": 0.16691168124999933
        },
        {
          "name": "D3",
          "midi": 50,
          "time": 31.588219500000026,
          "velocity": 0.5039370078740157,
          "duration": 0.8374995812499968
        },
        {
          "name": "A#1",
          "midi": 34,
          "time": 32.470572000000026,
          "velocity": 0.5039370078740157,
          "duration": 0.16691168124999223
        },
        {
          "name": "F2",
          "midi": 41,
          "time": 32.64704250000002,
          "velocity": 0.5039370078740157,
          "duration": 0.16691168124999933
        },
        {
          "name": "A#2",
          "midi": 46,
          "time": 32.82351300000002,
          "velocity": 0.5039370078740157,
          "duration": 0.16691168124999933
        },
        {
          "name": "D3",
          "midi": 50,
          "time": 32.99998350000002,
          "velocity": 0.5039370078740157,
          "duration": 0.8374995812500003
        },
        {
          "name": "F2",
          "midi": 41,
          "time": 33.88233600000002,
          "velocity": 0.6299212598425197,
          "duration": 0.16691168124999223
        },
        {
          "name": "C3",
          "midi": 48,
          "time": 34.05880650000002,
          "velocity": 0.6299212598425197,
          "duration": 0.16691168124999933
        },
        {
          "name": "F3",
          "midi": 53,
          "time": 34.23527700000002,
          "velocity": 0.6299212598425197,
          "duration": 0.16691168124999933
        },
        {
          "name": "F3",
          "midi": 53,
          "time": 34.41174750000002,
          "velocity": 0.6299212598425197,
          "duration": 0.5022056312499998
        },
        {
          "name": "G#3",
          "midi": 56,
          "time": 34.41174750000002,
          "velocity": 0.6299212598425197,
          "duration": 0.5022056312499998
        },
        {
          "name": "C4",
          "midi": 60,
          "time": 34.41174750000002,
          "velocity": 0.6299212598425197,
          "duration": 0.5022056312499998
        },
        {
          "name": "F3",
          "midi": 53,
          "time": 34.94115900000002,
          "velocity": 0.6299212598425197,
          "duration": 0.33455865625000314
        },
        {
          "name": "G#3",
          "midi": 56,
          "time": 34.94115900000002,
          "velocity": 0.6299212598425197,
          "duration": 0.33455865625000314
        },
        {
          "name": "C4",
          "midi": 60,
          "time": 34.94115900000002,
          "velocity": 0.6299212598425197,
          "duration": 0.33455865625000314
        },
        {
          "name": "F2",
          "midi": 41,
          "time": 35.29410000000002,
          "velocity": 0.6299212598425197,
          "duration": 0.16691168124999223
        },
        {
          "name": "C3",
          "midi": 48,
          "time": 35.470570500000015,
          "velocity": 0.6299212598425197,
          "duration": 0.16691168124999933
        },
        {
          "name": "F3",
          "midi": 53,
          "time": 35.647041000000016,
          "velocity": 0.6299212598425197,
          "duration": 0.16691168124999933
        },
        {
          "name": "F3",
          "midi": 53,
          "time": 35.823511500000016,
          "velocity": 0.6299212598425197,
          "duration": 0.5022056312499998
        },
        {
          "name": "G#3",
          "midi": 56,
          "time": 35.823511500000016,
          "velocity": 0.6299212598425197,
          "duration": 0.5022056312499998
        },
        {
          "name": "C4",
          "midi": 60,
          "time": 35.823511500000016,
          "velocity": 0.6299212598425197,
          "duration": 0.5022056312499998
        },
        {
          "name": "F3",
          "midi": 53,
          "time": 36.35292300000002,
          "velocity": 0.6299212598425197,
          "duration": 0.33455865625000314
        },
        {
          "name": "G#3",
          "midi": 56,
          "time": 36.35292300000002,
          "velocity": 0.6299212598425197,
          "duration": 0.33455865625000314
        },
        {
          "name": "C4",
          "midi": 60,
          "time": 36.35292300000002,
          "velocity": 0.6299212598425197,
          "duration": 0.33455865625000314
        },
        {
          "name": "C2",
          "midi": 36,
          "time": 36.70586400000002,
          "velocity": 0.6299212598425197,
          "duration": 0.16691168124999223
        },
        {
          "name": "G2",
          "midi": 43,
          "time": 36.88233450000001,
          "velocity": 0.6299212598425197,
          "duration": 0.16691168124999933
        },
        {
          "name": "C3",
          "midi": 48,
          "time": 37.058805000000014,
          "velocity": 0.6299212598425197,
          "duration": 0.16691168124999933
        },
        {
          "name": "D#3",
          "midi": 51,
          "time": 37.235275500000014,
          "velocity": 0.6299212598425197,
          "duration": 0.5022056312499998
        },
        {
          "name": "G3",
          "midi": 55,
          "time": 37.235275500000014,
          "velocity": 0.6299212598425197,
          "duration": 0.5022056312499998
        },
        {
          "name": "C4",
          "midi": 60,
          "time": 37.235275500000014,
          "velocity": 0.6299212598425197,
          "duration": 0.5022056312499998
        },
        {
          "name": "D#3",
          "midi": 51,
          "time": 37.764687000000016,
          "velocity": 0.6299212598425197,
          "duration": 0.33455865625000314
        },
        {
          "name": "G3",
          "midi": 55,
          "time": 37.764687000000016,
          "velocity": 0.6299212598425197,
          "duration": 0.33455865625000314
        },
        {
          "name": "C4",
          "midi": 60,
          "time": 37.764687000000016,
          "velocity": 0.6299212598425197,
          "duration": 0.33455865625000314
        },
        {
          "name": "C2",
          "midi": 36,
          "time": 38.11762800000002,
          "velocity": 0.6299212598425197,
          "duration": 0.16691168124999223
        },
        {
          "name": "G2",
          "midi": 43,
          "time": 38.29409850000001,
          "velocity": 0.6299212598425197,
          "duration": 0.16691168124999933
        },
        {
          "name": "C3",
          "midi": 48,
          "time": 38.47056900000001,
          "velocity": 0.6299212598425197,
          "duration": 0.16691168124999933
        },
        {
          "name": "D#3",
          "midi": 51,
          "time": 38.64703950000001,
          "velocity": 0.6299212598425197,
          "duration": 0.5022056312499998
        },
        {
          "name": "G3",
          "midi": 55,
          "time": 38.64703950000001,
          "velocity": 0.6299212598425197,
          "duration": 0.5022056312499998
        },
        {
          "name": "C4",
          "midi": 60,
          "time": 38.64703950000001,
          "velocity": 0.6299212598425197,
          "duration": 0.5022056312499998
        },
        {
          "name": "D#3",
          "midi": 51,
          "time": 39.176451000000014,
          "velocity": 0.6299212598425197,
          "duration": 0.33455865625000314
        },
        {
          "name": "G3",
          "midi": 55,
          "time": 39.176451000000014,
          "velocity": 0.6299212598425197,
          "duration": 0.33455865625000314
        },
        {
          "name": "C4",
          "midi": 60,
          "time": 39.176451000000014,
          "velocity": 0.6299212598425197,
          "duration": 0.33455865625000314
        },
        {
          "name": "D#2",
          "midi": 39,
          "time": 39.529392000000016,
          "velocity": 0.6299212598425197,
          "duration": 0.16691168124999223
        },
        {
          "name": "A#2",
          "midi": 46,
          "time": 39.70586250000001,
          "velocity": 0.6299212598425197,
          "duration": 0.16691168124999933
        },
        {
          "name": "D#3",
          "midi": 51,
          "time": 39.88233300000001,
          "velocity": 0.6299212598425197,
          "duration": 0.16691168124999933
        },
        {
          "name": "D#3",
          "midi": 51,
          "time": 40.05880350000001,
          "velocity": 0.6299212598425197,
          "duration": 0.5022056312499998
        },
        {
          "name": "G3",
          "midi": 55,
          "time": 40.05880350000001,
          "velocity": 0.6299212598425197,
          "duration": 0.5022056312499998
        },
        {
          "name": "A#3",
          "midi": 58,
          "time": 40.05880350000001,
          "velocity": 0.6299212598425197,
          "duration": 0.5022056312499998
        },
        {
          "name": "D#3",
          "midi": 51,
          "time": 40.58821500000001,
          "velocity": 0.6299212598425197,
          "duration": 0.33455865625000314
        },
        {
          "name": "G3",
          "midi": 55,
          "time": 40.58821500000001,
          "velocity": 0.6299212598425197,
          "duration": 0.33455865625000314
        },
        {
          "name": "A#3",
          "midi": 58,
          "time": 40.58821500000001,
          "velocity": 0.6299212598425197,
          "duration": 0.33455865625000314
        },
        {
          "name": "D#2",
          "midi": 39,
          "time": 40.941156000000014,
          "velocity": 0.6299212598425197,
          "duration": 0.33455865624999603
        },
        {
          "name": "D#3",
          "midi": 51,
          "time": 41.29409700000001,
          "velocity": 0.6299212598425197,
          "duration": 0.16691168124999933
        },
        {
          "name": "D#3",
          "midi": 51,
          "time": 41.47056750000001,
          "velocity": 0.6299212598425197,
          "duration": 0.16691168124999933
        },
        {
          "name": "G3",
          "midi": 55,
          "time": 41.47056750000001,
          "velocity": 0.6299212598425197,
          "duration": 0.5022056312499998
        },
        {
          "name": "A#3",
          "midi": 58,
          "time": 41.47056750000001,
          "velocity": 0.6299212598425197,
          "duration": 0.16691168124999933
        },
        {
          "name": "D#3",
          "midi": 51,
          "time": 41.64703800000001,
          "velocity": 0.6299212598425197,
          "duration": 0.33455865624999603
        },
        {
          "name": "A#3",
          "midi": 58,
          "time": 41.64703800000001,
          "velocity": 0.6299212598425197,
          "duration": 0.33455865624999603
        },
        {
          "name": "D#3",
          "midi": 51,
          "time": 41.999979,
          "velocity": 0.6299212598425197,
          "duration": 0.33455865625000314
        },
        {
          "name": "G3",
          "midi": 55,
          "time": 41.999979,
          "velocity": 0.6299212598425197,
          "duration": 0.33455865625000314
        },
        {
          "name": "A#3",
          "midi": 58,
          "time": 41.999979,
          "velocity": 0.6299212598425197,
          "duration": 0.33455865625000314
        },
        {
          "name": "A#1",
          "midi": 34,
          "time": 42.352920000000005,
          "velocity": 0.6299212598425197,
          "duration": 1.3404405062499976
        },
        {
          "name": "A#2",
          "midi": 46,
          "time": 42.352920000000005,
          "velocity": 0.6299212598425197,
          "duration": 1.3404405062499976
        },
        {
          "name": "A#0",
          "midi": 22,
          "time": 43.764684,
          "velocity": 0.6299212598425197,
          "duration": 1.3404405062499976
        },
        {
          "name": "A#1",
          "midi": 34,
          "time": 43.764684,
          "velocity": 0.6299212598425197,
          "duration": 1.3404405062499976
        },
        {
          "name": "F2",
          "midi": 41,
          "time": 45.176448,
          "velocity": 0.7559055118110236,
          "duration": 0.33455865624999603
        },
        {
          "name": "F3",
          "midi": 53,
          "time": 45.176448,
          "velocity": 0.7559055118110236,
          "duration": 0.33455865624999603
        },
        {
          "name": "F3",
          "midi": 53,
          "time": 45.529388999999995,
          "velocity": 0.7559055118110236,
          "duration": 0.16691168124999933
        },
        {
          "name": "G#3",
          "midi": 56,
          "time": 45.705859499999995,
          "velocity": 0.7559055118110236,
          "duration": 0.33455865625000314
        },
        {
          "name": "C4",
          "midi": 60,
          "time": 45.705859499999995,
          "velocity": 0.7559055118110236,
          "duration": 0.33455865625000314
        },
        {
          "name": "F3",
          "midi": 53,
          "time": 46.0588005,
          "velocity": 0.7559055118110236,
          "duration": 0.16691168124999933
        },
        {
          "name": "G#3",
          "midi": 56,
          "time": 46.235271,
          "velocity": 0.7559055118110236,
          "duration": 0.33455865625000314
        },
        {
          "name": "C4",
          "midi": 60,
          "time": 46.235271,
          "velocity": 0.7559055118110236,
          "duration": 0.33455865625000314
        },
        {
          "name": "F2",
          "midi": 41,
          "time": 46.588212,
          "velocity": 0.7559055118110236,
          "duration": 0.33455865624999603
        },
        {
          "name": "F3",
          "midi": 53,
          "time": 46.588212,
          "velocity": 0.7559055118110236,
          "duration": 0.33455865624999603
        },
        {
          "name": "F3",
          "midi": 53,
          "time": 46.94115299999999,
          "velocity": 0.7559055118110236,
          "duration": 0.16691168124999933
        },
        {
          "name": "G#3",
          "midi": 56,
          "time": 47.11762349999999,
          "velocity": 0.7559055118110236,
          "duration": 0.33455865625000314
        },
        {
          "name": "C4",
          "midi": 60,
          "time": 47.11762349999999,
          "velocity": 0.7559055118110236,
          "duration": 0.33455865625000314
        },
        {
          "name": "F3",
          "midi": 53,
          "time": 47.470564499999995,
          "velocity": 0.7559055118110236,
          "duration": 0.16691168124999933
        },
        {
          "name": "G#3",
          "midi": 56,
          "time": 47.647034999999995,
          "velocity": 0.7559055118110236,
          "duration": 0.33455865625000314
        },
        {
          "name": "C4",
          "midi": 60,
          "time": 47.647034999999995,
          "velocity": 0.7559055118110236,
          "duration": 0.33455865625000314
        },
        {
          "name": "C2",
          "midi": 36,
          "time": 47.999976,
          "velocity": 0.7559055118110236,
          "duration": 0.33455865624999603
        },
        {
          "name": "C3",
          "midi": 48,
          "time": 47.999976,
          "velocity": 0.7559055118110236,
          "duration": 0.33455865624999603
        },
        {
          "name": "G3",
          "midi": 55,
          "time": 48.35291699999999,
          "velocity": 0.7559055118110236,
          "duration": 0.16691168124999933
        },
        {
          "name": "C4",
          "midi": 60,
          "time": 48.52938749999999,
          "velocity": 0.7559055118110236,
          "duration": 0.33455865625000314
        },
        {
          "name": "D#4",
          "midi": 63,
          "time": 48.52938749999999,
          "velocity": 0.7559055118110236,
          "duration": 0.33455865625000314
        },
        {
          "name": "G3",
          "midi": 55,
          "time": 48.88232849999999,
          "velocity": 0.7559055118110236,
          "duration": 0.16691168124999933
        },
        {
          "name": "C4",
          "midi": 60,
          "time": 49.05879899999999,
          "velocity": 0.7559055118110236,
          "duration": 0.33455865625000314
        },
        {
          "name": "D#4",
          "midi": 63,
          "time": 49.05879899999999,
          "velocity": 0.7559055118110236,
          "duration": 0.33455865625000314
        },
        {
          "name": "C2",
          "midi": 36,
          "time": 49.411739999999995,
          "velocity": 0.7559055118110236,
          "duration": 0.33455865624999603
        },
        {
          "name": "C3",
          "midi": 48,
          "time": 49.411739999999995,
          "velocity": 0.7559055118110236,
          "duration": 0.33455865624999603
        },
        {
          "name": "G3",
          "midi": 55,
          "time": 49.76468099999999,
          "velocity": 0.7559055118110236,
          "duration": 0.16691168124999933
        },
        {
          "name": "C4",
          "midi": 60,
          "time": 49.94115149999999,
          "velocity": 0.7559055118110236,
          "duration": 0.33455865625000314
        },
        {
          "name": "D#4",
          "midi": 63,
          "time": 49.94115149999999,
          "velocity": 0.7559055118110236,
          "duration": 0.33455865625000314
        },
        {
          "name": "G3",
          "midi": 55,
          "time": 50.29409249999999,
          "velocity": 0.7559055118110236,
          "duration": 0.16691168124999933
        },
        {
          "name": "C4",
          "midi": 60,
          "time": 50.47056299999999,
          "velocity": 0.7559055118110236,
          "duration": 0.33455865625000314
        },
        {
          "name": "D#4",
          "midi": 63,
          "time": 50.47056299999999,
          "velocity": 0.7559055118110236,
          "duration": 0.33455865625000314
        },
        {
          "name": "D#2",
          "midi": 39,
          "time": 50.82350399999999,
          "velocity": 0.7559055118110236,
          "duration": 0.33455865624999603
        },
        {
          "name": "D#3",
          "midi": 51,
          "time": 50.82350399999999,
          "velocity": 0.7559055118110236,
          "duration": 0.33455865624999603
        },
        {
          "name": "D#3",
          "midi": 51,
          "time": 51.17644499999999,
          "velocity": 0.7559055118110236,
          "duration": 0.16691168124999933
        },
        {
          "name": "G3",
          "midi": 55,
          "time": 51.35291549999999,
          "velocity": 0.7559055118110236,
          "duration": 0.33455865625000314
        },
        {
          "name": "A#3",
          "midi": 58,
          "time": 51.35291549999999,
          "velocity": 0.7559055118110236,
          "duration": 0.33455865625000314
        },
        {
          "name": "D#3",
          "midi": 51,
          "time": 51.70585649999999,
          "velocity": 0.7559055118110236,
          "duration": 0.16691168124999933
        },
        {
          "name": "G3",
          "midi": 55,
          "time": 51.88232699999999,
          "velocity": 0.7559055118110236,
          "duration": 0.33455865625000314
        },
        {
          "name": "A#3",
          "midi": 58,
          "time": 51.88232699999999,
          "velocity": 0.7559055118110236,
          "duration": 0.33455865625000314
        },
        {
          "name": "D#2",
          "midi": 39,
          "time": 52.23526799999999,
          "velocity": 0.7559055118110236,
          "duration": 0.33455865624999603
        },
        {
          "name": "D#3",
          "midi": 51,
          "time": 52.23526799999999,
          "velocity": 0.7559055118110236,
          "duration": 0.33455865624999603
        },
        {
          "name": "D#3",
          "midi": 51,
          "time": 52.588208999999985,
          "velocity": 0.7559055118110236,
          "duration": 0.16691168124999933
        },
        {
          "name": "G3",
          "midi": 55,
          "time": 52.764679499999986,
          "velocity": 0.7559055118110236,
          "duration": 0.33455865625000314
        },
        {
          "name": "A#3",
          "midi": 58,
          "time": 52.764679499999986,
          "velocity": 0.7559055118110236,
          "duration": 0.33455865625000314
        },
        {
          "name": "D#3",
          "midi": 51,
          "time": 53.11762049999999,
          "velocity": 0.7559055118110236,
          "duration": 0.16691168124999933
        },
        {
          "name": "G3",
          "midi": 55,
          "time": 53.29409099999999,
          "velocity": 0.7559055118110236,
          "duration": 0.33455865625000314
        },
        {
          "name": "A#3",
          "midi": 58,
          "time": 53.29409099999999,
          "velocity": 0.7559055118110236,
          "duration": 0.33455865625000314
        },
        {
          "name": "A#1",
          "midi": 34,
          "time": 53.64703199999999,
          "velocity": 0.7559055118110236,
          "duration": 0.33455865624999603
        },
        {
          "name": "A#2",
          "midi": 46,
          "time": 53.64703199999999,
          "velocity": 0.7559055118110236,
          "duration": 0.33455865624999603
        },
        {
          "name": "F3",
          "midi": 53,
          "time": 53.99997299999998,
          "velocity": 0.7559055118110236,
          "duration": 0.16691168124999933
        },
        {
          "name": "A#3",
          "midi": 58,
          "time": 54.17644349999998,
          "velocity": 0.7559055118110236,
          "duration": 0.33455865625000314
        },
        {
          "name": "D4",
          "midi": 62,
          "time": 54.17644349999998,
          "velocity": 0.7559055118110236,
          "duration": 0.33455865625000314
        },
        {
          "name": "F3",
          "midi": 53,
          "time": 54.529384499999985,
          "velocity": 0.7559055118110236,
          "duration": 0.16691168124999933
        },
        {
          "name": "A#3",
          "midi": 58,
          "time": 54.705854999999985,
          "velocity": 0.7559055118110236,
          "duration": 0.33455865625000314
        },
        {
          "name": "D4",
          "midi": 62,
          "time": 54.705854999999985,
          "velocity": 0.7559055118110236,
          "duration": 0.33455865625000314
        },
        {
          "name": "A#1",
          "midi": 34,
          "time": 55.05879599999999,
          "velocity": 0.7559055118110236,
          "duration": 0.33455865624999603
        },
        {
          "name": "A#2",
          "midi": 46,
          "time": 55.05879599999999,
          "velocity": 0.7559055118110236,
          "duration": 0.33455865624999603
        },
        {
          "name": "F3",
          "midi": 53,
          "time": 55.41173699999998,
          "velocity": 0.7559055118110236,
          "duration": 0.16691168124999933
        },
        {
          "name": "A#3",
          "midi": 58,
          "time": 55.58820749999998,
          "velocity": 0.7559055118110236,
          "duration": 0.33455865625000314
        },
        {
          "name": "D4",
          "midi": 62,
          "time": 55.58820749999998,
          "velocity": 0.7559055118110236,
          "duration": 0.33455865625000314
        },
        {
          "name": "F3",
          "midi": 53,
          "time": 55.94114849999998,
          "velocity": 0.7559055118110236,
          "duration": 0.16691168124999933
        },
        {
          "name": "A#3",
          "midi": 58,
          "time": 56.11761899999998,
          "velocity": 0.7559055118110236,
          "duration": 0.33455865625000314
        },
        {
          "name": "D4",
          "midi": 62,
          "time": 56.11761899999998,
          "velocity": 0.7559055118110236,
          "duration": 0.33455865625000314
        },
        {
          "name": "F2",
          "midi": 41,
          "time": 56.470559999999985,
          "velocity": 0.7559055118110236,
          "duration": 0.33455865624999603
        },
        {
          "name": "F3",
          "midi": 53,
          "time": 56.470559999999985,
          "velocity": 0.7559055118110236,
          "duration": 0.33455865624999603
        },
        {
          "name": "F3",
          "midi": 53,
          "time": 56.82350099999998,
          "velocity": 0.7559055118110236,
          "duration": 0.16691168124999933
        },
        {
          "name": "G#3",
          "midi": 56,
          "time": 56.99997149999998,
          "velocity": 0.7559055118110236,
          "duration": 0.33455865625000314
        },
        {
          "name": "C4",
          "midi": 60,
          "time": 56.99997149999998,
          "velocity": 0.7559055118110236,
          "duration": 0.33455865625000314
        },
        {
          "name": "F3",
          "midi": 53,
          "time": 57.35291249999998,
          "velocity": 0.7559055118110236,
          "duration": 0.16691168124999933
        },
        {
          "name": "G#3",
          "midi": 56,
          "time": 57.52938299999998,
          "velocity": 0.7559055118110236,
          "duration": 0.33455865625000314
        },
        {
          "name": "C4",
          "midi": 60,
          "time": 57.52938299999998,
          "velocity": 0.7559055118110236,
          "duration": 0.33455865625000314
        },
        {
          "name": "F2",
          "midi": 41,
          "time": 57.88232399999998,
          "velocity": 0.7559055118110236,
          "duration": 0.33455865624999603
        },
        {
          "name": "F3",
          "midi": 53,
          "time": 57.88232399999998,
          "velocity": 0.7559055118110236,
          "duration": 0.33455865624999603
        },
        {
          "name": "F3",
          "midi": 53,
          "time": 58.23526499999998,
          "velocity": 0.7559055118110236,
          "duration": 0.16691168124999933
        },
        {
          "name": "G#3",
          "midi": 56,
          "time": 58.41173549999998,
          "velocity": 0.7559055118110236,
          "duration": 0.33455865625000314
        },
        {
          "name": "C4",
          "midi": 60,
          "time": 58.41173549999998,
          "velocity": 0.7559055118110236,
          "duration": 0.33455865625000314
        },
        {
          "name": "F3",
          "midi": 53,
          "time": 58.76467649999998,
          "velocity": 0.7559055118110236,
          "duration": 0.16691168124999933
        },
        {
          "name": "G#3",
          "midi": 56,
          "time": 58.94114699999998,
          "velocity": 0.7559055118110236,
          "duration": 0.33455865625000314
        },
        {
          "name": "C4",
          "midi": 60,
          "time": 58.94114699999998,
          "velocity": 0.7559055118110236,
          "duration": 0.33455865625000314
        },
        {
          "name": "C2",
          "midi": 36,
          "time": 59.29408799999998,
          "velocity": 0.7559055118110236,
          "duration": 0.33455865624999603
        },
        {
          "name": "C3",
          "midi": 48,
          "time": 59.29408799999998,
          "velocity": 0.7559055118110236,
          "duration": 0.33455865624999603
        },
        {
          "name": "G3",
          "midi": 55,
          "time": 59.647028999999975,
          "velocity": 0.7559055118110236,
          "duration": 0.16691168124999933
        },
        {
          "name": "C4",
          "midi": 60,
          "time": 59.823499499999976,
          "velocity": 0.7559055118110236,
          "duration": 0.33455865625000314
        },
        {
          "name": "D#4",
          "midi": 63,
          "time": 59.823499499999976,
          "velocity": 0.7559055118110236,
          "duration": 0.33455865625000314
        },
        {
          "name": "G3",
          "midi": 55,
          "time": 60.17644049999998,
          "velocity": 0.7559055118110236,
          "duration": 0.16691168124999933
        },
        {
          "name": "C4",
          "midi": 60,
          "time": 60.35291099999998,
          "velocity": 0.7559055118110236,
          "duration": 0.33455865625000314
        },
        {
          "name": "D#4",
          "midi": 63,
          "time": 60.35291099999998,
          "velocity": 0.7559055118110236,
          "duration": 0.33455865625000314
        },
        {
          "name": "C2",
          "midi": 36,
          "time": 60.70585199999998,
          "velocity": 0.7559055118110236,
          "duration": 0.33455865624999603
        },
        {
          "name": "C3",
          "midi": 48,
          "time": 60.70585199999998,
          "velocity": 0.7559055118110236,
          "duration": 0.33455865624999603
        },
        {
          "name": "G3",
          "midi": 55,
          "time": 61.05879299999997,
          "velocity": 0.7559055118110236,
          "duration": 0.16691168124999933
        },
        {
          "name": "C4",
          "midi": 60,
          "time": 61.235263499999974,
          "velocity": 0.7559055118110236,
          "duration": 0.33455865625000314
        },
        {
          "name": "D#4",
          "midi": 63,
          "time": 61.235263499999974,
          "velocity": 0.7559055118110236,
          "duration": 0.33455865625000314
        },
        {
          "name": "G3",
          "midi": 55,
          "time": 61.588204499999975,
          "velocity": 0.7559055118110236,
          "duration": 0.16691168124999933
        },
        {
          "name": "C4",
          "midi": 60,
          "time": 61.764674999999976,
          "velocity": 0.7559055118110236,
          "duration": 0.33455865625000314
        },
        {
          "name": "D#4",
          "midi": 63,
          "time": 61.764674999999976,
          "velocity": 0.7559055118110236,
          "duration": 0.33455865625000314
        },
        {
          "name": "D#2",
          "midi": 39,
          "time": 62.11761599999998,
          "velocity": 0.7559055118110236,
          "duration": 0.33455865624999603
        },
        {
          "name": "D#3",
          "midi": 51,
          "time": 62.11761599999998,
          "velocity": 0.7559055118110236,
          "duration": 0.33455865624999603
        },
        {
          "name": "D#3",
          "midi": 51,
          "time": 62.47055699999997,
          "velocity": 0.7559055118110236,
          "duration": 0.16691168124999933
        },
        {
          "name": "G3",
          "midi": 55,
          "time": 62.64702749999997,
          "velocity": 0.7559055118110236,
          "duration": 0.33455865625000314
        },
        {
          "name": "A#3",
          "midi": 58,
          "time": 62.64702749999997,
          "velocity": 0.7559055118110236,
          "duration": 0.33455865625000314
        },
        {
          "name": "D#3",
          "midi": 51,
          "time": 62.99996849999997,
          "velocity": 0.7559055118110236,
          "duration": 0.16691168124999933
        },
        {
          "name": "G3",
          "midi": 55,
          "time": 63.176438999999974,
          "velocity": 0.7559055118110236,
          "duration": 0.33455865625000314
        },
        {
          "name": "A#3",
          "midi": 58,
          "time": 63.176438999999974,
          "velocity": 0.7559055118110236,
          "duration": 0.33455865625000314
        },
        {
          "name": "D#2",
          "midi": 39,
          "time": 63.529379999999975,
          "velocity": 0.7559055118110236,
          "duration": 0.33455865624999603
        },
        {
          "name": "D#3",
          "midi": 51,
          "time": 63.529379999999975,
          "velocity": 0.7559055118110236,
          "duration": 0.33455865624999603
        },
        {
          "name": "D#3",
          "midi": 51,
          "time": 63.88232099999997,
          "velocity": 0.7559055118110236,
          "duration": 0.16691168125000644
        },
        {
          "name": "G3",
          "midi": 55,
          "time": 64.05879149999997,
          "velocity": 0.7559055118110236,
          "duration": 0.33455865624999603
        },
        {
          "name": "A#3",
          "midi": 58,
          "time": 64.05879149999997,
          "velocity": 0.7559055118110236,
          "duration": 0.33455865624999603
        },
        {
          "name": "D#3",
          "midi": 51,
          "time": 64.41173249999997,
          "velocity": 0.7559055118110236,
          "duration": 0.16691168124999933
        },
        {
          "name": "G3",
          "midi": 55,
          "time": 64.58820299999996,
          "velocity": 0.7559055118110236,
          "duration": 0.33455865624999603
        },
        {
          "name": "A#3",
          "midi": 58,
          "time": 64.58820299999996,
          "velocity": 0.7559055118110236,
          "duration": 0.33455865624999603
        },
        {
          "name": "A#1",
          "midi": 34,
          "time": 64.94114399999997,
          "velocity": 0.7559055118110236,
          "duration": 0.33455865624999603
        },
        {
          "name": "A#2",
          "midi": 46,
          "time": 64.94114399999997,
          "velocity": 0.7559055118110236,
          "duration": 0.33455865624999603
        },
        {
          "name": "F3",
          "midi": 53,
          "time": 65.29408499999997,
          "velocity": 0.7559055118110236,
          "duration": 0.16691168124999933
        },
        {
          "name": "A#3",
          "midi": 58,
          "time": 65.47055549999996,
          "velocity": 0.7559055118110236,
          "duration": 0.33455865624999603
        },
        {
          "name": "D4",
          "midi": 62,
          "time": 65.47055549999996,
          "velocity": 0.7559055118110236,
          "duration": 0.33455865624999603
        },
        {
          "name": "F3",
          "midi": 53,
          "time": 65.82349649999996,
          "velocity": 0.7559055118110236,
          "duration": 0.16691168124999933
        },
        {
          "name": "A#3",
          "midi": 58,
          "time": 65.99996699999996,
          "velocity": 0.7559055118110236,
          "duration": 0.33455865624999603
        },
        {
          "name": "D4",
          "midi": 62,
          "time": 65.99996699999996,
          "velocity": 0.7559055118110236,
          "duration": 0.33455865624999603
        },
        {
          "name": "A#1",
          "midi": 34,
          "time": 66.35290799999996,
          "velocity": 0.7559055118110236,
          "duration": 0.33455865624999603
        },
        {
          "name": "A#2",
          "midi": 46,
          "time": 66.35290799999996,
          "velocity": 0.7559055118110236,
          "duration": 0.33455865624999603
        },
        {
          "name": "F3",
          "midi": 53,
          "time": 66.70584899999996,
          "velocity": 0.7559055118110236,
          "duration": 0.16691168124999933
        },
        {
          "name": "A#3",
          "midi": 58,
          "time": 66.88231949999995,
          "velocity": 0.7559055118110236,
          "duration": 0.33455865624999603
        },
        {
          "name": "D4",
          "midi": 62,
          "time": 66.88231949999995,
          "velocity": 0.7559055118110236,
          "duration": 0.33455865624999603
        },
        {
          "name": "F3",
          "midi": 53,
          "time": 67.23526049999995,
          "velocity": 0.7559055118110236,
          "duration": 0.16691168124999933
        },
        {
          "name": "A#3",
          "midi": 58,
          "time": 67.41173099999995,
          "velocity": 0.7559055118110236,
          "duration": 0.33455865624999603
        },
        {
          "name": "D4",
          "midi": 62,
          "time": 67.41173099999995,
          "velocity": 0.7559055118110236,
          "duration": 0.33455865624999603
        },
        {
          "name": "F2",
          "midi": 41,
          "time": 67.76467199999995,
          "velocity": 0.7559055118110236,
          "duration": 0.33455865624999603
        },
        {
          "name": "F3",
          "midi": 53,
          "time": 67.76467199999995,
          "velocity": 0.7559055118110236,
          "duration": 0.33455865624999603
        },
        {
          "name": "F3",
          "midi": 53,
          "time": 68.11761299999995,
          "velocity": 0.7559055118110236,
          "duration": 0.16691168124999933
        },
        {
          "name": "G#3",
          "midi": 56,
          "time": 68.29408349999994,
          "velocity": 0.7559055118110236,
          "duration": 0.33455865624999603
        },
        {
          "name": "C4",
          "midi": 60,
          "time": 68.29408349999994,
          "velocity": 0.7559055118110236,
          "duration": 0.33455865624999603
        },
        {
          "name": "F3",
          "midi": 53,
          "time": 68.64702449999994,
          "velocity": 0.7559055118110236,
          "duration": 0.16691168124999933
        },
        {
          "name": "G#3",
          "midi": 56,
          "time": 68.82349499999994,
          "velocity": 0.7559055118110236,
          "duration": 0.33455865624999603
        },
        {
          "name": "C4",
          "midi": 60,
          "time": 68.82349499999994,
          "velocity": 0.7559055118110236,
          "duration": 0.33455865624999603
        },
        {
          "name": "F2",
          "midi": 41,
          "time": 69.17643599999994,
          "velocity": 0.7559055118110236,
          "duration": 0.33455865624999603
        },
        {
          "name": "F3",
          "midi": 53,
          "time": 69.17643599999994,
          "velocity": 0.7559055118110236,
          "duration": 0.33455865624999603
        },
        {
          "name": "F3",
          "midi": 53,
          "time": 69.52937699999994,
          "velocity": 0.7559055118110236,
          "duration": 0.16691168124999933
        },
        {
          "name": "G#3",
          "midi": 56,
          "time": 69.70584749999993,
          "velocity": 0.7559055118110236,
          "duration": 0.33455865624999603
        },
        {
          "name": "C4",
          "midi": 60,
          "time": 69.70584749999993,
          "velocity": 0.7559055118110236,
          "duration": 0.33455865624999603
        },
        {
          "name": "F3",
          "midi": 53,
          "time": 70.05878849999993,
          "velocity": 0.7559055118110236,
          "duration": 0.16691168124999933
        },
        {
          "name": "G#3",
          "midi": 56,
          "time": 70.23525899999993,
          "velocity": 0.7559055118110236,
          "duration": 0.33455865624999603
        },
        {
          "name": "C4",
          "midi": 60,
          "time": 70.23525899999993,
          "velocity": 0.7559055118110236,
          "duration": 0.33455865624999603
        },
        {
          "name": "C2",
          "midi": 36,
          "time": 70.58819999999993,
          "velocity": 0.7559055118110236,
          "duration": 0.33455865624999603
        },
        {
          "name": "C3",
          "midi": 48,
          "time": 70.58819999999993,
          "velocity": 0.7559055118110236,
          "duration": 0.33455865624999603
        },
        {
          "name": "G3",
          "midi": 55,
          "time": 70.94114099999993,
          "velocity": 0.7559055118110236,
          "duration": 0.16691168124999933
        },
        {
          "name": "C4",
          "midi": 60,
          "time": 71.11761149999992,
          "velocity": 0.7559055118110236,
          "duration": 0.33455865624999603
        },
        {
          "name": "D#4",
          "midi": 63,
          "time": 71.11761149999992,
          "velocity": 0.7559055118110236,
          "duration": 0.33455865624999603
        },
        {
          "name": "G3",
          "midi": 55,
          "time": 71.47055249999993,
          "velocity": 0.7559055118110236,
          "duration": 0.16691168124999933
        },
        {
          "name": "C4",
          "midi": 60,
          "time": 71.64702299999992,
          "velocity": 0.7559055118110236,
          "duration": 0.33455865624999603
        },
        {
          "name": "D#4",
          "midi": 63,
          "time": 71.64702299999992,
          "velocity": 0.7559055118110236,
          "duration": 0.33455865624999603
        },
        {
          "name": "C2",
          "midi": 36,
          "time": 71.99996399999992,
          "velocity": 0.7559055118110236,
          "duration": 0.33455865624999603
        },
        {
          "name": "C3",
          "midi": 48,
          "time": 71.99996399999992,
          "velocity": 0.7559055118110236,
          "duration": 0.33455865624999603
        },
        {
          "name": "G3",
          "midi": 55,
          "time": 72.35290499999992,
          "velocity": 0.7559055118110236,
          "duration": 0.16691168124999933
        },
        {
          "name": "C4",
          "midi": 60,
          "time": 72.52937549999992,
          "velocity": 0.7559055118110236,
          "duration": 0.33455865624999603
        },
        {
          "name": "D#4",
          "midi": 63,
          "time": 72.52937549999992,
          "velocity": 0.7559055118110236,
          "duration": 0.33455865624999603
        },
        {
          "name": "G3",
          "midi": 55,
          "time": 72.88231649999992,
          "velocity": 0.7559055118110236,
          "duration": 0.16691168124999933
        },
        {
          "name": "C4",
          "midi": 60,
          "time": 73.05878699999991,
          "velocity": 0.7559055118110236,
          "duration": 0.33455865624999603
        },
        {
          "name": "D#4",
          "midi": 63,
          "time": 73.05878699999991,
          "velocity": 0.7559055118110236,
          "duration": 0.33455865624999603
        },
        {
          "name": "D#2",
          "midi": 39,
          "time": 73.41172799999991,
          "velocity": 0.7559055118110236,
          "duration": 0.33455865624999603
        },
        {
          "name": "D#3",
          "midi": 51,
          "time": 73.41172799999991,
          "velocity": 0.7559055118110236,
          "duration": 0.33455865624999603
        },
        {
          "name": "D#3",
          "midi": 51,
          "time": 73.76466899999991,
          "velocity": 0.7559055118110236,
          "duration": 0.16691168124999933
        },
        {
          "name": "G3",
          "midi": 55,
          "time": 73.9411394999999,
          "velocity": 0.7559055118110236,
          "duration": 0.33455865624999603
        },
        {
          "name": "A#3",
          "midi": 58,
          "time": 73.9411394999999,
          "velocity": 0.7559055118110236,
          "duration": 0.33455865624999603
        },
        {
          "name": "D#3",
          "midi": 51,
          "time": 74.29408049999991,
          "velocity": 0.7559055118110236,
          "duration": 0.16691168124999933
        },
        {
          "name": "G3",
          "midi": 55,
          "time": 74.4705509999999,
          "velocity": 0.7559055118110236,
          "duration": 0.33455865624999603
        },
        {
          "name": "A#3",
          "midi": 58,
          "time": 74.4705509999999,
          "velocity": 0.7559055118110236,
          "duration": 0.33455865624999603
        },
        {
          "name": "D#2",
          "midi": 39,
          "time": 74.8234919999999,
          "velocity": 0.7559055118110236,
          "duration": 0.33455865624999603
        },
        {
          "name": "D#3",
          "midi": 51,
          "time": 74.8234919999999,
          "velocity": 0.7559055118110236,
          "duration": 0.33455865624999603
        },
        {
          "name": "D#3",
          "midi": 51,
          "time": 75.1764329999999,
          "velocity": 0.7559055118110236,
          "duration": 0.16691168124999933
        },
        {
          "name": "G3",
          "midi": 55,
          "time": 75.3529034999999,
          "velocity": 0.7559055118110236,
          "duration": 0.33455865624999603
        },
        {
          "name": "A#3",
          "midi": 58,
          "time": 75.3529034999999,
          "velocity": 0.7559055118110236,
          "duration": 0.33455865624999603
        },
        {
          "name": "D#3",
          "midi": 51,
          "time": 75.7058444999999,
          "velocity": 0.7559055118110236,
          "duration": 0.16691168124999933
        },
        {
          "name": "G3",
          "midi": 55,
          "time": 75.88231499999989,
          "velocity": 0.7559055118110236,
          "duration": 0.33455865624999603
        },
        {
          "name": "A#3",
          "midi": 58,
          "time": 75.88231499999989,
          "velocity": 0.7559055118110236,
          "duration": 0.33455865624999603
        },
        {
          "name": "A#1",
          "midi": 34,
          "time": 76.2352559999999,
          "velocity": 0.7559055118110236,
          "duration": 0.33455865624999603
        },
        {
          "name": "A#2",
          "midi": 46,
          "time": 76.2352559999999,
          "velocity": 0.7559055118110236,
          "duration": 0.33455865624999603
        },
        {
          "name": "F3",
          "midi": 53,
          "time": 76.5881969999999,
          "velocity": 0.7559055118110236,
          "duration": 0.16691168124999933
        },
        {
          "name": "A#3",
          "midi": 58,
          "time": 76.76466749999989,
          "velocity": 0.7559055118110236,
          "duration": 0.33455865624999603
        },
        {
          "name": "D4",
          "midi": 62,
          "time": 76.76466749999989,
          "velocity": 0.7559055118110236,
          "duration": 0.33455865624999603
        },
        {
          "name": "F3",
          "midi": 53,
          "time": 77.11760849999989,
          "velocity": 0.7559055118110236,
          "duration": 0.16691168124999933
        },
        {
          "name": "A#3",
          "midi": 58,
          "time": 77.29407899999988,
          "velocity": 0.7559055118110236,
          "duration": 0.33455865624999603
        },
        {
          "name": "D4",
          "midi": 62,
          "time": 77.29407899999988,
          "velocity": 0.7559055118110236,
          "duration": 0.33455865624999603
        },
        {
          "name": "A#1",
          "midi": 34,
          "time": 77.64701999999988,
          "velocity": 0.7559055118110236,
          "duration": 0.33455865624999603
        },
        {
          "name": "A#2",
          "midi": 46,
          "time": 77.64701999999988,
          "velocity": 0.7559055118110236,
          "duration": 0.33455865624999603
        },
        {
          "name": "F3",
          "midi": 53,
          "time": 77.99996099999989,
          "velocity": 0.7559055118110236,
          "duration": 0.16691168124999933
        },
        {
          "name": "A#3",
          "midi": 58,
          "time": 78.17643149999988,
          "velocity": 0.7559055118110236,
          "duration": 0.33455865624999603
        },
        {
          "name": "D4",
          "midi": 62,
          "time": 78.17643149999988,
          "velocity": 0.7559055118110236,
          "duration": 0.33455865624999603
        },
        {
          "name": "F3",
          "midi": 53,
          "time": 78.52937249999988,
          "velocity": 0.6299212598425197,
          "duration": 0.16691168124999933
        },
        {
          "name": "A#3",
          "midi": 58,
          "time": 78.70584299999987,
          "velocity": 0.6299212598425197,
          "duration": 0.33455865624999603
        },
        {
          "name": "D4",
          "midi": 62,
          "time": 78.70584299999987,
          "velocity": 0.6299212598425197,
          "duration": 0.33455865624999603
        },
        {
          "name": "F2",
          "midi": 41,
          "time": 79.05878399999987,
          "velocity": 0.6299212598425197,
          "duration": 0.16691168124999933
        },
        {
          "name": "C3",
          "midi": 48,
          "time": 79.23525449999987,
          "velocity": 0.6299212598425197,
          "duration": 0.16691168124999933
        },
        {
          "name": "F3",
          "midi": 53,
          "time": 79.41172499999986,
          "velocity": 0.6299212598425197,
          "duration": 0.16691168124999933
        },
        {
          "name": "G#3",
          "midi": 56,
          "time": 79.58819549999986,
          "velocity": 0.6299212598425197,
          "duration": 0.8374995812500003
        },
        {
          "name": "F2",
          "midi": 41,
          "time": 80.47054799999985,
          "velocity": 0.6299212598425197,
          "duration": 0.16691168124999933
        },
        {
          "name": "C3",
          "midi": 48,
          "time": 80.64701849999985,
          "velocity": 0.6299212598425197,
          "duration": 0.16691168124999933
        },
        {
          "name": "F3",
          "midi": 53,
          "time": 80.82348899999984,
          "velocity": 0.6299212598425197,
          "duration": 0.16691168124999933
        },
        {
          "name": "G#3",
          "midi": 56,
          "time": 80.99995949999983,
          "velocity": 0.6299212598425197,
          "duration": 0.8374995812500003
        },
        {
          "name": "C2",
          "midi": 36,
          "time": 81.88231199999983,
          "velocity": 0.6299212598425197,
          "duration": 0.16691168124999933
        },
        {
          "name": "G2",
          "midi": 43,
          "time": 82.05878249999982,
          "velocity": 0.6299212598425197,
          "duration": 0.16691168124999933
        },
        {
          "name": "C3",
          "midi": 48,
          "time": 82.23525299999982,
          "velocity": 0.6299212598425197,
          "duration": 0.16691168124999933
        },
        {
          "name": "D#3",
          "midi": 51,
          "time": 82.41172349999981,
          "velocity": 0.6299212598425197,
          "duration": 0.8374995812500003
        },
        {
          "name": "C2",
          "midi": 36,
          "time": 83.2940759999998,
          "velocity": 0.6299212598425197,
          "duration": 0.16691168124999933
        },
        {
          "name": "G2",
          "midi": 43,
          "time": 83.4705464999998,
          "velocity": 0.6299212598425197,
          "duration": 0.16691168124999933
        },
        {
          "name": "C3",
          "midi": 48,
          "time": 83.64701699999979,
          "velocity": 0.6299212598425197,
          "duration": 0.16691168124999933
        },
        {
          "name": "D#3",
          "midi": 51,
          "time": 83.82348749999979,
          "velocity": 0.6299212598425197,
          "duration": 0.8374995812500003
        },
        {
          "name": "D#2",
          "midi": 39,
          "time": 84.70583999999978,
          "velocity": 0.6299212598425197,
          "duration": 0.16691168124999933
        },
        {
          "name": "A#2",
          "midi": 46,
          "time": 84.88231049999978,
          "velocity": 0.6299212598425197,
          "duration": 0.16691168124999933
        },
        {
          "name": "D#3",
          "midi": 51,
          "time": 85.05878099999977,
          "velocity": 0.6299212598425197,
          "duration": 0.16691168124999933
        },
        {
          "name": "G3",
          "midi": 55,
          "time": 85.23525149999976,
          "velocity": 0.6299212598425197,
          "duration": 0.8374995812500003
        },
        {
          "name": "D#2",
          "midi": 39,
          "time": 86.11760399999976,
          "velocity": 0.6299212598425197,
          "duration": 0.16691168124999933
        },
        {
          "name": "A#2",
          "midi": 46,
          "time": 86.29407449999975,
          "velocity": 0.6299212598425197,
          "duration": 0.16691168124999933
        },
        {
          "name": "D#3",
          "midi": 51,
          "time": 86.47054499999975,
          "velocity": 0.6299212598425197,
          "duration": 0.16691168124999933
        },
        {
          "name": "G3",
          "midi": 55,
          "time": 86.64701549999974,
          "velocity": 0.6299212598425197,
          "duration": 0.8374995812500003
        },
        {
          "name": "A#1",
          "midi": 34,
          "time": 87.52936799999974,
          "velocity": 0.6299212598425197,
          "duration": 0.16691168124999933
        },
        {
          "name": "F2",
          "midi": 41,
          "time": 87.70583849999973,
          "velocity": 0.6299212598425197,
          "duration": 0.16691168124999933
        },
        {
          "name": "A#2",
          "midi": 46,
          "time": 87.88230899999972,
          "velocity": 0.6299212598425197,
          "duration": 0.16691168124999933
        },
        {
          "name": "D3",
          "midi": 50,
          "time": 88.05877949999972,
          "velocity": 0.6299212598425197,
          "duration": 0.8374995812500003
        },
        {
          "name": "A#1",
          "midi": 34,
          "time": 88.94113199999971,
          "velocity": 0.6299212598425197,
          "duration": 0.16691168124999933
        },
        {
          "name": "F2",
          "midi": 41,
          "time": 89.1176024999997,
          "velocity": 0.6299212598425197,
          "duration": 0.16691168124999933
        },
        {
          "name": "A#2",
          "midi": 46,
          "time": 89.2940729999997,
          "velocity": 0.6299212598425197,
          "duration": 0.16691168124999933
        },
        {
          "name": "D3",
          "midi": 50,
          "time": 89.47054349999969,
          "velocity": 0.6299212598425197,
          "duration": 0.8374995812500003
        },
        {
          "name": "F2",
          "midi": 41,
          "time": 90.35289599999969,
          "velocity": 0.6299212598425197,
          "duration": 0.16691168124999933
        },
        {
          "name": "C3",
          "midi": 48,
          "time": 90.52936649999968,
          "velocity": 0.6456692913385826,
          "duration": 0.16691168124999933
        },
        {
          "name": "F3",
          "midi": 53,
          "time": 90.70583699999968,
          "velocity": 0.6614173228346457,
          "duration": 0.16691168124999933
        },
        {
          "name": "F3",
          "midi": 53,
          "time": 90.88230749999967,
          "velocity": 0.6771653543307087,
          "duration": 0.502205631250007
        },
        {
          "name": "G#3",
          "midi": 56,
          "time": 90.88230749999967,
          "velocity": 0.6771653543307087,
          "duration": 0.502205631250007
        },
        {
          "name": "C4",
          "midi": 60,
          "time": 90.88230749999967,
          "velocity": 0.6771653543307087,
          "duration": 0.502205631250007
        },
        {
          "name": "F3",
          "midi": 53,
          "time": 91.41171899999968,
          "velocity": 0.7244094488188977,
          "duration": 0.33455865624999603
        },
        {
          "name": "G#3",
          "midi": 56,
          "time": 91.41171899999968,
          "velocity": 0.7244094488188977,
          "duration": 0.33455865624999603
        },
        {
          "name": "C4",
          "midi": 60,
          "time": 91.41171899999968,
          "velocity": 0.7244094488188977,
          "duration": 0.33455865624999603
        },
        {
          "name": "F2",
          "midi": 41,
          "time": 91.76465999999968,
          "velocity": 0.7559055118110236,
          "duration": 0.16691168124999933
        },
        {
          "name": "C3",
          "midi": 48,
          "time": 91.94113049999967,
          "velocity": 0.7559055118110236,
          "duration": 0.16691168124999933
        },
        {
          "name": "F3",
          "midi": 53,
          "time": 92.11760099999967,
          "velocity": 0.7559055118110236,
          "duration": 0.16691168124999933
        },
        {
          "name": "F3",
          "midi": 53,
          "time": 92.29407149999966,
          "velocity": 0.7559055118110236,
          "duration": 0.502205631250007
        },
        {
          "name": "G#3",
          "midi": 56,
          "time": 92.29407149999966,
          "velocity": 0.7559055118110236,
          "duration": 0.502205631250007
        },
        {
          "name": "C4",
          "midi": 60,
          "time": 92.29407149999966,
          "velocity": 0.7559055118110236,
          "duration": 0.502205631250007
        },
        {
          "name": "F3",
          "midi": 53,
          "time": 92.82348299999967,
          "velocity": 0.7559055118110236,
          "duration": 0.33455865624999603
        },
        {
          "name": "G#3",
          "midi": 56,
          "time": 92.82348299999967,
          "velocity": 0.7559055118110236,
          "duration": 0.33455865624999603
        },
        {
          "name": "C4",
          "midi": 60,
          "time": 92.82348299999967,
          "velocity": 0.7559055118110236,
          "duration": 0.33455865624999603
        },
        {
          "name": "C2",
          "midi": 36,
          "time": 93.17642399999967,
          "velocity": 0.7559055118110236,
          "duration": 0.16691168124999933
        },
        {
          "name": "G2",
          "midi": 43,
          "time": 93.35289449999966,
          "velocity": 0.7559055118110236,
          "duration": 0.16691168124999933
        },
        {
          "name": "C3",
          "midi": 48,
          "time": 93.52936499999966,
          "velocity": 0.7559055118110236,
          "duration": 0.16691168124999933
        },
        {
          "name": "D#3",
          "midi": 51,
          "time": 93.70583549999965,
          "velocity": 0.7559055118110236,
          "duration": 0.502205631250007
        },
        {
          "name": "G3",
          "midi": 55,
          "time": 93.70583549999965,
          "velocity": 0.7559055118110236,
          "duration": 0.502205631250007
        },
        {
          "name": "C4",
          "midi": 60,
          "time": 93.70583549999965,
          "velocity": 0.7559055118110236,
          "duration": 0.502205631250007
        },
        {
          "name": "D#3",
          "midi": 51,
          "time": 94.23524699999966,
          "velocity": 0.7559055118110236,
          "duration": 0.33455865624999603
        },
        {
          "name": "G3",
          "midi": 55,
          "time": 94.23524699999966,
          "velocity": 0.7559055118110236,
          "duration": 0.33455865624999603
        },
        {
          "name": "C4",
          "midi": 60,
          "time": 94.23524699999966,
          "velocity": 0.7559055118110236,
          "duration": 0.33455865624999603
        },
        {
          "name": "C2",
          "midi": 36,
          "time": 94.58818799999966,
          "velocity": 0.7559055118110236,
          "duration": 0.16691168124999933
        },
        {
          "name": "G2",
          "midi": 43,
          "time": 94.76465849999965,
          "velocity": 0.7559055118110236,
          "duration": 0.16691168124999933
        },
        {
          "name": "C3",
          "midi": 48,
          "time": 94.94112899999965,
          "velocity": 0.7559055118110236,
          "duration": 0.16691168124999933
        },
        {
          "name": "D#3",
          "midi": 51,
          "time": 95.11759949999964,
          "velocity": 0.7559055118110236,
          "duration": 0.502205631250007
        },
        {
          "name": "G3",
          "midi": 55,
          "time": 95.11759949999964,
          "velocity": 0.7559055118110236,
          "duration": 0.502205631250007
        },
        {
          "name": "C4",
          "midi": 60,
          "time": 95.11759949999964,
          "velocity": 0.7559055118110236,
          "duration": 0.502205631250007
        },
        {
          "name": "D#3",
          "midi": 51,
          "time": 95.64701099999965,
          "velocity": 0.7559055118110236,
          "duration": 0.33455865624999603
        },
        {
          "name": "G3",
          "midi": 55,
          "time": 95.64701099999965,
          "velocity": 0.7559055118110236,
          "duration": 0.33455865624999603
        },
        {
          "name": "C4",
          "midi": 60,
          "time": 95.64701099999965,
          "velocity": 0.7559055118110236,
          "duration": 0.33455865624999603
        },
        {
          "name": "D#2",
          "midi": 39,
          "time": 95.99995199999965,
          "velocity": 0.7559055118110236,
          "duration": 0.16691168124999933
        },
        {
          "name": "A#2",
          "midi": 46,
          "time": 96.17642249999965,
          "velocity": 0.7559055118110236,
          "duration": 0.16691168124999933
        },
        {
          "name": "D#3",
          "midi": 51,
          "time": 96.35289299999964,
          "velocity": 0.7559055118110236,
          "duration": 0.16691168124999933
        },
        {
          "name": "D#3",
          "midi": 51,
          "time": 96.52936349999963,
          "velocity": 0.7559055118110236,
          "duration": 0.502205631250007
        },
        {
          "name": "G3",
          "midi": 55,
          "time": 96.52936349999963,
          "velocity": 0.7559055118110236,
          "duration": 0.502205631250007
        },
        {
          "name": "A#3",
          "midi": 58,
          "time": 96.52936349999963,
          "velocity": 0.7559055118110236,
          "duration": 0.502205631250007
        },
        {
          "name": "D#3",
          "midi": 51,
          "time": 97.05877499999964,
          "velocity": 0.7559055118110236,
          "duration": 0.33455865624999603
        },
        {
          "name": "G3",
          "midi": 55,
          "time": 97.05877499999964,
          "velocity": 0.7559055118110236,
          "duration": 0.33455865624999603
        },
        {
          "name": "A#3",
          "midi": 58,
          "time": 97.05877499999964,
          "velocity": 0.7559055118110236,
          "duration": 0.33455865624999603
        },
        {
          "name": "D#2",
          "midi": 39,
          "time": 97.41171599999964,
          "velocity": 0.7559055118110236,
          "duration": 0.16691168124999933
        },
        {
          "name": "A#2",
          "midi": 46,
          "time": 97.58818649999964,
          "velocity": 0.7559055118110236,
          "duration": 0.16691168124999933
        },
        {
          "name": "D#3",
          "midi": 51,
          "time": 97.76465699999963,
          "velocity": 0.7559055118110236,
          "duration": 0.16691168124999933
        },
        {
          "name": "D#3",
          "midi": 51,
          "time": 97.94112749999962,
          "velocity": 0.7559055118110236,
          "duration": 0.502205631250007
        },
        {
          "name": "G3",
          "midi": 55,
          "time": 97.94112749999962,
          "velocity": 0.7559055118110236,
          "duration": 0.502205631250007
        },
        {
          "name": "A#3",
          "midi": 58,
          "time": 97.94112749999962,
          "velocity": 0.7559055118110236,
          "duration": 0.502205631250007
        },
        {
          "name": "D#3",
          "midi": 51,
          "time": 98.47053899999963,
          "velocity": 0.7559055118110236,
          "duration": 0.33455865624999603
        },
        {
          "name": "G3",
          "midi": 55,
          "time": 98.47053899999963,
          "velocity": 0.7559055118110236,
          "duration": 0.33455865624999603
        },
        {
          "name": "A#3",
          "midi": 58,
          "time": 98.47053899999963,
          "velocity": 0.7559055118110236,
          "duration": 0.33455865624999603
        },
        {
          "name": "A#1",
          "midi": 34,
          "time": 98.82347999999963,
          "velocity": 0.7559055118110236,
          "duration": 1.3404405062499904
        },
        {
          "name": "A#2",
          "midi": 46,
          "time": 98.82347999999963,
          "velocity": 0.7559055118110236,
          "duration": 1.3404405062499904
        },
        {
          "name": "A#0",
          "midi": 22,
          "time": 100.23524399999962,
          "velocity": 0.7559055118110236,
          "duration": 1.3404405062499904
        },
        {
          "name": "A#1",
          "midi": 34,
          "time": 100.23524399999962,
          "velocity": 0.7559055118110236,
          "duration": 1.3404405062499904
        },
        {
          "name": "F2",
          "midi": 41,
          "time": 101.64700799999962,
          "velocity": 0.7559055118110236,
          "duration": 0.33455865624999603
        },
        {
          "name": "F3",
          "midi": 53,
          "time": 101.64700799999962,
          "velocity": 0.7559055118110236,
          "duration": 0.33455865624999603
        },
        {
          "name": "F3",
          "midi": 53,
          "time": 101.99994899999962,
          "velocity": 0.7559055118110236,
          "duration": 0.16691168124999933
        },
        {
          "name": "G#3",
          "midi": 56,
          "time": 102.17641949999961,
          "velocity": 0.7559055118110236,
          "duration": 0.33455865624999603
        },
        {
          "name": "C4",
          "midi": 60,
          "time": 102.17641949999961,
          "velocity": 0.7559055118110236,
          "duration": 0.33455865624999603
        },
        {
          "name": "F3",
          "midi": 53,
          "time": 102.52936049999961,
          "velocity": 0.7559055118110236,
          "duration": 0.16691168124999933
        },
        {
          "name": "G#3",
          "midi": 56,
          "time": 102.7058309999996,
          "velocity": 0.7559055118110236,
          "duration": 0.33455865624999603
        },
        {
          "name": "C4",
          "midi": 60,
          "time": 102.7058309999996,
          "velocity": 0.7559055118110236,
          "duration": 0.33455865624999603
        },
        {
          "name": "F2",
          "midi": 41,
          "time": 103.0587719999996,
          "velocity": 0.7559055118110236,
          "duration": 0.33455865624999603
        },
        {
          "name": "F3",
          "midi": 53,
          "time": 103.0587719999996,
          "velocity": 0.7559055118110236,
          "duration": 0.33455865624999603
        },
        {
          "name": "F3",
          "midi": 53,
          "time": 103.41171299999961,
          "velocity": 0.7559055118110236,
          "duration": 0.16691168124999933
        },
        {
          "name": "G#3",
          "midi": 56,
          "time": 103.5881834999996,
          "velocity": 0.7559055118110236,
          "duration": 0.33455865624999603
        },
        {
          "name": "C4",
          "midi": 60,
          "time": 103.5881834999996,
          "velocity": 0.7559055118110236,
          "duration": 0.33455865624999603
        },
        {
          "name": "F3",
          "midi": 53,
          "time": 103.9411244999996,
          "velocity": 0.7559055118110236,
          "duration": 0.16691168124999933
        },
        {
          "name": "G#3",
          "midi": 56,
          "time": 104.1175949999996,
          "velocity": 0.7559055118110236,
          "duration": 0.33455865624999603
        },
        {
          "name": "C4",
          "midi": 60,
          "time": 104.1175949999996,
          "velocity": 0.7559055118110236,
          "duration": 0.33455865624999603
        },
        {
          "name": "C2",
          "midi": 36,
          "time": 104.4705359999996,
          "velocity": 0.7559055118110236,
          "duration": 0.33455865624999603
        },
        {
          "name": "C3",
          "midi": 48,
          "time": 104.4705359999996,
          "velocity": 0.7559055118110236,
          "duration": 0.33455865624999603
        },
        {
          "name": "G3",
          "midi": 55,
          "time": 104.8234769999996,
          "velocity": 0.7559055118110236,
          "duration": 0.16691168124999933
        },
        {
          "name": "C4",
          "midi": 60,
          "time": 104.99994749999959,
          "velocity": 0.7559055118110236,
          "duration": 0.33455865624999603
        },
        {
          "name": "D#4",
          "midi": 63,
          "time": 104.99994749999959,
          "velocity": 0.7559055118110236,
          "duration": 0.33455865624999603
        },
        {
          "name": "G3",
          "midi": 55,
          "time": 105.3528884999996,
          "velocity": 0.7559055118110236,
          "duration": 0.16691168124999933
        },
        {
          "name": "C4",
          "midi": 60,
          "time": 105.52935899999959,
          "velocity": 0.7559055118110236,
          "duration": 0.33455865624999603
        },
        {
          "name": "D#4",
          "midi": 63,
          "time": 105.52935899999959,
          "velocity": 0.7559055118110236,
          "duration": 0.33455865624999603
        },
        {
          "name": "C2",
          "midi": 36,
          "time": 105.88229999999959,
          "velocity": 0.7559055118110236,
          "duration": 0.33455865624999603
        },
        {
          "name": "C3",
          "midi": 48,
          "time": 105.88229999999959,
          "velocity": 0.7559055118110236,
          "duration": 0.33455865624999603
        },
        {
          "name": "G3",
          "midi": 55,
          "time": 106.23524099999959,
          "velocity": 0.7559055118110236,
          "duration": 0.16691168124999933
        },
        {
          "name": "C4",
          "midi": 60,
          "time": 106.41171149999958,
          "velocity": 0.7559055118110236,
          "duration": 0.33455865624999603
        },
        {
          "name": "D#4",
          "midi": 63,
          "time": 106.41171149999958,
          "velocity": 0.7559055118110236,
          "duration": 0.33455865624999603
        },
        {
          "name": "G3",
          "midi": 55,
          "time": 106.76465249999958,
          "velocity": 0.7559055118110236,
          "duration": 0.16691168124999933
        },
        {
          "name": "C4",
          "midi": 60,
          "time": 106.94112299999958,
          "velocity": 0.7559055118110236,
          "duration": 0.33455865624999603
        },
        {
          "name": "D#4",
          "midi": 63,
          "time": 106.94112299999958,
          "velocity": 0.7559055118110236,
          "duration": 0.33455865624999603
        },
        {
          "name": "D#2",
          "midi": 39,
          "time": 107.29406399999958,
          "velocity": 0.7559055118110236,
          "duration": 0.33455865624999603
        },
        {
          "name": "D#3",
          "midi": 51,
          "time": 107.29406399999958,
          "velocity": 0.7559055118110236,
          "duration": 0.33455865624999603
        },
        {
          "name": "D#3",
          "midi": 51,
          "time": 107.64700499999958,
          "velocity": 0.7559055118110236,
          "duration": 0.16691168124999933
        },
        {
          "name": "G3",
          "midi": 55,
          "time": 107.82347549999957,
          "velocity": 0.7559055118110236,
          "duration": 0.33455865624999603
        },
        {
          "name": "A#3",
          "midi": 58,
          "time": 107.82347549999957,
          "velocity": 0.7559055118110236,
          "duration": 0.33455865624999603
        },
        {
          "name": "D#3",
          "midi": 51,
          "time": 108.17641649999958,
          "velocity": 0.7559055118110236,
          "duration": 0.16691168124999933
        },
        {
          "name": "G3",
          "midi": 55,
          "time": 108.35288699999957,
          "velocity": 0.7559055118110236,
          "duration": 0.33455865624999603
        },
        {
          "name": "A#3",
          "midi": 58,
          "time": 108.35288699999957,
          "velocity": 0.7559055118110236,
          "duration": 0.33455865624999603
        },
        {
          "name": "D#2",
          "midi": 39,
          "time": 108.70582799999957,
          "velocity": 0.7559055118110236,
          "duration": 0.33455865624999603
        },
        {
          "name": "D#3",
          "midi": 51,
          "time": 108.70582799999957,
          "velocity": 0.7559055118110236,
          "duration": 0.33455865624999603
        },
        {
          "name": "D#3",
          "midi": 51,
          "time": 109.05876899999957,
          "velocity": 0.7559055118110236,
          "duration": 0.16691168124999933
        },
        {
          "name": "G3",
          "midi": 55,
          "time": 109.23523949999957,
          "velocity": 0.7559055118110236,
          "duration": 0.33455865624999603
        },
        {
          "name": "A#3",
          "midi": 58,
          "time": 109.23523949999957,
          "velocity": 0.7559055118110236,
          "duration": 0.33455865624999603
        },
        {
          "name": "D#3",
          "midi": 51,
          "time": 109.58818049999957,
          "velocity": 0.7559055118110236,
          "duration": 0.16691168124999933
        },
        {
          "name": "G3",
          "midi": 55,
          "time": 109.76465099999956,
          "velocity": 0.7559055118110236,
          "duration": 0.33455865624999603
        },
        {
          "name": "A#3",
          "midi": 58,
          "time": 109.76465099999956,
          "velocity": 0.7559055118110236,
          "duration": 0.33455865624999603
        },
        {
          "name": "A#1",
          "midi": 34,
          "time": 110.11759199999956,
          "velocity": 0.7559055118110236,
          "duration": 0.33455865624999603
        },
        {
          "name": "A#2",
          "midi": 46,
          "time": 110.11759199999956,
          "velocity": 0.7559055118110236,
          "duration": 0.33455865624999603
        },
        {
          "name": "F3",
          "midi": 53,
          "time": 110.47053299999956,
          "velocity": 0.7559055118110236,
          "duration": 0.16691168124999933
        },
        {
          "name": "A#3",
          "midi": 58,
          "time": 110.64700349999956,
          "velocity": 0.7559055118110236,
          "duration": 0.33455865624999603
        },
        {
          "name": "D4",
          "midi": 62,
          "time": 110.64700349999956,
          "velocity": 0.7559055118110236,
          "duration": 0.33455865624999603
        },
        {
          "name": "F3",
          "midi": 53,
          "time": 110.99994449999956,
          "velocity": 0.7559055118110236,
          "duration": 0.16691168124999933
        },
        {
          "name": "A#3",
          "midi": 58,
          "time": 111.17641499999955,
          "velocity": 0.7559055118110236,
          "duration": 0.33455865624999603
        },
        {
          "name": "D4",
          "midi": 62,
          "time": 111.17641499999955,
          "velocity": 0.7559055118110236,
          "duration": 0.33455865624999603
        },
        {
          "name": "A#1",
          "midi": 34,
          "time": 111.52935599999955,
          "velocity": 0.7559055118110236,
          "duration": 0.33455865624999603
        },
        {
          "name": "A#2",
          "midi": 46,
          "time": 111.52935599999955,
          "velocity": 0.7559055118110236,
          "duration": 0.33455865624999603
        },
        {
          "name": "F3",
          "midi": 53,
          "time": 111.88229699999955,
          "velocity": 0.7559055118110236,
          "duration": 0.16691168124999933
        },
        {
          "name": "A#3",
          "midi": 58,
          "time": 112.05876749999955,
          "velocity": 0.7559055118110236,
          "duration": 0.33455865624999603
        },
        {
          "name": "D4",
          "midi": 62,
          "time": 112.05876749999955,
          "velocity": 0.7559055118110236,
          "duration": 0.33455865624999603
        },
        {
          "name": "F3",
          "midi": 53,
          "time": 112.41170849999955,
          "velocity": 0.7559055118110236,
          "duration": 0.16691168124999933
        },
        {
          "name": "A#3",
          "midi": 58,
          "time": 112.58817899999954,
          "velocity": 0.7559055118110236,
          "duration": 0.33455865624999603
        },
        {
          "name": "D4",
          "midi": 62,
          "time": 112.58817899999954,
          "velocity": 0.7559055118110236,
          "duration": 0.33455865624999603
        },
        {
          "name": "F2",
          "midi": 41,
          "time": 112.94111999999954,
          "velocity": 0.7559055118110236,
          "duration": 0.33455865624999603
        },
        {
          "name": "F3",
          "midi": 53,
          "time": 112.94111999999954,
          "velocity": 0.7559055118110236,
          "duration": 0.33455865624999603
        },
        {
          "name": "F3",
          "midi": 53,
          "time": 113.29406099999954,
          "velocity": 0.7559055118110236,
          "duration": 0.16691168124999933
        },
        {
          "name": "G#3",
          "midi": 56,
          "time": 113.47053149999954,
          "velocity": 0.7559055118110236,
          "duration": 0.33455865624999603
        },
        {
          "name": "C4",
          "midi": 60,
          "time": 113.47053149999954,
          "velocity": 0.7559055118110236,
          "duration": 0.33455865624999603
        },
        {
          "name": "F3",
          "midi": 53,
          "time": 113.82347249999954,
          "velocity": 0.7559055118110236,
          "duration": 0.16691168124999933
        },
        {
          "name": "G#3",
          "midi": 56,
          "time": 113.99994299999953,
          "velocity": 0.7559055118110236,
          "duration": 0.33455865624999603
        },
        {
          "name": "C4",
          "midi": 60,
          "time": 113.99994299999953,
          "velocity": 0.7559055118110236,
          "duration": 0.33455865624999603
        },
        {
          "name": "F2",
          "midi": 41,
          "time": 114.35288399999953,
          "velocity": 0.7559055118110236,
          "duration": 0.33455865624999603
        },
        {
          "name": "F3",
          "midi": 53,
          "time": 114.35288399999953,
          "velocity": 0.7559055118110236,
          "duration": 0.33455865624999603
        },
        {
          "name": "F3",
          "midi": 53,
          "time": 114.70582499999954,
          "velocity": 0.7559055118110236,
          "duration": 0.16691168124999933
        },
        {
          "name": "G#3",
          "midi": 56,
          "time": 114.88229549999953,
          "velocity": 0.7559055118110236,
          "duration": 0.33455865624999603
        },
        {
          "name": "C4",
          "midi": 60,
          "time": 114.88229549999953,
          "velocity": 0.7559055118110236,
          "duration": 0.33455865624999603
        },
        {
          "name": "F3",
          "midi": 53,
          "time": 115.23523649999953,
          "velocity": 0.7559055118110236,
          "duration": 0.16691168124999933
        },
        {
          "name": "G#3",
          "midi": 56,
          "time": 115.41170699999952,
          "velocity": 0.7559055118110236,
          "duration": 0.33455865624999603
        },
        {
          "name": "C4",
          "midi": 60,
          "time": 115.41170699999952,
          "velocity": 0.7559055118110236,
          "duration": 0.33455865624999603
        },
        {
          "name": "C2",
          "midi": 36,
          "time": 115.76464799999953,
          "velocity": 0.7559055118110236,
          "duration": 0.33455865624999603
        },
        {
          "name": "C3",
          "midi": 48,
          "time": 115.76464799999953,
          "velocity": 0.7559055118110236,
          "duration": 0.33455865624999603
        },
        {
          "name": "G3",
          "midi": 55,
          "time": 116.11758899999953,
          "velocity": 0.7559055118110236,
          "duration": 0.16691168124999933
        },
        {
          "name": "C4",
          "midi": 60,
          "time": 116.29405949999952,
          "velocity": 0.7559055118110236,
          "duration": 0.33455865624999603
        },
        {
          "name": "D#4",
          "midi": 63,
          "time": 116.29405949999952,
          "velocity": 0.7559055118110236,
          "duration": 0.33455865624999603
        },
        {
          "name": "G3",
          "midi": 55,
          "time": 116.64700049999952,
          "velocity": 0.7559055118110236,
          "duration": 0.16691168124999933
        },
        {
          "name": "C4",
          "midi": 60,
          "time": 116.82347099999951,
          "velocity": 0.7559055118110236,
          "duration": 0.33455865624999603
        },
        {
          "name": "D#4",
          "midi": 63,
          "time": 116.82347099999951,
          "velocity": 0.7559055118110236,
          "duration": 0.33455865624999603
        },
        {
          "name": "C2",
          "midi": 36,
          "time": 117.17641199999952,
          "velocity": 0.7559055118110236,
          "duration": 0.33455865624999603
        },
        {
          "name": "C3",
          "midi": 48,
          "time": 117.17641199999952,
          "velocity": 0.7559055118110236,
          "duration": 0.33455865624999603
        },
        {
          "name": "G3",
          "midi": 55,
          "time": 117.52935299999952,
          "velocity": 0.7559055118110236,
          "duration": 0.16691168124999933
        },
        {
          "name": "C4",
          "midi": 60,
          "time": 117.70582349999951,
          "velocity": 0.7559055118110236,
          "duration": 0.33455865624999603
        },
        {
          "name": "D#4",
          "midi": 63,
          "time": 117.70582349999951,
          "velocity": 0.7559055118110236,
          "duration": 0.33455865624999603
        },
        {
          "name": "G3",
          "midi": 55,
          "time": 118.05876449999951,
          "velocity": 0.7559055118110236,
          "duration": 0.16691168124999933
        },
        {
          "name": "C4",
          "midi": 60,
          "time": 118.2352349999995,
          "velocity": 0.7559055118110236,
          "duration": 0.33455865624999603
        },
        {
          "name": "D#4",
          "midi": 63,
          "time": 118.2352349999995,
          "velocity": 0.7559055118110236,
          "duration": 0.33455865624999603
        },
        {
          "name": "D#2",
          "midi": 39,
          "time": 118.5881759999995,
          "velocity": 0.7559055118110236,
          "duration": 0.33455865624999603
        },
        {
          "name": "D#3",
          "midi": 51,
          "time": 118.5881759999995,
          "velocity": 0.7559055118110236,
          "duration": 0.33455865624999603
        },
        {
          "name": "D#3",
          "midi": 51,
          "time": 118.94111699999951,
          "velocity": 0.7559055118110236,
          "duration": 0.16691168124999933
        },
        {
          "name": "G3",
          "midi": 55,
          "time": 119.1175874999995,
          "velocity": 0.7559055118110236,
          "duration": 0.33455865624999603
        },
        {
          "name": "A#3",
          "midi": 58,
          "time": 119.1175874999995,
          "velocity": 0.7559055118110236,
          "duration": 0.33455865624999603
        },
        {
          "name": "D#3",
          "midi": 51,
          "time": 119.4705284999995,
          "velocity": 0.7559055118110236,
          "duration": 0.16691168124999933
        },
        {
          "name": "G3",
          "midi": 55,
          "time": 119.6469989999995,
          "velocity": 0.7559055118110236,
          "duration": 0.33455865624999603
        },
        {
          "name": "A#3",
          "midi": 58,
          "time": 119.6469989999995,
          "velocity": 0.7559055118110236,
          "duration": 0.33455865624999603
        },
        {
          "name": "D#2",
          "midi": 39,
          "time": 119.9999399999995,
          "velocity": 0.7559055118110236,
          "duration": 0.33455865624999603
        },
        {
          "name": "D#3",
          "midi": 51,
          "time": 119.9999399999995,
          "velocity": 0.7559055118110236,
          "duration": 0.33455865624999603
        },
        {
          "name": "D#3",
          "midi": 51,
          "time": 120.3528809999995,
          "velocity": 0.7559055118110236,
          "duration": 0.16691168124999933
        },
        {
          "name": "G3",
          "midi": 55,
          "time": 120.52935149999949,
          "velocity": 0.7559055118110236,
          "duration": 0.33455865624999603
        },
        {
          "name": "A#3",
          "midi": 58,
          "time": 120.52935149999949,
          "velocity": 0.7559055118110236,
          "duration": 0.33455865624999603
        },
        {
          "name": "D#3",
          "midi": 51,
          "time": 120.8822924999995,
          "velocity": 0.7559055118110236,
          "duration": 0.16691168124999933
        },
        {
          "name": "G3",
          "midi": 55,
          "time": 121.05876299999949,
          "velocity": 0.7559055118110236,
          "duration": 0.33455865624999603
        },
        {
          "name": "A#3",
          "midi": 58,
          "time": 121.05876299999949,
          "velocity": 0.7559055118110236,
          "duration": 0.33455865624999603
        },
        {
          "name": "A#1",
          "midi": 34,
          "time": 121.41170399999949,
          "velocity": 0.7559055118110236,
          "duration": 0.33455865624999603
        },
        {
          "name": "A#2",
          "midi": 46,
          "time": 121.41170399999949,
          "velocity": 0.7559055118110236,
          "duration": 0.33455865624999603
        },
        {
          "name": "F3",
          "midi": 53,
          "time": 121.76464499999949,
          "velocity": 0.7559055118110236,
          "duration": 0.16691168124999933
        },
        {
          "name": "A#3",
          "midi": 58,
          "time": 121.94111549999948,
          "velocity": 0.7559055118110236,
          "duration": 0.33455865624999603
        },
        {
          "name": "D4",
          "midi": 62,
          "time": 121.94111549999948,
          "velocity": 0.7559055118110236,
          "duration": 0.33455865624999603
        },
        {
          "name": "F3",
          "midi": 53,
          "time": 122.29405649999948,
          "velocity": 0.7559055118110236,
          "duration": 0.16691168124999933
        },
        {
          "name": "A#3",
          "midi": 58,
          "time": 122.47052699999948,
          "velocity": 0.7559055118110236,
          "duration": 0.33455865624999603
        },
        {
          "name": "D4",
          "midi": 62,
          "time": 122.47052699999948,
          "velocity": 0.7559055118110236,
          "duration": 0.33455865624999603
        },
        {
          "name": "A#1",
          "midi": 34,
          "time": 122.82346799999948,
          "velocity": 0.7559055118110236,
          "duration": 0.33455865624999603
        },
        {
          "name": "A#2",
          "midi": 46,
          "time": 122.82346799999948,
          "velocity": 0.7559055118110236,
          "duration": 0.33455865624999603
        },
        {
          "name": "F3",
          "midi": 53,
          "time": 123.17640899999948,
          "velocity": 0.7559055118110236,
          "duration": 0.16691168124999933
        },
        {
          "name": "A#3",
          "midi": 58,
          "time": 123.35287949999947,
          "velocity": 0.7559055118110236,
          "duration": 0.33455865624999603
        },
        {
          "name": "D4",
          "midi": 62,
          "time": 123.35287949999947,
          "velocity": 0.7559055118110236,
          "duration": 0.33455865624999603
        },
        {
          "name": "F3",
          "midi": 53,
          "time": 123.70582049999948,
          "velocity": 0.5039370078740157,
          "duration": 0.16691168124999933
        },
        {
          "name": "A#3",
          "midi": 58,
          "time": 123.88229099999947,
          "velocity": 0.5039370078740157,
          "duration": 0.33455865624999603
        },
        {
          "name": "D4",
          "midi": 62,
          "time": 123.88229099999947,
          "velocity": 0.5039370078740157,
          "duration": 0.33455865624999603
        },
        {
          "name": "F2",
          "midi": 41,
          "time": 124.23523199999947,
          "velocity": 0.5039370078740157,
          "duration": 0.33455865624999603
        },
        {
          "name": "F3",
          "midi": 53,
          "time": 124.23523199999947,
          "velocity": 0.5039370078740157,
          "duration": 0.33455865624999603
        },
        {
          "name": "F3",
          "midi": 53,
          "time": 124.58817299999947,
          "velocity": 0.5039370078740157,
          "duration": 0.16691168124999933
        },
        {
          "name": "G#3",
          "midi": 56,
          "time": 124.76464349999947,
          "velocity": 0.5039370078740157,
          "duration": 0.33455865624999603
        },
        {
          "name": "C4",
          "midi": 60,
          "time": 124.76464349999947,
          "velocity": 0.5039370078740157,
          "duration": 0.33455865624999603
        },
        {
          "name": "F3",
          "midi": 53,
          "time": 125.11758449999947,
          "velocity": 0.5039370078740157,
          "duration": 0.16691168124999933
        },
        {
          "name": "G#3",
          "midi": 56,
          "time": 125.29405499999946,
          "velocity": 0.5039370078740157,
          "duration": 0.33455865624999603
        },
        {
          "name": "C4",
          "midi": 60,
          "time": 125.29405499999946,
          "velocity": 0.5039370078740157,
          "duration": 0.33455865624999603
        },
        {
          "name": "F2",
          "midi": 41,
          "time": 125.64699599999946,
          "velocity": 0.5039370078740157,
          "duration": 0.33455865624999603
        },
        {
          "name": "F3",
          "midi": 53,
          "time": 125.64699599999946,
          "velocity": 0.5039370078740157,
          "duration": 0.33455865624999603
        },
        {
          "name": "F3",
          "midi": 53,
          "time": 125.99993699999946,
          "velocity": 0.5039370078740157,
          "duration": 0.16691168124999933
        },
        {
          "name": "G#3",
          "midi": 56,
          "time": 126.17640749999946,
          "velocity": 0.5039370078740157,
          "duration": 0.33455865624999603
        },
        {
          "name": "C4",
          "midi": 60,
          "time": 126.17640749999946,
          "velocity": 0.5039370078740157,
          "duration": 0.33455865624999603
        },
        {
          "name": "F3",
          "midi": 53,
          "time": 126.52934849999946,
          "velocity": 0.5039370078740157,
          "duration": 0.16691168124999933
        },
        {
          "name": "G#3",
          "midi": 56,
          "time": 126.70581899999945,
          "velocity": 0.5039370078740157,
          "duration": 0.33455865624999603
        },
        {
          "name": "C4",
          "midi": 60,
          "time": 126.70581899999945,
          "velocity": 0.5039370078740157,
          "duration": 0.33455865624999603
        },
        {
          "name": "C2",
          "midi": 36,
          "time": 127.05875999999945,
          "velocity": 0.5039370078740157,
          "duration": 0.33455865624999603
        },
        {
          "name": "C3",
          "midi": 48,
          "time": 127.05875999999945,
          "velocity": 0.5039370078740157,
          "duration": 0.33455865624999603
        },
        {
          "name": "G3",
          "midi": 55,
          "time": 127.41170099999945,
          "velocity": 0.5039370078740157,
          "duration": 0.16691168124999933
        },
        {
          "name": "C4",
          "midi": 60,
          "time": 127.58817149999945,
          "velocity": 0.5039370078740157,
          "duration": 0.33455865624999603
        },
        {
          "name": "D#4",
          "midi": 63,
          "time": 127.58817149999945,
          "velocity": 0.5039370078740157,
          "duration": 0.33455865624999603
        },
        {
          "name": "G3",
          "midi": 55,
          "time": 127.94111249999945,
          "velocity": 0.5039370078740157,
          "duration": 0.16691168124999933
        },
        {
          "name": "C4",
          "midi": 60,
          "time": 128.11758299999946,
          "velocity": 0.5039370078740157,
          "duration": 0.33455865625001024
        },
        {
          "name": "D#4",
          "midi": 63,
          "time": 128.11758299999946,
          "velocity": 0.5039370078740157,
          "duration": 0.33455865625001024
        },
        {
          "name": "C2",
          "midi": 36,
          "time": 128.47052399999947,
          "velocity": 0.5039370078740157,
          "duration": 0.33455865625001024
        },
        {
          "name": "C3",
          "midi": 48,
          "time": 128.47052399999947,
          "velocity": 0.5039370078740157,
          "duration": 0.33455865625001024
        },
        {
          "name": "G3",
          "midi": 55,
          "time": 128.8234649999995,
          "velocity": 0.5039370078740157,
          "duration": 0.16691168125001354
        },
        {
          "name": "C4",
          "midi": 60,
          "time": 128.9999354999995,
          "velocity": 0.5039370078740157,
          "duration": 0.33455865625001024
        },
        {
          "name": "D#4",
          "midi": 63,
          "time": 128.9999354999995,
          "velocity": 0.5039370078740157,
          "duration": 0.33455865625001024
        },
        {
          "name": "G3",
          "midi": 55,
          "time": 129.35287649999952,
          "velocity": 0.5039370078740157,
          "duration": 0.16691168125001354
        },
        {
          "name": "C4",
          "midi": 60,
          "time": 129.52934699999955,
          "velocity": 0.5039370078740157,
          "duration": 0.33455865625001024
        },
        {
          "name": "D#4",
          "midi": 63,
          "time": 129.52934699999955,
          "velocity": 0.5039370078740157,
          "duration": 0.33455865625001024
        },
        {
          "name": "D#2",
          "midi": 39,
          "time": 129.88228799999956,
          "velocity": 0.5039370078740157,
          "duration": 0.33455865625001024
        },
        {
          "name": "D#3",
          "midi": 51,
          "time": 129.88228799999956,
          "velocity": 0.5039370078740157,
          "duration": 0.33455865625001024
        },
        {
          "name": "D#3",
          "midi": 51,
          "time": 130.23522899999958,
          "velocity": 0.5039370078740157,
          "duration": 0.16691168125001354
        },
        {
          "name": "G3",
          "midi": 55,
          "time": 130.4116994999996,
          "velocity": 0.5039370078740157,
          "duration": 0.33455865625001024
        },
        {
          "name": "A#3",
          "midi": 58,
          "time": 130.4116994999996,
          "velocity": 0.5039370078740157,
          "duration": 0.33455865625001024
        },
        {
          "name": "D#3",
          "midi": 51,
          "time": 130.76464049999962,
          "velocity": 0.5039370078740157,
          "duration": 0.16691168125001354
        },
        {
          "name": "G3",
          "midi": 55,
          "time": 130.94111099999964,
          "velocity": 0.5039370078740157,
          "duration": 0.33455865625001024
        },
        {
          "name": "A#3",
          "midi": 58,
          "time": 130.94111099999964,
          "velocity": 0.5039370078740157,
          "duration": 0.33455865625001024
        },
        {
          "name": "D#2",
          "midi": 39,
          "time": 131.29405199999965,
          "velocity": 0.5039370078740157,
          "duration": 0.33455865625001024
        },
        {
          "name": "D#3",
          "midi": 51,
          "time": 131.29405199999965,
          "velocity": 0.5039370078740157,
          "duration": 0.33455865625001024
        },
        {
          "name": "D#3",
          "midi": 51,
          "time": 131.64699299999967,
          "velocity": 0.5039370078740157,
          "duration": 0.16691168125001354
        },
        {
          "name": "G3",
          "midi": 55,
          "time": 131.8234634999997,
          "velocity": 0.5039370078740157,
          "duration": 0.33455865625001024
        },
        {
          "name": "A#3",
          "midi": 58,
          "time": 131.8234634999997,
          "velocity": 0.5039370078740157,
          "duration": 0.33455865625001024
        },
        {
          "name": "D#3",
          "midi": 51,
          "time": 132.1764044999997,
          "velocity": 0.5039370078740157,
          "duration": 0.16691168125001354
        },
        {
          "name": "G3",
          "midi": 55,
          "time": 132.35287499999973,
          "velocity": 0.5039370078740157,
          "duration": 0.33455865625001024
        },
        {
          "name": "A#3",
          "midi": 58,
          "time": 132.35287499999973,
          "velocity": 0.5039370078740157,
          "duration": 0.33455865625001024
        },
        {
          "name": "A#1",
          "midi": 34,
          "time": 132.70581599999974,
          "velocity": 0.5039370078740157,
          "duration": 0.33455865625001024
        },
        {
          "name": "A#2",
          "midi": 46,
          "time": 132.70581599999974,
          "velocity": 0.5039370078740157,
          "duration": 0.33455865625001024
        },
        {
          "name": "F3",
          "midi": 53,
          "time": 133.05875699999976,
          "velocity": 0.5039370078740157,
          "duration": 0.16691168125001354
        },
        {
          "name": "A#3",
          "midi": 58,
          "time": 133.23522749999978,
          "velocity": 0.5039370078740157,
          "duration": 0.33455865625001024
        },
        {
          "name": "D4",
          "midi": 62,
          "time": 133.23522749999978,
          "velocity": 0.5039370078740157,
          "duration": 0.33455865625001024
        },
        {
          "name": "F3",
          "midi": 53,
          "time": 133.5881684999998,
          "velocity": 0.5039370078740157,
          "duration": 0.16691168125001354
        },
        {
          "name": "A#3",
          "midi": 58,
          "time": 133.76463899999982,
          "velocity": 0.5039370078740157,
          "duration": 0.33455865625001024
        },
        {
          "name": "D4",
          "midi": 62,
          "time": 133.76463899999982,
          "velocity": 0.5039370078740157,
          "duration": 0.33455865625001024
        },
        {
          "name": "A#1",
          "midi": 34,
          "time": 134.11757999999983,
          "velocity": 0.5039370078740157,
          "duration": 0.33455865625001024
        },
        {
          "name": "A#2",
          "midi": 46,
          "time": 134.11757999999983,
          "velocity": 0.5039370078740157,
          "duration": 0.33455865625001024
        },
        {
          "name": "F3",
          "midi": 53,
          "time": 134.47052099999985,
          "velocity": 0.5039370078740157,
          "duration": 0.16691168125001354
        },
        {
          "name": "A#3",
          "midi": 58,
          "time": 134.64699149999987,
          "velocity": 0.5039370078740157,
          "duration": 0.33455865625001024
        },
        {
          "name": "D4",
          "midi": 62,
          "time": 134.64699149999987,
          "velocity": 0.5039370078740157,
          "duration": 0.33455865625001024
        },
        {
          "name": "F3",
          "midi": 53,
          "time": 134.9999324999999,
          "velocity": 0.5039370078740157,
          "duration": 0.16691168125001354
        },
        {
          "name": "A#3",
          "midi": 58,
          "time": 135.1764029999999,
          "velocity": 0.5039370078740157,
          "duration": 0.33455865625001024
        },
        {
          "name": "D4",
          "midi": 62,
          "time": 135.1764029999999,
          "velocity": 0.5039370078740157,
          "duration": 0.33455865625001024
        },
        {
          "name": "F2",
          "midi": 41,
          "time": 135.52934399999992,
          "velocity": 0.6299212598425197,
          "duration": 0.33455865625001024
        },
        {
          "name": "F3",
          "midi": 53,
          "time": 135.52934399999992,
          "velocity": 0.6299212598425197,
          "duration": 0.33455865625001024
        },
        {
          "name": "F3",
          "midi": 53,
          "time": 135.88228499999994,
          "velocity": 0.6299212598425197,
          "duration": 0.16691168125001354
        },
        {
          "name": "G#3",
          "midi": 56,
          "time": 136.05875549999996,
          "velocity": 0.6299212598425197,
          "duration": 0.33455865625001024
        },
        {
          "name": "C4",
          "midi": 60,
          "time": 136.05875549999996,
          "velocity": 0.6299212598425197,
          "duration": 0.33455865625001024
        },
        {
          "name": "F3",
          "midi": 53,
          "time": 136.41169649999998,
          "velocity": 0.6299212598425197,
          "duration": 0.16691168125001354
        },
        {
          "name": "G#3",
          "midi": 56,
          "time": 136.588167,
          "velocity": 0.6299212598425197,
          "duration": 0.33455865625001024
        },
        {
          "name": "C4",
          "midi": 60,
          "time": 136.588167,
          "velocity": 0.6299212598425197,
          "duration": 0.33455865625001024
        },
        {
          "name": "F2",
          "midi": 41,
          "time": 136.941108,
          "velocity": 0.6299212598425197,
          "duration": 0.33455865625001024
        },
        {
          "name": "F3",
          "midi": 53,
          "time": 136.941108,
          "velocity": 0.6299212598425197,
          "duration": 0.33455865625001024
        },
        {
          "name": "F3",
          "midi": 53,
          "time": 137.29404900000003,
          "velocity": 0.6299212598425197,
          "duration": 0.16691168125001354
        },
        {
          "name": "G#3",
          "midi": 56,
          "time": 137.47051950000005,
          "velocity": 0.6299212598425197,
          "duration": 0.33455865625001024
        },
        {
          "name": "C4",
          "midi": 60,
          "time": 137.47051950000005,
          "velocity": 0.6299212598425197,
          "duration": 0.33455865625001024
        },
        {
          "name": "F3",
          "midi": 53,
          "time": 137.82346050000007,
          "velocity": 0.6299212598425197,
          "duration": 0.16691168125001354
        },
        {
          "name": "G#3",
          "midi": 56,
          "time": 137.9999310000001,
          "velocity": 0.6299212598425197,
          "duration": 0.33455865625001024
        },
        {
          "name": "C4",
          "midi": 60,
          "time": 137.9999310000001,
          "velocity": 0.6299212598425197,
          "duration": 0.33455865625001024
        },
        {
          "name": "C2",
          "midi": 36,
          "time": 138.3528720000001,
          "velocity": 0.6299212598425197,
          "duration": 0.33455865625001024
        },
        {
          "name": "C3",
          "midi": 48,
          "time": 138.3528720000001,
          "velocity": 0.6299212598425197,
          "duration": 0.33455865625001024
        },
        {
          "name": "G3",
          "midi": 55,
          "time": 138.70581300000012,
          "velocity": 0.6299212598425197,
          "duration": 0.16691168125001354
        },
        {
          "name": "C4",
          "midi": 60,
          "time": 138.88228350000014,
          "velocity": 0.6299212598425197,
          "duration": 0.33455865625001024
        },
        {
          "name": "D#4",
          "midi": 63,
          "time": 138.88228350000014,
          "velocity": 0.6299212598425197,
          "duration": 0.33455865625001024
        },
        {
          "name": "G3",
          "midi": 55,
          "time": 139.23522450000016,
          "velocity": 0.6299212598425197,
          "duration": 0.16691168125001354
        },
        {
          "name": "C4",
          "midi": 60,
          "time": 139.41169500000018,
          "velocity": 0.6299212598425197,
          "duration": 0.33455865625001024
        },
        {
          "name": "D#4",
          "midi": 63,
          "time": 139.41169500000018,
          "velocity": 0.6299212598425197,
          "duration": 0.33455865625001024
        },
        {
          "name": "C2",
          "midi": 36,
          "time": 139.7646360000002,
          "velocity": 0.6299212598425197,
          "duration": 0.33455865625001024
        },
        {
          "name": "C3",
          "midi": 48,
          "time": 139.7646360000002,
          "velocity": 0.6299212598425197,
          "duration": 0.33455865625001024
        },
        {
          "name": "G3",
          "midi": 55,
          "time": 140.1175770000002,
          "velocity": 0.6299212598425197,
          "duration": 0.16691168125001354
        },
        {
          "name": "C4",
          "midi": 60,
          "time": 140.29404750000023,
          "velocity": 0.6299212598425197,
          "duration": 0.33455865625001024
        },
        {
          "name": "D#4",
          "midi": 63,
          "time": 140.29404750000023,
          "velocity": 0.6299212598425197,
          "duration": 0.33455865625001024
        },
        {
          "name": "G3",
          "midi": 55,
          "time": 140.64698850000025,
          "velocity": 0.6299212598425197,
          "duration": 0.16691168125001354
        },
        {
          "name": "C4",
          "midi": 60,
          "time": 140.82345900000027,
          "velocity": 0.6299212598425197,
          "duration": 0.33455865625001024
        },
        {
          "name": "D#4",
          "midi": 63,
          "time": 140.82345900000027,
          "velocity": 0.6299212598425197,
          "duration": 0.33455865625001024
        },
        {
          "name": "D#2",
          "midi": 39,
          "time": 141.17640000000029,
          "velocity": 0.6299212598425197,
          "duration": 0.33455865625001024
        },
        {
          "name": "D#3",
          "midi": 51,
          "time": 141.17640000000029,
          "velocity": 0.6299212598425197,
          "duration": 0.33455865625001024
        },
        {
          "name": "D#3",
          "midi": 51,
          "time": 141.5293410000003,
          "velocity": 0.6299212598425197,
          "duration": 0.16691168125001354
        },
        {
          "name": "G3",
          "midi": 55,
          "time": 141.70581150000032,
          "velocity": 0.6299212598425197,
          "duration": 0.33455865625001024
        },
        {
          "name": "A#3",
          "midi": 58,
          "time": 141.70581150000032,
          "velocity": 0.6299212598425197,
          "duration": 0.33455865625001024
        },
        {
          "name": "D#3",
          "midi": 51,
          "time": 142.05875250000034,
          "velocity": 0.6299212598425197,
          "duration": 0.16691168125001354
        },
        {
          "name": "G3",
          "midi": 55,
          "time": 142.23522300000036,
          "velocity": 0.6299212598425197,
          "duration": 0.33455865625001024
        },
        {
          "name": "A#3",
          "midi": 58,
          "time": 142.23522300000036,
          "velocity": 0.6299212598425197,
          "duration": 0.33455865625001024
        },
        {
          "name": "D#2",
          "midi": 39,
          "time": 142.58816400000038,
          "velocity": 0.6299212598425197,
          "duration": 0.33455865625001024
        },
        {
          "name": "D#3",
          "midi": 51,
          "time": 142.58816400000038,
          "velocity": 0.6299212598425197,
          "duration": 0.33455865625001024
        },
        {
          "name": "D#3",
          "midi": 51,
          "time": 142.9411050000004,
          "velocity": 0.6299212598425197,
          "duration": 0.16691168125001354
        },
        {
          "name": "G3",
          "midi": 55,
          "time": 143.1175755000004,
          "velocity": 0.6299212598425197,
          "duration": 0.33455865625001024
        },
        {
          "name": "A#3",
          "midi": 58,
          "time": 143.1175755000004,
          "velocity": 0.6299212598425197,
          "duration": 0.33455865625001024
        },
        {
          "name": "D#3",
          "midi": 51,
          "time": 143.47051650000043,
          "velocity": 0.6299212598425197,
          "duration": 0.16691168125001354
        },
        {
          "name": "G3",
          "midi": 55,
          "time": 143.64698700000045,
          "velocity": 0.6299212598425197,
          "duration": 0.33455865625001024
        },
        {
          "name": "A#3",
          "midi": 58,
          "time": 143.64698700000045,
          "velocity": 0.6299212598425197,
          "duration": 0.33455865625001024
        },
        {
          "name": "A#1",
          "midi": 34,
          "time": 143.99992800000047,
          "velocity": 0.6299212598425197,
          "duration": 0.33455865625001024
        },
        {
          "name": "A#2",
          "midi": 46,
          "time": 143.99992800000047,
          "velocity": 0.6299212598425197,
          "duration": 0.33455865625001024
        },
        {
          "name": "F3",
          "midi": 53,
          "time": 144.35286900000048,
          "velocity": 0.6299212598425197,
          "duration": 0.16691168125001354
        },
        {
          "name": "A#3",
          "midi": 58,
          "time": 144.5293395000005,
          "velocity": 0.6299212598425197,
          "duration": 0.33455865625001024
        },
        {
          "name": "D4",
          "midi": 62,
          "time": 144.5293395000005,
          "velocity": 0.6299212598425197,
          "duration": 0.33455865625001024
        },
        {
          "name": "F3",
          "midi": 53,
          "time": 144.88228050000052,
          "velocity": 0.6299212598425197,
          "duration": 0.16691168125001354
        },
        {
          "name": "A#3",
          "midi": 58,
          "time": 145.05875100000054,
          "velocity": 0.6299212598425197,
          "duration": 0.33455865625001024
        },
        {
          "name": "D4",
          "midi": 62,
          "time": 145.05875100000054,
          "velocity": 0.6299212598425197,
          "duration": 0.33455865625001024
        },
        {
          "name": "A#1",
          "midi": 34,
          "time": 145.41169200000056,
          "velocity": 0.6299212598425197,
          "duration": 0.33455865625001024
        },
        {
          "name": "A#2",
          "midi": 46,
          "time": 145.41169200000056,
          "velocity": 0.6299212598425197,
          "duration": 0.33455865625001024
        },
        {
          "name": "F3",
          "midi": 53,
          "time": 145.76463300000057,
          "velocity": 0.6299212598425197,
          "duration": 0.16691168125001354
        },
        {
          "name": "A#3",
          "midi": 58,
          "time": 145.9411035000006,
          "velocity": 0.6299212598425197,
          "duration": 0.33455865625001024
        },
        {
          "name": "D4",
          "midi": 62,
          "time": 145.9411035000006,
          "velocity": 0.6299212598425197,
          "duration": 0.33455865625001024
        },
        {
          "name": "F3",
          "midi": 53,
          "time": 146.2940445000006,
          "velocity": 0.6299212598425197,
          "duration": 0.16691168125001354
        },
        {
          "name": "A#3",
          "midi": 58,
          "time": 146.47051500000063,
          "velocity": 0.6299212598425197,
          "duration": 0.33455865625001024
        },
        {
          "name": "D4",
          "midi": 62,
          "time": 146.47051500000063,
          "velocity": 0.6299212598425197,
          "duration": 0.33455865625001024
        },
        {
          "name": "F2",
          "midi": 41,
          "time": 146.82345600000065,
          "velocity": 0.7559055118110236,
          "duration": 2.681616306250021
        },
        {
          "name": "F3",
          "midi": 53,
          "time": 146.82345600000065,
          "velocity": 0.7559055118110236,
          "duration": 2.681616306250021
        },
        {
          "name": "C2",
          "midi": 36,
          "time": 149.64698400000066,
          "velocity": 0.7559055118110236,
          "duration": 2.681616306250021
        },
        {
          "name": "C3",
          "midi": 48,
          "time": 149.64698400000066,
          "velocity": 0.7559055118110236,
          "duration": 2.681616306250021
        },
        {
          "name": "D#2",
          "midi": 39,
          "time": 152.47051200000067,
          "velocity": 0.7559055118110236,
          "duration": 2.681616306250021
        },
        {
          "name": "D#3",
          "midi": 51,
          "time": 152.47051200000067,
          "velocity": 0.7559055118110236,
          "duration": 2.681616306250021
        },
        {
          "name": "A#1",
          "midi": 34,
          "time": 155.29404000000068,
          "velocity": 0.7559055118110236,
          "duration": 1.3404405062500189
        },
        {
          "name": "A#2",
          "midi": 46,
          "time": 155.29404000000068,
          "velocity": 0.7559055118110236,
          "duration": 1.3404405062500189
        },
        {
          "name": "A#1",
          "midi": 34,
          "time": 156.70580400000068,
          "velocity": 0.7559055118110236,
          "duration": 0.16691168125001354
        },
        {
          "name": "A#2",
          "midi": 46,
          "time": 156.70580400000068,
          "velocity": 0.7559055118110236,
          "duration": 0.16691168125001354
        },
        {
          "name": "A#1",
          "midi": 34,
          "time": 156.8822745000007,
          "velocity": 0.7716535433070866,
          "duration": 0.16691168125001354
        },
        {
          "name": "A#2",
          "midi": 46,
          "time": 156.8822745000007,
          "velocity": 0.7716535433070866,
          "duration": 0.16691168125001354
        },
        {
          "name": "A#1",
          "midi": 34,
          "time": 157.05874500000073,
          "velocity": 0.7874015748031497,
          "duration": 0.16691168125001354
        },
        {
          "name": "A#2",
          "midi": 46,
          "time": 157.05874500000073,
          "velocity": 0.7874015748031497,
          "duration": 0.16691168125001354
        },
        {
          "name": "A#1",
          "midi": 34,
          "time": 157.23521550000075,
          "velocity": 0.8031496062992126,
          "duration": 0.16691168125001354
        },
        {
          "name": "A#2",
          "midi": 46,
          "time": 157.23521550000075,
          "velocity": 0.8031496062992126,
          "duration": 0.16691168125001354
        },
        {
          "name": "A#1",
          "midi": 34,
          "time": 157.41168600000077,
          "velocity": 0.8267716535433071,
          "duration": 0.16691168125001354
        },
        {
          "name": "A#2",
          "midi": 46,
          "time": 157.41168600000077,
          "velocity": 0.8267716535433071,
          "duration": 0.16691168125001354
        },
        {
          "name": "A#1",
          "midi": 34,
          "time": 157.5881565000008,
          "velocity": 0.84251968503937,
          "duration": 0.16691168125001354
        },
        {
          "name": "A#2",
          "midi": 46,
          "time": 157.5881565000008,
          "velocity": 0.84251968503937,
          "duration": 0.16691168125001354
        },
        {
          "name": "A#1",
          "midi": 34,
          "time": 157.76462700000081,
          "velocity": 0.8582677165354331,
          "duration": 0.16691168125001354
        },
        {
          "name": "A#2",
          "midi": 46,
          "time": 157.76462700000081,
          "velocity": 0.8582677165354331,
          "duration": 0.16691168125001354
        },
        {
          "name": "A#1",
          "midi": 34,
          "time": 157.94109750000084,
          "velocity": 0.8818897637795275,
          "duration": 0.16691168125001354
        },
        {
          "name": "A#2",
          "midi": 46,
          "time": 157.94109750000084,
          "velocity": 0.8818897637795275,
          "duration": 0.16691168125001354
        },
        {
          "name": "F2",
          "midi": 41,
          "time": 158.11756800000086,
          "velocity": 0.8818897637795275,
          "duration": 0.33455865625001024
        },
        {
          "name": "F3",
          "midi": 53,
          "time": 158.11756800000086,
          "velocity": 0.8818897637795275,
          "duration": 0.33455865625001024
        },
        {
          "name": "F3",
          "midi": 53,
          "time": 158.47050900000087,
          "velocity": 0.8818897637795275,
          "duration": 0.16691168125001354
        },
        {
          "name": "G#3",
          "midi": 56,
          "time": 158.6469795000009,
          "velocity": 0.8818897637795275,
          "duration": 0.33455865625001024
        },
        {
          "name": "C4",
          "midi": 60,
          "time": 158.6469795000009,
          "velocity": 0.8818897637795275,
          "duration": 0.33455865625001024
        },
        {
          "name": "F3",
          "midi": 53,
          "time": 158.9999205000009,
          "velocity": 0.8818897637795275,
          "duration": 0.16691168125001354
        },
        {
          "name": "G#3",
          "midi": 56,
          "time": 159.17639100000093,
          "velocity": 0.8818897637795275,
          "duration": 0.33455865625001024
        },
        {
          "name": "C4",
          "midi": 60,
          "time": 159.17639100000093,
          "velocity": 0.8818897637795275,
          "duration": 0.33455865625001024
        },
        {
          "name": "F2",
          "midi": 41,
          "time": 159.52933200000095,
          "velocity": 0.8818897637795275,
          "duration": 0.33455865625001024
        },
        {
          "name": "F3",
          "midi": 53,
          "time": 159.52933200000095,
          "velocity": 0.8818897637795275,
          "duration": 0.33455865625001024
        },
        {
          "name": "F3",
          "midi": 53,
          "time": 159.88227300000096,
          "velocity": 0.8818897637795275,
          "duration": 0.16691168125001354
        },
        {
          "name": "G#3",
          "midi": 56,
          "time": 160.058743500001,
          "velocity": 0.8818897637795275,
          "duration": 0.33455865625001024
        },
        {
          "name": "C4",
          "midi": 60,
          "time": 160.058743500001,
          "velocity": 0.8818897637795275,
          "duration": 0.33455865625001024
        },
        {
          "name": "F3",
          "midi": 53,
          "time": 160.411684500001,
          "velocity": 0.8818897637795275,
          "duration": 0.16691168125001354
        },
        {
          "name": "G#3",
          "midi": 56,
          "time": 160.58815500000102,
          "velocity": 0.8818897637795275,
          "duration": 0.33455865625001024
        },
        {
          "name": "C4",
          "midi": 60,
          "time": 160.58815500000102,
          "velocity": 0.8818897637795275,
          "duration": 0.33455865625001024
        },
        {
          "name": "C2",
          "midi": 36,
          "time": 160.94109600000104,
          "velocity": 0.8818897637795275,
          "duration": 0.33455865625001024
        },
        {
          "name": "C3",
          "midi": 48,
          "time": 160.94109600000104,
          "velocity": 0.8818897637795275,
          "duration": 0.33455865625001024
        },
        {
          "name": "G3",
          "midi": 55,
          "time": 161.29403700000105,
          "velocity": 0.8818897637795275,
          "duration": 0.16691168125001354
        },
        {
          "name": "C4",
          "midi": 60,
          "time": 161.47050750000108,
          "velocity": 0.8818897637795275,
          "duration": 0.33455865625001024
        },
        {
          "name": "D#4",
          "midi": 63,
          "time": 161.47050750000108,
          "velocity": 0.8818897637795275,
          "duration": 0.33455865625001024
        },
        {
          "name": "G3",
          "midi": 55,
          "time": 161.8234485000011,
          "velocity": 0.8818897637795275,
          "duration": 0.16691168125001354
        },
        {
          "name": "C4",
          "midi": 60,
          "time": 161.9999190000011,
          "velocity": 0.8818897637795275,
          "duration": 0.33455865625001024
        },
        {
          "name": "D#4",
          "midi": 63,
          "time": 161.9999190000011,
          "velocity": 0.8818897637795275,
          "duration": 0.33455865625001024
        },
        {
          "name": "C2",
          "midi": 36,
          "time": 162.35286000000113,
          "velocity": 0.8818897637795275,
          "duration": 0.33455865625001024
        },
        {
          "name": "C3",
          "midi": 48,
          "time": 162.35286000000113,
          "velocity": 0.8818897637795275,
          "duration": 0.33455865625001024
        },
        {
          "name": "G3",
          "midi": 55,
          "time": 162.70580100000114,
          "velocity": 0.8818897637795275,
          "duration": 0.16691168125001354
        },
        {
          "name": "C4",
          "midi": 60,
          "time": 162.88227150000117,
          "velocity": 0.8818897637795275,
          "duration": 0.33455865625001024
        },
        {
          "name": "D#4",
          "midi": 63,
          "time": 162.88227150000117,
          "velocity": 0.8818897637795275,
          "duration": 0.33455865625001024
        },
        {
          "name": "G3",
          "midi": 55,
          "time": 163.23521250000118,
          "velocity": 0.8818897637795275,
          "duration": 0.16691168125001354
        },
        {
          "name": "C4",
          "midi": 60,
          "time": 163.4116830000012,
          "velocity": 0.8818897637795275,
          "duration": 0.33455865625001024
        },
        {
          "name": "D#4",
          "midi": 63,
          "time": 163.4116830000012,
          "velocity": 0.8818897637795275,
          "duration": 0.33455865625001024
        },
        {
          "name": "D#2",
          "midi": 39,
          "time": 163.76462400000122,
          "velocity": 0.8818897637795275,
          "duration": 0.33455865625001024
        },
        {
          "name": "D#3",
          "midi": 51,
          "time": 163.76462400000122,
          "velocity": 0.8818897637795275,
          "duration": 0.33455865625001024
        },
        {
          "name": "D#3",
          "midi": 51,
          "time": 164.11756500000124,
          "velocity": 0.8818897637795275,
          "duration": 0.16691168125001354
        },
        {
          "name": "G3",
          "midi": 55,
          "time": 164.29403550000126,
          "velocity": 0.8818897637795275,
          "duration": 0.33455865625001024
        },
        {
          "name": "A#3",
          "midi": 58,
          "time": 164.29403550000126,
          "velocity": 0.8818897637795275,
          "duration": 0.33455865625001024
        },
        {
          "name": "D#3",
          "midi": 51,
          "time": 164.64697650000127,
          "velocity": 0.8818897637795275,
          "duration": 0.16691168125001354
        },
        {
          "name": "G3",
          "midi": 55,
          "time": 164.8234470000013,
          "velocity": 0.8818897637795275,
          "duration": 0.33455865625001024
        },
        {
          "name": "A#3",
          "midi": 58,
          "time": 164.8234470000013,
          "velocity": 0.8818897637795275,
          "duration": 0.33455865625001024
        },
        {
          "name": "D#2",
          "midi": 39,
          "time": 165.1763880000013,
          "velocity": 0.8818897637795275,
          "duration": 0.33455865625001024
        },
        {
          "name": "D#3",
          "midi": 51,
          "time": 165.1763880000013,
          "velocity": 0.8818897637795275,
          "duration": 0.33455865625001024
        },
        {
          "name": "D#3",
          "midi": 51,
          "time": 165.52932900000133,
          "velocity": 0.8188976377952756,
          "duration": 0.16691168125001354
        },
        {
          "name": "G3",
          "midi": 55,
          "time": 165.70579950000135,
          "velocity": 0.7874015748031497,
          "duration": 0.33455865625001024
        },
        {
          "name": "A#3",
          "midi": 58,
          "time": 165.70579950000135,
          "velocity": 0.7874015748031497,
          "duration": 0.33455865625001024
        },
        {
          "name": "D#3",
          "midi": 51,
          "time": 166.05874050000136,
          "velocity": 0.7244094488188977,
          "duration": 0.16691168125001354
        },
        {
          "name": "G3",
          "midi": 55,
          "time": 166.23521100000139,
          "velocity": 0.6929133858267716,
          "duration": 0.33455865625001024
        },
        {
          "name": "A#3",
          "midi": 58,
          "time": 166.23521100000139,
          "velocity": 0.6929133858267716,
          "duration": 0.33455865625001024
        },
        {
          "name": "A#1",
          "midi": 34,
          "time": 166.5881520000014,
          "velocity": 0.6299212598425197,
          "duration": 0.33455865625001024
        },
        {
          "name": "A#2",
          "midi": 46,
          "time": 166.5881520000014,
          "velocity": 0.6299212598425197,
          "duration": 0.33455865625001024
        },
        {
          "name": "F3",
          "midi": 53,
          "time": 166.94109300000142,
          "velocity": 0.6299212598425197,
          "duration": 0.16691168125001354
        },
        {
          "name": "A#3",
          "midi": 58,
          "time": 167.11756350000144,
          "velocity": 0.6299212598425197,
          "duration": 0.33455865625001024
        },
        {
          "name": "D4",
          "midi": 62,
          "time": 167.11756350000144,
          "velocity": 0.6299212598425197,
          "duration": 0.33455865625001024
        },
        {
          "name": "F3",
          "midi": 53,
          "time": 167.47050450000145,
          "velocity": 0.6299212598425197,
          "duration": 0.16691168125001354
        },
        {
          "name": "A#3",
          "midi": 58,
          "time": 167.64697500000148,
          "velocity": 0.6299212598425197,
          "duration": 0.33455865625001024
        },
        {
          "name": "D4",
          "midi": 62,
          "time": 167.64697500000148,
          "velocity": 0.6299212598425197,
          "duration": 0.33455865625001024
        },
        {
          "name": "A#1",
          "midi": 34,
          "time": 167.9999160000015,
          "velocity": 0.6299212598425197,
          "duration": 0.33455865625001024
        },
        {
          "name": "A#2",
          "midi": 46,
          "time": 167.9999160000015,
          "velocity": 0.6299212598425197,
          "duration": 0.33455865625001024
        },
        {
          "name": "F3",
          "midi": 53,
          "time": 168.3528570000015,
          "velocity": 0.6299212598425197,
          "duration": 0.16691168125001354
        },
        {
          "name": "A#3",
          "midi": 58,
          "time": 168.52932750000153,
          "velocity": 0.6299212598425197,
          "duration": 0.33455865625001024
        },
        {
          "name": "D4",
          "midi": 62,
          "time": 168.52932750000153,
          "velocity": 0.6299212598425197,
          "duration": 0.33455865625001024
        },
        {
          "name": "F3",
          "midi": 53,
          "time": 168.88226850000154,
          "velocity": 0.6299212598425197,
          "duration": 0.16691168125001354
        },
        {
          "name": "A#3",
          "midi": 58,
          "time": 169.05873900000157,
          "velocity": 0.6299212598425197,
          "duration": 0.33455865625001024
        },
        {
          "name": "D4",
          "midi": 62,
          "time": 169.05873900000157,
          "velocity": 0.6299212598425197,
          "duration": 0.33455865625001024
        },
        {
          "name": "F2",
          "midi": 41,
          "time": 169.41168000000158,
          "velocity": 0.6299212598425197,
          "duration": 0.16691168125001354
        },
        {
          "name": "C3",
          "midi": 48,
          "time": 169.5881505000016,
          "velocity": 0.6299212598425197,
          "duration": 0.16691168125001354
        },
        {
          "name": "F3",
          "midi": 53,
          "time": 169.76462100000163,
          "velocity": 0.6299212598425197,
          "duration": 0.16691168125001354
        },
        {
          "name": "G#3",
          "midi": 56,
          "time": 169.94109150000165,
          "velocity": 0.6299212598425197,
          "duration": 0.8374995812500003
        },
        {
          "name": "F2",
          "midi": 41,
          "time": 170.82344400000164,
          "velocity": 0.6299212598425197,
          "duration": 0.16691168125001354
        },
        {
          "name": "C3",
          "midi": 48,
          "time": 170.99991450000167,
          "velocity": 0.6299212598425197,
          "duration": 0.16691168125001354
        },
        {
          "name": "F3",
          "midi": 53,
          "time": 171.1763850000017,
          "velocity": 0.6299212598425197,
          "duration": 0.16691168125001354
        },
        {
          "name": "G#3",
          "midi": 56,
          "time": 171.3528555000017,
          "velocity": 0.6299212598425197,
          "duration": 0.8374995812500003
        },
        {
          "name": "C2",
          "midi": 36,
          "time": 172.2352080000017,
          "velocity": 0.6299212598425197,
          "duration": 0.16691168125001354
        },
        {
          "name": "G2",
          "midi": 43,
          "time": 172.41167850000173,
          "velocity": 0.6299212598425197,
          "duration": 0.16691168125001354
        },
        {
          "name": "C3",
          "midi": 48,
          "time": 172.58814900000175,
          "velocity": 0.6299212598425197,
          "duration": 0.16691168125001354
        },
        {
          "name": "D#3",
          "midi": 51,
          "time": 172.76461950000177,
          "velocity": 0.6299212598425197,
          "duration": 0.8374995812500003
        },
        {
          "name": "C2",
          "midi": 36,
          "time": 173.64697200000177,
          "velocity": 0.6299212598425197,
          "duration": 0.16691168125001354
        },
        {
          "name": "G2",
          "midi": 43,
          "time": 173.8234425000018,
          "velocity": 0.6299212598425197,
          "duration": 0.16691168125001354
        },
        {
          "name": "C3",
          "midi": 48,
          "time": 173.9999130000018,
          "velocity": 0.6299212598425197,
          "duration": 0.16691168125001354
        },
        {
          "name": "D#3",
          "midi": 51,
          "time": 174.17638350000183,
          "velocity": 0.6299212598425197,
          "duration": 0.8374995812500003
        },
        {
          "name": "D#2",
          "midi": 39,
          "time": 175.05873600000183,
          "velocity": 0.6299212598425197,
          "duration": 0.16691168125001354
        },
        {
          "name": "A#2",
          "midi": 46,
          "time": 175.23520650000185,
          "velocity": 0.6299212598425197,
          "duration": 0.16691168125001354
        },
        {
          "name": "D#3",
          "midi": 51,
          "time": 175.41167700000187,
          "velocity": 0.6299212598425197,
          "duration": 0.16691168125001354
        },
        {
          "name": "G3",
          "midi": 55,
          "time": 175.5881475000019,
          "velocity": 0.6299212598425197,
          "duration": 0.8374995812500003
        },
        {
          "name": "D#2",
          "midi": 39,
          "time": 176.4705000000019,
          "velocity": 0.6299212598425197,
          "duration": 0.16691168125001354
        },
        {
          "name": "A#2",
          "midi": 46,
          "time": 176.6469705000019,
          "velocity": 0.6299212598425197,
          "duration": 0.16691168125001354
        },
        {
          "name": "D#3",
          "midi": 51,
          "time": 176.82344100000194,
          "velocity": 0.6299212598425197,
          "duration": 0.16691168125001354
        },
        {
          "name": "G3",
          "midi": 55,
          "time": 176.99991150000196,
          "velocity": 0.6299212598425197,
          "duration": 0.8374995812500003
        },
        {
          "name": "A#1",
          "midi": 34,
          "time": 177.88226400000195,
          "velocity": 0.6299212598425197,
          "duration": 0.16691168125001354
        },
        {
          "name": "F2",
          "midi": 41,
          "time": 178.05873450000198,
          "velocity": 0.6141732283464567,
          "duration": 0.16691168125001354
        },
        {
          "name": "A#2",
          "midi": 46,
          "time": 178.235205000002,
          "velocity": 0.5984251968503937,
          "duration": 0.16691168125001354
        },
        {
          "name": "D3",
          "midi": 50,
          "time": 178.41167550000202,
          "velocity": 0.5826771653543307,
          "duration": 1.5080874812499871
        },
        {
          "name": "F3",
          "midi": 53,
          "time": 178.588146000002,
          "velocity": 0.5590551181102362,
          "duration": 1.5080874812499871
        }
      ],
      "controlChanges": {
        "64": [
          {
            "number": 64,
            "time": 0.0014705875,
            "value": 1
          },
          {
            "number": 64,
            "time": 1.4124992937499998,
            "value": 0
          },
          {
            "number": 64,
            "time": 1.4132345874999999,
            "value": 1
          },
          {
            "number": 64,
            "time": 2.8242632937499996,
            "value": 0
          },
          {
            "number": 64,
            "time": 2.8249985874999997,
            "value": 1
          },
          {
            "number": 64,
            "time": 4.236027293749999,
            "value": 0
          },
          {
            "number": 64,
            "time": 4.2367625874999995,
            "value": 1
          },
          {
            "number": 64,
            "time": 5.64779129375,
            "value": 0
          },
          {
            "number": 64,
            "time": 5.6485265875,
            "value": 1
          },
          {
            "number": 64,
            "time": 7.059555293750001,
            "value": 0
          },
          {
            "number": 64,
            "time": 7.060290587500001,
            "value": 1
          },
          {
            "number": 64,
            "time": 8.47131929375,
            "value": 0
          },
          {
            "number": 64,
            "time": 8.472054587499999,
            "value": 1
          },
          {
            "number": 64,
            "time": 9.883083293749994,
            "value": 0
          },
          {
            "number": 64,
            "time": 9.883818587499993,
            "value": 1
          },
          {
            "number": 64,
            "time": 11.294847293749989,
            "value": 0
          },
          {
            "number": 64,
            "time": 11.295582587499988,
            "value": 1
          },
          {
            "number": 64,
            "time": 12.706611293749983,
            "value": 0
          },
          {
            "number": 64,
            "time": 12.707346587499982,
            "value": 1
          },
          {
            "number": 64,
            "time": 14.118375293749978,
            "value": 0
          },
          {
            "number": 64,
            "time": 14.119110587499977,
            "value": 1
          },
          {
            "number": 64,
            "time": 15.530139293749972,
            "value": 0
          },
          {
            "number": 64,
            "time": 15.530874587499971,
            "value": 1
          },
          {
            "number": 64,
            "time": 16.94190329374997,
            "value": 0
          },
          {
            "number": 64,
            "time": 16.94263858749997,
            "value": 1
          },
          {
            "number": 64,
            "time": 18.353667293749975,
            "value": 0
          },
          {
            "number": 64,
            "time": 18.354402587499976,
            "value": 1
          },
          {
            "number": 64,
            "time": 19.76543129374998,
            "value": 0
          },
          {
            "number": 64,
            "time": 19.76616658749998,
            "value": 1
          },
          {
            "number": 64,
            "time": 21.177195293749985,
            "value": 0
          },
          {
            "number": 64,
            "time": 21.177930587499986,
            "value": 1
          },
          {
            "number": 64,
            "time": 22.58895929374999,
            "value": 0
          },
          {
            "number": 64,
            "time": 22.58969458749999,
            "value": 1
          },
          {
            "number": 64,
            "time": 24.000723293749996,
            "value": 0
          },
          {
            "number": 64,
            "time": 24.001458587499997,
            "value": 1
          },
          {
            "number": 64,
            "time": 25.41248729375,
            "value": 0
          },
          {
            "number": 64,
            "time": 25.4132225875,
            "value": 1
          },
          {
            "number": 64,
            "time": 26.824251293750006,
            "value": 0
          },
          {
            "number": 64,
            "time": 26.824986587500007,
            "value": 1
          },
          {
            "number": 64,
            "time": 28.23601529375001,
            "value": 0
          },
          {
            "number": 64,
            "time": 28.236750587500012,
            "value": 1
          },
          {
            "number": 64,
            "time": 29.647779293750016,
            "value": 0
          },
          {
            "number": 64,
            "time": 29.648514587500017,
            "value": 1
          },
          {
            "number": 64,
            "time": 31.05954329375002,
            "value": 0
          },
          {
            "number": 64,
            "time": 31.060278587500022,
            "value": 1
          },
          {
            "number": 64,
            "time": 32.47130729375002,
            "value": 0
          },
          {
            "number": 64,
            "time": 32.47204258750002,
            "value": 1
          },
          {
            "number": 64,
            "time": 33.88307129375002,
            "value": 0
          },
          {
            "number": 64,
            "time": 33.88380658750002,
            "value": 1
          },
          {
            "number": 64,
            "time": 35.29483529375002,
            "value": 0
          },
          {
            "number": 64,
            "time": 35.295570587500016,
            "value": 1
          },
          {
            "number": 64,
            "time": 36.70659929375002,
            "value": 0
          },
          {
            "number": 64,
            "time": 36.707334587500014,
            "value": 1
          },
          {
            "number": 64,
            "time": 38.118363293750015,
            "value": 0
          },
          {
            "number": 64,
            "time": 38.11909858750001,
            "value": 1
          },
          {
            "number": 64,
            "time": 39.53012729375001,
            "value": 0
          },
          {
            "number": 64,
            "time": 39.53086258750001,
            "value": 1
          },
          {
            "number": 64,
            "time": 40.94189129375001,
            "value": 0
          },
          {
            "number": 64,
            "time": 40.94262658750001,
            "value": 1
          },
          {
            "number": 64,
            "time": 42.35365529375,
            "value": 0
          },
          {
            "number": 64,
            "time": 42.3543905875,
            "value": 1
          },
          {
            "number": 64,
            "time": 43.76541929375,
            "value": 0
          },
          {
            "number": 64,
            "time": 43.7661545875,
            "value": 1
          },
          {
            "number": 64,
            "time": 45.17718329375,
            "value": 0
          },
          {
            "number": 64,
            "time": 45.177918587499995,
            "value": 1
          },
          {
            "number": 64,
            "time": 46.588947293749996,
            "value": 0
          },
          {
            "number": 64,
            "time": 46.58968258749999,
            "value": 1
          },
          {
            "number": 64,
            "time": 48.000711293749994,
            "value": 0
          },
          {
            "number": 64,
            "time": 48.00144658749999,
            "value": 1
          },
          {
            "number": 64,
            "time": 49.41247529374999,
            "value": 0
          },
          {
            "number": 64,
            "time": 49.41321058749999,
            "value": 1
          },
          {
            "number": 64,
            "time": 50.82423929374999,
            "value": 0
          },
          {
            "number": 64,
            "time": 50.82497458749999,
            "value": 1
          },
          {
            "number": 64,
            "time": 52.23600329374999,
            "value": 0
          },
          {
            "number": 64,
            "time": 52.236738587499985,
            "value": 1
          },
          {
            "number": 64,
            "time": 53.647767293749986,
            "value": 0
          },
          {
            "number": 64,
            "time": 53.64850258749998,
            "value": 1
          },
          {
            "number": 64,
            "time": 55.059531293749984,
            "value": 0
          },
          {
            "number": 64,
            "time": 55.06026658749998,
            "value": 1
          },
          {
            "number": 64,
            "time": 56.47129529374998,
            "value": 0
          },
          {
            "number": 64,
            "time": 56.47203058749998,
            "value": 1
          },
          {
            "number": 64,
            "time": 57.88305929374998,
            "value": 0
          },
          {
            "number": 64,
            "time": 57.88379458749998,
            "value": 1
          },
          {
            "number": 64,
            "time": 59.29482329374998,
            "value": 0
          },
          {
            "number": 64,
            "time": 59.295558587499976,
            "value": 1
          },
          {
            "number": 64,
            "time": 60.706587293749976,
            "value": 0
          },
          {
            "number": 64,
            "time": 60.707322587499974,
            "value": 1
          },
          {
            "number": 64,
            "time": 62.118351293749974,
            "value": 0
          },
          {
            "number": 64,
            "time": 62.11908658749997,
            "value": 1
          },
          {
            "number": 64,
            "time": 63.53011529374997,
            "value": 0
          },
          {
            "number": 64,
            "time": 63.53085058749997,
            "value": 1
          },
          {
            "number": 64,
            "time": 64.94187929374996,
            "value": 0
          },
          {
            "number": 64,
            "time": 64.94261458749996,
            "value": 1
          },
          {
            "number": 64,
            "time": 66.35364329374995,
            "value": 0
          },
          {
            "number": 64,
            "time": 66.35437858749995,
            "value": 1
          },
          {
            "number": 64,
            "time": 67.76540729374994,
            "value": 0
          },
          {
            "number": 64,
            "time": 67.76614258749994,
            "value": 1
          },
          {
            "number": 64,
            "time": 69.17717129374994,
            "value": 0
          },
          {
            "number": 64,
            "time": 69.17790658749993,
            "value": 1
          },
          {
            "number": 64,
            "time": 70.58893529374993,
            "value": 0
          },
          {
            "number": 64,
            "time": 70.58967058749992,
            "value": 1
          },
          {
            "number": 64,
            "time": 72.00069929374992,
            "value": 0
          },
          {
            "number": 64,
            "time": 72.00143458749992,
            "value": 1
          },
          {
            "number": 64,
            "time": 73.41246329374991,
            "value": 0
          },
          {
            "number": 64,
            "time": 73.4131985874999,
            "value": 1
          },
          {
            "number": 64,
            "time": 74.8242272937499,
            "value": 0
          },
          {
            "number": 64,
            "time": 74.8249625874999,
            "value": 1
          },
          {
            "number": 64,
            "time": 76.23599129374989,
            "value": 0
          },
          {
            "number": 64,
            "time": 76.23672658749989,
            "value": 1
          },
          {
            "number": 64,
            "time": 77.64775529374988,
            "value": 0
          },
          {
            "number": 64,
            "time": 77.64849058749988,
            "value": 1
          },
          {
            "number": 64,
            "time": 79.05951929374987,
            "value": 0
          },
          {
            "number": 64,
            "time": 79.06025458749987,
            "value": 1
          },
          {
            "number": 64,
            "time": 80.47128329374985,
            "value": 0
          },
          {
            "number": 64,
            "time": 80.47201858749985,
            "value": 1
          },
          {
            "number": 64,
            "time": 81.88304729374983,
            "value": 0
          },
          {
            "number": 64,
            "time": 81.88378258749982,
            "value": 1
          },
          {
            "number": 64,
            "time": 83.2948112937498,
            "value": 0
          },
          {
            "number": 64,
            "time": 83.2955465874998,
            "value": 1
          },
          {
            "number": 64,
            "time": 84.70657529374978,
            "value": 0
          },
          {
            "number": 64,
            "time": 84.70731058749978,
            "value": 1
          },
          {
            "number": 64,
            "time": 86.11833929374976,
            "value": 0
          },
          {
            "number": 64,
            "time": 86.11907458749975,
            "value": 1
          },
          {
            "number": 64,
            "time": 87.53010329374973,
            "value": 0
          },
          {
            "number": 64,
            "time": 87.53083858749973,
            "value": 1
          },
          {
            "number": 64,
            "time": 88.94186729374971,
            "value": 0
          },
          {
            "number": 64,
            "time": 88.9426025874997,
            "value": 1
          },
          {
            "number": 64,
            "time": 90.35363129374969,
            "value": 0
          },
          {
            "number": 64,
            "time": 90.35436658749968,
            "value": 1
          },
          {
            "number": 64,
            "time": 91.76539529374968,
            "value": 0
          },
          {
            "number": 64,
            "time": 91.76613058749967,
            "value": 1
          },
          {
            "number": 64,
            "time": 93.17715929374967,
            "value": 0
          },
          {
            "number": 64,
            "time": 93.17789458749967,
            "value": 1
          },
          {
            "number": 64,
            "time": 94.58892329374966,
            "value": 0
          },
          {
            "number": 64,
            "time": 94.58965858749966,
            "value": 1
          },
          {
            "number": 64,
            "time": 96.00068729374965,
            "value": 0
          },
          {
            "number": 64,
            "time": 96.00142258749965,
            "value": 1
          },
          {
            "number": 64,
            "time": 97.41245129374964,
            "value": 0
          },
          {
            "number": 64,
            "time": 97.41318658749964,
            "value": 1
          },
          {
            "number": 64,
            "time": 98.82421529374963,
            "value": 0
          },
          {
            "number": 64,
            "time": 98.82495058749963,
            "value": 1
          },
          {
            "number": 64,
            "time": 100.23597929374962,
            "value": 0
          },
          {
            "number": 64,
            "time": 100.23671458749962,
            "value": 1
          },
          {
            "number": 64,
            "time": 101.64774329374961,
            "value": 0
          },
          {
            "number": 64,
            "time": 101.64847858749961,
            "value": 1
          },
          {
            "number": 64,
            "time": 103.0595072937496,
            "value": 0
          },
          {
            "number": 64,
            "time": 103.0602425874996,
            "value": 1
          },
          {
            "number": 64,
            "time": 104.4712712937496,
            "value": 0
          },
          {
            "number": 64,
            "time": 104.47200658749959,
            "value": 1
          },
          {
            "number": 64,
            "time": 105.88303529374959,
            "value": 0
          },
          {
            "number": 64,
            "time": 105.88377058749958,
            "value": 1
          },
          {
            "number": 64,
            "time": 107.29479929374958,
            "value": 0
          },
          {
            "number": 64,
            "time": 107.29553458749957,
            "value": 1
          },
          {
            "number": 64,
            "time": 108.70656329374957,
            "value": 0
          },
          {
            "number": 64,
            "time": 108.70729858749957,
            "value": 1
          },
          {
            "number": 64,
            "time": 110.11832729374956,
            "value": 0
          },
          {
            "number": 64,
            "time": 110.11906258749956,
            "value": 1
          },
          {
            "number": 64,
            "time": 111.53009129374955,
            "value": 0
          },
          {
            "number": 64,
            "time": 111.53082658749955,
            "value": 1
          },
          {
            "number": 64,
            "time": 112.94185529374954,
            "value": 0
          },
          {
            "number": 64,
            "time": 112.94259058749954,
            "value": 1
          },
          {
            "number": 64,
            "time": 114.35361929374953,
            "value": 0
          },
          {
            "number": 64,
            "time": 114.35435458749953,
            "value": 1
          },
          {
            "number": 64,
            "time": 115.76538329374952,
            "value": 0
          },
          {
            "number": 64,
            "time": 115.76611858749952,
            "value": 1
          },
          {
            "number": 64,
            "time": 117.17714729374951,
            "value": 0
          },
          {
            "number": 64,
            "time": 117.17788258749951,
            "value": 1
          },
          {
            "number": 64,
            "time": 118.5889112937495,
            "value": 0
          },
          {
            "number": 64,
            "time": 118.5896465874995,
            "value": 1
          },
          {
            "number": 64,
            "time": 120.0006752937495,
            "value": 0
          },
          {
            "number": 64,
            "time": 120.00141058749949,
            "value": 1
          },
          {
            "number": 64,
            "time": 121.41243929374949,
            "value": 0
          },
          {
            "number": 64,
            "time": 121.41317458749948,
            "value": 1
          },
          {
            "number": 64,
            "time": 122.82420329374948,
            "value": 0
          },
          {
            "number": 64,
            "time": 122.82493858749947,
            "value": 1
          },
          {
            "number": 64,
            "time": 124.23596729374947,
            "value": 0
          },
          {
            "number": 64,
            "time": 124.23670258749947,
            "value": 1
          },
          {
            "number": 64,
            "time": 125.64773129374946,
            "value": 0
          },
          {
            "number": 64,
            "time": 125.64846658749946,
            "value": 1
          },
          {
            "number": 64,
            "time": 127.05949529374945,
            "value": 0
          },
          {
            "number": 64,
            "time": 127.06023058749945,
            "value": 1
          },
          {
            "number": 64,
            "time": 128.47125929374948,
            "value": 0
          },
          {
            "number": 64,
            "time": 128.4719945874995,
            "value": 1
          },
          {
            "number": 64,
            "time": 129.88302329374957,
            "value": 0
          },
          {
            "number": 64,
            "time": 129.88375858749959,
            "value": 1
          },
          {
            "number": 64,
            "time": 131.29478729374966,
            "value": 0
          },
          {
            "number": 64,
            "time": 131.29552258749968,
            "value": 1
          },
          {
            "number": 64,
            "time": 132.70655129374975,
            "value": 0
          },
          {
            "number": 64,
            "time": 132.70728658749977,
            "value": 1
          },
          {
            "number": 64,
            "time": 134.11831529374984,
            "value": 0
          },
          {
            "number": 64,
            "time": 134.11905058749986,
            "value": 1
          },
          {
            "number": 64,
            "time": 135.53007929374994,
            "value": 0
          },
          {
            "number": 64,
            "time": 135.53081458749995,
            "value": 1
          },
          {
            "number": 64,
            "time": 136.94184329375003,
            "value": 0
          },
          {
            "number": 64,
            "time": 136.94257858750004,
            "value": 1
          },
          {
            "number": 64,
            "time": 138.35360729375012,
            "value": 0
          },
          {
            "number": 64,
            "time": 138.35434258750013,
            "value": 1
          },
          {
            "number": 64,
            "time": 139.7653712937502,
            "value": 0
          },
          {
            "number": 64,
            "time": 139.76610658750022,
            "value": 1
          },
          {
            "number": 64,
            "time": 141.1771352937503,
            "value": 0
          },
          {
            "number": 64,
            "time": 141.1778705875003,
            "value": 1
          },
          {
            "number": 64,
            "time": 142.5888992937504,
            "value": 0
          },
          {
            "number": 64,
            "time": 142.5896345875004,
            "value": 1
          },
          {
            "number": 64,
            "time": 144.00066329375048,
            "value": 0
          },
          {
            "number": 64,
            "time": 144.0013985875005,
            "value": 1
          },
          {
            "number": 64,
            "time": 145.41242729375057,
            "value": 0
          },
          {
            "number": 64,
            "time": 145.41316258750058,
            "value": 1
          },
          {
            "number": 64,
            "time": 146.82419129375066,
            "value": 0
          },
          {
            "number": 64,
            "time": 146.82492658750067,
            "value": 1
          },
          {
            "number": 64,
            "time": 148.23595529375066,
            "value": 0
          },
          {
            "number": 64,
            "time": 148.23669058750068,
            "value": 1
          },
          {
            "number": 64,
            "time": 149.64771929375067,
            "value": 0
          },
          {
            "number": 64,
            "time": 149.64845458750068,
            "value": 1
          },
          {
            "number": 64,
            "time": 151.05948329375067,
            "value": 0
          },
          {
            "number": 64,
            "time": 151.06021858750069,
            "value": 1
          },
          {
            "number": 64,
            "time": 152.47124729375068,
            "value": 0
          },
          {
            "number": 64,
            "time": 152.4719825875007,
            "value": 1
          },
          {
            "number": 64,
            "time": 153.88301129375068,
            "value": 0
          },
          {
            "number": 64,
            "time": 153.8837465875007,
            "value": 1
          },
          {
            "number": 64,
            "time": 155.2947752937507,
            "value": 0
          },
          {
            "number": 64,
            "time": 155.2955105875007,
            "value": 1
          },
          {
            "number": 64,
            "time": 156.7065392937507,
            "value": 0
          },
          {
            "number": 64,
            "time": 156.7072745875007,
            "value": 1
          },
          {
            "number": 64,
            "time": 158.11830329375087,
            "value": 0
          },
          {
            "number": 64,
            "time": 158.11903858750088,
            "value": 1
          },
          {
            "number": 64,
            "time": 159.53006729375096,
            "value": 0
          },
          {
            "number": 64,
            "time": 159.53080258750097,
            "value": 1
          },
          {
            "number": 64,
            "time": 160.94183129375105,
            "value": 0
          },
          {
            "number": 64,
            "time": 160.94256658750106,
            "value": 1
          },
          {
            "number": 64,
            "time": 162.35359529375114,
            "value": 0
          },
          {
            "number": 64,
            "time": 162.35433058750115,
            "value": 1
          },
          {
            "number": 64,
            "time": 163.76535929375123,
            "value": 0
          },
          {
            "number": 64,
            "time": 163.76609458750124,
            "value": 1
          },
          {
            "number": 64,
            "time": 165.17712329375132,
            "value": 0
          },
          {
            "number": 64,
            "time": 165.17785858750133,
            "value": 1
          },
          {
            "number": 64,
            "time": 166.5888872937514,
            "value": 0
          },
          {
            "number": 64,
            "time": 166.58962258750142,
            "value": 1
          },
          {
            "number": 64,
            "time": 168.0006512937515,
            "value": 0
          },
          {
            "number": 64,
            "time": 168.00138658750151,
            "value": 1
          },
          {
            "number": 64,
            "time": 169.4124152937516,
            "value": 0
          },
          {
            "number": 64,
            "time": 169.4131505875016,
            "value": 1
          },
          {
            "number": 64,
            "time": 170.82417929375165,
            "value": 0
          },
          {
            "number": 64,
            "time": 170.82491458750167,
            "value": 1
          },
          {
            "number": 64,
            "time": 172.23594329375172,
            "value": 0
          },
          {
            "number": 64,
            "time": 172.23667858750173,
            "value": 1
          },
          {
            "number": 64,
            "time": 173.64770729375178,
            "value": 0
          },
          {
            "number": 64,
            "time": 173.6484425875018,
            "value": 1
          },
          {
            "number": 64,
            "time": 175.05947129375184,
            "value": 0
          },
          {
            "number": 64,
            "time": 175.06020658750185,
            "value": 1
          },
          {
            "number": 64,
            "time": 176.4712352937519,
            "value": 0
          },
          {
            "number": 64,
            "time": 176.47197058750191,
            "value": 1
          },
          {
            "number": 64,
            "time": 177.88299929375196,
            "value": 0
          },
          {
            "number": 64,
            "time": 177.88373458750198,
            "value": 1
          },
          {
            "number": 64,
            "time": 179.294763293752,
            "value": 0
          },
          {
            "number": 64,
            "time": 179.295498587502,
            "value": 1
          },
          {
            "number": 64,
            "time": 180.705792000002,
            "value": 0
          }
        ]
      },
      "id": 1,
      "name": "Piano",
      "channelNumber": 0,
      "isPercussion": false
    }
  ]
}
